%FSLAX45Y45*%
G04 Gerber Fmt 4.5, Leading zero omitted, Abs format (unit mm)*
G04 Created by KiCad (PCBNEW (5.0.2)-1) date 2019/03/03 0:14:22*
%MOMM*%
%LPD*%
G01*
G04 APERTURE LIST*
%ADD10C,0.150000*%
%ADD11C,0.200000*%
%ADD12C,0.300000*%
G04 APERTURE END LIST*
D10*
X17405000Y-4469000D02*
X17881000Y-4469000D01*
X17405000Y-2059000D02*
X17405000Y-4469000D01*
X1991000Y-12584000D02*
X17881000Y-12584000D01*
X1991000Y-2059000D02*
X17405000Y-2059000D01*
X17881000Y-4469000D02*
X17881000Y-12584000D01*
X1991000Y-2059000D02*
X1991000Y-12584000D01*
D11*
X2281000Y-6143000D02*
X2401000Y-6263000D01*
X2401000Y-6143000D02*
X2281000Y-6263000D01*
X2981000Y-6143000D02*
X3101000Y-6263000D01*
X3101000Y-6143000D02*
X2981000Y-6263000D01*
X16510200Y-9226000D02*
G75*
G03X16510200Y-9226000I-90000J0D01*
G01*
X17526200Y-9226000D02*
G75*
G03X17526200Y-9226000I-90000J0D01*
G01*
X8890200Y-9226000D02*
G75*
G03X8890200Y-9226000I-90000J0D01*
G01*
X9906200Y-9226000D02*
G75*
G03X9906200Y-9226000I-90000J0D01*
G01*
X5080250Y-5416000D02*
G75*
G03X5080250Y-5416000I-90000J0D01*
G01*
X6096250Y-5416000D02*
G75*
G03X6096250Y-5416000I-90000J0D01*
G01*
X9604000Y-11131000D02*
G75*
G03X9604000Y-11131000I-90000J0D01*
G01*
X10620000Y-11131000D02*
G75*
G03X10620000Y-11131000I-90000J0D01*
G01*
X12700200Y-9226000D02*
G75*
G03X12700200Y-9226000I-90000J0D01*
G01*
X13716200Y-9226000D02*
G75*
G03X13716200Y-9226000I-90000J0D01*
G01*
X13652700Y-7321000D02*
G75*
G03X13652700Y-7321000I-90000J0D01*
G01*
X14668700Y-7321000D02*
G75*
G03X14668700Y-7321000I-90000J0D01*
G01*
X6509000Y-3511000D02*
G75*
G03X6509000Y-3511000I-90000J0D01*
G01*
X7525000Y-3511000D02*
G75*
G03X7525000Y-3511000I-90000J0D01*
G01*
X15557700Y-7321000D02*
G75*
G03X15557700Y-7321000I-90000J0D01*
G01*
X16573700Y-7321000D02*
G75*
G03X16573700Y-7321000I-90000J0D01*
G01*
X16034000Y-3511000D02*
G75*
G03X16034000Y-3511000I-90000J0D01*
G01*
X17050000Y-3511000D02*
G75*
G03X17050000Y-3511000I-90000J0D01*
G01*
X11747700Y-7321000D02*
G75*
G03X11747700Y-7321000I-90000J0D01*
G01*
X12763700Y-7321000D02*
G75*
G03X12763700Y-7321000I-90000J0D01*
G01*
X5318340Y-7321000D02*
G75*
G03X5318340Y-7321000I-90000J0D01*
G01*
X6334340Y-7321000D02*
G75*
G03X6334340Y-7321000I-90000J0D01*
G01*
X7937700Y-7321000D02*
G75*
G03X7937700Y-7321000I-90000J0D01*
G01*
X8953700Y-7321000D02*
G75*
G03X8953700Y-7321000I-90000J0D01*
G01*
X8414000Y-3511000D02*
G75*
G03X8414000Y-3511000I-90000J0D01*
G01*
X9430000Y-3511000D02*
G75*
G03X9430000Y-3511000I-90000J0D01*
G01*
X5794560Y-9226000D02*
G75*
G03X5794560Y-9226000I-90000J0D01*
G01*
X6810560Y-9226000D02*
G75*
G03X6810560Y-9226000I-90000J0D01*
G01*
X9366500Y-5416000D02*
G75*
G03X9366500Y-5416000I-90000J0D01*
G01*
X10382500Y-5416000D02*
G75*
G03X10382500Y-5416000I-90000J0D01*
G01*
X14129000Y-3511000D02*
G75*
G03X14129000Y-3511000I-90000J0D01*
G01*
X15145000Y-3511000D02*
G75*
G03X15145000Y-3511000I-90000J0D01*
G01*
X15081500Y-5416000D02*
G75*
G03X15081500Y-5416000I-90000J0D01*
G01*
X16097500Y-5416000D02*
G75*
G03X16097500Y-5416000I-90000J0D01*
G01*
X12224000Y-3511000D02*
G75*
G03X12224000Y-3511000I-90000J0D01*
G01*
X13240000Y-3511000D02*
G75*
G03X13240000Y-3511000I-90000J0D01*
G01*
X13176500Y-5416000D02*
G75*
G03X13176500Y-5416000I-90000J0D01*
G01*
X14192500Y-5416000D02*
G75*
G03X14192500Y-5416000I-90000J0D01*
G01*
X7461500Y-5416000D02*
G75*
G03X7461500Y-5416000I-90000J0D01*
G01*
X8477500Y-5416000D02*
G75*
G03X8477500Y-5416000I-90000J0D01*
G01*
X14605200Y-9226000D02*
G75*
G03X14605200Y-9226000I-90000J0D01*
G01*
X15621200Y-9226000D02*
G75*
G03X15621200Y-9226000I-90000J0D01*
G01*
X11985200Y-11131000D02*
G75*
G03X11985200Y-11131000I-90000J0D01*
G01*
X13001200Y-11131000D02*
G75*
G03X13001200Y-11131000I-90000J0D01*
G01*
X10319000Y-3511000D02*
G75*
G03X10319000Y-3511000I-90000J0D01*
G01*
X11335000Y-3511000D02*
G75*
G03X11335000Y-3511000I-90000J0D01*
G01*
X9842700Y-7321000D02*
G75*
G03X9842700Y-7321000I-90000J0D01*
G01*
X10858700Y-7321000D02*
G75*
G03X10858700Y-7321000I-90000J0D01*
G01*
X4604000Y-3511000D02*
G75*
G03X4604000Y-3511000I-90000J0D01*
G01*
X5620000Y-3511000D02*
G75*
G03X5620000Y-3511000I-90000J0D01*
G01*
X16033950Y-11131000D02*
G75*
G03X16033950Y-11131000I-90000J0D01*
G01*
X17049950Y-11131000D02*
G75*
G03X17049950Y-11131000I-90000J0D01*
G01*
X10795200Y-9226000D02*
G75*
G03X10795200Y-9226000I-90000J0D01*
G01*
X11811200Y-9226000D02*
G75*
G03X11811200Y-9226000I-90000J0D01*
G01*
X11271500Y-5416000D02*
G75*
G03X11271500Y-5416000I-90000J0D01*
G01*
X12287500Y-5416000D02*
G75*
G03X12287500Y-5416000I-90000J0D01*
G01*
X2391000Y-12074000D02*
X2391000Y-12294000D01*
X2281000Y-12184000D02*
X2501000Y-12184000D01*
X2510750Y-8163000D02*
X2510750Y-8383000D01*
X2400750Y-8273000D02*
X2620750Y-8273000D01*
X17432000Y-12074000D02*
X17432000Y-12294000D01*
X17322000Y-12184000D02*
X17542000Y-12184000D01*
X3510750Y-8163000D02*
X3510750Y-8383000D01*
X3400750Y-8273000D02*
X3620750Y-8273000D01*
X4791000Y-2349000D02*
X4791000Y-2569000D01*
X4681000Y-2459000D02*
X4901000Y-2459000D01*
X17005000Y-2350000D02*
X17005000Y-2570000D01*
X16895000Y-2460000D02*
X17115000Y-2460000D01*
X9985767Y-7173067D02*
X9985767Y-6960933D01*
X9773633Y-6960933D01*
X9773633Y-7173067D01*
X9985767Y-7173067D01*
X10620767Y-6919067D02*
X10620767Y-6706933D01*
X10408633Y-6706933D01*
X10408633Y-6919067D01*
X10620767Y-6919067D01*
X4747067Y-3363067D02*
X4747067Y-3150933D01*
X4534933Y-3150933D01*
X4534933Y-3363067D01*
X4747067Y-3363067D01*
X5382067Y-3109067D02*
X5382067Y-2896933D01*
X5169933Y-2896933D01*
X5169933Y-3109067D01*
X5382067Y-3109067D01*
X16177017Y-10983067D02*
X16177017Y-10770933D01*
X15964883Y-10770933D01*
X15964883Y-10983067D01*
X16177017Y-10983067D01*
X16812017Y-10729067D02*
X16812017Y-10516933D01*
X16599883Y-10516933D01*
X16599883Y-10729067D01*
X16812017Y-10729067D01*
X10938267Y-9078067D02*
X10938267Y-8865933D01*
X10726133Y-8865933D01*
X10726133Y-9078067D01*
X10938267Y-9078067D01*
X11573267Y-8824067D02*
X11573267Y-8611933D01*
X11361133Y-8611933D01*
X11361133Y-8824067D01*
X11573267Y-8824067D01*
X11414567Y-5268067D02*
X11414567Y-5055933D01*
X11202433Y-5055933D01*
X11202433Y-5268067D01*
X11414567Y-5268067D01*
X12049567Y-5014067D02*
X12049567Y-4801933D01*
X11837433Y-4801933D01*
X11837433Y-5014067D01*
X12049567Y-5014067D01*
X16653267Y-9078067D02*
X16653267Y-8865933D01*
X16441133Y-8865933D01*
X16441133Y-9078067D01*
X16653267Y-9078067D01*
X17288267Y-8824067D02*
X17288267Y-8611933D01*
X17076133Y-8611933D01*
X17076133Y-8824067D01*
X17288267Y-8824067D01*
X9033267Y-9078067D02*
X9033267Y-8865933D01*
X8821133Y-8865933D01*
X8821133Y-9078067D01*
X9033267Y-9078067D01*
X9668267Y-8824067D02*
X9668267Y-8611933D01*
X9456133Y-8611933D01*
X9456133Y-8824067D01*
X9668267Y-8824067D01*
X5223317Y-5268067D02*
X5223317Y-5055933D01*
X5011183Y-5055933D01*
X5011183Y-5268067D01*
X5223317Y-5268067D01*
X5858317Y-5014067D02*
X5858317Y-4801933D01*
X5646183Y-4801933D01*
X5646183Y-5014067D01*
X5858317Y-5014067D01*
X9747067Y-10983067D02*
X9747067Y-10770933D01*
X9534933Y-10770933D01*
X9534933Y-10983067D01*
X9747067Y-10983067D01*
X10382067Y-10729067D02*
X10382067Y-10516933D01*
X10169933Y-10516933D01*
X10169933Y-10729067D01*
X10382067Y-10729067D01*
X12843267Y-9078067D02*
X12843267Y-8865933D01*
X12631133Y-8865933D01*
X12631133Y-9078067D01*
X12843267Y-9078067D01*
X13478267Y-8824067D02*
X13478267Y-8611933D01*
X13266133Y-8611933D01*
X13266133Y-8824067D01*
X13478267Y-8824067D01*
X13795767Y-7173067D02*
X13795767Y-6960933D01*
X13583633Y-6960933D01*
X13583633Y-7173067D01*
X13795767Y-7173067D01*
X14430767Y-6919067D02*
X14430767Y-6706933D01*
X14218633Y-6706933D01*
X14218633Y-6919067D01*
X14430767Y-6919067D01*
X6652067Y-3363067D02*
X6652067Y-3150933D01*
X6439933Y-3150933D01*
X6439933Y-3363067D01*
X6652067Y-3363067D01*
X7287067Y-3109067D02*
X7287067Y-2896933D01*
X7074933Y-2896933D01*
X7074933Y-3109067D01*
X7287067Y-3109067D01*
X15700767Y-7173067D02*
X15700767Y-6960933D01*
X15488633Y-6960933D01*
X15488633Y-7173067D01*
X15700767Y-7173067D01*
X16335767Y-6919067D02*
X16335767Y-6706933D01*
X16123633Y-6706933D01*
X16123633Y-6919067D01*
X16335767Y-6919067D01*
X16177067Y-3363067D02*
X16177067Y-3150933D01*
X15964933Y-3150933D01*
X15964933Y-3363067D01*
X16177067Y-3363067D01*
X16812067Y-3109067D02*
X16812067Y-2896933D01*
X16599933Y-2896933D01*
X16599933Y-3109067D01*
X16812067Y-3109067D01*
X11890767Y-7173067D02*
X11890767Y-6960933D01*
X11678633Y-6960933D01*
X11678633Y-7173067D01*
X11890767Y-7173067D01*
X12525767Y-6919067D02*
X12525767Y-6706933D01*
X12313633Y-6706933D01*
X12313633Y-6919067D01*
X12525767Y-6919067D01*
X5461407Y-7173067D02*
X5461407Y-6960933D01*
X5249273Y-6960933D01*
X5249273Y-7173067D01*
X5461407Y-7173067D01*
X6096407Y-6919067D02*
X6096407Y-6706933D01*
X5884273Y-6706933D01*
X5884273Y-6919067D01*
X6096407Y-6919067D01*
X8080767Y-7173067D02*
X8080767Y-6960933D01*
X7868633Y-6960933D01*
X7868633Y-7173067D01*
X8080767Y-7173067D01*
X8715767Y-6919067D02*
X8715767Y-6706933D01*
X8503633Y-6706933D01*
X8503633Y-6919067D01*
X8715767Y-6919067D01*
X8557067Y-3363067D02*
X8557067Y-3150933D01*
X8344933Y-3150933D01*
X8344933Y-3363067D01*
X8557067Y-3363067D01*
X9192067Y-3109067D02*
X9192067Y-2896933D01*
X8979933Y-2896933D01*
X8979933Y-3109067D01*
X9192067Y-3109067D01*
X5937627Y-9078067D02*
X5937627Y-8865933D01*
X5725493Y-8865933D01*
X5725493Y-9078067D01*
X5937627Y-9078067D01*
X6572627Y-8824067D02*
X6572627Y-8611933D01*
X6360493Y-8611933D01*
X6360493Y-8824067D01*
X6572627Y-8824067D01*
X9509567Y-5268067D02*
X9509567Y-5055933D01*
X9297433Y-5055933D01*
X9297433Y-5268067D01*
X9509567Y-5268067D01*
X10144567Y-5014067D02*
X10144567Y-4801933D01*
X9932433Y-4801933D01*
X9932433Y-5014067D01*
X10144567Y-5014067D01*
X14272067Y-3363067D02*
X14272067Y-3150933D01*
X14059933Y-3150933D01*
X14059933Y-3363067D01*
X14272067Y-3363067D01*
X14907067Y-3109067D02*
X14907067Y-2896933D01*
X14694933Y-2896933D01*
X14694933Y-3109067D01*
X14907067Y-3109067D01*
X15224567Y-5268067D02*
X15224567Y-5055933D01*
X15012433Y-5055933D01*
X15012433Y-5268067D01*
X15224567Y-5268067D01*
X15859567Y-5014067D02*
X15859567Y-4801933D01*
X15647433Y-4801933D01*
X15647433Y-5014067D01*
X15859567Y-5014067D01*
X12367067Y-3363067D02*
X12367067Y-3150933D01*
X12154933Y-3150933D01*
X12154933Y-3363067D01*
X12367067Y-3363067D01*
X13002067Y-3109067D02*
X13002067Y-2896933D01*
X12789933Y-2896933D01*
X12789933Y-3109067D01*
X13002067Y-3109067D01*
X13319567Y-5268067D02*
X13319567Y-5055933D01*
X13107433Y-5055933D01*
X13107433Y-5268067D01*
X13319567Y-5268067D01*
X13954567Y-5014067D02*
X13954567Y-4801933D01*
X13742433Y-4801933D01*
X13742433Y-5014067D01*
X13954567Y-5014067D01*
X7604567Y-5268067D02*
X7604567Y-5055933D01*
X7392433Y-5055933D01*
X7392433Y-5268067D01*
X7604567Y-5268067D01*
X8239567Y-5014067D02*
X8239567Y-4801933D01*
X8027433Y-4801933D01*
X8027433Y-5014067D01*
X8239567Y-5014067D01*
X14748267Y-9078067D02*
X14748267Y-8865933D01*
X14536133Y-8865933D01*
X14536133Y-9078067D01*
X14748267Y-9078067D01*
X15383267Y-8824067D02*
X15383267Y-8611933D01*
X15171133Y-8611933D01*
X15171133Y-8824067D01*
X15383267Y-8824067D01*
X12128267Y-10983067D02*
X12128267Y-10770933D01*
X11916133Y-10770933D01*
X11916133Y-10983067D01*
X12128267Y-10983067D01*
X12763267Y-10729067D02*
X12763267Y-10516933D01*
X12551133Y-10516933D01*
X12551133Y-10729067D01*
X12763267Y-10729067D01*
X10462067Y-3363067D02*
X10462067Y-3150933D01*
X10249933Y-3150933D01*
X10249933Y-3363067D01*
X10462067Y-3363067D01*
X11097067Y-3109067D02*
X11097067Y-2896933D01*
X10884933Y-2896933D01*
X10884933Y-3109067D01*
X11097067Y-3109067D01*
X5022560Y-8678500D02*
X5175060Y-8526000D01*
X5022560Y-8373500D01*
X4870060Y-8526000D01*
X5022560Y-8678500D01*
X7402560Y-8678500D02*
X7555060Y-8526000D01*
X7402560Y-8373500D01*
X7250060Y-8526000D01*
X7402560Y-8678500D01*
X9584500Y-5216000D02*
X9984500Y-5616000D01*
X9984500Y-5216000D02*
X9584500Y-5616000D01*
X9984500Y-5416000D02*
G75*
G03X9984500Y-5416000I-200000J0D01*
G01*
X14347000Y-3311000D02*
X14747000Y-3711000D01*
X14747000Y-3311000D02*
X14347000Y-3711000D01*
X14747000Y-3511000D02*
G75*
G03X14747000Y-3511000I-200000J0D01*
G01*
X15299500Y-5216000D02*
X15699500Y-5616000D01*
X15699500Y-5216000D02*
X15299500Y-5616000D01*
X15699500Y-5416000D02*
G75*
G03X15699500Y-5416000I-200000J0D01*
G01*
X12442000Y-3311000D02*
X12842000Y-3711000D01*
X12842000Y-3311000D02*
X12442000Y-3711000D01*
X12842000Y-3511000D02*
G75*
G03X12842000Y-3511000I-200000J0D01*
G01*
X13394500Y-5216000D02*
X13794500Y-5616000D01*
X13794500Y-5216000D02*
X13394500Y-5616000D01*
X13794500Y-5416000D02*
G75*
G03X13794500Y-5416000I-200000J0D01*
G01*
X7679500Y-5216000D02*
X8079500Y-5616000D01*
X8079500Y-5216000D02*
X7679500Y-5616000D01*
X8079500Y-5416000D02*
G75*
G03X8079500Y-5416000I-200000J0D01*
G01*
X14823200Y-9026000D02*
X15223200Y-9426000D01*
X15223200Y-9026000D02*
X14823200Y-9426000D01*
X15223200Y-9226000D02*
G75*
G03X15223200Y-9226000I-200000J0D01*
G01*
X12203200Y-10931000D02*
X12603200Y-11331000D01*
X12603200Y-10931000D02*
X12203200Y-11331000D01*
X12603200Y-11131000D02*
G75*
G03X12603200Y-11131000I-200000J0D01*
G01*
X10537000Y-3311000D02*
X10937000Y-3711000D01*
X10937000Y-3311000D02*
X10537000Y-3711000D01*
X10937000Y-3511000D02*
G75*
G03X10937000Y-3511000I-200000J0D01*
G01*
X10060700Y-7121000D02*
X10460700Y-7521000D01*
X10460700Y-7121000D02*
X10060700Y-7521000D01*
X10460700Y-7321000D02*
G75*
G03X10460700Y-7321000I-200000J0D01*
G01*
X4822000Y-3311000D02*
X5222000Y-3711000D01*
X5222000Y-3311000D02*
X4822000Y-3711000D01*
X5222000Y-3511000D02*
G75*
G03X5222000Y-3511000I-200000J0D01*
G01*
X16251950Y-10931000D02*
X16651950Y-11331000D01*
X16651950Y-10931000D02*
X16251950Y-11331000D01*
X16651950Y-11131000D02*
G75*
G03X16651950Y-11131000I-200000J0D01*
G01*
X11013200Y-9026000D02*
X11413200Y-9426000D01*
X11413200Y-9026000D02*
X11013200Y-9426000D01*
X11413200Y-9226000D02*
G75*
G03X11413200Y-9226000I-200000J0D01*
G01*
X11489500Y-5216000D02*
X11889500Y-5616000D01*
X11889500Y-5216000D02*
X11489500Y-5616000D01*
X11889500Y-5416000D02*
G75*
G03X11889500Y-5416000I-200000J0D01*
G01*
X16728200Y-9026000D02*
X17128200Y-9426000D01*
X17128200Y-9026000D02*
X16728200Y-9426000D01*
X17128200Y-9226000D02*
G75*
G03X17128200Y-9226000I-200000J0D01*
G01*
X9108200Y-9026000D02*
X9508200Y-9426000D01*
X9508200Y-9026000D02*
X9108200Y-9426000D01*
X9508200Y-9226000D02*
G75*
G03X9508200Y-9226000I-200000J0D01*
G01*
X5298250Y-5216000D02*
X5698250Y-5616000D01*
X5698250Y-5216000D02*
X5298250Y-5616000D01*
X5698250Y-5416000D02*
G75*
G03X5698250Y-5416000I-200000J0D01*
G01*
X9822000Y-10931000D02*
X10222000Y-11331000D01*
X10222000Y-10931000D02*
X9822000Y-11331000D01*
X10222000Y-11131000D02*
G75*
G03X10222000Y-11131000I-200000J0D01*
G01*
X12918200Y-9026000D02*
X13318200Y-9426000D01*
X13318200Y-9026000D02*
X12918200Y-9426000D01*
X13318200Y-9226000D02*
G75*
G03X13318200Y-9226000I-200000J0D01*
G01*
X13870700Y-7121000D02*
X14270700Y-7521000D01*
X14270700Y-7121000D02*
X13870700Y-7521000D01*
X14270700Y-7321000D02*
G75*
G03X14270700Y-7321000I-200000J0D01*
G01*
X6727000Y-3311000D02*
X7127000Y-3711000D01*
X7127000Y-3311000D02*
X6727000Y-3711000D01*
X7127000Y-3511000D02*
G75*
G03X7127000Y-3511000I-200000J0D01*
G01*
X15775700Y-7121000D02*
X16175700Y-7521000D01*
X16175700Y-7121000D02*
X15775700Y-7521000D01*
X16175700Y-7321000D02*
G75*
G03X16175700Y-7321000I-200000J0D01*
G01*
X16252000Y-3311000D02*
X16652000Y-3711000D01*
X16652000Y-3311000D02*
X16252000Y-3711000D01*
X16652000Y-3511000D02*
G75*
G03X16652000Y-3511000I-200000J0D01*
G01*
X11965700Y-7121000D02*
X12365700Y-7521000D01*
X12365700Y-7121000D02*
X11965700Y-7521000D01*
X12365700Y-7321000D02*
G75*
G03X12365700Y-7321000I-200000J0D01*
G01*
X5536340Y-7121000D02*
X5936340Y-7521000D01*
X5936340Y-7121000D02*
X5536340Y-7521000D01*
X5936340Y-7321000D02*
G75*
G03X5936340Y-7321000I-200000J0D01*
G01*
X8155700Y-7121000D02*
X8555700Y-7521000D01*
X8555700Y-7121000D02*
X8155700Y-7521000D01*
X8555700Y-7321000D02*
G75*
G03X8555700Y-7321000I-200000J0D01*
G01*
X8632000Y-3311000D02*
X9032000Y-3711000D01*
X9032000Y-3311000D02*
X8632000Y-3711000D01*
X9032000Y-3511000D02*
G75*
G03X9032000Y-3511000I-200000J0D01*
G01*
X4822560Y-9850000D02*
X5222560Y-10250000D01*
X5222560Y-9850000D02*
X4822560Y-10250000D01*
X5222560Y-10050000D02*
G75*
G03X5222560Y-10050000I-200000J0D01*
G01*
X6012560Y-9026000D02*
X6412560Y-9426000D01*
X6412560Y-9026000D02*
X6012560Y-9426000D01*
X6412560Y-9226000D02*
G75*
G03X6412560Y-9226000I-200000J0D01*
G01*
X7202560Y-9850000D02*
X7602560Y-10250000D01*
X7602560Y-9850000D02*
X7202560Y-10250000D01*
X7602560Y-10050000D02*
G75*
G03X7602560Y-10050000I-200000J0D01*
G01*
D12*
X2269928Y-13057214D02*
X2269928Y-12757214D01*
X2341357Y-12757214D01*
X2384214Y-12771500D01*
X2412786Y-12800071D01*
X2427071Y-12828643D01*
X2441357Y-12885786D01*
X2441357Y-12928643D01*
X2427071Y-12985786D01*
X2412786Y-13014357D01*
X2384214Y-13042929D01*
X2341357Y-13057214D01*
X2269928Y-13057214D01*
X2569928Y-13057214D02*
X2569928Y-12857214D01*
X2569928Y-12914357D02*
X2584214Y-12885786D01*
X2598500Y-12871500D01*
X2627071Y-12857214D01*
X2655643Y-12857214D01*
X2755643Y-13057214D02*
X2755643Y-12857214D01*
X2755643Y-12757214D02*
X2741357Y-12771500D01*
X2755643Y-12785786D01*
X2769928Y-12771500D01*
X2755643Y-12757214D01*
X2755643Y-12785786D01*
X2941357Y-13057214D02*
X2912786Y-13042929D01*
X2898500Y-13014357D01*
X2898500Y-12757214D01*
X3098500Y-13057214D02*
X3069928Y-13042929D01*
X3055643Y-13014357D01*
X3055643Y-12757214D01*
X3441357Y-13057214D02*
X3441357Y-12757214D01*
X3541357Y-12971500D01*
X3641357Y-12757214D01*
X3641357Y-13057214D01*
X3912786Y-13057214D02*
X3912786Y-12900071D01*
X3898500Y-12871500D01*
X3869928Y-12857214D01*
X3812786Y-12857214D01*
X3784214Y-12871500D01*
X3912786Y-13042929D02*
X3884214Y-13057214D01*
X3812786Y-13057214D01*
X3784214Y-13042929D01*
X3769928Y-13014357D01*
X3769928Y-12985786D01*
X3784214Y-12957214D01*
X3812786Y-12942929D01*
X3884214Y-12942929D01*
X3912786Y-12928643D01*
X4055643Y-12857214D02*
X4055643Y-13157214D01*
X4055643Y-12871500D02*
X4084214Y-12857214D01*
X4141357Y-12857214D01*
X4169928Y-12871500D01*
X4184214Y-12885786D01*
X4198500Y-12914357D01*
X4198500Y-13000071D01*
X4184214Y-13028643D01*
X4169928Y-13042929D01*
X4141357Y-13057214D01*
X4084214Y-13057214D01*
X4055643Y-13042929D01*
X4327071Y-13028643D02*
X4341357Y-13042929D01*
X4327071Y-13057214D01*
X4312786Y-13042929D01*
X4327071Y-13028643D01*
X4327071Y-13057214D01*
X4327071Y-12871500D02*
X4341357Y-12885786D01*
X4327071Y-12900071D01*
X4312786Y-12885786D01*
X4327071Y-12871500D01*
X4327071Y-12900071D01*
X1863500Y-13491500D02*
X1983500Y-13611500D01*
X1983500Y-13491500D02*
X1863500Y-13611500D01*
X2427071Y-13687214D02*
X2255643Y-13687214D01*
X2341357Y-13687214D02*
X2341357Y-13387214D01*
X2312786Y-13430071D01*
X2284214Y-13458643D01*
X2255643Y-13472929D01*
X2555643Y-13658643D02*
X2569928Y-13672929D01*
X2555643Y-13687214D01*
X2541357Y-13672929D01*
X2555643Y-13658643D01*
X2555643Y-13687214D01*
X2684214Y-13415786D02*
X2698500Y-13401500D01*
X2727071Y-13387214D01*
X2798500Y-13387214D01*
X2827071Y-13401500D01*
X2841357Y-13415786D01*
X2855643Y-13444357D01*
X2855643Y-13472929D01*
X2841357Y-13515786D01*
X2669928Y-13687214D01*
X2855643Y-13687214D01*
X3041357Y-13387214D02*
X3069928Y-13387214D01*
X3098500Y-13401500D01*
X3112786Y-13415786D01*
X3127071Y-13444357D01*
X3141357Y-13501500D01*
X3141357Y-13572929D01*
X3127071Y-13630071D01*
X3112786Y-13658643D01*
X3098500Y-13672929D01*
X3069928Y-13687214D01*
X3041357Y-13687214D01*
X3012786Y-13672929D01*
X2998500Y-13658643D01*
X2984214Y-13630071D01*
X2969928Y-13572929D01*
X2969928Y-13501500D01*
X2984214Y-13444357D01*
X2998500Y-13415786D01*
X3012786Y-13401500D01*
X3041357Y-13387214D01*
X3269928Y-13687214D02*
X3269928Y-13487214D01*
X3269928Y-13515786D02*
X3284214Y-13501500D01*
X3312786Y-13487214D01*
X3355643Y-13487214D01*
X3384214Y-13501500D01*
X3398500Y-13530071D01*
X3398500Y-13687214D01*
X3398500Y-13530071D02*
X3412786Y-13501500D01*
X3441357Y-13487214D01*
X3484214Y-13487214D01*
X3512786Y-13501500D01*
X3527071Y-13530071D01*
X3527071Y-13687214D01*
X3669928Y-13687214D02*
X3669928Y-13487214D01*
X3669928Y-13515786D02*
X3684214Y-13501500D01*
X3712786Y-13487214D01*
X3755643Y-13487214D01*
X3784214Y-13501500D01*
X3798500Y-13530071D01*
X3798500Y-13687214D01*
X3798500Y-13530071D02*
X3812786Y-13501500D01*
X3841357Y-13487214D01*
X3884214Y-13487214D01*
X3912786Y-13501500D01*
X3927071Y-13530071D01*
X3927071Y-13687214D01*
X4512786Y-13372929D02*
X4255643Y-13758643D01*
X4898500Y-13387214D02*
X4927071Y-13387214D01*
X4955643Y-13401500D01*
X4969928Y-13415786D01*
X4984214Y-13444357D01*
X4998500Y-13501500D01*
X4998500Y-13572929D01*
X4984214Y-13630071D01*
X4969928Y-13658643D01*
X4955643Y-13672929D01*
X4927071Y-13687214D01*
X4898500Y-13687214D01*
X4869928Y-13672929D01*
X4855643Y-13658643D01*
X4841357Y-13630071D01*
X4827071Y-13572929D01*
X4827071Y-13501500D01*
X4841357Y-13444357D01*
X4855643Y-13415786D01*
X4869928Y-13401500D01*
X4898500Y-13387214D01*
X5127071Y-13658643D02*
X5141357Y-13672929D01*
X5127071Y-13687214D01*
X5112786Y-13672929D01*
X5127071Y-13658643D01*
X5127071Y-13687214D01*
X5327071Y-13387214D02*
X5355643Y-13387214D01*
X5384214Y-13401500D01*
X5398500Y-13415786D01*
X5412786Y-13444357D01*
X5427071Y-13501500D01*
X5427071Y-13572929D01*
X5412786Y-13630071D01*
X5398500Y-13658643D01*
X5384214Y-13672929D01*
X5355643Y-13687214D01*
X5327071Y-13687214D01*
X5298500Y-13672929D01*
X5284214Y-13658643D01*
X5269928Y-13630071D01*
X5255643Y-13572929D01*
X5255643Y-13501500D01*
X5269928Y-13444357D01*
X5284214Y-13415786D01*
X5298500Y-13401500D01*
X5327071Y-13387214D01*
X5684214Y-13487214D02*
X5684214Y-13687214D01*
X5612786Y-13372929D02*
X5541357Y-13587214D01*
X5727071Y-13587214D01*
X5812786Y-13387214D02*
X6012786Y-13387214D01*
X5884214Y-13687214D01*
X6112786Y-13387214D02*
X6112786Y-13444357D01*
X6227071Y-13387214D02*
X6227071Y-13444357D01*
X6669928Y-13801500D02*
X6655643Y-13787214D01*
X6627071Y-13744357D01*
X6612786Y-13715786D01*
X6598500Y-13672929D01*
X6584214Y-13601500D01*
X6584214Y-13544357D01*
X6598500Y-13472929D01*
X6612786Y-13430071D01*
X6627071Y-13401500D01*
X6655643Y-13358643D01*
X6669928Y-13344357D01*
X6769928Y-13415786D02*
X6784214Y-13401500D01*
X6812786Y-13387214D01*
X6884214Y-13387214D01*
X6912786Y-13401500D01*
X6927071Y-13415786D01*
X6941357Y-13444357D01*
X6941357Y-13472929D01*
X6927071Y-13515786D01*
X6755643Y-13687214D01*
X6941357Y-13687214D01*
X7298500Y-13687214D02*
X7298500Y-13387214D01*
X7427071Y-13687214D02*
X7427071Y-13530071D01*
X7412786Y-13501500D01*
X7384214Y-13487214D01*
X7341357Y-13487214D01*
X7312786Y-13501500D01*
X7298500Y-13515786D01*
X7612786Y-13687214D02*
X7584214Y-13672929D01*
X7569928Y-13658643D01*
X7555643Y-13630071D01*
X7555643Y-13544357D01*
X7569928Y-13515786D01*
X7584214Y-13501500D01*
X7612786Y-13487214D01*
X7655643Y-13487214D01*
X7684214Y-13501500D01*
X7698500Y-13515786D01*
X7712786Y-13544357D01*
X7712786Y-13630071D01*
X7698500Y-13658643D01*
X7684214Y-13672929D01*
X7655643Y-13687214D01*
X7612786Y-13687214D01*
X7884214Y-13687214D02*
X7855643Y-13672929D01*
X7841357Y-13644357D01*
X7841357Y-13387214D01*
X8112786Y-13672929D02*
X8084214Y-13687214D01*
X8027071Y-13687214D01*
X7998500Y-13672929D01*
X7984214Y-13644357D01*
X7984214Y-13530071D01*
X7998500Y-13501500D01*
X8027071Y-13487214D01*
X8084214Y-13487214D01*
X8112786Y-13501500D01*
X8127071Y-13530071D01*
X8127071Y-13558643D01*
X7984214Y-13587214D01*
X8241357Y-13672929D02*
X8269928Y-13687214D01*
X8327071Y-13687214D01*
X8355643Y-13672929D01*
X8369928Y-13644357D01*
X8369928Y-13630071D01*
X8355643Y-13601500D01*
X8327071Y-13587214D01*
X8284214Y-13587214D01*
X8255643Y-13572929D01*
X8241357Y-13544357D01*
X8241357Y-13530071D01*
X8255643Y-13501500D01*
X8284214Y-13487214D01*
X8327071Y-13487214D01*
X8355643Y-13501500D01*
X8469928Y-13801500D02*
X8484214Y-13787214D01*
X8512786Y-13744357D01*
X8527071Y-13715786D01*
X8541357Y-13672929D01*
X8555643Y-13601500D01*
X8555643Y-13544357D01*
X8541357Y-13472929D01*
X8527071Y-13430071D01*
X8512786Y-13401500D01*
X8484214Y-13358643D01*
X8469928Y-13344357D01*
X9012786Y-13801500D02*
X8998500Y-13787214D01*
X8969928Y-13744357D01*
X8955643Y-13715786D01*
X8941357Y-13672929D01*
X8927071Y-13601500D01*
X8927071Y-13544357D01*
X8941357Y-13472929D01*
X8955643Y-13430071D01*
X8969928Y-13401500D01*
X8998500Y-13358643D01*
X9012786Y-13344357D01*
X9127071Y-13487214D02*
X9127071Y-13687214D01*
X9127071Y-13515786D02*
X9141357Y-13501500D01*
X9169928Y-13487214D01*
X9212786Y-13487214D01*
X9241357Y-13501500D01*
X9255643Y-13530071D01*
X9255643Y-13687214D01*
X9441357Y-13687214D02*
X9412786Y-13672929D01*
X9398500Y-13658643D01*
X9384214Y-13630071D01*
X9384214Y-13544357D01*
X9398500Y-13515786D01*
X9412786Y-13501500D01*
X9441357Y-13487214D01*
X9484214Y-13487214D01*
X9512786Y-13501500D01*
X9527071Y-13515786D01*
X9541357Y-13544357D01*
X9541357Y-13630071D01*
X9527071Y-13658643D01*
X9512786Y-13672929D01*
X9484214Y-13687214D01*
X9441357Y-13687214D01*
X9627071Y-13487214D02*
X9741357Y-13487214D01*
X9669928Y-13387214D02*
X9669928Y-13644357D01*
X9684214Y-13672929D01*
X9712786Y-13687214D01*
X9741357Y-13687214D01*
X10069928Y-13487214D02*
X10069928Y-13787214D01*
X10069928Y-13501500D02*
X10098500Y-13487214D01*
X10155643Y-13487214D01*
X10184214Y-13501500D01*
X10198500Y-13515786D01*
X10212786Y-13544357D01*
X10212786Y-13630071D01*
X10198500Y-13658643D01*
X10184214Y-13672929D01*
X10155643Y-13687214D01*
X10098500Y-13687214D01*
X10069928Y-13672929D01*
X10384214Y-13687214D02*
X10355643Y-13672929D01*
X10341357Y-13644357D01*
X10341357Y-13387214D01*
X10627071Y-13687214D02*
X10627071Y-13530071D01*
X10612786Y-13501500D01*
X10584214Y-13487214D01*
X10527071Y-13487214D01*
X10498500Y-13501500D01*
X10627071Y-13672929D02*
X10598500Y-13687214D01*
X10527071Y-13687214D01*
X10498500Y-13672929D01*
X10484214Y-13644357D01*
X10484214Y-13615786D01*
X10498500Y-13587214D01*
X10527071Y-13572929D01*
X10598500Y-13572929D01*
X10627071Y-13558643D01*
X10727071Y-13487214D02*
X10841357Y-13487214D01*
X10769928Y-13387214D02*
X10769928Y-13644357D01*
X10784214Y-13672929D01*
X10812786Y-13687214D01*
X10841357Y-13687214D01*
X11055643Y-13672929D02*
X11027071Y-13687214D01*
X10969928Y-13687214D01*
X10941357Y-13672929D01*
X10927071Y-13644357D01*
X10927071Y-13530071D01*
X10941357Y-13501500D01*
X10969928Y-13487214D01*
X11027071Y-13487214D01*
X11055643Y-13501500D01*
X11069928Y-13530071D01*
X11069928Y-13558643D01*
X10927071Y-13587214D01*
X11327071Y-13687214D02*
X11327071Y-13387214D01*
X11327071Y-13672929D02*
X11298500Y-13687214D01*
X11241357Y-13687214D01*
X11212786Y-13672929D01*
X11198500Y-13658643D01*
X11184214Y-13630071D01*
X11184214Y-13544357D01*
X11198500Y-13515786D01*
X11212786Y-13501500D01*
X11241357Y-13487214D01*
X11298500Y-13487214D01*
X11327071Y-13501500D01*
X11441357Y-13801500D02*
X11455643Y-13787214D01*
X11484214Y-13744357D01*
X11498500Y-13715786D01*
X11512786Y-13672929D01*
X11527071Y-13601500D01*
X11527071Y-13544357D01*
X11512786Y-13472929D01*
X11498500Y-13430071D01*
X11484214Y-13401500D01*
X11455643Y-13358643D01*
X11441357Y-13344357D01*
X1983500Y-13947500D02*
G75*
G03X1983500Y-13947500I-90000J0D01*
G01*
X2427071Y-14083214D02*
X2255643Y-14083214D01*
X2341357Y-14083214D02*
X2341357Y-13783214D01*
X2312786Y-13826071D01*
X2284214Y-13854643D01*
X2255643Y-13868929D01*
X2555643Y-14054643D02*
X2569928Y-14068929D01*
X2555643Y-14083214D01*
X2541357Y-14068929D01*
X2555643Y-14054643D01*
X2555643Y-14083214D01*
X2741357Y-13911786D02*
X2712786Y-13897500D01*
X2698500Y-13883214D01*
X2684214Y-13854643D01*
X2684214Y-13840357D01*
X2698500Y-13811786D01*
X2712786Y-13797500D01*
X2741357Y-13783214D01*
X2798500Y-13783214D01*
X2827071Y-13797500D01*
X2841357Y-13811786D01*
X2855643Y-13840357D01*
X2855643Y-13854643D01*
X2841357Y-13883214D01*
X2827071Y-13897500D01*
X2798500Y-13911786D01*
X2741357Y-13911786D01*
X2712786Y-13926071D01*
X2698500Y-13940357D01*
X2684214Y-13968929D01*
X2684214Y-14026071D01*
X2698500Y-14054643D01*
X2712786Y-14068929D01*
X2741357Y-14083214D01*
X2798500Y-14083214D01*
X2827071Y-14068929D01*
X2841357Y-14054643D01*
X2855643Y-14026071D01*
X2855643Y-13968929D01*
X2841357Y-13940357D01*
X2827071Y-13926071D01*
X2798500Y-13911786D01*
X3041357Y-13783214D02*
X3069928Y-13783214D01*
X3098500Y-13797500D01*
X3112786Y-13811786D01*
X3127071Y-13840357D01*
X3141357Y-13897500D01*
X3141357Y-13968929D01*
X3127071Y-14026071D01*
X3112786Y-14054643D01*
X3098500Y-14068929D01*
X3069928Y-14083214D01*
X3041357Y-14083214D01*
X3012786Y-14068929D01*
X2998500Y-14054643D01*
X2984214Y-14026071D01*
X2969928Y-13968929D01*
X2969928Y-13897500D01*
X2984214Y-13840357D01*
X2998500Y-13811786D01*
X3012786Y-13797500D01*
X3041357Y-13783214D01*
X3269928Y-14083214D02*
X3269928Y-13883214D01*
X3269928Y-13911786D02*
X3284214Y-13897500D01*
X3312786Y-13883214D01*
X3355643Y-13883214D01*
X3384214Y-13897500D01*
X3398500Y-13926071D01*
X3398500Y-14083214D01*
X3398500Y-13926071D02*
X3412786Y-13897500D01*
X3441357Y-13883214D01*
X3484214Y-13883214D01*
X3512786Y-13897500D01*
X3527071Y-13926071D01*
X3527071Y-14083214D01*
X3669928Y-14083214D02*
X3669928Y-13883214D01*
X3669928Y-13911786D02*
X3684214Y-13897500D01*
X3712786Y-13883214D01*
X3755643Y-13883214D01*
X3784214Y-13897500D01*
X3798500Y-13926071D01*
X3798500Y-14083214D01*
X3798500Y-13926071D02*
X3812786Y-13897500D01*
X3841357Y-13883214D01*
X3884214Y-13883214D01*
X3912786Y-13897500D01*
X3927071Y-13926071D01*
X3927071Y-14083214D01*
X4512786Y-13768929D02*
X4255643Y-14154643D01*
X4898500Y-13783214D02*
X4927071Y-13783214D01*
X4955643Y-13797500D01*
X4969928Y-13811786D01*
X4984214Y-13840357D01*
X4998500Y-13897500D01*
X4998500Y-13968929D01*
X4984214Y-14026071D01*
X4969928Y-14054643D01*
X4955643Y-14068929D01*
X4927071Y-14083214D01*
X4898500Y-14083214D01*
X4869928Y-14068929D01*
X4855643Y-14054643D01*
X4841357Y-14026071D01*
X4827071Y-13968929D01*
X4827071Y-13897500D01*
X4841357Y-13840357D01*
X4855643Y-13811786D01*
X4869928Y-13797500D01*
X4898500Y-13783214D01*
X5127071Y-14054643D02*
X5141357Y-14068929D01*
X5127071Y-14083214D01*
X5112786Y-14068929D01*
X5127071Y-14054643D01*
X5127071Y-14083214D01*
X5327071Y-13783214D02*
X5355643Y-13783214D01*
X5384214Y-13797500D01*
X5398500Y-13811786D01*
X5412786Y-13840357D01*
X5427071Y-13897500D01*
X5427071Y-13968929D01*
X5412786Y-14026071D01*
X5398500Y-14054643D01*
X5384214Y-14068929D01*
X5355643Y-14083214D01*
X5327071Y-14083214D01*
X5298500Y-14068929D01*
X5284214Y-14054643D01*
X5269928Y-14026071D01*
X5255643Y-13968929D01*
X5255643Y-13897500D01*
X5269928Y-13840357D01*
X5284214Y-13811786D01*
X5298500Y-13797500D01*
X5327071Y-13783214D01*
X5527071Y-13783214D02*
X5727071Y-13783214D01*
X5598500Y-14083214D01*
X5998500Y-14083214D02*
X5827071Y-14083214D01*
X5912786Y-14083214D02*
X5912786Y-13783214D01*
X5884214Y-13826071D01*
X5855643Y-13854643D01*
X5827071Y-13868929D01*
X6112786Y-13783214D02*
X6112786Y-13840357D01*
X6227071Y-13783214D02*
X6227071Y-13840357D01*
X6669928Y-14197500D02*
X6655643Y-14183214D01*
X6627071Y-14140357D01*
X6612786Y-14111786D01*
X6598500Y-14068929D01*
X6584214Y-13997500D01*
X6584214Y-13940357D01*
X6598500Y-13868929D01*
X6612786Y-13826071D01*
X6627071Y-13797500D01*
X6655643Y-13754643D01*
X6669928Y-13740357D01*
X6927071Y-13783214D02*
X6784214Y-13783214D01*
X6769928Y-13926071D01*
X6784214Y-13911786D01*
X6812786Y-13897500D01*
X6884214Y-13897500D01*
X6912786Y-13911786D01*
X6927071Y-13926071D01*
X6941357Y-13954643D01*
X6941357Y-14026071D01*
X6927071Y-14054643D01*
X6912786Y-14068929D01*
X6884214Y-14083214D01*
X6812786Y-14083214D01*
X6784214Y-14068929D01*
X6769928Y-14054643D01*
X7198500Y-13783214D02*
X7141357Y-13783214D01*
X7112786Y-13797500D01*
X7098500Y-13811786D01*
X7069928Y-13854643D01*
X7055643Y-13911786D01*
X7055643Y-14026071D01*
X7069928Y-14054643D01*
X7084214Y-14068929D01*
X7112786Y-14083214D01*
X7169928Y-14083214D01*
X7198500Y-14068929D01*
X7212786Y-14054643D01*
X7227071Y-14026071D01*
X7227071Y-13954643D01*
X7212786Y-13926071D01*
X7198500Y-13911786D01*
X7169928Y-13897500D01*
X7112786Y-13897500D01*
X7084214Y-13911786D01*
X7069928Y-13926071D01*
X7055643Y-13954643D01*
X7584214Y-14083214D02*
X7584214Y-13783214D01*
X7712786Y-14083214D02*
X7712786Y-13926071D01*
X7698500Y-13897500D01*
X7669928Y-13883214D01*
X7627071Y-13883214D01*
X7598500Y-13897500D01*
X7584214Y-13911786D01*
X7898500Y-14083214D02*
X7869928Y-14068929D01*
X7855643Y-14054643D01*
X7841357Y-14026071D01*
X7841357Y-13940357D01*
X7855643Y-13911786D01*
X7869928Y-13897500D01*
X7898500Y-13883214D01*
X7941357Y-13883214D01*
X7969928Y-13897500D01*
X7984214Y-13911786D01*
X7998500Y-13940357D01*
X7998500Y-14026071D01*
X7984214Y-14054643D01*
X7969928Y-14068929D01*
X7941357Y-14083214D01*
X7898500Y-14083214D01*
X8169928Y-14083214D02*
X8141357Y-14068929D01*
X8127071Y-14040357D01*
X8127071Y-13783214D01*
X8398500Y-14068929D02*
X8369928Y-14083214D01*
X8312786Y-14083214D01*
X8284214Y-14068929D01*
X8269928Y-14040357D01*
X8269928Y-13926071D01*
X8284214Y-13897500D01*
X8312786Y-13883214D01*
X8369928Y-13883214D01*
X8398500Y-13897500D01*
X8412786Y-13926071D01*
X8412786Y-13954643D01*
X8269928Y-13983214D01*
X8527071Y-14068929D02*
X8555643Y-14083214D01*
X8612786Y-14083214D01*
X8641357Y-14068929D01*
X8655643Y-14040357D01*
X8655643Y-14026071D01*
X8641357Y-13997500D01*
X8612786Y-13983214D01*
X8569928Y-13983214D01*
X8541357Y-13968929D01*
X8527071Y-13940357D01*
X8527071Y-13926071D01*
X8541357Y-13897500D01*
X8569928Y-13883214D01*
X8612786Y-13883214D01*
X8641357Y-13897500D01*
X8755643Y-14197500D02*
X8769928Y-14183214D01*
X8798500Y-14140357D01*
X8812786Y-14111786D01*
X8827071Y-14068929D01*
X8841357Y-13997500D01*
X8841357Y-13940357D01*
X8827071Y-13868929D01*
X8812786Y-13826071D01*
X8798500Y-13797500D01*
X8769928Y-13754643D01*
X8755643Y-13740357D01*
X9298500Y-14197500D02*
X9284214Y-14183214D01*
X9255643Y-14140357D01*
X9241357Y-14111786D01*
X9227071Y-14068929D01*
X9212786Y-13997500D01*
X9212786Y-13940357D01*
X9227071Y-13868929D01*
X9241357Y-13826071D01*
X9255643Y-13797500D01*
X9284214Y-13754643D01*
X9298500Y-13740357D01*
X9412786Y-13883214D02*
X9412786Y-14083214D01*
X9412786Y-13911786D02*
X9427071Y-13897500D01*
X9455643Y-13883214D01*
X9498500Y-13883214D01*
X9527071Y-13897500D01*
X9541357Y-13926071D01*
X9541357Y-14083214D01*
X9727071Y-14083214D02*
X9698500Y-14068929D01*
X9684214Y-14054643D01*
X9669928Y-14026071D01*
X9669928Y-13940357D01*
X9684214Y-13911786D01*
X9698500Y-13897500D01*
X9727071Y-13883214D01*
X9769928Y-13883214D01*
X9798500Y-13897500D01*
X9812786Y-13911786D01*
X9827071Y-13940357D01*
X9827071Y-14026071D01*
X9812786Y-14054643D01*
X9798500Y-14068929D01*
X9769928Y-14083214D01*
X9727071Y-14083214D01*
X9912786Y-13883214D02*
X10027071Y-13883214D01*
X9955643Y-13783214D02*
X9955643Y-14040357D01*
X9969928Y-14068929D01*
X9998500Y-14083214D01*
X10027071Y-14083214D01*
X10355643Y-13883214D02*
X10355643Y-14183214D01*
X10355643Y-13897500D02*
X10384214Y-13883214D01*
X10441357Y-13883214D01*
X10469928Y-13897500D01*
X10484214Y-13911786D01*
X10498500Y-13940357D01*
X10498500Y-14026071D01*
X10484214Y-14054643D01*
X10469928Y-14068929D01*
X10441357Y-14083214D01*
X10384214Y-14083214D01*
X10355643Y-14068929D01*
X10669928Y-14083214D02*
X10641357Y-14068929D01*
X10627071Y-14040357D01*
X10627071Y-13783214D01*
X10912786Y-14083214D02*
X10912786Y-13926071D01*
X10898500Y-13897500D01*
X10869928Y-13883214D01*
X10812786Y-13883214D01*
X10784214Y-13897500D01*
X10912786Y-14068929D02*
X10884214Y-14083214D01*
X10812786Y-14083214D01*
X10784214Y-14068929D01*
X10769928Y-14040357D01*
X10769928Y-14011786D01*
X10784214Y-13983214D01*
X10812786Y-13968929D01*
X10884214Y-13968929D01*
X10912786Y-13954643D01*
X11012786Y-13883214D02*
X11127071Y-13883214D01*
X11055643Y-13783214D02*
X11055643Y-14040357D01*
X11069928Y-14068929D01*
X11098500Y-14083214D01*
X11127071Y-14083214D01*
X11341357Y-14068929D02*
X11312786Y-14083214D01*
X11255643Y-14083214D01*
X11227071Y-14068929D01*
X11212786Y-14040357D01*
X11212786Y-13926071D01*
X11227071Y-13897500D01*
X11255643Y-13883214D01*
X11312786Y-13883214D01*
X11341357Y-13897500D01*
X11355643Y-13926071D01*
X11355643Y-13954643D01*
X11212786Y-13983214D01*
X11612786Y-14083214D02*
X11612786Y-13783214D01*
X11612786Y-14068929D02*
X11584214Y-14083214D01*
X11527071Y-14083214D01*
X11498500Y-14068929D01*
X11484214Y-14054643D01*
X11469928Y-14026071D01*
X11469928Y-13940357D01*
X11484214Y-13911786D01*
X11498500Y-13897500D01*
X11527071Y-13883214D01*
X11584214Y-13883214D01*
X11612786Y-13897500D01*
X11727071Y-14197500D02*
X11741357Y-14183214D01*
X11769928Y-14140357D01*
X11784214Y-14111786D01*
X11798500Y-14068929D01*
X11812786Y-13997500D01*
X11812786Y-13940357D01*
X11798500Y-13868929D01*
X11784214Y-13826071D01*
X11769928Y-13797500D01*
X11741357Y-13754643D01*
X11727071Y-13740357D01*
X1873500Y-14233500D02*
X1873500Y-14453500D01*
X1763500Y-14343500D02*
X1983500Y-14343500D01*
X2255643Y-14207786D02*
X2269928Y-14193500D01*
X2298500Y-14179214D01*
X2369928Y-14179214D01*
X2398500Y-14193500D01*
X2412786Y-14207786D01*
X2427071Y-14236357D01*
X2427071Y-14264929D01*
X2412786Y-14307786D01*
X2241357Y-14479214D01*
X2427071Y-14479214D01*
X2555643Y-14450643D02*
X2569928Y-14464929D01*
X2555643Y-14479214D01*
X2541357Y-14464929D01*
X2555643Y-14450643D01*
X2555643Y-14479214D01*
X2684214Y-14207786D02*
X2698500Y-14193500D01*
X2727071Y-14179214D01*
X2798500Y-14179214D01*
X2827071Y-14193500D01*
X2841357Y-14207786D01*
X2855643Y-14236357D01*
X2855643Y-14264929D01*
X2841357Y-14307786D01*
X2669928Y-14479214D01*
X2855643Y-14479214D01*
X3041357Y-14179214D02*
X3069928Y-14179214D01*
X3098500Y-14193500D01*
X3112786Y-14207786D01*
X3127071Y-14236357D01*
X3141357Y-14293500D01*
X3141357Y-14364929D01*
X3127071Y-14422071D01*
X3112786Y-14450643D01*
X3098500Y-14464929D01*
X3069928Y-14479214D01*
X3041357Y-14479214D01*
X3012786Y-14464929D01*
X2998500Y-14450643D01*
X2984214Y-14422071D01*
X2969928Y-14364929D01*
X2969928Y-14293500D01*
X2984214Y-14236357D01*
X2998500Y-14207786D01*
X3012786Y-14193500D01*
X3041357Y-14179214D01*
X3269928Y-14479214D02*
X3269928Y-14279214D01*
X3269928Y-14307786D02*
X3284214Y-14293500D01*
X3312786Y-14279214D01*
X3355643Y-14279214D01*
X3384214Y-14293500D01*
X3398500Y-14322071D01*
X3398500Y-14479214D01*
X3398500Y-14322071D02*
X3412786Y-14293500D01*
X3441357Y-14279214D01*
X3484214Y-14279214D01*
X3512786Y-14293500D01*
X3527071Y-14322071D01*
X3527071Y-14479214D01*
X3669928Y-14479214D02*
X3669928Y-14279214D01*
X3669928Y-14307786D02*
X3684214Y-14293500D01*
X3712786Y-14279214D01*
X3755643Y-14279214D01*
X3784214Y-14293500D01*
X3798500Y-14322071D01*
X3798500Y-14479214D01*
X3798500Y-14322071D02*
X3812786Y-14293500D01*
X3841357Y-14279214D01*
X3884214Y-14279214D01*
X3912786Y-14293500D01*
X3927071Y-14322071D01*
X3927071Y-14479214D01*
X4512786Y-14164929D02*
X4255643Y-14550643D01*
X4898500Y-14179214D02*
X4927071Y-14179214D01*
X4955643Y-14193500D01*
X4969928Y-14207786D01*
X4984214Y-14236357D01*
X4998500Y-14293500D01*
X4998500Y-14364929D01*
X4984214Y-14422071D01*
X4969928Y-14450643D01*
X4955643Y-14464929D01*
X4927071Y-14479214D01*
X4898500Y-14479214D01*
X4869928Y-14464929D01*
X4855643Y-14450643D01*
X4841357Y-14422071D01*
X4827071Y-14364929D01*
X4827071Y-14293500D01*
X4841357Y-14236357D01*
X4855643Y-14207786D01*
X4869928Y-14193500D01*
X4898500Y-14179214D01*
X5127071Y-14450643D02*
X5141357Y-14464929D01*
X5127071Y-14479214D01*
X5112786Y-14464929D01*
X5127071Y-14450643D01*
X5127071Y-14479214D01*
X5327071Y-14179214D02*
X5355643Y-14179214D01*
X5384214Y-14193500D01*
X5398500Y-14207786D01*
X5412786Y-14236357D01*
X5427071Y-14293500D01*
X5427071Y-14364929D01*
X5412786Y-14422071D01*
X5398500Y-14450643D01*
X5384214Y-14464929D01*
X5355643Y-14479214D01*
X5327071Y-14479214D01*
X5298500Y-14464929D01*
X5284214Y-14450643D01*
X5269928Y-14422071D01*
X5255643Y-14364929D01*
X5255643Y-14293500D01*
X5269928Y-14236357D01*
X5284214Y-14207786D01*
X5298500Y-14193500D01*
X5327071Y-14179214D01*
X5598500Y-14307786D02*
X5569928Y-14293500D01*
X5555643Y-14279214D01*
X5541357Y-14250643D01*
X5541357Y-14236357D01*
X5555643Y-14207786D01*
X5569928Y-14193500D01*
X5598500Y-14179214D01*
X5655643Y-14179214D01*
X5684214Y-14193500D01*
X5698500Y-14207786D01*
X5712786Y-14236357D01*
X5712786Y-14250643D01*
X5698500Y-14279214D01*
X5684214Y-14293500D01*
X5655643Y-14307786D01*
X5598500Y-14307786D01*
X5569928Y-14322071D01*
X5555643Y-14336357D01*
X5541357Y-14364929D01*
X5541357Y-14422071D01*
X5555643Y-14450643D01*
X5569928Y-14464929D01*
X5598500Y-14479214D01*
X5655643Y-14479214D01*
X5684214Y-14464929D01*
X5698500Y-14450643D01*
X5712786Y-14422071D01*
X5712786Y-14364929D01*
X5698500Y-14336357D01*
X5684214Y-14322071D01*
X5655643Y-14307786D01*
X5812786Y-14179214D02*
X6012786Y-14179214D01*
X5884214Y-14479214D01*
X6112786Y-14179214D02*
X6112786Y-14236357D01*
X6227071Y-14179214D02*
X6227071Y-14236357D01*
X6669928Y-14593500D02*
X6655643Y-14579214D01*
X6627071Y-14536357D01*
X6612786Y-14507786D01*
X6598500Y-14464929D01*
X6584214Y-14393500D01*
X6584214Y-14336357D01*
X6598500Y-14264929D01*
X6612786Y-14222071D01*
X6627071Y-14193500D01*
X6655643Y-14150643D01*
X6669928Y-14136357D01*
X6912786Y-14179214D02*
X6855643Y-14179214D01*
X6827071Y-14193500D01*
X6812786Y-14207786D01*
X6784214Y-14250643D01*
X6769928Y-14307786D01*
X6769928Y-14422071D01*
X6784214Y-14450643D01*
X6798500Y-14464929D01*
X6827071Y-14479214D01*
X6884214Y-14479214D01*
X6912786Y-14464929D01*
X6927071Y-14450643D01*
X6941357Y-14422071D01*
X6941357Y-14350643D01*
X6927071Y-14322071D01*
X6912786Y-14307786D01*
X6884214Y-14293500D01*
X6827071Y-14293500D01*
X6798500Y-14307786D01*
X6784214Y-14322071D01*
X6769928Y-14350643D01*
X7298500Y-14479214D02*
X7298500Y-14179214D01*
X7427071Y-14479214D02*
X7427071Y-14322071D01*
X7412786Y-14293500D01*
X7384214Y-14279214D01*
X7341357Y-14279214D01*
X7312786Y-14293500D01*
X7298500Y-14307786D01*
X7612786Y-14479214D02*
X7584214Y-14464929D01*
X7569928Y-14450643D01*
X7555643Y-14422071D01*
X7555643Y-14336357D01*
X7569928Y-14307786D01*
X7584214Y-14293500D01*
X7612786Y-14279214D01*
X7655643Y-14279214D01*
X7684214Y-14293500D01*
X7698500Y-14307786D01*
X7712786Y-14336357D01*
X7712786Y-14422071D01*
X7698500Y-14450643D01*
X7684214Y-14464929D01*
X7655643Y-14479214D01*
X7612786Y-14479214D01*
X7884214Y-14479214D02*
X7855643Y-14464929D01*
X7841357Y-14436357D01*
X7841357Y-14179214D01*
X8112786Y-14464929D02*
X8084214Y-14479214D01*
X8027071Y-14479214D01*
X7998500Y-14464929D01*
X7984214Y-14436357D01*
X7984214Y-14322071D01*
X7998500Y-14293500D01*
X8027071Y-14279214D01*
X8084214Y-14279214D01*
X8112786Y-14293500D01*
X8127071Y-14322071D01*
X8127071Y-14350643D01*
X7984214Y-14379214D01*
X8241357Y-14464929D02*
X8269928Y-14479214D01*
X8327071Y-14479214D01*
X8355643Y-14464929D01*
X8369928Y-14436357D01*
X8369928Y-14422071D01*
X8355643Y-14393500D01*
X8327071Y-14379214D01*
X8284214Y-14379214D01*
X8255643Y-14364929D01*
X8241357Y-14336357D01*
X8241357Y-14322071D01*
X8255643Y-14293500D01*
X8284214Y-14279214D01*
X8327071Y-14279214D01*
X8355643Y-14293500D01*
X8469928Y-14593500D02*
X8484214Y-14579214D01*
X8512786Y-14536357D01*
X8527071Y-14507786D01*
X8541357Y-14464929D01*
X8555643Y-14393500D01*
X8555643Y-14336357D01*
X8541357Y-14264929D01*
X8527071Y-14222071D01*
X8512786Y-14193500D01*
X8484214Y-14150643D01*
X8469928Y-14136357D01*
X9012786Y-14593500D02*
X8998500Y-14579214D01*
X8969928Y-14536357D01*
X8955643Y-14507786D01*
X8941357Y-14464929D01*
X8927071Y-14393500D01*
X8927071Y-14336357D01*
X8941357Y-14264929D01*
X8955643Y-14222071D01*
X8969928Y-14193500D01*
X8998500Y-14150643D01*
X9012786Y-14136357D01*
X9127071Y-14279214D02*
X9127071Y-14479214D01*
X9127071Y-14307786D02*
X9141357Y-14293500D01*
X9169928Y-14279214D01*
X9212786Y-14279214D01*
X9241357Y-14293500D01*
X9255643Y-14322071D01*
X9255643Y-14479214D01*
X9441357Y-14479214D02*
X9412786Y-14464929D01*
X9398500Y-14450643D01*
X9384214Y-14422071D01*
X9384214Y-14336357D01*
X9398500Y-14307786D01*
X9412786Y-14293500D01*
X9441357Y-14279214D01*
X9484214Y-14279214D01*
X9512786Y-14293500D01*
X9527071Y-14307786D01*
X9541357Y-14336357D01*
X9541357Y-14422071D01*
X9527071Y-14450643D01*
X9512786Y-14464929D01*
X9484214Y-14479214D01*
X9441357Y-14479214D01*
X9627071Y-14279214D02*
X9741357Y-14279214D01*
X9669928Y-14179214D02*
X9669928Y-14436357D01*
X9684214Y-14464929D01*
X9712786Y-14479214D01*
X9741357Y-14479214D01*
X10069928Y-14279214D02*
X10069928Y-14579214D01*
X10069928Y-14293500D02*
X10098500Y-14279214D01*
X10155643Y-14279214D01*
X10184214Y-14293500D01*
X10198500Y-14307786D01*
X10212786Y-14336357D01*
X10212786Y-14422071D01*
X10198500Y-14450643D01*
X10184214Y-14464929D01*
X10155643Y-14479214D01*
X10098500Y-14479214D01*
X10069928Y-14464929D01*
X10384214Y-14479214D02*
X10355643Y-14464929D01*
X10341357Y-14436357D01*
X10341357Y-14179214D01*
X10627071Y-14479214D02*
X10627071Y-14322071D01*
X10612786Y-14293500D01*
X10584214Y-14279214D01*
X10527071Y-14279214D01*
X10498500Y-14293500D01*
X10627071Y-14464929D02*
X10598500Y-14479214D01*
X10527071Y-14479214D01*
X10498500Y-14464929D01*
X10484214Y-14436357D01*
X10484214Y-14407786D01*
X10498500Y-14379214D01*
X10527071Y-14364929D01*
X10598500Y-14364929D01*
X10627071Y-14350643D01*
X10727071Y-14279214D02*
X10841357Y-14279214D01*
X10769928Y-14179214D02*
X10769928Y-14436357D01*
X10784214Y-14464929D01*
X10812786Y-14479214D01*
X10841357Y-14479214D01*
X11055643Y-14464929D02*
X11027071Y-14479214D01*
X10969928Y-14479214D01*
X10941357Y-14464929D01*
X10927071Y-14436357D01*
X10927071Y-14322071D01*
X10941357Y-14293500D01*
X10969928Y-14279214D01*
X11027071Y-14279214D01*
X11055643Y-14293500D01*
X11069928Y-14322071D01*
X11069928Y-14350643D01*
X10927071Y-14379214D01*
X11327071Y-14479214D02*
X11327071Y-14179214D01*
X11327071Y-14464929D02*
X11298500Y-14479214D01*
X11241357Y-14479214D01*
X11212786Y-14464929D01*
X11198500Y-14450643D01*
X11184214Y-14422071D01*
X11184214Y-14336357D01*
X11198500Y-14307786D01*
X11212786Y-14293500D01*
X11241357Y-14279214D01*
X11298500Y-14279214D01*
X11327071Y-14293500D01*
X11441357Y-14593500D02*
X11455643Y-14579214D01*
X11484214Y-14536357D01*
X11498500Y-14507786D01*
X11512786Y-14464929D01*
X11527071Y-14393500D01*
X11527071Y-14336357D01*
X11512786Y-14264929D01*
X11498500Y-14222071D01*
X11484214Y-14193500D01*
X11455643Y-14150643D01*
X11441357Y-14136357D01*
X1939567Y-14845567D02*
X1939567Y-14633433D01*
X1727433Y-14633433D01*
X1727433Y-14845567D01*
X1939567Y-14845567D01*
X2241357Y-14575214D02*
X2427071Y-14575214D01*
X2327071Y-14689500D01*
X2369928Y-14689500D01*
X2398500Y-14703786D01*
X2412786Y-14718071D01*
X2427071Y-14746643D01*
X2427071Y-14818071D01*
X2412786Y-14846643D01*
X2398500Y-14860929D01*
X2369928Y-14875214D01*
X2284214Y-14875214D01*
X2255643Y-14860929D01*
X2241357Y-14846643D01*
X2555643Y-14846643D02*
X2569928Y-14860929D01*
X2555643Y-14875214D01*
X2541357Y-14860929D01*
X2555643Y-14846643D01*
X2555643Y-14875214D01*
X2755643Y-14575214D02*
X2784214Y-14575214D01*
X2812786Y-14589500D01*
X2827071Y-14603786D01*
X2841357Y-14632357D01*
X2855643Y-14689500D01*
X2855643Y-14760929D01*
X2841357Y-14818071D01*
X2827071Y-14846643D01*
X2812786Y-14860929D01*
X2784214Y-14875214D01*
X2755643Y-14875214D01*
X2727071Y-14860929D01*
X2712786Y-14846643D01*
X2698500Y-14818071D01*
X2684214Y-14760929D01*
X2684214Y-14689500D01*
X2698500Y-14632357D01*
X2712786Y-14603786D01*
X2727071Y-14589500D01*
X2755643Y-14575214D01*
X3041357Y-14575214D02*
X3069928Y-14575214D01*
X3098500Y-14589500D01*
X3112786Y-14603786D01*
X3127071Y-14632357D01*
X3141357Y-14689500D01*
X3141357Y-14760929D01*
X3127071Y-14818071D01*
X3112786Y-14846643D01*
X3098500Y-14860929D01*
X3069928Y-14875214D01*
X3041357Y-14875214D01*
X3012786Y-14860929D01*
X2998500Y-14846643D01*
X2984214Y-14818071D01*
X2969928Y-14760929D01*
X2969928Y-14689500D01*
X2984214Y-14632357D01*
X2998500Y-14603786D01*
X3012786Y-14589500D01*
X3041357Y-14575214D01*
X3269928Y-14875214D02*
X3269928Y-14675214D01*
X3269928Y-14703786D02*
X3284214Y-14689500D01*
X3312786Y-14675214D01*
X3355643Y-14675214D01*
X3384214Y-14689500D01*
X3398500Y-14718071D01*
X3398500Y-14875214D01*
X3398500Y-14718071D02*
X3412786Y-14689500D01*
X3441357Y-14675214D01*
X3484214Y-14675214D01*
X3512786Y-14689500D01*
X3527071Y-14718071D01*
X3527071Y-14875214D01*
X3669928Y-14875214D02*
X3669928Y-14675214D01*
X3669928Y-14703786D02*
X3684214Y-14689500D01*
X3712786Y-14675214D01*
X3755643Y-14675214D01*
X3784214Y-14689500D01*
X3798500Y-14718071D01*
X3798500Y-14875214D01*
X3798500Y-14718071D02*
X3812786Y-14689500D01*
X3841357Y-14675214D01*
X3884214Y-14675214D01*
X3912786Y-14689500D01*
X3927071Y-14718071D01*
X3927071Y-14875214D01*
X4512786Y-14560929D02*
X4255643Y-14946643D01*
X4898500Y-14575214D02*
X4927071Y-14575214D01*
X4955643Y-14589500D01*
X4969928Y-14603786D01*
X4984214Y-14632357D01*
X4998500Y-14689500D01*
X4998500Y-14760929D01*
X4984214Y-14818071D01*
X4969928Y-14846643D01*
X4955643Y-14860929D01*
X4927071Y-14875214D01*
X4898500Y-14875214D01*
X4869928Y-14860929D01*
X4855643Y-14846643D01*
X4841357Y-14818071D01*
X4827071Y-14760929D01*
X4827071Y-14689500D01*
X4841357Y-14632357D01*
X4855643Y-14603786D01*
X4869928Y-14589500D01*
X4898500Y-14575214D01*
X5127071Y-14846643D02*
X5141357Y-14860929D01*
X5127071Y-14875214D01*
X5112786Y-14860929D01*
X5127071Y-14846643D01*
X5127071Y-14875214D01*
X5427071Y-14875214D02*
X5255643Y-14875214D01*
X5341357Y-14875214D02*
X5341357Y-14575214D01*
X5312786Y-14618071D01*
X5284214Y-14646643D01*
X5255643Y-14660929D01*
X5712786Y-14875214D02*
X5541357Y-14875214D01*
X5627071Y-14875214D02*
X5627071Y-14575214D01*
X5598500Y-14618071D01*
X5569928Y-14646643D01*
X5541357Y-14660929D01*
X5884214Y-14703786D02*
X5855643Y-14689500D01*
X5841357Y-14675214D01*
X5827071Y-14646643D01*
X5827071Y-14632357D01*
X5841357Y-14603786D01*
X5855643Y-14589500D01*
X5884214Y-14575214D01*
X5941357Y-14575214D01*
X5969928Y-14589500D01*
X5984214Y-14603786D01*
X5998500Y-14632357D01*
X5998500Y-14646643D01*
X5984214Y-14675214D01*
X5969928Y-14689500D01*
X5941357Y-14703786D01*
X5884214Y-14703786D01*
X5855643Y-14718071D01*
X5841357Y-14732357D01*
X5827071Y-14760929D01*
X5827071Y-14818071D01*
X5841357Y-14846643D01*
X5855643Y-14860929D01*
X5884214Y-14875214D01*
X5941357Y-14875214D01*
X5969928Y-14860929D01*
X5984214Y-14846643D01*
X5998500Y-14818071D01*
X5998500Y-14760929D01*
X5984214Y-14732357D01*
X5969928Y-14718071D01*
X5941357Y-14703786D01*
X6112786Y-14575214D02*
X6112786Y-14632357D01*
X6227071Y-14575214D02*
X6227071Y-14632357D01*
X6669928Y-14989500D02*
X6655643Y-14975214D01*
X6627071Y-14932357D01*
X6612786Y-14903786D01*
X6598500Y-14860929D01*
X6584214Y-14789500D01*
X6584214Y-14732357D01*
X6598500Y-14660929D01*
X6612786Y-14618071D01*
X6627071Y-14589500D01*
X6655643Y-14546643D01*
X6669928Y-14532357D01*
X6927071Y-14575214D02*
X6784214Y-14575214D01*
X6769928Y-14718071D01*
X6784214Y-14703786D01*
X6812786Y-14689500D01*
X6884214Y-14689500D01*
X6912786Y-14703786D01*
X6927071Y-14718071D01*
X6941357Y-14746643D01*
X6941357Y-14818071D01*
X6927071Y-14846643D01*
X6912786Y-14860929D01*
X6884214Y-14875214D01*
X6812786Y-14875214D01*
X6784214Y-14860929D01*
X6769928Y-14846643D01*
X7198500Y-14575214D02*
X7141357Y-14575214D01*
X7112786Y-14589500D01*
X7098500Y-14603786D01*
X7069928Y-14646643D01*
X7055643Y-14703786D01*
X7055643Y-14818071D01*
X7069928Y-14846643D01*
X7084214Y-14860929D01*
X7112786Y-14875214D01*
X7169928Y-14875214D01*
X7198500Y-14860929D01*
X7212786Y-14846643D01*
X7227071Y-14818071D01*
X7227071Y-14746643D01*
X7212786Y-14718071D01*
X7198500Y-14703786D01*
X7169928Y-14689500D01*
X7112786Y-14689500D01*
X7084214Y-14703786D01*
X7069928Y-14718071D01*
X7055643Y-14746643D01*
X7584214Y-14875214D02*
X7584214Y-14575214D01*
X7712786Y-14875214D02*
X7712786Y-14718071D01*
X7698500Y-14689500D01*
X7669928Y-14675214D01*
X7627071Y-14675214D01*
X7598500Y-14689500D01*
X7584214Y-14703786D01*
X7898500Y-14875214D02*
X7869928Y-14860929D01*
X7855643Y-14846643D01*
X7841357Y-14818071D01*
X7841357Y-14732357D01*
X7855643Y-14703786D01*
X7869928Y-14689500D01*
X7898500Y-14675214D01*
X7941357Y-14675214D01*
X7969928Y-14689500D01*
X7984214Y-14703786D01*
X7998500Y-14732357D01*
X7998500Y-14818071D01*
X7984214Y-14846643D01*
X7969928Y-14860929D01*
X7941357Y-14875214D01*
X7898500Y-14875214D01*
X8169928Y-14875214D02*
X8141357Y-14860929D01*
X8127071Y-14832357D01*
X8127071Y-14575214D01*
X8398500Y-14860929D02*
X8369928Y-14875214D01*
X8312786Y-14875214D01*
X8284214Y-14860929D01*
X8269928Y-14832357D01*
X8269928Y-14718071D01*
X8284214Y-14689500D01*
X8312786Y-14675214D01*
X8369928Y-14675214D01*
X8398500Y-14689500D01*
X8412786Y-14718071D01*
X8412786Y-14746643D01*
X8269928Y-14775214D01*
X8527071Y-14860929D02*
X8555643Y-14875214D01*
X8612786Y-14875214D01*
X8641357Y-14860929D01*
X8655643Y-14832357D01*
X8655643Y-14818071D01*
X8641357Y-14789500D01*
X8612786Y-14775214D01*
X8569928Y-14775214D01*
X8541357Y-14760929D01*
X8527071Y-14732357D01*
X8527071Y-14718071D01*
X8541357Y-14689500D01*
X8569928Y-14675214D01*
X8612786Y-14675214D01*
X8641357Y-14689500D01*
X8755643Y-14989500D02*
X8769928Y-14975214D01*
X8798500Y-14932357D01*
X8812786Y-14903786D01*
X8827071Y-14860929D01*
X8841357Y-14789500D01*
X8841357Y-14732357D01*
X8827071Y-14660929D01*
X8812786Y-14618071D01*
X8798500Y-14589500D01*
X8769928Y-14546643D01*
X8755643Y-14532357D01*
X9298500Y-14989500D02*
X9284214Y-14975214D01*
X9255643Y-14932357D01*
X9241357Y-14903786D01*
X9227071Y-14860929D01*
X9212786Y-14789500D01*
X9212786Y-14732357D01*
X9227071Y-14660929D01*
X9241357Y-14618071D01*
X9255643Y-14589500D01*
X9284214Y-14546643D01*
X9298500Y-14532357D01*
X9412786Y-14675214D02*
X9412786Y-14875214D01*
X9412786Y-14703786D02*
X9427071Y-14689500D01*
X9455643Y-14675214D01*
X9498500Y-14675214D01*
X9527071Y-14689500D01*
X9541357Y-14718071D01*
X9541357Y-14875214D01*
X9727071Y-14875214D02*
X9698500Y-14860929D01*
X9684214Y-14846643D01*
X9669928Y-14818071D01*
X9669928Y-14732357D01*
X9684214Y-14703786D01*
X9698500Y-14689500D01*
X9727071Y-14675214D01*
X9769928Y-14675214D01*
X9798500Y-14689500D01*
X9812786Y-14703786D01*
X9827071Y-14732357D01*
X9827071Y-14818071D01*
X9812786Y-14846643D01*
X9798500Y-14860929D01*
X9769928Y-14875214D01*
X9727071Y-14875214D01*
X9912786Y-14675214D02*
X10027071Y-14675214D01*
X9955643Y-14575214D02*
X9955643Y-14832357D01*
X9969928Y-14860929D01*
X9998500Y-14875214D01*
X10027071Y-14875214D01*
X10355643Y-14675214D02*
X10355643Y-14975214D01*
X10355643Y-14689500D02*
X10384214Y-14675214D01*
X10441357Y-14675214D01*
X10469928Y-14689500D01*
X10484214Y-14703786D01*
X10498500Y-14732357D01*
X10498500Y-14818071D01*
X10484214Y-14846643D01*
X10469928Y-14860929D01*
X10441357Y-14875214D01*
X10384214Y-14875214D01*
X10355643Y-14860929D01*
X10669928Y-14875214D02*
X10641357Y-14860929D01*
X10627071Y-14832357D01*
X10627071Y-14575214D01*
X10912786Y-14875214D02*
X10912786Y-14718071D01*
X10898500Y-14689500D01*
X10869928Y-14675214D01*
X10812786Y-14675214D01*
X10784214Y-14689500D01*
X10912786Y-14860929D02*
X10884214Y-14875214D01*
X10812786Y-14875214D01*
X10784214Y-14860929D01*
X10769928Y-14832357D01*
X10769928Y-14803786D01*
X10784214Y-14775214D01*
X10812786Y-14760929D01*
X10884214Y-14760929D01*
X10912786Y-14746643D01*
X11012786Y-14675214D02*
X11127071Y-14675214D01*
X11055643Y-14575214D02*
X11055643Y-14832357D01*
X11069928Y-14860929D01*
X11098500Y-14875214D01*
X11127071Y-14875214D01*
X11341357Y-14860929D02*
X11312786Y-14875214D01*
X11255643Y-14875214D01*
X11227071Y-14860929D01*
X11212786Y-14832357D01*
X11212786Y-14718071D01*
X11227071Y-14689500D01*
X11255643Y-14675214D01*
X11312786Y-14675214D01*
X11341357Y-14689500D01*
X11355643Y-14718071D01*
X11355643Y-14746643D01*
X11212786Y-14775214D01*
X11612786Y-14875214D02*
X11612786Y-14575214D01*
X11612786Y-14860929D02*
X11584214Y-14875214D01*
X11527071Y-14875214D01*
X11498500Y-14860929D01*
X11484214Y-14846643D01*
X11469928Y-14818071D01*
X11469928Y-14732357D01*
X11484214Y-14703786D01*
X11498500Y-14689500D01*
X11527071Y-14675214D01*
X11584214Y-14675214D01*
X11612786Y-14689500D01*
X11727071Y-14989500D02*
X11741357Y-14975214D01*
X11769928Y-14932357D01*
X11784214Y-14903786D01*
X11798500Y-14860929D01*
X11812786Y-14789500D01*
X11812786Y-14732357D01*
X11798500Y-14660929D01*
X11784214Y-14618071D01*
X11769928Y-14589500D01*
X11741357Y-14546643D01*
X11727071Y-14532357D01*
X1831000Y-15322000D02*
X1983500Y-15169500D01*
X1831000Y-15017000D01*
X1678500Y-15169500D01*
X1831000Y-15322000D01*
X2241357Y-15005214D02*
X2427071Y-15005214D01*
X2327071Y-15119500D01*
X2369928Y-15119500D01*
X2398500Y-15133786D01*
X2412786Y-15148071D01*
X2427071Y-15176643D01*
X2427071Y-15248071D01*
X2412786Y-15276643D01*
X2398500Y-15290929D01*
X2369928Y-15305214D01*
X2284214Y-15305214D01*
X2255643Y-15290929D01*
X2241357Y-15276643D01*
X2555643Y-15276643D02*
X2569928Y-15290929D01*
X2555643Y-15305214D01*
X2541357Y-15290929D01*
X2555643Y-15276643D01*
X2555643Y-15305214D01*
X2755643Y-15005214D02*
X2784214Y-15005214D01*
X2812786Y-15019500D01*
X2827071Y-15033786D01*
X2841357Y-15062357D01*
X2855643Y-15119500D01*
X2855643Y-15190929D01*
X2841357Y-15248071D01*
X2827071Y-15276643D01*
X2812786Y-15290929D01*
X2784214Y-15305214D01*
X2755643Y-15305214D01*
X2727071Y-15290929D01*
X2712786Y-15276643D01*
X2698500Y-15248071D01*
X2684214Y-15190929D01*
X2684214Y-15119500D01*
X2698500Y-15062357D01*
X2712786Y-15033786D01*
X2727071Y-15019500D01*
X2755643Y-15005214D01*
X3127071Y-15005214D02*
X2984214Y-15005214D01*
X2969928Y-15148071D01*
X2984214Y-15133786D01*
X3012786Y-15119500D01*
X3084214Y-15119500D01*
X3112786Y-15133786D01*
X3127071Y-15148071D01*
X3141357Y-15176643D01*
X3141357Y-15248071D01*
X3127071Y-15276643D01*
X3112786Y-15290929D01*
X3084214Y-15305214D01*
X3012786Y-15305214D01*
X2984214Y-15290929D01*
X2969928Y-15276643D01*
X3269928Y-15305214D02*
X3269928Y-15105214D01*
X3269928Y-15133786D02*
X3284214Y-15119500D01*
X3312786Y-15105214D01*
X3355643Y-15105214D01*
X3384214Y-15119500D01*
X3398500Y-15148071D01*
X3398500Y-15305214D01*
X3398500Y-15148071D02*
X3412786Y-15119500D01*
X3441357Y-15105214D01*
X3484214Y-15105214D01*
X3512786Y-15119500D01*
X3527071Y-15148071D01*
X3527071Y-15305214D01*
X3669928Y-15305214D02*
X3669928Y-15105214D01*
X3669928Y-15133786D02*
X3684214Y-15119500D01*
X3712786Y-15105214D01*
X3755643Y-15105214D01*
X3784214Y-15119500D01*
X3798500Y-15148071D01*
X3798500Y-15305214D01*
X3798500Y-15148071D02*
X3812786Y-15119500D01*
X3841357Y-15105214D01*
X3884214Y-15105214D01*
X3912786Y-15119500D01*
X3927071Y-15148071D01*
X3927071Y-15305214D01*
X4512786Y-14990929D02*
X4255643Y-15376643D01*
X4898500Y-15005214D02*
X4927071Y-15005214D01*
X4955643Y-15019500D01*
X4969928Y-15033786D01*
X4984214Y-15062357D01*
X4998500Y-15119500D01*
X4998500Y-15190929D01*
X4984214Y-15248071D01*
X4969928Y-15276643D01*
X4955643Y-15290929D01*
X4927071Y-15305214D01*
X4898500Y-15305214D01*
X4869928Y-15290929D01*
X4855643Y-15276643D01*
X4841357Y-15248071D01*
X4827071Y-15190929D01*
X4827071Y-15119500D01*
X4841357Y-15062357D01*
X4855643Y-15033786D01*
X4869928Y-15019500D01*
X4898500Y-15005214D01*
X5127071Y-15276643D02*
X5141357Y-15290929D01*
X5127071Y-15305214D01*
X5112786Y-15290929D01*
X5127071Y-15276643D01*
X5127071Y-15305214D01*
X5427071Y-15305214D02*
X5255643Y-15305214D01*
X5341357Y-15305214D02*
X5341357Y-15005214D01*
X5312786Y-15048071D01*
X5284214Y-15076643D01*
X5255643Y-15090929D01*
X5541357Y-15033786D02*
X5555643Y-15019500D01*
X5584214Y-15005214D01*
X5655643Y-15005214D01*
X5684214Y-15019500D01*
X5698500Y-15033786D01*
X5712786Y-15062357D01*
X5712786Y-15090929D01*
X5698500Y-15133786D01*
X5527071Y-15305214D01*
X5712786Y-15305214D01*
X5898500Y-15005214D02*
X5927071Y-15005214D01*
X5955643Y-15019500D01*
X5969928Y-15033786D01*
X5984214Y-15062357D01*
X5998500Y-15119500D01*
X5998500Y-15190929D01*
X5984214Y-15248071D01*
X5969928Y-15276643D01*
X5955643Y-15290929D01*
X5927071Y-15305214D01*
X5898500Y-15305214D01*
X5869928Y-15290929D01*
X5855643Y-15276643D01*
X5841357Y-15248071D01*
X5827071Y-15190929D01*
X5827071Y-15119500D01*
X5841357Y-15062357D01*
X5855643Y-15033786D01*
X5869928Y-15019500D01*
X5898500Y-15005214D01*
X6112786Y-15005214D02*
X6112786Y-15062357D01*
X6227071Y-15005214D02*
X6227071Y-15062357D01*
X6669928Y-15419500D02*
X6655643Y-15405214D01*
X6627071Y-15362357D01*
X6612786Y-15333786D01*
X6598500Y-15290929D01*
X6584214Y-15219500D01*
X6584214Y-15162357D01*
X6598500Y-15090929D01*
X6612786Y-15048071D01*
X6627071Y-15019500D01*
X6655643Y-14976643D01*
X6669928Y-14962357D01*
X6769928Y-15033786D02*
X6784214Y-15019500D01*
X6812786Y-15005214D01*
X6884214Y-15005214D01*
X6912786Y-15019500D01*
X6927071Y-15033786D01*
X6941357Y-15062357D01*
X6941357Y-15090929D01*
X6927071Y-15133786D01*
X6755643Y-15305214D01*
X6941357Y-15305214D01*
X7298500Y-15305214D02*
X7298500Y-15005214D01*
X7427071Y-15305214D02*
X7427071Y-15148071D01*
X7412786Y-15119500D01*
X7384214Y-15105214D01*
X7341357Y-15105214D01*
X7312786Y-15119500D01*
X7298500Y-15133786D01*
X7612786Y-15305214D02*
X7584214Y-15290929D01*
X7569928Y-15276643D01*
X7555643Y-15248071D01*
X7555643Y-15162357D01*
X7569928Y-15133786D01*
X7584214Y-15119500D01*
X7612786Y-15105214D01*
X7655643Y-15105214D01*
X7684214Y-15119500D01*
X7698500Y-15133786D01*
X7712786Y-15162357D01*
X7712786Y-15248071D01*
X7698500Y-15276643D01*
X7684214Y-15290929D01*
X7655643Y-15305214D01*
X7612786Y-15305214D01*
X7884214Y-15305214D02*
X7855643Y-15290929D01*
X7841357Y-15262357D01*
X7841357Y-15005214D01*
X8112786Y-15290929D02*
X8084214Y-15305214D01*
X8027071Y-15305214D01*
X7998500Y-15290929D01*
X7984214Y-15262357D01*
X7984214Y-15148071D01*
X7998500Y-15119500D01*
X8027071Y-15105214D01*
X8084214Y-15105214D01*
X8112786Y-15119500D01*
X8127071Y-15148071D01*
X8127071Y-15176643D01*
X7984214Y-15205214D01*
X8241357Y-15290929D02*
X8269928Y-15305214D01*
X8327071Y-15305214D01*
X8355643Y-15290929D01*
X8369928Y-15262357D01*
X8369928Y-15248071D01*
X8355643Y-15219500D01*
X8327071Y-15205214D01*
X8284214Y-15205214D01*
X8255643Y-15190929D01*
X8241357Y-15162357D01*
X8241357Y-15148071D01*
X8255643Y-15119500D01*
X8284214Y-15105214D01*
X8327071Y-15105214D01*
X8355643Y-15119500D01*
X8469928Y-15419500D02*
X8484214Y-15405214D01*
X8512786Y-15362357D01*
X8527071Y-15333786D01*
X8541357Y-15290929D01*
X8555643Y-15219500D01*
X8555643Y-15162357D01*
X8541357Y-15090929D01*
X8527071Y-15048071D01*
X8512786Y-15019500D01*
X8484214Y-14976643D01*
X8469928Y-14962357D01*
X9012786Y-15419500D02*
X8998500Y-15405214D01*
X8969928Y-15362357D01*
X8955643Y-15333786D01*
X8941357Y-15290929D01*
X8927071Y-15219500D01*
X8927071Y-15162357D01*
X8941357Y-15090929D01*
X8955643Y-15048071D01*
X8969928Y-15019500D01*
X8998500Y-14976643D01*
X9012786Y-14962357D01*
X9127071Y-15105214D02*
X9127071Y-15305214D01*
X9127071Y-15133786D02*
X9141357Y-15119500D01*
X9169928Y-15105214D01*
X9212786Y-15105214D01*
X9241357Y-15119500D01*
X9255643Y-15148071D01*
X9255643Y-15305214D01*
X9441357Y-15305214D02*
X9412786Y-15290929D01*
X9398500Y-15276643D01*
X9384214Y-15248071D01*
X9384214Y-15162357D01*
X9398500Y-15133786D01*
X9412786Y-15119500D01*
X9441357Y-15105214D01*
X9484214Y-15105214D01*
X9512786Y-15119500D01*
X9527071Y-15133786D01*
X9541357Y-15162357D01*
X9541357Y-15248071D01*
X9527071Y-15276643D01*
X9512786Y-15290929D01*
X9484214Y-15305214D01*
X9441357Y-15305214D01*
X9627071Y-15105214D02*
X9741357Y-15105214D01*
X9669928Y-15005214D02*
X9669928Y-15262357D01*
X9684214Y-15290929D01*
X9712786Y-15305214D01*
X9741357Y-15305214D01*
X10069928Y-15105214D02*
X10069928Y-15405214D01*
X10069928Y-15119500D02*
X10098500Y-15105214D01*
X10155643Y-15105214D01*
X10184214Y-15119500D01*
X10198500Y-15133786D01*
X10212786Y-15162357D01*
X10212786Y-15248071D01*
X10198500Y-15276643D01*
X10184214Y-15290929D01*
X10155643Y-15305214D01*
X10098500Y-15305214D01*
X10069928Y-15290929D01*
X10384214Y-15305214D02*
X10355643Y-15290929D01*
X10341357Y-15262357D01*
X10341357Y-15005214D01*
X10627071Y-15305214D02*
X10627071Y-15148071D01*
X10612786Y-15119500D01*
X10584214Y-15105214D01*
X10527071Y-15105214D01*
X10498500Y-15119500D01*
X10627071Y-15290929D02*
X10598500Y-15305214D01*
X10527071Y-15305214D01*
X10498500Y-15290929D01*
X10484214Y-15262357D01*
X10484214Y-15233786D01*
X10498500Y-15205214D01*
X10527071Y-15190929D01*
X10598500Y-15190929D01*
X10627071Y-15176643D01*
X10727071Y-15105214D02*
X10841357Y-15105214D01*
X10769928Y-15005214D02*
X10769928Y-15262357D01*
X10784214Y-15290929D01*
X10812786Y-15305214D01*
X10841357Y-15305214D01*
X11055643Y-15290929D02*
X11027071Y-15305214D01*
X10969928Y-15305214D01*
X10941357Y-15290929D01*
X10927071Y-15262357D01*
X10927071Y-15148071D01*
X10941357Y-15119500D01*
X10969928Y-15105214D01*
X11027071Y-15105214D01*
X11055643Y-15119500D01*
X11069928Y-15148071D01*
X11069928Y-15176643D01*
X10927071Y-15205214D01*
X11327071Y-15305214D02*
X11327071Y-15005214D01*
X11327071Y-15290929D02*
X11298500Y-15305214D01*
X11241357Y-15305214D01*
X11212786Y-15290929D01*
X11198500Y-15276643D01*
X11184214Y-15248071D01*
X11184214Y-15162357D01*
X11198500Y-15133786D01*
X11212786Y-15119500D01*
X11241357Y-15105214D01*
X11298500Y-15105214D01*
X11327071Y-15119500D01*
X11441357Y-15419500D02*
X11455643Y-15405214D01*
X11484214Y-15362357D01*
X11498500Y-15333786D01*
X11512786Y-15290929D01*
X11527071Y-15219500D01*
X11527071Y-15162357D01*
X11512786Y-15090929D01*
X11498500Y-15048071D01*
X11484214Y-15019500D01*
X11455643Y-14976643D01*
X11441357Y-14962357D01*
X1583500Y-15404500D02*
X1983500Y-15804500D01*
X1983500Y-15404500D02*
X1583500Y-15804500D01*
X1983500Y-15604500D02*
G75*
G03X1983500Y-15604500I-200000J0D01*
G01*
X2398500Y-15540214D02*
X2398500Y-15740214D01*
X2327071Y-15425929D02*
X2255643Y-15640214D01*
X2441357Y-15640214D01*
X2555643Y-15711643D02*
X2569928Y-15725929D01*
X2555643Y-15740214D01*
X2541357Y-15725929D01*
X2555643Y-15711643D01*
X2555643Y-15740214D01*
X2755643Y-15440214D02*
X2784214Y-15440214D01*
X2812786Y-15454500D01*
X2827071Y-15468786D01*
X2841357Y-15497357D01*
X2855643Y-15554500D01*
X2855643Y-15625929D01*
X2841357Y-15683071D01*
X2827071Y-15711643D01*
X2812786Y-15725929D01*
X2784214Y-15740214D01*
X2755643Y-15740214D01*
X2727071Y-15725929D01*
X2712786Y-15711643D01*
X2698500Y-15683071D01*
X2684214Y-15625929D01*
X2684214Y-15554500D01*
X2698500Y-15497357D01*
X2712786Y-15468786D01*
X2727071Y-15454500D01*
X2755643Y-15440214D01*
X3041357Y-15440214D02*
X3069928Y-15440214D01*
X3098500Y-15454500D01*
X3112786Y-15468786D01*
X3127071Y-15497357D01*
X3141357Y-15554500D01*
X3141357Y-15625929D01*
X3127071Y-15683071D01*
X3112786Y-15711643D01*
X3098500Y-15725929D01*
X3069928Y-15740214D01*
X3041357Y-15740214D01*
X3012786Y-15725929D01*
X2998500Y-15711643D01*
X2984214Y-15683071D01*
X2969928Y-15625929D01*
X2969928Y-15554500D01*
X2984214Y-15497357D01*
X2998500Y-15468786D01*
X3012786Y-15454500D01*
X3041357Y-15440214D01*
X3269928Y-15740214D02*
X3269928Y-15540214D01*
X3269928Y-15568786D02*
X3284214Y-15554500D01*
X3312786Y-15540214D01*
X3355643Y-15540214D01*
X3384214Y-15554500D01*
X3398500Y-15583071D01*
X3398500Y-15740214D01*
X3398500Y-15583071D02*
X3412786Y-15554500D01*
X3441357Y-15540214D01*
X3484214Y-15540214D01*
X3512786Y-15554500D01*
X3527071Y-15583071D01*
X3527071Y-15740214D01*
X3669928Y-15740214D02*
X3669928Y-15540214D01*
X3669928Y-15568786D02*
X3684214Y-15554500D01*
X3712786Y-15540214D01*
X3755643Y-15540214D01*
X3784214Y-15554500D01*
X3798500Y-15583071D01*
X3798500Y-15740214D01*
X3798500Y-15583071D02*
X3812786Y-15554500D01*
X3841357Y-15540214D01*
X3884214Y-15540214D01*
X3912786Y-15554500D01*
X3927071Y-15583071D01*
X3927071Y-15740214D01*
X4512786Y-15425929D02*
X4255643Y-15811643D01*
X4898500Y-15440214D02*
X4927071Y-15440214D01*
X4955643Y-15454500D01*
X4969928Y-15468786D01*
X4984214Y-15497357D01*
X4998500Y-15554500D01*
X4998500Y-15625929D01*
X4984214Y-15683071D01*
X4969928Y-15711643D01*
X4955643Y-15725929D01*
X4927071Y-15740214D01*
X4898500Y-15740214D01*
X4869928Y-15725929D01*
X4855643Y-15711643D01*
X4841357Y-15683071D01*
X4827071Y-15625929D01*
X4827071Y-15554500D01*
X4841357Y-15497357D01*
X4855643Y-15468786D01*
X4869928Y-15454500D01*
X4898500Y-15440214D01*
X5127071Y-15711643D02*
X5141357Y-15725929D01*
X5127071Y-15740214D01*
X5112786Y-15725929D01*
X5127071Y-15711643D01*
X5127071Y-15740214D01*
X5427071Y-15740214D02*
X5255643Y-15740214D01*
X5341357Y-15740214D02*
X5341357Y-15440214D01*
X5312786Y-15483071D01*
X5284214Y-15511643D01*
X5255643Y-15525929D01*
X5698500Y-15440214D02*
X5555643Y-15440214D01*
X5541357Y-15583071D01*
X5555643Y-15568786D01*
X5584214Y-15554500D01*
X5655643Y-15554500D01*
X5684214Y-15568786D01*
X5698500Y-15583071D01*
X5712786Y-15611643D01*
X5712786Y-15683071D01*
X5698500Y-15711643D01*
X5684214Y-15725929D01*
X5655643Y-15740214D01*
X5584214Y-15740214D01*
X5555643Y-15725929D01*
X5541357Y-15711643D01*
X5812786Y-15440214D02*
X6012786Y-15440214D01*
X5884214Y-15740214D01*
X6112786Y-15440214D02*
X6112786Y-15497357D01*
X6227071Y-15440214D02*
X6227071Y-15497357D01*
X6669928Y-15854500D02*
X6655643Y-15840214D01*
X6627071Y-15797357D01*
X6612786Y-15768786D01*
X6598500Y-15725929D01*
X6584214Y-15654500D01*
X6584214Y-15597357D01*
X6598500Y-15525929D01*
X6612786Y-15483071D01*
X6627071Y-15454500D01*
X6655643Y-15411643D01*
X6669928Y-15397357D01*
X6755643Y-15440214D02*
X6941357Y-15440214D01*
X6841357Y-15554500D01*
X6884214Y-15554500D01*
X6912786Y-15568786D01*
X6927071Y-15583071D01*
X6941357Y-15611643D01*
X6941357Y-15683071D01*
X6927071Y-15711643D01*
X6912786Y-15725929D01*
X6884214Y-15740214D01*
X6798500Y-15740214D01*
X6769928Y-15725929D01*
X6755643Y-15711643D01*
X7127071Y-15440214D02*
X7155643Y-15440214D01*
X7184214Y-15454500D01*
X7198500Y-15468786D01*
X7212786Y-15497357D01*
X7227071Y-15554500D01*
X7227071Y-15625929D01*
X7212786Y-15683071D01*
X7198500Y-15711643D01*
X7184214Y-15725929D01*
X7155643Y-15740214D01*
X7127071Y-15740214D01*
X7098500Y-15725929D01*
X7084214Y-15711643D01*
X7069928Y-15683071D01*
X7055643Y-15625929D01*
X7055643Y-15554500D01*
X7069928Y-15497357D01*
X7084214Y-15468786D01*
X7098500Y-15454500D01*
X7127071Y-15440214D01*
X7584214Y-15740214D02*
X7584214Y-15440214D01*
X7712786Y-15740214D02*
X7712786Y-15583071D01*
X7698500Y-15554500D01*
X7669928Y-15540214D01*
X7627071Y-15540214D01*
X7598500Y-15554500D01*
X7584214Y-15568786D01*
X7898500Y-15740214D02*
X7869928Y-15725929D01*
X7855643Y-15711643D01*
X7841357Y-15683071D01*
X7841357Y-15597357D01*
X7855643Y-15568786D01*
X7869928Y-15554500D01*
X7898500Y-15540214D01*
X7941357Y-15540214D01*
X7969928Y-15554500D01*
X7984214Y-15568786D01*
X7998500Y-15597357D01*
X7998500Y-15683071D01*
X7984214Y-15711643D01*
X7969928Y-15725929D01*
X7941357Y-15740214D01*
X7898500Y-15740214D01*
X8169928Y-15740214D02*
X8141357Y-15725929D01*
X8127071Y-15697357D01*
X8127071Y-15440214D01*
X8398500Y-15725929D02*
X8369928Y-15740214D01*
X8312786Y-15740214D01*
X8284214Y-15725929D01*
X8269928Y-15697357D01*
X8269928Y-15583071D01*
X8284214Y-15554500D01*
X8312786Y-15540214D01*
X8369928Y-15540214D01*
X8398500Y-15554500D01*
X8412786Y-15583071D01*
X8412786Y-15611643D01*
X8269928Y-15640214D01*
X8527071Y-15725929D02*
X8555643Y-15740214D01*
X8612786Y-15740214D01*
X8641357Y-15725929D01*
X8655643Y-15697357D01*
X8655643Y-15683071D01*
X8641357Y-15654500D01*
X8612786Y-15640214D01*
X8569928Y-15640214D01*
X8541357Y-15625929D01*
X8527071Y-15597357D01*
X8527071Y-15583071D01*
X8541357Y-15554500D01*
X8569928Y-15540214D01*
X8612786Y-15540214D01*
X8641357Y-15554500D01*
X8755643Y-15854500D02*
X8769928Y-15840214D01*
X8798500Y-15797357D01*
X8812786Y-15768786D01*
X8827071Y-15725929D01*
X8841357Y-15654500D01*
X8841357Y-15597357D01*
X8827071Y-15525929D01*
X8812786Y-15483071D01*
X8798500Y-15454500D01*
X8769928Y-15411643D01*
X8755643Y-15397357D01*
X9298500Y-15854500D02*
X9284214Y-15840214D01*
X9255643Y-15797357D01*
X9241357Y-15768786D01*
X9227071Y-15725929D01*
X9212786Y-15654500D01*
X9212786Y-15597357D01*
X9227071Y-15525929D01*
X9241357Y-15483071D01*
X9255643Y-15454500D01*
X9284214Y-15411643D01*
X9298500Y-15397357D01*
X9412786Y-15540214D02*
X9412786Y-15740214D01*
X9412786Y-15568786D02*
X9427071Y-15554500D01*
X9455643Y-15540214D01*
X9498500Y-15540214D01*
X9527071Y-15554500D01*
X9541357Y-15583071D01*
X9541357Y-15740214D01*
X9727071Y-15740214D02*
X9698500Y-15725929D01*
X9684214Y-15711643D01*
X9669928Y-15683071D01*
X9669928Y-15597357D01*
X9684214Y-15568786D01*
X9698500Y-15554500D01*
X9727071Y-15540214D01*
X9769928Y-15540214D01*
X9798500Y-15554500D01*
X9812786Y-15568786D01*
X9827071Y-15597357D01*
X9827071Y-15683071D01*
X9812786Y-15711643D01*
X9798500Y-15725929D01*
X9769928Y-15740214D01*
X9727071Y-15740214D01*
X9912786Y-15540214D02*
X10027071Y-15540214D01*
X9955643Y-15440214D02*
X9955643Y-15697357D01*
X9969928Y-15725929D01*
X9998500Y-15740214D01*
X10027071Y-15740214D01*
X10355643Y-15540214D02*
X10355643Y-15840214D01*
X10355643Y-15554500D02*
X10384214Y-15540214D01*
X10441357Y-15540214D01*
X10469928Y-15554500D01*
X10484214Y-15568786D01*
X10498500Y-15597357D01*
X10498500Y-15683071D01*
X10484214Y-15711643D01*
X10469928Y-15725929D01*
X10441357Y-15740214D01*
X10384214Y-15740214D01*
X10355643Y-15725929D01*
X10669928Y-15740214D02*
X10641357Y-15725929D01*
X10627071Y-15697357D01*
X10627071Y-15440214D01*
X10912786Y-15740214D02*
X10912786Y-15583071D01*
X10898500Y-15554500D01*
X10869928Y-15540214D01*
X10812786Y-15540214D01*
X10784214Y-15554500D01*
X10912786Y-15725929D02*
X10884214Y-15740214D01*
X10812786Y-15740214D01*
X10784214Y-15725929D01*
X10769928Y-15697357D01*
X10769928Y-15668786D01*
X10784214Y-15640214D01*
X10812786Y-15625929D01*
X10884214Y-15625929D01*
X10912786Y-15611643D01*
X11012786Y-15540214D02*
X11127071Y-15540214D01*
X11055643Y-15440214D02*
X11055643Y-15697357D01*
X11069928Y-15725929D01*
X11098500Y-15740214D01*
X11127071Y-15740214D01*
X11341357Y-15725929D02*
X11312786Y-15740214D01*
X11255643Y-15740214D01*
X11227071Y-15725929D01*
X11212786Y-15697357D01*
X11212786Y-15583071D01*
X11227071Y-15554500D01*
X11255643Y-15540214D01*
X11312786Y-15540214D01*
X11341357Y-15554500D01*
X11355643Y-15583071D01*
X11355643Y-15611643D01*
X11212786Y-15640214D01*
X11612786Y-15740214D02*
X11612786Y-15440214D01*
X11612786Y-15725929D02*
X11584214Y-15740214D01*
X11527071Y-15740214D01*
X11498500Y-15725929D01*
X11484214Y-15711643D01*
X11469928Y-15683071D01*
X11469928Y-15597357D01*
X11484214Y-15568786D01*
X11498500Y-15554500D01*
X11527071Y-15540214D01*
X11584214Y-15540214D01*
X11612786Y-15554500D01*
X11727071Y-15854500D02*
X11741357Y-15840214D01*
X11769928Y-15797357D01*
X11784214Y-15768786D01*
X11798500Y-15725929D01*
X11812786Y-15654500D01*
X11812786Y-15597357D01*
X11798500Y-15525929D01*
X11784214Y-15483071D01*
X11769928Y-15454500D01*
X11741357Y-15411643D01*
X11727071Y-15397357D01*
M02*
