%FSLAX45Y45*%
G04 Gerber Fmt 4.5, Leading zero omitted, Abs format (unit mm)*
G04 Created by KiCad (PCBNEW (5.0.2)-1) date 2019/03/03 0:14:22*
%MOMM*%
%LPD*%
G01*
G04 APERTURE LIST*
%ADD10C,0.150000*%
%ADD11C,0.200000*%
%ADD12C,0.300000*%
G04 APERTURE END LIST*
D10*
X17405000Y-4469000D02*
X17881000Y-4469000D01*
X17405000Y-2059000D02*
X17405000Y-4469000D01*
X1991000Y-12584000D02*
X17881000Y-12584000D01*
X1991000Y-2059000D02*
X17405000Y-2059000D01*
X17881000Y-4469000D02*
X17881000Y-12584000D01*
X1991000Y-2059000D02*
X1991000Y-12584000D01*
D11*
X2120000Y-2838000D02*
X2160000Y-2878000D01*
X2160000Y-2838000D02*
X2120000Y-2878000D01*
X2566000Y-3083000D02*
X2606000Y-3123000D01*
X2606000Y-3083000D02*
X2566000Y-3123000D01*
X2568000Y-9421000D02*
X2608000Y-9461000D01*
X2608000Y-9421000D02*
X2568000Y-9461000D01*
X2801000Y-2962000D02*
X2841000Y-3002000D01*
X2841000Y-2962000D02*
X2801000Y-3002000D01*
X2801000Y-3224000D02*
X2841000Y-3264000D01*
X2841000Y-3224000D02*
X2801000Y-3264000D01*
X3170000Y-9421000D02*
X3210000Y-9461000D01*
X3210000Y-9421000D02*
X3170000Y-9461000D01*
X3201000Y-2714000D02*
X3241000Y-2754000D01*
X3241000Y-2714000D02*
X3201000Y-2754000D01*
X3201000Y-3478000D02*
X3241000Y-3518000D01*
X3241000Y-3478000D02*
X3201000Y-3518000D01*
X3430000Y-3733000D02*
X3470000Y-3773000D01*
X3470000Y-3733000D02*
X3430000Y-3773000D01*
X3540850Y-3364000D02*
X3580850Y-3404000D01*
X3580850Y-3364000D02*
X3540850Y-3404000D01*
X3769000Y-5968000D02*
X3809000Y-6008000D01*
X3809000Y-5968000D02*
X3769000Y-6008000D01*
X3770000Y-9424000D02*
X3810000Y-9464000D01*
X3810000Y-9424000D02*
X3770000Y-9464000D01*
X3953000Y-6398000D02*
X3993000Y-6438000D01*
X3993000Y-6398000D02*
X3953000Y-6438000D01*
X3986000Y-3597000D02*
X4026000Y-3637000D01*
X4026000Y-3597000D02*
X3986000Y-3637000D01*
X4051000Y-5254000D02*
X4091000Y-5294000D01*
X4091000Y-5254000D02*
X4051000Y-5294000D01*
X4190000Y-9742000D02*
X4230000Y-9782000D01*
X4230000Y-9742000D02*
X4190000Y-9782000D01*
X4191000Y-5016000D02*
X4231000Y-5056000D01*
X4231000Y-5016000D02*
X4191000Y-5056000D01*
X4334000Y-4742000D02*
X4374000Y-4782000D01*
X4374000Y-4742000D02*
X4334000Y-4782000D01*
X4336000Y-7845000D02*
X4376000Y-7885000D01*
X4376000Y-7845000D02*
X4336000Y-7885000D01*
X4447000Y-4501000D02*
X4487000Y-4541000D01*
X4487000Y-4501000D02*
X4447000Y-4541000D01*
X4448000Y-5922000D02*
X4488000Y-5962000D01*
X4488000Y-5922000D02*
X4448000Y-5962000D01*
X4538000Y-4021000D02*
X4578000Y-4061000D01*
X4578000Y-4021000D02*
X4538000Y-4061000D01*
X4952000Y-3134000D02*
X4992000Y-3174000D01*
X4992000Y-3134000D02*
X4952000Y-3174000D01*
X5014000Y-5926000D02*
X5054000Y-5966000D01*
X5054000Y-5926000D02*
X5014000Y-5966000D01*
X5253000Y-7841000D02*
X5293000Y-7881000D01*
X5293000Y-7841000D02*
X5253000Y-7881000D01*
X5413000Y-5002000D02*
X5453000Y-5042000D01*
X5453000Y-5002000D02*
X5413000Y-5042000D01*
X5639000Y-6898000D02*
X5679000Y-6938000D01*
X5679000Y-6898000D02*
X5639000Y-6938000D01*
X5728000Y-9742000D02*
X5768000Y-9782000D01*
X5768000Y-9742000D02*
X5728000Y-9782000D01*
X6115000Y-8792000D02*
X6155000Y-8832000D01*
X6155000Y-8792000D02*
X6115000Y-8832000D01*
X6443000Y-4021000D02*
X6483000Y-4061000D01*
X6483000Y-4021000D02*
X6443000Y-4061000D01*
X6863000Y-3126000D02*
X6903000Y-3166000D01*
X6903000Y-3126000D02*
X6863000Y-3166000D01*
X7395000Y-5926000D02*
X7435000Y-5966000D01*
X7435000Y-5926000D02*
X7395000Y-5966000D01*
X7783000Y-5005000D02*
X7823000Y-5045000D01*
X7823000Y-5005000D02*
X7783000Y-5045000D01*
X7789000Y-3855000D02*
X7829000Y-3895000D01*
X7829000Y-3855000D02*
X7789000Y-3895000D01*
X7871000Y-7841000D02*
X7911000Y-7881000D01*
X7911000Y-7841000D02*
X7871000Y-7881000D01*
X8250000Y-6914000D02*
X8290000Y-6954000D01*
X8290000Y-6914000D02*
X8250000Y-6954000D01*
X8348000Y-4021000D02*
X8388000Y-4061000D01*
X8388000Y-4021000D02*
X8348000Y-4061000D01*
X8594000Y-3850000D02*
X8634000Y-3890000D01*
X8634000Y-3850000D02*
X8594000Y-3890000D01*
X8774000Y-3132000D02*
X8814000Y-3172000D01*
X8814000Y-3132000D02*
X8774000Y-3172000D01*
X8823000Y-9742000D02*
X8863000Y-9782000D01*
X8863000Y-9742000D02*
X8823000Y-9782000D01*
X9220000Y-8806000D02*
X9260000Y-8846000D01*
X9260000Y-8806000D02*
X9220000Y-8846000D01*
X9300000Y-5926000D02*
X9340000Y-5966000D01*
X9340000Y-5926000D02*
X9300000Y-5966000D01*
X9690000Y-4362000D02*
X9730000Y-4402000D01*
X9730000Y-4362000D02*
X9690000Y-4402000D01*
X9698000Y-4999000D02*
X9738000Y-5039000D01*
X9738000Y-4999000D02*
X9698000Y-5039000D01*
X9776000Y-7841000D02*
X9816000Y-7881000D01*
X9816000Y-7841000D02*
X9776000Y-7881000D01*
X9926000Y-10702000D02*
X9966000Y-10742000D01*
X9966000Y-10702000D02*
X9926000Y-10742000D01*
X10187000Y-6908000D02*
X10227000Y-6948000D01*
X10227000Y-6908000D02*
X10187000Y-6948000D01*
X10253000Y-4021000D02*
X10293000Y-4061000D01*
X10293000Y-4021000D02*
X10253000Y-4061000D01*
X10661000Y-3113000D02*
X10701000Y-3153000D01*
X10701000Y-3113000D02*
X10661000Y-3153000D01*
X10728000Y-9742000D02*
X10768000Y-9782000D01*
X10768000Y-9742000D02*
X10728000Y-9782000D01*
X11106000Y-8797000D02*
X11146000Y-8837000D01*
X11146000Y-8797000D02*
X11106000Y-8837000D01*
X11205000Y-5926000D02*
X11245000Y-5966000D01*
X11245000Y-5926000D02*
X11205000Y-5966000D01*
X11586000Y-4969000D02*
X11626000Y-5009000D01*
X11626000Y-4969000D02*
X11586000Y-5009000D01*
X11590000Y-4613000D02*
X11630000Y-4653000D01*
X11630000Y-4613000D02*
X11590000Y-4653000D01*
X11681000Y-7841000D02*
X11721000Y-7881000D01*
X11721000Y-7841000D02*
X11681000Y-7881000D01*
X12076000Y-9913000D02*
X12116000Y-9953000D01*
X12116000Y-9913000D02*
X12076000Y-9953000D01*
X12077000Y-6898000D02*
X12117000Y-6938000D01*
X12117000Y-6898000D02*
X12077000Y-6938000D01*
X12157000Y-4021000D02*
X12197000Y-4061000D01*
X12197000Y-4021000D02*
X12157000Y-4061000D01*
X12307000Y-4626000D02*
X12347000Y-4666000D01*
X12347000Y-4626000D02*
X12307000Y-4666000D01*
X12313000Y-10710000D02*
X12353000Y-10750000D01*
X12353000Y-10710000D02*
X12313000Y-10750000D01*
X12551000Y-3103000D02*
X12591000Y-3143000D01*
X12591000Y-3103000D02*
X12551000Y-3143000D01*
X12633000Y-9742000D02*
X12673000Y-9782000D01*
X12673000Y-9742000D02*
X12633000Y-9782000D01*
X13020000Y-8809000D02*
X13060000Y-8849000D01*
X13060000Y-8809000D02*
X13020000Y-8849000D01*
X13110000Y-5926000D02*
X13150000Y-5966000D01*
X13150000Y-5926000D02*
X13110000Y-5966000D01*
X13497000Y-4980000D02*
X13537000Y-5020000D01*
X13537000Y-4980000D02*
X13497000Y-5020000D01*
X13586000Y-7841000D02*
X13626000Y-7881000D01*
X13626000Y-7841000D02*
X13586000Y-7881000D01*
X13985000Y-6911000D02*
X14025000Y-6951000D01*
X14025000Y-6911000D02*
X13985000Y-6951000D01*
X14063000Y-4021000D02*
X14103000Y-4061000D01*
X14103000Y-4021000D02*
X14063000Y-4061000D01*
X14471000Y-3114000D02*
X14511000Y-3154000D01*
X14511000Y-3114000D02*
X14471000Y-3154000D01*
X14538000Y-9742000D02*
X14578000Y-9782000D01*
X14578000Y-9742000D02*
X14538000Y-9782000D01*
X14685700Y-6177000D02*
X14725700Y-6217000D01*
X14725700Y-6177000D02*
X14685700Y-6217000D01*
X14916000Y-8779000D02*
X14956000Y-8819000D01*
X14956000Y-8779000D02*
X14916000Y-8819000D01*
X15015000Y-5927000D02*
X15055000Y-5967000D01*
X15055000Y-5927000D02*
X15015000Y-5967000D01*
X15406000Y-4996000D02*
X15446000Y-5036000D01*
X15446000Y-4996000D02*
X15406000Y-5036000D01*
X15490000Y-7845000D02*
X15530000Y-7885000D01*
X15530000Y-7845000D02*
X15490000Y-7885000D01*
X15894000Y-6899000D02*
X15934000Y-6939000D01*
X15934000Y-6899000D02*
X15894000Y-6939000D01*
X16362000Y-10705000D02*
X16402000Y-10745000D01*
X16402000Y-10705000D02*
X16362000Y-10745000D01*
X16374000Y-3107000D02*
X16414000Y-3147000D01*
X16414000Y-3107000D02*
X16374000Y-3147000D01*
X16444000Y-9742000D02*
X16484000Y-9782000D01*
X16484000Y-9742000D02*
X16444000Y-9782000D01*
X16590000Y-6491000D02*
X16630000Y-6531000D01*
X16630000Y-6491000D02*
X16590000Y-6531000D01*
X16820000Y-8246000D02*
X16860000Y-8286000D01*
X16860000Y-8246000D02*
X16820000Y-8286000D01*
X16848000Y-8806000D02*
X16888000Y-8846000D01*
X16888000Y-8806000D02*
X16848000Y-8846000D01*
X17073000Y-9910000D02*
X17113000Y-9950000D01*
X17113000Y-9910000D02*
X17073000Y-9950000D01*
X17133000Y-4626000D02*
X17173000Y-4666000D01*
X17173000Y-4626000D02*
X17133000Y-4666000D01*
X17544000Y-8254000D02*
X17584000Y-8294000D01*
X17584000Y-8254000D02*
X17544000Y-8294000D01*
X2356100Y-2732000D02*
G75*
G03X2356100Y-2732000I-38100J0D01*
G01*
X2356100Y-2986000D02*
G75*
G03X2356100Y-2986000I-38100J0D01*
G01*
X2356100Y-3240000D02*
G75*
G03X2356100Y-3240000I-38100J0D01*
G01*
X2356100Y-3494000D02*
G75*
G03X2356100Y-3494000I-38100J0D01*
G01*
X2356100Y-3748000D02*
G75*
G03X2356100Y-3748000I-38100J0D01*
G01*
X2356100Y-4002000D02*
G75*
G03X2356100Y-4002000I-38100J0D01*
G01*
X2356100Y-4256000D02*
G75*
G03X2356100Y-4256000I-38100J0D01*
G01*
X2356100Y-4510000D02*
G75*
G03X2356100Y-4510000I-38100J0D01*
G01*
X2356100Y-4764000D02*
G75*
G03X2356100Y-4764000I-38100J0D01*
G01*
X2356100Y-5025000D02*
G75*
G03X2356100Y-5025000I-38100J0D01*
G01*
X2356100Y-5279000D02*
G75*
G03X2356100Y-5279000I-38100J0D01*
G01*
X2356100Y-5533000D02*
G75*
G03X2356100Y-5533000I-38100J0D01*
G01*
X3880100Y-2732000D02*
G75*
G03X3880100Y-2732000I-38100J0D01*
G01*
X3880100Y-2986000D02*
G75*
G03X3880100Y-2986000I-38100J0D01*
G01*
X3880100Y-3240000D02*
G75*
G03X3880100Y-3240000I-38100J0D01*
G01*
X3880100Y-3494000D02*
G75*
G03X3880100Y-3494000I-38100J0D01*
G01*
X3880100Y-3748000D02*
G75*
G03X3880100Y-3748000I-38100J0D01*
G01*
X3880100Y-4002000D02*
G75*
G03X3880100Y-4002000I-38100J0D01*
G01*
X3880100Y-4256000D02*
G75*
G03X3880100Y-4256000I-38100J0D01*
G01*
X3880100Y-4510000D02*
G75*
G03X3880100Y-4510000I-38100J0D01*
G01*
X3880100Y-4764000D02*
G75*
G03X3880100Y-4764000I-38100J0D01*
G01*
X3880100Y-5025000D02*
G75*
G03X3880100Y-5025000I-38100J0D01*
G01*
X3880100Y-5279000D02*
G75*
G03X3880100Y-5279000I-38100J0D01*
G01*
X3880100Y-5533000D02*
G75*
G03X3880100Y-5533000I-38100J0D01*
G01*
X2983000Y-6877360D02*
X2983000Y-6958640D01*
X2942360Y-6918000D02*
X3023640Y-6918000D01*
X2983000Y-7639360D02*
X2983000Y-7720640D01*
X2942360Y-7680000D02*
X3023640Y-7680000D01*
X3491000Y-6877360D02*
X3491000Y-6958640D01*
X3450360Y-6918000D02*
X3531640Y-6918000D01*
X3491000Y-7639360D02*
X3491000Y-7720640D01*
X3450360Y-7680000D02*
X3531640Y-7680000D01*
X2556356Y-6023356D02*
X2556356Y-5952644D01*
X2485644Y-5952644D01*
X2485644Y-6023356D01*
X2556356Y-6023356D01*
X2496000Y-6028000D02*
X2546000Y-6028000D01*
X2496000Y-5948000D02*
X2546000Y-5948000D01*
X2546000Y-6028000D02*
G75*
G03X2546000Y-5948000I0J40000D01*
G01*
X2496000Y-5948000D02*
G75*
G03X2496000Y-6028000I0J-40000D01*
G01*
X2856356Y-6023356D02*
X2856356Y-5952644D01*
X2785644Y-5952644D01*
X2785644Y-6023356D01*
X2856356Y-6023356D01*
X2796000Y-6028000D02*
X2846000Y-6028000D01*
X2796000Y-5948000D02*
X2846000Y-5948000D01*
X2846000Y-6028000D02*
G75*
G03X2846000Y-5948000I0J40000D01*
G01*
X2796000Y-5948000D02*
G75*
G03X2796000Y-6028000I0J-40000D01*
G01*
X3256356Y-6023356D02*
X3256356Y-5952644D01*
X3185644Y-5952644D01*
X3185644Y-6023356D01*
X3256356Y-6023356D01*
X3196000Y-6028000D02*
X3246000Y-6028000D01*
X3196000Y-5948000D02*
X3246000Y-5948000D01*
X3246000Y-6028000D02*
G75*
G03X3246000Y-5948000I0J40000D01*
G01*
X3196000Y-5948000D02*
G75*
G03X3196000Y-6028000I0J-40000D01*
G01*
X3406356Y-6453356D02*
X3406356Y-6382644D01*
X3335644Y-6382644D01*
X3335644Y-6453356D01*
X3406356Y-6453356D01*
X3346000Y-6458000D02*
X3396000Y-6458000D01*
X3346000Y-6378000D02*
X3396000Y-6378000D01*
X3396000Y-6458000D02*
G75*
G03X3396000Y-6378000I0J40000D01*
G01*
X3346000Y-6378000D02*
G75*
G03X3346000Y-6458000I0J-40000D01*
G01*
D12*
X2269928Y-13057214D02*
X2269928Y-12757214D01*
X2341357Y-12757214D01*
X2384214Y-12771500D01*
X2412786Y-12800071D01*
X2427071Y-12828643D01*
X2441357Y-12885786D01*
X2441357Y-12928643D01*
X2427071Y-12985786D01*
X2412786Y-13014357D01*
X2384214Y-13042929D01*
X2341357Y-13057214D01*
X2269928Y-13057214D01*
X2569928Y-13057214D02*
X2569928Y-12857214D01*
X2569928Y-12914357D02*
X2584214Y-12885786D01*
X2598500Y-12871500D01*
X2627071Y-12857214D01*
X2655643Y-12857214D01*
X2755643Y-13057214D02*
X2755643Y-12857214D01*
X2755643Y-12757214D02*
X2741357Y-12771500D01*
X2755643Y-12785786D01*
X2769928Y-12771500D01*
X2755643Y-12757214D01*
X2755643Y-12785786D01*
X2941357Y-13057214D02*
X2912786Y-13042929D01*
X2898500Y-13014357D01*
X2898500Y-12757214D01*
X3098500Y-13057214D02*
X3069928Y-13042929D01*
X3055643Y-13014357D01*
X3055643Y-12757214D01*
X3441357Y-13057214D02*
X3441357Y-12757214D01*
X3541357Y-12971500D01*
X3641357Y-12757214D01*
X3641357Y-13057214D01*
X3912786Y-13057214D02*
X3912786Y-12900071D01*
X3898500Y-12871500D01*
X3869928Y-12857214D01*
X3812786Y-12857214D01*
X3784214Y-12871500D01*
X3912786Y-13042929D02*
X3884214Y-13057214D01*
X3812786Y-13057214D01*
X3784214Y-13042929D01*
X3769928Y-13014357D01*
X3769928Y-12985786D01*
X3784214Y-12957214D01*
X3812786Y-12942929D01*
X3884214Y-12942929D01*
X3912786Y-12928643D01*
X4055643Y-12857214D02*
X4055643Y-13157214D01*
X4055643Y-12871500D02*
X4084214Y-12857214D01*
X4141357Y-12857214D01*
X4169928Y-12871500D01*
X4184214Y-12885786D01*
X4198500Y-12914357D01*
X4198500Y-13000071D01*
X4184214Y-13028643D01*
X4169928Y-13042929D01*
X4141357Y-13057214D01*
X4084214Y-13057214D01*
X4055643Y-13042929D01*
X4327071Y-13028643D02*
X4341357Y-13042929D01*
X4327071Y-13057214D01*
X4312786Y-13042929D01*
X4327071Y-13028643D01*
X4327071Y-13057214D01*
X4327071Y-12871500D02*
X4341357Y-12885786D01*
X4327071Y-12900071D01*
X4312786Y-12885786D01*
X4327071Y-12871500D01*
X4327071Y-12900071D01*
X1943500Y-13531500D02*
X1983500Y-13571500D01*
X1983500Y-13531500D02*
X1943500Y-13571500D01*
X2327071Y-13387214D02*
X2355643Y-13387214D01*
X2384214Y-13401500D01*
X2398500Y-13415786D01*
X2412786Y-13444357D01*
X2427071Y-13501500D01*
X2427071Y-13572929D01*
X2412786Y-13630071D01*
X2398500Y-13658643D01*
X2384214Y-13672929D01*
X2355643Y-13687214D01*
X2327071Y-13687214D01*
X2298500Y-13672929D01*
X2284214Y-13658643D01*
X2269928Y-13630071D01*
X2255643Y-13572929D01*
X2255643Y-13501500D01*
X2269928Y-13444357D01*
X2284214Y-13415786D01*
X2298500Y-13401500D01*
X2327071Y-13387214D01*
X2555643Y-13658643D02*
X2569928Y-13672929D01*
X2555643Y-13687214D01*
X2541357Y-13672929D01*
X2555643Y-13658643D01*
X2555643Y-13687214D01*
X2827071Y-13487214D02*
X2827071Y-13687214D01*
X2755643Y-13372929D02*
X2684214Y-13587214D01*
X2869928Y-13587214D01*
X3041357Y-13387214D02*
X3069928Y-13387214D01*
X3098500Y-13401500D01*
X3112786Y-13415786D01*
X3127071Y-13444357D01*
X3141357Y-13501500D01*
X3141357Y-13572929D01*
X3127071Y-13630071D01*
X3112786Y-13658643D01*
X3098500Y-13672929D01*
X3069928Y-13687214D01*
X3041357Y-13687214D01*
X3012786Y-13672929D01*
X2998500Y-13658643D01*
X2984214Y-13630071D01*
X2969928Y-13572929D01*
X2969928Y-13501500D01*
X2984214Y-13444357D01*
X2998500Y-13415786D01*
X3012786Y-13401500D01*
X3041357Y-13387214D01*
X3269928Y-13687214D02*
X3269928Y-13487214D01*
X3269928Y-13515786D02*
X3284214Y-13501500D01*
X3312786Y-13487214D01*
X3355643Y-13487214D01*
X3384214Y-13501500D01*
X3398500Y-13530071D01*
X3398500Y-13687214D01*
X3398500Y-13530071D02*
X3412786Y-13501500D01*
X3441357Y-13487214D01*
X3484214Y-13487214D01*
X3512786Y-13501500D01*
X3527071Y-13530071D01*
X3527071Y-13687214D01*
X3669928Y-13687214D02*
X3669928Y-13487214D01*
X3669928Y-13515786D02*
X3684214Y-13501500D01*
X3712786Y-13487214D01*
X3755643Y-13487214D01*
X3784214Y-13501500D01*
X3798500Y-13530071D01*
X3798500Y-13687214D01*
X3798500Y-13530071D02*
X3812786Y-13501500D01*
X3841357Y-13487214D01*
X3884214Y-13487214D01*
X3912786Y-13501500D01*
X3927071Y-13530071D01*
X3927071Y-13687214D01*
X4512786Y-13372929D02*
X4255643Y-13758643D01*
X4898500Y-13387214D02*
X4927071Y-13387214D01*
X4955643Y-13401500D01*
X4969928Y-13415786D01*
X4984214Y-13444357D01*
X4998500Y-13501500D01*
X4998500Y-13572929D01*
X4984214Y-13630071D01*
X4969928Y-13658643D01*
X4955643Y-13672929D01*
X4927071Y-13687214D01*
X4898500Y-13687214D01*
X4869928Y-13672929D01*
X4855643Y-13658643D01*
X4841357Y-13630071D01*
X4827071Y-13572929D01*
X4827071Y-13501500D01*
X4841357Y-13444357D01*
X4855643Y-13415786D01*
X4869928Y-13401500D01*
X4898500Y-13387214D01*
X5127071Y-13658643D02*
X5141357Y-13672929D01*
X5127071Y-13687214D01*
X5112786Y-13672929D01*
X5127071Y-13658643D01*
X5127071Y-13687214D01*
X5327071Y-13387214D02*
X5355643Y-13387214D01*
X5384214Y-13401500D01*
X5398500Y-13415786D01*
X5412786Y-13444357D01*
X5427071Y-13501500D01*
X5427071Y-13572929D01*
X5412786Y-13630071D01*
X5398500Y-13658643D01*
X5384214Y-13672929D01*
X5355643Y-13687214D01*
X5327071Y-13687214D01*
X5298500Y-13672929D01*
X5284214Y-13658643D01*
X5269928Y-13630071D01*
X5255643Y-13572929D01*
X5255643Y-13501500D01*
X5269928Y-13444357D01*
X5284214Y-13415786D01*
X5298500Y-13401500D01*
X5327071Y-13387214D01*
X5712786Y-13687214D02*
X5541357Y-13687214D01*
X5627071Y-13687214D02*
X5627071Y-13387214D01*
X5598500Y-13430071D01*
X5569928Y-13458643D01*
X5541357Y-13472929D01*
X5969928Y-13387214D02*
X5912786Y-13387214D01*
X5884214Y-13401500D01*
X5869928Y-13415786D01*
X5841357Y-13458643D01*
X5827071Y-13515786D01*
X5827071Y-13630071D01*
X5841357Y-13658643D01*
X5855643Y-13672929D01*
X5884214Y-13687214D01*
X5941357Y-13687214D01*
X5969928Y-13672929D01*
X5984214Y-13658643D01*
X5998500Y-13630071D01*
X5998500Y-13558643D01*
X5984214Y-13530071D01*
X5969928Y-13515786D01*
X5941357Y-13501500D01*
X5884214Y-13501500D01*
X5855643Y-13515786D01*
X5841357Y-13530071D01*
X5827071Y-13558643D01*
X6112786Y-13387214D02*
X6112786Y-13444357D01*
X6227071Y-13387214D02*
X6227071Y-13444357D01*
X6669928Y-13801500D02*
X6655643Y-13787214D01*
X6627071Y-13744357D01*
X6612786Y-13715786D01*
X6598500Y-13672929D01*
X6584214Y-13601500D01*
X6584214Y-13544357D01*
X6598500Y-13472929D01*
X6612786Y-13430071D01*
X6627071Y-13401500D01*
X6655643Y-13358643D01*
X6669928Y-13344357D01*
X6827071Y-13515786D02*
X6798500Y-13501500D01*
X6784214Y-13487214D01*
X6769928Y-13458643D01*
X6769928Y-13444357D01*
X6784214Y-13415786D01*
X6798500Y-13401500D01*
X6827071Y-13387214D01*
X6884214Y-13387214D01*
X6912786Y-13401500D01*
X6927071Y-13415786D01*
X6941357Y-13444357D01*
X6941357Y-13458643D01*
X6927071Y-13487214D01*
X6912786Y-13501500D01*
X6884214Y-13515786D01*
X6827071Y-13515786D01*
X6798500Y-13530071D01*
X6784214Y-13544357D01*
X6769928Y-13572929D01*
X6769928Y-13630071D01*
X6784214Y-13658643D01*
X6798500Y-13672929D01*
X6827071Y-13687214D01*
X6884214Y-13687214D01*
X6912786Y-13672929D01*
X6927071Y-13658643D01*
X6941357Y-13630071D01*
X6941357Y-13572929D01*
X6927071Y-13544357D01*
X6912786Y-13530071D01*
X6884214Y-13515786D01*
X7212786Y-13387214D02*
X7069928Y-13387214D01*
X7055643Y-13530071D01*
X7069928Y-13515786D01*
X7098500Y-13501500D01*
X7169928Y-13501500D01*
X7198500Y-13515786D01*
X7212786Y-13530071D01*
X7227071Y-13558643D01*
X7227071Y-13630071D01*
X7212786Y-13658643D01*
X7198500Y-13672929D01*
X7169928Y-13687214D01*
X7098500Y-13687214D01*
X7069928Y-13672929D01*
X7055643Y-13658643D01*
X7584214Y-13687214D02*
X7584214Y-13387214D01*
X7712786Y-13687214D02*
X7712786Y-13530071D01*
X7698500Y-13501500D01*
X7669928Y-13487214D01*
X7627071Y-13487214D01*
X7598500Y-13501500D01*
X7584214Y-13515786D01*
X7898500Y-13687214D02*
X7869928Y-13672929D01*
X7855643Y-13658643D01*
X7841357Y-13630071D01*
X7841357Y-13544357D01*
X7855643Y-13515786D01*
X7869928Y-13501500D01*
X7898500Y-13487214D01*
X7941357Y-13487214D01*
X7969928Y-13501500D01*
X7984214Y-13515786D01*
X7998500Y-13544357D01*
X7998500Y-13630071D01*
X7984214Y-13658643D01*
X7969928Y-13672929D01*
X7941357Y-13687214D01*
X7898500Y-13687214D01*
X8169928Y-13687214D02*
X8141357Y-13672929D01*
X8127071Y-13644357D01*
X8127071Y-13387214D01*
X8398500Y-13672929D02*
X8369928Y-13687214D01*
X8312786Y-13687214D01*
X8284214Y-13672929D01*
X8269928Y-13644357D01*
X8269928Y-13530071D01*
X8284214Y-13501500D01*
X8312786Y-13487214D01*
X8369928Y-13487214D01*
X8398500Y-13501500D01*
X8412786Y-13530071D01*
X8412786Y-13558643D01*
X8269928Y-13587214D01*
X8527071Y-13672929D02*
X8555643Y-13687214D01*
X8612786Y-13687214D01*
X8641357Y-13672929D01*
X8655643Y-13644357D01*
X8655643Y-13630071D01*
X8641357Y-13601500D01*
X8612786Y-13587214D01*
X8569928Y-13587214D01*
X8541357Y-13572929D01*
X8527071Y-13544357D01*
X8527071Y-13530071D01*
X8541357Y-13501500D01*
X8569928Y-13487214D01*
X8612786Y-13487214D01*
X8641357Y-13501500D01*
X8755643Y-13801500D02*
X8769928Y-13787214D01*
X8798500Y-13744357D01*
X8812786Y-13715786D01*
X8827071Y-13672929D01*
X8841357Y-13601500D01*
X8841357Y-13544357D01*
X8827071Y-13472929D01*
X8812786Y-13430071D01*
X8798500Y-13401500D01*
X8769928Y-13358643D01*
X8755643Y-13344357D01*
X1983500Y-13947500D02*
G75*
G03X1983500Y-13947500I-38100J0D01*
G01*
X2327071Y-13783214D02*
X2355643Y-13783214D01*
X2384214Y-13797500D01*
X2398500Y-13811786D01*
X2412786Y-13840357D01*
X2427071Y-13897500D01*
X2427071Y-13968929D01*
X2412786Y-14026071D01*
X2398500Y-14054643D01*
X2384214Y-14068929D01*
X2355643Y-14083214D01*
X2327071Y-14083214D01*
X2298500Y-14068929D01*
X2284214Y-14054643D01*
X2269928Y-14026071D01*
X2255643Y-13968929D01*
X2255643Y-13897500D01*
X2269928Y-13840357D01*
X2284214Y-13811786D01*
X2298500Y-13797500D01*
X2327071Y-13783214D01*
X2555643Y-14054643D02*
X2569928Y-14068929D01*
X2555643Y-14083214D01*
X2541357Y-14068929D01*
X2555643Y-14054643D01*
X2555643Y-14083214D01*
X2669928Y-13783214D02*
X2869928Y-13783214D01*
X2741357Y-14083214D01*
X3112786Y-13783214D02*
X3055643Y-13783214D01*
X3027071Y-13797500D01*
X3012786Y-13811786D01*
X2984214Y-13854643D01*
X2969928Y-13911786D01*
X2969928Y-14026071D01*
X2984214Y-14054643D01*
X2998500Y-14068929D01*
X3027071Y-14083214D01*
X3084214Y-14083214D01*
X3112786Y-14068929D01*
X3127071Y-14054643D01*
X3141357Y-14026071D01*
X3141357Y-13954643D01*
X3127071Y-13926071D01*
X3112786Y-13911786D01*
X3084214Y-13897500D01*
X3027071Y-13897500D01*
X2998500Y-13911786D01*
X2984214Y-13926071D01*
X2969928Y-13954643D01*
X3269928Y-14083214D02*
X3269928Y-13883214D01*
X3269928Y-13911786D02*
X3284214Y-13897500D01*
X3312786Y-13883214D01*
X3355643Y-13883214D01*
X3384214Y-13897500D01*
X3398500Y-13926071D01*
X3398500Y-14083214D01*
X3398500Y-13926071D02*
X3412786Y-13897500D01*
X3441357Y-13883214D01*
X3484214Y-13883214D01*
X3512786Y-13897500D01*
X3527071Y-13926071D01*
X3527071Y-14083214D01*
X3669928Y-14083214D02*
X3669928Y-13883214D01*
X3669928Y-13911786D02*
X3684214Y-13897500D01*
X3712786Y-13883214D01*
X3755643Y-13883214D01*
X3784214Y-13897500D01*
X3798500Y-13926071D01*
X3798500Y-14083214D01*
X3798500Y-13926071D02*
X3812786Y-13897500D01*
X3841357Y-13883214D01*
X3884214Y-13883214D01*
X3912786Y-13897500D01*
X3927071Y-13926071D01*
X3927071Y-14083214D01*
X4512786Y-13768929D02*
X4255643Y-14154643D01*
X4898500Y-13783214D02*
X4927071Y-13783214D01*
X4955643Y-13797500D01*
X4969928Y-13811786D01*
X4984214Y-13840357D01*
X4998500Y-13897500D01*
X4998500Y-13968929D01*
X4984214Y-14026071D01*
X4969928Y-14054643D01*
X4955643Y-14068929D01*
X4927071Y-14083214D01*
X4898500Y-14083214D01*
X4869928Y-14068929D01*
X4855643Y-14054643D01*
X4841357Y-14026071D01*
X4827071Y-13968929D01*
X4827071Y-13897500D01*
X4841357Y-13840357D01*
X4855643Y-13811786D01*
X4869928Y-13797500D01*
X4898500Y-13783214D01*
X5127071Y-14054643D02*
X5141357Y-14068929D01*
X5127071Y-14083214D01*
X5112786Y-14068929D01*
X5127071Y-14054643D01*
X5127071Y-14083214D01*
X5327071Y-13783214D02*
X5355643Y-13783214D01*
X5384214Y-13797500D01*
X5398500Y-13811786D01*
X5412786Y-13840357D01*
X5427071Y-13897500D01*
X5427071Y-13968929D01*
X5412786Y-14026071D01*
X5398500Y-14054643D01*
X5384214Y-14068929D01*
X5355643Y-14083214D01*
X5327071Y-14083214D01*
X5298500Y-14068929D01*
X5284214Y-14054643D01*
X5269928Y-14026071D01*
X5255643Y-13968929D01*
X5255643Y-13897500D01*
X5269928Y-13840357D01*
X5284214Y-13811786D01*
X5298500Y-13797500D01*
X5327071Y-13783214D01*
X5527071Y-13783214D02*
X5712786Y-13783214D01*
X5612786Y-13897500D01*
X5655643Y-13897500D01*
X5684214Y-13911786D01*
X5698500Y-13926071D01*
X5712786Y-13954643D01*
X5712786Y-14026071D01*
X5698500Y-14054643D01*
X5684214Y-14068929D01*
X5655643Y-14083214D01*
X5569928Y-14083214D01*
X5541357Y-14068929D01*
X5527071Y-14054643D01*
X5898500Y-13783214D02*
X5927071Y-13783214D01*
X5955643Y-13797500D01*
X5969928Y-13811786D01*
X5984214Y-13840357D01*
X5998500Y-13897500D01*
X5998500Y-13968929D01*
X5984214Y-14026071D01*
X5969928Y-14054643D01*
X5955643Y-14068929D01*
X5927071Y-14083214D01*
X5898500Y-14083214D01*
X5869928Y-14068929D01*
X5855643Y-14054643D01*
X5841357Y-14026071D01*
X5827071Y-13968929D01*
X5827071Y-13897500D01*
X5841357Y-13840357D01*
X5855643Y-13811786D01*
X5869928Y-13797500D01*
X5898500Y-13783214D01*
X6112786Y-13783214D02*
X6112786Y-13840357D01*
X6227071Y-13783214D02*
X6227071Y-13840357D01*
X6669928Y-14197500D02*
X6655643Y-14183214D01*
X6627071Y-14140357D01*
X6612786Y-14111786D01*
X6598500Y-14068929D01*
X6584214Y-13997500D01*
X6584214Y-13940357D01*
X6598500Y-13868929D01*
X6612786Y-13826071D01*
X6627071Y-13797500D01*
X6655643Y-13754643D01*
X6669928Y-13740357D01*
X6769928Y-13811786D02*
X6784214Y-13797500D01*
X6812786Y-13783214D01*
X6884214Y-13783214D01*
X6912786Y-13797500D01*
X6927071Y-13811786D01*
X6941357Y-13840357D01*
X6941357Y-13868929D01*
X6927071Y-13911786D01*
X6755643Y-14083214D01*
X6941357Y-14083214D01*
X7198500Y-13883214D02*
X7198500Y-14083214D01*
X7127071Y-13768929D02*
X7055643Y-13983214D01*
X7241357Y-13983214D01*
X7584214Y-14083214D02*
X7584214Y-13783214D01*
X7712786Y-14083214D02*
X7712786Y-13926071D01*
X7698500Y-13897500D01*
X7669928Y-13883214D01*
X7627071Y-13883214D01*
X7598500Y-13897500D01*
X7584214Y-13911786D01*
X7898500Y-14083214D02*
X7869928Y-14068929D01*
X7855643Y-14054643D01*
X7841357Y-14026071D01*
X7841357Y-13940357D01*
X7855643Y-13911786D01*
X7869928Y-13897500D01*
X7898500Y-13883214D01*
X7941357Y-13883214D01*
X7969928Y-13897500D01*
X7984214Y-13911786D01*
X7998500Y-13940357D01*
X7998500Y-14026071D01*
X7984214Y-14054643D01*
X7969928Y-14068929D01*
X7941357Y-14083214D01*
X7898500Y-14083214D01*
X8169928Y-14083214D02*
X8141357Y-14068929D01*
X8127071Y-14040357D01*
X8127071Y-13783214D01*
X8398500Y-14068929D02*
X8369928Y-14083214D01*
X8312786Y-14083214D01*
X8284214Y-14068929D01*
X8269928Y-14040357D01*
X8269928Y-13926071D01*
X8284214Y-13897500D01*
X8312786Y-13883214D01*
X8369928Y-13883214D01*
X8398500Y-13897500D01*
X8412786Y-13926071D01*
X8412786Y-13954643D01*
X8269928Y-13983214D01*
X8527071Y-14068929D02*
X8555643Y-14083214D01*
X8612786Y-14083214D01*
X8641357Y-14068929D01*
X8655643Y-14040357D01*
X8655643Y-14026071D01*
X8641357Y-13997500D01*
X8612786Y-13983214D01*
X8569928Y-13983214D01*
X8541357Y-13968929D01*
X8527071Y-13940357D01*
X8527071Y-13926071D01*
X8541357Y-13897500D01*
X8569928Y-13883214D01*
X8612786Y-13883214D01*
X8641357Y-13897500D01*
X8755643Y-14197500D02*
X8769928Y-14183214D01*
X8798500Y-14140357D01*
X8812786Y-14111786D01*
X8827071Y-14068929D01*
X8841357Y-13997500D01*
X8841357Y-13940357D01*
X8827071Y-13868929D01*
X8812786Y-13826071D01*
X8798500Y-13797500D01*
X8769928Y-13754643D01*
X8755643Y-13740357D01*
X1942860Y-14302860D02*
X1942860Y-14384140D01*
X1902220Y-14343500D02*
X1983500Y-14343500D01*
X2327071Y-14179214D02*
X2355643Y-14179214D01*
X2384214Y-14193500D01*
X2398500Y-14207786D01*
X2412786Y-14236357D01*
X2427071Y-14293500D01*
X2427071Y-14364929D01*
X2412786Y-14422071D01*
X2398500Y-14450643D01*
X2384214Y-14464929D01*
X2355643Y-14479214D01*
X2327071Y-14479214D01*
X2298500Y-14464929D01*
X2284214Y-14450643D01*
X2269928Y-14422071D01*
X2255643Y-14364929D01*
X2255643Y-14293500D01*
X2269928Y-14236357D01*
X2284214Y-14207786D01*
X2298500Y-14193500D01*
X2327071Y-14179214D01*
X2555643Y-14450643D02*
X2569928Y-14464929D01*
X2555643Y-14479214D01*
X2541357Y-14464929D01*
X2555643Y-14450643D01*
X2555643Y-14479214D01*
X2741357Y-14307786D02*
X2712786Y-14293500D01*
X2698500Y-14279214D01*
X2684214Y-14250643D01*
X2684214Y-14236357D01*
X2698500Y-14207786D01*
X2712786Y-14193500D01*
X2741357Y-14179214D01*
X2798500Y-14179214D01*
X2827071Y-14193500D01*
X2841357Y-14207786D01*
X2855643Y-14236357D01*
X2855643Y-14250643D01*
X2841357Y-14279214D01*
X2827071Y-14293500D01*
X2798500Y-14307786D01*
X2741357Y-14307786D01*
X2712786Y-14322071D01*
X2698500Y-14336357D01*
X2684214Y-14364929D01*
X2684214Y-14422071D01*
X2698500Y-14450643D01*
X2712786Y-14464929D01*
X2741357Y-14479214D01*
X2798500Y-14479214D01*
X2827071Y-14464929D01*
X2841357Y-14450643D01*
X2855643Y-14422071D01*
X2855643Y-14364929D01*
X2841357Y-14336357D01*
X2827071Y-14322071D01*
X2798500Y-14307786D01*
X3141357Y-14479214D02*
X2969928Y-14479214D01*
X3055643Y-14479214D02*
X3055643Y-14179214D01*
X3027071Y-14222071D01*
X2998500Y-14250643D01*
X2969928Y-14264929D01*
X3269928Y-14479214D02*
X3269928Y-14279214D01*
X3269928Y-14307786D02*
X3284214Y-14293500D01*
X3312786Y-14279214D01*
X3355643Y-14279214D01*
X3384214Y-14293500D01*
X3398500Y-14322071D01*
X3398500Y-14479214D01*
X3398500Y-14322071D02*
X3412786Y-14293500D01*
X3441357Y-14279214D01*
X3484214Y-14279214D01*
X3512786Y-14293500D01*
X3527071Y-14322071D01*
X3527071Y-14479214D01*
X3669928Y-14479214D02*
X3669928Y-14279214D01*
X3669928Y-14307786D02*
X3684214Y-14293500D01*
X3712786Y-14279214D01*
X3755643Y-14279214D01*
X3784214Y-14293500D01*
X3798500Y-14322071D01*
X3798500Y-14479214D01*
X3798500Y-14322071D02*
X3812786Y-14293500D01*
X3841357Y-14279214D01*
X3884214Y-14279214D01*
X3912786Y-14293500D01*
X3927071Y-14322071D01*
X3927071Y-14479214D01*
X4512786Y-14164929D02*
X4255643Y-14550643D01*
X4898500Y-14179214D02*
X4927071Y-14179214D01*
X4955643Y-14193500D01*
X4969928Y-14207786D01*
X4984214Y-14236357D01*
X4998500Y-14293500D01*
X4998500Y-14364929D01*
X4984214Y-14422071D01*
X4969928Y-14450643D01*
X4955643Y-14464929D01*
X4927071Y-14479214D01*
X4898500Y-14479214D01*
X4869928Y-14464929D01*
X4855643Y-14450643D01*
X4841357Y-14422071D01*
X4827071Y-14364929D01*
X4827071Y-14293500D01*
X4841357Y-14236357D01*
X4855643Y-14207786D01*
X4869928Y-14193500D01*
X4898500Y-14179214D01*
X5127071Y-14450643D02*
X5141357Y-14464929D01*
X5127071Y-14479214D01*
X5112786Y-14464929D01*
X5127071Y-14450643D01*
X5127071Y-14479214D01*
X5327071Y-14179214D02*
X5355643Y-14179214D01*
X5384214Y-14193500D01*
X5398500Y-14207786D01*
X5412786Y-14236357D01*
X5427071Y-14293500D01*
X5427071Y-14364929D01*
X5412786Y-14422071D01*
X5398500Y-14450643D01*
X5384214Y-14464929D01*
X5355643Y-14479214D01*
X5327071Y-14479214D01*
X5298500Y-14464929D01*
X5284214Y-14450643D01*
X5269928Y-14422071D01*
X5255643Y-14364929D01*
X5255643Y-14293500D01*
X5269928Y-14236357D01*
X5284214Y-14207786D01*
X5298500Y-14193500D01*
X5327071Y-14179214D01*
X5527071Y-14179214D02*
X5712786Y-14179214D01*
X5612786Y-14293500D01*
X5655643Y-14293500D01*
X5684214Y-14307786D01*
X5698500Y-14322071D01*
X5712786Y-14350643D01*
X5712786Y-14422071D01*
X5698500Y-14450643D01*
X5684214Y-14464929D01*
X5655643Y-14479214D01*
X5569928Y-14479214D01*
X5541357Y-14464929D01*
X5527071Y-14450643D01*
X5827071Y-14207786D02*
X5841357Y-14193500D01*
X5869928Y-14179214D01*
X5941357Y-14179214D01*
X5969928Y-14193500D01*
X5984214Y-14207786D01*
X5998500Y-14236357D01*
X5998500Y-14264929D01*
X5984214Y-14307786D01*
X5812786Y-14479214D01*
X5998500Y-14479214D01*
X6112786Y-14179214D02*
X6112786Y-14236357D01*
X6227071Y-14179214D02*
X6227071Y-14236357D01*
X6669928Y-14593500D02*
X6655643Y-14579214D01*
X6627071Y-14536357D01*
X6612786Y-14507786D01*
X6598500Y-14464929D01*
X6584214Y-14393500D01*
X6584214Y-14336357D01*
X6598500Y-14264929D01*
X6612786Y-14222071D01*
X6627071Y-14193500D01*
X6655643Y-14150643D01*
X6669928Y-14136357D01*
X6912786Y-14279214D02*
X6912786Y-14479214D01*
X6841357Y-14164929D02*
X6769928Y-14379214D01*
X6955643Y-14379214D01*
X7298500Y-14479214D02*
X7298500Y-14179214D01*
X7427071Y-14479214D02*
X7427071Y-14322071D01*
X7412786Y-14293500D01*
X7384214Y-14279214D01*
X7341357Y-14279214D01*
X7312786Y-14293500D01*
X7298500Y-14307786D01*
X7612786Y-14479214D02*
X7584214Y-14464929D01*
X7569928Y-14450643D01*
X7555643Y-14422071D01*
X7555643Y-14336357D01*
X7569928Y-14307786D01*
X7584214Y-14293500D01*
X7612786Y-14279214D01*
X7655643Y-14279214D01*
X7684214Y-14293500D01*
X7698500Y-14307786D01*
X7712786Y-14336357D01*
X7712786Y-14422071D01*
X7698500Y-14450643D01*
X7684214Y-14464929D01*
X7655643Y-14479214D01*
X7612786Y-14479214D01*
X7884214Y-14479214D02*
X7855643Y-14464929D01*
X7841357Y-14436357D01*
X7841357Y-14179214D01*
X8112786Y-14464929D02*
X8084214Y-14479214D01*
X8027071Y-14479214D01*
X7998500Y-14464929D01*
X7984214Y-14436357D01*
X7984214Y-14322071D01*
X7998500Y-14293500D01*
X8027071Y-14279214D01*
X8084214Y-14279214D01*
X8112786Y-14293500D01*
X8127071Y-14322071D01*
X8127071Y-14350643D01*
X7984214Y-14379214D01*
X8241357Y-14464929D02*
X8269928Y-14479214D01*
X8327071Y-14479214D01*
X8355643Y-14464929D01*
X8369928Y-14436357D01*
X8369928Y-14422071D01*
X8355643Y-14393500D01*
X8327071Y-14379214D01*
X8284214Y-14379214D01*
X8255643Y-14364929D01*
X8241357Y-14336357D01*
X8241357Y-14322071D01*
X8255643Y-14293500D01*
X8284214Y-14279214D01*
X8327071Y-14279214D01*
X8355643Y-14293500D01*
X8469928Y-14593500D02*
X8484214Y-14579214D01*
X8512786Y-14536357D01*
X8527071Y-14507786D01*
X8541357Y-14464929D01*
X8555643Y-14393500D01*
X8555643Y-14336357D01*
X8541357Y-14264929D01*
X8527071Y-14222071D01*
X8512786Y-14193500D01*
X8484214Y-14150643D01*
X8469928Y-14136357D01*
X1968856Y-14774856D02*
X1968856Y-14704144D01*
X1898144Y-14704144D01*
X1898144Y-14774856D01*
X1968856Y-14774856D01*
X2427071Y-14875214D02*
X2255643Y-14875214D01*
X2341357Y-14875214D02*
X2341357Y-14575214D01*
X2312786Y-14618071D01*
X2284214Y-14646643D01*
X2255643Y-14660929D01*
X2555643Y-14846643D02*
X2569928Y-14860929D01*
X2555643Y-14875214D01*
X2541357Y-14860929D01*
X2555643Y-14846643D01*
X2555643Y-14875214D01*
X2755643Y-14575214D02*
X2784214Y-14575214D01*
X2812786Y-14589500D01*
X2827071Y-14603786D01*
X2841357Y-14632357D01*
X2855643Y-14689500D01*
X2855643Y-14760929D01*
X2841357Y-14818071D01*
X2827071Y-14846643D01*
X2812786Y-14860929D01*
X2784214Y-14875214D01*
X2755643Y-14875214D01*
X2727071Y-14860929D01*
X2712786Y-14846643D01*
X2698500Y-14818071D01*
X2684214Y-14760929D01*
X2684214Y-14689500D01*
X2698500Y-14632357D01*
X2712786Y-14603786D01*
X2727071Y-14589500D01*
X2755643Y-14575214D01*
X3041357Y-14575214D02*
X3069928Y-14575214D01*
X3098500Y-14589500D01*
X3112786Y-14603786D01*
X3127071Y-14632357D01*
X3141357Y-14689500D01*
X3141357Y-14760929D01*
X3127071Y-14818071D01*
X3112786Y-14846643D01*
X3098500Y-14860929D01*
X3069928Y-14875214D01*
X3041357Y-14875214D01*
X3012786Y-14860929D01*
X2998500Y-14846643D01*
X2984214Y-14818071D01*
X2969928Y-14760929D01*
X2969928Y-14689500D01*
X2984214Y-14632357D01*
X2998500Y-14603786D01*
X3012786Y-14589500D01*
X3041357Y-14575214D01*
X3269928Y-14875214D02*
X3269928Y-14675214D01*
X3269928Y-14703786D02*
X3284214Y-14689500D01*
X3312786Y-14675214D01*
X3355643Y-14675214D01*
X3384214Y-14689500D01*
X3398500Y-14718071D01*
X3398500Y-14875214D01*
X3398500Y-14718071D02*
X3412786Y-14689500D01*
X3441357Y-14675214D01*
X3484214Y-14675214D01*
X3512786Y-14689500D01*
X3527071Y-14718071D01*
X3527071Y-14875214D01*
X3669928Y-14875214D02*
X3669928Y-14675214D01*
X3669928Y-14703786D02*
X3684214Y-14689500D01*
X3712786Y-14675214D01*
X3755643Y-14675214D01*
X3784214Y-14689500D01*
X3798500Y-14718071D01*
X3798500Y-14875214D01*
X3798500Y-14718071D02*
X3812786Y-14689500D01*
X3841357Y-14675214D01*
X3884214Y-14675214D01*
X3912786Y-14689500D01*
X3927071Y-14718071D01*
X3927071Y-14875214D01*
X4512786Y-14560929D02*
X4255643Y-14946643D01*
X4898500Y-14575214D02*
X4927071Y-14575214D01*
X4955643Y-14589500D01*
X4969928Y-14603786D01*
X4984214Y-14632357D01*
X4998500Y-14689500D01*
X4998500Y-14760929D01*
X4984214Y-14818071D01*
X4969928Y-14846643D01*
X4955643Y-14860929D01*
X4927071Y-14875214D01*
X4898500Y-14875214D01*
X4869928Y-14860929D01*
X4855643Y-14846643D01*
X4841357Y-14818071D01*
X4827071Y-14760929D01*
X4827071Y-14689500D01*
X4841357Y-14632357D01*
X4855643Y-14603786D01*
X4869928Y-14589500D01*
X4898500Y-14575214D01*
X5127071Y-14846643D02*
X5141357Y-14860929D01*
X5127071Y-14875214D01*
X5112786Y-14860929D01*
X5127071Y-14846643D01*
X5127071Y-14875214D01*
X5327071Y-14575214D02*
X5355643Y-14575214D01*
X5384214Y-14589500D01*
X5398500Y-14603786D01*
X5412786Y-14632357D01*
X5427071Y-14689500D01*
X5427071Y-14760929D01*
X5412786Y-14818071D01*
X5398500Y-14846643D01*
X5384214Y-14860929D01*
X5355643Y-14875214D01*
X5327071Y-14875214D01*
X5298500Y-14860929D01*
X5284214Y-14846643D01*
X5269928Y-14818071D01*
X5255643Y-14760929D01*
X5255643Y-14689500D01*
X5269928Y-14632357D01*
X5284214Y-14603786D01*
X5298500Y-14589500D01*
X5327071Y-14575214D01*
X5527071Y-14575214D02*
X5712786Y-14575214D01*
X5612786Y-14689500D01*
X5655643Y-14689500D01*
X5684214Y-14703786D01*
X5698500Y-14718071D01*
X5712786Y-14746643D01*
X5712786Y-14818071D01*
X5698500Y-14846643D01*
X5684214Y-14860929D01*
X5655643Y-14875214D01*
X5569928Y-14875214D01*
X5541357Y-14860929D01*
X5527071Y-14846643D01*
X5855643Y-14875214D02*
X5912786Y-14875214D01*
X5941357Y-14860929D01*
X5955643Y-14846643D01*
X5984214Y-14803786D01*
X5998500Y-14746643D01*
X5998500Y-14632357D01*
X5984214Y-14603786D01*
X5969928Y-14589500D01*
X5941357Y-14575214D01*
X5884214Y-14575214D01*
X5855643Y-14589500D01*
X5841357Y-14603786D01*
X5827071Y-14632357D01*
X5827071Y-14703786D01*
X5841357Y-14732357D01*
X5855643Y-14746643D01*
X5884214Y-14760929D01*
X5941357Y-14760929D01*
X5969928Y-14746643D01*
X5984214Y-14732357D01*
X5998500Y-14703786D01*
X6112786Y-14575214D02*
X6112786Y-14632357D01*
X6227071Y-14575214D02*
X6227071Y-14632357D01*
X6669928Y-14989500D02*
X6655643Y-14975214D01*
X6627071Y-14932357D01*
X6612786Y-14903786D01*
X6598500Y-14860929D01*
X6584214Y-14789500D01*
X6584214Y-14732357D01*
X6598500Y-14660929D01*
X6612786Y-14618071D01*
X6627071Y-14589500D01*
X6655643Y-14546643D01*
X6669928Y-14532357D01*
X6841357Y-14575214D02*
X6869928Y-14575214D01*
X6898500Y-14589500D01*
X6912786Y-14603786D01*
X6927071Y-14632357D01*
X6941357Y-14689500D01*
X6941357Y-14760929D01*
X6927071Y-14818071D01*
X6912786Y-14846643D01*
X6898500Y-14860929D01*
X6869928Y-14875214D01*
X6841357Y-14875214D01*
X6812786Y-14860929D01*
X6798500Y-14846643D01*
X6784214Y-14818071D01*
X6769928Y-14760929D01*
X6769928Y-14689500D01*
X6784214Y-14632357D01*
X6798500Y-14603786D01*
X6812786Y-14589500D01*
X6841357Y-14575214D01*
X7298500Y-14875214D02*
X7298500Y-14575214D01*
X7427071Y-14875214D02*
X7427071Y-14718071D01*
X7412786Y-14689500D01*
X7384214Y-14675214D01*
X7341357Y-14675214D01*
X7312786Y-14689500D01*
X7298500Y-14703786D01*
X7612786Y-14875214D02*
X7584214Y-14860929D01*
X7569928Y-14846643D01*
X7555643Y-14818071D01*
X7555643Y-14732357D01*
X7569928Y-14703786D01*
X7584214Y-14689500D01*
X7612786Y-14675214D01*
X7655643Y-14675214D01*
X7684214Y-14689500D01*
X7698500Y-14703786D01*
X7712786Y-14732357D01*
X7712786Y-14818071D01*
X7698500Y-14846643D01*
X7684214Y-14860929D01*
X7655643Y-14875214D01*
X7612786Y-14875214D01*
X7884214Y-14875214D02*
X7855643Y-14860929D01*
X7841357Y-14832357D01*
X7841357Y-14575214D01*
X8112786Y-14860929D02*
X8084214Y-14875214D01*
X8027071Y-14875214D01*
X7998500Y-14860929D01*
X7984214Y-14832357D01*
X7984214Y-14718071D01*
X7998500Y-14689500D01*
X8027071Y-14675214D01*
X8084214Y-14675214D01*
X8112786Y-14689500D01*
X8127071Y-14718071D01*
X8127071Y-14746643D01*
X7984214Y-14775214D01*
X8241357Y-14860929D02*
X8269928Y-14875214D01*
X8327071Y-14875214D01*
X8355643Y-14860929D01*
X8369928Y-14832357D01*
X8369928Y-14818071D01*
X8355643Y-14789500D01*
X8327071Y-14775214D01*
X8284214Y-14775214D01*
X8255643Y-14760929D01*
X8241357Y-14732357D01*
X8241357Y-14718071D01*
X8255643Y-14689500D01*
X8284214Y-14675214D01*
X8327071Y-14675214D01*
X8355643Y-14689500D01*
X8727071Y-14760929D02*
X8955643Y-14760929D01*
X8841357Y-14875214D02*
X8841357Y-14646643D01*
X9455643Y-14675214D02*
X9455643Y-14875214D01*
X9384214Y-14560929D02*
X9312786Y-14775214D01*
X9498500Y-14775214D01*
X9827071Y-14860929D02*
X9855643Y-14875214D01*
X9912786Y-14875214D01*
X9941357Y-14860929D01*
X9955643Y-14832357D01*
X9955643Y-14818071D01*
X9941357Y-14789500D01*
X9912786Y-14775214D01*
X9869928Y-14775214D01*
X9841357Y-14760929D01*
X9827071Y-14732357D01*
X9827071Y-14718071D01*
X9841357Y-14689500D01*
X9869928Y-14675214D01*
X9912786Y-14675214D01*
X9941357Y-14689500D01*
X10127071Y-14875214D02*
X10098500Y-14860929D01*
X10084214Y-14832357D01*
X10084214Y-14575214D01*
X10284214Y-14875214D02*
X10255643Y-14860929D01*
X10241357Y-14846643D01*
X10227071Y-14818071D01*
X10227071Y-14732357D01*
X10241357Y-14703786D01*
X10255643Y-14689500D01*
X10284214Y-14675214D01*
X10327071Y-14675214D01*
X10355643Y-14689500D01*
X10369928Y-14703786D01*
X10384214Y-14732357D01*
X10384214Y-14818071D01*
X10369928Y-14846643D01*
X10355643Y-14860929D01*
X10327071Y-14875214D01*
X10284214Y-14875214D01*
X10469928Y-14675214D02*
X10584214Y-14675214D01*
X10512786Y-14575214D02*
X10512786Y-14832357D01*
X10527071Y-14860929D01*
X10555643Y-14875214D01*
X10584214Y-14875214D01*
X10669928Y-14860929D02*
X10698500Y-14875214D01*
X10755643Y-14875214D01*
X10784214Y-14860929D01*
X10798500Y-14832357D01*
X10798500Y-14818071D01*
X10784214Y-14789500D01*
X10755643Y-14775214D01*
X10712786Y-14775214D01*
X10684214Y-14760929D01*
X10669928Y-14732357D01*
X10669928Y-14718071D01*
X10684214Y-14689500D01*
X10712786Y-14675214D01*
X10755643Y-14675214D01*
X10784214Y-14689500D01*
X10898500Y-14989500D02*
X10912786Y-14975214D01*
X10941357Y-14932357D01*
X10955643Y-14903786D01*
X10969928Y-14860929D01*
X10984214Y-14789500D01*
X10984214Y-14732357D01*
X10969928Y-14660929D01*
X10955643Y-14618071D01*
X10941357Y-14589500D01*
X10912786Y-14546643D01*
X10898500Y-14532357D01*
M02*
