G04 #@! TF.GenerationSoftware,KiCad,Pcbnew,(5.0.2)-1*
G04 #@! TF.CreationDate,2019-03-03T00:14:17+09:00*
G04 #@! TF.ProjectId,pakbd,70616b62-642e-46b6-9963-61645f706362,3*
G04 #@! TF.SameCoordinates,Original*
G04 #@! TF.FileFunction,Legend,Bot*
G04 #@! TF.FilePolarity,Positive*
%FSLAX46Y46*%
G04 Gerber Fmt 4.6, Leading zero omitted, Abs format (unit mm)*
G04 Created by KiCad (PCBNEW (5.0.2)-1) date 2019/03/03 0:14:17*
%MOMM*%
%LPD*%
G01*
G04 APERTURE LIST*
%ADD10C,0.300000*%
%ADD11C,0.120000*%
%ADD12C,0.150000*%
%ADD13C,3.400000*%
%ADD14C,4.400000*%
%ADD15C,2.200000*%
%ADD16R,3.400000X2.900000*%
%ADD17C,2.600000*%
%ADD18C,0.100000*%
%ADD19C,1.825000*%
%ADD20R,1.900000X1.400000*%
%ADD21C,3.450000*%
%ADD22C,1.797000*%
%ADD23C,1.670000*%
%ADD24R,1.670000X1.670000*%
%ADD25O,2.700000X1.900000*%
%ADD26C,1.600000*%
G04 APERTURE END LIST*
D10*
X149108571Y-109403571D02*
X149108571Y-110903571D01*
X149108571Y-109475000D02*
X148965714Y-109403571D01*
X148680000Y-109403571D01*
X148537142Y-109475000D01*
X148465714Y-109546428D01*
X148394285Y-109689285D01*
X148394285Y-110117857D01*
X148465714Y-110260714D01*
X148537142Y-110332142D01*
X148680000Y-110403571D01*
X148965714Y-110403571D01*
X149108571Y-110332142D01*
X147108571Y-110403571D02*
X147108571Y-109617857D01*
X147180000Y-109475000D01*
X147322857Y-109403571D01*
X147608571Y-109403571D01*
X147751428Y-109475000D01*
X147108571Y-110332142D02*
X147251428Y-110403571D01*
X147608571Y-110403571D01*
X147751428Y-110332142D01*
X147822857Y-110189285D01*
X147822857Y-110046428D01*
X147751428Y-109903571D01*
X147608571Y-109832142D01*
X147251428Y-109832142D01*
X147108571Y-109760714D01*
X146394285Y-110403571D02*
X146394285Y-108903571D01*
X146251428Y-109832142D02*
X145822857Y-110403571D01*
X145822857Y-109403571D02*
X146394285Y-109975000D01*
X145180000Y-110403571D02*
X145180000Y-108903571D01*
X145180000Y-109475000D02*
X145037142Y-109403571D01*
X144751428Y-109403571D01*
X144608571Y-109475000D01*
X144537142Y-109546428D01*
X144465714Y-109689285D01*
X144465714Y-110117857D01*
X144537142Y-110260714D01*
X144608571Y-110332142D01*
X144751428Y-110403571D01*
X145037142Y-110403571D01*
X145180000Y-110332142D01*
X143180000Y-110403571D02*
X143180000Y-108903571D01*
X143180000Y-110332142D02*
X143322857Y-110403571D01*
X143608571Y-110403571D01*
X143751428Y-110332142D01*
X143822857Y-110260714D01*
X143894285Y-110117857D01*
X143894285Y-109689285D01*
X143822857Y-109546428D01*
X143751428Y-109475000D01*
X143608571Y-109403571D01*
X143322857Y-109403571D01*
X143180000Y-109475000D01*
X141322857Y-110403571D02*
X141322857Y-109403571D01*
X141322857Y-109689285D02*
X141251428Y-109546428D01*
X141180000Y-109475000D01*
X141037142Y-109403571D01*
X140894285Y-109403571D01*
X139822857Y-110332142D02*
X139965714Y-110403571D01*
X140251428Y-110403571D01*
X140394285Y-110332142D01*
X140465714Y-110189285D01*
X140465714Y-109617857D01*
X140394285Y-109475000D01*
X140251428Y-109403571D01*
X139965714Y-109403571D01*
X139822857Y-109475000D01*
X139751428Y-109617857D01*
X139751428Y-109760714D01*
X140465714Y-109903571D01*
X139251428Y-109403571D02*
X138894285Y-110403571D01*
X138537142Y-109403571D01*
X138108571Y-108903571D02*
X137180000Y-108903571D01*
X137680000Y-109475000D01*
X137465714Y-109475000D01*
X137322857Y-109546428D01*
X137251428Y-109617857D01*
X137180000Y-109760714D01*
X137180000Y-110117857D01*
X137251428Y-110260714D01*
X137322857Y-110332142D01*
X137465714Y-110403571D01*
X137894285Y-110403571D01*
X138037142Y-110332142D01*
X138108571Y-110260714D01*
X147001428Y-112239285D02*
X147072857Y-112167857D01*
X147215714Y-112096428D01*
X147358571Y-112096428D01*
X147501428Y-112167857D01*
X147572857Y-112239285D01*
X147644285Y-112382142D01*
X147644285Y-112525000D01*
X147572857Y-112667857D01*
X147501428Y-112739285D01*
X147358571Y-112810714D01*
X147215714Y-112810714D01*
X147072857Y-112739285D01*
X147001428Y-112667857D01*
X147001428Y-112096428D02*
X147001428Y-112667857D01*
X146930000Y-112739285D01*
X146858571Y-112739285D01*
X146715714Y-112667857D01*
X146644285Y-112525000D01*
X146644285Y-112167857D01*
X146787142Y-111953571D01*
X147001428Y-111810714D01*
X147287142Y-111739285D01*
X147572857Y-111810714D01*
X147787142Y-111953571D01*
X147930000Y-112167857D01*
X148001428Y-112453571D01*
X147930000Y-112739285D01*
X147787142Y-112953571D01*
X147572857Y-113096428D01*
X147287142Y-113167857D01*
X147001428Y-113096428D01*
X146787142Y-112953571D01*
X146358571Y-113096428D02*
X145215714Y-113096428D01*
X145001428Y-111953571D02*
X144644285Y-112953571D01*
X144287142Y-111953571D02*
X144644285Y-112953571D01*
X144787142Y-113310714D01*
X144858571Y-113382142D01*
X145001428Y-113453571D01*
X143787142Y-112882142D02*
X143644285Y-112953571D01*
X143358571Y-112953571D01*
X143215714Y-112882142D01*
X143144285Y-112739285D01*
X143144285Y-112667857D01*
X143215714Y-112525000D01*
X143358571Y-112453571D01*
X143572857Y-112453571D01*
X143715714Y-112382142D01*
X143787142Y-112239285D01*
X143787142Y-112167857D01*
X143715714Y-112025000D01*
X143572857Y-111953571D01*
X143358571Y-111953571D01*
X143215714Y-112025000D01*
X142501428Y-112953571D02*
X142501428Y-111453571D01*
X142358571Y-112382142D02*
X141930000Y-112953571D01*
X141930000Y-111953571D02*
X142501428Y-112525000D01*
X141072857Y-112953571D02*
X141215714Y-112882142D01*
X141287142Y-112810714D01*
X141358571Y-112667857D01*
X141358571Y-112239285D01*
X141287142Y-112096428D01*
X141215714Y-112025000D01*
X141072857Y-111953571D01*
X140858571Y-111953571D01*
X140715714Y-112025000D01*
X140644285Y-112096428D01*
X140572857Y-112239285D01*
X140572857Y-112667857D01*
X140644285Y-112810714D01*
X140715714Y-112882142D01*
X140858571Y-112953571D01*
X141072857Y-112953571D01*
X139930000Y-112953571D02*
X139930000Y-111453571D01*
X139287142Y-112953571D02*
X139287142Y-112167857D01*
X139358571Y-112025000D01*
X139501428Y-111953571D01*
X139715714Y-111953571D01*
X139858571Y-112025000D01*
X139930000Y-112096428D01*
X138787142Y-111953571D02*
X138215714Y-111953571D01*
X138572857Y-111453571D02*
X138572857Y-112739285D01*
X138501428Y-112882142D01*
X138358571Y-112953571D01*
X138215714Y-112953571D01*
D11*
G04 #@! TO.C,D1*
X41627500Y-37485000D02*
X45687500Y-37485000D01*
X41627500Y-39755000D02*
X41627500Y-37485000D01*
X45687500Y-39755000D02*
X41627500Y-39755000D01*
G04 #@! TO.C,D2*
X64737500Y-39755000D02*
X60677500Y-39755000D01*
X60677500Y-39755000D02*
X60677500Y-37485000D01*
X60677500Y-37485000D02*
X64737500Y-37485000D01*
G04 #@! TO.C,D3*
X79727500Y-37485000D02*
X83787500Y-37485000D01*
X79727500Y-39755000D02*
X79727500Y-37485000D01*
X83787500Y-39755000D02*
X79727500Y-39755000D01*
G04 #@! TO.C,D4*
X102837500Y-39755000D02*
X98777500Y-39755000D01*
X98777500Y-39755000D02*
X98777500Y-37485000D01*
X98777500Y-37485000D02*
X102837500Y-37485000D01*
G04 #@! TO.C,D5*
X117827500Y-37485000D02*
X121887500Y-37485000D01*
X117827500Y-39755000D02*
X117827500Y-37485000D01*
X121887500Y-39755000D02*
X117827500Y-39755000D01*
G04 #@! TO.C,D6*
X140937500Y-39755000D02*
X136877500Y-39755000D01*
X136877500Y-39755000D02*
X136877500Y-37485000D01*
X136877500Y-37485000D02*
X140937500Y-37485000D01*
G04 #@! TO.C,D7*
X46390000Y-56535000D02*
X50450000Y-56535000D01*
X46390000Y-58805000D02*
X46390000Y-56535000D01*
X50450000Y-58805000D02*
X46390000Y-58805000D01*
G04 #@! TO.C,D8*
X70202500Y-56535000D02*
X74262500Y-56535000D01*
X70202500Y-58805000D02*
X70202500Y-56535000D01*
X74262500Y-58805000D02*
X70202500Y-58805000D01*
G04 #@! TO.C,D9*
X93312500Y-58805000D02*
X89252500Y-58805000D01*
X89252500Y-58805000D02*
X89252500Y-56535000D01*
X89252500Y-56535000D02*
X93312500Y-56535000D01*
G04 #@! TO.C,D10*
X112362500Y-58805000D02*
X108302500Y-58805000D01*
X108302500Y-58805000D02*
X108302500Y-56535000D01*
X108302500Y-56535000D02*
X112362500Y-56535000D01*
G04 #@! TO.C,D11*
X127352500Y-56535000D02*
X131412500Y-56535000D01*
X127352500Y-58805000D02*
X127352500Y-56535000D01*
X131412500Y-58805000D02*
X127352500Y-58805000D01*
G04 #@! TO.C,D12*
X150462500Y-58805000D02*
X146402500Y-58805000D01*
X146402500Y-58805000D02*
X146402500Y-56535000D01*
X146402500Y-56535000D02*
X150462500Y-56535000D01*
G04 #@! TO.C,D13*
X48770900Y-75585000D02*
X52830900Y-75585000D01*
X48770900Y-77855000D02*
X48770900Y-75585000D01*
X52830900Y-77855000D02*
X48770900Y-77855000D01*
G04 #@! TO.C,D14*
X74964500Y-75585000D02*
X79024500Y-75585000D01*
X74964500Y-77855000D02*
X74964500Y-75585000D01*
X79024500Y-77855000D02*
X74964500Y-77855000D01*
G04 #@! TO.C,D15*
X98074500Y-77855000D02*
X94014500Y-77855000D01*
X94014500Y-77855000D02*
X94014500Y-75585000D01*
X94014500Y-75585000D02*
X98074500Y-75585000D01*
G04 #@! TO.C,D16*
X117124500Y-77855000D02*
X113064500Y-77855000D01*
X113064500Y-77855000D02*
X113064500Y-75585000D01*
X113064500Y-75585000D02*
X117124500Y-75585000D01*
G04 #@! TO.C,D17*
X132114500Y-75585000D02*
X136174500Y-75585000D01*
X132114500Y-77855000D02*
X132114500Y-75585000D01*
X136174500Y-77855000D02*
X132114500Y-77855000D01*
G04 #@! TO.C,D18*
X155224500Y-77855000D02*
X151164500Y-77855000D01*
X151164500Y-77855000D02*
X151164500Y-75585000D01*
X151164500Y-75585000D02*
X155224500Y-75585000D01*
G04 #@! TO.C,D19*
X53533100Y-94635000D02*
X57593100Y-94635000D01*
X53533100Y-96905000D02*
X53533100Y-94635000D01*
X57593100Y-96905000D02*
X53533100Y-96905000D01*
G04 #@! TO.C,D20*
X84489500Y-94635000D02*
X88549500Y-94635000D01*
X84489500Y-96905000D02*
X84489500Y-94635000D01*
X88549500Y-96905000D02*
X84489500Y-96905000D01*
G04 #@! TO.C,D21*
X107599500Y-96905000D02*
X103539500Y-96905000D01*
X103539500Y-96905000D02*
X103539500Y-94635000D01*
X103539500Y-94635000D02*
X107599500Y-94635000D01*
G04 #@! TO.C,D22*
X126649500Y-96905000D02*
X122589500Y-96905000D01*
X122589500Y-96905000D02*
X122589500Y-94635000D01*
X122589500Y-94635000D02*
X126649500Y-94635000D01*
G04 #@! TO.C,D23*
X145699500Y-96905000D02*
X141639500Y-96905000D01*
X141639500Y-96905000D02*
X141639500Y-94635000D01*
X141639500Y-94635000D02*
X145699500Y-94635000D01*
G04 #@! TO.C,D24*
X160689500Y-94635000D02*
X164749500Y-94635000D01*
X160689500Y-96905000D02*
X160689500Y-94635000D01*
X164749500Y-96905000D02*
X160689500Y-96905000D01*
G04 #@! TO.C,D25*
X95687500Y-115955000D02*
X91627500Y-115955000D01*
X91627500Y-115955000D02*
X91627500Y-113685000D01*
X91627500Y-113685000D02*
X95687500Y-113685000D01*
G04 #@! TO.C,D26*
X119499500Y-115955000D02*
X115439500Y-115955000D01*
X115439500Y-115955000D02*
X115439500Y-113685000D01*
X115439500Y-113685000D02*
X119499500Y-113685000D01*
G04 #@! TO.C,D27*
X155927000Y-113685000D02*
X159987000Y-113685000D01*
X155927000Y-115955000D02*
X155927000Y-113685000D01*
X159987000Y-115955000D02*
X155927000Y-115955000D01*
G04 #@! TO.C,D28*
X155927500Y-37485000D02*
X159987500Y-37485000D01*
X155927500Y-39755000D02*
X155927500Y-37485000D01*
X159987500Y-39755000D02*
X155927500Y-39755000D01*
G04 #@! TO.C,JP_da1*
X24910000Y-90700000D02*
X24910000Y-93500000D01*
X24910000Y-93500000D02*
X26910000Y-93500000D01*
X26910000Y-93500000D02*
X26910000Y-90700000D01*
X26910000Y-90700000D02*
X24910000Y-90700000D01*
G04 #@! TO.C,JP_db1*
X32910000Y-90700000D02*
X30910000Y-90700000D01*
X32910000Y-93500000D02*
X32910000Y-90700000D01*
X30910000Y-93500000D02*
X32910000Y-93500000D01*
X30910000Y-90700000D02*
X30910000Y-93500000D01*
G04 #@! TO.C,JP_xa1*
X24910000Y-98700000D02*
X24910000Y-101500000D01*
X24910000Y-101500000D02*
X26910000Y-101500000D01*
X26910000Y-101500000D02*
X26910000Y-98700000D01*
X26910000Y-98700000D02*
X24910000Y-98700000D01*
G04 #@! TO.C,JP_xb1*
X32910000Y-98700000D02*
X30910000Y-98700000D01*
X32910000Y-101500000D02*
X32910000Y-98700000D01*
X30910000Y-101500000D02*
X32910000Y-101500000D01*
X30910000Y-98700000D02*
X30910000Y-101500000D01*
G04 #@! TO.C,R_data1*
X38820000Y-90660436D02*
X38820000Y-91864564D01*
X37000000Y-90660436D02*
X37000000Y-91864564D01*
G04 #@! TO.C,R_xdata1*
X37000000Y-98660436D02*
X37000000Y-99864564D01*
X38820000Y-98660436D02*
X38820000Y-99864564D01*
D12*
G04 #@! TO.C,U1*
X21910000Y-56600000D02*
X39690000Y-56600000D01*
X21910000Y-23300000D02*
X39690000Y-23300000D01*
X21910000Y-56600000D02*
X21910000Y-23300000D01*
X39690000Y-56600000D02*
X39690000Y-23300000D01*
X27050000Y-22590000D02*
X34550000Y-22590000D01*
X27050000Y-22590000D02*
X27050000Y-23300000D01*
X34550000Y-22590000D02*
X34550000Y-23300000D01*
G04 #@! TO.C,D1*
X44825595Y-40892380D02*
X44825595Y-39892380D01*
X44587500Y-39892380D01*
X44444642Y-39940000D01*
X44349404Y-40035238D01*
X44301785Y-40130476D01*
X44254166Y-40320952D01*
X44254166Y-40463809D01*
X44301785Y-40654285D01*
X44349404Y-40749523D01*
X44444642Y-40844761D01*
X44587500Y-40892380D01*
X44825595Y-40892380D01*
X43301785Y-40892380D02*
X43873214Y-40892380D01*
X43587500Y-40892380D02*
X43587500Y-39892380D01*
X43682738Y-40035238D01*
X43777976Y-40130476D01*
X43873214Y-40178095D01*
G04 #@! TO.C,D2*
X63875595Y-40892380D02*
X63875595Y-39892380D01*
X63637500Y-39892380D01*
X63494642Y-39940000D01*
X63399404Y-40035238D01*
X63351785Y-40130476D01*
X63304166Y-40320952D01*
X63304166Y-40463809D01*
X63351785Y-40654285D01*
X63399404Y-40749523D01*
X63494642Y-40844761D01*
X63637500Y-40892380D01*
X63875595Y-40892380D01*
X62923214Y-39987619D02*
X62875595Y-39940000D01*
X62780357Y-39892380D01*
X62542261Y-39892380D01*
X62447023Y-39940000D01*
X62399404Y-39987619D01*
X62351785Y-40082857D01*
X62351785Y-40178095D01*
X62399404Y-40320952D01*
X62970833Y-40892380D01*
X62351785Y-40892380D01*
G04 #@! TO.C,D3*
X82925595Y-40892380D02*
X82925595Y-39892380D01*
X82687500Y-39892380D01*
X82544642Y-39940000D01*
X82449404Y-40035238D01*
X82401785Y-40130476D01*
X82354166Y-40320952D01*
X82354166Y-40463809D01*
X82401785Y-40654285D01*
X82449404Y-40749523D01*
X82544642Y-40844761D01*
X82687500Y-40892380D01*
X82925595Y-40892380D01*
X82020833Y-39892380D02*
X81401785Y-39892380D01*
X81735119Y-40273333D01*
X81592261Y-40273333D01*
X81497023Y-40320952D01*
X81449404Y-40368571D01*
X81401785Y-40463809D01*
X81401785Y-40701904D01*
X81449404Y-40797142D01*
X81497023Y-40844761D01*
X81592261Y-40892380D01*
X81877976Y-40892380D01*
X81973214Y-40844761D01*
X82020833Y-40797142D01*
G04 #@! TO.C,D4*
X101975595Y-40892380D02*
X101975595Y-39892380D01*
X101737500Y-39892380D01*
X101594642Y-39940000D01*
X101499404Y-40035238D01*
X101451785Y-40130476D01*
X101404166Y-40320952D01*
X101404166Y-40463809D01*
X101451785Y-40654285D01*
X101499404Y-40749523D01*
X101594642Y-40844761D01*
X101737500Y-40892380D01*
X101975595Y-40892380D01*
X100547023Y-40225714D02*
X100547023Y-40892380D01*
X100785119Y-39844761D02*
X101023214Y-40559047D01*
X100404166Y-40559047D01*
G04 #@! TO.C,D5*
X121025595Y-40892380D02*
X121025595Y-39892380D01*
X120787500Y-39892380D01*
X120644642Y-39940000D01*
X120549404Y-40035238D01*
X120501785Y-40130476D01*
X120454166Y-40320952D01*
X120454166Y-40463809D01*
X120501785Y-40654285D01*
X120549404Y-40749523D01*
X120644642Y-40844761D01*
X120787500Y-40892380D01*
X121025595Y-40892380D01*
X119549404Y-39892380D02*
X120025595Y-39892380D01*
X120073214Y-40368571D01*
X120025595Y-40320952D01*
X119930357Y-40273333D01*
X119692261Y-40273333D01*
X119597023Y-40320952D01*
X119549404Y-40368571D01*
X119501785Y-40463809D01*
X119501785Y-40701904D01*
X119549404Y-40797142D01*
X119597023Y-40844761D01*
X119692261Y-40892380D01*
X119930357Y-40892380D01*
X120025595Y-40844761D01*
X120073214Y-40797142D01*
G04 #@! TO.C,D6*
X140075595Y-40892380D02*
X140075595Y-39892380D01*
X139837500Y-39892380D01*
X139694642Y-39940000D01*
X139599404Y-40035238D01*
X139551785Y-40130476D01*
X139504166Y-40320952D01*
X139504166Y-40463809D01*
X139551785Y-40654285D01*
X139599404Y-40749523D01*
X139694642Y-40844761D01*
X139837500Y-40892380D01*
X140075595Y-40892380D01*
X138647023Y-39892380D02*
X138837500Y-39892380D01*
X138932738Y-39940000D01*
X138980357Y-39987619D01*
X139075595Y-40130476D01*
X139123214Y-40320952D01*
X139123214Y-40701904D01*
X139075595Y-40797142D01*
X139027976Y-40844761D01*
X138932738Y-40892380D01*
X138742261Y-40892380D01*
X138647023Y-40844761D01*
X138599404Y-40797142D01*
X138551785Y-40701904D01*
X138551785Y-40463809D01*
X138599404Y-40368571D01*
X138647023Y-40320952D01*
X138742261Y-40273333D01*
X138932738Y-40273333D01*
X139027976Y-40320952D01*
X139075595Y-40368571D01*
X139123214Y-40463809D01*
G04 #@! TO.C,D7*
X49588095Y-59942380D02*
X49588095Y-58942380D01*
X49350000Y-58942380D01*
X49207142Y-58990000D01*
X49111904Y-59085238D01*
X49064285Y-59180476D01*
X49016666Y-59370952D01*
X49016666Y-59513809D01*
X49064285Y-59704285D01*
X49111904Y-59799523D01*
X49207142Y-59894761D01*
X49350000Y-59942380D01*
X49588095Y-59942380D01*
X48683333Y-58942380D02*
X48016666Y-58942380D01*
X48445238Y-59942380D01*
G04 #@! TO.C,D8*
X73400595Y-59942380D02*
X73400595Y-58942380D01*
X73162500Y-58942380D01*
X73019642Y-58990000D01*
X72924404Y-59085238D01*
X72876785Y-59180476D01*
X72829166Y-59370952D01*
X72829166Y-59513809D01*
X72876785Y-59704285D01*
X72924404Y-59799523D01*
X73019642Y-59894761D01*
X73162500Y-59942380D01*
X73400595Y-59942380D01*
X72257738Y-59370952D02*
X72352976Y-59323333D01*
X72400595Y-59275714D01*
X72448214Y-59180476D01*
X72448214Y-59132857D01*
X72400595Y-59037619D01*
X72352976Y-58990000D01*
X72257738Y-58942380D01*
X72067261Y-58942380D01*
X71972023Y-58990000D01*
X71924404Y-59037619D01*
X71876785Y-59132857D01*
X71876785Y-59180476D01*
X71924404Y-59275714D01*
X71972023Y-59323333D01*
X72067261Y-59370952D01*
X72257738Y-59370952D01*
X72352976Y-59418571D01*
X72400595Y-59466190D01*
X72448214Y-59561428D01*
X72448214Y-59751904D01*
X72400595Y-59847142D01*
X72352976Y-59894761D01*
X72257738Y-59942380D01*
X72067261Y-59942380D01*
X71972023Y-59894761D01*
X71924404Y-59847142D01*
X71876785Y-59751904D01*
X71876785Y-59561428D01*
X71924404Y-59466190D01*
X71972023Y-59418571D01*
X72067261Y-59370952D01*
G04 #@! TO.C,D9*
X92450595Y-59942380D02*
X92450595Y-58942380D01*
X92212500Y-58942380D01*
X92069642Y-58990000D01*
X91974404Y-59085238D01*
X91926785Y-59180476D01*
X91879166Y-59370952D01*
X91879166Y-59513809D01*
X91926785Y-59704285D01*
X91974404Y-59799523D01*
X92069642Y-59894761D01*
X92212500Y-59942380D01*
X92450595Y-59942380D01*
X91402976Y-59942380D02*
X91212500Y-59942380D01*
X91117261Y-59894761D01*
X91069642Y-59847142D01*
X90974404Y-59704285D01*
X90926785Y-59513809D01*
X90926785Y-59132857D01*
X90974404Y-59037619D01*
X91022023Y-58990000D01*
X91117261Y-58942380D01*
X91307738Y-58942380D01*
X91402976Y-58990000D01*
X91450595Y-59037619D01*
X91498214Y-59132857D01*
X91498214Y-59370952D01*
X91450595Y-59466190D01*
X91402976Y-59513809D01*
X91307738Y-59561428D01*
X91117261Y-59561428D01*
X91022023Y-59513809D01*
X90974404Y-59466190D01*
X90926785Y-59370952D01*
G04 #@! TO.C,D10*
X111976785Y-59942380D02*
X111976785Y-58942380D01*
X111738690Y-58942380D01*
X111595833Y-58990000D01*
X111500595Y-59085238D01*
X111452976Y-59180476D01*
X111405357Y-59370952D01*
X111405357Y-59513809D01*
X111452976Y-59704285D01*
X111500595Y-59799523D01*
X111595833Y-59894761D01*
X111738690Y-59942380D01*
X111976785Y-59942380D01*
X110452976Y-59942380D02*
X111024404Y-59942380D01*
X110738690Y-59942380D02*
X110738690Y-58942380D01*
X110833928Y-59085238D01*
X110929166Y-59180476D01*
X111024404Y-59228095D01*
X109833928Y-58942380D02*
X109738690Y-58942380D01*
X109643452Y-58990000D01*
X109595833Y-59037619D01*
X109548214Y-59132857D01*
X109500595Y-59323333D01*
X109500595Y-59561428D01*
X109548214Y-59751904D01*
X109595833Y-59847142D01*
X109643452Y-59894761D01*
X109738690Y-59942380D01*
X109833928Y-59942380D01*
X109929166Y-59894761D01*
X109976785Y-59847142D01*
X110024404Y-59751904D01*
X110072023Y-59561428D01*
X110072023Y-59323333D01*
X110024404Y-59132857D01*
X109976785Y-59037619D01*
X109929166Y-58990000D01*
X109833928Y-58942380D01*
G04 #@! TO.C,D11*
X131026785Y-59942380D02*
X131026785Y-58942380D01*
X130788690Y-58942380D01*
X130645833Y-58990000D01*
X130550595Y-59085238D01*
X130502976Y-59180476D01*
X130455357Y-59370952D01*
X130455357Y-59513809D01*
X130502976Y-59704285D01*
X130550595Y-59799523D01*
X130645833Y-59894761D01*
X130788690Y-59942380D01*
X131026785Y-59942380D01*
X129502976Y-59942380D02*
X130074404Y-59942380D01*
X129788690Y-59942380D02*
X129788690Y-58942380D01*
X129883928Y-59085238D01*
X129979166Y-59180476D01*
X130074404Y-59228095D01*
X128550595Y-59942380D02*
X129122023Y-59942380D01*
X128836309Y-59942380D02*
X128836309Y-58942380D01*
X128931547Y-59085238D01*
X129026785Y-59180476D01*
X129122023Y-59228095D01*
G04 #@! TO.C,D12*
X150076785Y-59942380D02*
X150076785Y-58942380D01*
X149838690Y-58942380D01*
X149695833Y-58990000D01*
X149600595Y-59085238D01*
X149552976Y-59180476D01*
X149505357Y-59370952D01*
X149505357Y-59513809D01*
X149552976Y-59704285D01*
X149600595Y-59799523D01*
X149695833Y-59894761D01*
X149838690Y-59942380D01*
X150076785Y-59942380D01*
X148552976Y-59942380D02*
X149124404Y-59942380D01*
X148838690Y-59942380D02*
X148838690Y-58942380D01*
X148933928Y-59085238D01*
X149029166Y-59180476D01*
X149124404Y-59228095D01*
X148172023Y-59037619D02*
X148124404Y-58990000D01*
X148029166Y-58942380D01*
X147791071Y-58942380D01*
X147695833Y-58990000D01*
X147648214Y-59037619D01*
X147600595Y-59132857D01*
X147600595Y-59228095D01*
X147648214Y-59370952D01*
X148219642Y-59942380D01*
X147600595Y-59942380D01*
G04 #@! TO.C,D13*
X52445185Y-78992380D02*
X52445185Y-77992380D01*
X52207090Y-77992380D01*
X52064233Y-78040000D01*
X51968995Y-78135238D01*
X51921376Y-78230476D01*
X51873757Y-78420952D01*
X51873757Y-78563809D01*
X51921376Y-78754285D01*
X51968995Y-78849523D01*
X52064233Y-78944761D01*
X52207090Y-78992380D01*
X52445185Y-78992380D01*
X50921376Y-78992380D02*
X51492804Y-78992380D01*
X51207090Y-78992380D02*
X51207090Y-77992380D01*
X51302328Y-78135238D01*
X51397566Y-78230476D01*
X51492804Y-78278095D01*
X50588042Y-77992380D02*
X49968995Y-77992380D01*
X50302328Y-78373333D01*
X50159471Y-78373333D01*
X50064233Y-78420952D01*
X50016614Y-78468571D01*
X49968995Y-78563809D01*
X49968995Y-78801904D01*
X50016614Y-78897142D01*
X50064233Y-78944761D01*
X50159471Y-78992380D01*
X50445185Y-78992380D01*
X50540423Y-78944761D01*
X50588042Y-78897142D01*
G04 #@! TO.C,D14*
X78638785Y-78992380D02*
X78638785Y-77992380D01*
X78400690Y-77992380D01*
X78257833Y-78040000D01*
X78162595Y-78135238D01*
X78114976Y-78230476D01*
X78067357Y-78420952D01*
X78067357Y-78563809D01*
X78114976Y-78754285D01*
X78162595Y-78849523D01*
X78257833Y-78944761D01*
X78400690Y-78992380D01*
X78638785Y-78992380D01*
X77114976Y-78992380D02*
X77686404Y-78992380D01*
X77400690Y-78992380D02*
X77400690Y-77992380D01*
X77495928Y-78135238D01*
X77591166Y-78230476D01*
X77686404Y-78278095D01*
X76257833Y-78325714D02*
X76257833Y-78992380D01*
X76495928Y-77944761D02*
X76734023Y-78659047D01*
X76114976Y-78659047D01*
G04 #@! TO.C,D15*
X97688785Y-78992380D02*
X97688785Y-77992380D01*
X97450690Y-77992380D01*
X97307833Y-78040000D01*
X97212595Y-78135238D01*
X97164976Y-78230476D01*
X97117357Y-78420952D01*
X97117357Y-78563809D01*
X97164976Y-78754285D01*
X97212595Y-78849523D01*
X97307833Y-78944761D01*
X97450690Y-78992380D01*
X97688785Y-78992380D01*
X96164976Y-78992380D02*
X96736404Y-78992380D01*
X96450690Y-78992380D02*
X96450690Y-77992380D01*
X96545928Y-78135238D01*
X96641166Y-78230476D01*
X96736404Y-78278095D01*
X95260214Y-77992380D02*
X95736404Y-77992380D01*
X95784023Y-78468571D01*
X95736404Y-78420952D01*
X95641166Y-78373333D01*
X95403071Y-78373333D01*
X95307833Y-78420952D01*
X95260214Y-78468571D01*
X95212595Y-78563809D01*
X95212595Y-78801904D01*
X95260214Y-78897142D01*
X95307833Y-78944761D01*
X95403071Y-78992380D01*
X95641166Y-78992380D01*
X95736404Y-78944761D01*
X95784023Y-78897142D01*
G04 #@! TO.C,D16*
X116738785Y-78992380D02*
X116738785Y-77992380D01*
X116500690Y-77992380D01*
X116357833Y-78040000D01*
X116262595Y-78135238D01*
X116214976Y-78230476D01*
X116167357Y-78420952D01*
X116167357Y-78563809D01*
X116214976Y-78754285D01*
X116262595Y-78849523D01*
X116357833Y-78944761D01*
X116500690Y-78992380D01*
X116738785Y-78992380D01*
X115214976Y-78992380D02*
X115786404Y-78992380D01*
X115500690Y-78992380D02*
X115500690Y-77992380D01*
X115595928Y-78135238D01*
X115691166Y-78230476D01*
X115786404Y-78278095D01*
X114357833Y-77992380D02*
X114548309Y-77992380D01*
X114643547Y-78040000D01*
X114691166Y-78087619D01*
X114786404Y-78230476D01*
X114834023Y-78420952D01*
X114834023Y-78801904D01*
X114786404Y-78897142D01*
X114738785Y-78944761D01*
X114643547Y-78992380D01*
X114453071Y-78992380D01*
X114357833Y-78944761D01*
X114310214Y-78897142D01*
X114262595Y-78801904D01*
X114262595Y-78563809D01*
X114310214Y-78468571D01*
X114357833Y-78420952D01*
X114453071Y-78373333D01*
X114643547Y-78373333D01*
X114738785Y-78420952D01*
X114786404Y-78468571D01*
X114834023Y-78563809D01*
G04 #@! TO.C,D17*
X135788785Y-78992380D02*
X135788785Y-77992380D01*
X135550690Y-77992380D01*
X135407833Y-78040000D01*
X135312595Y-78135238D01*
X135264976Y-78230476D01*
X135217357Y-78420952D01*
X135217357Y-78563809D01*
X135264976Y-78754285D01*
X135312595Y-78849523D01*
X135407833Y-78944761D01*
X135550690Y-78992380D01*
X135788785Y-78992380D01*
X134264976Y-78992380D02*
X134836404Y-78992380D01*
X134550690Y-78992380D02*
X134550690Y-77992380D01*
X134645928Y-78135238D01*
X134741166Y-78230476D01*
X134836404Y-78278095D01*
X133931642Y-77992380D02*
X133264976Y-77992380D01*
X133693547Y-78992380D01*
G04 #@! TO.C,D18*
X154838785Y-78992380D02*
X154838785Y-77992380D01*
X154600690Y-77992380D01*
X154457833Y-78040000D01*
X154362595Y-78135238D01*
X154314976Y-78230476D01*
X154267357Y-78420952D01*
X154267357Y-78563809D01*
X154314976Y-78754285D01*
X154362595Y-78849523D01*
X154457833Y-78944761D01*
X154600690Y-78992380D01*
X154838785Y-78992380D01*
X153314976Y-78992380D02*
X153886404Y-78992380D01*
X153600690Y-78992380D02*
X153600690Y-77992380D01*
X153695928Y-78135238D01*
X153791166Y-78230476D01*
X153886404Y-78278095D01*
X152743547Y-78420952D02*
X152838785Y-78373333D01*
X152886404Y-78325714D01*
X152934023Y-78230476D01*
X152934023Y-78182857D01*
X152886404Y-78087619D01*
X152838785Y-78040000D01*
X152743547Y-77992380D01*
X152553071Y-77992380D01*
X152457833Y-78040000D01*
X152410214Y-78087619D01*
X152362595Y-78182857D01*
X152362595Y-78230476D01*
X152410214Y-78325714D01*
X152457833Y-78373333D01*
X152553071Y-78420952D01*
X152743547Y-78420952D01*
X152838785Y-78468571D01*
X152886404Y-78516190D01*
X152934023Y-78611428D01*
X152934023Y-78801904D01*
X152886404Y-78897142D01*
X152838785Y-78944761D01*
X152743547Y-78992380D01*
X152553071Y-78992380D01*
X152457833Y-78944761D01*
X152410214Y-78897142D01*
X152362595Y-78801904D01*
X152362595Y-78611428D01*
X152410214Y-78516190D01*
X152457833Y-78468571D01*
X152553071Y-78420952D01*
G04 #@! TO.C,D19*
X57207385Y-98042380D02*
X57207385Y-97042380D01*
X56969290Y-97042380D01*
X56826433Y-97090000D01*
X56731195Y-97185238D01*
X56683576Y-97280476D01*
X56635957Y-97470952D01*
X56635957Y-97613809D01*
X56683576Y-97804285D01*
X56731195Y-97899523D01*
X56826433Y-97994761D01*
X56969290Y-98042380D01*
X57207385Y-98042380D01*
X55683576Y-98042380D02*
X56255004Y-98042380D01*
X55969290Y-98042380D02*
X55969290Y-97042380D01*
X56064528Y-97185238D01*
X56159766Y-97280476D01*
X56255004Y-97328095D01*
X55207385Y-98042380D02*
X55016909Y-98042380D01*
X54921671Y-97994761D01*
X54874052Y-97947142D01*
X54778814Y-97804285D01*
X54731195Y-97613809D01*
X54731195Y-97232857D01*
X54778814Y-97137619D01*
X54826433Y-97090000D01*
X54921671Y-97042380D01*
X55112147Y-97042380D01*
X55207385Y-97090000D01*
X55255004Y-97137619D01*
X55302623Y-97232857D01*
X55302623Y-97470952D01*
X55255004Y-97566190D01*
X55207385Y-97613809D01*
X55112147Y-97661428D01*
X54921671Y-97661428D01*
X54826433Y-97613809D01*
X54778814Y-97566190D01*
X54731195Y-97470952D01*
G04 #@! TO.C,D20*
X88163785Y-98042380D02*
X88163785Y-97042380D01*
X87925690Y-97042380D01*
X87782833Y-97090000D01*
X87687595Y-97185238D01*
X87639976Y-97280476D01*
X87592357Y-97470952D01*
X87592357Y-97613809D01*
X87639976Y-97804285D01*
X87687595Y-97899523D01*
X87782833Y-97994761D01*
X87925690Y-98042380D01*
X88163785Y-98042380D01*
X87211404Y-97137619D02*
X87163785Y-97090000D01*
X87068547Y-97042380D01*
X86830452Y-97042380D01*
X86735214Y-97090000D01*
X86687595Y-97137619D01*
X86639976Y-97232857D01*
X86639976Y-97328095D01*
X86687595Y-97470952D01*
X87259023Y-98042380D01*
X86639976Y-98042380D01*
X86020928Y-97042380D02*
X85925690Y-97042380D01*
X85830452Y-97090000D01*
X85782833Y-97137619D01*
X85735214Y-97232857D01*
X85687595Y-97423333D01*
X85687595Y-97661428D01*
X85735214Y-97851904D01*
X85782833Y-97947142D01*
X85830452Y-97994761D01*
X85925690Y-98042380D01*
X86020928Y-98042380D01*
X86116166Y-97994761D01*
X86163785Y-97947142D01*
X86211404Y-97851904D01*
X86259023Y-97661428D01*
X86259023Y-97423333D01*
X86211404Y-97232857D01*
X86163785Y-97137619D01*
X86116166Y-97090000D01*
X86020928Y-97042380D01*
G04 #@! TO.C,D21*
X107213785Y-98042380D02*
X107213785Y-97042380D01*
X106975690Y-97042380D01*
X106832833Y-97090000D01*
X106737595Y-97185238D01*
X106689976Y-97280476D01*
X106642357Y-97470952D01*
X106642357Y-97613809D01*
X106689976Y-97804285D01*
X106737595Y-97899523D01*
X106832833Y-97994761D01*
X106975690Y-98042380D01*
X107213785Y-98042380D01*
X106261404Y-97137619D02*
X106213785Y-97090000D01*
X106118547Y-97042380D01*
X105880452Y-97042380D01*
X105785214Y-97090000D01*
X105737595Y-97137619D01*
X105689976Y-97232857D01*
X105689976Y-97328095D01*
X105737595Y-97470952D01*
X106309023Y-98042380D01*
X105689976Y-98042380D01*
X104737595Y-98042380D02*
X105309023Y-98042380D01*
X105023309Y-98042380D02*
X105023309Y-97042380D01*
X105118547Y-97185238D01*
X105213785Y-97280476D01*
X105309023Y-97328095D01*
G04 #@! TO.C,D22*
X126263785Y-98042380D02*
X126263785Y-97042380D01*
X126025690Y-97042380D01*
X125882833Y-97090000D01*
X125787595Y-97185238D01*
X125739976Y-97280476D01*
X125692357Y-97470952D01*
X125692357Y-97613809D01*
X125739976Y-97804285D01*
X125787595Y-97899523D01*
X125882833Y-97994761D01*
X126025690Y-98042380D01*
X126263785Y-98042380D01*
X125311404Y-97137619D02*
X125263785Y-97090000D01*
X125168547Y-97042380D01*
X124930452Y-97042380D01*
X124835214Y-97090000D01*
X124787595Y-97137619D01*
X124739976Y-97232857D01*
X124739976Y-97328095D01*
X124787595Y-97470952D01*
X125359023Y-98042380D01*
X124739976Y-98042380D01*
X124359023Y-97137619D02*
X124311404Y-97090000D01*
X124216166Y-97042380D01*
X123978071Y-97042380D01*
X123882833Y-97090000D01*
X123835214Y-97137619D01*
X123787595Y-97232857D01*
X123787595Y-97328095D01*
X123835214Y-97470952D01*
X124406642Y-98042380D01*
X123787595Y-98042380D01*
G04 #@! TO.C,D23*
X145313785Y-98042380D02*
X145313785Y-97042380D01*
X145075690Y-97042380D01*
X144932833Y-97090000D01*
X144837595Y-97185238D01*
X144789976Y-97280476D01*
X144742357Y-97470952D01*
X144742357Y-97613809D01*
X144789976Y-97804285D01*
X144837595Y-97899523D01*
X144932833Y-97994761D01*
X145075690Y-98042380D01*
X145313785Y-98042380D01*
X144361404Y-97137619D02*
X144313785Y-97090000D01*
X144218547Y-97042380D01*
X143980452Y-97042380D01*
X143885214Y-97090000D01*
X143837595Y-97137619D01*
X143789976Y-97232857D01*
X143789976Y-97328095D01*
X143837595Y-97470952D01*
X144409023Y-98042380D01*
X143789976Y-98042380D01*
X143456642Y-97042380D02*
X142837595Y-97042380D01*
X143170928Y-97423333D01*
X143028071Y-97423333D01*
X142932833Y-97470952D01*
X142885214Y-97518571D01*
X142837595Y-97613809D01*
X142837595Y-97851904D01*
X142885214Y-97947142D01*
X142932833Y-97994761D01*
X143028071Y-98042380D01*
X143313785Y-98042380D01*
X143409023Y-97994761D01*
X143456642Y-97947142D01*
G04 #@! TO.C,D24*
X164363785Y-98042380D02*
X164363785Y-97042380D01*
X164125690Y-97042380D01*
X163982833Y-97090000D01*
X163887595Y-97185238D01*
X163839976Y-97280476D01*
X163792357Y-97470952D01*
X163792357Y-97613809D01*
X163839976Y-97804285D01*
X163887595Y-97899523D01*
X163982833Y-97994761D01*
X164125690Y-98042380D01*
X164363785Y-98042380D01*
X163411404Y-97137619D02*
X163363785Y-97090000D01*
X163268547Y-97042380D01*
X163030452Y-97042380D01*
X162935214Y-97090000D01*
X162887595Y-97137619D01*
X162839976Y-97232857D01*
X162839976Y-97328095D01*
X162887595Y-97470952D01*
X163459023Y-98042380D01*
X162839976Y-98042380D01*
X161982833Y-97375714D02*
X161982833Y-98042380D01*
X162220928Y-96994761D02*
X162459023Y-97709047D01*
X161839976Y-97709047D01*
G04 #@! TO.C,D25*
X95301785Y-117092380D02*
X95301785Y-116092380D01*
X95063690Y-116092380D01*
X94920833Y-116140000D01*
X94825595Y-116235238D01*
X94777976Y-116330476D01*
X94730357Y-116520952D01*
X94730357Y-116663809D01*
X94777976Y-116854285D01*
X94825595Y-116949523D01*
X94920833Y-117044761D01*
X95063690Y-117092380D01*
X95301785Y-117092380D01*
X94349404Y-116187619D02*
X94301785Y-116140000D01*
X94206547Y-116092380D01*
X93968452Y-116092380D01*
X93873214Y-116140000D01*
X93825595Y-116187619D01*
X93777976Y-116282857D01*
X93777976Y-116378095D01*
X93825595Y-116520952D01*
X94397023Y-117092380D01*
X93777976Y-117092380D01*
X92873214Y-116092380D02*
X93349404Y-116092380D01*
X93397023Y-116568571D01*
X93349404Y-116520952D01*
X93254166Y-116473333D01*
X93016071Y-116473333D01*
X92920833Y-116520952D01*
X92873214Y-116568571D01*
X92825595Y-116663809D01*
X92825595Y-116901904D01*
X92873214Y-116997142D01*
X92920833Y-117044761D01*
X93016071Y-117092380D01*
X93254166Y-117092380D01*
X93349404Y-117044761D01*
X93397023Y-116997142D01*
G04 #@! TO.C,D26*
X119113785Y-117092380D02*
X119113785Y-116092380D01*
X118875690Y-116092380D01*
X118732833Y-116140000D01*
X118637595Y-116235238D01*
X118589976Y-116330476D01*
X118542357Y-116520952D01*
X118542357Y-116663809D01*
X118589976Y-116854285D01*
X118637595Y-116949523D01*
X118732833Y-117044761D01*
X118875690Y-117092380D01*
X119113785Y-117092380D01*
X118161404Y-116187619D02*
X118113785Y-116140000D01*
X118018547Y-116092380D01*
X117780452Y-116092380D01*
X117685214Y-116140000D01*
X117637595Y-116187619D01*
X117589976Y-116282857D01*
X117589976Y-116378095D01*
X117637595Y-116520952D01*
X118209023Y-117092380D01*
X117589976Y-117092380D01*
X116732833Y-116092380D02*
X116923309Y-116092380D01*
X117018547Y-116140000D01*
X117066166Y-116187619D01*
X117161404Y-116330476D01*
X117209023Y-116520952D01*
X117209023Y-116901904D01*
X117161404Y-116997142D01*
X117113785Y-117044761D01*
X117018547Y-117092380D01*
X116828071Y-117092380D01*
X116732833Y-117044761D01*
X116685214Y-116997142D01*
X116637595Y-116901904D01*
X116637595Y-116663809D01*
X116685214Y-116568571D01*
X116732833Y-116520952D01*
X116828071Y-116473333D01*
X117018547Y-116473333D01*
X117113785Y-116520952D01*
X117161404Y-116568571D01*
X117209023Y-116663809D01*
G04 #@! TO.C,D27*
X159601285Y-117092380D02*
X159601285Y-116092380D01*
X159363190Y-116092380D01*
X159220333Y-116140000D01*
X159125095Y-116235238D01*
X159077476Y-116330476D01*
X159029857Y-116520952D01*
X159029857Y-116663809D01*
X159077476Y-116854285D01*
X159125095Y-116949523D01*
X159220333Y-117044761D01*
X159363190Y-117092380D01*
X159601285Y-117092380D01*
X158648904Y-116187619D02*
X158601285Y-116140000D01*
X158506047Y-116092380D01*
X158267952Y-116092380D01*
X158172714Y-116140000D01*
X158125095Y-116187619D01*
X158077476Y-116282857D01*
X158077476Y-116378095D01*
X158125095Y-116520952D01*
X158696523Y-117092380D01*
X158077476Y-117092380D01*
X157744142Y-116092380D02*
X157077476Y-116092380D01*
X157506047Y-117092380D01*
G04 #@! TO.C,D28*
X159601785Y-40892380D02*
X159601785Y-39892380D01*
X159363690Y-39892380D01*
X159220833Y-39940000D01*
X159125595Y-40035238D01*
X159077976Y-40130476D01*
X159030357Y-40320952D01*
X159030357Y-40463809D01*
X159077976Y-40654285D01*
X159125595Y-40749523D01*
X159220833Y-40844761D01*
X159363690Y-40892380D01*
X159601785Y-40892380D01*
X158649404Y-39987619D02*
X158601785Y-39940000D01*
X158506547Y-39892380D01*
X158268452Y-39892380D01*
X158173214Y-39940000D01*
X158125595Y-39987619D01*
X158077976Y-40082857D01*
X158077976Y-40178095D01*
X158125595Y-40320952D01*
X158697023Y-40892380D01*
X158077976Y-40892380D01*
X157506547Y-40320952D02*
X157601785Y-40273333D01*
X157649404Y-40225714D01*
X157697023Y-40130476D01*
X157697023Y-40082857D01*
X157649404Y-39987619D01*
X157601785Y-39940000D01*
X157506547Y-39892380D01*
X157316071Y-39892380D01*
X157220833Y-39940000D01*
X157173214Y-39987619D01*
X157125595Y-40082857D01*
X157125595Y-40130476D01*
X157173214Y-40225714D01*
X157220833Y-40273333D01*
X157316071Y-40320952D01*
X157506547Y-40320952D01*
X157601785Y-40368571D01*
X157649404Y-40416190D01*
X157697023Y-40511428D01*
X157697023Y-40701904D01*
X157649404Y-40797142D01*
X157601785Y-40844761D01*
X157506547Y-40892380D01*
X157316071Y-40892380D01*
X157220833Y-40844761D01*
X157173214Y-40797142D01*
X157125595Y-40701904D01*
X157125595Y-40511428D01*
X157173214Y-40416190D01*
X157220833Y-40368571D01*
X157316071Y-40320952D01*
G04 #@! TO.C,JP_da1*
X23562380Y-89980952D02*
X24276666Y-89980952D01*
X24419523Y-89933333D01*
X24514761Y-89838095D01*
X24562380Y-89695238D01*
X24562380Y-89600000D01*
X24562380Y-90457142D02*
X23562380Y-90457142D01*
X23562380Y-90838095D01*
X23610000Y-90933333D01*
X23657619Y-90980952D01*
X23752857Y-91028571D01*
X23895714Y-91028571D01*
X23990952Y-90980952D01*
X24038571Y-90933333D01*
X24086190Y-90838095D01*
X24086190Y-90457142D01*
X24657619Y-91219047D02*
X24657619Y-91980952D01*
X24562380Y-92647619D02*
X23562380Y-92647619D01*
X24514761Y-92647619D02*
X24562380Y-92552380D01*
X24562380Y-92361904D01*
X24514761Y-92266666D01*
X24467142Y-92219047D01*
X24371904Y-92171428D01*
X24086190Y-92171428D01*
X23990952Y-92219047D01*
X23943333Y-92266666D01*
X23895714Y-92361904D01*
X23895714Y-92552380D01*
X23943333Y-92647619D01*
X24562380Y-93552380D02*
X24038571Y-93552380D01*
X23943333Y-93504761D01*
X23895714Y-93409523D01*
X23895714Y-93219047D01*
X23943333Y-93123809D01*
X24514761Y-93552380D02*
X24562380Y-93457142D01*
X24562380Y-93219047D01*
X24514761Y-93123809D01*
X24419523Y-93076190D01*
X24324285Y-93076190D01*
X24229047Y-93123809D01*
X24181428Y-93219047D01*
X24181428Y-93457142D01*
X24133809Y-93552380D01*
X24562380Y-94552380D02*
X24562380Y-93980952D01*
X24562380Y-94266666D02*
X23562380Y-94266666D01*
X23705238Y-94171428D01*
X23800476Y-94076190D01*
X23848095Y-93980952D01*
G04 #@! TO.C,JP_db1*
X29562380Y-89980952D02*
X30276666Y-89980952D01*
X30419523Y-89933333D01*
X30514761Y-89838095D01*
X30562380Y-89695238D01*
X30562380Y-89600000D01*
X30562380Y-90457142D02*
X29562380Y-90457142D01*
X29562380Y-90838095D01*
X29610000Y-90933333D01*
X29657619Y-90980952D01*
X29752857Y-91028571D01*
X29895714Y-91028571D01*
X29990952Y-90980952D01*
X30038571Y-90933333D01*
X30086190Y-90838095D01*
X30086190Y-90457142D01*
X30657619Y-91219047D02*
X30657619Y-91980952D01*
X30562380Y-92647619D02*
X29562380Y-92647619D01*
X30514761Y-92647619D02*
X30562380Y-92552380D01*
X30562380Y-92361904D01*
X30514761Y-92266666D01*
X30467142Y-92219047D01*
X30371904Y-92171428D01*
X30086190Y-92171428D01*
X29990952Y-92219047D01*
X29943333Y-92266666D01*
X29895714Y-92361904D01*
X29895714Y-92552380D01*
X29943333Y-92647619D01*
X30562380Y-93123809D02*
X29562380Y-93123809D01*
X29943333Y-93123809D02*
X29895714Y-93219047D01*
X29895714Y-93409523D01*
X29943333Y-93504761D01*
X29990952Y-93552380D01*
X30086190Y-93600000D01*
X30371904Y-93600000D01*
X30467142Y-93552380D01*
X30514761Y-93504761D01*
X30562380Y-93409523D01*
X30562380Y-93219047D01*
X30514761Y-93123809D01*
X30562380Y-94552380D02*
X30562380Y-93980952D01*
X30562380Y-94266666D02*
X29562380Y-94266666D01*
X29705238Y-94171428D01*
X29800476Y-94076190D01*
X29848095Y-93980952D01*
G04 #@! TO.C,JP_xa1*
X23562380Y-98028571D02*
X24276666Y-98028571D01*
X24419523Y-97980952D01*
X24514761Y-97885714D01*
X24562380Y-97742857D01*
X24562380Y-97647619D01*
X24562380Y-98504761D02*
X23562380Y-98504761D01*
X23562380Y-98885714D01*
X23610000Y-98980952D01*
X23657619Y-99028571D01*
X23752857Y-99076190D01*
X23895714Y-99076190D01*
X23990952Y-99028571D01*
X24038571Y-98980952D01*
X24086190Y-98885714D01*
X24086190Y-98504761D01*
X24657619Y-99266666D02*
X24657619Y-100028571D01*
X24562380Y-100171428D02*
X23895714Y-100695238D01*
X23895714Y-100171428D02*
X24562380Y-100695238D01*
X24562380Y-101504761D02*
X24038571Y-101504761D01*
X23943333Y-101457142D01*
X23895714Y-101361904D01*
X23895714Y-101171428D01*
X23943333Y-101076190D01*
X24514761Y-101504761D02*
X24562380Y-101409523D01*
X24562380Y-101171428D01*
X24514761Y-101076190D01*
X24419523Y-101028571D01*
X24324285Y-101028571D01*
X24229047Y-101076190D01*
X24181428Y-101171428D01*
X24181428Y-101409523D01*
X24133809Y-101504761D01*
X24562380Y-102504761D02*
X24562380Y-101933333D01*
X24562380Y-102219047D02*
X23562380Y-102219047D01*
X23705238Y-102123809D01*
X23800476Y-102028571D01*
X23848095Y-101933333D01*
G04 #@! TO.C,JP_xb1*
X29562380Y-98028571D02*
X30276666Y-98028571D01*
X30419523Y-97980952D01*
X30514761Y-97885714D01*
X30562380Y-97742857D01*
X30562380Y-97647619D01*
X30562380Y-98504761D02*
X29562380Y-98504761D01*
X29562380Y-98885714D01*
X29610000Y-98980952D01*
X29657619Y-99028571D01*
X29752857Y-99076190D01*
X29895714Y-99076190D01*
X29990952Y-99028571D01*
X30038571Y-98980952D01*
X30086190Y-98885714D01*
X30086190Y-98504761D01*
X30657619Y-99266666D02*
X30657619Y-100028571D01*
X30562380Y-100171428D02*
X29895714Y-100695238D01*
X29895714Y-100171428D02*
X30562380Y-100695238D01*
X30562380Y-101076190D02*
X29562380Y-101076190D01*
X29943333Y-101076190D02*
X29895714Y-101171428D01*
X29895714Y-101361904D01*
X29943333Y-101457142D01*
X29990952Y-101504761D01*
X30086190Y-101552380D01*
X30371904Y-101552380D01*
X30467142Y-101504761D01*
X30514761Y-101457142D01*
X30562380Y-101361904D01*
X30562380Y-101171428D01*
X30514761Y-101076190D01*
X30562380Y-102504761D02*
X30562380Y-101933333D01*
X30562380Y-102219047D02*
X29562380Y-102219047D01*
X29705238Y-102123809D01*
X29800476Y-102028571D01*
X29848095Y-101933333D01*
G04 #@! TO.C,R_data1*
X36542380Y-89072023D02*
X36066190Y-88738690D01*
X36542380Y-88500595D02*
X35542380Y-88500595D01*
X35542380Y-88881547D01*
X35590000Y-88976785D01*
X35637619Y-89024404D01*
X35732857Y-89072023D01*
X35875714Y-89072023D01*
X35970952Y-89024404D01*
X36018571Y-88976785D01*
X36066190Y-88881547D01*
X36066190Y-88500595D01*
X36637619Y-89262500D02*
X36637619Y-90024404D01*
X36542380Y-90691071D02*
X35542380Y-90691071D01*
X36494761Y-90691071D02*
X36542380Y-90595833D01*
X36542380Y-90405357D01*
X36494761Y-90310119D01*
X36447142Y-90262500D01*
X36351904Y-90214880D01*
X36066190Y-90214880D01*
X35970952Y-90262500D01*
X35923333Y-90310119D01*
X35875714Y-90405357D01*
X35875714Y-90595833D01*
X35923333Y-90691071D01*
X36542380Y-91595833D02*
X36018571Y-91595833D01*
X35923333Y-91548214D01*
X35875714Y-91452976D01*
X35875714Y-91262500D01*
X35923333Y-91167261D01*
X36494761Y-91595833D02*
X36542380Y-91500595D01*
X36542380Y-91262500D01*
X36494761Y-91167261D01*
X36399523Y-91119642D01*
X36304285Y-91119642D01*
X36209047Y-91167261D01*
X36161428Y-91262500D01*
X36161428Y-91500595D01*
X36113809Y-91595833D01*
X35875714Y-91929166D02*
X35875714Y-92310119D01*
X35542380Y-92072023D02*
X36399523Y-92072023D01*
X36494761Y-92119642D01*
X36542380Y-92214880D01*
X36542380Y-92310119D01*
X36542380Y-93072023D02*
X36018571Y-93072023D01*
X35923333Y-93024404D01*
X35875714Y-92929166D01*
X35875714Y-92738690D01*
X35923333Y-92643452D01*
X36494761Y-93072023D02*
X36542380Y-92976785D01*
X36542380Y-92738690D01*
X36494761Y-92643452D01*
X36399523Y-92595833D01*
X36304285Y-92595833D01*
X36209047Y-92643452D01*
X36161428Y-92738690D01*
X36161428Y-92976785D01*
X36113809Y-93072023D01*
X36542380Y-94072023D02*
X36542380Y-93500595D01*
X36542380Y-93786309D02*
X35542380Y-93786309D01*
X35685238Y-93691071D01*
X35780476Y-93595833D01*
X35828095Y-93500595D01*
G04 #@! TO.C,R_xdata1*
X36542380Y-96667261D02*
X36066190Y-96333928D01*
X36542380Y-96095833D02*
X35542380Y-96095833D01*
X35542380Y-96476785D01*
X35590000Y-96572023D01*
X35637619Y-96619642D01*
X35732857Y-96667261D01*
X35875714Y-96667261D01*
X35970952Y-96619642D01*
X36018571Y-96572023D01*
X36066190Y-96476785D01*
X36066190Y-96095833D01*
X36637619Y-96857738D02*
X36637619Y-97619642D01*
X36542380Y-97762500D02*
X35875714Y-98286309D01*
X35875714Y-97762500D02*
X36542380Y-98286309D01*
X36542380Y-99095833D02*
X35542380Y-99095833D01*
X36494761Y-99095833D02*
X36542380Y-99000595D01*
X36542380Y-98810119D01*
X36494761Y-98714880D01*
X36447142Y-98667261D01*
X36351904Y-98619642D01*
X36066190Y-98619642D01*
X35970952Y-98667261D01*
X35923333Y-98714880D01*
X35875714Y-98810119D01*
X35875714Y-99000595D01*
X35923333Y-99095833D01*
X36542380Y-100000595D02*
X36018571Y-100000595D01*
X35923333Y-99952976D01*
X35875714Y-99857738D01*
X35875714Y-99667261D01*
X35923333Y-99572023D01*
X36494761Y-100000595D02*
X36542380Y-99905357D01*
X36542380Y-99667261D01*
X36494761Y-99572023D01*
X36399523Y-99524404D01*
X36304285Y-99524404D01*
X36209047Y-99572023D01*
X36161428Y-99667261D01*
X36161428Y-99905357D01*
X36113809Y-100000595D01*
X35875714Y-100333928D02*
X35875714Y-100714880D01*
X35542380Y-100476785D02*
X36399523Y-100476785D01*
X36494761Y-100524404D01*
X36542380Y-100619642D01*
X36542380Y-100714880D01*
X36542380Y-101476785D02*
X36018571Y-101476785D01*
X35923333Y-101429166D01*
X35875714Y-101333928D01*
X35875714Y-101143452D01*
X35923333Y-101048214D01*
X36494761Y-101476785D02*
X36542380Y-101381547D01*
X36542380Y-101143452D01*
X36494761Y-101048214D01*
X36399523Y-101000595D01*
X36304285Y-101000595D01*
X36209047Y-101048214D01*
X36161428Y-101143452D01*
X36161428Y-101381547D01*
X36113809Y-101476785D01*
X36542380Y-102476785D02*
X36542380Y-101905357D01*
X36542380Y-102191071D02*
X35542380Y-102191071D01*
X35685238Y-102095833D01*
X35780476Y-102000595D01*
X35828095Y-101905357D01*
G04 #@! TO.C,U1*
X42062380Y-38838095D02*
X42871904Y-38838095D01*
X42967142Y-38885714D01*
X43014761Y-38933333D01*
X43062380Y-39028571D01*
X43062380Y-39219047D01*
X43014761Y-39314285D01*
X42967142Y-39361904D01*
X42871904Y-39409523D01*
X42062380Y-39409523D01*
X43062380Y-40409523D02*
X43062380Y-39838095D01*
X43062380Y-40123809D02*
X42062380Y-40123809D01*
X42205238Y-40028571D01*
X42300476Y-39933333D01*
X42348095Y-39838095D01*
G04 #@! TD*
%LPC*%
D13*
G04 #@! TO.C,SW28*
X167060000Y-30030000D03*
X160710000Y-32570000D03*
D14*
X164520000Y-35110000D03*
D15*
X159440000Y-35110000D03*
X169600000Y-35110000D03*
D16*
X170870000Y-30030000D03*
X156900000Y-32570000D03*
G04 #@! TD*
D13*
G04 #@! TO.C,SW23*
X152772000Y-87180000D03*
X146422000Y-89720000D03*
D14*
X150232000Y-92260000D03*
D15*
X145152000Y-92260000D03*
X155312000Y-92260000D03*
D16*
X156582000Y-87180000D03*
X142612000Y-89720000D03*
G04 #@! TD*
D13*
G04 #@! TO.C,SW15*
X105147000Y-68130000D03*
X98797000Y-70670000D03*
D14*
X102607000Y-73210000D03*
D15*
X97527000Y-73210000D03*
X107687000Y-73210000D03*
D16*
X108957000Y-68130000D03*
X94987000Y-70670000D03*
G04 #@! TD*
D17*
G04 #@! TO.C,*
X35107500Y-82730000D03*
G04 #@! TD*
G04 #@! TO.C,*
X25107500Y-82730000D03*
G04 #@! TD*
G04 #@! TO.C,*
X47910000Y-24590000D03*
G04 #@! TD*
G04 #@! TO.C,*
X23910000Y-121840000D03*
G04 #@! TD*
G04 #@! TO.C,*
X174320000Y-121840000D03*
G04 #@! TD*
D18*
G04 #@! TO.C,D1*
G36*
X46198707Y-37546542D02*
X46229787Y-37551152D01*
X46260266Y-37558787D01*
X46289850Y-37569372D01*
X46318254Y-37582806D01*
X46345204Y-37598959D01*
X46370442Y-37617677D01*
X46393723Y-37638777D01*
X46414823Y-37662058D01*
X46433541Y-37687296D01*
X46449694Y-37714246D01*
X46463128Y-37742650D01*
X46473713Y-37772234D01*
X46481348Y-37802713D01*
X46485958Y-37833793D01*
X46487500Y-37865176D01*
X46487500Y-39374824D01*
X46485958Y-39406207D01*
X46481348Y-39437287D01*
X46473713Y-39467766D01*
X46463128Y-39497350D01*
X46449694Y-39525754D01*
X46433541Y-39552704D01*
X46414823Y-39577942D01*
X46393723Y-39601223D01*
X46370442Y-39622323D01*
X46345204Y-39641041D01*
X46318254Y-39657194D01*
X46289850Y-39670628D01*
X46260266Y-39681213D01*
X46229787Y-39688848D01*
X46198707Y-39693458D01*
X46167324Y-39695000D01*
X44982676Y-39695000D01*
X44951293Y-39693458D01*
X44920213Y-39688848D01*
X44889734Y-39681213D01*
X44860150Y-39670628D01*
X44831746Y-39657194D01*
X44804796Y-39641041D01*
X44779558Y-39622323D01*
X44756277Y-39601223D01*
X44735177Y-39577942D01*
X44716459Y-39552704D01*
X44700306Y-39525754D01*
X44686872Y-39497350D01*
X44676287Y-39467766D01*
X44668652Y-39437287D01*
X44664042Y-39406207D01*
X44662500Y-39374824D01*
X44662500Y-37865176D01*
X44664042Y-37833793D01*
X44668652Y-37802713D01*
X44676287Y-37772234D01*
X44686872Y-37742650D01*
X44700306Y-37714246D01*
X44716459Y-37687296D01*
X44735177Y-37662058D01*
X44756277Y-37638777D01*
X44779558Y-37617677D01*
X44804796Y-37598959D01*
X44831746Y-37582806D01*
X44860150Y-37569372D01*
X44889734Y-37558787D01*
X44920213Y-37551152D01*
X44951293Y-37546542D01*
X44982676Y-37545000D01*
X46167324Y-37545000D01*
X46198707Y-37546542D01*
X46198707Y-37546542D01*
G37*
D19*
X45575000Y-38620000D03*
D18*
G36*
X43223707Y-37546542D02*
X43254787Y-37551152D01*
X43285266Y-37558787D01*
X43314850Y-37569372D01*
X43343254Y-37582806D01*
X43370204Y-37598959D01*
X43395442Y-37617677D01*
X43418723Y-37638777D01*
X43439823Y-37662058D01*
X43458541Y-37687296D01*
X43474694Y-37714246D01*
X43488128Y-37742650D01*
X43498713Y-37772234D01*
X43506348Y-37802713D01*
X43510958Y-37833793D01*
X43512500Y-37865176D01*
X43512500Y-39374824D01*
X43510958Y-39406207D01*
X43506348Y-39437287D01*
X43498713Y-39467766D01*
X43488128Y-39497350D01*
X43474694Y-39525754D01*
X43458541Y-39552704D01*
X43439823Y-39577942D01*
X43418723Y-39601223D01*
X43395442Y-39622323D01*
X43370204Y-39641041D01*
X43343254Y-39657194D01*
X43314850Y-39670628D01*
X43285266Y-39681213D01*
X43254787Y-39688848D01*
X43223707Y-39693458D01*
X43192324Y-39695000D01*
X42007676Y-39695000D01*
X41976293Y-39693458D01*
X41945213Y-39688848D01*
X41914734Y-39681213D01*
X41885150Y-39670628D01*
X41856746Y-39657194D01*
X41829796Y-39641041D01*
X41804558Y-39622323D01*
X41781277Y-39601223D01*
X41760177Y-39577942D01*
X41741459Y-39552704D01*
X41725306Y-39525754D01*
X41711872Y-39497350D01*
X41701287Y-39467766D01*
X41693652Y-39437287D01*
X41689042Y-39406207D01*
X41687500Y-39374824D01*
X41687500Y-37865176D01*
X41689042Y-37833793D01*
X41693652Y-37802713D01*
X41701287Y-37772234D01*
X41711872Y-37742650D01*
X41725306Y-37714246D01*
X41741459Y-37687296D01*
X41760177Y-37662058D01*
X41781277Y-37638777D01*
X41804558Y-37617677D01*
X41829796Y-37598959D01*
X41856746Y-37582806D01*
X41885150Y-37569372D01*
X41914734Y-37558787D01*
X41945213Y-37551152D01*
X41976293Y-37546542D01*
X42007676Y-37545000D01*
X43192324Y-37545000D01*
X43223707Y-37546542D01*
X43223707Y-37546542D01*
G37*
D19*
X42600000Y-38620000D03*
G04 #@! TD*
D18*
G04 #@! TO.C,D2*
G36*
X62273707Y-37546542D02*
X62304787Y-37551152D01*
X62335266Y-37558787D01*
X62364850Y-37569372D01*
X62393254Y-37582806D01*
X62420204Y-37598959D01*
X62445442Y-37617677D01*
X62468723Y-37638777D01*
X62489823Y-37662058D01*
X62508541Y-37687296D01*
X62524694Y-37714246D01*
X62538128Y-37742650D01*
X62548713Y-37772234D01*
X62556348Y-37802713D01*
X62560958Y-37833793D01*
X62562500Y-37865176D01*
X62562500Y-39374824D01*
X62560958Y-39406207D01*
X62556348Y-39437287D01*
X62548713Y-39467766D01*
X62538128Y-39497350D01*
X62524694Y-39525754D01*
X62508541Y-39552704D01*
X62489823Y-39577942D01*
X62468723Y-39601223D01*
X62445442Y-39622323D01*
X62420204Y-39641041D01*
X62393254Y-39657194D01*
X62364850Y-39670628D01*
X62335266Y-39681213D01*
X62304787Y-39688848D01*
X62273707Y-39693458D01*
X62242324Y-39695000D01*
X61057676Y-39695000D01*
X61026293Y-39693458D01*
X60995213Y-39688848D01*
X60964734Y-39681213D01*
X60935150Y-39670628D01*
X60906746Y-39657194D01*
X60879796Y-39641041D01*
X60854558Y-39622323D01*
X60831277Y-39601223D01*
X60810177Y-39577942D01*
X60791459Y-39552704D01*
X60775306Y-39525754D01*
X60761872Y-39497350D01*
X60751287Y-39467766D01*
X60743652Y-39437287D01*
X60739042Y-39406207D01*
X60737500Y-39374824D01*
X60737500Y-37865176D01*
X60739042Y-37833793D01*
X60743652Y-37802713D01*
X60751287Y-37772234D01*
X60761872Y-37742650D01*
X60775306Y-37714246D01*
X60791459Y-37687296D01*
X60810177Y-37662058D01*
X60831277Y-37638777D01*
X60854558Y-37617677D01*
X60879796Y-37598959D01*
X60906746Y-37582806D01*
X60935150Y-37569372D01*
X60964734Y-37558787D01*
X60995213Y-37551152D01*
X61026293Y-37546542D01*
X61057676Y-37545000D01*
X62242324Y-37545000D01*
X62273707Y-37546542D01*
X62273707Y-37546542D01*
G37*
D19*
X61650000Y-38620000D03*
D18*
G36*
X65248707Y-37546542D02*
X65279787Y-37551152D01*
X65310266Y-37558787D01*
X65339850Y-37569372D01*
X65368254Y-37582806D01*
X65395204Y-37598959D01*
X65420442Y-37617677D01*
X65443723Y-37638777D01*
X65464823Y-37662058D01*
X65483541Y-37687296D01*
X65499694Y-37714246D01*
X65513128Y-37742650D01*
X65523713Y-37772234D01*
X65531348Y-37802713D01*
X65535958Y-37833793D01*
X65537500Y-37865176D01*
X65537500Y-39374824D01*
X65535958Y-39406207D01*
X65531348Y-39437287D01*
X65523713Y-39467766D01*
X65513128Y-39497350D01*
X65499694Y-39525754D01*
X65483541Y-39552704D01*
X65464823Y-39577942D01*
X65443723Y-39601223D01*
X65420442Y-39622323D01*
X65395204Y-39641041D01*
X65368254Y-39657194D01*
X65339850Y-39670628D01*
X65310266Y-39681213D01*
X65279787Y-39688848D01*
X65248707Y-39693458D01*
X65217324Y-39695000D01*
X64032676Y-39695000D01*
X64001293Y-39693458D01*
X63970213Y-39688848D01*
X63939734Y-39681213D01*
X63910150Y-39670628D01*
X63881746Y-39657194D01*
X63854796Y-39641041D01*
X63829558Y-39622323D01*
X63806277Y-39601223D01*
X63785177Y-39577942D01*
X63766459Y-39552704D01*
X63750306Y-39525754D01*
X63736872Y-39497350D01*
X63726287Y-39467766D01*
X63718652Y-39437287D01*
X63714042Y-39406207D01*
X63712500Y-39374824D01*
X63712500Y-37865176D01*
X63714042Y-37833793D01*
X63718652Y-37802713D01*
X63726287Y-37772234D01*
X63736872Y-37742650D01*
X63750306Y-37714246D01*
X63766459Y-37687296D01*
X63785177Y-37662058D01*
X63806277Y-37638777D01*
X63829558Y-37617677D01*
X63854796Y-37598959D01*
X63881746Y-37582806D01*
X63910150Y-37569372D01*
X63939734Y-37558787D01*
X63970213Y-37551152D01*
X64001293Y-37546542D01*
X64032676Y-37545000D01*
X65217324Y-37545000D01*
X65248707Y-37546542D01*
X65248707Y-37546542D01*
G37*
D19*
X64625000Y-38620000D03*
G04 #@! TD*
D18*
G04 #@! TO.C,D3*
G36*
X84298707Y-37546542D02*
X84329787Y-37551152D01*
X84360266Y-37558787D01*
X84389850Y-37569372D01*
X84418254Y-37582806D01*
X84445204Y-37598959D01*
X84470442Y-37617677D01*
X84493723Y-37638777D01*
X84514823Y-37662058D01*
X84533541Y-37687296D01*
X84549694Y-37714246D01*
X84563128Y-37742650D01*
X84573713Y-37772234D01*
X84581348Y-37802713D01*
X84585958Y-37833793D01*
X84587500Y-37865176D01*
X84587500Y-39374824D01*
X84585958Y-39406207D01*
X84581348Y-39437287D01*
X84573713Y-39467766D01*
X84563128Y-39497350D01*
X84549694Y-39525754D01*
X84533541Y-39552704D01*
X84514823Y-39577942D01*
X84493723Y-39601223D01*
X84470442Y-39622323D01*
X84445204Y-39641041D01*
X84418254Y-39657194D01*
X84389850Y-39670628D01*
X84360266Y-39681213D01*
X84329787Y-39688848D01*
X84298707Y-39693458D01*
X84267324Y-39695000D01*
X83082676Y-39695000D01*
X83051293Y-39693458D01*
X83020213Y-39688848D01*
X82989734Y-39681213D01*
X82960150Y-39670628D01*
X82931746Y-39657194D01*
X82904796Y-39641041D01*
X82879558Y-39622323D01*
X82856277Y-39601223D01*
X82835177Y-39577942D01*
X82816459Y-39552704D01*
X82800306Y-39525754D01*
X82786872Y-39497350D01*
X82776287Y-39467766D01*
X82768652Y-39437287D01*
X82764042Y-39406207D01*
X82762500Y-39374824D01*
X82762500Y-37865176D01*
X82764042Y-37833793D01*
X82768652Y-37802713D01*
X82776287Y-37772234D01*
X82786872Y-37742650D01*
X82800306Y-37714246D01*
X82816459Y-37687296D01*
X82835177Y-37662058D01*
X82856277Y-37638777D01*
X82879558Y-37617677D01*
X82904796Y-37598959D01*
X82931746Y-37582806D01*
X82960150Y-37569372D01*
X82989734Y-37558787D01*
X83020213Y-37551152D01*
X83051293Y-37546542D01*
X83082676Y-37545000D01*
X84267324Y-37545000D01*
X84298707Y-37546542D01*
X84298707Y-37546542D01*
G37*
D19*
X83675000Y-38620000D03*
D18*
G36*
X81323707Y-37546542D02*
X81354787Y-37551152D01*
X81385266Y-37558787D01*
X81414850Y-37569372D01*
X81443254Y-37582806D01*
X81470204Y-37598959D01*
X81495442Y-37617677D01*
X81518723Y-37638777D01*
X81539823Y-37662058D01*
X81558541Y-37687296D01*
X81574694Y-37714246D01*
X81588128Y-37742650D01*
X81598713Y-37772234D01*
X81606348Y-37802713D01*
X81610958Y-37833793D01*
X81612500Y-37865176D01*
X81612500Y-39374824D01*
X81610958Y-39406207D01*
X81606348Y-39437287D01*
X81598713Y-39467766D01*
X81588128Y-39497350D01*
X81574694Y-39525754D01*
X81558541Y-39552704D01*
X81539823Y-39577942D01*
X81518723Y-39601223D01*
X81495442Y-39622323D01*
X81470204Y-39641041D01*
X81443254Y-39657194D01*
X81414850Y-39670628D01*
X81385266Y-39681213D01*
X81354787Y-39688848D01*
X81323707Y-39693458D01*
X81292324Y-39695000D01*
X80107676Y-39695000D01*
X80076293Y-39693458D01*
X80045213Y-39688848D01*
X80014734Y-39681213D01*
X79985150Y-39670628D01*
X79956746Y-39657194D01*
X79929796Y-39641041D01*
X79904558Y-39622323D01*
X79881277Y-39601223D01*
X79860177Y-39577942D01*
X79841459Y-39552704D01*
X79825306Y-39525754D01*
X79811872Y-39497350D01*
X79801287Y-39467766D01*
X79793652Y-39437287D01*
X79789042Y-39406207D01*
X79787500Y-39374824D01*
X79787500Y-37865176D01*
X79789042Y-37833793D01*
X79793652Y-37802713D01*
X79801287Y-37772234D01*
X79811872Y-37742650D01*
X79825306Y-37714246D01*
X79841459Y-37687296D01*
X79860177Y-37662058D01*
X79881277Y-37638777D01*
X79904558Y-37617677D01*
X79929796Y-37598959D01*
X79956746Y-37582806D01*
X79985150Y-37569372D01*
X80014734Y-37558787D01*
X80045213Y-37551152D01*
X80076293Y-37546542D01*
X80107676Y-37545000D01*
X81292324Y-37545000D01*
X81323707Y-37546542D01*
X81323707Y-37546542D01*
G37*
D19*
X80700000Y-38620000D03*
G04 #@! TD*
D18*
G04 #@! TO.C,D4*
G36*
X100373707Y-37546542D02*
X100404787Y-37551152D01*
X100435266Y-37558787D01*
X100464850Y-37569372D01*
X100493254Y-37582806D01*
X100520204Y-37598959D01*
X100545442Y-37617677D01*
X100568723Y-37638777D01*
X100589823Y-37662058D01*
X100608541Y-37687296D01*
X100624694Y-37714246D01*
X100638128Y-37742650D01*
X100648713Y-37772234D01*
X100656348Y-37802713D01*
X100660958Y-37833793D01*
X100662500Y-37865176D01*
X100662500Y-39374824D01*
X100660958Y-39406207D01*
X100656348Y-39437287D01*
X100648713Y-39467766D01*
X100638128Y-39497350D01*
X100624694Y-39525754D01*
X100608541Y-39552704D01*
X100589823Y-39577942D01*
X100568723Y-39601223D01*
X100545442Y-39622323D01*
X100520204Y-39641041D01*
X100493254Y-39657194D01*
X100464850Y-39670628D01*
X100435266Y-39681213D01*
X100404787Y-39688848D01*
X100373707Y-39693458D01*
X100342324Y-39695000D01*
X99157676Y-39695000D01*
X99126293Y-39693458D01*
X99095213Y-39688848D01*
X99064734Y-39681213D01*
X99035150Y-39670628D01*
X99006746Y-39657194D01*
X98979796Y-39641041D01*
X98954558Y-39622323D01*
X98931277Y-39601223D01*
X98910177Y-39577942D01*
X98891459Y-39552704D01*
X98875306Y-39525754D01*
X98861872Y-39497350D01*
X98851287Y-39467766D01*
X98843652Y-39437287D01*
X98839042Y-39406207D01*
X98837500Y-39374824D01*
X98837500Y-37865176D01*
X98839042Y-37833793D01*
X98843652Y-37802713D01*
X98851287Y-37772234D01*
X98861872Y-37742650D01*
X98875306Y-37714246D01*
X98891459Y-37687296D01*
X98910177Y-37662058D01*
X98931277Y-37638777D01*
X98954558Y-37617677D01*
X98979796Y-37598959D01*
X99006746Y-37582806D01*
X99035150Y-37569372D01*
X99064734Y-37558787D01*
X99095213Y-37551152D01*
X99126293Y-37546542D01*
X99157676Y-37545000D01*
X100342324Y-37545000D01*
X100373707Y-37546542D01*
X100373707Y-37546542D01*
G37*
D19*
X99750000Y-38620000D03*
D18*
G36*
X103348707Y-37546542D02*
X103379787Y-37551152D01*
X103410266Y-37558787D01*
X103439850Y-37569372D01*
X103468254Y-37582806D01*
X103495204Y-37598959D01*
X103520442Y-37617677D01*
X103543723Y-37638777D01*
X103564823Y-37662058D01*
X103583541Y-37687296D01*
X103599694Y-37714246D01*
X103613128Y-37742650D01*
X103623713Y-37772234D01*
X103631348Y-37802713D01*
X103635958Y-37833793D01*
X103637500Y-37865176D01*
X103637500Y-39374824D01*
X103635958Y-39406207D01*
X103631348Y-39437287D01*
X103623713Y-39467766D01*
X103613128Y-39497350D01*
X103599694Y-39525754D01*
X103583541Y-39552704D01*
X103564823Y-39577942D01*
X103543723Y-39601223D01*
X103520442Y-39622323D01*
X103495204Y-39641041D01*
X103468254Y-39657194D01*
X103439850Y-39670628D01*
X103410266Y-39681213D01*
X103379787Y-39688848D01*
X103348707Y-39693458D01*
X103317324Y-39695000D01*
X102132676Y-39695000D01*
X102101293Y-39693458D01*
X102070213Y-39688848D01*
X102039734Y-39681213D01*
X102010150Y-39670628D01*
X101981746Y-39657194D01*
X101954796Y-39641041D01*
X101929558Y-39622323D01*
X101906277Y-39601223D01*
X101885177Y-39577942D01*
X101866459Y-39552704D01*
X101850306Y-39525754D01*
X101836872Y-39497350D01*
X101826287Y-39467766D01*
X101818652Y-39437287D01*
X101814042Y-39406207D01*
X101812500Y-39374824D01*
X101812500Y-37865176D01*
X101814042Y-37833793D01*
X101818652Y-37802713D01*
X101826287Y-37772234D01*
X101836872Y-37742650D01*
X101850306Y-37714246D01*
X101866459Y-37687296D01*
X101885177Y-37662058D01*
X101906277Y-37638777D01*
X101929558Y-37617677D01*
X101954796Y-37598959D01*
X101981746Y-37582806D01*
X102010150Y-37569372D01*
X102039734Y-37558787D01*
X102070213Y-37551152D01*
X102101293Y-37546542D01*
X102132676Y-37545000D01*
X103317324Y-37545000D01*
X103348707Y-37546542D01*
X103348707Y-37546542D01*
G37*
D19*
X102725000Y-38620000D03*
G04 #@! TD*
D18*
G04 #@! TO.C,D5*
G36*
X122398707Y-37546542D02*
X122429787Y-37551152D01*
X122460266Y-37558787D01*
X122489850Y-37569372D01*
X122518254Y-37582806D01*
X122545204Y-37598959D01*
X122570442Y-37617677D01*
X122593723Y-37638777D01*
X122614823Y-37662058D01*
X122633541Y-37687296D01*
X122649694Y-37714246D01*
X122663128Y-37742650D01*
X122673713Y-37772234D01*
X122681348Y-37802713D01*
X122685958Y-37833793D01*
X122687500Y-37865176D01*
X122687500Y-39374824D01*
X122685958Y-39406207D01*
X122681348Y-39437287D01*
X122673713Y-39467766D01*
X122663128Y-39497350D01*
X122649694Y-39525754D01*
X122633541Y-39552704D01*
X122614823Y-39577942D01*
X122593723Y-39601223D01*
X122570442Y-39622323D01*
X122545204Y-39641041D01*
X122518254Y-39657194D01*
X122489850Y-39670628D01*
X122460266Y-39681213D01*
X122429787Y-39688848D01*
X122398707Y-39693458D01*
X122367324Y-39695000D01*
X121182676Y-39695000D01*
X121151293Y-39693458D01*
X121120213Y-39688848D01*
X121089734Y-39681213D01*
X121060150Y-39670628D01*
X121031746Y-39657194D01*
X121004796Y-39641041D01*
X120979558Y-39622323D01*
X120956277Y-39601223D01*
X120935177Y-39577942D01*
X120916459Y-39552704D01*
X120900306Y-39525754D01*
X120886872Y-39497350D01*
X120876287Y-39467766D01*
X120868652Y-39437287D01*
X120864042Y-39406207D01*
X120862500Y-39374824D01*
X120862500Y-37865176D01*
X120864042Y-37833793D01*
X120868652Y-37802713D01*
X120876287Y-37772234D01*
X120886872Y-37742650D01*
X120900306Y-37714246D01*
X120916459Y-37687296D01*
X120935177Y-37662058D01*
X120956277Y-37638777D01*
X120979558Y-37617677D01*
X121004796Y-37598959D01*
X121031746Y-37582806D01*
X121060150Y-37569372D01*
X121089734Y-37558787D01*
X121120213Y-37551152D01*
X121151293Y-37546542D01*
X121182676Y-37545000D01*
X122367324Y-37545000D01*
X122398707Y-37546542D01*
X122398707Y-37546542D01*
G37*
D19*
X121775000Y-38620000D03*
D18*
G36*
X119423707Y-37546542D02*
X119454787Y-37551152D01*
X119485266Y-37558787D01*
X119514850Y-37569372D01*
X119543254Y-37582806D01*
X119570204Y-37598959D01*
X119595442Y-37617677D01*
X119618723Y-37638777D01*
X119639823Y-37662058D01*
X119658541Y-37687296D01*
X119674694Y-37714246D01*
X119688128Y-37742650D01*
X119698713Y-37772234D01*
X119706348Y-37802713D01*
X119710958Y-37833793D01*
X119712500Y-37865176D01*
X119712500Y-39374824D01*
X119710958Y-39406207D01*
X119706348Y-39437287D01*
X119698713Y-39467766D01*
X119688128Y-39497350D01*
X119674694Y-39525754D01*
X119658541Y-39552704D01*
X119639823Y-39577942D01*
X119618723Y-39601223D01*
X119595442Y-39622323D01*
X119570204Y-39641041D01*
X119543254Y-39657194D01*
X119514850Y-39670628D01*
X119485266Y-39681213D01*
X119454787Y-39688848D01*
X119423707Y-39693458D01*
X119392324Y-39695000D01*
X118207676Y-39695000D01*
X118176293Y-39693458D01*
X118145213Y-39688848D01*
X118114734Y-39681213D01*
X118085150Y-39670628D01*
X118056746Y-39657194D01*
X118029796Y-39641041D01*
X118004558Y-39622323D01*
X117981277Y-39601223D01*
X117960177Y-39577942D01*
X117941459Y-39552704D01*
X117925306Y-39525754D01*
X117911872Y-39497350D01*
X117901287Y-39467766D01*
X117893652Y-39437287D01*
X117889042Y-39406207D01*
X117887500Y-39374824D01*
X117887500Y-37865176D01*
X117889042Y-37833793D01*
X117893652Y-37802713D01*
X117901287Y-37772234D01*
X117911872Y-37742650D01*
X117925306Y-37714246D01*
X117941459Y-37687296D01*
X117960177Y-37662058D01*
X117981277Y-37638777D01*
X118004558Y-37617677D01*
X118029796Y-37598959D01*
X118056746Y-37582806D01*
X118085150Y-37569372D01*
X118114734Y-37558787D01*
X118145213Y-37551152D01*
X118176293Y-37546542D01*
X118207676Y-37545000D01*
X119392324Y-37545000D01*
X119423707Y-37546542D01*
X119423707Y-37546542D01*
G37*
D19*
X118800000Y-38620000D03*
G04 #@! TD*
D18*
G04 #@! TO.C,D6*
G36*
X138473707Y-37546542D02*
X138504787Y-37551152D01*
X138535266Y-37558787D01*
X138564850Y-37569372D01*
X138593254Y-37582806D01*
X138620204Y-37598959D01*
X138645442Y-37617677D01*
X138668723Y-37638777D01*
X138689823Y-37662058D01*
X138708541Y-37687296D01*
X138724694Y-37714246D01*
X138738128Y-37742650D01*
X138748713Y-37772234D01*
X138756348Y-37802713D01*
X138760958Y-37833793D01*
X138762500Y-37865176D01*
X138762500Y-39374824D01*
X138760958Y-39406207D01*
X138756348Y-39437287D01*
X138748713Y-39467766D01*
X138738128Y-39497350D01*
X138724694Y-39525754D01*
X138708541Y-39552704D01*
X138689823Y-39577942D01*
X138668723Y-39601223D01*
X138645442Y-39622323D01*
X138620204Y-39641041D01*
X138593254Y-39657194D01*
X138564850Y-39670628D01*
X138535266Y-39681213D01*
X138504787Y-39688848D01*
X138473707Y-39693458D01*
X138442324Y-39695000D01*
X137257676Y-39695000D01*
X137226293Y-39693458D01*
X137195213Y-39688848D01*
X137164734Y-39681213D01*
X137135150Y-39670628D01*
X137106746Y-39657194D01*
X137079796Y-39641041D01*
X137054558Y-39622323D01*
X137031277Y-39601223D01*
X137010177Y-39577942D01*
X136991459Y-39552704D01*
X136975306Y-39525754D01*
X136961872Y-39497350D01*
X136951287Y-39467766D01*
X136943652Y-39437287D01*
X136939042Y-39406207D01*
X136937500Y-39374824D01*
X136937500Y-37865176D01*
X136939042Y-37833793D01*
X136943652Y-37802713D01*
X136951287Y-37772234D01*
X136961872Y-37742650D01*
X136975306Y-37714246D01*
X136991459Y-37687296D01*
X137010177Y-37662058D01*
X137031277Y-37638777D01*
X137054558Y-37617677D01*
X137079796Y-37598959D01*
X137106746Y-37582806D01*
X137135150Y-37569372D01*
X137164734Y-37558787D01*
X137195213Y-37551152D01*
X137226293Y-37546542D01*
X137257676Y-37545000D01*
X138442324Y-37545000D01*
X138473707Y-37546542D01*
X138473707Y-37546542D01*
G37*
D19*
X137850000Y-38620000D03*
D18*
G36*
X141448707Y-37546542D02*
X141479787Y-37551152D01*
X141510266Y-37558787D01*
X141539850Y-37569372D01*
X141568254Y-37582806D01*
X141595204Y-37598959D01*
X141620442Y-37617677D01*
X141643723Y-37638777D01*
X141664823Y-37662058D01*
X141683541Y-37687296D01*
X141699694Y-37714246D01*
X141713128Y-37742650D01*
X141723713Y-37772234D01*
X141731348Y-37802713D01*
X141735958Y-37833793D01*
X141737500Y-37865176D01*
X141737500Y-39374824D01*
X141735958Y-39406207D01*
X141731348Y-39437287D01*
X141723713Y-39467766D01*
X141713128Y-39497350D01*
X141699694Y-39525754D01*
X141683541Y-39552704D01*
X141664823Y-39577942D01*
X141643723Y-39601223D01*
X141620442Y-39622323D01*
X141595204Y-39641041D01*
X141568254Y-39657194D01*
X141539850Y-39670628D01*
X141510266Y-39681213D01*
X141479787Y-39688848D01*
X141448707Y-39693458D01*
X141417324Y-39695000D01*
X140232676Y-39695000D01*
X140201293Y-39693458D01*
X140170213Y-39688848D01*
X140139734Y-39681213D01*
X140110150Y-39670628D01*
X140081746Y-39657194D01*
X140054796Y-39641041D01*
X140029558Y-39622323D01*
X140006277Y-39601223D01*
X139985177Y-39577942D01*
X139966459Y-39552704D01*
X139950306Y-39525754D01*
X139936872Y-39497350D01*
X139926287Y-39467766D01*
X139918652Y-39437287D01*
X139914042Y-39406207D01*
X139912500Y-39374824D01*
X139912500Y-37865176D01*
X139914042Y-37833793D01*
X139918652Y-37802713D01*
X139926287Y-37772234D01*
X139936872Y-37742650D01*
X139950306Y-37714246D01*
X139966459Y-37687296D01*
X139985177Y-37662058D01*
X140006277Y-37638777D01*
X140029558Y-37617677D01*
X140054796Y-37598959D01*
X140081746Y-37582806D01*
X140110150Y-37569372D01*
X140139734Y-37558787D01*
X140170213Y-37551152D01*
X140201293Y-37546542D01*
X140232676Y-37545000D01*
X141417324Y-37545000D01*
X141448707Y-37546542D01*
X141448707Y-37546542D01*
G37*
D19*
X140825000Y-38620000D03*
G04 #@! TD*
D18*
G04 #@! TO.C,D7*
G36*
X50961207Y-56596542D02*
X50992287Y-56601152D01*
X51022766Y-56608787D01*
X51052350Y-56619372D01*
X51080754Y-56632806D01*
X51107704Y-56648959D01*
X51132942Y-56667677D01*
X51156223Y-56688777D01*
X51177323Y-56712058D01*
X51196041Y-56737296D01*
X51212194Y-56764246D01*
X51225628Y-56792650D01*
X51236213Y-56822234D01*
X51243848Y-56852713D01*
X51248458Y-56883793D01*
X51250000Y-56915176D01*
X51250000Y-58424824D01*
X51248458Y-58456207D01*
X51243848Y-58487287D01*
X51236213Y-58517766D01*
X51225628Y-58547350D01*
X51212194Y-58575754D01*
X51196041Y-58602704D01*
X51177323Y-58627942D01*
X51156223Y-58651223D01*
X51132942Y-58672323D01*
X51107704Y-58691041D01*
X51080754Y-58707194D01*
X51052350Y-58720628D01*
X51022766Y-58731213D01*
X50992287Y-58738848D01*
X50961207Y-58743458D01*
X50929824Y-58745000D01*
X49745176Y-58745000D01*
X49713793Y-58743458D01*
X49682713Y-58738848D01*
X49652234Y-58731213D01*
X49622650Y-58720628D01*
X49594246Y-58707194D01*
X49567296Y-58691041D01*
X49542058Y-58672323D01*
X49518777Y-58651223D01*
X49497677Y-58627942D01*
X49478959Y-58602704D01*
X49462806Y-58575754D01*
X49449372Y-58547350D01*
X49438787Y-58517766D01*
X49431152Y-58487287D01*
X49426542Y-58456207D01*
X49425000Y-58424824D01*
X49425000Y-56915176D01*
X49426542Y-56883793D01*
X49431152Y-56852713D01*
X49438787Y-56822234D01*
X49449372Y-56792650D01*
X49462806Y-56764246D01*
X49478959Y-56737296D01*
X49497677Y-56712058D01*
X49518777Y-56688777D01*
X49542058Y-56667677D01*
X49567296Y-56648959D01*
X49594246Y-56632806D01*
X49622650Y-56619372D01*
X49652234Y-56608787D01*
X49682713Y-56601152D01*
X49713793Y-56596542D01*
X49745176Y-56595000D01*
X50929824Y-56595000D01*
X50961207Y-56596542D01*
X50961207Y-56596542D01*
G37*
D19*
X50337500Y-57670000D03*
D18*
G36*
X47986207Y-56596542D02*
X48017287Y-56601152D01*
X48047766Y-56608787D01*
X48077350Y-56619372D01*
X48105754Y-56632806D01*
X48132704Y-56648959D01*
X48157942Y-56667677D01*
X48181223Y-56688777D01*
X48202323Y-56712058D01*
X48221041Y-56737296D01*
X48237194Y-56764246D01*
X48250628Y-56792650D01*
X48261213Y-56822234D01*
X48268848Y-56852713D01*
X48273458Y-56883793D01*
X48275000Y-56915176D01*
X48275000Y-58424824D01*
X48273458Y-58456207D01*
X48268848Y-58487287D01*
X48261213Y-58517766D01*
X48250628Y-58547350D01*
X48237194Y-58575754D01*
X48221041Y-58602704D01*
X48202323Y-58627942D01*
X48181223Y-58651223D01*
X48157942Y-58672323D01*
X48132704Y-58691041D01*
X48105754Y-58707194D01*
X48077350Y-58720628D01*
X48047766Y-58731213D01*
X48017287Y-58738848D01*
X47986207Y-58743458D01*
X47954824Y-58745000D01*
X46770176Y-58745000D01*
X46738793Y-58743458D01*
X46707713Y-58738848D01*
X46677234Y-58731213D01*
X46647650Y-58720628D01*
X46619246Y-58707194D01*
X46592296Y-58691041D01*
X46567058Y-58672323D01*
X46543777Y-58651223D01*
X46522677Y-58627942D01*
X46503959Y-58602704D01*
X46487806Y-58575754D01*
X46474372Y-58547350D01*
X46463787Y-58517766D01*
X46456152Y-58487287D01*
X46451542Y-58456207D01*
X46450000Y-58424824D01*
X46450000Y-56915176D01*
X46451542Y-56883793D01*
X46456152Y-56852713D01*
X46463787Y-56822234D01*
X46474372Y-56792650D01*
X46487806Y-56764246D01*
X46503959Y-56737296D01*
X46522677Y-56712058D01*
X46543777Y-56688777D01*
X46567058Y-56667677D01*
X46592296Y-56648959D01*
X46619246Y-56632806D01*
X46647650Y-56619372D01*
X46677234Y-56608787D01*
X46707713Y-56601152D01*
X46738793Y-56596542D01*
X46770176Y-56595000D01*
X47954824Y-56595000D01*
X47986207Y-56596542D01*
X47986207Y-56596542D01*
G37*
D19*
X47362500Y-57670000D03*
G04 #@! TD*
D18*
G04 #@! TO.C,D8*
G36*
X74773707Y-56596542D02*
X74804787Y-56601152D01*
X74835266Y-56608787D01*
X74864850Y-56619372D01*
X74893254Y-56632806D01*
X74920204Y-56648959D01*
X74945442Y-56667677D01*
X74968723Y-56688777D01*
X74989823Y-56712058D01*
X75008541Y-56737296D01*
X75024694Y-56764246D01*
X75038128Y-56792650D01*
X75048713Y-56822234D01*
X75056348Y-56852713D01*
X75060958Y-56883793D01*
X75062500Y-56915176D01*
X75062500Y-58424824D01*
X75060958Y-58456207D01*
X75056348Y-58487287D01*
X75048713Y-58517766D01*
X75038128Y-58547350D01*
X75024694Y-58575754D01*
X75008541Y-58602704D01*
X74989823Y-58627942D01*
X74968723Y-58651223D01*
X74945442Y-58672323D01*
X74920204Y-58691041D01*
X74893254Y-58707194D01*
X74864850Y-58720628D01*
X74835266Y-58731213D01*
X74804787Y-58738848D01*
X74773707Y-58743458D01*
X74742324Y-58745000D01*
X73557676Y-58745000D01*
X73526293Y-58743458D01*
X73495213Y-58738848D01*
X73464734Y-58731213D01*
X73435150Y-58720628D01*
X73406746Y-58707194D01*
X73379796Y-58691041D01*
X73354558Y-58672323D01*
X73331277Y-58651223D01*
X73310177Y-58627942D01*
X73291459Y-58602704D01*
X73275306Y-58575754D01*
X73261872Y-58547350D01*
X73251287Y-58517766D01*
X73243652Y-58487287D01*
X73239042Y-58456207D01*
X73237500Y-58424824D01*
X73237500Y-56915176D01*
X73239042Y-56883793D01*
X73243652Y-56852713D01*
X73251287Y-56822234D01*
X73261872Y-56792650D01*
X73275306Y-56764246D01*
X73291459Y-56737296D01*
X73310177Y-56712058D01*
X73331277Y-56688777D01*
X73354558Y-56667677D01*
X73379796Y-56648959D01*
X73406746Y-56632806D01*
X73435150Y-56619372D01*
X73464734Y-56608787D01*
X73495213Y-56601152D01*
X73526293Y-56596542D01*
X73557676Y-56595000D01*
X74742324Y-56595000D01*
X74773707Y-56596542D01*
X74773707Y-56596542D01*
G37*
D19*
X74150000Y-57670000D03*
D18*
G36*
X71798707Y-56596542D02*
X71829787Y-56601152D01*
X71860266Y-56608787D01*
X71889850Y-56619372D01*
X71918254Y-56632806D01*
X71945204Y-56648959D01*
X71970442Y-56667677D01*
X71993723Y-56688777D01*
X72014823Y-56712058D01*
X72033541Y-56737296D01*
X72049694Y-56764246D01*
X72063128Y-56792650D01*
X72073713Y-56822234D01*
X72081348Y-56852713D01*
X72085958Y-56883793D01*
X72087500Y-56915176D01*
X72087500Y-58424824D01*
X72085958Y-58456207D01*
X72081348Y-58487287D01*
X72073713Y-58517766D01*
X72063128Y-58547350D01*
X72049694Y-58575754D01*
X72033541Y-58602704D01*
X72014823Y-58627942D01*
X71993723Y-58651223D01*
X71970442Y-58672323D01*
X71945204Y-58691041D01*
X71918254Y-58707194D01*
X71889850Y-58720628D01*
X71860266Y-58731213D01*
X71829787Y-58738848D01*
X71798707Y-58743458D01*
X71767324Y-58745000D01*
X70582676Y-58745000D01*
X70551293Y-58743458D01*
X70520213Y-58738848D01*
X70489734Y-58731213D01*
X70460150Y-58720628D01*
X70431746Y-58707194D01*
X70404796Y-58691041D01*
X70379558Y-58672323D01*
X70356277Y-58651223D01*
X70335177Y-58627942D01*
X70316459Y-58602704D01*
X70300306Y-58575754D01*
X70286872Y-58547350D01*
X70276287Y-58517766D01*
X70268652Y-58487287D01*
X70264042Y-58456207D01*
X70262500Y-58424824D01*
X70262500Y-56915176D01*
X70264042Y-56883793D01*
X70268652Y-56852713D01*
X70276287Y-56822234D01*
X70286872Y-56792650D01*
X70300306Y-56764246D01*
X70316459Y-56737296D01*
X70335177Y-56712058D01*
X70356277Y-56688777D01*
X70379558Y-56667677D01*
X70404796Y-56648959D01*
X70431746Y-56632806D01*
X70460150Y-56619372D01*
X70489734Y-56608787D01*
X70520213Y-56601152D01*
X70551293Y-56596542D01*
X70582676Y-56595000D01*
X71767324Y-56595000D01*
X71798707Y-56596542D01*
X71798707Y-56596542D01*
G37*
D19*
X71175000Y-57670000D03*
G04 #@! TD*
D18*
G04 #@! TO.C,D9*
G36*
X90848707Y-56596542D02*
X90879787Y-56601152D01*
X90910266Y-56608787D01*
X90939850Y-56619372D01*
X90968254Y-56632806D01*
X90995204Y-56648959D01*
X91020442Y-56667677D01*
X91043723Y-56688777D01*
X91064823Y-56712058D01*
X91083541Y-56737296D01*
X91099694Y-56764246D01*
X91113128Y-56792650D01*
X91123713Y-56822234D01*
X91131348Y-56852713D01*
X91135958Y-56883793D01*
X91137500Y-56915176D01*
X91137500Y-58424824D01*
X91135958Y-58456207D01*
X91131348Y-58487287D01*
X91123713Y-58517766D01*
X91113128Y-58547350D01*
X91099694Y-58575754D01*
X91083541Y-58602704D01*
X91064823Y-58627942D01*
X91043723Y-58651223D01*
X91020442Y-58672323D01*
X90995204Y-58691041D01*
X90968254Y-58707194D01*
X90939850Y-58720628D01*
X90910266Y-58731213D01*
X90879787Y-58738848D01*
X90848707Y-58743458D01*
X90817324Y-58745000D01*
X89632676Y-58745000D01*
X89601293Y-58743458D01*
X89570213Y-58738848D01*
X89539734Y-58731213D01*
X89510150Y-58720628D01*
X89481746Y-58707194D01*
X89454796Y-58691041D01*
X89429558Y-58672323D01*
X89406277Y-58651223D01*
X89385177Y-58627942D01*
X89366459Y-58602704D01*
X89350306Y-58575754D01*
X89336872Y-58547350D01*
X89326287Y-58517766D01*
X89318652Y-58487287D01*
X89314042Y-58456207D01*
X89312500Y-58424824D01*
X89312500Y-56915176D01*
X89314042Y-56883793D01*
X89318652Y-56852713D01*
X89326287Y-56822234D01*
X89336872Y-56792650D01*
X89350306Y-56764246D01*
X89366459Y-56737296D01*
X89385177Y-56712058D01*
X89406277Y-56688777D01*
X89429558Y-56667677D01*
X89454796Y-56648959D01*
X89481746Y-56632806D01*
X89510150Y-56619372D01*
X89539734Y-56608787D01*
X89570213Y-56601152D01*
X89601293Y-56596542D01*
X89632676Y-56595000D01*
X90817324Y-56595000D01*
X90848707Y-56596542D01*
X90848707Y-56596542D01*
G37*
D19*
X90225000Y-57670000D03*
D18*
G36*
X93823707Y-56596542D02*
X93854787Y-56601152D01*
X93885266Y-56608787D01*
X93914850Y-56619372D01*
X93943254Y-56632806D01*
X93970204Y-56648959D01*
X93995442Y-56667677D01*
X94018723Y-56688777D01*
X94039823Y-56712058D01*
X94058541Y-56737296D01*
X94074694Y-56764246D01*
X94088128Y-56792650D01*
X94098713Y-56822234D01*
X94106348Y-56852713D01*
X94110958Y-56883793D01*
X94112500Y-56915176D01*
X94112500Y-58424824D01*
X94110958Y-58456207D01*
X94106348Y-58487287D01*
X94098713Y-58517766D01*
X94088128Y-58547350D01*
X94074694Y-58575754D01*
X94058541Y-58602704D01*
X94039823Y-58627942D01*
X94018723Y-58651223D01*
X93995442Y-58672323D01*
X93970204Y-58691041D01*
X93943254Y-58707194D01*
X93914850Y-58720628D01*
X93885266Y-58731213D01*
X93854787Y-58738848D01*
X93823707Y-58743458D01*
X93792324Y-58745000D01*
X92607676Y-58745000D01*
X92576293Y-58743458D01*
X92545213Y-58738848D01*
X92514734Y-58731213D01*
X92485150Y-58720628D01*
X92456746Y-58707194D01*
X92429796Y-58691041D01*
X92404558Y-58672323D01*
X92381277Y-58651223D01*
X92360177Y-58627942D01*
X92341459Y-58602704D01*
X92325306Y-58575754D01*
X92311872Y-58547350D01*
X92301287Y-58517766D01*
X92293652Y-58487287D01*
X92289042Y-58456207D01*
X92287500Y-58424824D01*
X92287500Y-56915176D01*
X92289042Y-56883793D01*
X92293652Y-56852713D01*
X92301287Y-56822234D01*
X92311872Y-56792650D01*
X92325306Y-56764246D01*
X92341459Y-56737296D01*
X92360177Y-56712058D01*
X92381277Y-56688777D01*
X92404558Y-56667677D01*
X92429796Y-56648959D01*
X92456746Y-56632806D01*
X92485150Y-56619372D01*
X92514734Y-56608787D01*
X92545213Y-56601152D01*
X92576293Y-56596542D01*
X92607676Y-56595000D01*
X93792324Y-56595000D01*
X93823707Y-56596542D01*
X93823707Y-56596542D01*
G37*
D19*
X93200000Y-57670000D03*
G04 #@! TD*
D18*
G04 #@! TO.C,D10*
G36*
X109898707Y-56596542D02*
X109929787Y-56601152D01*
X109960266Y-56608787D01*
X109989850Y-56619372D01*
X110018254Y-56632806D01*
X110045204Y-56648959D01*
X110070442Y-56667677D01*
X110093723Y-56688777D01*
X110114823Y-56712058D01*
X110133541Y-56737296D01*
X110149694Y-56764246D01*
X110163128Y-56792650D01*
X110173713Y-56822234D01*
X110181348Y-56852713D01*
X110185958Y-56883793D01*
X110187500Y-56915176D01*
X110187500Y-58424824D01*
X110185958Y-58456207D01*
X110181348Y-58487287D01*
X110173713Y-58517766D01*
X110163128Y-58547350D01*
X110149694Y-58575754D01*
X110133541Y-58602704D01*
X110114823Y-58627942D01*
X110093723Y-58651223D01*
X110070442Y-58672323D01*
X110045204Y-58691041D01*
X110018254Y-58707194D01*
X109989850Y-58720628D01*
X109960266Y-58731213D01*
X109929787Y-58738848D01*
X109898707Y-58743458D01*
X109867324Y-58745000D01*
X108682676Y-58745000D01*
X108651293Y-58743458D01*
X108620213Y-58738848D01*
X108589734Y-58731213D01*
X108560150Y-58720628D01*
X108531746Y-58707194D01*
X108504796Y-58691041D01*
X108479558Y-58672323D01*
X108456277Y-58651223D01*
X108435177Y-58627942D01*
X108416459Y-58602704D01*
X108400306Y-58575754D01*
X108386872Y-58547350D01*
X108376287Y-58517766D01*
X108368652Y-58487287D01*
X108364042Y-58456207D01*
X108362500Y-58424824D01*
X108362500Y-56915176D01*
X108364042Y-56883793D01*
X108368652Y-56852713D01*
X108376287Y-56822234D01*
X108386872Y-56792650D01*
X108400306Y-56764246D01*
X108416459Y-56737296D01*
X108435177Y-56712058D01*
X108456277Y-56688777D01*
X108479558Y-56667677D01*
X108504796Y-56648959D01*
X108531746Y-56632806D01*
X108560150Y-56619372D01*
X108589734Y-56608787D01*
X108620213Y-56601152D01*
X108651293Y-56596542D01*
X108682676Y-56595000D01*
X109867324Y-56595000D01*
X109898707Y-56596542D01*
X109898707Y-56596542D01*
G37*
D19*
X109275000Y-57670000D03*
D18*
G36*
X112873707Y-56596542D02*
X112904787Y-56601152D01*
X112935266Y-56608787D01*
X112964850Y-56619372D01*
X112993254Y-56632806D01*
X113020204Y-56648959D01*
X113045442Y-56667677D01*
X113068723Y-56688777D01*
X113089823Y-56712058D01*
X113108541Y-56737296D01*
X113124694Y-56764246D01*
X113138128Y-56792650D01*
X113148713Y-56822234D01*
X113156348Y-56852713D01*
X113160958Y-56883793D01*
X113162500Y-56915176D01*
X113162500Y-58424824D01*
X113160958Y-58456207D01*
X113156348Y-58487287D01*
X113148713Y-58517766D01*
X113138128Y-58547350D01*
X113124694Y-58575754D01*
X113108541Y-58602704D01*
X113089823Y-58627942D01*
X113068723Y-58651223D01*
X113045442Y-58672323D01*
X113020204Y-58691041D01*
X112993254Y-58707194D01*
X112964850Y-58720628D01*
X112935266Y-58731213D01*
X112904787Y-58738848D01*
X112873707Y-58743458D01*
X112842324Y-58745000D01*
X111657676Y-58745000D01*
X111626293Y-58743458D01*
X111595213Y-58738848D01*
X111564734Y-58731213D01*
X111535150Y-58720628D01*
X111506746Y-58707194D01*
X111479796Y-58691041D01*
X111454558Y-58672323D01*
X111431277Y-58651223D01*
X111410177Y-58627942D01*
X111391459Y-58602704D01*
X111375306Y-58575754D01*
X111361872Y-58547350D01*
X111351287Y-58517766D01*
X111343652Y-58487287D01*
X111339042Y-58456207D01*
X111337500Y-58424824D01*
X111337500Y-56915176D01*
X111339042Y-56883793D01*
X111343652Y-56852713D01*
X111351287Y-56822234D01*
X111361872Y-56792650D01*
X111375306Y-56764246D01*
X111391459Y-56737296D01*
X111410177Y-56712058D01*
X111431277Y-56688777D01*
X111454558Y-56667677D01*
X111479796Y-56648959D01*
X111506746Y-56632806D01*
X111535150Y-56619372D01*
X111564734Y-56608787D01*
X111595213Y-56601152D01*
X111626293Y-56596542D01*
X111657676Y-56595000D01*
X112842324Y-56595000D01*
X112873707Y-56596542D01*
X112873707Y-56596542D01*
G37*
D19*
X112250000Y-57670000D03*
G04 #@! TD*
D18*
G04 #@! TO.C,D11*
G36*
X131923707Y-56596542D02*
X131954787Y-56601152D01*
X131985266Y-56608787D01*
X132014850Y-56619372D01*
X132043254Y-56632806D01*
X132070204Y-56648959D01*
X132095442Y-56667677D01*
X132118723Y-56688777D01*
X132139823Y-56712058D01*
X132158541Y-56737296D01*
X132174694Y-56764246D01*
X132188128Y-56792650D01*
X132198713Y-56822234D01*
X132206348Y-56852713D01*
X132210958Y-56883793D01*
X132212500Y-56915176D01*
X132212500Y-58424824D01*
X132210958Y-58456207D01*
X132206348Y-58487287D01*
X132198713Y-58517766D01*
X132188128Y-58547350D01*
X132174694Y-58575754D01*
X132158541Y-58602704D01*
X132139823Y-58627942D01*
X132118723Y-58651223D01*
X132095442Y-58672323D01*
X132070204Y-58691041D01*
X132043254Y-58707194D01*
X132014850Y-58720628D01*
X131985266Y-58731213D01*
X131954787Y-58738848D01*
X131923707Y-58743458D01*
X131892324Y-58745000D01*
X130707676Y-58745000D01*
X130676293Y-58743458D01*
X130645213Y-58738848D01*
X130614734Y-58731213D01*
X130585150Y-58720628D01*
X130556746Y-58707194D01*
X130529796Y-58691041D01*
X130504558Y-58672323D01*
X130481277Y-58651223D01*
X130460177Y-58627942D01*
X130441459Y-58602704D01*
X130425306Y-58575754D01*
X130411872Y-58547350D01*
X130401287Y-58517766D01*
X130393652Y-58487287D01*
X130389042Y-58456207D01*
X130387500Y-58424824D01*
X130387500Y-56915176D01*
X130389042Y-56883793D01*
X130393652Y-56852713D01*
X130401287Y-56822234D01*
X130411872Y-56792650D01*
X130425306Y-56764246D01*
X130441459Y-56737296D01*
X130460177Y-56712058D01*
X130481277Y-56688777D01*
X130504558Y-56667677D01*
X130529796Y-56648959D01*
X130556746Y-56632806D01*
X130585150Y-56619372D01*
X130614734Y-56608787D01*
X130645213Y-56601152D01*
X130676293Y-56596542D01*
X130707676Y-56595000D01*
X131892324Y-56595000D01*
X131923707Y-56596542D01*
X131923707Y-56596542D01*
G37*
D19*
X131300000Y-57670000D03*
D18*
G36*
X128948707Y-56596542D02*
X128979787Y-56601152D01*
X129010266Y-56608787D01*
X129039850Y-56619372D01*
X129068254Y-56632806D01*
X129095204Y-56648959D01*
X129120442Y-56667677D01*
X129143723Y-56688777D01*
X129164823Y-56712058D01*
X129183541Y-56737296D01*
X129199694Y-56764246D01*
X129213128Y-56792650D01*
X129223713Y-56822234D01*
X129231348Y-56852713D01*
X129235958Y-56883793D01*
X129237500Y-56915176D01*
X129237500Y-58424824D01*
X129235958Y-58456207D01*
X129231348Y-58487287D01*
X129223713Y-58517766D01*
X129213128Y-58547350D01*
X129199694Y-58575754D01*
X129183541Y-58602704D01*
X129164823Y-58627942D01*
X129143723Y-58651223D01*
X129120442Y-58672323D01*
X129095204Y-58691041D01*
X129068254Y-58707194D01*
X129039850Y-58720628D01*
X129010266Y-58731213D01*
X128979787Y-58738848D01*
X128948707Y-58743458D01*
X128917324Y-58745000D01*
X127732676Y-58745000D01*
X127701293Y-58743458D01*
X127670213Y-58738848D01*
X127639734Y-58731213D01*
X127610150Y-58720628D01*
X127581746Y-58707194D01*
X127554796Y-58691041D01*
X127529558Y-58672323D01*
X127506277Y-58651223D01*
X127485177Y-58627942D01*
X127466459Y-58602704D01*
X127450306Y-58575754D01*
X127436872Y-58547350D01*
X127426287Y-58517766D01*
X127418652Y-58487287D01*
X127414042Y-58456207D01*
X127412500Y-58424824D01*
X127412500Y-56915176D01*
X127414042Y-56883793D01*
X127418652Y-56852713D01*
X127426287Y-56822234D01*
X127436872Y-56792650D01*
X127450306Y-56764246D01*
X127466459Y-56737296D01*
X127485177Y-56712058D01*
X127506277Y-56688777D01*
X127529558Y-56667677D01*
X127554796Y-56648959D01*
X127581746Y-56632806D01*
X127610150Y-56619372D01*
X127639734Y-56608787D01*
X127670213Y-56601152D01*
X127701293Y-56596542D01*
X127732676Y-56595000D01*
X128917324Y-56595000D01*
X128948707Y-56596542D01*
X128948707Y-56596542D01*
G37*
D19*
X128325000Y-57670000D03*
G04 #@! TD*
D18*
G04 #@! TO.C,D12*
G36*
X147998707Y-56596542D02*
X148029787Y-56601152D01*
X148060266Y-56608787D01*
X148089850Y-56619372D01*
X148118254Y-56632806D01*
X148145204Y-56648959D01*
X148170442Y-56667677D01*
X148193723Y-56688777D01*
X148214823Y-56712058D01*
X148233541Y-56737296D01*
X148249694Y-56764246D01*
X148263128Y-56792650D01*
X148273713Y-56822234D01*
X148281348Y-56852713D01*
X148285958Y-56883793D01*
X148287500Y-56915176D01*
X148287500Y-58424824D01*
X148285958Y-58456207D01*
X148281348Y-58487287D01*
X148273713Y-58517766D01*
X148263128Y-58547350D01*
X148249694Y-58575754D01*
X148233541Y-58602704D01*
X148214823Y-58627942D01*
X148193723Y-58651223D01*
X148170442Y-58672323D01*
X148145204Y-58691041D01*
X148118254Y-58707194D01*
X148089850Y-58720628D01*
X148060266Y-58731213D01*
X148029787Y-58738848D01*
X147998707Y-58743458D01*
X147967324Y-58745000D01*
X146782676Y-58745000D01*
X146751293Y-58743458D01*
X146720213Y-58738848D01*
X146689734Y-58731213D01*
X146660150Y-58720628D01*
X146631746Y-58707194D01*
X146604796Y-58691041D01*
X146579558Y-58672323D01*
X146556277Y-58651223D01*
X146535177Y-58627942D01*
X146516459Y-58602704D01*
X146500306Y-58575754D01*
X146486872Y-58547350D01*
X146476287Y-58517766D01*
X146468652Y-58487287D01*
X146464042Y-58456207D01*
X146462500Y-58424824D01*
X146462500Y-56915176D01*
X146464042Y-56883793D01*
X146468652Y-56852713D01*
X146476287Y-56822234D01*
X146486872Y-56792650D01*
X146500306Y-56764246D01*
X146516459Y-56737296D01*
X146535177Y-56712058D01*
X146556277Y-56688777D01*
X146579558Y-56667677D01*
X146604796Y-56648959D01*
X146631746Y-56632806D01*
X146660150Y-56619372D01*
X146689734Y-56608787D01*
X146720213Y-56601152D01*
X146751293Y-56596542D01*
X146782676Y-56595000D01*
X147967324Y-56595000D01*
X147998707Y-56596542D01*
X147998707Y-56596542D01*
G37*
D19*
X147375000Y-57670000D03*
D18*
G36*
X150973707Y-56596542D02*
X151004787Y-56601152D01*
X151035266Y-56608787D01*
X151064850Y-56619372D01*
X151093254Y-56632806D01*
X151120204Y-56648959D01*
X151145442Y-56667677D01*
X151168723Y-56688777D01*
X151189823Y-56712058D01*
X151208541Y-56737296D01*
X151224694Y-56764246D01*
X151238128Y-56792650D01*
X151248713Y-56822234D01*
X151256348Y-56852713D01*
X151260958Y-56883793D01*
X151262500Y-56915176D01*
X151262500Y-58424824D01*
X151260958Y-58456207D01*
X151256348Y-58487287D01*
X151248713Y-58517766D01*
X151238128Y-58547350D01*
X151224694Y-58575754D01*
X151208541Y-58602704D01*
X151189823Y-58627942D01*
X151168723Y-58651223D01*
X151145442Y-58672323D01*
X151120204Y-58691041D01*
X151093254Y-58707194D01*
X151064850Y-58720628D01*
X151035266Y-58731213D01*
X151004787Y-58738848D01*
X150973707Y-58743458D01*
X150942324Y-58745000D01*
X149757676Y-58745000D01*
X149726293Y-58743458D01*
X149695213Y-58738848D01*
X149664734Y-58731213D01*
X149635150Y-58720628D01*
X149606746Y-58707194D01*
X149579796Y-58691041D01*
X149554558Y-58672323D01*
X149531277Y-58651223D01*
X149510177Y-58627942D01*
X149491459Y-58602704D01*
X149475306Y-58575754D01*
X149461872Y-58547350D01*
X149451287Y-58517766D01*
X149443652Y-58487287D01*
X149439042Y-58456207D01*
X149437500Y-58424824D01*
X149437500Y-56915176D01*
X149439042Y-56883793D01*
X149443652Y-56852713D01*
X149451287Y-56822234D01*
X149461872Y-56792650D01*
X149475306Y-56764246D01*
X149491459Y-56737296D01*
X149510177Y-56712058D01*
X149531277Y-56688777D01*
X149554558Y-56667677D01*
X149579796Y-56648959D01*
X149606746Y-56632806D01*
X149635150Y-56619372D01*
X149664734Y-56608787D01*
X149695213Y-56601152D01*
X149726293Y-56596542D01*
X149757676Y-56595000D01*
X150942324Y-56595000D01*
X150973707Y-56596542D01*
X150973707Y-56596542D01*
G37*
D19*
X150350000Y-57670000D03*
G04 #@! TD*
D18*
G04 #@! TO.C,D13*
G36*
X53342107Y-75646542D02*
X53373187Y-75651152D01*
X53403666Y-75658787D01*
X53433250Y-75669372D01*
X53461654Y-75682806D01*
X53488604Y-75698959D01*
X53513842Y-75717677D01*
X53537123Y-75738777D01*
X53558223Y-75762058D01*
X53576941Y-75787296D01*
X53593094Y-75814246D01*
X53606528Y-75842650D01*
X53617113Y-75872234D01*
X53624748Y-75902713D01*
X53629358Y-75933793D01*
X53630900Y-75965176D01*
X53630900Y-77474824D01*
X53629358Y-77506207D01*
X53624748Y-77537287D01*
X53617113Y-77567766D01*
X53606528Y-77597350D01*
X53593094Y-77625754D01*
X53576941Y-77652704D01*
X53558223Y-77677942D01*
X53537123Y-77701223D01*
X53513842Y-77722323D01*
X53488604Y-77741041D01*
X53461654Y-77757194D01*
X53433250Y-77770628D01*
X53403666Y-77781213D01*
X53373187Y-77788848D01*
X53342107Y-77793458D01*
X53310724Y-77795000D01*
X52126076Y-77795000D01*
X52094693Y-77793458D01*
X52063613Y-77788848D01*
X52033134Y-77781213D01*
X52003550Y-77770628D01*
X51975146Y-77757194D01*
X51948196Y-77741041D01*
X51922958Y-77722323D01*
X51899677Y-77701223D01*
X51878577Y-77677942D01*
X51859859Y-77652704D01*
X51843706Y-77625754D01*
X51830272Y-77597350D01*
X51819687Y-77567766D01*
X51812052Y-77537287D01*
X51807442Y-77506207D01*
X51805900Y-77474824D01*
X51805900Y-75965176D01*
X51807442Y-75933793D01*
X51812052Y-75902713D01*
X51819687Y-75872234D01*
X51830272Y-75842650D01*
X51843706Y-75814246D01*
X51859859Y-75787296D01*
X51878577Y-75762058D01*
X51899677Y-75738777D01*
X51922958Y-75717677D01*
X51948196Y-75698959D01*
X51975146Y-75682806D01*
X52003550Y-75669372D01*
X52033134Y-75658787D01*
X52063613Y-75651152D01*
X52094693Y-75646542D01*
X52126076Y-75645000D01*
X53310724Y-75645000D01*
X53342107Y-75646542D01*
X53342107Y-75646542D01*
G37*
D19*
X52718400Y-76720000D03*
D18*
G36*
X50367107Y-75646542D02*
X50398187Y-75651152D01*
X50428666Y-75658787D01*
X50458250Y-75669372D01*
X50486654Y-75682806D01*
X50513604Y-75698959D01*
X50538842Y-75717677D01*
X50562123Y-75738777D01*
X50583223Y-75762058D01*
X50601941Y-75787296D01*
X50618094Y-75814246D01*
X50631528Y-75842650D01*
X50642113Y-75872234D01*
X50649748Y-75902713D01*
X50654358Y-75933793D01*
X50655900Y-75965176D01*
X50655900Y-77474824D01*
X50654358Y-77506207D01*
X50649748Y-77537287D01*
X50642113Y-77567766D01*
X50631528Y-77597350D01*
X50618094Y-77625754D01*
X50601941Y-77652704D01*
X50583223Y-77677942D01*
X50562123Y-77701223D01*
X50538842Y-77722323D01*
X50513604Y-77741041D01*
X50486654Y-77757194D01*
X50458250Y-77770628D01*
X50428666Y-77781213D01*
X50398187Y-77788848D01*
X50367107Y-77793458D01*
X50335724Y-77795000D01*
X49151076Y-77795000D01*
X49119693Y-77793458D01*
X49088613Y-77788848D01*
X49058134Y-77781213D01*
X49028550Y-77770628D01*
X49000146Y-77757194D01*
X48973196Y-77741041D01*
X48947958Y-77722323D01*
X48924677Y-77701223D01*
X48903577Y-77677942D01*
X48884859Y-77652704D01*
X48868706Y-77625754D01*
X48855272Y-77597350D01*
X48844687Y-77567766D01*
X48837052Y-77537287D01*
X48832442Y-77506207D01*
X48830900Y-77474824D01*
X48830900Y-75965176D01*
X48832442Y-75933793D01*
X48837052Y-75902713D01*
X48844687Y-75872234D01*
X48855272Y-75842650D01*
X48868706Y-75814246D01*
X48884859Y-75787296D01*
X48903577Y-75762058D01*
X48924677Y-75738777D01*
X48947958Y-75717677D01*
X48973196Y-75698959D01*
X49000146Y-75682806D01*
X49028550Y-75669372D01*
X49058134Y-75658787D01*
X49088613Y-75651152D01*
X49119693Y-75646542D01*
X49151076Y-75645000D01*
X50335724Y-75645000D01*
X50367107Y-75646542D01*
X50367107Y-75646542D01*
G37*
D19*
X49743400Y-76720000D03*
G04 #@! TD*
D18*
G04 #@! TO.C,D14*
G36*
X79535707Y-75646542D02*
X79566787Y-75651152D01*
X79597266Y-75658787D01*
X79626850Y-75669372D01*
X79655254Y-75682806D01*
X79682204Y-75698959D01*
X79707442Y-75717677D01*
X79730723Y-75738777D01*
X79751823Y-75762058D01*
X79770541Y-75787296D01*
X79786694Y-75814246D01*
X79800128Y-75842650D01*
X79810713Y-75872234D01*
X79818348Y-75902713D01*
X79822958Y-75933793D01*
X79824500Y-75965176D01*
X79824500Y-77474824D01*
X79822958Y-77506207D01*
X79818348Y-77537287D01*
X79810713Y-77567766D01*
X79800128Y-77597350D01*
X79786694Y-77625754D01*
X79770541Y-77652704D01*
X79751823Y-77677942D01*
X79730723Y-77701223D01*
X79707442Y-77722323D01*
X79682204Y-77741041D01*
X79655254Y-77757194D01*
X79626850Y-77770628D01*
X79597266Y-77781213D01*
X79566787Y-77788848D01*
X79535707Y-77793458D01*
X79504324Y-77795000D01*
X78319676Y-77795000D01*
X78288293Y-77793458D01*
X78257213Y-77788848D01*
X78226734Y-77781213D01*
X78197150Y-77770628D01*
X78168746Y-77757194D01*
X78141796Y-77741041D01*
X78116558Y-77722323D01*
X78093277Y-77701223D01*
X78072177Y-77677942D01*
X78053459Y-77652704D01*
X78037306Y-77625754D01*
X78023872Y-77597350D01*
X78013287Y-77567766D01*
X78005652Y-77537287D01*
X78001042Y-77506207D01*
X77999500Y-77474824D01*
X77999500Y-75965176D01*
X78001042Y-75933793D01*
X78005652Y-75902713D01*
X78013287Y-75872234D01*
X78023872Y-75842650D01*
X78037306Y-75814246D01*
X78053459Y-75787296D01*
X78072177Y-75762058D01*
X78093277Y-75738777D01*
X78116558Y-75717677D01*
X78141796Y-75698959D01*
X78168746Y-75682806D01*
X78197150Y-75669372D01*
X78226734Y-75658787D01*
X78257213Y-75651152D01*
X78288293Y-75646542D01*
X78319676Y-75645000D01*
X79504324Y-75645000D01*
X79535707Y-75646542D01*
X79535707Y-75646542D01*
G37*
D19*
X78912000Y-76720000D03*
D18*
G36*
X76560707Y-75646542D02*
X76591787Y-75651152D01*
X76622266Y-75658787D01*
X76651850Y-75669372D01*
X76680254Y-75682806D01*
X76707204Y-75698959D01*
X76732442Y-75717677D01*
X76755723Y-75738777D01*
X76776823Y-75762058D01*
X76795541Y-75787296D01*
X76811694Y-75814246D01*
X76825128Y-75842650D01*
X76835713Y-75872234D01*
X76843348Y-75902713D01*
X76847958Y-75933793D01*
X76849500Y-75965176D01*
X76849500Y-77474824D01*
X76847958Y-77506207D01*
X76843348Y-77537287D01*
X76835713Y-77567766D01*
X76825128Y-77597350D01*
X76811694Y-77625754D01*
X76795541Y-77652704D01*
X76776823Y-77677942D01*
X76755723Y-77701223D01*
X76732442Y-77722323D01*
X76707204Y-77741041D01*
X76680254Y-77757194D01*
X76651850Y-77770628D01*
X76622266Y-77781213D01*
X76591787Y-77788848D01*
X76560707Y-77793458D01*
X76529324Y-77795000D01*
X75344676Y-77795000D01*
X75313293Y-77793458D01*
X75282213Y-77788848D01*
X75251734Y-77781213D01*
X75222150Y-77770628D01*
X75193746Y-77757194D01*
X75166796Y-77741041D01*
X75141558Y-77722323D01*
X75118277Y-77701223D01*
X75097177Y-77677942D01*
X75078459Y-77652704D01*
X75062306Y-77625754D01*
X75048872Y-77597350D01*
X75038287Y-77567766D01*
X75030652Y-77537287D01*
X75026042Y-77506207D01*
X75024500Y-77474824D01*
X75024500Y-75965176D01*
X75026042Y-75933793D01*
X75030652Y-75902713D01*
X75038287Y-75872234D01*
X75048872Y-75842650D01*
X75062306Y-75814246D01*
X75078459Y-75787296D01*
X75097177Y-75762058D01*
X75118277Y-75738777D01*
X75141558Y-75717677D01*
X75166796Y-75698959D01*
X75193746Y-75682806D01*
X75222150Y-75669372D01*
X75251734Y-75658787D01*
X75282213Y-75651152D01*
X75313293Y-75646542D01*
X75344676Y-75645000D01*
X76529324Y-75645000D01*
X76560707Y-75646542D01*
X76560707Y-75646542D01*
G37*
D19*
X75937000Y-76720000D03*
G04 #@! TD*
D18*
G04 #@! TO.C,D15*
G36*
X95610707Y-75646542D02*
X95641787Y-75651152D01*
X95672266Y-75658787D01*
X95701850Y-75669372D01*
X95730254Y-75682806D01*
X95757204Y-75698959D01*
X95782442Y-75717677D01*
X95805723Y-75738777D01*
X95826823Y-75762058D01*
X95845541Y-75787296D01*
X95861694Y-75814246D01*
X95875128Y-75842650D01*
X95885713Y-75872234D01*
X95893348Y-75902713D01*
X95897958Y-75933793D01*
X95899500Y-75965176D01*
X95899500Y-77474824D01*
X95897958Y-77506207D01*
X95893348Y-77537287D01*
X95885713Y-77567766D01*
X95875128Y-77597350D01*
X95861694Y-77625754D01*
X95845541Y-77652704D01*
X95826823Y-77677942D01*
X95805723Y-77701223D01*
X95782442Y-77722323D01*
X95757204Y-77741041D01*
X95730254Y-77757194D01*
X95701850Y-77770628D01*
X95672266Y-77781213D01*
X95641787Y-77788848D01*
X95610707Y-77793458D01*
X95579324Y-77795000D01*
X94394676Y-77795000D01*
X94363293Y-77793458D01*
X94332213Y-77788848D01*
X94301734Y-77781213D01*
X94272150Y-77770628D01*
X94243746Y-77757194D01*
X94216796Y-77741041D01*
X94191558Y-77722323D01*
X94168277Y-77701223D01*
X94147177Y-77677942D01*
X94128459Y-77652704D01*
X94112306Y-77625754D01*
X94098872Y-77597350D01*
X94088287Y-77567766D01*
X94080652Y-77537287D01*
X94076042Y-77506207D01*
X94074500Y-77474824D01*
X94074500Y-75965176D01*
X94076042Y-75933793D01*
X94080652Y-75902713D01*
X94088287Y-75872234D01*
X94098872Y-75842650D01*
X94112306Y-75814246D01*
X94128459Y-75787296D01*
X94147177Y-75762058D01*
X94168277Y-75738777D01*
X94191558Y-75717677D01*
X94216796Y-75698959D01*
X94243746Y-75682806D01*
X94272150Y-75669372D01*
X94301734Y-75658787D01*
X94332213Y-75651152D01*
X94363293Y-75646542D01*
X94394676Y-75645000D01*
X95579324Y-75645000D01*
X95610707Y-75646542D01*
X95610707Y-75646542D01*
G37*
D19*
X94987000Y-76720000D03*
D18*
G36*
X98585707Y-75646542D02*
X98616787Y-75651152D01*
X98647266Y-75658787D01*
X98676850Y-75669372D01*
X98705254Y-75682806D01*
X98732204Y-75698959D01*
X98757442Y-75717677D01*
X98780723Y-75738777D01*
X98801823Y-75762058D01*
X98820541Y-75787296D01*
X98836694Y-75814246D01*
X98850128Y-75842650D01*
X98860713Y-75872234D01*
X98868348Y-75902713D01*
X98872958Y-75933793D01*
X98874500Y-75965176D01*
X98874500Y-77474824D01*
X98872958Y-77506207D01*
X98868348Y-77537287D01*
X98860713Y-77567766D01*
X98850128Y-77597350D01*
X98836694Y-77625754D01*
X98820541Y-77652704D01*
X98801823Y-77677942D01*
X98780723Y-77701223D01*
X98757442Y-77722323D01*
X98732204Y-77741041D01*
X98705254Y-77757194D01*
X98676850Y-77770628D01*
X98647266Y-77781213D01*
X98616787Y-77788848D01*
X98585707Y-77793458D01*
X98554324Y-77795000D01*
X97369676Y-77795000D01*
X97338293Y-77793458D01*
X97307213Y-77788848D01*
X97276734Y-77781213D01*
X97247150Y-77770628D01*
X97218746Y-77757194D01*
X97191796Y-77741041D01*
X97166558Y-77722323D01*
X97143277Y-77701223D01*
X97122177Y-77677942D01*
X97103459Y-77652704D01*
X97087306Y-77625754D01*
X97073872Y-77597350D01*
X97063287Y-77567766D01*
X97055652Y-77537287D01*
X97051042Y-77506207D01*
X97049500Y-77474824D01*
X97049500Y-75965176D01*
X97051042Y-75933793D01*
X97055652Y-75902713D01*
X97063287Y-75872234D01*
X97073872Y-75842650D01*
X97087306Y-75814246D01*
X97103459Y-75787296D01*
X97122177Y-75762058D01*
X97143277Y-75738777D01*
X97166558Y-75717677D01*
X97191796Y-75698959D01*
X97218746Y-75682806D01*
X97247150Y-75669372D01*
X97276734Y-75658787D01*
X97307213Y-75651152D01*
X97338293Y-75646542D01*
X97369676Y-75645000D01*
X98554324Y-75645000D01*
X98585707Y-75646542D01*
X98585707Y-75646542D01*
G37*
D19*
X97962000Y-76720000D03*
G04 #@! TD*
D18*
G04 #@! TO.C,D16*
G36*
X114660707Y-75646542D02*
X114691787Y-75651152D01*
X114722266Y-75658787D01*
X114751850Y-75669372D01*
X114780254Y-75682806D01*
X114807204Y-75698959D01*
X114832442Y-75717677D01*
X114855723Y-75738777D01*
X114876823Y-75762058D01*
X114895541Y-75787296D01*
X114911694Y-75814246D01*
X114925128Y-75842650D01*
X114935713Y-75872234D01*
X114943348Y-75902713D01*
X114947958Y-75933793D01*
X114949500Y-75965176D01*
X114949500Y-77474824D01*
X114947958Y-77506207D01*
X114943348Y-77537287D01*
X114935713Y-77567766D01*
X114925128Y-77597350D01*
X114911694Y-77625754D01*
X114895541Y-77652704D01*
X114876823Y-77677942D01*
X114855723Y-77701223D01*
X114832442Y-77722323D01*
X114807204Y-77741041D01*
X114780254Y-77757194D01*
X114751850Y-77770628D01*
X114722266Y-77781213D01*
X114691787Y-77788848D01*
X114660707Y-77793458D01*
X114629324Y-77795000D01*
X113444676Y-77795000D01*
X113413293Y-77793458D01*
X113382213Y-77788848D01*
X113351734Y-77781213D01*
X113322150Y-77770628D01*
X113293746Y-77757194D01*
X113266796Y-77741041D01*
X113241558Y-77722323D01*
X113218277Y-77701223D01*
X113197177Y-77677942D01*
X113178459Y-77652704D01*
X113162306Y-77625754D01*
X113148872Y-77597350D01*
X113138287Y-77567766D01*
X113130652Y-77537287D01*
X113126042Y-77506207D01*
X113124500Y-77474824D01*
X113124500Y-75965176D01*
X113126042Y-75933793D01*
X113130652Y-75902713D01*
X113138287Y-75872234D01*
X113148872Y-75842650D01*
X113162306Y-75814246D01*
X113178459Y-75787296D01*
X113197177Y-75762058D01*
X113218277Y-75738777D01*
X113241558Y-75717677D01*
X113266796Y-75698959D01*
X113293746Y-75682806D01*
X113322150Y-75669372D01*
X113351734Y-75658787D01*
X113382213Y-75651152D01*
X113413293Y-75646542D01*
X113444676Y-75645000D01*
X114629324Y-75645000D01*
X114660707Y-75646542D01*
X114660707Y-75646542D01*
G37*
D19*
X114037000Y-76720000D03*
D18*
G36*
X117635707Y-75646542D02*
X117666787Y-75651152D01*
X117697266Y-75658787D01*
X117726850Y-75669372D01*
X117755254Y-75682806D01*
X117782204Y-75698959D01*
X117807442Y-75717677D01*
X117830723Y-75738777D01*
X117851823Y-75762058D01*
X117870541Y-75787296D01*
X117886694Y-75814246D01*
X117900128Y-75842650D01*
X117910713Y-75872234D01*
X117918348Y-75902713D01*
X117922958Y-75933793D01*
X117924500Y-75965176D01*
X117924500Y-77474824D01*
X117922958Y-77506207D01*
X117918348Y-77537287D01*
X117910713Y-77567766D01*
X117900128Y-77597350D01*
X117886694Y-77625754D01*
X117870541Y-77652704D01*
X117851823Y-77677942D01*
X117830723Y-77701223D01*
X117807442Y-77722323D01*
X117782204Y-77741041D01*
X117755254Y-77757194D01*
X117726850Y-77770628D01*
X117697266Y-77781213D01*
X117666787Y-77788848D01*
X117635707Y-77793458D01*
X117604324Y-77795000D01*
X116419676Y-77795000D01*
X116388293Y-77793458D01*
X116357213Y-77788848D01*
X116326734Y-77781213D01*
X116297150Y-77770628D01*
X116268746Y-77757194D01*
X116241796Y-77741041D01*
X116216558Y-77722323D01*
X116193277Y-77701223D01*
X116172177Y-77677942D01*
X116153459Y-77652704D01*
X116137306Y-77625754D01*
X116123872Y-77597350D01*
X116113287Y-77567766D01*
X116105652Y-77537287D01*
X116101042Y-77506207D01*
X116099500Y-77474824D01*
X116099500Y-75965176D01*
X116101042Y-75933793D01*
X116105652Y-75902713D01*
X116113287Y-75872234D01*
X116123872Y-75842650D01*
X116137306Y-75814246D01*
X116153459Y-75787296D01*
X116172177Y-75762058D01*
X116193277Y-75738777D01*
X116216558Y-75717677D01*
X116241796Y-75698959D01*
X116268746Y-75682806D01*
X116297150Y-75669372D01*
X116326734Y-75658787D01*
X116357213Y-75651152D01*
X116388293Y-75646542D01*
X116419676Y-75645000D01*
X117604324Y-75645000D01*
X117635707Y-75646542D01*
X117635707Y-75646542D01*
G37*
D19*
X117012000Y-76720000D03*
G04 #@! TD*
D18*
G04 #@! TO.C,D17*
G36*
X136685707Y-75646542D02*
X136716787Y-75651152D01*
X136747266Y-75658787D01*
X136776850Y-75669372D01*
X136805254Y-75682806D01*
X136832204Y-75698959D01*
X136857442Y-75717677D01*
X136880723Y-75738777D01*
X136901823Y-75762058D01*
X136920541Y-75787296D01*
X136936694Y-75814246D01*
X136950128Y-75842650D01*
X136960713Y-75872234D01*
X136968348Y-75902713D01*
X136972958Y-75933793D01*
X136974500Y-75965176D01*
X136974500Y-77474824D01*
X136972958Y-77506207D01*
X136968348Y-77537287D01*
X136960713Y-77567766D01*
X136950128Y-77597350D01*
X136936694Y-77625754D01*
X136920541Y-77652704D01*
X136901823Y-77677942D01*
X136880723Y-77701223D01*
X136857442Y-77722323D01*
X136832204Y-77741041D01*
X136805254Y-77757194D01*
X136776850Y-77770628D01*
X136747266Y-77781213D01*
X136716787Y-77788848D01*
X136685707Y-77793458D01*
X136654324Y-77795000D01*
X135469676Y-77795000D01*
X135438293Y-77793458D01*
X135407213Y-77788848D01*
X135376734Y-77781213D01*
X135347150Y-77770628D01*
X135318746Y-77757194D01*
X135291796Y-77741041D01*
X135266558Y-77722323D01*
X135243277Y-77701223D01*
X135222177Y-77677942D01*
X135203459Y-77652704D01*
X135187306Y-77625754D01*
X135173872Y-77597350D01*
X135163287Y-77567766D01*
X135155652Y-77537287D01*
X135151042Y-77506207D01*
X135149500Y-77474824D01*
X135149500Y-75965176D01*
X135151042Y-75933793D01*
X135155652Y-75902713D01*
X135163287Y-75872234D01*
X135173872Y-75842650D01*
X135187306Y-75814246D01*
X135203459Y-75787296D01*
X135222177Y-75762058D01*
X135243277Y-75738777D01*
X135266558Y-75717677D01*
X135291796Y-75698959D01*
X135318746Y-75682806D01*
X135347150Y-75669372D01*
X135376734Y-75658787D01*
X135407213Y-75651152D01*
X135438293Y-75646542D01*
X135469676Y-75645000D01*
X136654324Y-75645000D01*
X136685707Y-75646542D01*
X136685707Y-75646542D01*
G37*
D19*
X136062000Y-76720000D03*
D18*
G36*
X133710707Y-75646542D02*
X133741787Y-75651152D01*
X133772266Y-75658787D01*
X133801850Y-75669372D01*
X133830254Y-75682806D01*
X133857204Y-75698959D01*
X133882442Y-75717677D01*
X133905723Y-75738777D01*
X133926823Y-75762058D01*
X133945541Y-75787296D01*
X133961694Y-75814246D01*
X133975128Y-75842650D01*
X133985713Y-75872234D01*
X133993348Y-75902713D01*
X133997958Y-75933793D01*
X133999500Y-75965176D01*
X133999500Y-77474824D01*
X133997958Y-77506207D01*
X133993348Y-77537287D01*
X133985713Y-77567766D01*
X133975128Y-77597350D01*
X133961694Y-77625754D01*
X133945541Y-77652704D01*
X133926823Y-77677942D01*
X133905723Y-77701223D01*
X133882442Y-77722323D01*
X133857204Y-77741041D01*
X133830254Y-77757194D01*
X133801850Y-77770628D01*
X133772266Y-77781213D01*
X133741787Y-77788848D01*
X133710707Y-77793458D01*
X133679324Y-77795000D01*
X132494676Y-77795000D01*
X132463293Y-77793458D01*
X132432213Y-77788848D01*
X132401734Y-77781213D01*
X132372150Y-77770628D01*
X132343746Y-77757194D01*
X132316796Y-77741041D01*
X132291558Y-77722323D01*
X132268277Y-77701223D01*
X132247177Y-77677942D01*
X132228459Y-77652704D01*
X132212306Y-77625754D01*
X132198872Y-77597350D01*
X132188287Y-77567766D01*
X132180652Y-77537287D01*
X132176042Y-77506207D01*
X132174500Y-77474824D01*
X132174500Y-75965176D01*
X132176042Y-75933793D01*
X132180652Y-75902713D01*
X132188287Y-75872234D01*
X132198872Y-75842650D01*
X132212306Y-75814246D01*
X132228459Y-75787296D01*
X132247177Y-75762058D01*
X132268277Y-75738777D01*
X132291558Y-75717677D01*
X132316796Y-75698959D01*
X132343746Y-75682806D01*
X132372150Y-75669372D01*
X132401734Y-75658787D01*
X132432213Y-75651152D01*
X132463293Y-75646542D01*
X132494676Y-75645000D01*
X133679324Y-75645000D01*
X133710707Y-75646542D01*
X133710707Y-75646542D01*
G37*
D19*
X133087000Y-76720000D03*
G04 #@! TD*
D18*
G04 #@! TO.C,D18*
G36*
X152760707Y-75646542D02*
X152791787Y-75651152D01*
X152822266Y-75658787D01*
X152851850Y-75669372D01*
X152880254Y-75682806D01*
X152907204Y-75698959D01*
X152932442Y-75717677D01*
X152955723Y-75738777D01*
X152976823Y-75762058D01*
X152995541Y-75787296D01*
X153011694Y-75814246D01*
X153025128Y-75842650D01*
X153035713Y-75872234D01*
X153043348Y-75902713D01*
X153047958Y-75933793D01*
X153049500Y-75965176D01*
X153049500Y-77474824D01*
X153047958Y-77506207D01*
X153043348Y-77537287D01*
X153035713Y-77567766D01*
X153025128Y-77597350D01*
X153011694Y-77625754D01*
X152995541Y-77652704D01*
X152976823Y-77677942D01*
X152955723Y-77701223D01*
X152932442Y-77722323D01*
X152907204Y-77741041D01*
X152880254Y-77757194D01*
X152851850Y-77770628D01*
X152822266Y-77781213D01*
X152791787Y-77788848D01*
X152760707Y-77793458D01*
X152729324Y-77795000D01*
X151544676Y-77795000D01*
X151513293Y-77793458D01*
X151482213Y-77788848D01*
X151451734Y-77781213D01*
X151422150Y-77770628D01*
X151393746Y-77757194D01*
X151366796Y-77741041D01*
X151341558Y-77722323D01*
X151318277Y-77701223D01*
X151297177Y-77677942D01*
X151278459Y-77652704D01*
X151262306Y-77625754D01*
X151248872Y-77597350D01*
X151238287Y-77567766D01*
X151230652Y-77537287D01*
X151226042Y-77506207D01*
X151224500Y-77474824D01*
X151224500Y-75965176D01*
X151226042Y-75933793D01*
X151230652Y-75902713D01*
X151238287Y-75872234D01*
X151248872Y-75842650D01*
X151262306Y-75814246D01*
X151278459Y-75787296D01*
X151297177Y-75762058D01*
X151318277Y-75738777D01*
X151341558Y-75717677D01*
X151366796Y-75698959D01*
X151393746Y-75682806D01*
X151422150Y-75669372D01*
X151451734Y-75658787D01*
X151482213Y-75651152D01*
X151513293Y-75646542D01*
X151544676Y-75645000D01*
X152729324Y-75645000D01*
X152760707Y-75646542D01*
X152760707Y-75646542D01*
G37*
D19*
X152137000Y-76720000D03*
D18*
G36*
X155735707Y-75646542D02*
X155766787Y-75651152D01*
X155797266Y-75658787D01*
X155826850Y-75669372D01*
X155855254Y-75682806D01*
X155882204Y-75698959D01*
X155907442Y-75717677D01*
X155930723Y-75738777D01*
X155951823Y-75762058D01*
X155970541Y-75787296D01*
X155986694Y-75814246D01*
X156000128Y-75842650D01*
X156010713Y-75872234D01*
X156018348Y-75902713D01*
X156022958Y-75933793D01*
X156024500Y-75965176D01*
X156024500Y-77474824D01*
X156022958Y-77506207D01*
X156018348Y-77537287D01*
X156010713Y-77567766D01*
X156000128Y-77597350D01*
X155986694Y-77625754D01*
X155970541Y-77652704D01*
X155951823Y-77677942D01*
X155930723Y-77701223D01*
X155907442Y-77722323D01*
X155882204Y-77741041D01*
X155855254Y-77757194D01*
X155826850Y-77770628D01*
X155797266Y-77781213D01*
X155766787Y-77788848D01*
X155735707Y-77793458D01*
X155704324Y-77795000D01*
X154519676Y-77795000D01*
X154488293Y-77793458D01*
X154457213Y-77788848D01*
X154426734Y-77781213D01*
X154397150Y-77770628D01*
X154368746Y-77757194D01*
X154341796Y-77741041D01*
X154316558Y-77722323D01*
X154293277Y-77701223D01*
X154272177Y-77677942D01*
X154253459Y-77652704D01*
X154237306Y-77625754D01*
X154223872Y-77597350D01*
X154213287Y-77567766D01*
X154205652Y-77537287D01*
X154201042Y-77506207D01*
X154199500Y-77474824D01*
X154199500Y-75965176D01*
X154201042Y-75933793D01*
X154205652Y-75902713D01*
X154213287Y-75872234D01*
X154223872Y-75842650D01*
X154237306Y-75814246D01*
X154253459Y-75787296D01*
X154272177Y-75762058D01*
X154293277Y-75738777D01*
X154316558Y-75717677D01*
X154341796Y-75698959D01*
X154368746Y-75682806D01*
X154397150Y-75669372D01*
X154426734Y-75658787D01*
X154457213Y-75651152D01*
X154488293Y-75646542D01*
X154519676Y-75645000D01*
X155704324Y-75645000D01*
X155735707Y-75646542D01*
X155735707Y-75646542D01*
G37*
D19*
X155112000Y-76720000D03*
G04 #@! TD*
D18*
G04 #@! TO.C,D19*
G36*
X58104307Y-94696542D02*
X58135387Y-94701152D01*
X58165866Y-94708787D01*
X58195450Y-94719372D01*
X58223854Y-94732806D01*
X58250804Y-94748959D01*
X58276042Y-94767677D01*
X58299323Y-94788777D01*
X58320423Y-94812058D01*
X58339141Y-94837296D01*
X58355294Y-94864246D01*
X58368728Y-94892650D01*
X58379313Y-94922234D01*
X58386948Y-94952713D01*
X58391558Y-94983793D01*
X58393100Y-95015176D01*
X58393100Y-96524824D01*
X58391558Y-96556207D01*
X58386948Y-96587287D01*
X58379313Y-96617766D01*
X58368728Y-96647350D01*
X58355294Y-96675754D01*
X58339141Y-96702704D01*
X58320423Y-96727942D01*
X58299323Y-96751223D01*
X58276042Y-96772323D01*
X58250804Y-96791041D01*
X58223854Y-96807194D01*
X58195450Y-96820628D01*
X58165866Y-96831213D01*
X58135387Y-96838848D01*
X58104307Y-96843458D01*
X58072924Y-96845000D01*
X56888276Y-96845000D01*
X56856893Y-96843458D01*
X56825813Y-96838848D01*
X56795334Y-96831213D01*
X56765750Y-96820628D01*
X56737346Y-96807194D01*
X56710396Y-96791041D01*
X56685158Y-96772323D01*
X56661877Y-96751223D01*
X56640777Y-96727942D01*
X56622059Y-96702704D01*
X56605906Y-96675754D01*
X56592472Y-96647350D01*
X56581887Y-96617766D01*
X56574252Y-96587287D01*
X56569642Y-96556207D01*
X56568100Y-96524824D01*
X56568100Y-95015176D01*
X56569642Y-94983793D01*
X56574252Y-94952713D01*
X56581887Y-94922234D01*
X56592472Y-94892650D01*
X56605906Y-94864246D01*
X56622059Y-94837296D01*
X56640777Y-94812058D01*
X56661877Y-94788777D01*
X56685158Y-94767677D01*
X56710396Y-94748959D01*
X56737346Y-94732806D01*
X56765750Y-94719372D01*
X56795334Y-94708787D01*
X56825813Y-94701152D01*
X56856893Y-94696542D01*
X56888276Y-94695000D01*
X58072924Y-94695000D01*
X58104307Y-94696542D01*
X58104307Y-94696542D01*
G37*
D19*
X57480600Y-95770000D03*
D18*
G36*
X55129307Y-94696542D02*
X55160387Y-94701152D01*
X55190866Y-94708787D01*
X55220450Y-94719372D01*
X55248854Y-94732806D01*
X55275804Y-94748959D01*
X55301042Y-94767677D01*
X55324323Y-94788777D01*
X55345423Y-94812058D01*
X55364141Y-94837296D01*
X55380294Y-94864246D01*
X55393728Y-94892650D01*
X55404313Y-94922234D01*
X55411948Y-94952713D01*
X55416558Y-94983793D01*
X55418100Y-95015176D01*
X55418100Y-96524824D01*
X55416558Y-96556207D01*
X55411948Y-96587287D01*
X55404313Y-96617766D01*
X55393728Y-96647350D01*
X55380294Y-96675754D01*
X55364141Y-96702704D01*
X55345423Y-96727942D01*
X55324323Y-96751223D01*
X55301042Y-96772323D01*
X55275804Y-96791041D01*
X55248854Y-96807194D01*
X55220450Y-96820628D01*
X55190866Y-96831213D01*
X55160387Y-96838848D01*
X55129307Y-96843458D01*
X55097924Y-96845000D01*
X53913276Y-96845000D01*
X53881893Y-96843458D01*
X53850813Y-96838848D01*
X53820334Y-96831213D01*
X53790750Y-96820628D01*
X53762346Y-96807194D01*
X53735396Y-96791041D01*
X53710158Y-96772323D01*
X53686877Y-96751223D01*
X53665777Y-96727942D01*
X53647059Y-96702704D01*
X53630906Y-96675754D01*
X53617472Y-96647350D01*
X53606887Y-96617766D01*
X53599252Y-96587287D01*
X53594642Y-96556207D01*
X53593100Y-96524824D01*
X53593100Y-95015176D01*
X53594642Y-94983793D01*
X53599252Y-94952713D01*
X53606887Y-94922234D01*
X53617472Y-94892650D01*
X53630906Y-94864246D01*
X53647059Y-94837296D01*
X53665777Y-94812058D01*
X53686877Y-94788777D01*
X53710158Y-94767677D01*
X53735396Y-94748959D01*
X53762346Y-94732806D01*
X53790750Y-94719372D01*
X53820334Y-94708787D01*
X53850813Y-94701152D01*
X53881893Y-94696542D01*
X53913276Y-94695000D01*
X55097924Y-94695000D01*
X55129307Y-94696542D01*
X55129307Y-94696542D01*
G37*
D19*
X54505600Y-95770000D03*
G04 #@! TD*
D18*
G04 #@! TO.C,D20*
G36*
X89060707Y-94696542D02*
X89091787Y-94701152D01*
X89122266Y-94708787D01*
X89151850Y-94719372D01*
X89180254Y-94732806D01*
X89207204Y-94748959D01*
X89232442Y-94767677D01*
X89255723Y-94788777D01*
X89276823Y-94812058D01*
X89295541Y-94837296D01*
X89311694Y-94864246D01*
X89325128Y-94892650D01*
X89335713Y-94922234D01*
X89343348Y-94952713D01*
X89347958Y-94983793D01*
X89349500Y-95015176D01*
X89349500Y-96524824D01*
X89347958Y-96556207D01*
X89343348Y-96587287D01*
X89335713Y-96617766D01*
X89325128Y-96647350D01*
X89311694Y-96675754D01*
X89295541Y-96702704D01*
X89276823Y-96727942D01*
X89255723Y-96751223D01*
X89232442Y-96772323D01*
X89207204Y-96791041D01*
X89180254Y-96807194D01*
X89151850Y-96820628D01*
X89122266Y-96831213D01*
X89091787Y-96838848D01*
X89060707Y-96843458D01*
X89029324Y-96845000D01*
X87844676Y-96845000D01*
X87813293Y-96843458D01*
X87782213Y-96838848D01*
X87751734Y-96831213D01*
X87722150Y-96820628D01*
X87693746Y-96807194D01*
X87666796Y-96791041D01*
X87641558Y-96772323D01*
X87618277Y-96751223D01*
X87597177Y-96727942D01*
X87578459Y-96702704D01*
X87562306Y-96675754D01*
X87548872Y-96647350D01*
X87538287Y-96617766D01*
X87530652Y-96587287D01*
X87526042Y-96556207D01*
X87524500Y-96524824D01*
X87524500Y-95015176D01*
X87526042Y-94983793D01*
X87530652Y-94952713D01*
X87538287Y-94922234D01*
X87548872Y-94892650D01*
X87562306Y-94864246D01*
X87578459Y-94837296D01*
X87597177Y-94812058D01*
X87618277Y-94788777D01*
X87641558Y-94767677D01*
X87666796Y-94748959D01*
X87693746Y-94732806D01*
X87722150Y-94719372D01*
X87751734Y-94708787D01*
X87782213Y-94701152D01*
X87813293Y-94696542D01*
X87844676Y-94695000D01*
X89029324Y-94695000D01*
X89060707Y-94696542D01*
X89060707Y-94696542D01*
G37*
D19*
X88437000Y-95770000D03*
D18*
G36*
X86085707Y-94696542D02*
X86116787Y-94701152D01*
X86147266Y-94708787D01*
X86176850Y-94719372D01*
X86205254Y-94732806D01*
X86232204Y-94748959D01*
X86257442Y-94767677D01*
X86280723Y-94788777D01*
X86301823Y-94812058D01*
X86320541Y-94837296D01*
X86336694Y-94864246D01*
X86350128Y-94892650D01*
X86360713Y-94922234D01*
X86368348Y-94952713D01*
X86372958Y-94983793D01*
X86374500Y-95015176D01*
X86374500Y-96524824D01*
X86372958Y-96556207D01*
X86368348Y-96587287D01*
X86360713Y-96617766D01*
X86350128Y-96647350D01*
X86336694Y-96675754D01*
X86320541Y-96702704D01*
X86301823Y-96727942D01*
X86280723Y-96751223D01*
X86257442Y-96772323D01*
X86232204Y-96791041D01*
X86205254Y-96807194D01*
X86176850Y-96820628D01*
X86147266Y-96831213D01*
X86116787Y-96838848D01*
X86085707Y-96843458D01*
X86054324Y-96845000D01*
X84869676Y-96845000D01*
X84838293Y-96843458D01*
X84807213Y-96838848D01*
X84776734Y-96831213D01*
X84747150Y-96820628D01*
X84718746Y-96807194D01*
X84691796Y-96791041D01*
X84666558Y-96772323D01*
X84643277Y-96751223D01*
X84622177Y-96727942D01*
X84603459Y-96702704D01*
X84587306Y-96675754D01*
X84573872Y-96647350D01*
X84563287Y-96617766D01*
X84555652Y-96587287D01*
X84551042Y-96556207D01*
X84549500Y-96524824D01*
X84549500Y-95015176D01*
X84551042Y-94983793D01*
X84555652Y-94952713D01*
X84563287Y-94922234D01*
X84573872Y-94892650D01*
X84587306Y-94864246D01*
X84603459Y-94837296D01*
X84622177Y-94812058D01*
X84643277Y-94788777D01*
X84666558Y-94767677D01*
X84691796Y-94748959D01*
X84718746Y-94732806D01*
X84747150Y-94719372D01*
X84776734Y-94708787D01*
X84807213Y-94701152D01*
X84838293Y-94696542D01*
X84869676Y-94695000D01*
X86054324Y-94695000D01*
X86085707Y-94696542D01*
X86085707Y-94696542D01*
G37*
D19*
X85462000Y-95770000D03*
G04 #@! TD*
D18*
G04 #@! TO.C,D21*
G36*
X105135707Y-94696542D02*
X105166787Y-94701152D01*
X105197266Y-94708787D01*
X105226850Y-94719372D01*
X105255254Y-94732806D01*
X105282204Y-94748959D01*
X105307442Y-94767677D01*
X105330723Y-94788777D01*
X105351823Y-94812058D01*
X105370541Y-94837296D01*
X105386694Y-94864246D01*
X105400128Y-94892650D01*
X105410713Y-94922234D01*
X105418348Y-94952713D01*
X105422958Y-94983793D01*
X105424500Y-95015176D01*
X105424500Y-96524824D01*
X105422958Y-96556207D01*
X105418348Y-96587287D01*
X105410713Y-96617766D01*
X105400128Y-96647350D01*
X105386694Y-96675754D01*
X105370541Y-96702704D01*
X105351823Y-96727942D01*
X105330723Y-96751223D01*
X105307442Y-96772323D01*
X105282204Y-96791041D01*
X105255254Y-96807194D01*
X105226850Y-96820628D01*
X105197266Y-96831213D01*
X105166787Y-96838848D01*
X105135707Y-96843458D01*
X105104324Y-96845000D01*
X103919676Y-96845000D01*
X103888293Y-96843458D01*
X103857213Y-96838848D01*
X103826734Y-96831213D01*
X103797150Y-96820628D01*
X103768746Y-96807194D01*
X103741796Y-96791041D01*
X103716558Y-96772323D01*
X103693277Y-96751223D01*
X103672177Y-96727942D01*
X103653459Y-96702704D01*
X103637306Y-96675754D01*
X103623872Y-96647350D01*
X103613287Y-96617766D01*
X103605652Y-96587287D01*
X103601042Y-96556207D01*
X103599500Y-96524824D01*
X103599500Y-95015176D01*
X103601042Y-94983793D01*
X103605652Y-94952713D01*
X103613287Y-94922234D01*
X103623872Y-94892650D01*
X103637306Y-94864246D01*
X103653459Y-94837296D01*
X103672177Y-94812058D01*
X103693277Y-94788777D01*
X103716558Y-94767677D01*
X103741796Y-94748959D01*
X103768746Y-94732806D01*
X103797150Y-94719372D01*
X103826734Y-94708787D01*
X103857213Y-94701152D01*
X103888293Y-94696542D01*
X103919676Y-94695000D01*
X105104324Y-94695000D01*
X105135707Y-94696542D01*
X105135707Y-94696542D01*
G37*
D19*
X104512000Y-95770000D03*
D18*
G36*
X108110707Y-94696542D02*
X108141787Y-94701152D01*
X108172266Y-94708787D01*
X108201850Y-94719372D01*
X108230254Y-94732806D01*
X108257204Y-94748959D01*
X108282442Y-94767677D01*
X108305723Y-94788777D01*
X108326823Y-94812058D01*
X108345541Y-94837296D01*
X108361694Y-94864246D01*
X108375128Y-94892650D01*
X108385713Y-94922234D01*
X108393348Y-94952713D01*
X108397958Y-94983793D01*
X108399500Y-95015176D01*
X108399500Y-96524824D01*
X108397958Y-96556207D01*
X108393348Y-96587287D01*
X108385713Y-96617766D01*
X108375128Y-96647350D01*
X108361694Y-96675754D01*
X108345541Y-96702704D01*
X108326823Y-96727942D01*
X108305723Y-96751223D01*
X108282442Y-96772323D01*
X108257204Y-96791041D01*
X108230254Y-96807194D01*
X108201850Y-96820628D01*
X108172266Y-96831213D01*
X108141787Y-96838848D01*
X108110707Y-96843458D01*
X108079324Y-96845000D01*
X106894676Y-96845000D01*
X106863293Y-96843458D01*
X106832213Y-96838848D01*
X106801734Y-96831213D01*
X106772150Y-96820628D01*
X106743746Y-96807194D01*
X106716796Y-96791041D01*
X106691558Y-96772323D01*
X106668277Y-96751223D01*
X106647177Y-96727942D01*
X106628459Y-96702704D01*
X106612306Y-96675754D01*
X106598872Y-96647350D01*
X106588287Y-96617766D01*
X106580652Y-96587287D01*
X106576042Y-96556207D01*
X106574500Y-96524824D01*
X106574500Y-95015176D01*
X106576042Y-94983793D01*
X106580652Y-94952713D01*
X106588287Y-94922234D01*
X106598872Y-94892650D01*
X106612306Y-94864246D01*
X106628459Y-94837296D01*
X106647177Y-94812058D01*
X106668277Y-94788777D01*
X106691558Y-94767677D01*
X106716796Y-94748959D01*
X106743746Y-94732806D01*
X106772150Y-94719372D01*
X106801734Y-94708787D01*
X106832213Y-94701152D01*
X106863293Y-94696542D01*
X106894676Y-94695000D01*
X108079324Y-94695000D01*
X108110707Y-94696542D01*
X108110707Y-94696542D01*
G37*
D19*
X107487000Y-95770000D03*
G04 #@! TD*
D18*
G04 #@! TO.C,D22*
G36*
X124185707Y-94696542D02*
X124216787Y-94701152D01*
X124247266Y-94708787D01*
X124276850Y-94719372D01*
X124305254Y-94732806D01*
X124332204Y-94748959D01*
X124357442Y-94767677D01*
X124380723Y-94788777D01*
X124401823Y-94812058D01*
X124420541Y-94837296D01*
X124436694Y-94864246D01*
X124450128Y-94892650D01*
X124460713Y-94922234D01*
X124468348Y-94952713D01*
X124472958Y-94983793D01*
X124474500Y-95015176D01*
X124474500Y-96524824D01*
X124472958Y-96556207D01*
X124468348Y-96587287D01*
X124460713Y-96617766D01*
X124450128Y-96647350D01*
X124436694Y-96675754D01*
X124420541Y-96702704D01*
X124401823Y-96727942D01*
X124380723Y-96751223D01*
X124357442Y-96772323D01*
X124332204Y-96791041D01*
X124305254Y-96807194D01*
X124276850Y-96820628D01*
X124247266Y-96831213D01*
X124216787Y-96838848D01*
X124185707Y-96843458D01*
X124154324Y-96845000D01*
X122969676Y-96845000D01*
X122938293Y-96843458D01*
X122907213Y-96838848D01*
X122876734Y-96831213D01*
X122847150Y-96820628D01*
X122818746Y-96807194D01*
X122791796Y-96791041D01*
X122766558Y-96772323D01*
X122743277Y-96751223D01*
X122722177Y-96727942D01*
X122703459Y-96702704D01*
X122687306Y-96675754D01*
X122673872Y-96647350D01*
X122663287Y-96617766D01*
X122655652Y-96587287D01*
X122651042Y-96556207D01*
X122649500Y-96524824D01*
X122649500Y-95015176D01*
X122651042Y-94983793D01*
X122655652Y-94952713D01*
X122663287Y-94922234D01*
X122673872Y-94892650D01*
X122687306Y-94864246D01*
X122703459Y-94837296D01*
X122722177Y-94812058D01*
X122743277Y-94788777D01*
X122766558Y-94767677D01*
X122791796Y-94748959D01*
X122818746Y-94732806D01*
X122847150Y-94719372D01*
X122876734Y-94708787D01*
X122907213Y-94701152D01*
X122938293Y-94696542D01*
X122969676Y-94695000D01*
X124154324Y-94695000D01*
X124185707Y-94696542D01*
X124185707Y-94696542D01*
G37*
D19*
X123562000Y-95770000D03*
D18*
G36*
X127160707Y-94696542D02*
X127191787Y-94701152D01*
X127222266Y-94708787D01*
X127251850Y-94719372D01*
X127280254Y-94732806D01*
X127307204Y-94748959D01*
X127332442Y-94767677D01*
X127355723Y-94788777D01*
X127376823Y-94812058D01*
X127395541Y-94837296D01*
X127411694Y-94864246D01*
X127425128Y-94892650D01*
X127435713Y-94922234D01*
X127443348Y-94952713D01*
X127447958Y-94983793D01*
X127449500Y-95015176D01*
X127449500Y-96524824D01*
X127447958Y-96556207D01*
X127443348Y-96587287D01*
X127435713Y-96617766D01*
X127425128Y-96647350D01*
X127411694Y-96675754D01*
X127395541Y-96702704D01*
X127376823Y-96727942D01*
X127355723Y-96751223D01*
X127332442Y-96772323D01*
X127307204Y-96791041D01*
X127280254Y-96807194D01*
X127251850Y-96820628D01*
X127222266Y-96831213D01*
X127191787Y-96838848D01*
X127160707Y-96843458D01*
X127129324Y-96845000D01*
X125944676Y-96845000D01*
X125913293Y-96843458D01*
X125882213Y-96838848D01*
X125851734Y-96831213D01*
X125822150Y-96820628D01*
X125793746Y-96807194D01*
X125766796Y-96791041D01*
X125741558Y-96772323D01*
X125718277Y-96751223D01*
X125697177Y-96727942D01*
X125678459Y-96702704D01*
X125662306Y-96675754D01*
X125648872Y-96647350D01*
X125638287Y-96617766D01*
X125630652Y-96587287D01*
X125626042Y-96556207D01*
X125624500Y-96524824D01*
X125624500Y-95015176D01*
X125626042Y-94983793D01*
X125630652Y-94952713D01*
X125638287Y-94922234D01*
X125648872Y-94892650D01*
X125662306Y-94864246D01*
X125678459Y-94837296D01*
X125697177Y-94812058D01*
X125718277Y-94788777D01*
X125741558Y-94767677D01*
X125766796Y-94748959D01*
X125793746Y-94732806D01*
X125822150Y-94719372D01*
X125851734Y-94708787D01*
X125882213Y-94701152D01*
X125913293Y-94696542D01*
X125944676Y-94695000D01*
X127129324Y-94695000D01*
X127160707Y-94696542D01*
X127160707Y-94696542D01*
G37*
D19*
X126537000Y-95770000D03*
G04 #@! TD*
D18*
G04 #@! TO.C,D23*
G36*
X143235707Y-94696542D02*
X143266787Y-94701152D01*
X143297266Y-94708787D01*
X143326850Y-94719372D01*
X143355254Y-94732806D01*
X143382204Y-94748959D01*
X143407442Y-94767677D01*
X143430723Y-94788777D01*
X143451823Y-94812058D01*
X143470541Y-94837296D01*
X143486694Y-94864246D01*
X143500128Y-94892650D01*
X143510713Y-94922234D01*
X143518348Y-94952713D01*
X143522958Y-94983793D01*
X143524500Y-95015176D01*
X143524500Y-96524824D01*
X143522958Y-96556207D01*
X143518348Y-96587287D01*
X143510713Y-96617766D01*
X143500128Y-96647350D01*
X143486694Y-96675754D01*
X143470541Y-96702704D01*
X143451823Y-96727942D01*
X143430723Y-96751223D01*
X143407442Y-96772323D01*
X143382204Y-96791041D01*
X143355254Y-96807194D01*
X143326850Y-96820628D01*
X143297266Y-96831213D01*
X143266787Y-96838848D01*
X143235707Y-96843458D01*
X143204324Y-96845000D01*
X142019676Y-96845000D01*
X141988293Y-96843458D01*
X141957213Y-96838848D01*
X141926734Y-96831213D01*
X141897150Y-96820628D01*
X141868746Y-96807194D01*
X141841796Y-96791041D01*
X141816558Y-96772323D01*
X141793277Y-96751223D01*
X141772177Y-96727942D01*
X141753459Y-96702704D01*
X141737306Y-96675754D01*
X141723872Y-96647350D01*
X141713287Y-96617766D01*
X141705652Y-96587287D01*
X141701042Y-96556207D01*
X141699500Y-96524824D01*
X141699500Y-95015176D01*
X141701042Y-94983793D01*
X141705652Y-94952713D01*
X141713287Y-94922234D01*
X141723872Y-94892650D01*
X141737306Y-94864246D01*
X141753459Y-94837296D01*
X141772177Y-94812058D01*
X141793277Y-94788777D01*
X141816558Y-94767677D01*
X141841796Y-94748959D01*
X141868746Y-94732806D01*
X141897150Y-94719372D01*
X141926734Y-94708787D01*
X141957213Y-94701152D01*
X141988293Y-94696542D01*
X142019676Y-94695000D01*
X143204324Y-94695000D01*
X143235707Y-94696542D01*
X143235707Y-94696542D01*
G37*
D19*
X142612000Y-95770000D03*
D18*
G36*
X146210707Y-94696542D02*
X146241787Y-94701152D01*
X146272266Y-94708787D01*
X146301850Y-94719372D01*
X146330254Y-94732806D01*
X146357204Y-94748959D01*
X146382442Y-94767677D01*
X146405723Y-94788777D01*
X146426823Y-94812058D01*
X146445541Y-94837296D01*
X146461694Y-94864246D01*
X146475128Y-94892650D01*
X146485713Y-94922234D01*
X146493348Y-94952713D01*
X146497958Y-94983793D01*
X146499500Y-95015176D01*
X146499500Y-96524824D01*
X146497958Y-96556207D01*
X146493348Y-96587287D01*
X146485713Y-96617766D01*
X146475128Y-96647350D01*
X146461694Y-96675754D01*
X146445541Y-96702704D01*
X146426823Y-96727942D01*
X146405723Y-96751223D01*
X146382442Y-96772323D01*
X146357204Y-96791041D01*
X146330254Y-96807194D01*
X146301850Y-96820628D01*
X146272266Y-96831213D01*
X146241787Y-96838848D01*
X146210707Y-96843458D01*
X146179324Y-96845000D01*
X144994676Y-96845000D01*
X144963293Y-96843458D01*
X144932213Y-96838848D01*
X144901734Y-96831213D01*
X144872150Y-96820628D01*
X144843746Y-96807194D01*
X144816796Y-96791041D01*
X144791558Y-96772323D01*
X144768277Y-96751223D01*
X144747177Y-96727942D01*
X144728459Y-96702704D01*
X144712306Y-96675754D01*
X144698872Y-96647350D01*
X144688287Y-96617766D01*
X144680652Y-96587287D01*
X144676042Y-96556207D01*
X144674500Y-96524824D01*
X144674500Y-95015176D01*
X144676042Y-94983793D01*
X144680652Y-94952713D01*
X144688287Y-94922234D01*
X144698872Y-94892650D01*
X144712306Y-94864246D01*
X144728459Y-94837296D01*
X144747177Y-94812058D01*
X144768277Y-94788777D01*
X144791558Y-94767677D01*
X144816796Y-94748959D01*
X144843746Y-94732806D01*
X144872150Y-94719372D01*
X144901734Y-94708787D01*
X144932213Y-94701152D01*
X144963293Y-94696542D01*
X144994676Y-94695000D01*
X146179324Y-94695000D01*
X146210707Y-94696542D01*
X146210707Y-94696542D01*
G37*
D19*
X145587000Y-95770000D03*
G04 #@! TD*
D18*
G04 #@! TO.C,D24*
G36*
X165260707Y-94696542D02*
X165291787Y-94701152D01*
X165322266Y-94708787D01*
X165351850Y-94719372D01*
X165380254Y-94732806D01*
X165407204Y-94748959D01*
X165432442Y-94767677D01*
X165455723Y-94788777D01*
X165476823Y-94812058D01*
X165495541Y-94837296D01*
X165511694Y-94864246D01*
X165525128Y-94892650D01*
X165535713Y-94922234D01*
X165543348Y-94952713D01*
X165547958Y-94983793D01*
X165549500Y-95015176D01*
X165549500Y-96524824D01*
X165547958Y-96556207D01*
X165543348Y-96587287D01*
X165535713Y-96617766D01*
X165525128Y-96647350D01*
X165511694Y-96675754D01*
X165495541Y-96702704D01*
X165476823Y-96727942D01*
X165455723Y-96751223D01*
X165432442Y-96772323D01*
X165407204Y-96791041D01*
X165380254Y-96807194D01*
X165351850Y-96820628D01*
X165322266Y-96831213D01*
X165291787Y-96838848D01*
X165260707Y-96843458D01*
X165229324Y-96845000D01*
X164044676Y-96845000D01*
X164013293Y-96843458D01*
X163982213Y-96838848D01*
X163951734Y-96831213D01*
X163922150Y-96820628D01*
X163893746Y-96807194D01*
X163866796Y-96791041D01*
X163841558Y-96772323D01*
X163818277Y-96751223D01*
X163797177Y-96727942D01*
X163778459Y-96702704D01*
X163762306Y-96675754D01*
X163748872Y-96647350D01*
X163738287Y-96617766D01*
X163730652Y-96587287D01*
X163726042Y-96556207D01*
X163724500Y-96524824D01*
X163724500Y-95015176D01*
X163726042Y-94983793D01*
X163730652Y-94952713D01*
X163738287Y-94922234D01*
X163748872Y-94892650D01*
X163762306Y-94864246D01*
X163778459Y-94837296D01*
X163797177Y-94812058D01*
X163818277Y-94788777D01*
X163841558Y-94767677D01*
X163866796Y-94748959D01*
X163893746Y-94732806D01*
X163922150Y-94719372D01*
X163951734Y-94708787D01*
X163982213Y-94701152D01*
X164013293Y-94696542D01*
X164044676Y-94695000D01*
X165229324Y-94695000D01*
X165260707Y-94696542D01*
X165260707Y-94696542D01*
G37*
D19*
X164637000Y-95770000D03*
D18*
G36*
X162285707Y-94696542D02*
X162316787Y-94701152D01*
X162347266Y-94708787D01*
X162376850Y-94719372D01*
X162405254Y-94732806D01*
X162432204Y-94748959D01*
X162457442Y-94767677D01*
X162480723Y-94788777D01*
X162501823Y-94812058D01*
X162520541Y-94837296D01*
X162536694Y-94864246D01*
X162550128Y-94892650D01*
X162560713Y-94922234D01*
X162568348Y-94952713D01*
X162572958Y-94983793D01*
X162574500Y-95015176D01*
X162574500Y-96524824D01*
X162572958Y-96556207D01*
X162568348Y-96587287D01*
X162560713Y-96617766D01*
X162550128Y-96647350D01*
X162536694Y-96675754D01*
X162520541Y-96702704D01*
X162501823Y-96727942D01*
X162480723Y-96751223D01*
X162457442Y-96772323D01*
X162432204Y-96791041D01*
X162405254Y-96807194D01*
X162376850Y-96820628D01*
X162347266Y-96831213D01*
X162316787Y-96838848D01*
X162285707Y-96843458D01*
X162254324Y-96845000D01*
X161069676Y-96845000D01*
X161038293Y-96843458D01*
X161007213Y-96838848D01*
X160976734Y-96831213D01*
X160947150Y-96820628D01*
X160918746Y-96807194D01*
X160891796Y-96791041D01*
X160866558Y-96772323D01*
X160843277Y-96751223D01*
X160822177Y-96727942D01*
X160803459Y-96702704D01*
X160787306Y-96675754D01*
X160773872Y-96647350D01*
X160763287Y-96617766D01*
X160755652Y-96587287D01*
X160751042Y-96556207D01*
X160749500Y-96524824D01*
X160749500Y-95015176D01*
X160751042Y-94983793D01*
X160755652Y-94952713D01*
X160763287Y-94922234D01*
X160773872Y-94892650D01*
X160787306Y-94864246D01*
X160803459Y-94837296D01*
X160822177Y-94812058D01*
X160843277Y-94788777D01*
X160866558Y-94767677D01*
X160891796Y-94748959D01*
X160918746Y-94732806D01*
X160947150Y-94719372D01*
X160976734Y-94708787D01*
X161007213Y-94701152D01*
X161038293Y-94696542D01*
X161069676Y-94695000D01*
X162254324Y-94695000D01*
X162285707Y-94696542D01*
X162285707Y-94696542D01*
G37*
D19*
X161662000Y-95770000D03*
G04 #@! TD*
D18*
G04 #@! TO.C,D25*
G36*
X93223707Y-113746542D02*
X93254787Y-113751152D01*
X93285266Y-113758787D01*
X93314850Y-113769372D01*
X93343254Y-113782806D01*
X93370204Y-113798959D01*
X93395442Y-113817677D01*
X93418723Y-113838777D01*
X93439823Y-113862058D01*
X93458541Y-113887296D01*
X93474694Y-113914246D01*
X93488128Y-113942650D01*
X93498713Y-113972234D01*
X93506348Y-114002713D01*
X93510958Y-114033793D01*
X93512500Y-114065176D01*
X93512500Y-115574824D01*
X93510958Y-115606207D01*
X93506348Y-115637287D01*
X93498713Y-115667766D01*
X93488128Y-115697350D01*
X93474694Y-115725754D01*
X93458541Y-115752704D01*
X93439823Y-115777942D01*
X93418723Y-115801223D01*
X93395442Y-115822323D01*
X93370204Y-115841041D01*
X93343254Y-115857194D01*
X93314850Y-115870628D01*
X93285266Y-115881213D01*
X93254787Y-115888848D01*
X93223707Y-115893458D01*
X93192324Y-115895000D01*
X92007676Y-115895000D01*
X91976293Y-115893458D01*
X91945213Y-115888848D01*
X91914734Y-115881213D01*
X91885150Y-115870628D01*
X91856746Y-115857194D01*
X91829796Y-115841041D01*
X91804558Y-115822323D01*
X91781277Y-115801223D01*
X91760177Y-115777942D01*
X91741459Y-115752704D01*
X91725306Y-115725754D01*
X91711872Y-115697350D01*
X91701287Y-115667766D01*
X91693652Y-115637287D01*
X91689042Y-115606207D01*
X91687500Y-115574824D01*
X91687500Y-114065176D01*
X91689042Y-114033793D01*
X91693652Y-114002713D01*
X91701287Y-113972234D01*
X91711872Y-113942650D01*
X91725306Y-113914246D01*
X91741459Y-113887296D01*
X91760177Y-113862058D01*
X91781277Y-113838777D01*
X91804558Y-113817677D01*
X91829796Y-113798959D01*
X91856746Y-113782806D01*
X91885150Y-113769372D01*
X91914734Y-113758787D01*
X91945213Y-113751152D01*
X91976293Y-113746542D01*
X92007676Y-113745000D01*
X93192324Y-113745000D01*
X93223707Y-113746542D01*
X93223707Y-113746542D01*
G37*
D19*
X92600000Y-114820000D03*
D18*
G36*
X96198707Y-113746542D02*
X96229787Y-113751152D01*
X96260266Y-113758787D01*
X96289850Y-113769372D01*
X96318254Y-113782806D01*
X96345204Y-113798959D01*
X96370442Y-113817677D01*
X96393723Y-113838777D01*
X96414823Y-113862058D01*
X96433541Y-113887296D01*
X96449694Y-113914246D01*
X96463128Y-113942650D01*
X96473713Y-113972234D01*
X96481348Y-114002713D01*
X96485958Y-114033793D01*
X96487500Y-114065176D01*
X96487500Y-115574824D01*
X96485958Y-115606207D01*
X96481348Y-115637287D01*
X96473713Y-115667766D01*
X96463128Y-115697350D01*
X96449694Y-115725754D01*
X96433541Y-115752704D01*
X96414823Y-115777942D01*
X96393723Y-115801223D01*
X96370442Y-115822323D01*
X96345204Y-115841041D01*
X96318254Y-115857194D01*
X96289850Y-115870628D01*
X96260266Y-115881213D01*
X96229787Y-115888848D01*
X96198707Y-115893458D01*
X96167324Y-115895000D01*
X94982676Y-115895000D01*
X94951293Y-115893458D01*
X94920213Y-115888848D01*
X94889734Y-115881213D01*
X94860150Y-115870628D01*
X94831746Y-115857194D01*
X94804796Y-115841041D01*
X94779558Y-115822323D01*
X94756277Y-115801223D01*
X94735177Y-115777942D01*
X94716459Y-115752704D01*
X94700306Y-115725754D01*
X94686872Y-115697350D01*
X94676287Y-115667766D01*
X94668652Y-115637287D01*
X94664042Y-115606207D01*
X94662500Y-115574824D01*
X94662500Y-114065176D01*
X94664042Y-114033793D01*
X94668652Y-114002713D01*
X94676287Y-113972234D01*
X94686872Y-113942650D01*
X94700306Y-113914246D01*
X94716459Y-113887296D01*
X94735177Y-113862058D01*
X94756277Y-113838777D01*
X94779558Y-113817677D01*
X94804796Y-113798959D01*
X94831746Y-113782806D01*
X94860150Y-113769372D01*
X94889734Y-113758787D01*
X94920213Y-113751152D01*
X94951293Y-113746542D01*
X94982676Y-113745000D01*
X96167324Y-113745000D01*
X96198707Y-113746542D01*
X96198707Y-113746542D01*
G37*
D19*
X95575000Y-114820000D03*
G04 #@! TD*
D18*
G04 #@! TO.C,D26*
G36*
X117035707Y-113746542D02*
X117066787Y-113751152D01*
X117097266Y-113758787D01*
X117126850Y-113769372D01*
X117155254Y-113782806D01*
X117182204Y-113798959D01*
X117207442Y-113817677D01*
X117230723Y-113838777D01*
X117251823Y-113862058D01*
X117270541Y-113887296D01*
X117286694Y-113914246D01*
X117300128Y-113942650D01*
X117310713Y-113972234D01*
X117318348Y-114002713D01*
X117322958Y-114033793D01*
X117324500Y-114065176D01*
X117324500Y-115574824D01*
X117322958Y-115606207D01*
X117318348Y-115637287D01*
X117310713Y-115667766D01*
X117300128Y-115697350D01*
X117286694Y-115725754D01*
X117270541Y-115752704D01*
X117251823Y-115777942D01*
X117230723Y-115801223D01*
X117207442Y-115822323D01*
X117182204Y-115841041D01*
X117155254Y-115857194D01*
X117126850Y-115870628D01*
X117097266Y-115881213D01*
X117066787Y-115888848D01*
X117035707Y-115893458D01*
X117004324Y-115895000D01*
X115819676Y-115895000D01*
X115788293Y-115893458D01*
X115757213Y-115888848D01*
X115726734Y-115881213D01*
X115697150Y-115870628D01*
X115668746Y-115857194D01*
X115641796Y-115841041D01*
X115616558Y-115822323D01*
X115593277Y-115801223D01*
X115572177Y-115777942D01*
X115553459Y-115752704D01*
X115537306Y-115725754D01*
X115523872Y-115697350D01*
X115513287Y-115667766D01*
X115505652Y-115637287D01*
X115501042Y-115606207D01*
X115499500Y-115574824D01*
X115499500Y-114065176D01*
X115501042Y-114033793D01*
X115505652Y-114002713D01*
X115513287Y-113972234D01*
X115523872Y-113942650D01*
X115537306Y-113914246D01*
X115553459Y-113887296D01*
X115572177Y-113862058D01*
X115593277Y-113838777D01*
X115616558Y-113817677D01*
X115641796Y-113798959D01*
X115668746Y-113782806D01*
X115697150Y-113769372D01*
X115726734Y-113758787D01*
X115757213Y-113751152D01*
X115788293Y-113746542D01*
X115819676Y-113745000D01*
X117004324Y-113745000D01*
X117035707Y-113746542D01*
X117035707Y-113746542D01*
G37*
D19*
X116412000Y-114820000D03*
D18*
G36*
X120010707Y-113746542D02*
X120041787Y-113751152D01*
X120072266Y-113758787D01*
X120101850Y-113769372D01*
X120130254Y-113782806D01*
X120157204Y-113798959D01*
X120182442Y-113817677D01*
X120205723Y-113838777D01*
X120226823Y-113862058D01*
X120245541Y-113887296D01*
X120261694Y-113914246D01*
X120275128Y-113942650D01*
X120285713Y-113972234D01*
X120293348Y-114002713D01*
X120297958Y-114033793D01*
X120299500Y-114065176D01*
X120299500Y-115574824D01*
X120297958Y-115606207D01*
X120293348Y-115637287D01*
X120285713Y-115667766D01*
X120275128Y-115697350D01*
X120261694Y-115725754D01*
X120245541Y-115752704D01*
X120226823Y-115777942D01*
X120205723Y-115801223D01*
X120182442Y-115822323D01*
X120157204Y-115841041D01*
X120130254Y-115857194D01*
X120101850Y-115870628D01*
X120072266Y-115881213D01*
X120041787Y-115888848D01*
X120010707Y-115893458D01*
X119979324Y-115895000D01*
X118794676Y-115895000D01*
X118763293Y-115893458D01*
X118732213Y-115888848D01*
X118701734Y-115881213D01*
X118672150Y-115870628D01*
X118643746Y-115857194D01*
X118616796Y-115841041D01*
X118591558Y-115822323D01*
X118568277Y-115801223D01*
X118547177Y-115777942D01*
X118528459Y-115752704D01*
X118512306Y-115725754D01*
X118498872Y-115697350D01*
X118488287Y-115667766D01*
X118480652Y-115637287D01*
X118476042Y-115606207D01*
X118474500Y-115574824D01*
X118474500Y-114065176D01*
X118476042Y-114033793D01*
X118480652Y-114002713D01*
X118488287Y-113972234D01*
X118498872Y-113942650D01*
X118512306Y-113914246D01*
X118528459Y-113887296D01*
X118547177Y-113862058D01*
X118568277Y-113838777D01*
X118591558Y-113817677D01*
X118616796Y-113798959D01*
X118643746Y-113782806D01*
X118672150Y-113769372D01*
X118701734Y-113758787D01*
X118732213Y-113751152D01*
X118763293Y-113746542D01*
X118794676Y-113745000D01*
X119979324Y-113745000D01*
X120010707Y-113746542D01*
X120010707Y-113746542D01*
G37*
D19*
X119387000Y-114820000D03*
G04 #@! TD*
D18*
G04 #@! TO.C,D27*
G36*
X160498207Y-113746542D02*
X160529287Y-113751152D01*
X160559766Y-113758787D01*
X160589350Y-113769372D01*
X160617754Y-113782806D01*
X160644704Y-113798959D01*
X160669942Y-113817677D01*
X160693223Y-113838777D01*
X160714323Y-113862058D01*
X160733041Y-113887296D01*
X160749194Y-113914246D01*
X160762628Y-113942650D01*
X160773213Y-113972234D01*
X160780848Y-114002713D01*
X160785458Y-114033793D01*
X160787000Y-114065176D01*
X160787000Y-115574824D01*
X160785458Y-115606207D01*
X160780848Y-115637287D01*
X160773213Y-115667766D01*
X160762628Y-115697350D01*
X160749194Y-115725754D01*
X160733041Y-115752704D01*
X160714323Y-115777942D01*
X160693223Y-115801223D01*
X160669942Y-115822323D01*
X160644704Y-115841041D01*
X160617754Y-115857194D01*
X160589350Y-115870628D01*
X160559766Y-115881213D01*
X160529287Y-115888848D01*
X160498207Y-115893458D01*
X160466824Y-115895000D01*
X159282176Y-115895000D01*
X159250793Y-115893458D01*
X159219713Y-115888848D01*
X159189234Y-115881213D01*
X159159650Y-115870628D01*
X159131246Y-115857194D01*
X159104296Y-115841041D01*
X159079058Y-115822323D01*
X159055777Y-115801223D01*
X159034677Y-115777942D01*
X159015959Y-115752704D01*
X158999806Y-115725754D01*
X158986372Y-115697350D01*
X158975787Y-115667766D01*
X158968152Y-115637287D01*
X158963542Y-115606207D01*
X158962000Y-115574824D01*
X158962000Y-114065176D01*
X158963542Y-114033793D01*
X158968152Y-114002713D01*
X158975787Y-113972234D01*
X158986372Y-113942650D01*
X158999806Y-113914246D01*
X159015959Y-113887296D01*
X159034677Y-113862058D01*
X159055777Y-113838777D01*
X159079058Y-113817677D01*
X159104296Y-113798959D01*
X159131246Y-113782806D01*
X159159650Y-113769372D01*
X159189234Y-113758787D01*
X159219713Y-113751152D01*
X159250793Y-113746542D01*
X159282176Y-113745000D01*
X160466824Y-113745000D01*
X160498207Y-113746542D01*
X160498207Y-113746542D01*
G37*
D19*
X159874500Y-114820000D03*
D18*
G36*
X157523207Y-113746542D02*
X157554287Y-113751152D01*
X157584766Y-113758787D01*
X157614350Y-113769372D01*
X157642754Y-113782806D01*
X157669704Y-113798959D01*
X157694942Y-113817677D01*
X157718223Y-113838777D01*
X157739323Y-113862058D01*
X157758041Y-113887296D01*
X157774194Y-113914246D01*
X157787628Y-113942650D01*
X157798213Y-113972234D01*
X157805848Y-114002713D01*
X157810458Y-114033793D01*
X157812000Y-114065176D01*
X157812000Y-115574824D01*
X157810458Y-115606207D01*
X157805848Y-115637287D01*
X157798213Y-115667766D01*
X157787628Y-115697350D01*
X157774194Y-115725754D01*
X157758041Y-115752704D01*
X157739323Y-115777942D01*
X157718223Y-115801223D01*
X157694942Y-115822323D01*
X157669704Y-115841041D01*
X157642754Y-115857194D01*
X157614350Y-115870628D01*
X157584766Y-115881213D01*
X157554287Y-115888848D01*
X157523207Y-115893458D01*
X157491824Y-115895000D01*
X156307176Y-115895000D01*
X156275793Y-115893458D01*
X156244713Y-115888848D01*
X156214234Y-115881213D01*
X156184650Y-115870628D01*
X156156246Y-115857194D01*
X156129296Y-115841041D01*
X156104058Y-115822323D01*
X156080777Y-115801223D01*
X156059677Y-115777942D01*
X156040959Y-115752704D01*
X156024806Y-115725754D01*
X156011372Y-115697350D01*
X156000787Y-115667766D01*
X155993152Y-115637287D01*
X155988542Y-115606207D01*
X155987000Y-115574824D01*
X155987000Y-114065176D01*
X155988542Y-114033793D01*
X155993152Y-114002713D01*
X156000787Y-113972234D01*
X156011372Y-113942650D01*
X156024806Y-113914246D01*
X156040959Y-113887296D01*
X156059677Y-113862058D01*
X156080777Y-113838777D01*
X156104058Y-113817677D01*
X156129296Y-113798959D01*
X156156246Y-113782806D01*
X156184650Y-113769372D01*
X156214234Y-113758787D01*
X156244713Y-113751152D01*
X156275793Y-113746542D01*
X156307176Y-113745000D01*
X157491824Y-113745000D01*
X157523207Y-113746542D01*
X157523207Y-113746542D01*
G37*
D19*
X156899500Y-114820000D03*
G04 #@! TD*
D18*
G04 #@! TO.C,D28*
G36*
X160498707Y-37546542D02*
X160529787Y-37551152D01*
X160560266Y-37558787D01*
X160589850Y-37569372D01*
X160618254Y-37582806D01*
X160645204Y-37598959D01*
X160670442Y-37617677D01*
X160693723Y-37638777D01*
X160714823Y-37662058D01*
X160733541Y-37687296D01*
X160749694Y-37714246D01*
X160763128Y-37742650D01*
X160773713Y-37772234D01*
X160781348Y-37802713D01*
X160785958Y-37833793D01*
X160787500Y-37865176D01*
X160787500Y-39374824D01*
X160785958Y-39406207D01*
X160781348Y-39437287D01*
X160773713Y-39467766D01*
X160763128Y-39497350D01*
X160749694Y-39525754D01*
X160733541Y-39552704D01*
X160714823Y-39577942D01*
X160693723Y-39601223D01*
X160670442Y-39622323D01*
X160645204Y-39641041D01*
X160618254Y-39657194D01*
X160589850Y-39670628D01*
X160560266Y-39681213D01*
X160529787Y-39688848D01*
X160498707Y-39693458D01*
X160467324Y-39695000D01*
X159282676Y-39695000D01*
X159251293Y-39693458D01*
X159220213Y-39688848D01*
X159189734Y-39681213D01*
X159160150Y-39670628D01*
X159131746Y-39657194D01*
X159104796Y-39641041D01*
X159079558Y-39622323D01*
X159056277Y-39601223D01*
X159035177Y-39577942D01*
X159016459Y-39552704D01*
X159000306Y-39525754D01*
X158986872Y-39497350D01*
X158976287Y-39467766D01*
X158968652Y-39437287D01*
X158964042Y-39406207D01*
X158962500Y-39374824D01*
X158962500Y-37865176D01*
X158964042Y-37833793D01*
X158968652Y-37802713D01*
X158976287Y-37772234D01*
X158986872Y-37742650D01*
X159000306Y-37714246D01*
X159016459Y-37687296D01*
X159035177Y-37662058D01*
X159056277Y-37638777D01*
X159079558Y-37617677D01*
X159104796Y-37598959D01*
X159131746Y-37582806D01*
X159160150Y-37569372D01*
X159189734Y-37558787D01*
X159220213Y-37551152D01*
X159251293Y-37546542D01*
X159282676Y-37545000D01*
X160467324Y-37545000D01*
X160498707Y-37546542D01*
X160498707Y-37546542D01*
G37*
D19*
X159875000Y-38620000D03*
D18*
G36*
X157523707Y-37546542D02*
X157554787Y-37551152D01*
X157585266Y-37558787D01*
X157614850Y-37569372D01*
X157643254Y-37582806D01*
X157670204Y-37598959D01*
X157695442Y-37617677D01*
X157718723Y-37638777D01*
X157739823Y-37662058D01*
X157758541Y-37687296D01*
X157774694Y-37714246D01*
X157788128Y-37742650D01*
X157798713Y-37772234D01*
X157806348Y-37802713D01*
X157810958Y-37833793D01*
X157812500Y-37865176D01*
X157812500Y-39374824D01*
X157810958Y-39406207D01*
X157806348Y-39437287D01*
X157798713Y-39467766D01*
X157788128Y-39497350D01*
X157774694Y-39525754D01*
X157758541Y-39552704D01*
X157739823Y-39577942D01*
X157718723Y-39601223D01*
X157695442Y-39622323D01*
X157670204Y-39641041D01*
X157643254Y-39657194D01*
X157614850Y-39670628D01*
X157585266Y-39681213D01*
X157554787Y-39688848D01*
X157523707Y-39693458D01*
X157492324Y-39695000D01*
X156307676Y-39695000D01*
X156276293Y-39693458D01*
X156245213Y-39688848D01*
X156214734Y-39681213D01*
X156185150Y-39670628D01*
X156156746Y-39657194D01*
X156129796Y-39641041D01*
X156104558Y-39622323D01*
X156081277Y-39601223D01*
X156060177Y-39577942D01*
X156041459Y-39552704D01*
X156025306Y-39525754D01*
X156011872Y-39497350D01*
X156001287Y-39467766D01*
X155993652Y-39437287D01*
X155989042Y-39406207D01*
X155987500Y-39374824D01*
X155987500Y-37865176D01*
X155989042Y-37833793D01*
X155993652Y-37802713D01*
X156001287Y-37772234D01*
X156011872Y-37742650D01*
X156025306Y-37714246D01*
X156041459Y-37687296D01*
X156060177Y-37662058D01*
X156081277Y-37638777D01*
X156104558Y-37617677D01*
X156129796Y-37598959D01*
X156156746Y-37582806D01*
X156185150Y-37569372D01*
X156214734Y-37558787D01*
X156245213Y-37551152D01*
X156276293Y-37546542D01*
X156307676Y-37545000D01*
X157492324Y-37545000D01*
X157523707Y-37546542D01*
X157523707Y-37546542D01*
G37*
D19*
X156900000Y-38620000D03*
G04 #@! TD*
D20*
G04 #@! TO.C,JP_da1*
X25910000Y-91450000D03*
X25910000Y-92750000D03*
G04 #@! TD*
G04 #@! TO.C,JP_db1*
X31910000Y-92750000D03*
X31910000Y-91450000D03*
G04 #@! TD*
G04 #@! TO.C,JP_xa1*
X25910000Y-99450000D03*
X25910000Y-100750000D03*
G04 #@! TD*
G04 #@! TO.C,JP_xb1*
X31910000Y-100750000D03*
X31910000Y-99450000D03*
G04 #@! TD*
D18*
G04 #@! TO.C,R_data1*
G36*
X38696207Y-91839042D02*
X38727287Y-91843652D01*
X38757766Y-91851287D01*
X38787350Y-91861872D01*
X38815754Y-91875306D01*
X38842704Y-91891459D01*
X38867942Y-91910177D01*
X38891223Y-91931277D01*
X38912323Y-91954558D01*
X38931041Y-91979796D01*
X38947194Y-92006746D01*
X38960628Y-92035150D01*
X38971213Y-92064734D01*
X38978848Y-92095213D01*
X38983458Y-92126293D01*
X38985000Y-92157676D01*
X38985000Y-93342324D01*
X38983458Y-93373707D01*
X38978848Y-93404787D01*
X38971213Y-93435266D01*
X38960628Y-93464850D01*
X38947194Y-93493254D01*
X38931041Y-93520204D01*
X38912323Y-93545442D01*
X38891223Y-93568723D01*
X38867942Y-93589823D01*
X38842704Y-93608541D01*
X38815754Y-93624694D01*
X38787350Y-93638128D01*
X38757766Y-93648713D01*
X38727287Y-93656348D01*
X38696207Y-93660958D01*
X38664824Y-93662500D01*
X37155176Y-93662500D01*
X37123793Y-93660958D01*
X37092713Y-93656348D01*
X37062234Y-93648713D01*
X37032650Y-93638128D01*
X37004246Y-93624694D01*
X36977296Y-93608541D01*
X36952058Y-93589823D01*
X36928777Y-93568723D01*
X36907677Y-93545442D01*
X36888959Y-93520204D01*
X36872806Y-93493254D01*
X36859372Y-93464850D01*
X36848787Y-93435266D01*
X36841152Y-93404787D01*
X36836542Y-93373707D01*
X36835000Y-93342324D01*
X36835000Y-92157676D01*
X36836542Y-92126293D01*
X36841152Y-92095213D01*
X36848787Y-92064734D01*
X36859372Y-92035150D01*
X36872806Y-92006746D01*
X36888959Y-91979796D01*
X36907677Y-91954558D01*
X36928777Y-91931277D01*
X36952058Y-91910177D01*
X36977296Y-91891459D01*
X37004246Y-91875306D01*
X37032650Y-91861872D01*
X37062234Y-91851287D01*
X37092713Y-91843652D01*
X37123793Y-91839042D01*
X37155176Y-91837500D01*
X38664824Y-91837500D01*
X38696207Y-91839042D01*
X38696207Y-91839042D01*
G37*
D19*
X37910000Y-92750000D03*
D18*
G36*
X38696207Y-88864042D02*
X38727287Y-88868652D01*
X38757766Y-88876287D01*
X38787350Y-88886872D01*
X38815754Y-88900306D01*
X38842704Y-88916459D01*
X38867942Y-88935177D01*
X38891223Y-88956277D01*
X38912323Y-88979558D01*
X38931041Y-89004796D01*
X38947194Y-89031746D01*
X38960628Y-89060150D01*
X38971213Y-89089734D01*
X38978848Y-89120213D01*
X38983458Y-89151293D01*
X38985000Y-89182676D01*
X38985000Y-90367324D01*
X38983458Y-90398707D01*
X38978848Y-90429787D01*
X38971213Y-90460266D01*
X38960628Y-90489850D01*
X38947194Y-90518254D01*
X38931041Y-90545204D01*
X38912323Y-90570442D01*
X38891223Y-90593723D01*
X38867942Y-90614823D01*
X38842704Y-90633541D01*
X38815754Y-90649694D01*
X38787350Y-90663128D01*
X38757766Y-90673713D01*
X38727287Y-90681348D01*
X38696207Y-90685958D01*
X38664824Y-90687500D01*
X37155176Y-90687500D01*
X37123793Y-90685958D01*
X37092713Y-90681348D01*
X37062234Y-90673713D01*
X37032650Y-90663128D01*
X37004246Y-90649694D01*
X36977296Y-90633541D01*
X36952058Y-90614823D01*
X36928777Y-90593723D01*
X36907677Y-90570442D01*
X36888959Y-90545204D01*
X36872806Y-90518254D01*
X36859372Y-90489850D01*
X36848787Y-90460266D01*
X36841152Y-90429787D01*
X36836542Y-90398707D01*
X36835000Y-90367324D01*
X36835000Y-89182676D01*
X36836542Y-89151293D01*
X36841152Y-89120213D01*
X36848787Y-89089734D01*
X36859372Y-89060150D01*
X36872806Y-89031746D01*
X36888959Y-89004796D01*
X36907677Y-88979558D01*
X36928777Y-88956277D01*
X36952058Y-88935177D01*
X36977296Y-88916459D01*
X37004246Y-88900306D01*
X37032650Y-88886872D01*
X37062234Y-88876287D01*
X37092713Y-88868652D01*
X37123793Y-88864042D01*
X37155176Y-88862500D01*
X38664824Y-88862500D01*
X38696207Y-88864042D01*
X38696207Y-88864042D01*
G37*
D19*
X37910000Y-89775000D03*
G04 #@! TD*
D18*
G04 #@! TO.C,R_xdata1*
G36*
X38696207Y-96864042D02*
X38727287Y-96868652D01*
X38757766Y-96876287D01*
X38787350Y-96886872D01*
X38815754Y-96900306D01*
X38842704Y-96916459D01*
X38867942Y-96935177D01*
X38891223Y-96956277D01*
X38912323Y-96979558D01*
X38931041Y-97004796D01*
X38947194Y-97031746D01*
X38960628Y-97060150D01*
X38971213Y-97089734D01*
X38978848Y-97120213D01*
X38983458Y-97151293D01*
X38985000Y-97182676D01*
X38985000Y-98367324D01*
X38983458Y-98398707D01*
X38978848Y-98429787D01*
X38971213Y-98460266D01*
X38960628Y-98489850D01*
X38947194Y-98518254D01*
X38931041Y-98545204D01*
X38912323Y-98570442D01*
X38891223Y-98593723D01*
X38867942Y-98614823D01*
X38842704Y-98633541D01*
X38815754Y-98649694D01*
X38787350Y-98663128D01*
X38757766Y-98673713D01*
X38727287Y-98681348D01*
X38696207Y-98685958D01*
X38664824Y-98687500D01*
X37155176Y-98687500D01*
X37123793Y-98685958D01*
X37092713Y-98681348D01*
X37062234Y-98673713D01*
X37032650Y-98663128D01*
X37004246Y-98649694D01*
X36977296Y-98633541D01*
X36952058Y-98614823D01*
X36928777Y-98593723D01*
X36907677Y-98570442D01*
X36888959Y-98545204D01*
X36872806Y-98518254D01*
X36859372Y-98489850D01*
X36848787Y-98460266D01*
X36841152Y-98429787D01*
X36836542Y-98398707D01*
X36835000Y-98367324D01*
X36835000Y-97182676D01*
X36836542Y-97151293D01*
X36841152Y-97120213D01*
X36848787Y-97089734D01*
X36859372Y-97060150D01*
X36872806Y-97031746D01*
X36888959Y-97004796D01*
X36907677Y-96979558D01*
X36928777Y-96956277D01*
X36952058Y-96935177D01*
X36977296Y-96916459D01*
X37004246Y-96900306D01*
X37032650Y-96886872D01*
X37062234Y-96876287D01*
X37092713Y-96868652D01*
X37123793Y-96864042D01*
X37155176Y-96862500D01*
X38664824Y-96862500D01*
X38696207Y-96864042D01*
X38696207Y-96864042D01*
G37*
D19*
X37910000Y-97775000D03*
D18*
G36*
X38696207Y-99839042D02*
X38727287Y-99843652D01*
X38757766Y-99851287D01*
X38787350Y-99861872D01*
X38815754Y-99875306D01*
X38842704Y-99891459D01*
X38867942Y-99910177D01*
X38891223Y-99931277D01*
X38912323Y-99954558D01*
X38931041Y-99979796D01*
X38947194Y-100006746D01*
X38960628Y-100035150D01*
X38971213Y-100064734D01*
X38978848Y-100095213D01*
X38983458Y-100126293D01*
X38985000Y-100157676D01*
X38985000Y-101342324D01*
X38983458Y-101373707D01*
X38978848Y-101404787D01*
X38971213Y-101435266D01*
X38960628Y-101464850D01*
X38947194Y-101493254D01*
X38931041Y-101520204D01*
X38912323Y-101545442D01*
X38891223Y-101568723D01*
X38867942Y-101589823D01*
X38842704Y-101608541D01*
X38815754Y-101624694D01*
X38787350Y-101638128D01*
X38757766Y-101648713D01*
X38727287Y-101656348D01*
X38696207Y-101660958D01*
X38664824Y-101662500D01*
X37155176Y-101662500D01*
X37123793Y-101660958D01*
X37092713Y-101656348D01*
X37062234Y-101648713D01*
X37032650Y-101638128D01*
X37004246Y-101624694D01*
X36977296Y-101608541D01*
X36952058Y-101589823D01*
X36928777Y-101568723D01*
X36907677Y-101545442D01*
X36888959Y-101520204D01*
X36872806Y-101493254D01*
X36859372Y-101464850D01*
X36848787Y-101435266D01*
X36841152Y-101404787D01*
X36836542Y-101373707D01*
X36835000Y-101342324D01*
X36835000Y-100157676D01*
X36836542Y-100126293D01*
X36841152Y-100095213D01*
X36848787Y-100064734D01*
X36859372Y-100035150D01*
X36872806Y-100006746D01*
X36888959Y-99979796D01*
X36907677Y-99954558D01*
X36928777Y-99931277D01*
X36952058Y-99910177D01*
X36977296Y-99891459D01*
X37004246Y-99875306D01*
X37032650Y-99861872D01*
X37062234Y-99851287D01*
X37092713Y-99843652D01*
X37123793Y-99839042D01*
X37155176Y-99837500D01*
X38664824Y-99837500D01*
X38696207Y-99839042D01*
X38696207Y-99839042D01*
G37*
D19*
X37910000Y-100750000D03*
G04 #@! TD*
D13*
G04 #@! TO.C,SW1*
X52760000Y-30030000D03*
X46410000Y-32570000D03*
D14*
X50220000Y-35110000D03*
D15*
X45140000Y-35110000D03*
X55300000Y-35110000D03*
D16*
X56570000Y-30030000D03*
X42600000Y-32570000D03*
G04 #@! TD*
D13*
G04 #@! TO.C,SW2*
X71810000Y-30030000D03*
X65460000Y-32570000D03*
D14*
X69270000Y-35110000D03*
D15*
X64190000Y-35110000D03*
X74350000Y-35110000D03*
D16*
X75620000Y-30030000D03*
X61650000Y-32570000D03*
G04 #@! TD*
G04 #@! TO.C,SW3*
X80700000Y-32570000D03*
X94670000Y-30030000D03*
D15*
X93400000Y-35110000D03*
X83240000Y-35110000D03*
D14*
X88320000Y-35110000D03*
D13*
X84510000Y-32570000D03*
X90860000Y-30030000D03*
G04 #@! TD*
D16*
G04 #@! TO.C,SW4*
X99750000Y-32570000D03*
X113720000Y-30030000D03*
D15*
X112450000Y-35110000D03*
X102290000Y-35110000D03*
D14*
X107370000Y-35110000D03*
D13*
X103560000Y-32570000D03*
X109910000Y-30030000D03*
G04 #@! TD*
G04 #@! TO.C,SW5*
X128960000Y-30030000D03*
X122610000Y-32570000D03*
D14*
X126420000Y-35110000D03*
D15*
X121340000Y-35110000D03*
X131500000Y-35110000D03*
D16*
X132770000Y-30030000D03*
X118800000Y-32570000D03*
G04 #@! TD*
G04 #@! TO.C,SW6*
X137850000Y-32570000D03*
X151820000Y-30030000D03*
D15*
X150550000Y-35110000D03*
X140390000Y-35110000D03*
D14*
X145470000Y-35110000D03*
D13*
X141660000Y-32570000D03*
X148010000Y-30030000D03*
G04 #@! TD*
D16*
G04 #@! TO.C,SW7*
X47362500Y-51620000D03*
X61332500Y-49080000D03*
D15*
X60062500Y-54160000D03*
X49902500Y-54160000D03*
D14*
X54982500Y-54160000D03*
D13*
X51172500Y-51620000D03*
X57522500Y-49080000D03*
G04 #@! TD*
G04 #@! TO.C,SW8*
X81335000Y-49080000D03*
X74985000Y-51620000D03*
D14*
X78795000Y-54160000D03*
D15*
X73715000Y-54160000D03*
X83875000Y-54160000D03*
D16*
X85145000Y-49080000D03*
X71175000Y-51620000D03*
G04 #@! TD*
D13*
G04 #@! TO.C,SW9*
X100385000Y-49080000D03*
X94035000Y-51620000D03*
D14*
X97845000Y-54160000D03*
D15*
X92765000Y-54160000D03*
X102925000Y-54160000D03*
D16*
X104195000Y-49080000D03*
X90225000Y-51620000D03*
G04 #@! TD*
D13*
G04 #@! TO.C,SW10*
X119435000Y-49080000D03*
X113085000Y-51620000D03*
D14*
X116895000Y-54160000D03*
D15*
X111815000Y-54160000D03*
X121975000Y-54160000D03*
D16*
X123245000Y-49080000D03*
X109275000Y-51620000D03*
G04 #@! TD*
G04 #@! TO.C,SW11*
X128325000Y-51620000D03*
X142295000Y-49080000D03*
D15*
X141025000Y-54160000D03*
X130865000Y-54160000D03*
D14*
X135945000Y-54160000D03*
D13*
X132135000Y-51620000D03*
X138485000Y-49080000D03*
G04 #@! TD*
G04 #@! TO.C,SW12*
X157535000Y-49080000D03*
X151185000Y-51620000D03*
D14*
X154995000Y-54160000D03*
D15*
X149915000Y-54160000D03*
X160075000Y-54160000D03*
D16*
X161345000Y-49080000D03*
X147375000Y-51620000D03*
G04 #@! TD*
D13*
G04 #@! TO.C,SW13*
X59903400Y-68130000D03*
X53553400Y-70670000D03*
D14*
X57363400Y-73210000D03*
D15*
X52283400Y-73210000D03*
X62443400Y-73210000D03*
D16*
X63713400Y-68130000D03*
X49743400Y-70670000D03*
G04 #@! TD*
G04 #@! TO.C,SW14*
X75937000Y-70670000D03*
X89907000Y-68130000D03*
D15*
X88637000Y-73210000D03*
X78477000Y-73210000D03*
D14*
X83557000Y-73210000D03*
D13*
X79747000Y-70670000D03*
X86097000Y-68130000D03*
G04 #@! TD*
D16*
G04 #@! TO.C,SW16*
X114037000Y-70670000D03*
X128007000Y-68130000D03*
D15*
X126737000Y-73210000D03*
X116577000Y-73210000D03*
D14*
X121657000Y-73210000D03*
D13*
X117847000Y-70670000D03*
X124197000Y-68130000D03*
G04 #@! TD*
G04 #@! TO.C,SW17*
X143247000Y-68130000D03*
X136897000Y-70670000D03*
D14*
X140707000Y-73210000D03*
D15*
X135627000Y-73210000D03*
X145787000Y-73210000D03*
D16*
X147057000Y-68130000D03*
X133087000Y-70670000D03*
G04 #@! TD*
G04 #@! TO.C,SW18*
X152137000Y-70670000D03*
X166107000Y-68130000D03*
D15*
X164837000Y-73210000D03*
X154677000Y-73210000D03*
D14*
X159757000Y-73210000D03*
D13*
X155947000Y-70670000D03*
X162297000Y-68130000D03*
G04 #@! TD*
D16*
G04 #@! TO.C,SW19*
X54505600Y-89720000D03*
X68475600Y-87180000D03*
D21*
X74025600Y-85260000D03*
X50225600Y-85260000D03*
D14*
X50225600Y-100500000D03*
X74025600Y-100500000D03*
D15*
X67205600Y-92260000D03*
X57045600Y-92260000D03*
D14*
X62125600Y-92260000D03*
D13*
X58315600Y-89720000D03*
X64665600Y-87180000D03*
G04 #@! TD*
G04 #@! TO.C,SW20*
X95622000Y-87180000D03*
X89272000Y-89720000D03*
D14*
X93082000Y-92260000D03*
D15*
X88002000Y-92260000D03*
X98162000Y-92260000D03*
D16*
X99432000Y-87180000D03*
X85462000Y-89720000D03*
G04 #@! TD*
G04 #@! TO.C,SW21*
X104512000Y-89720000D03*
X118482000Y-87180000D03*
D15*
X117212000Y-92260000D03*
X107052000Y-92260000D03*
D14*
X112132000Y-92260000D03*
D13*
X108322000Y-89720000D03*
X114672000Y-87180000D03*
G04 #@! TD*
G04 #@! TO.C,SW22*
X133722000Y-87180000D03*
X127372000Y-89720000D03*
D14*
X131182000Y-92260000D03*
D15*
X126102000Y-92260000D03*
X136262000Y-92260000D03*
D16*
X137532000Y-87180000D03*
X123562000Y-89720000D03*
G04 #@! TD*
G04 #@! TO.C,SW24*
X161662000Y-89720000D03*
X175632000Y-87180000D03*
D15*
X174362000Y-92260000D03*
X164202000Y-92260000D03*
D14*
X169282000Y-92260000D03*
D13*
X165472000Y-89720000D03*
X171822000Y-87180000D03*
G04 #@! TD*
D22*
G04 #@! TO.C,SW_r1*
X34910000Y-76800000D03*
X29830000Y-76800000D03*
X34910000Y-69180000D03*
X29830000Y-69180000D03*
G04 #@! TD*
D23*
G04 #@! TO.C,U1*
X23180000Y-55330000D03*
X23180000Y-52790000D03*
X23180000Y-50250000D03*
X23180000Y-47640000D03*
X23180000Y-37480000D03*
X23180000Y-40020000D03*
X23180000Y-45100000D03*
X23180000Y-42560000D03*
X23180000Y-34940000D03*
X23180000Y-32400000D03*
X23180000Y-27320000D03*
X23180000Y-29860000D03*
X38420000Y-55330000D03*
X38420000Y-52790000D03*
X38420000Y-40020000D03*
D24*
X38420000Y-27320000D03*
D23*
X38420000Y-29860000D03*
X38420000Y-47640000D03*
X38420000Y-34940000D03*
X38420000Y-45100000D03*
X38420000Y-50250000D03*
X38420000Y-37480000D03*
X38420000Y-42560000D03*
X38420000Y-32400000D03*
G04 #@! TD*
D25*
G04 #@! TO.C,J1*
X33710000Y-64180000D03*
X32210000Y-59880000D03*
X28210000Y-59880000D03*
X25210000Y-59880000D03*
D26*
X30410000Y-62030000D03*
X23410000Y-62030000D03*
G04 #@! TD*
D13*
G04 #@! TO.C,SW25*
X102760000Y-106230000D03*
X96410000Y-108770000D03*
D14*
X100220000Y-111310000D03*
D15*
X95140000Y-111310000D03*
X105300000Y-111310000D03*
D16*
X106570000Y-106230000D03*
X92600000Y-108770000D03*
G04 #@! TD*
G04 #@! TO.C,SW26*
X116412000Y-108770000D03*
X130382000Y-106230000D03*
D15*
X129112000Y-111310000D03*
X118952000Y-111310000D03*
D14*
X124032000Y-111310000D03*
D13*
X120222000Y-108770000D03*
X126572000Y-106230000D03*
G04 #@! TD*
G04 #@! TO.C,SW27*
X167059500Y-106230000D03*
X160709500Y-108770000D03*
D14*
X164519500Y-111310000D03*
D15*
X159439500Y-111310000D03*
X169599500Y-111310000D03*
D16*
X170869500Y-106230000D03*
X156899500Y-108770000D03*
G04 #@! TD*
D17*
G04 #@! TO.C,*
X170050000Y-24600000D03*
G04 #@! TD*
M02*
