M48
;DRILL file {KiCad (5.0.2)-1} date 2019/03/03 0:14:21
;FORMAT={3:3/ absolute / metric / suppress trailing zeros}
FMAT,2
METRIC,LZ
T1C0.400
T2C0.762
T3C0.813
T4C1.000
%
G90
G05
T1
X0214Y-02858
X02586Y-03103
X02588Y-09441
X02821Y-02982
X02821Y-03244
X0319Y-09441
X03221Y-02734
X03221Y-03498
X0345Y-03753
X035608Y-03384
X03789Y-05988
X0379Y-09444
X03973Y-06418
X04006Y-03617
X04071Y-05274
X0421Y-09762
X04211Y-05036
X04354Y-04762
X04356Y-07865
X04467Y-04521
X04468Y-05942
X04558Y-04041
X04972Y-03154
X05034Y-05946
X05273Y-07861
X05433Y-05022
X05659Y-06918
X05748Y-09762
X06135Y-08812
X06463Y-04041
X06883Y-03146
X07415Y-05946
X07803Y-05025
X07809Y-03875
X07891Y-07861
X0827Y-06934
X08368Y-04041
X08614Y-0387
X08794Y-03152
X08843Y-09762
X0924Y-08826
X0932Y-05946
X0971Y-04382
X09718Y-05019
X09796Y-07861
X09946Y-10722
X10207Y-06928
X10273Y-04041
X10681Y-03133
X10748Y-09762
X11126Y-08817
X11225Y-05946
X11606Y-04989
X1161Y-04633
X11701Y-07861
X12096Y-09933
X12097Y-06918
X12177Y-04041
X12327Y-04646
X12333Y-1073
X12571Y-03123
X12653Y-09762
X1304Y-08829
X1313Y-05946
X13517Y-05
X13606Y-07861
X14005Y-06931
X14083Y-04041
X14491Y-03134
X14558Y-09762
X147057Y-06197
X14936Y-08799
X15035Y-05947
X15426Y-05016
X1551Y-07865
X15914Y-06919
X16382Y-10725
X16394Y-03127
X16464Y-09762
X1661Y-06511
X1684Y-08266
X16868Y-08826
X17093Y-0993
X17153Y-04646
X17564Y-08274
T2
X02318Y-02732
X02318Y-02986
X02318Y-0324
X02318Y-03494
X02318Y-03748
X02318Y-04002
X02318Y-04256
X02318Y-0451
X02318Y-04764
X02318Y-05025
X02318Y-05279
X02318Y-05533
X03842Y-02732
X03842Y-02986
X03842Y-0324
X03842Y-03494
X03842Y-03748
X03842Y-04002
X03842Y-04256
X03842Y-0451
X03842Y-04764
X03842Y-05025
X03842Y-05279
X03842Y-05533
T3
X02983Y-06918
X02983Y-0768
X03491Y-06918
X03491Y-0768
T4
X02496Y-05988G85X02546Y-05988
G05
X02796Y-05988G85X02846Y-05988
G05
X03196Y-05988G85X03246Y-05988
G05
X03346Y-06418G85X03396Y-06418
G05
T0
M30
