M48
;DRILL file {KiCad (5.0.2)-1} date 2019/03/03 0:14:21
;FORMAT={3:3/ absolute / metric / suppress trailing zeros}
FMAT,2
METRIC,LZ
T1C1.200
T2C1.800
T3C2.200
T4C3.000
T5C3.050
T6C4.000
%
G90
G05
T1
X02341Y-06203
X03041Y-06203
T2
X164202Y-09226
X174362Y-09226
X088002Y-09226
X098162Y-09226
X049903Y-05416
X060063Y-05416
X09514Y-11131
X1053Y-11131
X126102Y-09226
X136262Y-09226
X135627Y-07321
X145787Y-07321
X06419Y-03511
X07435Y-03511
X154677Y-07321
X164837Y-07321
X15944Y-03511
X1696Y-03511
X116577Y-07321
X126737Y-07321
X052283Y-07321
X062443Y-07321
X078477Y-07321
X088637Y-07321
X08324Y-03511
X0934Y-03511
X057046Y-09226
X067206Y-09226
X092765Y-05416
X102925Y-05416
X14039Y-03511
X15055Y-03511
X149915Y-05416
X160075Y-05416
X12134Y-03511
X1315Y-03511
X130865Y-05416
X141025Y-05416
X073715Y-05416
X083875Y-05416
X145152Y-09226
X155312Y-09226
X118952Y-11131
X129112Y-11131
X10229Y-03511
X11245Y-03511
X097527Y-07321
X107687Y-07321
X04514Y-03511
X0553Y-03511
X159439Y-11131
X1696Y-11131
X107052Y-09226
X117212Y-09226
X111815Y-05416
X121975Y-05416
T3
X02391Y-12184
X025108Y-08273
X17432Y-12184
X035108Y-08273
X04791Y-02459
X17005Y-0246
T4
X098797Y-07067
X105147Y-06813
X04641Y-03257
X05276Y-03003
X160709Y-10877
X167059Y-10623
X108322Y-08972
X114672Y-08718
X113085Y-05162
X119435Y-04908
X165472Y-08972
X171822Y-08718
X089272Y-08972
X095622Y-08718
X051173Y-05162
X057523Y-04908
X09641Y-10877
X10276Y-10623
X127372Y-08972
X133722Y-08718
X136897Y-07067
X143247Y-06813
X06546Y-03257
X07181Y-03003
X155947Y-07067
X162297Y-06813
X16071Y-03257
X16706Y-03003
X117847Y-07067
X124197Y-06813
X053553Y-07067
X059903Y-06813
X079747Y-07067
X086097Y-06813
X08451Y-03257
X09086Y-03003
X058316Y-08972
X064666Y-08718
X094035Y-05162
X100385Y-04908
X14166Y-03257
X14801Y-03003
X151185Y-05162
X157535Y-04908
X12261Y-03257
X12896Y-03003
X132135Y-05162
X138485Y-04908
X074985Y-05162
X081335Y-04908
X146422Y-08972
X152772Y-08718
X120222Y-10877
X126572Y-10623
X10356Y-03257
X10991Y-03003
T5
X050226Y-08526
X074026Y-08526
T6
X097845Y-05416
X14547Y-03511
X154995Y-05416
X12642Y-03511
X135945Y-05416
X078795Y-05416
X150232Y-09226
X124032Y-11131
X10737Y-03511
X102607Y-07321
X05022Y-03511
X16452Y-11131
X112132Y-09226
X116895Y-05416
X169282Y-09226
X093082Y-09226
X054982Y-05416
X10022Y-11131
X131182Y-09226
X140707Y-07321
X06927Y-03511
X159757Y-07321
X16452Y-03511
X121657Y-07321
X057363Y-07321
X083557Y-07321
X08832Y-03511
X050226Y-1005
X062126Y-09226
X074026Y-1005
T0
M30
