M48
;DRILL file {KiCad (5.0.2)-1} date 2019/03/03 0:18:18
;FORMAT={3:3/ absolute / metric / suppress trailing zeros}
FMAT,2
METRIC,LZ
T1C0.400
T2C0.762
T3C0.813
T4C1.000
%
G90
G05
T1
X19893Y-04066
X2028Y-03099
X20369Y-09758
X20757Y-08796
X20845Y-05971
X20995Y-02713
X21217Y-10702
X21228Y-05003
X21232Y-04459
X21321Y-07867
X21472Y-08267
X21713Y-10175
X21719Y-06922
X21798Y-04066
X21944Y-04455
X21948Y-10175
X22177Y-03098
X22183Y-06369
X22274Y-09759
X22422Y-06364
X22656Y-08266
X22658Y-08786
X2275Y-05971
X23126Y-04994
X23144Y-04245
X23226Y-07867
X23372Y-08282
X23613Y-1018
X23623Y-06922
X23702Y-04066
X23851Y-04247
X24092Y-06363
X24099Y-03105
X24179Y-09759
X24328Y-06364
X24564Y-08275
X24566Y-0879
X24655Y-05971
X25045Y-05026
X25047Y-04353
X25131Y-07867
X25272Y-10699
X25274Y-0828
X25528Y-09947
X25545Y-06945
X25608Y-04066
X25756Y-04354
X25994Y-03121
X25994Y-10179
X26005Y-06368
X26084Y-09759
X26231Y-06366
X26461Y-08771
X26477Y-0827
X2656Y-05971
X26959Y-04539
X26959Y-05023
X27036Y-07867
X27184Y-08274
X2743Y-10187
X27436Y-06942
X27512Y-04066
X2766Y-045405
X27905Y-0309
X27916Y-06371
X27989Y-09759
X28136Y-0637
X28369Y-08777
X28381Y-08271
X28465Y-05971
X28845Y-1069
X28858Y-0446
X28858Y-0501
X28941Y-07867
X29093Y-08281
X2933Y-06935
X2933Y-10328
X29417Y-04066
X29566Y-04463
X2957Y-09945
X29803Y-03094
X29812Y-06365
X29893Y-09759
X30041Y-06367
X30266Y-08773
X30279Y-08278
X3037Y-05971
X30747Y-10702
X30758Y-05024
X30762Y-04647
X30846Y-07867
X30989Y-08277
X31235Y-06935
X31323Y-04066
X31471Y-04644
X31475Y-10187
X31711Y-0308
X31726Y-06366
X31946Y-06368
X32179Y-08272
X32274Y-05971
X32663Y-107
X32669Y-05027
X32671Y-04466
X33061Y-10184
X33229Y-04063
X33376Y-04468
X3338Y-10336
X33468Y-09759
X33612Y-06367
X33628Y-03117
X33739Y-09629
X33743Y-06511
X33841Y-08773
X33942Y-07867
X34326Y-06913
X34568Y-107
X3457Y-08277
X34655Y-0597
X34755Y-10181
X35042Y-06361
X35049Y-05027
X35273Y-08266
X35301Y-03863
X35518Y-03127
X35755Y-0444
X35922Y-0976
X35927Y-0516
X36044Y-04639
X36044Y-0597
X36165Y-06365
X36166Y-05286
X36169Y-03862
X36173Y-04855
X36303Y-04436
X36303Y-05537
X36309Y-09628
X3631Y-05723
X36448Y-05392
X3647Y-04247
X36565Y-05721
X36589Y-05974
X36699Y-08906
X36702Y-05717
X36828Y-05813
X36993Y-08911
X37043Y-03242
X37047Y-09947
X37398Y-0878
X37435Y-02725
X37435Y-03496
X37798Y-02991
X37798Y-03234
X37933Y-02989
X37935Y-05806
X38028Y-08775
X38057Y-04002
X38057Y-05707
T2
X36777Y-02732
X36777Y-02986
X36777Y-0324
X36777Y-03494
X36777Y-03748
X36777Y-04002
X36777Y-04256
X36777Y-0451
X36777Y-04764
X36777Y-05025
X36777Y-05279
X36777Y-05533
X38301Y-02732
X38301Y-02986
X38301Y-0324
X38301Y-03494
X38301Y-03748
X38301Y-04002
X38301Y-04256
X38301Y-0451
X38301Y-04764
X38301Y-05025
X38301Y-05279
X38301Y-05533
T3
X37128Y-06918
X37128Y-0768
X37636Y-06918
X37636Y-0768
T4
X37273Y-05978G85X37223Y-05978
G05
X37423Y-06408G85X37373Y-06408
G05
X37823Y-06408G85X37773Y-06408
G05
X38123Y-06408G85X38073Y-06408
G05
T0
M30
