%FSLAX45Y45*%
G04 Gerber Fmt 4.5, Leading zero omitted, Abs format (unit mm)*
G04 Created by KiCad (PCBNEW (5.0.2)-1) date 2019/03/03 0:18:20*
%MOMM*%
%LPD*%
G01*
G04 APERTURE LIST*
%ADD10C,0.150000*%
%ADD11C,0.200000*%
%ADD12C,0.300000*%
G04 APERTURE END LIST*
D10*
X19404000Y-4459000D02*
X19881000Y-4459000D01*
X19404000Y-2059000D02*
X19404000Y-4459000D01*
X38628000Y-2059000D02*
X38628000Y-12584000D01*
X19881000Y-4459000D02*
X19881000Y-12584000D01*
X19881000Y-12584000D02*
X38628000Y-12584000D01*
X19404000Y-2059000D02*
X38628000Y-2059000D01*
D11*
X19873000Y-4046000D02*
X19913000Y-4086000D01*
X19913000Y-4046000D02*
X19873000Y-4086000D01*
X20260000Y-3079000D02*
X20300000Y-3119000D01*
X20300000Y-3079000D02*
X20260000Y-3119000D01*
X20349000Y-9738000D02*
X20389000Y-9778000D01*
X20389000Y-9738000D02*
X20349000Y-9778000D01*
X20737000Y-8776000D02*
X20777000Y-8816000D01*
X20777000Y-8776000D02*
X20737000Y-8816000D01*
X20825000Y-5951000D02*
X20865000Y-5991000D01*
X20865000Y-5951000D02*
X20825000Y-5991000D01*
X20975000Y-2693000D02*
X21015000Y-2733000D01*
X21015000Y-2693000D02*
X20975000Y-2733000D01*
X21197000Y-10682000D02*
X21237000Y-10722000D01*
X21237000Y-10682000D02*
X21197000Y-10722000D01*
X21208000Y-4983000D02*
X21248000Y-5023000D01*
X21248000Y-4983000D02*
X21208000Y-5023000D01*
X21212000Y-4439000D02*
X21252000Y-4479000D01*
X21252000Y-4439000D02*
X21212000Y-4479000D01*
X21301000Y-7847000D02*
X21341000Y-7887000D01*
X21341000Y-7847000D02*
X21301000Y-7887000D01*
X21452000Y-8247000D02*
X21492000Y-8287000D01*
X21492000Y-8247000D02*
X21452000Y-8287000D01*
X21693000Y-10155000D02*
X21733000Y-10195000D01*
X21733000Y-10155000D02*
X21693000Y-10195000D01*
X21699000Y-6902000D02*
X21739000Y-6942000D01*
X21739000Y-6902000D02*
X21699000Y-6942000D01*
X21778000Y-4046000D02*
X21818000Y-4086000D01*
X21818000Y-4046000D02*
X21778000Y-4086000D01*
X21924000Y-4435000D02*
X21964000Y-4475000D01*
X21964000Y-4435000D02*
X21924000Y-4475000D01*
X21928000Y-10155000D02*
X21968000Y-10195000D01*
X21968000Y-10155000D02*
X21928000Y-10195000D01*
X22157000Y-3078000D02*
X22197000Y-3118000D01*
X22197000Y-3078000D02*
X22157000Y-3118000D01*
X22163000Y-6349000D02*
X22203000Y-6389000D01*
X22203000Y-6349000D02*
X22163000Y-6389000D01*
X22254000Y-9739000D02*
X22294000Y-9779000D01*
X22294000Y-9739000D02*
X22254000Y-9779000D01*
X22402000Y-6344000D02*
X22442000Y-6384000D01*
X22442000Y-6344000D02*
X22402000Y-6384000D01*
X22636000Y-8246000D02*
X22676000Y-8286000D01*
X22676000Y-8246000D02*
X22636000Y-8286000D01*
X22638000Y-8766000D02*
X22678000Y-8806000D01*
X22678000Y-8766000D02*
X22638000Y-8806000D01*
X22730000Y-5951000D02*
X22770000Y-5991000D01*
X22770000Y-5951000D02*
X22730000Y-5991000D01*
X23106000Y-4974000D02*
X23146000Y-5014000D01*
X23146000Y-4974000D02*
X23106000Y-5014000D01*
X23124000Y-4225000D02*
X23164000Y-4265000D01*
X23164000Y-4225000D02*
X23124000Y-4265000D01*
X23206000Y-7847000D02*
X23246000Y-7887000D01*
X23246000Y-7847000D02*
X23206000Y-7887000D01*
X23352000Y-8262000D02*
X23392000Y-8302000D01*
X23392000Y-8262000D02*
X23352000Y-8302000D01*
X23593000Y-10160000D02*
X23633000Y-10200000D01*
X23633000Y-10160000D02*
X23593000Y-10200000D01*
X23603000Y-6902000D02*
X23643000Y-6942000D01*
X23643000Y-6902000D02*
X23603000Y-6942000D01*
X23682000Y-4046000D02*
X23722000Y-4086000D01*
X23722000Y-4046000D02*
X23682000Y-4086000D01*
X23831000Y-4227000D02*
X23871000Y-4267000D01*
X23871000Y-4227000D02*
X23831000Y-4267000D01*
X24072000Y-6343000D02*
X24112000Y-6383000D01*
X24112000Y-6343000D02*
X24072000Y-6383000D01*
X24079000Y-3085000D02*
X24119000Y-3125000D01*
X24119000Y-3085000D02*
X24079000Y-3125000D01*
X24159000Y-9739000D02*
X24199000Y-9779000D01*
X24199000Y-9739000D02*
X24159000Y-9779000D01*
X24308000Y-6344000D02*
X24348000Y-6384000D01*
X24348000Y-6344000D02*
X24308000Y-6384000D01*
X24544000Y-8255000D02*
X24584000Y-8295000D01*
X24584000Y-8255000D02*
X24544000Y-8295000D01*
X24546000Y-8770000D02*
X24586000Y-8810000D01*
X24586000Y-8770000D02*
X24546000Y-8810000D01*
X24635000Y-5951000D02*
X24675000Y-5991000D01*
X24675000Y-5951000D02*
X24635000Y-5991000D01*
X25025000Y-5006000D02*
X25065000Y-5046000D01*
X25065000Y-5006000D02*
X25025000Y-5046000D01*
X25027000Y-4333000D02*
X25067000Y-4373000D01*
X25067000Y-4333000D02*
X25027000Y-4373000D01*
X25111000Y-7847000D02*
X25151000Y-7887000D01*
X25151000Y-7847000D02*
X25111000Y-7887000D01*
X25252000Y-10679000D02*
X25292000Y-10719000D01*
X25292000Y-10679000D02*
X25252000Y-10719000D01*
X25254000Y-8260000D02*
X25294000Y-8300000D01*
X25294000Y-8260000D02*
X25254000Y-8300000D01*
X25508000Y-9927000D02*
X25548000Y-9967000D01*
X25548000Y-9927000D02*
X25508000Y-9967000D01*
X25525000Y-6925000D02*
X25565000Y-6965000D01*
X25565000Y-6925000D02*
X25525000Y-6965000D01*
X25588000Y-4046000D02*
X25628000Y-4086000D01*
X25628000Y-4046000D02*
X25588000Y-4086000D01*
X25736000Y-4334000D02*
X25776000Y-4374000D01*
X25776000Y-4334000D02*
X25736000Y-4374000D01*
X25974000Y-3101000D02*
X26014000Y-3141000D01*
X26014000Y-3101000D02*
X25974000Y-3141000D01*
X25974000Y-10159000D02*
X26014000Y-10199000D01*
X26014000Y-10159000D02*
X25974000Y-10199000D01*
X25985000Y-6348000D02*
X26025000Y-6388000D01*
X26025000Y-6348000D02*
X25985000Y-6388000D01*
X26064000Y-9739000D02*
X26104000Y-9779000D01*
X26104000Y-9739000D02*
X26064000Y-9779000D01*
X26211000Y-6346000D02*
X26251000Y-6386000D01*
X26251000Y-6346000D02*
X26211000Y-6386000D01*
X26441000Y-8751000D02*
X26481000Y-8791000D01*
X26481000Y-8751000D02*
X26441000Y-8791000D01*
X26457000Y-8250000D02*
X26497000Y-8290000D01*
X26497000Y-8250000D02*
X26457000Y-8290000D01*
X26540000Y-5951000D02*
X26580000Y-5991000D01*
X26580000Y-5951000D02*
X26540000Y-5991000D01*
X26939000Y-4519000D02*
X26979000Y-4559000D01*
X26979000Y-4519000D02*
X26939000Y-4559000D01*
X26939000Y-5003000D02*
X26979000Y-5043000D01*
X26979000Y-5003000D02*
X26939000Y-5043000D01*
X27016000Y-7847000D02*
X27056000Y-7887000D01*
X27056000Y-7847000D02*
X27016000Y-7887000D01*
X27164000Y-8254000D02*
X27204000Y-8294000D01*
X27204000Y-8254000D02*
X27164000Y-8294000D01*
X27410000Y-10167000D02*
X27450000Y-10207000D01*
X27450000Y-10167000D02*
X27410000Y-10207000D01*
X27416000Y-6922000D02*
X27456000Y-6962000D01*
X27456000Y-6922000D02*
X27416000Y-6962000D01*
X27492000Y-4046000D02*
X27532000Y-4086000D01*
X27532000Y-4046000D02*
X27492000Y-4086000D01*
X27640000Y-4520500D02*
X27680000Y-4560500D01*
X27680000Y-4520500D02*
X27640000Y-4560500D01*
X27885000Y-3070000D02*
X27925000Y-3110000D01*
X27925000Y-3070000D02*
X27885000Y-3110000D01*
X27896000Y-6351000D02*
X27936000Y-6391000D01*
X27936000Y-6351000D02*
X27896000Y-6391000D01*
X27969000Y-9739000D02*
X28009000Y-9779000D01*
X28009000Y-9739000D02*
X27969000Y-9779000D01*
X28116000Y-6350000D02*
X28156000Y-6390000D01*
X28156000Y-6350000D02*
X28116000Y-6390000D01*
X28349000Y-8757000D02*
X28389000Y-8797000D01*
X28389000Y-8757000D02*
X28349000Y-8797000D01*
X28361000Y-8251000D02*
X28401000Y-8291000D01*
X28401000Y-8251000D02*
X28361000Y-8291000D01*
X28445000Y-5951000D02*
X28485000Y-5991000D01*
X28485000Y-5951000D02*
X28445000Y-5991000D01*
X28825000Y-10670000D02*
X28865000Y-10710000D01*
X28865000Y-10670000D02*
X28825000Y-10710000D01*
X28838000Y-4440000D02*
X28878000Y-4480000D01*
X28878000Y-4440000D02*
X28838000Y-4480000D01*
X28838000Y-4990000D02*
X28878000Y-5030000D01*
X28878000Y-4990000D02*
X28838000Y-5030000D01*
X28921000Y-7847000D02*
X28961000Y-7887000D01*
X28961000Y-7847000D02*
X28921000Y-7887000D01*
X29073000Y-8261000D02*
X29113000Y-8301000D01*
X29113000Y-8261000D02*
X29073000Y-8301000D01*
X29310000Y-6915000D02*
X29350000Y-6955000D01*
X29350000Y-6915000D02*
X29310000Y-6955000D01*
X29310000Y-10308000D02*
X29350000Y-10348000D01*
X29350000Y-10308000D02*
X29310000Y-10348000D01*
X29397000Y-4046000D02*
X29437000Y-4086000D01*
X29437000Y-4046000D02*
X29397000Y-4086000D01*
X29546000Y-4443000D02*
X29586000Y-4483000D01*
X29586000Y-4443000D02*
X29546000Y-4483000D01*
X29550000Y-9925000D02*
X29590000Y-9965000D01*
X29590000Y-9925000D02*
X29550000Y-9965000D01*
X29783000Y-3074000D02*
X29823000Y-3114000D01*
X29823000Y-3074000D02*
X29783000Y-3114000D01*
X29792000Y-6345000D02*
X29832000Y-6385000D01*
X29832000Y-6345000D02*
X29792000Y-6385000D01*
X29873000Y-9739000D02*
X29913000Y-9779000D01*
X29913000Y-9739000D02*
X29873000Y-9779000D01*
X30021000Y-6347000D02*
X30061000Y-6387000D01*
X30061000Y-6347000D02*
X30021000Y-6387000D01*
X30246000Y-8753000D02*
X30286000Y-8793000D01*
X30286000Y-8753000D02*
X30246000Y-8793000D01*
X30259000Y-8258000D02*
X30299000Y-8298000D01*
X30299000Y-8258000D02*
X30259000Y-8298000D01*
X30350000Y-5951000D02*
X30390000Y-5991000D01*
X30390000Y-5951000D02*
X30350000Y-5991000D01*
X30727000Y-10682000D02*
X30767000Y-10722000D01*
X30767000Y-10682000D02*
X30727000Y-10722000D01*
X30738000Y-5004000D02*
X30778000Y-5044000D01*
X30778000Y-5004000D02*
X30738000Y-5044000D01*
X30742000Y-4627000D02*
X30782000Y-4667000D01*
X30782000Y-4627000D02*
X30742000Y-4667000D01*
X30826000Y-7847000D02*
X30866000Y-7887000D01*
X30866000Y-7847000D02*
X30826000Y-7887000D01*
X30969000Y-8257000D02*
X31009000Y-8297000D01*
X31009000Y-8257000D02*
X30969000Y-8297000D01*
X31215000Y-6915000D02*
X31255000Y-6955000D01*
X31255000Y-6915000D02*
X31215000Y-6955000D01*
X31303000Y-4046000D02*
X31343000Y-4086000D01*
X31343000Y-4046000D02*
X31303000Y-4086000D01*
X31451000Y-4624000D02*
X31491000Y-4664000D01*
X31491000Y-4624000D02*
X31451000Y-4664000D01*
X31455000Y-10167000D02*
X31495000Y-10207000D01*
X31495000Y-10167000D02*
X31455000Y-10207000D01*
X31691000Y-3060000D02*
X31731000Y-3100000D01*
X31731000Y-3060000D02*
X31691000Y-3100000D01*
X31706000Y-6346000D02*
X31746000Y-6386000D01*
X31746000Y-6346000D02*
X31706000Y-6386000D01*
X31926000Y-6348000D02*
X31966000Y-6388000D01*
X31966000Y-6348000D02*
X31926000Y-6388000D01*
X32159000Y-8252000D02*
X32199000Y-8292000D01*
X32199000Y-8252000D02*
X32159000Y-8292000D01*
X32254000Y-5951000D02*
X32294000Y-5991000D01*
X32294000Y-5951000D02*
X32254000Y-5991000D01*
X32643000Y-10680000D02*
X32683000Y-10720000D01*
X32683000Y-10680000D02*
X32643000Y-10720000D01*
X32649000Y-5007000D02*
X32689000Y-5047000D01*
X32689000Y-5007000D02*
X32649000Y-5047000D01*
X32651000Y-4446000D02*
X32691000Y-4486000D01*
X32691000Y-4446000D02*
X32651000Y-4486000D01*
X33041000Y-10164000D02*
X33081000Y-10204000D01*
X33081000Y-10164000D02*
X33041000Y-10204000D01*
X33209000Y-4043000D02*
X33249000Y-4083000D01*
X33249000Y-4043000D02*
X33209000Y-4083000D01*
X33356000Y-4448000D02*
X33396000Y-4488000D01*
X33396000Y-4448000D02*
X33356000Y-4488000D01*
X33360000Y-10316000D02*
X33400000Y-10356000D01*
X33400000Y-10316000D02*
X33360000Y-10356000D01*
X33448000Y-9739000D02*
X33488000Y-9779000D01*
X33488000Y-9739000D02*
X33448000Y-9779000D01*
X33592000Y-6347000D02*
X33632000Y-6387000D01*
X33632000Y-6347000D02*
X33592000Y-6387000D01*
X33608000Y-3097000D02*
X33648000Y-3137000D01*
X33648000Y-3097000D02*
X33608000Y-3137000D01*
X33719000Y-9609000D02*
X33759000Y-9649000D01*
X33759000Y-9609000D02*
X33719000Y-9649000D01*
X33723000Y-6491000D02*
X33763000Y-6531000D01*
X33763000Y-6491000D02*
X33723000Y-6531000D01*
X33821000Y-8753000D02*
X33861000Y-8793000D01*
X33861000Y-8753000D02*
X33821000Y-8793000D01*
X33922000Y-7847000D02*
X33962000Y-7887000D01*
X33962000Y-7847000D02*
X33922000Y-7887000D01*
X34306000Y-6893000D02*
X34346000Y-6933000D01*
X34346000Y-6893000D02*
X34306000Y-6933000D01*
X34548000Y-10680000D02*
X34588000Y-10720000D01*
X34588000Y-10680000D02*
X34548000Y-10720000D01*
X34550000Y-8257000D02*
X34590000Y-8297000D01*
X34590000Y-8257000D02*
X34550000Y-8297000D01*
X34635000Y-5950000D02*
X34675000Y-5990000D01*
X34675000Y-5950000D02*
X34635000Y-5990000D01*
X34735000Y-10161000D02*
X34775000Y-10201000D01*
X34775000Y-10161000D02*
X34735000Y-10201000D01*
X35022000Y-6341000D02*
X35062000Y-6381000D01*
X35062000Y-6341000D02*
X35022000Y-6381000D01*
X35029000Y-5007000D02*
X35069000Y-5047000D01*
X35069000Y-5007000D02*
X35029000Y-5047000D01*
X35253000Y-8246000D02*
X35293000Y-8286000D01*
X35293000Y-8246000D02*
X35253000Y-8286000D01*
X35281000Y-3843000D02*
X35321000Y-3883000D01*
X35321000Y-3843000D02*
X35281000Y-3883000D01*
X35498000Y-3107000D02*
X35538000Y-3147000D01*
X35538000Y-3107000D02*
X35498000Y-3147000D01*
X35735000Y-4420000D02*
X35775000Y-4460000D01*
X35775000Y-4420000D02*
X35735000Y-4460000D01*
X35902000Y-9740000D02*
X35942000Y-9780000D01*
X35942000Y-9740000D02*
X35902000Y-9780000D01*
X35907000Y-5140000D02*
X35947000Y-5180000D01*
X35947000Y-5140000D02*
X35907000Y-5180000D01*
X36024000Y-4619000D02*
X36064000Y-4659000D01*
X36064000Y-4619000D02*
X36024000Y-4659000D01*
X36024000Y-5950000D02*
X36064000Y-5990000D01*
X36064000Y-5950000D02*
X36024000Y-5990000D01*
X36145000Y-6345000D02*
X36185000Y-6385000D01*
X36185000Y-6345000D02*
X36145000Y-6385000D01*
X36146000Y-5266000D02*
X36186000Y-5306000D01*
X36186000Y-5266000D02*
X36146000Y-5306000D01*
X36149000Y-3842000D02*
X36189000Y-3882000D01*
X36189000Y-3842000D02*
X36149000Y-3882000D01*
X36153000Y-4835000D02*
X36193000Y-4875000D01*
X36193000Y-4835000D02*
X36153000Y-4875000D01*
X36283000Y-4416000D02*
X36323000Y-4456000D01*
X36323000Y-4416000D02*
X36283000Y-4456000D01*
X36283000Y-5517000D02*
X36323000Y-5557000D01*
X36323000Y-5517000D02*
X36283000Y-5557000D01*
X36289000Y-9608000D02*
X36329000Y-9648000D01*
X36329000Y-9608000D02*
X36289000Y-9648000D01*
X36290000Y-5703000D02*
X36330000Y-5743000D01*
X36330000Y-5703000D02*
X36290000Y-5743000D01*
X36428000Y-5372000D02*
X36468000Y-5412000D01*
X36468000Y-5372000D02*
X36428000Y-5412000D01*
X36450000Y-4227000D02*
X36490000Y-4267000D01*
X36490000Y-4227000D02*
X36450000Y-4267000D01*
X36545000Y-5701000D02*
X36585000Y-5741000D01*
X36585000Y-5701000D02*
X36545000Y-5741000D01*
X36569000Y-5954000D02*
X36609000Y-5994000D01*
X36609000Y-5954000D02*
X36569000Y-5994000D01*
X36679000Y-8886000D02*
X36719000Y-8926000D01*
X36719000Y-8886000D02*
X36679000Y-8926000D01*
X36682000Y-5697000D02*
X36722000Y-5737000D01*
X36722000Y-5697000D02*
X36682000Y-5737000D01*
X36808000Y-5793000D02*
X36848000Y-5833000D01*
X36848000Y-5793000D02*
X36808000Y-5833000D01*
X36973000Y-8891000D02*
X37013000Y-8931000D01*
X37013000Y-8891000D02*
X36973000Y-8931000D01*
X37023000Y-3222000D02*
X37063000Y-3262000D01*
X37063000Y-3222000D02*
X37023000Y-3262000D01*
X37027000Y-9927000D02*
X37067000Y-9967000D01*
X37067000Y-9927000D02*
X37027000Y-9967000D01*
X37378000Y-8760000D02*
X37418000Y-8800000D01*
X37418000Y-8760000D02*
X37378000Y-8800000D01*
X37415000Y-2705000D02*
X37455000Y-2745000D01*
X37455000Y-2705000D02*
X37415000Y-2745000D01*
X37415000Y-3476000D02*
X37455000Y-3516000D01*
X37455000Y-3476000D02*
X37415000Y-3516000D01*
X37778000Y-2971000D02*
X37818000Y-3011000D01*
X37818000Y-2971000D02*
X37778000Y-3011000D01*
X37778000Y-3214000D02*
X37818000Y-3254000D01*
X37818000Y-3214000D02*
X37778000Y-3254000D01*
X37913000Y-2969000D02*
X37953000Y-3009000D01*
X37953000Y-2969000D02*
X37913000Y-3009000D01*
X37915000Y-5786000D02*
X37955000Y-5826000D01*
X37955000Y-5786000D02*
X37915000Y-5826000D01*
X38008000Y-8755000D02*
X38048000Y-8795000D01*
X38048000Y-8755000D02*
X38008000Y-8795000D01*
X38037000Y-3982000D02*
X38077000Y-4022000D01*
X38077000Y-3982000D02*
X38037000Y-4022000D01*
X38037000Y-5687000D02*
X38077000Y-5727000D01*
X38077000Y-5687000D02*
X38037000Y-5727000D01*
X36815100Y-2732000D02*
G75*
G03X36815100Y-2732000I-38100J0D01*
G01*
X36815100Y-2986000D02*
G75*
G03X36815100Y-2986000I-38100J0D01*
G01*
X36815100Y-3240000D02*
G75*
G03X36815100Y-3240000I-38100J0D01*
G01*
X36815100Y-3494000D02*
G75*
G03X36815100Y-3494000I-38100J0D01*
G01*
X36815100Y-3748000D02*
G75*
G03X36815100Y-3748000I-38100J0D01*
G01*
X36815100Y-4002000D02*
G75*
G03X36815100Y-4002000I-38100J0D01*
G01*
X36815100Y-4256000D02*
G75*
G03X36815100Y-4256000I-38100J0D01*
G01*
X36815100Y-4510000D02*
G75*
G03X36815100Y-4510000I-38100J0D01*
G01*
X36815100Y-4764000D02*
G75*
G03X36815100Y-4764000I-38100J0D01*
G01*
X36815100Y-5025000D02*
G75*
G03X36815100Y-5025000I-38100J0D01*
G01*
X36815100Y-5279000D02*
G75*
G03X36815100Y-5279000I-38100J0D01*
G01*
X36815100Y-5533000D02*
G75*
G03X36815100Y-5533000I-38100J0D01*
G01*
X38339100Y-2732000D02*
G75*
G03X38339100Y-2732000I-38100J0D01*
G01*
X38339100Y-2986000D02*
G75*
G03X38339100Y-2986000I-38100J0D01*
G01*
X38339100Y-3240000D02*
G75*
G03X38339100Y-3240000I-38100J0D01*
G01*
X38339100Y-3494000D02*
G75*
G03X38339100Y-3494000I-38100J0D01*
G01*
X38339100Y-3748000D02*
G75*
G03X38339100Y-3748000I-38100J0D01*
G01*
X38339100Y-4002000D02*
G75*
G03X38339100Y-4002000I-38100J0D01*
G01*
X38339100Y-4256000D02*
G75*
G03X38339100Y-4256000I-38100J0D01*
G01*
X38339100Y-4510000D02*
G75*
G03X38339100Y-4510000I-38100J0D01*
G01*
X38339100Y-4764000D02*
G75*
G03X38339100Y-4764000I-38100J0D01*
G01*
X38339100Y-5025000D02*
G75*
G03X38339100Y-5025000I-38100J0D01*
G01*
X38339100Y-5279000D02*
G75*
G03X38339100Y-5279000I-38100J0D01*
G01*
X38339100Y-5533000D02*
G75*
G03X38339100Y-5533000I-38100J0D01*
G01*
X37128000Y-6877360D02*
X37128000Y-6958640D01*
X37087360Y-6918000D02*
X37168640Y-6918000D01*
X37128000Y-7639360D02*
X37128000Y-7720640D01*
X37087360Y-7680000D02*
X37168640Y-7680000D01*
X37636000Y-6877360D02*
X37636000Y-6958640D01*
X37595360Y-6918000D02*
X37676640Y-6918000D01*
X37636000Y-7639360D02*
X37636000Y-7720640D01*
X37595360Y-7680000D02*
X37676640Y-7680000D01*
X37283356Y-6013356D02*
X37283356Y-5942644D01*
X37212644Y-5942644D01*
X37212644Y-6013356D01*
X37283356Y-6013356D01*
X37273000Y-5938000D02*
X37223000Y-5938000D01*
X37273000Y-6018000D02*
X37223000Y-6018000D01*
X37223000Y-5938000D02*
G75*
G03X37223000Y-6018000I0J-40000D01*
G01*
X37273000Y-6018000D02*
G75*
G03X37273000Y-5938000I0J40000D01*
G01*
X37433356Y-6443356D02*
X37433356Y-6372644D01*
X37362644Y-6372644D01*
X37362644Y-6443356D01*
X37433356Y-6443356D01*
X37423000Y-6368000D02*
X37373000Y-6368000D01*
X37423000Y-6448000D02*
X37373000Y-6448000D01*
X37373000Y-6368000D02*
G75*
G03X37373000Y-6448000I0J-40000D01*
G01*
X37423000Y-6448000D02*
G75*
G03X37423000Y-6368000I0J40000D01*
G01*
X37833356Y-6443356D02*
X37833356Y-6372644D01*
X37762644Y-6372644D01*
X37762644Y-6443356D01*
X37833356Y-6443356D01*
X37823000Y-6368000D02*
X37773000Y-6368000D01*
X37823000Y-6448000D02*
X37773000Y-6448000D01*
X37773000Y-6368000D02*
G75*
G03X37773000Y-6448000I0J-40000D01*
G01*
X37823000Y-6448000D02*
G75*
G03X37823000Y-6368000I0J40000D01*
G01*
X38133356Y-6443356D02*
X38133356Y-6372644D01*
X38062644Y-6372644D01*
X38062644Y-6443356D01*
X38133356Y-6443356D01*
X38123000Y-6368000D02*
X38073000Y-6368000D01*
X38123000Y-6448000D02*
X38073000Y-6448000D01*
X38073000Y-6368000D02*
G75*
G03X38073000Y-6448000I0J-40000D01*
G01*
X38123000Y-6448000D02*
G75*
G03X38123000Y-6368000I0J40000D01*
G01*
D12*
X19682928Y-13057214D02*
X19682928Y-12757214D01*
X19754357Y-12757214D01*
X19797214Y-12771500D01*
X19825786Y-12800071D01*
X19840071Y-12828643D01*
X19854357Y-12885786D01*
X19854357Y-12928643D01*
X19840071Y-12985786D01*
X19825786Y-13014357D01*
X19797214Y-13042929D01*
X19754357Y-13057214D01*
X19682928Y-13057214D01*
X19982928Y-13057214D02*
X19982928Y-12857214D01*
X19982928Y-12914357D02*
X19997214Y-12885786D01*
X20011500Y-12871500D01*
X20040071Y-12857214D01*
X20068643Y-12857214D01*
X20168643Y-13057214D02*
X20168643Y-12857214D01*
X20168643Y-12757214D02*
X20154357Y-12771500D01*
X20168643Y-12785786D01*
X20182928Y-12771500D01*
X20168643Y-12757214D01*
X20168643Y-12785786D01*
X20354357Y-13057214D02*
X20325786Y-13042929D01*
X20311500Y-13014357D01*
X20311500Y-12757214D01*
X20511500Y-13057214D02*
X20482928Y-13042929D01*
X20468643Y-13014357D01*
X20468643Y-12757214D01*
X20854357Y-13057214D02*
X20854357Y-12757214D01*
X20954357Y-12971500D01*
X21054357Y-12757214D01*
X21054357Y-13057214D01*
X21325786Y-13057214D02*
X21325786Y-12900071D01*
X21311500Y-12871500D01*
X21282928Y-12857214D01*
X21225786Y-12857214D01*
X21197214Y-12871500D01*
X21325786Y-13042929D02*
X21297214Y-13057214D01*
X21225786Y-13057214D01*
X21197214Y-13042929D01*
X21182928Y-13014357D01*
X21182928Y-12985786D01*
X21197214Y-12957214D01*
X21225786Y-12942929D01*
X21297214Y-12942929D01*
X21325786Y-12928643D01*
X21468643Y-12857214D02*
X21468643Y-13157214D01*
X21468643Y-12871500D02*
X21497214Y-12857214D01*
X21554357Y-12857214D01*
X21582928Y-12871500D01*
X21597214Y-12885786D01*
X21611500Y-12914357D01*
X21611500Y-13000071D01*
X21597214Y-13028643D01*
X21582928Y-13042929D01*
X21554357Y-13057214D01*
X21497214Y-13057214D01*
X21468643Y-13042929D01*
X21740071Y-13028643D02*
X21754357Y-13042929D01*
X21740071Y-13057214D01*
X21725786Y-13042929D01*
X21740071Y-13028643D01*
X21740071Y-13057214D01*
X21740071Y-12871500D02*
X21754357Y-12885786D01*
X21740071Y-12900071D01*
X21725786Y-12885786D01*
X21740071Y-12871500D01*
X21740071Y-12900071D01*
X19356500Y-13531500D02*
X19396500Y-13571500D01*
X19396500Y-13531500D02*
X19356500Y-13571500D01*
X19740071Y-13387214D02*
X19768643Y-13387214D01*
X19797214Y-13401500D01*
X19811500Y-13415786D01*
X19825786Y-13444357D01*
X19840071Y-13501500D01*
X19840071Y-13572929D01*
X19825786Y-13630071D01*
X19811500Y-13658643D01*
X19797214Y-13672929D01*
X19768643Y-13687214D01*
X19740071Y-13687214D01*
X19711500Y-13672929D01*
X19697214Y-13658643D01*
X19682928Y-13630071D01*
X19668643Y-13572929D01*
X19668643Y-13501500D01*
X19682928Y-13444357D01*
X19697214Y-13415786D01*
X19711500Y-13401500D01*
X19740071Y-13387214D01*
X19968643Y-13658643D02*
X19982928Y-13672929D01*
X19968643Y-13687214D01*
X19954357Y-13672929D01*
X19968643Y-13658643D01*
X19968643Y-13687214D01*
X20240071Y-13487214D02*
X20240071Y-13687214D01*
X20168643Y-13372929D02*
X20097214Y-13587214D01*
X20282928Y-13587214D01*
X20454357Y-13387214D02*
X20482928Y-13387214D01*
X20511500Y-13401500D01*
X20525786Y-13415786D01*
X20540071Y-13444357D01*
X20554357Y-13501500D01*
X20554357Y-13572929D01*
X20540071Y-13630071D01*
X20525786Y-13658643D01*
X20511500Y-13672929D01*
X20482928Y-13687214D01*
X20454357Y-13687214D01*
X20425786Y-13672929D01*
X20411500Y-13658643D01*
X20397214Y-13630071D01*
X20382928Y-13572929D01*
X20382928Y-13501500D01*
X20397214Y-13444357D01*
X20411500Y-13415786D01*
X20425786Y-13401500D01*
X20454357Y-13387214D01*
X20682928Y-13687214D02*
X20682928Y-13487214D01*
X20682928Y-13515786D02*
X20697214Y-13501500D01*
X20725786Y-13487214D01*
X20768643Y-13487214D01*
X20797214Y-13501500D01*
X20811500Y-13530071D01*
X20811500Y-13687214D01*
X20811500Y-13530071D02*
X20825786Y-13501500D01*
X20854357Y-13487214D01*
X20897214Y-13487214D01*
X20925786Y-13501500D01*
X20940071Y-13530071D01*
X20940071Y-13687214D01*
X21082928Y-13687214D02*
X21082928Y-13487214D01*
X21082928Y-13515786D02*
X21097214Y-13501500D01*
X21125786Y-13487214D01*
X21168643Y-13487214D01*
X21197214Y-13501500D01*
X21211500Y-13530071D01*
X21211500Y-13687214D01*
X21211500Y-13530071D02*
X21225786Y-13501500D01*
X21254357Y-13487214D01*
X21297214Y-13487214D01*
X21325786Y-13501500D01*
X21340071Y-13530071D01*
X21340071Y-13687214D01*
X21925786Y-13372929D02*
X21668643Y-13758643D01*
X22311500Y-13387214D02*
X22340071Y-13387214D01*
X22368643Y-13401500D01*
X22382928Y-13415786D01*
X22397214Y-13444357D01*
X22411500Y-13501500D01*
X22411500Y-13572929D01*
X22397214Y-13630071D01*
X22382928Y-13658643D01*
X22368643Y-13672929D01*
X22340071Y-13687214D01*
X22311500Y-13687214D01*
X22282928Y-13672929D01*
X22268643Y-13658643D01*
X22254357Y-13630071D01*
X22240071Y-13572929D01*
X22240071Y-13501500D01*
X22254357Y-13444357D01*
X22268643Y-13415786D01*
X22282928Y-13401500D01*
X22311500Y-13387214D01*
X22540071Y-13658643D02*
X22554357Y-13672929D01*
X22540071Y-13687214D01*
X22525786Y-13672929D01*
X22540071Y-13658643D01*
X22540071Y-13687214D01*
X22740071Y-13387214D02*
X22768643Y-13387214D01*
X22797214Y-13401500D01*
X22811500Y-13415786D01*
X22825786Y-13444357D01*
X22840071Y-13501500D01*
X22840071Y-13572929D01*
X22825786Y-13630071D01*
X22811500Y-13658643D01*
X22797214Y-13672929D01*
X22768643Y-13687214D01*
X22740071Y-13687214D01*
X22711500Y-13672929D01*
X22697214Y-13658643D01*
X22682928Y-13630071D01*
X22668643Y-13572929D01*
X22668643Y-13501500D01*
X22682928Y-13444357D01*
X22697214Y-13415786D01*
X22711500Y-13401500D01*
X22740071Y-13387214D01*
X23125786Y-13687214D02*
X22954357Y-13687214D01*
X23040071Y-13687214D02*
X23040071Y-13387214D01*
X23011500Y-13430071D01*
X22982928Y-13458643D01*
X22954357Y-13472929D01*
X23382928Y-13387214D02*
X23325786Y-13387214D01*
X23297214Y-13401500D01*
X23282928Y-13415786D01*
X23254357Y-13458643D01*
X23240071Y-13515786D01*
X23240071Y-13630071D01*
X23254357Y-13658643D01*
X23268643Y-13672929D01*
X23297214Y-13687214D01*
X23354357Y-13687214D01*
X23382928Y-13672929D01*
X23397214Y-13658643D01*
X23411500Y-13630071D01*
X23411500Y-13558643D01*
X23397214Y-13530071D01*
X23382928Y-13515786D01*
X23354357Y-13501500D01*
X23297214Y-13501500D01*
X23268643Y-13515786D01*
X23254357Y-13530071D01*
X23240071Y-13558643D01*
X23525786Y-13387214D02*
X23525786Y-13444357D01*
X23640071Y-13387214D02*
X23640071Y-13444357D01*
X24082928Y-13801500D02*
X24068643Y-13787214D01*
X24040071Y-13744357D01*
X24025786Y-13715786D01*
X24011500Y-13672929D01*
X23997214Y-13601500D01*
X23997214Y-13544357D01*
X24011500Y-13472929D01*
X24025786Y-13430071D01*
X24040071Y-13401500D01*
X24068643Y-13358643D01*
X24082928Y-13344357D01*
X24354357Y-13687214D02*
X24182928Y-13687214D01*
X24268643Y-13687214D02*
X24268643Y-13387214D01*
X24240071Y-13430071D01*
X24211500Y-13458643D01*
X24182928Y-13472929D01*
X24625786Y-13387214D02*
X24482928Y-13387214D01*
X24468643Y-13530071D01*
X24482928Y-13515786D01*
X24511500Y-13501500D01*
X24582928Y-13501500D01*
X24611500Y-13515786D01*
X24625786Y-13530071D01*
X24640071Y-13558643D01*
X24640071Y-13630071D01*
X24625786Y-13658643D01*
X24611500Y-13672929D01*
X24582928Y-13687214D01*
X24511500Y-13687214D01*
X24482928Y-13672929D01*
X24468643Y-13658643D01*
X24811500Y-13515786D02*
X24782928Y-13501500D01*
X24768643Y-13487214D01*
X24754357Y-13458643D01*
X24754357Y-13444357D01*
X24768643Y-13415786D01*
X24782928Y-13401500D01*
X24811500Y-13387214D01*
X24868643Y-13387214D01*
X24897214Y-13401500D01*
X24911500Y-13415786D01*
X24925786Y-13444357D01*
X24925786Y-13458643D01*
X24911500Y-13487214D01*
X24897214Y-13501500D01*
X24868643Y-13515786D01*
X24811500Y-13515786D01*
X24782928Y-13530071D01*
X24768643Y-13544357D01*
X24754357Y-13572929D01*
X24754357Y-13630071D01*
X24768643Y-13658643D01*
X24782928Y-13672929D01*
X24811500Y-13687214D01*
X24868643Y-13687214D01*
X24897214Y-13672929D01*
X24911500Y-13658643D01*
X24925786Y-13630071D01*
X24925786Y-13572929D01*
X24911500Y-13544357D01*
X24897214Y-13530071D01*
X24868643Y-13515786D01*
X25282928Y-13687214D02*
X25282928Y-13387214D01*
X25411500Y-13687214D02*
X25411500Y-13530071D01*
X25397214Y-13501500D01*
X25368643Y-13487214D01*
X25325786Y-13487214D01*
X25297214Y-13501500D01*
X25282928Y-13515786D01*
X25597214Y-13687214D02*
X25568643Y-13672929D01*
X25554357Y-13658643D01*
X25540071Y-13630071D01*
X25540071Y-13544357D01*
X25554357Y-13515786D01*
X25568643Y-13501500D01*
X25597214Y-13487214D01*
X25640071Y-13487214D01*
X25668643Y-13501500D01*
X25682928Y-13515786D01*
X25697214Y-13544357D01*
X25697214Y-13630071D01*
X25682928Y-13658643D01*
X25668643Y-13672929D01*
X25640071Y-13687214D01*
X25597214Y-13687214D01*
X25868643Y-13687214D02*
X25840071Y-13672929D01*
X25825786Y-13644357D01*
X25825786Y-13387214D01*
X26097214Y-13672929D02*
X26068643Y-13687214D01*
X26011500Y-13687214D01*
X25982928Y-13672929D01*
X25968643Y-13644357D01*
X25968643Y-13530071D01*
X25982928Y-13501500D01*
X26011500Y-13487214D01*
X26068643Y-13487214D01*
X26097214Y-13501500D01*
X26111500Y-13530071D01*
X26111500Y-13558643D01*
X25968643Y-13587214D01*
X26225786Y-13672929D02*
X26254357Y-13687214D01*
X26311500Y-13687214D01*
X26340071Y-13672929D01*
X26354357Y-13644357D01*
X26354357Y-13630071D01*
X26340071Y-13601500D01*
X26311500Y-13587214D01*
X26268643Y-13587214D01*
X26240071Y-13572929D01*
X26225786Y-13544357D01*
X26225786Y-13530071D01*
X26240071Y-13501500D01*
X26268643Y-13487214D01*
X26311500Y-13487214D01*
X26340071Y-13501500D01*
X26454357Y-13801500D02*
X26468643Y-13787214D01*
X26497214Y-13744357D01*
X26511500Y-13715786D01*
X26525786Y-13672929D01*
X26540071Y-13601500D01*
X26540071Y-13544357D01*
X26525786Y-13472929D01*
X26511500Y-13430071D01*
X26497214Y-13401500D01*
X26468643Y-13358643D01*
X26454357Y-13344357D01*
X19396500Y-13947500D02*
G75*
G03X19396500Y-13947500I-38100J0D01*
G01*
X19740071Y-13783214D02*
X19768643Y-13783214D01*
X19797214Y-13797500D01*
X19811500Y-13811786D01*
X19825786Y-13840357D01*
X19840071Y-13897500D01*
X19840071Y-13968929D01*
X19825786Y-14026071D01*
X19811500Y-14054643D01*
X19797214Y-14068929D01*
X19768643Y-14083214D01*
X19740071Y-14083214D01*
X19711500Y-14068929D01*
X19697214Y-14054643D01*
X19682928Y-14026071D01*
X19668643Y-13968929D01*
X19668643Y-13897500D01*
X19682928Y-13840357D01*
X19697214Y-13811786D01*
X19711500Y-13797500D01*
X19740071Y-13783214D01*
X19968643Y-14054643D02*
X19982928Y-14068929D01*
X19968643Y-14083214D01*
X19954357Y-14068929D01*
X19968643Y-14054643D01*
X19968643Y-14083214D01*
X20082928Y-13783214D02*
X20282928Y-13783214D01*
X20154357Y-14083214D01*
X20525786Y-13783214D02*
X20468643Y-13783214D01*
X20440071Y-13797500D01*
X20425786Y-13811786D01*
X20397214Y-13854643D01*
X20382928Y-13911786D01*
X20382928Y-14026071D01*
X20397214Y-14054643D01*
X20411500Y-14068929D01*
X20440071Y-14083214D01*
X20497214Y-14083214D01*
X20525786Y-14068929D01*
X20540071Y-14054643D01*
X20554357Y-14026071D01*
X20554357Y-13954643D01*
X20540071Y-13926071D01*
X20525786Y-13911786D01*
X20497214Y-13897500D01*
X20440071Y-13897500D01*
X20411500Y-13911786D01*
X20397214Y-13926071D01*
X20382928Y-13954643D01*
X20682928Y-14083214D02*
X20682928Y-13883214D01*
X20682928Y-13911786D02*
X20697214Y-13897500D01*
X20725786Y-13883214D01*
X20768643Y-13883214D01*
X20797214Y-13897500D01*
X20811500Y-13926071D01*
X20811500Y-14083214D01*
X20811500Y-13926071D02*
X20825786Y-13897500D01*
X20854357Y-13883214D01*
X20897214Y-13883214D01*
X20925786Y-13897500D01*
X20940071Y-13926071D01*
X20940071Y-14083214D01*
X21082928Y-14083214D02*
X21082928Y-13883214D01*
X21082928Y-13911786D02*
X21097214Y-13897500D01*
X21125786Y-13883214D01*
X21168643Y-13883214D01*
X21197214Y-13897500D01*
X21211500Y-13926071D01*
X21211500Y-14083214D01*
X21211500Y-13926071D02*
X21225786Y-13897500D01*
X21254357Y-13883214D01*
X21297214Y-13883214D01*
X21325786Y-13897500D01*
X21340071Y-13926071D01*
X21340071Y-14083214D01*
X21925786Y-13768929D02*
X21668643Y-14154643D01*
X22311500Y-13783214D02*
X22340071Y-13783214D01*
X22368643Y-13797500D01*
X22382928Y-13811786D01*
X22397214Y-13840357D01*
X22411500Y-13897500D01*
X22411500Y-13968929D01*
X22397214Y-14026071D01*
X22382928Y-14054643D01*
X22368643Y-14068929D01*
X22340071Y-14083214D01*
X22311500Y-14083214D01*
X22282928Y-14068929D01*
X22268643Y-14054643D01*
X22254357Y-14026071D01*
X22240071Y-13968929D01*
X22240071Y-13897500D01*
X22254357Y-13840357D01*
X22268643Y-13811786D01*
X22282928Y-13797500D01*
X22311500Y-13783214D01*
X22540071Y-14054643D02*
X22554357Y-14068929D01*
X22540071Y-14083214D01*
X22525786Y-14068929D01*
X22540071Y-14054643D01*
X22540071Y-14083214D01*
X22740071Y-13783214D02*
X22768643Y-13783214D01*
X22797214Y-13797500D01*
X22811500Y-13811786D01*
X22825786Y-13840357D01*
X22840071Y-13897500D01*
X22840071Y-13968929D01*
X22825786Y-14026071D01*
X22811500Y-14054643D01*
X22797214Y-14068929D01*
X22768643Y-14083214D01*
X22740071Y-14083214D01*
X22711500Y-14068929D01*
X22697214Y-14054643D01*
X22682928Y-14026071D01*
X22668643Y-13968929D01*
X22668643Y-13897500D01*
X22682928Y-13840357D01*
X22697214Y-13811786D01*
X22711500Y-13797500D01*
X22740071Y-13783214D01*
X22940071Y-13783214D02*
X23125786Y-13783214D01*
X23025786Y-13897500D01*
X23068643Y-13897500D01*
X23097214Y-13911786D01*
X23111500Y-13926071D01*
X23125786Y-13954643D01*
X23125786Y-14026071D01*
X23111500Y-14054643D01*
X23097214Y-14068929D01*
X23068643Y-14083214D01*
X22982928Y-14083214D01*
X22954357Y-14068929D01*
X22940071Y-14054643D01*
X23311500Y-13783214D02*
X23340071Y-13783214D01*
X23368643Y-13797500D01*
X23382928Y-13811786D01*
X23397214Y-13840357D01*
X23411500Y-13897500D01*
X23411500Y-13968929D01*
X23397214Y-14026071D01*
X23382928Y-14054643D01*
X23368643Y-14068929D01*
X23340071Y-14083214D01*
X23311500Y-14083214D01*
X23282928Y-14068929D01*
X23268643Y-14054643D01*
X23254357Y-14026071D01*
X23240071Y-13968929D01*
X23240071Y-13897500D01*
X23254357Y-13840357D01*
X23268643Y-13811786D01*
X23282928Y-13797500D01*
X23311500Y-13783214D01*
X23525786Y-13783214D02*
X23525786Y-13840357D01*
X23640071Y-13783214D02*
X23640071Y-13840357D01*
X24082928Y-14197500D02*
X24068643Y-14183214D01*
X24040071Y-14140357D01*
X24025786Y-14111786D01*
X24011500Y-14068929D01*
X23997214Y-13997500D01*
X23997214Y-13940357D01*
X24011500Y-13868929D01*
X24025786Y-13826071D01*
X24040071Y-13797500D01*
X24068643Y-13754643D01*
X24082928Y-13740357D01*
X24182928Y-13811786D02*
X24197214Y-13797500D01*
X24225786Y-13783214D01*
X24297214Y-13783214D01*
X24325786Y-13797500D01*
X24340071Y-13811786D01*
X24354357Y-13840357D01*
X24354357Y-13868929D01*
X24340071Y-13911786D01*
X24168643Y-14083214D01*
X24354357Y-14083214D01*
X24611500Y-13883214D02*
X24611500Y-14083214D01*
X24540071Y-13768929D02*
X24468643Y-13983214D01*
X24654357Y-13983214D01*
X24997214Y-14083214D02*
X24997214Y-13783214D01*
X25125786Y-14083214D02*
X25125786Y-13926071D01*
X25111500Y-13897500D01*
X25082928Y-13883214D01*
X25040071Y-13883214D01*
X25011500Y-13897500D01*
X24997214Y-13911786D01*
X25311500Y-14083214D02*
X25282928Y-14068929D01*
X25268643Y-14054643D01*
X25254357Y-14026071D01*
X25254357Y-13940357D01*
X25268643Y-13911786D01*
X25282928Y-13897500D01*
X25311500Y-13883214D01*
X25354357Y-13883214D01*
X25382928Y-13897500D01*
X25397214Y-13911786D01*
X25411500Y-13940357D01*
X25411500Y-14026071D01*
X25397214Y-14054643D01*
X25382928Y-14068929D01*
X25354357Y-14083214D01*
X25311500Y-14083214D01*
X25582928Y-14083214D02*
X25554357Y-14068929D01*
X25540071Y-14040357D01*
X25540071Y-13783214D01*
X25811500Y-14068929D02*
X25782928Y-14083214D01*
X25725786Y-14083214D01*
X25697214Y-14068929D01*
X25682928Y-14040357D01*
X25682928Y-13926071D01*
X25697214Y-13897500D01*
X25725786Y-13883214D01*
X25782928Y-13883214D01*
X25811500Y-13897500D01*
X25825786Y-13926071D01*
X25825786Y-13954643D01*
X25682928Y-13983214D01*
X25940071Y-14068929D02*
X25968643Y-14083214D01*
X26025786Y-14083214D01*
X26054357Y-14068929D01*
X26068643Y-14040357D01*
X26068643Y-14026071D01*
X26054357Y-13997500D01*
X26025786Y-13983214D01*
X25982928Y-13983214D01*
X25954357Y-13968929D01*
X25940071Y-13940357D01*
X25940071Y-13926071D01*
X25954357Y-13897500D01*
X25982928Y-13883214D01*
X26025786Y-13883214D01*
X26054357Y-13897500D01*
X26168643Y-14197500D02*
X26182928Y-14183214D01*
X26211500Y-14140357D01*
X26225786Y-14111786D01*
X26240071Y-14068929D01*
X26254357Y-13997500D01*
X26254357Y-13940357D01*
X26240071Y-13868929D01*
X26225786Y-13826071D01*
X26211500Y-13797500D01*
X26182928Y-13754643D01*
X26168643Y-13740357D01*
X19355860Y-14302860D02*
X19355860Y-14384140D01*
X19315220Y-14343500D02*
X19396500Y-14343500D01*
X19740071Y-14179214D02*
X19768643Y-14179214D01*
X19797214Y-14193500D01*
X19811500Y-14207786D01*
X19825786Y-14236357D01*
X19840071Y-14293500D01*
X19840071Y-14364929D01*
X19825786Y-14422071D01*
X19811500Y-14450643D01*
X19797214Y-14464929D01*
X19768643Y-14479214D01*
X19740071Y-14479214D01*
X19711500Y-14464929D01*
X19697214Y-14450643D01*
X19682928Y-14422071D01*
X19668643Y-14364929D01*
X19668643Y-14293500D01*
X19682928Y-14236357D01*
X19697214Y-14207786D01*
X19711500Y-14193500D01*
X19740071Y-14179214D01*
X19968643Y-14450643D02*
X19982928Y-14464929D01*
X19968643Y-14479214D01*
X19954357Y-14464929D01*
X19968643Y-14450643D01*
X19968643Y-14479214D01*
X20154357Y-14307786D02*
X20125786Y-14293500D01*
X20111500Y-14279214D01*
X20097214Y-14250643D01*
X20097214Y-14236357D01*
X20111500Y-14207786D01*
X20125786Y-14193500D01*
X20154357Y-14179214D01*
X20211500Y-14179214D01*
X20240071Y-14193500D01*
X20254357Y-14207786D01*
X20268643Y-14236357D01*
X20268643Y-14250643D01*
X20254357Y-14279214D01*
X20240071Y-14293500D01*
X20211500Y-14307786D01*
X20154357Y-14307786D01*
X20125786Y-14322071D01*
X20111500Y-14336357D01*
X20097214Y-14364929D01*
X20097214Y-14422071D01*
X20111500Y-14450643D01*
X20125786Y-14464929D01*
X20154357Y-14479214D01*
X20211500Y-14479214D01*
X20240071Y-14464929D01*
X20254357Y-14450643D01*
X20268643Y-14422071D01*
X20268643Y-14364929D01*
X20254357Y-14336357D01*
X20240071Y-14322071D01*
X20211500Y-14307786D01*
X20554357Y-14479214D02*
X20382928Y-14479214D01*
X20468643Y-14479214D02*
X20468643Y-14179214D01*
X20440071Y-14222071D01*
X20411500Y-14250643D01*
X20382928Y-14264929D01*
X20682928Y-14479214D02*
X20682928Y-14279214D01*
X20682928Y-14307786D02*
X20697214Y-14293500D01*
X20725786Y-14279214D01*
X20768643Y-14279214D01*
X20797214Y-14293500D01*
X20811500Y-14322071D01*
X20811500Y-14479214D01*
X20811500Y-14322071D02*
X20825786Y-14293500D01*
X20854357Y-14279214D01*
X20897214Y-14279214D01*
X20925786Y-14293500D01*
X20940071Y-14322071D01*
X20940071Y-14479214D01*
X21082928Y-14479214D02*
X21082928Y-14279214D01*
X21082928Y-14307786D02*
X21097214Y-14293500D01*
X21125786Y-14279214D01*
X21168643Y-14279214D01*
X21197214Y-14293500D01*
X21211500Y-14322071D01*
X21211500Y-14479214D01*
X21211500Y-14322071D02*
X21225786Y-14293500D01*
X21254357Y-14279214D01*
X21297214Y-14279214D01*
X21325786Y-14293500D01*
X21340071Y-14322071D01*
X21340071Y-14479214D01*
X21925786Y-14164929D02*
X21668643Y-14550643D01*
X22311500Y-14179214D02*
X22340071Y-14179214D01*
X22368643Y-14193500D01*
X22382928Y-14207786D01*
X22397214Y-14236357D01*
X22411500Y-14293500D01*
X22411500Y-14364929D01*
X22397214Y-14422071D01*
X22382928Y-14450643D01*
X22368643Y-14464929D01*
X22340071Y-14479214D01*
X22311500Y-14479214D01*
X22282928Y-14464929D01*
X22268643Y-14450643D01*
X22254357Y-14422071D01*
X22240071Y-14364929D01*
X22240071Y-14293500D01*
X22254357Y-14236357D01*
X22268643Y-14207786D01*
X22282928Y-14193500D01*
X22311500Y-14179214D01*
X22540071Y-14450643D02*
X22554357Y-14464929D01*
X22540071Y-14479214D01*
X22525786Y-14464929D01*
X22540071Y-14450643D01*
X22540071Y-14479214D01*
X22740071Y-14179214D02*
X22768643Y-14179214D01*
X22797214Y-14193500D01*
X22811500Y-14207786D01*
X22825786Y-14236357D01*
X22840071Y-14293500D01*
X22840071Y-14364929D01*
X22825786Y-14422071D01*
X22811500Y-14450643D01*
X22797214Y-14464929D01*
X22768643Y-14479214D01*
X22740071Y-14479214D01*
X22711500Y-14464929D01*
X22697214Y-14450643D01*
X22682928Y-14422071D01*
X22668643Y-14364929D01*
X22668643Y-14293500D01*
X22682928Y-14236357D01*
X22697214Y-14207786D01*
X22711500Y-14193500D01*
X22740071Y-14179214D01*
X22940071Y-14179214D02*
X23125786Y-14179214D01*
X23025786Y-14293500D01*
X23068643Y-14293500D01*
X23097214Y-14307786D01*
X23111500Y-14322071D01*
X23125786Y-14350643D01*
X23125786Y-14422071D01*
X23111500Y-14450643D01*
X23097214Y-14464929D01*
X23068643Y-14479214D01*
X22982928Y-14479214D01*
X22954357Y-14464929D01*
X22940071Y-14450643D01*
X23240071Y-14207786D02*
X23254357Y-14193500D01*
X23282928Y-14179214D01*
X23354357Y-14179214D01*
X23382928Y-14193500D01*
X23397214Y-14207786D01*
X23411500Y-14236357D01*
X23411500Y-14264929D01*
X23397214Y-14307786D01*
X23225786Y-14479214D01*
X23411500Y-14479214D01*
X23525786Y-14179214D02*
X23525786Y-14236357D01*
X23640071Y-14179214D02*
X23640071Y-14236357D01*
X24082928Y-14593500D02*
X24068643Y-14579214D01*
X24040071Y-14536357D01*
X24025786Y-14507786D01*
X24011500Y-14464929D01*
X23997214Y-14393500D01*
X23997214Y-14336357D01*
X24011500Y-14264929D01*
X24025786Y-14222071D01*
X24040071Y-14193500D01*
X24068643Y-14150643D01*
X24082928Y-14136357D01*
X24325786Y-14279214D02*
X24325786Y-14479214D01*
X24254357Y-14164929D02*
X24182928Y-14379214D01*
X24368643Y-14379214D01*
X24711500Y-14479214D02*
X24711500Y-14179214D01*
X24840071Y-14479214D02*
X24840071Y-14322071D01*
X24825786Y-14293500D01*
X24797214Y-14279214D01*
X24754357Y-14279214D01*
X24725786Y-14293500D01*
X24711500Y-14307786D01*
X25025786Y-14479214D02*
X24997214Y-14464929D01*
X24982928Y-14450643D01*
X24968643Y-14422071D01*
X24968643Y-14336357D01*
X24982928Y-14307786D01*
X24997214Y-14293500D01*
X25025786Y-14279214D01*
X25068643Y-14279214D01*
X25097214Y-14293500D01*
X25111500Y-14307786D01*
X25125786Y-14336357D01*
X25125786Y-14422071D01*
X25111500Y-14450643D01*
X25097214Y-14464929D01*
X25068643Y-14479214D01*
X25025786Y-14479214D01*
X25297214Y-14479214D02*
X25268643Y-14464929D01*
X25254357Y-14436357D01*
X25254357Y-14179214D01*
X25525786Y-14464929D02*
X25497214Y-14479214D01*
X25440071Y-14479214D01*
X25411500Y-14464929D01*
X25397214Y-14436357D01*
X25397214Y-14322071D01*
X25411500Y-14293500D01*
X25440071Y-14279214D01*
X25497214Y-14279214D01*
X25525786Y-14293500D01*
X25540071Y-14322071D01*
X25540071Y-14350643D01*
X25397214Y-14379214D01*
X25654357Y-14464929D02*
X25682928Y-14479214D01*
X25740071Y-14479214D01*
X25768643Y-14464929D01*
X25782928Y-14436357D01*
X25782928Y-14422071D01*
X25768643Y-14393500D01*
X25740071Y-14379214D01*
X25697214Y-14379214D01*
X25668643Y-14364929D01*
X25654357Y-14336357D01*
X25654357Y-14322071D01*
X25668643Y-14293500D01*
X25697214Y-14279214D01*
X25740071Y-14279214D01*
X25768643Y-14293500D01*
X25882928Y-14593500D02*
X25897214Y-14579214D01*
X25925786Y-14536357D01*
X25940071Y-14507786D01*
X25954357Y-14464929D01*
X25968643Y-14393500D01*
X25968643Y-14336357D01*
X25954357Y-14264929D01*
X25940071Y-14222071D01*
X25925786Y-14193500D01*
X25897214Y-14150643D01*
X25882928Y-14136357D01*
X19381856Y-14774856D02*
X19381856Y-14704144D01*
X19311144Y-14704144D01*
X19311144Y-14774856D01*
X19381856Y-14774856D01*
X19840071Y-14875214D02*
X19668643Y-14875214D01*
X19754357Y-14875214D02*
X19754357Y-14575214D01*
X19725786Y-14618071D01*
X19697214Y-14646643D01*
X19668643Y-14660929D01*
X19968643Y-14846643D02*
X19982928Y-14860929D01*
X19968643Y-14875214D01*
X19954357Y-14860929D01*
X19968643Y-14846643D01*
X19968643Y-14875214D01*
X20168643Y-14575214D02*
X20197214Y-14575214D01*
X20225786Y-14589500D01*
X20240071Y-14603786D01*
X20254357Y-14632357D01*
X20268643Y-14689500D01*
X20268643Y-14760929D01*
X20254357Y-14818071D01*
X20240071Y-14846643D01*
X20225786Y-14860929D01*
X20197214Y-14875214D01*
X20168643Y-14875214D01*
X20140071Y-14860929D01*
X20125786Y-14846643D01*
X20111500Y-14818071D01*
X20097214Y-14760929D01*
X20097214Y-14689500D01*
X20111500Y-14632357D01*
X20125786Y-14603786D01*
X20140071Y-14589500D01*
X20168643Y-14575214D01*
X20454357Y-14575214D02*
X20482928Y-14575214D01*
X20511500Y-14589500D01*
X20525786Y-14603786D01*
X20540071Y-14632357D01*
X20554357Y-14689500D01*
X20554357Y-14760929D01*
X20540071Y-14818071D01*
X20525786Y-14846643D01*
X20511500Y-14860929D01*
X20482928Y-14875214D01*
X20454357Y-14875214D01*
X20425786Y-14860929D01*
X20411500Y-14846643D01*
X20397214Y-14818071D01*
X20382928Y-14760929D01*
X20382928Y-14689500D01*
X20397214Y-14632357D01*
X20411500Y-14603786D01*
X20425786Y-14589500D01*
X20454357Y-14575214D01*
X20682928Y-14875214D02*
X20682928Y-14675214D01*
X20682928Y-14703786D02*
X20697214Y-14689500D01*
X20725786Y-14675214D01*
X20768643Y-14675214D01*
X20797214Y-14689500D01*
X20811500Y-14718071D01*
X20811500Y-14875214D01*
X20811500Y-14718071D02*
X20825786Y-14689500D01*
X20854357Y-14675214D01*
X20897214Y-14675214D01*
X20925786Y-14689500D01*
X20940071Y-14718071D01*
X20940071Y-14875214D01*
X21082928Y-14875214D02*
X21082928Y-14675214D01*
X21082928Y-14703786D02*
X21097214Y-14689500D01*
X21125786Y-14675214D01*
X21168643Y-14675214D01*
X21197214Y-14689500D01*
X21211500Y-14718071D01*
X21211500Y-14875214D01*
X21211500Y-14718071D02*
X21225786Y-14689500D01*
X21254357Y-14675214D01*
X21297214Y-14675214D01*
X21325786Y-14689500D01*
X21340071Y-14718071D01*
X21340071Y-14875214D01*
X21925786Y-14560929D02*
X21668643Y-14946643D01*
X22311500Y-14575214D02*
X22340071Y-14575214D01*
X22368643Y-14589500D01*
X22382928Y-14603786D01*
X22397214Y-14632357D01*
X22411500Y-14689500D01*
X22411500Y-14760929D01*
X22397214Y-14818071D01*
X22382928Y-14846643D01*
X22368643Y-14860929D01*
X22340071Y-14875214D01*
X22311500Y-14875214D01*
X22282928Y-14860929D01*
X22268643Y-14846643D01*
X22254357Y-14818071D01*
X22240071Y-14760929D01*
X22240071Y-14689500D01*
X22254357Y-14632357D01*
X22268643Y-14603786D01*
X22282928Y-14589500D01*
X22311500Y-14575214D01*
X22540071Y-14846643D02*
X22554357Y-14860929D01*
X22540071Y-14875214D01*
X22525786Y-14860929D01*
X22540071Y-14846643D01*
X22540071Y-14875214D01*
X22740071Y-14575214D02*
X22768643Y-14575214D01*
X22797214Y-14589500D01*
X22811500Y-14603786D01*
X22825786Y-14632357D01*
X22840071Y-14689500D01*
X22840071Y-14760929D01*
X22825786Y-14818071D01*
X22811500Y-14846643D01*
X22797214Y-14860929D01*
X22768643Y-14875214D01*
X22740071Y-14875214D01*
X22711500Y-14860929D01*
X22697214Y-14846643D01*
X22682928Y-14818071D01*
X22668643Y-14760929D01*
X22668643Y-14689500D01*
X22682928Y-14632357D01*
X22697214Y-14603786D01*
X22711500Y-14589500D01*
X22740071Y-14575214D01*
X22940071Y-14575214D02*
X23125786Y-14575214D01*
X23025786Y-14689500D01*
X23068643Y-14689500D01*
X23097214Y-14703786D01*
X23111500Y-14718071D01*
X23125786Y-14746643D01*
X23125786Y-14818071D01*
X23111500Y-14846643D01*
X23097214Y-14860929D01*
X23068643Y-14875214D01*
X22982928Y-14875214D01*
X22954357Y-14860929D01*
X22940071Y-14846643D01*
X23268643Y-14875214D02*
X23325786Y-14875214D01*
X23354357Y-14860929D01*
X23368643Y-14846643D01*
X23397214Y-14803786D01*
X23411500Y-14746643D01*
X23411500Y-14632357D01*
X23397214Y-14603786D01*
X23382928Y-14589500D01*
X23354357Y-14575214D01*
X23297214Y-14575214D01*
X23268643Y-14589500D01*
X23254357Y-14603786D01*
X23240071Y-14632357D01*
X23240071Y-14703786D01*
X23254357Y-14732357D01*
X23268643Y-14746643D01*
X23297214Y-14760929D01*
X23354357Y-14760929D01*
X23382928Y-14746643D01*
X23397214Y-14732357D01*
X23411500Y-14703786D01*
X23525786Y-14575214D02*
X23525786Y-14632357D01*
X23640071Y-14575214D02*
X23640071Y-14632357D01*
X24082928Y-14989500D02*
X24068643Y-14975214D01*
X24040071Y-14932357D01*
X24025786Y-14903786D01*
X24011500Y-14860929D01*
X23997214Y-14789500D01*
X23997214Y-14732357D01*
X24011500Y-14660929D01*
X24025786Y-14618071D01*
X24040071Y-14589500D01*
X24068643Y-14546643D01*
X24082928Y-14532357D01*
X24254357Y-14575214D02*
X24282928Y-14575214D01*
X24311500Y-14589500D01*
X24325786Y-14603786D01*
X24340071Y-14632357D01*
X24354357Y-14689500D01*
X24354357Y-14760929D01*
X24340071Y-14818071D01*
X24325786Y-14846643D01*
X24311500Y-14860929D01*
X24282928Y-14875214D01*
X24254357Y-14875214D01*
X24225786Y-14860929D01*
X24211500Y-14846643D01*
X24197214Y-14818071D01*
X24182928Y-14760929D01*
X24182928Y-14689500D01*
X24197214Y-14632357D01*
X24211500Y-14603786D01*
X24225786Y-14589500D01*
X24254357Y-14575214D01*
X24711500Y-14875214D02*
X24711500Y-14575214D01*
X24840071Y-14875214D02*
X24840071Y-14718071D01*
X24825786Y-14689500D01*
X24797214Y-14675214D01*
X24754357Y-14675214D01*
X24725786Y-14689500D01*
X24711500Y-14703786D01*
X25025786Y-14875214D02*
X24997214Y-14860929D01*
X24982928Y-14846643D01*
X24968643Y-14818071D01*
X24968643Y-14732357D01*
X24982928Y-14703786D01*
X24997214Y-14689500D01*
X25025786Y-14675214D01*
X25068643Y-14675214D01*
X25097214Y-14689500D01*
X25111500Y-14703786D01*
X25125786Y-14732357D01*
X25125786Y-14818071D01*
X25111500Y-14846643D01*
X25097214Y-14860929D01*
X25068643Y-14875214D01*
X25025786Y-14875214D01*
X25297214Y-14875214D02*
X25268643Y-14860929D01*
X25254357Y-14832357D01*
X25254357Y-14575214D01*
X25525786Y-14860929D02*
X25497214Y-14875214D01*
X25440071Y-14875214D01*
X25411500Y-14860929D01*
X25397214Y-14832357D01*
X25397214Y-14718071D01*
X25411500Y-14689500D01*
X25440071Y-14675214D01*
X25497214Y-14675214D01*
X25525786Y-14689500D01*
X25540071Y-14718071D01*
X25540071Y-14746643D01*
X25397214Y-14775214D01*
X25654357Y-14860929D02*
X25682928Y-14875214D01*
X25740071Y-14875214D01*
X25768643Y-14860929D01*
X25782928Y-14832357D01*
X25782928Y-14818071D01*
X25768643Y-14789500D01*
X25740071Y-14775214D01*
X25697214Y-14775214D01*
X25668643Y-14760929D01*
X25654357Y-14732357D01*
X25654357Y-14718071D01*
X25668643Y-14689500D01*
X25697214Y-14675214D01*
X25740071Y-14675214D01*
X25768643Y-14689500D01*
X26140071Y-14760929D02*
X26368643Y-14760929D01*
X26254357Y-14875214D02*
X26254357Y-14646643D01*
X26868643Y-14675214D02*
X26868643Y-14875214D01*
X26797214Y-14560929D02*
X26725786Y-14775214D01*
X26911500Y-14775214D01*
X27240071Y-14860929D02*
X27268643Y-14875214D01*
X27325786Y-14875214D01*
X27354357Y-14860929D01*
X27368643Y-14832357D01*
X27368643Y-14818071D01*
X27354357Y-14789500D01*
X27325786Y-14775214D01*
X27282928Y-14775214D01*
X27254357Y-14760929D01*
X27240071Y-14732357D01*
X27240071Y-14718071D01*
X27254357Y-14689500D01*
X27282928Y-14675214D01*
X27325786Y-14675214D01*
X27354357Y-14689500D01*
X27540071Y-14875214D02*
X27511500Y-14860929D01*
X27497214Y-14832357D01*
X27497214Y-14575214D01*
X27697214Y-14875214D02*
X27668643Y-14860929D01*
X27654357Y-14846643D01*
X27640071Y-14818071D01*
X27640071Y-14732357D01*
X27654357Y-14703786D01*
X27668643Y-14689500D01*
X27697214Y-14675214D01*
X27740071Y-14675214D01*
X27768643Y-14689500D01*
X27782928Y-14703786D01*
X27797214Y-14732357D01*
X27797214Y-14818071D01*
X27782928Y-14846643D01*
X27768643Y-14860929D01*
X27740071Y-14875214D01*
X27697214Y-14875214D01*
X27882928Y-14675214D02*
X27997214Y-14675214D01*
X27925786Y-14575214D02*
X27925786Y-14832357D01*
X27940071Y-14860929D01*
X27968643Y-14875214D01*
X27997214Y-14875214D01*
X28082928Y-14860929D02*
X28111500Y-14875214D01*
X28168643Y-14875214D01*
X28197214Y-14860929D01*
X28211500Y-14832357D01*
X28211500Y-14818071D01*
X28197214Y-14789500D01*
X28168643Y-14775214D01*
X28125786Y-14775214D01*
X28097214Y-14760929D01*
X28082928Y-14732357D01*
X28082928Y-14718071D01*
X28097214Y-14689500D01*
X28125786Y-14675214D01*
X28168643Y-14675214D01*
X28197214Y-14689500D01*
X28311500Y-14989500D02*
X28325786Y-14975214D01*
X28354357Y-14932357D01*
X28368643Y-14903786D01*
X28382928Y-14860929D01*
X28397214Y-14789500D01*
X28397214Y-14732357D01*
X28382928Y-14660929D01*
X28368643Y-14618071D01*
X28354357Y-14589500D01*
X28325786Y-14546643D01*
X28311500Y-14532357D01*
M02*
