G04 #@! TF.GenerationSoftware,KiCad,Pcbnew,(5.0.2)-1*
G04 #@! TF.CreationDate,2019-03-03T00:18:13+09:00*
G04 #@! TF.ProjectId,pakbd,70616b62-642e-46b6-9963-61645f706362,3*
G04 #@! TF.SameCoordinates,Original*
G04 #@! TF.FileFunction,Paste,Bot*
G04 #@! TF.FilePolarity,Positive*
%FSLAX46Y46*%
G04 Gerber Fmt 4.6, Leading zero omitted, Abs format (unit mm)*
G04 Created by KiCad (PCBNEW (5.0.2)-1) date 2019/03/03 0:18:13*
%MOMM*%
%LPD*%
G01*
G04 APERTURE LIST*
%ADD10R,3.000000X2.500000*%
%ADD11C,0.100000*%
%ADD12C,1.425000*%
G04 APERTURE END LIST*
D10*
G04 #@! TO.C,SW63*
X314709500Y-106230000D03*
X300739500Y-108770000D03*
G04 #@! TD*
G04 #@! TO.C,SW60*
X219444500Y-106230000D03*
X205474500Y-108770000D03*
G04 #@! TD*
G04 #@! TO.C,SW65*
X338839500Y-108770000D03*
X352809500Y-106230000D03*
G04 #@! TD*
G04 #@! TO.C,SW61*
X245962000Y-108770000D03*
X259932000Y-106230000D03*
G04 #@! TD*
G04 #@! TO.C,SW62*
X295659500Y-106230000D03*
X281689500Y-108770000D03*
G04 #@! TD*
G04 #@! TO.C,SW64*
X319789500Y-108770000D03*
X333759500Y-106230000D03*
G04 #@! TD*
D11*
G04 #@! TO.C,D38*
G36*
X225012004Y-56796204D02*
X225036273Y-56799804D01*
X225060071Y-56805765D01*
X225083171Y-56814030D01*
X225105349Y-56824520D01*
X225126393Y-56837133D01*
X225146098Y-56851747D01*
X225164277Y-56868223D01*
X225180753Y-56886402D01*
X225195367Y-56906107D01*
X225207980Y-56927151D01*
X225218470Y-56949329D01*
X225226735Y-56972429D01*
X225232696Y-56996227D01*
X225236296Y-57020496D01*
X225237500Y-57045000D01*
X225237500Y-58295000D01*
X225236296Y-58319504D01*
X225232696Y-58343773D01*
X225226735Y-58367571D01*
X225218470Y-58390671D01*
X225207980Y-58412849D01*
X225195367Y-58433893D01*
X225180753Y-58453598D01*
X225164277Y-58471777D01*
X225146098Y-58488253D01*
X225126393Y-58502867D01*
X225105349Y-58515480D01*
X225083171Y-58525970D01*
X225060071Y-58534235D01*
X225036273Y-58540196D01*
X225012004Y-58543796D01*
X224987500Y-58545000D01*
X224062500Y-58545000D01*
X224037996Y-58543796D01*
X224013727Y-58540196D01*
X223989929Y-58534235D01*
X223966829Y-58525970D01*
X223944651Y-58515480D01*
X223923607Y-58502867D01*
X223903902Y-58488253D01*
X223885723Y-58471777D01*
X223869247Y-58453598D01*
X223854633Y-58433893D01*
X223842020Y-58412849D01*
X223831530Y-58390671D01*
X223823265Y-58367571D01*
X223817304Y-58343773D01*
X223813704Y-58319504D01*
X223812500Y-58295000D01*
X223812500Y-57045000D01*
X223813704Y-57020496D01*
X223817304Y-56996227D01*
X223823265Y-56972429D01*
X223831530Y-56949329D01*
X223842020Y-56927151D01*
X223854633Y-56906107D01*
X223869247Y-56886402D01*
X223885723Y-56868223D01*
X223903902Y-56851747D01*
X223923607Y-56837133D01*
X223944651Y-56824520D01*
X223966829Y-56814030D01*
X223989929Y-56805765D01*
X224013727Y-56799804D01*
X224037996Y-56796204D01*
X224062500Y-56795000D01*
X224987500Y-56795000D01*
X225012004Y-56796204D01*
X225012004Y-56796204D01*
G37*
D12*
X224525000Y-57670000D03*
D11*
G36*
X227987004Y-56796204D02*
X228011273Y-56799804D01*
X228035071Y-56805765D01*
X228058171Y-56814030D01*
X228080349Y-56824520D01*
X228101393Y-56837133D01*
X228121098Y-56851747D01*
X228139277Y-56868223D01*
X228155753Y-56886402D01*
X228170367Y-56906107D01*
X228182980Y-56927151D01*
X228193470Y-56949329D01*
X228201735Y-56972429D01*
X228207696Y-56996227D01*
X228211296Y-57020496D01*
X228212500Y-57045000D01*
X228212500Y-58295000D01*
X228211296Y-58319504D01*
X228207696Y-58343773D01*
X228201735Y-58367571D01*
X228193470Y-58390671D01*
X228182980Y-58412849D01*
X228170367Y-58433893D01*
X228155753Y-58453598D01*
X228139277Y-58471777D01*
X228121098Y-58488253D01*
X228101393Y-58502867D01*
X228080349Y-58515480D01*
X228058171Y-58525970D01*
X228035071Y-58534235D01*
X228011273Y-58540196D01*
X227987004Y-58543796D01*
X227962500Y-58545000D01*
X227037500Y-58545000D01*
X227012996Y-58543796D01*
X226988727Y-58540196D01*
X226964929Y-58534235D01*
X226941829Y-58525970D01*
X226919651Y-58515480D01*
X226898607Y-58502867D01*
X226878902Y-58488253D01*
X226860723Y-58471777D01*
X226844247Y-58453598D01*
X226829633Y-58433893D01*
X226817020Y-58412849D01*
X226806530Y-58390671D01*
X226798265Y-58367571D01*
X226792304Y-58343773D01*
X226788704Y-58319504D01*
X226787500Y-58295000D01*
X226787500Y-57045000D01*
X226788704Y-57020496D01*
X226792304Y-56996227D01*
X226798265Y-56972429D01*
X226806530Y-56949329D01*
X226817020Y-56927151D01*
X226829633Y-56906107D01*
X226844247Y-56886402D01*
X226860723Y-56868223D01*
X226878902Y-56851747D01*
X226898607Y-56837133D01*
X226919651Y-56824520D01*
X226941829Y-56814030D01*
X226964929Y-56805765D01*
X226988727Y-56799804D01*
X227012996Y-56796204D01*
X227037500Y-56795000D01*
X227962500Y-56795000D01*
X227987004Y-56796204D01*
X227987004Y-56796204D01*
G37*
D12*
X227500000Y-57670000D03*
G04 #@! TD*
D11*
G04 #@! TO.C,D29*
G36*
X196437004Y-37746204D02*
X196461273Y-37749804D01*
X196485071Y-37755765D01*
X196508171Y-37764030D01*
X196530349Y-37774520D01*
X196551393Y-37787133D01*
X196571098Y-37801747D01*
X196589277Y-37818223D01*
X196605753Y-37836402D01*
X196620367Y-37856107D01*
X196632980Y-37877151D01*
X196643470Y-37899329D01*
X196651735Y-37922429D01*
X196657696Y-37946227D01*
X196661296Y-37970496D01*
X196662500Y-37995000D01*
X196662500Y-39245000D01*
X196661296Y-39269504D01*
X196657696Y-39293773D01*
X196651735Y-39317571D01*
X196643470Y-39340671D01*
X196632980Y-39362849D01*
X196620367Y-39383893D01*
X196605753Y-39403598D01*
X196589277Y-39421777D01*
X196571098Y-39438253D01*
X196551393Y-39452867D01*
X196530349Y-39465480D01*
X196508171Y-39475970D01*
X196485071Y-39484235D01*
X196461273Y-39490196D01*
X196437004Y-39493796D01*
X196412500Y-39495000D01*
X195487500Y-39495000D01*
X195462996Y-39493796D01*
X195438727Y-39490196D01*
X195414929Y-39484235D01*
X195391829Y-39475970D01*
X195369651Y-39465480D01*
X195348607Y-39452867D01*
X195328902Y-39438253D01*
X195310723Y-39421777D01*
X195294247Y-39403598D01*
X195279633Y-39383893D01*
X195267020Y-39362849D01*
X195256530Y-39340671D01*
X195248265Y-39317571D01*
X195242304Y-39293773D01*
X195238704Y-39269504D01*
X195237500Y-39245000D01*
X195237500Y-37995000D01*
X195238704Y-37970496D01*
X195242304Y-37946227D01*
X195248265Y-37922429D01*
X195256530Y-37899329D01*
X195267020Y-37877151D01*
X195279633Y-37856107D01*
X195294247Y-37836402D01*
X195310723Y-37818223D01*
X195328902Y-37801747D01*
X195348607Y-37787133D01*
X195369651Y-37774520D01*
X195391829Y-37764030D01*
X195414929Y-37755765D01*
X195438727Y-37749804D01*
X195462996Y-37746204D01*
X195487500Y-37745000D01*
X196412500Y-37745000D01*
X196437004Y-37746204D01*
X196437004Y-37746204D01*
G37*
D12*
X195950000Y-38620000D03*
D11*
G36*
X199412004Y-37746204D02*
X199436273Y-37749804D01*
X199460071Y-37755765D01*
X199483171Y-37764030D01*
X199505349Y-37774520D01*
X199526393Y-37787133D01*
X199546098Y-37801747D01*
X199564277Y-37818223D01*
X199580753Y-37836402D01*
X199595367Y-37856107D01*
X199607980Y-37877151D01*
X199618470Y-37899329D01*
X199626735Y-37922429D01*
X199632696Y-37946227D01*
X199636296Y-37970496D01*
X199637500Y-37995000D01*
X199637500Y-39245000D01*
X199636296Y-39269504D01*
X199632696Y-39293773D01*
X199626735Y-39317571D01*
X199618470Y-39340671D01*
X199607980Y-39362849D01*
X199595367Y-39383893D01*
X199580753Y-39403598D01*
X199564277Y-39421777D01*
X199546098Y-39438253D01*
X199526393Y-39452867D01*
X199505349Y-39465480D01*
X199483171Y-39475970D01*
X199460071Y-39484235D01*
X199436273Y-39490196D01*
X199412004Y-39493796D01*
X199387500Y-39495000D01*
X198462500Y-39495000D01*
X198437996Y-39493796D01*
X198413727Y-39490196D01*
X198389929Y-39484235D01*
X198366829Y-39475970D01*
X198344651Y-39465480D01*
X198323607Y-39452867D01*
X198303902Y-39438253D01*
X198285723Y-39421777D01*
X198269247Y-39403598D01*
X198254633Y-39383893D01*
X198242020Y-39362849D01*
X198231530Y-39340671D01*
X198223265Y-39317571D01*
X198217304Y-39293773D01*
X198213704Y-39269504D01*
X198212500Y-39245000D01*
X198212500Y-37995000D01*
X198213704Y-37970496D01*
X198217304Y-37946227D01*
X198223265Y-37922429D01*
X198231530Y-37899329D01*
X198242020Y-37877151D01*
X198254633Y-37856107D01*
X198269247Y-37836402D01*
X198285723Y-37818223D01*
X198303902Y-37801747D01*
X198323607Y-37787133D01*
X198344651Y-37774520D01*
X198366829Y-37764030D01*
X198389929Y-37755765D01*
X198413727Y-37749804D01*
X198437996Y-37746204D01*
X198462500Y-37745000D01*
X199387500Y-37745000D01*
X199412004Y-37746204D01*
X199412004Y-37746204D01*
G37*
D12*
X198925000Y-38620000D03*
G04 #@! TD*
D11*
G04 #@! TO.C,D30*
G36*
X218462004Y-37746204D02*
X218486273Y-37749804D01*
X218510071Y-37755765D01*
X218533171Y-37764030D01*
X218555349Y-37774520D01*
X218576393Y-37787133D01*
X218596098Y-37801747D01*
X218614277Y-37818223D01*
X218630753Y-37836402D01*
X218645367Y-37856107D01*
X218657980Y-37877151D01*
X218668470Y-37899329D01*
X218676735Y-37922429D01*
X218682696Y-37946227D01*
X218686296Y-37970496D01*
X218687500Y-37995000D01*
X218687500Y-39245000D01*
X218686296Y-39269504D01*
X218682696Y-39293773D01*
X218676735Y-39317571D01*
X218668470Y-39340671D01*
X218657980Y-39362849D01*
X218645367Y-39383893D01*
X218630753Y-39403598D01*
X218614277Y-39421777D01*
X218596098Y-39438253D01*
X218576393Y-39452867D01*
X218555349Y-39465480D01*
X218533171Y-39475970D01*
X218510071Y-39484235D01*
X218486273Y-39490196D01*
X218462004Y-39493796D01*
X218437500Y-39495000D01*
X217512500Y-39495000D01*
X217487996Y-39493796D01*
X217463727Y-39490196D01*
X217439929Y-39484235D01*
X217416829Y-39475970D01*
X217394651Y-39465480D01*
X217373607Y-39452867D01*
X217353902Y-39438253D01*
X217335723Y-39421777D01*
X217319247Y-39403598D01*
X217304633Y-39383893D01*
X217292020Y-39362849D01*
X217281530Y-39340671D01*
X217273265Y-39317571D01*
X217267304Y-39293773D01*
X217263704Y-39269504D01*
X217262500Y-39245000D01*
X217262500Y-37995000D01*
X217263704Y-37970496D01*
X217267304Y-37946227D01*
X217273265Y-37922429D01*
X217281530Y-37899329D01*
X217292020Y-37877151D01*
X217304633Y-37856107D01*
X217319247Y-37836402D01*
X217335723Y-37818223D01*
X217353902Y-37801747D01*
X217373607Y-37787133D01*
X217394651Y-37774520D01*
X217416829Y-37764030D01*
X217439929Y-37755765D01*
X217463727Y-37749804D01*
X217487996Y-37746204D01*
X217512500Y-37745000D01*
X218437500Y-37745000D01*
X218462004Y-37746204D01*
X218462004Y-37746204D01*
G37*
D12*
X217975000Y-38620000D03*
D11*
G36*
X215487004Y-37746204D02*
X215511273Y-37749804D01*
X215535071Y-37755765D01*
X215558171Y-37764030D01*
X215580349Y-37774520D01*
X215601393Y-37787133D01*
X215621098Y-37801747D01*
X215639277Y-37818223D01*
X215655753Y-37836402D01*
X215670367Y-37856107D01*
X215682980Y-37877151D01*
X215693470Y-37899329D01*
X215701735Y-37922429D01*
X215707696Y-37946227D01*
X215711296Y-37970496D01*
X215712500Y-37995000D01*
X215712500Y-39245000D01*
X215711296Y-39269504D01*
X215707696Y-39293773D01*
X215701735Y-39317571D01*
X215693470Y-39340671D01*
X215682980Y-39362849D01*
X215670367Y-39383893D01*
X215655753Y-39403598D01*
X215639277Y-39421777D01*
X215621098Y-39438253D01*
X215601393Y-39452867D01*
X215580349Y-39465480D01*
X215558171Y-39475970D01*
X215535071Y-39484235D01*
X215511273Y-39490196D01*
X215487004Y-39493796D01*
X215462500Y-39495000D01*
X214537500Y-39495000D01*
X214512996Y-39493796D01*
X214488727Y-39490196D01*
X214464929Y-39484235D01*
X214441829Y-39475970D01*
X214419651Y-39465480D01*
X214398607Y-39452867D01*
X214378902Y-39438253D01*
X214360723Y-39421777D01*
X214344247Y-39403598D01*
X214329633Y-39383893D01*
X214317020Y-39362849D01*
X214306530Y-39340671D01*
X214298265Y-39317571D01*
X214292304Y-39293773D01*
X214288704Y-39269504D01*
X214287500Y-39245000D01*
X214287500Y-37995000D01*
X214288704Y-37970496D01*
X214292304Y-37946227D01*
X214298265Y-37922429D01*
X214306530Y-37899329D01*
X214317020Y-37877151D01*
X214329633Y-37856107D01*
X214344247Y-37836402D01*
X214360723Y-37818223D01*
X214378902Y-37801747D01*
X214398607Y-37787133D01*
X214419651Y-37774520D01*
X214441829Y-37764030D01*
X214464929Y-37755765D01*
X214488727Y-37749804D01*
X214512996Y-37746204D01*
X214537500Y-37745000D01*
X215462500Y-37745000D01*
X215487004Y-37746204D01*
X215487004Y-37746204D01*
G37*
D12*
X215000000Y-38620000D03*
G04 #@! TD*
D11*
G04 #@! TO.C,D33*
G36*
X272637004Y-37746204D02*
X272661273Y-37749804D01*
X272685071Y-37755765D01*
X272708171Y-37764030D01*
X272730349Y-37774520D01*
X272751393Y-37787133D01*
X272771098Y-37801747D01*
X272789277Y-37818223D01*
X272805753Y-37836402D01*
X272820367Y-37856107D01*
X272832980Y-37877151D01*
X272843470Y-37899329D01*
X272851735Y-37922429D01*
X272857696Y-37946227D01*
X272861296Y-37970496D01*
X272862500Y-37995000D01*
X272862500Y-39245000D01*
X272861296Y-39269504D01*
X272857696Y-39293773D01*
X272851735Y-39317571D01*
X272843470Y-39340671D01*
X272832980Y-39362849D01*
X272820367Y-39383893D01*
X272805753Y-39403598D01*
X272789277Y-39421777D01*
X272771098Y-39438253D01*
X272751393Y-39452867D01*
X272730349Y-39465480D01*
X272708171Y-39475970D01*
X272685071Y-39484235D01*
X272661273Y-39490196D01*
X272637004Y-39493796D01*
X272612500Y-39495000D01*
X271687500Y-39495000D01*
X271662996Y-39493796D01*
X271638727Y-39490196D01*
X271614929Y-39484235D01*
X271591829Y-39475970D01*
X271569651Y-39465480D01*
X271548607Y-39452867D01*
X271528902Y-39438253D01*
X271510723Y-39421777D01*
X271494247Y-39403598D01*
X271479633Y-39383893D01*
X271467020Y-39362849D01*
X271456530Y-39340671D01*
X271448265Y-39317571D01*
X271442304Y-39293773D01*
X271438704Y-39269504D01*
X271437500Y-39245000D01*
X271437500Y-37995000D01*
X271438704Y-37970496D01*
X271442304Y-37946227D01*
X271448265Y-37922429D01*
X271456530Y-37899329D01*
X271467020Y-37877151D01*
X271479633Y-37856107D01*
X271494247Y-37836402D01*
X271510723Y-37818223D01*
X271528902Y-37801747D01*
X271548607Y-37787133D01*
X271569651Y-37774520D01*
X271591829Y-37764030D01*
X271614929Y-37755765D01*
X271638727Y-37749804D01*
X271662996Y-37746204D01*
X271687500Y-37745000D01*
X272612500Y-37745000D01*
X272637004Y-37746204D01*
X272637004Y-37746204D01*
G37*
D12*
X272150000Y-38620000D03*
D11*
G36*
X275612004Y-37746204D02*
X275636273Y-37749804D01*
X275660071Y-37755765D01*
X275683171Y-37764030D01*
X275705349Y-37774520D01*
X275726393Y-37787133D01*
X275746098Y-37801747D01*
X275764277Y-37818223D01*
X275780753Y-37836402D01*
X275795367Y-37856107D01*
X275807980Y-37877151D01*
X275818470Y-37899329D01*
X275826735Y-37922429D01*
X275832696Y-37946227D01*
X275836296Y-37970496D01*
X275837500Y-37995000D01*
X275837500Y-39245000D01*
X275836296Y-39269504D01*
X275832696Y-39293773D01*
X275826735Y-39317571D01*
X275818470Y-39340671D01*
X275807980Y-39362849D01*
X275795367Y-39383893D01*
X275780753Y-39403598D01*
X275764277Y-39421777D01*
X275746098Y-39438253D01*
X275726393Y-39452867D01*
X275705349Y-39465480D01*
X275683171Y-39475970D01*
X275660071Y-39484235D01*
X275636273Y-39490196D01*
X275612004Y-39493796D01*
X275587500Y-39495000D01*
X274662500Y-39495000D01*
X274637996Y-39493796D01*
X274613727Y-39490196D01*
X274589929Y-39484235D01*
X274566829Y-39475970D01*
X274544651Y-39465480D01*
X274523607Y-39452867D01*
X274503902Y-39438253D01*
X274485723Y-39421777D01*
X274469247Y-39403598D01*
X274454633Y-39383893D01*
X274442020Y-39362849D01*
X274431530Y-39340671D01*
X274423265Y-39317571D01*
X274417304Y-39293773D01*
X274413704Y-39269504D01*
X274412500Y-39245000D01*
X274412500Y-37995000D01*
X274413704Y-37970496D01*
X274417304Y-37946227D01*
X274423265Y-37922429D01*
X274431530Y-37899329D01*
X274442020Y-37877151D01*
X274454633Y-37856107D01*
X274469247Y-37836402D01*
X274485723Y-37818223D01*
X274503902Y-37801747D01*
X274523607Y-37787133D01*
X274544651Y-37774520D01*
X274566829Y-37764030D01*
X274589929Y-37755765D01*
X274613727Y-37749804D01*
X274637996Y-37746204D01*
X274662500Y-37745000D01*
X275587500Y-37745000D01*
X275612004Y-37746204D01*
X275612004Y-37746204D01*
G37*
D12*
X275125000Y-38620000D03*
G04 #@! TD*
D11*
G04 #@! TO.C,D31*
G36*
X234537004Y-37746204D02*
X234561273Y-37749804D01*
X234585071Y-37755765D01*
X234608171Y-37764030D01*
X234630349Y-37774520D01*
X234651393Y-37787133D01*
X234671098Y-37801747D01*
X234689277Y-37818223D01*
X234705753Y-37836402D01*
X234720367Y-37856107D01*
X234732980Y-37877151D01*
X234743470Y-37899329D01*
X234751735Y-37922429D01*
X234757696Y-37946227D01*
X234761296Y-37970496D01*
X234762500Y-37995000D01*
X234762500Y-39245000D01*
X234761296Y-39269504D01*
X234757696Y-39293773D01*
X234751735Y-39317571D01*
X234743470Y-39340671D01*
X234732980Y-39362849D01*
X234720367Y-39383893D01*
X234705753Y-39403598D01*
X234689277Y-39421777D01*
X234671098Y-39438253D01*
X234651393Y-39452867D01*
X234630349Y-39465480D01*
X234608171Y-39475970D01*
X234585071Y-39484235D01*
X234561273Y-39490196D01*
X234537004Y-39493796D01*
X234512500Y-39495000D01*
X233587500Y-39495000D01*
X233562996Y-39493796D01*
X233538727Y-39490196D01*
X233514929Y-39484235D01*
X233491829Y-39475970D01*
X233469651Y-39465480D01*
X233448607Y-39452867D01*
X233428902Y-39438253D01*
X233410723Y-39421777D01*
X233394247Y-39403598D01*
X233379633Y-39383893D01*
X233367020Y-39362849D01*
X233356530Y-39340671D01*
X233348265Y-39317571D01*
X233342304Y-39293773D01*
X233338704Y-39269504D01*
X233337500Y-39245000D01*
X233337500Y-37995000D01*
X233338704Y-37970496D01*
X233342304Y-37946227D01*
X233348265Y-37922429D01*
X233356530Y-37899329D01*
X233367020Y-37877151D01*
X233379633Y-37856107D01*
X233394247Y-37836402D01*
X233410723Y-37818223D01*
X233428902Y-37801747D01*
X233448607Y-37787133D01*
X233469651Y-37774520D01*
X233491829Y-37764030D01*
X233514929Y-37755765D01*
X233538727Y-37749804D01*
X233562996Y-37746204D01*
X233587500Y-37745000D01*
X234512500Y-37745000D01*
X234537004Y-37746204D01*
X234537004Y-37746204D01*
G37*
D12*
X234050000Y-38620000D03*
D11*
G36*
X237512004Y-37746204D02*
X237536273Y-37749804D01*
X237560071Y-37755765D01*
X237583171Y-37764030D01*
X237605349Y-37774520D01*
X237626393Y-37787133D01*
X237646098Y-37801747D01*
X237664277Y-37818223D01*
X237680753Y-37836402D01*
X237695367Y-37856107D01*
X237707980Y-37877151D01*
X237718470Y-37899329D01*
X237726735Y-37922429D01*
X237732696Y-37946227D01*
X237736296Y-37970496D01*
X237737500Y-37995000D01*
X237737500Y-39245000D01*
X237736296Y-39269504D01*
X237732696Y-39293773D01*
X237726735Y-39317571D01*
X237718470Y-39340671D01*
X237707980Y-39362849D01*
X237695367Y-39383893D01*
X237680753Y-39403598D01*
X237664277Y-39421777D01*
X237646098Y-39438253D01*
X237626393Y-39452867D01*
X237605349Y-39465480D01*
X237583171Y-39475970D01*
X237560071Y-39484235D01*
X237536273Y-39490196D01*
X237512004Y-39493796D01*
X237487500Y-39495000D01*
X236562500Y-39495000D01*
X236537996Y-39493796D01*
X236513727Y-39490196D01*
X236489929Y-39484235D01*
X236466829Y-39475970D01*
X236444651Y-39465480D01*
X236423607Y-39452867D01*
X236403902Y-39438253D01*
X236385723Y-39421777D01*
X236369247Y-39403598D01*
X236354633Y-39383893D01*
X236342020Y-39362849D01*
X236331530Y-39340671D01*
X236323265Y-39317571D01*
X236317304Y-39293773D01*
X236313704Y-39269504D01*
X236312500Y-39245000D01*
X236312500Y-37995000D01*
X236313704Y-37970496D01*
X236317304Y-37946227D01*
X236323265Y-37922429D01*
X236331530Y-37899329D01*
X236342020Y-37877151D01*
X236354633Y-37856107D01*
X236369247Y-37836402D01*
X236385723Y-37818223D01*
X236403902Y-37801747D01*
X236423607Y-37787133D01*
X236444651Y-37774520D01*
X236466829Y-37764030D01*
X236489929Y-37755765D01*
X236513727Y-37749804D01*
X236537996Y-37746204D01*
X236562500Y-37745000D01*
X237487500Y-37745000D01*
X237512004Y-37746204D01*
X237512004Y-37746204D01*
G37*
D12*
X237025000Y-38620000D03*
G04 #@! TD*
D11*
G04 #@! TO.C,D32*
G36*
X256562004Y-37746204D02*
X256586273Y-37749804D01*
X256610071Y-37755765D01*
X256633171Y-37764030D01*
X256655349Y-37774520D01*
X256676393Y-37787133D01*
X256696098Y-37801747D01*
X256714277Y-37818223D01*
X256730753Y-37836402D01*
X256745367Y-37856107D01*
X256757980Y-37877151D01*
X256768470Y-37899329D01*
X256776735Y-37922429D01*
X256782696Y-37946227D01*
X256786296Y-37970496D01*
X256787500Y-37995000D01*
X256787500Y-39245000D01*
X256786296Y-39269504D01*
X256782696Y-39293773D01*
X256776735Y-39317571D01*
X256768470Y-39340671D01*
X256757980Y-39362849D01*
X256745367Y-39383893D01*
X256730753Y-39403598D01*
X256714277Y-39421777D01*
X256696098Y-39438253D01*
X256676393Y-39452867D01*
X256655349Y-39465480D01*
X256633171Y-39475970D01*
X256610071Y-39484235D01*
X256586273Y-39490196D01*
X256562004Y-39493796D01*
X256537500Y-39495000D01*
X255612500Y-39495000D01*
X255587996Y-39493796D01*
X255563727Y-39490196D01*
X255539929Y-39484235D01*
X255516829Y-39475970D01*
X255494651Y-39465480D01*
X255473607Y-39452867D01*
X255453902Y-39438253D01*
X255435723Y-39421777D01*
X255419247Y-39403598D01*
X255404633Y-39383893D01*
X255392020Y-39362849D01*
X255381530Y-39340671D01*
X255373265Y-39317571D01*
X255367304Y-39293773D01*
X255363704Y-39269504D01*
X255362500Y-39245000D01*
X255362500Y-37995000D01*
X255363704Y-37970496D01*
X255367304Y-37946227D01*
X255373265Y-37922429D01*
X255381530Y-37899329D01*
X255392020Y-37877151D01*
X255404633Y-37856107D01*
X255419247Y-37836402D01*
X255435723Y-37818223D01*
X255453902Y-37801747D01*
X255473607Y-37787133D01*
X255494651Y-37774520D01*
X255516829Y-37764030D01*
X255539929Y-37755765D01*
X255563727Y-37749804D01*
X255587996Y-37746204D01*
X255612500Y-37745000D01*
X256537500Y-37745000D01*
X256562004Y-37746204D01*
X256562004Y-37746204D01*
G37*
D12*
X256075000Y-38620000D03*
D11*
G36*
X253587004Y-37746204D02*
X253611273Y-37749804D01*
X253635071Y-37755765D01*
X253658171Y-37764030D01*
X253680349Y-37774520D01*
X253701393Y-37787133D01*
X253721098Y-37801747D01*
X253739277Y-37818223D01*
X253755753Y-37836402D01*
X253770367Y-37856107D01*
X253782980Y-37877151D01*
X253793470Y-37899329D01*
X253801735Y-37922429D01*
X253807696Y-37946227D01*
X253811296Y-37970496D01*
X253812500Y-37995000D01*
X253812500Y-39245000D01*
X253811296Y-39269504D01*
X253807696Y-39293773D01*
X253801735Y-39317571D01*
X253793470Y-39340671D01*
X253782980Y-39362849D01*
X253770367Y-39383893D01*
X253755753Y-39403598D01*
X253739277Y-39421777D01*
X253721098Y-39438253D01*
X253701393Y-39452867D01*
X253680349Y-39465480D01*
X253658171Y-39475970D01*
X253635071Y-39484235D01*
X253611273Y-39490196D01*
X253587004Y-39493796D01*
X253562500Y-39495000D01*
X252637500Y-39495000D01*
X252612996Y-39493796D01*
X252588727Y-39490196D01*
X252564929Y-39484235D01*
X252541829Y-39475970D01*
X252519651Y-39465480D01*
X252498607Y-39452867D01*
X252478902Y-39438253D01*
X252460723Y-39421777D01*
X252444247Y-39403598D01*
X252429633Y-39383893D01*
X252417020Y-39362849D01*
X252406530Y-39340671D01*
X252398265Y-39317571D01*
X252392304Y-39293773D01*
X252388704Y-39269504D01*
X252387500Y-39245000D01*
X252387500Y-37995000D01*
X252388704Y-37970496D01*
X252392304Y-37946227D01*
X252398265Y-37922429D01*
X252406530Y-37899329D01*
X252417020Y-37877151D01*
X252429633Y-37856107D01*
X252444247Y-37836402D01*
X252460723Y-37818223D01*
X252478902Y-37801747D01*
X252498607Y-37787133D01*
X252519651Y-37774520D01*
X252541829Y-37764030D01*
X252564929Y-37755765D01*
X252588727Y-37749804D01*
X252612996Y-37746204D01*
X252637500Y-37745000D01*
X253562500Y-37745000D01*
X253587004Y-37746204D01*
X253587004Y-37746204D01*
G37*
D12*
X253100000Y-38620000D03*
G04 #@! TD*
D11*
G04 #@! TO.C,D34*
G36*
X294662004Y-37746204D02*
X294686273Y-37749804D01*
X294710071Y-37755765D01*
X294733171Y-37764030D01*
X294755349Y-37774520D01*
X294776393Y-37787133D01*
X294796098Y-37801747D01*
X294814277Y-37818223D01*
X294830753Y-37836402D01*
X294845367Y-37856107D01*
X294857980Y-37877151D01*
X294868470Y-37899329D01*
X294876735Y-37922429D01*
X294882696Y-37946227D01*
X294886296Y-37970496D01*
X294887500Y-37995000D01*
X294887500Y-39245000D01*
X294886296Y-39269504D01*
X294882696Y-39293773D01*
X294876735Y-39317571D01*
X294868470Y-39340671D01*
X294857980Y-39362849D01*
X294845367Y-39383893D01*
X294830753Y-39403598D01*
X294814277Y-39421777D01*
X294796098Y-39438253D01*
X294776393Y-39452867D01*
X294755349Y-39465480D01*
X294733171Y-39475970D01*
X294710071Y-39484235D01*
X294686273Y-39490196D01*
X294662004Y-39493796D01*
X294637500Y-39495000D01*
X293712500Y-39495000D01*
X293687996Y-39493796D01*
X293663727Y-39490196D01*
X293639929Y-39484235D01*
X293616829Y-39475970D01*
X293594651Y-39465480D01*
X293573607Y-39452867D01*
X293553902Y-39438253D01*
X293535723Y-39421777D01*
X293519247Y-39403598D01*
X293504633Y-39383893D01*
X293492020Y-39362849D01*
X293481530Y-39340671D01*
X293473265Y-39317571D01*
X293467304Y-39293773D01*
X293463704Y-39269504D01*
X293462500Y-39245000D01*
X293462500Y-37995000D01*
X293463704Y-37970496D01*
X293467304Y-37946227D01*
X293473265Y-37922429D01*
X293481530Y-37899329D01*
X293492020Y-37877151D01*
X293504633Y-37856107D01*
X293519247Y-37836402D01*
X293535723Y-37818223D01*
X293553902Y-37801747D01*
X293573607Y-37787133D01*
X293594651Y-37774520D01*
X293616829Y-37764030D01*
X293639929Y-37755765D01*
X293663727Y-37749804D01*
X293687996Y-37746204D01*
X293712500Y-37745000D01*
X294637500Y-37745000D01*
X294662004Y-37746204D01*
X294662004Y-37746204D01*
G37*
D12*
X294175000Y-38620000D03*
D11*
G36*
X291687004Y-37746204D02*
X291711273Y-37749804D01*
X291735071Y-37755765D01*
X291758171Y-37764030D01*
X291780349Y-37774520D01*
X291801393Y-37787133D01*
X291821098Y-37801747D01*
X291839277Y-37818223D01*
X291855753Y-37836402D01*
X291870367Y-37856107D01*
X291882980Y-37877151D01*
X291893470Y-37899329D01*
X291901735Y-37922429D01*
X291907696Y-37946227D01*
X291911296Y-37970496D01*
X291912500Y-37995000D01*
X291912500Y-39245000D01*
X291911296Y-39269504D01*
X291907696Y-39293773D01*
X291901735Y-39317571D01*
X291893470Y-39340671D01*
X291882980Y-39362849D01*
X291870367Y-39383893D01*
X291855753Y-39403598D01*
X291839277Y-39421777D01*
X291821098Y-39438253D01*
X291801393Y-39452867D01*
X291780349Y-39465480D01*
X291758171Y-39475970D01*
X291735071Y-39484235D01*
X291711273Y-39490196D01*
X291687004Y-39493796D01*
X291662500Y-39495000D01*
X290737500Y-39495000D01*
X290712996Y-39493796D01*
X290688727Y-39490196D01*
X290664929Y-39484235D01*
X290641829Y-39475970D01*
X290619651Y-39465480D01*
X290598607Y-39452867D01*
X290578902Y-39438253D01*
X290560723Y-39421777D01*
X290544247Y-39403598D01*
X290529633Y-39383893D01*
X290517020Y-39362849D01*
X290506530Y-39340671D01*
X290498265Y-39317571D01*
X290492304Y-39293773D01*
X290488704Y-39269504D01*
X290487500Y-39245000D01*
X290487500Y-37995000D01*
X290488704Y-37970496D01*
X290492304Y-37946227D01*
X290498265Y-37922429D01*
X290506530Y-37899329D01*
X290517020Y-37877151D01*
X290529633Y-37856107D01*
X290544247Y-37836402D01*
X290560723Y-37818223D01*
X290578902Y-37801747D01*
X290598607Y-37787133D01*
X290619651Y-37774520D01*
X290641829Y-37764030D01*
X290664929Y-37755765D01*
X290688727Y-37749804D01*
X290712996Y-37746204D01*
X290737500Y-37745000D01*
X291662500Y-37745000D01*
X291687004Y-37746204D01*
X291687004Y-37746204D01*
G37*
D12*
X291200000Y-38620000D03*
G04 #@! TD*
D11*
G04 #@! TO.C,D35*
G36*
X310737004Y-37746204D02*
X310761273Y-37749804D01*
X310785071Y-37755765D01*
X310808171Y-37764030D01*
X310830349Y-37774520D01*
X310851393Y-37787133D01*
X310871098Y-37801747D01*
X310889277Y-37818223D01*
X310905753Y-37836402D01*
X310920367Y-37856107D01*
X310932980Y-37877151D01*
X310943470Y-37899329D01*
X310951735Y-37922429D01*
X310957696Y-37946227D01*
X310961296Y-37970496D01*
X310962500Y-37995000D01*
X310962500Y-39245000D01*
X310961296Y-39269504D01*
X310957696Y-39293773D01*
X310951735Y-39317571D01*
X310943470Y-39340671D01*
X310932980Y-39362849D01*
X310920367Y-39383893D01*
X310905753Y-39403598D01*
X310889277Y-39421777D01*
X310871098Y-39438253D01*
X310851393Y-39452867D01*
X310830349Y-39465480D01*
X310808171Y-39475970D01*
X310785071Y-39484235D01*
X310761273Y-39490196D01*
X310737004Y-39493796D01*
X310712500Y-39495000D01*
X309787500Y-39495000D01*
X309762996Y-39493796D01*
X309738727Y-39490196D01*
X309714929Y-39484235D01*
X309691829Y-39475970D01*
X309669651Y-39465480D01*
X309648607Y-39452867D01*
X309628902Y-39438253D01*
X309610723Y-39421777D01*
X309594247Y-39403598D01*
X309579633Y-39383893D01*
X309567020Y-39362849D01*
X309556530Y-39340671D01*
X309548265Y-39317571D01*
X309542304Y-39293773D01*
X309538704Y-39269504D01*
X309537500Y-39245000D01*
X309537500Y-37995000D01*
X309538704Y-37970496D01*
X309542304Y-37946227D01*
X309548265Y-37922429D01*
X309556530Y-37899329D01*
X309567020Y-37877151D01*
X309579633Y-37856107D01*
X309594247Y-37836402D01*
X309610723Y-37818223D01*
X309628902Y-37801747D01*
X309648607Y-37787133D01*
X309669651Y-37774520D01*
X309691829Y-37764030D01*
X309714929Y-37755765D01*
X309738727Y-37749804D01*
X309762996Y-37746204D01*
X309787500Y-37745000D01*
X310712500Y-37745000D01*
X310737004Y-37746204D01*
X310737004Y-37746204D01*
G37*
D12*
X310250000Y-38620000D03*
D11*
G36*
X313712004Y-37746204D02*
X313736273Y-37749804D01*
X313760071Y-37755765D01*
X313783171Y-37764030D01*
X313805349Y-37774520D01*
X313826393Y-37787133D01*
X313846098Y-37801747D01*
X313864277Y-37818223D01*
X313880753Y-37836402D01*
X313895367Y-37856107D01*
X313907980Y-37877151D01*
X313918470Y-37899329D01*
X313926735Y-37922429D01*
X313932696Y-37946227D01*
X313936296Y-37970496D01*
X313937500Y-37995000D01*
X313937500Y-39245000D01*
X313936296Y-39269504D01*
X313932696Y-39293773D01*
X313926735Y-39317571D01*
X313918470Y-39340671D01*
X313907980Y-39362849D01*
X313895367Y-39383893D01*
X313880753Y-39403598D01*
X313864277Y-39421777D01*
X313846098Y-39438253D01*
X313826393Y-39452867D01*
X313805349Y-39465480D01*
X313783171Y-39475970D01*
X313760071Y-39484235D01*
X313736273Y-39490196D01*
X313712004Y-39493796D01*
X313687500Y-39495000D01*
X312762500Y-39495000D01*
X312737996Y-39493796D01*
X312713727Y-39490196D01*
X312689929Y-39484235D01*
X312666829Y-39475970D01*
X312644651Y-39465480D01*
X312623607Y-39452867D01*
X312603902Y-39438253D01*
X312585723Y-39421777D01*
X312569247Y-39403598D01*
X312554633Y-39383893D01*
X312542020Y-39362849D01*
X312531530Y-39340671D01*
X312523265Y-39317571D01*
X312517304Y-39293773D01*
X312513704Y-39269504D01*
X312512500Y-39245000D01*
X312512500Y-37995000D01*
X312513704Y-37970496D01*
X312517304Y-37946227D01*
X312523265Y-37922429D01*
X312531530Y-37899329D01*
X312542020Y-37877151D01*
X312554633Y-37856107D01*
X312569247Y-37836402D01*
X312585723Y-37818223D01*
X312603902Y-37801747D01*
X312623607Y-37787133D01*
X312644651Y-37774520D01*
X312666829Y-37764030D01*
X312689929Y-37755765D01*
X312713727Y-37749804D01*
X312737996Y-37746204D01*
X312762500Y-37745000D01*
X313687500Y-37745000D01*
X313712004Y-37746204D01*
X313712004Y-37746204D01*
G37*
D12*
X313225000Y-38620000D03*
G04 #@! TD*
D11*
G04 #@! TO.C,D36*
G36*
X332762004Y-37746204D02*
X332786273Y-37749804D01*
X332810071Y-37755765D01*
X332833171Y-37764030D01*
X332855349Y-37774520D01*
X332876393Y-37787133D01*
X332896098Y-37801747D01*
X332914277Y-37818223D01*
X332930753Y-37836402D01*
X332945367Y-37856107D01*
X332957980Y-37877151D01*
X332968470Y-37899329D01*
X332976735Y-37922429D01*
X332982696Y-37946227D01*
X332986296Y-37970496D01*
X332987500Y-37995000D01*
X332987500Y-39245000D01*
X332986296Y-39269504D01*
X332982696Y-39293773D01*
X332976735Y-39317571D01*
X332968470Y-39340671D01*
X332957980Y-39362849D01*
X332945367Y-39383893D01*
X332930753Y-39403598D01*
X332914277Y-39421777D01*
X332896098Y-39438253D01*
X332876393Y-39452867D01*
X332855349Y-39465480D01*
X332833171Y-39475970D01*
X332810071Y-39484235D01*
X332786273Y-39490196D01*
X332762004Y-39493796D01*
X332737500Y-39495000D01*
X331812500Y-39495000D01*
X331787996Y-39493796D01*
X331763727Y-39490196D01*
X331739929Y-39484235D01*
X331716829Y-39475970D01*
X331694651Y-39465480D01*
X331673607Y-39452867D01*
X331653902Y-39438253D01*
X331635723Y-39421777D01*
X331619247Y-39403598D01*
X331604633Y-39383893D01*
X331592020Y-39362849D01*
X331581530Y-39340671D01*
X331573265Y-39317571D01*
X331567304Y-39293773D01*
X331563704Y-39269504D01*
X331562500Y-39245000D01*
X331562500Y-37995000D01*
X331563704Y-37970496D01*
X331567304Y-37946227D01*
X331573265Y-37922429D01*
X331581530Y-37899329D01*
X331592020Y-37877151D01*
X331604633Y-37856107D01*
X331619247Y-37836402D01*
X331635723Y-37818223D01*
X331653902Y-37801747D01*
X331673607Y-37787133D01*
X331694651Y-37774520D01*
X331716829Y-37764030D01*
X331739929Y-37755765D01*
X331763727Y-37749804D01*
X331787996Y-37746204D01*
X331812500Y-37745000D01*
X332737500Y-37745000D01*
X332762004Y-37746204D01*
X332762004Y-37746204D01*
G37*
D12*
X332275000Y-38620000D03*
D11*
G36*
X329787004Y-37746204D02*
X329811273Y-37749804D01*
X329835071Y-37755765D01*
X329858171Y-37764030D01*
X329880349Y-37774520D01*
X329901393Y-37787133D01*
X329921098Y-37801747D01*
X329939277Y-37818223D01*
X329955753Y-37836402D01*
X329970367Y-37856107D01*
X329982980Y-37877151D01*
X329993470Y-37899329D01*
X330001735Y-37922429D01*
X330007696Y-37946227D01*
X330011296Y-37970496D01*
X330012500Y-37995000D01*
X330012500Y-39245000D01*
X330011296Y-39269504D01*
X330007696Y-39293773D01*
X330001735Y-39317571D01*
X329993470Y-39340671D01*
X329982980Y-39362849D01*
X329970367Y-39383893D01*
X329955753Y-39403598D01*
X329939277Y-39421777D01*
X329921098Y-39438253D01*
X329901393Y-39452867D01*
X329880349Y-39465480D01*
X329858171Y-39475970D01*
X329835071Y-39484235D01*
X329811273Y-39490196D01*
X329787004Y-39493796D01*
X329762500Y-39495000D01*
X328837500Y-39495000D01*
X328812996Y-39493796D01*
X328788727Y-39490196D01*
X328764929Y-39484235D01*
X328741829Y-39475970D01*
X328719651Y-39465480D01*
X328698607Y-39452867D01*
X328678902Y-39438253D01*
X328660723Y-39421777D01*
X328644247Y-39403598D01*
X328629633Y-39383893D01*
X328617020Y-39362849D01*
X328606530Y-39340671D01*
X328598265Y-39317571D01*
X328592304Y-39293773D01*
X328588704Y-39269504D01*
X328587500Y-39245000D01*
X328587500Y-37995000D01*
X328588704Y-37970496D01*
X328592304Y-37946227D01*
X328598265Y-37922429D01*
X328606530Y-37899329D01*
X328617020Y-37877151D01*
X328629633Y-37856107D01*
X328644247Y-37836402D01*
X328660723Y-37818223D01*
X328678902Y-37801747D01*
X328698607Y-37787133D01*
X328719651Y-37774520D01*
X328741829Y-37764030D01*
X328764929Y-37755765D01*
X328788727Y-37749804D01*
X328812996Y-37746204D01*
X328837500Y-37745000D01*
X329762500Y-37745000D01*
X329787004Y-37746204D01*
X329787004Y-37746204D01*
G37*
D12*
X329300000Y-38620000D03*
G04 #@! TD*
D11*
G04 #@! TO.C,D37*
G36*
X208937004Y-56796204D02*
X208961273Y-56799804D01*
X208985071Y-56805765D01*
X209008171Y-56814030D01*
X209030349Y-56824520D01*
X209051393Y-56837133D01*
X209071098Y-56851747D01*
X209089277Y-56868223D01*
X209105753Y-56886402D01*
X209120367Y-56906107D01*
X209132980Y-56927151D01*
X209143470Y-56949329D01*
X209151735Y-56972429D01*
X209157696Y-56996227D01*
X209161296Y-57020496D01*
X209162500Y-57045000D01*
X209162500Y-58295000D01*
X209161296Y-58319504D01*
X209157696Y-58343773D01*
X209151735Y-58367571D01*
X209143470Y-58390671D01*
X209132980Y-58412849D01*
X209120367Y-58433893D01*
X209105753Y-58453598D01*
X209089277Y-58471777D01*
X209071098Y-58488253D01*
X209051393Y-58502867D01*
X209030349Y-58515480D01*
X209008171Y-58525970D01*
X208985071Y-58534235D01*
X208961273Y-58540196D01*
X208937004Y-58543796D01*
X208912500Y-58545000D01*
X207987500Y-58545000D01*
X207962996Y-58543796D01*
X207938727Y-58540196D01*
X207914929Y-58534235D01*
X207891829Y-58525970D01*
X207869651Y-58515480D01*
X207848607Y-58502867D01*
X207828902Y-58488253D01*
X207810723Y-58471777D01*
X207794247Y-58453598D01*
X207779633Y-58433893D01*
X207767020Y-58412849D01*
X207756530Y-58390671D01*
X207748265Y-58367571D01*
X207742304Y-58343773D01*
X207738704Y-58319504D01*
X207737500Y-58295000D01*
X207737500Y-57045000D01*
X207738704Y-57020496D01*
X207742304Y-56996227D01*
X207748265Y-56972429D01*
X207756530Y-56949329D01*
X207767020Y-56927151D01*
X207779633Y-56906107D01*
X207794247Y-56886402D01*
X207810723Y-56868223D01*
X207828902Y-56851747D01*
X207848607Y-56837133D01*
X207869651Y-56824520D01*
X207891829Y-56814030D01*
X207914929Y-56805765D01*
X207938727Y-56799804D01*
X207962996Y-56796204D01*
X207987500Y-56795000D01*
X208912500Y-56795000D01*
X208937004Y-56796204D01*
X208937004Y-56796204D01*
G37*
D12*
X208450000Y-57670000D03*
D11*
G36*
X205962004Y-56796204D02*
X205986273Y-56799804D01*
X206010071Y-56805765D01*
X206033171Y-56814030D01*
X206055349Y-56824520D01*
X206076393Y-56837133D01*
X206096098Y-56851747D01*
X206114277Y-56868223D01*
X206130753Y-56886402D01*
X206145367Y-56906107D01*
X206157980Y-56927151D01*
X206168470Y-56949329D01*
X206176735Y-56972429D01*
X206182696Y-56996227D01*
X206186296Y-57020496D01*
X206187500Y-57045000D01*
X206187500Y-58295000D01*
X206186296Y-58319504D01*
X206182696Y-58343773D01*
X206176735Y-58367571D01*
X206168470Y-58390671D01*
X206157980Y-58412849D01*
X206145367Y-58433893D01*
X206130753Y-58453598D01*
X206114277Y-58471777D01*
X206096098Y-58488253D01*
X206076393Y-58502867D01*
X206055349Y-58515480D01*
X206033171Y-58525970D01*
X206010071Y-58534235D01*
X205986273Y-58540196D01*
X205962004Y-58543796D01*
X205937500Y-58545000D01*
X205012500Y-58545000D01*
X204987996Y-58543796D01*
X204963727Y-58540196D01*
X204939929Y-58534235D01*
X204916829Y-58525970D01*
X204894651Y-58515480D01*
X204873607Y-58502867D01*
X204853902Y-58488253D01*
X204835723Y-58471777D01*
X204819247Y-58453598D01*
X204804633Y-58433893D01*
X204792020Y-58412849D01*
X204781530Y-58390671D01*
X204773265Y-58367571D01*
X204767304Y-58343773D01*
X204763704Y-58319504D01*
X204762500Y-58295000D01*
X204762500Y-57045000D01*
X204763704Y-57020496D01*
X204767304Y-56996227D01*
X204773265Y-56972429D01*
X204781530Y-56949329D01*
X204792020Y-56927151D01*
X204804633Y-56906107D01*
X204819247Y-56886402D01*
X204835723Y-56868223D01*
X204853902Y-56851747D01*
X204873607Y-56837133D01*
X204894651Y-56824520D01*
X204916829Y-56814030D01*
X204939929Y-56805765D01*
X204963727Y-56799804D01*
X204987996Y-56796204D01*
X205012500Y-56795000D01*
X205937500Y-56795000D01*
X205962004Y-56796204D01*
X205962004Y-56796204D01*
G37*
D12*
X205475000Y-57670000D03*
G04 #@! TD*
D11*
G04 #@! TO.C,D39*
G36*
X244062004Y-56796204D02*
X244086273Y-56799804D01*
X244110071Y-56805765D01*
X244133171Y-56814030D01*
X244155349Y-56824520D01*
X244176393Y-56837133D01*
X244196098Y-56851747D01*
X244214277Y-56868223D01*
X244230753Y-56886402D01*
X244245367Y-56906107D01*
X244257980Y-56927151D01*
X244268470Y-56949329D01*
X244276735Y-56972429D01*
X244282696Y-56996227D01*
X244286296Y-57020496D01*
X244287500Y-57045000D01*
X244287500Y-58295000D01*
X244286296Y-58319504D01*
X244282696Y-58343773D01*
X244276735Y-58367571D01*
X244268470Y-58390671D01*
X244257980Y-58412849D01*
X244245367Y-58433893D01*
X244230753Y-58453598D01*
X244214277Y-58471777D01*
X244196098Y-58488253D01*
X244176393Y-58502867D01*
X244155349Y-58515480D01*
X244133171Y-58525970D01*
X244110071Y-58534235D01*
X244086273Y-58540196D01*
X244062004Y-58543796D01*
X244037500Y-58545000D01*
X243112500Y-58545000D01*
X243087996Y-58543796D01*
X243063727Y-58540196D01*
X243039929Y-58534235D01*
X243016829Y-58525970D01*
X242994651Y-58515480D01*
X242973607Y-58502867D01*
X242953902Y-58488253D01*
X242935723Y-58471777D01*
X242919247Y-58453598D01*
X242904633Y-58433893D01*
X242892020Y-58412849D01*
X242881530Y-58390671D01*
X242873265Y-58367571D01*
X242867304Y-58343773D01*
X242863704Y-58319504D01*
X242862500Y-58295000D01*
X242862500Y-57045000D01*
X242863704Y-57020496D01*
X242867304Y-56996227D01*
X242873265Y-56972429D01*
X242881530Y-56949329D01*
X242892020Y-56927151D01*
X242904633Y-56906107D01*
X242919247Y-56886402D01*
X242935723Y-56868223D01*
X242953902Y-56851747D01*
X242973607Y-56837133D01*
X242994651Y-56824520D01*
X243016829Y-56814030D01*
X243039929Y-56805765D01*
X243063727Y-56799804D01*
X243087996Y-56796204D01*
X243112500Y-56795000D01*
X244037500Y-56795000D01*
X244062004Y-56796204D01*
X244062004Y-56796204D01*
G37*
D12*
X243575000Y-57670000D03*
D11*
G36*
X247037004Y-56796204D02*
X247061273Y-56799804D01*
X247085071Y-56805765D01*
X247108171Y-56814030D01*
X247130349Y-56824520D01*
X247151393Y-56837133D01*
X247171098Y-56851747D01*
X247189277Y-56868223D01*
X247205753Y-56886402D01*
X247220367Y-56906107D01*
X247232980Y-56927151D01*
X247243470Y-56949329D01*
X247251735Y-56972429D01*
X247257696Y-56996227D01*
X247261296Y-57020496D01*
X247262500Y-57045000D01*
X247262500Y-58295000D01*
X247261296Y-58319504D01*
X247257696Y-58343773D01*
X247251735Y-58367571D01*
X247243470Y-58390671D01*
X247232980Y-58412849D01*
X247220367Y-58433893D01*
X247205753Y-58453598D01*
X247189277Y-58471777D01*
X247171098Y-58488253D01*
X247151393Y-58502867D01*
X247130349Y-58515480D01*
X247108171Y-58525970D01*
X247085071Y-58534235D01*
X247061273Y-58540196D01*
X247037004Y-58543796D01*
X247012500Y-58545000D01*
X246087500Y-58545000D01*
X246062996Y-58543796D01*
X246038727Y-58540196D01*
X246014929Y-58534235D01*
X245991829Y-58525970D01*
X245969651Y-58515480D01*
X245948607Y-58502867D01*
X245928902Y-58488253D01*
X245910723Y-58471777D01*
X245894247Y-58453598D01*
X245879633Y-58433893D01*
X245867020Y-58412849D01*
X245856530Y-58390671D01*
X245848265Y-58367571D01*
X245842304Y-58343773D01*
X245838704Y-58319504D01*
X245837500Y-58295000D01*
X245837500Y-57045000D01*
X245838704Y-57020496D01*
X245842304Y-56996227D01*
X245848265Y-56972429D01*
X245856530Y-56949329D01*
X245867020Y-56927151D01*
X245879633Y-56906107D01*
X245894247Y-56886402D01*
X245910723Y-56868223D01*
X245928902Y-56851747D01*
X245948607Y-56837133D01*
X245969651Y-56824520D01*
X245991829Y-56814030D01*
X246014929Y-56805765D01*
X246038727Y-56799804D01*
X246062996Y-56796204D01*
X246087500Y-56795000D01*
X247012500Y-56795000D01*
X247037004Y-56796204D01*
X247037004Y-56796204D01*
G37*
D12*
X246550000Y-57670000D03*
G04 #@! TD*
D11*
G04 #@! TO.C,D41*
G36*
X285137004Y-56796204D02*
X285161273Y-56799804D01*
X285185071Y-56805765D01*
X285208171Y-56814030D01*
X285230349Y-56824520D01*
X285251393Y-56837133D01*
X285271098Y-56851747D01*
X285289277Y-56868223D01*
X285305753Y-56886402D01*
X285320367Y-56906107D01*
X285332980Y-56927151D01*
X285343470Y-56949329D01*
X285351735Y-56972429D01*
X285357696Y-56996227D01*
X285361296Y-57020496D01*
X285362500Y-57045000D01*
X285362500Y-58295000D01*
X285361296Y-58319504D01*
X285357696Y-58343773D01*
X285351735Y-58367571D01*
X285343470Y-58390671D01*
X285332980Y-58412849D01*
X285320367Y-58433893D01*
X285305753Y-58453598D01*
X285289277Y-58471777D01*
X285271098Y-58488253D01*
X285251393Y-58502867D01*
X285230349Y-58515480D01*
X285208171Y-58525970D01*
X285185071Y-58534235D01*
X285161273Y-58540196D01*
X285137004Y-58543796D01*
X285112500Y-58545000D01*
X284187500Y-58545000D01*
X284162996Y-58543796D01*
X284138727Y-58540196D01*
X284114929Y-58534235D01*
X284091829Y-58525970D01*
X284069651Y-58515480D01*
X284048607Y-58502867D01*
X284028902Y-58488253D01*
X284010723Y-58471777D01*
X283994247Y-58453598D01*
X283979633Y-58433893D01*
X283967020Y-58412849D01*
X283956530Y-58390671D01*
X283948265Y-58367571D01*
X283942304Y-58343773D01*
X283938704Y-58319504D01*
X283937500Y-58295000D01*
X283937500Y-57045000D01*
X283938704Y-57020496D01*
X283942304Y-56996227D01*
X283948265Y-56972429D01*
X283956530Y-56949329D01*
X283967020Y-56927151D01*
X283979633Y-56906107D01*
X283994247Y-56886402D01*
X284010723Y-56868223D01*
X284028902Y-56851747D01*
X284048607Y-56837133D01*
X284069651Y-56824520D01*
X284091829Y-56814030D01*
X284114929Y-56805765D01*
X284138727Y-56799804D01*
X284162996Y-56796204D01*
X284187500Y-56795000D01*
X285112500Y-56795000D01*
X285137004Y-56796204D01*
X285137004Y-56796204D01*
G37*
D12*
X284650000Y-57670000D03*
D11*
G36*
X282162004Y-56796204D02*
X282186273Y-56799804D01*
X282210071Y-56805765D01*
X282233171Y-56814030D01*
X282255349Y-56824520D01*
X282276393Y-56837133D01*
X282296098Y-56851747D01*
X282314277Y-56868223D01*
X282330753Y-56886402D01*
X282345367Y-56906107D01*
X282357980Y-56927151D01*
X282368470Y-56949329D01*
X282376735Y-56972429D01*
X282382696Y-56996227D01*
X282386296Y-57020496D01*
X282387500Y-57045000D01*
X282387500Y-58295000D01*
X282386296Y-58319504D01*
X282382696Y-58343773D01*
X282376735Y-58367571D01*
X282368470Y-58390671D01*
X282357980Y-58412849D01*
X282345367Y-58433893D01*
X282330753Y-58453598D01*
X282314277Y-58471777D01*
X282296098Y-58488253D01*
X282276393Y-58502867D01*
X282255349Y-58515480D01*
X282233171Y-58525970D01*
X282210071Y-58534235D01*
X282186273Y-58540196D01*
X282162004Y-58543796D01*
X282137500Y-58545000D01*
X281212500Y-58545000D01*
X281187996Y-58543796D01*
X281163727Y-58540196D01*
X281139929Y-58534235D01*
X281116829Y-58525970D01*
X281094651Y-58515480D01*
X281073607Y-58502867D01*
X281053902Y-58488253D01*
X281035723Y-58471777D01*
X281019247Y-58453598D01*
X281004633Y-58433893D01*
X280992020Y-58412849D01*
X280981530Y-58390671D01*
X280973265Y-58367571D01*
X280967304Y-58343773D01*
X280963704Y-58319504D01*
X280962500Y-58295000D01*
X280962500Y-57045000D01*
X280963704Y-57020496D01*
X280967304Y-56996227D01*
X280973265Y-56972429D01*
X280981530Y-56949329D01*
X280992020Y-56927151D01*
X281004633Y-56906107D01*
X281019247Y-56886402D01*
X281035723Y-56868223D01*
X281053902Y-56851747D01*
X281073607Y-56837133D01*
X281094651Y-56824520D01*
X281116829Y-56814030D01*
X281139929Y-56805765D01*
X281163727Y-56799804D01*
X281187996Y-56796204D01*
X281212500Y-56795000D01*
X282137500Y-56795000D01*
X282162004Y-56796204D01*
X282162004Y-56796204D01*
G37*
D12*
X281675000Y-57670000D03*
G04 #@! TD*
D11*
G04 #@! TO.C,D45*
G36*
X213699004Y-75846204D02*
X213723273Y-75849804D01*
X213747071Y-75855765D01*
X213770171Y-75864030D01*
X213792349Y-75874520D01*
X213813393Y-75887133D01*
X213833098Y-75901747D01*
X213851277Y-75918223D01*
X213867753Y-75936402D01*
X213882367Y-75956107D01*
X213894980Y-75977151D01*
X213905470Y-75999329D01*
X213913735Y-76022429D01*
X213919696Y-76046227D01*
X213923296Y-76070496D01*
X213924500Y-76095000D01*
X213924500Y-77345000D01*
X213923296Y-77369504D01*
X213919696Y-77393773D01*
X213913735Y-77417571D01*
X213905470Y-77440671D01*
X213894980Y-77462849D01*
X213882367Y-77483893D01*
X213867753Y-77503598D01*
X213851277Y-77521777D01*
X213833098Y-77538253D01*
X213813393Y-77552867D01*
X213792349Y-77565480D01*
X213770171Y-77575970D01*
X213747071Y-77584235D01*
X213723273Y-77590196D01*
X213699004Y-77593796D01*
X213674500Y-77595000D01*
X212749500Y-77595000D01*
X212724996Y-77593796D01*
X212700727Y-77590196D01*
X212676929Y-77584235D01*
X212653829Y-77575970D01*
X212631651Y-77565480D01*
X212610607Y-77552867D01*
X212590902Y-77538253D01*
X212572723Y-77521777D01*
X212556247Y-77503598D01*
X212541633Y-77483893D01*
X212529020Y-77462849D01*
X212518530Y-77440671D01*
X212510265Y-77417571D01*
X212504304Y-77393773D01*
X212500704Y-77369504D01*
X212499500Y-77345000D01*
X212499500Y-76095000D01*
X212500704Y-76070496D01*
X212504304Y-76046227D01*
X212510265Y-76022429D01*
X212518530Y-75999329D01*
X212529020Y-75977151D01*
X212541633Y-75956107D01*
X212556247Y-75936402D01*
X212572723Y-75918223D01*
X212590902Y-75901747D01*
X212610607Y-75887133D01*
X212631651Y-75874520D01*
X212653829Y-75864030D01*
X212676929Y-75855765D01*
X212700727Y-75849804D01*
X212724996Y-75846204D01*
X212749500Y-75845000D01*
X213674500Y-75845000D01*
X213699004Y-75846204D01*
X213699004Y-75846204D01*
G37*
D12*
X213212000Y-76720000D03*
D11*
G36*
X210724004Y-75846204D02*
X210748273Y-75849804D01*
X210772071Y-75855765D01*
X210795171Y-75864030D01*
X210817349Y-75874520D01*
X210838393Y-75887133D01*
X210858098Y-75901747D01*
X210876277Y-75918223D01*
X210892753Y-75936402D01*
X210907367Y-75956107D01*
X210919980Y-75977151D01*
X210930470Y-75999329D01*
X210938735Y-76022429D01*
X210944696Y-76046227D01*
X210948296Y-76070496D01*
X210949500Y-76095000D01*
X210949500Y-77345000D01*
X210948296Y-77369504D01*
X210944696Y-77393773D01*
X210938735Y-77417571D01*
X210930470Y-77440671D01*
X210919980Y-77462849D01*
X210907367Y-77483893D01*
X210892753Y-77503598D01*
X210876277Y-77521777D01*
X210858098Y-77538253D01*
X210838393Y-77552867D01*
X210817349Y-77565480D01*
X210795171Y-77575970D01*
X210772071Y-77584235D01*
X210748273Y-77590196D01*
X210724004Y-77593796D01*
X210699500Y-77595000D01*
X209774500Y-77595000D01*
X209749996Y-77593796D01*
X209725727Y-77590196D01*
X209701929Y-77584235D01*
X209678829Y-77575970D01*
X209656651Y-77565480D01*
X209635607Y-77552867D01*
X209615902Y-77538253D01*
X209597723Y-77521777D01*
X209581247Y-77503598D01*
X209566633Y-77483893D01*
X209554020Y-77462849D01*
X209543530Y-77440671D01*
X209535265Y-77417571D01*
X209529304Y-77393773D01*
X209525704Y-77369504D01*
X209524500Y-77345000D01*
X209524500Y-76095000D01*
X209525704Y-76070496D01*
X209529304Y-76046227D01*
X209535265Y-76022429D01*
X209543530Y-75999329D01*
X209554020Y-75977151D01*
X209566633Y-75956107D01*
X209581247Y-75936402D01*
X209597723Y-75918223D01*
X209615902Y-75901747D01*
X209635607Y-75887133D01*
X209656651Y-75874520D01*
X209678829Y-75864030D01*
X209701929Y-75855765D01*
X209725727Y-75849804D01*
X209749996Y-75846204D01*
X209774500Y-75845000D01*
X210699500Y-75845000D01*
X210724004Y-75846204D01*
X210724004Y-75846204D01*
G37*
D12*
X210237000Y-76720000D03*
G04 #@! TD*
D11*
G04 #@! TO.C,D48*
G36*
X267874004Y-75846204D02*
X267898273Y-75849804D01*
X267922071Y-75855765D01*
X267945171Y-75864030D01*
X267967349Y-75874520D01*
X267988393Y-75887133D01*
X268008098Y-75901747D01*
X268026277Y-75918223D01*
X268042753Y-75936402D01*
X268057367Y-75956107D01*
X268069980Y-75977151D01*
X268080470Y-75999329D01*
X268088735Y-76022429D01*
X268094696Y-76046227D01*
X268098296Y-76070496D01*
X268099500Y-76095000D01*
X268099500Y-77345000D01*
X268098296Y-77369504D01*
X268094696Y-77393773D01*
X268088735Y-77417571D01*
X268080470Y-77440671D01*
X268069980Y-77462849D01*
X268057367Y-77483893D01*
X268042753Y-77503598D01*
X268026277Y-77521777D01*
X268008098Y-77538253D01*
X267988393Y-77552867D01*
X267967349Y-77565480D01*
X267945171Y-77575970D01*
X267922071Y-77584235D01*
X267898273Y-77590196D01*
X267874004Y-77593796D01*
X267849500Y-77595000D01*
X266924500Y-77595000D01*
X266899996Y-77593796D01*
X266875727Y-77590196D01*
X266851929Y-77584235D01*
X266828829Y-77575970D01*
X266806651Y-77565480D01*
X266785607Y-77552867D01*
X266765902Y-77538253D01*
X266747723Y-77521777D01*
X266731247Y-77503598D01*
X266716633Y-77483893D01*
X266704020Y-77462849D01*
X266693530Y-77440671D01*
X266685265Y-77417571D01*
X266679304Y-77393773D01*
X266675704Y-77369504D01*
X266674500Y-77345000D01*
X266674500Y-76095000D01*
X266675704Y-76070496D01*
X266679304Y-76046227D01*
X266685265Y-76022429D01*
X266693530Y-75999329D01*
X266704020Y-75977151D01*
X266716633Y-75956107D01*
X266731247Y-75936402D01*
X266747723Y-75918223D01*
X266765902Y-75901747D01*
X266785607Y-75887133D01*
X266806651Y-75874520D01*
X266828829Y-75864030D01*
X266851929Y-75855765D01*
X266875727Y-75849804D01*
X266899996Y-75846204D01*
X266924500Y-75845000D01*
X267849500Y-75845000D01*
X267874004Y-75846204D01*
X267874004Y-75846204D01*
G37*
D12*
X267387000Y-76720000D03*
D11*
G36*
X270849004Y-75846204D02*
X270873273Y-75849804D01*
X270897071Y-75855765D01*
X270920171Y-75864030D01*
X270942349Y-75874520D01*
X270963393Y-75887133D01*
X270983098Y-75901747D01*
X271001277Y-75918223D01*
X271017753Y-75936402D01*
X271032367Y-75956107D01*
X271044980Y-75977151D01*
X271055470Y-75999329D01*
X271063735Y-76022429D01*
X271069696Y-76046227D01*
X271073296Y-76070496D01*
X271074500Y-76095000D01*
X271074500Y-77345000D01*
X271073296Y-77369504D01*
X271069696Y-77393773D01*
X271063735Y-77417571D01*
X271055470Y-77440671D01*
X271044980Y-77462849D01*
X271032367Y-77483893D01*
X271017753Y-77503598D01*
X271001277Y-77521777D01*
X270983098Y-77538253D01*
X270963393Y-77552867D01*
X270942349Y-77565480D01*
X270920171Y-77575970D01*
X270897071Y-77584235D01*
X270873273Y-77590196D01*
X270849004Y-77593796D01*
X270824500Y-77595000D01*
X269899500Y-77595000D01*
X269874996Y-77593796D01*
X269850727Y-77590196D01*
X269826929Y-77584235D01*
X269803829Y-77575970D01*
X269781651Y-77565480D01*
X269760607Y-77552867D01*
X269740902Y-77538253D01*
X269722723Y-77521777D01*
X269706247Y-77503598D01*
X269691633Y-77483893D01*
X269679020Y-77462849D01*
X269668530Y-77440671D01*
X269660265Y-77417571D01*
X269654304Y-77393773D01*
X269650704Y-77369504D01*
X269649500Y-77345000D01*
X269649500Y-76095000D01*
X269650704Y-76070496D01*
X269654304Y-76046227D01*
X269660265Y-76022429D01*
X269668530Y-75999329D01*
X269679020Y-75977151D01*
X269691633Y-75956107D01*
X269706247Y-75936402D01*
X269722723Y-75918223D01*
X269740902Y-75901747D01*
X269760607Y-75887133D01*
X269781651Y-75874520D01*
X269803829Y-75864030D01*
X269826929Y-75855765D01*
X269850727Y-75849804D01*
X269874996Y-75846204D01*
X269899500Y-75845000D01*
X270824500Y-75845000D01*
X270849004Y-75846204D01*
X270849004Y-75846204D01*
G37*
D12*
X270362000Y-76720000D03*
G04 #@! TD*
D11*
G04 #@! TO.C,D50*
G36*
X305974004Y-75846204D02*
X305998273Y-75849804D01*
X306022071Y-75855765D01*
X306045171Y-75864030D01*
X306067349Y-75874520D01*
X306088393Y-75887133D01*
X306108098Y-75901747D01*
X306126277Y-75918223D01*
X306142753Y-75936402D01*
X306157367Y-75956107D01*
X306169980Y-75977151D01*
X306180470Y-75999329D01*
X306188735Y-76022429D01*
X306194696Y-76046227D01*
X306198296Y-76070496D01*
X306199500Y-76095000D01*
X306199500Y-77345000D01*
X306198296Y-77369504D01*
X306194696Y-77393773D01*
X306188735Y-77417571D01*
X306180470Y-77440671D01*
X306169980Y-77462849D01*
X306157367Y-77483893D01*
X306142753Y-77503598D01*
X306126277Y-77521777D01*
X306108098Y-77538253D01*
X306088393Y-77552867D01*
X306067349Y-77565480D01*
X306045171Y-77575970D01*
X306022071Y-77584235D01*
X305998273Y-77590196D01*
X305974004Y-77593796D01*
X305949500Y-77595000D01*
X305024500Y-77595000D01*
X304999996Y-77593796D01*
X304975727Y-77590196D01*
X304951929Y-77584235D01*
X304928829Y-77575970D01*
X304906651Y-77565480D01*
X304885607Y-77552867D01*
X304865902Y-77538253D01*
X304847723Y-77521777D01*
X304831247Y-77503598D01*
X304816633Y-77483893D01*
X304804020Y-77462849D01*
X304793530Y-77440671D01*
X304785265Y-77417571D01*
X304779304Y-77393773D01*
X304775704Y-77369504D01*
X304774500Y-77345000D01*
X304774500Y-76095000D01*
X304775704Y-76070496D01*
X304779304Y-76046227D01*
X304785265Y-76022429D01*
X304793530Y-75999329D01*
X304804020Y-75977151D01*
X304816633Y-75956107D01*
X304831247Y-75936402D01*
X304847723Y-75918223D01*
X304865902Y-75901747D01*
X304885607Y-75887133D01*
X304906651Y-75874520D01*
X304928829Y-75864030D01*
X304951929Y-75855765D01*
X304975727Y-75849804D01*
X304999996Y-75846204D01*
X305024500Y-75845000D01*
X305949500Y-75845000D01*
X305974004Y-75846204D01*
X305974004Y-75846204D01*
G37*
D12*
X305487000Y-76720000D03*
D11*
G36*
X308949004Y-75846204D02*
X308973273Y-75849804D01*
X308997071Y-75855765D01*
X309020171Y-75864030D01*
X309042349Y-75874520D01*
X309063393Y-75887133D01*
X309083098Y-75901747D01*
X309101277Y-75918223D01*
X309117753Y-75936402D01*
X309132367Y-75956107D01*
X309144980Y-75977151D01*
X309155470Y-75999329D01*
X309163735Y-76022429D01*
X309169696Y-76046227D01*
X309173296Y-76070496D01*
X309174500Y-76095000D01*
X309174500Y-77345000D01*
X309173296Y-77369504D01*
X309169696Y-77393773D01*
X309163735Y-77417571D01*
X309155470Y-77440671D01*
X309144980Y-77462849D01*
X309132367Y-77483893D01*
X309117753Y-77503598D01*
X309101277Y-77521777D01*
X309083098Y-77538253D01*
X309063393Y-77552867D01*
X309042349Y-77565480D01*
X309020171Y-77575970D01*
X308997071Y-77584235D01*
X308973273Y-77590196D01*
X308949004Y-77593796D01*
X308924500Y-77595000D01*
X307999500Y-77595000D01*
X307974996Y-77593796D01*
X307950727Y-77590196D01*
X307926929Y-77584235D01*
X307903829Y-77575970D01*
X307881651Y-77565480D01*
X307860607Y-77552867D01*
X307840902Y-77538253D01*
X307822723Y-77521777D01*
X307806247Y-77503598D01*
X307791633Y-77483893D01*
X307779020Y-77462849D01*
X307768530Y-77440671D01*
X307760265Y-77417571D01*
X307754304Y-77393773D01*
X307750704Y-77369504D01*
X307749500Y-77345000D01*
X307749500Y-76095000D01*
X307750704Y-76070496D01*
X307754304Y-76046227D01*
X307760265Y-76022429D01*
X307768530Y-75999329D01*
X307779020Y-75977151D01*
X307791633Y-75956107D01*
X307806247Y-75936402D01*
X307822723Y-75918223D01*
X307840902Y-75901747D01*
X307860607Y-75887133D01*
X307881651Y-75874520D01*
X307903829Y-75864030D01*
X307926929Y-75855765D01*
X307950727Y-75849804D01*
X307974996Y-75846204D01*
X307999500Y-75845000D01*
X308924500Y-75845000D01*
X308949004Y-75846204D01*
X308949004Y-75846204D01*
G37*
D12*
X308462000Y-76720000D03*
G04 #@! TD*
D11*
G04 #@! TO.C,D51*
G36*
X339905404Y-75846204D02*
X339929673Y-75849804D01*
X339953471Y-75855765D01*
X339976571Y-75864030D01*
X339998749Y-75874520D01*
X340019793Y-75887133D01*
X340039498Y-75901747D01*
X340057677Y-75918223D01*
X340074153Y-75936402D01*
X340088767Y-75956107D01*
X340101380Y-75977151D01*
X340111870Y-75999329D01*
X340120135Y-76022429D01*
X340126096Y-76046227D01*
X340129696Y-76070496D01*
X340130900Y-76095000D01*
X340130900Y-77345000D01*
X340129696Y-77369504D01*
X340126096Y-77393773D01*
X340120135Y-77417571D01*
X340111870Y-77440671D01*
X340101380Y-77462849D01*
X340088767Y-77483893D01*
X340074153Y-77503598D01*
X340057677Y-77521777D01*
X340039498Y-77538253D01*
X340019793Y-77552867D01*
X339998749Y-77565480D01*
X339976571Y-77575970D01*
X339953471Y-77584235D01*
X339929673Y-77590196D01*
X339905404Y-77593796D01*
X339880900Y-77595000D01*
X338955900Y-77595000D01*
X338931396Y-77593796D01*
X338907127Y-77590196D01*
X338883329Y-77584235D01*
X338860229Y-77575970D01*
X338838051Y-77565480D01*
X338817007Y-77552867D01*
X338797302Y-77538253D01*
X338779123Y-77521777D01*
X338762647Y-77503598D01*
X338748033Y-77483893D01*
X338735420Y-77462849D01*
X338724930Y-77440671D01*
X338716665Y-77417571D01*
X338710704Y-77393773D01*
X338707104Y-77369504D01*
X338705900Y-77345000D01*
X338705900Y-76095000D01*
X338707104Y-76070496D01*
X338710704Y-76046227D01*
X338716665Y-76022429D01*
X338724930Y-75999329D01*
X338735420Y-75977151D01*
X338748033Y-75956107D01*
X338762647Y-75936402D01*
X338779123Y-75918223D01*
X338797302Y-75901747D01*
X338817007Y-75887133D01*
X338838051Y-75874520D01*
X338860229Y-75864030D01*
X338883329Y-75855765D01*
X338907127Y-75849804D01*
X338931396Y-75846204D01*
X338955900Y-75845000D01*
X339880900Y-75845000D01*
X339905404Y-75846204D01*
X339905404Y-75846204D01*
G37*
D12*
X339418400Y-76720000D03*
D11*
G36*
X336930404Y-75846204D02*
X336954673Y-75849804D01*
X336978471Y-75855765D01*
X337001571Y-75864030D01*
X337023749Y-75874520D01*
X337044793Y-75887133D01*
X337064498Y-75901747D01*
X337082677Y-75918223D01*
X337099153Y-75936402D01*
X337113767Y-75956107D01*
X337126380Y-75977151D01*
X337136870Y-75999329D01*
X337145135Y-76022429D01*
X337151096Y-76046227D01*
X337154696Y-76070496D01*
X337155900Y-76095000D01*
X337155900Y-77345000D01*
X337154696Y-77369504D01*
X337151096Y-77393773D01*
X337145135Y-77417571D01*
X337136870Y-77440671D01*
X337126380Y-77462849D01*
X337113767Y-77483893D01*
X337099153Y-77503598D01*
X337082677Y-77521777D01*
X337064498Y-77538253D01*
X337044793Y-77552867D01*
X337023749Y-77565480D01*
X337001571Y-77575970D01*
X336978471Y-77584235D01*
X336954673Y-77590196D01*
X336930404Y-77593796D01*
X336905900Y-77595000D01*
X335980900Y-77595000D01*
X335956396Y-77593796D01*
X335932127Y-77590196D01*
X335908329Y-77584235D01*
X335885229Y-77575970D01*
X335863051Y-77565480D01*
X335842007Y-77552867D01*
X335822302Y-77538253D01*
X335804123Y-77521777D01*
X335787647Y-77503598D01*
X335773033Y-77483893D01*
X335760420Y-77462849D01*
X335749930Y-77440671D01*
X335741665Y-77417571D01*
X335735704Y-77393773D01*
X335732104Y-77369504D01*
X335730900Y-77345000D01*
X335730900Y-76095000D01*
X335732104Y-76070496D01*
X335735704Y-76046227D01*
X335741665Y-76022429D01*
X335749930Y-75999329D01*
X335760420Y-75977151D01*
X335773033Y-75956107D01*
X335787647Y-75936402D01*
X335804123Y-75918223D01*
X335822302Y-75901747D01*
X335842007Y-75887133D01*
X335863051Y-75874520D01*
X335885229Y-75864030D01*
X335908329Y-75855765D01*
X335932127Y-75849804D01*
X335956396Y-75846204D01*
X335980900Y-75845000D01*
X336905900Y-75845000D01*
X336930404Y-75846204D01*
X336930404Y-75846204D01*
G37*
D12*
X336443400Y-76720000D03*
G04 #@! TD*
D11*
G04 #@! TO.C,D52*
G36*
X348837004Y-37746204D02*
X348861273Y-37749804D01*
X348885071Y-37755765D01*
X348908171Y-37764030D01*
X348930349Y-37774520D01*
X348951393Y-37787133D01*
X348971098Y-37801747D01*
X348989277Y-37818223D01*
X349005753Y-37836402D01*
X349020367Y-37856107D01*
X349032980Y-37877151D01*
X349043470Y-37899329D01*
X349051735Y-37922429D01*
X349057696Y-37946227D01*
X349061296Y-37970496D01*
X349062500Y-37995000D01*
X349062500Y-39245000D01*
X349061296Y-39269504D01*
X349057696Y-39293773D01*
X349051735Y-39317571D01*
X349043470Y-39340671D01*
X349032980Y-39362849D01*
X349020367Y-39383893D01*
X349005753Y-39403598D01*
X348989277Y-39421777D01*
X348971098Y-39438253D01*
X348951393Y-39452867D01*
X348930349Y-39465480D01*
X348908171Y-39475970D01*
X348885071Y-39484235D01*
X348861273Y-39490196D01*
X348837004Y-39493796D01*
X348812500Y-39495000D01*
X347887500Y-39495000D01*
X347862996Y-39493796D01*
X347838727Y-39490196D01*
X347814929Y-39484235D01*
X347791829Y-39475970D01*
X347769651Y-39465480D01*
X347748607Y-39452867D01*
X347728902Y-39438253D01*
X347710723Y-39421777D01*
X347694247Y-39403598D01*
X347679633Y-39383893D01*
X347667020Y-39362849D01*
X347656530Y-39340671D01*
X347648265Y-39317571D01*
X347642304Y-39293773D01*
X347638704Y-39269504D01*
X347637500Y-39245000D01*
X347637500Y-37995000D01*
X347638704Y-37970496D01*
X347642304Y-37946227D01*
X347648265Y-37922429D01*
X347656530Y-37899329D01*
X347667020Y-37877151D01*
X347679633Y-37856107D01*
X347694247Y-37836402D01*
X347710723Y-37818223D01*
X347728902Y-37801747D01*
X347748607Y-37787133D01*
X347769651Y-37774520D01*
X347791829Y-37764030D01*
X347814929Y-37755765D01*
X347838727Y-37749804D01*
X347862996Y-37746204D01*
X347887500Y-37745000D01*
X348812500Y-37745000D01*
X348837004Y-37746204D01*
X348837004Y-37746204D01*
G37*
D12*
X348350000Y-38620000D03*
D11*
G36*
X351812004Y-37746204D02*
X351836273Y-37749804D01*
X351860071Y-37755765D01*
X351883171Y-37764030D01*
X351905349Y-37774520D01*
X351926393Y-37787133D01*
X351946098Y-37801747D01*
X351964277Y-37818223D01*
X351980753Y-37836402D01*
X351995367Y-37856107D01*
X352007980Y-37877151D01*
X352018470Y-37899329D01*
X352026735Y-37922429D01*
X352032696Y-37946227D01*
X352036296Y-37970496D01*
X352037500Y-37995000D01*
X352037500Y-39245000D01*
X352036296Y-39269504D01*
X352032696Y-39293773D01*
X352026735Y-39317571D01*
X352018470Y-39340671D01*
X352007980Y-39362849D01*
X351995367Y-39383893D01*
X351980753Y-39403598D01*
X351964277Y-39421777D01*
X351946098Y-39438253D01*
X351926393Y-39452867D01*
X351905349Y-39465480D01*
X351883171Y-39475970D01*
X351860071Y-39484235D01*
X351836273Y-39490196D01*
X351812004Y-39493796D01*
X351787500Y-39495000D01*
X350862500Y-39495000D01*
X350837996Y-39493796D01*
X350813727Y-39490196D01*
X350789929Y-39484235D01*
X350766829Y-39475970D01*
X350744651Y-39465480D01*
X350723607Y-39452867D01*
X350703902Y-39438253D01*
X350685723Y-39421777D01*
X350669247Y-39403598D01*
X350654633Y-39383893D01*
X350642020Y-39362849D01*
X350631530Y-39340671D01*
X350623265Y-39317571D01*
X350617304Y-39293773D01*
X350613704Y-39269504D01*
X350612500Y-39245000D01*
X350612500Y-37995000D01*
X350613704Y-37970496D01*
X350617304Y-37946227D01*
X350623265Y-37922429D01*
X350631530Y-37899329D01*
X350642020Y-37877151D01*
X350654633Y-37856107D01*
X350669247Y-37836402D01*
X350685723Y-37818223D01*
X350703902Y-37801747D01*
X350723607Y-37787133D01*
X350744651Y-37774520D01*
X350766829Y-37764030D01*
X350789929Y-37755765D01*
X350813727Y-37749804D01*
X350837996Y-37746204D01*
X350862500Y-37745000D01*
X351787500Y-37745000D01*
X351812004Y-37746204D01*
X351812004Y-37746204D01*
G37*
D12*
X351325000Y-38620000D03*
G04 #@! TD*
D11*
G04 #@! TO.C,D54*
G36*
X223224004Y-94896204D02*
X223248273Y-94899804D01*
X223272071Y-94905765D01*
X223295171Y-94914030D01*
X223317349Y-94924520D01*
X223338393Y-94937133D01*
X223358098Y-94951747D01*
X223376277Y-94968223D01*
X223392753Y-94986402D01*
X223407367Y-95006107D01*
X223419980Y-95027151D01*
X223430470Y-95049329D01*
X223438735Y-95072429D01*
X223444696Y-95096227D01*
X223448296Y-95120496D01*
X223449500Y-95145000D01*
X223449500Y-96395000D01*
X223448296Y-96419504D01*
X223444696Y-96443773D01*
X223438735Y-96467571D01*
X223430470Y-96490671D01*
X223419980Y-96512849D01*
X223407367Y-96533893D01*
X223392753Y-96553598D01*
X223376277Y-96571777D01*
X223358098Y-96588253D01*
X223338393Y-96602867D01*
X223317349Y-96615480D01*
X223295171Y-96625970D01*
X223272071Y-96634235D01*
X223248273Y-96640196D01*
X223224004Y-96643796D01*
X223199500Y-96645000D01*
X222274500Y-96645000D01*
X222249996Y-96643796D01*
X222225727Y-96640196D01*
X222201929Y-96634235D01*
X222178829Y-96625970D01*
X222156651Y-96615480D01*
X222135607Y-96602867D01*
X222115902Y-96588253D01*
X222097723Y-96571777D01*
X222081247Y-96553598D01*
X222066633Y-96533893D01*
X222054020Y-96512849D01*
X222043530Y-96490671D01*
X222035265Y-96467571D01*
X222029304Y-96443773D01*
X222025704Y-96419504D01*
X222024500Y-96395000D01*
X222024500Y-95145000D01*
X222025704Y-95120496D01*
X222029304Y-95096227D01*
X222035265Y-95072429D01*
X222043530Y-95049329D01*
X222054020Y-95027151D01*
X222066633Y-95006107D01*
X222081247Y-94986402D01*
X222097723Y-94968223D01*
X222115902Y-94951747D01*
X222135607Y-94937133D01*
X222156651Y-94924520D01*
X222178829Y-94914030D01*
X222201929Y-94905765D01*
X222225727Y-94899804D01*
X222249996Y-94896204D01*
X222274500Y-94895000D01*
X223199500Y-94895000D01*
X223224004Y-94896204D01*
X223224004Y-94896204D01*
G37*
D12*
X222737000Y-95770000D03*
D11*
G36*
X220249004Y-94896204D02*
X220273273Y-94899804D01*
X220297071Y-94905765D01*
X220320171Y-94914030D01*
X220342349Y-94924520D01*
X220363393Y-94937133D01*
X220383098Y-94951747D01*
X220401277Y-94968223D01*
X220417753Y-94986402D01*
X220432367Y-95006107D01*
X220444980Y-95027151D01*
X220455470Y-95049329D01*
X220463735Y-95072429D01*
X220469696Y-95096227D01*
X220473296Y-95120496D01*
X220474500Y-95145000D01*
X220474500Y-96395000D01*
X220473296Y-96419504D01*
X220469696Y-96443773D01*
X220463735Y-96467571D01*
X220455470Y-96490671D01*
X220444980Y-96512849D01*
X220432367Y-96533893D01*
X220417753Y-96553598D01*
X220401277Y-96571777D01*
X220383098Y-96588253D01*
X220363393Y-96602867D01*
X220342349Y-96615480D01*
X220320171Y-96625970D01*
X220297071Y-96634235D01*
X220273273Y-96640196D01*
X220249004Y-96643796D01*
X220224500Y-96645000D01*
X219299500Y-96645000D01*
X219274996Y-96643796D01*
X219250727Y-96640196D01*
X219226929Y-96634235D01*
X219203829Y-96625970D01*
X219181651Y-96615480D01*
X219160607Y-96602867D01*
X219140902Y-96588253D01*
X219122723Y-96571777D01*
X219106247Y-96553598D01*
X219091633Y-96533893D01*
X219079020Y-96512849D01*
X219068530Y-96490671D01*
X219060265Y-96467571D01*
X219054304Y-96443773D01*
X219050704Y-96419504D01*
X219049500Y-96395000D01*
X219049500Y-95145000D01*
X219050704Y-95120496D01*
X219054304Y-95096227D01*
X219060265Y-95072429D01*
X219068530Y-95049329D01*
X219079020Y-95027151D01*
X219091633Y-95006107D01*
X219106247Y-94986402D01*
X219122723Y-94968223D01*
X219140902Y-94951747D01*
X219160607Y-94937133D01*
X219181651Y-94924520D01*
X219203829Y-94914030D01*
X219226929Y-94905765D01*
X219250727Y-94899804D01*
X219274996Y-94896204D01*
X219299500Y-94895000D01*
X220224500Y-94895000D01*
X220249004Y-94896204D01*
X220249004Y-94896204D01*
G37*
D12*
X219762000Y-95770000D03*
G04 #@! TD*
D11*
G04 #@! TO.C,D55*
G36*
X239299004Y-94896204D02*
X239323273Y-94899804D01*
X239347071Y-94905765D01*
X239370171Y-94914030D01*
X239392349Y-94924520D01*
X239413393Y-94937133D01*
X239433098Y-94951747D01*
X239451277Y-94968223D01*
X239467753Y-94986402D01*
X239482367Y-95006107D01*
X239494980Y-95027151D01*
X239505470Y-95049329D01*
X239513735Y-95072429D01*
X239519696Y-95096227D01*
X239523296Y-95120496D01*
X239524500Y-95145000D01*
X239524500Y-96395000D01*
X239523296Y-96419504D01*
X239519696Y-96443773D01*
X239513735Y-96467571D01*
X239505470Y-96490671D01*
X239494980Y-96512849D01*
X239482367Y-96533893D01*
X239467753Y-96553598D01*
X239451277Y-96571777D01*
X239433098Y-96588253D01*
X239413393Y-96602867D01*
X239392349Y-96615480D01*
X239370171Y-96625970D01*
X239347071Y-96634235D01*
X239323273Y-96640196D01*
X239299004Y-96643796D01*
X239274500Y-96645000D01*
X238349500Y-96645000D01*
X238324996Y-96643796D01*
X238300727Y-96640196D01*
X238276929Y-96634235D01*
X238253829Y-96625970D01*
X238231651Y-96615480D01*
X238210607Y-96602867D01*
X238190902Y-96588253D01*
X238172723Y-96571777D01*
X238156247Y-96553598D01*
X238141633Y-96533893D01*
X238129020Y-96512849D01*
X238118530Y-96490671D01*
X238110265Y-96467571D01*
X238104304Y-96443773D01*
X238100704Y-96419504D01*
X238099500Y-96395000D01*
X238099500Y-95145000D01*
X238100704Y-95120496D01*
X238104304Y-95096227D01*
X238110265Y-95072429D01*
X238118530Y-95049329D01*
X238129020Y-95027151D01*
X238141633Y-95006107D01*
X238156247Y-94986402D01*
X238172723Y-94968223D01*
X238190902Y-94951747D01*
X238210607Y-94937133D01*
X238231651Y-94924520D01*
X238253829Y-94914030D01*
X238276929Y-94905765D01*
X238300727Y-94899804D01*
X238324996Y-94896204D01*
X238349500Y-94895000D01*
X239274500Y-94895000D01*
X239299004Y-94896204D01*
X239299004Y-94896204D01*
G37*
D12*
X238812000Y-95770000D03*
D11*
G36*
X242274004Y-94896204D02*
X242298273Y-94899804D01*
X242322071Y-94905765D01*
X242345171Y-94914030D01*
X242367349Y-94924520D01*
X242388393Y-94937133D01*
X242408098Y-94951747D01*
X242426277Y-94968223D01*
X242442753Y-94986402D01*
X242457367Y-95006107D01*
X242469980Y-95027151D01*
X242480470Y-95049329D01*
X242488735Y-95072429D01*
X242494696Y-95096227D01*
X242498296Y-95120496D01*
X242499500Y-95145000D01*
X242499500Y-96395000D01*
X242498296Y-96419504D01*
X242494696Y-96443773D01*
X242488735Y-96467571D01*
X242480470Y-96490671D01*
X242469980Y-96512849D01*
X242457367Y-96533893D01*
X242442753Y-96553598D01*
X242426277Y-96571777D01*
X242408098Y-96588253D01*
X242388393Y-96602867D01*
X242367349Y-96615480D01*
X242345171Y-96625970D01*
X242322071Y-96634235D01*
X242298273Y-96640196D01*
X242274004Y-96643796D01*
X242249500Y-96645000D01*
X241324500Y-96645000D01*
X241299996Y-96643796D01*
X241275727Y-96640196D01*
X241251929Y-96634235D01*
X241228829Y-96625970D01*
X241206651Y-96615480D01*
X241185607Y-96602867D01*
X241165902Y-96588253D01*
X241147723Y-96571777D01*
X241131247Y-96553598D01*
X241116633Y-96533893D01*
X241104020Y-96512849D01*
X241093530Y-96490671D01*
X241085265Y-96467571D01*
X241079304Y-96443773D01*
X241075704Y-96419504D01*
X241074500Y-96395000D01*
X241074500Y-95145000D01*
X241075704Y-95120496D01*
X241079304Y-95096227D01*
X241085265Y-95072429D01*
X241093530Y-95049329D01*
X241104020Y-95027151D01*
X241116633Y-95006107D01*
X241131247Y-94986402D01*
X241147723Y-94968223D01*
X241165902Y-94951747D01*
X241185607Y-94937133D01*
X241206651Y-94924520D01*
X241228829Y-94914030D01*
X241251929Y-94905765D01*
X241275727Y-94899804D01*
X241299996Y-94896204D01*
X241324500Y-94895000D01*
X242249500Y-94895000D01*
X242274004Y-94896204D01*
X242274004Y-94896204D01*
G37*
D12*
X241787000Y-95770000D03*
G04 #@! TD*
D11*
G04 #@! TO.C,D46*
G36*
X229774004Y-75846204D02*
X229798273Y-75849804D01*
X229822071Y-75855765D01*
X229845171Y-75864030D01*
X229867349Y-75874520D01*
X229888393Y-75887133D01*
X229908098Y-75901747D01*
X229926277Y-75918223D01*
X229942753Y-75936402D01*
X229957367Y-75956107D01*
X229969980Y-75977151D01*
X229980470Y-75999329D01*
X229988735Y-76022429D01*
X229994696Y-76046227D01*
X229998296Y-76070496D01*
X229999500Y-76095000D01*
X229999500Y-77345000D01*
X229998296Y-77369504D01*
X229994696Y-77393773D01*
X229988735Y-77417571D01*
X229980470Y-77440671D01*
X229969980Y-77462849D01*
X229957367Y-77483893D01*
X229942753Y-77503598D01*
X229926277Y-77521777D01*
X229908098Y-77538253D01*
X229888393Y-77552867D01*
X229867349Y-77565480D01*
X229845171Y-77575970D01*
X229822071Y-77584235D01*
X229798273Y-77590196D01*
X229774004Y-77593796D01*
X229749500Y-77595000D01*
X228824500Y-77595000D01*
X228799996Y-77593796D01*
X228775727Y-77590196D01*
X228751929Y-77584235D01*
X228728829Y-77575970D01*
X228706651Y-77565480D01*
X228685607Y-77552867D01*
X228665902Y-77538253D01*
X228647723Y-77521777D01*
X228631247Y-77503598D01*
X228616633Y-77483893D01*
X228604020Y-77462849D01*
X228593530Y-77440671D01*
X228585265Y-77417571D01*
X228579304Y-77393773D01*
X228575704Y-77369504D01*
X228574500Y-77345000D01*
X228574500Y-76095000D01*
X228575704Y-76070496D01*
X228579304Y-76046227D01*
X228585265Y-76022429D01*
X228593530Y-75999329D01*
X228604020Y-75977151D01*
X228616633Y-75956107D01*
X228631247Y-75936402D01*
X228647723Y-75918223D01*
X228665902Y-75901747D01*
X228685607Y-75887133D01*
X228706651Y-75874520D01*
X228728829Y-75864030D01*
X228751929Y-75855765D01*
X228775727Y-75849804D01*
X228799996Y-75846204D01*
X228824500Y-75845000D01*
X229749500Y-75845000D01*
X229774004Y-75846204D01*
X229774004Y-75846204D01*
G37*
D12*
X229287000Y-76720000D03*
D11*
G36*
X232749004Y-75846204D02*
X232773273Y-75849804D01*
X232797071Y-75855765D01*
X232820171Y-75864030D01*
X232842349Y-75874520D01*
X232863393Y-75887133D01*
X232883098Y-75901747D01*
X232901277Y-75918223D01*
X232917753Y-75936402D01*
X232932367Y-75956107D01*
X232944980Y-75977151D01*
X232955470Y-75999329D01*
X232963735Y-76022429D01*
X232969696Y-76046227D01*
X232973296Y-76070496D01*
X232974500Y-76095000D01*
X232974500Y-77345000D01*
X232973296Y-77369504D01*
X232969696Y-77393773D01*
X232963735Y-77417571D01*
X232955470Y-77440671D01*
X232944980Y-77462849D01*
X232932367Y-77483893D01*
X232917753Y-77503598D01*
X232901277Y-77521777D01*
X232883098Y-77538253D01*
X232863393Y-77552867D01*
X232842349Y-77565480D01*
X232820171Y-77575970D01*
X232797071Y-77584235D01*
X232773273Y-77590196D01*
X232749004Y-77593796D01*
X232724500Y-77595000D01*
X231799500Y-77595000D01*
X231774996Y-77593796D01*
X231750727Y-77590196D01*
X231726929Y-77584235D01*
X231703829Y-77575970D01*
X231681651Y-77565480D01*
X231660607Y-77552867D01*
X231640902Y-77538253D01*
X231622723Y-77521777D01*
X231606247Y-77503598D01*
X231591633Y-77483893D01*
X231579020Y-77462849D01*
X231568530Y-77440671D01*
X231560265Y-77417571D01*
X231554304Y-77393773D01*
X231550704Y-77369504D01*
X231549500Y-77345000D01*
X231549500Y-76095000D01*
X231550704Y-76070496D01*
X231554304Y-76046227D01*
X231560265Y-76022429D01*
X231568530Y-75999329D01*
X231579020Y-75977151D01*
X231591633Y-75956107D01*
X231606247Y-75936402D01*
X231622723Y-75918223D01*
X231640902Y-75901747D01*
X231660607Y-75887133D01*
X231681651Y-75874520D01*
X231703829Y-75864030D01*
X231726929Y-75855765D01*
X231750727Y-75849804D01*
X231774996Y-75846204D01*
X231799500Y-75845000D01*
X232724500Y-75845000D01*
X232749004Y-75846204D01*
X232749004Y-75846204D01*
G37*
D12*
X232262000Y-76720000D03*
G04 #@! TD*
D11*
G04 #@! TO.C,D40*
G36*
X263112004Y-56796204D02*
X263136273Y-56799804D01*
X263160071Y-56805765D01*
X263183171Y-56814030D01*
X263205349Y-56824520D01*
X263226393Y-56837133D01*
X263246098Y-56851747D01*
X263264277Y-56868223D01*
X263280753Y-56886402D01*
X263295367Y-56906107D01*
X263307980Y-56927151D01*
X263318470Y-56949329D01*
X263326735Y-56972429D01*
X263332696Y-56996227D01*
X263336296Y-57020496D01*
X263337500Y-57045000D01*
X263337500Y-58295000D01*
X263336296Y-58319504D01*
X263332696Y-58343773D01*
X263326735Y-58367571D01*
X263318470Y-58390671D01*
X263307980Y-58412849D01*
X263295367Y-58433893D01*
X263280753Y-58453598D01*
X263264277Y-58471777D01*
X263246098Y-58488253D01*
X263226393Y-58502867D01*
X263205349Y-58515480D01*
X263183171Y-58525970D01*
X263160071Y-58534235D01*
X263136273Y-58540196D01*
X263112004Y-58543796D01*
X263087500Y-58545000D01*
X262162500Y-58545000D01*
X262137996Y-58543796D01*
X262113727Y-58540196D01*
X262089929Y-58534235D01*
X262066829Y-58525970D01*
X262044651Y-58515480D01*
X262023607Y-58502867D01*
X262003902Y-58488253D01*
X261985723Y-58471777D01*
X261969247Y-58453598D01*
X261954633Y-58433893D01*
X261942020Y-58412849D01*
X261931530Y-58390671D01*
X261923265Y-58367571D01*
X261917304Y-58343773D01*
X261913704Y-58319504D01*
X261912500Y-58295000D01*
X261912500Y-57045000D01*
X261913704Y-57020496D01*
X261917304Y-56996227D01*
X261923265Y-56972429D01*
X261931530Y-56949329D01*
X261942020Y-56927151D01*
X261954633Y-56906107D01*
X261969247Y-56886402D01*
X261985723Y-56868223D01*
X262003902Y-56851747D01*
X262023607Y-56837133D01*
X262044651Y-56824520D01*
X262066829Y-56814030D01*
X262089929Y-56805765D01*
X262113727Y-56799804D01*
X262137996Y-56796204D01*
X262162500Y-56795000D01*
X263087500Y-56795000D01*
X263112004Y-56796204D01*
X263112004Y-56796204D01*
G37*
D12*
X262625000Y-57670000D03*
D11*
G36*
X266087004Y-56796204D02*
X266111273Y-56799804D01*
X266135071Y-56805765D01*
X266158171Y-56814030D01*
X266180349Y-56824520D01*
X266201393Y-56837133D01*
X266221098Y-56851747D01*
X266239277Y-56868223D01*
X266255753Y-56886402D01*
X266270367Y-56906107D01*
X266282980Y-56927151D01*
X266293470Y-56949329D01*
X266301735Y-56972429D01*
X266307696Y-56996227D01*
X266311296Y-57020496D01*
X266312500Y-57045000D01*
X266312500Y-58295000D01*
X266311296Y-58319504D01*
X266307696Y-58343773D01*
X266301735Y-58367571D01*
X266293470Y-58390671D01*
X266282980Y-58412849D01*
X266270367Y-58433893D01*
X266255753Y-58453598D01*
X266239277Y-58471777D01*
X266221098Y-58488253D01*
X266201393Y-58502867D01*
X266180349Y-58515480D01*
X266158171Y-58525970D01*
X266135071Y-58534235D01*
X266111273Y-58540196D01*
X266087004Y-58543796D01*
X266062500Y-58545000D01*
X265137500Y-58545000D01*
X265112996Y-58543796D01*
X265088727Y-58540196D01*
X265064929Y-58534235D01*
X265041829Y-58525970D01*
X265019651Y-58515480D01*
X264998607Y-58502867D01*
X264978902Y-58488253D01*
X264960723Y-58471777D01*
X264944247Y-58453598D01*
X264929633Y-58433893D01*
X264917020Y-58412849D01*
X264906530Y-58390671D01*
X264898265Y-58367571D01*
X264892304Y-58343773D01*
X264888704Y-58319504D01*
X264887500Y-58295000D01*
X264887500Y-57045000D01*
X264888704Y-57020496D01*
X264892304Y-56996227D01*
X264898265Y-56972429D01*
X264906530Y-56949329D01*
X264917020Y-56927151D01*
X264929633Y-56906107D01*
X264944247Y-56886402D01*
X264960723Y-56868223D01*
X264978902Y-56851747D01*
X264998607Y-56837133D01*
X265019651Y-56824520D01*
X265041829Y-56814030D01*
X265064929Y-56805765D01*
X265088727Y-56799804D01*
X265112996Y-56796204D01*
X265137500Y-56795000D01*
X266062500Y-56795000D01*
X266087004Y-56796204D01*
X266087004Y-56796204D01*
G37*
D12*
X265600000Y-57670000D03*
G04 #@! TD*
D11*
G04 #@! TO.C,D56*
G36*
X258349004Y-94896204D02*
X258373273Y-94899804D01*
X258397071Y-94905765D01*
X258420171Y-94914030D01*
X258442349Y-94924520D01*
X258463393Y-94937133D01*
X258483098Y-94951747D01*
X258501277Y-94968223D01*
X258517753Y-94986402D01*
X258532367Y-95006107D01*
X258544980Y-95027151D01*
X258555470Y-95049329D01*
X258563735Y-95072429D01*
X258569696Y-95096227D01*
X258573296Y-95120496D01*
X258574500Y-95145000D01*
X258574500Y-96395000D01*
X258573296Y-96419504D01*
X258569696Y-96443773D01*
X258563735Y-96467571D01*
X258555470Y-96490671D01*
X258544980Y-96512849D01*
X258532367Y-96533893D01*
X258517753Y-96553598D01*
X258501277Y-96571777D01*
X258483098Y-96588253D01*
X258463393Y-96602867D01*
X258442349Y-96615480D01*
X258420171Y-96625970D01*
X258397071Y-96634235D01*
X258373273Y-96640196D01*
X258349004Y-96643796D01*
X258324500Y-96645000D01*
X257399500Y-96645000D01*
X257374996Y-96643796D01*
X257350727Y-96640196D01*
X257326929Y-96634235D01*
X257303829Y-96625970D01*
X257281651Y-96615480D01*
X257260607Y-96602867D01*
X257240902Y-96588253D01*
X257222723Y-96571777D01*
X257206247Y-96553598D01*
X257191633Y-96533893D01*
X257179020Y-96512849D01*
X257168530Y-96490671D01*
X257160265Y-96467571D01*
X257154304Y-96443773D01*
X257150704Y-96419504D01*
X257149500Y-96395000D01*
X257149500Y-95145000D01*
X257150704Y-95120496D01*
X257154304Y-95096227D01*
X257160265Y-95072429D01*
X257168530Y-95049329D01*
X257179020Y-95027151D01*
X257191633Y-95006107D01*
X257206247Y-94986402D01*
X257222723Y-94968223D01*
X257240902Y-94951747D01*
X257260607Y-94937133D01*
X257281651Y-94924520D01*
X257303829Y-94914030D01*
X257326929Y-94905765D01*
X257350727Y-94899804D01*
X257374996Y-94896204D01*
X257399500Y-94895000D01*
X258324500Y-94895000D01*
X258349004Y-94896204D01*
X258349004Y-94896204D01*
G37*
D12*
X257862000Y-95770000D03*
D11*
G36*
X261324004Y-94896204D02*
X261348273Y-94899804D01*
X261372071Y-94905765D01*
X261395171Y-94914030D01*
X261417349Y-94924520D01*
X261438393Y-94937133D01*
X261458098Y-94951747D01*
X261476277Y-94968223D01*
X261492753Y-94986402D01*
X261507367Y-95006107D01*
X261519980Y-95027151D01*
X261530470Y-95049329D01*
X261538735Y-95072429D01*
X261544696Y-95096227D01*
X261548296Y-95120496D01*
X261549500Y-95145000D01*
X261549500Y-96395000D01*
X261548296Y-96419504D01*
X261544696Y-96443773D01*
X261538735Y-96467571D01*
X261530470Y-96490671D01*
X261519980Y-96512849D01*
X261507367Y-96533893D01*
X261492753Y-96553598D01*
X261476277Y-96571777D01*
X261458098Y-96588253D01*
X261438393Y-96602867D01*
X261417349Y-96615480D01*
X261395171Y-96625970D01*
X261372071Y-96634235D01*
X261348273Y-96640196D01*
X261324004Y-96643796D01*
X261299500Y-96645000D01*
X260374500Y-96645000D01*
X260349996Y-96643796D01*
X260325727Y-96640196D01*
X260301929Y-96634235D01*
X260278829Y-96625970D01*
X260256651Y-96615480D01*
X260235607Y-96602867D01*
X260215902Y-96588253D01*
X260197723Y-96571777D01*
X260181247Y-96553598D01*
X260166633Y-96533893D01*
X260154020Y-96512849D01*
X260143530Y-96490671D01*
X260135265Y-96467571D01*
X260129304Y-96443773D01*
X260125704Y-96419504D01*
X260124500Y-96395000D01*
X260124500Y-95145000D01*
X260125704Y-95120496D01*
X260129304Y-95096227D01*
X260135265Y-95072429D01*
X260143530Y-95049329D01*
X260154020Y-95027151D01*
X260166633Y-95006107D01*
X260181247Y-94986402D01*
X260197723Y-94968223D01*
X260215902Y-94951747D01*
X260235607Y-94937133D01*
X260256651Y-94924520D01*
X260278829Y-94914030D01*
X260301929Y-94905765D01*
X260325727Y-94899804D01*
X260349996Y-94896204D01*
X260374500Y-94895000D01*
X261299500Y-94895000D01*
X261324004Y-94896204D01*
X261324004Y-94896204D01*
G37*
D12*
X260837000Y-95770000D03*
G04 #@! TD*
D11*
G04 #@! TO.C,D57*
G36*
X280374004Y-94896204D02*
X280398273Y-94899804D01*
X280422071Y-94905765D01*
X280445171Y-94914030D01*
X280467349Y-94924520D01*
X280488393Y-94937133D01*
X280508098Y-94951747D01*
X280526277Y-94968223D01*
X280542753Y-94986402D01*
X280557367Y-95006107D01*
X280569980Y-95027151D01*
X280580470Y-95049329D01*
X280588735Y-95072429D01*
X280594696Y-95096227D01*
X280598296Y-95120496D01*
X280599500Y-95145000D01*
X280599500Y-96395000D01*
X280598296Y-96419504D01*
X280594696Y-96443773D01*
X280588735Y-96467571D01*
X280580470Y-96490671D01*
X280569980Y-96512849D01*
X280557367Y-96533893D01*
X280542753Y-96553598D01*
X280526277Y-96571777D01*
X280508098Y-96588253D01*
X280488393Y-96602867D01*
X280467349Y-96615480D01*
X280445171Y-96625970D01*
X280422071Y-96634235D01*
X280398273Y-96640196D01*
X280374004Y-96643796D01*
X280349500Y-96645000D01*
X279424500Y-96645000D01*
X279399996Y-96643796D01*
X279375727Y-96640196D01*
X279351929Y-96634235D01*
X279328829Y-96625970D01*
X279306651Y-96615480D01*
X279285607Y-96602867D01*
X279265902Y-96588253D01*
X279247723Y-96571777D01*
X279231247Y-96553598D01*
X279216633Y-96533893D01*
X279204020Y-96512849D01*
X279193530Y-96490671D01*
X279185265Y-96467571D01*
X279179304Y-96443773D01*
X279175704Y-96419504D01*
X279174500Y-96395000D01*
X279174500Y-95145000D01*
X279175704Y-95120496D01*
X279179304Y-95096227D01*
X279185265Y-95072429D01*
X279193530Y-95049329D01*
X279204020Y-95027151D01*
X279216633Y-95006107D01*
X279231247Y-94986402D01*
X279247723Y-94968223D01*
X279265902Y-94951747D01*
X279285607Y-94937133D01*
X279306651Y-94924520D01*
X279328829Y-94914030D01*
X279351929Y-94905765D01*
X279375727Y-94899804D01*
X279399996Y-94896204D01*
X279424500Y-94895000D01*
X280349500Y-94895000D01*
X280374004Y-94896204D01*
X280374004Y-94896204D01*
G37*
D12*
X279887000Y-95770000D03*
D11*
G36*
X277399004Y-94896204D02*
X277423273Y-94899804D01*
X277447071Y-94905765D01*
X277470171Y-94914030D01*
X277492349Y-94924520D01*
X277513393Y-94937133D01*
X277533098Y-94951747D01*
X277551277Y-94968223D01*
X277567753Y-94986402D01*
X277582367Y-95006107D01*
X277594980Y-95027151D01*
X277605470Y-95049329D01*
X277613735Y-95072429D01*
X277619696Y-95096227D01*
X277623296Y-95120496D01*
X277624500Y-95145000D01*
X277624500Y-96395000D01*
X277623296Y-96419504D01*
X277619696Y-96443773D01*
X277613735Y-96467571D01*
X277605470Y-96490671D01*
X277594980Y-96512849D01*
X277582367Y-96533893D01*
X277567753Y-96553598D01*
X277551277Y-96571777D01*
X277533098Y-96588253D01*
X277513393Y-96602867D01*
X277492349Y-96615480D01*
X277470171Y-96625970D01*
X277447071Y-96634235D01*
X277423273Y-96640196D01*
X277399004Y-96643796D01*
X277374500Y-96645000D01*
X276449500Y-96645000D01*
X276424996Y-96643796D01*
X276400727Y-96640196D01*
X276376929Y-96634235D01*
X276353829Y-96625970D01*
X276331651Y-96615480D01*
X276310607Y-96602867D01*
X276290902Y-96588253D01*
X276272723Y-96571777D01*
X276256247Y-96553598D01*
X276241633Y-96533893D01*
X276229020Y-96512849D01*
X276218530Y-96490671D01*
X276210265Y-96467571D01*
X276204304Y-96443773D01*
X276200704Y-96419504D01*
X276199500Y-96395000D01*
X276199500Y-95145000D01*
X276200704Y-95120496D01*
X276204304Y-95096227D01*
X276210265Y-95072429D01*
X276218530Y-95049329D01*
X276229020Y-95027151D01*
X276241633Y-95006107D01*
X276256247Y-94986402D01*
X276272723Y-94968223D01*
X276290902Y-94951747D01*
X276310607Y-94937133D01*
X276331651Y-94924520D01*
X276353829Y-94914030D01*
X276376929Y-94905765D01*
X276400727Y-94899804D01*
X276424996Y-94896204D01*
X276449500Y-94895000D01*
X277374500Y-94895000D01*
X277399004Y-94896204D01*
X277399004Y-94896204D01*
G37*
D12*
X276912000Y-95770000D03*
G04 #@! TD*
D11*
G04 #@! TO.C,D42*
G36*
X301212004Y-56796204D02*
X301236273Y-56799804D01*
X301260071Y-56805765D01*
X301283171Y-56814030D01*
X301305349Y-56824520D01*
X301326393Y-56837133D01*
X301346098Y-56851747D01*
X301364277Y-56868223D01*
X301380753Y-56886402D01*
X301395367Y-56906107D01*
X301407980Y-56927151D01*
X301418470Y-56949329D01*
X301426735Y-56972429D01*
X301432696Y-56996227D01*
X301436296Y-57020496D01*
X301437500Y-57045000D01*
X301437500Y-58295000D01*
X301436296Y-58319504D01*
X301432696Y-58343773D01*
X301426735Y-58367571D01*
X301418470Y-58390671D01*
X301407980Y-58412849D01*
X301395367Y-58433893D01*
X301380753Y-58453598D01*
X301364277Y-58471777D01*
X301346098Y-58488253D01*
X301326393Y-58502867D01*
X301305349Y-58515480D01*
X301283171Y-58525970D01*
X301260071Y-58534235D01*
X301236273Y-58540196D01*
X301212004Y-58543796D01*
X301187500Y-58545000D01*
X300262500Y-58545000D01*
X300237996Y-58543796D01*
X300213727Y-58540196D01*
X300189929Y-58534235D01*
X300166829Y-58525970D01*
X300144651Y-58515480D01*
X300123607Y-58502867D01*
X300103902Y-58488253D01*
X300085723Y-58471777D01*
X300069247Y-58453598D01*
X300054633Y-58433893D01*
X300042020Y-58412849D01*
X300031530Y-58390671D01*
X300023265Y-58367571D01*
X300017304Y-58343773D01*
X300013704Y-58319504D01*
X300012500Y-58295000D01*
X300012500Y-57045000D01*
X300013704Y-57020496D01*
X300017304Y-56996227D01*
X300023265Y-56972429D01*
X300031530Y-56949329D01*
X300042020Y-56927151D01*
X300054633Y-56906107D01*
X300069247Y-56886402D01*
X300085723Y-56868223D01*
X300103902Y-56851747D01*
X300123607Y-56837133D01*
X300144651Y-56824520D01*
X300166829Y-56814030D01*
X300189929Y-56805765D01*
X300213727Y-56799804D01*
X300237996Y-56796204D01*
X300262500Y-56795000D01*
X301187500Y-56795000D01*
X301212004Y-56796204D01*
X301212004Y-56796204D01*
G37*
D12*
X300725000Y-57670000D03*
D11*
G36*
X304187004Y-56796204D02*
X304211273Y-56799804D01*
X304235071Y-56805765D01*
X304258171Y-56814030D01*
X304280349Y-56824520D01*
X304301393Y-56837133D01*
X304321098Y-56851747D01*
X304339277Y-56868223D01*
X304355753Y-56886402D01*
X304370367Y-56906107D01*
X304382980Y-56927151D01*
X304393470Y-56949329D01*
X304401735Y-56972429D01*
X304407696Y-56996227D01*
X304411296Y-57020496D01*
X304412500Y-57045000D01*
X304412500Y-58295000D01*
X304411296Y-58319504D01*
X304407696Y-58343773D01*
X304401735Y-58367571D01*
X304393470Y-58390671D01*
X304382980Y-58412849D01*
X304370367Y-58433893D01*
X304355753Y-58453598D01*
X304339277Y-58471777D01*
X304321098Y-58488253D01*
X304301393Y-58502867D01*
X304280349Y-58515480D01*
X304258171Y-58525970D01*
X304235071Y-58534235D01*
X304211273Y-58540196D01*
X304187004Y-58543796D01*
X304162500Y-58545000D01*
X303237500Y-58545000D01*
X303212996Y-58543796D01*
X303188727Y-58540196D01*
X303164929Y-58534235D01*
X303141829Y-58525970D01*
X303119651Y-58515480D01*
X303098607Y-58502867D01*
X303078902Y-58488253D01*
X303060723Y-58471777D01*
X303044247Y-58453598D01*
X303029633Y-58433893D01*
X303017020Y-58412849D01*
X303006530Y-58390671D01*
X302998265Y-58367571D01*
X302992304Y-58343773D01*
X302988704Y-58319504D01*
X302987500Y-58295000D01*
X302987500Y-57045000D01*
X302988704Y-57020496D01*
X302992304Y-56996227D01*
X302998265Y-56972429D01*
X303006530Y-56949329D01*
X303017020Y-56927151D01*
X303029633Y-56906107D01*
X303044247Y-56886402D01*
X303060723Y-56868223D01*
X303078902Y-56851747D01*
X303098607Y-56837133D01*
X303119651Y-56824520D01*
X303141829Y-56814030D01*
X303164929Y-56805765D01*
X303188727Y-56799804D01*
X303212996Y-56796204D01*
X303237500Y-56795000D01*
X304162500Y-56795000D01*
X304187004Y-56796204D01*
X304187004Y-56796204D01*
G37*
D12*
X303700000Y-57670000D03*
G04 #@! TD*
D11*
G04 #@! TO.C,D58*
G36*
X296449004Y-94896204D02*
X296473273Y-94899804D01*
X296497071Y-94905765D01*
X296520171Y-94914030D01*
X296542349Y-94924520D01*
X296563393Y-94937133D01*
X296583098Y-94951747D01*
X296601277Y-94968223D01*
X296617753Y-94986402D01*
X296632367Y-95006107D01*
X296644980Y-95027151D01*
X296655470Y-95049329D01*
X296663735Y-95072429D01*
X296669696Y-95096227D01*
X296673296Y-95120496D01*
X296674500Y-95145000D01*
X296674500Y-96395000D01*
X296673296Y-96419504D01*
X296669696Y-96443773D01*
X296663735Y-96467571D01*
X296655470Y-96490671D01*
X296644980Y-96512849D01*
X296632367Y-96533893D01*
X296617753Y-96553598D01*
X296601277Y-96571777D01*
X296583098Y-96588253D01*
X296563393Y-96602867D01*
X296542349Y-96615480D01*
X296520171Y-96625970D01*
X296497071Y-96634235D01*
X296473273Y-96640196D01*
X296449004Y-96643796D01*
X296424500Y-96645000D01*
X295499500Y-96645000D01*
X295474996Y-96643796D01*
X295450727Y-96640196D01*
X295426929Y-96634235D01*
X295403829Y-96625970D01*
X295381651Y-96615480D01*
X295360607Y-96602867D01*
X295340902Y-96588253D01*
X295322723Y-96571777D01*
X295306247Y-96553598D01*
X295291633Y-96533893D01*
X295279020Y-96512849D01*
X295268530Y-96490671D01*
X295260265Y-96467571D01*
X295254304Y-96443773D01*
X295250704Y-96419504D01*
X295249500Y-96395000D01*
X295249500Y-95145000D01*
X295250704Y-95120496D01*
X295254304Y-95096227D01*
X295260265Y-95072429D01*
X295268530Y-95049329D01*
X295279020Y-95027151D01*
X295291633Y-95006107D01*
X295306247Y-94986402D01*
X295322723Y-94968223D01*
X295340902Y-94951747D01*
X295360607Y-94937133D01*
X295381651Y-94924520D01*
X295403829Y-94914030D01*
X295426929Y-94905765D01*
X295450727Y-94899804D01*
X295474996Y-94896204D01*
X295499500Y-94895000D01*
X296424500Y-94895000D01*
X296449004Y-94896204D01*
X296449004Y-94896204D01*
G37*
D12*
X295962000Y-95770000D03*
D11*
G36*
X299424004Y-94896204D02*
X299448273Y-94899804D01*
X299472071Y-94905765D01*
X299495171Y-94914030D01*
X299517349Y-94924520D01*
X299538393Y-94937133D01*
X299558098Y-94951747D01*
X299576277Y-94968223D01*
X299592753Y-94986402D01*
X299607367Y-95006107D01*
X299619980Y-95027151D01*
X299630470Y-95049329D01*
X299638735Y-95072429D01*
X299644696Y-95096227D01*
X299648296Y-95120496D01*
X299649500Y-95145000D01*
X299649500Y-96395000D01*
X299648296Y-96419504D01*
X299644696Y-96443773D01*
X299638735Y-96467571D01*
X299630470Y-96490671D01*
X299619980Y-96512849D01*
X299607367Y-96533893D01*
X299592753Y-96553598D01*
X299576277Y-96571777D01*
X299558098Y-96588253D01*
X299538393Y-96602867D01*
X299517349Y-96615480D01*
X299495171Y-96625970D01*
X299472071Y-96634235D01*
X299448273Y-96640196D01*
X299424004Y-96643796D01*
X299399500Y-96645000D01*
X298474500Y-96645000D01*
X298449996Y-96643796D01*
X298425727Y-96640196D01*
X298401929Y-96634235D01*
X298378829Y-96625970D01*
X298356651Y-96615480D01*
X298335607Y-96602867D01*
X298315902Y-96588253D01*
X298297723Y-96571777D01*
X298281247Y-96553598D01*
X298266633Y-96533893D01*
X298254020Y-96512849D01*
X298243530Y-96490671D01*
X298235265Y-96467571D01*
X298229304Y-96443773D01*
X298225704Y-96419504D01*
X298224500Y-96395000D01*
X298224500Y-95145000D01*
X298225704Y-95120496D01*
X298229304Y-95096227D01*
X298235265Y-95072429D01*
X298243530Y-95049329D01*
X298254020Y-95027151D01*
X298266633Y-95006107D01*
X298281247Y-94986402D01*
X298297723Y-94968223D01*
X298315902Y-94951747D01*
X298335607Y-94937133D01*
X298356651Y-94924520D01*
X298378829Y-94914030D01*
X298401929Y-94905765D01*
X298425727Y-94899804D01*
X298449996Y-94896204D01*
X298474500Y-94895000D01*
X299399500Y-94895000D01*
X299424004Y-94896204D01*
X299424004Y-94896204D01*
G37*
D12*
X298937000Y-95770000D03*
G04 #@! TD*
D11*
G04 #@! TO.C,D47*
G36*
X251799004Y-75846204D02*
X251823273Y-75849804D01*
X251847071Y-75855765D01*
X251870171Y-75864030D01*
X251892349Y-75874520D01*
X251913393Y-75887133D01*
X251933098Y-75901747D01*
X251951277Y-75918223D01*
X251967753Y-75936402D01*
X251982367Y-75956107D01*
X251994980Y-75977151D01*
X252005470Y-75999329D01*
X252013735Y-76022429D01*
X252019696Y-76046227D01*
X252023296Y-76070496D01*
X252024500Y-76095000D01*
X252024500Y-77345000D01*
X252023296Y-77369504D01*
X252019696Y-77393773D01*
X252013735Y-77417571D01*
X252005470Y-77440671D01*
X251994980Y-77462849D01*
X251982367Y-77483893D01*
X251967753Y-77503598D01*
X251951277Y-77521777D01*
X251933098Y-77538253D01*
X251913393Y-77552867D01*
X251892349Y-77565480D01*
X251870171Y-77575970D01*
X251847071Y-77584235D01*
X251823273Y-77590196D01*
X251799004Y-77593796D01*
X251774500Y-77595000D01*
X250849500Y-77595000D01*
X250824996Y-77593796D01*
X250800727Y-77590196D01*
X250776929Y-77584235D01*
X250753829Y-77575970D01*
X250731651Y-77565480D01*
X250710607Y-77552867D01*
X250690902Y-77538253D01*
X250672723Y-77521777D01*
X250656247Y-77503598D01*
X250641633Y-77483893D01*
X250629020Y-77462849D01*
X250618530Y-77440671D01*
X250610265Y-77417571D01*
X250604304Y-77393773D01*
X250600704Y-77369504D01*
X250599500Y-77345000D01*
X250599500Y-76095000D01*
X250600704Y-76070496D01*
X250604304Y-76046227D01*
X250610265Y-76022429D01*
X250618530Y-75999329D01*
X250629020Y-75977151D01*
X250641633Y-75956107D01*
X250656247Y-75936402D01*
X250672723Y-75918223D01*
X250690902Y-75901747D01*
X250710607Y-75887133D01*
X250731651Y-75874520D01*
X250753829Y-75864030D01*
X250776929Y-75855765D01*
X250800727Y-75849804D01*
X250824996Y-75846204D01*
X250849500Y-75845000D01*
X251774500Y-75845000D01*
X251799004Y-75846204D01*
X251799004Y-75846204D01*
G37*
D12*
X251312000Y-76720000D03*
D11*
G36*
X248824004Y-75846204D02*
X248848273Y-75849804D01*
X248872071Y-75855765D01*
X248895171Y-75864030D01*
X248917349Y-75874520D01*
X248938393Y-75887133D01*
X248958098Y-75901747D01*
X248976277Y-75918223D01*
X248992753Y-75936402D01*
X249007367Y-75956107D01*
X249019980Y-75977151D01*
X249030470Y-75999329D01*
X249038735Y-76022429D01*
X249044696Y-76046227D01*
X249048296Y-76070496D01*
X249049500Y-76095000D01*
X249049500Y-77345000D01*
X249048296Y-77369504D01*
X249044696Y-77393773D01*
X249038735Y-77417571D01*
X249030470Y-77440671D01*
X249019980Y-77462849D01*
X249007367Y-77483893D01*
X248992753Y-77503598D01*
X248976277Y-77521777D01*
X248958098Y-77538253D01*
X248938393Y-77552867D01*
X248917349Y-77565480D01*
X248895171Y-77575970D01*
X248872071Y-77584235D01*
X248848273Y-77590196D01*
X248824004Y-77593796D01*
X248799500Y-77595000D01*
X247874500Y-77595000D01*
X247849996Y-77593796D01*
X247825727Y-77590196D01*
X247801929Y-77584235D01*
X247778829Y-77575970D01*
X247756651Y-77565480D01*
X247735607Y-77552867D01*
X247715902Y-77538253D01*
X247697723Y-77521777D01*
X247681247Y-77503598D01*
X247666633Y-77483893D01*
X247654020Y-77462849D01*
X247643530Y-77440671D01*
X247635265Y-77417571D01*
X247629304Y-77393773D01*
X247625704Y-77369504D01*
X247624500Y-77345000D01*
X247624500Y-76095000D01*
X247625704Y-76070496D01*
X247629304Y-76046227D01*
X247635265Y-76022429D01*
X247643530Y-75999329D01*
X247654020Y-75977151D01*
X247666633Y-75956107D01*
X247681247Y-75936402D01*
X247697723Y-75918223D01*
X247715902Y-75901747D01*
X247735607Y-75887133D01*
X247756651Y-75874520D01*
X247778829Y-75864030D01*
X247801929Y-75855765D01*
X247825727Y-75849804D01*
X247849996Y-75846204D01*
X247874500Y-75845000D01*
X248799500Y-75845000D01*
X248824004Y-75846204D01*
X248824004Y-75846204D01*
G37*
D12*
X248337000Y-76720000D03*
G04 #@! TD*
D11*
G04 #@! TO.C,D49*
G36*
X289899004Y-75846204D02*
X289923273Y-75849804D01*
X289947071Y-75855765D01*
X289970171Y-75864030D01*
X289992349Y-75874520D01*
X290013393Y-75887133D01*
X290033098Y-75901747D01*
X290051277Y-75918223D01*
X290067753Y-75936402D01*
X290082367Y-75956107D01*
X290094980Y-75977151D01*
X290105470Y-75999329D01*
X290113735Y-76022429D01*
X290119696Y-76046227D01*
X290123296Y-76070496D01*
X290124500Y-76095000D01*
X290124500Y-77345000D01*
X290123296Y-77369504D01*
X290119696Y-77393773D01*
X290113735Y-77417571D01*
X290105470Y-77440671D01*
X290094980Y-77462849D01*
X290082367Y-77483893D01*
X290067753Y-77503598D01*
X290051277Y-77521777D01*
X290033098Y-77538253D01*
X290013393Y-77552867D01*
X289992349Y-77565480D01*
X289970171Y-77575970D01*
X289947071Y-77584235D01*
X289923273Y-77590196D01*
X289899004Y-77593796D01*
X289874500Y-77595000D01*
X288949500Y-77595000D01*
X288924996Y-77593796D01*
X288900727Y-77590196D01*
X288876929Y-77584235D01*
X288853829Y-77575970D01*
X288831651Y-77565480D01*
X288810607Y-77552867D01*
X288790902Y-77538253D01*
X288772723Y-77521777D01*
X288756247Y-77503598D01*
X288741633Y-77483893D01*
X288729020Y-77462849D01*
X288718530Y-77440671D01*
X288710265Y-77417571D01*
X288704304Y-77393773D01*
X288700704Y-77369504D01*
X288699500Y-77345000D01*
X288699500Y-76095000D01*
X288700704Y-76070496D01*
X288704304Y-76046227D01*
X288710265Y-76022429D01*
X288718530Y-75999329D01*
X288729020Y-75977151D01*
X288741633Y-75956107D01*
X288756247Y-75936402D01*
X288772723Y-75918223D01*
X288790902Y-75901747D01*
X288810607Y-75887133D01*
X288831651Y-75874520D01*
X288853829Y-75864030D01*
X288876929Y-75855765D01*
X288900727Y-75849804D01*
X288924996Y-75846204D01*
X288949500Y-75845000D01*
X289874500Y-75845000D01*
X289899004Y-75846204D01*
X289899004Y-75846204D01*
G37*
D12*
X289412000Y-76720000D03*
D11*
G36*
X286924004Y-75846204D02*
X286948273Y-75849804D01*
X286972071Y-75855765D01*
X286995171Y-75864030D01*
X287017349Y-75874520D01*
X287038393Y-75887133D01*
X287058098Y-75901747D01*
X287076277Y-75918223D01*
X287092753Y-75936402D01*
X287107367Y-75956107D01*
X287119980Y-75977151D01*
X287130470Y-75999329D01*
X287138735Y-76022429D01*
X287144696Y-76046227D01*
X287148296Y-76070496D01*
X287149500Y-76095000D01*
X287149500Y-77345000D01*
X287148296Y-77369504D01*
X287144696Y-77393773D01*
X287138735Y-77417571D01*
X287130470Y-77440671D01*
X287119980Y-77462849D01*
X287107367Y-77483893D01*
X287092753Y-77503598D01*
X287076277Y-77521777D01*
X287058098Y-77538253D01*
X287038393Y-77552867D01*
X287017349Y-77565480D01*
X286995171Y-77575970D01*
X286972071Y-77584235D01*
X286948273Y-77590196D01*
X286924004Y-77593796D01*
X286899500Y-77595000D01*
X285974500Y-77595000D01*
X285949996Y-77593796D01*
X285925727Y-77590196D01*
X285901929Y-77584235D01*
X285878829Y-77575970D01*
X285856651Y-77565480D01*
X285835607Y-77552867D01*
X285815902Y-77538253D01*
X285797723Y-77521777D01*
X285781247Y-77503598D01*
X285766633Y-77483893D01*
X285754020Y-77462849D01*
X285743530Y-77440671D01*
X285735265Y-77417571D01*
X285729304Y-77393773D01*
X285725704Y-77369504D01*
X285724500Y-77345000D01*
X285724500Y-76095000D01*
X285725704Y-76070496D01*
X285729304Y-76046227D01*
X285735265Y-76022429D01*
X285743530Y-75999329D01*
X285754020Y-75977151D01*
X285766633Y-75956107D01*
X285781247Y-75936402D01*
X285797723Y-75918223D01*
X285815902Y-75901747D01*
X285835607Y-75887133D01*
X285856651Y-75874520D01*
X285878829Y-75864030D01*
X285901929Y-75855765D01*
X285925727Y-75849804D01*
X285949996Y-75846204D01*
X285974500Y-75845000D01*
X286899500Y-75845000D01*
X286924004Y-75846204D01*
X286924004Y-75846204D01*
G37*
D12*
X286437000Y-76720000D03*
G04 #@! TD*
D11*
G04 #@! TO.C,D59*
G36*
X335144004Y-94896204D02*
X335168273Y-94899804D01*
X335192071Y-94905765D01*
X335215171Y-94914030D01*
X335237349Y-94924520D01*
X335258393Y-94937133D01*
X335278098Y-94951747D01*
X335296277Y-94968223D01*
X335312753Y-94986402D01*
X335327367Y-95006107D01*
X335339980Y-95027151D01*
X335350470Y-95049329D01*
X335358735Y-95072429D01*
X335364696Y-95096227D01*
X335368296Y-95120496D01*
X335369500Y-95145000D01*
X335369500Y-96395000D01*
X335368296Y-96419504D01*
X335364696Y-96443773D01*
X335358735Y-96467571D01*
X335350470Y-96490671D01*
X335339980Y-96512849D01*
X335327367Y-96533893D01*
X335312753Y-96553598D01*
X335296277Y-96571777D01*
X335278098Y-96588253D01*
X335258393Y-96602867D01*
X335237349Y-96615480D01*
X335215171Y-96625970D01*
X335192071Y-96634235D01*
X335168273Y-96640196D01*
X335144004Y-96643796D01*
X335119500Y-96645000D01*
X334194500Y-96645000D01*
X334169996Y-96643796D01*
X334145727Y-96640196D01*
X334121929Y-96634235D01*
X334098829Y-96625970D01*
X334076651Y-96615480D01*
X334055607Y-96602867D01*
X334035902Y-96588253D01*
X334017723Y-96571777D01*
X334001247Y-96553598D01*
X333986633Y-96533893D01*
X333974020Y-96512849D01*
X333963530Y-96490671D01*
X333955265Y-96467571D01*
X333949304Y-96443773D01*
X333945704Y-96419504D01*
X333944500Y-96395000D01*
X333944500Y-95145000D01*
X333945704Y-95120496D01*
X333949304Y-95096227D01*
X333955265Y-95072429D01*
X333963530Y-95049329D01*
X333974020Y-95027151D01*
X333986633Y-95006107D01*
X334001247Y-94986402D01*
X334017723Y-94968223D01*
X334035902Y-94951747D01*
X334055607Y-94937133D01*
X334076651Y-94924520D01*
X334098829Y-94914030D01*
X334121929Y-94905765D01*
X334145727Y-94899804D01*
X334169996Y-94896204D01*
X334194500Y-94895000D01*
X335119500Y-94895000D01*
X335144004Y-94896204D01*
X335144004Y-94896204D01*
G37*
D12*
X334657000Y-95770000D03*
D11*
G36*
X332169004Y-94896204D02*
X332193273Y-94899804D01*
X332217071Y-94905765D01*
X332240171Y-94914030D01*
X332262349Y-94924520D01*
X332283393Y-94937133D01*
X332303098Y-94951747D01*
X332321277Y-94968223D01*
X332337753Y-94986402D01*
X332352367Y-95006107D01*
X332364980Y-95027151D01*
X332375470Y-95049329D01*
X332383735Y-95072429D01*
X332389696Y-95096227D01*
X332393296Y-95120496D01*
X332394500Y-95145000D01*
X332394500Y-96395000D01*
X332393296Y-96419504D01*
X332389696Y-96443773D01*
X332383735Y-96467571D01*
X332375470Y-96490671D01*
X332364980Y-96512849D01*
X332352367Y-96533893D01*
X332337753Y-96553598D01*
X332321277Y-96571777D01*
X332303098Y-96588253D01*
X332283393Y-96602867D01*
X332262349Y-96615480D01*
X332240171Y-96625970D01*
X332217071Y-96634235D01*
X332193273Y-96640196D01*
X332169004Y-96643796D01*
X332144500Y-96645000D01*
X331219500Y-96645000D01*
X331194996Y-96643796D01*
X331170727Y-96640196D01*
X331146929Y-96634235D01*
X331123829Y-96625970D01*
X331101651Y-96615480D01*
X331080607Y-96602867D01*
X331060902Y-96588253D01*
X331042723Y-96571777D01*
X331026247Y-96553598D01*
X331011633Y-96533893D01*
X330999020Y-96512849D01*
X330988530Y-96490671D01*
X330980265Y-96467571D01*
X330974304Y-96443773D01*
X330970704Y-96419504D01*
X330969500Y-96395000D01*
X330969500Y-95145000D01*
X330970704Y-95120496D01*
X330974304Y-95096227D01*
X330980265Y-95072429D01*
X330988530Y-95049329D01*
X330999020Y-95027151D01*
X331011633Y-95006107D01*
X331026247Y-94986402D01*
X331042723Y-94968223D01*
X331060902Y-94951747D01*
X331080607Y-94937133D01*
X331101651Y-94924520D01*
X331123829Y-94914030D01*
X331146929Y-94905765D01*
X331170727Y-94899804D01*
X331194996Y-94896204D01*
X331219500Y-94895000D01*
X332144500Y-94895000D01*
X332169004Y-94896204D01*
X332169004Y-94896204D01*
G37*
D12*
X331682000Y-95770000D03*
G04 #@! TD*
D11*
G04 #@! TO.C,D61*
G36*
X249424004Y-113946204D02*
X249448273Y-113949804D01*
X249472071Y-113955765D01*
X249495171Y-113964030D01*
X249517349Y-113974520D01*
X249538393Y-113987133D01*
X249558098Y-114001747D01*
X249576277Y-114018223D01*
X249592753Y-114036402D01*
X249607367Y-114056107D01*
X249619980Y-114077151D01*
X249630470Y-114099329D01*
X249638735Y-114122429D01*
X249644696Y-114146227D01*
X249648296Y-114170496D01*
X249649500Y-114195000D01*
X249649500Y-115445000D01*
X249648296Y-115469504D01*
X249644696Y-115493773D01*
X249638735Y-115517571D01*
X249630470Y-115540671D01*
X249619980Y-115562849D01*
X249607367Y-115583893D01*
X249592753Y-115603598D01*
X249576277Y-115621777D01*
X249558098Y-115638253D01*
X249538393Y-115652867D01*
X249517349Y-115665480D01*
X249495171Y-115675970D01*
X249472071Y-115684235D01*
X249448273Y-115690196D01*
X249424004Y-115693796D01*
X249399500Y-115695000D01*
X248474500Y-115695000D01*
X248449996Y-115693796D01*
X248425727Y-115690196D01*
X248401929Y-115684235D01*
X248378829Y-115675970D01*
X248356651Y-115665480D01*
X248335607Y-115652867D01*
X248315902Y-115638253D01*
X248297723Y-115621777D01*
X248281247Y-115603598D01*
X248266633Y-115583893D01*
X248254020Y-115562849D01*
X248243530Y-115540671D01*
X248235265Y-115517571D01*
X248229304Y-115493773D01*
X248225704Y-115469504D01*
X248224500Y-115445000D01*
X248224500Y-114195000D01*
X248225704Y-114170496D01*
X248229304Y-114146227D01*
X248235265Y-114122429D01*
X248243530Y-114099329D01*
X248254020Y-114077151D01*
X248266633Y-114056107D01*
X248281247Y-114036402D01*
X248297723Y-114018223D01*
X248315902Y-114001747D01*
X248335607Y-113987133D01*
X248356651Y-113974520D01*
X248378829Y-113964030D01*
X248401929Y-113955765D01*
X248425727Y-113949804D01*
X248449996Y-113946204D01*
X248474500Y-113945000D01*
X249399500Y-113945000D01*
X249424004Y-113946204D01*
X249424004Y-113946204D01*
G37*
D12*
X248937000Y-114820000D03*
D11*
G36*
X246449004Y-113946204D02*
X246473273Y-113949804D01*
X246497071Y-113955765D01*
X246520171Y-113964030D01*
X246542349Y-113974520D01*
X246563393Y-113987133D01*
X246583098Y-114001747D01*
X246601277Y-114018223D01*
X246617753Y-114036402D01*
X246632367Y-114056107D01*
X246644980Y-114077151D01*
X246655470Y-114099329D01*
X246663735Y-114122429D01*
X246669696Y-114146227D01*
X246673296Y-114170496D01*
X246674500Y-114195000D01*
X246674500Y-115445000D01*
X246673296Y-115469504D01*
X246669696Y-115493773D01*
X246663735Y-115517571D01*
X246655470Y-115540671D01*
X246644980Y-115562849D01*
X246632367Y-115583893D01*
X246617753Y-115603598D01*
X246601277Y-115621777D01*
X246583098Y-115638253D01*
X246563393Y-115652867D01*
X246542349Y-115665480D01*
X246520171Y-115675970D01*
X246497071Y-115684235D01*
X246473273Y-115690196D01*
X246449004Y-115693796D01*
X246424500Y-115695000D01*
X245499500Y-115695000D01*
X245474996Y-115693796D01*
X245450727Y-115690196D01*
X245426929Y-115684235D01*
X245403829Y-115675970D01*
X245381651Y-115665480D01*
X245360607Y-115652867D01*
X245340902Y-115638253D01*
X245322723Y-115621777D01*
X245306247Y-115603598D01*
X245291633Y-115583893D01*
X245279020Y-115562849D01*
X245268530Y-115540671D01*
X245260265Y-115517571D01*
X245254304Y-115493773D01*
X245250704Y-115469504D01*
X245249500Y-115445000D01*
X245249500Y-114195000D01*
X245250704Y-114170496D01*
X245254304Y-114146227D01*
X245260265Y-114122429D01*
X245268530Y-114099329D01*
X245279020Y-114077151D01*
X245291633Y-114056107D01*
X245306247Y-114036402D01*
X245322723Y-114018223D01*
X245340902Y-114001747D01*
X245360607Y-113987133D01*
X245381651Y-113974520D01*
X245403829Y-113964030D01*
X245426929Y-113955765D01*
X245450727Y-113949804D01*
X245474996Y-113946204D01*
X245499500Y-113945000D01*
X246424500Y-113945000D01*
X246449004Y-113946204D01*
X246449004Y-113946204D01*
G37*
D12*
X245962000Y-114820000D03*
G04 #@! TD*
D11*
G04 #@! TO.C,D60*
G36*
X208936504Y-113946204D02*
X208960773Y-113949804D01*
X208984571Y-113955765D01*
X209007671Y-113964030D01*
X209029849Y-113974520D01*
X209050893Y-113987133D01*
X209070598Y-114001747D01*
X209088777Y-114018223D01*
X209105253Y-114036402D01*
X209119867Y-114056107D01*
X209132480Y-114077151D01*
X209142970Y-114099329D01*
X209151235Y-114122429D01*
X209157196Y-114146227D01*
X209160796Y-114170496D01*
X209162000Y-114195000D01*
X209162000Y-115445000D01*
X209160796Y-115469504D01*
X209157196Y-115493773D01*
X209151235Y-115517571D01*
X209142970Y-115540671D01*
X209132480Y-115562849D01*
X209119867Y-115583893D01*
X209105253Y-115603598D01*
X209088777Y-115621777D01*
X209070598Y-115638253D01*
X209050893Y-115652867D01*
X209029849Y-115665480D01*
X209007671Y-115675970D01*
X208984571Y-115684235D01*
X208960773Y-115690196D01*
X208936504Y-115693796D01*
X208912000Y-115695000D01*
X207987000Y-115695000D01*
X207962496Y-115693796D01*
X207938227Y-115690196D01*
X207914429Y-115684235D01*
X207891329Y-115675970D01*
X207869151Y-115665480D01*
X207848107Y-115652867D01*
X207828402Y-115638253D01*
X207810223Y-115621777D01*
X207793747Y-115603598D01*
X207779133Y-115583893D01*
X207766520Y-115562849D01*
X207756030Y-115540671D01*
X207747765Y-115517571D01*
X207741804Y-115493773D01*
X207738204Y-115469504D01*
X207737000Y-115445000D01*
X207737000Y-114195000D01*
X207738204Y-114170496D01*
X207741804Y-114146227D01*
X207747765Y-114122429D01*
X207756030Y-114099329D01*
X207766520Y-114077151D01*
X207779133Y-114056107D01*
X207793747Y-114036402D01*
X207810223Y-114018223D01*
X207828402Y-114001747D01*
X207848107Y-113987133D01*
X207869151Y-113974520D01*
X207891329Y-113964030D01*
X207914429Y-113955765D01*
X207938227Y-113949804D01*
X207962496Y-113946204D01*
X207987000Y-113945000D01*
X208912000Y-113945000D01*
X208936504Y-113946204D01*
X208936504Y-113946204D01*
G37*
D12*
X208449500Y-114820000D03*
D11*
G36*
X205961504Y-113946204D02*
X205985773Y-113949804D01*
X206009571Y-113955765D01*
X206032671Y-113964030D01*
X206054849Y-113974520D01*
X206075893Y-113987133D01*
X206095598Y-114001747D01*
X206113777Y-114018223D01*
X206130253Y-114036402D01*
X206144867Y-114056107D01*
X206157480Y-114077151D01*
X206167970Y-114099329D01*
X206176235Y-114122429D01*
X206182196Y-114146227D01*
X206185796Y-114170496D01*
X206187000Y-114195000D01*
X206187000Y-115445000D01*
X206185796Y-115469504D01*
X206182196Y-115493773D01*
X206176235Y-115517571D01*
X206167970Y-115540671D01*
X206157480Y-115562849D01*
X206144867Y-115583893D01*
X206130253Y-115603598D01*
X206113777Y-115621777D01*
X206095598Y-115638253D01*
X206075893Y-115652867D01*
X206054849Y-115665480D01*
X206032671Y-115675970D01*
X206009571Y-115684235D01*
X205985773Y-115690196D01*
X205961504Y-115693796D01*
X205937000Y-115695000D01*
X205012000Y-115695000D01*
X204987496Y-115693796D01*
X204963227Y-115690196D01*
X204939429Y-115684235D01*
X204916329Y-115675970D01*
X204894151Y-115665480D01*
X204873107Y-115652867D01*
X204853402Y-115638253D01*
X204835223Y-115621777D01*
X204818747Y-115603598D01*
X204804133Y-115583893D01*
X204791520Y-115562849D01*
X204781030Y-115540671D01*
X204772765Y-115517571D01*
X204766804Y-115493773D01*
X204763204Y-115469504D01*
X204762000Y-115445000D01*
X204762000Y-114195000D01*
X204763204Y-114170496D01*
X204766804Y-114146227D01*
X204772765Y-114122429D01*
X204781030Y-114099329D01*
X204791520Y-114077151D01*
X204804133Y-114056107D01*
X204818747Y-114036402D01*
X204835223Y-114018223D01*
X204853402Y-114001747D01*
X204873107Y-113987133D01*
X204894151Y-113974520D01*
X204916329Y-113964030D01*
X204939429Y-113955765D01*
X204963227Y-113949804D01*
X204987496Y-113946204D01*
X205012000Y-113945000D01*
X205937000Y-113945000D01*
X205961504Y-113946204D01*
X205961504Y-113946204D01*
G37*
D12*
X205474500Y-114820000D03*
G04 #@! TD*
D11*
G04 #@! TO.C,D43*
G36*
X323237004Y-56796204D02*
X323261273Y-56799804D01*
X323285071Y-56805765D01*
X323308171Y-56814030D01*
X323330349Y-56824520D01*
X323351393Y-56837133D01*
X323371098Y-56851747D01*
X323389277Y-56868223D01*
X323405753Y-56886402D01*
X323420367Y-56906107D01*
X323432980Y-56927151D01*
X323443470Y-56949329D01*
X323451735Y-56972429D01*
X323457696Y-56996227D01*
X323461296Y-57020496D01*
X323462500Y-57045000D01*
X323462500Y-58295000D01*
X323461296Y-58319504D01*
X323457696Y-58343773D01*
X323451735Y-58367571D01*
X323443470Y-58390671D01*
X323432980Y-58412849D01*
X323420367Y-58433893D01*
X323405753Y-58453598D01*
X323389277Y-58471777D01*
X323371098Y-58488253D01*
X323351393Y-58502867D01*
X323330349Y-58515480D01*
X323308171Y-58525970D01*
X323285071Y-58534235D01*
X323261273Y-58540196D01*
X323237004Y-58543796D01*
X323212500Y-58545000D01*
X322287500Y-58545000D01*
X322262996Y-58543796D01*
X322238727Y-58540196D01*
X322214929Y-58534235D01*
X322191829Y-58525970D01*
X322169651Y-58515480D01*
X322148607Y-58502867D01*
X322128902Y-58488253D01*
X322110723Y-58471777D01*
X322094247Y-58453598D01*
X322079633Y-58433893D01*
X322067020Y-58412849D01*
X322056530Y-58390671D01*
X322048265Y-58367571D01*
X322042304Y-58343773D01*
X322038704Y-58319504D01*
X322037500Y-58295000D01*
X322037500Y-57045000D01*
X322038704Y-57020496D01*
X322042304Y-56996227D01*
X322048265Y-56972429D01*
X322056530Y-56949329D01*
X322067020Y-56927151D01*
X322079633Y-56906107D01*
X322094247Y-56886402D01*
X322110723Y-56868223D01*
X322128902Y-56851747D01*
X322148607Y-56837133D01*
X322169651Y-56824520D01*
X322191829Y-56814030D01*
X322214929Y-56805765D01*
X322238727Y-56799804D01*
X322262996Y-56796204D01*
X322287500Y-56795000D01*
X323212500Y-56795000D01*
X323237004Y-56796204D01*
X323237004Y-56796204D01*
G37*
D12*
X322750000Y-57670000D03*
D11*
G36*
X320262004Y-56796204D02*
X320286273Y-56799804D01*
X320310071Y-56805765D01*
X320333171Y-56814030D01*
X320355349Y-56824520D01*
X320376393Y-56837133D01*
X320396098Y-56851747D01*
X320414277Y-56868223D01*
X320430753Y-56886402D01*
X320445367Y-56906107D01*
X320457980Y-56927151D01*
X320468470Y-56949329D01*
X320476735Y-56972429D01*
X320482696Y-56996227D01*
X320486296Y-57020496D01*
X320487500Y-57045000D01*
X320487500Y-58295000D01*
X320486296Y-58319504D01*
X320482696Y-58343773D01*
X320476735Y-58367571D01*
X320468470Y-58390671D01*
X320457980Y-58412849D01*
X320445367Y-58433893D01*
X320430753Y-58453598D01*
X320414277Y-58471777D01*
X320396098Y-58488253D01*
X320376393Y-58502867D01*
X320355349Y-58515480D01*
X320333171Y-58525970D01*
X320310071Y-58534235D01*
X320286273Y-58540196D01*
X320262004Y-58543796D01*
X320237500Y-58545000D01*
X319312500Y-58545000D01*
X319287996Y-58543796D01*
X319263727Y-58540196D01*
X319239929Y-58534235D01*
X319216829Y-58525970D01*
X319194651Y-58515480D01*
X319173607Y-58502867D01*
X319153902Y-58488253D01*
X319135723Y-58471777D01*
X319119247Y-58453598D01*
X319104633Y-58433893D01*
X319092020Y-58412849D01*
X319081530Y-58390671D01*
X319073265Y-58367571D01*
X319067304Y-58343773D01*
X319063704Y-58319504D01*
X319062500Y-58295000D01*
X319062500Y-57045000D01*
X319063704Y-57020496D01*
X319067304Y-56996227D01*
X319073265Y-56972429D01*
X319081530Y-56949329D01*
X319092020Y-56927151D01*
X319104633Y-56906107D01*
X319119247Y-56886402D01*
X319135723Y-56868223D01*
X319153902Y-56851747D01*
X319173607Y-56837133D01*
X319194651Y-56824520D01*
X319216829Y-56814030D01*
X319239929Y-56805765D01*
X319263727Y-56799804D01*
X319287996Y-56796204D01*
X319312500Y-56795000D01*
X320237500Y-56795000D01*
X320262004Y-56796204D01*
X320262004Y-56796204D01*
G37*
D12*
X319775000Y-57670000D03*
G04 #@! TD*
D11*
G04 #@! TO.C,D62*
G36*
X285151504Y-113946204D02*
X285175773Y-113949804D01*
X285199571Y-113955765D01*
X285222671Y-113964030D01*
X285244849Y-113974520D01*
X285265893Y-113987133D01*
X285285598Y-114001747D01*
X285303777Y-114018223D01*
X285320253Y-114036402D01*
X285334867Y-114056107D01*
X285347480Y-114077151D01*
X285357970Y-114099329D01*
X285366235Y-114122429D01*
X285372196Y-114146227D01*
X285375796Y-114170496D01*
X285377000Y-114195000D01*
X285377000Y-115445000D01*
X285375796Y-115469504D01*
X285372196Y-115493773D01*
X285366235Y-115517571D01*
X285357970Y-115540671D01*
X285347480Y-115562849D01*
X285334867Y-115583893D01*
X285320253Y-115603598D01*
X285303777Y-115621777D01*
X285285598Y-115638253D01*
X285265893Y-115652867D01*
X285244849Y-115665480D01*
X285222671Y-115675970D01*
X285199571Y-115684235D01*
X285175773Y-115690196D01*
X285151504Y-115693796D01*
X285127000Y-115695000D01*
X284202000Y-115695000D01*
X284177496Y-115693796D01*
X284153227Y-115690196D01*
X284129429Y-115684235D01*
X284106329Y-115675970D01*
X284084151Y-115665480D01*
X284063107Y-115652867D01*
X284043402Y-115638253D01*
X284025223Y-115621777D01*
X284008747Y-115603598D01*
X283994133Y-115583893D01*
X283981520Y-115562849D01*
X283971030Y-115540671D01*
X283962765Y-115517571D01*
X283956804Y-115493773D01*
X283953204Y-115469504D01*
X283952000Y-115445000D01*
X283952000Y-114195000D01*
X283953204Y-114170496D01*
X283956804Y-114146227D01*
X283962765Y-114122429D01*
X283971030Y-114099329D01*
X283981520Y-114077151D01*
X283994133Y-114056107D01*
X284008747Y-114036402D01*
X284025223Y-114018223D01*
X284043402Y-114001747D01*
X284063107Y-113987133D01*
X284084151Y-113974520D01*
X284106329Y-113964030D01*
X284129429Y-113955765D01*
X284153227Y-113949804D01*
X284177496Y-113946204D01*
X284202000Y-113945000D01*
X285127000Y-113945000D01*
X285151504Y-113946204D01*
X285151504Y-113946204D01*
G37*
D12*
X284664500Y-114820000D03*
D11*
G36*
X282176504Y-113946204D02*
X282200773Y-113949804D01*
X282224571Y-113955765D01*
X282247671Y-113964030D01*
X282269849Y-113974520D01*
X282290893Y-113987133D01*
X282310598Y-114001747D01*
X282328777Y-114018223D01*
X282345253Y-114036402D01*
X282359867Y-114056107D01*
X282372480Y-114077151D01*
X282382970Y-114099329D01*
X282391235Y-114122429D01*
X282397196Y-114146227D01*
X282400796Y-114170496D01*
X282402000Y-114195000D01*
X282402000Y-115445000D01*
X282400796Y-115469504D01*
X282397196Y-115493773D01*
X282391235Y-115517571D01*
X282382970Y-115540671D01*
X282372480Y-115562849D01*
X282359867Y-115583893D01*
X282345253Y-115603598D01*
X282328777Y-115621777D01*
X282310598Y-115638253D01*
X282290893Y-115652867D01*
X282269849Y-115665480D01*
X282247671Y-115675970D01*
X282224571Y-115684235D01*
X282200773Y-115690196D01*
X282176504Y-115693796D01*
X282152000Y-115695000D01*
X281227000Y-115695000D01*
X281202496Y-115693796D01*
X281178227Y-115690196D01*
X281154429Y-115684235D01*
X281131329Y-115675970D01*
X281109151Y-115665480D01*
X281088107Y-115652867D01*
X281068402Y-115638253D01*
X281050223Y-115621777D01*
X281033747Y-115603598D01*
X281019133Y-115583893D01*
X281006520Y-115562849D01*
X280996030Y-115540671D01*
X280987765Y-115517571D01*
X280981804Y-115493773D01*
X280978204Y-115469504D01*
X280977000Y-115445000D01*
X280977000Y-114195000D01*
X280978204Y-114170496D01*
X280981804Y-114146227D01*
X280987765Y-114122429D01*
X280996030Y-114099329D01*
X281006520Y-114077151D01*
X281019133Y-114056107D01*
X281033747Y-114036402D01*
X281050223Y-114018223D01*
X281068402Y-114001747D01*
X281088107Y-113987133D01*
X281109151Y-113974520D01*
X281131329Y-113964030D01*
X281154429Y-113955765D01*
X281178227Y-113949804D01*
X281202496Y-113946204D01*
X281227000Y-113945000D01*
X282152000Y-113945000D01*
X282176504Y-113946204D01*
X282176504Y-113946204D01*
G37*
D12*
X281689500Y-114820000D03*
G04 #@! TD*
D11*
G04 #@! TO.C,D63*
G36*
X301226504Y-113946204D02*
X301250773Y-113949804D01*
X301274571Y-113955765D01*
X301297671Y-113964030D01*
X301319849Y-113974520D01*
X301340893Y-113987133D01*
X301360598Y-114001747D01*
X301378777Y-114018223D01*
X301395253Y-114036402D01*
X301409867Y-114056107D01*
X301422480Y-114077151D01*
X301432970Y-114099329D01*
X301441235Y-114122429D01*
X301447196Y-114146227D01*
X301450796Y-114170496D01*
X301452000Y-114195000D01*
X301452000Y-115445000D01*
X301450796Y-115469504D01*
X301447196Y-115493773D01*
X301441235Y-115517571D01*
X301432970Y-115540671D01*
X301422480Y-115562849D01*
X301409867Y-115583893D01*
X301395253Y-115603598D01*
X301378777Y-115621777D01*
X301360598Y-115638253D01*
X301340893Y-115652867D01*
X301319849Y-115665480D01*
X301297671Y-115675970D01*
X301274571Y-115684235D01*
X301250773Y-115690196D01*
X301226504Y-115693796D01*
X301202000Y-115695000D01*
X300277000Y-115695000D01*
X300252496Y-115693796D01*
X300228227Y-115690196D01*
X300204429Y-115684235D01*
X300181329Y-115675970D01*
X300159151Y-115665480D01*
X300138107Y-115652867D01*
X300118402Y-115638253D01*
X300100223Y-115621777D01*
X300083747Y-115603598D01*
X300069133Y-115583893D01*
X300056520Y-115562849D01*
X300046030Y-115540671D01*
X300037765Y-115517571D01*
X300031804Y-115493773D01*
X300028204Y-115469504D01*
X300027000Y-115445000D01*
X300027000Y-114195000D01*
X300028204Y-114170496D01*
X300031804Y-114146227D01*
X300037765Y-114122429D01*
X300046030Y-114099329D01*
X300056520Y-114077151D01*
X300069133Y-114056107D01*
X300083747Y-114036402D01*
X300100223Y-114018223D01*
X300118402Y-114001747D01*
X300138107Y-113987133D01*
X300159151Y-113974520D01*
X300181329Y-113964030D01*
X300204429Y-113955765D01*
X300228227Y-113949804D01*
X300252496Y-113946204D01*
X300277000Y-113945000D01*
X301202000Y-113945000D01*
X301226504Y-113946204D01*
X301226504Y-113946204D01*
G37*
D12*
X300739500Y-114820000D03*
D11*
G36*
X304201504Y-113946204D02*
X304225773Y-113949804D01*
X304249571Y-113955765D01*
X304272671Y-113964030D01*
X304294849Y-113974520D01*
X304315893Y-113987133D01*
X304335598Y-114001747D01*
X304353777Y-114018223D01*
X304370253Y-114036402D01*
X304384867Y-114056107D01*
X304397480Y-114077151D01*
X304407970Y-114099329D01*
X304416235Y-114122429D01*
X304422196Y-114146227D01*
X304425796Y-114170496D01*
X304427000Y-114195000D01*
X304427000Y-115445000D01*
X304425796Y-115469504D01*
X304422196Y-115493773D01*
X304416235Y-115517571D01*
X304407970Y-115540671D01*
X304397480Y-115562849D01*
X304384867Y-115583893D01*
X304370253Y-115603598D01*
X304353777Y-115621777D01*
X304335598Y-115638253D01*
X304315893Y-115652867D01*
X304294849Y-115665480D01*
X304272671Y-115675970D01*
X304249571Y-115684235D01*
X304225773Y-115690196D01*
X304201504Y-115693796D01*
X304177000Y-115695000D01*
X303252000Y-115695000D01*
X303227496Y-115693796D01*
X303203227Y-115690196D01*
X303179429Y-115684235D01*
X303156329Y-115675970D01*
X303134151Y-115665480D01*
X303113107Y-115652867D01*
X303093402Y-115638253D01*
X303075223Y-115621777D01*
X303058747Y-115603598D01*
X303044133Y-115583893D01*
X303031520Y-115562849D01*
X303021030Y-115540671D01*
X303012765Y-115517571D01*
X303006804Y-115493773D01*
X303003204Y-115469504D01*
X303002000Y-115445000D01*
X303002000Y-114195000D01*
X303003204Y-114170496D01*
X303006804Y-114146227D01*
X303012765Y-114122429D01*
X303021030Y-114099329D01*
X303031520Y-114077151D01*
X303044133Y-114056107D01*
X303058747Y-114036402D01*
X303075223Y-114018223D01*
X303093402Y-114001747D01*
X303113107Y-113987133D01*
X303134151Y-113974520D01*
X303156329Y-113964030D01*
X303179429Y-113955765D01*
X303203227Y-113949804D01*
X303227496Y-113946204D01*
X303252000Y-113945000D01*
X304177000Y-113945000D01*
X304201504Y-113946204D01*
X304201504Y-113946204D01*
G37*
D12*
X303714500Y-114820000D03*
G04 #@! TD*
D11*
G04 #@! TO.C,D64*
G36*
X323251504Y-113946204D02*
X323275773Y-113949804D01*
X323299571Y-113955765D01*
X323322671Y-113964030D01*
X323344849Y-113974520D01*
X323365893Y-113987133D01*
X323385598Y-114001747D01*
X323403777Y-114018223D01*
X323420253Y-114036402D01*
X323434867Y-114056107D01*
X323447480Y-114077151D01*
X323457970Y-114099329D01*
X323466235Y-114122429D01*
X323472196Y-114146227D01*
X323475796Y-114170496D01*
X323477000Y-114195000D01*
X323477000Y-115445000D01*
X323475796Y-115469504D01*
X323472196Y-115493773D01*
X323466235Y-115517571D01*
X323457970Y-115540671D01*
X323447480Y-115562849D01*
X323434867Y-115583893D01*
X323420253Y-115603598D01*
X323403777Y-115621777D01*
X323385598Y-115638253D01*
X323365893Y-115652867D01*
X323344849Y-115665480D01*
X323322671Y-115675970D01*
X323299571Y-115684235D01*
X323275773Y-115690196D01*
X323251504Y-115693796D01*
X323227000Y-115695000D01*
X322302000Y-115695000D01*
X322277496Y-115693796D01*
X322253227Y-115690196D01*
X322229429Y-115684235D01*
X322206329Y-115675970D01*
X322184151Y-115665480D01*
X322163107Y-115652867D01*
X322143402Y-115638253D01*
X322125223Y-115621777D01*
X322108747Y-115603598D01*
X322094133Y-115583893D01*
X322081520Y-115562849D01*
X322071030Y-115540671D01*
X322062765Y-115517571D01*
X322056804Y-115493773D01*
X322053204Y-115469504D01*
X322052000Y-115445000D01*
X322052000Y-114195000D01*
X322053204Y-114170496D01*
X322056804Y-114146227D01*
X322062765Y-114122429D01*
X322071030Y-114099329D01*
X322081520Y-114077151D01*
X322094133Y-114056107D01*
X322108747Y-114036402D01*
X322125223Y-114018223D01*
X322143402Y-114001747D01*
X322163107Y-113987133D01*
X322184151Y-113974520D01*
X322206329Y-113964030D01*
X322229429Y-113955765D01*
X322253227Y-113949804D01*
X322277496Y-113946204D01*
X322302000Y-113945000D01*
X323227000Y-113945000D01*
X323251504Y-113946204D01*
X323251504Y-113946204D01*
G37*
D12*
X322764500Y-114820000D03*
D11*
G36*
X320276504Y-113946204D02*
X320300773Y-113949804D01*
X320324571Y-113955765D01*
X320347671Y-113964030D01*
X320369849Y-113974520D01*
X320390893Y-113987133D01*
X320410598Y-114001747D01*
X320428777Y-114018223D01*
X320445253Y-114036402D01*
X320459867Y-114056107D01*
X320472480Y-114077151D01*
X320482970Y-114099329D01*
X320491235Y-114122429D01*
X320497196Y-114146227D01*
X320500796Y-114170496D01*
X320502000Y-114195000D01*
X320502000Y-115445000D01*
X320500796Y-115469504D01*
X320497196Y-115493773D01*
X320491235Y-115517571D01*
X320482970Y-115540671D01*
X320472480Y-115562849D01*
X320459867Y-115583893D01*
X320445253Y-115603598D01*
X320428777Y-115621777D01*
X320410598Y-115638253D01*
X320390893Y-115652867D01*
X320369849Y-115665480D01*
X320347671Y-115675970D01*
X320324571Y-115684235D01*
X320300773Y-115690196D01*
X320276504Y-115693796D01*
X320252000Y-115695000D01*
X319327000Y-115695000D01*
X319302496Y-115693796D01*
X319278227Y-115690196D01*
X319254429Y-115684235D01*
X319231329Y-115675970D01*
X319209151Y-115665480D01*
X319188107Y-115652867D01*
X319168402Y-115638253D01*
X319150223Y-115621777D01*
X319133747Y-115603598D01*
X319119133Y-115583893D01*
X319106520Y-115562849D01*
X319096030Y-115540671D01*
X319087765Y-115517571D01*
X319081804Y-115493773D01*
X319078204Y-115469504D01*
X319077000Y-115445000D01*
X319077000Y-114195000D01*
X319078204Y-114170496D01*
X319081804Y-114146227D01*
X319087765Y-114122429D01*
X319096030Y-114099329D01*
X319106520Y-114077151D01*
X319119133Y-114056107D01*
X319133747Y-114036402D01*
X319150223Y-114018223D01*
X319168402Y-114001747D01*
X319188107Y-113987133D01*
X319209151Y-113974520D01*
X319231329Y-113964030D01*
X319254429Y-113955765D01*
X319278227Y-113949804D01*
X319302496Y-113946204D01*
X319327000Y-113945000D01*
X320252000Y-113945000D01*
X320276504Y-113946204D01*
X320276504Y-113946204D01*
G37*
D12*
X319789500Y-114820000D03*
G04 #@! TD*
D11*
G04 #@! TO.C,D44*
G36*
X344074504Y-56796204D02*
X344098773Y-56799804D01*
X344122571Y-56805765D01*
X344145671Y-56814030D01*
X344167849Y-56824520D01*
X344188893Y-56837133D01*
X344208598Y-56851747D01*
X344226777Y-56868223D01*
X344243253Y-56886402D01*
X344257867Y-56906107D01*
X344270480Y-56927151D01*
X344280970Y-56949329D01*
X344289235Y-56972429D01*
X344295196Y-56996227D01*
X344298796Y-57020496D01*
X344300000Y-57045000D01*
X344300000Y-58295000D01*
X344298796Y-58319504D01*
X344295196Y-58343773D01*
X344289235Y-58367571D01*
X344280970Y-58390671D01*
X344270480Y-58412849D01*
X344257867Y-58433893D01*
X344243253Y-58453598D01*
X344226777Y-58471777D01*
X344208598Y-58488253D01*
X344188893Y-58502867D01*
X344167849Y-58515480D01*
X344145671Y-58525970D01*
X344122571Y-58534235D01*
X344098773Y-58540196D01*
X344074504Y-58543796D01*
X344050000Y-58545000D01*
X343125000Y-58545000D01*
X343100496Y-58543796D01*
X343076227Y-58540196D01*
X343052429Y-58534235D01*
X343029329Y-58525970D01*
X343007151Y-58515480D01*
X342986107Y-58502867D01*
X342966402Y-58488253D01*
X342948223Y-58471777D01*
X342931747Y-58453598D01*
X342917133Y-58433893D01*
X342904520Y-58412849D01*
X342894030Y-58390671D01*
X342885765Y-58367571D01*
X342879804Y-58343773D01*
X342876204Y-58319504D01*
X342875000Y-58295000D01*
X342875000Y-57045000D01*
X342876204Y-57020496D01*
X342879804Y-56996227D01*
X342885765Y-56972429D01*
X342894030Y-56949329D01*
X342904520Y-56927151D01*
X342917133Y-56906107D01*
X342931747Y-56886402D01*
X342948223Y-56868223D01*
X342966402Y-56851747D01*
X342986107Y-56837133D01*
X343007151Y-56824520D01*
X343029329Y-56814030D01*
X343052429Y-56805765D01*
X343076227Y-56799804D01*
X343100496Y-56796204D01*
X343125000Y-56795000D01*
X344050000Y-56795000D01*
X344074504Y-56796204D01*
X344074504Y-56796204D01*
G37*
D12*
X343587500Y-57670000D03*
D11*
G36*
X347049504Y-56796204D02*
X347073773Y-56799804D01*
X347097571Y-56805765D01*
X347120671Y-56814030D01*
X347142849Y-56824520D01*
X347163893Y-56837133D01*
X347183598Y-56851747D01*
X347201777Y-56868223D01*
X347218253Y-56886402D01*
X347232867Y-56906107D01*
X347245480Y-56927151D01*
X347255970Y-56949329D01*
X347264235Y-56972429D01*
X347270196Y-56996227D01*
X347273796Y-57020496D01*
X347275000Y-57045000D01*
X347275000Y-58295000D01*
X347273796Y-58319504D01*
X347270196Y-58343773D01*
X347264235Y-58367571D01*
X347255970Y-58390671D01*
X347245480Y-58412849D01*
X347232867Y-58433893D01*
X347218253Y-58453598D01*
X347201777Y-58471777D01*
X347183598Y-58488253D01*
X347163893Y-58502867D01*
X347142849Y-58515480D01*
X347120671Y-58525970D01*
X347097571Y-58534235D01*
X347073773Y-58540196D01*
X347049504Y-58543796D01*
X347025000Y-58545000D01*
X346100000Y-58545000D01*
X346075496Y-58543796D01*
X346051227Y-58540196D01*
X346027429Y-58534235D01*
X346004329Y-58525970D01*
X345982151Y-58515480D01*
X345961107Y-58502867D01*
X345941402Y-58488253D01*
X345923223Y-58471777D01*
X345906747Y-58453598D01*
X345892133Y-58433893D01*
X345879520Y-58412849D01*
X345869030Y-58390671D01*
X345860765Y-58367571D01*
X345854804Y-58343773D01*
X345851204Y-58319504D01*
X345850000Y-58295000D01*
X345850000Y-57045000D01*
X345851204Y-57020496D01*
X345854804Y-56996227D01*
X345860765Y-56972429D01*
X345869030Y-56949329D01*
X345879520Y-56927151D01*
X345892133Y-56906107D01*
X345906747Y-56886402D01*
X345923223Y-56868223D01*
X345941402Y-56851747D01*
X345961107Y-56837133D01*
X345982151Y-56824520D01*
X346004329Y-56814030D01*
X346027429Y-56805765D01*
X346051227Y-56799804D01*
X346075496Y-56796204D01*
X346100000Y-56795000D01*
X347025000Y-56795000D01*
X347049504Y-56796204D01*
X347049504Y-56796204D01*
G37*
D12*
X346562500Y-57670000D03*
G04 #@! TD*
D11*
G04 #@! TO.C,D65*
G36*
X339326504Y-113946204D02*
X339350773Y-113949804D01*
X339374571Y-113955765D01*
X339397671Y-113964030D01*
X339419849Y-113974520D01*
X339440893Y-113987133D01*
X339460598Y-114001747D01*
X339478777Y-114018223D01*
X339495253Y-114036402D01*
X339509867Y-114056107D01*
X339522480Y-114077151D01*
X339532970Y-114099329D01*
X339541235Y-114122429D01*
X339547196Y-114146227D01*
X339550796Y-114170496D01*
X339552000Y-114195000D01*
X339552000Y-115445000D01*
X339550796Y-115469504D01*
X339547196Y-115493773D01*
X339541235Y-115517571D01*
X339532970Y-115540671D01*
X339522480Y-115562849D01*
X339509867Y-115583893D01*
X339495253Y-115603598D01*
X339478777Y-115621777D01*
X339460598Y-115638253D01*
X339440893Y-115652867D01*
X339419849Y-115665480D01*
X339397671Y-115675970D01*
X339374571Y-115684235D01*
X339350773Y-115690196D01*
X339326504Y-115693796D01*
X339302000Y-115695000D01*
X338377000Y-115695000D01*
X338352496Y-115693796D01*
X338328227Y-115690196D01*
X338304429Y-115684235D01*
X338281329Y-115675970D01*
X338259151Y-115665480D01*
X338238107Y-115652867D01*
X338218402Y-115638253D01*
X338200223Y-115621777D01*
X338183747Y-115603598D01*
X338169133Y-115583893D01*
X338156520Y-115562849D01*
X338146030Y-115540671D01*
X338137765Y-115517571D01*
X338131804Y-115493773D01*
X338128204Y-115469504D01*
X338127000Y-115445000D01*
X338127000Y-114195000D01*
X338128204Y-114170496D01*
X338131804Y-114146227D01*
X338137765Y-114122429D01*
X338146030Y-114099329D01*
X338156520Y-114077151D01*
X338169133Y-114056107D01*
X338183747Y-114036402D01*
X338200223Y-114018223D01*
X338218402Y-114001747D01*
X338238107Y-113987133D01*
X338259151Y-113974520D01*
X338281329Y-113964030D01*
X338304429Y-113955765D01*
X338328227Y-113949804D01*
X338352496Y-113946204D01*
X338377000Y-113945000D01*
X339302000Y-113945000D01*
X339326504Y-113946204D01*
X339326504Y-113946204D01*
G37*
D12*
X338839500Y-114820000D03*
D11*
G36*
X342301504Y-113946204D02*
X342325773Y-113949804D01*
X342349571Y-113955765D01*
X342372671Y-113964030D01*
X342394849Y-113974520D01*
X342415893Y-113987133D01*
X342435598Y-114001747D01*
X342453777Y-114018223D01*
X342470253Y-114036402D01*
X342484867Y-114056107D01*
X342497480Y-114077151D01*
X342507970Y-114099329D01*
X342516235Y-114122429D01*
X342522196Y-114146227D01*
X342525796Y-114170496D01*
X342527000Y-114195000D01*
X342527000Y-115445000D01*
X342525796Y-115469504D01*
X342522196Y-115493773D01*
X342516235Y-115517571D01*
X342507970Y-115540671D01*
X342497480Y-115562849D01*
X342484867Y-115583893D01*
X342470253Y-115603598D01*
X342453777Y-115621777D01*
X342435598Y-115638253D01*
X342415893Y-115652867D01*
X342394849Y-115665480D01*
X342372671Y-115675970D01*
X342349571Y-115684235D01*
X342325773Y-115690196D01*
X342301504Y-115693796D01*
X342277000Y-115695000D01*
X341352000Y-115695000D01*
X341327496Y-115693796D01*
X341303227Y-115690196D01*
X341279429Y-115684235D01*
X341256329Y-115675970D01*
X341234151Y-115665480D01*
X341213107Y-115652867D01*
X341193402Y-115638253D01*
X341175223Y-115621777D01*
X341158747Y-115603598D01*
X341144133Y-115583893D01*
X341131520Y-115562849D01*
X341121030Y-115540671D01*
X341112765Y-115517571D01*
X341106804Y-115493773D01*
X341103204Y-115469504D01*
X341102000Y-115445000D01*
X341102000Y-114195000D01*
X341103204Y-114170496D01*
X341106804Y-114146227D01*
X341112765Y-114122429D01*
X341121030Y-114099329D01*
X341131520Y-114077151D01*
X341144133Y-114056107D01*
X341158747Y-114036402D01*
X341175223Y-114018223D01*
X341193402Y-114001747D01*
X341213107Y-113987133D01*
X341234151Y-113974520D01*
X341256329Y-113964030D01*
X341279429Y-113955765D01*
X341303227Y-113949804D01*
X341327496Y-113946204D01*
X341352000Y-113945000D01*
X342277000Y-113945000D01*
X342301504Y-113946204D01*
X342301504Y-113946204D01*
G37*
D12*
X341814500Y-114820000D03*
G04 #@! TD*
D11*
G04 #@! TO.C,D53*
G36*
X201199004Y-94896204D02*
X201223273Y-94899804D01*
X201247071Y-94905765D01*
X201270171Y-94914030D01*
X201292349Y-94924520D01*
X201313393Y-94937133D01*
X201333098Y-94951747D01*
X201351277Y-94968223D01*
X201367753Y-94986402D01*
X201382367Y-95006107D01*
X201394980Y-95027151D01*
X201405470Y-95049329D01*
X201413735Y-95072429D01*
X201419696Y-95096227D01*
X201423296Y-95120496D01*
X201424500Y-95145000D01*
X201424500Y-96395000D01*
X201423296Y-96419504D01*
X201419696Y-96443773D01*
X201413735Y-96467571D01*
X201405470Y-96490671D01*
X201394980Y-96512849D01*
X201382367Y-96533893D01*
X201367753Y-96553598D01*
X201351277Y-96571777D01*
X201333098Y-96588253D01*
X201313393Y-96602867D01*
X201292349Y-96615480D01*
X201270171Y-96625970D01*
X201247071Y-96634235D01*
X201223273Y-96640196D01*
X201199004Y-96643796D01*
X201174500Y-96645000D01*
X200249500Y-96645000D01*
X200224996Y-96643796D01*
X200200727Y-96640196D01*
X200176929Y-96634235D01*
X200153829Y-96625970D01*
X200131651Y-96615480D01*
X200110607Y-96602867D01*
X200090902Y-96588253D01*
X200072723Y-96571777D01*
X200056247Y-96553598D01*
X200041633Y-96533893D01*
X200029020Y-96512849D01*
X200018530Y-96490671D01*
X200010265Y-96467571D01*
X200004304Y-96443773D01*
X200000704Y-96419504D01*
X199999500Y-96395000D01*
X199999500Y-95145000D01*
X200000704Y-95120496D01*
X200004304Y-95096227D01*
X200010265Y-95072429D01*
X200018530Y-95049329D01*
X200029020Y-95027151D01*
X200041633Y-95006107D01*
X200056247Y-94986402D01*
X200072723Y-94968223D01*
X200090902Y-94951747D01*
X200110607Y-94937133D01*
X200131651Y-94924520D01*
X200153829Y-94914030D01*
X200176929Y-94905765D01*
X200200727Y-94899804D01*
X200224996Y-94896204D01*
X200249500Y-94895000D01*
X201174500Y-94895000D01*
X201199004Y-94896204D01*
X201199004Y-94896204D01*
G37*
D12*
X200712000Y-95770000D03*
D11*
G36*
X204174004Y-94896204D02*
X204198273Y-94899804D01*
X204222071Y-94905765D01*
X204245171Y-94914030D01*
X204267349Y-94924520D01*
X204288393Y-94937133D01*
X204308098Y-94951747D01*
X204326277Y-94968223D01*
X204342753Y-94986402D01*
X204357367Y-95006107D01*
X204369980Y-95027151D01*
X204380470Y-95049329D01*
X204388735Y-95072429D01*
X204394696Y-95096227D01*
X204398296Y-95120496D01*
X204399500Y-95145000D01*
X204399500Y-96395000D01*
X204398296Y-96419504D01*
X204394696Y-96443773D01*
X204388735Y-96467571D01*
X204380470Y-96490671D01*
X204369980Y-96512849D01*
X204357367Y-96533893D01*
X204342753Y-96553598D01*
X204326277Y-96571777D01*
X204308098Y-96588253D01*
X204288393Y-96602867D01*
X204267349Y-96615480D01*
X204245171Y-96625970D01*
X204222071Y-96634235D01*
X204198273Y-96640196D01*
X204174004Y-96643796D01*
X204149500Y-96645000D01*
X203224500Y-96645000D01*
X203199996Y-96643796D01*
X203175727Y-96640196D01*
X203151929Y-96634235D01*
X203128829Y-96625970D01*
X203106651Y-96615480D01*
X203085607Y-96602867D01*
X203065902Y-96588253D01*
X203047723Y-96571777D01*
X203031247Y-96553598D01*
X203016633Y-96533893D01*
X203004020Y-96512849D01*
X202993530Y-96490671D01*
X202985265Y-96467571D01*
X202979304Y-96443773D01*
X202975704Y-96419504D01*
X202974500Y-96395000D01*
X202974500Y-95145000D01*
X202975704Y-95120496D01*
X202979304Y-95096227D01*
X202985265Y-95072429D01*
X202993530Y-95049329D01*
X203004020Y-95027151D01*
X203016633Y-95006107D01*
X203031247Y-94986402D01*
X203047723Y-94968223D01*
X203065902Y-94951747D01*
X203085607Y-94937133D01*
X203106651Y-94924520D01*
X203128829Y-94914030D01*
X203151929Y-94905765D01*
X203175727Y-94899804D01*
X203199996Y-94896204D01*
X203224500Y-94895000D01*
X204149500Y-94895000D01*
X204174004Y-94896204D01*
X204174004Y-94896204D01*
G37*
D12*
X203687000Y-95770000D03*
G04 #@! TD*
D10*
G04 #@! TO.C,SW31*
X248020000Y-30030000D03*
X234050000Y-32570000D03*
G04 #@! TD*
G04 #@! TO.C,SW35*
X310250000Y-32570000D03*
X324220000Y-30030000D03*
G04 #@! TD*
G04 #@! TO.C,SW34*
X291200000Y-32570000D03*
X305170000Y-30030000D03*
G04 #@! TD*
G04 #@! TO.C,SW39*
X257545000Y-49080000D03*
X243575000Y-51620000D03*
G04 #@! TD*
D11*
G04 #@! TO.C,R_data2*
G36*
X380929504Y-89063704D02*
X380953773Y-89067304D01*
X380977571Y-89073265D01*
X381000671Y-89081530D01*
X381022849Y-89092020D01*
X381043893Y-89104633D01*
X381063598Y-89119247D01*
X381081777Y-89135723D01*
X381098253Y-89153902D01*
X381112867Y-89173607D01*
X381125480Y-89194651D01*
X381135970Y-89216829D01*
X381144235Y-89239929D01*
X381150196Y-89263727D01*
X381153796Y-89287996D01*
X381155000Y-89312500D01*
X381155000Y-90237500D01*
X381153796Y-90262004D01*
X381150196Y-90286273D01*
X381144235Y-90310071D01*
X381135970Y-90333171D01*
X381125480Y-90355349D01*
X381112867Y-90376393D01*
X381098253Y-90396098D01*
X381081777Y-90414277D01*
X381063598Y-90430753D01*
X381043893Y-90445367D01*
X381022849Y-90457980D01*
X381000671Y-90468470D01*
X380977571Y-90476735D01*
X380953773Y-90482696D01*
X380929504Y-90486296D01*
X380905000Y-90487500D01*
X379655000Y-90487500D01*
X379630496Y-90486296D01*
X379606227Y-90482696D01*
X379582429Y-90476735D01*
X379559329Y-90468470D01*
X379537151Y-90457980D01*
X379516107Y-90445367D01*
X379496402Y-90430753D01*
X379478223Y-90414277D01*
X379461747Y-90396098D01*
X379447133Y-90376393D01*
X379434520Y-90355349D01*
X379424030Y-90333171D01*
X379415765Y-90310071D01*
X379409804Y-90286273D01*
X379406204Y-90262004D01*
X379405000Y-90237500D01*
X379405000Y-89312500D01*
X379406204Y-89287996D01*
X379409804Y-89263727D01*
X379415765Y-89239929D01*
X379424030Y-89216829D01*
X379434520Y-89194651D01*
X379447133Y-89173607D01*
X379461747Y-89153902D01*
X379478223Y-89135723D01*
X379496402Y-89119247D01*
X379516107Y-89104633D01*
X379537151Y-89092020D01*
X379559329Y-89081530D01*
X379582429Y-89073265D01*
X379606227Y-89067304D01*
X379630496Y-89063704D01*
X379655000Y-89062500D01*
X380905000Y-89062500D01*
X380929504Y-89063704D01*
X380929504Y-89063704D01*
G37*
D12*
X380280000Y-89775000D03*
D11*
G36*
X380929504Y-92038704D02*
X380953773Y-92042304D01*
X380977571Y-92048265D01*
X381000671Y-92056530D01*
X381022849Y-92067020D01*
X381043893Y-92079633D01*
X381063598Y-92094247D01*
X381081777Y-92110723D01*
X381098253Y-92128902D01*
X381112867Y-92148607D01*
X381125480Y-92169651D01*
X381135970Y-92191829D01*
X381144235Y-92214929D01*
X381150196Y-92238727D01*
X381153796Y-92262996D01*
X381155000Y-92287500D01*
X381155000Y-93212500D01*
X381153796Y-93237004D01*
X381150196Y-93261273D01*
X381144235Y-93285071D01*
X381135970Y-93308171D01*
X381125480Y-93330349D01*
X381112867Y-93351393D01*
X381098253Y-93371098D01*
X381081777Y-93389277D01*
X381063598Y-93405753D01*
X381043893Y-93420367D01*
X381022849Y-93432980D01*
X381000671Y-93443470D01*
X380977571Y-93451735D01*
X380953773Y-93457696D01*
X380929504Y-93461296D01*
X380905000Y-93462500D01*
X379655000Y-93462500D01*
X379630496Y-93461296D01*
X379606227Y-93457696D01*
X379582429Y-93451735D01*
X379559329Y-93443470D01*
X379537151Y-93432980D01*
X379516107Y-93420367D01*
X379496402Y-93405753D01*
X379478223Y-93389277D01*
X379461747Y-93371098D01*
X379447133Y-93351393D01*
X379434520Y-93330349D01*
X379424030Y-93308171D01*
X379415765Y-93285071D01*
X379409804Y-93261273D01*
X379406204Y-93237004D01*
X379405000Y-93212500D01*
X379405000Y-92287500D01*
X379406204Y-92262996D01*
X379409804Y-92238727D01*
X379415765Y-92214929D01*
X379424030Y-92191829D01*
X379434520Y-92169651D01*
X379447133Y-92148607D01*
X379461747Y-92128902D01*
X379478223Y-92110723D01*
X379496402Y-92094247D01*
X379516107Y-92079633D01*
X379537151Y-92067020D01*
X379559329Y-92056530D01*
X379582429Y-92048265D01*
X379606227Y-92042304D01*
X379630496Y-92038704D01*
X379655000Y-92037500D01*
X380905000Y-92037500D01*
X380929504Y-92038704D01*
X380929504Y-92038704D01*
G37*
D12*
X380280000Y-92750000D03*
G04 #@! TD*
D11*
G04 #@! TO.C,R_xdata2*
G36*
X380929504Y-100038704D02*
X380953773Y-100042304D01*
X380977571Y-100048265D01*
X381000671Y-100056530D01*
X381022849Y-100067020D01*
X381043893Y-100079633D01*
X381063598Y-100094247D01*
X381081777Y-100110723D01*
X381098253Y-100128902D01*
X381112867Y-100148607D01*
X381125480Y-100169651D01*
X381135970Y-100191829D01*
X381144235Y-100214929D01*
X381150196Y-100238727D01*
X381153796Y-100262996D01*
X381155000Y-100287500D01*
X381155000Y-101212500D01*
X381153796Y-101237004D01*
X381150196Y-101261273D01*
X381144235Y-101285071D01*
X381135970Y-101308171D01*
X381125480Y-101330349D01*
X381112867Y-101351393D01*
X381098253Y-101371098D01*
X381081777Y-101389277D01*
X381063598Y-101405753D01*
X381043893Y-101420367D01*
X381022849Y-101432980D01*
X381000671Y-101443470D01*
X380977571Y-101451735D01*
X380953773Y-101457696D01*
X380929504Y-101461296D01*
X380905000Y-101462500D01*
X379655000Y-101462500D01*
X379630496Y-101461296D01*
X379606227Y-101457696D01*
X379582429Y-101451735D01*
X379559329Y-101443470D01*
X379537151Y-101432980D01*
X379516107Y-101420367D01*
X379496402Y-101405753D01*
X379478223Y-101389277D01*
X379461747Y-101371098D01*
X379447133Y-101351393D01*
X379434520Y-101330349D01*
X379424030Y-101308171D01*
X379415765Y-101285071D01*
X379409804Y-101261273D01*
X379406204Y-101237004D01*
X379405000Y-101212500D01*
X379405000Y-100287500D01*
X379406204Y-100262996D01*
X379409804Y-100238727D01*
X379415765Y-100214929D01*
X379424030Y-100191829D01*
X379434520Y-100169651D01*
X379447133Y-100148607D01*
X379461747Y-100128902D01*
X379478223Y-100110723D01*
X379496402Y-100094247D01*
X379516107Y-100079633D01*
X379537151Y-100067020D01*
X379559329Y-100056530D01*
X379582429Y-100048265D01*
X379606227Y-100042304D01*
X379630496Y-100038704D01*
X379655000Y-100037500D01*
X380905000Y-100037500D01*
X380929504Y-100038704D01*
X380929504Y-100038704D01*
G37*
D12*
X380280000Y-100750000D03*
D11*
G36*
X380929504Y-97063704D02*
X380953773Y-97067304D01*
X380977571Y-97073265D01*
X381000671Y-97081530D01*
X381022849Y-97092020D01*
X381043893Y-97104633D01*
X381063598Y-97119247D01*
X381081777Y-97135723D01*
X381098253Y-97153902D01*
X381112867Y-97173607D01*
X381125480Y-97194651D01*
X381135970Y-97216829D01*
X381144235Y-97239929D01*
X381150196Y-97263727D01*
X381153796Y-97287996D01*
X381155000Y-97312500D01*
X381155000Y-98237500D01*
X381153796Y-98262004D01*
X381150196Y-98286273D01*
X381144235Y-98310071D01*
X381135970Y-98333171D01*
X381125480Y-98355349D01*
X381112867Y-98376393D01*
X381098253Y-98396098D01*
X381081777Y-98414277D01*
X381063598Y-98430753D01*
X381043893Y-98445367D01*
X381022849Y-98457980D01*
X381000671Y-98468470D01*
X380977571Y-98476735D01*
X380953773Y-98482696D01*
X380929504Y-98486296D01*
X380905000Y-98487500D01*
X379655000Y-98487500D01*
X379630496Y-98486296D01*
X379606227Y-98482696D01*
X379582429Y-98476735D01*
X379559329Y-98468470D01*
X379537151Y-98457980D01*
X379516107Y-98445367D01*
X379496402Y-98430753D01*
X379478223Y-98414277D01*
X379461747Y-98396098D01*
X379447133Y-98376393D01*
X379434520Y-98355349D01*
X379424030Y-98333171D01*
X379415765Y-98310071D01*
X379409804Y-98286273D01*
X379406204Y-98262004D01*
X379405000Y-98237500D01*
X379405000Y-97312500D01*
X379406204Y-97287996D01*
X379409804Y-97263727D01*
X379415765Y-97239929D01*
X379424030Y-97216829D01*
X379434520Y-97194651D01*
X379447133Y-97173607D01*
X379461747Y-97153902D01*
X379478223Y-97135723D01*
X379496402Y-97119247D01*
X379516107Y-97104633D01*
X379537151Y-97092020D01*
X379559329Y-97081530D01*
X379582429Y-97073265D01*
X379606227Y-97067304D01*
X379630496Y-97063704D01*
X379655000Y-97062500D01*
X380905000Y-97062500D01*
X380929504Y-97063704D01*
X380929504Y-97063704D01*
G37*
D12*
X380280000Y-97775000D03*
G04 #@! TD*
D10*
G04 #@! TO.C,SW29*
X195950000Y-32570000D03*
X209920000Y-30030000D03*
G04 #@! TD*
G04 #@! TO.C,SW30*
X215000000Y-32570000D03*
X228970000Y-30030000D03*
G04 #@! TD*
G04 #@! TO.C,SW32*
X267070000Y-30030000D03*
X253100000Y-32570000D03*
G04 #@! TD*
G04 #@! TO.C,SW33*
X272150000Y-32570000D03*
X286120000Y-30030000D03*
G04 #@! TD*
G04 #@! TO.C,SW36*
X329300000Y-32570000D03*
X343270000Y-30030000D03*
G04 #@! TD*
G04 #@! TO.C,SW37*
X219445000Y-49080000D03*
X205475000Y-51620000D03*
G04 #@! TD*
G04 #@! TO.C,SW38*
X238495000Y-49080000D03*
X224525000Y-51620000D03*
G04 #@! TD*
G04 #@! TO.C,SW40*
X276595000Y-49080000D03*
X262625000Y-51620000D03*
G04 #@! TD*
G04 #@! TO.C,SW42*
X314695000Y-49080000D03*
X300725000Y-51620000D03*
G04 #@! TD*
G04 #@! TO.C,SW41*
X281675000Y-51620000D03*
X295645000Y-49080000D03*
G04 #@! TD*
G04 #@! TO.C,SW43*
X333745000Y-49080000D03*
X319775000Y-51620000D03*
G04 #@! TD*
G04 #@! TO.C,SW45*
X224207000Y-68130000D03*
X210237000Y-70670000D03*
G04 #@! TD*
G04 #@! TO.C,SW46*
X229287000Y-70670000D03*
X243257000Y-68130000D03*
G04 #@! TD*
G04 #@! TO.C,SW48*
X281357000Y-68130000D03*
X267387000Y-70670000D03*
G04 #@! TD*
G04 #@! TO.C,SW49*
X300407000Y-68130000D03*
X286437000Y-70670000D03*
G04 #@! TD*
G04 #@! TO.C,SW50*
X305487000Y-70670000D03*
X319457000Y-68130000D03*
G04 #@! TD*
G04 #@! TO.C,SW47*
X248337000Y-70670000D03*
X262307000Y-68130000D03*
G04 #@! TD*
G04 #@! TO.C,SW51*
X350413400Y-68130000D03*
X336443400Y-70670000D03*
G04 #@! TD*
G04 #@! TO.C,SW53*
X200712000Y-89720000D03*
X214682000Y-87180000D03*
G04 #@! TD*
G04 #@! TO.C,SW54*
X233732000Y-87180000D03*
X219762000Y-89720000D03*
G04 #@! TD*
G04 #@! TO.C,SW56*
X257862000Y-89720000D03*
X271832000Y-87180000D03*
G04 #@! TD*
G04 #@! TO.C,SW57*
X290882000Y-87180000D03*
X276912000Y-89720000D03*
G04 #@! TD*
G04 #@! TO.C,SW58*
X295962000Y-89720000D03*
X309932000Y-87180000D03*
G04 #@! TD*
G04 #@! TO.C,SW52*
X348350000Y-32570000D03*
X362320000Y-30030000D03*
G04 #@! TD*
G04 #@! TO.C,SW59*
X345652000Y-87180000D03*
X331682000Y-89720000D03*
G04 #@! TD*
G04 #@! TO.C,SW55*
X238812000Y-89720000D03*
X252782000Y-87180000D03*
G04 #@! TD*
G04 #@! TO.C,SW44*
X357557500Y-49080000D03*
X343587500Y-51620000D03*
G04 #@! TD*
M02*
