M48
;DRILL file {KiCad (5.0.2)-1} date 2019/03/03 0:18:18
;FORMAT={3:3/ absolute / metric / suppress trailing zeros}
FMAT,2
METRIC,LZ
T1C1.200
T2C1.800
T3C2.200
T4C3.000
T5C3.050
T6C4.000
%
G90
G05
T1
X37578Y-06193
X38278Y-06193
T2
X208015Y-11131
X218174Y-11131
X35089Y-03511
X36105Y-03511
X25564Y-03511
X2658Y-03511
X298502Y-09226
X308662Y-09226
X284215Y-05416
X294375Y-05416
X241352Y-09226
X251512Y-09226
X338983Y-07321
X349143Y-07321
X250877Y-07321
X261037Y-07321
X203252Y-09226
X213412Y-09226
X308027Y-07321
X318187Y-07321
X212777Y-07321
X222937Y-07321
X279452Y-09226
X289612Y-09226
X23659Y-03511
X24675Y-03511
X227065Y-05416
X237225Y-05416
X28423Y-11131
X29439Y-11131
X288977Y-07321
X299137Y-07321
X231827Y-07321
X241987Y-07321
X260402Y-09226
X270562Y-09226
X222302Y-09226
X232462Y-09226
X31279Y-03511
X32295Y-03511
X34138Y-11131
X35154Y-11131
X346128Y-05416
X356287Y-05416
X269927Y-07321
X280087Y-07321
X265165Y-05416
X275325Y-05416
X322315Y-05416
X332475Y-05416
X208015Y-05416
X218175Y-05416
X21754Y-03511
X2277Y-03511
X303265Y-05416
X313425Y-05416
X27469Y-03511
X28485Y-03511
X246115Y-05416
X256275Y-05416
X29374Y-03511
X3039Y-03511
X248502Y-11131
X258662Y-11131
X32233Y-11131
X33249Y-11131
X33184Y-03511
X342Y-03511
X334222Y-09226
X344382Y-09226
X19849Y-03511
X20865Y-03511
X30328Y-11131
X31344Y-11131
T3
X20281Y-12184
X381083Y-08273
X38228Y-12184
X371083Y-08273
X19804Y-02459
X35828Y-02459
T4
X223572Y-08972
X229922Y-08718
X31406Y-03257
X32041Y-03003
X34265Y-10877
X349Y-10623
X347398Y-05162
X353748Y-04908
X271197Y-07067
X277547Y-06813
X266435Y-05162
X272785Y-04908
X323585Y-05162
X329935Y-04908
X209285Y-05162
X215635Y-04908
X21881Y-03257
X22516Y-03003
X304535Y-05162
X310885Y-04908
X27596Y-03257
X28231Y-03003
X247385Y-05162
X253735Y-04908
X29501Y-03257
X30136Y-03003
X249772Y-10877
X256122Y-10623
X3236Y-10877
X32995Y-10623
X33311Y-03257
X33946Y-03003
X335492Y-08972
X341842Y-08718
X19976Y-03257
X20611Y-03003
X30455Y-10877
X3109Y-10623
X209284Y-10877
X215635Y-10623
X35216Y-03257
X35851Y-03003
X25691Y-03257
X26326Y-03003
X299772Y-08972
X306122Y-08718
X285485Y-05162
X291835Y-04908
X242622Y-08972
X248972Y-08718
X340253Y-07067
X346603Y-06813
X252147Y-07067
X258497Y-06813
X204522Y-08972
X210872Y-08718
X309297Y-07067
X315647Y-06813
X214047Y-07067
X220397Y-06813
X280722Y-08972
X287072Y-08718
X23786Y-03257
X24421Y-03003
X228335Y-05162
X234685Y-04908
X2855Y-10877
X29185Y-10623
X290247Y-07067
X296597Y-06813
X233097Y-07067
X239447Y-06813
X261672Y-08972
X268022Y-08718
T5
X327402Y-08526
X351202Y-08526
X332163Y-06621
X355963Y-06621
T6
X332163Y-08145
X344063Y-07321
X355963Y-08145
X255957Y-07321
X208332Y-09226
X313107Y-07321
X217857Y-07321
X284532Y-09226
X24167Y-03511
X232145Y-05416
X28931Y-11131
X294057Y-07321
X236907Y-07321
X265482Y-09226
X227382Y-09226
X31787Y-03511
X34646Y-11131
X351208Y-05416
X275007Y-07321
X270245Y-05416
X327395Y-05416
X213095Y-05416
X22262Y-03511
X308345Y-05416
X27977Y-03511
X251195Y-05416
X29882Y-03511
X253582Y-11131
X32741Y-11131
X33692Y-03511
X327402Y-1005
X339302Y-09226
X351202Y-1005
X20357Y-03511
X30836Y-11131
X213094Y-11131
X35597Y-03511
X26072Y-03511
X303582Y-09226
X289295Y-05416
X246432Y-09226
T0
M30
