%FSLAX45Y45*%
G04 Gerber Fmt 4.5, Leading zero omitted, Abs format (unit mm)*
G04 Created by KiCad (PCBNEW (5.0.2)-1) date 2019/03/03 0:18:20*
%MOMM*%
%LPD*%
G01*
G04 APERTURE LIST*
%ADD10C,0.150000*%
%ADD11C,0.200000*%
%ADD12C,0.300000*%
G04 APERTURE END LIST*
D10*
X19404000Y-4459000D02*
X19881000Y-4459000D01*
X19404000Y-2059000D02*
X19404000Y-4459000D01*
X38628000Y-2059000D02*
X38628000Y-12584000D01*
X19881000Y-4459000D02*
X19881000Y-12584000D01*
X19881000Y-12584000D02*
X38628000Y-12584000D01*
X19404000Y-2059000D02*
X38628000Y-2059000D01*
D11*
X37518000Y-6133000D02*
X37638000Y-6253000D01*
X37638000Y-6133000D02*
X37518000Y-6253000D01*
X38218000Y-6133000D02*
X38338000Y-6253000D01*
X38338000Y-6133000D02*
X38218000Y-6253000D01*
X20891450Y-11131000D02*
G75*
G03X20891450Y-11131000I-90000J0D01*
G01*
X21907450Y-11131000D02*
G75*
G03X21907450Y-11131000I-90000J0D01*
G01*
X35179000Y-3511000D02*
G75*
G03X35179000Y-3511000I-90000J0D01*
G01*
X36195000Y-3511000D02*
G75*
G03X36195000Y-3511000I-90000J0D01*
G01*
X25654000Y-3511000D02*
G75*
G03X25654000Y-3511000I-90000J0D01*
G01*
X26670000Y-3511000D02*
G75*
G03X26670000Y-3511000I-90000J0D01*
G01*
X29940200Y-9226000D02*
G75*
G03X29940200Y-9226000I-90000J0D01*
G01*
X30956200Y-9226000D02*
G75*
G03X30956200Y-9226000I-90000J0D01*
G01*
X28511500Y-5416000D02*
G75*
G03X28511500Y-5416000I-90000J0D01*
G01*
X29527500Y-5416000D02*
G75*
G03X29527500Y-5416000I-90000J0D01*
G01*
X24225200Y-9226000D02*
G75*
G03X24225200Y-9226000I-90000J0D01*
G01*
X25241200Y-9226000D02*
G75*
G03X25241200Y-9226000I-90000J0D01*
G01*
X33988340Y-7321000D02*
G75*
G03X33988340Y-7321000I-90000J0D01*
G01*
X35004340Y-7321000D02*
G75*
G03X35004340Y-7321000I-90000J0D01*
G01*
X25177700Y-7321000D02*
G75*
G03X25177700Y-7321000I-90000J0D01*
G01*
X26193700Y-7321000D02*
G75*
G03X26193700Y-7321000I-90000J0D01*
G01*
X20415200Y-9226000D02*
G75*
G03X20415200Y-9226000I-90000J0D01*
G01*
X21431200Y-9226000D02*
G75*
G03X21431200Y-9226000I-90000J0D01*
G01*
X30892700Y-7321000D02*
G75*
G03X30892700Y-7321000I-90000J0D01*
G01*
X31908700Y-7321000D02*
G75*
G03X31908700Y-7321000I-90000J0D01*
G01*
X21367700Y-7321000D02*
G75*
G03X21367700Y-7321000I-90000J0D01*
G01*
X22383700Y-7321000D02*
G75*
G03X22383700Y-7321000I-90000J0D01*
G01*
X28035200Y-9226000D02*
G75*
G03X28035200Y-9226000I-90000J0D01*
G01*
X29051200Y-9226000D02*
G75*
G03X29051200Y-9226000I-90000J0D01*
G01*
X23749000Y-3511000D02*
G75*
G03X23749000Y-3511000I-90000J0D01*
G01*
X24765000Y-3511000D02*
G75*
G03X24765000Y-3511000I-90000J0D01*
G01*
X22796500Y-5416000D02*
G75*
G03X22796500Y-5416000I-90000J0D01*
G01*
X23812500Y-5416000D02*
G75*
G03X23812500Y-5416000I-90000J0D01*
G01*
X28512950Y-11131000D02*
G75*
G03X28512950Y-11131000I-90000J0D01*
G01*
X29528950Y-11131000D02*
G75*
G03X29528950Y-11131000I-90000J0D01*
G01*
X28987700Y-7321000D02*
G75*
G03X28987700Y-7321000I-90000J0D01*
G01*
X30003700Y-7321000D02*
G75*
G03X30003700Y-7321000I-90000J0D01*
G01*
X23272700Y-7321000D02*
G75*
G03X23272700Y-7321000I-90000J0D01*
G01*
X24288700Y-7321000D02*
G75*
G03X24288700Y-7321000I-90000J0D01*
G01*
X26130200Y-9226000D02*
G75*
G03X26130200Y-9226000I-90000J0D01*
G01*
X27146200Y-9226000D02*
G75*
G03X27146200Y-9226000I-90000J0D01*
G01*
X22320200Y-9226000D02*
G75*
G03X22320200Y-9226000I-90000J0D01*
G01*
X23336200Y-9226000D02*
G75*
G03X23336200Y-9226000I-90000J0D01*
G01*
X31369000Y-3511000D02*
G75*
G03X31369000Y-3511000I-90000J0D01*
G01*
X32385000Y-3511000D02*
G75*
G03X32385000Y-3511000I-90000J0D01*
G01*
X34227950Y-11131000D02*
G75*
G03X34227950Y-11131000I-90000J0D01*
G01*
X35243950Y-11131000D02*
G75*
G03X35243950Y-11131000I-90000J0D01*
G01*
X34702750Y-5416000D02*
G75*
G03X34702750Y-5416000I-90000J0D01*
G01*
X35718750Y-5416000D02*
G75*
G03X35718750Y-5416000I-90000J0D01*
G01*
X27082700Y-7321000D02*
G75*
G03X27082700Y-7321000I-90000J0D01*
G01*
X28098700Y-7321000D02*
G75*
G03X28098700Y-7321000I-90000J0D01*
G01*
X26606500Y-5416000D02*
G75*
G03X26606500Y-5416000I-90000J0D01*
G01*
X27622500Y-5416000D02*
G75*
G03X27622500Y-5416000I-90000J0D01*
G01*
X32321500Y-5416000D02*
G75*
G03X32321500Y-5416000I-90000J0D01*
G01*
X33337500Y-5416000D02*
G75*
G03X33337500Y-5416000I-90000J0D01*
G01*
X20891500Y-5416000D02*
G75*
G03X20891500Y-5416000I-90000J0D01*
G01*
X21907500Y-5416000D02*
G75*
G03X21907500Y-5416000I-90000J0D01*
G01*
X21844000Y-3511000D02*
G75*
G03X21844000Y-3511000I-90000J0D01*
G01*
X22860000Y-3511000D02*
G75*
G03X22860000Y-3511000I-90000J0D01*
G01*
X30416500Y-5416000D02*
G75*
G03X30416500Y-5416000I-90000J0D01*
G01*
X31432500Y-5416000D02*
G75*
G03X31432500Y-5416000I-90000J0D01*
G01*
X27559000Y-3511000D02*
G75*
G03X27559000Y-3511000I-90000J0D01*
G01*
X28575000Y-3511000D02*
G75*
G03X28575000Y-3511000I-90000J0D01*
G01*
X24701500Y-5416000D02*
G75*
G03X24701500Y-5416000I-90000J0D01*
G01*
X25717500Y-5416000D02*
G75*
G03X25717500Y-5416000I-90000J0D01*
G01*
X29464000Y-3511000D02*
G75*
G03X29464000Y-3511000I-90000J0D01*
G01*
X30480000Y-3511000D02*
G75*
G03X30480000Y-3511000I-90000J0D01*
G01*
X24940200Y-11131000D02*
G75*
G03X24940200Y-11131000I-90000J0D01*
G01*
X25956200Y-11131000D02*
G75*
G03X25956200Y-11131000I-90000J0D01*
G01*
X32322950Y-11131000D02*
G75*
G03X32322950Y-11131000I-90000J0D01*
G01*
X33338950Y-11131000D02*
G75*
G03X33338950Y-11131000I-90000J0D01*
G01*
X33274000Y-3511000D02*
G75*
G03X33274000Y-3511000I-90000J0D01*
G01*
X34290000Y-3511000D02*
G75*
G03X34290000Y-3511000I-90000J0D01*
G01*
X33512200Y-9226000D02*
G75*
G03X33512200Y-9226000I-90000J0D01*
G01*
X34528200Y-9226000D02*
G75*
G03X34528200Y-9226000I-90000J0D01*
G01*
X19939000Y-3511000D02*
G75*
G03X19939000Y-3511000I-90000J0D01*
G01*
X20955000Y-3511000D02*
G75*
G03X20955000Y-3511000I-90000J0D01*
G01*
X30417950Y-11131000D02*
G75*
G03X30417950Y-11131000I-90000J0D01*
G01*
X31433950Y-11131000D02*
G75*
G03X31433950Y-11131000I-90000J0D01*
G01*
X20281000Y-12074000D02*
X20281000Y-12294000D01*
X20171000Y-12184000D02*
X20391000Y-12184000D01*
X38108250Y-8163000D02*
X38108250Y-8383000D01*
X37998250Y-8273000D02*
X38218250Y-8273000D01*
X38228000Y-12074000D02*
X38228000Y-12294000D01*
X38118000Y-12184000D02*
X38338000Y-12184000D01*
X37108250Y-8163000D02*
X37108250Y-8383000D01*
X36998250Y-8273000D02*
X37218250Y-8273000D01*
X19804000Y-2349000D02*
X19804000Y-2569000D01*
X19694000Y-2459000D02*
X19914000Y-2459000D01*
X35828000Y-2349000D02*
X35828000Y-2569000D01*
X35718000Y-2459000D02*
X35938000Y-2459000D01*
X22463267Y-9078067D02*
X22463267Y-8865933D01*
X22251133Y-8865933D01*
X22251133Y-9078067D01*
X22463267Y-9078067D01*
X23098267Y-8824067D02*
X23098267Y-8611933D01*
X22886133Y-8611933D01*
X22886133Y-8824067D01*
X23098267Y-8824067D01*
X31512067Y-3363067D02*
X31512067Y-3150933D01*
X31299933Y-3150933D01*
X31299933Y-3363067D01*
X31512067Y-3363067D01*
X32147067Y-3109067D02*
X32147067Y-2896933D01*
X31934933Y-2896933D01*
X31934933Y-3109067D01*
X32147067Y-3109067D01*
X34371017Y-10983067D02*
X34371017Y-10770933D01*
X34158883Y-10770933D01*
X34158883Y-10983067D01*
X34371017Y-10983067D01*
X35006017Y-10729067D02*
X35006017Y-10516933D01*
X34793883Y-10516933D01*
X34793883Y-10729067D01*
X35006017Y-10729067D01*
X34845817Y-5268067D02*
X34845817Y-5055933D01*
X34633683Y-5055933D01*
X34633683Y-5268067D01*
X34845817Y-5268067D01*
X35480817Y-5014067D02*
X35480817Y-4801933D01*
X35268683Y-4801933D01*
X35268683Y-5014067D01*
X35480817Y-5014067D01*
X27225767Y-7173067D02*
X27225767Y-6960933D01*
X27013633Y-6960933D01*
X27013633Y-7173067D01*
X27225767Y-7173067D01*
X27860767Y-6919067D02*
X27860767Y-6706933D01*
X27648633Y-6706933D01*
X27648633Y-6919067D01*
X27860767Y-6919067D01*
X26749567Y-5268067D02*
X26749567Y-5055933D01*
X26537433Y-5055933D01*
X26537433Y-5268067D01*
X26749567Y-5268067D01*
X27384567Y-5014067D02*
X27384567Y-4801933D01*
X27172433Y-4801933D01*
X27172433Y-5014067D01*
X27384567Y-5014067D01*
X32464567Y-5268067D02*
X32464567Y-5055933D01*
X32252433Y-5055933D01*
X32252433Y-5268067D01*
X32464567Y-5268067D01*
X33099567Y-5014067D02*
X33099567Y-4801933D01*
X32887433Y-4801933D01*
X32887433Y-5014067D01*
X33099567Y-5014067D01*
X21034567Y-5268067D02*
X21034567Y-5055933D01*
X20822433Y-5055933D01*
X20822433Y-5268067D01*
X21034567Y-5268067D01*
X21669567Y-5014067D02*
X21669567Y-4801933D01*
X21457433Y-4801933D01*
X21457433Y-5014067D01*
X21669567Y-5014067D01*
X21987067Y-3363067D02*
X21987067Y-3150933D01*
X21774933Y-3150933D01*
X21774933Y-3363067D01*
X21987067Y-3363067D01*
X22622067Y-3109067D02*
X22622067Y-2896933D01*
X22409933Y-2896933D01*
X22409933Y-3109067D01*
X22622067Y-3109067D01*
X30559567Y-5268067D02*
X30559567Y-5055933D01*
X30347433Y-5055933D01*
X30347433Y-5268067D01*
X30559567Y-5268067D01*
X31194567Y-5014067D02*
X31194567Y-4801933D01*
X30982433Y-4801933D01*
X30982433Y-5014067D01*
X31194567Y-5014067D01*
X27702067Y-3363067D02*
X27702067Y-3150933D01*
X27489933Y-3150933D01*
X27489933Y-3363067D01*
X27702067Y-3363067D01*
X28337067Y-3109067D02*
X28337067Y-2896933D01*
X28124933Y-2896933D01*
X28124933Y-3109067D01*
X28337067Y-3109067D01*
X24844567Y-5268067D02*
X24844567Y-5055933D01*
X24632433Y-5055933D01*
X24632433Y-5268067D01*
X24844567Y-5268067D01*
X25479567Y-5014067D02*
X25479567Y-4801933D01*
X25267433Y-4801933D01*
X25267433Y-5014067D01*
X25479567Y-5014067D01*
X29607067Y-3363067D02*
X29607067Y-3150933D01*
X29394933Y-3150933D01*
X29394933Y-3363067D01*
X29607067Y-3363067D01*
X30242067Y-3109067D02*
X30242067Y-2896933D01*
X30029933Y-2896933D01*
X30029933Y-3109067D01*
X30242067Y-3109067D01*
X25083267Y-10983067D02*
X25083267Y-10770933D01*
X24871133Y-10770933D01*
X24871133Y-10983067D01*
X25083267Y-10983067D01*
X25718267Y-10729067D02*
X25718267Y-10516933D01*
X25506133Y-10516933D01*
X25506133Y-10729067D01*
X25718267Y-10729067D01*
X32466017Y-10983067D02*
X32466017Y-10770933D01*
X32253883Y-10770933D01*
X32253883Y-10983067D01*
X32466017Y-10983067D01*
X33101017Y-10729067D02*
X33101017Y-10516933D01*
X32888883Y-10516933D01*
X32888883Y-10729067D01*
X33101017Y-10729067D01*
X33417067Y-3363067D02*
X33417067Y-3150933D01*
X33204933Y-3150933D01*
X33204933Y-3363067D01*
X33417067Y-3363067D01*
X34052067Y-3109067D02*
X34052067Y-2896933D01*
X33839933Y-2896933D01*
X33839933Y-3109067D01*
X34052067Y-3109067D01*
X33655267Y-9078067D02*
X33655267Y-8865933D01*
X33443133Y-8865933D01*
X33443133Y-9078067D01*
X33655267Y-9078067D01*
X34290267Y-8824067D02*
X34290267Y-8611933D01*
X34078133Y-8611933D01*
X34078133Y-8824067D01*
X34290267Y-8824067D01*
X20082067Y-3363067D02*
X20082067Y-3150933D01*
X19869933Y-3150933D01*
X19869933Y-3363067D01*
X20082067Y-3363067D01*
X20717067Y-3109067D02*
X20717067Y-2896933D01*
X20504933Y-2896933D01*
X20504933Y-3109067D01*
X20717067Y-3109067D01*
X30561017Y-10983067D02*
X30561017Y-10770933D01*
X30348883Y-10770933D01*
X30348883Y-10983067D01*
X30561017Y-10983067D01*
X31196017Y-10729067D02*
X31196017Y-10516933D01*
X30983883Y-10516933D01*
X30983883Y-10729067D01*
X31196017Y-10729067D01*
X21034517Y-10983067D02*
X21034517Y-10770933D01*
X20822383Y-10770933D01*
X20822383Y-10983067D01*
X21034517Y-10983067D01*
X21669517Y-10729067D02*
X21669517Y-10516933D01*
X21457383Y-10516933D01*
X21457383Y-10729067D01*
X21669517Y-10729067D01*
X35322067Y-3363067D02*
X35322067Y-3150933D01*
X35109933Y-3150933D01*
X35109933Y-3363067D01*
X35322067Y-3363067D01*
X35957067Y-3109067D02*
X35957067Y-2896933D01*
X35744933Y-2896933D01*
X35744933Y-3109067D01*
X35957067Y-3109067D01*
X25797067Y-3363067D02*
X25797067Y-3150933D01*
X25584933Y-3150933D01*
X25584933Y-3363067D01*
X25797067Y-3363067D01*
X26432067Y-3109067D02*
X26432067Y-2896933D01*
X26219933Y-2896933D01*
X26219933Y-3109067D01*
X26432067Y-3109067D01*
X30083267Y-9078067D02*
X30083267Y-8865933D01*
X29871133Y-8865933D01*
X29871133Y-9078067D01*
X30083267Y-9078067D01*
X30718267Y-8824067D02*
X30718267Y-8611933D01*
X30506133Y-8611933D01*
X30506133Y-8824067D01*
X30718267Y-8824067D01*
X28654567Y-5268067D02*
X28654567Y-5055933D01*
X28442433Y-5055933D01*
X28442433Y-5268067D01*
X28654567Y-5268067D01*
X29289567Y-5014067D02*
X29289567Y-4801933D01*
X29077433Y-4801933D01*
X29077433Y-5014067D01*
X29289567Y-5014067D01*
X24368267Y-9078067D02*
X24368267Y-8865933D01*
X24156133Y-8865933D01*
X24156133Y-9078067D01*
X24368267Y-9078067D01*
X25003267Y-8824067D02*
X25003267Y-8611933D01*
X24791133Y-8611933D01*
X24791133Y-8824067D01*
X25003267Y-8824067D01*
X34131407Y-7173067D02*
X34131407Y-6960933D01*
X33919273Y-6960933D01*
X33919273Y-7173067D01*
X34131407Y-7173067D01*
X34766407Y-6919067D02*
X34766407Y-6706933D01*
X34554273Y-6706933D01*
X34554273Y-6919067D01*
X34766407Y-6919067D01*
X25320767Y-7173067D02*
X25320767Y-6960933D01*
X25108633Y-6960933D01*
X25108633Y-7173067D01*
X25320767Y-7173067D01*
X25955767Y-6919067D02*
X25955767Y-6706933D01*
X25743633Y-6706933D01*
X25743633Y-6919067D01*
X25955767Y-6919067D01*
X20558267Y-9078067D02*
X20558267Y-8865933D01*
X20346133Y-8865933D01*
X20346133Y-9078067D01*
X20558267Y-9078067D01*
X21193267Y-8824067D02*
X21193267Y-8611933D01*
X20981133Y-8611933D01*
X20981133Y-8824067D01*
X21193267Y-8824067D01*
X31035767Y-7173067D02*
X31035767Y-6960933D01*
X30823633Y-6960933D01*
X30823633Y-7173067D01*
X31035767Y-7173067D01*
X31670767Y-6919067D02*
X31670767Y-6706933D01*
X31458633Y-6706933D01*
X31458633Y-6919067D01*
X31670767Y-6919067D01*
X21510767Y-7173067D02*
X21510767Y-6960933D01*
X21298633Y-6960933D01*
X21298633Y-7173067D01*
X21510767Y-7173067D01*
X22145767Y-6919067D02*
X22145767Y-6706933D01*
X21933633Y-6706933D01*
X21933633Y-6919067D01*
X22145767Y-6919067D01*
X28178267Y-9078067D02*
X28178267Y-8865933D01*
X27966133Y-8865933D01*
X27966133Y-9078067D01*
X28178267Y-9078067D01*
X28813267Y-8824067D02*
X28813267Y-8611933D01*
X28601133Y-8611933D01*
X28601133Y-8824067D01*
X28813267Y-8824067D01*
X23892067Y-3363067D02*
X23892067Y-3150933D01*
X23679933Y-3150933D01*
X23679933Y-3363067D01*
X23892067Y-3363067D01*
X24527067Y-3109067D02*
X24527067Y-2896933D01*
X24314933Y-2896933D01*
X24314933Y-3109067D01*
X24527067Y-3109067D01*
X22939567Y-5268067D02*
X22939567Y-5055933D01*
X22727433Y-5055933D01*
X22727433Y-5268067D01*
X22939567Y-5268067D01*
X23574567Y-5014067D02*
X23574567Y-4801933D01*
X23362433Y-4801933D01*
X23362433Y-5014067D01*
X23574567Y-5014067D01*
X28656017Y-10983067D02*
X28656017Y-10770933D01*
X28443883Y-10770933D01*
X28443883Y-10983067D01*
X28656017Y-10983067D01*
X29291017Y-10729067D02*
X29291017Y-10516933D01*
X29078883Y-10516933D01*
X29078883Y-10729067D01*
X29291017Y-10729067D01*
X29130767Y-7173067D02*
X29130767Y-6960933D01*
X28918633Y-6960933D01*
X28918633Y-7173067D01*
X29130767Y-7173067D01*
X29765767Y-6919067D02*
X29765767Y-6706933D01*
X29553633Y-6706933D01*
X29553633Y-6919067D01*
X29765767Y-6919067D01*
X23415767Y-7173067D02*
X23415767Y-6960933D01*
X23203633Y-6960933D01*
X23203633Y-7173067D01*
X23415767Y-7173067D01*
X24050767Y-6919067D02*
X24050767Y-6706933D01*
X23838633Y-6706933D01*
X23838633Y-6919067D01*
X24050767Y-6919067D01*
X26273267Y-9078067D02*
X26273267Y-8865933D01*
X26061133Y-8865933D01*
X26061133Y-9078067D01*
X26273267Y-9078067D01*
X26908267Y-8824067D02*
X26908267Y-8611933D01*
X26696133Y-8611933D01*
X26696133Y-8824067D01*
X26908267Y-8824067D01*
X32740200Y-8678500D02*
X32892700Y-8526000D01*
X32740200Y-8373500D01*
X32587700Y-8526000D01*
X32740200Y-8678500D01*
X35120200Y-8678500D02*
X35272700Y-8526000D01*
X35120200Y-8373500D01*
X34967700Y-8526000D01*
X35120200Y-8678500D01*
X33216340Y-6773500D02*
X33368840Y-6621000D01*
X33216340Y-6468500D01*
X33063840Y-6621000D01*
X33216340Y-6773500D01*
X35596340Y-6773500D02*
X35748840Y-6621000D01*
X35596340Y-6468500D01*
X35443840Y-6621000D01*
X35596340Y-6773500D01*
X33016340Y-7945000D02*
X33416340Y-8345000D01*
X33416340Y-7945000D02*
X33016340Y-8345000D01*
X33416340Y-8145000D02*
G75*
G03X33416340Y-8145000I-200000J0D01*
G01*
X34206340Y-7121000D02*
X34606340Y-7521000D01*
X34606340Y-7121000D02*
X34206340Y-7521000D01*
X34606340Y-7321000D02*
G75*
G03X34606340Y-7321000I-200000J0D01*
G01*
X35396340Y-7945000D02*
X35796340Y-8345000D01*
X35796340Y-7945000D02*
X35396340Y-8345000D01*
X35796340Y-8145000D02*
G75*
G03X35796340Y-8145000I-200000J0D01*
G01*
X25395700Y-7121000D02*
X25795700Y-7521000D01*
X25795700Y-7121000D02*
X25395700Y-7521000D01*
X25795700Y-7321000D02*
G75*
G03X25795700Y-7321000I-200000J0D01*
G01*
X20633200Y-9026000D02*
X21033200Y-9426000D01*
X21033200Y-9026000D02*
X20633200Y-9426000D01*
X21033200Y-9226000D02*
G75*
G03X21033200Y-9226000I-200000J0D01*
G01*
X31110700Y-7121000D02*
X31510700Y-7521000D01*
X31510700Y-7121000D02*
X31110700Y-7521000D01*
X31510700Y-7321000D02*
G75*
G03X31510700Y-7321000I-200000J0D01*
G01*
X21585700Y-7121000D02*
X21985700Y-7521000D01*
X21985700Y-7121000D02*
X21585700Y-7521000D01*
X21985700Y-7321000D02*
G75*
G03X21985700Y-7321000I-200000J0D01*
G01*
X28253200Y-9026000D02*
X28653200Y-9426000D01*
X28653200Y-9026000D02*
X28253200Y-9426000D01*
X28653200Y-9226000D02*
G75*
G03X28653200Y-9226000I-200000J0D01*
G01*
X23967000Y-3311000D02*
X24367000Y-3711000D01*
X24367000Y-3311000D02*
X23967000Y-3711000D01*
X24367000Y-3511000D02*
G75*
G03X24367000Y-3511000I-200000J0D01*
G01*
X23014500Y-5216000D02*
X23414500Y-5616000D01*
X23414500Y-5216000D02*
X23014500Y-5616000D01*
X23414500Y-5416000D02*
G75*
G03X23414500Y-5416000I-200000J0D01*
G01*
X28730950Y-10931000D02*
X29130950Y-11331000D01*
X29130950Y-10931000D02*
X28730950Y-11331000D01*
X29130950Y-11131000D02*
G75*
G03X29130950Y-11131000I-200000J0D01*
G01*
X29205700Y-7121000D02*
X29605700Y-7521000D01*
X29605700Y-7121000D02*
X29205700Y-7521000D01*
X29605700Y-7321000D02*
G75*
G03X29605700Y-7321000I-200000J0D01*
G01*
X23490700Y-7121000D02*
X23890700Y-7521000D01*
X23890700Y-7121000D02*
X23490700Y-7521000D01*
X23890700Y-7321000D02*
G75*
G03X23890700Y-7321000I-200000J0D01*
G01*
X26348200Y-9026000D02*
X26748200Y-9426000D01*
X26748200Y-9026000D02*
X26348200Y-9426000D01*
X26748200Y-9226000D02*
G75*
G03X26748200Y-9226000I-200000J0D01*
G01*
X22538200Y-9026000D02*
X22938200Y-9426000D01*
X22938200Y-9026000D02*
X22538200Y-9426000D01*
X22938200Y-9226000D02*
G75*
G03X22938200Y-9226000I-200000J0D01*
G01*
X31587000Y-3311000D02*
X31987000Y-3711000D01*
X31987000Y-3311000D02*
X31587000Y-3711000D01*
X31987000Y-3511000D02*
G75*
G03X31987000Y-3511000I-200000J0D01*
G01*
X34445950Y-10931000D02*
X34845950Y-11331000D01*
X34845950Y-10931000D02*
X34445950Y-11331000D01*
X34845950Y-11131000D02*
G75*
G03X34845950Y-11131000I-200000J0D01*
G01*
X34920750Y-5216000D02*
X35320750Y-5616000D01*
X35320750Y-5216000D02*
X34920750Y-5616000D01*
X35320750Y-5416000D02*
G75*
G03X35320750Y-5416000I-200000J0D01*
G01*
X27300700Y-7121000D02*
X27700700Y-7521000D01*
X27700700Y-7121000D02*
X27300700Y-7521000D01*
X27700700Y-7321000D02*
G75*
G03X27700700Y-7321000I-200000J0D01*
G01*
X26824500Y-5216000D02*
X27224500Y-5616000D01*
X27224500Y-5216000D02*
X26824500Y-5616000D01*
X27224500Y-5416000D02*
G75*
G03X27224500Y-5416000I-200000J0D01*
G01*
X32539500Y-5216000D02*
X32939500Y-5616000D01*
X32939500Y-5216000D02*
X32539500Y-5616000D01*
X32939500Y-5416000D02*
G75*
G03X32939500Y-5416000I-200000J0D01*
G01*
X21109500Y-5216000D02*
X21509500Y-5616000D01*
X21509500Y-5216000D02*
X21109500Y-5616000D01*
X21509500Y-5416000D02*
G75*
G03X21509500Y-5416000I-200000J0D01*
G01*
X22062000Y-3311000D02*
X22462000Y-3711000D01*
X22462000Y-3311000D02*
X22062000Y-3711000D01*
X22462000Y-3511000D02*
G75*
G03X22462000Y-3511000I-200000J0D01*
G01*
X30634500Y-5216000D02*
X31034500Y-5616000D01*
X31034500Y-5216000D02*
X30634500Y-5616000D01*
X31034500Y-5416000D02*
G75*
G03X31034500Y-5416000I-200000J0D01*
G01*
X27777000Y-3311000D02*
X28177000Y-3711000D01*
X28177000Y-3311000D02*
X27777000Y-3711000D01*
X28177000Y-3511000D02*
G75*
G03X28177000Y-3511000I-200000J0D01*
G01*
X24919500Y-5216000D02*
X25319500Y-5616000D01*
X25319500Y-5216000D02*
X24919500Y-5616000D01*
X25319500Y-5416000D02*
G75*
G03X25319500Y-5416000I-200000J0D01*
G01*
X29682000Y-3311000D02*
X30082000Y-3711000D01*
X30082000Y-3311000D02*
X29682000Y-3711000D01*
X30082000Y-3511000D02*
G75*
G03X30082000Y-3511000I-200000J0D01*
G01*
X25158200Y-10931000D02*
X25558200Y-11331000D01*
X25558200Y-10931000D02*
X25158200Y-11331000D01*
X25558200Y-11131000D02*
G75*
G03X25558200Y-11131000I-200000J0D01*
G01*
X32540950Y-10931000D02*
X32940950Y-11331000D01*
X32940950Y-10931000D02*
X32540950Y-11331000D01*
X32940950Y-11131000D02*
G75*
G03X32940950Y-11131000I-200000J0D01*
G01*
X33492000Y-3311000D02*
X33892000Y-3711000D01*
X33892000Y-3311000D02*
X33492000Y-3711000D01*
X33892000Y-3511000D02*
G75*
G03X33892000Y-3511000I-200000J0D01*
G01*
X32540200Y-9850000D02*
X32940200Y-10250000D01*
X32940200Y-9850000D02*
X32540200Y-10250000D01*
X32940200Y-10050000D02*
G75*
G03X32940200Y-10050000I-200000J0D01*
G01*
X33730200Y-9026000D02*
X34130200Y-9426000D01*
X34130200Y-9026000D02*
X33730200Y-9426000D01*
X34130200Y-9226000D02*
G75*
G03X34130200Y-9226000I-200000J0D01*
G01*
X34920200Y-9850000D02*
X35320200Y-10250000D01*
X35320200Y-9850000D02*
X34920200Y-10250000D01*
X35320200Y-10050000D02*
G75*
G03X35320200Y-10050000I-200000J0D01*
G01*
X20157000Y-3311000D02*
X20557000Y-3711000D01*
X20557000Y-3311000D02*
X20157000Y-3711000D01*
X20557000Y-3511000D02*
G75*
G03X20557000Y-3511000I-200000J0D01*
G01*
X30635950Y-10931000D02*
X31035950Y-11331000D01*
X31035950Y-10931000D02*
X30635950Y-11331000D01*
X31035950Y-11131000D02*
G75*
G03X31035950Y-11131000I-200000J0D01*
G01*
X21109450Y-10931000D02*
X21509450Y-11331000D01*
X21509450Y-10931000D02*
X21109450Y-11331000D01*
X21509450Y-11131000D02*
G75*
G03X21509450Y-11131000I-200000J0D01*
G01*
X35397000Y-3311000D02*
X35797000Y-3711000D01*
X35797000Y-3311000D02*
X35397000Y-3711000D01*
X35797000Y-3511000D02*
G75*
G03X35797000Y-3511000I-200000J0D01*
G01*
X25872000Y-3311000D02*
X26272000Y-3711000D01*
X26272000Y-3311000D02*
X25872000Y-3711000D01*
X26272000Y-3511000D02*
G75*
G03X26272000Y-3511000I-200000J0D01*
G01*
X30158200Y-9026000D02*
X30558200Y-9426000D01*
X30558200Y-9026000D02*
X30158200Y-9426000D01*
X30558200Y-9226000D02*
G75*
G03X30558200Y-9226000I-200000J0D01*
G01*
X28729500Y-5216000D02*
X29129500Y-5616000D01*
X29129500Y-5216000D02*
X28729500Y-5616000D01*
X29129500Y-5416000D02*
G75*
G03X29129500Y-5416000I-200000J0D01*
G01*
X24443200Y-9026000D02*
X24843200Y-9426000D01*
X24843200Y-9026000D02*
X24443200Y-9426000D01*
X24843200Y-9226000D02*
G75*
G03X24843200Y-9226000I-200000J0D01*
G01*
D12*
X19682928Y-13057214D02*
X19682928Y-12757214D01*
X19754357Y-12757214D01*
X19797214Y-12771500D01*
X19825786Y-12800071D01*
X19840071Y-12828643D01*
X19854357Y-12885786D01*
X19854357Y-12928643D01*
X19840071Y-12985786D01*
X19825786Y-13014357D01*
X19797214Y-13042929D01*
X19754357Y-13057214D01*
X19682928Y-13057214D01*
X19982928Y-13057214D02*
X19982928Y-12857214D01*
X19982928Y-12914357D02*
X19997214Y-12885786D01*
X20011500Y-12871500D01*
X20040071Y-12857214D01*
X20068643Y-12857214D01*
X20168643Y-13057214D02*
X20168643Y-12857214D01*
X20168643Y-12757214D02*
X20154357Y-12771500D01*
X20168643Y-12785786D01*
X20182928Y-12771500D01*
X20168643Y-12757214D01*
X20168643Y-12785786D01*
X20354357Y-13057214D02*
X20325786Y-13042929D01*
X20311500Y-13014357D01*
X20311500Y-12757214D01*
X20511500Y-13057214D02*
X20482928Y-13042929D01*
X20468643Y-13014357D01*
X20468643Y-12757214D01*
X20854357Y-13057214D02*
X20854357Y-12757214D01*
X20954357Y-12971500D01*
X21054357Y-12757214D01*
X21054357Y-13057214D01*
X21325786Y-13057214D02*
X21325786Y-12900071D01*
X21311500Y-12871500D01*
X21282928Y-12857214D01*
X21225786Y-12857214D01*
X21197214Y-12871500D01*
X21325786Y-13042929D02*
X21297214Y-13057214D01*
X21225786Y-13057214D01*
X21197214Y-13042929D01*
X21182928Y-13014357D01*
X21182928Y-12985786D01*
X21197214Y-12957214D01*
X21225786Y-12942929D01*
X21297214Y-12942929D01*
X21325786Y-12928643D01*
X21468643Y-12857214D02*
X21468643Y-13157214D01*
X21468643Y-12871500D02*
X21497214Y-12857214D01*
X21554357Y-12857214D01*
X21582928Y-12871500D01*
X21597214Y-12885786D01*
X21611500Y-12914357D01*
X21611500Y-13000071D01*
X21597214Y-13028643D01*
X21582928Y-13042929D01*
X21554357Y-13057214D01*
X21497214Y-13057214D01*
X21468643Y-13042929D01*
X21740071Y-13028643D02*
X21754357Y-13042929D01*
X21740071Y-13057214D01*
X21725786Y-13042929D01*
X21740071Y-13028643D01*
X21740071Y-13057214D01*
X21740071Y-12871500D02*
X21754357Y-12885786D01*
X21740071Y-12900071D01*
X21725786Y-12885786D01*
X21740071Y-12871500D01*
X21740071Y-12900071D01*
X19276500Y-13491500D02*
X19396500Y-13611500D01*
X19396500Y-13491500D02*
X19276500Y-13611500D01*
X19840071Y-13687214D02*
X19668643Y-13687214D01*
X19754357Y-13687214D02*
X19754357Y-13387214D01*
X19725786Y-13430071D01*
X19697214Y-13458643D01*
X19668643Y-13472929D01*
X19968643Y-13658643D02*
X19982928Y-13672929D01*
X19968643Y-13687214D01*
X19954357Y-13672929D01*
X19968643Y-13658643D01*
X19968643Y-13687214D01*
X20097214Y-13415786D02*
X20111500Y-13401500D01*
X20140071Y-13387214D01*
X20211500Y-13387214D01*
X20240071Y-13401500D01*
X20254357Y-13415786D01*
X20268643Y-13444357D01*
X20268643Y-13472929D01*
X20254357Y-13515786D01*
X20082928Y-13687214D01*
X20268643Y-13687214D01*
X20454357Y-13387214D02*
X20482928Y-13387214D01*
X20511500Y-13401500D01*
X20525786Y-13415786D01*
X20540071Y-13444357D01*
X20554357Y-13501500D01*
X20554357Y-13572929D01*
X20540071Y-13630071D01*
X20525786Y-13658643D01*
X20511500Y-13672929D01*
X20482928Y-13687214D01*
X20454357Y-13687214D01*
X20425786Y-13672929D01*
X20411500Y-13658643D01*
X20397214Y-13630071D01*
X20382928Y-13572929D01*
X20382928Y-13501500D01*
X20397214Y-13444357D01*
X20411500Y-13415786D01*
X20425786Y-13401500D01*
X20454357Y-13387214D01*
X20682928Y-13687214D02*
X20682928Y-13487214D01*
X20682928Y-13515786D02*
X20697214Y-13501500D01*
X20725786Y-13487214D01*
X20768643Y-13487214D01*
X20797214Y-13501500D01*
X20811500Y-13530071D01*
X20811500Y-13687214D01*
X20811500Y-13530071D02*
X20825786Y-13501500D01*
X20854357Y-13487214D01*
X20897214Y-13487214D01*
X20925786Y-13501500D01*
X20940071Y-13530071D01*
X20940071Y-13687214D01*
X21082928Y-13687214D02*
X21082928Y-13487214D01*
X21082928Y-13515786D02*
X21097214Y-13501500D01*
X21125786Y-13487214D01*
X21168643Y-13487214D01*
X21197214Y-13501500D01*
X21211500Y-13530071D01*
X21211500Y-13687214D01*
X21211500Y-13530071D02*
X21225786Y-13501500D01*
X21254357Y-13487214D01*
X21297214Y-13487214D01*
X21325786Y-13501500D01*
X21340071Y-13530071D01*
X21340071Y-13687214D01*
X21925786Y-13372929D02*
X21668643Y-13758643D01*
X22311500Y-13387214D02*
X22340071Y-13387214D01*
X22368643Y-13401500D01*
X22382928Y-13415786D01*
X22397214Y-13444357D01*
X22411500Y-13501500D01*
X22411500Y-13572929D01*
X22397214Y-13630071D01*
X22382928Y-13658643D01*
X22368643Y-13672929D01*
X22340071Y-13687214D01*
X22311500Y-13687214D01*
X22282928Y-13672929D01*
X22268643Y-13658643D01*
X22254357Y-13630071D01*
X22240071Y-13572929D01*
X22240071Y-13501500D01*
X22254357Y-13444357D01*
X22268643Y-13415786D01*
X22282928Y-13401500D01*
X22311500Y-13387214D01*
X22540071Y-13658643D02*
X22554357Y-13672929D01*
X22540071Y-13687214D01*
X22525786Y-13672929D01*
X22540071Y-13658643D01*
X22540071Y-13687214D01*
X22740071Y-13387214D02*
X22768643Y-13387214D01*
X22797214Y-13401500D01*
X22811500Y-13415786D01*
X22825786Y-13444357D01*
X22840071Y-13501500D01*
X22840071Y-13572929D01*
X22825786Y-13630071D01*
X22811500Y-13658643D01*
X22797214Y-13672929D01*
X22768643Y-13687214D01*
X22740071Y-13687214D01*
X22711500Y-13672929D01*
X22697214Y-13658643D01*
X22682928Y-13630071D01*
X22668643Y-13572929D01*
X22668643Y-13501500D01*
X22682928Y-13444357D01*
X22697214Y-13415786D01*
X22711500Y-13401500D01*
X22740071Y-13387214D01*
X23097214Y-13487214D02*
X23097214Y-13687214D01*
X23025786Y-13372929D02*
X22954357Y-13587214D01*
X23140071Y-13587214D01*
X23225786Y-13387214D02*
X23425786Y-13387214D01*
X23297214Y-13687214D01*
X23525786Y-13387214D02*
X23525786Y-13444357D01*
X23640071Y-13387214D02*
X23640071Y-13444357D01*
X24082928Y-13801500D02*
X24068643Y-13787214D01*
X24040071Y-13744357D01*
X24025786Y-13715786D01*
X24011500Y-13672929D01*
X23997214Y-13601500D01*
X23997214Y-13544357D01*
X24011500Y-13472929D01*
X24025786Y-13430071D01*
X24040071Y-13401500D01*
X24068643Y-13358643D01*
X24082928Y-13344357D01*
X24182928Y-13415786D02*
X24197214Y-13401500D01*
X24225786Y-13387214D01*
X24297214Y-13387214D01*
X24325786Y-13401500D01*
X24340071Y-13415786D01*
X24354357Y-13444357D01*
X24354357Y-13472929D01*
X24340071Y-13515786D01*
X24168643Y-13687214D01*
X24354357Y-13687214D01*
X24711500Y-13687214D02*
X24711500Y-13387214D01*
X24840071Y-13687214D02*
X24840071Y-13530071D01*
X24825786Y-13501500D01*
X24797214Y-13487214D01*
X24754357Y-13487214D01*
X24725786Y-13501500D01*
X24711500Y-13515786D01*
X25025786Y-13687214D02*
X24997214Y-13672929D01*
X24982928Y-13658643D01*
X24968643Y-13630071D01*
X24968643Y-13544357D01*
X24982928Y-13515786D01*
X24997214Y-13501500D01*
X25025786Y-13487214D01*
X25068643Y-13487214D01*
X25097214Y-13501500D01*
X25111500Y-13515786D01*
X25125786Y-13544357D01*
X25125786Y-13630071D01*
X25111500Y-13658643D01*
X25097214Y-13672929D01*
X25068643Y-13687214D01*
X25025786Y-13687214D01*
X25297214Y-13687214D02*
X25268643Y-13672929D01*
X25254357Y-13644357D01*
X25254357Y-13387214D01*
X25525786Y-13672929D02*
X25497214Y-13687214D01*
X25440071Y-13687214D01*
X25411500Y-13672929D01*
X25397214Y-13644357D01*
X25397214Y-13530071D01*
X25411500Y-13501500D01*
X25440071Y-13487214D01*
X25497214Y-13487214D01*
X25525786Y-13501500D01*
X25540071Y-13530071D01*
X25540071Y-13558643D01*
X25397214Y-13587214D01*
X25654357Y-13672929D02*
X25682928Y-13687214D01*
X25740071Y-13687214D01*
X25768643Y-13672929D01*
X25782928Y-13644357D01*
X25782928Y-13630071D01*
X25768643Y-13601500D01*
X25740071Y-13587214D01*
X25697214Y-13587214D01*
X25668643Y-13572929D01*
X25654357Y-13544357D01*
X25654357Y-13530071D01*
X25668643Y-13501500D01*
X25697214Y-13487214D01*
X25740071Y-13487214D01*
X25768643Y-13501500D01*
X25882928Y-13801500D02*
X25897214Y-13787214D01*
X25925786Y-13744357D01*
X25940071Y-13715786D01*
X25954357Y-13672929D01*
X25968643Y-13601500D01*
X25968643Y-13544357D01*
X25954357Y-13472929D01*
X25940071Y-13430071D01*
X25925786Y-13401500D01*
X25897214Y-13358643D01*
X25882928Y-13344357D01*
X26425786Y-13801500D02*
X26411500Y-13787214D01*
X26382928Y-13744357D01*
X26368643Y-13715786D01*
X26354357Y-13672929D01*
X26340071Y-13601500D01*
X26340071Y-13544357D01*
X26354357Y-13472929D01*
X26368643Y-13430071D01*
X26382928Y-13401500D01*
X26411500Y-13358643D01*
X26425786Y-13344357D01*
X26540071Y-13487214D02*
X26540071Y-13687214D01*
X26540071Y-13515786D02*
X26554357Y-13501500D01*
X26582928Y-13487214D01*
X26625786Y-13487214D01*
X26654357Y-13501500D01*
X26668643Y-13530071D01*
X26668643Y-13687214D01*
X26854357Y-13687214D02*
X26825786Y-13672929D01*
X26811500Y-13658643D01*
X26797214Y-13630071D01*
X26797214Y-13544357D01*
X26811500Y-13515786D01*
X26825786Y-13501500D01*
X26854357Y-13487214D01*
X26897214Y-13487214D01*
X26925786Y-13501500D01*
X26940071Y-13515786D01*
X26954357Y-13544357D01*
X26954357Y-13630071D01*
X26940071Y-13658643D01*
X26925786Y-13672929D01*
X26897214Y-13687214D01*
X26854357Y-13687214D01*
X27040071Y-13487214D02*
X27154357Y-13487214D01*
X27082928Y-13387214D02*
X27082928Y-13644357D01*
X27097214Y-13672929D01*
X27125786Y-13687214D01*
X27154357Y-13687214D01*
X27482928Y-13487214D02*
X27482928Y-13787214D01*
X27482928Y-13501500D02*
X27511500Y-13487214D01*
X27568643Y-13487214D01*
X27597214Y-13501500D01*
X27611500Y-13515786D01*
X27625786Y-13544357D01*
X27625786Y-13630071D01*
X27611500Y-13658643D01*
X27597214Y-13672929D01*
X27568643Y-13687214D01*
X27511500Y-13687214D01*
X27482928Y-13672929D01*
X27797214Y-13687214D02*
X27768643Y-13672929D01*
X27754357Y-13644357D01*
X27754357Y-13387214D01*
X28040071Y-13687214D02*
X28040071Y-13530071D01*
X28025786Y-13501500D01*
X27997214Y-13487214D01*
X27940071Y-13487214D01*
X27911500Y-13501500D01*
X28040071Y-13672929D02*
X28011500Y-13687214D01*
X27940071Y-13687214D01*
X27911500Y-13672929D01*
X27897214Y-13644357D01*
X27897214Y-13615786D01*
X27911500Y-13587214D01*
X27940071Y-13572929D01*
X28011500Y-13572929D01*
X28040071Y-13558643D01*
X28140071Y-13487214D02*
X28254357Y-13487214D01*
X28182928Y-13387214D02*
X28182928Y-13644357D01*
X28197214Y-13672929D01*
X28225786Y-13687214D01*
X28254357Y-13687214D01*
X28468643Y-13672929D02*
X28440071Y-13687214D01*
X28382928Y-13687214D01*
X28354357Y-13672929D01*
X28340071Y-13644357D01*
X28340071Y-13530071D01*
X28354357Y-13501500D01*
X28382928Y-13487214D01*
X28440071Y-13487214D01*
X28468643Y-13501500D01*
X28482928Y-13530071D01*
X28482928Y-13558643D01*
X28340071Y-13587214D01*
X28740071Y-13687214D02*
X28740071Y-13387214D01*
X28740071Y-13672929D02*
X28711500Y-13687214D01*
X28654357Y-13687214D01*
X28625786Y-13672929D01*
X28611500Y-13658643D01*
X28597214Y-13630071D01*
X28597214Y-13544357D01*
X28611500Y-13515786D01*
X28625786Y-13501500D01*
X28654357Y-13487214D01*
X28711500Y-13487214D01*
X28740071Y-13501500D01*
X28854357Y-13801500D02*
X28868643Y-13787214D01*
X28897214Y-13744357D01*
X28911500Y-13715786D01*
X28925786Y-13672929D01*
X28940071Y-13601500D01*
X28940071Y-13544357D01*
X28925786Y-13472929D01*
X28911500Y-13430071D01*
X28897214Y-13401500D01*
X28868643Y-13358643D01*
X28854357Y-13344357D01*
X19396500Y-13947500D02*
G75*
G03X19396500Y-13947500I-90000J0D01*
G01*
X19840071Y-14083214D02*
X19668643Y-14083214D01*
X19754357Y-14083214D02*
X19754357Y-13783214D01*
X19725786Y-13826071D01*
X19697214Y-13854643D01*
X19668643Y-13868929D01*
X19968643Y-14054643D02*
X19982928Y-14068929D01*
X19968643Y-14083214D01*
X19954357Y-14068929D01*
X19968643Y-14054643D01*
X19968643Y-14083214D01*
X20154357Y-13911786D02*
X20125786Y-13897500D01*
X20111500Y-13883214D01*
X20097214Y-13854643D01*
X20097214Y-13840357D01*
X20111500Y-13811786D01*
X20125786Y-13797500D01*
X20154357Y-13783214D01*
X20211500Y-13783214D01*
X20240071Y-13797500D01*
X20254357Y-13811786D01*
X20268643Y-13840357D01*
X20268643Y-13854643D01*
X20254357Y-13883214D01*
X20240071Y-13897500D01*
X20211500Y-13911786D01*
X20154357Y-13911786D01*
X20125786Y-13926071D01*
X20111500Y-13940357D01*
X20097214Y-13968929D01*
X20097214Y-14026071D01*
X20111500Y-14054643D01*
X20125786Y-14068929D01*
X20154357Y-14083214D01*
X20211500Y-14083214D01*
X20240071Y-14068929D01*
X20254357Y-14054643D01*
X20268643Y-14026071D01*
X20268643Y-13968929D01*
X20254357Y-13940357D01*
X20240071Y-13926071D01*
X20211500Y-13911786D01*
X20454357Y-13783214D02*
X20482928Y-13783214D01*
X20511500Y-13797500D01*
X20525786Y-13811786D01*
X20540071Y-13840357D01*
X20554357Y-13897500D01*
X20554357Y-13968929D01*
X20540071Y-14026071D01*
X20525786Y-14054643D01*
X20511500Y-14068929D01*
X20482928Y-14083214D01*
X20454357Y-14083214D01*
X20425786Y-14068929D01*
X20411500Y-14054643D01*
X20397214Y-14026071D01*
X20382928Y-13968929D01*
X20382928Y-13897500D01*
X20397214Y-13840357D01*
X20411500Y-13811786D01*
X20425786Y-13797500D01*
X20454357Y-13783214D01*
X20682928Y-14083214D02*
X20682928Y-13883214D01*
X20682928Y-13911786D02*
X20697214Y-13897500D01*
X20725786Y-13883214D01*
X20768643Y-13883214D01*
X20797214Y-13897500D01*
X20811500Y-13926071D01*
X20811500Y-14083214D01*
X20811500Y-13926071D02*
X20825786Y-13897500D01*
X20854357Y-13883214D01*
X20897214Y-13883214D01*
X20925786Y-13897500D01*
X20940071Y-13926071D01*
X20940071Y-14083214D01*
X21082928Y-14083214D02*
X21082928Y-13883214D01*
X21082928Y-13911786D02*
X21097214Y-13897500D01*
X21125786Y-13883214D01*
X21168643Y-13883214D01*
X21197214Y-13897500D01*
X21211500Y-13926071D01*
X21211500Y-14083214D01*
X21211500Y-13926071D02*
X21225786Y-13897500D01*
X21254357Y-13883214D01*
X21297214Y-13883214D01*
X21325786Y-13897500D01*
X21340071Y-13926071D01*
X21340071Y-14083214D01*
X21925786Y-13768929D02*
X21668643Y-14154643D01*
X22311500Y-13783214D02*
X22340071Y-13783214D01*
X22368643Y-13797500D01*
X22382928Y-13811786D01*
X22397214Y-13840357D01*
X22411500Y-13897500D01*
X22411500Y-13968929D01*
X22397214Y-14026071D01*
X22382928Y-14054643D01*
X22368643Y-14068929D01*
X22340071Y-14083214D01*
X22311500Y-14083214D01*
X22282928Y-14068929D01*
X22268643Y-14054643D01*
X22254357Y-14026071D01*
X22240071Y-13968929D01*
X22240071Y-13897500D01*
X22254357Y-13840357D01*
X22268643Y-13811786D01*
X22282928Y-13797500D01*
X22311500Y-13783214D01*
X22540071Y-14054643D02*
X22554357Y-14068929D01*
X22540071Y-14083214D01*
X22525786Y-14068929D01*
X22540071Y-14054643D01*
X22540071Y-14083214D01*
X22740071Y-13783214D02*
X22768643Y-13783214D01*
X22797214Y-13797500D01*
X22811500Y-13811786D01*
X22825786Y-13840357D01*
X22840071Y-13897500D01*
X22840071Y-13968929D01*
X22825786Y-14026071D01*
X22811500Y-14054643D01*
X22797214Y-14068929D01*
X22768643Y-14083214D01*
X22740071Y-14083214D01*
X22711500Y-14068929D01*
X22697214Y-14054643D01*
X22682928Y-14026071D01*
X22668643Y-13968929D01*
X22668643Y-13897500D01*
X22682928Y-13840357D01*
X22697214Y-13811786D01*
X22711500Y-13797500D01*
X22740071Y-13783214D01*
X22940071Y-13783214D02*
X23140071Y-13783214D01*
X23011500Y-14083214D01*
X23411500Y-14083214D02*
X23240071Y-14083214D01*
X23325786Y-14083214D02*
X23325786Y-13783214D01*
X23297214Y-13826071D01*
X23268643Y-13854643D01*
X23240071Y-13868929D01*
X23525786Y-13783214D02*
X23525786Y-13840357D01*
X23640071Y-13783214D02*
X23640071Y-13840357D01*
X24082928Y-14197500D02*
X24068643Y-14183214D01*
X24040071Y-14140357D01*
X24025786Y-14111786D01*
X24011500Y-14068929D01*
X23997214Y-13997500D01*
X23997214Y-13940357D01*
X24011500Y-13868929D01*
X24025786Y-13826071D01*
X24040071Y-13797500D01*
X24068643Y-13754643D01*
X24082928Y-13740357D01*
X24168643Y-13783214D02*
X24368643Y-13783214D01*
X24240071Y-14083214D01*
X24611500Y-13883214D02*
X24611500Y-14083214D01*
X24540071Y-13768929D02*
X24468643Y-13983214D01*
X24654357Y-13983214D01*
X24997214Y-14083214D02*
X24997214Y-13783214D01*
X25125786Y-14083214D02*
X25125786Y-13926071D01*
X25111500Y-13897500D01*
X25082928Y-13883214D01*
X25040071Y-13883214D01*
X25011500Y-13897500D01*
X24997214Y-13911786D01*
X25311500Y-14083214D02*
X25282928Y-14068929D01*
X25268643Y-14054643D01*
X25254357Y-14026071D01*
X25254357Y-13940357D01*
X25268643Y-13911786D01*
X25282928Y-13897500D01*
X25311500Y-13883214D01*
X25354357Y-13883214D01*
X25382928Y-13897500D01*
X25397214Y-13911786D01*
X25411500Y-13940357D01*
X25411500Y-14026071D01*
X25397214Y-14054643D01*
X25382928Y-14068929D01*
X25354357Y-14083214D01*
X25311500Y-14083214D01*
X25582928Y-14083214D02*
X25554357Y-14068929D01*
X25540071Y-14040357D01*
X25540071Y-13783214D01*
X25811500Y-14068929D02*
X25782928Y-14083214D01*
X25725786Y-14083214D01*
X25697214Y-14068929D01*
X25682928Y-14040357D01*
X25682928Y-13926071D01*
X25697214Y-13897500D01*
X25725786Y-13883214D01*
X25782928Y-13883214D01*
X25811500Y-13897500D01*
X25825786Y-13926071D01*
X25825786Y-13954643D01*
X25682928Y-13983214D01*
X25940071Y-14068929D02*
X25968643Y-14083214D01*
X26025786Y-14083214D01*
X26054357Y-14068929D01*
X26068643Y-14040357D01*
X26068643Y-14026071D01*
X26054357Y-13997500D01*
X26025786Y-13983214D01*
X25982928Y-13983214D01*
X25954357Y-13968929D01*
X25940071Y-13940357D01*
X25940071Y-13926071D01*
X25954357Y-13897500D01*
X25982928Y-13883214D01*
X26025786Y-13883214D01*
X26054357Y-13897500D01*
X26168643Y-14197500D02*
X26182928Y-14183214D01*
X26211500Y-14140357D01*
X26225786Y-14111786D01*
X26240071Y-14068929D01*
X26254357Y-13997500D01*
X26254357Y-13940357D01*
X26240071Y-13868929D01*
X26225786Y-13826071D01*
X26211500Y-13797500D01*
X26182928Y-13754643D01*
X26168643Y-13740357D01*
X26711500Y-14197500D02*
X26697214Y-14183214D01*
X26668643Y-14140357D01*
X26654357Y-14111786D01*
X26640071Y-14068929D01*
X26625786Y-13997500D01*
X26625786Y-13940357D01*
X26640071Y-13868929D01*
X26654357Y-13826071D01*
X26668643Y-13797500D01*
X26697214Y-13754643D01*
X26711500Y-13740357D01*
X26825786Y-13883214D02*
X26825786Y-14083214D01*
X26825786Y-13911786D02*
X26840071Y-13897500D01*
X26868643Y-13883214D01*
X26911500Y-13883214D01*
X26940071Y-13897500D01*
X26954357Y-13926071D01*
X26954357Y-14083214D01*
X27140071Y-14083214D02*
X27111500Y-14068929D01*
X27097214Y-14054643D01*
X27082928Y-14026071D01*
X27082928Y-13940357D01*
X27097214Y-13911786D01*
X27111500Y-13897500D01*
X27140071Y-13883214D01*
X27182928Y-13883214D01*
X27211500Y-13897500D01*
X27225786Y-13911786D01*
X27240071Y-13940357D01*
X27240071Y-14026071D01*
X27225786Y-14054643D01*
X27211500Y-14068929D01*
X27182928Y-14083214D01*
X27140071Y-14083214D01*
X27325786Y-13883214D02*
X27440071Y-13883214D01*
X27368643Y-13783214D02*
X27368643Y-14040357D01*
X27382928Y-14068929D01*
X27411500Y-14083214D01*
X27440071Y-14083214D01*
X27768643Y-13883214D02*
X27768643Y-14183214D01*
X27768643Y-13897500D02*
X27797214Y-13883214D01*
X27854357Y-13883214D01*
X27882928Y-13897500D01*
X27897214Y-13911786D01*
X27911500Y-13940357D01*
X27911500Y-14026071D01*
X27897214Y-14054643D01*
X27882928Y-14068929D01*
X27854357Y-14083214D01*
X27797214Y-14083214D01*
X27768643Y-14068929D01*
X28082928Y-14083214D02*
X28054357Y-14068929D01*
X28040071Y-14040357D01*
X28040071Y-13783214D01*
X28325786Y-14083214D02*
X28325786Y-13926071D01*
X28311500Y-13897500D01*
X28282928Y-13883214D01*
X28225786Y-13883214D01*
X28197214Y-13897500D01*
X28325786Y-14068929D02*
X28297214Y-14083214D01*
X28225786Y-14083214D01*
X28197214Y-14068929D01*
X28182928Y-14040357D01*
X28182928Y-14011786D01*
X28197214Y-13983214D01*
X28225786Y-13968929D01*
X28297214Y-13968929D01*
X28325786Y-13954643D01*
X28425786Y-13883214D02*
X28540071Y-13883214D01*
X28468643Y-13783214D02*
X28468643Y-14040357D01*
X28482928Y-14068929D01*
X28511500Y-14083214D01*
X28540071Y-14083214D01*
X28754357Y-14068929D02*
X28725786Y-14083214D01*
X28668643Y-14083214D01*
X28640071Y-14068929D01*
X28625786Y-14040357D01*
X28625786Y-13926071D01*
X28640071Y-13897500D01*
X28668643Y-13883214D01*
X28725786Y-13883214D01*
X28754357Y-13897500D01*
X28768643Y-13926071D01*
X28768643Y-13954643D01*
X28625786Y-13983214D01*
X29025786Y-14083214D02*
X29025786Y-13783214D01*
X29025786Y-14068929D02*
X28997214Y-14083214D01*
X28940071Y-14083214D01*
X28911500Y-14068929D01*
X28897214Y-14054643D01*
X28882928Y-14026071D01*
X28882928Y-13940357D01*
X28897214Y-13911786D01*
X28911500Y-13897500D01*
X28940071Y-13883214D01*
X28997214Y-13883214D01*
X29025786Y-13897500D01*
X29140071Y-14197500D02*
X29154357Y-14183214D01*
X29182928Y-14140357D01*
X29197214Y-14111786D01*
X29211500Y-14068929D01*
X29225786Y-13997500D01*
X29225786Y-13940357D01*
X29211500Y-13868929D01*
X29197214Y-13826071D01*
X29182928Y-13797500D01*
X29154357Y-13754643D01*
X29140071Y-13740357D01*
X19286500Y-14233500D02*
X19286500Y-14453500D01*
X19176500Y-14343500D02*
X19396500Y-14343500D01*
X19668643Y-14207786D02*
X19682928Y-14193500D01*
X19711500Y-14179214D01*
X19782928Y-14179214D01*
X19811500Y-14193500D01*
X19825786Y-14207786D01*
X19840071Y-14236357D01*
X19840071Y-14264929D01*
X19825786Y-14307786D01*
X19654357Y-14479214D01*
X19840071Y-14479214D01*
X19968643Y-14450643D02*
X19982928Y-14464929D01*
X19968643Y-14479214D01*
X19954357Y-14464929D01*
X19968643Y-14450643D01*
X19968643Y-14479214D01*
X20097214Y-14207786D02*
X20111500Y-14193500D01*
X20140071Y-14179214D01*
X20211500Y-14179214D01*
X20240071Y-14193500D01*
X20254357Y-14207786D01*
X20268643Y-14236357D01*
X20268643Y-14264929D01*
X20254357Y-14307786D01*
X20082928Y-14479214D01*
X20268643Y-14479214D01*
X20454357Y-14179214D02*
X20482928Y-14179214D01*
X20511500Y-14193500D01*
X20525786Y-14207786D01*
X20540071Y-14236357D01*
X20554357Y-14293500D01*
X20554357Y-14364929D01*
X20540071Y-14422071D01*
X20525786Y-14450643D01*
X20511500Y-14464929D01*
X20482928Y-14479214D01*
X20454357Y-14479214D01*
X20425786Y-14464929D01*
X20411500Y-14450643D01*
X20397214Y-14422071D01*
X20382928Y-14364929D01*
X20382928Y-14293500D01*
X20397214Y-14236357D01*
X20411500Y-14207786D01*
X20425786Y-14193500D01*
X20454357Y-14179214D01*
X20682928Y-14479214D02*
X20682928Y-14279214D01*
X20682928Y-14307786D02*
X20697214Y-14293500D01*
X20725786Y-14279214D01*
X20768643Y-14279214D01*
X20797214Y-14293500D01*
X20811500Y-14322071D01*
X20811500Y-14479214D01*
X20811500Y-14322071D02*
X20825786Y-14293500D01*
X20854357Y-14279214D01*
X20897214Y-14279214D01*
X20925786Y-14293500D01*
X20940071Y-14322071D01*
X20940071Y-14479214D01*
X21082928Y-14479214D02*
X21082928Y-14279214D01*
X21082928Y-14307786D02*
X21097214Y-14293500D01*
X21125786Y-14279214D01*
X21168643Y-14279214D01*
X21197214Y-14293500D01*
X21211500Y-14322071D01*
X21211500Y-14479214D01*
X21211500Y-14322071D02*
X21225786Y-14293500D01*
X21254357Y-14279214D01*
X21297214Y-14279214D01*
X21325786Y-14293500D01*
X21340071Y-14322071D01*
X21340071Y-14479214D01*
X21925786Y-14164929D02*
X21668643Y-14550643D01*
X22311500Y-14179214D02*
X22340071Y-14179214D01*
X22368643Y-14193500D01*
X22382928Y-14207786D01*
X22397214Y-14236357D01*
X22411500Y-14293500D01*
X22411500Y-14364929D01*
X22397214Y-14422071D01*
X22382928Y-14450643D01*
X22368643Y-14464929D01*
X22340071Y-14479214D01*
X22311500Y-14479214D01*
X22282928Y-14464929D01*
X22268643Y-14450643D01*
X22254357Y-14422071D01*
X22240071Y-14364929D01*
X22240071Y-14293500D01*
X22254357Y-14236357D01*
X22268643Y-14207786D01*
X22282928Y-14193500D01*
X22311500Y-14179214D01*
X22540071Y-14450643D02*
X22554357Y-14464929D01*
X22540071Y-14479214D01*
X22525786Y-14464929D01*
X22540071Y-14450643D01*
X22540071Y-14479214D01*
X22740071Y-14179214D02*
X22768643Y-14179214D01*
X22797214Y-14193500D01*
X22811500Y-14207786D01*
X22825786Y-14236357D01*
X22840071Y-14293500D01*
X22840071Y-14364929D01*
X22825786Y-14422071D01*
X22811500Y-14450643D01*
X22797214Y-14464929D01*
X22768643Y-14479214D01*
X22740071Y-14479214D01*
X22711500Y-14464929D01*
X22697214Y-14450643D01*
X22682928Y-14422071D01*
X22668643Y-14364929D01*
X22668643Y-14293500D01*
X22682928Y-14236357D01*
X22697214Y-14207786D01*
X22711500Y-14193500D01*
X22740071Y-14179214D01*
X23011500Y-14307786D02*
X22982928Y-14293500D01*
X22968643Y-14279214D01*
X22954357Y-14250643D01*
X22954357Y-14236357D01*
X22968643Y-14207786D01*
X22982928Y-14193500D01*
X23011500Y-14179214D01*
X23068643Y-14179214D01*
X23097214Y-14193500D01*
X23111500Y-14207786D01*
X23125786Y-14236357D01*
X23125786Y-14250643D01*
X23111500Y-14279214D01*
X23097214Y-14293500D01*
X23068643Y-14307786D01*
X23011500Y-14307786D01*
X22982928Y-14322071D01*
X22968643Y-14336357D01*
X22954357Y-14364929D01*
X22954357Y-14422071D01*
X22968643Y-14450643D01*
X22982928Y-14464929D01*
X23011500Y-14479214D01*
X23068643Y-14479214D01*
X23097214Y-14464929D01*
X23111500Y-14450643D01*
X23125786Y-14422071D01*
X23125786Y-14364929D01*
X23111500Y-14336357D01*
X23097214Y-14322071D01*
X23068643Y-14307786D01*
X23225786Y-14179214D02*
X23425786Y-14179214D01*
X23297214Y-14479214D01*
X23525786Y-14179214D02*
X23525786Y-14236357D01*
X23640071Y-14179214D02*
X23640071Y-14236357D01*
X24082928Y-14593500D02*
X24068643Y-14579214D01*
X24040071Y-14536357D01*
X24025786Y-14507786D01*
X24011500Y-14464929D01*
X23997214Y-14393500D01*
X23997214Y-14336357D01*
X24011500Y-14264929D01*
X24025786Y-14222071D01*
X24040071Y-14193500D01*
X24068643Y-14150643D01*
X24082928Y-14136357D01*
X24325786Y-14179214D02*
X24268643Y-14179214D01*
X24240071Y-14193500D01*
X24225786Y-14207786D01*
X24197214Y-14250643D01*
X24182928Y-14307786D01*
X24182928Y-14422071D01*
X24197214Y-14450643D01*
X24211500Y-14464929D01*
X24240071Y-14479214D01*
X24297214Y-14479214D01*
X24325786Y-14464929D01*
X24340071Y-14450643D01*
X24354357Y-14422071D01*
X24354357Y-14350643D01*
X24340071Y-14322071D01*
X24325786Y-14307786D01*
X24297214Y-14293500D01*
X24240071Y-14293500D01*
X24211500Y-14307786D01*
X24197214Y-14322071D01*
X24182928Y-14350643D01*
X24711500Y-14479214D02*
X24711500Y-14179214D01*
X24840071Y-14479214D02*
X24840071Y-14322071D01*
X24825786Y-14293500D01*
X24797214Y-14279214D01*
X24754357Y-14279214D01*
X24725786Y-14293500D01*
X24711500Y-14307786D01*
X25025786Y-14479214D02*
X24997214Y-14464929D01*
X24982928Y-14450643D01*
X24968643Y-14422071D01*
X24968643Y-14336357D01*
X24982928Y-14307786D01*
X24997214Y-14293500D01*
X25025786Y-14279214D01*
X25068643Y-14279214D01*
X25097214Y-14293500D01*
X25111500Y-14307786D01*
X25125786Y-14336357D01*
X25125786Y-14422071D01*
X25111500Y-14450643D01*
X25097214Y-14464929D01*
X25068643Y-14479214D01*
X25025786Y-14479214D01*
X25297214Y-14479214D02*
X25268643Y-14464929D01*
X25254357Y-14436357D01*
X25254357Y-14179214D01*
X25525786Y-14464929D02*
X25497214Y-14479214D01*
X25440071Y-14479214D01*
X25411500Y-14464929D01*
X25397214Y-14436357D01*
X25397214Y-14322071D01*
X25411500Y-14293500D01*
X25440071Y-14279214D01*
X25497214Y-14279214D01*
X25525786Y-14293500D01*
X25540071Y-14322071D01*
X25540071Y-14350643D01*
X25397214Y-14379214D01*
X25654357Y-14464929D02*
X25682928Y-14479214D01*
X25740071Y-14479214D01*
X25768643Y-14464929D01*
X25782928Y-14436357D01*
X25782928Y-14422071D01*
X25768643Y-14393500D01*
X25740071Y-14379214D01*
X25697214Y-14379214D01*
X25668643Y-14364929D01*
X25654357Y-14336357D01*
X25654357Y-14322071D01*
X25668643Y-14293500D01*
X25697214Y-14279214D01*
X25740071Y-14279214D01*
X25768643Y-14293500D01*
X25882928Y-14593500D02*
X25897214Y-14579214D01*
X25925786Y-14536357D01*
X25940071Y-14507786D01*
X25954357Y-14464929D01*
X25968643Y-14393500D01*
X25968643Y-14336357D01*
X25954357Y-14264929D01*
X25940071Y-14222071D01*
X25925786Y-14193500D01*
X25897214Y-14150643D01*
X25882928Y-14136357D01*
X26425786Y-14593500D02*
X26411500Y-14579214D01*
X26382928Y-14536357D01*
X26368643Y-14507786D01*
X26354357Y-14464929D01*
X26340071Y-14393500D01*
X26340071Y-14336357D01*
X26354357Y-14264929D01*
X26368643Y-14222071D01*
X26382928Y-14193500D01*
X26411500Y-14150643D01*
X26425786Y-14136357D01*
X26540071Y-14279214D02*
X26540071Y-14479214D01*
X26540071Y-14307786D02*
X26554357Y-14293500D01*
X26582928Y-14279214D01*
X26625786Y-14279214D01*
X26654357Y-14293500D01*
X26668643Y-14322071D01*
X26668643Y-14479214D01*
X26854357Y-14479214D02*
X26825786Y-14464929D01*
X26811500Y-14450643D01*
X26797214Y-14422071D01*
X26797214Y-14336357D01*
X26811500Y-14307786D01*
X26825786Y-14293500D01*
X26854357Y-14279214D01*
X26897214Y-14279214D01*
X26925786Y-14293500D01*
X26940071Y-14307786D01*
X26954357Y-14336357D01*
X26954357Y-14422071D01*
X26940071Y-14450643D01*
X26925786Y-14464929D01*
X26897214Y-14479214D01*
X26854357Y-14479214D01*
X27040071Y-14279214D02*
X27154357Y-14279214D01*
X27082928Y-14179214D02*
X27082928Y-14436357D01*
X27097214Y-14464929D01*
X27125786Y-14479214D01*
X27154357Y-14479214D01*
X27482928Y-14279214D02*
X27482928Y-14579214D01*
X27482928Y-14293500D02*
X27511500Y-14279214D01*
X27568643Y-14279214D01*
X27597214Y-14293500D01*
X27611500Y-14307786D01*
X27625786Y-14336357D01*
X27625786Y-14422071D01*
X27611500Y-14450643D01*
X27597214Y-14464929D01*
X27568643Y-14479214D01*
X27511500Y-14479214D01*
X27482928Y-14464929D01*
X27797214Y-14479214D02*
X27768643Y-14464929D01*
X27754357Y-14436357D01*
X27754357Y-14179214D01*
X28040071Y-14479214D02*
X28040071Y-14322071D01*
X28025786Y-14293500D01*
X27997214Y-14279214D01*
X27940071Y-14279214D01*
X27911500Y-14293500D01*
X28040071Y-14464929D02*
X28011500Y-14479214D01*
X27940071Y-14479214D01*
X27911500Y-14464929D01*
X27897214Y-14436357D01*
X27897214Y-14407786D01*
X27911500Y-14379214D01*
X27940071Y-14364929D01*
X28011500Y-14364929D01*
X28040071Y-14350643D01*
X28140071Y-14279214D02*
X28254357Y-14279214D01*
X28182928Y-14179214D02*
X28182928Y-14436357D01*
X28197214Y-14464929D01*
X28225786Y-14479214D01*
X28254357Y-14479214D01*
X28468643Y-14464929D02*
X28440071Y-14479214D01*
X28382928Y-14479214D01*
X28354357Y-14464929D01*
X28340071Y-14436357D01*
X28340071Y-14322071D01*
X28354357Y-14293500D01*
X28382928Y-14279214D01*
X28440071Y-14279214D01*
X28468643Y-14293500D01*
X28482928Y-14322071D01*
X28482928Y-14350643D01*
X28340071Y-14379214D01*
X28740071Y-14479214D02*
X28740071Y-14179214D01*
X28740071Y-14464929D02*
X28711500Y-14479214D01*
X28654357Y-14479214D01*
X28625786Y-14464929D01*
X28611500Y-14450643D01*
X28597214Y-14422071D01*
X28597214Y-14336357D01*
X28611500Y-14307786D01*
X28625786Y-14293500D01*
X28654357Y-14279214D01*
X28711500Y-14279214D01*
X28740071Y-14293500D01*
X28854357Y-14593500D02*
X28868643Y-14579214D01*
X28897214Y-14536357D01*
X28911500Y-14507786D01*
X28925786Y-14464929D01*
X28940071Y-14393500D01*
X28940071Y-14336357D01*
X28925786Y-14264929D01*
X28911500Y-14222071D01*
X28897214Y-14193500D01*
X28868643Y-14150643D01*
X28854357Y-14136357D01*
X19352567Y-14845567D02*
X19352567Y-14633433D01*
X19140433Y-14633433D01*
X19140433Y-14845567D01*
X19352567Y-14845567D01*
X19654357Y-14575214D02*
X19840071Y-14575214D01*
X19740071Y-14689500D01*
X19782928Y-14689500D01*
X19811500Y-14703786D01*
X19825786Y-14718071D01*
X19840071Y-14746643D01*
X19840071Y-14818071D01*
X19825786Y-14846643D01*
X19811500Y-14860929D01*
X19782928Y-14875214D01*
X19697214Y-14875214D01*
X19668643Y-14860929D01*
X19654357Y-14846643D01*
X19968643Y-14846643D02*
X19982928Y-14860929D01*
X19968643Y-14875214D01*
X19954357Y-14860929D01*
X19968643Y-14846643D01*
X19968643Y-14875214D01*
X20168643Y-14575214D02*
X20197214Y-14575214D01*
X20225786Y-14589500D01*
X20240071Y-14603786D01*
X20254357Y-14632357D01*
X20268643Y-14689500D01*
X20268643Y-14760929D01*
X20254357Y-14818071D01*
X20240071Y-14846643D01*
X20225786Y-14860929D01*
X20197214Y-14875214D01*
X20168643Y-14875214D01*
X20140071Y-14860929D01*
X20125786Y-14846643D01*
X20111500Y-14818071D01*
X20097214Y-14760929D01*
X20097214Y-14689500D01*
X20111500Y-14632357D01*
X20125786Y-14603786D01*
X20140071Y-14589500D01*
X20168643Y-14575214D01*
X20454357Y-14575214D02*
X20482928Y-14575214D01*
X20511500Y-14589500D01*
X20525786Y-14603786D01*
X20540071Y-14632357D01*
X20554357Y-14689500D01*
X20554357Y-14760929D01*
X20540071Y-14818071D01*
X20525786Y-14846643D01*
X20511500Y-14860929D01*
X20482928Y-14875214D01*
X20454357Y-14875214D01*
X20425786Y-14860929D01*
X20411500Y-14846643D01*
X20397214Y-14818071D01*
X20382928Y-14760929D01*
X20382928Y-14689500D01*
X20397214Y-14632357D01*
X20411500Y-14603786D01*
X20425786Y-14589500D01*
X20454357Y-14575214D01*
X20682928Y-14875214D02*
X20682928Y-14675214D01*
X20682928Y-14703786D02*
X20697214Y-14689500D01*
X20725786Y-14675214D01*
X20768643Y-14675214D01*
X20797214Y-14689500D01*
X20811500Y-14718071D01*
X20811500Y-14875214D01*
X20811500Y-14718071D02*
X20825786Y-14689500D01*
X20854357Y-14675214D01*
X20897214Y-14675214D01*
X20925786Y-14689500D01*
X20940071Y-14718071D01*
X20940071Y-14875214D01*
X21082928Y-14875214D02*
X21082928Y-14675214D01*
X21082928Y-14703786D02*
X21097214Y-14689500D01*
X21125786Y-14675214D01*
X21168643Y-14675214D01*
X21197214Y-14689500D01*
X21211500Y-14718071D01*
X21211500Y-14875214D01*
X21211500Y-14718071D02*
X21225786Y-14689500D01*
X21254357Y-14675214D01*
X21297214Y-14675214D01*
X21325786Y-14689500D01*
X21340071Y-14718071D01*
X21340071Y-14875214D01*
X21925786Y-14560929D02*
X21668643Y-14946643D01*
X22311500Y-14575214D02*
X22340071Y-14575214D01*
X22368643Y-14589500D01*
X22382928Y-14603786D01*
X22397214Y-14632357D01*
X22411500Y-14689500D01*
X22411500Y-14760929D01*
X22397214Y-14818071D01*
X22382928Y-14846643D01*
X22368643Y-14860929D01*
X22340071Y-14875214D01*
X22311500Y-14875214D01*
X22282928Y-14860929D01*
X22268643Y-14846643D01*
X22254357Y-14818071D01*
X22240071Y-14760929D01*
X22240071Y-14689500D01*
X22254357Y-14632357D01*
X22268643Y-14603786D01*
X22282928Y-14589500D01*
X22311500Y-14575214D01*
X22540071Y-14846643D02*
X22554357Y-14860929D01*
X22540071Y-14875214D01*
X22525786Y-14860929D01*
X22540071Y-14846643D01*
X22540071Y-14875214D01*
X22840071Y-14875214D02*
X22668643Y-14875214D01*
X22754357Y-14875214D02*
X22754357Y-14575214D01*
X22725786Y-14618071D01*
X22697214Y-14646643D01*
X22668643Y-14660929D01*
X23125786Y-14875214D02*
X22954357Y-14875214D01*
X23040071Y-14875214D02*
X23040071Y-14575214D01*
X23011500Y-14618071D01*
X22982928Y-14646643D01*
X22954357Y-14660929D01*
X23297214Y-14703786D02*
X23268643Y-14689500D01*
X23254357Y-14675214D01*
X23240071Y-14646643D01*
X23240071Y-14632357D01*
X23254357Y-14603786D01*
X23268643Y-14589500D01*
X23297214Y-14575214D01*
X23354357Y-14575214D01*
X23382928Y-14589500D01*
X23397214Y-14603786D01*
X23411500Y-14632357D01*
X23411500Y-14646643D01*
X23397214Y-14675214D01*
X23382928Y-14689500D01*
X23354357Y-14703786D01*
X23297214Y-14703786D01*
X23268643Y-14718071D01*
X23254357Y-14732357D01*
X23240071Y-14760929D01*
X23240071Y-14818071D01*
X23254357Y-14846643D01*
X23268643Y-14860929D01*
X23297214Y-14875214D01*
X23354357Y-14875214D01*
X23382928Y-14860929D01*
X23397214Y-14846643D01*
X23411500Y-14818071D01*
X23411500Y-14760929D01*
X23397214Y-14732357D01*
X23382928Y-14718071D01*
X23354357Y-14703786D01*
X23525786Y-14575214D02*
X23525786Y-14632357D01*
X23640071Y-14575214D02*
X23640071Y-14632357D01*
X24082928Y-14989500D02*
X24068643Y-14975214D01*
X24040071Y-14932357D01*
X24025786Y-14903786D01*
X24011500Y-14860929D01*
X23997214Y-14789500D01*
X23997214Y-14732357D01*
X24011500Y-14660929D01*
X24025786Y-14618071D01*
X24040071Y-14589500D01*
X24068643Y-14546643D01*
X24082928Y-14532357D01*
X24168643Y-14575214D02*
X24368643Y-14575214D01*
X24240071Y-14875214D01*
X24611500Y-14675214D02*
X24611500Y-14875214D01*
X24540071Y-14560929D02*
X24468643Y-14775214D01*
X24654357Y-14775214D01*
X24997214Y-14875214D02*
X24997214Y-14575214D01*
X25125786Y-14875214D02*
X25125786Y-14718071D01*
X25111500Y-14689500D01*
X25082928Y-14675214D01*
X25040071Y-14675214D01*
X25011500Y-14689500D01*
X24997214Y-14703786D01*
X25311500Y-14875214D02*
X25282928Y-14860929D01*
X25268643Y-14846643D01*
X25254357Y-14818071D01*
X25254357Y-14732357D01*
X25268643Y-14703786D01*
X25282928Y-14689500D01*
X25311500Y-14675214D01*
X25354357Y-14675214D01*
X25382928Y-14689500D01*
X25397214Y-14703786D01*
X25411500Y-14732357D01*
X25411500Y-14818071D01*
X25397214Y-14846643D01*
X25382928Y-14860929D01*
X25354357Y-14875214D01*
X25311500Y-14875214D01*
X25582928Y-14875214D02*
X25554357Y-14860929D01*
X25540071Y-14832357D01*
X25540071Y-14575214D01*
X25811500Y-14860929D02*
X25782928Y-14875214D01*
X25725786Y-14875214D01*
X25697214Y-14860929D01*
X25682928Y-14832357D01*
X25682928Y-14718071D01*
X25697214Y-14689500D01*
X25725786Y-14675214D01*
X25782928Y-14675214D01*
X25811500Y-14689500D01*
X25825786Y-14718071D01*
X25825786Y-14746643D01*
X25682928Y-14775214D01*
X25940071Y-14860929D02*
X25968643Y-14875214D01*
X26025786Y-14875214D01*
X26054357Y-14860929D01*
X26068643Y-14832357D01*
X26068643Y-14818071D01*
X26054357Y-14789500D01*
X26025786Y-14775214D01*
X25982928Y-14775214D01*
X25954357Y-14760929D01*
X25940071Y-14732357D01*
X25940071Y-14718071D01*
X25954357Y-14689500D01*
X25982928Y-14675214D01*
X26025786Y-14675214D01*
X26054357Y-14689500D01*
X26168643Y-14989500D02*
X26182928Y-14975214D01*
X26211500Y-14932357D01*
X26225786Y-14903786D01*
X26240071Y-14860929D01*
X26254357Y-14789500D01*
X26254357Y-14732357D01*
X26240071Y-14660929D01*
X26225786Y-14618071D01*
X26211500Y-14589500D01*
X26182928Y-14546643D01*
X26168643Y-14532357D01*
X26711500Y-14989500D02*
X26697214Y-14975214D01*
X26668643Y-14932357D01*
X26654357Y-14903786D01*
X26640071Y-14860929D01*
X26625786Y-14789500D01*
X26625786Y-14732357D01*
X26640071Y-14660929D01*
X26654357Y-14618071D01*
X26668643Y-14589500D01*
X26697214Y-14546643D01*
X26711500Y-14532357D01*
X26825786Y-14675214D02*
X26825786Y-14875214D01*
X26825786Y-14703786D02*
X26840071Y-14689500D01*
X26868643Y-14675214D01*
X26911500Y-14675214D01*
X26940071Y-14689500D01*
X26954357Y-14718071D01*
X26954357Y-14875214D01*
X27140071Y-14875214D02*
X27111500Y-14860929D01*
X27097214Y-14846643D01*
X27082928Y-14818071D01*
X27082928Y-14732357D01*
X27097214Y-14703786D01*
X27111500Y-14689500D01*
X27140071Y-14675214D01*
X27182928Y-14675214D01*
X27211500Y-14689500D01*
X27225786Y-14703786D01*
X27240071Y-14732357D01*
X27240071Y-14818071D01*
X27225786Y-14846643D01*
X27211500Y-14860929D01*
X27182928Y-14875214D01*
X27140071Y-14875214D01*
X27325786Y-14675214D02*
X27440071Y-14675214D01*
X27368643Y-14575214D02*
X27368643Y-14832357D01*
X27382928Y-14860929D01*
X27411500Y-14875214D01*
X27440071Y-14875214D01*
X27768643Y-14675214D02*
X27768643Y-14975214D01*
X27768643Y-14689500D02*
X27797214Y-14675214D01*
X27854357Y-14675214D01*
X27882928Y-14689500D01*
X27897214Y-14703786D01*
X27911500Y-14732357D01*
X27911500Y-14818071D01*
X27897214Y-14846643D01*
X27882928Y-14860929D01*
X27854357Y-14875214D01*
X27797214Y-14875214D01*
X27768643Y-14860929D01*
X28082928Y-14875214D02*
X28054357Y-14860929D01*
X28040071Y-14832357D01*
X28040071Y-14575214D01*
X28325786Y-14875214D02*
X28325786Y-14718071D01*
X28311500Y-14689500D01*
X28282928Y-14675214D01*
X28225786Y-14675214D01*
X28197214Y-14689500D01*
X28325786Y-14860929D02*
X28297214Y-14875214D01*
X28225786Y-14875214D01*
X28197214Y-14860929D01*
X28182928Y-14832357D01*
X28182928Y-14803786D01*
X28197214Y-14775214D01*
X28225786Y-14760929D01*
X28297214Y-14760929D01*
X28325786Y-14746643D01*
X28425786Y-14675214D02*
X28540071Y-14675214D01*
X28468643Y-14575214D02*
X28468643Y-14832357D01*
X28482928Y-14860929D01*
X28511500Y-14875214D01*
X28540071Y-14875214D01*
X28754357Y-14860929D02*
X28725786Y-14875214D01*
X28668643Y-14875214D01*
X28640071Y-14860929D01*
X28625786Y-14832357D01*
X28625786Y-14718071D01*
X28640071Y-14689500D01*
X28668643Y-14675214D01*
X28725786Y-14675214D01*
X28754357Y-14689500D01*
X28768643Y-14718071D01*
X28768643Y-14746643D01*
X28625786Y-14775214D01*
X29025786Y-14875214D02*
X29025786Y-14575214D01*
X29025786Y-14860929D02*
X28997214Y-14875214D01*
X28940071Y-14875214D01*
X28911500Y-14860929D01*
X28897214Y-14846643D01*
X28882928Y-14818071D01*
X28882928Y-14732357D01*
X28897214Y-14703786D01*
X28911500Y-14689500D01*
X28940071Y-14675214D01*
X28997214Y-14675214D01*
X29025786Y-14689500D01*
X29140071Y-14989500D02*
X29154357Y-14975214D01*
X29182928Y-14932357D01*
X29197214Y-14903786D01*
X29211500Y-14860929D01*
X29225786Y-14789500D01*
X29225786Y-14732357D01*
X29211500Y-14660929D01*
X29197214Y-14618071D01*
X29182928Y-14589500D01*
X29154357Y-14546643D01*
X29140071Y-14532357D01*
X19244000Y-15322000D02*
X19396500Y-15169500D01*
X19244000Y-15017000D01*
X19091500Y-15169500D01*
X19244000Y-15322000D01*
X19654357Y-15005214D02*
X19840071Y-15005214D01*
X19740071Y-15119500D01*
X19782928Y-15119500D01*
X19811500Y-15133786D01*
X19825786Y-15148071D01*
X19840071Y-15176643D01*
X19840071Y-15248071D01*
X19825786Y-15276643D01*
X19811500Y-15290929D01*
X19782928Y-15305214D01*
X19697214Y-15305214D01*
X19668643Y-15290929D01*
X19654357Y-15276643D01*
X19968643Y-15276643D02*
X19982928Y-15290929D01*
X19968643Y-15305214D01*
X19954357Y-15290929D01*
X19968643Y-15276643D01*
X19968643Y-15305214D01*
X20168643Y-15005214D02*
X20197214Y-15005214D01*
X20225786Y-15019500D01*
X20240071Y-15033786D01*
X20254357Y-15062357D01*
X20268643Y-15119500D01*
X20268643Y-15190929D01*
X20254357Y-15248071D01*
X20240071Y-15276643D01*
X20225786Y-15290929D01*
X20197214Y-15305214D01*
X20168643Y-15305214D01*
X20140071Y-15290929D01*
X20125786Y-15276643D01*
X20111500Y-15248071D01*
X20097214Y-15190929D01*
X20097214Y-15119500D01*
X20111500Y-15062357D01*
X20125786Y-15033786D01*
X20140071Y-15019500D01*
X20168643Y-15005214D01*
X20540071Y-15005214D02*
X20397214Y-15005214D01*
X20382928Y-15148071D01*
X20397214Y-15133786D01*
X20425786Y-15119500D01*
X20497214Y-15119500D01*
X20525786Y-15133786D01*
X20540071Y-15148071D01*
X20554357Y-15176643D01*
X20554357Y-15248071D01*
X20540071Y-15276643D01*
X20525786Y-15290929D01*
X20497214Y-15305214D01*
X20425786Y-15305214D01*
X20397214Y-15290929D01*
X20382928Y-15276643D01*
X20682928Y-15305214D02*
X20682928Y-15105214D01*
X20682928Y-15133786D02*
X20697214Y-15119500D01*
X20725786Y-15105214D01*
X20768643Y-15105214D01*
X20797214Y-15119500D01*
X20811500Y-15148071D01*
X20811500Y-15305214D01*
X20811500Y-15148071D02*
X20825786Y-15119500D01*
X20854357Y-15105214D01*
X20897214Y-15105214D01*
X20925786Y-15119500D01*
X20940071Y-15148071D01*
X20940071Y-15305214D01*
X21082928Y-15305214D02*
X21082928Y-15105214D01*
X21082928Y-15133786D02*
X21097214Y-15119500D01*
X21125786Y-15105214D01*
X21168643Y-15105214D01*
X21197214Y-15119500D01*
X21211500Y-15148071D01*
X21211500Y-15305214D01*
X21211500Y-15148071D02*
X21225786Y-15119500D01*
X21254357Y-15105214D01*
X21297214Y-15105214D01*
X21325786Y-15119500D01*
X21340071Y-15148071D01*
X21340071Y-15305214D01*
X21925786Y-14990929D02*
X21668643Y-15376643D01*
X22311500Y-15005214D02*
X22340071Y-15005214D01*
X22368643Y-15019500D01*
X22382928Y-15033786D01*
X22397214Y-15062357D01*
X22411500Y-15119500D01*
X22411500Y-15190929D01*
X22397214Y-15248071D01*
X22382928Y-15276643D01*
X22368643Y-15290929D01*
X22340071Y-15305214D01*
X22311500Y-15305214D01*
X22282928Y-15290929D01*
X22268643Y-15276643D01*
X22254357Y-15248071D01*
X22240071Y-15190929D01*
X22240071Y-15119500D01*
X22254357Y-15062357D01*
X22268643Y-15033786D01*
X22282928Y-15019500D01*
X22311500Y-15005214D01*
X22540071Y-15276643D02*
X22554357Y-15290929D01*
X22540071Y-15305214D01*
X22525786Y-15290929D01*
X22540071Y-15276643D01*
X22540071Y-15305214D01*
X22840071Y-15305214D02*
X22668643Y-15305214D01*
X22754357Y-15305214D02*
X22754357Y-15005214D01*
X22725786Y-15048071D01*
X22697214Y-15076643D01*
X22668643Y-15090929D01*
X22954357Y-15033786D02*
X22968643Y-15019500D01*
X22997214Y-15005214D01*
X23068643Y-15005214D01*
X23097214Y-15019500D01*
X23111500Y-15033786D01*
X23125786Y-15062357D01*
X23125786Y-15090929D01*
X23111500Y-15133786D01*
X22940071Y-15305214D01*
X23125786Y-15305214D01*
X23311500Y-15005214D02*
X23340071Y-15005214D01*
X23368643Y-15019500D01*
X23382928Y-15033786D01*
X23397214Y-15062357D01*
X23411500Y-15119500D01*
X23411500Y-15190929D01*
X23397214Y-15248071D01*
X23382928Y-15276643D01*
X23368643Y-15290929D01*
X23340071Y-15305214D01*
X23311500Y-15305214D01*
X23282928Y-15290929D01*
X23268643Y-15276643D01*
X23254357Y-15248071D01*
X23240071Y-15190929D01*
X23240071Y-15119500D01*
X23254357Y-15062357D01*
X23268643Y-15033786D01*
X23282928Y-15019500D01*
X23311500Y-15005214D01*
X23525786Y-15005214D02*
X23525786Y-15062357D01*
X23640071Y-15005214D02*
X23640071Y-15062357D01*
X24082928Y-15419500D02*
X24068643Y-15405214D01*
X24040071Y-15362357D01*
X24025786Y-15333786D01*
X24011500Y-15290929D01*
X23997214Y-15219500D01*
X23997214Y-15162357D01*
X24011500Y-15090929D01*
X24025786Y-15048071D01*
X24040071Y-15019500D01*
X24068643Y-14976643D01*
X24082928Y-14962357D01*
X24325786Y-15105214D02*
X24325786Y-15305214D01*
X24254357Y-14990929D02*
X24182928Y-15205214D01*
X24368643Y-15205214D01*
X24711500Y-15305214D02*
X24711500Y-15005214D01*
X24840071Y-15305214D02*
X24840071Y-15148071D01*
X24825786Y-15119500D01*
X24797214Y-15105214D01*
X24754357Y-15105214D01*
X24725786Y-15119500D01*
X24711500Y-15133786D01*
X25025786Y-15305214D02*
X24997214Y-15290929D01*
X24982928Y-15276643D01*
X24968643Y-15248071D01*
X24968643Y-15162357D01*
X24982928Y-15133786D01*
X24997214Y-15119500D01*
X25025786Y-15105214D01*
X25068643Y-15105214D01*
X25097214Y-15119500D01*
X25111500Y-15133786D01*
X25125786Y-15162357D01*
X25125786Y-15248071D01*
X25111500Y-15276643D01*
X25097214Y-15290929D01*
X25068643Y-15305214D01*
X25025786Y-15305214D01*
X25297214Y-15305214D02*
X25268643Y-15290929D01*
X25254357Y-15262357D01*
X25254357Y-15005214D01*
X25525786Y-15290929D02*
X25497214Y-15305214D01*
X25440071Y-15305214D01*
X25411500Y-15290929D01*
X25397214Y-15262357D01*
X25397214Y-15148071D01*
X25411500Y-15119500D01*
X25440071Y-15105214D01*
X25497214Y-15105214D01*
X25525786Y-15119500D01*
X25540071Y-15148071D01*
X25540071Y-15176643D01*
X25397214Y-15205214D01*
X25654357Y-15290929D02*
X25682928Y-15305214D01*
X25740071Y-15305214D01*
X25768643Y-15290929D01*
X25782928Y-15262357D01*
X25782928Y-15248071D01*
X25768643Y-15219500D01*
X25740071Y-15205214D01*
X25697214Y-15205214D01*
X25668643Y-15190929D01*
X25654357Y-15162357D01*
X25654357Y-15148071D01*
X25668643Y-15119500D01*
X25697214Y-15105214D01*
X25740071Y-15105214D01*
X25768643Y-15119500D01*
X25882928Y-15419500D02*
X25897214Y-15405214D01*
X25925786Y-15362357D01*
X25940071Y-15333786D01*
X25954357Y-15290929D01*
X25968643Y-15219500D01*
X25968643Y-15162357D01*
X25954357Y-15090929D01*
X25940071Y-15048071D01*
X25925786Y-15019500D01*
X25897214Y-14976643D01*
X25882928Y-14962357D01*
X26425786Y-15419500D02*
X26411500Y-15405214D01*
X26382928Y-15362357D01*
X26368643Y-15333786D01*
X26354357Y-15290929D01*
X26340071Y-15219500D01*
X26340071Y-15162357D01*
X26354357Y-15090929D01*
X26368643Y-15048071D01*
X26382928Y-15019500D01*
X26411500Y-14976643D01*
X26425786Y-14962357D01*
X26540071Y-15105214D02*
X26540071Y-15305214D01*
X26540071Y-15133786D02*
X26554357Y-15119500D01*
X26582928Y-15105214D01*
X26625786Y-15105214D01*
X26654357Y-15119500D01*
X26668643Y-15148071D01*
X26668643Y-15305214D01*
X26854357Y-15305214D02*
X26825786Y-15290929D01*
X26811500Y-15276643D01*
X26797214Y-15248071D01*
X26797214Y-15162357D01*
X26811500Y-15133786D01*
X26825786Y-15119500D01*
X26854357Y-15105214D01*
X26897214Y-15105214D01*
X26925786Y-15119500D01*
X26940071Y-15133786D01*
X26954357Y-15162357D01*
X26954357Y-15248071D01*
X26940071Y-15276643D01*
X26925786Y-15290929D01*
X26897214Y-15305214D01*
X26854357Y-15305214D01*
X27040071Y-15105214D02*
X27154357Y-15105214D01*
X27082928Y-15005214D02*
X27082928Y-15262357D01*
X27097214Y-15290929D01*
X27125786Y-15305214D01*
X27154357Y-15305214D01*
X27482928Y-15105214D02*
X27482928Y-15405214D01*
X27482928Y-15119500D02*
X27511500Y-15105214D01*
X27568643Y-15105214D01*
X27597214Y-15119500D01*
X27611500Y-15133786D01*
X27625786Y-15162357D01*
X27625786Y-15248071D01*
X27611500Y-15276643D01*
X27597214Y-15290929D01*
X27568643Y-15305214D01*
X27511500Y-15305214D01*
X27482928Y-15290929D01*
X27797214Y-15305214D02*
X27768643Y-15290929D01*
X27754357Y-15262357D01*
X27754357Y-15005214D01*
X28040071Y-15305214D02*
X28040071Y-15148071D01*
X28025786Y-15119500D01*
X27997214Y-15105214D01*
X27940071Y-15105214D01*
X27911500Y-15119500D01*
X28040071Y-15290929D02*
X28011500Y-15305214D01*
X27940071Y-15305214D01*
X27911500Y-15290929D01*
X27897214Y-15262357D01*
X27897214Y-15233786D01*
X27911500Y-15205214D01*
X27940071Y-15190929D01*
X28011500Y-15190929D01*
X28040071Y-15176643D01*
X28140071Y-15105214D02*
X28254357Y-15105214D01*
X28182928Y-15005214D02*
X28182928Y-15262357D01*
X28197214Y-15290929D01*
X28225786Y-15305214D01*
X28254357Y-15305214D01*
X28468643Y-15290929D02*
X28440071Y-15305214D01*
X28382928Y-15305214D01*
X28354357Y-15290929D01*
X28340071Y-15262357D01*
X28340071Y-15148071D01*
X28354357Y-15119500D01*
X28382928Y-15105214D01*
X28440071Y-15105214D01*
X28468643Y-15119500D01*
X28482928Y-15148071D01*
X28482928Y-15176643D01*
X28340071Y-15205214D01*
X28740071Y-15305214D02*
X28740071Y-15005214D01*
X28740071Y-15290929D02*
X28711500Y-15305214D01*
X28654357Y-15305214D01*
X28625786Y-15290929D01*
X28611500Y-15276643D01*
X28597214Y-15248071D01*
X28597214Y-15162357D01*
X28611500Y-15133786D01*
X28625786Y-15119500D01*
X28654357Y-15105214D01*
X28711500Y-15105214D01*
X28740071Y-15119500D01*
X28854357Y-15419500D02*
X28868643Y-15405214D01*
X28897214Y-15362357D01*
X28911500Y-15333786D01*
X28925786Y-15290929D01*
X28940071Y-15219500D01*
X28940071Y-15162357D01*
X28925786Y-15090929D01*
X28911500Y-15048071D01*
X28897214Y-15019500D01*
X28868643Y-14976643D01*
X28854357Y-14962357D01*
X18996500Y-15404500D02*
X19396500Y-15804500D01*
X19396500Y-15404500D02*
X18996500Y-15804500D01*
X19396500Y-15604500D02*
G75*
G03X19396500Y-15604500I-200000J0D01*
G01*
X19811500Y-15540214D02*
X19811500Y-15740214D01*
X19740071Y-15425929D02*
X19668643Y-15640214D01*
X19854357Y-15640214D01*
X19968643Y-15711643D02*
X19982928Y-15725929D01*
X19968643Y-15740214D01*
X19954357Y-15725929D01*
X19968643Y-15711643D01*
X19968643Y-15740214D01*
X20168643Y-15440214D02*
X20197214Y-15440214D01*
X20225786Y-15454500D01*
X20240071Y-15468786D01*
X20254357Y-15497357D01*
X20268643Y-15554500D01*
X20268643Y-15625929D01*
X20254357Y-15683071D01*
X20240071Y-15711643D01*
X20225786Y-15725929D01*
X20197214Y-15740214D01*
X20168643Y-15740214D01*
X20140071Y-15725929D01*
X20125786Y-15711643D01*
X20111500Y-15683071D01*
X20097214Y-15625929D01*
X20097214Y-15554500D01*
X20111500Y-15497357D01*
X20125786Y-15468786D01*
X20140071Y-15454500D01*
X20168643Y-15440214D01*
X20454357Y-15440214D02*
X20482928Y-15440214D01*
X20511500Y-15454500D01*
X20525786Y-15468786D01*
X20540071Y-15497357D01*
X20554357Y-15554500D01*
X20554357Y-15625929D01*
X20540071Y-15683071D01*
X20525786Y-15711643D01*
X20511500Y-15725929D01*
X20482928Y-15740214D01*
X20454357Y-15740214D01*
X20425786Y-15725929D01*
X20411500Y-15711643D01*
X20397214Y-15683071D01*
X20382928Y-15625929D01*
X20382928Y-15554500D01*
X20397214Y-15497357D01*
X20411500Y-15468786D01*
X20425786Y-15454500D01*
X20454357Y-15440214D01*
X20682928Y-15740214D02*
X20682928Y-15540214D01*
X20682928Y-15568786D02*
X20697214Y-15554500D01*
X20725786Y-15540214D01*
X20768643Y-15540214D01*
X20797214Y-15554500D01*
X20811500Y-15583071D01*
X20811500Y-15740214D01*
X20811500Y-15583071D02*
X20825786Y-15554500D01*
X20854357Y-15540214D01*
X20897214Y-15540214D01*
X20925786Y-15554500D01*
X20940071Y-15583071D01*
X20940071Y-15740214D01*
X21082928Y-15740214D02*
X21082928Y-15540214D01*
X21082928Y-15568786D02*
X21097214Y-15554500D01*
X21125786Y-15540214D01*
X21168643Y-15540214D01*
X21197214Y-15554500D01*
X21211500Y-15583071D01*
X21211500Y-15740214D01*
X21211500Y-15583071D02*
X21225786Y-15554500D01*
X21254357Y-15540214D01*
X21297214Y-15540214D01*
X21325786Y-15554500D01*
X21340071Y-15583071D01*
X21340071Y-15740214D01*
X21925786Y-15425929D02*
X21668643Y-15811643D01*
X22311500Y-15440214D02*
X22340071Y-15440214D01*
X22368643Y-15454500D01*
X22382928Y-15468786D01*
X22397214Y-15497357D01*
X22411500Y-15554500D01*
X22411500Y-15625929D01*
X22397214Y-15683071D01*
X22382928Y-15711643D01*
X22368643Y-15725929D01*
X22340071Y-15740214D01*
X22311500Y-15740214D01*
X22282928Y-15725929D01*
X22268643Y-15711643D01*
X22254357Y-15683071D01*
X22240071Y-15625929D01*
X22240071Y-15554500D01*
X22254357Y-15497357D01*
X22268643Y-15468786D01*
X22282928Y-15454500D01*
X22311500Y-15440214D01*
X22540071Y-15711643D02*
X22554357Y-15725929D01*
X22540071Y-15740214D01*
X22525786Y-15725929D01*
X22540071Y-15711643D01*
X22540071Y-15740214D01*
X22840071Y-15740214D02*
X22668643Y-15740214D01*
X22754357Y-15740214D02*
X22754357Y-15440214D01*
X22725786Y-15483071D01*
X22697214Y-15511643D01*
X22668643Y-15525929D01*
X23111500Y-15440214D02*
X22968643Y-15440214D01*
X22954357Y-15583071D01*
X22968643Y-15568786D01*
X22997214Y-15554500D01*
X23068643Y-15554500D01*
X23097214Y-15568786D01*
X23111500Y-15583071D01*
X23125786Y-15611643D01*
X23125786Y-15683071D01*
X23111500Y-15711643D01*
X23097214Y-15725929D01*
X23068643Y-15740214D01*
X22997214Y-15740214D01*
X22968643Y-15725929D01*
X22954357Y-15711643D01*
X23225786Y-15440214D02*
X23425786Y-15440214D01*
X23297214Y-15740214D01*
X23525786Y-15440214D02*
X23525786Y-15497357D01*
X23640071Y-15440214D02*
X23640071Y-15497357D01*
X24082928Y-15854500D02*
X24068643Y-15840214D01*
X24040071Y-15797357D01*
X24025786Y-15768786D01*
X24011500Y-15725929D01*
X23997214Y-15654500D01*
X23997214Y-15597357D01*
X24011500Y-15525929D01*
X24025786Y-15483071D01*
X24040071Y-15454500D01*
X24068643Y-15411643D01*
X24082928Y-15397357D01*
X24325786Y-15540214D02*
X24325786Y-15740214D01*
X24254357Y-15425929D02*
X24182928Y-15640214D01*
X24368643Y-15640214D01*
X24640071Y-15740214D02*
X24468643Y-15740214D01*
X24554357Y-15740214D02*
X24554357Y-15440214D01*
X24525786Y-15483071D01*
X24497214Y-15511643D01*
X24468643Y-15525929D01*
X24997214Y-15740214D02*
X24997214Y-15440214D01*
X25125786Y-15740214D02*
X25125786Y-15583071D01*
X25111500Y-15554500D01*
X25082928Y-15540214D01*
X25040071Y-15540214D01*
X25011500Y-15554500D01*
X24997214Y-15568786D01*
X25311500Y-15740214D02*
X25282928Y-15725929D01*
X25268643Y-15711643D01*
X25254357Y-15683071D01*
X25254357Y-15597357D01*
X25268643Y-15568786D01*
X25282928Y-15554500D01*
X25311500Y-15540214D01*
X25354357Y-15540214D01*
X25382928Y-15554500D01*
X25397214Y-15568786D01*
X25411500Y-15597357D01*
X25411500Y-15683071D01*
X25397214Y-15711643D01*
X25382928Y-15725929D01*
X25354357Y-15740214D01*
X25311500Y-15740214D01*
X25582928Y-15740214D02*
X25554357Y-15725929D01*
X25540071Y-15697357D01*
X25540071Y-15440214D01*
X25811500Y-15725929D02*
X25782928Y-15740214D01*
X25725786Y-15740214D01*
X25697214Y-15725929D01*
X25682928Y-15697357D01*
X25682928Y-15583071D01*
X25697214Y-15554500D01*
X25725786Y-15540214D01*
X25782928Y-15540214D01*
X25811500Y-15554500D01*
X25825786Y-15583071D01*
X25825786Y-15611643D01*
X25682928Y-15640214D01*
X25940071Y-15725929D02*
X25968643Y-15740214D01*
X26025786Y-15740214D01*
X26054357Y-15725929D01*
X26068643Y-15697357D01*
X26068643Y-15683071D01*
X26054357Y-15654500D01*
X26025786Y-15640214D01*
X25982928Y-15640214D01*
X25954357Y-15625929D01*
X25940071Y-15597357D01*
X25940071Y-15583071D01*
X25954357Y-15554500D01*
X25982928Y-15540214D01*
X26025786Y-15540214D01*
X26054357Y-15554500D01*
X26168643Y-15854500D02*
X26182928Y-15840214D01*
X26211500Y-15797357D01*
X26225786Y-15768786D01*
X26240071Y-15725929D01*
X26254357Y-15654500D01*
X26254357Y-15597357D01*
X26240071Y-15525929D01*
X26225786Y-15483071D01*
X26211500Y-15454500D01*
X26182928Y-15411643D01*
X26168643Y-15397357D01*
X26711500Y-15854500D02*
X26697214Y-15840214D01*
X26668643Y-15797357D01*
X26654357Y-15768786D01*
X26640071Y-15725929D01*
X26625786Y-15654500D01*
X26625786Y-15597357D01*
X26640071Y-15525929D01*
X26654357Y-15483071D01*
X26668643Y-15454500D01*
X26697214Y-15411643D01*
X26711500Y-15397357D01*
X26825786Y-15540214D02*
X26825786Y-15740214D01*
X26825786Y-15568786D02*
X26840071Y-15554500D01*
X26868643Y-15540214D01*
X26911500Y-15540214D01*
X26940071Y-15554500D01*
X26954357Y-15583071D01*
X26954357Y-15740214D01*
X27140071Y-15740214D02*
X27111500Y-15725929D01*
X27097214Y-15711643D01*
X27082928Y-15683071D01*
X27082928Y-15597357D01*
X27097214Y-15568786D01*
X27111500Y-15554500D01*
X27140071Y-15540214D01*
X27182928Y-15540214D01*
X27211500Y-15554500D01*
X27225786Y-15568786D01*
X27240071Y-15597357D01*
X27240071Y-15683071D01*
X27225786Y-15711643D01*
X27211500Y-15725929D01*
X27182928Y-15740214D01*
X27140071Y-15740214D01*
X27325786Y-15540214D02*
X27440071Y-15540214D01*
X27368643Y-15440214D02*
X27368643Y-15697357D01*
X27382928Y-15725929D01*
X27411500Y-15740214D01*
X27440071Y-15740214D01*
X27768643Y-15540214D02*
X27768643Y-15840214D01*
X27768643Y-15554500D02*
X27797214Y-15540214D01*
X27854357Y-15540214D01*
X27882928Y-15554500D01*
X27897214Y-15568786D01*
X27911500Y-15597357D01*
X27911500Y-15683071D01*
X27897214Y-15711643D01*
X27882928Y-15725929D01*
X27854357Y-15740214D01*
X27797214Y-15740214D01*
X27768643Y-15725929D01*
X28082928Y-15740214D02*
X28054357Y-15725929D01*
X28040071Y-15697357D01*
X28040071Y-15440214D01*
X28325786Y-15740214D02*
X28325786Y-15583071D01*
X28311500Y-15554500D01*
X28282928Y-15540214D01*
X28225786Y-15540214D01*
X28197214Y-15554500D01*
X28325786Y-15725929D02*
X28297214Y-15740214D01*
X28225786Y-15740214D01*
X28197214Y-15725929D01*
X28182928Y-15697357D01*
X28182928Y-15668786D01*
X28197214Y-15640214D01*
X28225786Y-15625929D01*
X28297214Y-15625929D01*
X28325786Y-15611643D01*
X28425786Y-15540214D02*
X28540071Y-15540214D01*
X28468643Y-15440214D02*
X28468643Y-15697357D01*
X28482928Y-15725929D01*
X28511500Y-15740214D01*
X28540071Y-15740214D01*
X28754357Y-15725929D02*
X28725786Y-15740214D01*
X28668643Y-15740214D01*
X28640071Y-15725929D01*
X28625786Y-15697357D01*
X28625786Y-15583071D01*
X28640071Y-15554500D01*
X28668643Y-15540214D01*
X28725786Y-15540214D01*
X28754357Y-15554500D01*
X28768643Y-15583071D01*
X28768643Y-15611643D01*
X28625786Y-15640214D01*
X29025786Y-15740214D02*
X29025786Y-15440214D01*
X29025786Y-15725929D02*
X28997214Y-15740214D01*
X28940071Y-15740214D01*
X28911500Y-15725929D01*
X28897214Y-15711643D01*
X28882928Y-15683071D01*
X28882928Y-15597357D01*
X28897214Y-15568786D01*
X28911500Y-15554500D01*
X28940071Y-15540214D01*
X28997214Y-15540214D01*
X29025786Y-15554500D01*
X29140071Y-15854500D02*
X29154357Y-15840214D01*
X29182928Y-15797357D01*
X29197214Y-15768786D01*
X29211500Y-15725929D01*
X29225786Y-15654500D01*
X29225786Y-15597357D01*
X29211500Y-15525929D01*
X29197214Y-15483071D01*
X29182928Y-15454500D01*
X29154357Y-15411643D01*
X29140071Y-15397357D01*
M02*
