G04 #@! TF.GenerationSoftware,KiCad,Pcbnew,(5.0.0-3-g5ebb6b6)*
G04 #@! TF.CreationDate,2018-10-13T13:11:11+09:00*
G04 #@! TF.ProjectId,pakbd,70616B62642E6B696361645F70636200,1*
G04 #@! TF.SameCoordinates,Original*
G04 #@! TF.FileFunction,Paste,Bot*
G04 #@! TF.FilePolarity,Positive*
%FSLAX46Y46*%
G04 Gerber Fmt 4.6, Leading zero omitted, Abs format (unit mm)*
G04 Created by KiCad (PCBNEW (5.0.0-3-g5ebb6b6)) date *
%MOMM*%
%LPD*%
G01*
G04 APERTURE LIST*
%ADD10R,3.000000X2.500000*%
%ADD11C,0.100000*%
%ADD12C,1.425000*%
G04 APERTURE END LIST*
D10*
G04 #@! TO.C,SW54*
X361880250Y-83780000D03*
X347910250Y-86320000D03*
G04 #@! TD*
D11*
G04 #@! TO.C,D46*
G36*
X367899504Y-55451204D02*
X367923773Y-55454804D01*
X367947571Y-55460765D01*
X367970671Y-55469030D01*
X367992849Y-55479520D01*
X368013893Y-55492133D01*
X368033598Y-55506747D01*
X368051777Y-55523223D01*
X368068253Y-55541402D01*
X368082867Y-55561107D01*
X368095480Y-55582151D01*
X368105970Y-55604329D01*
X368114235Y-55627429D01*
X368120196Y-55651227D01*
X368123796Y-55675496D01*
X368125000Y-55700000D01*
X368125000Y-56625000D01*
X368123796Y-56649504D01*
X368120196Y-56673773D01*
X368114235Y-56697571D01*
X368105970Y-56720671D01*
X368095480Y-56742849D01*
X368082867Y-56763893D01*
X368068253Y-56783598D01*
X368051777Y-56801777D01*
X368033598Y-56818253D01*
X368013893Y-56832867D01*
X367992849Y-56845480D01*
X367970671Y-56855970D01*
X367947571Y-56864235D01*
X367923773Y-56870196D01*
X367899504Y-56873796D01*
X367875000Y-56875000D01*
X366625000Y-56875000D01*
X366600496Y-56873796D01*
X366576227Y-56870196D01*
X366552429Y-56864235D01*
X366529329Y-56855970D01*
X366507151Y-56845480D01*
X366486107Y-56832867D01*
X366466402Y-56818253D01*
X366448223Y-56801777D01*
X366431747Y-56783598D01*
X366417133Y-56763893D01*
X366404520Y-56742849D01*
X366394030Y-56720671D01*
X366385765Y-56697571D01*
X366379804Y-56673773D01*
X366376204Y-56649504D01*
X366375000Y-56625000D01*
X366375000Y-55700000D01*
X366376204Y-55675496D01*
X366379804Y-55651227D01*
X366385765Y-55627429D01*
X366394030Y-55604329D01*
X366404520Y-55582151D01*
X366417133Y-55561107D01*
X366431747Y-55541402D01*
X366448223Y-55523223D01*
X366466402Y-55506747D01*
X366486107Y-55492133D01*
X366507151Y-55479520D01*
X366529329Y-55469030D01*
X366552429Y-55460765D01*
X366576227Y-55454804D01*
X366600496Y-55451204D01*
X366625000Y-55450000D01*
X367875000Y-55450000D01*
X367899504Y-55451204D01*
X367899504Y-55451204D01*
G37*
D12*
X367250000Y-56162500D03*
D11*
G36*
X367899504Y-58426204D02*
X367923773Y-58429804D01*
X367947571Y-58435765D01*
X367970671Y-58444030D01*
X367992849Y-58454520D01*
X368013893Y-58467133D01*
X368033598Y-58481747D01*
X368051777Y-58498223D01*
X368068253Y-58516402D01*
X368082867Y-58536107D01*
X368095480Y-58557151D01*
X368105970Y-58579329D01*
X368114235Y-58602429D01*
X368120196Y-58626227D01*
X368123796Y-58650496D01*
X368125000Y-58675000D01*
X368125000Y-59600000D01*
X368123796Y-59624504D01*
X368120196Y-59648773D01*
X368114235Y-59672571D01*
X368105970Y-59695671D01*
X368095480Y-59717849D01*
X368082867Y-59738893D01*
X368068253Y-59758598D01*
X368051777Y-59776777D01*
X368033598Y-59793253D01*
X368013893Y-59807867D01*
X367992849Y-59820480D01*
X367970671Y-59830970D01*
X367947571Y-59839235D01*
X367923773Y-59845196D01*
X367899504Y-59848796D01*
X367875000Y-59850000D01*
X366625000Y-59850000D01*
X366600496Y-59848796D01*
X366576227Y-59845196D01*
X366552429Y-59839235D01*
X366529329Y-59830970D01*
X366507151Y-59820480D01*
X366486107Y-59807867D01*
X366466402Y-59793253D01*
X366448223Y-59776777D01*
X366431747Y-59758598D01*
X366417133Y-59738893D01*
X366404520Y-59717849D01*
X366394030Y-59695671D01*
X366385765Y-59672571D01*
X366379804Y-59648773D01*
X366376204Y-59624504D01*
X366375000Y-59600000D01*
X366375000Y-58675000D01*
X366376204Y-58650496D01*
X366379804Y-58626227D01*
X366385765Y-58602429D01*
X366394030Y-58579329D01*
X366404520Y-58557151D01*
X366417133Y-58536107D01*
X366431747Y-58516402D01*
X366448223Y-58498223D01*
X366466402Y-58481747D01*
X366486107Y-58467133D01*
X366507151Y-58454520D01*
X366529329Y-58444030D01*
X366552429Y-58435765D01*
X366576227Y-58429804D01*
X366600496Y-58426204D01*
X366625000Y-58425000D01*
X367875000Y-58425000D01*
X367899504Y-58426204D01*
X367899504Y-58426204D01*
G37*
D12*
X367250000Y-59137500D03*
G04 #@! TD*
D11*
G04 #@! TO.C,D47*
G36*
X375269504Y-55491204D02*
X375293773Y-55494804D01*
X375317571Y-55500765D01*
X375340671Y-55509030D01*
X375362849Y-55519520D01*
X375383893Y-55532133D01*
X375403598Y-55546747D01*
X375421777Y-55563223D01*
X375438253Y-55581402D01*
X375452867Y-55601107D01*
X375465480Y-55622151D01*
X375475970Y-55644329D01*
X375484235Y-55667429D01*
X375490196Y-55691227D01*
X375493796Y-55715496D01*
X375495000Y-55740000D01*
X375495000Y-56665000D01*
X375493796Y-56689504D01*
X375490196Y-56713773D01*
X375484235Y-56737571D01*
X375475970Y-56760671D01*
X375465480Y-56782849D01*
X375452867Y-56803893D01*
X375438253Y-56823598D01*
X375421777Y-56841777D01*
X375403598Y-56858253D01*
X375383893Y-56872867D01*
X375362849Y-56885480D01*
X375340671Y-56895970D01*
X375317571Y-56904235D01*
X375293773Y-56910196D01*
X375269504Y-56913796D01*
X375245000Y-56915000D01*
X373995000Y-56915000D01*
X373970496Y-56913796D01*
X373946227Y-56910196D01*
X373922429Y-56904235D01*
X373899329Y-56895970D01*
X373877151Y-56885480D01*
X373856107Y-56872867D01*
X373836402Y-56858253D01*
X373818223Y-56841777D01*
X373801747Y-56823598D01*
X373787133Y-56803893D01*
X373774520Y-56782849D01*
X373764030Y-56760671D01*
X373755765Y-56737571D01*
X373749804Y-56713773D01*
X373746204Y-56689504D01*
X373745000Y-56665000D01*
X373745000Y-55740000D01*
X373746204Y-55715496D01*
X373749804Y-55691227D01*
X373755765Y-55667429D01*
X373764030Y-55644329D01*
X373774520Y-55622151D01*
X373787133Y-55601107D01*
X373801747Y-55581402D01*
X373818223Y-55563223D01*
X373836402Y-55546747D01*
X373856107Y-55532133D01*
X373877151Y-55519520D01*
X373899329Y-55509030D01*
X373922429Y-55500765D01*
X373946227Y-55494804D01*
X373970496Y-55491204D01*
X373995000Y-55490000D01*
X375245000Y-55490000D01*
X375269504Y-55491204D01*
X375269504Y-55491204D01*
G37*
D12*
X374620000Y-56202500D03*
D11*
G36*
X375269504Y-58466204D02*
X375293773Y-58469804D01*
X375317571Y-58475765D01*
X375340671Y-58484030D01*
X375362849Y-58494520D01*
X375383893Y-58507133D01*
X375403598Y-58521747D01*
X375421777Y-58538223D01*
X375438253Y-58556402D01*
X375452867Y-58576107D01*
X375465480Y-58597151D01*
X375475970Y-58619329D01*
X375484235Y-58642429D01*
X375490196Y-58666227D01*
X375493796Y-58690496D01*
X375495000Y-58715000D01*
X375495000Y-59640000D01*
X375493796Y-59664504D01*
X375490196Y-59688773D01*
X375484235Y-59712571D01*
X375475970Y-59735671D01*
X375465480Y-59757849D01*
X375452867Y-59778893D01*
X375438253Y-59798598D01*
X375421777Y-59816777D01*
X375403598Y-59833253D01*
X375383893Y-59847867D01*
X375362849Y-59860480D01*
X375340671Y-59870970D01*
X375317571Y-59879235D01*
X375293773Y-59885196D01*
X375269504Y-59888796D01*
X375245000Y-59890000D01*
X373995000Y-59890000D01*
X373970496Y-59888796D01*
X373946227Y-59885196D01*
X373922429Y-59879235D01*
X373899329Y-59870970D01*
X373877151Y-59860480D01*
X373856107Y-59847867D01*
X373836402Y-59833253D01*
X373818223Y-59816777D01*
X373801747Y-59798598D01*
X373787133Y-59778893D01*
X373774520Y-59757849D01*
X373764030Y-59735671D01*
X373755765Y-59712571D01*
X373749804Y-59688773D01*
X373746204Y-59664504D01*
X373745000Y-59640000D01*
X373745000Y-58715000D01*
X373746204Y-58690496D01*
X373749804Y-58666227D01*
X373755765Y-58642429D01*
X373764030Y-58619329D01*
X373774520Y-58597151D01*
X373787133Y-58576107D01*
X373801747Y-58556402D01*
X373818223Y-58538223D01*
X373836402Y-58521747D01*
X373856107Y-58507133D01*
X373877151Y-58494520D01*
X373899329Y-58484030D01*
X373922429Y-58475765D01*
X373946227Y-58469804D01*
X373970496Y-58466204D01*
X373995000Y-58465000D01*
X375245000Y-58465000D01*
X375269504Y-58466204D01*
X375269504Y-58466204D01*
G37*
D12*
X374620000Y-59177500D03*
G04 #@! TD*
D11*
G04 #@! TO.C,D48*
G36*
X239309504Y-74541204D02*
X239333773Y-74544804D01*
X239357571Y-74550765D01*
X239380671Y-74559030D01*
X239402849Y-74569520D01*
X239423893Y-74582133D01*
X239443598Y-74596747D01*
X239461777Y-74613223D01*
X239478253Y-74631402D01*
X239492867Y-74651107D01*
X239505480Y-74672151D01*
X239515970Y-74694329D01*
X239524235Y-74717429D01*
X239530196Y-74741227D01*
X239533796Y-74765496D01*
X239535000Y-74790000D01*
X239535000Y-75715000D01*
X239533796Y-75739504D01*
X239530196Y-75763773D01*
X239524235Y-75787571D01*
X239515970Y-75810671D01*
X239505480Y-75832849D01*
X239492867Y-75853893D01*
X239478253Y-75873598D01*
X239461777Y-75891777D01*
X239443598Y-75908253D01*
X239423893Y-75922867D01*
X239402849Y-75935480D01*
X239380671Y-75945970D01*
X239357571Y-75954235D01*
X239333773Y-75960196D01*
X239309504Y-75963796D01*
X239285000Y-75965000D01*
X238035000Y-75965000D01*
X238010496Y-75963796D01*
X237986227Y-75960196D01*
X237962429Y-75954235D01*
X237939329Y-75945970D01*
X237917151Y-75935480D01*
X237896107Y-75922867D01*
X237876402Y-75908253D01*
X237858223Y-75891777D01*
X237841747Y-75873598D01*
X237827133Y-75853893D01*
X237814520Y-75832849D01*
X237804030Y-75810671D01*
X237795765Y-75787571D01*
X237789804Y-75763773D01*
X237786204Y-75739504D01*
X237785000Y-75715000D01*
X237785000Y-74790000D01*
X237786204Y-74765496D01*
X237789804Y-74741227D01*
X237795765Y-74717429D01*
X237804030Y-74694329D01*
X237814520Y-74672151D01*
X237827133Y-74651107D01*
X237841747Y-74631402D01*
X237858223Y-74613223D01*
X237876402Y-74596747D01*
X237896107Y-74582133D01*
X237917151Y-74569520D01*
X237939329Y-74559030D01*
X237962429Y-74550765D01*
X237986227Y-74544804D01*
X238010496Y-74541204D01*
X238035000Y-74540000D01*
X239285000Y-74540000D01*
X239309504Y-74541204D01*
X239309504Y-74541204D01*
G37*
D12*
X238660000Y-75252500D03*
D11*
G36*
X239309504Y-77516204D02*
X239333773Y-77519804D01*
X239357571Y-77525765D01*
X239380671Y-77534030D01*
X239402849Y-77544520D01*
X239423893Y-77557133D01*
X239443598Y-77571747D01*
X239461777Y-77588223D01*
X239478253Y-77606402D01*
X239492867Y-77626107D01*
X239505480Y-77647151D01*
X239515970Y-77669329D01*
X239524235Y-77692429D01*
X239530196Y-77716227D01*
X239533796Y-77740496D01*
X239535000Y-77765000D01*
X239535000Y-78690000D01*
X239533796Y-78714504D01*
X239530196Y-78738773D01*
X239524235Y-78762571D01*
X239515970Y-78785671D01*
X239505480Y-78807849D01*
X239492867Y-78828893D01*
X239478253Y-78848598D01*
X239461777Y-78866777D01*
X239443598Y-78883253D01*
X239423893Y-78897867D01*
X239402849Y-78910480D01*
X239380671Y-78920970D01*
X239357571Y-78929235D01*
X239333773Y-78935196D01*
X239309504Y-78938796D01*
X239285000Y-78940000D01*
X238035000Y-78940000D01*
X238010496Y-78938796D01*
X237986227Y-78935196D01*
X237962429Y-78929235D01*
X237939329Y-78920970D01*
X237917151Y-78910480D01*
X237896107Y-78897867D01*
X237876402Y-78883253D01*
X237858223Y-78866777D01*
X237841747Y-78848598D01*
X237827133Y-78828893D01*
X237814520Y-78807849D01*
X237804030Y-78785671D01*
X237795765Y-78762571D01*
X237789804Y-78738773D01*
X237786204Y-78714504D01*
X237785000Y-78690000D01*
X237785000Y-77765000D01*
X237786204Y-77740496D01*
X237789804Y-77716227D01*
X237795765Y-77692429D01*
X237804030Y-77669329D01*
X237814520Y-77647151D01*
X237827133Y-77626107D01*
X237841747Y-77606402D01*
X237858223Y-77588223D01*
X237876402Y-77571747D01*
X237896107Y-77557133D01*
X237917151Y-77544520D01*
X237939329Y-77534030D01*
X237962429Y-77525765D01*
X237986227Y-77519804D01*
X238010496Y-77516204D01*
X238035000Y-77515000D01*
X239285000Y-77515000D01*
X239309504Y-77516204D01*
X239309504Y-77516204D01*
G37*
D12*
X238660000Y-78227500D03*
G04 #@! TD*
D11*
G04 #@! TO.C,D49*
G36*
X258359504Y-74541204D02*
X258383773Y-74544804D01*
X258407571Y-74550765D01*
X258430671Y-74559030D01*
X258452849Y-74569520D01*
X258473893Y-74582133D01*
X258493598Y-74596747D01*
X258511777Y-74613223D01*
X258528253Y-74631402D01*
X258542867Y-74651107D01*
X258555480Y-74672151D01*
X258565970Y-74694329D01*
X258574235Y-74717429D01*
X258580196Y-74741227D01*
X258583796Y-74765496D01*
X258585000Y-74790000D01*
X258585000Y-75715000D01*
X258583796Y-75739504D01*
X258580196Y-75763773D01*
X258574235Y-75787571D01*
X258565970Y-75810671D01*
X258555480Y-75832849D01*
X258542867Y-75853893D01*
X258528253Y-75873598D01*
X258511777Y-75891777D01*
X258493598Y-75908253D01*
X258473893Y-75922867D01*
X258452849Y-75935480D01*
X258430671Y-75945970D01*
X258407571Y-75954235D01*
X258383773Y-75960196D01*
X258359504Y-75963796D01*
X258335000Y-75965000D01*
X257085000Y-75965000D01*
X257060496Y-75963796D01*
X257036227Y-75960196D01*
X257012429Y-75954235D01*
X256989329Y-75945970D01*
X256967151Y-75935480D01*
X256946107Y-75922867D01*
X256926402Y-75908253D01*
X256908223Y-75891777D01*
X256891747Y-75873598D01*
X256877133Y-75853893D01*
X256864520Y-75832849D01*
X256854030Y-75810671D01*
X256845765Y-75787571D01*
X256839804Y-75763773D01*
X256836204Y-75739504D01*
X256835000Y-75715000D01*
X256835000Y-74790000D01*
X256836204Y-74765496D01*
X256839804Y-74741227D01*
X256845765Y-74717429D01*
X256854030Y-74694329D01*
X256864520Y-74672151D01*
X256877133Y-74651107D01*
X256891747Y-74631402D01*
X256908223Y-74613223D01*
X256926402Y-74596747D01*
X256946107Y-74582133D01*
X256967151Y-74569520D01*
X256989329Y-74559030D01*
X257012429Y-74550765D01*
X257036227Y-74544804D01*
X257060496Y-74541204D01*
X257085000Y-74540000D01*
X258335000Y-74540000D01*
X258359504Y-74541204D01*
X258359504Y-74541204D01*
G37*
D12*
X257710000Y-75252500D03*
D11*
G36*
X258359504Y-77516204D02*
X258383773Y-77519804D01*
X258407571Y-77525765D01*
X258430671Y-77534030D01*
X258452849Y-77544520D01*
X258473893Y-77557133D01*
X258493598Y-77571747D01*
X258511777Y-77588223D01*
X258528253Y-77606402D01*
X258542867Y-77626107D01*
X258555480Y-77647151D01*
X258565970Y-77669329D01*
X258574235Y-77692429D01*
X258580196Y-77716227D01*
X258583796Y-77740496D01*
X258585000Y-77765000D01*
X258585000Y-78690000D01*
X258583796Y-78714504D01*
X258580196Y-78738773D01*
X258574235Y-78762571D01*
X258565970Y-78785671D01*
X258555480Y-78807849D01*
X258542867Y-78828893D01*
X258528253Y-78848598D01*
X258511777Y-78866777D01*
X258493598Y-78883253D01*
X258473893Y-78897867D01*
X258452849Y-78910480D01*
X258430671Y-78920970D01*
X258407571Y-78929235D01*
X258383773Y-78935196D01*
X258359504Y-78938796D01*
X258335000Y-78940000D01*
X257085000Y-78940000D01*
X257060496Y-78938796D01*
X257036227Y-78935196D01*
X257012429Y-78929235D01*
X256989329Y-78920970D01*
X256967151Y-78910480D01*
X256946107Y-78897867D01*
X256926402Y-78883253D01*
X256908223Y-78866777D01*
X256891747Y-78848598D01*
X256877133Y-78828893D01*
X256864520Y-78807849D01*
X256854030Y-78785671D01*
X256845765Y-78762571D01*
X256839804Y-78738773D01*
X256836204Y-78714504D01*
X256835000Y-78690000D01*
X256835000Y-77765000D01*
X256836204Y-77740496D01*
X256839804Y-77716227D01*
X256845765Y-77692429D01*
X256854030Y-77669329D01*
X256864520Y-77647151D01*
X256877133Y-77626107D01*
X256891747Y-77606402D01*
X256908223Y-77588223D01*
X256926402Y-77571747D01*
X256946107Y-77557133D01*
X256967151Y-77544520D01*
X256989329Y-77534030D01*
X257012429Y-77525765D01*
X257036227Y-77519804D01*
X257060496Y-77516204D01*
X257085000Y-77515000D01*
X258335000Y-77515000D01*
X258359504Y-77516204D01*
X258359504Y-77516204D01*
G37*
D12*
X257710000Y-78227500D03*
G04 #@! TD*
D11*
G04 #@! TO.C,D50*
G36*
X277409504Y-74541204D02*
X277433773Y-74544804D01*
X277457571Y-74550765D01*
X277480671Y-74559030D01*
X277502849Y-74569520D01*
X277523893Y-74582133D01*
X277543598Y-74596747D01*
X277561777Y-74613223D01*
X277578253Y-74631402D01*
X277592867Y-74651107D01*
X277605480Y-74672151D01*
X277615970Y-74694329D01*
X277624235Y-74717429D01*
X277630196Y-74741227D01*
X277633796Y-74765496D01*
X277635000Y-74790000D01*
X277635000Y-75715000D01*
X277633796Y-75739504D01*
X277630196Y-75763773D01*
X277624235Y-75787571D01*
X277615970Y-75810671D01*
X277605480Y-75832849D01*
X277592867Y-75853893D01*
X277578253Y-75873598D01*
X277561777Y-75891777D01*
X277543598Y-75908253D01*
X277523893Y-75922867D01*
X277502849Y-75935480D01*
X277480671Y-75945970D01*
X277457571Y-75954235D01*
X277433773Y-75960196D01*
X277409504Y-75963796D01*
X277385000Y-75965000D01*
X276135000Y-75965000D01*
X276110496Y-75963796D01*
X276086227Y-75960196D01*
X276062429Y-75954235D01*
X276039329Y-75945970D01*
X276017151Y-75935480D01*
X275996107Y-75922867D01*
X275976402Y-75908253D01*
X275958223Y-75891777D01*
X275941747Y-75873598D01*
X275927133Y-75853893D01*
X275914520Y-75832849D01*
X275904030Y-75810671D01*
X275895765Y-75787571D01*
X275889804Y-75763773D01*
X275886204Y-75739504D01*
X275885000Y-75715000D01*
X275885000Y-74790000D01*
X275886204Y-74765496D01*
X275889804Y-74741227D01*
X275895765Y-74717429D01*
X275904030Y-74694329D01*
X275914520Y-74672151D01*
X275927133Y-74651107D01*
X275941747Y-74631402D01*
X275958223Y-74613223D01*
X275976402Y-74596747D01*
X275996107Y-74582133D01*
X276017151Y-74569520D01*
X276039329Y-74559030D01*
X276062429Y-74550765D01*
X276086227Y-74544804D01*
X276110496Y-74541204D01*
X276135000Y-74540000D01*
X277385000Y-74540000D01*
X277409504Y-74541204D01*
X277409504Y-74541204D01*
G37*
D12*
X276760000Y-75252500D03*
D11*
G36*
X277409504Y-77516204D02*
X277433773Y-77519804D01*
X277457571Y-77525765D01*
X277480671Y-77534030D01*
X277502849Y-77544520D01*
X277523893Y-77557133D01*
X277543598Y-77571747D01*
X277561777Y-77588223D01*
X277578253Y-77606402D01*
X277592867Y-77626107D01*
X277605480Y-77647151D01*
X277615970Y-77669329D01*
X277624235Y-77692429D01*
X277630196Y-77716227D01*
X277633796Y-77740496D01*
X277635000Y-77765000D01*
X277635000Y-78690000D01*
X277633796Y-78714504D01*
X277630196Y-78738773D01*
X277624235Y-78762571D01*
X277615970Y-78785671D01*
X277605480Y-78807849D01*
X277592867Y-78828893D01*
X277578253Y-78848598D01*
X277561777Y-78866777D01*
X277543598Y-78883253D01*
X277523893Y-78897867D01*
X277502849Y-78910480D01*
X277480671Y-78920970D01*
X277457571Y-78929235D01*
X277433773Y-78935196D01*
X277409504Y-78938796D01*
X277385000Y-78940000D01*
X276135000Y-78940000D01*
X276110496Y-78938796D01*
X276086227Y-78935196D01*
X276062429Y-78929235D01*
X276039329Y-78920970D01*
X276017151Y-78910480D01*
X275996107Y-78897867D01*
X275976402Y-78883253D01*
X275958223Y-78866777D01*
X275941747Y-78848598D01*
X275927133Y-78828893D01*
X275914520Y-78807849D01*
X275904030Y-78785671D01*
X275895765Y-78762571D01*
X275889804Y-78738773D01*
X275886204Y-78714504D01*
X275885000Y-78690000D01*
X275885000Y-77765000D01*
X275886204Y-77740496D01*
X275889804Y-77716227D01*
X275895765Y-77692429D01*
X275904030Y-77669329D01*
X275914520Y-77647151D01*
X275927133Y-77626107D01*
X275941747Y-77606402D01*
X275958223Y-77588223D01*
X275976402Y-77571747D01*
X275996107Y-77557133D01*
X276017151Y-77544520D01*
X276039329Y-77534030D01*
X276062429Y-77525765D01*
X276086227Y-77519804D01*
X276110496Y-77516204D01*
X276135000Y-77515000D01*
X277385000Y-77515000D01*
X277409504Y-77516204D01*
X277409504Y-77516204D01*
G37*
D12*
X276760000Y-78227500D03*
G04 #@! TD*
D11*
G04 #@! TO.C,D51*
G36*
X296459504Y-74541204D02*
X296483773Y-74544804D01*
X296507571Y-74550765D01*
X296530671Y-74559030D01*
X296552849Y-74569520D01*
X296573893Y-74582133D01*
X296593598Y-74596747D01*
X296611777Y-74613223D01*
X296628253Y-74631402D01*
X296642867Y-74651107D01*
X296655480Y-74672151D01*
X296665970Y-74694329D01*
X296674235Y-74717429D01*
X296680196Y-74741227D01*
X296683796Y-74765496D01*
X296685000Y-74790000D01*
X296685000Y-75715000D01*
X296683796Y-75739504D01*
X296680196Y-75763773D01*
X296674235Y-75787571D01*
X296665970Y-75810671D01*
X296655480Y-75832849D01*
X296642867Y-75853893D01*
X296628253Y-75873598D01*
X296611777Y-75891777D01*
X296593598Y-75908253D01*
X296573893Y-75922867D01*
X296552849Y-75935480D01*
X296530671Y-75945970D01*
X296507571Y-75954235D01*
X296483773Y-75960196D01*
X296459504Y-75963796D01*
X296435000Y-75965000D01*
X295185000Y-75965000D01*
X295160496Y-75963796D01*
X295136227Y-75960196D01*
X295112429Y-75954235D01*
X295089329Y-75945970D01*
X295067151Y-75935480D01*
X295046107Y-75922867D01*
X295026402Y-75908253D01*
X295008223Y-75891777D01*
X294991747Y-75873598D01*
X294977133Y-75853893D01*
X294964520Y-75832849D01*
X294954030Y-75810671D01*
X294945765Y-75787571D01*
X294939804Y-75763773D01*
X294936204Y-75739504D01*
X294935000Y-75715000D01*
X294935000Y-74790000D01*
X294936204Y-74765496D01*
X294939804Y-74741227D01*
X294945765Y-74717429D01*
X294954030Y-74694329D01*
X294964520Y-74672151D01*
X294977133Y-74651107D01*
X294991747Y-74631402D01*
X295008223Y-74613223D01*
X295026402Y-74596747D01*
X295046107Y-74582133D01*
X295067151Y-74569520D01*
X295089329Y-74559030D01*
X295112429Y-74550765D01*
X295136227Y-74544804D01*
X295160496Y-74541204D01*
X295185000Y-74540000D01*
X296435000Y-74540000D01*
X296459504Y-74541204D01*
X296459504Y-74541204D01*
G37*
D12*
X295810000Y-75252500D03*
D11*
G36*
X296459504Y-77516204D02*
X296483773Y-77519804D01*
X296507571Y-77525765D01*
X296530671Y-77534030D01*
X296552849Y-77544520D01*
X296573893Y-77557133D01*
X296593598Y-77571747D01*
X296611777Y-77588223D01*
X296628253Y-77606402D01*
X296642867Y-77626107D01*
X296655480Y-77647151D01*
X296665970Y-77669329D01*
X296674235Y-77692429D01*
X296680196Y-77716227D01*
X296683796Y-77740496D01*
X296685000Y-77765000D01*
X296685000Y-78690000D01*
X296683796Y-78714504D01*
X296680196Y-78738773D01*
X296674235Y-78762571D01*
X296665970Y-78785671D01*
X296655480Y-78807849D01*
X296642867Y-78828893D01*
X296628253Y-78848598D01*
X296611777Y-78866777D01*
X296593598Y-78883253D01*
X296573893Y-78897867D01*
X296552849Y-78910480D01*
X296530671Y-78920970D01*
X296507571Y-78929235D01*
X296483773Y-78935196D01*
X296459504Y-78938796D01*
X296435000Y-78940000D01*
X295185000Y-78940000D01*
X295160496Y-78938796D01*
X295136227Y-78935196D01*
X295112429Y-78929235D01*
X295089329Y-78920970D01*
X295067151Y-78910480D01*
X295046107Y-78897867D01*
X295026402Y-78883253D01*
X295008223Y-78866777D01*
X294991747Y-78848598D01*
X294977133Y-78828893D01*
X294964520Y-78807849D01*
X294954030Y-78785671D01*
X294945765Y-78762571D01*
X294939804Y-78738773D01*
X294936204Y-78714504D01*
X294935000Y-78690000D01*
X294935000Y-77765000D01*
X294936204Y-77740496D01*
X294939804Y-77716227D01*
X294945765Y-77692429D01*
X294954030Y-77669329D01*
X294964520Y-77647151D01*
X294977133Y-77626107D01*
X294991747Y-77606402D01*
X295008223Y-77588223D01*
X295026402Y-77571747D01*
X295046107Y-77557133D01*
X295067151Y-77544520D01*
X295089329Y-77534030D01*
X295112429Y-77525765D01*
X295136227Y-77519804D01*
X295160496Y-77516204D01*
X295185000Y-77515000D01*
X296435000Y-77515000D01*
X296459504Y-77516204D01*
X296459504Y-77516204D01*
G37*
D12*
X295810000Y-78227500D03*
G04 #@! TD*
D11*
G04 #@! TO.C,D52*
G36*
X315509504Y-74541204D02*
X315533773Y-74544804D01*
X315557571Y-74550765D01*
X315580671Y-74559030D01*
X315602849Y-74569520D01*
X315623893Y-74582133D01*
X315643598Y-74596747D01*
X315661777Y-74613223D01*
X315678253Y-74631402D01*
X315692867Y-74651107D01*
X315705480Y-74672151D01*
X315715970Y-74694329D01*
X315724235Y-74717429D01*
X315730196Y-74741227D01*
X315733796Y-74765496D01*
X315735000Y-74790000D01*
X315735000Y-75715000D01*
X315733796Y-75739504D01*
X315730196Y-75763773D01*
X315724235Y-75787571D01*
X315715970Y-75810671D01*
X315705480Y-75832849D01*
X315692867Y-75853893D01*
X315678253Y-75873598D01*
X315661777Y-75891777D01*
X315643598Y-75908253D01*
X315623893Y-75922867D01*
X315602849Y-75935480D01*
X315580671Y-75945970D01*
X315557571Y-75954235D01*
X315533773Y-75960196D01*
X315509504Y-75963796D01*
X315485000Y-75965000D01*
X314235000Y-75965000D01*
X314210496Y-75963796D01*
X314186227Y-75960196D01*
X314162429Y-75954235D01*
X314139329Y-75945970D01*
X314117151Y-75935480D01*
X314096107Y-75922867D01*
X314076402Y-75908253D01*
X314058223Y-75891777D01*
X314041747Y-75873598D01*
X314027133Y-75853893D01*
X314014520Y-75832849D01*
X314004030Y-75810671D01*
X313995765Y-75787571D01*
X313989804Y-75763773D01*
X313986204Y-75739504D01*
X313985000Y-75715000D01*
X313985000Y-74790000D01*
X313986204Y-74765496D01*
X313989804Y-74741227D01*
X313995765Y-74717429D01*
X314004030Y-74694329D01*
X314014520Y-74672151D01*
X314027133Y-74651107D01*
X314041747Y-74631402D01*
X314058223Y-74613223D01*
X314076402Y-74596747D01*
X314096107Y-74582133D01*
X314117151Y-74569520D01*
X314139329Y-74559030D01*
X314162429Y-74550765D01*
X314186227Y-74544804D01*
X314210496Y-74541204D01*
X314235000Y-74540000D01*
X315485000Y-74540000D01*
X315509504Y-74541204D01*
X315509504Y-74541204D01*
G37*
D12*
X314860000Y-75252500D03*
D11*
G36*
X315509504Y-77516204D02*
X315533773Y-77519804D01*
X315557571Y-77525765D01*
X315580671Y-77534030D01*
X315602849Y-77544520D01*
X315623893Y-77557133D01*
X315643598Y-77571747D01*
X315661777Y-77588223D01*
X315678253Y-77606402D01*
X315692867Y-77626107D01*
X315705480Y-77647151D01*
X315715970Y-77669329D01*
X315724235Y-77692429D01*
X315730196Y-77716227D01*
X315733796Y-77740496D01*
X315735000Y-77765000D01*
X315735000Y-78690000D01*
X315733796Y-78714504D01*
X315730196Y-78738773D01*
X315724235Y-78762571D01*
X315715970Y-78785671D01*
X315705480Y-78807849D01*
X315692867Y-78828893D01*
X315678253Y-78848598D01*
X315661777Y-78866777D01*
X315643598Y-78883253D01*
X315623893Y-78897867D01*
X315602849Y-78910480D01*
X315580671Y-78920970D01*
X315557571Y-78929235D01*
X315533773Y-78935196D01*
X315509504Y-78938796D01*
X315485000Y-78940000D01*
X314235000Y-78940000D01*
X314210496Y-78938796D01*
X314186227Y-78935196D01*
X314162429Y-78929235D01*
X314139329Y-78920970D01*
X314117151Y-78910480D01*
X314096107Y-78897867D01*
X314076402Y-78883253D01*
X314058223Y-78866777D01*
X314041747Y-78848598D01*
X314027133Y-78828893D01*
X314014520Y-78807849D01*
X314004030Y-78785671D01*
X313995765Y-78762571D01*
X313989804Y-78738773D01*
X313986204Y-78714504D01*
X313985000Y-78690000D01*
X313985000Y-77765000D01*
X313986204Y-77740496D01*
X313989804Y-77716227D01*
X313995765Y-77692429D01*
X314004030Y-77669329D01*
X314014520Y-77647151D01*
X314027133Y-77626107D01*
X314041747Y-77606402D01*
X314058223Y-77588223D01*
X314076402Y-77571747D01*
X314096107Y-77557133D01*
X314117151Y-77544520D01*
X314139329Y-77534030D01*
X314162429Y-77525765D01*
X314186227Y-77519804D01*
X314210496Y-77516204D01*
X314235000Y-77515000D01*
X315485000Y-77515000D01*
X315509504Y-77516204D01*
X315509504Y-77516204D01*
G37*
D12*
X314860000Y-78227500D03*
G04 #@! TD*
D11*
G04 #@! TO.C,D53*
G36*
X334559504Y-74541204D02*
X334583773Y-74544804D01*
X334607571Y-74550765D01*
X334630671Y-74559030D01*
X334652849Y-74569520D01*
X334673893Y-74582133D01*
X334693598Y-74596747D01*
X334711777Y-74613223D01*
X334728253Y-74631402D01*
X334742867Y-74651107D01*
X334755480Y-74672151D01*
X334765970Y-74694329D01*
X334774235Y-74717429D01*
X334780196Y-74741227D01*
X334783796Y-74765496D01*
X334785000Y-74790000D01*
X334785000Y-75715000D01*
X334783796Y-75739504D01*
X334780196Y-75763773D01*
X334774235Y-75787571D01*
X334765970Y-75810671D01*
X334755480Y-75832849D01*
X334742867Y-75853893D01*
X334728253Y-75873598D01*
X334711777Y-75891777D01*
X334693598Y-75908253D01*
X334673893Y-75922867D01*
X334652849Y-75935480D01*
X334630671Y-75945970D01*
X334607571Y-75954235D01*
X334583773Y-75960196D01*
X334559504Y-75963796D01*
X334535000Y-75965000D01*
X333285000Y-75965000D01*
X333260496Y-75963796D01*
X333236227Y-75960196D01*
X333212429Y-75954235D01*
X333189329Y-75945970D01*
X333167151Y-75935480D01*
X333146107Y-75922867D01*
X333126402Y-75908253D01*
X333108223Y-75891777D01*
X333091747Y-75873598D01*
X333077133Y-75853893D01*
X333064520Y-75832849D01*
X333054030Y-75810671D01*
X333045765Y-75787571D01*
X333039804Y-75763773D01*
X333036204Y-75739504D01*
X333035000Y-75715000D01*
X333035000Y-74790000D01*
X333036204Y-74765496D01*
X333039804Y-74741227D01*
X333045765Y-74717429D01*
X333054030Y-74694329D01*
X333064520Y-74672151D01*
X333077133Y-74651107D01*
X333091747Y-74631402D01*
X333108223Y-74613223D01*
X333126402Y-74596747D01*
X333146107Y-74582133D01*
X333167151Y-74569520D01*
X333189329Y-74559030D01*
X333212429Y-74550765D01*
X333236227Y-74544804D01*
X333260496Y-74541204D01*
X333285000Y-74540000D01*
X334535000Y-74540000D01*
X334559504Y-74541204D01*
X334559504Y-74541204D01*
G37*
D12*
X333910000Y-75252500D03*
D11*
G36*
X334559504Y-77516204D02*
X334583773Y-77519804D01*
X334607571Y-77525765D01*
X334630671Y-77534030D01*
X334652849Y-77544520D01*
X334673893Y-77557133D01*
X334693598Y-77571747D01*
X334711777Y-77588223D01*
X334728253Y-77606402D01*
X334742867Y-77626107D01*
X334755480Y-77647151D01*
X334765970Y-77669329D01*
X334774235Y-77692429D01*
X334780196Y-77716227D01*
X334783796Y-77740496D01*
X334785000Y-77765000D01*
X334785000Y-78690000D01*
X334783796Y-78714504D01*
X334780196Y-78738773D01*
X334774235Y-78762571D01*
X334765970Y-78785671D01*
X334755480Y-78807849D01*
X334742867Y-78828893D01*
X334728253Y-78848598D01*
X334711777Y-78866777D01*
X334693598Y-78883253D01*
X334673893Y-78897867D01*
X334652849Y-78910480D01*
X334630671Y-78920970D01*
X334607571Y-78929235D01*
X334583773Y-78935196D01*
X334559504Y-78938796D01*
X334535000Y-78940000D01*
X333285000Y-78940000D01*
X333260496Y-78938796D01*
X333236227Y-78935196D01*
X333212429Y-78929235D01*
X333189329Y-78920970D01*
X333167151Y-78910480D01*
X333146107Y-78897867D01*
X333126402Y-78883253D01*
X333108223Y-78866777D01*
X333091747Y-78848598D01*
X333077133Y-78828893D01*
X333064520Y-78807849D01*
X333054030Y-78785671D01*
X333045765Y-78762571D01*
X333039804Y-78738773D01*
X333036204Y-78714504D01*
X333035000Y-78690000D01*
X333035000Y-77765000D01*
X333036204Y-77740496D01*
X333039804Y-77716227D01*
X333045765Y-77692429D01*
X333054030Y-77669329D01*
X333064520Y-77647151D01*
X333077133Y-77626107D01*
X333091747Y-77606402D01*
X333108223Y-77588223D01*
X333126402Y-77571747D01*
X333146107Y-77557133D01*
X333167151Y-77544520D01*
X333189329Y-77534030D01*
X333212429Y-77525765D01*
X333236227Y-77519804D01*
X333260496Y-77516204D01*
X333285000Y-77515000D01*
X334535000Y-77515000D01*
X334559504Y-77516204D01*
X334559504Y-77516204D01*
G37*
D12*
X333910000Y-78227500D03*
G04 #@! TD*
D11*
G04 #@! TO.C,D54*
G36*
X349059504Y-74541204D02*
X349083773Y-74544804D01*
X349107571Y-74550765D01*
X349130671Y-74559030D01*
X349152849Y-74569520D01*
X349173893Y-74582133D01*
X349193598Y-74596747D01*
X349211777Y-74613223D01*
X349228253Y-74631402D01*
X349242867Y-74651107D01*
X349255480Y-74672151D01*
X349265970Y-74694329D01*
X349274235Y-74717429D01*
X349280196Y-74741227D01*
X349283796Y-74765496D01*
X349285000Y-74790000D01*
X349285000Y-75715000D01*
X349283796Y-75739504D01*
X349280196Y-75763773D01*
X349274235Y-75787571D01*
X349265970Y-75810671D01*
X349255480Y-75832849D01*
X349242867Y-75853893D01*
X349228253Y-75873598D01*
X349211777Y-75891777D01*
X349193598Y-75908253D01*
X349173893Y-75922867D01*
X349152849Y-75935480D01*
X349130671Y-75945970D01*
X349107571Y-75954235D01*
X349083773Y-75960196D01*
X349059504Y-75963796D01*
X349035000Y-75965000D01*
X347785000Y-75965000D01*
X347760496Y-75963796D01*
X347736227Y-75960196D01*
X347712429Y-75954235D01*
X347689329Y-75945970D01*
X347667151Y-75935480D01*
X347646107Y-75922867D01*
X347626402Y-75908253D01*
X347608223Y-75891777D01*
X347591747Y-75873598D01*
X347577133Y-75853893D01*
X347564520Y-75832849D01*
X347554030Y-75810671D01*
X347545765Y-75787571D01*
X347539804Y-75763773D01*
X347536204Y-75739504D01*
X347535000Y-75715000D01*
X347535000Y-74790000D01*
X347536204Y-74765496D01*
X347539804Y-74741227D01*
X347545765Y-74717429D01*
X347554030Y-74694329D01*
X347564520Y-74672151D01*
X347577133Y-74651107D01*
X347591747Y-74631402D01*
X347608223Y-74613223D01*
X347626402Y-74596747D01*
X347646107Y-74582133D01*
X347667151Y-74569520D01*
X347689329Y-74559030D01*
X347712429Y-74550765D01*
X347736227Y-74544804D01*
X347760496Y-74541204D01*
X347785000Y-74540000D01*
X349035000Y-74540000D01*
X349059504Y-74541204D01*
X349059504Y-74541204D01*
G37*
D12*
X348410000Y-75252500D03*
D11*
G36*
X349059504Y-77516204D02*
X349083773Y-77519804D01*
X349107571Y-77525765D01*
X349130671Y-77534030D01*
X349152849Y-77544520D01*
X349173893Y-77557133D01*
X349193598Y-77571747D01*
X349211777Y-77588223D01*
X349228253Y-77606402D01*
X349242867Y-77626107D01*
X349255480Y-77647151D01*
X349265970Y-77669329D01*
X349274235Y-77692429D01*
X349280196Y-77716227D01*
X349283796Y-77740496D01*
X349285000Y-77765000D01*
X349285000Y-78690000D01*
X349283796Y-78714504D01*
X349280196Y-78738773D01*
X349274235Y-78762571D01*
X349265970Y-78785671D01*
X349255480Y-78807849D01*
X349242867Y-78828893D01*
X349228253Y-78848598D01*
X349211777Y-78866777D01*
X349193598Y-78883253D01*
X349173893Y-78897867D01*
X349152849Y-78910480D01*
X349130671Y-78920970D01*
X349107571Y-78929235D01*
X349083773Y-78935196D01*
X349059504Y-78938796D01*
X349035000Y-78940000D01*
X347785000Y-78940000D01*
X347760496Y-78938796D01*
X347736227Y-78935196D01*
X347712429Y-78929235D01*
X347689329Y-78920970D01*
X347667151Y-78910480D01*
X347646107Y-78897867D01*
X347626402Y-78883253D01*
X347608223Y-78866777D01*
X347591747Y-78848598D01*
X347577133Y-78828893D01*
X347564520Y-78807849D01*
X347554030Y-78785671D01*
X347545765Y-78762571D01*
X347539804Y-78738773D01*
X347536204Y-78714504D01*
X347535000Y-78690000D01*
X347535000Y-77765000D01*
X347536204Y-77740496D01*
X347539804Y-77716227D01*
X347545765Y-77692429D01*
X347554030Y-77669329D01*
X347564520Y-77647151D01*
X347577133Y-77626107D01*
X347591747Y-77606402D01*
X347608223Y-77588223D01*
X347626402Y-77571747D01*
X347646107Y-77557133D01*
X347667151Y-77544520D01*
X347689329Y-77534030D01*
X347712429Y-77525765D01*
X347736227Y-77519804D01*
X347760496Y-77516204D01*
X347785000Y-77515000D01*
X349035000Y-77515000D01*
X349059504Y-77516204D01*
X349059504Y-77516204D01*
G37*
D12*
X348410000Y-78227500D03*
G04 #@! TD*
D11*
G04 #@! TO.C,D55*
G36*
X368489504Y-83221204D02*
X368513773Y-83224804D01*
X368537571Y-83230765D01*
X368560671Y-83239030D01*
X368582849Y-83249520D01*
X368603893Y-83262133D01*
X368623598Y-83276747D01*
X368641777Y-83293223D01*
X368658253Y-83311402D01*
X368672867Y-83331107D01*
X368685480Y-83352151D01*
X368695970Y-83374329D01*
X368704235Y-83397429D01*
X368710196Y-83421227D01*
X368713796Y-83445496D01*
X368715000Y-83470000D01*
X368715000Y-84395000D01*
X368713796Y-84419504D01*
X368710196Y-84443773D01*
X368704235Y-84467571D01*
X368695970Y-84490671D01*
X368685480Y-84512849D01*
X368672867Y-84533893D01*
X368658253Y-84553598D01*
X368641777Y-84571777D01*
X368623598Y-84588253D01*
X368603893Y-84602867D01*
X368582849Y-84615480D01*
X368560671Y-84625970D01*
X368537571Y-84634235D01*
X368513773Y-84640196D01*
X368489504Y-84643796D01*
X368465000Y-84645000D01*
X367215000Y-84645000D01*
X367190496Y-84643796D01*
X367166227Y-84640196D01*
X367142429Y-84634235D01*
X367119329Y-84625970D01*
X367097151Y-84615480D01*
X367076107Y-84602867D01*
X367056402Y-84588253D01*
X367038223Y-84571777D01*
X367021747Y-84553598D01*
X367007133Y-84533893D01*
X366994520Y-84512849D01*
X366984030Y-84490671D01*
X366975765Y-84467571D01*
X366969804Y-84443773D01*
X366966204Y-84419504D01*
X366965000Y-84395000D01*
X366965000Y-83470000D01*
X366966204Y-83445496D01*
X366969804Y-83421227D01*
X366975765Y-83397429D01*
X366984030Y-83374329D01*
X366994520Y-83352151D01*
X367007133Y-83331107D01*
X367021747Y-83311402D01*
X367038223Y-83293223D01*
X367056402Y-83276747D01*
X367076107Y-83262133D01*
X367097151Y-83249520D01*
X367119329Y-83239030D01*
X367142429Y-83230765D01*
X367166227Y-83224804D01*
X367190496Y-83221204D01*
X367215000Y-83220000D01*
X368465000Y-83220000D01*
X368489504Y-83221204D01*
X368489504Y-83221204D01*
G37*
D12*
X367840000Y-83932500D03*
D11*
G36*
X368489504Y-86196204D02*
X368513773Y-86199804D01*
X368537571Y-86205765D01*
X368560671Y-86214030D01*
X368582849Y-86224520D01*
X368603893Y-86237133D01*
X368623598Y-86251747D01*
X368641777Y-86268223D01*
X368658253Y-86286402D01*
X368672867Y-86306107D01*
X368685480Y-86327151D01*
X368695970Y-86349329D01*
X368704235Y-86372429D01*
X368710196Y-86396227D01*
X368713796Y-86420496D01*
X368715000Y-86445000D01*
X368715000Y-87370000D01*
X368713796Y-87394504D01*
X368710196Y-87418773D01*
X368704235Y-87442571D01*
X368695970Y-87465671D01*
X368685480Y-87487849D01*
X368672867Y-87508893D01*
X368658253Y-87528598D01*
X368641777Y-87546777D01*
X368623598Y-87563253D01*
X368603893Y-87577867D01*
X368582849Y-87590480D01*
X368560671Y-87600970D01*
X368537571Y-87609235D01*
X368513773Y-87615196D01*
X368489504Y-87618796D01*
X368465000Y-87620000D01*
X367215000Y-87620000D01*
X367190496Y-87618796D01*
X367166227Y-87615196D01*
X367142429Y-87609235D01*
X367119329Y-87600970D01*
X367097151Y-87590480D01*
X367076107Y-87577867D01*
X367056402Y-87563253D01*
X367038223Y-87546777D01*
X367021747Y-87528598D01*
X367007133Y-87508893D01*
X366994520Y-87487849D01*
X366984030Y-87465671D01*
X366975765Y-87442571D01*
X366969804Y-87418773D01*
X366966204Y-87394504D01*
X366965000Y-87370000D01*
X366965000Y-86445000D01*
X366966204Y-86420496D01*
X366969804Y-86396227D01*
X366975765Y-86372429D01*
X366984030Y-86349329D01*
X366994520Y-86327151D01*
X367007133Y-86306107D01*
X367021747Y-86286402D01*
X367038223Y-86268223D01*
X367056402Y-86251747D01*
X367076107Y-86237133D01*
X367097151Y-86224520D01*
X367119329Y-86214030D01*
X367142429Y-86205765D01*
X367166227Y-86199804D01*
X367190496Y-86196204D01*
X367215000Y-86195000D01*
X368465000Y-86195000D01*
X368489504Y-86196204D01*
X368489504Y-86196204D01*
G37*
D12*
X367840000Y-86907500D03*
G04 #@! TD*
D11*
G04 #@! TO.C,D56*
G36*
X229799504Y-93561204D02*
X229823773Y-93564804D01*
X229847571Y-93570765D01*
X229870671Y-93579030D01*
X229892849Y-93589520D01*
X229913893Y-93602133D01*
X229933598Y-93616747D01*
X229951777Y-93633223D01*
X229968253Y-93651402D01*
X229982867Y-93671107D01*
X229995480Y-93692151D01*
X230005970Y-93714329D01*
X230014235Y-93737429D01*
X230020196Y-93761227D01*
X230023796Y-93785496D01*
X230025000Y-93810000D01*
X230025000Y-94735000D01*
X230023796Y-94759504D01*
X230020196Y-94783773D01*
X230014235Y-94807571D01*
X230005970Y-94830671D01*
X229995480Y-94852849D01*
X229982867Y-94873893D01*
X229968253Y-94893598D01*
X229951777Y-94911777D01*
X229933598Y-94928253D01*
X229913893Y-94942867D01*
X229892849Y-94955480D01*
X229870671Y-94965970D01*
X229847571Y-94974235D01*
X229823773Y-94980196D01*
X229799504Y-94983796D01*
X229775000Y-94985000D01*
X228525000Y-94985000D01*
X228500496Y-94983796D01*
X228476227Y-94980196D01*
X228452429Y-94974235D01*
X228429329Y-94965970D01*
X228407151Y-94955480D01*
X228386107Y-94942867D01*
X228366402Y-94928253D01*
X228348223Y-94911777D01*
X228331747Y-94893598D01*
X228317133Y-94873893D01*
X228304520Y-94852849D01*
X228294030Y-94830671D01*
X228285765Y-94807571D01*
X228279804Y-94783773D01*
X228276204Y-94759504D01*
X228275000Y-94735000D01*
X228275000Y-93810000D01*
X228276204Y-93785496D01*
X228279804Y-93761227D01*
X228285765Y-93737429D01*
X228294030Y-93714329D01*
X228304520Y-93692151D01*
X228317133Y-93671107D01*
X228331747Y-93651402D01*
X228348223Y-93633223D01*
X228366402Y-93616747D01*
X228386107Y-93602133D01*
X228407151Y-93589520D01*
X228429329Y-93579030D01*
X228452429Y-93570765D01*
X228476227Y-93564804D01*
X228500496Y-93561204D01*
X228525000Y-93560000D01*
X229775000Y-93560000D01*
X229799504Y-93561204D01*
X229799504Y-93561204D01*
G37*
D12*
X229150000Y-94272500D03*
D11*
G36*
X229799504Y-96536204D02*
X229823773Y-96539804D01*
X229847571Y-96545765D01*
X229870671Y-96554030D01*
X229892849Y-96564520D01*
X229913893Y-96577133D01*
X229933598Y-96591747D01*
X229951777Y-96608223D01*
X229968253Y-96626402D01*
X229982867Y-96646107D01*
X229995480Y-96667151D01*
X230005970Y-96689329D01*
X230014235Y-96712429D01*
X230020196Y-96736227D01*
X230023796Y-96760496D01*
X230025000Y-96785000D01*
X230025000Y-97710000D01*
X230023796Y-97734504D01*
X230020196Y-97758773D01*
X230014235Y-97782571D01*
X230005970Y-97805671D01*
X229995480Y-97827849D01*
X229982867Y-97848893D01*
X229968253Y-97868598D01*
X229951777Y-97886777D01*
X229933598Y-97903253D01*
X229913893Y-97917867D01*
X229892849Y-97930480D01*
X229870671Y-97940970D01*
X229847571Y-97949235D01*
X229823773Y-97955196D01*
X229799504Y-97958796D01*
X229775000Y-97960000D01*
X228525000Y-97960000D01*
X228500496Y-97958796D01*
X228476227Y-97955196D01*
X228452429Y-97949235D01*
X228429329Y-97940970D01*
X228407151Y-97930480D01*
X228386107Y-97917867D01*
X228366402Y-97903253D01*
X228348223Y-97886777D01*
X228331747Y-97868598D01*
X228317133Y-97848893D01*
X228304520Y-97827849D01*
X228294030Y-97805671D01*
X228285765Y-97782571D01*
X228279804Y-97758773D01*
X228276204Y-97734504D01*
X228275000Y-97710000D01*
X228275000Y-96785000D01*
X228276204Y-96760496D01*
X228279804Y-96736227D01*
X228285765Y-96712429D01*
X228294030Y-96689329D01*
X228304520Y-96667151D01*
X228317133Y-96646107D01*
X228331747Y-96626402D01*
X228348223Y-96608223D01*
X228366402Y-96591747D01*
X228386107Y-96577133D01*
X228407151Y-96564520D01*
X228429329Y-96554030D01*
X228452429Y-96545765D01*
X228476227Y-96539804D01*
X228500496Y-96536204D01*
X228525000Y-96535000D01*
X229775000Y-96535000D01*
X229799504Y-96536204D01*
X229799504Y-96536204D01*
G37*
D12*
X229150000Y-97247500D03*
G04 #@! TD*
D11*
G04 #@! TO.C,D57*
G36*
X248849504Y-93561204D02*
X248873773Y-93564804D01*
X248897571Y-93570765D01*
X248920671Y-93579030D01*
X248942849Y-93589520D01*
X248963893Y-93602133D01*
X248983598Y-93616747D01*
X249001777Y-93633223D01*
X249018253Y-93651402D01*
X249032867Y-93671107D01*
X249045480Y-93692151D01*
X249055970Y-93714329D01*
X249064235Y-93737429D01*
X249070196Y-93761227D01*
X249073796Y-93785496D01*
X249075000Y-93810000D01*
X249075000Y-94735000D01*
X249073796Y-94759504D01*
X249070196Y-94783773D01*
X249064235Y-94807571D01*
X249055970Y-94830671D01*
X249045480Y-94852849D01*
X249032867Y-94873893D01*
X249018253Y-94893598D01*
X249001777Y-94911777D01*
X248983598Y-94928253D01*
X248963893Y-94942867D01*
X248942849Y-94955480D01*
X248920671Y-94965970D01*
X248897571Y-94974235D01*
X248873773Y-94980196D01*
X248849504Y-94983796D01*
X248825000Y-94985000D01*
X247575000Y-94985000D01*
X247550496Y-94983796D01*
X247526227Y-94980196D01*
X247502429Y-94974235D01*
X247479329Y-94965970D01*
X247457151Y-94955480D01*
X247436107Y-94942867D01*
X247416402Y-94928253D01*
X247398223Y-94911777D01*
X247381747Y-94893598D01*
X247367133Y-94873893D01*
X247354520Y-94852849D01*
X247344030Y-94830671D01*
X247335765Y-94807571D01*
X247329804Y-94783773D01*
X247326204Y-94759504D01*
X247325000Y-94735000D01*
X247325000Y-93810000D01*
X247326204Y-93785496D01*
X247329804Y-93761227D01*
X247335765Y-93737429D01*
X247344030Y-93714329D01*
X247354520Y-93692151D01*
X247367133Y-93671107D01*
X247381747Y-93651402D01*
X247398223Y-93633223D01*
X247416402Y-93616747D01*
X247436107Y-93602133D01*
X247457151Y-93589520D01*
X247479329Y-93579030D01*
X247502429Y-93570765D01*
X247526227Y-93564804D01*
X247550496Y-93561204D01*
X247575000Y-93560000D01*
X248825000Y-93560000D01*
X248849504Y-93561204D01*
X248849504Y-93561204D01*
G37*
D12*
X248200000Y-94272500D03*
D11*
G36*
X248849504Y-96536204D02*
X248873773Y-96539804D01*
X248897571Y-96545765D01*
X248920671Y-96554030D01*
X248942849Y-96564520D01*
X248963893Y-96577133D01*
X248983598Y-96591747D01*
X249001777Y-96608223D01*
X249018253Y-96626402D01*
X249032867Y-96646107D01*
X249045480Y-96667151D01*
X249055970Y-96689329D01*
X249064235Y-96712429D01*
X249070196Y-96736227D01*
X249073796Y-96760496D01*
X249075000Y-96785000D01*
X249075000Y-97710000D01*
X249073796Y-97734504D01*
X249070196Y-97758773D01*
X249064235Y-97782571D01*
X249055970Y-97805671D01*
X249045480Y-97827849D01*
X249032867Y-97848893D01*
X249018253Y-97868598D01*
X249001777Y-97886777D01*
X248983598Y-97903253D01*
X248963893Y-97917867D01*
X248942849Y-97930480D01*
X248920671Y-97940970D01*
X248897571Y-97949235D01*
X248873773Y-97955196D01*
X248849504Y-97958796D01*
X248825000Y-97960000D01*
X247575000Y-97960000D01*
X247550496Y-97958796D01*
X247526227Y-97955196D01*
X247502429Y-97949235D01*
X247479329Y-97940970D01*
X247457151Y-97930480D01*
X247436107Y-97917867D01*
X247416402Y-97903253D01*
X247398223Y-97886777D01*
X247381747Y-97868598D01*
X247367133Y-97848893D01*
X247354520Y-97827849D01*
X247344030Y-97805671D01*
X247335765Y-97782571D01*
X247329804Y-97758773D01*
X247326204Y-97734504D01*
X247325000Y-97710000D01*
X247325000Y-96785000D01*
X247326204Y-96760496D01*
X247329804Y-96736227D01*
X247335765Y-96712429D01*
X247344030Y-96689329D01*
X247354520Y-96667151D01*
X247367133Y-96646107D01*
X247381747Y-96626402D01*
X247398223Y-96608223D01*
X247416402Y-96591747D01*
X247436107Y-96577133D01*
X247457151Y-96564520D01*
X247479329Y-96554030D01*
X247502429Y-96545765D01*
X247526227Y-96539804D01*
X247550496Y-96536204D01*
X247575000Y-96535000D01*
X248825000Y-96535000D01*
X248849504Y-96536204D01*
X248849504Y-96536204D01*
G37*
D12*
X248200000Y-97247500D03*
G04 #@! TD*
D11*
G04 #@! TO.C,D58*
G36*
X267899504Y-93561204D02*
X267923773Y-93564804D01*
X267947571Y-93570765D01*
X267970671Y-93579030D01*
X267992849Y-93589520D01*
X268013893Y-93602133D01*
X268033598Y-93616747D01*
X268051777Y-93633223D01*
X268068253Y-93651402D01*
X268082867Y-93671107D01*
X268095480Y-93692151D01*
X268105970Y-93714329D01*
X268114235Y-93737429D01*
X268120196Y-93761227D01*
X268123796Y-93785496D01*
X268125000Y-93810000D01*
X268125000Y-94735000D01*
X268123796Y-94759504D01*
X268120196Y-94783773D01*
X268114235Y-94807571D01*
X268105970Y-94830671D01*
X268095480Y-94852849D01*
X268082867Y-94873893D01*
X268068253Y-94893598D01*
X268051777Y-94911777D01*
X268033598Y-94928253D01*
X268013893Y-94942867D01*
X267992849Y-94955480D01*
X267970671Y-94965970D01*
X267947571Y-94974235D01*
X267923773Y-94980196D01*
X267899504Y-94983796D01*
X267875000Y-94985000D01*
X266625000Y-94985000D01*
X266600496Y-94983796D01*
X266576227Y-94980196D01*
X266552429Y-94974235D01*
X266529329Y-94965970D01*
X266507151Y-94955480D01*
X266486107Y-94942867D01*
X266466402Y-94928253D01*
X266448223Y-94911777D01*
X266431747Y-94893598D01*
X266417133Y-94873893D01*
X266404520Y-94852849D01*
X266394030Y-94830671D01*
X266385765Y-94807571D01*
X266379804Y-94783773D01*
X266376204Y-94759504D01*
X266375000Y-94735000D01*
X266375000Y-93810000D01*
X266376204Y-93785496D01*
X266379804Y-93761227D01*
X266385765Y-93737429D01*
X266394030Y-93714329D01*
X266404520Y-93692151D01*
X266417133Y-93671107D01*
X266431747Y-93651402D01*
X266448223Y-93633223D01*
X266466402Y-93616747D01*
X266486107Y-93602133D01*
X266507151Y-93589520D01*
X266529329Y-93579030D01*
X266552429Y-93570765D01*
X266576227Y-93564804D01*
X266600496Y-93561204D01*
X266625000Y-93560000D01*
X267875000Y-93560000D01*
X267899504Y-93561204D01*
X267899504Y-93561204D01*
G37*
D12*
X267250000Y-94272500D03*
D11*
G36*
X267899504Y-96536204D02*
X267923773Y-96539804D01*
X267947571Y-96545765D01*
X267970671Y-96554030D01*
X267992849Y-96564520D01*
X268013893Y-96577133D01*
X268033598Y-96591747D01*
X268051777Y-96608223D01*
X268068253Y-96626402D01*
X268082867Y-96646107D01*
X268095480Y-96667151D01*
X268105970Y-96689329D01*
X268114235Y-96712429D01*
X268120196Y-96736227D01*
X268123796Y-96760496D01*
X268125000Y-96785000D01*
X268125000Y-97710000D01*
X268123796Y-97734504D01*
X268120196Y-97758773D01*
X268114235Y-97782571D01*
X268105970Y-97805671D01*
X268095480Y-97827849D01*
X268082867Y-97848893D01*
X268068253Y-97868598D01*
X268051777Y-97886777D01*
X268033598Y-97903253D01*
X268013893Y-97917867D01*
X267992849Y-97930480D01*
X267970671Y-97940970D01*
X267947571Y-97949235D01*
X267923773Y-97955196D01*
X267899504Y-97958796D01*
X267875000Y-97960000D01*
X266625000Y-97960000D01*
X266600496Y-97958796D01*
X266576227Y-97955196D01*
X266552429Y-97949235D01*
X266529329Y-97940970D01*
X266507151Y-97930480D01*
X266486107Y-97917867D01*
X266466402Y-97903253D01*
X266448223Y-97886777D01*
X266431747Y-97868598D01*
X266417133Y-97848893D01*
X266404520Y-97827849D01*
X266394030Y-97805671D01*
X266385765Y-97782571D01*
X266379804Y-97758773D01*
X266376204Y-97734504D01*
X266375000Y-97710000D01*
X266375000Y-96785000D01*
X266376204Y-96760496D01*
X266379804Y-96736227D01*
X266385765Y-96712429D01*
X266394030Y-96689329D01*
X266404520Y-96667151D01*
X266417133Y-96646107D01*
X266431747Y-96626402D01*
X266448223Y-96608223D01*
X266466402Y-96591747D01*
X266486107Y-96577133D01*
X266507151Y-96564520D01*
X266529329Y-96554030D01*
X266552429Y-96545765D01*
X266576227Y-96539804D01*
X266600496Y-96536204D01*
X266625000Y-96535000D01*
X267875000Y-96535000D01*
X267899504Y-96536204D01*
X267899504Y-96536204D01*
G37*
D12*
X267250000Y-97247500D03*
G04 #@! TD*
D11*
G04 #@! TO.C,D59*
G36*
X286949504Y-93561204D02*
X286973773Y-93564804D01*
X286997571Y-93570765D01*
X287020671Y-93579030D01*
X287042849Y-93589520D01*
X287063893Y-93602133D01*
X287083598Y-93616747D01*
X287101777Y-93633223D01*
X287118253Y-93651402D01*
X287132867Y-93671107D01*
X287145480Y-93692151D01*
X287155970Y-93714329D01*
X287164235Y-93737429D01*
X287170196Y-93761227D01*
X287173796Y-93785496D01*
X287175000Y-93810000D01*
X287175000Y-94735000D01*
X287173796Y-94759504D01*
X287170196Y-94783773D01*
X287164235Y-94807571D01*
X287155970Y-94830671D01*
X287145480Y-94852849D01*
X287132867Y-94873893D01*
X287118253Y-94893598D01*
X287101777Y-94911777D01*
X287083598Y-94928253D01*
X287063893Y-94942867D01*
X287042849Y-94955480D01*
X287020671Y-94965970D01*
X286997571Y-94974235D01*
X286973773Y-94980196D01*
X286949504Y-94983796D01*
X286925000Y-94985000D01*
X285675000Y-94985000D01*
X285650496Y-94983796D01*
X285626227Y-94980196D01*
X285602429Y-94974235D01*
X285579329Y-94965970D01*
X285557151Y-94955480D01*
X285536107Y-94942867D01*
X285516402Y-94928253D01*
X285498223Y-94911777D01*
X285481747Y-94893598D01*
X285467133Y-94873893D01*
X285454520Y-94852849D01*
X285444030Y-94830671D01*
X285435765Y-94807571D01*
X285429804Y-94783773D01*
X285426204Y-94759504D01*
X285425000Y-94735000D01*
X285425000Y-93810000D01*
X285426204Y-93785496D01*
X285429804Y-93761227D01*
X285435765Y-93737429D01*
X285444030Y-93714329D01*
X285454520Y-93692151D01*
X285467133Y-93671107D01*
X285481747Y-93651402D01*
X285498223Y-93633223D01*
X285516402Y-93616747D01*
X285536107Y-93602133D01*
X285557151Y-93589520D01*
X285579329Y-93579030D01*
X285602429Y-93570765D01*
X285626227Y-93564804D01*
X285650496Y-93561204D01*
X285675000Y-93560000D01*
X286925000Y-93560000D01*
X286949504Y-93561204D01*
X286949504Y-93561204D01*
G37*
D12*
X286300000Y-94272500D03*
D11*
G36*
X286949504Y-96536204D02*
X286973773Y-96539804D01*
X286997571Y-96545765D01*
X287020671Y-96554030D01*
X287042849Y-96564520D01*
X287063893Y-96577133D01*
X287083598Y-96591747D01*
X287101777Y-96608223D01*
X287118253Y-96626402D01*
X287132867Y-96646107D01*
X287145480Y-96667151D01*
X287155970Y-96689329D01*
X287164235Y-96712429D01*
X287170196Y-96736227D01*
X287173796Y-96760496D01*
X287175000Y-96785000D01*
X287175000Y-97710000D01*
X287173796Y-97734504D01*
X287170196Y-97758773D01*
X287164235Y-97782571D01*
X287155970Y-97805671D01*
X287145480Y-97827849D01*
X287132867Y-97848893D01*
X287118253Y-97868598D01*
X287101777Y-97886777D01*
X287083598Y-97903253D01*
X287063893Y-97917867D01*
X287042849Y-97930480D01*
X287020671Y-97940970D01*
X286997571Y-97949235D01*
X286973773Y-97955196D01*
X286949504Y-97958796D01*
X286925000Y-97960000D01*
X285675000Y-97960000D01*
X285650496Y-97958796D01*
X285626227Y-97955196D01*
X285602429Y-97949235D01*
X285579329Y-97940970D01*
X285557151Y-97930480D01*
X285536107Y-97917867D01*
X285516402Y-97903253D01*
X285498223Y-97886777D01*
X285481747Y-97868598D01*
X285467133Y-97848893D01*
X285454520Y-97827849D01*
X285444030Y-97805671D01*
X285435765Y-97782571D01*
X285429804Y-97758773D01*
X285426204Y-97734504D01*
X285425000Y-97710000D01*
X285425000Y-96785000D01*
X285426204Y-96760496D01*
X285429804Y-96736227D01*
X285435765Y-96712429D01*
X285444030Y-96689329D01*
X285454520Y-96667151D01*
X285467133Y-96646107D01*
X285481747Y-96626402D01*
X285498223Y-96608223D01*
X285516402Y-96591747D01*
X285536107Y-96577133D01*
X285557151Y-96564520D01*
X285579329Y-96554030D01*
X285602429Y-96545765D01*
X285626227Y-96539804D01*
X285650496Y-96536204D01*
X285675000Y-96535000D01*
X286925000Y-96535000D01*
X286949504Y-96536204D01*
X286949504Y-96536204D01*
G37*
D12*
X286300000Y-97247500D03*
G04 #@! TD*
D10*
G04 #@! TO.C,SW51*
X297587000Y-83780000D03*
X283617000Y-86320000D03*
G04 #@! TD*
G04 #@! TO.C,SW52*
X316637000Y-83780000D03*
X302667000Y-86320000D03*
G04 #@! TD*
G04 #@! TO.C,SW56*
X230912000Y-102830000D03*
X216942000Y-105370000D03*
G04 #@! TD*
G04 #@! TO.C,SW66*
X314256250Y-121880000D03*
X300286250Y-124420000D03*
G04 #@! TD*
D11*
G04 #@! TO.C,D31*
G36*
X225049504Y-36411204D02*
X225073773Y-36414804D01*
X225097571Y-36420765D01*
X225120671Y-36429030D01*
X225142849Y-36439520D01*
X225163893Y-36452133D01*
X225183598Y-36466747D01*
X225201777Y-36483223D01*
X225218253Y-36501402D01*
X225232867Y-36521107D01*
X225245480Y-36542151D01*
X225255970Y-36564329D01*
X225264235Y-36587429D01*
X225270196Y-36611227D01*
X225273796Y-36635496D01*
X225275000Y-36660000D01*
X225275000Y-37585000D01*
X225273796Y-37609504D01*
X225270196Y-37633773D01*
X225264235Y-37657571D01*
X225255970Y-37680671D01*
X225245480Y-37702849D01*
X225232867Y-37723893D01*
X225218253Y-37743598D01*
X225201777Y-37761777D01*
X225183598Y-37778253D01*
X225163893Y-37792867D01*
X225142849Y-37805480D01*
X225120671Y-37815970D01*
X225097571Y-37824235D01*
X225073773Y-37830196D01*
X225049504Y-37833796D01*
X225025000Y-37835000D01*
X223775000Y-37835000D01*
X223750496Y-37833796D01*
X223726227Y-37830196D01*
X223702429Y-37824235D01*
X223679329Y-37815970D01*
X223657151Y-37805480D01*
X223636107Y-37792867D01*
X223616402Y-37778253D01*
X223598223Y-37761777D01*
X223581747Y-37743598D01*
X223567133Y-37723893D01*
X223554520Y-37702849D01*
X223544030Y-37680671D01*
X223535765Y-37657571D01*
X223529804Y-37633773D01*
X223526204Y-37609504D01*
X223525000Y-37585000D01*
X223525000Y-36660000D01*
X223526204Y-36635496D01*
X223529804Y-36611227D01*
X223535765Y-36587429D01*
X223544030Y-36564329D01*
X223554520Y-36542151D01*
X223567133Y-36521107D01*
X223581747Y-36501402D01*
X223598223Y-36483223D01*
X223616402Y-36466747D01*
X223636107Y-36452133D01*
X223657151Y-36439520D01*
X223679329Y-36429030D01*
X223702429Y-36420765D01*
X223726227Y-36414804D01*
X223750496Y-36411204D01*
X223775000Y-36410000D01*
X225025000Y-36410000D01*
X225049504Y-36411204D01*
X225049504Y-36411204D01*
G37*
D12*
X224400000Y-37122500D03*
D11*
G36*
X225049504Y-39386204D02*
X225073773Y-39389804D01*
X225097571Y-39395765D01*
X225120671Y-39404030D01*
X225142849Y-39414520D01*
X225163893Y-39427133D01*
X225183598Y-39441747D01*
X225201777Y-39458223D01*
X225218253Y-39476402D01*
X225232867Y-39496107D01*
X225245480Y-39517151D01*
X225255970Y-39539329D01*
X225264235Y-39562429D01*
X225270196Y-39586227D01*
X225273796Y-39610496D01*
X225275000Y-39635000D01*
X225275000Y-40560000D01*
X225273796Y-40584504D01*
X225270196Y-40608773D01*
X225264235Y-40632571D01*
X225255970Y-40655671D01*
X225245480Y-40677849D01*
X225232867Y-40698893D01*
X225218253Y-40718598D01*
X225201777Y-40736777D01*
X225183598Y-40753253D01*
X225163893Y-40767867D01*
X225142849Y-40780480D01*
X225120671Y-40790970D01*
X225097571Y-40799235D01*
X225073773Y-40805196D01*
X225049504Y-40808796D01*
X225025000Y-40810000D01*
X223775000Y-40810000D01*
X223750496Y-40808796D01*
X223726227Y-40805196D01*
X223702429Y-40799235D01*
X223679329Y-40790970D01*
X223657151Y-40780480D01*
X223636107Y-40767867D01*
X223616402Y-40753253D01*
X223598223Y-40736777D01*
X223581747Y-40718598D01*
X223567133Y-40698893D01*
X223554520Y-40677849D01*
X223544030Y-40655671D01*
X223535765Y-40632571D01*
X223529804Y-40608773D01*
X223526204Y-40584504D01*
X223525000Y-40560000D01*
X223525000Y-39635000D01*
X223526204Y-39610496D01*
X223529804Y-39586227D01*
X223535765Y-39562429D01*
X223544030Y-39539329D01*
X223554520Y-39517151D01*
X223567133Y-39496107D01*
X223581747Y-39476402D01*
X223598223Y-39458223D01*
X223616402Y-39441747D01*
X223636107Y-39427133D01*
X223657151Y-39414520D01*
X223679329Y-39404030D01*
X223702429Y-39395765D01*
X223726227Y-39389804D01*
X223750496Y-39386204D01*
X223775000Y-39385000D01*
X225025000Y-39385000D01*
X225049504Y-39386204D01*
X225049504Y-39386204D01*
G37*
D12*
X224400000Y-40097500D03*
G04 #@! TD*
D11*
G04 #@! TO.C,D32*
G36*
X244099504Y-36411204D02*
X244123773Y-36414804D01*
X244147571Y-36420765D01*
X244170671Y-36429030D01*
X244192849Y-36439520D01*
X244213893Y-36452133D01*
X244233598Y-36466747D01*
X244251777Y-36483223D01*
X244268253Y-36501402D01*
X244282867Y-36521107D01*
X244295480Y-36542151D01*
X244305970Y-36564329D01*
X244314235Y-36587429D01*
X244320196Y-36611227D01*
X244323796Y-36635496D01*
X244325000Y-36660000D01*
X244325000Y-37585000D01*
X244323796Y-37609504D01*
X244320196Y-37633773D01*
X244314235Y-37657571D01*
X244305970Y-37680671D01*
X244295480Y-37702849D01*
X244282867Y-37723893D01*
X244268253Y-37743598D01*
X244251777Y-37761777D01*
X244233598Y-37778253D01*
X244213893Y-37792867D01*
X244192849Y-37805480D01*
X244170671Y-37815970D01*
X244147571Y-37824235D01*
X244123773Y-37830196D01*
X244099504Y-37833796D01*
X244075000Y-37835000D01*
X242825000Y-37835000D01*
X242800496Y-37833796D01*
X242776227Y-37830196D01*
X242752429Y-37824235D01*
X242729329Y-37815970D01*
X242707151Y-37805480D01*
X242686107Y-37792867D01*
X242666402Y-37778253D01*
X242648223Y-37761777D01*
X242631747Y-37743598D01*
X242617133Y-37723893D01*
X242604520Y-37702849D01*
X242594030Y-37680671D01*
X242585765Y-37657571D01*
X242579804Y-37633773D01*
X242576204Y-37609504D01*
X242575000Y-37585000D01*
X242575000Y-36660000D01*
X242576204Y-36635496D01*
X242579804Y-36611227D01*
X242585765Y-36587429D01*
X242594030Y-36564329D01*
X242604520Y-36542151D01*
X242617133Y-36521107D01*
X242631747Y-36501402D01*
X242648223Y-36483223D01*
X242666402Y-36466747D01*
X242686107Y-36452133D01*
X242707151Y-36439520D01*
X242729329Y-36429030D01*
X242752429Y-36420765D01*
X242776227Y-36414804D01*
X242800496Y-36411204D01*
X242825000Y-36410000D01*
X244075000Y-36410000D01*
X244099504Y-36411204D01*
X244099504Y-36411204D01*
G37*
D12*
X243450000Y-37122500D03*
D11*
G36*
X244099504Y-39386204D02*
X244123773Y-39389804D01*
X244147571Y-39395765D01*
X244170671Y-39404030D01*
X244192849Y-39414520D01*
X244213893Y-39427133D01*
X244233598Y-39441747D01*
X244251777Y-39458223D01*
X244268253Y-39476402D01*
X244282867Y-39496107D01*
X244295480Y-39517151D01*
X244305970Y-39539329D01*
X244314235Y-39562429D01*
X244320196Y-39586227D01*
X244323796Y-39610496D01*
X244325000Y-39635000D01*
X244325000Y-40560000D01*
X244323796Y-40584504D01*
X244320196Y-40608773D01*
X244314235Y-40632571D01*
X244305970Y-40655671D01*
X244295480Y-40677849D01*
X244282867Y-40698893D01*
X244268253Y-40718598D01*
X244251777Y-40736777D01*
X244233598Y-40753253D01*
X244213893Y-40767867D01*
X244192849Y-40780480D01*
X244170671Y-40790970D01*
X244147571Y-40799235D01*
X244123773Y-40805196D01*
X244099504Y-40808796D01*
X244075000Y-40810000D01*
X242825000Y-40810000D01*
X242800496Y-40808796D01*
X242776227Y-40805196D01*
X242752429Y-40799235D01*
X242729329Y-40790970D01*
X242707151Y-40780480D01*
X242686107Y-40767867D01*
X242666402Y-40753253D01*
X242648223Y-40736777D01*
X242631747Y-40718598D01*
X242617133Y-40698893D01*
X242604520Y-40677849D01*
X242594030Y-40655671D01*
X242585765Y-40632571D01*
X242579804Y-40608773D01*
X242576204Y-40584504D01*
X242575000Y-40560000D01*
X242575000Y-39635000D01*
X242576204Y-39610496D01*
X242579804Y-39586227D01*
X242585765Y-39562429D01*
X242594030Y-39539329D01*
X242604520Y-39517151D01*
X242617133Y-39496107D01*
X242631747Y-39476402D01*
X242648223Y-39458223D01*
X242666402Y-39441747D01*
X242686107Y-39427133D01*
X242707151Y-39414520D01*
X242729329Y-39404030D01*
X242752429Y-39395765D01*
X242776227Y-39389804D01*
X242800496Y-39386204D01*
X242825000Y-39385000D01*
X244075000Y-39385000D01*
X244099504Y-39386204D01*
X244099504Y-39386204D01*
G37*
D12*
X243450000Y-40097500D03*
G04 #@! TD*
D11*
G04 #@! TO.C,D33*
G36*
X263149504Y-36411204D02*
X263173773Y-36414804D01*
X263197571Y-36420765D01*
X263220671Y-36429030D01*
X263242849Y-36439520D01*
X263263893Y-36452133D01*
X263283598Y-36466747D01*
X263301777Y-36483223D01*
X263318253Y-36501402D01*
X263332867Y-36521107D01*
X263345480Y-36542151D01*
X263355970Y-36564329D01*
X263364235Y-36587429D01*
X263370196Y-36611227D01*
X263373796Y-36635496D01*
X263375000Y-36660000D01*
X263375000Y-37585000D01*
X263373796Y-37609504D01*
X263370196Y-37633773D01*
X263364235Y-37657571D01*
X263355970Y-37680671D01*
X263345480Y-37702849D01*
X263332867Y-37723893D01*
X263318253Y-37743598D01*
X263301777Y-37761777D01*
X263283598Y-37778253D01*
X263263893Y-37792867D01*
X263242849Y-37805480D01*
X263220671Y-37815970D01*
X263197571Y-37824235D01*
X263173773Y-37830196D01*
X263149504Y-37833796D01*
X263125000Y-37835000D01*
X261875000Y-37835000D01*
X261850496Y-37833796D01*
X261826227Y-37830196D01*
X261802429Y-37824235D01*
X261779329Y-37815970D01*
X261757151Y-37805480D01*
X261736107Y-37792867D01*
X261716402Y-37778253D01*
X261698223Y-37761777D01*
X261681747Y-37743598D01*
X261667133Y-37723893D01*
X261654520Y-37702849D01*
X261644030Y-37680671D01*
X261635765Y-37657571D01*
X261629804Y-37633773D01*
X261626204Y-37609504D01*
X261625000Y-37585000D01*
X261625000Y-36660000D01*
X261626204Y-36635496D01*
X261629804Y-36611227D01*
X261635765Y-36587429D01*
X261644030Y-36564329D01*
X261654520Y-36542151D01*
X261667133Y-36521107D01*
X261681747Y-36501402D01*
X261698223Y-36483223D01*
X261716402Y-36466747D01*
X261736107Y-36452133D01*
X261757151Y-36439520D01*
X261779329Y-36429030D01*
X261802429Y-36420765D01*
X261826227Y-36414804D01*
X261850496Y-36411204D01*
X261875000Y-36410000D01*
X263125000Y-36410000D01*
X263149504Y-36411204D01*
X263149504Y-36411204D01*
G37*
D12*
X262500000Y-37122500D03*
D11*
G36*
X263149504Y-39386204D02*
X263173773Y-39389804D01*
X263197571Y-39395765D01*
X263220671Y-39404030D01*
X263242849Y-39414520D01*
X263263893Y-39427133D01*
X263283598Y-39441747D01*
X263301777Y-39458223D01*
X263318253Y-39476402D01*
X263332867Y-39496107D01*
X263345480Y-39517151D01*
X263355970Y-39539329D01*
X263364235Y-39562429D01*
X263370196Y-39586227D01*
X263373796Y-39610496D01*
X263375000Y-39635000D01*
X263375000Y-40560000D01*
X263373796Y-40584504D01*
X263370196Y-40608773D01*
X263364235Y-40632571D01*
X263355970Y-40655671D01*
X263345480Y-40677849D01*
X263332867Y-40698893D01*
X263318253Y-40718598D01*
X263301777Y-40736777D01*
X263283598Y-40753253D01*
X263263893Y-40767867D01*
X263242849Y-40780480D01*
X263220671Y-40790970D01*
X263197571Y-40799235D01*
X263173773Y-40805196D01*
X263149504Y-40808796D01*
X263125000Y-40810000D01*
X261875000Y-40810000D01*
X261850496Y-40808796D01*
X261826227Y-40805196D01*
X261802429Y-40799235D01*
X261779329Y-40790970D01*
X261757151Y-40780480D01*
X261736107Y-40767867D01*
X261716402Y-40753253D01*
X261698223Y-40736777D01*
X261681747Y-40718598D01*
X261667133Y-40698893D01*
X261654520Y-40677849D01*
X261644030Y-40655671D01*
X261635765Y-40632571D01*
X261629804Y-40608773D01*
X261626204Y-40584504D01*
X261625000Y-40560000D01*
X261625000Y-39635000D01*
X261626204Y-39610496D01*
X261629804Y-39586227D01*
X261635765Y-39562429D01*
X261644030Y-39539329D01*
X261654520Y-39517151D01*
X261667133Y-39496107D01*
X261681747Y-39476402D01*
X261698223Y-39458223D01*
X261716402Y-39441747D01*
X261736107Y-39427133D01*
X261757151Y-39414520D01*
X261779329Y-39404030D01*
X261802429Y-39395765D01*
X261826227Y-39389804D01*
X261850496Y-39386204D01*
X261875000Y-39385000D01*
X263125000Y-39385000D01*
X263149504Y-39386204D01*
X263149504Y-39386204D01*
G37*
D12*
X262500000Y-40097500D03*
G04 #@! TD*
D11*
G04 #@! TO.C,D34*
G36*
X282199504Y-36411204D02*
X282223773Y-36414804D01*
X282247571Y-36420765D01*
X282270671Y-36429030D01*
X282292849Y-36439520D01*
X282313893Y-36452133D01*
X282333598Y-36466747D01*
X282351777Y-36483223D01*
X282368253Y-36501402D01*
X282382867Y-36521107D01*
X282395480Y-36542151D01*
X282405970Y-36564329D01*
X282414235Y-36587429D01*
X282420196Y-36611227D01*
X282423796Y-36635496D01*
X282425000Y-36660000D01*
X282425000Y-37585000D01*
X282423796Y-37609504D01*
X282420196Y-37633773D01*
X282414235Y-37657571D01*
X282405970Y-37680671D01*
X282395480Y-37702849D01*
X282382867Y-37723893D01*
X282368253Y-37743598D01*
X282351777Y-37761777D01*
X282333598Y-37778253D01*
X282313893Y-37792867D01*
X282292849Y-37805480D01*
X282270671Y-37815970D01*
X282247571Y-37824235D01*
X282223773Y-37830196D01*
X282199504Y-37833796D01*
X282175000Y-37835000D01*
X280925000Y-37835000D01*
X280900496Y-37833796D01*
X280876227Y-37830196D01*
X280852429Y-37824235D01*
X280829329Y-37815970D01*
X280807151Y-37805480D01*
X280786107Y-37792867D01*
X280766402Y-37778253D01*
X280748223Y-37761777D01*
X280731747Y-37743598D01*
X280717133Y-37723893D01*
X280704520Y-37702849D01*
X280694030Y-37680671D01*
X280685765Y-37657571D01*
X280679804Y-37633773D01*
X280676204Y-37609504D01*
X280675000Y-37585000D01*
X280675000Y-36660000D01*
X280676204Y-36635496D01*
X280679804Y-36611227D01*
X280685765Y-36587429D01*
X280694030Y-36564329D01*
X280704520Y-36542151D01*
X280717133Y-36521107D01*
X280731747Y-36501402D01*
X280748223Y-36483223D01*
X280766402Y-36466747D01*
X280786107Y-36452133D01*
X280807151Y-36439520D01*
X280829329Y-36429030D01*
X280852429Y-36420765D01*
X280876227Y-36414804D01*
X280900496Y-36411204D01*
X280925000Y-36410000D01*
X282175000Y-36410000D01*
X282199504Y-36411204D01*
X282199504Y-36411204D01*
G37*
D12*
X281550000Y-37122500D03*
D11*
G36*
X282199504Y-39386204D02*
X282223773Y-39389804D01*
X282247571Y-39395765D01*
X282270671Y-39404030D01*
X282292849Y-39414520D01*
X282313893Y-39427133D01*
X282333598Y-39441747D01*
X282351777Y-39458223D01*
X282368253Y-39476402D01*
X282382867Y-39496107D01*
X282395480Y-39517151D01*
X282405970Y-39539329D01*
X282414235Y-39562429D01*
X282420196Y-39586227D01*
X282423796Y-39610496D01*
X282425000Y-39635000D01*
X282425000Y-40560000D01*
X282423796Y-40584504D01*
X282420196Y-40608773D01*
X282414235Y-40632571D01*
X282405970Y-40655671D01*
X282395480Y-40677849D01*
X282382867Y-40698893D01*
X282368253Y-40718598D01*
X282351777Y-40736777D01*
X282333598Y-40753253D01*
X282313893Y-40767867D01*
X282292849Y-40780480D01*
X282270671Y-40790970D01*
X282247571Y-40799235D01*
X282223773Y-40805196D01*
X282199504Y-40808796D01*
X282175000Y-40810000D01*
X280925000Y-40810000D01*
X280900496Y-40808796D01*
X280876227Y-40805196D01*
X280852429Y-40799235D01*
X280829329Y-40790970D01*
X280807151Y-40780480D01*
X280786107Y-40767867D01*
X280766402Y-40753253D01*
X280748223Y-40736777D01*
X280731747Y-40718598D01*
X280717133Y-40698893D01*
X280704520Y-40677849D01*
X280694030Y-40655671D01*
X280685765Y-40632571D01*
X280679804Y-40608773D01*
X280676204Y-40584504D01*
X280675000Y-40560000D01*
X280675000Y-39635000D01*
X280676204Y-39610496D01*
X280679804Y-39586227D01*
X280685765Y-39562429D01*
X280694030Y-39539329D01*
X280704520Y-39517151D01*
X280717133Y-39496107D01*
X280731747Y-39476402D01*
X280748223Y-39458223D01*
X280766402Y-39441747D01*
X280786107Y-39427133D01*
X280807151Y-39414520D01*
X280829329Y-39404030D01*
X280852429Y-39395765D01*
X280876227Y-39389804D01*
X280900496Y-39386204D01*
X280925000Y-39385000D01*
X282175000Y-39385000D01*
X282199504Y-39386204D01*
X282199504Y-39386204D01*
G37*
D12*
X281550000Y-40097500D03*
G04 #@! TD*
D11*
G04 #@! TO.C,D35*
G36*
X301249504Y-36411204D02*
X301273773Y-36414804D01*
X301297571Y-36420765D01*
X301320671Y-36429030D01*
X301342849Y-36439520D01*
X301363893Y-36452133D01*
X301383598Y-36466747D01*
X301401777Y-36483223D01*
X301418253Y-36501402D01*
X301432867Y-36521107D01*
X301445480Y-36542151D01*
X301455970Y-36564329D01*
X301464235Y-36587429D01*
X301470196Y-36611227D01*
X301473796Y-36635496D01*
X301475000Y-36660000D01*
X301475000Y-37585000D01*
X301473796Y-37609504D01*
X301470196Y-37633773D01*
X301464235Y-37657571D01*
X301455970Y-37680671D01*
X301445480Y-37702849D01*
X301432867Y-37723893D01*
X301418253Y-37743598D01*
X301401777Y-37761777D01*
X301383598Y-37778253D01*
X301363893Y-37792867D01*
X301342849Y-37805480D01*
X301320671Y-37815970D01*
X301297571Y-37824235D01*
X301273773Y-37830196D01*
X301249504Y-37833796D01*
X301225000Y-37835000D01*
X299975000Y-37835000D01*
X299950496Y-37833796D01*
X299926227Y-37830196D01*
X299902429Y-37824235D01*
X299879329Y-37815970D01*
X299857151Y-37805480D01*
X299836107Y-37792867D01*
X299816402Y-37778253D01*
X299798223Y-37761777D01*
X299781747Y-37743598D01*
X299767133Y-37723893D01*
X299754520Y-37702849D01*
X299744030Y-37680671D01*
X299735765Y-37657571D01*
X299729804Y-37633773D01*
X299726204Y-37609504D01*
X299725000Y-37585000D01*
X299725000Y-36660000D01*
X299726204Y-36635496D01*
X299729804Y-36611227D01*
X299735765Y-36587429D01*
X299744030Y-36564329D01*
X299754520Y-36542151D01*
X299767133Y-36521107D01*
X299781747Y-36501402D01*
X299798223Y-36483223D01*
X299816402Y-36466747D01*
X299836107Y-36452133D01*
X299857151Y-36439520D01*
X299879329Y-36429030D01*
X299902429Y-36420765D01*
X299926227Y-36414804D01*
X299950496Y-36411204D01*
X299975000Y-36410000D01*
X301225000Y-36410000D01*
X301249504Y-36411204D01*
X301249504Y-36411204D01*
G37*
D12*
X300600000Y-37122500D03*
D11*
G36*
X301249504Y-39386204D02*
X301273773Y-39389804D01*
X301297571Y-39395765D01*
X301320671Y-39404030D01*
X301342849Y-39414520D01*
X301363893Y-39427133D01*
X301383598Y-39441747D01*
X301401777Y-39458223D01*
X301418253Y-39476402D01*
X301432867Y-39496107D01*
X301445480Y-39517151D01*
X301455970Y-39539329D01*
X301464235Y-39562429D01*
X301470196Y-39586227D01*
X301473796Y-39610496D01*
X301475000Y-39635000D01*
X301475000Y-40560000D01*
X301473796Y-40584504D01*
X301470196Y-40608773D01*
X301464235Y-40632571D01*
X301455970Y-40655671D01*
X301445480Y-40677849D01*
X301432867Y-40698893D01*
X301418253Y-40718598D01*
X301401777Y-40736777D01*
X301383598Y-40753253D01*
X301363893Y-40767867D01*
X301342849Y-40780480D01*
X301320671Y-40790970D01*
X301297571Y-40799235D01*
X301273773Y-40805196D01*
X301249504Y-40808796D01*
X301225000Y-40810000D01*
X299975000Y-40810000D01*
X299950496Y-40808796D01*
X299926227Y-40805196D01*
X299902429Y-40799235D01*
X299879329Y-40790970D01*
X299857151Y-40780480D01*
X299836107Y-40767867D01*
X299816402Y-40753253D01*
X299798223Y-40736777D01*
X299781747Y-40718598D01*
X299767133Y-40698893D01*
X299754520Y-40677849D01*
X299744030Y-40655671D01*
X299735765Y-40632571D01*
X299729804Y-40608773D01*
X299726204Y-40584504D01*
X299725000Y-40560000D01*
X299725000Y-39635000D01*
X299726204Y-39610496D01*
X299729804Y-39586227D01*
X299735765Y-39562429D01*
X299744030Y-39539329D01*
X299754520Y-39517151D01*
X299767133Y-39496107D01*
X299781747Y-39476402D01*
X299798223Y-39458223D01*
X299816402Y-39441747D01*
X299836107Y-39427133D01*
X299857151Y-39414520D01*
X299879329Y-39404030D01*
X299902429Y-39395765D01*
X299926227Y-39389804D01*
X299950496Y-39386204D01*
X299975000Y-39385000D01*
X301225000Y-39385000D01*
X301249504Y-39386204D01*
X301249504Y-39386204D01*
G37*
D12*
X300600000Y-40097500D03*
G04 #@! TD*
D11*
G04 #@! TO.C,D36*
G36*
X320299504Y-36411204D02*
X320323773Y-36414804D01*
X320347571Y-36420765D01*
X320370671Y-36429030D01*
X320392849Y-36439520D01*
X320413893Y-36452133D01*
X320433598Y-36466747D01*
X320451777Y-36483223D01*
X320468253Y-36501402D01*
X320482867Y-36521107D01*
X320495480Y-36542151D01*
X320505970Y-36564329D01*
X320514235Y-36587429D01*
X320520196Y-36611227D01*
X320523796Y-36635496D01*
X320525000Y-36660000D01*
X320525000Y-37585000D01*
X320523796Y-37609504D01*
X320520196Y-37633773D01*
X320514235Y-37657571D01*
X320505970Y-37680671D01*
X320495480Y-37702849D01*
X320482867Y-37723893D01*
X320468253Y-37743598D01*
X320451777Y-37761777D01*
X320433598Y-37778253D01*
X320413893Y-37792867D01*
X320392849Y-37805480D01*
X320370671Y-37815970D01*
X320347571Y-37824235D01*
X320323773Y-37830196D01*
X320299504Y-37833796D01*
X320275000Y-37835000D01*
X319025000Y-37835000D01*
X319000496Y-37833796D01*
X318976227Y-37830196D01*
X318952429Y-37824235D01*
X318929329Y-37815970D01*
X318907151Y-37805480D01*
X318886107Y-37792867D01*
X318866402Y-37778253D01*
X318848223Y-37761777D01*
X318831747Y-37743598D01*
X318817133Y-37723893D01*
X318804520Y-37702849D01*
X318794030Y-37680671D01*
X318785765Y-37657571D01*
X318779804Y-37633773D01*
X318776204Y-37609504D01*
X318775000Y-37585000D01*
X318775000Y-36660000D01*
X318776204Y-36635496D01*
X318779804Y-36611227D01*
X318785765Y-36587429D01*
X318794030Y-36564329D01*
X318804520Y-36542151D01*
X318817133Y-36521107D01*
X318831747Y-36501402D01*
X318848223Y-36483223D01*
X318866402Y-36466747D01*
X318886107Y-36452133D01*
X318907151Y-36439520D01*
X318929329Y-36429030D01*
X318952429Y-36420765D01*
X318976227Y-36414804D01*
X319000496Y-36411204D01*
X319025000Y-36410000D01*
X320275000Y-36410000D01*
X320299504Y-36411204D01*
X320299504Y-36411204D01*
G37*
D12*
X319650000Y-37122500D03*
D11*
G36*
X320299504Y-39386204D02*
X320323773Y-39389804D01*
X320347571Y-39395765D01*
X320370671Y-39404030D01*
X320392849Y-39414520D01*
X320413893Y-39427133D01*
X320433598Y-39441747D01*
X320451777Y-39458223D01*
X320468253Y-39476402D01*
X320482867Y-39496107D01*
X320495480Y-39517151D01*
X320505970Y-39539329D01*
X320514235Y-39562429D01*
X320520196Y-39586227D01*
X320523796Y-39610496D01*
X320525000Y-39635000D01*
X320525000Y-40560000D01*
X320523796Y-40584504D01*
X320520196Y-40608773D01*
X320514235Y-40632571D01*
X320505970Y-40655671D01*
X320495480Y-40677849D01*
X320482867Y-40698893D01*
X320468253Y-40718598D01*
X320451777Y-40736777D01*
X320433598Y-40753253D01*
X320413893Y-40767867D01*
X320392849Y-40780480D01*
X320370671Y-40790970D01*
X320347571Y-40799235D01*
X320323773Y-40805196D01*
X320299504Y-40808796D01*
X320275000Y-40810000D01*
X319025000Y-40810000D01*
X319000496Y-40808796D01*
X318976227Y-40805196D01*
X318952429Y-40799235D01*
X318929329Y-40790970D01*
X318907151Y-40780480D01*
X318886107Y-40767867D01*
X318866402Y-40753253D01*
X318848223Y-40736777D01*
X318831747Y-40718598D01*
X318817133Y-40698893D01*
X318804520Y-40677849D01*
X318794030Y-40655671D01*
X318785765Y-40632571D01*
X318779804Y-40608773D01*
X318776204Y-40584504D01*
X318775000Y-40560000D01*
X318775000Y-39635000D01*
X318776204Y-39610496D01*
X318779804Y-39586227D01*
X318785765Y-39562429D01*
X318794030Y-39539329D01*
X318804520Y-39517151D01*
X318817133Y-39496107D01*
X318831747Y-39476402D01*
X318848223Y-39458223D01*
X318866402Y-39441747D01*
X318886107Y-39427133D01*
X318907151Y-39414520D01*
X318929329Y-39404030D01*
X318952429Y-39395765D01*
X318976227Y-39389804D01*
X319000496Y-39386204D01*
X319025000Y-39385000D01*
X320275000Y-39385000D01*
X320299504Y-39386204D01*
X320299504Y-39386204D01*
G37*
D12*
X319650000Y-40097500D03*
G04 #@! TD*
D11*
G04 #@! TO.C,D37*
G36*
X339349504Y-36411204D02*
X339373773Y-36414804D01*
X339397571Y-36420765D01*
X339420671Y-36429030D01*
X339442849Y-36439520D01*
X339463893Y-36452133D01*
X339483598Y-36466747D01*
X339501777Y-36483223D01*
X339518253Y-36501402D01*
X339532867Y-36521107D01*
X339545480Y-36542151D01*
X339555970Y-36564329D01*
X339564235Y-36587429D01*
X339570196Y-36611227D01*
X339573796Y-36635496D01*
X339575000Y-36660000D01*
X339575000Y-37585000D01*
X339573796Y-37609504D01*
X339570196Y-37633773D01*
X339564235Y-37657571D01*
X339555970Y-37680671D01*
X339545480Y-37702849D01*
X339532867Y-37723893D01*
X339518253Y-37743598D01*
X339501777Y-37761777D01*
X339483598Y-37778253D01*
X339463893Y-37792867D01*
X339442849Y-37805480D01*
X339420671Y-37815970D01*
X339397571Y-37824235D01*
X339373773Y-37830196D01*
X339349504Y-37833796D01*
X339325000Y-37835000D01*
X338075000Y-37835000D01*
X338050496Y-37833796D01*
X338026227Y-37830196D01*
X338002429Y-37824235D01*
X337979329Y-37815970D01*
X337957151Y-37805480D01*
X337936107Y-37792867D01*
X337916402Y-37778253D01*
X337898223Y-37761777D01*
X337881747Y-37743598D01*
X337867133Y-37723893D01*
X337854520Y-37702849D01*
X337844030Y-37680671D01*
X337835765Y-37657571D01*
X337829804Y-37633773D01*
X337826204Y-37609504D01*
X337825000Y-37585000D01*
X337825000Y-36660000D01*
X337826204Y-36635496D01*
X337829804Y-36611227D01*
X337835765Y-36587429D01*
X337844030Y-36564329D01*
X337854520Y-36542151D01*
X337867133Y-36521107D01*
X337881747Y-36501402D01*
X337898223Y-36483223D01*
X337916402Y-36466747D01*
X337936107Y-36452133D01*
X337957151Y-36439520D01*
X337979329Y-36429030D01*
X338002429Y-36420765D01*
X338026227Y-36414804D01*
X338050496Y-36411204D01*
X338075000Y-36410000D01*
X339325000Y-36410000D01*
X339349504Y-36411204D01*
X339349504Y-36411204D01*
G37*
D12*
X338700000Y-37122500D03*
D11*
G36*
X339349504Y-39386204D02*
X339373773Y-39389804D01*
X339397571Y-39395765D01*
X339420671Y-39404030D01*
X339442849Y-39414520D01*
X339463893Y-39427133D01*
X339483598Y-39441747D01*
X339501777Y-39458223D01*
X339518253Y-39476402D01*
X339532867Y-39496107D01*
X339545480Y-39517151D01*
X339555970Y-39539329D01*
X339564235Y-39562429D01*
X339570196Y-39586227D01*
X339573796Y-39610496D01*
X339575000Y-39635000D01*
X339575000Y-40560000D01*
X339573796Y-40584504D01*
X339570196Y-40608773D01*
X339564235Y-40632571D01*
X339555970Y-40655671D01*
X339545480Y-40677849D01*
X339532867Y-40698893D01*
X339518253Y-40718598D01*
X339501777Y-40736777D01*
X339483598Y-40753253D01*
X339463893Y-40767867D01*
X339442849Y-40780480D01*
X339420671Y-40790970D01*
X339397571Y-40799235D01*
X339373773Y-40805196D01*
X339349504Y-40808796D01*
X339325000Y-40810000D01*
X338075000Y-40810000D01*
X338050496Y-40808796D01*
X338026227Y-40805196D01*
X338002429Y-40799235D01*
X337979329Y-40790970D01*
X337957151Y-40780480D01*
X337936107Y-40767867D01*
X337916402Y-40753253D01*
X337898223Y-40736777D01*
X337881747Y-40718598D01*
X337867133Y-40698893D01*
X337854520Y-40677849D01*
X337844030Y-40655671D01*
X337835765Y-40632571D01*
X337829804Y-40608773D01*
X337826204Y-40584504D01*
X337825000Y-40560000D01*
X337825000Y-39635000D01*
X337826204Y-39610496D01*
X337829804Y-39586227D01*
X337835765Y-39562429D01*
X337844030Y-39539329D01*
X337854520Y-39517151D01*
X337867133Y-39496107D01*
X337881747Y-39476402D01*
X337898223Y-39458223D01*
X337916402Y-39441747D01*
X337936107Y-39427133D01*
X337957151Y-39414520D01*
X337979329Y-39404030D01*
X338002429Y-39395765D01*
X338026227Y-39389804D01*
X338050496Y-39386204D01*
X338075000Y-39385000D01*
X339325000Y-39385000D01*
X339349504Y-39386204D01*
X339349504Y-39386204D01*
G37*
D12*
X338700000Y-40097500D03*
G04 #@! TD*
D11*
G04 #@! TO.C,D38*
G36*
X346699504Y-36411204D02*
X346723773Y-36414804D01*
X346747571Y-36420765D01*
X346770671Y-36429030D01*
X346792849Y-36439520D01*
X346813893Y-36452133D01*
X346833598Y-36466747D01*
X346851777Y-36483223D01*
X346868253Y-36501402D01*
X346882867Y-36521107D01*
X346895480Y-36542151D01*
X346905970Y-36564329D01*
X346914235Y-36587429D01*
X346920196Y-36611227D01*
X346923796Y-36635496D01*
X346925000Y-36660000D01*
X346925000Y-37585000D01*
X346923796Y-37609504D01*
X346920196Y-37633773D01*
X346914235Y-37657571D01*
X346905970Y-37680671D01*
X346895480Y-37702849D01*
X346882867Y-37723893D01*
X346868253Y-37743598D01*
X346851777Y-37761777D01*
X346833598Y-37778253D01*
X346813893Y-37792867D01*
X346792849Y-37805480D01*
X346770671Y-37815970D01*
X346747571Y-37824235D01*
X346723773Y-37830196D01*
X346699504Y-37833796D01*
X346675000Y-37835000D01*
X345425000Y-37835000D01*
X345400496Y-37833796D01*
X345376227Y-37830196D01*
X345352429Y-37824235D01*
X345329329Y-37815970D01*
X345307151Y-37805480D01*
X345286107Y-37792867D01*
X345266402Y-37778253D01*
X345248223Y-37761777D01*
X345231747Y-37743598D01*
X345217133Y-37723893D01*
X345204520Y-37702849D01*
X345194030Y-37680671D01*
X345185765Y-37657571D01*
X345179804Y-37633773D01*
X345176204Y-37609504D01*
X345175000Y-37585000D01*
X345175000Y-36660000D01*
X345176204Y-36635496D01*
X345179804Y-36611227D01*
X345185765Y-36587429D01*
X345194030Y-36564329D01*
X345204520Y-36542151D01*
X345217133Y-36521107D01*
X345231747Y-36501402D01*
X345248223Y-36483223D01*
X345266402Y-36466747D01*
X345286107Y-36452133D01*
X345307151Y-36439520D01*
X345329329Y-36429030D01*
X345352429Y-36420765D01*
X345376227Y-36414804D01*
X345400496Y-36411204D01*
X345425000Y-36410000D01*
X346675000Y-36410000D01*
X346699504Y-36411204D01*
X346699504Y-36411204D01*
G37*
D12*
X346050000Y-37122500D03*
D11*
G36*
X346699504Y-39386204D02*
X346723773Y-39389804D01*
X346747571Y-39395765D01*
X346770671Y-39404030D01*
X346792849Y-39414520D01*
X346813893Y-39427133D01*
X346833598Y-39441747D01*
X346851777Y-39458223D01*
X346868253Y-39476402D01*
X346882867Y-39496107D01*
X346895480Y-39517151D01*
X346905970Y-39539329D01*
X346914235Y-39562429D01*
X346920196Y-39586227D01*
X346923796Y-39610496D01*
X346925000Y-39635000D01*
X346925000Y-40560000D01*
X346923796Y-40584504D01*
X346920196Y-40608773D01*
X346914235Y-40632571D01*
X346905970Y-40655671D01*
X346895480Y-40677849D01*
X346882867Y-40698893D01*
X346868253Y-40718598D01*
X346851777Y-40736777D01*
X346833598Y-40753253D01*
X346813893Y-40767867D01*
X346792849Y-40780480D01*
X346770671Y-40790970D01*
X346747571Y-40799235D01*
X346723773Y-40805196D01*
X346699504Y-40808796D01*
X346675000Y-40810000D01*
X345425000Y-40810000D01*
X345400496Y-40808796D01*
X345376227Y-40805196D01*
X345352429Y-40799235D01*
X345329329Y-40790970D01*
X345307151Y-40780480D01*
X345286107Y-40767867D01*
X345266402Y-40753253D01*
X345248223Y-40736777D01*
X345231747Y-40718598D01*
X345217133Y-40698893D01*
X345204520Y-40677849D01*
X345194030Y-40655671D01*
X345185765Y-40632571D01*
X345179804Y-40608773D01*
X345176204Y-40584504D01*
X345175000Y-40560000D01*
X345175000Y-39635000D01*
X345176204Y-39610496D01*
X345179804Y-39586227D01*
X345185765Y-39562429D01*
X345194030Y-39539329D01*
X345204520Y-39517151D01*
X345217133Y-39496107D01*
X345231747Y-39476402D01*
X345248223Y-39458223D01*
X345266402Y-39441747D01*
X345286107Y-39427133D01*
X345307151Y-39414520D01*
X345329329Y-39404030D01*
X345352429Y-39395765D01*
X345376227Y-39389804D01*
X345400496Y-39386204D01*
X345425000Y-39385000D01*
X346675000Y-39385000D01*
X346699504Y-39386204D01*
X346699504Y-39386204D01*
G37*
D12*
X346050000Y-40097500D03*
G04 #@! TD*
D11*
G04 #@! TO.C,D39*
G36*
X234549504Y-55451204D02*
X234573773Y-55454804D01*
X234597571Y-55460765D01*
X234620671Y-55469030D01*
X234642849Y-55479520D01*
X234663893Y-55492133D01*
X234683598Y-55506747D01*
X234701777Y-55523223D01*
X234718253Y-55541402D01*
X234732867Y-55561107D01*
X234745480Y-55582151D01*
X234755970Y-55604329D01*
X234764235Y-55627429D01*
X234770196Y-55651227D01*
X234773796Y-55675496D01*
X234775000Y-55700000D01*
X234775000Y-56625000D01*
X234773796Y-56649504D01*
X234770196Y-56673773D01*
X234764235Y-56697571D01*
X234755970Y-56720671D01*
X234745480Y-56742849D01*
X234732867Y-56763893D01*
X234718253Y-56783598D01*
X234701777Y-56801777D01*
X234683598Y-56818253D01*
X234663893Y-56832867D01*
X234642849Y-56845480D01*
X234620671Y-56855970D01*
X234597571Y-56864235D01*
X234573773Y-56870196D01*
X234549504Y-56873796D01*
X234525000Y-56875000D01*
X233275000Y-56875000D01*
X233250496Y-56873796D01*
X233226227Y-56870196D01*
X233202429Y-56864235D01*
X233179329Y-56855970D01*
X233157151Y-56845480D01*
X233136107Y-56832867D01*
X233116402Y-56818253D01*
X233098223Y-56801777D01*
X233081747Y-56783598D01*
X233067133Y-56763893D01*
X233054520Y-56742849D01*
X233044030Y-56720671D01*
X233035765Y-56697571D01*
X233029804Y-56673773D01*
X233026204Y-56649504D01*
X233025000Y-56625000D01*
X233025000Y-55700000D01*
X233026204Y-55675496D01*
X233029804Y-55651227D01*
X233035765Y-55627429D01*
X233044030Y-55604329D01*
X233054520Y-55582151D01*
X233067133Y-55561107D01*
X233081747Y-55541402D01*
X233098223Y-55523223D01*
X233116402Y-55506747D01*
X233136107Y-55492133D01*
X233157151Y-55479520D01*
X233179329Y-55469030D01*
X233202429Y-55460765D01*
X233226227Y-55454804D01*
X233250496Y-55451204D01*
X233275000Y-55450000D01*
X234525000Y-55450000D01*
X234549504Y-55451204D01*
X234549504Y-55451204D01*
G37*
D12*
X233900000Y-56162500D03*
D11*
G36*
X234549504Y-58426204D02*
X234573773Y-58429804D01*
X234597571Y-58435765D01*
X234620671Y-58444030D01*
X234642849Y-58454520D01*
X234663893Y-58467133D01*
X234683598Y-58481747D01*
X234701777Y-58498223D01*
X234718253Y-58516402D01*
X234732867Y-58536107D01*
X234745480Y-58557151D01*
X234755970Y-58579329D01*
X234764235Y-58602429D01*
X234770196Y-58626227D01*
X234773796Y-58650496D01*
X234775000Y-58675000D01*
X234775000Y-59600000D01*
X234773796Y-59624504D01*
X234770196Y-59648773D01*
X234764235Y-59672571D01*
X234755970Y-59695671D01*
X234745480Y-59717849D01*
X234732867Y-59738893D01*
X234718253Y-59758598D01*
X234701777Y-59776777D01*
X234683598Y-59793253D01*
X234663893Y-59807867D01*
X234642849Y-59820480D01*
X234620671Y-59830970D01*
X234597571Y-59839235D01*
X234573773Y-59845196D01*
X234549504Y-59848796D01*
X234525000Y-59850000D01*
X233275000Y-59850000D01*
X233250496Y-59848796D01*
X233226227Y-59845196D01*
X233202429Y-59839235D01*
X233179329Y-59830970D01*
X233157151Y-59820480D01*
X233136107Y-59807867D01*
X233116402Y-59793253D01*
X233098223Y-59776777D01*
X233081747Y-59758598D01*
X233067133Y-59738893D01*
X233054520Y-59717849D01*
X233044030Y-59695671D01*
X233035765Y-59672571D01*
X233029804Y-59648773D01*
X233026204Y-59624504D01*
X233025000Y-59600000D01*
X233025000Y-58675000D01*
X233026204Y-58650496D01*
X233029804Y-58626227D01*
X233035765Y-58602429D01*
X233044030Y-58579329D01*
X233054520Y-58557151D01*
X233067133Y-58536107D01*
X233081747Y-58516402D01*
X233098223Y-58498223D01*
X233116402Y-58481747D01*
X233136107Y-58467133D01*
X233157151Y-58454520D01*
X233179329Y-58444030D01*
X233202429Y-58435765D01*
X233226227Y-58429804D01*
X233250496Y-58426204D01*
X233275000Y-58425000D01*
X234525000Y-58425000D01*
X234549504Y-58426204D01*
X234549504Y-58426204D01*
G37*
D12*
X233900000Y-59137500D03*
G04 #@! TD*
D11*
G04 #@! TO.C,D40*
G36*
X253599504Y-55451204D02*
X253623773Y-55454804D01*
X253647571Y-55460765D01*
X253670671Y-55469030D01*
X253692849Y-55479520D01*
X253713893Y-55492133D01*
X253733598Y-55506747D01*
X253751777Y-55523223D01*
X253768253Y-55541402D01*
X253782867Y-55561107D01*
X253795480Y-55582151D01*
X253805970Y-55604329D01*
X253814235Y-55627429D01*
X253820196Y-55651227D01*
X253823796Y-55675496D01*
X253825000Y-55700000D01*
X253825000Y-56625000D01*
X253823796Y-56649504D01*
X253820196Y-56673773D01*
X253814235Y-56697571D01*
X253805970Y-56720671D01*
X253795480Y-56742849D01*
X253782867Y-56763893D01*
X253768253Y-56783598D01*
X253751777Y-56801777D01*
X253733598Y-56818253D01*
X253713893Y-56832867D01*
X253692849Y-56845480D01*
X253670671Y-56855970D01*
X253647571Y-56864235D01*
X253623773Y-56870196D01*
X253599504Y-56873796D01*
X253575000Y-56875000D01*
X252325000Y-56875000D01*
X252300496Y-56873796D01*
X252276227Y-56870196D01*
X252252429Y-56864235D01*
X252229329Y-56855970D01*
X252207151Y-56845480D01*
X252186107Y-56832867D01*
X252166402Y-56818253D01*
X252148223Y-56801777D01*
X252131747Y-56783598D01*
X252117133Y-56763893D01*
X252104520Y-56742849D01*
X252094030Y-56720671D01*
X252085765Y-56697571D01*
X252079804Y-56673773D01*
X252076204Y-56649504D01*
X252075000Y-56625000D01*
X252075000Y-55700000D01*
X252076204Y-55675496D01*
X252079804Y-55651227D01*
X252085765Y-55627429D01*
X252094030Y-55604329D01*
X252104520Y-55582151D01*
X252117133Y-55561107D01*
X252131747Y-55541402D01*
X252148223Y-55523223D01*
X252166402Y-55506747D01*
X252186107Y-55492133D01*
X252207151Y-55479520D01*
X252229329Y-55469030D01*
X252252429Y-55460765D01*
X252276227Y-55454804D01*
X252300496Y-55451204D01*
X252325000Y-55450000D01*
X253575000Y-55450000D01*
X253599504Y-55451204D01*
X253599504Y-55451204D01*
G37*
D12*
X252950000Y-56162500D03*
D11*
G36*
X253599504Y-58426204D02*
X253623773Y-58429804D01*
X253647571Y-58435765D01*
X253670671Y-58444030D01*
X253692849Y-58454520D01*
X253713893Y-58467133D01*
X253733598Y-58481747D01*
X253751777Y-58498223D01*
X253768253Y-58516402D01*
X253782867Y-58536107D01*
X253795480Y-58557151D01*
X253805970Y-58579329D01*
X253814235Y-58602429D01*
X253820196Y-58626227D01*
X253823796Y-58650496D01*
X253825000Y-58675000D01*
X253825000Y-59600000D01*
X253823796Y-59624504D01*
X253820196Y-59648773D01*
X253814235Y-59672571D01*
X253805970Y-59695671D01*
X253795480Y-59717849D01*
X253782867Y-59738893D01*
X253768253Y-59758598D01*
X253751777Y-59776777D01*
X253733598Y-59793253D01*
X253713893Y-59807867D01*
X253692849Y-59820480D01*
X253670671Y-59830970D01*
X253647571Y-59839235D01*
X253623773Y-59845196D01*
X253599504Y-59848796D01*
X253575000Y-59850000D01*
X252325000Y-59850000D01*
X252300496Y-59848796D01*
X252276227Y-59845196D01*
X252252429Y-59839235D01*
X252229329Y-59830970D01*
X252207151Y-59820480D01*
X252186107Y-59807867D01*
X252166402Y-59793253D01*
X252148223Y-59776777D01*
X252131747Y-59758598D01*
X252117133Y-59738893D01*
X252104520Y-59717849D01*
X252094030Y-59695671D01*
X252085765Y-59672571D01*
X252079804Y-59648773D01*
X252076204Y-59624504D01*
X252075000Y-59600000D01*
X252075000Y-58675000D01*
X252076204Y-58650496D01*
X252079804Y-58626227D01*
X252085765Y-58602429D01*
X252094030Y-58579329D01*
X252104520Y-58557151D01*
X252117133Y-58536107D01*
X252131747Y-58516402D01*
X252148223Y-58498223D01*
X252166402Y-58481747D01*
X252186107Y-58467133D01*
X252207151Y-58454520D01*
X252229329Y-58444030D01*
X252252429Y-58435765D01*
X252276227Y-58429804D01*
X252300496Y-58426204D01*
X252325000Y-58425000D01*
X253575000Y-58425000D01*
X253599504Y-58426204D01*
X253599504Y-58426204D01*
G37*
D12*
X252950000Y-59137500D03*
G04 #@! TD*
D11*
G04 #@! TO.C,D41*
G36*
X272649504Y-55451204D02*
X272673773Y-55454804D01*
X272697571Y-55460765D01*
X272720671Y-55469030D01*
X272742849Y-55479520D01*
X272763893Y-55492133D01*
X272783598Y-55506747D01*
X272801777Y-55523223D01*
X272818253Y-55541402D01*
X272832867Y-55561107D01*
X272845480Y-55582151D01*
X272855970Y-55604329D01*
X272864235Y-55627429D01*
X272870196Y-55651227D01*
X272873796Y-55675496D01*
X272875000Y-55700000D01*
X272875000Y-56625000D01*
X272873796Y-56649504D01*
X272870196Y-56673773D01*
X272864235Y-56697571D01*
X272855970Y-56720671D01*
X272845480Y-56742849D01*
X272832867Y-56763893D01*
X272818253Y-56783598D01*
X272801777Y-56801777D01*
X272783598Y-56818253D01*
X272763893Y-56832867D01*
X272742849Y-56845480D01*
X272720671Y-56855970D01*
X272697571Y-56864235D01*
X272673773Y-56870196D01*
X272649504Y-56873796D01*
X272625000Y-56875000D01*
X271375000Y-56875000D01*
X271350496Y-56873796D01*
X271326227Y-56870196D01*
X271302429Y-56864235D01*
X271279329Y-56855970D01*
X271257151Y-56845480D01*
X271236107Y-56832867D01*
X271216402Y-56818253D01*
X271198223Y-56801777D01*
X271181747Y-56783598D01*
X271167133Y-56763893D01*
X271154520Y-56742849D01*
X271144030Y-56720671D01*
X271135765Y-56697571D01*
X271129804Y-56673773D01*
X271126204Y-56649504D01*
X271125000Y-56625000D01*
X271125000Y-55700000D01*
X271126204Y-55675496D01*
X271129804Y-55651227D01*
X271135765Y-55627429D01*
X271144030Y-55604329D01*
X271154520Y-55582151D01*
X271167133Y-55561107D01*
X271181747Y-55541402D01*
X271198223Y-55523223D01*
X271216402Y-55506747D01*
X271236107Y-55492133D01*
X271257151Y-55479520D01*
X271279329Y-55469030D01*
X271302429Y-55460765D01*
X271326227Y-55454804D01*
X271350496Y-55451204D01*
X271375000Y-55450000D01*
X272625000Y-55450000D01*
X272649504Y-55451204D01*
X272649504Y-55451204D01*
G37*
D12*
X272000000Y-56162500D03*
D11*
G36*
X272649504Y-58426204D02*
X272673773Y-58429804D01*
X272697571Y-58435765D01*
X272720671Y-58444030D01*
X272742849Y-58454520D01*
X272763893Y-58467133D01*
X272783598Y-58481747D01*
X272801777Y-58498223D01*
X272818253Y-58516402D01*
X272832867Y-58536107D01*
X272845480Y-58557151D01*
X272855970Y-58579329D01*
X272864235Y-58602429D01*
X272870196Y-58626227D01*
X272873796Y-58650496D01*
X272875000Y-58675000D01*
X272875000Y-59600000D01*
X272873796Y-59624504D01*
X272870196Y-59648773D01*
X272864235Y-59672571D01*
X272855970Y-59695671D01*
X272845480Y-59717849D01*
X272832867Y-59738893D01*
X272818253Y-59758598D01*
X272801777Y-59776777D01*
X272783598Y-59793253D01*
X272763893Y-59807867D01*
X272742849Y-59820480D01*
X272720671Y-59830970D01*
X272697571Y-59839235D01*
X272673773Y-59845196D01*
X272649504Y-59848796D01*
X272625000Y-59850000D01*
X271375000Y-59850000D01*
X271350496Y-59848796D01*
X271326227Y-59845196D01*
X271302429Y-59839235D01*
X271279329Y-59830970D01*
X271257151Y-59820480D01*
X271236107Y-59807867D01*
X271216402Y-59793253D01*
X271198223Y-59776777D01*
X271181747Y-59758598D01*
X271167133Y-59738893D01*
X271154520Y-59717849D01*
X271144030Y-59695671D01*
X271135765Y-59672571D01*
X271129804Y-59648773D01*
X271126204Y-59624504D01*
X271125000Y-59600000D01*
X271125000Y-58675000D01*
X271126204Y-58650496D01*
X271129804Y-58626227D01*
X271135765Y-58602429D01*
X271144030Y-58579329D01*
X271154520Y-58557151D01*
X271167133Y-58536107D01*
X271181747Y-58516402D01*
X271198223Y-58498223D01*
X271216402Y-58481747D01*
X271236107Y-58467133D01*
X271257151Y-58454520D01*
X271279329Y-58444030D01*
X271302429Y-58435765D01*
X271326227Y-58429804D01*
X271350496Y-58426204D01*
X271375000Y-58425000D01*
X272625000Y-58425000D01*
X272649504Y-58426204D01*
X272649504Y-58426204D01*
G37*
D12*
X272000000Y-59137500D03*
G04 #@! TD*
D11*
G04 #@! TO.C,D42*
G36*
X291699504Y-55451204D02*
X291723773Y-55454804D01*
X291747571Y-55460765D01*
X291770671Y-55469030D01*
X291792849Y-55479520D01*
X291813893Y-55492133D01*
X291833598Y-55506747D01*
X291851777Y-55523223D01*
X291868253Y-55541402D01*
X291882867Y-55561107D01*
X291895480Y-55582151D01*
X291905970Y-55604329D01*
X291914235Y-55627429D01*
X291920196Y-55651227D01*
X291923796Y-55675496D01*
X291925000Y-55700000D01*
X291925000Y-56625000D01*
X291923796Y-56649504D01*
X291920196Y-56673773D01*
X291914235Y-56697571D01*
X291905970Y-56720671D01*
X291895480Y-56742849D01*
X291882867Y-56763893D01*
X291868253Y-56783598D01*
X291851777Y-56801777D01*
X291833598Y-56818253D01*
X291813893Y-56832867D01*
X291792849Y-56845480D01*
X291770671Y-56855970D01*
X291747571Y-56864235D01*
X291723773Y-56870196D01*
X291699504Y-56873796D01*
X291675000Y-56875000D01*
X290425000Y-56875000D01*
X290400496Y-56873796D01*
X290376227Y-56870196D01*
X290352429Y-56864235D01*
X290329329Y-56855970D01*
X290307151Y-56845480D01*
X290286107Y-56832867D01*
X290266402Y-56818253D01*
X290248223Y-56801777D01*
X290231747Y-56783598D01*
X290217133Y-56763893D01*
X290204520Y-56742849D01*
X290194030Y-56720671D01*
X290185765Y-56697571D01*
X290179804Y-56673773D01*
X290176204Y-56649504D01*
X290175000Y-56625000D01*
X290175000Y-55700000D01*
X290176204Y-55675496D01*
X290179804Y-55651227D01*
X290185765Y-55627429D01*
X290194030Y-55604329D01*
X290204520Y-55582151D01*
X290217133Y-55561107D01*
X290231747Y-55541402D01*
X290248223Y-55523223D01*
X290266402Y-55506747D01*
X290286107Y-55492133D01*
X290307151Y-55479520D01*
X290329329Y-55469030D01*
X290352429Y-55460765D01*
X290376227Y-55454804D01*
X290400496Y-55451204D01*
X290425000Y-55450000D01*
X291675000Y-55450000D01*
X291699504Y-55451204D01*
X291699504Y-55451204D01*
G37*
D12*
X291050000Y-56162500D03*
D11*
G36*
X291699504Y-58426204D02*
X291723773Y-58429804D01*
X291747571Y-58435765D01*
X291770671Y-58444030D01*
X291792849Y-58454520D01*
X291813893Y-58467133D01*
X291833598Y-58481747D01*
X291851777Y-58498223D01*
X291868253Y-58516402D01*
X291882867Y-58536107D01*
X291895480Y-58557151D01*
X291905970Y-58579329D01*
X291914235Y-58602429D01*
X291920196Y-58626227D01*
X291923796Y-58650496D01*
X291925000Y-58675000D01*
X291925000Y-59600000D01*
X291923796Y-59624504D01*
X291920196Y-59648773D01*
X291914235Y-59672571D01*
X291905970Y-59695671D01*
X291895480Y-59717849D01*
X291882867Y-59738893D01*
X291868253Y-59758598D01*
X291851777Y-59776777D01*
X291833598Y-59793253D01*
X291813893Y-59807867D01*
X291792849Y-59820480D01*
X291770671Y-59830970D01*
X291747571Y-59839235D01*
X291723773Y-59845196D01*
X291699504Y-59848796D01*
X291675000Y-59850000D01*
X290425000Y-59850000D01*
X290400496Y-59848796D01*
X290376227Y-59845196D01*
X290352429Y-59839235D01*
X290329329Y-59830970D01*
X290307151Y-59820480D01*
X290286107Y-59807867D01*
X290266402Y-59793253D01*
X290248223Y-59776777D01*
X290231747Y-59758598D01*
X290217133Y-59738893D01*
X290204520Y-59717849D01*
X290194030Y-59695671D01*
X290185765Y-59672571D01*
X290179804Y-59648773D01*
X290176204Y-59624504D01*
X290175000Y-59600000D01*
X290175000Y-58675000D01*
X290176204Y-58650496D01*
X290179804Y-58626227D01*
X290185765Y-58602429D01*
X290194030Y-58579329D01*
X290204520Y-58557151D01*
X290217133Y-58536107D01*
X290231747Y-58516402D01*
X290248223Y-58498223D01*
X290266402Y-58481747D01*
X290286107Y-58467133D01*
X290307151Y-58454520D01*
X290329329Y-58444030D01*
X290352429Y-58435765D01*
X290376227Y-58429804D01*
X290400496Y-58426204D01*
X290425000Y-58425000D01*
X291675000Y-58425000D01*
X291699504Y-58426204D01*
X291699504Y-58426204D01*
G37*
D12*
X291050000Y-59137500D03*
G04 #@! TD*
D11*
G04 #@! TO.C,D43*
G36*
X310749504Y-55451204D02*
X310773773Y-55454804D01*
X310797571Y-55460765D01*
X310820671Y-55469030D01*
X310842849Y-55479520D01*
X310863893Y-55492133D01*
X310883598Y-55506747D01*
X310901777Y-55523223D01*
X310918253Y-55541402D01*
X310932867Y-55561107D01*
X310945480Y-55582151D01*
X310955970Y-55604329D01*
X310964235Y-55627429D01*
X310970196Y-55651227D01*
X310973796Y-55675496D01*
X310975000Y-55700000D01*
X310975000Y-56625000D01*
X310973796Y-56649504D01*
X310970196Y-56673773D01*
X310964235Y-56697571D01*
X310955970Y-56720671D01*
X310945480Y-56742849D01*
X310932867Y-56763893D01*
X310918253Y-56783598D01*
X310901777Y-56801777D01*
X310883598Y-56818253D01*
X310863893Y-56832867D01*
X310842849Y-56845480D01*
X310820671Y-56855970D01*
X310797571Y-56864235D01*
X310773773Y-56870196D01*
X310749504Y-56873796D01*
X310725000Y-56875000D01*
X309475000Y-56875000D01*
X309450496Y-56873796D01*
X309426227Y-56870196D01*
X309402429Y-56864235D01*
X309379329Y-56855970D01*
X309357151Y-56845480D01*
X309336107Y-56832867D01*
X309316402Y-56818253D01*
X309298223Y-56801777D01*
X309281747Y-56783598D01*
X309267133Y-56763893D01*
X309254520Y-56742849D01*
X309244030Y-56720671D01*
X309235765Y-56697571D01*
X309229804Y-56673773D01*
X309226204Y-56649504D01*
X309225000Y-56625000D01*
X309225000Y-55700000D01*
X309226204Y-55675496D01*
X309229804Y-55651227D01*
X309235765Y-55627429D01*
X309244030Y-55604329D01*
X309254520Y-55582151D01*
X309267133Y-55561107D01*
X309281747Y-55541402D01*
X309298223Y-55523223D01*
X309316402Y-55506747D01*
X309336107Y-55492133D01*
X309357151Y-55479520D01*
X309379329Y-55469030D01*
X309402429Y-55460765D01*
X309426227Y-55454804D01*
X309450496Y-55451204D01*
X309475000Y-55450000D01*
X310725000Y-55450000D01*
X310749504Y-55451204D01*
X310749504Y-55451204D01*
G37*
D12*
X310100000Y-56162500D03*
D11*
G36*
X310749504Y-58426204D02*
X310773773Y-58429804D01*
X310797571Y-58435765D01*
X310820671Y-58444030D01*
X310842849Y-58454520D01*
X310863893Y-58467133D01*
X310883598Y-58481747D01*
X310901777Y-58498223D01*
X310918253Y-58516402D01*
X310932867Y-58536107D01*
X310945480Y-58557151D01*
X310955970Y-58579329D01*
X310964235Y-58602429D01*
X310970196Y-58626227D01*
X310973796Y-58650496D01*
X310975000Y-58675000D01*
X310975000Y-59600000D01*
X310973796Y-59624504D01*
X310970196Y-59648773D01*
X310964235Y-59672571D01*
X310955970Y-59695671D01*
X310945480Y-59717849D01*
X310932867Y-59738893D01*
X310918253Y-59758598D01*
X310901777Y-59776777D01*
X310883598Y-59793253D01*
X310863893Y-59807867D01*
X310842849Y-59820480D01*
X310820671Y-59830970D01*
X310797571Y-59839235D01*
X310773773Y-59845196D01*
X310749504Y-59848796D01*
X310725000Y-59850000D01*
X309475000Y-59850000D01*
X309450496Y-59848796D01*
X309426227Y-59845196D01*
X309402429Y-59839235D01*
X309379329Y-59830970D01*
X309357151Y-59820480D01*
X309336107Y-59807867D01*
X309316402Y-59793253D01*
X309298223Y-59776777D01*
X309281747Y-59758598D01*
X309267133Y-59738893D01*
X309254520Y-59717849D01*
X309244030Y-59695671D01*
X309235765Y-59672571D01*
X309229804Y-59648773D01*
X309226204Y-59624504D01*
X309225000Y-59600000D01*
X309225000Y-58675000D01*
X309226204Y-58650496D01*
X309229804Y-58626227D01*
X309235765Y-58602429D01*
X309244030Y-58579329D01*
X309254520Y-58557151D01*
X309267133Y-58536107D01*
X309281747Y-58516402D01*
X309298223Y-58498223D01*
X309316402Y-58481747D01*
X309336107Y-58467133D01*
X309357151Y-58454520D01*
X309379329Y-58444030D01*
X309402429Y-58435765D01*
X309426227Y-58429804D01*
X309450496Y-58426204D01*
X309475000Y-58425000D01*
X310725000Y-58425000D01*
X310749504Y-58426204D01*
X310749504Y-58426204D01*
G37*
D12*
X310100000Y-59137500D03*
G04 #@! TD*
D11*
G04 #@! TO.C,D44*
G36*
X329799504Y-55451204D02*
X329823773Y-55454804D01*
X329847571Y-55460765D01*
X329870671Y-55469030D01*
X329892849Y-55479520D01*
X329913893Y-55492133D01*
X329933598Y-55506747D01*
X329951777Y-55523223D01*
X329968253Y-55541402D01*
X329982867Y-55561107D01*
X329995480Y-55582151D01*
X330005970Y-55604329D01*
X330014235Y-55627429D01*
X330020196Y-55651227D01*
X330023796Y-55675496D01*
X330025000Y-55700000D01*
X330025000Y-56625000D01*
X330023796Y-56649504D01*
X330020196Y-56673773D01*
X330014235Y-56697571D01*
X330005970Y-56720671D01*
X329995480Y-56742849D01*
X329982867Y-56763893D01*
X329968253Y-56783598D01*
X329951777Y-56801777D01*
X329933598Y-56818253D01*
X329913893Y-56832867D01*
X329892849Y-56845480D01*
X329870671Y-56855970D01*
X329847571Y-56864235D01*
X329823773Y-56870196D01*
X329799504Y-56873796D01*
X329775000Y-56875000D01*
X328525000Y-56875000D01*
X328500496Y-56873796D01*
X328476227Y-56870196D01*
X328452429Y-56864235D01*
X328429329Y-56855970D01*
X328407151Y-56845480D01*
X328386107Y-56832867D01*
X328366402Y-56818253D01*
X328348223Y-56801777D01*
X328331747Y-56783598D01*
X328317133Y-56763893D01*
X328304520Y-56742849D01*
X328294030Y-56720671D01*
X328285765Y-56697571D01*
X328279804Y-56673773D01*
X328276204Y-56649504D01*
X328275000Y-56625000D01*
X328275000Y-55700000D01*
X328276204Y-55675496D01*
X328279804Y-55651227D01*
X328285765Y-55627429D01*
X328294030Y-55604329D01*
X328304520Y-55582151D01*
X328317133Y-55561107D01*
X328331747Y-55541402D01*
X328348223Y-55523223D01*
X328366402Y-55506747D01*
X328386107Y-55492133D01*
X328407151Y-55479520D01*
X328429329Y-55469030D01*
X328452429Y-55460765D01*
X328476227Y-55454804D01*
X328500496Y-55451204D01*
X328525000Y-55450000D01*
X329775000Y-55450000D01*
X329799504Y-55451204D01*
X329799504Y-55451204D01*
G37*
D12*
X329150000Y-56162500D03*
D11*
G36*
X329799504Y-58426204D02*
X329823773Y-58429804D01*
X329847571Y-58435765D01*
X329870671Y-58444030D01*
X329892849Y-58454520D01*
X329913893Y-58467133D01*
X329933598Y-58481747D01*
X329951777Y-58498223D01*
X329968253Y-58516402D01*
X329982867Y-58536107D01*
X329995480Y-58557151D01*
X330005970Y-58579329D01*
X330014235Y-58602429D01*
X330020196Y-58626227D01*
X330023796Y-58650496D01*
X330025000Y-58675000D01*
X330025000Y-59600000D01*
X330023796Y-59624504D01*
X330020196Y-59648773D01*
X330014235Y-59672571D01*
X330005970Y-59695671D01*
X329995480Y-59717849D01*
X329982867Y-59738893D01*
X329968253Y-59758598D01*
X329951777Y-59776777D01*
X329933598Y-59793253D01*
X329913893Y-59807867D01*
X329892849Y-59820480D01*
X329870671Y-59830970D01*
X329847571Y-59839235D01*
X329823773Y-59845196D01*
X329799504Y-59848796D01*
X329775000Y-59850000D01*
X328525000Y-59850000D01*
X328500496Y-59848796D01*
X328476227Y-59845196D01*
X328452429Y-59839235D01*
X328429329Y-59830970D01*
X328407151Y-59820480D01*
X328386107Y-59807867D01*
X328366402Y-59793253D01*
X328348223Y-59776777D01*
X328331747Y-59758598D01*
X328317133Y-59738893D01*
X328304520Y-59717849D01*
X328294030Y-59695671D01*
X328285765Y-59672571D01*
X328279804Y-59648773D01*
X328276204Y-59624504D01*
X328275000Y-59600000D01*
X328275000Y-58675000D01*
X328276204Y-58650496D01*
X328279804Y-58626227D01*
X328285765Y-58602429D01*
X328294030Y-58579329D01*
X328304520Y-58557151D01*
X328317133Y-58536107D01*
X328331747Y-58516402D01*
X328348223Y-58498223D01*
X328366402Y-58481747D01*
X328386107Y-58467133D01*
X328407151Y-58454520D01*
X328429329Y-58444030D01*
X328452429Y-58435765D01*
X328476227Y-58429804D01*
X328500496Y-58426204D01*
X328525000Y-58425000D01*
X329775000Y-58425000D01*
X329799504Y-58426204D01*
X329799504Y-58426204D01*
G37*
D12*
X329150000Y-59137500D03*
G04 #@! TD*
D11*
G04 #@! TO.C,D45*
G36*
X348849504Y-55451204D02*
X348873773Y-55454804D01*
X348897571Y-55460765D01*
X348920671Y-55469030D01*
X348942849Y-55479520D01*
X348963893Y-55492133D01*
X348983598Y-55506747D01*
X349001777Y-55523223D01*
X349018253Y-55541402D01*
X349032867Y-55561107D01*
X349045480Y-55582151D01*
X349055970Y-55604329D01*
X349064235Y-55627429D01*
X349070196Y-55651227D01*
X349073796Y-55675496D01*
X349075000Y-55700000D01*
X349075000Y-56625000D01*
X349073796Y-56649504D01*
X349070196Y-56673773D01*
X349064235Y-56697571D01*
X349055970Y-56720671D01*
X349045480Y-56742849D01*
X349032867Y-56763893D01*
X349018253Y-56783598D01*
X349001777Y-56801777D01*
X348983598Y-56818253D01*
X348963893Y-56832867D01*
X348942849Y-56845480D01*
X348920671Y-56855970D01*
X348897571Y-56864235D01*
X348873773Y-56870196D01*
X348849504Y-56873796D01*
X348825000Y-56875000D01*
X347575000Y-56875000D01*
X347550496Y-56873796D01*
X347526227Y-56870196D01*
X347502429Y-56864235D01*
X347479329Y-56855970D01*
X347457151Y-56845480D01*
X347436107Y-56832867D01*
X347416402Y-56818253D01*
X347398223Y-56801777D01*
X347381747Y-56783598D01*
X347367133Y-56763893D01*
X347354520Y-56742849D01*
X347344030Y-56720671D01*
X347335765Y-56697571D01*
X347329804Y-56673773D01*
X347326204Y-56649504D01*
X347325000Y-56625000D01*
X347325000Y-55700000D01*
X347326204Y-55675496D01*
X347329804Y-55651227D01*
X347335765Y-55627429D01*
X347344030Y-55604329D01*
X347354520Y-55582151D01*
X347367133Y-55561107D01*
X347381747Y-55541402D01*
X347398223Y-55523223D01*
X347416402Y-55506747D01*
X347436107Y-55492133D01*
X347457151Y-55479520D01*
X347479329Y-55469030D01*
X347502429Y-55460765D01*
X347526227Y-55454804D01*
X347550496Y-55451204D01*
X347575000Y-55450000D01*
X348825000Y-55450000D01*
X348849504Y-55451204D01*
X348849504Y-55451204D01*
G37*
D12*
X348200000Y-56162500D03*
D11*
G36*
X348849504Y-58426204D02*
X348873773Y-58429804D01*
X348897571Y-58435765D01*
X348920671Y-58444030D01*
X348942849Y-58454520D01*
X348963893Y-58467133D01*
X348983598Y-58481747D01*
X349001777Y-58498223D01*
X349018253Y-58516402D01*
X349032867Y-58536107D01*
X349045480Y-58557151D01*
X349055970Y-58579329D01*
X349064235Y-58602429D01*
X349070196Y-58626227D01*
X349073796Y-58650496D01*
X349075000Y-58675000D01*
X349075000Y-59600000D01*
X349073796Y-59624504D01*
X349070196Y-59648773D01*
X349064235Y-59672571D01*
X349055970Y-59695671D01*
X349045480Y-59717849D01*
X349032867Y-59738893D01*
X349018253Y-59758598D01*
X349001777Y-59776777D01*
X348983598Y-59793253D01*
X348963893Y-59807867D01*
X348942849Y-59820480D01*
X348920671Y-59830970D01*
X348897571Y-59839235D01*
X348873773Y-59845196D01*
X348849504Y-59848796D01*
X348825000Y-59850000D01*
X347575000Y-59850000D01*
X347550496Y-59848796D01*
X347526227Y-59845196D01*
X347502429Y-59839235D01*
X347479329Y-59830970D01*
X347457151Y-59820480D01*
X347436107Y-59807867D01*
X347416402Y-59793253D01*
X347398223Y-59776777D01*
X347381747Y-59758598D01*
X347367133Y-59738893D01*
X347354520Y-59717849D01*
X347344030Y-59695671D01*
X347335765Y-59672571D01*
X347329804Y-59648773D01*
X347326204Y-59624504D01*
X347325000Y-59600000D01*
X347325000Y-58675000D01*
X347326204Y-58650496D01*
X347329804Y-58626227D01*
X347335765Y-58602429D01*
X347344030Y-58579329D01*
X347354520Y-58557151D01*
X347367133Y-58536107D01*
X347381747Y-58516402D01*
X347398223Y-58498223D01*
X347416402Y-58481747D01*
X347436107Y-58467133D01*
X347457151Y-58454520D01*
X347479329Y-58444030D01*
X347502429Y-58435765D01*
X347526227Y-58429804D01*
X347550496Y-58426204D01*
X347575000Y-58425000D01*
X348825000Y-58425000D01*
X348849504Y-58426204D01*
X348849504Y-58426204D01*
G37*
D12*
X348200000Y-59137500D03*
G04 #@! TD*
D11*
G04 #@! TO.C,D60*
G36*
X305999504Y-93561204D02*
X306023773Y-93564804D01*
X306047571Y-93570765D01*
X306070671Y-93579030D01*
X306092849Y-93589520D01*
X306113893Y-93602133D01*
X306133598Y-93616747D01*
X306151777Y-93633223D01*
X306168253Y-93651402D01*
X306182867Y-93671107D01*
X306195480Y-93692151D01*
X306205970Y-93714329D01*
X306214235Y-93737429D01*
X306220196Y-93761227D01*
X306223796Y-93785496D01*
X306225000Y-93810000D01*
X306225000Y-94735000D01*
X306223796Y-94759504D01*
X306220196Y-94783773D01*
X306214235Y-94807571D01*
X306205970Y-94830671D01*
X306195480Y-94852849D01*
X306182867Y-94873893D01*
X306168253Y-94893598D01*
X306151777Y-94911777D01*
X306133598Y-94928253D01*
X306113893Y-94942867D01*
X306092849Y-94955480D01*
X306070671Y-94965970D01*
X306047571Y-94974235D01*
X306023773Y-94980196D01*
X305999504Y-94983796D01*
X305975000Y-94985000D01*
X304725000Y-94985000D01*
X304700496Y-94983796D01*
X304676227Y-94980196D01*
X304652429Y-94974235D01*
X304629329Y-94965970D01*
X304607151Y-94955480D01*
X304586107Y-94942867D01*
X304566402Y-94928253D01*
X304548223Y-94911777D01*
X304531747Y-94893598D01*
X304517133Y-94873893D01*
X304504520Y-94852849D01*
X304494030Y-94830671D01*
X304485765Y-94807571D01*
X304479804Y-94783773D01*
X304476204Y-94759504D01*
X304475000Y-94735000D01*
X304475000Y-93810000D01*
X304476204Y-93785496D01*
X304479804Y-93761227D01*
X304485765Y-93737429D01*
X304494030Y-93714329D01*
X304504520Y-93692151D01*
X304517133Y-93671107D01*
X304531747Y-93651402D01*
X304548223Y-93633223D01*
X304566402Y-93616747D01*
X304586107Y-93602133D01*
X304607151Y-93589520D01*
X304629329Y-93579030D01*
X304652429Y-93570765D01*
X304676227Y-93564804D01*
X304700496Y-93561204D01*
X304725000Y-93560000D01*
X305975000Y-93560000D01*
X305999504Y-93561204D01*
X305999504Y-93561204D01*
G37*
D12*
X305350000Y-94272500D03*
D11*
G36*
X305999504Y-96536204D02*
X306023773Y-96539804D01*
X306047571Y-96545765D01*
X306070671Y-96554030D01*
X306092849Y-96564520D01*
X306113893Y-96577133D01*
X306133598Y-96591747D01*
X306151777Y-96608223D01*
X306168253Y-96626402D01*
X306182867Y-96646107D01*
X306195480Y-96667151D01*
X306205970Y-96689329D01*
X306214235Y-96712429D01*
X306220196Y-96736227D01*
X306223796Y-96760496D01*
X306225000Y-96785000D01*
X306225000Y-97710000D01*
X306223796Y-97734504D01*
X306220196Y-97758773D01*
X306214235Y-97782571D01*
X306205970Y-97805671D01*
X306195480Y-97827849D01*
X306182867Y-97848893D01*
X306168253Y-97868598D01*
X306151777Y-97886777D01*
X306133598Y-97903253D01*
X306113893Y-97917867D01*
X306092849Y-97930480D01*
X306070671Y-97940970D01*
X306047571Y-97949235D01*
X306023773Y-97955196D01*
X305999504Y-97958796D01*
X305975000Y-97960000D01*
X304725000Y-97960000D01*
X304700496Y-97958796D01*
X304676227Y-97955196D01*
X304652429Y-97949235D01*
X304629329Y-97940970D01*
X304607151Y-97930480D01*
X304586107Y-97917867D01*
X304566402Y-97903253D01*
X304548223Y-97886777D01*
X304531747Y-97868598D01*
X304517133Y-97848893D01*
X304504520Y-97827849D01*
X304494030Y-97805671D01*
X304485765Y-97782571D01*
X304479804Y-97758773D01*
X304476204Y-97734504D01*
X304475000Y-97710000D01*
X304475000Y-96785000D01*
X304476204Y-96760496D01*
X304479804Y-96736227D01*
X304485765Y-96712429D01*
X304494030Y-96689329D01*
X304504520Y-96667151D01*
X304517133Y-96646107D01*
X304531747Y-96626402D01*
X304548223Y-96608223D01*
X304566402Y-96591747D01*
X304586107Y-96577133D01*
X304607151Y-96564520D01*
X304629329Y-96554030D01*
X304652429Y-96545765D01*
X304676227Y-96539804D01*
X304700496Y-96536204D01*
X304725000Y-96535000D01*
X305975000Y-96535000D01*
X305999504Y-96536204D01*
X305999504Y-96536204D01*
G37*
D12*
X305350000Y-97247500D03*
G04 #@! TD*
D11*
G04 #@! TO.C,D61*
G36*
X325049504Y-93561204D02*
X325073773Y-93564804D01*
X325097571Y-93570765D01*
X325120671Y-93579030D01*
X325142849Y-93589520D01*
X325163893Y-93602133D01*
X325183598Y-93616747D01*
X325201777Y-93633223D01*
X325218253Y-93651402D01*
X325232867Y-93671107D01*
X325245480Y-93692151D01*
X325255970Y-93714329D01*
X325264235Y-93737429D01*
X325270196Y-93761227D01*
X325273796Y-93785496D01*
X325275000Y-93810000D01*
X325275000Y-94735000D01*
X325273796Y-94759504D01*
X325270196Y-94783773D01*
X325264235Y-94807571D01*
X325255970Y-94830671D01*
X325245480Y-94852849D01*
X325232867Y-94873893D01*
X325218253Y-94893598D01*
X325201777Y-94911777D01*
X325183598Y-94928253D01*
X325163893Y-94942867D01*
X325142849Y-94955480D01*
X325120671Y-94965970D01*
X325097571Y-94974235D01*
X325073773Y-94980196D01*
X325049504Y-94983796D01*
X325025000Y-94985000D01*
X323775000Y-94985000D01*
X323750496Y-94983796D01*
X323726227Y-94980196D01*
X323702429Y-94974235D01*
X323679329Y-94965970D01*
X323657151Y-94955480D01*
X323636107Y-94942867D01*
X323616402Y-94928253D01*
X323598223Y-94911777D01*
X323581747Y-94893598D01*
X323567133Y-94873893D01*
X323554520Y-94852849D01*
X323544030Y-94830671D01*
X323535765Y-94807571D01*
X323529804Y-94783773D01*
X323526204Y-94759504D01*
X323525000Y-94735000D01*
X323525000Y-93810000D01*
X323526204Y-93785496D01*
X323529804Y-93761227D01*
X323535765Y-93737429D01*
X323544030Y-93714329D01*
X323554520Y-93692151D01*
X323567133Y-93671107D01*
X323581747Y-93651402D01*
X323598223Y-93633223D01*
X323616402Y-93616747D01*
X323636107Y-93602133D01*
X323657151Y-93589520D01*
X323679329Y-93579030D01*
X323702429Y-93570765D01*
X323726227Y-93564804D01*
X323750496Y-93561204D01*
X323775000Y-93560000D01*
X325025000Y-93560000D01*
X325049504Y-93561204D01*
X325049504Y-93561204D01*
G37*
D12*
X324400000Y-94272500D03*
D11*
G36*
X325049504Y-96536204D02*
X325073773Y-96539804D01*
X325097571Y-96545765D01*
X325120671Y-96554030D01*
X325142849Y-96564520D01*
X325163893Y-96577133D01*
X325183598Y-96591747D01*
X325201777Y-96608223D01*
X325218253Y-96626402D01*
X325232867Y-96646107D01*
X325245480Y-96667151D01*
X325255970Y-96689329D01*
X325264235Y-96712429D01*
X325270196Y-96736227D01*
X325273796Y-96760496D01*
X325275000Y-96785000D01*
X325275000Y-97710000D01*
X325273796Y-97734504D01*
X325270196Y-97758773D01*
X325264235Y-97782571D01*
X325255970Y-97805671D01*
X325245480Y-97827849D01*
X325232867Y-97848893D01*
X325218253Y-97868598D01*
X325201777Y-97886777D01*
X325183598Y-97903253D01*
X325163893Y-97917867D01*
X325142849Y-97930480D01*
X325120671Y-97940970D01*
X325097571Y-97949235D01*
X325073773Y-97955196D01*
X325049504Y-97958796D01*
X325025000Y-97960000D01*
X323775000Y-97960000D01*
X323750496Y-97958796D01*
X323726227Y-97955196D01*
X323702429Y-97949235D01*
X323679329Y-97940970D01*
X323657151Y-97930480D01*
X323636107Y-97917867D01*
X323616402Y-97903253D01*
X323598223Y-97886777D01*
X323581747Y-97868598D01*
X323567133Y-97848893D01*
X323554520Y-97827849D01*
X323544030Y-97805671D01*
X323535765Y-97782571D01*
X323529804Y-97758773D01*
X323526204Y-97734504D01*
X323525000Y-97710000D01*
X323525000Y-96785000D01*
X323526204Y-96760496D01*
X323529804Y-96736227D01*
X323535765Y-96712429D01*
X323544030Y-96689329D01*
X323554520Y-96667151D01*
X323567133Y-96646107D01*
X323581747Y-96626402D01*
X323598223Y-96608223D01*
X323616402Y-96591747D01*
X323636107Y-96577133D01*
X323657151Y-96564520D01*
X323679329Y-96554030D01*
X323702429Y-96545765D01*
X323726227Y-96539804D01*
X323750496Y-96536204D01*
X323775000Y-96535000D01*
X325025000Y-96535000D01*
X325049504Y-96536204D01*
X325049504Y-96536204D01*
G37*
D12*
X324400000Y-97247500D03*
G04 #@! TD*
D11*
G04 #@! TO.C,D62*
G36*
X346469504Y-93561204D02*
X346493773Y-93564804D01*
X346517571Y-93570765D01*
X346540671Y-93579030D01*
X346562849Y-93589520D01*
X346583893Y-93602133D01*
X346603598Y-93616747D01*
X346621777Y-93633223D01*
X346638253Y-93651402D01*
X346652867Y-93671107D01*
X346665480Y-93692151D01*
X346675970Y-93714329D01*
X346684235Y-93737429D01*
X346690196Y-93761227D01*
X346693796Y-93785496D01*
X346695000Y-93810000D01*
X346695000Y-94735000D01*
X346693796Y-94759504D01*
X346690196Y-94783773D01*
X346684235Y-94807571D01*
X346675970Y-94830671D01*
X346665480Y-94852849D01*
X346652867Y-94873893D01*
X346638253Y-94893598D01*
X346621777Y-94911777D01*
X346603598Y-94928253D01*
X346583893Y-94942867D01*
X346562849Y-94955480D01*
X346540671Y-94965970D01*
X346517571Y-94974235D01*
X346493773Y-94980196D01*
X346469504Y-94983796D01*
X346445000Y-94985000D01*
X345195000Y-94985000D01*
X345170496Y-94983796D01*
X345146227Y-94980196D01*
X345122429Y-94974235D01*
X345099329Y-94965970D01*
X345077151Y-94955480D01*
X345056107Y-94942867D01*
X345036402Y-94928253D01*
X345018223Y-94911777D01*
X345001747Y-94893598D01*
X344987133Y-94873893D01*
X344974520Y-94852849D01*
X344964030Y-94830671D01*
X344955765Y-94807571D01*
X344949804Y-94783773D01*
X344946204Y-94759504D01*
X344945000Y-94735000D01*
X344945000Y-93810000D01*
X344946204Y-93785496D01*
X344949804Y-93761227D01*
X344955765Y-93737429D01*
X344964030Y-93714329D01*
X344974520Y-93692151D01*
X344987133Y-93671107D01*
X345001747Y-93651402D01*
X345018223Y-93633223D01*
X345036402Y-93616747D01*
X345056107Y-93602133D01*
X345077151Y-93589520D01*
X345099329Y-93579030D01*
X345122429Y-93570765D01*
X345146227Y-93564804D01*
X345170496Y-93561204D01*
X345195000Y-93560000D01*
X346445000Y-93560000D01*
X346469504Y-93561204D01*
X346469504Y-93561204D01*
G37*
D12*
X345820000Y-94272500D03*
D11*
G36*
X346469504Y-96536204D02*
X346493773Y-96539804D01*
X346517571Y-96545765D01*
X346540671Y-96554030D01*
X346562849Y-96564520D01*
X346583893Y-96577133D01*
X346603598Y-96591747D01*
X346621777Y-96608223D01*
X346638253Y-96626402D01*
X346652867Y-96646107D01*
X346665480Y-96667151D01*
X346675970Y-96689329D01*
X346684235Y-96712429D01*
X346690196Y-96736227D01*
X346693796Y-96760496D01*
X346695000Y-96785000D01*
X346695000Y-97710000D01*
X346693796Y-97734504D01*
X346690196Y-97758773D01*
X346684235Y-97782571D01*
X346675970Y-97805671D01*
X346665480Y-97827849D01*
X346652867Y-97848893D01*
X346638253Y-97868598D01*
X346621777Y-97886777D01*
X346603598Y-97903253D01*
X346583893Y-97917867D01*
X346562849Y-97930480D01*
X346540671Y-97940970D01*
X346517571Y-97949235D01*
X346493773Y-97955196D01*
X346469504Y-97958796D01*
X346445000Y-97960000D01*
X345195000Y-97960000D01*
X345170496Y-97958796D01*
X345146227Y-97955196D01*
X345122429Y-97949235D01*
X345099329Y-97940970D01*
X345077151Y-97930480D01*
X345056107Y-97917867D01*
X345036402Y-97903253D01*
X345018223Y-97886777D01*
X345001747Y-97868598D01*
X344987133Y-97848893D01*
X344974520Y-97827849D01*
X344964030Y-97805671D01*
X344955765Y-97782571D01*
X344949804Y-97758773D01*
X344946204Y-97734504D01*
X344945000Y-97710000D01*
X344945000Y-96785000D01*
X344946204Y-96760496D01*
X344949804Y-96736227D01*
X344955765Y-96712429D01*
X344964030Y-96689329D01*
X344974520Y-96667151D01*
X344987133Y-96646107D01*
X345001747Y-96626402D01*
X345018223Y-96608223D01*
X345036402Y-96591747D01*
X345056107Y-96577133D01*
X345077151Y-96564520D01*
X345099329Y-96554030D01*
X345122429Y-96545765D01*
X345146227Y-96539804D01*
X345170496Y-96536204D01*
X345195000Y-96535000D01*
X346445000Y-96535000D01*
X346469504Y-96536204D01*
X346469504Y-96536204D01*
G37*
D12*
X345820000Y-97247500D03*
G04 #@! TD*
D11*
G04 #@! TO.C,D63*
G36*
X352369504Y-93561204D02*
X352393773Y-93564804D01*
X352417571Y-93570765D01*
X352440671Y-93579030D01*
X352462849Y-93589520D01*
X352483893Y-93602133D01*
X352503598Y-93616747D01*
X352521777Y-93633223D01*
X352538253Y-93651402D01*
X352552867Y-93671107D01*
X352565480Y-93692151D01*
X352575970Y-93714329D01*
X352584235Y-93737429D01*
X352590196Y-93761227D01*
X352593796Y-93785496D01*
X352595000Y-93810000D01*
X352595000Y-94735000D01*
X352593796Y-94759504D01*
X352590196Y-94783773D01*
X352584235Y-94807571D01*
X352575970Y-94830671D01*
X352565480Y-94852849D01*
X352552867Y-94873893D01*
X352538253Y-94893598D01*
X352521777Y-94911777D01*
X352503598Y-94928253D01*
X352483893Y-94942867D01*
X352462849Y-94955480D01*
X352440671Y-94965970D01*
X352417571Y-94974235D01*
X352393773Y-94980196D01*
X352369504Y-94983796D01*
X352345000Y-94985000D01*
X351095000Y-94985000D01*
X351070496Y-94983796D01*
X351046227Y-94980196D01*
X351022429Y-94974235D01*
X350999329Y-94965970D01*
X350977151Y-94955480D01*
X350956107Y-94942867D01*
X350936402Y-94928253D01*
X350918223Y-94911777D01*
X350901747Y-94893598D01*
X350887133Y-94873893D01*
X350874520Y-94852849D01*
X350864030Y-94830671D01*
X350855765Y-94807571D01*
X350849804Y-94783773D01*
X350846204Y-94759504D01*
X350845000Y-94735000D01*
X350845000Y-93810000D01*
X350846204Y-93785496D01*
X350849804Y-93761227D01*
X350855765Y-93737429D01*
X350864030Y-93714329D01*
X350874520Y-93692151D01*
X350887133Y-93671107D01*
X350901747Y-93651402D01*
X350918223Y-93633223D01*
X350936402Y-93616747D01*
X350956107Y-93602133D01*
X350977151Y-93589520D01*
X350999329Y-93579030D01*
X351022429Y-93570765D01*
X351046227Y-93564804D01*
X351070496Y-93561204D01*
X351095000Y-93560000D01*
X352345000Y-93560000D01*
X352369504Y-93561204D01*
X352369504Y-93561204D01*
G37*
D12*
X351720000Y-94272500D03*
D11*
G36*
X352369504Y-96536204D02*
X352393773Y-96539804D01*
X352417571Y-96545765D01*
X352440671Y-96554030D01*
X352462849Y-96564520D01*
X352483893Y-96577133D01*
X352503598Y-96591747D01*
X352521777Y-96608223D01*
X352538253Y-96626402D01*
X352552867Y-96646107D01*
X352565480Y-96667151D01*
X352575970Y-96689329D01*
X352584235Y-96712429D01*
X352590196Y-96736227D01*
X352593796Y-96760496D01*
X352595000Y-96785000D01*
X352595000Y-97710000D01*
X352593796Y-97734504D01*
X352590196Y-97758773D01*
X352584235Y-97782571D01*
X352575970Y-97805671D01*
X352565480Y-97827849D01*
X352552867Y-97848893D01*
X352538253Y-97868598D01*
X352521777Y-97886777D01*
X352503598Y-97903253D01*
X352483893Y-97917867D01*
X352462849Y-97930480D01*
X352440671Y-97940970D01*
X352417571Y-97949235D01*
X352393773Y-97955196D01*
X352369504Y-97958796D01*
X352345000Y-97960000D01*
X351095000Y-97960000D01*
X351070496Y-97958796D01*
X351046227Y-97955196D01*
X351022429Y-97949235D01*
X350999329Y-97940970D01*
X350977151Y-97930480D01*
X350956107Y-97917867D01*
X350936402Y-97903253D01*
X350918223Y-97886777D01*
X350901747Y-97868598D01*
X350887133Y-97848893D01*
X350874520Y-97827849D01*
X350864030Y-97805671D01*
X350855765Y-97782571D01*
X350849804Y-97758773D01*
X350846204Y-97734504D01*
X350845000Y-97710000D01*
X350845000Y-96785000D01*
X350846204Y-96760496D01*
X350849804Y-96736227D01*
X350855765Y-96712429D01*
X350864030Y-96689329D01*
X350874520Y-96667151D01*
X350887133Y-96646107D01*
X350901747Y-96626402D01*
X350918223Y-96608223D01*
X350936402Y-96591747D01*
X350956107Y-96577133D01*
X350977151Y-96564520D01*
X350999329Y-96554030D01*
X351022429Y-96545765D01*
X351046227Y-96539804D01*
X351070496Y-96536204D01*
X351095000Y-96535000D01*
X352345000Y-96535000D01*
X352369504Y-96536204D01*
X352369504Y-96536204D01*
G37*
D12*
X351720000Y-97247500D03*
G04 #@! TD*
D11*
G04 #@! TO.C,D64*
G36*
X239309504Y-112631204D02*
X239333773Y-112634804D01*
X239357571Y-112640765D01*
X239380671Y-112649030D01*
X239402849Y-112659520D01*
X239423893Y-112672133D01*
X239443598Y-112686747D01*
X239461777Y-112703223D01*
X239478253Y-112721402D01*
X239492867Y-112741107D01*
X239505480Y-112762151D01*
X239515970Y-112784329D01*
X239524235Y-112807429D01*
X239530196Y-112831227D01*
X239533796Y-112855496D01*
X239535000Y-112880000D01*
X239535000Y-113805000D01*
X239533796Y-113829504D01*
X239530196Y-113853773D01*
X239524235Y-113877571D01*
X239515970Y-113900671D01*
X239505480Y-113922849D01*
X239492867Y-113943893D01*
X239478253Y-113963598D01*
X239461777Y-113981777D01*
X239443598Y-113998253D01*
X239423893Y-114012867D01*
X239402849Y-114025480D01*
X239380671Y-114035970D01*
X239357571Y-114044235D01*
X239333773Y-114050196D01*
X239309504Y-114053796D01*
X239285000Y-114055000D01*
X238035000Y-114055000D01*
X238010496Y-114053796D01*
X237986227Y-114050196D01*
X237962429Y-114044235D01*
X237939329Y-114035970D01*
X237917151Y-114025480D01*
X237896107Y-114012867D01*
X237876402Y-113998253D01*
X237858223Y-113981777D01*
X237841747Y-113963598D01*
X237827133Y-113943893D01*
X237814520Y-113922849D01*
X237804030Y-113900671D01*
X237795765Y-113877571D01*
X237789804Y-113853773D01*
X237786204Y-113829504D01*
X237785000Y-113805000D01*
X237785000Y-112880000D01*
X237786204Y-112855496D01*
X237789804Y-112831227D01*
X237795765Y-112807429D01*
X237804030Y-112784329D01*
X237814520Y-112762151D01*
X237827133Y-112741107D01*
X237841747Y-112721402D01*
X237858223Y-112703223D01*
X237876402Y-112686747D01*
X237896107Y-112672133D01*
X237917151Y-112659520D01*
X237939329Y-112649030D01*
X237962429Y-112640765D01*
X237986227Y-112634804D01*
X238010496Y-112631204D01*
X238035000Y-112630000D01*
X239285000Y-112630000D01*
X239309504Y-112631204D01*
X239309504Y-112631204D01*
G37*
D12*
X238660000Y-113342500D03*
D11*
G36*
X239309504Y-115606204D02*
X239333773Y-115609804D01*
X239357571Y-115615765D01*
X239380671Y-115624030D01*
X239402849Y-115634520D01*
X239423893Y-115647133D01*
X239443598Y-115661747D01*
X239461777Y-115678223D01*
X239478253Y-115696402D01*
X239492867Y-115716107D01*
X239505480Y-115737151D01*
X239515970Y-115759329D01*
X239524235Y-115782429D01*
X239530196Y-115806227D01*
X239533796Y-115830496D01*
X239535000Y-115855000D01*
X239535000Y-116780000D01*
X239533796Y-116804504D01*
X239530196Y-116828773D01*
X239524235Y-116852571D01*
X239515970Y-116875671D01*
X239505480Y-116897849D01*
X239492867Y-116918893D01*
X239478253Y-116938598D01*
X239461777Y-116956777D01*
X239443598Y-116973253D01*
X239423893Y-116987867D01*
X239402849Y-117000480D01*
X239380671Y-117010970D01*
X239357571Y-117019235D01*
X239333773Y-117025196D01*
X239309504Y-117028796D01*
X239285000Y-117030000D01*
X238035000Y-117030000D01*
X238010496Y-117028796D01*
X237986227Y-117025196D01*
X237962429Y-117019235D01*
X237939329Y-117010970D01*
X237917151Y-117000480D01*
X237896107Y-116987867D01*
X237876402Y-116973253D01*
X237858223Y-116956777D01*
X237841747Y-116938598D01*
X237827133Y-116918893D01*
X237814520Y-116897849D01*
X237804030Y-116875671D01*
X237795765Y-116852571D01*
X237789804Y-116828773D01*
X237786204Y-116804504D01*
X237785000Y-116780000D01*
X237785000Y-115855000D01*
X237786204Y-115830496D01*
X237789804Y-115806227D01*
X237795765Y-115782429D01*
X237804030Y-115759329D01*
X237814520Y-115737151D01*
X237827133Y-115716107D01*
X237841747Y-115696402D01*
X237858223Y-115678223D01*
X237876402Y-115661747D01*
X237896107Y-115647133D01*
X237917151Y-115634520D01*
X237939329Y-115624030D01*
X237962429Y-115615765D01*
X237986227Y-115609804D01*
X238010496Y-115606204D01*
X238035000Y-115605000D01*
X239285000Y-115605000D01*
X239309504Y-115606204D01*
X239309504Y-115606204D01*
G37*
D12*
X238660000Y-116317500D03*
G04 #@! TD*
D11*
G04 #@! TO.C,D65*
G36*
X275049504Y-112621204D02*
X275073773Y-112624804D01*
X275097571Y-112630765D01*
X275120671Y-112639030D01*
X275142849Y-112649520D01*
X275163893Y-112662133D01*
X275183598Y-112676747D01*
X275201777Y-112693223D01*
X275218253Y-112711402D01*
X275232867Y-112731107D01*
X275245480Y-112752151D01*
X275255970Y-112774329D01*
X275264235Y-112797429D01*
X275270196Y-112821227D01*
X275273796Y-112845496D01*
X275275000Y-112870000D01*
X275275000Y-113795000D01*
X275273796Y-113819504D01*
X275270196Y-113843773D01*
X275264235Y-113867571D01*
X275255970Y-113890671D01*
X275245480Y-113912849D01*
X275232867Y-113933893D01*
X275218253Y-113953598D01*
X275201777Y-113971777D01*
X275183598Y-113988253D01*
X275163893Y-114002867D01*
X275142849Y-114015480D01*
X275120671Y-114025970D01*
X275097571Y-114034235D01*
X275073773Y-114040196D01*
X275049504Y-114043796D01*
X275025000Y-114045000D01*
X273775000Y-114045000D01*
X273750496Y-114043796D01*
X273726227Y-114040196D01*
X273702429Y-114034235D01*
X273679329Y-114025970D01*
X273657151Y-114015480D01*
X273636107Y-114002867D01*
X273616402Y-113988253D01*
X273598223Y-113971777D01*
X273581747Y-113953598D01*
X273567133Y-113933893D01*
X273554520Y-113912849D01*
X273544030Y-113890671D01*
X273535765Y-113867571D01*
X273529804Y-113843773D01*
X273526204Y-113819504D01*
X273525000Y-113795000D01*
X273525000Y-112870000D01*
X273526204Y-112845496D01*
X273529804Y-112821227D01*
X273535765Y-112797429D01*
X273544030Y-112774329D01*
X273554520Y-112752151D01*
X273567133Y-112731107D01*
X273581747Y-112711402D01*
X273598223Y-112693223D01*
X273616402Y-112676747D01*
X273636107Y-112662133D01*
X273657151Y-112649520D01*
X273679329Y-112639030D01*
X273702429Y-112630765D01*
X273726227Y-112624804D01*
X273750496Y-112621204D01*
X273775000Y-112620000D01*
X275025000Y-112620000D01*
X275049504Y-112621204D01*
X275049504Y-112621204D01*
G37*
D12*
X274400000Y-113332500D03*
D11*
G36*
X275049504Y-115596204D02*
X275073773Y-115599804D01*
X275097571Y-115605765D01*
X275120671Y-115614030D01*
X275142849Y-115624520D01*
X275163893Y-115637133D01*
X275183598Y-115651747D01*
X275201777Y-115668223D01*
X275218253Y-115686402D01*
X275232867Y-115706107D01*
X275245480Y-115727151D01*
X275255970Y-115749329D01*
X275264235Y-115772429D01*
X275270196Y-115796227D01*
X275273796Y-115820496D01*
X275275000Y-115845000D01*
X275275000Y-116770000D01*
X275273796Y-116794504D01*
X275270196Y-116818773D01*
X275264235Y-116842571D01*
X275255970Y-116865671D01*
X275245480Y-116887849D01*
X275232867Y-116908893D01*
X275218253Y-116928598D01*
X275201777Y-116946777D01*
X275183598Y-116963253D01*
X275163893Y-116977867D01*
X275142849Y-116990480D01*
X275120671Y-117000970D01*
X275097571Y-117009235D01*
X275073773Y-117015196D01*
X275049504Y-117018796D01*
X275025000Y-117020000D01*
X273775000Y-117020000D01*
X273750496Y-117018796D01*
X273726227Y-117015196D01*
X273702429Y-117009235D01*
X273679329Y-117000970D01*
X273657151Y-116990480D01*
X273636107Y-116977867D01*
X273616402Y-116963253D01*
X273598223Y-116946777D01*
X273581747Y-116928598D01*
X273567133Y-116908893D01*
X273554520Y-116887849D01*
X273544030Y-116865671D01*
X273535765Y-116842571D01*
X273529804Y-116818773D01*
X273526204Y-116794504D01*
X273525000Y-116770000D01*
X273525000Y-115845000D01*
X273526204Y-115820496D01*
X273529804Y-115796227D01*
X273535765Y-115772429D01*
X273544030Y-115749329D01*
X273554520Y-115727151D01*
X273567133Y-115706107D01*
X273581747Y-115686402D01*
X273598223Y-115668223D01*
X273616402Y-115651747D01*
X273636107Y-115637133D01*
X273657151Y-115624520D01*
X273679329Y-115614030D01*
X273702429Y-115605765D01*
X273726227Y-115599804D01*
X273750496Y-115596204D01*
X273775000Y-115595000D01*
X275025000Y-115595000D01*
X275049504Y-115596204D01*
X275049504Y-115596204D01*
G37*
D12*
X274400000Y-116307500D03*
G04 #@! TD*
D11*
G04 #@! TO.C,D66*
G36*
X313139504Y-112611204D02*
X313163773Y-112614804D01*
X313187571Y-112620765D01*
X313210671Y-112629030D01*
X313232849Y-112639520D01*
X313253893Y-112652133D01*
X313273598Y-112666747D01*
X313291777Y-112683223D01*
X313308253Y-112701402D01*
X313322867Y-112721107D01*
X313335480Y-112742151D01*
X313345970Y-112764329D01*
X313354235Y-112787429D01*
X313360196Y-112811227D01*
X313363796Y-112835496D01*
X313365000Y-112860000D01*
X313365000Y-113785000D01*
X313363796Y-113809504D01*
X313360196Y-113833773D01*
X313354235Y-113857571D01*
X313345970Y-113880671D01*
X313335480Y-113902849D01*
X313322867Y-113923893D01*
X313308253Y-113943598D01*
X313291777Y-113961777D01*
X313273598Y-113978253D01*
X313253893Y-113992867D01*
X313232849Y-114005480D01*
X313210671Y-114015970D01*
X313187571Y-114024235D01*
X313163773Y-114030196D01*
X313139504Y-114033796D01*
X313115000Y-114035000D01*
X311865000Y-114035000D01*
X311840496Y-114033796D01*
X311816227Y-114030196D01*
X311792429Y-114024235D01*
X311769329Y-114015970D01*
X311747151Y-114005480D01*
X311726107Y-113992867D01*
X311706402Y-113978253D01*
X311688223Y-113961777D01*
X311671747Y-113943598D01*
X311657133Y-113923893D01*
X311644520Y-113902849D01*
X311634030Y-113880671D01*
X311625765Y-113857571D01*
X311619804Y-113833773D01*
X311616204Y-113809504D01*
X311615000Y-113785000D01*
X311615000Y-112860000D01*
X311616204Y-112835496D01*
X311619804Y-112811227D01*
X311625765Y-112787429D01*
X311634030Y-112764329D01*
X311644520Y-112742151D01*
X311657133Y-112721107D01*
X311671747Y-112701402D01*
X311688223Y-112683223D01*
X311706402Y-112666747D01*
X311726107Y-112652133D01*
X311747151Y-112639520D01*
X311769329Y-112629030D01*
X311792429Y-112620765D01*
X311816227Y-112614804D01*
X311840496Y-112611204D01*
X311865000Y-112610000D01*
X313115000Y-112610000D01*
X313139504Y-112611204D01*
X313139504Y-112611204D01*
G37*
D12*
X312490000Y-113322500D03*
D11*
G36*
X313139504Y-115586204D02*
X313163773Y-115589804D01*
X313187571Y-115595765D01*
X313210671Y-115604030D01*
X313232849Y-115614520D01*
X313253893Y-115627133D01*
X313273598Y-115641747D01*
X313291777Y-115658223D01*
X313308253Y-115676402D01*
X313322867Y-115696107D01*
X313335480Y-115717151D01*
X313345970Y-115739329D01*
X313354235Y-115762429D01*
X313360196Y-115786227D01*
X313363796Y-115810496D01*
X313365000Y-115835000D01*
X313365000Y-116760000D01*
X313363796Y-116784504D01*
X313360196Y-116808773D01*
X313354235Y-116832571D01*
X313345970Y-116855671D01*
X313335480Y-116877849D01*
X313322867Y-116898893D01*
X313308253Y-116918598D01*
X313291777Y-116936777D01*
X313273598Y-116953253D01*
X313253893Y-116967867D01*
X313232849Y-116980480D01*
X313210671Y-116990970D01*
X313187571Y-116999235D01*
X313163773Y-117005196D01*
X313139504Y-117008796D01*
X313115000Y-117010000D01*
X311865000Y-117010000D01*
X311840496Y-117008796D01*
X311816227Y-117005196D01*
X311792429Y-116999235D01*
X311769329Y-116990970D01*
X311747151Y-116980480D01*
X311726107Y-116967867D01*
X311706402Y-116953253D01*
X311688223Y-116936777D01*
X311671747Y-116918598D01*
X311657133Y-116898893D01*
X311644520Y-116877849D01*
X311634030Y-116855671D01*
X311625765Y-116832571D01*
X311619804Y-116808773D01*
X311616204Y-116784504D01*
X311615000Y-116760000D01*
X311615000Y-115835000D01*
X311616204Y-115810496D01*
X311619804Y-115786227D01*
X311625765Y-115762429D01*
X311634030Y-115739329D01*
X311644520Y-115717151D01*
X311657133Y-115696107D01*
X311671747Y-115676402D01*
X311688223Y-115658223D01*
X311706402Y-115641747D01*
X311726107Y-115627133D01*
X311747151Y-115614520D01*
X311769329Y-115604030D01*
X311792429Y-115595765D01*
X311816227Y-115589804D01*
X311840496Y-115586204D01*
X311865000Y-115585000D01*
X313115000Y-115585000D01*
X313139504Y-115586204D01*
X313139504Y-115586204D01*
G37*
D12*
X312490000Y-116297500D03*
G04 #@! TD*
D11*
G04 #@! TO.C,D67*
G36*
X348869504Y-112641204D02*
X348893773Y-112644804D01*
X348917571Y-112650765D01*
X348940671Y-112659030D01*
X348962849Y-112669520D01*
X348983893Y-112682133D01*
X349003598Y-112696747D01*
X349021777Y-112713223D01*
X349038253Y-112731402D01*
X349052867Y-112751107D01*
X349065480Y-112772151D01*
X349075970Y-112794329D01*
X349084235Y-112817429D01*
X349090196Y-112841227D01*
X349093796Y-112865496D01*
X349095000Y-112890000D01*
X349095000Y-113815000D01*
X349093796Y-113839504D01*
X349090196Y-113863773D01*
X349084235Y-113887571D01*
X349075970Y-113910671D01*
X349065480Y-113932849D01*
X349052867Y-113953893D01*
X349038253Y-113973598D01*
X349021777Y-113991777D01*
X349003598Y-114008253D01*
X348983893Y-114022867D01*
X348962849Y-114035480D01*
X348940671Y-114045970D01*
X348917571Y-114054235D01*
X348893773Y-114060196D01*
X348869504Y-114063796D01*
X348845000Y-114065000D01*
X347595000Y-114065000D01*
X347570496Y-114063796D01*
X347546227Y-114060196D01*
X347522429Y-114054235D01*
X347499329Y-114045970D01*
X347477151Y-114035480D01*
X347456107Y-114022867D01*
X347436402Y-114008253D01*
X347418223Y-113991777D01*
X347401747Y-113973598D01*
X347387133Y-113953893D01*
X347374520Y-113932849D01*
X347364030Y-113910671D01*
X347355765Y-113887571D01*
X347349804Y-113863773D01*
X347346204Y-113839504D01*
X347345000Y-113815000D01*
X347345000Y-112890000D01*
X347346204Y-112865496D01*
X347349804Y-112841227D01*
X347355765Y-112817429D01*
X347364030Y-112794329D01*
X347374520Y-112772151D01*
X347387133Y-112751107D01*
X347401747Y-112731402D01*
X347418223Y-112713223D01*
X347436402Y-112696747D01*
X347456107Y-112682133D01*
X347477151Y-112669520D01*
X347499329Y-112659030D01*
X347522429Y-112650765D01*
X347546227Y-112644804D01*
X347570496Y-112641204D01*
X347595000Y-112640000D01*
X348845000Y-112640000D01*
X348869504Y-112641204D01*
X348869504Y-112641204D01*
G37*
D12*
X348220000Y-113352500D03*
D11*
G36*
X348869504Y-115616204D02*
X348893773Y-115619804D01*
X348917571Y-115625765D01*
X348940671Y-115634030D01*
X348962849Y-115644520D01*
X348983893Y-115657133D01*
X349003598Y-115671747D01*
X349021777Y-115688223D01*
X349038253Y-115706402D01*
X349052867Y-115726107D01*
X349065480Y-115747151D01*
X349075970Y-115769329D01*
X349084235Y-115792429D01*
X349090196Y-115816227D01*
X349093796Y-115840496D01*
X349095000Y-115865000D01*
X349095000Y-116790000D01*
X349093796Y-116814504D01*
X349090196Y-116838773D01*
X349084235Y-116862571D01*
X349075970Y-116885671D01*
X349065480Y-116907849D01*
X349052867Y-116928893D01*
X349038253Y-116948598D01*
X349021777Y-116966777D01*
X349003598Y-116983253D01*
X348983893Y-116997867D01*
X348962849Y-117010480D01*
X348940671Y-117020970D01*
X348917571Y-117029235D01*
X348893773Y-117035196D01*
X348869504Y-117038796D01*
X348845000Y-117040000D01*
X347595000Y-117040000D01*
X347570496Y-117038796D01*
X347546227Y-117035196D01*
X347522429Y-117029235D01*
X347499329Y-117020970D01*
X347477151Y-117010480D01*
X347456107Y-116997867D01*
X347436402Y-116983253D01*
X347418223Y-116966777D01*
X347401747Y-116948598D01*
X347387133Y-116928893D01*
X347374520Y-116907849D01*
X347364030Y-116885671D01*
X347355765Y-116862571D01*
X347349804Y-116838773D01*
X347346204Y-116814504D01*
X347345000Y-116790000D01*
X347345000Y-115865000D01*
X347346204Y-115840496D01*
X347349804Y-115816227D01*
X347355765Y-115792429D01*
X347364030Y-115769329D01*
X347374520Y-115747151D01*
X347387133Y-115726107D01*
X347401747Y-115706402D01*
X347418223Y-115688223D01*
X347436402Y-115671747D01*
X347456107Y-115657133D01*
X347477151Y-115644520D01*
X347499329Y-115634030D01*
X347522429Y-115625765D01*
X347546227Y-115619804D01*
X347570496Y-115616204D01*
X347595000Y-115615000D01*
X348845000Y-115615000D01*
X348869504Y-115616204D01*
X348869504Y-115616204D01*
G37*
D12*
X348220000Y-116327500D03*
G04 #@! TD*
D11*
G04 #@! TO.C,D68*
G36*
X367909504Y-112601204D02*
X367933773Y-112604804D01*
X367957571Y-112610765D01*
X367980671Y-112619030D01*
X368002849Y-112629520D01*
X368023893Y-112642133D01*
X368043598Y-112656747D01*
X368061777Y-112673223D01*
X368078253Y-112691402D01*
X368092867Y-112711107D01*
X368105480Y-112732151D01*
X368115970Y-112754329D01*
X368124235Y-112777429D01*
X368130196Y-112801227D01*
X368133796Y-112825496D01*
X368135000Y-112850000D01*
X368135000Y-113775000D01*
X368133796Y-113799504D01*
X368130196Y-113823773D01*
X368124235Y-113847571D01*
X368115970Y-113870671D01*
X368105480Y-113892849D01*
X368092867Y-113913893D01*
X368078253Y-113933598D01*
X368061777Y-113951777D01*
X368043598Y-113968253D01*
X368023893Y-113982867D01*
X368002849Y-113995480D01*
X367980671Y-114005970D01*
X367957571Y-114014235D01*
X367933773Y-114020196D01*
X367909504Y-114023796D01*
X367885000Y-114025000D01*
X366635000Y-114025000D01*
X366610496Y-114023796D01*
X366586227Y-114020196D01*
X366562429Y-114014235D01*
X366539329Y-114005970D01*
X366517151Y-113995480D01*
X366496107Y-113982867D01*
X366476402Y-113968253D01*
X366458223Y-113951777D01*
X366441747Y-113933598D01*
X366427133Y-113913893D01*
X366414520Y-113892849D01*
X366404030Y-113870671D01*
X366395765Y-113847571D01*
X366389804Y-113823773D01*
X366386204Y-113799504D01*
X366385000Y-113775000D01*
X366385000Y-112850000D01*
X366386204Y-112825496D01*
X366389804Y-112801227D01*
X366395765Y-112777429D01*
X366404030Y-112754329D01*
X366414520Y-112732151D01*
X366427133Y-112711107D01*
X366441747Y-112691402D01*
X366458223Y-112673223D01*
X366476402Y-112656747D01*
X366496107Y-112642133D01*
X366517151Y-112629520D01*
X366539329Y-112619030D01*
X366562429Y-112610765D01*
X366586227Y-112604804D01*
X366610496Y-112601204D01*
X366635000Y-112600000D01*
X367885000Y-112600000D01*
X367909504Y-112601204D01*
X367909504Y-112601204D01*
G37*
D12*
X367260000Y-113312500D03*
D11*
G36*
X367909504Y-115576204D02*
X367933773Y-115579804D01*
X367957571Y-115585765D01*
X367980671Y-115594030D01*
X368002849Y-115604520D01*
X368023893Y-115617133D01*
X368043598Y-115631747D01*
X368061777Y-115648223D01*
X368078253Y-115666402D01*
X368092867Y-115686107D01*
X368105480Y-115707151D01*
X368115970Y-115729329D01*
X368124235Y-115752429D01*
X368130196Y-115776227D01*
X368133796Y-115800496D01*
X368135000Y-115825000D01*
X368135000Y-116750000D01*
X368133796Y-116774504D01*
X368130196Y-116798773D01*
X368124235Y-116822571D01*
X368115970Y-116845671D01*
X368105480Y-116867849D01*
X368092867Y-116888893D01*
X368078253Y-116908598D01*
X368061777Y-116926777D01*
X368043598Y-116943253D01*
X368023893Y-116957867D01*
X368002849Y-116970480D01*
X367980671Y-116980970D01*
X367957571Y-116989235D01*
X367933773Y-116995196D01*
X367909504Y-116998796D01*
X367885000Y-117000000D01*
X366635000Y-117000000D01*
X366610496Y-116998796D01*
X366586227Y-116995196D01*
X366562429Y-116989235D01*
X366539329Y-116980970D01*
X366517151Y-116970480D01*
X366496107Y-116957867D01*
X366476402Y-116943253D01*
X366458223Y-116926777D01*
X366441747Y-116908598D01*
X366427133Y-116888893D01*
X366414520Y-116867849D01*
X366404030Y-116845671D01*
X366395765Y-116822571D01*
X366389804Y-116798773D01*
X366386204Y-116774504D01*
X366385000Y-116750000D01*
X366385000Y-115825000D01*
X366386204Y-115800496D01*
X366389804Y-115776227D01*
X366395765Y-115752429D01*
X366404030Y-115729329D01*
X366414520Y-115707151D01*
X366427133Y-115686107D01*
X366441747Y-115666402D01*
X366458223Y-115648223D01*
X366476402Y-115631747D01*
X366496107Y-115617133D01*
X366517151Y-115604520D01*
X366539329Y-115594030D01*
X366562429Y-115585765D01*
X366586227Y-115579804D01*
X366610496Y-115576204D01*
X366635000Y-115575000D01*
X367885000Y-115575000D01*
X367909504Y-115576204D01*
X367909504Y-115576204D01*
G37*
D12*
X367260000Y-116287500D03*
G04 #@! TD*
D11*
G04 #@! TO.C,D69*
G36*
X386969504Y-112621204D02*
X386993773Y-112624804D01*
X387017571Y-112630765D01*
X387040671Y-112639030D01*
X387062849Y-112649520D01*
X387083893Y-112662133D01*
X387103598Y-112676747D01*
X387121777Y-112693223D01*
X387138253Y-112711402D01*
X387152867Y-112731107D01*
X387165480Y-112752151D01*
X387175970Y-112774329D01*
X387184235Y-112797429D01*
X387190196Y-112821227D01*
X387193796Y-112845496D01*
X387195000Y-112870000D01*
X387195000Y-113795000D01*
X387193796Y-113819504D01*
X387190196Y-113843773D01*
X387184235Y-113867571D01*
X387175970Y-113890671D01*
X387165480Y-113912849D01*
X387152867Y-113933893D01*
X387138253Y-113953598D01*
X387121777Y-113971777D01*
X387103598Y-113988253D01*
X387083893Y-114002867D01*
X387062849Y-114015480D01*
X387040671Y-114025970D01*
X387017571Y-114034235D01*
X386993773Y-114040196D01*
X386969504Y-114043796D01*
X386945000Y-114045000D01*
X385695000Y-114045000D01*
X385670496Y-114043796D01*
X385646227Y-114040196D01*
X385622429Y-114034235D01*
X385599329Y-114025970D01*
X385577151Y-114015480D01*
X385556107Y-114002867D01*
X385536402Y-113988253D01*
X385518223Y-113971777D01*
X385501747Y-113953598D01*
X385487133Y-113933893D01*
X385474520Y-113912849D01*
X385464030Y-113890671D01*
X385455765Y-113867571D01*
X385449804Y-113843773D01*
X385446204Y-113819504D01*
X385445000Y-113795000D01*
X385445000Y-112870000D01*
X385446204Y-112845496D01*
X385449804Y-112821227D01*
X385455765Y-112797429D01*
X385464030Y-112774329D01*
X385474520Y-112752151D01*
X385487133Y-112731107D01*
X385501747Y-112711402D01*
X385518223Y-112693223D01*
X385536402Y-112676747D01*
X385556107Y-112662133D01*
X385577151Y-112649520D01*
X385599329Y-112639030D01*
X385622429Y-112630765D01*
X385646227Y-112624804D01*
X385670496Y-112621204D01*
X385695000Y-112620000D01*
X386945000Y-112620000D01*
X386969504Y-112621204D01*
X386969504Y-112621204D01*
G37*
D12*
X386320000Y-113332500D03*
D11*
G36*
X386969504Y-115596204D02*
X386993773Y-115599804D01*
X387017571Y-115605765D01*
X387040671Y-115614030D01*
X387062849Y-115624520D01*
X387083893Y-115637133D01*
X387103598Y-115651747D01*
X387121777Y-115668223D01*
X387138253Y-115686402D01*
X387152867Y-115706107D01*
X387165480Y-115727151D01*
X387175970Y-115749329D01*
X387184235Y-115772429D01*
X387190196Y-115796227D01*
X387193796Y-115820496D01*
X387195000Y-115845000D01*
X387195000Y-116770000D01*
X387193796Y-116794504D01*
X387190196Y-116818773D01*
X387184235Y-116842571D01*
X387175970Y-116865671D01*
X387165480Y-116887849D01*
X387152867Y-116908893D01*
X387138253Y-116928598D01*
X387121777Y-116946777D01*
X387103598Y-116963253D01*
X387083893Y-116977867D01*
X387062849Y-116990480D01*
X387040671Y-117000970D01*
X387017571Y-117009235D01*
X386993773Y-117015196D01*
X386969504Y-117018796D01*
X386945000Y-117020000D01*
X385695000Y-117020000D01*
X385670496Y-117018796D01*
X385646227Y-117015196D01*
X385622429Y-117009235D01*
X385599329Y-117000970D01*
X385577151Y-116990480D01*
X385556107Y-116977867D01*
X385536402Y-116963253D01*
X385518223Y-116946777D01*
X385501747Y-116928598D01*
X385487133Y-116908893D01*
X385474520Y-116887849D01*
X385464030Y-116865671D01*
X385455765Y-116842571D01*
X385449804Y-116818773D01*
X385446204Y-116794504D01*
X385445000Y-116770000D01*
X385445000Y-115845000D01*
X385446204Y-115820496D01*
X385449804Y-115796227D01*
X385455765Y-115772429D01*
X385464030Y-115749329D01*
X385474520Y-115727151D01*
X385487133Y-115706107D01*
X385501747Y-115686402D01*
X385518223Y-115668223D01*
X385536402Y-115651747D01*
X385556107Y-115637133D01*
X385577151Y-115624520D01*
X385599329Y-115614030D01*
X385622429Y-115605765D01*
X385646227Y-115599804D01*
X385670496Y-115596204D01*
X385695000Y-115595000D01*
X386945000Y-115595000D01*
X386969504Y-115596204D01*
X386969504Y-115596204D01*
G37*
D12*
X386320000Y-116307500D03*
G04 #@! TD*
D11*
G04 #@! TO.C,R_data1*
G36*
X339939982Y-74216204D02*
X339964251Y-74219804D01*
X339988049Y-74225765D01*
X340011149Y-74234030D01*
X340033327Y-74244520D01*
X340054371Y-74257133D01*
X340074076Y-74271747D01*
X340092255Y-74288223D01*
X340108731Y-74306402D01*
X340123345Y-74326107D01*
X340135958Y-74347151D01*
X340146448Y-74369329D01*
X340154713Y-74392429D01*
X340160674Y-74416227D01*
X340164274Y-74440496D01*
X340165478Y-74465000D01*
X340165478Y-75715000D01*
X340164274Y-75739504D01*
X340160674Y-75763773D01*
X340154713Y-75787571D01*
X340146448Y-75810671D01*
X340135958Y-75832849D01*
X340123345Y-75853893D01*
X340108731Y-75873598D01*
X340092255Y-75891777D01*
X340074076Y-75908253D01*
X340054371Y-75922867D01*
X340033327Y-75935480D01*
X340011149Y-75945970D01*
X339988049Y-75954235D01*
X339964251Y-75960196D01*
X339939982Y-75963796D01*
X339915478Y-75965000D01*
X338990478Y-75965000D01*
X338965974Y-75963796D01*
X338941705Y-75960196D01*
X338917907Y-75954235D01*
X338894807Y-75945970D01*
X338872629Y-75935480D01*
X338851585Y-75922867D01*
X338831880Y-75908253D01*
X338813701Y-75891777D01*
X338797225Y-75873598D01*
X338782611Y-75853893D01*
X338769998Y-75832849D01*
X338759508Y-75810671D01*
X338751243Y-75787571D01*
X338745282Y-75763773D01*
X338741682Y-75739504D01*
X338740478Y-75715000D01*
X338740478Y-74465000D01*
X338741682Y-74440496D01*
X338745282Y-74416227D01*
X338751243Y-74392429D01*
X338759508Y-74369329D01*
X338769998Y-74347151D01*
X338782611Y-74326107D01*
X338797225Y-74306402D01*
X338813701Y-74288223D01*
X338831880Y-74271747D01*
X338851585Y-74257133D01*
X338872629Y-74244520D01*
X338894807Y-74234030D01*
X338917907Y-74225765D01*
X338941705Y-74219804D01*
X338965974Y-74216204D01*
X338990478Y-74215000D01*
X339915478Y-74215000D01*
X339939982Y-74216204D01*
X339939982Y-74216204D01*
G37*
D12*
X339452978Y-75090000D03*
D11*
G36*
X342914982Y-74216204D02*
X342939251Y-74219804D01*
X342963049Y-74225765D01*
X342986149Y-74234030D01*
X343008327Y-74244520D01*
X343029371Y-74257133D01*
X343049076Y-74271747D01*
X343067255Y-74288223D01*
X343083731Y-74306402D01*
X343098345Y-74326107D01*
X343110958Y-74347151D01*
X343121448Y-74369329D01*
X343129713Y-74392429D01*
X343135674Y-74416227D01*
X343139274Y-74440496D01*
X343140478Y-74465000D01*
X343140478Y-75715000D01*
X343139274Y-75739504D01*
X343135674Y-75763773D01*
X343129713Y-75787571D01*
X343121448Y-75810671D01*
X343110958Y-75832849D01*
X343098345Y-75853893D01*
X343083731Y-75873598D01*
X343067255Y-75891777D01*
X343049076Y-75908253D01*
X343029371Y-75922867D01*
X343008327Y-75935480D01*
X342986149Y-75945970D01*
X342963049Y-75954235D01*
X342939251Y-75960196D01*
X342914982Y-75963796D01*
X342890478Y-75965000D01*
X341965478Y-75965000D01*
X341940974Y-75963796D01*
X341916705Y-75960196D01*
X341892907Y-75954235D01*
X341869807Y-75945970D01*
X341847629Y-75935480D01*
X341826585Y-75922867D01*
X341806880Y-75908253D01*
X341788701Y-75891777D01*
X341772225Y-75873598D01*
X341757611Y-75853893D01*
X341744998Y-75832849D01*
X341734508Y-75810671D01*
X341726243Y-75787571D01*
X341720282Y-75763773D01*
X341716682Y-75739504D01*
X341715478Y-75715000D01*
X341715478Y-74465000D01*
X341716682Y-74440496D01*
X341720282Y-74416227D01*
X341726243Y-74392429D01*
X341734508Y-74369329D01*
X341744998Y-74347151D01*
X341757611Y-74326107D01*
X341772225Y-74306402D01*
X341788701Y-74288223D01*
X341806880Y-74271747D01*
X341826585Y-74257133D01*
X341847629Y-74244520D01*
X341869807Y-74234030D01*
X341892907Y-74225765D01*
X341916705Y-74219804D01*
X341940974Y-74216204D01*
X341965478Y-74215000D01*
X342890478Y-74215000D01*
X342914982Y-74216204D01*
X342914982Y-74216204D01*
G37*
D12*
X342427978Y-75090000D03*
G04 #@! TD*
D11*
G04 #@! TO.C,R_xdata1*
G36*
X339919504Y-84896204D02*
X339943773Y-84899804D01*
X339967571Y-84905765D01*
X339990671Y-84914030D01*
X340012849Y-84924520D01*
X340033893Y-84937133D01*
X340053598Y-84951747D01*
X340071777Y-84968223D01*
X340088253Y-84986402D01*
X340102867Y-85006107D01*
X340115480Y-85027151D01*
X340125970Y-85049329D01*
X340134235Y-85072429D01*
X340140196Y-85096227D01*
X340143796Y-85120496D01*
X340145000Y-85145000D01*
X340145000Y-86395000D01*
X340143796Y-86419504D01*
X340140196Y-86443773D01*
X340134235Y-86467571D01*
X340125970Y-86490671D01*
X340115480Y-86512849D01*
X340102867Y-86533893D01*
X340088253Y-86553598D01*
X340071777Y-86571777D01*
X340053598Y-86588253D01*
X340033893Y-86602867D01*
X340012849Y-86615480D01*
X339990671Y-86625970D01*
X339967571Y-86634235D01*
X339943773Y-86640196D01*
X339919504Y-86643796D01*
X339895000Y-86645000D01*
X338970000Y-86645000D01*
X338945496Y-86643796D01*
X338921227Y-86640196D01*
X338897429Y-86634235D01*
X338874329Y-86625970D01*
X338852151Y-86615480D01*
X338831107Y-86602867D01*
X338811402Y-86588253D01*
X338793223Y-86571777D01*
X338776747Y-86553598D01*
X338762133Y-86533893D01*
X338749520Y-86512849D01*
X338739030Y-86490671D01*
X338730765Y-86467571D01*
X338724804Y-86443773D01*
X338721204Y-86419504D01*
X338720000Y-86395000D01*
X338720000Y-85145000D01*
X338721204Y-85120496D01*
X338724804Y-85096227D01*
X338730765Y-85072429D01*
X338739030Y-85049329D01*
X338749520Y-85027151D01*
X338762133Y-85006107D01*
X338776747Y-84986402D01*
X338793223Y-84968223D01*
X338811402Y-84951747D01*
X338831107Y-84937133D01*
X338852151Y-84924520D01*
X338874329Y-84914030D01*
X338897429Y-84905765D01*
X338921227Y-84899804D01*
X338945496Y-84896204D01*
X338970000Y-84895000D01*
X339895000Y-84895000D01*
X339919504Y-84896204D01*
X339919504Y-84896204D01*
G37*
D12*
X339432500Y-85770000D03*
D11*
G36*
X342894504Y-84896204D02*
X342918773Y-84899804D01*
X342942571Y-84905765D01*
X342965671Y-84914030D01*
X342987849Y-84924520D01*
X343008893Y-84937133D01*
X343028598Y-84951747D01*
X343046777Y-84968223D01*
X343063253Y-84986402D01*
X343077867Y-85006107D01*
X343090480Y-85027151D01*
X343100970Y-85049329D01*
X343109235Y-85072429D01*
X343115196Y-85096227D01*
X343118796Y-85120496D01*
X343120000Y-85145000D01*
X343120000Y-86395000D01*
X343118796Y-86419504D01*
X343115196Y-86443773D01*
X343109235Y-86467571D01*
X343100970Y-86490671D01*
X343090480Y-86512849D01*
X343077867Y-86533893D01*
X343063253Y-86553598D01*
X343046777Y-86571777D01*
X343028598Y-86588253D01*
X343008893Y-86602867D01*
X342987849Y-86615480D01*
X342965671Y-86625970D01*
X342942571Y-86634235D01*
X342918773Y-86640196D01*
X342894504Y-86643796D01*
X342870000Y-86645000D01*
X341945000Y-86645000D01*
X341920496Y-86643796D01*
X341896227Y-86640196D01*
X341872429Y-86634235D01*
X341849329Y-86625970D01*
X341827151Y-86615480D01*
X341806107Y-86602867D01*
X341786402Y-86588253D01*
X341768223Y-86571777D01*
X341751747Y-86553598D01*
X341737133Y-86533893D01*
X341724520Y-86512849D01*
X341714030Y-86490671D01*
X341705765Y-86467571D01*
X341699804Y-86443773D01*
X341696204Y-86419504D01*
X341695000Y-86395000D01*
X341695000Y-85145000D01*
X341696204Y-85120496D01*
X341699804Y-85096227D01*
X341705765Y-85072429D01*
X341714030Y-85049329D01*
X341724520Y-85027151D01*
X341737133Y-85006107D01*
X341751747Y-84986402D01*
X341768223Y-84968223D01*
X341786402Y-84951747D01*
X341806107Y-84937133D01*
X341827151Y-84924520D01*
X341849329Y-84914030D01*
X341872429Y-84905765D01*
X341896227Y-84899804D01*
X341920496Y-84896204D01*
X341945000Y-84895000D01*
X342870000Y-84895000D01*
X342894504Y-84896204D01*
X342894504Y-84896204D01*
G37*
D12*
X342407500Y-85770000D03*
G04 #@! TD*
D10*
G04 #@! TO.C,SW62*
X347592750Y-102830000D03*
X333622750Y-105370000D03*
G04 #@! TD*
G04 #@! TO.C,SW67*
X349974000Y-121880000D03*
X336004000Y-124420000D03*
G04 #@! TD*
G04 #@! TO.C,SW68*
X369024000Y-121880000D03*
X355054000Y-124420000D03*
G04 #@! TD*
G04 #@! TO.C,SW45*
X349975000Y-64730000D03*
X336005000Y-67270000D03*
G04 #@! TD*
G04 #@! TO.C,SW46*
X369025000Y-64730000D03*
X355055000Y-67270000D03*
G04 #@! TD*
G04 #@! TO.C,SW47*
X388075000Y-64730000D03*
X374105000Y-67270000D03*
G04 #@! TD*
G04 #@! TO.C,SW58*
X269012000Y-102830000D03*
X255042000Y-105370000D03*
G04 #@! TD*
G04 #@! TO.C,SW59*
X288062000Y-102830000D03*
X274092000Y-105370000D03*
G04 #@! TD*
G04 #@! TO.C,SW35*
X302350000Y-45680000D03*
X288380000Y-48220000D03*
G04 #@! TD*
G04 #@! TO.C,SW38*
X359500000Y-45680000D03*
X345530000Y-48220000D03*
G04 #@! TD*
G04 #@! TO.C,SW39*
X235675000Y-64730000D03*
X221705000Y-67270000D03*
G04 #@! TD*
G04 #@! TO.C,SW36*
X321400000Y-45680000D03*
X307430000Y-48220000D03*
G04 #@! TD*
G04 #@! TO.C,SW64*
X240437000Y-121880000D03*
X226467000Y-124420000D03*
G04 #@! TD*
G04 #@! TO.C,SW65*
X276156250Y-121880000D03*
X262186250Y-124420000D03*
G04 #@! TD*
G04 #@! TO.C,SW60*
X307112000Y-102830000D03*
X293142000Y-105370000D03*
G04 #@! TD*
G04 #@! TO.C,SW61*
X326162000Y-102830000D03*
X312192000Y-105370000D03*
G04 #@! TD*
G04 #@! TO.C,SW41*
X273775000Y-64730000D03*
X259805000Y-67270000D03*
G04 #@! TD*
G04 #@! TO.C,SW63*
X369024000Y-102830000D03*
X355054000Y-105370000D03*
G04 #@! TD*
G04 #@! TO.C,SW44*
X330925000Y-64730000D03*
X316955000Y-67270000D03*
G04 #@! TD*
G04 #@! TO.C,SW37*
X340450000Y-45680000D03*
X326480000Y-48220000D03*
G04 #@! TD*
G04 #@! TO.C,SW43*
X311875000Y-64730000D03*
X297905000Y-67270000D03*
G04 #@! TD*
G04 #@! TO.C,SW31*
X226150000Y-45680000D03*
X212180000Y-48220000D03*
G04 #@! TD*
G04 #@! TO.C,SW40*
X254725000Y-64730000D03*
X240755000Y-67270000D03*
G04 #@! TD*
G04 #@! TO.C,SW42*
X292825000Y-64730000D03*
X278855000Y-67270000D03*
G04 #@! TD*
G04 #@! TO.C,SW32*
X245200000Y-45680000D03*
X231230000Y-48220000D03*
G04 #@! TD*
G04 #@! TO.C,SW33*
X264250000Y-45680000D03*
X250280000Y-48220000D03*
G04 #@! TD*
G04 #@! TO.C,SW34*
X283300000Y-45680000D03*
X269330000Y-48220000D03*
G04 #@! TD*
G04 #@! TO.C,SW57*
X249962000Y-102830000D03*
X235992000Y-105370000D03*
G04 #@! TD*
G04 #@! TO.C,SW48*
X240432000Y-83780000D03*
X226462000Y-86320000D03*
G04 #@! TD*
G04 #@! TO.C,SW53*
X335687000Y-83780000D03*
X321717000Y-86320000D03*
G04 #@! TD*
G04 #@! TO.C,SW69*
X388075000Y-121880000D03*
X374105000Y-124420000D03*
G04 #@! TD*
G04 #@! TO.C,SW49*
X259487000Y-83780000D03*
X245517000Y-86320000D03*
G04 #@! TD*
G04 #@! TO.C,SW50*
X278537000Y-83780000D03*
X264567000Y-86320000D03*
G04 #@! TD*
G04 #@! TO.C,SW55*
X388075000Y-83780000D03*
X374105000Y-86320000D03*
G04 #@! TD*
M02*
