G04 #@! TF.GenerationSoftware,KiCad,Pcbnew,(5.0.0-3-g5ebb6b6)*
G04 #@! TF.CreationDate,2018-10-13T13:11:11+09:00*
G04 #@! TF.ProjectId,pakbd,70616B62642E6B696361645F70636200,1*
G04 #@! TF.SameCoordinates,Original*
G04 #@! TF.FileFunction,Legend,Top*
G04 #@! TF.FilePolarity,Positive*
%FSLAX46Y46*%
G04 Gerber Fmt 4.6, Leading zero omitted, Abs format (unit mm)*
G04 Created by KiCad (PCBNEW (5.0.0-3-g5ebb6b6)) date *
%MOMM*%
%LPD*%
G01*
G04 APERTURE LIST*
%ADD10C,0.150000*%
%ADD11C,2.160000*%
%ADD12C,4.400000*%
%ADD13C,3.400000*%
%ADD14R,9.625000X1.400000*%
%ADD15R,28.710000X1.400000*%
%ADD16R,16.900000X1.400000*%
%ADD17C,3.600000*%
%ADD18C,1.797000*%
%ADD19C,2.000000*%
%ADD20R,2.000000X2.000000*%
%ADD21C,1.600000*%
%ADD22O,2.700000X1.900000*%
G04 APERTURE END LIST*
D10*
G04 #@! TO.C,U1*
X357990000Y-109840000D02*
X357990000Y-92060000D01*
X388470000Y-109840000D02*
X357990000Y-109840000D01*
X388470000Y-104760000D02*
X388470000Y-109840000D01*
X391010000Y-104760000D02*
X388470000Y-104760000D01*
X391010000Y-97140000D02*
X391010000Y-104760000D01*
X388470000Y-97140000D02*
X391010000Y-97140000D01*
X388470000Y-92060000D02*
X388470000Y-97140000D01*
X388470000Y-92060000D02*
X357990000Y-92060000D01*
G04 #@! TO.C,SW54*
X352450726Y-76818761D02*
X352593583Y-76866380D01*
X352831678Y-76866380D01*
X352926916Y-76818761D01*
X352974535Y-76771142D01*
X353022154Y-76675904D01*
X353022154Y-76580666D01*
X352974535Y-76485428D01*
X352926916Y-76437809D01*
X352831678Y-76390190D01*
X352641202Y-76342571D01*
X352545964Y-76294952D01*
X352498345Y-76247333D01*
X352450726Y-76152095D01*
X352450726Y-76056857D01*
X352498345Y-75961619D01*
X352545964Y-75914000D01*
X352641202Y-75866380D01*
X352879297Y-75866380D01*
X353022154Y-75914000D01*
X353355488Y-75866380D02*
X353593583Y-76866380D01*
X353784059Y-76152095D01*
X353974535Y-76866380D01*
X354212630Y-75866380D01*
X355069773Y-75866380D02*
X354593583Y-75866380D01*
X354545964Y-76342571D01*
X354593583Y-76294952D01*
X354688821Y-76247333D01*
X354926916Y-76247333D01*
X355022154Y-76294952D01*
X355069773Y-76342571D01*
X355117392Y-76437809D01*
X355117392Y-76675904D01*
X355069773Y-76771142D01*
X355022154Y-76818761D01*
X354926916Y-76866380D01*
X354688821Y-76866380D01*
X354593583Y-76818761D01*
X354545964Y-76771142D01*
X355974535Y-76199714D02*
X355974535Y-76866380D01*
X355736440Y-75818761D02*
X355498345Y-76533047D01*
X356117392Y-76533047D01*
G04 #@! TO.C,SW51*
X288157476Y-76818761D02*
X288300333Y-76866380D01*
X288538428Y-76866380D01*
X288633666Y-76818761D01*
X288681285Y-76771142D01*
X288728904Y-76675904D01*
X288728904Y-76580666D01*
X288681285Y-76485428D01*
X288633666Y-76437809D01*
X288538428Y-76390190D01*
X288347952Y-76342571D01*
X288252714Y-76294952D01*
X288205095Y-76247333D01*
X288157476Y-76152095D01*
X288157476Y-76056857D01*
X288205095Y-75961619D01*
X288252714Y-75914000D01*
X288347952Y-75866380D01*
X288586047Y-75866380D01*
X288728904Y-75914000D01*
X289062238Y-75866380D02*
X289300333Y-76866380D01*
X289490809Y-76152095D01*
X289681285Y-76866380D01*
X289919380Y-75866380D01*
X290776523Y-75866380D02*
X290300333Y-75866380D01*
X290252714Y-76342571D01*
X290300333Y-76294952D01*
X290395571Y-76247333D01*
X290633666Y-76247333D01*
X290728904Y-76294952D01*
X290776523Y-76342571D01*
X290824142Y-76437809D01*
X290824142Y-76675904D01*
X290776523Y-76771142D01*
X290728904Y-76818761D01*
X290633666Y-76866380D01*
X290395571Y-76866380D01*
X290300333Y-76818761D01*
X290252714Y-76771142D01*
X291776523Y-76866380D02*
X291205095Y-76866380D01*
X291490809Y-76866380D02*
X291490809Y-75866380D01*
X291395571Y-76009238D01*
X291300333Y-76104476D01*
X291205095Y-76152095D01*
G04 #@! TO.C,SW52*
X307207476Y-76818761D02*
X307350333Y-76866380D01*
X307588428Y-76866380D01*
X307683666Y-76818761D01*
X307731285Y-76771142D01*
X307778904Y-76675904D01*
X307778904Y-76580666D01*
X307731285Y-76485428D01*
X307683666Y-76437809D01*
X307588428Y-76390190D01*
X307397952Y-76342571D01*
X307302714Y-76294952D01*
X307255095Y-76247333D01*
X307207476Y-76152095D01*
X307207476Y-76056857D01*
X307255095Y-75961619D01*
X307302714Y-75914000D01*
X307397952Y-75866380D01*
X307636047Y-75866380D01*
X307778904Y-75914000D01*
X308112238Y-75866380D02*
X308350333Y-76866380D01*
X308540809Y-76152095D01*
X308731285Y-76866380D01*
X308969380Y-75866380D01*
X309826523Y-75866380D02*
X309350333Y-75866380D01*
X309302714Y-76342571D01*
X309350333Y-76294952D01*
X309445571Y-76247333D01*
X309683666Y-76247333D01*
X309778904Y-76294952D01*
X309826523Y-76342571D01*
X309874142Y-76437809D01*
X309874142Y-76675904D01*
X309826523Y-76771142D01*
X309778904Y-76818761D01*
X309683666Y-76866380D01*
X309445571Y-76866380D01*
X309350333Y-76818761D01*
X309302714Y-76771142D01*
X310255095Y-75961619D02*
X310302714Y-75914000D01*
X310397952Y-75866380D01*
X310636047Y-75866380D01*
X310731285Y-75914000D01*
X310778904Y-75961619D01*
X310826523Y-76056857D01*
X310826523Y-76152095D01*
X310778904Y-76294952D01*
X310207476Y-76866380D01*
X310826523Y-76866380D01*
G04 #@! TO.C,SW56*
X221482476Y-95868761D02*
X221625333Y-95916380D01*
X221863428Y-95916380D01*
X221958666Y-95868761D01*
X222006285Y-95821142D01*
X222053904Y-95725904D01*
X222053904Y-95630666D01*
X222006285Y-95535428D01*
X221958666Y-95487809D01*
X221863428Y-95440190D01*
X221672952Y-95392571D01*
X221577714Y-95344952D01*
X221530095Y-95297333D01*
X221482476Y-95202095D01*
X221482476Y-95106857D01*
X221530095Y-95011619D01*
X221577714Y-94964000D01*
X221672952Y-94916380D01*
X221911047Y-94916380D01*
X222053904Y-94964000D01*
X222387238Y-94916380D02*
X222625333Y-95916380D01*
X222815809Y-95202095D01*
X223006285Y-95916380D01*
X223244380Y-94916380D01*
X224101523Y-94916380D02*
X223625333Y-94916380D01*
X223577714Y-95392571D01*
X223625333Y-95344952D01*
X223720571Y-95297333D01*
X223958666Y-95297333D01*
X224053904Y-95344952D01*
X224101523Y-95392571D01*
X224149142Y-95487809D01*
X224149142Y-95725904D01*
X224101523Y-95821142D01*
X224053904Y-95868761D01*
X223958666Y-95916380D01*
X223720571Y-95916380D01*
X223625333Y-95868761D01*
X223577714Y-95821142D01*
X225006285Y-94916380D02*
X224815809Y-94916380D01*
X224720571Y-94964000D01*
X224672952Y-95011619D01*
X224577714Y-95154476D01*
X224530095Y-95344952D01*
X224530095Y-95725904D01*
X224577714Y-95821142D01*
X224625333Y-95868761D01*
X224720571Y-95916380D01*
X224911047Y-95916380D01*
X225006285Y-95868761D01*
X225053904Y-95821142D01*
X225101523Y-95725904D01*
X225101523Y-95487809D01*
X225053904Y-95392571D01*
X225006285Y-95344952D01*
X224911047Y-95297333D01*
X224720571Y-95297333D01*
X224625333Y-95344952D01*
X224577714Y-95392571D01*
X224530095Y-95487809D01*
G04 #@! TO.C,SW66*
X304826726Y-115172761D02*
X304969583Y-115220380D01*
X305207678Y-115220380D01*
X305302916Y-115172761D01*
X305350535Y-115125142D01*
X305398154Y-115029904D01*
X305398154Y-114934666D01*
X305350535Y-114839428D01*
X305302916Y-114791809D01*
X305207678Y-114744190D01*
X305017202Y-114696571D01*
X304921964Y-114648952D01*
X304874345Y-114601333D01*
X304826726Y-114506095D01*
X304826726Y-114410857D01*
X304874345Y-114315619D01*
X304921964Y-114268000D01*
X305017202Y-114220380D01*
X305255297Y-114220380D01*
X305398154Y-114268000D01*
X305731488Y-114220380D02*
X305969583Y-115220380D01*
X306160059Y-114506095D01*
X306350535Y-115220380D01*
X306588630Y-114220380D01*
X307398154Y-114220380D02*
X307207678Y-114220380D01*
X307112440Y-114268000D01*
X307064821Y-114315619D01*
X306969583Y-114458476D01*
X306921964Y-114648952D01*
X306921964Y-115029904D01*
X306969583Y-115125142D01*
X307017202Y-115172761D01*
X307112440Y-115220380D01*
X307302916Y-115220380D01*
X307398154Y-115172761D01*
X307445773Y-115125142D01*
X307493392Y-115029904D01*
X307493392Y-114791809D01*
X307445773Y-114696571D01*
X307398154Y-114648952D01*
X307302916Y-114601333D01*
X307112440Y-114601333D01*
X307017202Y-114648952D01*
X306969583Y-114696571D01*
X306921964Y-114791809D01*
X308350535Y-114220380D02*
X308160059Y-114220380D01*
X308064821Y-114268000D01*
X308017202Y-114315619D01*
X307921964Y-114458476D01*
X307874345Y-114648952D01*
X307874345Y-115029904D01*
X307921964Y-115125142D01*
X307969583Y-115172761D01*
X308064821Y-115220380D01*
X308255297Y-115220380D01*
X308350535Y-115172761D01*
X308398154Y-115125142D01*
X308445773Y-115029904D01*
X308445773Y-114791809D01*
X308398154Y-114696571D01*
X308350535Y-114648952D01*
X308255297Y-114601333D01*
X308064821Y-114601333D01*
X307969583Y-114648952D01*
X307921964Y-114696571D01*
X307874345Y-114791809D01*
G04 #@! TO.C,SW62*
X338163226Y-96122761D02*
X338306083Y-96170380D01*
X338544178Y-96170380D01*
X338639416Y-96122761D01*
X338687035Y-96075142D01*
X338734654Y-95979904D01*
X338734654Y-95884666D01*
X338687035Y-95789428D01*
X338639416Y-95741809D01*
X338544178Y-95694190D01*
X338353702Y-95646571D01*
X338258464Y-95598952D01*
X338210845Y-95551333D01*
X338163226Y-95456095D01*
X338163226Y-95360857D01*
X338210845Y-95265619D01*
X338258464Y-95218000D01*
X338353702Y-95170380D01*
X338591797Y-95170380D01*
X338734654Y-95218000D01*
X339067988Y-95170380D02*
X339306083Y-96170380D01*
X339496559Y-95456095D01*
X339687035Y-96170380D01*
X339925130Y-95170380D01*
X340734654Y-95170380D02*
X340544178Y-95170380D01*
X340448940Y-95218000D01*
X340401321Y-95265619D01*
X340306083Y-95408476D01*
X340258464Y-95598952D01*
X340258464Y-95979904D01*
X340306083Y-96075142D01*
X340353702Y-96122761D01*
X340448940Y-96170380D01*
X340639416Y-96170380D01*
X340734654Y-96122761D01*
X340782273Y-96075142D01*
X340829892Y-95979904D01*
X340829892Y-95741809D01*
X340782273Y-95646571D01*
X340734654Y-95598952D01*
X340639416Y-95551333D01*
X340448940Y-95551333D01*
X340353702Y-95598952D01*
X340306083Y-95646571D01*
X340258464Y-95741809D01*
X341210845Y-95265619D02*
X341258464Y-95218000D01*
X341353702Y-95170380D01*
X341591797Y-95170380D01*
X341687035Y-95218000D01*
X341734654Y-95265619D01*
X341782273Y-95360857D01*
X341782273Y-95456095D01*
X341734654Y-95598952D01*
X341163226Y-96170380D01*
X341782273Y-96170380D01*
G04 #@! TO.C,SW67*
X340544476Y-114918761D02*
X340687333Y-114966380D01*
X340925428Y-114966380D01*
X341020666Y-114918761D01*
X341068285Y-114871142D01*
X341115904Y-114775904D01*
X341115904Y-114680666D01*
X341068285Y-114585428D01*
X341020666Y-114537809D01*
X340925428Y-114490190D01*
X340734952Y-114442571D01*
X340639714Y-114394952D01*
X340592095Y-114347333D01*
X340544476Y-114252095D01*
X340544476Y-114156857D01*
X340592095Y-114061619D01*
X340639714Y-114014000D01*
X340734952Y-113966380D01*
X340973047Y-113966380D01*
X341115904Y-114014000D01*
X341449238Y-113966380D02*
X341687333Y-114966380D01*
X341877809Y-114252095D01*
X342068285Y-114966380D01*
X342306380Y-113966380D01*
X343115904Y-113966380D02*
X342925428Y-113966380D01*
X342830190Y-114014000D01*
X342782571Y-114061619D01*
X342687333Y-114204476D01*
X342639714Y-114394952D01*
X342639714Y-114775904D01*
X342687333Y-114871142D01*
X342734952Y-114918761D01*
X342830190Y-114966380D01*
X343020666Y-114966380D01*
X343115904Y-114918761D01*
X343163523Y-114871142D01*
X343211142Y-114775904D01*
X343211142Y-114537809D01*
X343163523Y-114442571D01*
X343115904Y-114394952D01*
X343020666Y-114347333D01*
X342830190Y-114347333D01*
X342734952Y-114394952D01*
X342687333Y-114442571D01*
X342639714Y-114537809D01*
X343544476Y-113966380D02*
X344211142Y-113966380D01*
X343782571Y-114966380D01*
G04 #@! TO.C,SW68*
X359594476Y-114918761D02*
X359737333Y-114966380D01*
X359975428Y-114966380D01*
X360070666Y-114918761D01*
X360118285Y-114871142D01*
X360165904Y-114775904D01*
X360165904Y-114680666D01*
X360118285Y-114585428D01*
X360070666Y-114537809D01*
X359975428Y-114490190D01*
X359784952Y-114442571D01*
X359689714Y-114394952D01*
X359642095Y-114347333D01*
X359594476Y-114252095D01*
X359594476Y-114156857D01*
X359642095Y-114061619D01*
X359689714Y-114014000D01*
X359784952Y-113966380D01*
X360023047Y-113966380D01*
X360165904Y-114014000D01*
X360499238Y-113966380D02*
X360737333Y-114966380D01*
X360927809Y-114252095D01*
X361118285Y-114966380D01*
X361356380Y-113966380D01*
X362165904Y-113966380D02*
X361975428Y-113966380D01*
X361880190Y-114014000D01*
X361832571Y-114061619D01*
X361737333Y-114204476D01*
X361689714Y-114394952D01*
X361689714Y-114775904D01*
X361737333Y-114871142D01*
X361784952Y-114918761D01*
X361880190Y-114966380D01*
X362070666Y-114966380D01*
X362165904Y-114918761D01*
X362213523Y-114871142D01*
X362261142Y-114775904D01*
X362261142Y-114537809D01*
X362213523Y-114442571D01*
X362165904Y-114394952D01*
X362070666Y-114347333D01*
X361880190Y-114347333D01*
X361784952Y-114394952D01*
X361737333Y-114442571D01*
X361689714Y-114537809D01*
X362832571Y-114394952D02*
X362737333Y-114347333D01*
X362689714Y-114299714D01*
X362642095Y-114204476D01*
X362642095Y-114156857D01*
X362689714Y-114061619D01*
X362737333Y-114014000D01*
X362832571Y-113966380D01*
X363023047Y-113966380D01*
X363118285Y-114014000D01*
X363165904Y-114061619D01*
X363213523Y-114156857D01*
X363213523Y-114204476D01*
X363165904Y-114299714D01*
X363118285Y-114347333D01*
X363023047Y-114394952D01*
X362832571Y-114394952D01*
X362737333Y-114442571D01*
X362689714Y-114490190D01*
X362642095Y-114585428D01*
X362642095Y-114775904D01*
X362689714Y-114871142D01*
X362737333Y-114918761D01*
X362832571Y-114966380D01*
X363023047Y-114966380D01*
X363118285Y-114918761D01*
X363165904Y-114871142D01*
X363213523Y-114775904D01*
X363213523Y-114585428D01*
X363165904Y-114490190D01*
X363118285Y-114442571D01*
X363023047Y-114394952D01*
G04 #@! TO.C,SW45*
X340545476Y-57768761D02*
X340688333Y-57816380D01*
X340926428Y-57816380D01*
X341021666Y-57768761D01*
X341069285Y-57721142D01*
X341116904Y-57625904D01*
X341116904Y-57530666D01*
X341069285Y-57435428D01*
X341021666Y-57387809D01*
X340926428Y-57340190D01*
X340735952Y-57292571D01*
X340640714Y-57244952D01*
X340593095Y-57197333D01*
X340545476Y-57102095D01*
X340545476Y-57006857D01*
X340593095Y-56911619D01*
X340640714Y-56864000D01*
X340735952Y-56816380D01*
X340974047Y-56816380D01*
X341116904Y-56864000D01*
X341450238Y-56816380D02*
X341688333Y-57816380D01*
X341878809Y-57102095D01*
X342069285Y-57816380D01*
X342307380Y-56816380D01*
X343116904Y-57149714D02*
X343116904Y-57816380D01*
X342878809Y-56768761D02*
X342640714Y-57483047D01*
X343259761Y-57483047D01*
X344116904Y-56816380D02*
X343640714Y-56816380D01*
X343593095Y-57292571D01*
X343640714Y-57244952D01*
X343735952Y-57197333D01*
X343974047Y-57197333D01*
X344069285Y-57244952D01*
X344116904Y-57292571D01*
X344164523Y-57387809D01*
X344164523Y-57625904D01*
X344116904Y-57721142D01*
X344069285Y-57768761D01*
X343974047Y-57816380D01*
X343735952Y-57816380D01*
X343640714Y-57768761D01*
X343593095Y-57721142D01*
G04 #@! TO.C,SW46*
X359595476Y-57768761D02*
X359738333Y-57816380D01*
X359976428Y-57816380D01*
X360071666Y-57768761D01*
X360119285Y-57721142D01*
X360166904Y-57625904D01*
X360166904Y-57530666D01*
X360119285Y-57435428D01*
X360071666Y-57387809D01*
X359976428Y-57340190D01*
X359785952Y-57292571D01*
X359690714Y-57244952D01*
X359643095Y-57197333D01*
X359595476Y-57102095D01*
X359595476Y-57006857D01*
X359643095Y-56911619D01*
X359690714Y-56864000D01*
X359785952Y-56816380D01*
X360024047Y-56816380D01*
X360166904Y-56864000D01*
X360500238Y-56816380D02*
X360738333Y-57816380D01*
X360928809Y-57102095D01*
X361119285Y-57816380D01*
X361357380Y-56816380D01*
X362166904Y-57149714D02*
X362166904Y-57816380D01*
X361928809Y-56768761D02*
X361690714Y-57483047D01*
X362309761Y-57483047D01*
X363119285Y-56816380D02*
X362928809Y-56816380D01*
X362833571Y-56864000D01*
X362785952Y-56911619D01*
X362690714Y-57054476D01*
X362643095Y-57244952D01*
X362643095Y-57625904D01*
X362690714Y-57721142D01*
X362738333Y-57768761D01*
X362833571Y-57816380D01*
X363024047Y-57816380D01*
X363119285Y-57768761D01*
X363166904Y-57721142D01*
X363214523Y-57625904D01*
X363214523Y-57387809D01*
X363166904Y-57292571D01*
X363119285Y-57244952D01*
X363024047Y-57197333D01*
X362833571Y-57197333D01*
X362738333Y-57244952D01*
X362690714Y-57292571D01*
X362643095Y-57387809D01*
G04 #@! TO.C,SW47*
X378645476Y-57768761D02*
X378788333Y-57816380D01*
X379026428Y-57816380D01*
X379121666Y-57768761D01*
X379169285Y-57721142D01*
X379216904Y-57625904D01*
X379216904Y-57530666D01*
X379169285Y-57435428D01*
X379121666Y-57387809D01*
X379026428Y-57340190D01*
X378835952Y-57292571D01*
X378740714Y-57244952D01*
X378693095Y-57197333D01*
X378645476Y-57102095D01*
X378645476Y-57006857D01*
X378693095Y-56911619D01*
X378740714Y-56864000D01*
X378835952Y-56816380D01*
X379074047Y-56816380D01*
X379216904Y-56864000D01*
X379550238Y-56816380D02*
X379788333Y-57816380D01*
X379978809Y-57102095D01*
X380169285Y-57816380D01*
X380407380Y-56816380D01*
X381216904Y-57149714D02*
X381216904Y-57816380D01*
X380978809Y-56768761D02*
X380740714Y-57483047D01*
X381359761Y-57483047D01*
X381645476Y-56816380D02*
X382312142Y-56816380D01*
X381883571Y-57816380D01*
G04 #@! TO.C,SW58*
X259582476Y-95868761D02*
X259725333Y-95916380D01*
X259963428Y-95916380D01*
X260058666Y-95868761D01*
X260106285Y-95821142D01*
X260153904Y-95725904D01*
X260153904Y-95630666D01*
X260106285Y-95535428D01*
X260058666Y-95487809D01*
X259963428Y-95440190D01*
X259772952Y-95392571D01*
X259677714Y-95344952D01*
X259630095Y-95297333D01*
X259582476Y-95202095D01*
X259582476Y-95106857D01*
X259630095Y-95011619D01*
X259677714Y-94964000D01*
X259772952Y-94916380D01*
X260011047Y-94916380D01*
X260153904Y-94964000D01*
X260487238Y-94916380D02*
X260725333Y-95916380D01*
X260915809Y-95202095D01*
X261106285Y-95916380D01*
X261344380Y-94916380D01*
X262201523Y-94916380D02*
X261725333Y-94916380D01*
X261677714Y-95392571D01*
X261725333Y-95344952D01*
X261820571Y-95297333D01*
X262058666Y-95297333D01*
X262153904Y-95344952D01*
X262201523Y-95392571D01*
X262249142Y-95487809D01*
X262249142Y-95725904D01*
X262201523Y-95821142D01*
X262153904Y-95868761D01*
X262058666Y-95916380D01*
X261820571Y-95916380D01*
X261725333Y-95868761D01*
X261677714Y-95821142D01*
X262820571Y-95344952D02*
X262725333Y-95297333D01*
X262677714Y-95249714D01*
X262630095Y-95154476D01*
X262630095Y-95106857D01*
X262677714Y-95011619D01*
X262725333Y-94964000D01*
X262820571Y-94916380D01*
X263011047Y-94916380D01*
X263106285Y-94964000D01*
X263153904Y-95011619D01*
X263201523Y-95106857D01*
X263201523Y-95154476D01*
X263153904Y-95249714D01*
X263106285Y-95297333D01*
X263011047Y-95344952D01*
X262820571Y-95344952D01*
X262725333Y-95392571D01*
X262677714Y-95440190D01*
X262630095Y-95535428D01*
X262630095Y-95725904D01*
X262677714Y-95821142D01*
X262725333Y-95868761D01*
X262820571Y-95916380D01*
X263011047Y-95916380D01*
X263106285Y-95868761D01*
X263153904Y-95821142D01*
X263201523Y-95725904D01*
X263201523Y-95535428D01*
X263153904Y-95440190D01*
X263106285Y-95392571D01*
X263011047Y-95344952D01*
G04 #@! TO.C,SW59*
X278632476Y-95868761D02*
X278775333Y-95916380D01*
X279013428Y-95916380D01*
X279108666Y-95868761D01*
X279156285Y-95821142D01*
X279203904Y-95725904D01*
X279203904Y-95630666D01*
X279156285Y-95535428D01*
X279108666Y-95487809D01*
X279013428Y-95440190D01*
X278822952Y-95392571D01*
X278727714Y-95344952D01*
X278680095Y-95297333D01*
X278632476Y-95202095D01*
X278632476Y-95106857D01*
X278680095Y-95011619D01*
X278727714Y-94964000D01*
X278822952Y-94916380D01*
X279061047Y-94916380D01*
X279203904Y-94964000D01*
X279537238Y-94916380D02*
X279775333Y-95916380D01*
X279965809Y-95202095D01*
X280156285Y-95916380D01*
X280394380Y-94916380D01*
X281251523Y-94916380D02*
X280775333Y-94916380D01*
X280727714Y-95392571D01*
X280775333Y-95344952D01*
X280870571Y-95297333D01*
X281108666Y-95297333D01*
X281203904Y-95344952D01*
X281251523Y-95392571D01*
X281299142Y-95487809D01*
X281299142Y-95725904D01*
X281251523Y-95821142D01*
X281203904Y-95868761D01*
X281108666Y-95916380D01*
X280870571Y-95916380D01*
X280775333Y-95868761D01*
X280727714Y-95821142D01*
X281775333Y-95916380D02*
X281965809Y-95916380D01*
X282061047Y-95868761D01*
X282108666Y-95821142D01*
X282203904Y-95678285D01*
X282251523Y-95487809D01*
X282251523Y-95106857D01*
X282203904Y-95011619D01*
X282156285Y-94964000D01*
X282061047Y-94916380D01*
X281870571Y-94916380D01*
X281775333Y-94964000D01*
X281727714Y-95011619D01*
X281680095Y-95106857D01*
X281680095Y-95344952D01*
X281727714Y-95440190D01*
X281775333Y-95487809D01*
X281870571Y-95535428D01*
X282061047Y-95535428D01*
X282156285Y-95487809D01*
X282203904Y-95440190D01*
X282251523Y-95344952D01*
G04 #@! TO.C,SW35*
X292920476Y-38718761D02*
X293063333Y-38766380D01*
X293301428Y-38766380D01*
X293396666Y-38718761D01*
X293444285Y-38671142D01*
X293491904Y-38575904D01*
X293491904Y-38480666D01*
X293444285Y-38385428D01*
X293396666Y-38337809D01*
X293301428Y-38290190D01*
X293110952Y-38242571D01*
X293015714Y-38194952D01*
X292968095Y-38147333D01*
X292920476Y-38052095D01*
X292920476Y-37956857D01*
X292968095Y-37861619D01*
X293015714Y-37814000D01*
X293110952Y-37766380D01*
X293349047Y-37766380D01*
X293491904Y-37814000D01*
X293825238Y-37766380D02*
X294063333Y-38766380D01*
X294253809Y-38052095D01*
X294444285Y-38766380D01*
X294682380Y-37766380D01*
X294968095Y-37766380D02*
X295587142Y-37766380D01*
X295253809Y-38147333D01*
X295396666Y-38147333D01*
X295491904Y-38194952D01*
X295539523Y-38242571D01*
X295587142Y-38337809D01*
X295587142Y-38575904D01*
X295539523Y-38671142D01*
X295491904Y-38718761D01*
X295396666Y-38766380D01*
X295110952Y-38766380D01*
X295015714Y-38718761D01*
X294968095Y-38671142D01*
X296491904Y-37766380D02*
X296015714Y-37766380D01*
X295968095Y-38242571D01*
X296015714Y-38194952D01*
X296110952Y-38147333D01*
X296349047Y-38147333D01*
X296444285Y-38194952D01*
X296491904Y-38242571D01*
X296539523Y-38337809D01*
X296539523Y-38575904D01*
X296491904Y-38671142D01*
X296444285Y-38718761D01*
X296349047Y-38766380D01*
X296110952Y-38766380D01*
X296015714Y-38718761D01*
X295968095Y-38671142D01*
G04 #@! TO.C,SW38*
X350070476Y-38718761D02*
X350213333Y-38766380D01*
X350451428Y-38766380D01*
X350546666Y-38718761D01*
X350594285Y-38671142D01*
X350641904Y-38575904D01*
X350641904Y-38480666D01*
X350594285Y-38385428D01*
X350546666Y-38337809D01*
X350451428Y-38290190D01*
X350260952Y-38242571D01*
X350165714Y-38194952D01*
X350118095Y-38147333D01*
X350070476Y-38052095D01*
X350070476Y-37956857D01*
X350118095Y-37861619D01*
X350165714Y-37814000D01*
X350260952Y-37766380D01*
X350499047Y-37766380D01*
X350641904Y-37814000D01*
X350975238Y-37766380D02*
X351213333Y-38766380D01*
X351403809Y-38052095D01*
X351594285Y-38766380D01*
X351832380Y-37766380D01*
X352118095Y-37766380D02*
X352737142Y-37766380D01*
X352403809Y-38147333D01*
X352546666Y-38147333D01*
X352641904Y-38194952D01*
X352689523Y-38242571D01*
X352737142Y-38337809D01*
X352737142Y-38575904D01*
X352689523Y-38671142D01*
X352641904Y-38718761D01*
X352546666Y-38766380D01*
X352260952Y-38766380D01*
X352165714Y-38718761D01*
X352118095Y-38671142D01*
X353308571Y-38194952D02*
X353213333Y-38147333D01*
X353165714Y-38099714D01*
X353118095Y-38004476D01*
X353118095Y-37956857D01*
X353165714Y-37861619D01*
X353213333Y-37814000D01*
X353308571Y-37766380D01*
X353499047Y-37766380D01*
X353594285Y-37814000D01*
X353641904Y-37861619D01*
X353689523Y-37956857D01*
X353689523Y-38004476D01*
X353641904Y-38099714D01*
X353594285Y-38147333D01*
X353499047Y-38194952D01*
X353308571Y-38194952D01*
X353213333Y-38242571D01*
X353165714Y-38290190D01*
X353118095Y-38385428D01*
X353118095Y-38575904D01*
X353165714Y-38671142D01*
X353213333Y-38718761D01*
X353308571Y-38766380D01*
X353499047Y-38766380D01*
X353594285Y-38718761D01*
X353641904Y-38671142D01*
X353689523Y-38575904D01*
X353689523Y-38385428D01*
X353641904Y-38290190D01*
X353594285Y-38242571D01*
X353499047Y-38194952D01*
G04 #@! TO.C,SW39*
X226245476Y-57768761D02*
X226388333Y-57816380D01*
X226626428Y-57816380D01*
X226721666Y-57768761D01*
X226769285Y-57721142D01*
X226816904Y-57625904D01*
X226816904Y-57530666D01*
X226769285Y-57435428D01*
X226721666Y-57387809D01*
X226626428Y-57340190D01*
X226435952Y-57292571D01*
X226340714Y-57244952D01*
X226293095Y-57197333D01*
X226245476Y-57102095D01*
X226245476Y-57006857D01*
X226293095Y-56911619D01*
X226340714Y-56864000D01*
X226435952Y-56816380D01*
X226674047Y-56816380D01*
X226816904Y-56864000D01*
X227150238Y-56816380D02*
X227388333Y-57816380D01*
X227578809Y-57102095D01*
X227769285Y-57816380D01*
X228007380Y-56816380D01*
X228293095Y-56816380D02*
X228912142Y-56816380D01*
X228578809Y-57197333D01*
X228721666Y-57197333D01*
X228816904Y-57244952D01*
X228864523Y-57292571D01*
X228912142Y-57387809D01*
X228912142Y-57625904D01*
X228864523Y-57721142D01*
X228816904Y-57768761D01*
X228721666Y-57816380D01*
X228435952Y-57816380D01*
X228340714Y-57768761D01*
X228293095Y-57721142D01*
X229388333Y-57816380D02*
X229578809Y-57816380D01*
X229674047Y-57768761D01*
X229721666Y-57721142D01*
X229816904Y-57578285D01*
X229864523Y-57387809D01*
X229864523Y-57006857D01*
X229816904Y-56911619D01*
X229769285Y-56864000D01*
X229674047Y-56816380D01*
X229483571Y-56816380D01*
X229388333Y-56864000D01*
X229340714Y-56911619D01*
X229293095Y-57006857D01*
X229293095Y-57244952D01*
X229340714Y-57340190D01*
X229388333Y-57387809D01*
X229483571Y-57435428D01*
X229674047Y-57435428D01*
X229769285Y-57387809D01*
X229816904Y-57340190D01*
X229864523Y-57244952D01*
G04 #@! TO.C,SW36*
X311970476Y-38718761D02*
X312113333Y-38766380D01*
X312351428Y-38766380D01*
X312446666Y-38718761D01*
X312494285Y-38671142D01*
X312541904Y-38575904D01*
X312541904Y-38480666D01*
X312494285Y-38385428D01*
X312446666Y-38337809D01*
X312351428Y-38290190D01*
X312160952Y-38242571D01*
X312065714Y-38194952D01*
X312018095Y-38147333D01*
X311970476Y-38052095D01*
X311970476Y-37956857D01*
X312018095Y-37861619D01*
X312065714Y-37814000D01*
X312160952Y-37766380D01*
X312399047Y-37766380D01*
X312541904Y-37814000D01*
X312875238Y-37766380D02*
X313113333Y-38766380D01*
X313303809Y-38052095D01*
X313494285Y-38766380D01*
X313732380Y-37766380D01*
X314018095Y-37766380D02*
X314637142Y-37766380D01*
X314303809Y-38147333D01*
X314446666Y-38147333D01*
X314541904Y-38194952D01*
X314589523Y-38242571D01*
X314637142Y-38337809D01*
X314637142Y-38575904D01*
X314589523Y-38671142D01*
X314541904Y-38718761D01*
X314446666Y-38766380D01*
X314160952Y-38766380D01*
X314065714Y-38718761D01*
X314018095Y-38671142D01*
X315494285Y-37766380D02*
X315303809Y-37766380D01*
X315208571Y-37814000D01*
X315160952Y-37861619D01*
X315065714Y-38004476D01*
X315018095Y-38194952D01*
X315018095Y-38575904D01*
X315065714Y-38671142D01*
X315113333Y-38718761D01*
X315208571Y-38766380D01*
X315399047Y-38766380D01*
X315494285Y-38718761D01*
X315541904Y-38671142D01*
X315589523Y-38575904D01*
X315589523Y-38337809D01*
X315541904Y-38242571D01*
X315494285Y-38194952D01*
X315399047Y-38147333D01*
X315208571Y-38147333D01*
X315113333Y-38194952D01*
X315065714Y-38242571D01*
X315018095Y-38337809D01*
G04 #@! TO.C,SW64*
X231007476Y-114918761D02*
X231150333Y-114966380D01*
X231388428Y-114966380D01*
X231483666Y-114918761D01*
X231531285Y-114871142D01*
X231578904Y-114775904D01*
X231578904Y-114680666D01*
X231531285Y-114585428D01*
X231483666Y-114537809D01*
X231388428Y-114490190D01*
X231197952Y-114442571D01*
X231102714Y-114394952D01*
X231055095Y-114347333D01*
X231007476Y-114252095D01*
X231007476Y-114156857D01*
X231055095Y-114061619D01*
X231102714Y-114014000D01*
X231197952Y-113966380D01*
X231436047Y-113966380D01*
X231578904Y-114014000D01*
X231912238Y-113966380D02*
X232150333Y-114966380D01*
X232340809Y-114252095D01*
X232531285Y-114966380D01*
X232769380Y-113966380D01*
X233578904Y-113966380D02*
X233388428Y-113966380D01*
X233293190Y-114014000D01*
X233245571Y-114061619D01*
X233150333Y-114204476D01*
X233102714Y-114394952D01*
X233102714Y-114775904D01*
X233150333Y-114871142D01*
X233197952Y-114918761D01*
X233293190Y-114966380D01*
X233483666Y-114966380D01*
X233578904Y-114918761D01*
X233626523Y-114871142D01*
X233674142Y-114775904D01*
X233674142Y-114537809D01*
X233626523Y-114442571D01*
X233578904Y-114394952D01*
X233483666Y-114347333D01*
X233293190Y-114347333D01*
X233197952Y-114394952D01*
X233150333Y-114442571D01*
X233102714Y-114537809D01*
X234531285Y-114299714D02*
X234531285Y-114966380D01*
X234293190Y-113918761D02*
X234055095Y-114633047D01*
X234674142Y-114633047D01*
G04 #@! TO.C,SW65*
X266726726Y-115172761D02*
X266869583Y-115220380D01*
X267107678Y-115220380D01*
X267202916Y-115172761D01*
X267250535Y-115125142D01*
X267298154Y-115029904D01*
X267298154Y-114934666D01*
X267250535Y-114839428D01*
X267202916Y-114791809D01*
X267107678Y-114744190D01*
X266917202Y-114696571D01*
X266821964Y-114648952D01*
X266774345Y-114601333D01*
X266726726Y-114506095D01*
X266726726Y-114410857D01*
X266774345Y-114315619D01*
X266821964Y-114268000D01*
X266917202Y-114220380D01*
X267155297Y-114220380D01*
X267298154Y-114268000D01*
X267631488Y-114220380D02*
X267869583Y-115220380D01*
X268060059Y-114506095D01*
X268250535Y-115220380D01*
X268488630Y-114220380D01*
X269298154Y-114220380D02*
X269107678Y-114220380D01*
X269012440Y-114268000D01*
X268964821Y-114315619D01*
X268869583Y-114458476D01*
X268821964Y-114648952D01*
X268821964Y-115029904D01*
X268869583Y-115125142D01*
X268917202Y-115172761D01*
X269012440Y-115220380D01*
X269202916Y-115220380D01*
X269298154Y-115172761D01*
X269345773Y-115125142D01*
X269393392Y-115029904D01*
X269393392Y-114791809D01*
X269345773Y-114696571D01*
X269298154Y-114648952D01*
X269202916Y-114601333D01*
X269012440Y-114601333D01*
X268917202Y-114648952D01*
X268869583Y-114696571D01*
X268821964Y-114791809D01*
X270298154Y-114220380D02*
X269821964Y-114220380D01*
X269774345Y-114696571D01*
X269821964Y-114648952D01*
X269917202Y-114601333D01*
X270155297Y-114601333D01*
X270250535Y-114648952D01*
X270298154Y-114696571D01*
X270345773Y-114791809D01*
X270345773Y-115029904D01*
X270298154Y-115125142D01*
X270250535Y-115172761D01*
X270155297Y-115220380D01*
X269917202Y-115220380D01*
X269821964Y-115172761D01*
X269774345Y-115125142D01*
G04 #@! TO.C,SW60*
X297682476Y-95868761D02*
X297825333Y-95916380D01*
X298063428Y-95916380D01*
X298158666Y-95868761D01*
X298206285Y-95821142D01*
X298253904Y-95725904D01*
X298253904Y-95630666D01*
X298206285Y-95535428D01*
X298158666Y-95487809D01*
X298063428Y-95440190D01*
X297872952Y-95392571D01*
X297777714Y-95344952D01*
X297730095Y-95297333D01*
X297682476Y-95202095D01*
X297682476Y-95106857D01*
X297730095Y-95011619D01*
X297777714Y-94964000D01*
X297872952Y-94916380D01*
X298111047Y-94916380D01*
X298253904Y-94964000D01*
X298587238Y-94916380D02*
X298825333Y-95916380D01*
X299015809Y-95202095D01*
X299206285Y-95916380D01*
X299444380Y-94916380D01*
X300253904Y-94916380D02*
X300063428Y-94916380D01*
X299968190Y-94964000D01*
X299920571Y-95011619D01*
X299825333Y-95154476D01*
X299777714Y-95344952D01*
X299777714Y-95725904D01*
X299825333Y-95821142D01*
X299872952Y-95868761D01*
X299968190Y-95916380D01*
X300158666Y-95916380D01*
X300253904Y-95868761D01*
X300301523Y-95821142D01*
X300349142Y-95725904D01*
X300349142Y-95487809D01*
X300301523Y-95392571D01*
X300253904Y-95344952D01*
X300158666Y-95297333D01*
X299968190Y-95297333D01*
X299872952Y-95344952D01*
X299825333Y-95392571D01*
X299777714Y-95487809D01*
X300968190Y-94916380D02*
X301063428Y-94916380D01*
X301158666Y-94964000D01*
X301206285Y-95011619D01*
X301253904Y-95106857D01*
X301301523Y-95297333D01*
X301301523Y-95535428D01*
X301253904Y-95725904D01*
X301206285Y-95821142D01*
X301158666Y-95868761D01*
X301063428Y-95916380D01*
X300968190Y-95916380D01*
X300872952Y-95868761D01*
X300825333Y-95821142D01*
X300777714Y-95725904D01*
X300730095Y-95535428D01*
X300730095Y-95297333D01*
X300777714Y-95106857D01*
X300825333Y-95011619D01*
X300872952Y-94964000D01*
X300968190Y-94916380D01*
G04 #@! TO.C,SW61*
X316732476Y-95868761D02*
X316875333Y-95916380D01*
X317113428Y-95916380D01*
X317208666Y-95868761D01*
X317256285Y-95821142D01*
X317303904Y-95725904D01*
X317303904Y-95630666D01*
X317256285Y-95535428D01*
X317208666Y-95487809D01*
X317113428Y-95440190D01*
X316922952Y-95392571D01*
X316827714Y-95344952D01*
X316780095Y-95297333D01*
X316732476Y-95202095D01*
X316732476Y-95106857D01*
X316780095Y-95011619D01*
X316827714Y-94964000D01*
X316922952Y-94916380D01*
X317161047Y-94916380D01*
X317303904Y-94964000D01*
X317637238Y-94916380D02*
X317875333Y-95916380D01*
X318065809Y-95202095D01*
X318256285Y-95916380D01*
X318494380Y-94916380D01*
X319303904Y-94916380D02*
X319113428Y-94916380D01*
X319018190Y-94964000D01*
X318970571Y-95011619D01*
X318875333Y-95154476D01*
X318827714Y-95344952D01*
X318827714Y-95725904D01*
X318875333Y-95821142D01*
X318922952Y-95868761D01*
X319018190Y-95916380D01*
X319208666Y-95916380D01*
X319303904Y-95868761D01*
X319351523Y-95821142D01*
X319399142Y-95725904D01*
X319399142Y-95487809D01*
X319351523Y-95392571D01*
X319303904Y-95344952D01*
X319208666Y-95297333D01*
X319018190Y-95297333D01*
X318922952Y-95344952D01*
X318875333Y-95392571D01*
X318827714Y-95487809D01*
X320351523Y-95916380D02*
X319780095Y-95916380D01*
X320065809Y-95916380D02*
X320065809Y-94916380D01*
X319970571Y-95059238D01*
X319875333Y-95154476D01*
X319780095Y-95202095D01*
G04 #@! TO.C,SW41*
X264345476Y-57768761D02*
X264488333Y-57816380D01*
X264726428Y-57816380D01*
X264821666Y-57768761D01*
X264869285Y-57721142D01*
X264916904Y-57625904D01*
X264916904Y-57530666D01*
X264869285Y-57435428D01*
X264821666Y-57387809D01*
X264726428Y-57340190D01*
X264535952Y-57292571D01*
X264440714Y-57244952D01*
X264393095Y-57197333D01*
X264345476Y-57102095D01*
X264345476Y-57006857D01*
X264393095Y-56911619D01*
X264440714Y-56864000D01*
X264535952Y-56816380D01*
X264774047Y-56816380D01*
X264916904Y-56864000D01*
X265250238Y-56816380D02*
X265488333Y-57816380D01*
X265678809Y-57102095D01*
X265869285Y-57816380D01*
X266107380Y-56816380D01*
X266916904Y-57149714D02*
X266916904Y-57816380D01*
X266678809Y-56768761D02*
X266440714Y-57483047D01*
X267059761Y-57483047D01*
X267964523Y-57816380D02*
X267393095Y-57816380D01*
X267678809Y-57816380D02*
X267678809Y-56816380D01*
X267583571Y-56959238D01*
X267488333Y-57054476D01*
X267393095Y-57102095D01*
G04 #@! TO.C,SW63*
X359594476Y-95868761D02*
X359737333Y-95916380D01*
X359975428Y-95916380D01*
X360070666Y-95868761D01*
X360118285Y-95821142D01*
X360165904Y-95725904D01*
X360165904Y-95630666D01*
X360118285Y-95535428D01*
X360070666Y-95487809D01*
X359975428Y-95440190D01*
X359784952Y-95392571D01*
X359689714Y-95344952D01*
X359642095Y-95297333D01*
X359594476Y-95202095D01*
X359594476Y-95106857D01*
X359642095Y-95011619D01*
X359689714Y-94964000D01*
X359784952Y-94916380D01*
X360023047Y-94916380D01*
X360165904Y-94964000D01*
X360499238Y-94916380D02*
X360737333Y-95916380D01*
X360927809Y-95202095D01*
X361118285Y-95916380D01*
X361356380Y-94916380D01*
X362165904Y-94916380D02*
X361975428Y-94916380D01*
X361880190Y-94964000D01*
X361832571Y-95011619D01*
X361737333Y-95154476D01*
X361689714Y-95344952D01*
X361689714Y-95725904D01*
X361737333Y-95821142D01*
X361784952Y-95868761D01*
X361880190Y-95916380D01*
X362070666Y-95916380D01*
X362165904Y-95868761D01*
X362213523Y-95821142D01*
X362261142Y-95725904D01*
X362261142Y-95487809D01*
X362213523Y-95392571D01*
X362165904Y-95344952D01*
X362070666Y-95297333D01*
X361880190Y-95297333D01*
X361784952Y-95344952D01*
X361737333Y-95392571D01*
X361689714Y-95487809D01*
X362594476Y-94916380D02*
X363213523Y-94916380D01*
X362880190Y-95297333D01*
X363023047Y-95297333D01*
X363118285Y-95344952D01*
X363165904Y-95392571D01*
X363213523Y-95487809D01*
X363213523Y-95725904D01*
X363165904Y-95821142D01*
X363118285Y-95868761D01*
X363023047Y-95916380D01*
X362737333Y-95916380D01*
X362642095Y-95868761D01*
X362594476Y-95821142D01*
G04 #@! TO.C,SW44*
X321495476Y-57768761D02*
X321638333Y-57816380D01*
X321876428Y-57816380D01*
X321971666Y-57768761D01*
X322019285Y-57721142D01*
X322066904Y-57625904D01*
X322066904Y-57530666D01*
X322019285Y-57435428D01*
X321971666Y-57387809D01*
X321876428Y-57340190D01*
X321685952Y-57292571D01*
X321590714Y-57244952D01*
X321543095Y-57197333D01*
X321495476Y-57102095D01*
X321495476Y-57006857D01*
X321543095Y-56911619D01*
X321590714Y-56864000D01*
X321685952Y-56816380D01*
X321924047Y-56816380D01*
X322066904Y-56864000D01*
X322400238Y-56816380D02*
X322638333Y-57816380D01*
X322828809Y-57102095D01*
X323019285Y-57816380D01*
X323257380Y-56816380D01*
X324066904Y-57149714D02*
X324066904Y-57816380D01*
X323828809Y-56768761D02*
X323590714Y-57483047D01*
X324209761Y-57483047D01*
X325019285Y-57149714D02*
X325019285Y-57816380D01*
X324781190Y-56768761D02*
X324543095Y-57483047D01*
X325162142Y-57483047D01*
G04 #@! TO.C,SW37*
X331020476Y-38718761D02*
X331163333Y-38766380D01*
X331401428Y-38766380D01*
X331496666Y-38718761D01*
X331544285Y-38671142D01*
X331591904Y-38575904D01*
X331591904Y-38480666D01*
X331544285Y-38385428D01*
X331496666Y-38337809D01*
X331401428Y-38290190D01*
X331210952Y-38242571D01*
X331115714Y-38194952D01*
X331068095Y-38147333D01*
X331020476Y-38052095D01*
X331020476Y-37956857D01*
X331068095Y-37861619D01*
X331115714Y-37814000D01*
X331210952Y-37766380D01*
X331449047Y-37766380D01*
X331591904Y-37814000D01*
X331925238Y-37766380D02*
X332163333Y-38766380D01*
X332353809Y-38052095D01*
X332544285Y-38766380D01*
X332782380Y-37766380D01*
X333068095Y-37766380D02*
X333687142Y-37766380D01*
X333353809Y-38147333D01*
X333496666Y-38147333D01*
X333591904Y-38194952D01*
X333639523Y-38242571D01*
X333687142Y-38337809D01*
X333687142Y-38575904D01*
X333639523Y-38671142D01*
X333591904Y-38718761D01*
X333496666Y-38766380D01*
X333210952Y-38766380D01*
X333115714Y-38718761D01*
X333068095Y-38671142D01*
X334020476Y-37766380D02*
X334687142Y-37766380D01*
X334258571Y-38766380D01*
G04 #@! TO.C,SW43*
X302445476Y-57768761D02*
X302588333Y-57816380D01*
X302826428Y-57816380D01*
X302921666Y-57768761D01*
X302969285Y-57721142D01*
X303016904Y-57625904D01*
X303016904Y-57530666D01*
X302969285Y-57435428D01*
X302921666Y-57387809D01*
X302826428Y-57340190D01*
X302635952Y-57292571D01*
X302540714Y-57244952D01*
X302493095Y-57197333D01*
X302445476Y-57102095D01*
X302445476Y-57006857D01*
X302493095Y-56911619D01*
X302540714Y-56864000D01*
X302635952Y-56816380D01*
X302874047Y-56816380D01*
X303016904Y-56864000D01*
X303350238Y-56816380D02*
X303588333Y-57816380D01*
X303778809Y-57102095D01*
X303969285Y-57816380D01*
X304207380Y-56816380D01*
X305016904Y-57149714D02*
X305016904Y-57816380D01*
X304778809Y-56768761D02*
X304540714Y-57483047D01*
X305159761Y-57483047D01*
X305445476Y-56816380D02*
X306064523Y-56816380D01*
X305731190Y-57197333D01*
X305874047Y-57197333D01*
X305969285Y-57244952D01*
X306016904Y-57292571D01*
X306064523Y-57387809D01*
X306064523Y-57625904D01*
X306016904Y-57721142D01*
X305969285Y-57768761D01*
X305874047Y-57816380D01*
X305588333Y-57816380D01*
X305493095Y-57768761D01*
X305445476Y-57721142D01*
G04 #@! TO.C,SW31*
X216720476Y-38718761D02*
X216863333Y-38766380D01*
X217101428Y-38766380D01*
X217196666Y-38718761D01*
X217244285Y-38671142D01*
X217291904Y-38575904D01*
X217291904Y-38480666D01*
X217244285Y-38385428D01*
X217196666Y-38337809D01*
X217101428Y-38290190D01*
X216910952Y-38242571D01*
X216815714Y-38194952D01*
X216768095Y-38147333D01*
X216720476Y-38052095D01*
X216720476Y-37956857D01*
X216768095Y-37861619D01*
X216815714Y-37814000D01*
X216910952Y-37766380D01*
X217149047Y-37766380D01*
X217291904Y-37814000D01*
X217625238Y-37766380D02*
X217863333Y-38766380D01*
X218053809Y-38052095D01*
X218244285Y-38766380D01*
X218482380Y-37766380D01*
X218768095Y-37766380D02*
X219387142Y-37766380D01*
X219053809Y-38147333D01*
X219196666Y-38147333D01*
X219291904Y-38194952D01*
X219339523Y-38242571D01*
X219387142Y-38337809D01*
X219387142Y-38575904D01*
X219339523Y-38671142D01*
X219291904Y-38718761D01*
X219196666Y-38766380D01*
X218910952Y-38766380D01*
X218815714Y-38718761D01*
X218768095Y-38671142D01*
X220339523Y-38766380D02*
X219768095Y-38766380D01*
X220053809Y-38766380D02*
X220053809Y-37766380D01*
X219958571Y-37909238D01*
X219863333Y-38004476D01*
X219768095Y-38052095D01*
G04 #@! TO.C,SW40*
X245295476Y-57768761D02*
X245438333Y-57816380D01*
X245676428Y-57816380D01*
X245771666Y-57768761D01*
X245819285Y-57721142D01*
X245866904Y-57625904D01*
X245866904Y-57530666D01*
X245819285Y-57435428D01*
X245771666Y-57387809D01*
X245676428Y-57340190D01*
X245485952Y-57292571D01*
X245390714Y-57244952D01*
X245343095Y-57197333D01*
X245295476Y-57102095D01*
X245295476Y-57006857D01*
X245343095Y-56911619D01*
X245390714Y-56864000D01*
X245485952Y-56816380D01*
X245724047Y-56816380D01*
X245866904Y-56864000D01*
X246200238Y-56816380D02*
X246438333Y-57816380D01*
X246628809Y-57102095D01*
X246819285Y-57816380D01*
X247057380Y-56816380D01*
X247866904Y-57149714D02*
X247866904Y-57816380D01*
X247628809Y-56768761D02*
X247390714Y-57483047D01*
X248009761Y-57483047D01*
X248581190Y-56816380D02*
X248676428Y-56816380D01*
X248771666Y-56864000D01*
X248819285Y-56911619D01*
X248866904Y-57006857D01*
X248914523Y-57197333D01*
X248914523Y-57435428D01*
X248866904Y-57625904D01*
X248819285Y-57721142D01*
X248771666Y-57768761D01*
X248676428Y-57816380D01*
X248581190Y-57816380D01*
X248485952Y-57768761D01*
X248438333Y-57721142D01*
X248390714Y-57625904D01*
X248343095Y-57435428D01*
X248343095Y-57197333D01*
X248390714Y-57006857D01*
X248438333Y-56911619D01*
X248485952Y-56864000D01*
X248581190Y-56816380D01*
G04 #@! TO.C,SW42*
X283395476Y-57768761D02*
X283538333Y-57816380D01*
X283776428Y-57816380D01*
X283871666Y-57768761D01*
X283919285Y-57721142D01*
X283966904Y-57625904D01*
X283966904Y-57530666D01*
X283919285Y-57435428D01*
X283871666Y-57387809D01*
X283776428Y-57340190D01*
X283585952Y-57292571D01*
X283490714Y-57244952D01*
X283443095Y-57197333D01*
X283395476Y-57102095D01*
X283395476Y-57006857D01*
X283443095Y-56911619D01*
X283490714Y-56864000D01*
X283585952Y-56816380D01*
X283824047Y-56816380D01*
X283966904Y-56864000D01*
X284300238Y-56816380D02*
X284538333Y-57816380D01*
X284728809Y-57102095D01*
X284919285Y-57816380D01*
X285157380Y-56816380D01*
X285966904Y-57149714D02*
X285966904Y-57816380D01*
X285728809Y-56768761D02*
X285490714Y-57483047D01*
X286109761Y-57483047D01*
X286443095Y-56911619D02*
X286490714Y-56864000D01*
X286585952Y-56816380D01*
X286824047Y-56816380D01*
X286919285Y-56864000D01*
X286966904Y-56911619D01*
X287014523Y-57006857D01*
X287014523Y-57102095D01*
X286966904Y-57244952D01*
X286395476Y-57816380D01*
X287014523Y-57816380D01*
G04 #@! TO.C,SW32*
X235770476Y-38718761D02*
X235913333Y-38766380D01*
X236151428Y-38766380D01*
X236246666Y-38718761D01*
X236294285Y-38671142D01*
X236341904Y-38575904D01*
X236341904Y-38480666D01*
X236294285Y-38385428D01*
X236246666Y-38337809D01*
X236151428Y-38290190D01*
X235960952Y-38242571D01*
X235865714Y-38194952D01*
X235818095Y-38147333D01*
X235770476Y-38052095D01*
X235770476Y-37956857D01*
X235818095Y-37861619D01*
X235865714Y-37814000D01*
X235960952Y-37766380D01*
X236199047Y-37766380D01*
X236341904Y-37814000D01*
X236675238Y-37766380D02*
X236913333Y-38766380D01*
X237103809Y-38052095D01*
X237294285Y-38766380D01*
X237532380Y-37766380D01*
X237818095Y-37766380D02*
X238437142Y-37766380D01*
X238103809Y-38147333D01*
X238246666Y-38147333D01*
X238341904Y-38194952D01*
X238389523Y-38242571D01*
X238437142Y-38337809D01*
X238437142Y-38575904D01*
X238389523Y-38671142D01*
X238341904Y-38718761D01*
X238246666Y-38766380D01*
X237960952Y-38766380D01*
X237865714Y-38718761D01*
X237818095Y-38671142D01*
X238818095Y-37861619D02*
X238865714Y-37814000D01*
X238960952Y-37766380D01*
X239199047Y-37766380D01*
X239294285Y-37814000D01*
X239341904Y-37861619D01*
X239389523Y-37956857D01*
X239389523Y-38052095D01*
X239341904Y-38194952D01*
X238770476Y-38766380D01*
X239389523Y-38766380D01*
G04 #@! TO.C,SW33*
X254820476Y-38718761D02*
X254963333Y-38766380D01*
X255201428Y-38766380D01*
X255296666Y-38718761D01*
X255344285Y-38671142D01*
X255391904Y-38575904D01*
X255391904Y-38480666D01*
X255344285Y-38385428D01*
X255296666Y-38337809D01*
X255201428Y-38290190D01*
X255010952Y-38242571D01*
X254915714Y-38194952D01*
X254868095Y-38147333D01*
X254820476Y-38052095D01*
X254820476Y-37956857D01*
X254868095Y-37861619D01*
X254915714Y-37814000D01*
X255010952Y-37766380D01*
X255249047Y-37766380D01*
X255391904Y-37814000D01*
X255725238Y-37766380D02*
X255963333Y-38766380D01*
X256153809Y-38052095D01*
X256344285Y-38766380D01*
X256582380Y-37766380D01*
X256868095Y-37766380D02*
X257487142Y-37766380D01*
X257153809Y-38147333D01*
X257296666Y-38147333D01*
X257391904Y-38194952D01*
X257439523Y-38242571D01*
X257487142Y-38337809D01*
X257487142Y-38575904D01*
X257439523Y-38671142D01*
X257391904Y-38718761D01*
X257296666Y-38766380D01*
X257010952Y-38766380D01*
X256915714Y-38718761D01*
X256868095Y-38671142D01*
X257820476Y-37766380D02*
X258439523Y-37766380D01*
X258106190Y-38147333D01*
X258249047Y-38147333D01*
X258344285Y-38194952D01*
X258391904Y-38242571D01*
X258439523Y-38337809D01*
X258439523Y-38575904D01*
X258391904Y-38671142D01*
X258344285Y-38718761D01*
X258249047Y-38766380D01*
X257963333Y-38766380D01*
X257868095Y-38718761D01*
X257820476Y-38671142D01*
G04 #@! TO.C,SW34*
X273870476Y-38718761D02*
X274013333Y-38766380D01*
X274251428Y-38766380D01*
X274346666Y-38718761D01*
X274394285Y-38671142D01*
X274441904Y-38575904D01*
X274441904Y-38480666D01*
X274394285Y-38385428D01*
X274346666Y-38337809D01*
X274251428Y-38290190D01*
X274060952Y-38242571D01*
X273965714Y-38194952D01*
X273918095Y-38147333D01*
X273870476Y-38052095D01*
X273870476Y-37956857D01*
X273918095Y-37861619D01*
X273965714Y-37814000D01*
X274060952Y-37766380D01*
X274299047Y-37766380D01*
X274441904Y-37814000D01*
X274775238Y-37766380D02*
X275013333Y-38766380D01*
X275203809Y-38052095D01*
X275394285Y-38766380D01*
X275632380Y-37766380D01*
X275918095Y-37766380D02*
X276537142Y-37766380D01*
X276203809Y-38147333D01*
X276346666Y-38147333D01*
X276441904Y-38194952D01*
X276489523Y-38242571D01*
X276537142Y-38337809D01*
X276537142Y-38575904D01*
X276489523Y-38671142D01*
X276441904Y-38718761D01*
X276346666Y-38766380D01*
X276060952Y-38766380D01*
X275965714Y-38718761D01*
X275918095Y-38671142D01*
X277394285Y-38099714D02*
X277394285Y-38766380D01*
X277156190Y-37718761D02*
X276918095Y-38433047D01*
X277537142Y-38433047D01*
G04 #@! TO.C,SW57*
X240532476Y-95868761D02*
X240675333Y-95916380D01*
X240913428Y-95916380D01*
X241008666Y-95868761D01*
X241056285Y-95821142D01*
X241103904Y-95725904D01*
X241103904Y-95630666D01*
X241056285Y-95535428D01*
X241008666Y-95487809D01*
X240913428Y-95440190D01*
X240722952Y-95392571D01*
X240627714Y-95344952D01*
X240580095Y-95297333D01*
X240532476Y-95202095D01*
X240532476Y-95106857D01*
X240580095Y-95011619D01*
X240627714Y-94964000D01*
X240722952Y-94916380D01*
X240961047Y-94916380D01*
X241103904Y-94964000D01*
X241437238Y-94916380D02*
X241675333Y-95916380D01*
X241865809Y-95202095D01*
X242056285Y-95916380D01*
X242294380Y-94916380D01*
X243151523Y-94916380D02*
X242675333Y-94916380D01*
X242627714Y-95392571D01*
X242675333Y-95344952D01*
X242770571Y-95297333D01*
X243008666Y-95297333D01*
X243103904Y-95344952D01*
X243151523Y-95392571D01*
X243199142Y-95487809D01*
X243199142Y-95725904D01*
X243151523Y-95821142D01*
X243103904Y-95868761D01*
X243008666Y-95916380D01*
X242770571Y-95916380D01*
X242675333Y-95868761D01*
X242627714Y-95821142D01*
X243532476Y-94916380D02*
X244199142Y-94916380D01*
X243770571Y-95916380D01*
G04 #@! TO.C,SW48*
X231002476Y-76818761D02*
X231145333Y-76866380D01*
X231383428Y-76866380D01*
X231478666Y-76818761D01*
X231526285Y-76771142D01*
X231573904Y-76675904D01*
X231573904Y-76580666D01*
X231526285Y-76485428D01*
X231478666Y-76437809D01*
X231383428Y-76390190D01*
X231192952Y-76342571D01*
X231097714Y-76294952D01*
X231050095Y-76247333D01*
X231002476Y-76152095D01*
X231002476Y-76056857D01*
X231050095Y-75961619D01*
X231097714Y-75914000D01*
X231192952Y-75866380D01*
X231431047Y-75866380D01*
X231573904Y-75914000D01*
X231907238Y-75866380D02*
X232145333Y-76866380D01*
X232335809Y-76152095D01*
X232526285Y-76866380D01*
X232764380Y-75866380D01*
X233573904Y-76199714D02*
X233573904Y-76866380D01*
X233335809Y-75818761D02*
X233097714Y-76533047D01*
X233716761Y-76533047D01*
X234240571Y-76294952D02*
X234145333Y-76247333D01*
X234097714Y-76199714D01*
X234050095Y-76104476D01*
X234050095Y-76056857D01*
X234097714Y-75961619D01*
X234145333Y-75914000D01*
X234240571Y-75866380D01*
X234431047Y-75866380D01*
X234526285Y-75914000D01*
X234573904Y-75961619D01*
X234621523Y-76056857D01*
X234621523Y-76104476D01*
X234573904Y-76199714D01*
X234526285Y-76247333D01*
X234431047Y-76294952D01*
X234240571Y-76294952D01*
X234145333Y-76342571D01*
X234097714Y-76390190D01*
X234050095Y-76485428D01*
X234050095Y-76675904D01*
X234097714Y-76771142D01*
X234145333Y-76818761D01*
X234240571Y-76866380D01*
X234431047Y-76866380D01*
X234526285Y-76818761D01*
X234573904Y-76771142D01*
X234621523Y-76675904D01*
X234621523Y-76485428D01*
X234573904Y-76390190D01*
X234526285Y-76342571D01*
X234431047Y-76294952D01*
G04 #@! TO.C,SW53*
X326257476Y-76818761D02*
X326400333Y-76866380D01*
X326638428Y-76866380D01*
X326733666Y-76818761D01*
X326781285Y-76771142D01*
X326828904Y-76675904D01*
X326828904Y-76580666D01*
X326781285Y-76485428D01*
X326733666Y-76437809D01*
X326638428Y-76390190D01*
X326447952Y-76342571D01*
X326352714Y-76294952D01*
X326305095Y-76247333D01*
X326257476Y-76152095D01*
X326257476Y-76056857D01*
X326305095Y-75961619D01*
X326352714Y-75914000D01*
X326447952Y-75866380D01*
X326686047Y-75866380D01*
X326828904Y-75914000D01*
X327162238Y-75866380D02*
X327400333Y-76866380D01*
X327590809Y-76152095D01*
X327781285Y-76866380D01*
X328019380Y-75866380D01*
X328876523Y-75866380D02*
X328400333Y-75866380D01*
X328352714Y-76342571D01*
X328400333Y-76294952D01*
X328495571Y-76247333D01*
X328733666Y-76247333D01*
X328828904Y-76294952D01*
X328876523Y-76342571D01*
X328924142Y-76437809D01*
X328924142Y-76675904D01*
X328876523Y-76771142D01*
X328828904Y-76818761D01*
X328733666Y-76866380D01*
X328495571Y-76866380D01*
X328400333Y-76818761D01*
X328352714Y-76771142D01*
X329257476Y-75866380D02*
X329876523Y-75866380D01*
X329543190Y-76247333D01*
X329686047Y-76247333D01*
X329781285Y-76294952D01*
X329828904Y-76342571D01*
X329876523Y-76437809D01*
X329876523Y-76675904D01*
X329828904Y-76771142D01*
X329781285Y-76818761D01*
X329686047Y-76866380D01*
X329400333Y-76866380D01*
X329305095Y-76818761D01*
X329257476Y-76771142D01*
G04 #@! TO.C,SW69*
X378645476Y-114918761D02*
X378788333Y-114966380D01*
X379026428Y-114966380D01*
X379121666Y-114918761D01*
X379169285Y-114871142D01*
X379216904Y-114775904D01*
X379216904Y-114680666D01*
X379169285Y-114585428D01*
X379121666Y-114537809D01*
X379026428Y-114490190D01*
X378835952Y-114442571D01*
X378740714Y-114394952D01*
X378693095Y-114347333D01*
X378645476Y-114252095D01*
X378645476Y-114156857D01*
X378693095Y-114061619D01*
X378740714Y-114014000D01*
X378835952Y-113966380D01*
X379074047Y-113966380D01*
X379216904Y-114014000D01*
X379550238Y-113966380D02*
X379788333Y-114966380D01*
X379978809Y-114252095D01*
X380169285Y-114966380D01*
X380407380Y-113966380D01*
X381216904Y-113966380D02*
X381026428Y-113966380D01*
X380931190Y-114014000D01*
X380883571Y-114061619D01*
X380788333Y-114204476D01*
X380740714Y-114394952D01*
X380740714Y-114775904D01*
X380788333Y-114871142D01*
X380835952Y-114918761D01*
X380931190Y-114966380D01*
X381121666Y-114966380D01*
X381216904Y-114918761D01*
X381264523Y-114871142D01*
X381312142Y-114775904D01*
X381312142Y-114537809D01*
X381264523Y-114442571D01*
X381216904Y-114394952D01*
X381121666Y-114347333D01*
X380931190Y-114347333D01*
X380835952Y-114394952D01*
X380788333Y-114442571D01*
X380740714Y-114537809D01*
X381788333Y-114966380D02*
X381978809Y-114966380D01*
X382074047Y-114918761D01*
X382121666Y-114871142D01*
X382216904Y-114728285D01*
X382264523Y-114537809D01*
X382264523Y-114156857D01*
X382216904Y-114061619D01*
X382169285Y-114014000D01*
X382074047Y-113966380D01*
X381883571Y-113966380D01*
X381788333Y-114014000D01*
X381740714Y-114061619D01*
X381693095Y-114156857D01*
X381693095Y-114394952D01*
X381740714Y-114490190D01*
X381788333Y-114537809D01*
X381883571Y-114585428D01*
X382074047Y-114585428D01*
X382169285Y-114537809D01*
X382216904Y-114490190D01*
X382264523Y-114394952D01*
G04 #@! TO.C,SW49*
X250057476Y-76818761D02*
X250200333Y-76866380D01*
X250438428Y-76866380D01*
X250533666Y-76818761D01*
X250581285Y-76771142D01*
X250628904Y-76675904D01*
X250628904Y-76580666D01*
X250581285Y-76485428D01*
X250533666Y-76437809D01*
X250438428Y-76390190D01*
X250247952Y-76342571D01*
X250152714Y-76294952D01*
X250105095Y-76247333D01*
X250057476Y-76152095D01*
X250057476Y-76056857D01*
X250105095Y-75961619D01*
X250152714Y-75914000D01*
X250247952Y-75866380D01*
X250486047Y-75866380D01*
X250628904Y-75914000D01*
X250962238Y-75866380D02*
X251200333Y-76866380D01*
X251390809Y-76152095D01*
X251581285Y-76866380D01*
X251819380Y-75866380D01*
X252628904Y-76199714D02*
X252628904Y-76866380D01*
X252390809Y-75818761D02*
X252152714Y-76533047D01*
X252771761Y-76533047D01*
X253200333Y-76866380D02*
X253390809Y-76866380D01*
X253486047Y-76818761D01*
X253533666Y-76771142D01*
X253628904Y-76628285D01*
X253676523Y-76437809D01*
X253676523Y-76056857D01*
X253628904Y-75961619D01*
X253581285Y-75914000D01*
X253486047Y-75866380D01*
X253295571Y-75866380D01*
X253200333Y-75914000D01*
X253152714Y-75961619D01*
X253105095Y-76056857D01*
X253105095Y-76294952D01*
X253152714Y-76390190D01*
X253200333Y-76437809D01*
X253295571Y-76485428D01*
X253486047Y-76485428D01*
X253581285Y-76437809D01*
X253628904Y-76390190D01*
X253676523Y-76294952D01*
G04 #@! TO.C,SW50*
X269107476Y-76818761D02*
X269250333Y-76866380D01*
X269488428Y-76866380D01*
X269583666Y-76818761D01*
X269631285Y-76771142D01*
X269678904Y-76675904D01*
X269678904Y-76580666D01*
X269631285Y-76485428D01*
X269583666Y-76437809D01*
X269488428Y-76390190D01*
X269297952Y-76342571D01*
X269202714Y-76294952D01*
X269155095Y-76247333D01*
X269107476Y-76152095D01*
X269107476Y-76056857D01*
X269155095Y-75961619D01*
X269202714Y-75914000D01*
X269297952Y-75866380D01*
X269536047Y-75866380D01*
X269678904Y-75914000D01*
X270012238Y-75866380D02*
X270250333Y-76866380D01*
X270440809Y-76152095D01*
X270631285Y-76866380D01*
X270869380Y-75866380D01*
X271726523Y-75866380D02*
X271250333Y-75866380D01*
X271202714Y-76342571D01*
X271250333Y-76294952D01*
X271345571Y-76247333D01*
X271583666Y-76247333D01*
X271678904Y-76294952D01*
X271726523Y-76342571D01*
X271774142Y-76437809D01*
X271774142Y-76675904D01*
X271726523Y-76771142D01*
X271678904Y-76818761D01*
X271583666Y-76866380D01*
X271345571Y-76866380D01*
X271250333Y-76818761D01*
X271202714Y-76771142D01*
X272393190Y-75866380D02*
X272488428Y-75866380D01*
X272583666Y-75914000D01*
X272631285Y-75961619D01*
X272678904Y-76056857D01*
X272726523Y-76247333D01*
X272726523Y-76485428D01*
X272678904Y-76675904D01*
X272631285Y-76771142D01*
X272583666Y-76818761D01*
X272488428Y-76866380D01*
X272393190Y-76866380D01*
X272297952Y-76818761D01*
X272250333Y-76771142D01*
X272202714Y-76675904D01*
X272155095Y-76485428D01*
X272155095Y-76247333D01*
X272202714Y-76056857D01*
X272250333Y-75961619D01*
X272297952Y-75914000D01*
X272393190Y-75866380D01*
G04 #@! TO.C,SW55*
X378645476Y-76818761D02*
X378788333Y-76866380D01*
X379026428Y-76866380D01*
X379121666Y-76818761D01*
X379169285Y-76771142D01*
X379216904Y-76675904D01*
X379216904Y-76580666D01*
X379169285Y-76485428D01*
X379121666Y-76437809D01*
X379026428Y-76390190D01*
X378835952Y-76342571D01*
X378740714Y-76294952D01*
X378693095Y-76247333D01*
X378645476Y-76152095D01*
X378645476Y-76056857D01*
X378693095Y-75961619D01*
X378740714Y-75914000D01*
X378835952Y-75866380D01*
X379074047Y-75866380D01*
X379216904Y-75914000D01*
X379550238Y-75866380D02*
X379788333Y-76866380D01*
X379978809Y-76152095D01*
X380169285Y-76866380D01*
X380407380Y-75866380D01*
X381264523Y-75866380D02*
X380788333Y-75866380D01*
X380740714Y-76342571D01*
X380788333Y-76294952D01*
X380883571Y-76247333D01*
X381121666Y-76247333D01*
X381216904Y-76294952D01*
X381264523Y-76342571D01*
X381312142Y-76437809D01*
X381312142Y-76675904D01*
X381264523Y-76771142D01*
X381216904Y-76818761D01*
X381121666Y-76866380D01*
X380883571Y-76866380D01*
X380788333Y-76818761D01*
X380740714Y-76771142D01*
X382216904Y-75866380D02*
X381740714Y-75866380D01*
X381693095Y-76342571D01*
X381740714Y-76294952D01*
X381835952Y-76247333D01*
X382074047Y-76247333D01*
X382169285Y-76294952D01*
X382216904Y-76342571D01*
X382264523Y-76437809D01*
X382264523Y-76675904D01*
X382216904Y-76771142D01*
X382169285Y-76818761D01*
X382074047Y-76866380D01*
X381835952Y-76866380D01*
X381740714Y-76818761D01*
X381693095Y-76771142D01*
G04 #@! TD*
%LPC*%
D11*
G04 #@! TO.C,SW54*
X349180250Y-81240000D03*
X359340250Y-81240000D03*
D12*
X354260250Y-81240000D03*
D13*
X358070250Y-83780000D03*
X351720250Y-86320000D03*
G04 #@! TD*
D14*
G04 #@! TO.C,cr10*
X223517501Y-52240001D03*
G04 #@! TD*
D11*
G04 #@! TO.C,SW51*
X284887000Y-81240000D03*
X295047000Y-81240000D03*
D12*
X289967000Y-81240000D03*
D13*
X293777000Y-83780000D03*
X287427000Y-86320000D03*
G04 #@! TD*
D11*
G04 #@! TO.C,SW52*
X303937000Y-81240000D03*
X314097000Y-81240000D03*
D12*
X309017000Y-81240000D03*
D13*
X312827000Y-83780000D03*
X306477000Y-86320000D03*
G04 #@! TD*
D11*
G04 #@! TO.C,SW56*
X218212000Y-100290000D03*
X228372000Y-100290000D03*
D12*
X223292000Y-100290000D03*
D13*
X227102000Y-102830000D03*
X220752000Y-105370000D03*
G04 #@! TD*
D11*
G04 #@! TO.C,SW66*
X301556250Y-119340000D03*
X311716250Y-119340000D03*
D12*
X306636250Y-119340000D03*
D13*
X310446250Y-121880000D03*
X304096250Y-124420000D03*
G04 #@! TD*
D15*
G04 #@! TO.C,cr18*
X377900001Y-52240001D03*
G04 #@! TD*
D16*
G04 #@! TO.C,cr11*
X238930001Y-52240001D03*
G04 #@! TD*
G04 #@! TO.C,cr16*
X334180001Y-52240001D03*
G04 #@! TD*
G04 #@! TO.C,cr12*
X257980001Y-52240001D03*
G04 #@! TD*
G04 #@! TO.C,cr14*
X296080001Y-52240001D03*
G04 #@! TD*
G04 #@! TO.C,cr13*
X277030001Y-52240001D03*
G04 #@! TD*
G04 #@! TO.C,cr15*
X315130001Y-52240001D03*
G04 #@! TD*
G04 #@! TO.C,cr17*
X353230001Y-52240001D03*
G04 #@! TD*
D17*
G04 #@! TO.C,h15*
X328070000Y-90790000D03*
G04 #@! TD*
G04 #@! TO.C,h14*
X251870000Y-90800000D03*
G04 #@! TD*
G04 #@! TO.C,h13*
X389710000Y-54960000D03*
G04 #@! TD*
G04 #@! TO.C,h12*
X237590000Y-54920000D03*
G04 #@! TD*
G04 #@! TO.C,h10*
X211260000Y-32870000D03*
G04 #@! TD*
G04 #@! TO.C,h11*
X389730000Y-32870000D03*
G04 #@! TD*
G04 #@! TO.C,h17*
X389720000Y-129610000D03*
G04 #@! TD*
D11*
G04 #@! TO.C,SW62*
X334892750Y-100290000D03*
X345052750Y-100290000D03*
D12*
X339972750Y-100290000D03*
D13*
X343782750Y-102830000D03*
X337432750Y-105370000D03*
G04 #@! TD*
D11*
G04 #@! TO.C,SW67*
X337274000Y-119340000D03*
X347434000Y-119340000D03*
D12*
X342354000Y-119340000D03*
D13*
X346164000Y-121880000D03*
X339814000Y-124420000D03*
G04 #@! TD*
D11*
G04 #@! TO.C,SW68*
X356324000Y-119340000D03*
X366484000Y-119340000D03*
D12*
X361404000Y-119340000D03*
D13*
X365214000Y-121880000D03*
X358864000Y-124420000D03*
G04 #@! TD*
D18*
G04 #@! TO.C,SW_r1*
X362290000Y-73090000D03*
X362290000Y-78170000D03*
X369910000Y-73090000D03*
X369910000Y-78170000D03*
G04 #@! TD*
D19*
G04 #@! TO.C,U1*
X387200000Y-108570000D03*
X384660000Y-108570000D03*
X382120000Y-108570000D03*
X379580000Y-108570000D03*
X377040000Y-108570000D03*
X374500000Y-108570000D03*
X371960000Y-108570000D03*
X369420000Y-108570000D03*
X366880000Y-108570000D03*
X364340000Y-108570000D03*
X361800000Y-108570000D03*
X359260000Y-108570000D03*
X359260000Y-93330000D03*
X361800000Y-93330000D03*
X364340000Y-93330000D03*
X366880000Y-93330000D03*
X369420000Y-93330000D03*
X371960000Y-93330000D03*
X374500000Y-93330000D03*
X377040000Y-93330000D03*
X379580000Y-93330000D03*
X382120000Y-93330000D03*
X384660000Y-93330000D03*
D20*
X387200000Y-93330000D03*
G04 #@! TD*
D21*
G04 #@! TO.C,J1*
X388480000Y-74815000D03*
X381480000Y-74815000D03*
D22*
X386680000Y-72665000D03*
X383680000Y-72665000D03*
X379680000Y-72665000D03*
X378180000Y-76965000D03*
G04 #@! TD*
D17*
G04 #@! TO.C,h16*
X225540000Y-129610000D03*
G04 #@! TD*
D11*
G04 #@! TO.C,SW45*
X337275000Y-62190000D03*
X347435000Y-62190000D03*
D12*
X342355000Y-62190000D03*
D13*
X346165000Y-64730000D03*
X339815000Y-67270000D03*
G04 #@! TD*
D11*
G04 #@! TO.C,SW46*
X356325000Y-62190000D03*
X366485000Y-62190000D03*
D12*
X361405000Y-62190000D03*
D13*
X365215000Y-64730000D03*
X358865000Y-67270000D03*
G04 #@! TD*
D11*
G04 #@! TO.C,SW47*
X375375000Y-62190000D03*
X385535000Y-62190000D03*
D12*
X380455000Y-62190000D03*
D13*
X384265000Y-64730000D03*
X377915000Y-67270000D03*
G04 #@! TD*
D11*
G04 #@! TO.C,SW58*
X256312000Y-100290000D03*
X266472000Y-100290000D03*
D12*
X261392000Y-100290000D03*
D13*
X265202000Y-102830000D03*
X258852000Y-105370000D03*
G04 #@! TD*
D11*
G04 #@! TO.C,SW59*
X275362000Y-100290000D03*
X285522000Y-100290000D03*
D12*
X280442000Y-100290000D03*
D13*
X284252000Y-102830000D03*
X277902000Y-105370000D03*
G04 #@! TD*
D11*
G04 #@! TO.C,SW35*
X289650000Y-43140000D03*
X299810000Y-43140000D03*
D12*
X294730000Y-43140000D03*
D13*
X298540000Y-45680000D03*
X292190000Y-48220000D03*
G04 #@! TD*
D11*
G04 #@! TO.C,SW38*
X346800000Y-43140000D03*
X356960000Y-43140000D03*
D12*
X351880000Y-43140000D03*
D13*
X355690000Y-45680000D03*
X349340000Y-48220000D03*
G04 #@! TD*
D11*
G04 #@! TO.C,SW39*
X222975000Y-62190000D03*
X233135000Y-62190000D03*
D12*
X228055000Y-62190000D03*
D13*
X231865000Y-64730000D03*
X225515000Y-67270000D03*
G04 #@! TD*
D11*
G04 #@! TO.C,SW36*
X308700000Y-43140000D03*
X318860000Y-43140000D03*
D12*
X313780000Y-43140000D03*
D13*
X317590000Y-45680000D03*
X311240000Y-48220000D03*
G04 #@! TD*
D11*
G04 #@! TO.C,SW64*
X227737000Y-119340000D03*
X237897000Y-119340000D03*
D12*
X232817000Y-119340000D03*
D13*
X236627000Y-121880000D03*
X230277000Y-124420000D03*
G04 #@! TD*
D11*
G04 #@! TO.C,SW65*
X263456250Y-119340000D03*
X273616250Y-119340000D03*
D12*
X268536250Y-119340000D03*
D13*
X272346250Y-121880000D03*
X265996250Y-124420000D03*
G04 #@! TD*
D11*
G04 #@! TO.C,SW60*
X294412000Y-100290000D03*
X304572000Y-100290000D03*
D12*
X299492000Y-100290000D03*
D13*
X303302000Y-102830000D03*
X296952000Y-105370000D03*
G04 #@! TD*
D11*
G04 #@! TO.C,SW61*
X313462000Y-100290000D03*
X323622000Y-100290000D03*
D12*
X318542000Y-100290000D03*
D13*
X322352000Y-102830000D03*
X316002000Y-105370000D03*
G04 #@! TD*
D11*
G04 #@! TO.C,SW41*
X261075000Y-62190000D03*
X271235000Y-62190000D03*
D12*
X266155000Y-62190000D03*
D13*
X269965000Y-64730000D03*
X263615000Y-67270000D03*
G04 #@! TD*
D11*
G04 #@! TO.C,SW63*
X356324000Y-100290000D03*
X366484000Y-100290000D03*
D12*
X361404000Y-100290000D03*
D13*
X365214000Y-102830000D03*
X358864000Y-105370000D03*
G04 #@! TD*
D11*
G04 #@! TO.C,SW44*
X318225000Y-62190000D03*
X328385000Y-62190000D03*
D12*
X323305000Y-62190000D03*
D13*
X327115000Y-64730000D03*
X320765000Y-67270000D03*
G04 #@! TD*
D11*
G04 #@! TO.C,SW37*
X327750000Y-43140000D03*
X337910000Y-43140000D03*
D12*
X332830000Y-43140000D03*
D13*
X336640000Y-45680000D03*
X330290000Y-48220000D03*
G04 #@! TD*
D11*
G04 #@! TO.C,SW43*
X299175000Y-62190000D03*
X309335000Y-62190000D03*
D12*
X304255000Y-62190000D03*
D13*
X308065000Y-64730000D03*
X301715000Y-67270000D03*
G04 #@! TD*
D11*
G04 #@! TO.C,SW31*
X213450000Y-43140000D03*
X223610000Y-43140000D03*
D12*
X218530000Y-43140000D03*
D13*
X222340000Y-45680000D03*
X215990000Y-48220000D03*
G04 #@! TD*
D11*
G04 #@! TO.C,SW40*
X242025000Y-62190000D03*
X252185000Y-62190000D03*
D12*
X247105000Y-62190000D03*
D13*
X250915000Y-64730000D03*
X244565000Y-67270000D03*
G04 #@! TD*
D11*
G04 #@! TO.C,SW42*
X280125000Y-62190000D03*
X290285000Y-62190000D03*
D12*
X285205000Y-62190000D03*
D13*
X289015000Y-64730000D03*
X282665000Y-67270000D03*
G04 #@! TD*
D11*
G04 #@! TO.C,SW32*
X232500000Y-43140000D03*
X242660000Y-43140000D03*
D12*
X237580000Y-43140000D03*
D13*
X241390000Y-45680000D03*
X235040000Y-48220000D03*
G04 #@! TD*
D11*
G04 #@! TO.C,SW33*
X251550000Y-43140000D03*
X261710000Y-43140000D03*
D12*
X256630000Y-43140000D03*
D13*
X260440000Y-45680000D03*
X254090000Y-48220000D03*
G04 #@! TD*
D11*
G04 #@! TO.C,SW34*
X270600000Y-43140000D03*
X280760000Y-43140000D03*
D12*
X275680000Y-43140000D03*
D13*
X279490000Y-45680000D03*
X273140000Y-48220000D03*
G04 #@! TD*
D11*
G04 #@! TO.C,SW57*
X237262000Y-100290000D03*
X247422000Y-100290000D03*
D12*
X242342000Y-100290000D03*
D13*
X246152000Y-102830000D03*
X239802000Y-105370000D03*
G04 #@! TD*
D11*
G04 #@! TO.C,SW48*
X227732000Y-81240000D03*
X237892000Y-81240000D03*
D12*
X232812000Y-81240000D03*
D13*
X236622000Y-83780000D03*
X230272000Y-86320000D03*
G04 #@! TD*
D11*
G04 #@! TO.C,SW53*
X322987000Y-81240000D03*
X333147000Y-81240000D03*
D12*
X328067000Y-81240000D03*
D13*
X331877000Y-83780000D03*
X325527000Y-86320000D03*
G04 #@! TD*
D11*
G04 #@! TO.C,SW69*
X375375000Y-119340000D03*
X385535000Y-119340000D03*
D12*
X380455000Y-119340000D03*
D13*
X384265000Y-121880000D03*
X377915000Y-124420000D03*
G04 #@! TD*
D11*
G04 #@! TO.C,SW49*
X246787000Y-81240000D03*
X256947000Y-81240000D03*
D12*
X251867000Y-81240000D03*
D13*
X255677000Y-83780000D03*
X249327000Y-86320000D03*
G04 #@! TD*
D11*
G04 #@! TO.C,SW50*
X265837000Y-81240000D03*
X275997000Y-81240000D03*
D12*
X270917000Y-81240000D03*
D13*
X274727000Y-83780000D03*
X268377000Y-86320000D03*
G04 #@! TD*
D11*
G04 #@! TO.C,SW55*
X375375000Y-81240000D03*
X385535000Y-81240000D03*
D12*
X380455000Y-81240000D03*
D13*
X384265000Y-83780000D03*
X377915000Y-86320000D03*
G04 #@! TD*
M02*
