%FSLAX45Y45*%
G04 Gerber Fmt 4.5, Leading zero omitted, Abs format (unit mm)*
G04 Created by KiCad (PCBNEW (5.0.0-3-g5ebb6b6)) date *
%MOMM*%
%LPD*%
G01*
G04 APERTURE LIST*
%ADD10C,0.150000*%
%ADD11C,0.200000*%
%ADD12C,0.300000*%
G04 APERTURE END LIST*
D10*
X39198000Y-3061000D02*
X39198000Y-13186000D01*
X20900000Y-3061000D02*
X39198000Y-3061000D01*
X20900000Y-5266000D02*
X20900000Y-3061000D01*
X21853000Y-5266000D02*
X20900000Y-5266000D01*
X21853000Y-7171000D02*
X21853000Y-5266000D01*
X22329000Y-7171000D02*
X21853000Y-7171000D01*
X22328000Y-9076000D02*
X22329000Y-7171000D01*
X21376000Y-9076000D02*
X22328000Y-9076000D01*
X21376000Y-10981000D02*
X21376000Y-9076000D01*
X22329000Y-10981000D02*
X21376000Y-10981000D01*
X22329000Y-13186000D02*
X22329000Y-10981000D01*
X39198000Y-13186000D02*
X22329000Y-13186000D01*
D11*
X21896000Y-3396000D02*
X21936000Y-3436000D01*
X21936000Y-3396000D02*
X21896000Y-3436000D01*
X22053000Y-9623000D02*
X22093000Y-9663000D01*
X22093000Y-9623000D02*
X22053000Y-9663000D01*
X22117000Y-4887000D02*
X22157000Y-4927000D01*
X22157000Y-4887000D02*
X22117000Y-4927000D01*
X22501000Y-5868000D02*
X22541000Y-5908000D01*
X22541000Y-5868000D02*
X22501000Y-5908000D01*
X22501000Y-10596000D02*
X22541000Y-10636000D01*
X22541000Y-10596000D02*
X22501000Y-10636000D01*
X22892000Y-11549000D02*
X22932000Y-11589000D01*
X22932000Y-11549000D02*
X22892000Y-11589000D01*
X22931000Y-5016000D02*
X22971000Y-5056000D01*
X22971000Y-5016000D02*
X22931000Y-5056000D01*
X22949000Y-7688000D02*
X22989000Y-7728000D01*
X22989000Y-7688000D02*
X22949000Y-7728000D01*
X23168000Y-6849000D02*
X23208000Y-6889000D01*
X23208000Y-6849000D02*
X23168000Y-6889000D01*
X23477000Y-9552000D02*
X23517000Y-9592000D01*
X23517000Y-9552000D02*
X23477000Y-9592000D01*
X23482000Y-9272000D02*
X23522000Y-9312000D01*
X23522000Y-9272000D02*
X23482000Y-9312000D01*
X23530000Y-8746000D02*
X23570000Y-8786000D01*
X23570000Y-8746000D02*
X23530000Y-8786000D01*
X23540000Y-12559000D02*
X23580000Y-12599000D01*
X23580000Y-12559000D02*
X23540000Y-12599000D01*
X23798000Y-3382000D02*
X23838000Y-3422000D01*
X23838000Y-3382000D02*
X23798000Y-3422000D01*
X23892000Y-9652000D02*
X23932000Y-9692000D01*
X23932000Y-9652000D02*
X23892000Y-9692000D01*
X24039000Y-6396000D02*
X24079000Y-6436000D01*
X24079000Y-6396000D02*
X24039000Y-6436000D01*
X24043000Y-4887000D02*
X24083000Y-4927000D01*
X24083000Y-4887000D02*
X24043000Y-4927000D01*
X24368000Y-7684000D02*
X24408000Y-7724000D01*
X24408000Y-7684000D02*
X24368000Y-7724000D01*
X24372000Y-7357000D02*
X24412000Y-7397000D01*
X24412000Y-7357000D02*
X24372000Y-7397000D01*
X24379000Y-10529000D02*
X24419000Y-10569000D01*
X24419000Y-10529000D02*
X24379000Y-10569000D01*
X24388000Y-5896000D02*
X24428000Y-5936000D01*
X24428000Y-5896000D02*
X24388000Y-5936000D01*
X24824000Y-5029000D02*
X24864000Y-5069000D01*
X24864000Y-5029000D02*
X24824000Y-5069000D01*
X24855000Y-7698000D02*
X24895000Y-7738000D01*
X24895000Y-7698000D02*
X24855000Y-7738000D01*
X24922000Y-12054000D02*
X24962000Y-12094000D01*
X24962000Y-12054000D02*
X24922000Y-12094000D01*
X25046000Y-6849000D02*
X25086000Y-6889000D01*
X25086000Y-6849000D02*
X25046000Y-6889000D01*
X25442000Y-9567000D02*
X25482000Y-9607000D01*
X25482000Y-9567000D02*
X25442000Y-9607000D01*
X25447000Y-9277000D02*
X25487000Y-9317000D01*
X25487000Y-9277000D02*
X25447000Y-9317000D01*
X25494000Y-8775000D02*
X25534000Y-8815000D01*
X25534000Y-8775000D02*
X25494000Y-8815000D01*
X25543000Y-11148000D02*
X25583000Y-11188000D01*
X25583000Y-11148000D02*
X25543000Y-11188000D01*
X25543000Y-11438000D02*
X25583000Y-11478000D01*
X25583000Y-11438000D02*
X25543000Y-11478000D01*
X25671000Y-3382000D02*
X25711000Y-3422000D01*
X25711000Y-3382000D02*
X25671000Y-3422000D01*
X25789000Y-9680000D02*
X25829000Y-9720000D01*
X25829000Y-9680000D02*
X25789000Y-9720000D01*
X25924000Y-6379000D02*
X25964000Y-6419000D01*
X25964000Y-6379000D02*
X25924000Y-6419000D01*
X25969000Y-4887000D02*
X26009000Y-4927000D01*
X26009000Y-4887000D02*
X25969000Y-4927000D01*
X26199000Y-5868000D02*
X26239000Y-5908000D01*
X26239000Y-5868000D02*
X26199000Y-5908000D01*
X26237000Y-10519000D02*
X26277000Y-10559000D01*
X26277000Y-10519000D02*
X26237000Y-10559000D01*
X26269000Y-7381000D02*
X26309000Y-7421000D01*
X26309000Y-7381000D02*
X26269000Y-7421000D01*
X26269000Y-7655000D02*
X26309000Y-7695000D01*
X26309000Y-7655000D02*
X26269000Y-7695000D01*
X26409000Y-11482000D02*
X26449000Y-11522000D01*
X26449000Y-11482000D02*
X26409000Y-11522000D01*
X26735000Y-5032000D02*
X26775000Y-5072000D01*
X26775000Y-5032000D02*
X26735000Y-5072000D01*
X26771000Y-7698000D02*
X26811000Y-7738000D01*
X26811000Y-7698000D02*
X26771000Y-7738000D01*
X26914000Y-6849000D02*
X26954000Y-6889000D01*
X26954000Y-6849000D02*
X26914000Y-6889000D01*
X27038000Y-12521000D02*
X27078000Y-12561000D01*
X27078000Y-12521000D02*
X27038000Y-12561000D01*
X27298000Y-9307000D02*
X27338000Y-9347000D01*
X27338000Y-9307000D02*
X27298000Y-9347000D01*
X27303000Y-9572000D02*
X27343000Y-9612000D01*
X27343000Y-9572000D02*
X27303000Y-9612000D01*
X27305000Y-8765000D02*
X27345000Y-8805000D01*
X27345000Y-8765000D02*
X27305000Y-8805000D01*
X27600000Y-3410000D02*
X27640000Y-3450000D01*
X27640000Y-3410000D02*
X27600000Y-3450000D01*
X27744000Y-9642000D02*
X27784000Y-9682000D01*
X27784000Y-9642000D02*
X27744000Y-9682000D01*
X27817000Y-6377000D02*
X27857000Y-6417000D01*
X27857000Y-6377000D02*
X27817000Y-6417000D01*
X27855000Y-4901000D02*
X27895000Y-4941000D01*
X27895000Y-4901000D02*
X27855000Y-4941000D01*
X27949000Y-11457000D02*
X27989000Y-11497000D01*
X27989000Y-11457000D02*
X27949000Y-11497000D01*
X27953000Y-11203000D02*
X27993000Y-11243000D01*
X27993000Y-11203000D02*
X27953000Y-11243000D01*
X28134000Y-5858000D02*
X28174000Y-5898000D01*
X28174000Y-5858000D02*
X28134000Y-5898000D01*
X28134000Y-10519000D02*
X28174000Y-10559000D01*
X28174000Y-10519000D02*
X28134000Y-10559000D01*
X28191000Y-7349000D02*
X28231000Y-7389000D01*
X28231000Y-7349000D02*
X28191000Y-7389000D01*
X28196000Y-7681000D02*
X28236000Y-7721000D01*
X28236000Y-7681000D02*
X28196000Y-7721000D01*
X28633000Y-5065000D02*
X28673000Y-5105000D01*
X28673000Y-5065000D02*
X28633000Y-5105000D01*
X28649000Y-7726000D02*
X28689000Y-7766000D01*
X28689000Y-7726000D02*
X28649000Y-7766000D01*
X28716000Y-11902000D02*
X28756000Y-11942000D01*
X28756000Y-11902000D02*
X28716000Y-11942000D01*
X28859000Y-6868000D02*
X28899000Y-6908000D01*
X28899000Y-6868000D02*
X28859000Y-6908000D01*
X29202000Y-8746000D02*
X29242000Y-8786000D01*
X29242000Y-8746000D02*
X29202000Y-8786000D01*
X29206000Y-9553000D02*
X29246000Y-9593000D01*
X29246000Y-9553000D02*
X29206000Y-9593000D01*
X29209000Y-9279000D02*
X29249000Y-9319000D01*
X29249000Y-9279000D02*
X29209000Y-9319000D01*
X29293000Y-10802000D02*
X29333000Y-10842000D01*
X29333000Y-10802000D02*
X29293000Y-10842000D01*
X29488000Y-3396000D02*
X29528000Y-3436000D01*
X29528000Y-3396000D02*
X29488000Y-3436000D01*
X29555000Y-9652000D02*
X29595000Y-9692000D01*
X29595000Y-9652000D02*
X29555000Y-9692000D01*
X29748000Y-6414000D02*
X29788000Y-6454000D01*
X29788000Y-6414000D02*
X29748000Y-6454000D01*
X29794000Y-4914000D02*
X29834000Y-4954000D01*
X29834000Y-4914000D02*
X29794000Y-4954000D01*
X30031000Y-5868000D02*
X30071000Y-5908000D01*
X30071000Y-5868000D02*
X30031000Y-5908000D01*
X30031000Y-10510000D02*
X30071000Y-10550000D01*
X30071000Y-10510000D02*
X30031000Y-10550000D01*
X30088000Y-7379000D02*
X30128000Y-7419000D01*
X30128000Y-7379000D02*
X30088000Y-7419000D01*
X30090000Y-7665000D02*
X30130000Y-7705000D01*
X30130000Y-7665000D02*
X30090000Y-7705000D01*
X30231000Y-11473000D02*
X30271000Y-11513000D01*
X30271000Y-11473000D02*
X30231000Y-11513000D01*
X30537000Y-5026000D02*
X30577000Y-5066000D01*
X30577000Y-5026000D02*
X30537000Y-5066000D01*
X30584000Y-7717000D02*
X30624000Y-7757000D01*
X30624000Y-7717000D02*
X30584000Y-7757000D01*
X30779000Y-6850000D02*
X30819000Y-6890000D01*
X30819000Y-6850000D02*
X30779000Y-6890000D01*
X30851000Y-12502000D02*
X30891000Y-12542000D01*
X30891000Y-12502000D02*
X30851000Y-12542000D01*
X31026000Y-10936000D02*
X31066000Y-10976000D01*
X31066000Y-10936000D02*
X31026000Y-10976000D01*
X31080000Y-8775000D02*
X31120000Y-8815000D01*
X31120000Y-8775000D02*
X31080000Y-8815000D01*
X31103000Y-9293000D02*
X31143000Y-9333000D01*
X31143000Y-9293000D02*
X31103000Y-9333000D01*
X31107000Y-9567000D02*
X31147000Y-9607000D01*
X31147000Y-9567000D02*
X31107000Y-9607000D01*
X31319000Y-3410000D02*
X31359000Y-3450000D01*
X31359000Y-3410000D02*
X31319000Y-3450000D01*
X31480000Y-9652000D02*
X31520000Y-9692000D01*
X31520000Y-9652000D02*
X31480000Y-9692000D01*
X31602000Y-11438000D02*
X31642000Y-11478000D01*
X31642000Y-11438000D02*
X31602000Y-11478000D01*
X31649000Y-6404000D02*
X31689000Y-6444000D01*
X31689000Y-6404000D02*
X31649000Y-6444000D01*
X31653000Y-4901000D02*
X31693000Y-4941000D01*
X31693000Y-4901000D02*
X31653000Y-4941000D01*
X31871000Y-5848000D02*
X31911000Y-5888000D01*
X31911000Y-5848000D02*
X31871000Y-5888000D01*
X31957000Y-10491000D02*
X31997000Y-10531000D01*
X31997000Y-10491000D02*
X31957000Y-10531000D01*
X32013000Y-7651000D02*
X32053000Y-7691000D01*
X32053000Y-7651000D02*
X32013000Y-7691000D01*
X32017000Y-7347000D02*
X32057000Y-7387000D01*
X32057000Y-7347000D02*
X32017000Y-7387000D01*
X32348000Y-7698000D02*
X32388000Y-7738000D01*
X32388000Y-7698000D02*
X32348000Y-7738000D01*
X32439000Y-5039000D02*
X32479000Y-5079000D01*
X32479000Y-5039000D02*
X32439000Y-5079000D01*
X32596000Y-11911000D02*
X32636000Y-11951000D01*
X32636000Y-11911000D02*
X32596000Y-11951000D01*
X32629000Y-6841000D02*
X32669000Y-6881000D01*
X32669000Y-6841000D02*
X32629000Y-6881000D01*
X33101000Y-8746000D02*
X33141000Y-8786000D01*
X33141000Y-8746000D02*
X33101000Y-8786000D01*
X33207000Y-3396000D02*
X33247000Y-3436000D01*
X33247000Y-3396000D02*
X33207000Y-3436000D01*
X33230000Y-9539000D02*
X33270000Y-9579000D01*
X33270000Y-9539000D02*
X33230000Y-9579000D01*
X33560000Y-6385000D02*
X33600000Y-6425000D01*
X33600000Y-6385000D02*
X33560000Y-6425000D01*
X33579000Y-4914000D02*
X33619000Y-4954000D01*
X33619000Y-4914000D02*
X33579000Y-4954000D01*
X33580000Y-7003000D02*
X33620000Y-7043000D01*
X33620000Y-7003000D02*
X33580000Y-7043000D01*
X33663000Y-9671000D02*
X33703000Y-9711000D01*
X33703000Y-9671000D02*
X33663000Y-9711000D01*
X33720000Y-7111000D02*
X33760000Y-7151000D01*
X33760000Y-7111000D02*
X33720000Y-7151000D01*
X33720000Y-7491000D02*
X33760000Y-7531000D01*
X33760000Y-7491000D02*
X33720000Y-7531000D01*
X33787000Y-11511000D02*
X33827000Y-11551000D01*
X33827000Y-11511000D02*
X33787000Y-11551000D01*
X33816000Y-5858000D02*
X33856000Y-5898000D01*
X33856000Y-5858000D02*
X33816000Y-5898000D01*
X33926000Y-8356000D02*
X33966000Y-8396000D01*
X33966000Y-8356000D02*
X33926000Y-8396000D01*
X34092000Y-10491000D02*
X34132000Y-10531000D01*
X34132000Y-10491000D02*
X34092000Y-10531000D01*
X34291000Y-7302000D02*
X34331000Y-7342000D01*
X34331000Y-7302000D02*
X34291000Y-7342000D01*
X34301000Y-3976000D02*
X34341000Y-4016000D01*
X34341000Y-3976000D02*
X34301000Y-4016000D01*
X34365000Y-7755000D02*
X34405000Y-7795000D01*
X34405000Y-7755000D02*
X34365000Y-7795000D01*
X34388000Y-12502000D02*
X34428000Y-12542000D01*
X34428000Y-12502000D02*
X34388000Y-12542000D01*
X34488000Y-8627000D02*
X34528000Y-8667000D01*
X34528000Y-8627000D02*
X34488000Y-8667000D01*
X34510000Y-7069000D02*
X34550000Y-7109000D01*
X34550000Y-7069000D02*
X34510000Y-7109000D01*
X34590000Y-7765000D02*
X34630000Y-7805000D01*
X34630000Y-7765000D02*
X34590000Y-7805000D01*
X34610000Y-6813000D02*
X34650000Y-6853000D01*
X34650000Y-6813000D02*
X34610000Y-6853000D01*
X35035000Y-9242000D02*
X35075000Y-9282000D01*
X35075000Y-9242000D02*
X35035000Y-9282000D01*
X35049000Y-12466000D02*
X35089000Y-12506000D01*
X35089000Y-12466000D02*
X35049000Y-12506000D01*
X35108000Y-3396000D02*
X35148000Y-3436000D01*
X35148000Y-3396000D02*
X35108000Y-3436000D01*
X35201000Y-6825000D02*
X35241000Y-6865000D01*
X35241000Y-6825000D02*
X35201000Y-6865000D01*
X35260000Y-5458000D02*
X35300000Y-5498000D01*
X35300000Y-5458000D02*
X35260000Y-5498000D01*
X35260000Y-5695000D02*
X35300000Y-5735000D01*
X35300000Y-5695000D02*
X35260000Y-5735000D01*
X35408000Y-7669000D02*
X35448000Y-7709000D01*
X35448000Y-7669000D02*
X35408000Y-7709000D01*
X35409000Y-9035000D02*
X35449000Y-9075000D01*
X35449000Y-9035000D02*
X35409000Y-9075000D01*
X35485500Y-6455500D02*
X35525500Y-6495500D01*
X35525500Y-6455500D02*
X35485500Y-6495500D01*
X35546000Y-4928000D02*
X35586000Y-4968000D01*
X35586000Y-4928000D02*
X35546000Y-4968000D01*
X35636000Y-5848000D02*
X35676000Y-5888000D01*
X35676000Y-5848000D02*
X35636000Y-5888000D01*
X35646000Y-11520000D02*
X35686000Y-11560000D01*
X35686000Y-11520000D02*
X35646000Y-11560000D01*
X36246000Y-10453000D02*
X36286000Y-10493000D01*
X36286000Y-10453000D02*
X36246000Y-10493000D01*
X36285000Y-12502000D02*
X36325000Y-12542000D01*
X36325000Y-12502000D02*
X36285000Y-12542000D01*
X36445000Y-11441000D02*
X36485000Y-11481000D01*
X36485000Y-11441000D02*
X36445000Y-11481000D01*
X36476000Y-8697000D02*
X36516000Y-8737000D01*
X36516000Y-8697000D02*
X36476000Y-8737000D01*
X36485000Y-8826000D02*
X36525000Y-8866000D01*
X36525000Y-8826000D02*
X36485000Y-8866000D01*
X36531000Y-8165000D02*
X36571000Y-8205000D01*
X36571000Y-8165000D02*
X36531000Y-8205000D01*
X36675000Y-6776000D02*
X36715000Y-6816000D01*
X36715000Y-6776000D02*
X36675000Y-6816000D01*
X36914000Y-12547000D02*
X36954000Y-12587000D01*
X36954000Y-12547000D02*
X36914000Y-12587000D01*
X37035000Y-7073000D02*
X37075000Y-7113000D01*
X37075000Y-7073000D02*
X37035000Y-7113000D01*
X37097000Y-8611000D02*
X37137000Y-8651000D01*
X37137000Y-8611000D02*
X37097000Y-8651000D01*
X37123000Y-11140000D02*
X37163000Y-11180000D01*
X37163000Y-11140000D02*
X37123000Y-11180000D01*
X37123000Y-11425000D02*
X37163000Y-11465000D01*
X37163000Y-11425000D02*
X37123000Y-11465000D01*
X37171000Y-5839000D02*
X37211000Y-5879000D01*
X37211000Y-5839000D02*
X37171000Y-5879000D01*
X37206000Y-7245000D02*
X37246000Y-7285000D01*
X37246000Y-7245000D02*
X37206000Y-7285000D01*
X37235000Y-12675000D02*
X37275000Y-12715000D01*
X37275000Y-12675000D02*
X37235000Y-12715000D01*
X37360000Y-12689000D02*
X37400000Y-12729000D01*
X37400000Y-12689000D02*
X37360000Y-12729000D01*
X37427000Y-8931000D02*
X37467000Y-8971000D01*
X37467000Y-8931000D02*
X37427000Y-8971000D01*
X37451000Y-9625000D02*
X37491000Y-9665000D01*
X37491000Y-9625000D02*
X37451000Y-9665000D01*
X37515000Y-12681000D02*
X37555000Y-12721000D01*
X37555000Y-12681000D02*
X37515000Y-12721000D01*
X37745000Y-3410000D02*
X37785000Y-3450000D01*
X37785000Y-3410000D02*
X37745000Y-3450000D01*
X37773000Y-4617000D02*
X37813000Y-4657000D01*
X37813000Y-4617000D02*
X37773000Y-4657000D01*
X37867000Y-10157000D02*
X37907000Y-10197000D01*
X37907000Y-10157000D02*
X37867000Y-10197000D01*
X37991000Y-11558000D02*
X38031000Y-11598000D01*
X38031000Y-11558000D02*
X37991000Y-11598000D01*
X38096000Y-8508000D02*
X38136000Y-8548000D01*
X38136000Y-8508000D02*
X38096000Y-8548000D01*
X38220000Y-12569000D02*
X38260000Y-12609000D01*
X38260000Y-12569000D02*
X38220000Y-12609000D01*
X38357000Y-6804000D02*
X38397000Y-6844000D01*
X38397000Y-6804000D02*
X38357000Y-6844000D01*
X38444000Y-9070000D02*
X38484000Y-9110000D01*
X38484000Y-9070000D02*
X38444000Y-9110000D01*
X38526000Y-9547000D02*
X38566000Y-9587000D01*
X38566000Y-9547000D02*
X38526000Y-9587000D01*
X38899000Y-9462000D02*
X38939000Y-9502000D01*
X38939000Y-9462000D02*
X38899000Y-9502000D01*
X36269640Y-7309000D02*
G75*
G03X36269640Y-7309000I-40640J0D01*
G01*
X36269640Y-7817000D02*
G75*
G03X36269640Y-7817000I-40640J0D01*
G01*
X37031640Y-7309000D02*
G75*
G03X37031640Y-7309000I-40640J0D01*
G01*
X37031640Y-7817000D02*
G75*
G03X37031640Y-7817000I-40640J0D01*
G01*
X37818000Y-7646500D02*
X37818000Y-7746500D01*
X37768000Y-7696500D02*
X37868000Y-7696500D01*
X37843000Y-7656500D02*
X37793000Y-7656500D01*
X37843000Y-7736500D02*
X37793000Y-7736500D01*
X37793000Y-7656500D02*
G75*
G03X37793000Y-7736500I0J-40000D01*
G01*
X37843000Y-7736500D02*
G75*
G03X37843000Y-7656500I0J40000D01*
G01*
X37968000Y-7216500D02*
X37968000Y-7316500D01*
X37918000Y-7266500D02*
X38018000Y-7266500D01*
X37993000Y-7226500D02*
X37943000Y-7226500D01*
X37993000Y-7306500D02*
X37943000Y-7306500D01*
X37943000Y-7226500D02*
G75*
G03X37943000Y-7306500I0J-40000D01*
G01*
X37993000Y-7306500D02*
G75*
G03X37993000Y-7226500I0J40000D01*
G01*
X38368000Y-7216500D02*
X38368000Y-7316500D01*
X38318000Y-7266500D02*
X38418000Y-7266500D01*
X38393000Y-7226500D02*
X38343000Y-7226500D01*
X38393000Y-7306500D02*
X38343000Y-7306500D01*
X38343000Y-7226500D02*
G75*
G03X38343000Y-7306500I0J-40000D01*
G01*
X38393000Y-7306500D02*
G75*
G03X38393000Y-7226500I0J40000D01*
G01*
X38668000Y-7216500D02*
X38668000Y-7316500D01*
X38618000Y-7266500D02*
X38718000Y-7266500D01*
X38693000Y-7226500D02*
X38643000Y-7226500D01*
X38693000Y-7306500D02*
X38643000Y-7306500D01*
X38643000Y-7226500D02*
G75*
G03X38643000Y-7306500I0J-40000D01*
G01*
X38693000Y-7306500D02*
G75*
G03X38693000Y-7226500I0J40000D01*
G01*
X35964891Y-9371891D02*
X35964891Y-9294109D01*
X35887109Y-9294109D01*
X35887109Y-9371891D01*
X35964891Y-9371891D01*
X35964891Y-10895891D02*
X35964891Y-10818109D01*
X35887109Y-10818109D01*
X35887109Y-10895891D01*
X35964891Y-10895891D01*
X36218891Y-9371891D02*
X36218891Y-9294109D01*
X36141109Y-9294109D01*
X36141109Y-9371891D01*
X36218891Y-9371891D01*
X36218891Y-10895891D02*
X36218891Y-10818109D01*
X36141109Y-10818109D01*
X36141109Y-10895891D01*
X36218891Y-10895891D01*
X36472891Y-9371891D02*
X36472891Y-9294109D01*
X36395109Y-9294109D01*
X36395109Y-9371891D01*
X36472891Y-9371891D01*
X36472891Y-10895891D02*
X36472891Y-10818109D01*
X36395109Y-10818109D01*
X36395109Y-10895891D01*
X36472891Y-10895891D01*
X36726891Y-9371891D02*
X36726891Y-9294109D01*
X36649109Y-9294109D01*
X36649109Y-9371891D01*
X36726891Y-9371891D01*
X36726891Y-10895891D02*
X36726891Y-10818109D01*
X36649109Y-10818109D01*
X36649109Y-10895891D01*
X36726891Y-10895891D01*
X36980891Y-9371891D02*
X36980891Y-9294109D01*
X36903109Y-9294109D01*
X36903109Y-9371891D01*
X36980891Y-9371891D01*
X36980891Y-10895891D02*
X36980891Y-10818109D01*
X36903109Y-10818109D01*
X36903109Y-10895891D01*
X36980891Y-10895891D01*
X37234891Y-9371891D02*
X37234891Y-9294109D01*
X37157109Y-9294109D01*
X37157109Y-9371891D01*
X37234891Y-9371891D01*
X37234891Y-10895891D02*
X37234891Y-10818109D01*
X37157109Y-10818109D01*
X37157109Y-10895891D01*
X37234891Y-10895891D01*
X37488891Y-9371891D02*
X37488891Y-9294109D01*
X37411109Y-9294109D01*
X37411109Y-9371891D01*
X37488891Y-9371891D01*
X37488891Y-10895891D02*
X37488891Y-10818109D01*
X37411109Y-10818109D01*
X37411109Y-10895891D01*
X37488891Y-10895891D01*
X37742891Y-9371891D02*
X37742891Y-9294109D01*
X37665109Y-9294109D01*
X37665109Y-9371891D01*
X37742891Y-9371891D01*
X37742891Y-10895891D02*
X37742891Y-10818109D01*
X37665109Y-10818109D01*
X37665109Y-10895891D01*
X37742891Y-10895891D01*
X37996891Y-9371891D02*
X37996891Y-9294109D01*
X37919109Y-9294109D01*
X37919109Y-9371891D01*
X37996891Y-9371891D01*
X37996891Y-10895891D02*
X37996891Y-10818109D01*
X37919109Y-10818109D01*
X37919109Y-10895891D01*
X37996891Y-10895891D01*
X38250891Y-9371891D02*
X38250891Y-9294109D01*
X38173109Y-9294109D01*
X38173109Y-9371891D01*
X38250891Y-9371891D01*
X38250891Y-10895891D02*
X38250891Y-10818109D01*
X38173109Y-10818109D01*
X38173109Y-10895891D01*
X38250891Y-10895891D01*
X38504891Y-9371891D02*
X38504891Y-9294109D01*
X38427109Y-9294109D01*
X38427109Y-9371891D01*
X38504891Y-9371891D01*
X38504891Y-10895891D02*
X38504891Y-10818109D01*
X38427109Y-10818109D01*
X38427109Y-10895891D01*
X38504891Y-10895891D01*
X38758891Y-9371891D02*
X38758891Y-9294109D01*
X38681109Y-9294109D01*
X38681109Y-9371891D01*
X38758891Y-9371891D01*
X38758891Y-10895891D02*
X38758891Y-10818109D01*
X38681109Y-10818109D01*
X38681109Y-10895891D01*
X38758891Y-10895891D01*
X25798000Y-5274000D02*
X25848000Y-5224000D01*
X25798000Y-5174000D01*
X25748000Y-5224000D01*
X25798000Y-5274000D01*
X25023000Y-5264000D02*
X26573000Y-5264000D01*
X25023000Y-5184000D02*
X26573000Y-5184000D01*
X26573000Y-5264000D02*
G75*
G03X26573000Y-5184000I0J40000D01*
G01*
X25023000Y-5184000D02*
G75*
G03X25023000Y-5264000I0J-40000D01*
G01*
X22351750Y-5274000D02*
X22401750Y-5224000D01*
X22351750Y-5174000D01*
X22301750Y-5224000D01*
X22351750Y-5274000D01*
X21940500Y-5264000D02*
X22763000Y-5264000D01*
X21940500Y-5184000D02*
X22763000Y-5184000D01*
X22763000Y-5264000D02*
G75*
G03X22763000Y-5184000I0J40000D01*
G01*
X21940500Y-5184000D02*
G75*
G03X21940500Y-5264000I0J-40000D01*
G01*
X33418000Y-5274000D02*
X33468000Y-5224000D01*
X33418000Y-5174000D01*
X33368000Y-5224000D01*
X33418000Y-5274000D01*
X32643000Y-5264000D02*
X34193000Y-5264000D01*
X32643000Y-5184000D02*
X34193000Y-5184000D01*
X34193000Y-5264000D02*
G75*
G03X34193000Y-5184000I0J40000D01*
G01*
X32643000Y-5184000D02*
G75*
G03X32643000Y-5264000I0J-40000D01*
G01*
X23893000Y-5274000D02*
X23943000Y-5224000D01*
X23893000Y-5174000D01*
X23843000Y-5224000D01*
X23893000Y-5274000D01*
X23118000Y-5264000D02*
X24668000Y-5264000D01*
X23118000Y-5184000D02*
X24668000Y-5184000D01*
X24668000Y-5264000D02*
G75*
G03X24668000Y-5184000I0J40000D01*
G01*
X23118000Y-5184000D02*
G75*
G03X23118000Y-5264000I0J-40000D01*
G01*
X31513000Y-5274000D02*
X31563000Y-5224000D01*
X31513000Y-5174000D01*
X31463000Y-5224000D01*
X31513000Y-5274000D01*
X30738000Y-5264000D02*
X32288000Y-5264000D01*
X30738000Y-5184000D02*
X32288000Y-5184000D01*
X32288000Y-5264000D02*
G75*
G03X32288000Y-5184000I0J40000D01*
G01*
X30738000Y-5184000D02*
G75*
G03X30738000Y-5264000I0J-40000D01*
G01*
X37790000Y-5274000D02*
X37840000Y-5224000D01*
X37790000Y-5174000D01*
X37740000Y-5224000D01*
X37790000Y-5274000D01*
X36424500Y-5264000D02*
X39155500Y-5264000D01*
X36424500Y-5184000D02*
X39155500Y-5184000D01*
X39155500Y-5264000D02*
G75*
G03X39155500Y-5184000I0J40000D01*
G01*
X36424500Y-5184000D02*
G75*
G03X36424500Y-5264000I0J-40000D01*
G01*
X27703000Y-5274000D02*
X27753000Y-5224000D01*
X27703000Y-5174000D01*
X27653000Y-5224000D01*
X27703000Y-5274000D01*
X26928000Y-5264000D02*
X28478000Y-5264000D01*
X26928000Y-5184000D02*
X28478000Y-5184000D01*
X28478000Y-5264000D02*
G75*
G03X28478000Y-5184000I0J40000D01*
G01*
X26928000Y-5184000D02*
G75*
G03X26928000Y-5264000I0J-40000D01*
G01*
X29608000Y-5274000D02*
X29658000Y-5224000D01*
X29608000Y-5174000D01*
X29558000Y-5224000D01*
X29608000Y-5274000D01*
X28833000Y-5264000D02*
X30383000Y-5264000D01*
X28833000Y-5184000D02*
X30383000Y-5184000D01*
X30383000Y-5264000D02*
G75*
G03X30383000Y-5184000I0J40000D01*
G01*
X28833000Y-5184000D02*
G75*
G03X28833000Y-5264000I0J-40000D01*
G01*
X35323000Y-5274000D02*
X35373000Y-5224000D01*
X35323000Y-5174000D01*
X35273000Y-5224000D01*
X35323000Y-5274000D01*
X34548000Y-5264000D02*
X36098000Y-5264000D01*
X34548000Y-5184000D02*
X36098000Y-5184000D01*
X36098000Y-5264000D02*
G75*
G03X36098000Y-5184000I0J40000D01*
G01*
X34548000Y-5184000D02*
G75*
G03X34548000Y-5264000I0J-40000D01*
G01*
X38088000Y-7421500D02*
X38208000Y-7541500D01*
X38208000Y-7421500D02*
X38088000Y-7541500D01*
X38208000Y-7481500D02*
G75*
G03X38208000Y-7481500I-60000J0D01*
G01*
X38788000Y-7421500D02*
X38908000Y-7541500D01*
X38908000Y-7421500D02*
X38788000Y-7541500D01*
X38908000Y-7481500D02*
G75*
G03X38908000Y-7481500I-60000J0D01*
G01*
X35544400Y-11846000D02*
X35720400Y-12022000D01*
X35720400Y-11846000D02*
X35544400Y-12022000D01*
X35632400Y-11846000D02*
X35632400Y-12022000D01*
X35544400Y-11934000D02*
X35720400Y-11934000D01*
X36560400Y-11846000D02*
X36736400Y-12022000D01*
X36736400Y-11846000D02*
X36560400Y-12022000D01*
X36648400Y-11846000D02*
X36648400Y-12022000D01*
X36560400Y-11934000D02*
X36736400Y-11934000D01*
X25543200Y-9941000D02*
X25719200Y-10117000D01*
X25719200Y-9941000D02*
X25543200Y-10117000D01*
X25631200Y-9941000D02*
X25631200Y-10117000D01*
X25543200Y-10029000D02*
X25719200Y-10029000D01*
X26559200Y-9941000D02*
X26735200Y-10117000D01*
X26735200Y-9941000D02*
X26559200Y-10117000D01*
X26647200Y-9941000D02*
X26647200Y-10117000D01*
X26559200Y-10029000D02*
X26735200Y-10029000D01*
X35544400Y-9941000D02*
X35720400Y-10117000D01*
X35720400Y-9941000D02*
X35544400Y-10117000D01*
X35632400Y-9941000D02*
X35632400Y-10117000D01*
X35544400Y-10029000D02*
X35720400Y-10029000D01*
X36560400Y-9941000D02*
X36736400Y-10117000D01*
X36736400Y-9941000D02*
X36560400Y-10117000D01*
X36648400Y-9941000D02*
X36648400Y-10117000D01*
X36560400Y-10029000D02*
X36736400Y-10029000D01*
X30305700Y-8036000D02*
X30481700Y-8212000D01*
X30481700Y-8036000D02*
X30305700Y-8212000D01*
X30393700Y-8036000D02*
X30393700Y-8212000D01*
X30305700Y-8124000D02*
X30481700Y-8124000D01*
X31321700Y-8036000D02*
X31497700Y-8212000D01*
X31497700Y-8036000D02*
X31321700Y-8212000D01*
X31409700Y-8036000D02*
X31409700Y-8212000D01*
X31321700Y-8124000D02*
X31497700Y-8124000D01*
X37449500Y-11846000D02*
X37625500Y-12022000D01*
X37625500Y-11846000D02*
X37449500Y-12022000D01*
X37537500Y-11846000D02*
X37537500Y-12022000D01*
X37449500Y-11934000D02*
X37625500Y-11934000D01*
X38465500Y-11846000D02*
X38641500Y-12022000D01*
X38641500Y-11846000D02*
X38465500Y-12022000D01*
X38553500Y-11846000D02*
X38553500Y-12022000D01*
X38465500Y-11934000D02*
X38641500Y-11934000D01*
X28877000Y-4226000D02*
X29053000Y-4402000D01*
X29053000Y-4226000D02*
X28877000Y-4402000D01*
X28965000Y-4226000D02*
X28965000Y-4402000D01*
X28877000Y-4314000D02*
X29053000Y-4314000D01*
X29893000Y-4226000D02*
X30069000Y-4402000D01*
X30069000Y-4226000D02*
X29893000Y-4402000D01*
X29981000Y-4226000D02*
X29981000Y-4402000D01*
X29893000Y-4314000D02*
X30069000Y-4314000D01*
X32687000Y-4226000D02*
X32863000Y-4402000D01*
X32863000Y-4226000D02*
X32687000Y-4402000D01*
X32775000Y-4226000D02*
X32775000Y-4402000D01*
X32687000Y-4314000D02*
X32863000Y-4314000D01*
X33703000Y-4226000D02*
X33879000Y-4402000D01*
X33879000Y-4226000D02*
X33703000Y-4402000D01*
X33791000Y-4226000D02*
X33791000Y-4402000D01*
X33703000Y-4314000D02*
X33879000Y-4314000D01*
X30067625Y-11846000D02*
X30243625Y-12022000D01*
X30243625Y-11846000D02*
X30067625Y-12022000D01*
X30155625Y-11846000D02*
X30155625Y-12022000D01*
X30067625Y-11934000D02*
X30243625Y-11934000D01*
X31083625Y-11846000D02*
X31259625Y-12022000D01*
X31259625Y-11846000D02*
X31083625Y-12022000D01*
X31171625Y-11846000D02*
X31171625Y-12022000D01*
X31083625Y-11934000D02*
X31259625Y-11934000D01*
X23638200Y-9941000D02*
X23814200Y-10117000D01*
X23814200Y-9941000D02*
X23638200Y-10117000D01*
X23726200Y-9941000D02*
X23726200Y-10117000D01*
X23638200Y-10029000D02*
X23814200Y-10029000D01*
X24654200Y-9941000D02*
X24830200Y-10117000D01*
X24830200Y-9941000D02*
X24654200Y-10117000D01*
X24742200Y-9941000D02*
X24742200Y-10117000D01*
X24654200Y-10029000D02*
X24830200Y-10029000D01*
X22209500Y-6131000D02*
X22385500Y-6307000D01*
X22385500Y-6131000D02*
X22209500Y-6307000D01*
X22297500Y-6131000D02*
X22297500Y-6307000D01*
X22209500Y-6219000D02*
X22385500Y-6219000D01*
X23225500Y-6131000D02*
X23401500Y-6307000D01*
X23401500Y-6131000D02*
X23225500Y-6307000D01*
X23313500Y-6131000D02*
X23313500Y-6307000D01*
X23225500Y-6219000D02*
X23401500Y-6219000D01*
X21257000Y-4226000D02*
X21433000Y-4402000D01*
X21433000Y-4226000D02*
X21257000Y-4402000D01*
X21345000Y-4226000D02*
X21345000Y-4402000D01*
X21257000Y-4314000D02*
X21433000Y-4314000D01*
X22273000Y-4226000D02*
X22449000Y-4402000D01*
X22449000Y-4226000D02*
X22273000Y-4402000D01*
X22361000Y-4226000D02*
X22361000Y-4402000D01*
X22273000Y-4314000D02*
X22449000Y-4314000D01*
X24590700Y-8036000D02*
X24766700Y-8212000D01*
X24766700Y-8036000D02*
X24590700Y-8212000D01*
X24678700Y-8036000D02*
X24678700Y-8212000D01*
X24590700Y-8124000D02*
X24766700Y-8124000D01*
X25606700Y-8036000D02*
X25782700Y-8212000D01*
X25782700Y-8036000D02*
X25606700Y-8212000D01*
X25694700Y-8036000D02*
X25694700Y-8212000D01*
X25606700Y-8124000D02*
X25782700Y-8124000D01*
X22685700Y-11846000D02*
X22861700Y-12022000D01*
X22861700Y-11846000D02*
X22685700Y-12022000D01*
X22773700Y-11846000D02*
X22773700Y-12022000D01*
X22685700Y-11934000D02*
X22861700Y-11934000D01*
X23701700Y-11846000D02*
X23877700Y-12022000D01*
X23877700Y-11846000D02*
X23701700Y-12022000D01*
X23789700Y-11846000D02*
X23789700Y-12022000D01*
X23701700Y-11934000D02*
X23877700Y-11934000D01*
X27924500Y-6131000D02*
X28100500Y-6307000D01*
X28100500Y-6131000D02*
X27924500Y-6307000D01*
X28012500Y-6131000D02*
X28012500Y-6307000D01*
X27924500Y-6219000D02*
X28100500Y-6219000D01*
X28940500Y-6131000D02*
X29116500Y-6307000D01*
X29116500Y-6131000D02*
X28940500Y-6307000D01*
X29028500Y-6131000D02*
X29028500Y-6307000D01*
X28940500Y-6219000D02*
X29116500Y-6219000D01*
X32210700Y-8036000D02*
X32386700Y-8212000D01*
X32386700Y-8036000D02*
X32210700Y-8212000D01*
X32298700Y-8036000D02*
X32298700Y-8212000D01*
X32210700Y-8124000D02*
X32386700Y-8124000D01*
X33226700Y-8036000D02*
X33402700Y-8212000D01*
X33402700Y-8036000D02*
X33226700Y-8212000D01*
X33314700Y-8036000D02*
X33314700Y-8212000D01*
X33226700Y-8124000D02*
X33402700Y-8124000D01*
X37449500Y-8036000D02*
X37625500Y-8212000D01*
X37625500Y-8036000D02*
X37449500Y-8212000D01*
X37537500Y-8036000D02*
X37537500Y-8212000D01*
X37449500Y-8124000D02*
X37625500Y-8124000D01*
X38465500Y-8036000D02*
X38641500Y-8212000D01*
X38641500Y-8036000D02*
X38465500Y-8212000D01*
X38553500Y-8036000D02*
X38553500Y-8212000D01*
X38465500Y-8124000D02*
X38641500Y-8124000D01*
X25067000Y-4226000D02*
X25243000Y-4402000D01*
X25243000Y-4226000D02*
X25067000Y-4402000D01*
X25155000Y-4226000D02*
X25155000Y-4402000D01*
X25067000Y-4314000D02*
X25243000Y-4314000D01*
X26083000Y-4226000D02*
X26259000Y-4402000D01*
X26259000Y-4226000D02*
X26083000Y-4402000D01*
X26171000Y-4226000D02*
X26171000Y-4402000D01*
X26083000Y-4314000D02*
X26259000Y-4314000D01*
X33639500Y-6131000D02*
X33815500Y-6307000D01*
X33815500Y-6131000D02*
X33639500Y-6307000D01*
X33727500Y-6131000D02*
X33727500Y-6307000D01*
X33639500Y-6219000D02*
X33815500Y-6219000D01*
X34655500Y-6131000D02*
X34831500Y-6307000D01*
X34831500Y-6131000D02*
X34655500Y-6307000D01*
X34743500Y-6131000D02*
X34743500Y-6307000D01*
X34655500Y-6219000D02*
X34831500Y-6219000D01*
X29353200Y-9941000D02*
X29529200Y-10117000D01*
X29529200Y-9941000D02*
X29353200Y-10117000D01*
X29441200Y-9941000D02*
X29441200Y-10117000D01*
X29353200Y-10029000D02*
X29529200Y-10029000D01*
X30369200Y-9941000D02*
X30545200Y-10117000D01*
X30545200Y-9941000D02*
X30369200Y-10117000D01*
X30457200Y-9941000D02*
X30457200Y-10117000D01*
X30369200Y-10029000D02*
X30545200Y-10029000D01*
X33639400Y-11846000D02*
X33815400Y-12022000D01*
X33815400Y-11846000D02*
X33639400Y-12022000D01*
X33727400Y-11846000D02*
X33727400Y-12022000D01*
X33639400Y-11934000D02*
X33815400Y-11934000D01*
X34655400Y-11846000D02*
X34831400Y-12022000D01*
X34831400Y-11846000D02*
X34655400Y-12022000D01*
X34743400Y-11846000D02*
X34743400Y-12022000D01*
X34655400Y-11934000D02*
X34831400Y-11934000D01*
X23162000Y-4226000D02*
X23338000Y-4402000D01*
X23338000Y-4226000D02*
X23162000Y-4402000D01*
X23250000Y-4226000D02*
X23250000Y-4402000D01*
X23162000Y-4314000D02*
X23338000Y-4314000D01*
X24178000Y-4226000D02*
X24354000Y-4402000D01*
X24354000Y-4226000D02*
X24178000Y-4402000D01*
X24266000Y-4226000D02*
X24266000Y-4402000D01*
X24178000Y-4314000D02*
X24354000Y-4314000D01*
X37449500Y-6131000D02*
X37625500Y-6307000D01*
X37625500Y-6131000D02*
X37449500Y-6307000D01*
X37537500Y-6131000D02*
X37537500Y-6307000D01*
X37449500Y-6219000D02*
X37625500Y-6219000D01*
X38465500Y-6131000D02*
X38641500Y-6307000D01*
X38641500Y-6131000D02*
X38465500Y-6307000D01*
X38553500Y-6131000D02*
X38553500Y-6307000D01*
X38465500Y-6219000D02*
X38641500Y-6219000D01*
X26019500Y-6131000D02*
X26195500Y-6307000D01*
X26195500Y-6131000D02*
X26019500Y-6307000D01*
X26107500Y-6131000D02*
X26107500Y-6307000D01*
X26019500Y-6219000D02*
X26195500Y-6219000D01*
X27035500Y-6131000D02*
X27211500Y-6307000D01*
X27211500Y-6131000D02*
X27035500Y-6307000D01*
X27123500Y-6131000D02*
X27123500Y-6307000D01*
X27035500Y-6219000D02*
X27211500Y-6219000D01*
X28400700Y-8036000D02*
X28576700Y-8212000D01*
X28576700Y-8036000D02*
X28400700Y-8212000D01*
X28488700Y-8036000D02*
X28488700Y-8212000D01*
X28400700Y-8124000D02*
X28576700Y-8124000D01*
X29416700Y-8036000D02*
X29592700Y-8212000D01*
X29592700Y-8036000D02*
X29416700Y-8212000D01*
X29504700Y-8036000D02*
X29504700Y-8212000D01*
X29416700Y-8124000D02*
X29592700Y-8124000D01*
X27448200Y-9941000D02*
X27624200Y-10117000D01*
X27624200Y-9941000D02*
X27448200Y-10117000D01*
X27536200Y-9941000D02*
X27536200Y-10117000D01*
X27448200Y-10029000D02*
X27624200Y-10029000D01*
X28464200Y-9941000D02*
X28640200Y-10117000D01*
X28640200Y-9941000D02*
X28464200Y-10117000D01*
X28552200Y-9941000D02*
X28552200Y-10117000D01*
X28464200Y-10029000D02*
X28640200Y-10029000D01*
X31734500Y-6131000D02*
X31910500Y-6307000D01*
X31910500Y-6131000D02*
X31734500Y-6307000D01*
X31822500Y-6131000D02*
X31822500Y-6307000D01*
X31734500Y-6219000D02*
X31910500Y-6219000D01*
X32750500Y-6131000D02*
X32926500Y-6307000D01*
X32926500Y-6131000D02*
X32750500Y-6307000D01*
X32838500Y-6131000D02*
X32838500Y-6307000D01*
X32750500Y-6219000D02*
X32926500Y-6219000D01*
X21733200Y-9941000D02*
X21909200Y-10117000D01*
X21909200Y-9941000D02*
X21733200Y-10117000D01*
X21821200Y-9941000D02*
X21821200Y-10117000D01*
X21733200Y-10029000D02*
X21909200Y-10029000D01*
X22749200Y-9941000D02*
X22925200Y-10117000D01*
X22925200Y-9941000D02*
X22749200Y-10117000D01*
X22837200Y-9941000D02*
X22837200Y-10117000D01*
X22749200Y-10029000D02*
X22925200Y-10029000D01*
X26972000Y-4226000D02*
X27148000Y-4402000D01*
X27148000Y-4226000D02*
X26972000Y-4402000D01*
X27060000Y-4226000D02*
X27060000Y-4402000D01*
X26972000Y-4314000D02*
X27148000Y-4314000D01*
X27988000Y-4226000D02*
X28164000Y-4402000D01*
X28164000Y-4226000D02*
X27988000Y-4402000D01*
X28076000Y-4226000D02*
X28076000Y-4402000D01*
X27988000Y-4314000D02*
X28164000Y-4314000D01*
X34830025Y-8036000D02*
X35006025Y-8212000D01*
X35006025Y-8036000D02*
X34830025Y-8212000D01*
X34918025Y-8036000D02*
X34918025Y-8212000D01*
X34830025Y-8124000D02*
X35006025Y-8124000D01*
X35846025Y-8036000D02*
X36022025Y-8212000D01*
X36022025Y-8036000D02*
X35846025Y-8212000D01*
X35934025Y-8036000D02*
X35934025Y-8212000D01*
X35846025Y-8124000D02*
X36022025Y-8124000D01*
X34592000Y-4226000D02*
X34768000Y-4402000D01*
X34768000Y-4226000D02*
X34592000Y-4402000D01*
X34680000Y-4226000D02*
X34680000Y-4402000D01*
X34592000Y-4314000D02*
X34768000Y-4314000D01*
X35608000Y-4226000D02*
X35784000Y-4402000D01*
X35784000Y-4226000D02*
X35608000Y-4402000D01*
X35696000Y-4226000D02*
X35696000Y-4402000D01*
X35608000Y-4314000D02*
X35784000Y-4314000D01*
X29829500Y-6131000D02*
X30005500Y-6307000D01*
X30005500Y-6131000D02*
X29829500Y-6307000D01*
X29917500Y-6131000D02*
X29917500Y-6307000D01*
X29829500Y-6219000D02*
X30005500Y-6219000D01*
X30845500Y-6131000D02*
X31021500Y-6307000D01*
X31021500Y-6131000D02*
X30845500Y-6307000D01*
X30933500Y-6131000D02*
X30933500Y-6307000D01*
X30845500Y-6219000D02*
X31021500Y-6219000D01*
X30782000Y-4226000D02*
X30958000Y-4402000D01*
X30958000Y-4226000D02*
X30782000Y-4402000D01*
X30870000Y-4226000D02*
X30870000Y-4402000D01*
X30782000Y-4314000D02*
X30958000Y-4314000D01*
X31798000Y-4226000D02*
X31974000Y-4402000D01*
X31974000Y-4226000D02*
X31798000Y-4402000D01*
X31886000Y-4226000D02*
X31886000Y-4402000D01*
X31798000Y-4314000D02*
X31974000Y-4314000D01*
X24114500Y-6131000D02*
X24290500Y-6307000D01*
X24290500Y-6131000D02*
X24114500Y-6307000D01*
X24202500Y-6131000D02*
X24202500Y-6307000D01*
X24114500Y-6219000D02*
X24290500Y-6219000D01*
X25130500Y-6131000D02*
X25306500Y-6307000D01*
X25306500Y-6131000D02*
X25130500Y-6307000D01*
X25218500Y-6131000D02*
X25218500Y-6307000D01*
X25130500Y-6219000D02*
X25306500Y-6219000D01*
X22685200Y-8036000D02*
X22861200Y-8212000D01*
X22861200Y-8036000D02*
X22685200Y-8212000D01*
X22773200Y-8036000D02*
X22773200Y-8212000D01*
X22685200Y-8124000D02*
X22861200Y-8124000D01*
X23701200Y-8036000D02*
X23877200Y-8212000D01*
X23877200Y-8036000D02*
X23701200Y-8212000D01*
X23789200Y-8036000D02*
X23789200Y-8212000D01*
X23701200Y-8124000D02*
X23877200Y-8124000D01*
X26495700Y-8036000D02*
X26671700Y-8212000D01*
X26671700Y-8036000D02*
X26495700Y-8212000D01*
X26583700Y-8036000D02*
X26583700Y-8212000D01*
X26495700Y-8124000D02*
X26671700Y-8124000D01*
X27511700Y-8036000D02*
X27687700Y-8212000D01*
X27687700Y-8036000D02*
X27511700Y-8212000D01*
X27599700Y-8036000D02*
X27599700Y-8212000D01*
X27511700Y-8124000D02*
X27687700Y-8124000D01*
X26257625Y-11846000D02*
X26433625Y-12022000D01*
X26433625Y-11846000D02*
X26257625Y-12022000D01*
X26345625Y-11846000D02*
X26345625Y-12022000D01*
X26257625Y-11934000D02*
X26433625Y-11934000D01*
X27273625Y-11846000D02*
X27449625Y-12022000D01*
X27449625Y-11846000D02*
X27273625Y-12022000D01*
X27361625Y-11846000D02*
X27361625Y-12022000D01*
X27273625Y-11934000D02*
X27449625Y-11934000D01*
X33401275Y-9941000D02*
X33577275Y-10117000D01*
X33577275Y-9941000D02*
X33401275Y-10117000D01*
X33489275Y-9941000D02*
X33489275Y-10117000D01*
X33401275Y-10029000D02*
X33577275Y-10029000D01*
X34417275Y-9941000D02*
X34593275Y-10117000D01*
X34593275Y-9941000D02*
X34417275Y-10117000D01*
X34505275Y-9941000D02*
X34505275Y-10117000D01*
X34417275Y-10029000D02*
X34593275Y-10029000D01*
X35544500Y-6131000D02*
X35720500Y-6307000D01*
X35720500Y-6131000D02*
X35544500Y-6307000D01*
X35632500Y-6131000D02*
X35632500Y-6307000D01*
X35544500Y-6219000D02*
X35720500Y-6219000D01*
X36560500Y-6131000D02*
X36736500Y-6307000D01*
X36736500Y-6131000D02*
X36560500Y-6307000D01*
X36648500Y-6131000D02*
X36648500Y-6307000D01*
X36560500Y-6219000D02*
X36736500Y-6219000D01*
X31258200Y-9941000D02*
X31434200Y-10117000D01*
X31434200Y-9941000D02*
X31258200Y-10117000D01*
X31346200Y-9941000D02*
X31346200Y-10117000D01*
X31258200Y-10029000D02*
X31434200Y-10029000D01*
X32274200Y-9941000D02*
X32450200Y-10117000D01*
X32450200Y-9941000D02*
X32274200Y-10117000D01*
X32362200Y-9941000D02*
X32362200Y-10117000D01*
X32274200Y-10029000D02*
X32450200Y-10029000D01*
X33831400Y-12292000D02*
X34131400Y-12592000D01*
X34131400Y-12292000D02*
X33831400Y-12592000D01*
X34087467Y-12548067D02*
X34087467Y-12335933D01*
X33875333Y-12335933D01*
X33875333Y-12548067D01*
X34087467Y-12548067D01*
X34466400Y-12038000D02*
X34766400Y-12338000D01*
X34766400Y-12038000D02*
X34466400Y-12338000D01*
X34722467Y-12294067D02*
X34722467Y-12081933D01*
X34510333Y-12081933D01*
X34510333Y-12294067D01*
X34722467Y-12294067D01*
X23354000Y-4672000D02*
X23654000Y-4972000D01*
X23654000Y-4672000D02*
X23354000Y-4972000D01*
X23610067Y-4928067D02*
X23610067Y-4715933D01*
X23397933Y-4715933D01*
X23397933Y-4928067D01*
X23610067Y-4928067D01*
X23989000Y-4418000D02*
X24289000Y-4718000D01*
X24289000Y-4418000D02*
X23989000Y-4718000D01*
X24245067Y-4674067D02*
X24245067Y-4461933D01*
X24032933Y-4461933D01*
X24032933Y-4674067D01*
X24245067Y-4674067D01*
X37641500Y-6577000D02*
X37941500Y-6877000D01*
X37941500Y-6577000D02*
X37641500Y-6877000D01*
X37897567Y-6833067D02*
X37897567Y-6620933D01*
X37685433Y-6620933D01*
X37685433Y-6833067D01*
X37897567Y-6833067D01*
X38276500Y-6323000D02*
X38576500Y-6623000D01*
X38576500Y-6323000D02*
X38276500Y-6623000D01*
X38532567Y-6579067D02*
X38532567Y-6366933D01*
X38320433Y-6366933D01*
X38320433Y-6579067D01*
X38532567Y-6579067D01*
X26211500Y-6577000D02*
X26511500Y-6877000D01*
X26511500Y-6577000D02*
X26211500Y-6877000D01*
X26467567Y-6833067D02*
X26467567Y-6620933D01*
X26255433Y-6620933D01*
X26255433Y-6833067D01*
X26467567Y-6833067D01*
X26846500Y-6323000D02*
X27146500Y-6623000D01*
X27146500Y-6323000D02*
X26846500Y-6623000D01*
X27102567Y-6579067D02*
X27102567Y-6366933D01*
X26890433Y-6366933D01*
X26890433Y-6579067D01*
X27102567Y-6579067D01*
X28592700Y-8482000D02*
X28892700Y-8782000D01*
X28892700Y-8482000D02*
X28592700Y-8782000D01*
X28848767Y-8738067D02*
X28848767Y-8525933D01*
X28636633Y-8525933D01*
X28636633Y-8738067D01*
X28848767Y-8738067D01*
X29227700Y-8228000D02*
X29527700Y-8528000D01*
X29527700Y-8228000D02*
X29227700Y-8528000D01*
X29483767Y-8484067D02*
X29483767Y-8271933D01*
X29271633Y-8271933D01*
X29271633Y-8484067D01*
X29483767Y-8484067D01*
X27640200Y-10387000D02*
X27940200Y-10687000D01*
X27940200Y-10387000D02*
X27640200Y-10687000D01*
X27896267Y-10643067D02*
X27896267Y-10430933D01*
X27684133Y-10430933D01*
X27684133Y-10643067D01*
X27896267Y-10643067D01*
X28275200Y-10133000D02*
X28575200Y-10433000D01*
X28575200Y-10133000D02*
X28275200Y-10433000D01*
X28531267Y-10389067D02*
X28531267Y-10176933D01*
X28319133Y-10176933D01*
X28319133Y-10389067D01*
X28531267Y-10389067D01*
X31926500Y-6577000D02*
X32226500Y-6877000D01*
X32226500Y-6577000D02*
X31926500Y-6877000D01*
X32182567Y-6833067D02*
X32182567Y-6620933D01*
X31970433Y-6620933D01*
X31970433Y-6833067D01*
X32182567Y-6833067D01*
X32561500Y-6323000D02*
X32861500Y-6623000D01*
X32861500Y-6323000D02*
X32561500Y-6623000D01*
X32817567Y-6579067D02*
X32817567Y-6366933D01*
X32605433Y-6366933D01*
X32605433Y-6579067D01*
X32817567Y-6579067D01*
X21925200Y-10387000D02*
X22225200Y-10687000D01*
X22225200Y-10387000D02*
X21925200Y-10687000D01*
X22181267Y-10643067D02*
X22181267Y-10430933D01*
X21969133Y-10430933D01*
X21969133Y-10643067D01*
X22181267Y-10643067D01*
X22560200Y-10133000D02*
X22860200Y-10433000D01*
X22860200Y-10133000D02*
X22560200Y-10433000D01*
X22816267Y-10389067D02*
X22816267Y-10176933D01*
X22604133Y-10176933D01*
X22604133Y-10389067D01*
X22816267Y-10389067D01*
X27164000Y-4672000D02*
X27464000Y-4972000D01*
X27464000Y-4672000D02*
X27164000Y-4972000D01*
X27420067Y-4928067D02*
X27420067Y-4715933D01*
X27207933Y-4715933D01*
X27207933Y-4928067D01*
X27420067Y-4928067D01*
X27799000Y-4418000D02*
X28099000Y-4718000D01*
X28099000Y-4418000D02*
X27799000Y-4718000D01*
X28055067Y-4674067D02*
X28055067Y-4461933D01*
X27842933Y-4461933D01*
X27842933Y-4674067D01*
X28055067Y-4674067D01*
X35022025Y-8482000D02*
X35322025Y-8782000D01*
X35322025Y-8482000D02*
X35022025Y-8782000D01*
X35278092Y-8738067D02*
X35278092Y-8525933D01*
X35065958Y-8525933D01*
X35065958Y-8738067D01*
X35278092Y-8738067D01*
X35657025Y-8228000D02*
X35957025Y-8528000D01*
X35957025Y-8228000D02*
X35657025Y-8528000D01*
X35913092Y-8484067D02*
X35913092Y-8271933D01*
X35700958Y-8271933D01*
X35700958Y-8484067D01*
X35913092Y-8484067D01*
X34784000Y-4672000D02*
X35084000Y-4972000D01*
X35084000Y-4672000D02*
X34784000Y-4972000D01*
X35040067Y-4928067D02*
X35040067Y-4715933D01*
X34827933Y-4715933D01*
X34827933Y-4928067D01*
X35040067Y-4928067D01*
X35419000Y-4418000D02*
X35719000Y-4718000D01*
X35719000Y-4418000D02*
X35419000Y-4718000D01*
X35675067Y-4674067D02*
X35675067Y-4461933D01*
X35462933Y-4461933D01*
X35462933Y-4674067D01*
X35675067Y-4674067D01*
X30021500Y-6577000D02*
X30321500Y-6877000D01*
X30321500Y-6577000D02*
X30021500Y-6877000D01*
X30277567Y-6833067D02*
X30277567Y-6620933D01*
X30065433Y-6620933D01*
X30065433Y-6833067D01*
X30277567Y-6833067D01*
X30656500Y-6323000D02*
X30956500Y-6623000D01*
X30956500Y-6323000D02*
X30656500Y-6623000D01*
X30912567Y-6579067D02*
X30912567Y-6366933D01*
X30700433Y-6366933D01*
X30700433Y-6579067D01*
X30912567Y-6579067D01*
X30974000Y-4672000D02*
X31274000Y-4972000D01*
X31274000Y-4672000D02*
X30974000Y-4972000D01*
X31230067Y-4928067D02*
X31230067Y-4715933D01*
X31017933Y-4715933D01*
X31017933Y-4928067D01*
X31230067Y-4928067D01*
X31609000Y-4418000D02*
X31909000Y-4718000D01*
X31909000Y-4418000D02*
X31609000Y-4718000D01*
X31865067Y-4674067D02*
X31865067Y-4461933D01*
X31652933Y-4461933D01*
X31652933Y-4674067D01*
X31865067Y-4674067D01*
X24306500Y-6577000D02*
X24606500Y-6877000D01*
X24606500Y-6577000D02*
X24306500Y-6877000D01*
X24562567Y-6833067D02*
X24562567Y-6620933D01*
X24350433Y-6620933D01*
X24350433Y-6833067D01*
X24562567Y-6833067D01*
X24941500Y-6323000D02*
X25241500Y-6623000D01*
X25241500Y-6323000D02*
X24941500Y-6623000D01*
X25197567Y-6579067D02*
X25197567Y-6366933D01*
X24985433Y-6366933D01*
X24985433Y-6579067D01*
X25197567Y-6579067D01*
X22877200Y-8482000D02*
X23177200Y-8782000D01*
X23177200Y-8482000D02*
X22877200Y-8782000D01*
X23133267Y-8738067D02*
X23133267Y-8525933D01*
X22921133Y-8525933D01*
X22921133Y-8738067D01*
X23133267Y-8738067D01*
X23512200Y-8228000D02*
X23812200Y-8528000D01*
X23812200Y-8228000D02*
X23512200Y-8528000D01*
X23768267Y-8484067D02*
X23768267Y-8271933D01*
X23556133Y-8271933D01*
X23556133Y-8484067D01*
X23768267Y-8484067D01*
X26687700Y-8482000D02*
X26987700Y-8782000D01*
X26987700Y-8482000D02*
X26687700Y-8782000D01*
X26943767Y-8738067D02*
X26943767Y-8525933D01*
X26731633Y-8525933D01*
X26731633Y-8738067D01*
X26943767Y-8738067D01*
X27322700Y-8228000D02*
X27622700Y-8528000D01*
X27622700Y-8228000D02*
X27322700Y-8528000D01*
X27578767Y-8484067D02*
X27578767Y-8271933D01*
X27366633Y-8271933D01*
X27366633Y-8484067D01*
X27578767Y-8484067D01*
X26449625Y-12292000D02*
X26749625Y-12592000D01*
X26749625Y-12292000D02*
X26449625Y-12592000D01*
X26705692Y-12548067D02*
X26705692Y-12335933D01*
X26493558Y-12335933D01*
X26493558Y-12548067D01*
X26705692Y-12548067D01*
X27084625Y-12038000D02*
X27384625Y-12338000D01*
X27384625Y-12038000D02*
X27084625Y-12338000D01*
X27340692Y-12294067D02*
X27340692Y-12081933D01*
X27128558Y-12081933D01*
X27128558Y-12294067D01*
X27340692Y-12294067D01*
X33593275Y-10387000D02*
X33893275Y-10687000D01*
X33893275Y-10387000D02*
X33593275Y-10687000D01*
X33849342Y-10643067D02*
X33849342Y-10430933D01*
X33637208Y-10430933D01*
X33637208Y-10643067D01*
X33849342Y-10643067D01*
X34228275Y-10133000D02*
X34528275Y-10433000D01*
X34528275Y-10133000D02*
X34228275Y-10433000D01*
X34484342Y-10389067D02*
X34484342Y-10176933D01*
X34272208Y-10176933D01*
X34272208Y-10389067D01*
X34484342Y-10389067D01*
X35736500Y-6577000D02*
X36036500Y-6877000D01*
X36036500Y-6577000D02*
X35736500Y-6877000D01*
X35992567Y-6833067D02*
X35992567Y-6620933D01*
X35780433Y-6620933D01*
X35780433Y-6833067D01*
X35992567Y-6833067D01*
X36371500Y-6323000D02*
X36671500Y-6623000D01*
X36671500Y-6323000D02*
X36371500Y-6623000D01*
X36627567Y-6579067D02*
X36627567Y-6366933D01*
X36415433Y-6366933D01*
X36415433Y-6579067D01*
X36627567Y-6579067D01*
X31450200Y-10387000D02*
X31750200Y-10687000D01*
X31750200Y-10387000D02*
X31450200Y-10687000D01*
X31706267Y-10643067D02*
X31706267Y-10430933D01*
X31494133Y-10430933D01*
X31494133Y-10643067D01*
X31706267Y-10643067D01*
X32085200Y-10133000D02*
X32385200Y-10433000D01*
X32385200Y-10133000D02*
X32085200Y-10433000D01*
X32341267Y-10389067D02*
X32341267Y-10176933D01*
X32129133Y-10176933D01*
X32129133Y-10389067D01*
X32341267Y-10389067D01*
X35736400Y-12292000D02*
X36036400Y-12592000D01*
X36036400Y-12292000D02*
X35736400Y-12592000D01*
X35992467Y-12548067D02*
X35992467Y-12335933D01*
X35780333Y-12335933D01*
X35780333Y-12548067D01*
X35992467Y-12548067D01*
X36371400Y-12038000D02*
X36671400Y-12338000D01*
X36671400Y-12038000D02*
X36371400Y-12338000D01*
X36627467Y-12294067D02*
X36627467Y-12081933D01*
X36415333Y-12081933D01*
X36415333Y-12294067D01*
X36627467Y-12294067D01*
X25735200Y-10387000D02*
X26035200Y-10687000D01*
X26035200Y-10387000D02*
X25735200Y-10687000D01*
X25991267Y-10643067D02*
X25991267Y-10430933D01*
X25779133Y-10430933D01*
X25779133Y-10643067D01*
X25991267Y-10643067D01*
X26370200Y-10133000D02*
X26670200Y-10433000D01*
X26670200Y-10133000D02*
X26370200Y-10433000D01*
X26626267Y-10389067D02*
X26626267Y-10176933D01*
X26414133Y-10176933D01*
X26414133Y-10389067D01*
X26626267Y-10389067D01*
X35736400Y-10387000D02*
X36036400Y-10687000D01*
X36036400Y-10387000D02*
X35736400Y-10687000D01*
X35992467Y-10643067D02*
X35992467Y-10430933D01*
X35780333Y-10430933D01*
X35780333Y-10643067D01*
X35992467Y-10643067D01*
X36371400Y-10133000D02*
X36671400Y-10433000D01*
X36671400Y-10133000D02*
X36371400Y-10433000D01*
X36627467Y-10389067D02*
X36627467Y-10176933D01*
X36415333Y-10176933D01*
X36415333Y-10389067D01*
X36627467Y-10389067D01*
X30497700Y-8482000D02*
X30797700Y-8782000D01*
X30797700Y-8482000D02*
X30497700Y-8782000D01*
X30753767Y-8738067D02*
X30753767Y-8525933D01*
X30541633Y-8525933D01*
X30541633Y-8738067D01*
X30753767Y-8738067D01*
X31132700Y-8228000D02*
X31432700Y-8528000D01*
X31432700Y-8228000D02*
X31132700Y-8528000D01*
X31388767Y-8484067D02*
X31388767Y-8271933D01*
X31176633Y-8271933D01*
X31176633Y-8484067D01*
X31388767Y-8484067D01*
X37641500Y-12292000D02*
X37941500Y-12592000D01*
X37941500Y-12292000D02*
X37641500Y-12592000D01*
X37897567Y-12548067D02*
X37897567Y-12335933D01*
X37685433Y-12335933D01*
X37685433Y-12548067D01*
X37897567Y-12548067D01*
X38276500Y-12038000D02*
X38576500Y-12338000D01*
X38576500Y-12038000D02*
X38276500Y-12338000D01*
X38532567Y-12294067D02*
X38532567Y-12081933D01*
X38320433Y-12081933D01*
X38320433Y-12294067D01*
X38532567Y-12294067D01*
X29069000Y-4672000D02*
X29369000Y-4972000D01*
X29369000Y-4672000D02*
X29069000Y-4972000D01*
X29325067Y-4928067D02*
X29325067Y-4715933D01*
X29112933Y-4715933D01*
X29112933Y-4928067D01*
X29325067Y-4928067D01*
X29704000Y-4418000D02*
X30004000Y-4718000D01*
X30004000Y-4418000D02*
X29704000Y-4718000D01*
X29960067Y-4674067D02*
X29960067Y-4461933D01*
X29747933Y-4461933D01*
X29747933Y-4674067D01*
X29960067Y-4674067D01*
X32879000Y-4672000D02*
X33179000Y-4972000D01*
X33179000Y-4672000D02*
X32879000Y-4972000D01*
X33135067Y-4928067D02*
X33135067Y-4715933D01*
X32922933Y-4715933D01*
X32922933Y-4928067D01*
X33135067Y-4928067D01*
X33514000Y-4418000D02*
X33814000Y-4718000D01*
X33814000Y-4418000D02*
X33514000Y-4718000D01*
X33770067Y-4674067D02*
X33770067Y-4461933D01*
X33557933Y-4461933D01*
X33557933Y-4674067D01*
X33770067Y-4674067D01*
X30259625Y-12292000D02*
X30559625Y-12592000D01*
X30559625Y-12292000D02*
X30259625Y-12592000D01*
X30515692Y-12548067D02*
X30515692Y-12335933D01*
X30303558Y-12335933D01*
X30303558Y-12548067D01*
X30515692Y-12548067D01*
X30894625Y-12038000D02*
X31194625Y-12338000D01*
X31194625Y-12038000D02*
X30894625Y-12338000D01*
X31150692Y-12294067D02*
X31150692Y-12081933D01*
X30938558Y-12081933D01*
X30938558Y-12294067D01*
X31150692Y-12294067D01*
X23830200Y-10387000D02*
X24130200Y-10687000D01*
X24130200Y-10387000D02*
X23830200Y-10687000D01*
X24086267Y-10643067D02*
X24086267Y-10430933D01*
X23874133Y-10430933D01*
X23874133Y-10643067D01*
X24086267Y-10643067D01*
X24465200Y-10133000D02*
X24765200Y-10433000D01*
X24765200Y-10133000D02*
X24465200Y-10433000D01*
X24721267Y-10389067D02*
X24721267Y-10176933D01*
X24509133Y-10176933D01*
X24509133Y-10389067D01*
X24721267Y-10389067D01*
X22401500Y-6577000D02*
X22701500Y-6877000D01*
X22701500Y-6577000D02*
X22401500Y-6877000D01*
X22657567Y-6833067D02*
X22657567Y-6620933D01*
X22445433Y-6620933D01*
X22445433Y-6833067D01*
X22657567Y-6833067D01*
X23036500Y-6323000D02*
X23336500Y-6623000D01*
X23336500Y-6323000D02*
X23036500Y-6623000D01*
X23292567Y-6579067D02*
X23292567Y-6366933D01*
X23080433Y-6366933D01*
X23080433Y-6579067D01*
X23292567Y-6579067D01*
X21449000Y-4672000D02*
X21749000Y-4972000D01*
X21749000Y-4672000D02*
X21449000Y-4972000D01*
X21705067Y-4928067D02*
X21705067Y-4715933D01*
X21492933Y-4715933D01*
X21492933Y-4928067D01*
X21705067Y-4928067D01*
X22084000Y-4418000D02*
X22384000Y-4718000D01*
X22384000Y-4418000D02*
X22084000Y-4718000D01*
X22340067Y-4674067D02*
X22340067Y-4461933D01*
X22127933Y-4461933D01*
X22127933Y-4674067D01*
X22340067Y-4674067D01*
X24782700Y-8482000D02*
X25082700Y-8782000D01*
X25082700Y-8482000D02*
X24782700Y-8782000D01*
X25038767Y-8738067D02*
X25038767Y-8525933D01*
X24826633Y-8525933D01*
X24826633Y-8738067D01*
X25038767Y-8738067D01*
X25417700Y-8228000D02*
X25717700Y-8528000D01*
X25717700Y-8228000D02*
X25417700Y-8528000D01*
X25673767Y-8484067D02*
X25673767Y-8271933D01*
X25461633Y-8271933D01*
X25461633Y-8484067D01*
X25673767Y-8484067D01*
X22877700Y-12292000D02*
X23177700Y-12592000D01*
X23177700Y-12292000D02*
X22877700Y-12592000D01*
X23133767Y-12548067D02*
X23133767Y-12335933D01*
X22921633Y-12335933D01*
X22921633Y-12548067D01*
X23133767Y-12548067D01*
X23512700Y-12038000D02*
X23812700Y-12338000D01*
X23812700Y-12038000D02*
X23512700Y-12338000D01*
X23768767Y-12294067D02*
X23768767Y-12081933D01*
X23556633Y-12081933D01*
X23556633Y-12294067D01*
X23768767Y-12294067D01*
X28116500Y-6577000D02*
X28416500Y-6877000D01*
X28416500Y-6577000D02*
X28116500Y-6877000D01*
X28372567Y-6833067D02*
X28372567Y-6620933D01*
X28160433Y-6620933D01*
X28160433Y-6833067D01*
X28372567Y-6833067D01*
X28751500Y-6323000D02*
X29051500Y-6623000D01*
X29051500Y-6323000D02*
X28751500Y-6623000D01*
X29007567Y-6579067D02*
X29007567Y-6366933D01*
X28795433Y-6366933D01*
X28795433Y-6579067D01*
X29007567Y-6579067D01*
X32402700Y-8482000D02*
X32702700Y-8782000D01*
X32702700Y-8482000D02*
X32402700Y-8782000D01*
X32658767Y-8738067D02*
X32658767Y-8525933D01*
X32446633Y-8525933D01*
X32446633Y-8738067D01*
X32658767Y-8738067D01*
X33037700Y-8228000D02*
X33337700Y-8528000D01*
X33337700Y-8228000D02*
X33037700Y-8528000D01*
X33293767Y-8484067D02*
X33293767Y-8271933D01*
X33081633Y-8271933D01*
X33081633Y-8484067D01*
X33293767Y-8484067D01*
X37641500Y-8482000D02*
X37941500Y-8782000D01*
X37941500Y-8482000D02*
X37641500Y-8782000D01*
X37897567Y-8738067D02*
X37897567Y-8525933D01*
X37685433Y-8525933D01*
X37685433Y-8738067D01*
X37897567Y-8738067D01*
X38276500Y-8228000D02*
X38576500Y-8528000D01*
X38576500Y-8228000D02*
X38276500Y-8528000D01*
X38532567Y-8484067D02*
X38532567Y-8271933D01*
X38320433Y-8271933D01*
X38320433Y-8484067D01*
X38532567Y-8484067D01*
X25259000Y-4672000D02*
X25559000Y-4972000D01*
X25559000Y-4672000D02*
X25259000Y-4972000D01*
X25515067Y-4928067D02*
X25515067Y-4715933D01*
X25302933Y-4715933D01*
X25302933Y-4928067D01*
X25515067Y-4928067D01*
X25894000Y-4418000D02*
X26194000Y-4718000D01*
X26194000Y-4418000D02*
X25894000Y-4718000D01*
X26150067Y-4674067D02*
X26150067Y-4461933D01*
X25937933Y-4461933D01*
X25937933Y-4674067D01*
X26150067Y-4674067D01*
X33831500Y-6577000D02*
X34131500Y-6877000D01*
X34131500Y-6577000D02*
X33831500Y-6877000D01*
X34087567Y-6833067D02*
X34087567Y-6620933D01*
X33875433Y-6620933D01*
X33875433Y-6833067D01*
X34087567Y-6833067D01*
X34466500Y-6323000D02*
X34766500Y-6623000D01*
X34766500Y-6323000D02*
X34466500Y-6623000D01*
X34722567Y-6579067D02*
X34722567Y-6366933D01*
X34510433Y-6366933D01*
X34510433Y-6579067D01*
X34722567Y-6579067D01*
X29545200Y-10387000D02*
X29845200Y-10687000D01*
X29845200Y-10387000D02*
X29545200Y-10687000D01*
X29801267Y-10643067D02*
X29801267Y-10430933D01*
X29589133Y-10430933D01*
X29589133Y-10643067D01*
X29801267Y-10643067D01*
X30180200Y-10133000D02*
X30480200Y-10433000D01*
X30480200Y-10133000D02*
X30180200Y-10433000D01*
X30436267Y-10389067D02*
X30436267Y-10176933D01*
X30224133Y-10176933D01*
X30224133Y-10389067D01*
X30436267Y-10389067D01*
X23599000Y-5332000D02*
X23919000Y-5652000D01*
X23919000Y-5332000D02*
X23599000Y-5652000D01*
X23759000Y-5652000D02*
X23919000Y-5492000D01*
X23759000Y-5332000D01*
X23599000Y-5492000D01*
X23759000Y-5652000D01*
X22394000Y-12801000D02*
X22714000Y-13121000D01*
X22714000Y-12801000D02*
X22394000Y-13121000D01*
X22554000Y-13121000D02*
X22714000Y-12961000D01*
X22554000Y-12801000D01*
X22394000Y-12961000D01*
X22554000Y-13121000D01*
X38812000Y-12801000D02*
X39132000Y-13121000D01*
X39132000Y-12801000D02*
X38812000Y-13121000D01*
X38972000Y-13121000D02*
X39132000Y-12961000D01*
X38972000Y-12801000D01*
X38812000Y-12961000D01*
X38972000Y-13121000D01*
X38811000Y-5336000D02*
X39131000Y-5656000D01*
X39131000Y-5336000D02*
X38811000Y-5656000D01*
X38971000Y-5656000D02*
X39131000Y-5496000D01*
X38971000Y-5336000D01*
X38811000Y-5496000D01*
X38971000Y-5656000D01*
X38813000Y-3127000D02*
X39133000Y-3447000D01*
X39133000Y-3127000D02*
X38813000Y-3447000D01*
X38973000Y-3447000D02*
X39133000Y-3287000D01*
X38973000Y-3127000D01*
X38813000Y-3287000D01*
X38973000Y-3447000D01*
X25027000Y-8920000D02*
X25347000Y-9240000D01*
X25347000Y-8920000D02*
X25027000Y-9240000D01*
X25187000Y-9240000D02*
X25347000Y-9080000D01*
X25187000Y-8920000D01*
X25027000Y-9080000D01*
X25187000Y-9240000D01*
X20966000Y-3127000D02*
X21286000Y-3447000D01*
X21286000Y-3127000D02*
X20966000Y-3447000D01*
X21126000Y-3447000D02*
X21286000Y-3287000D01*
X21126000Y-3127000D01*
X20966000Y-3287000D01*
X21126000Y-3447000D01*
X32647000Y-8919000D02*
X32967000Y-9239000D01*
X32967000Y-8919000D02*
X32647000Y-9239000D01*
X32807000Y-9239000D02*
X32967000Y-9079000D01*
X32807000Y-8919000D01*
X32647000Y-9079000D01*
X32807000Y-9239000D01*
X28044200Y-9829000D02*
X28044200Y-10229000D01*
X27844200Y-10029000D02*
X28244200Y-10029000D01*
X28244200Y-10029000D02*
G75*
G03X28244200Y-10029000I-200000J0D01*
G01*
X32330500Y-6019000D02*
X32330500Y-6419000D01*
X32130500Y-6219000D02*
X32530500Y-6219000D01*
X32530500Y-6219000D02*
G75*
G03X32530500Y-6219000I-200000J0D01*
G01*
X22329200Y-9829000D02*
X22329200Y-10229000D01*
X22129200Y-10029000D02*
X22529200Y-10029000D01*
X22529200Y-10029000D02*
G75*
G03X22529200Y-10029000I-200000J0D01*
G01*
X27568000Y-4114000D02*
X27568000Y-4514000D01*
X27368000Y-4314000D02*
X27768000Y-4314000D01*
X27768000Y-4314000D02*
G75*
G03X27768000Y-4314000I-200000J0D01*
G01*
X35426025Y-7924000D02*
X35426025Y-8324000D01*
X35226025Y-8124000D02*
X35626025Y-8124000D01*
X35626025Y-8124000D02*
G75*
G03X35626025Y-8124000I-200000J0D01*
G01*
X35188000Y-4114000D02*
X35188000Y-4514000D01*
X34988000Y-4314000D02*
X35388000Y-4314000D01*
X35388000Y-4314000D02*
G75*
G03X35388000Y-4314000I-200000J0D01*
G01*
X30425500Y-6019000D02*
X30425500Y-6419000D01*
X30225500Y-6219000D02*
X30625500Y-6219000D01*
X30625500Y-6219000D02*
G75*
G03X30625500Y-6219000I-200000J0D01*
G01*
X31378000Y-4114000D02*
X31378000Y-4514000D01*
X31178000Y-4314000D02*
X31578000Y-4314000D01*
X31578000Y-4314000D02*
G75*
G03X31578000Y-4314000I-200000J0D01*
G01*
X24710500Y-6019000D02*
X24710500Y-6419000D01*
X24510500Y-6219000D02*
X24910500Y-6219000D01*
X24910500Y-6219000D02*
G75*
G03X24910500Y-6219000I-200000J0D01*
G01*
X23281200Y-7924000D02*
X23281200Y-8324000D01*
X23081200Y-8124000D02*
X23481200Y-8124000D01*
X23481200Y-8124000D02*
G75*
G03X23481200Y-8124000I-200000J0D01*
G01*
X27091700Y-7924000D02*
X27091700Y-8324000D01*
X26891700Y-8124000D02*
X27291700Y-8124000D01*
X27291700Y-8124000D02*
G75*
G03X27291700Y-8124000I-200000J0D01*
G01*
X26853625Y-11734000D02*
X26853625Y-12134000D01*
X26653625Y-11934000D02*
X27053625Y-11934000D01*
X27053625Y-11934000D02*
G75*
G03X27053625Y-11934000I-200000J0D01*
G01*
X33997275Y-9829000D02*
X33997275Y-10229000D01*
X33797275Y-10029000D02*
X34197275Y-10029000D01*
X34197275Y-10029000D02*
G75*
G03X34197275Y-10029000I-200000J0D01*
G01*
X36140500Y-6019000D02*
X36140500Y-6419000D01*
X35940500Y-6219000D02*
X36340500Y-6219000D01*
X36340500Y-6219000D02*
G75*
G03X36340500Y-6219000I-200000J0D01*
G01*
X31854200Y-9829000D02*
X31854200Y-10229000D01*
X31654200Y-10029000D02*
X32054200Y-10029000D01*
X32054200Y-10029000D02*
G75*
G03X32054200Y-10029000I-200000J0D01*
G01*
X36140400Y-11734000D02*
X36140400Y-12134000D01*
X35940400Y-11934000D02*
X36340400Y-11934000D01*
X36340400Y-11934000D02*
G75*
G03X36340400Y-11934000I-200000J0D01*
G01*
X26139200Y-9829000D02*
X26139200Y-10229000D01*
X25939200Y-10029000D02*
X26339200Y-10029000D01*
X26339200Y-10029000D02*
G75*
G03X26339200Y-10029000I-200000J0D01*
G01*
X36140400Y-9829000D02*
X36140400Y-10229000D01*
X35940400Y-10029000D02*
X36340400Y-10029000D01*
X36340400Y-10029000D02*
G75*
G03X36340400Y-10029000I-200000J0D01*
G01*
X30901700Y-7924000D02*
X30901700Y-8324000D01*
X30701700Y-8124000D02*
X31101700Y-8124000D01*
X31101700Y-8124000D02*
G75*
G03X31101700Y-8124000I-200000J0D01*
G01*
X38045500Y-11734000D02*
X38045500Y-12134000D01*
X37845500Y-11934000D02*
X38245500Y-11934000D01*
X38245500Y-11934000D02*
G75*
G03X38245500Y-11934000I-200000J0D01*
G01*
X29473000Y-4114000D02*
X29473000Y-4514000D01*
X29273000Y-4314000D02*
X29673000Y-4314000D01*
X29673000Y-4314000D02*
G75*
G03X29673000Y-4314000I-200000J0D01*
G01*
X33283000Y-4114000D02*
X33283000Y-4514000D01*
X33083000Y-4314000D02*
X33483000Y-4314000D01*
X33483000Y-4314000D02*
G75*
G03X33483000Y-4314000I-200000J0D01*
G01*
X30663625Y-11734000D02*
X30663625Y-12134000D01*
X30463625Y-11934000D02*
X30863625Y-11934000D01*
X30863625Y-11934000D02*
G75*
G03X30863625Y-11934000I-200000J0D01*
G01*
X24234200Y-9829000D02*
X24234200Y-10229000D01*
X24034200Y-10029000D02*
X24434200Y-10029000D01*
X24434200Y-10029000D02*
G75*
G03X24434200Y-10029000I-200000J0D01*
G01*
X22805500Y-6019000D02*
X22805500Y-6419000D01*
X22605500Y-6219000D02*
X23005500Y-6219000D01*
X23005500Y-6219000D02*
G75*
G03X23005500Y-6219000I-200000J0D01*
G01*
X21853000Y-4114000D02*
X21853000Y-4514000D01*
X21653000Y-4314000D02*
X22053000Y-4314000D01*
X22053000Y-4314000D02*
G75*
G03X22053000Y-4314000I-200000J0D01*
G01*
X25186700Y-7924000D02*
X25186700Y-8324000D01*
X24986700Y-8124000D02*
X25386700Y-8124000D01*
X25386700Y-8124000D02*
G75*
G03X25386700Y-8124000I-200000J0D01*
G01*
X23281700Y-11734000D02*
X23281700Y-12134000D01*
X23081700Y-11934000D02*
X23481700Y-11934000D01*
X23481700Y-11934000D02*
G75*
G03X23481700Y-11934000I-200000J0D01*
G01*
X28520500Y-6019000D02*
X28520500Y-6419000D01*
X28320500Y-6219000D02*
X28720500Y-6219000D01*
X28720500Y-6219000D02*
G75*
G03X28720500Y-6219000I-200000J0D01*
G01*
X32806700Y-7924000D02*
X32806700Y-8324000D01*
X32606700Y-8124000D02*
X33006700Y-8124000D01*
X33006700Y-8124000D02*
G75*
G03X33006700Y-8124000I-200000J0D01*
G01*
X38045500Y-7924000D02*
X38045500Y-8324000D01*
X37845500Y-8124000D02*
X38245500Y-8124000D01*
X38245500Y-8124000D02*
G75*
G03X38245500Y-8124000I-200000J0D01*
G01*
X25663000Y-4114000D02*
X25663000Y-4514000D01*
X25463000Y-4314000D02*
X25863000Y-4314000D01*
X25863000Y-4314000D02*
G75*
G03X25863000Y-4314000I-200000J0D01*
G01*
X34235500Y-6019000D02*
X34235500Y-6419000D01*
X34035500Y-6219000D02*
X34435500Y-6219000D01*
X34435500Y-6219000D02*
G75*
G03X34435500Y-6219000I-200000J0D01*
G01*
X29949200Y-9829000D02*
X29949200Y-10229000D01*
X29749200Y-10029000D02*
X30149200Y-10029000D01*
X30149200Y-10029000D02*
G75*
G03X30149200Y-10029000I-200000J0D01*
G01*
X34235400Y-11734000D02*
X34235400Y-12134000D01*
X34035400Y-11934000D02*
X34435400Y-11934000D01*
X34435400Y-11934000D02*
G75*
G03X34435400Y-11934000I-200000J0D01*
G01*
X23758000Y-4114000D02*
X23758000Y-4514000D01*
X23558000Y-4314000D02*
X23958000Y-4314000D01*
X23958000Y-4314000D02*
G75*
G03X23958000Y-4314000I-200000J0D01*
G01*
X38045500Y-6019000D02*
X38045500Y-6419000D01*
X37845500Y-6219000D02*
X38245500Y-6219000D01*
X38245500Y-6219000D02*
G75*
G03X38245500Y-6219000I-200000J0D01*
G01*
X26615500Y-6019000D02*
X26615500Y-6419000D01*
X26415500Y-6219000D02*
X26815500Y-6219000D01*
X26815500Y-6219000D02*
G75*
G03X26815500Y-6219000I-200000J0D01*
G01*
X28996700Y-7924000D02*
X28996700Y-8324000D01*
X28796700Y-8124000D02*
X29196700Y-8124000D01*
X29196700Y-8124000D02*
G75*
G03X29196700Y-8124000I-200000J0D01*
G01*
D12*
X21178928Y-13659214D02*
X21178928Y-13359214D01*
X21250357Y-13359214D01*
X21293214Y-13373500D01*
X21321786Y-13402071D01*
X21336071Y-13430643D01*
X21350357Y-13487786D01*
X21350357Y-13530643D01*
X21336071Y-13587786D01*
X21321786Y-13616357D01*
X21293214Y-13644929D01*
X21250357Y-13659214D01*
X21178928Y-13659214D01*
X21478928Y-13659214D02*
X21478928Y-13459214D01*
X21478928Y-13516357D02*
X21493214Y-13487786D01*
X21507500Y-13473500D01*
X21536071Y-13459214D01*
X21564643Y-13459214D01*
X21664643Y-13659214D02*
X21664643Y-13459214D01*
X21664643Y-13359214D02*
X21650357Y-13373500D01*
X21664643Y-13387786D01*
X21678928Y-13373500D01*
X21664643Y-13359214D01*
X21664643Y-13387786D01*
X21850357Y-13659214D02*
X21821786Y-13644929D01*
X21807500Y-13616357D01*
X21807500Y-13359214D01*
X22007500Y-13659214D02*
X21978928Y-13644929D01*
X21964643Y-13616357D01*
X21964643Y-13359214D01*
X22350357Y-13659214D02*
X22350357Y-13359214D01*
X22450357Y-13573500D01*
X22550357Y-13359214D01*
X22550357Y-13659214D01*
X22821786Y-13659214D02*
X22821786Y-13502071D01*
X22807500Y-13473500D01*
X22778928Y-13459214D01*
X22721786Y-13459214D01*
X22693214Y-13473500D01*
X22821786Y-13644929D02*
X22793214Y-13659214D01*
X22721786Y-13659214D01*
X22693214Y-13644929D01*
X22678928Y-13616357D01*
X22678928Y-13587786D01*
X22693214Y-13559214D01*
X22721786Y-13544929D01*
X22793214Y-13544929D01*
X22821786Y-13530643D01*
X22964643Y-13459214D02*
X22964643Y-13759214D01*
X22964643Y-13473500D02*
X22993214Y-13459214D01*
X23050357Y-13459214D01*
X23078928Y-13473500D01*
X23093214Y-13487786D01*
X23107500Y-13516357D01*
X23107500Y-13602071D01*
X23093214Y-13630643D01*
X23078928Y-13644929D01*
X23050357Y-13659214D01*
X22993214Y-13659214D01*
X22964643Y-13644929D01*
X23236071Y-13630643D02*
X23250357Y-13644929D01*
X23236071Y-13659214D01*
X23221786Y-13644929D01*
X23236071Y-13630643D01*
X23236071Y-13659214D01*
X23236071Y-13473500D02*
X23250357Y-13487786D01*
X23236071Y-13502071D01*
X23221786Y-13487786D01*
X23236071Y-13473500D01*
X23236071Y-13502071D01*
X20852500Y-14133500D02*
X20892500Y-14173500D01*
X20892500Y-14133500D02*
X20852500Y-14173500D01*
X21236071Y-13989214D02*
X21264643Y-13989214D01*
X21293214Y-14003500D01*
X21307500Y-14017786D01*
X21321786Y-14046357D01*
X21336071Y-14103500D01*
X21336071Y-14174929D01*
X21321786Y-14232071D01*
X21307500Y-14260643D01*
X21293214Y-14274929D01*
X21264643Y-14289214D01*
X21236071Y-14289214D01*
X21207500Y-14274929D01*
X21193214Y-14260643D01*
X21178928Y-14232071D01*
X21164643Y-14174929D01*
X21164643Y-14103500D01*
X21178928Y-14046357D01*
X21193214Y-14017786D01*
X21207500Y-14003500D01*
X21236071Y-13989214D01*
X21464643Y-14260643D02*
X21478928Y-14274929D01*
X21464643Y-14289214D01*
X21450357Y-14274929D01*
X21464643Y-14260643D01*
X21464643Y-14289214D01*
X21736071Y-14089214D02*
X21736071Y-14289214D01*
X21664643Y-13974929D02*
X21593214Y-14189214D01*
X21778928Y-14189214D01*
X21950357Y-13989214D02*
X21978928Y-13989214D01*
X22007500Y-14003500D01*
X22021786Y-14017786D01*
X22036071Y-14046357D01*
X22050357Y-14103500D01*
X22050357Y-14174929D01*
X22036071Y-14232071D01*
X22021786Y-14260643D01*
X22007500Y-14274929D01*
X21978928Y-14289214D01*
X21950357Y-14289214D01*
X21921786Y-14274929D01*
X21907500Y-14260643D01*
X21893214Y-14232071D01*
X21878928Y-14174929D01*
X21878928Y-14103500D01*
X21893214Y-14046357D01*
X21907500Y-14017786D01*
X21921786Y-14003500D01*
X21950357Y-13989214D01*
X22178928Y-14289214D02*
X22178928Y-14089214D01*
X22178928Y-14117786D02*
X22193214Y-14103500D01*
X22221786Y-14089214D01*
X22264643Y-14089214D01*
X22293214Y-14103500D01*
X22307500Y-14132071D01*
X22307500Y-14289214D01*
X22307500Y-14132071D02*
X22321786Y-14103500D01*
X22350357Y-14089214D01*
X22393214Y-14089214D01*
X22421786Y-14103500D01*
X22436071Y-14132071D01*
X22436071Y-14289214D01*
X22578928Y-14289214D02*
X22578928Y-14089214D01*
X22578928Y-14117786D02*
X22593214Y-14103500D01*
X22621786Y-14089214D01*
X22664643Y-14089214D01*
X22693214Y-14103500D01*
X22707500Y-14132071D01*
X22707500Y-14289214D01*
X22707500Y-14132071D02*
X22721786Y-14103500D01*
X22750357Y-14089214D01*
X22793214Y-14089214D01*
X22821786Y-14103500D01*
X22836071Y-14132071D01*
X22836071Y-14289214D01*
X23421786Y-13974929D02*
X23164643Y-14360643D01*
X23807500Y-13989214D02*
X23836071Y-13989214D01*
X23864643Y-14003500D01*
X23878928Y-14017786D01*
X23893214Y-14046357D01*
X23907500Y-14103500D01*
X23907500Y-14174929D01*
X23893214Y-14232071D01*
X23878928Y-14260643D01*
X23864643Y-14274929D01*
X23836071Y-14289214D01*
X23807500Y-14289214D01*
X23778928Y-14274929D01*
X23764643Y-14260643D01*
X23750357Y-14232071D01*
X23736071Y-14174929D01*
X23736071Y-14103500D01*
X23750357Y-14046357D01*
X23764643Y-14017786D01*
X23778928Y-14003500D01*
X23807500Y-13989214D01*
X24036071Y-14260643D02*
X24050357Y-14274929D01*
X24036071Y-14289214D01*
X24021786Y-14274929D01*
X24036071Y-14260643D01*
X24036071Y-14289214D01*
X24236071Y-13989214D02*
X24264643Y-13989214D01*
X24293214Y-14003500D01*
X24307500Y-14017786D01*
X24321786Y-14046357D01*
X24336071Y-14103500D01*
X24336071Y-14174929D01*
X24321786Y-14232071D01*
X24307500Y-14260643D01*
X24293214Y-14274929D01*
X24264643Y-14289214D01*
X24236071Y-14289214D01*
X24207500Y-14274929D01*
X24193214Y-14260643D01*
X24178928Y-14232071D01*
X24164643Y-14174929D01*
X24164643Y-14103500D01*
X24178928Y-14046357D01*
X24193214Y-14017786D01*
X24207500Y-14003500D01*
X24236071Y-13989214D01*
X24621786Y-14289214D02*
X24450357Y-14289214D01*
X24536071Y-14289214D02*
X24536071Y-13989214D01*
X24507500Y-14032071D01*
X24478928Y-14060643D01*
X24450357Y-14074929D01*
X24878928Y-13989214D02*
X24821786Y-13989214D01*
X24793214Y-14003500D01*
X24778928Y-14017786D01*
X24750357Y-14060643D01*
X24736071Y-14117786D01*
X24736071Y-14232071D01*
X24750357Y-14260643D01*
X24764643Y-14274929D01*
X24793214Y-14289214D01*
X24850357Y-14289214D01*
X24878928Y-14274929D01*
X24893214Y-14260643D01*
X24907500Y-14232071D01*
X24907500Y-14160643D01*
X24893214Y-14132071D01*
X24878928Y-14117786D01*
X24850357Y-14103500D01*
X24793214Y-14103500D01*
X24764643Y-14117786D01*
X24750357Y-14132071D01*
X24736071Y-14160643D01*
X25021786Y-13989214D02*
X25021786Y-14046357D01*
X25136071Y-13989214D02*
X25136071Y-14046357D01*
X25578928Y-14403500D02*
X25564643Y-14389214D01*
X25536071Y-14346357D01*
X25521786Y-14317786D01*
X25507500Y-14274929D01*
X25493214Y-14203500D01*
X25493214Y-14146357D01*
X25507500Y-14074929D01*
X25521786Y-14032071D01*
X25536071Y-14003500D01*
X25564643Y-13960643D01*
X25578928Y-13946357D01*
X25850357Y-14289214D02*
X25678928Y-14289214D01*
X25764643Y-14289214D02*
X25764643Y-13989214D01*
X25736071Y-14032071D01*
X25707500Y-14060643D01*
X25678928Y-14074929D01*
X26121786Y-13989214D02*
X25978928Y-13989214D01*
X25964643Y-14132071D01*
X25978928Y-14117786D01*
X26007500Y-14103500D01*
X26078928Y-14103500D01*
X26107500Y-14117786D01*
X26121786Y-14132071D01*
X26136071Y-14160643D01*
X26136071Y-14232071D01*
X26121786Y-14260643D01*
X26107500Y-14274929D01*
X26078928Y-14289214D01*
X26007500Y-14289214D01*
X25978928Y-14274929D01*
X25964643Y-14260643D01*
X26393214Y-13989214D02*
X26336071Y-13989214D01*
X26307500Y-14003500D01*
X26293214Y-14017786D01*
X26264643Y-14060643D01*
X26250357Y-14117786D01*
X26250357Y-14232071D01*
X26264643Y-14260643D01*
X26278928Y-14274929D01*
X26307500Y-14289214D01*
X26364643Y-14289214D01*
X26393214Y-14274929D01*
X26407500Y-14260643D01*
X26421786Y-14232071D01*
X26421786Y-14160643D01*
X26407500Y-14132071D01*
X26393214Y-14117786D01*
X26364643Y-14103500D01*
X26307500Y-14103500D01*
X26278928Y-14117786D01*
X26264643Y-14132071D01*
X26250357Y-14160643D01*
X26778928Y-14289214D02*
X26778928Y-13989214D01*
X26907500Y-14289214D02*
X26907500Y-14132071D01*
X26893214Y-14103500D01*
X26864643Y-14089214D01*
X26821786Y-14089214D01*
X26793214Y-14103500D01*
X26778928Y-14117786D01*
X27093214Y-14289214D02*
X27064643Y-14274929D01*
X27050357Y-14260643D01*
X27036071Y-14232071D01*
X27036071Y-14146357D01*
X27050357Y-14117786D01*
X27064643Y-14103500D01*
X27093214Y-14089214D01*
X27136071Y-14089214D01*
X27164643Y-14103500D01*
X27178928Y-14117786D01*
X27193214Y-14146357D01*
X27193214Y-14232071D01*
X27178928Y-14260643D01*
X27164643Y-14274929D01*
X27136071Y-14289214D01*
X27093214Y-14289214D01*
X27364643Y-14289214D02*
X27336071Y-14274929D01*
X27321786Y-14246357D01*
X27321786Y-13989214D01*
X27593214Y-14274929D02*
X27564643Y-14289214D01*
X27507500Y-14289214D01*
X27478928Y-14274929D01*
X27464643Y-14246357D01*
X27464643Y-14132071D01*
X27478928Y-14103500D01*
X27507500Y-14089214D01*
X27564643Y-14089214D01*
X27593214Y-14103500D01*
X27607500Y-14132071D01*
X27607500Y-14160643D01*
X27464643Y-14189214D01*
X27721786Y-14274929D02*
X27750357Y-14289214D01*
X27807500Y-14289214D01*
X27836071Y-14274929D01*
X27850357Y-14246357D01*
X27850357Y-14232071D01*
X27836071Y-14203500D01*
X27807500Y-14189214D01*
X27764643Y-14189214D01*
X27736071Y-14174929D01*
X27721786Y-14146357D01*
X27721786Y-14132071D01*
X27736071Y-14103500D01*
X27764643Y-14089214D01*
X27807500Y-14089214D01*
X27836071Y-14103500D01*
X27950357Y-14403500D02*
X27964643Y-14389214D01*
X27993214Y-14346357D01*
X28007500Y-14317786D01*
X28021786Y-14274929D01*
X28036071Y-14203500D01*
X28036071Y-14146357D01*
X28021786Y-14074929D01*
X28007500Y-14032071D01*
X27993214Y-14003500D01*
X27964643Y-13960643D01*
X27950357Y-13946357D01*
X20892500Y-14549500D02*
G75*
G03X20892500Y-14549500I-40640J0D01*
G01*
X21236071Y-14385214D02*
X21264643Y-14385214D01*
X21293214Y-14399500D01*
X21307500Y-14413786D01*
X21321786Y-14442357D01*
X21336071Y-14499500D01*
X21336071Y-14570929D01*
X21321786Y-14628071D01*
X21307500Y-14656643D01*
X21293214Y-14670929D01*
X21264643Y-14685214D01*
X21236071Y-14685214D01*
X21207500Y-14670929D01*
X21193214Y-14656643D01*
X21178928Y-14628071D01*
X21164643Y-14570929D01*
X21164643Y-14499500D01*
X21178928Y-14442357D01*
X21193214Y-14413786D01*
X21207500Y-14399500D01*
X21236071Y-14385214D01*
X21464643Y-14656643D02*
X21478928Y-14670929D01*
X21464643Y-14685214D01*
X21450357Y-14670929D01*
X21464643Y-14656643D01*
X21464643Y-14685214D01*
X21650357Y-14513786D02*
X21621786Y-14499500D01*
X21607500Y-14485214D01*
X21593214Y-14456643D01*
X21593214Y-14442357D01*
X21607500Y-14413786D01*
X21621786Y-14399500D01*
X21650357Y-14385214D01*
X21707500Y-14385214D01*
X21736071Y-14399500D01*
X21750357Y-14413786D01*
X21764643Y-14442357D01*
X21764643Y-14456643D01*
X21750357Y-14485214D01*
X21736071Y-14499500D01*
X21707500Y-14513786D01*
X21650357Y-14513786D01*
X21621786Y-14528071D01*
X21607500Y-14542357D01*
X21593214Y-14570929D01*
X21593214Y-14628071D01*
X21607500Y-14656643D01*
X21621786Y-14670929D01*
X21650357Y-14685214D01*
X21707500Y-14685214D01*
X21736071Y-14670929D01*
X21750357Y-14656643D01*
X21764643Y-14628071D01*
X21764643Y-14570929D01*
X21750357Y-14542357D01*
X21736071Y-14528071D01*
X21707500Y-14513786D01*
X22050357Y-14685214D02*
X21878928Y-14685214D01*
X21964643Y-14685214D02*
X21964643Y-14385214D01*
X21936071Y-14428071D01*
X21907500Y-14456643D01*
X21878928Y-14470929D01*
X22178928Y-14685214D02*
X22178928Y-14485214D01*
X22178928Y-14513786D02*
X22193214Y-14499500D01*
X22221786Y-14485214D01*
X22264643Y-14485214D01*
X22293214Y-14499500D01*
X22307500Y-14528071D01*
X22307500Y-14685214D01*
X22307500Y-14528071D02*
X22321786Y-14499500D01*
X22350357Y-14485214D01*
X22393214Y-14485214D01*
X22421786Y-14499500D01*
X22436071Y-14528071D01*
X22436071Y-14685214D01*
X22578928Y-14685214D02*
X22578928Y-14485214D01*
X22578928Y-14513786D02*
X22593214Y-14499500D01*
X22621786Y-14485214D01*
X22664643Y-14485214D01*
X22693214Y-14499500D01*
X22707500Y-14528071D01*
X22707500Y-14685214D01*
X22707500Y-14528071D02*
X22721786Y-14499500D01*
X22750357Y-14485214D01*
X22793214Y-14485214D01*
X22821786Y-14499500D01*
X22836071Y-14528071D01*
X22836071Y-14685214D01*
X23421786Y-14370929D02*
X23164643Y-14756643D01*
X23807500Y-14385214D02*
X23836071Y-14385214D01*
X23864643Y-14399500D01*
X23878928Y-14413786D01*
X23893214Y-14442357D01*
X23907500Y-14499500D01*
X23907500Y-14570929D01*
X23893214Y-14628071D01*
X23878928Y-14656643D01*
X23864643Y-14670929D01*
X23836071Y-14685214D01*
X23807500Y-14685214D01*
X23778928Y-14670929D01*
X23764643Y-14656643D01*
X23750357Y-14628071D01*
X23736071Y-14570929D01*
X23736071Y-14499500D01*
X23750357Y-14442357D01*
X23764643Y-14413786D01*
X23778928Y-14399500D01*
X23807500Y-14385214D01*
X24036071Y-14656643D02*
X24050357Y-14670929D01*
X24036071Y-14685214D01*
X24021786Y-14670929D01*
X24036071Y-14656643D01*
X24036071Y-14685214D01*
X24236071Y-14385214D02*
X24264643Y-14385214D01*
X24293214Y-14399500D01*
X24307500Y-14413786D01*
X24321786Y-14442357D01*
X24336071Y-14499500D01*
X24336071Y-14570929D01*
X24321786Y-14628071D01*
X24307500Y-14656643D01*
X24293214Y-14670929D01*
X24264643Y-14685214D01*
X24236071Y-14685214D01*
X24207500Y-14670929D01*
X24193214Y-14656643D01*
X24178928Y-14628071D01*
X24164643Y-14570929D01*
X24164643Y-14499500D01*
X24178928Y-14442357D01*
X24193214Y-14413786D01*
X24207500Y-14399500D01*
X24236071Y-14385214D01*
X24436071Y-14385214D02*
X24621786Y-14385214D01*
X24521786Y-14499500D01*
X24564643Y-14499500D01*
X24593214Y-14513786D01*
X24607500Y-14528071D01*
X24621786Y-14556643D01*
X24621786Y-14628071D01*
X24607500Y-14656643D01*
X24593214Y-14670929D01*
X24564643Y-14685214D01*
X24478928Y-14685214D01*
X24450357Y-14670929D01*
X24436071Y-14656643D01*
X24736071Y-14413786D02*
X24750357Y-14399500D01*
X24778928Y-14385214D01*
X24850357Y-14385214D01*
X24878928Y-14399500D01*
X24893214Y-14413786D01*
X24907500Y-14442357D01*
X24907500Y-14470929D01*
X24893214Y-14513786D01*
X24721786Y-14685214D01*
X24907500Y-14685214D01*
X25021786Y-14385214D02*
X25021786Y-14442357D01*
X25136071Y-14385214D02*
X25136071Y-14442357D01*
X25578928Y-14799500D02*
X25564643Y-14785214D01*
X25536071Y-14742357D01*
X25521786Y-14713786D01*
X25507500Y-14670929D01*
X25493214Y-14599500D01*
X25493214Y-14542357D01*
X25507500Y-14470929D01*
X25521786Y-14428071D01*
X25536071Y-14399500D01*
X25564643Y-14356643D01*
X25578928Y-14342357D01*
X25821786Y-14485214D02*
X25821786Y-14685214D01*
X25750357Y-14370929D02*
X25678928Y-14585214D01*
X25864643Y-14585214D01*
X26207500Y-14685214D02*
X26207500Y-14385214D01*
X26336071Y-14685214D02*
X26336071Y-14528071D01*
X26321786Y-14499500D01*
X26293214Y-14485214D01*
X26250357Y-14485214D01*
X26221786Y-14499500D01*
X26207500Y-14513786D01*
X26521786Y-14685214D02*
X26493214Y-14670929D01*
X26478928Y-14656643D01*
X26464643Y-14628071D01*
X26464643Y-14542357D01*
X26478928Y-14513786D01*
X26493214Y-14499500D01*
X26521786Y-14485214D01*
X26564643Y-14485214D01*
X26593214Y-14499500D01*
X26607500Y-14513786D01*
X26621786Y-14542357D01*
X26621786Y-14628071D01*
X26607500Y-14656643D01*
X26593214Y-14670929D01*
X26564643Y-14685214D01*
X26521786Y-14685214D01*
X26793214Y-14685214D02*
X26764643Y-14670929D01*
X26750357Y-14642357D01*
X26750357Y-14385214D01*
X27021786Y-14670929D02*
X26993214Y-14685214D01*
X26936071Y-14685214D01*
X26907500Y-14670929D01*
X26893214Y-14642357D01*
X26893214Y-14528071D01*
X26907500Y-14499500D01*
X26936071Y-14485214D01*
X26993214Y-14485214D01*
X27021786Y-14499500D01*
X27036071Y-14528071D01*
X27036071Y-14556643D01*
X26893214Y-14585214D01*
X27150357Y-14670929D02*
X27178928Y-14685214D01*
X27236071Y-14685214D01*
X27264643Y-14670929D01*
X27278928Y-14642357D01*
X27278928Y-14628071D01*
X27264643Y-14599500D01*
X27236071Y-14585214D01*
X27193214Y-14585214D01*
X27164643Y-14570929D01*
X27150357Y-14542357D01*
X27150357Y-14528071D01*
X27164643Y-14499500D01*
X27193214Y-14485214D01*
X27236071Y-14485214D01*
X27264643Y-14499500D01*
X27378928Y-14799500D02*
X27393214Y-14785214D01*
X27421786Y-14742357D01*
X27436071Y-14713786D01*
X27450357Y-14670929D01*
X27464643Y-14599500D01*
X27464643Y-14542357D01*
X27450357Y-14470929D01*
X27436071Y-14428071D01*
X27421786Y-14399500D01*
X27393214Y-14356643D01*
X27378928Y-14342357D01*
X20842500Y-14895500D02*
X20842500Y-14995500D01*
X20792500Y-14945500D02*
X20892500Y-14945500D01*
X21336071Y-15081214D02*
X21164643Y-15081214D01*
X21250357Y-15081214D02*
X21250357Y-14781214D01*
X21221786Y-14824071D01*
X21193214Y-14852643D01*
X21164643Y-14866929D01*
X21464643Y-15052643D02*
X21478928Y-15066929D01*
X21464643Y-15081214D01*
X21450357Y-15066929D01*
X21464643Y-15052643D01*
X21464643Y-15081214D01*
X21664643Y-14781214D02*
X21693214Y-14781214D01*
X21721786Y-14795500D01*
X21736071Y-14809786D01*
X21750357Y-14838357D01*
X21764643Y-14895500D01*
X21764643Y-14966929D01*
X21750357Y-15024071D01*
X21736071Y-15052643D01*
X21721786Y-15066929D01*
X21693214Y-15081214D01*
X21664643Y-15081214D01*
X21636071Y-15066929D01*
X21621786Y-15052643D01*
X21607500Y-15024071D01*
X21593214Y-14966929D01*
X21593214Y-14895500D01*
X21607500Y-14838357D01*
X21621786Y-14809786D01*
X21636071Y-14795500D01*
X21664643Y-14781214D01*
X21950357Y-14781214D02*
X21978928Y-14781214D01*
X22007500Y-14795500D01*
X22021786Y-14809786D01*
X22036071Y-14838357D01*
X22050357Y-14895500D01*
X22050357Y-14966929D01*
X22036071Y-15024071D01*
X22021786Y-15052643D01*
X22007500Y-15066929D01*
X21978928Y-15081214D01*
X21950357Y-15081214D01*
X21921786Y-15066929D01*
X21907500Y-15052643D01*
X21893214Y-15024071D01*
X21878928Y-14966929D01*
X21878928Y-14895500D01*
X21893214Y-14838357D01*
X21907500Y-14809786D01*
X21921786Y-14795500D01*
X21950357Y-14781214D01*
X22178928Y-15081214D02*
X22178928Y-14881214D01*
X22178928Y-14909786D02*
X22193214Y-14895500D01*
X22221786Y-14881214D01*
X22264643Y-14881214D01*
X22293214Y-14895500D01*
X22307500Y-14924071D01*
X22307500Y-15081214D01*
X22307500Y-14924071D02*
X22321786Y-14895500D01*
X22350357Y-14881214D01*
X22393214Y-14881214D01*
X22421786Y-14895500D01*
X22436071Y-14924071D01*
X22436071Y-15081214D01*
X22578928Y-15081214D02*
X22578928Y-14881214D01*
X22578928Y-14909786D02*
X22593214Y-14895500D01*
X22621786Y-14881214D01*
X22664643Y-14881214D01*
X22693214Y-14895500D01*
X22707500Y-14924071D01*
X22707500Y-15081214D01*
X22707500Y-14924071D02*
X22721786Y-14895500D01*
X22750357Y-14881214D01*
X22793214Y-14881214D01*
X22821786Y-14895500D01*
X22836071Y-14924071D01*
X22836071Y-15081214D01*
X23421786Y-14766929D02*
X23164643Y-15152643D01*
X23807500Y-14781214D02*
X23836071Y-14781214D01*
X23864643Y-14795500D01*
X23878928Y-14809786D01*
X23893214Y-14838357D01*
X23907500Y-14895500D01*
X23907500Y-14966929D01*
X23893214Y-15024071D01*
X23878928Y-15052643D01*
X23864643Y-15066929D01*
X23836071Y-15081214D01*
X23807500Y-15081214D01*
X23778928Y-15066929D01*
X23764643Y-15052643D01*
X23750357Y-15024071D01*
X23736071Y-14966929D01*
X23736071Y-14895500D01*
X23750357Y-14838357D01*
X23764643Y-14809786D01*
X23778928Y-14795500D01*
X23807500Y-14781214D01*
X24036071Y-15052643D02*
X24050357Y-15066929D01*
X24036071Y-15081214D01*
X24021786Y-15066929D01*
X24036071Y-15052643D01*
X24036071Y-15081214D01*
X24236071Y-14781214D02*
X24264643Y-14781214D01*
X24293214Y-14795500D01*
X24307500Y-14809786D01*
X24321786Y-14838357D01*
X24336071Y-14895500D01*
X24336071Y-14966929D01*
X24321786Y-15024071D01*
X24307500Y-15052643D01*
X24293214Y-15066929D01*
X24264643Y-15081214D01*
X24236071Y-15081214D01*
X24207500Y-15066929D01*
X24193214Y-15052643D01*
X24178928Y-15024071D01*
X24164643Y-14966929D01*
X24164643Y-14895500D01*
X24178928Y-14838357D01*
X24193214Y-14809786D01*
X24207500Y-14795500D01*
X24236071Y-14781214D01*
X24436071Y-14781214D02*
X24621786Y-14781214D01*
X24521786Y-14895500D01*
X24564643Y-14895500D01*
X24593214Y-14909786D01*
X24607500Y-14924071D01*
X24621786Y-14952643D01*
X24621786Y-15024071D01*
X24607500Y-15052643D01*
X24593214Y-15066929D01*
X24564643Y-15081214D01*
X24478928Y-15081214D01*
X24450357Y-15066929D01*
X24436071Y-15052643D01*
X24764643Y-15081214D02*
X24821786Y-15081214D01*
X24850357Y-15066929D01*
X24864643Y-15052643D01*
X24893214Y-15009786D01*
X24907500Y-14952643D01*
X24907500Y-14838357D01*
X24893214Y-14809786D01*
X24878928Y-14795500D01*
X24850357Y-14781214D01*
X24793214Y-14781214D01*
X24764643Y-14795500D01*
X24750357Y-14809786D01*
X24736071Y-14838357D01*
X24736071Y-14909786D01*
X24750357Y-14938357D01*
X24764643Y-14952643D01*
X24793214Y-14966929D01*
X24850357Y-14966929D01*
X24878928Y-14952643D01*
X24893214Y-14938357D01*
X24907500Y-14909786D01*
X25021786Y-14781214D02*
X25021786Y-14838357D01*
X25136071Y-14781214D02*
X25136071Y-14838357D01*
X25578928Y-15195500D02*
X25564643Y-15181214D01*
X25536071Y-15138357D01*
X25521786Y-15109786D01*
X25507500Y-15066929D01*
X25493214Y-14995500D01*
X25493214Y-14938357D01*
X25507500Y-14866929D01*
X25521786Y-14824071D01*
X25536071Y-14795500D01*
X25564643Y-14752643D01*
X25578928Y-14738357D01*
X25750357Y-14781214D02*
X25778928Y-14781214D01*
X25807500Y-14795500D01*
X25821786Y-14809786D01*
X25836071Y-14838357D01*
X25850357Y-14895500D01*
X25850357Y-14966929D01*
X25836071Y-15024071D01*
X25821786Y-15052643D01*
X25807500Y-15066929D01*
X25778928Y-15081214D01*
X25750357Y-15081214D01*
X25721786Y-15066929D01*
X25707500Y-15052643D01*
X25693214Y-15024071D01*
X25678928Y-14966929D01*
X25678928Y-14895500D01*
X25693214Y-14838357D01*
X25707500Y-14809786D01*
X25721786Y-14795500D01*
X25750357Y-14781214D01*
X26207500Y-15081214D02*
X26207500Y-14781214D01*
X26336071Y-15081214D02*
X26336071Y-14924071D01*
X26321786Y-14895500D01*
X26293214Y-14881214D01*
X26250357Y-14881214D01*
X26221786Y-14895500D01*
X26207500Y-14909786D01*
X26521786Y-15081214D02*
X26493214Y-15066929D01*
X26478928Y-15052643D01*
X26464643Y-15024071D01*
X26464643Y-14938357D01*
X26478928Y-14909786D01*
X26493214Y-14895500D01*
X26521786Y-14881214D01*
X26564643Y-14881214D01*
X26593214Y-14895500D01*
X26607500Y-14909786D01*
X26621786Y-14938357D01*
X26621786Y-15024071D01*
X26607500Y-15052643D01*
X26593214Y-15066929D01*
X26564643Y-15081214D01*
X26521786Y-15081214D01*
X26793214Y-15081214D02*
X26764643Y-15066929D01*
X26750357Y-15038357D01*
X26750357Y-14781214D01*
X27021786Y-15066929D02*
X26993214Y-15081214D01*
X26936071Y-15081214D01*
X26907500Y-15066929D01*
X26893214Y-15038357D01*
X26893214Y-14924071D01*
X26907500Y-14895500D01*
X26936071Y-14881214D01*
X26993214Y-14881214D01*
X27021786Y-14895500D01*
X27036071Y-14924071D01*
X27036071Y-14952643D01*
X26893214Y-14981214D01*
X27150357Y-15066929D02*
X27178928Y-15081214D01*
X27236071Y-15081214D01*
X27264643Y-15066929D01*
X27278928Y-15038357D01*
X27278928Y-15024071D01*
X27264643Y-14995500D01*
X27236071Y-14981214D01*
X27193214Y-14981214D01*
X27164643Y-14966929D01*
X27150357Y-14938357D01*
X27150357Y-14924071D01*
X27164643Y-14895500D01*
X27193214Y-14881214D01*
X27236071Y-14881214D01*
X27264643Y-14895500D01*
X27636071Y-14966929D02*
X27864643Y-14966929D01*
X27750357Y-15081214D02*
X27750357Y-14852643D01*
X28364643Y-14881214D02*
X28364643Y-15081214D01*
X28293214Y-14766929D02*
X28221786Y-14981214D01*
X28407500Y-14981214D01*
X28736071Y-15066929D02*
X28764643Y-15081214D01*
X28821786Y-15081214D01*
X28850357Y-15066929D01*
X28864643Y-15038357D01*
X28864643Y-15024071D01*
X28850357Y-14995500D01*
X28821786Y-14981214D01*
X28778928Y-14981214D01*
X28750357Y-14966929D01*
X28736071Y-14938357D01*
X28736071Y-14924071D01*
X28750357Y-14895500D01*
X28778928Y-14881214D01*
X28821786Y-14881214D01*
X28850357Y-14895500D01*
X29036071Y-15081214D02*
X29007500Y-15066929D01*
X28993214Y-15038357D01*
X28993214Y-14781214D01*
X29193214Y-15081214D02*
X29164643Y-15066929D01*
X29150357Y-15052643D01*
X29136071Y-15024071D01*
X29136071Y-14938357D01*
X29150357Y-14909786D01*
X29164643Y-14895500D01*
X29193214Y-14881214D01*
X29236071Y-14881214D01*
X29264643Y-14895500D01*
X29278928Y-14909786D01*
X29293214Y-14938357D01*
X29293214Y-15024071D01*
X29278928Y-15052643D01*
X29264643Y-15066929D01*
X29236071Y-15081214D01*
X29193214Y-15081214D01*
X29378928Y-14881214D02*
X29493214Y-14881214D01*
X29421786Y-14781214D02*
X29421786Y-15038357D01*
X29436071Y-15066929D01*
X29464643Y-15081214D01*
X29493214Y-15081214D01*
X29578928Y-15066929D02*
X29607500Y-15081214D01*
X29664643Y-15081214D01*
X29693214Y-15066929D01*
X29707500Y-15038357D01*
X29707500Y-15024071D01*
X29693214Y-14995500D01*
X29664643Y-14981214D01*
X29621786Y-14981214D01*
X29593214Y-14966929D01*
X29578928Y-14938357D01*
X29578928Y-14924071D01*
X29593214Y-14895500D01*
X29621786Y-14881214D01*
X29664643Y-14881214D01*
X29693214Y-14895500D01*
X29807500Y-15195500D02*
X29821786Y-15181214D01*
X29850357Y-15138357D01*
X29864643Y-15109786D01*
X29878928Y-15066929D01*
X29893214Y-14995500D01*
X29893214Y-14938357D01*
X29878928Y-14866929D01*
X29864643Y-14824071D01*
X29850357Y-14795500D01*
X29821786Y-14752643D01*
X29807500Y-14738357D01*
X20876391Y-15380391D02*
X20876391Y-15302609D01*
X20798609Y-15302609D01*
X20798609Y-15380391D01*
X20876391Y-15380391D01*
X21336071Y-15477214D02*
X21164643Y-15477214D01*
X21250357Y-15477214D02*
X21250357Y-15177214D01*
X21221786Y-15220071D01*
X21193214Y-15248643D01*
X21164643Y-15262929D01*
X21464643Y-15448643D02*
X21478928Y-15462929D01*
X21464643Y-15477214D01*
X21450357Y-15462929D01*
X21464643Y-15448643D01*
X21464643Y-15477214D01*
X21764643Y-15477214D02*
X21593214Y-15477214D01*
X21678928Y-15477214D02*
X21678928Y-15177214D01*
X21650357Y-15220071D01*
X21621786Y-15248643D01*
X21593214Y-15262929D01*
X21950357Y-15177214D02*
X21978928Y-15177214D01*
X22007500Y-15191500D01*
X22021786Y-15205786D01*
X22036071Y-15234357D01*
X22050357Y-15291500D01*
X22050357Y-15362929D01*
X22036071Y-15420071D01*
X22021786Y-15448643D01*
X22007500Y-15462929D01*
X21978928Y-15477214D01*
X21950357Y-15477214D01*
X21921786Y-15462929D01*
X21907500Y-15448643D01*
X21893214Y-15420071D01*
X21878928Y-15362929D01*
X21878928Y-15291500D01*
X21893214Y-15234357D01*
X21907500Y-15205786D01*
X21921786Y-15191500D01*
X21950357Y-15177214D01*
X22178928Y-15477214D02*
X22178928Y-15277214D01*
X22178928Y-15305786D02*
X22193214Y-15291500D01*
X22221786Y-15277214D01*
X22264643Y-15277214D01*
X22293214Y-15291500D01*
X22307500Y-15320071D01*
X22307500Y-15477214D01*
X22307500Y-15320071D02*
X22321786Y-15291500D01*
X22350357Y-15277214D01*
X22393214Y-15277214D01*
X22421786Y-15291500D01*
X22436071Y-15320071D01*
X22436071Y-15477214D01*
X22578928Y-15477214D02*
X22578928Y-15277214D01*
X22578928Y-15305786D02*
X22593214Y-15291500D01*
X22621786Y-15277214D01*
X22664643Y-15277214D01*
X22693214Y-15291500D01*
X22707500Y-15320071D01*
X22707500Y-15477214D01*
X22707500Y-15320071D02*
X22721786Y-15291500D01*
X22750357Y-15277214D01*
X22793214Y-15277214D01*
X22821786Y-15291500D01*
X22836071Y-15320071D01*
X22836071Y-15477214D01*
X23421786Y-15162929D02*
X23164643Y-15548643D01*
X23807500Y-15177214D02*
X23836071Y-15177214D01*
X23864643Y-15191500D01*
X23878928Y-15205786D01*
X23893214Y-15234357D01*
X23907500Y-15291500D01*
X23907500Y-15362929D01*
X23893214Y-15420071D01*
X23878928Y-15448643D01*
X23864643Y-15462929D01*
X23836071Y-15477214D01*
X23807500Y-15477214D01*
X23778928Y-15462929D01*
X23764643Y-15448643D01*
X23750357Y-15420071D01*
X23736071Y-15362929D01*
X23736071Y-15291500D01*
X23750357Y-15234357D01*
X23764643Y-15205786D01*
X23778928Y-15191500D01*
X23807500Y-15177214D01*
X24036071Y-15448643D02*
X24050357Y-15462929D01*
X24036071Y-15477214D01*
X24021786Y-15462929D01*
X24036071Y-15448643D01*
X24036071Y-15477214D01*
X24236071Y-15177214D02*
X24264643Y-15177214D01*
X24293214Y-15191500D01*
X24307500Y-15205786D01*
X24321786Y-15234357D01*
X24336071Y-15291500D01*
X24336071Y-15362929D01*
X24321786Y-15420071D01*
X24307500Y-15448643D01*
X24293214Y-15462929D01*
X24264643Y-15477214D01*
X24236071Y-15477214D01*
X24207500Y-15462929D01*
X24193214Y-15448643D01*
X24178928Y-15420071D01*
X24164643Y-15362929D01*
X24164643Y-15291500D01*
X24178928Y-15234357D01*
X24193214Y-15205786D01*
X24207500Y-15191500D01*
X24236071Y-15177214D01*
X24593214Y-15277214D02*
X24593214Y-15477214D01*
X24521786Y-15162929D02*
X24450357Y-15377214D01*
X24636071Y-15377214D01*
X24721786Y-15177214D02*
X24907500Y-15177214D01*
X24807500Y-15291500D01*
X24850357Y-15291500D01*
X24878928Y-15305786D01*
X24893214Y-15320071D01*
X24907500Y-15348643D01*
X24907500Y-15420071D01*
X24893214Y-15448643D01*
X24878928Y-15462929D01*
X24850357Y-15477214D01*
X24764643Y-15477214D01*
X24736071Y-15462929D01*
X24721786Y-15448643D01*
X25021786Y-15177214D02*
X25021786Y-15234357D01*
X25136071Y-15177214D02*
X25136071Y-15234357D01*
X25578928Y-15591500D02*
X25564643Y-15577214D01*
X25536071Y-15534357D01*
X25521786Y-15505786D01*
X25507500Y-15462929D01*
X25493214Y-15391500D01*
X25493214Y-15334357D01*
X25507500Y-15262929D01*
X25521786Y-15220071D01*
X25536071Y-15191500D01*
X25564643Y-15148643D01*
X25578928Y-15134357D01*
X25678928Y-15205786D02*
X25693214Y-15191500D01*
X25721786Y-15177214D01*
X25793214Y-15177214D01*
X25821786Y-15191500D01*
X25836071Y-15205786D01*
X25850357Y-15234357D01*
X25850357Y-15262929D01*
X25836071Y-15305786D01*
X25664643Y-15477214D01*
X25850357Y-15477214D01*
X26107500Y-15277214D02*
X26107500Y-15477214D01*
X26036071Y-15162929D02*
X25964643Y-15377214D01*
X26150357Y-15377214D01*
X26493214Y-15477214D02*
X26493214Y-15177214D01*
X26621786Y-15477214D02*
X26621786Y-15320071D01*
X26607500Y-15291500D01*
X26578928Y-15277214D01*
X26536071Y-15277214D01*
X26507500Y-15291500D01*
X26493214Y-15305786D01*
X26807500Y-15477214D02*
X26778928Y-15462929D01*
X26764643Y-15448643D01*
X26750357Y-15420071D01*
X26750357Y-15334357D01*
X26764643Y-15305786D01*
X26778928Y-15291500D01*
X26807500Y-15277214D01*
X26850357Y-15277214D01*
X26878928Y-15291500D01*
X26893214Y-15305786D01*
X26907500Y-15334357D01*
X26907500Y-15420071D01*
X26893214Y-15448643D01*
X26878928Y-15462929D01*
X26850357Y-15477214D01*
X26807500Y-15477214D01*
X27078928Y-15477214D02*
X27050357Y-15462929D01*
X27036071Y-15434357D01*
X27036071Y-15177214D01*
X27307500Y-15462929D02*
X27278928Y-15477214D01*
X27221786Y-15477214D01*
X27193214Y-15462929D01*
X27178928Y-15434357D01*
X27178928Y-15320071D01*
X27193214Y-15291500D01*
X27221786Y-15277214D01*
X27278928Y-15277214D01*
X27307500Y-15291500D01*
X27321786Y-15320071D01*
X27321786Y-15348643D01*
X27178928Y-15377214D01*
X27436071Y-15462929D02*
X27464643Y-15477214D01*
X27521786Y-15477214D01*
X27550357Y-15462929D01*
X27564643Y-15434357D01*
X27564643Y-15420071D01*
X27550357Y-15391500D01*
X27521786Y-15377214D01*
X27478928Y-15377214D01*
X27450357Y-15362929D01*
X27436071Y-15334357D01*
X27436071Y-15320071D01*
X27450357Y-15291500D01*
X27478928Y-15277214D01*
X27521786Y-15277214D01*
X27550357Y-15291500D01*
X27664643Y-15591500D02*
X27678928Y-15577214D01*
X27707500Y-15534357D01*
X27721786Y-15505786D01*
X27736071Y-15462929D01*
X27750357Y-15391500D01*
X27750357Y-15334357D01*
X27736071Y-15262929D01*
X27721786Y-15220071D01*
X27707500Y-15191500D01*
X27678928Y-15148643D01*
X27664643Y-15134357D01*
X20842500Y-15787500D02*
X20892500Y-15737500D01*
X20842500Y-15687500D01*
X20792500Y-15737500D01*
X20842500Y-15787500D01*
X21336071Y-15873214D02*
X21164643Y-15873214D01*
X21250357Y-15873214D02*
X21250357Y-15573214D01*
X21221786Y-15616071D01*
X21193214Y-15644643D01*
X21164643Y-15658929D01*
X21464643Y-15844643D02*
X21478928Y-15858929D01*
X21464643Y-15873214D01*
X21450357Y-15858929D01*
X21464643Y-15844643D01*
X21464643Y-15873214D01*
X21664643Y-15573214D02*
X21693214Y-15573214D01*
X21721786Y-15587500D01*
X21736071Y-15601786D01*
X21750357Y-15630357D01*
X21764643Y-15687500D01*
X21764643Y-15758929D01*
X21750357Y-15816071D01*
X21736071Y-15844643D01*
X21721786Y-15858929D01*
X21693214Y-15873214D01*
X21664643Y-15873214D01*
X21636071Y-15858929D01*
X21621786Y-15844643D01*
X21607500Y-15816071D01*
X21593214Y-15758929D01*
X21593214Y-15687500D01*
X21607500Y-15630357D01*
X21621786Y-15601786D01*
X21636071Y-15587500D01*
X21664643Y-15573214D01*
X21950357Y-15573214D02*
X21978928Y-15573214D01*
X22007500Y-15587500D01*
X22021786Y-15601786D01*
X22036071Y-15630357D01*
X22050357Y-15687500D01*
X22050357Y-15758929D01*
X22036071Y-15816071D01*
X22021786Y-15844643D01*
X22007500Y-15858929D01*
X21978928Y-15873214D01*
X21950357Y-15873214D01*
X21921786Y-15858929D01*
X21907500Y-15844643D01*
X21893214Y-15816071D01*
X21878928Y-15758929D01*
X21878928Y-15687500D01*
X21893214Y-15630357D01*
X21907500Y-15601786D01*
X21921786Y-15587500D01*
X21950357Y-15573214D01*
X22178928Y-15873214D02*
X22178928Y-15673214D01*
X22178928Y-15701786D02*
X22193214Y-15687500D01*
X22221786Y-15673214D01*
X22264643Y-15673214D01*
X22293214Y-15687500D01*
X22307500Y-15716071D01*
X22307500Y-15873214D01*
X22307500Y-15716071D02*
X22321786Y-15687500D01*
X22350357Y-15673214D01*
X22393214Y-15673214D01*
X22421786Y-15687500D01*
X22436071Y-15716071D01*
X22436071Y-15873214D01*
X22578928Y-15873214D02*
X22578928Y-15673214D01*
X22578928Y-15701786D02*
X22593214Y-15687500D01*
X22621786Y-15673214D01*
X22664643Y-15673214D01*
X22693214Y-15687500D01*
X22707500Y-15716071D01*
X22707500Y-15873214D01*
X22707500Y-15716071D02*
X22721786Y-15687500D01*
X22750357Y-15673214D01*
X22793214Y-15673214D01*
X22821786Y-15687500D01*
X22836071Y-15716071D01*
X22836071Y-15873214D01*
X23421786Y-15558929D02*
X23164643Y-15944643D01*
X23807500Y-15573214D02*
X23836071Y-15573214D01*
X23864643Y-15587500D01*
X23878928Y-15601786D01*
X23893214Y-15630357D01*
X23907500Y-15687500D01*
X23907500Y-15758929D01*
X23893214Y-15816071D01*
X23878928Y-15844643D01*
X23864643Y-15858929D01*
X23836071Y-15873214D01*
X23807500Y-15873214D01*
X23778928Y-15858929D01*
X23764643Y-15844643D01*
X23750357Y-15816071D01*
X23736071Y-15758929D01*
X23736071Y-15687500D01*
X23750357Y-15630357D01*
X23764643Y-15601786D01*
X23778928Y-15587500D01*
X23807500Y-15573214D01*
X24036071Y-15844643D02*
X24050357Y-15858929D01*
X24036071Y-15873214D01*
X24021786Y-15858929D01*
X24036071Y-15844643D01*
X24036071Y-15873214D01*
X24236071Y-15573214D02*
X24264643Y-15573214D01*
X24293214Y-15587500D01*
X24307500Y-15601786D01*
X24321786Y-15630357D01*
X24336071Y-15687500D01*
X24336071Y-15758929D01*
X24321786Y-15816071D01*
X24307500Y-15844643D01*
X24293214Y-15858929D01*
X24264643Y-15873214D01*
X24236071Y-15873214D01*
X24207500Y-15858929D01*
X24193214Y-15844643D01*
X24178928Y-15816071D01*
X24164643Y-15758929D01*
X24164643Y-15687500D01*
X24178928Y-15630357D01*
X24193214Y-15601786D01*
X24207500Y-15587500D01*
X24236071Y-15573214D01*
X24436071Y-15573214D02*
X24621786Y-15573214D01*
X24521786Y-15687500D01*
X24564643Y-15687500D01*
X24593214Y-15701786D01*
X24607500Y-15716071D01*
X24621786Y-15744643D01*
X24621786Y-15816071D01*
X24607500Y-15844643D01*
X24593214Y-15858929D01*
X24564643Y-15873214D01*
X24478928Y-15873214D01*
X24450357Y-15858929D01*
X24436071Y-15844643D01*
X24764643Y-15873214D02*
X24821786Y-15873214D01*
X24850357Y-15858929D01*
X24864643Y-15844643D01*
X24893214Y-15801786D01*
X24907500Y-15744643D01*
X24907500Y-15630357D01*
X24893214Y-15601786D01*
X24878928Y-15587500D01*
X24850357Y-15573214D01*
X24793214Y-15573214D01*
X24764643Y-15587500D01*
X24750357Y-15601786D01*
X24736071Y-15630357D01*
X24736071Y-15701786D01*
X24750357Y-15730357D01*
X24764643Y-15744643D01*
X24793214Y-15758929D01*
X24850357Y-15758929D01*
X24878928Y-15744643D01*
X24893214Y-15730357D01*
X24907500Y-15701786D01*
X25021786Y-15573214D02*
X25021786Y-15630357D01*
X25136071Y-15573214D02*
X25136071Y-15630357D01*
X25578928Y-15987500D02*
X25564643Y-15973214D01*
X25536071Y-15930357D01*
X25521786Y-15901786D01*
X25507500Y-15858929D01*
X25493214Y-15787500D01*
X25493214Y-15730357D01*
X25507500Y-15658929D01*
X25521786Y-15616071D01*
X25536071Y-15587500D01*
X25564643Y-15544643D01*
X25578928Y-15530357D01*
X25750357Y-15573214D02*
X25778928Y-15573214D01*
X25807500Y-15587500D01*
X25821786Y-15601786D01*
X25836071Y-15630357D01*
X25850357Y-15687500D01*
X25850357Y-15758929D01*
X25836071Y-15816071D01*
X25821786Y-15844643D01*
X25807500Y-15858929D01*
X25778928Y-15873214D01*
X25750357Y-15873214D01*
X25721786Y-15858929D01*
X25707500Y-15844643D01*
X25693214Y-15816071D01*
X25678928Y-15758929D01*
X25678928Y-15687500D01*
X25693214Y-15630357D01*
X25707500Y-15601786D01*
X25721786Y-15587500D01*
X25750357Y-15573214D01*
X26207500Y-15873214D02*
X26207500Y-15573214D01*
X26336071Y-15873214D02*
X26336071Y-15716071D01*
X26321786Y-15687500D01*
X26293214Y-15673214D01*
X26250357Y-15673214D01*
X26221786Y-15687500D01*
X26207500Y-15701786D01*
X26521786Y-15873214D02*
X26493214Y-15858929D01*
X26478928Y-15844643D01*
X26464643Y-15816071D01*
X26464643Y-15730357D01*
X26478928Y-15701786D01*
X26493214Y-15687500D01*
X26521786Y-15673214D01*
X26564643Y-15673214D01*
X26593214Y-15687500D01*
X26607500Y-15701786D01*
X26621786Y-15730357D01*
X26621786Y-15816071D01*
X26607500Y-15844643D01*
X26593214Y-15858929D01*
X26564643Y-15873214D01*
X26521786Y-15873214D01*
X26793214Y-15873214D02*
X26764643Y-15858929D01*
X26750357Y-15830357D01*
X26750357Y-15573214D01*
X27021786Y-15858929D02*
X26993214Y-15873214D01*
X26936071Y-15873214D01*
X26907500Y-15858929D01*
X26893214Y-15830357D01*
X26893214Y-15716071D01*
X26907500Y-15687500D01*
X26936071Y-15673214D01*
X26993214Y-15673214D01*
X27021786Y-15687500D01*
X27036071Y-15716071D01*
X27036071Y-15744643D01*
X26893214Y-15773214D01*
X27150357Y-15858929D02*
X27178928Y-15873214D01*
X27236071Y-15873214D01*
X27264643Y-15858929D01*
X27278928Y-15830357D01*
X27278928Y-15816071D01*
X27264643Y-15787500D01*
X27236071Y-15773214D01*
X27193214Y-15773214D01*
X27164643Y-15758929D01*
X27150357Y-15730357D01*
X27150357Y-15716071D01*
X27164643Y-15687500D01*
X27193214Y-15673214D01*
X27236071Y-15673214D01*
X27264643Y-15687500D01*
X27636071Y-15758929D02*
X27864643Y-15758929D01*
X27750357Y-15873214D02*
X27750357Y-15644643D01*
X28250357Y-15873214D02*
X28307500Y-15873214D01*
X28336071Y-15858929D01*
X28350357Y-15844643D01*
X28378928Y-15801786D01*
X28393214Y-15744643D01*
X28393214Y-15630357D01*
X28378928Y-15601786D01*
X28364643Y-15587500D01*
X28336071Y-15573214D01*
X28278928Y-15573214D01*
X28250357Y-15587500D01*
X28236071Y-15601786D01*
X28221786Y-15630357D01*
X28221786Y-15701786D01*
X28236071Y-15730357D01*
X28250357Y-15744643D01*
X28278928Y-15758929D01*
X28336071Y-15758929D01*
X28364643Y-15744643D01*
X28378928Y-15730357D01*
X28393214Y-15701786D01*
X28736071Y-15858929D02*
X28764643Y-15873214D01*
X28821786Y-15873214D01*
X28850357Y-15858929D01*
X28864643Y-15830357D01*
X28864643Y-15816071D01*
X28850357Y-15787500D01*
X28821786Y-15773214D01*
X28778928Y-15773214D01*
X28750357Y-15758929D01*
X28736071Y-15730357D01*
X28736071Y-15716071D01*
X28750357Y-15687500D01*
X28778928Y-15673214D01*
X28821786Y-15673214D01*
X28850357Y-15687500D01*
X29036071Y-15873214D02*
X29007500Y-15858929D01*
X28993214Y-15830357D01*
X28993214Y-15573214D01*
X29193214Y-15873214D02*
X29164643Y-15858929D01*
X29150357Y-15844643D01*
X29136071Y-15816071D01*
X29136071Y-15730357D01*
X29150357Y-15701786D01*
X29164643Y-15687500D01*
X29193214Y-15673214D01*
X29236071Y-15673214D01*
X29264643Y-15687500D01*
X29278928Y-15701786D01*
X29293214Y-15730357D01*
X29293214Y-15816071D01*
X29278928Y-15844643D01*
X29264643Y-15858929D01*
X29236071Y-15873214D01*
X29193214Y-15873214D01*
X29378928Y-15673214D02*
X29493214Y-15673214D01*
X29421786Y-15573214D02*
X29421786Y-15830357D01*
X29436071Y-15858929D01*
X29464643Y-15873214D01*
X29493214Y-15873214D01*
X29578928Y-15858929D02*
X29607500Y-15873214D01*
X29664643Y-15873214D01*
X29693214Y-15858929D01*
X29707500Y-15830357D01*
X29707500Y-15816071D01*
X29693214Y-15787500D01*
X29664643Y-15773214D01*
X29621786Y-15773214D01*
X29593214Y-15758929D01*
X29578928Y-15730357D01*
X29578928Y-15716071D01*
X29593214Y-15687500D01*
X29621786Y-15673214D01*
X29664643Y-15673214D01*
X29693214Y-15687500D01*
X29807500Y-15987500D02*
X29821786Y-15973214D01*
X29850357Y-15930357D01*
X29864643Y-15901786D01*
X29878928Y-15858929D01*
X29893214Y-15787500D01*
X29893214Y-15730357D01*
X29878928Y-15658929D01*
X29864643Y-15616071D01*
X29850357Y-15587500D01*
X29821786Y-15544643D01*
X29807500Y-15530357D01*
X30350357Y-15987500D02*
X30336071Y-15973214D01*
X30307500Y-15930357D01*
X30293214Y-15901786D01*
X30278928Y-15858929D01*
X30264643Y-15787500D01*
X30264643Y-15730357D01*
X30278928Y-15658929D01*
X30293214Y-15616071D01*
X30307500Y-15587500D01*
X30336071Y-15544643D01*
X30350357Y-15530357D01*
X30464643Y-15673214D02*
X30464643Y-15873214D01*
X30464643Y-15701786D02*
X30478928Y-15687500D01*
X30507500Y-15673214D01*
X30550357Y-15673214D01*
X30578928Y-15687500D01*
X30593214Y-15716071D01*
X30593214Y-15873214D01*
X30778928Y-15873214D02*
X30750357Y-15858929D01*
X30736071Y-15844643D01*
X30721786Y-15816071D01*
X30721786Y-15730357D01*
X30736071Y-15701786D01*
X30750357Y-15687500D01*
X30778928Y-15673214D01*
X30821786Y-15673214D01*
X30850357Y-15687500D01*
X30864643Y-15701786D01*
X30878928Y-15730357D01*
X30878928Y-15816071D01*
X30864643Y-15844643D01*
X30850357Y-15858929D01*
X30821786Y-15873214D01*
X30778928Y-15873214D01*
X30964643Y-15673214D02*
X31078928Y-15673214D01*
X31007500Y-15573214D02*
X31007500Y-15830357D01*
X31021786Y-15858929D01*
X31050357Y-15873214D01*
X31078928Y-15873214D01*
X31407500Y-15673214D02*
X31407500Y-15973214D01*
X31407500Y-15687500D02*
X31436071Y-15673214D01*
X31493214Y-15673214D01*
X31521786Y-15687500D01*
X31536071Y-15701786D01*
X31550357Y-15730357D01*
X31550357Y-15816071D01*
X31536071Y-15844643D01*
X31521786Y-15858929D01*
X31493214Y-15873214D01*
X31436071Y-15873214D01*
X31407500Y-15858929D01*
X31721786Y-15873214D02*
X31693214Y-15858929D01*
X31678928Y-15830357D01*
X31678928Y-15573214D01*
X31964643Y-15873214D02*
X31964643Y-15716071D01*
X31950357Y-15687500D01*
X31921786Y-15673214D01*
X31864643Y-15673214D01*
X31836071Y-15687500D01*
X31964643Y-15858929D02*
X31936071Y-15873214D01*
X31864643Y-15873214D01*
X31836071Y-15858929D01*
X31821786Y-15830357D01*
X31821786Y-15801786D01*
X31836071Y-15773214D01*
X31864643Y-15758929D01*
X31936071Y-15758929D01*
X31964643Y-15744643D01*
X32064643Y-15673214D02*
X32178928Y-15673214D01*
X32107500Y-15573214D02*
X32107500Y-15830357D01*
X32121786Y-15858929D01*
X32150357Y-15873214D01*
X32178928Y-15873214D01*
X32393214Y-15858929D02*
X32364643Y-15873214D01*
X32307500Y-15873214D01*
X32278928Y-15858929D01*
X32264643Y-15830357D01*
X32264643Y-15716071D01*
X32278928Y-15687500D01*
X32307500Y-15673214D01*
X32364643Y-15673214D01*
X32393214Y-15687500D01*
X32407500Y-15716071D01*
X32407500Y-15744643D01*
X32264643Y-15773214D01*
X32664643Y-15873214D02*
X32664643Y-15573214D01*
X32664643Y-15858929D02*
X32636071Y-15873214D01*
X32578928Y-15873214D01*
X32550357Y-15858929D01*
X32536071Y-15844643D01*
X32521786Y-15816071D01*
X32521786Y-15730357D01*
X32536071Y-15701786D01*
X32550357Y-15687500D01*
X32578928Y-15673214D01*
X32636071Y-15673214D01*
X32664643Y-15687500D01*
X32778928Y-15987500D02*
X32793214Y-15973214D01*
X32821786Y-15930357D01*
X32836071Y-15901786D01*
X32850357Y-15858929D01*
X32864643Y-15787500D01*
X32864643Y-15730357D01*
X32850357Y-15658929D01*
X32836071Y-15616071D01*
X32821786Y-15587500D01*
X32793214Y-15544643D01*
X32778928Y-15530357D01*
X20772500Y-16073500D02*
X20892500Y-16193500D01*
X20892500Y-16073500D02*
X20772500Y-16193500D01*
X20892500Y-16133500D02*
G75*
G03X20892500Y-16133500I-60000J0D01*
G01*
X21336071Y-16269214D02*
X21164643Y-16269214D01*
X21250357Y-16269214D02*
X21250357Y-15969214D01*
X21221786Y-16012071D01*
X21193214Y-16040643D01*
X21164643Y-16054929D01*
X21464643Y-16240643D02*
X21478928Y-16254929D01*
X21464643Y-16269214D01*
X21450357Y-16254929D01*
X21464643Y-16240643D01*
X21464643Y-16269214D01*
X21593214Y-15997786D02*
X21607500Y-15983500D01*
X21636071Y-15969214D01*
X21707500Y-15969214D01*
X21736071Y-15983500D01*
X21750357Y-15997786D01*
X21764643Y-16026357D01*
X21764643Y-16054929D01*
X21750357Y-16097786D01*
X21578928Y-16269214D01*
X21764643Y-16269214D01*
X21950357Y-15969214D02*
X21978928Y-15969214D01*
X22007500Y-15983500D01*
X22021786Y-15997786D01*
X22036071Y-16026357D01*
X22050357Y-16083500D01*
X22050357Y-16154929D01*
X22036071Y-16212071D01*
X22021786Y-16240643D01*
X22007500Y-16254929D01*
X21978928Y-16269214D01*
X21950357Y-16269214D01*
X21921786Y-16254929D01*
X21907500Y-16240643D01*
X21893214Y-16212071D01*
X21878928Y-16154929D01*
X21878928Y-16083500D01*
X21893214Y-16026357D01*
X21907500Y-15997786D01*
X21921786Y-15983500D01*
X21950357Y-15969214D01*
X22178928Y-16269214D02*
X22178928Y-16069214D01*
X22178928Y-16097786D02*
X22193214Y-16083500D01*
X22221786Y-16069214D01*
X22264643Y-16069214D01*
X22293214Y-16083500D01*
X22307500Y-16112071D01*
X22307500Y-16269214D01*
X22307500Y-16112071D02*
X22321786Y-16083500D01*
X22350357Y-16069214D01*
X22393214Y-16069214D01*
X22421786Y-16083500D01*
X22436071Y-16112071D01*
X22436071Y-16269214D01*
X22578928Y-16269214D02*
X22578928Y-16069214D01*
X22578928Y-16097786D02*
X22593214Y-16083500D01*
X22621786Y-16069214D01*
X22664643Y-16069214D01*
X22693214Y-16083500D01*
X22707500Y-16112071D01*
X22707500Y-16269214D01*
X22707500Y-16112071D02*
X22721786Y-16083500D01*
X22750357Y-16069214D01*
X22793214Y-16069214D01*
X22821786Y-16083500D01*
X22836071Y-16112071D01*
X22836071Y-16269214D01*
X23421786Y-15954929D02*
X23164643Y-16340643D01*
X23807500Y-15969214D02*
X23836071Y-15969214D01*
X23864643Y-15983500D01*
X23878928Y-15997786D01*
X23893214Y-16026357D01*
X23907500Y-16083500D01*
X23907500Y-16154929D01*
X23893214Y-16212071D01*
X23878928Y-16240643D01*
X23864643Y-16254929D01*
X23836071Y-16269214D01*
X23807500Y-16269214D01*
X23778928Y-16254929D01*
X23764643Y-16240643D01*
X23750357Y-16212071D01*
X23736071Y-16154929D01*
X23736071Y-16083500D01*
X23750357Y-16026357D01*
X23764643Y-15997786D01*
X23778928Y-15983500D01*
X23807500Y-15969214D01*
X24036071Y-16240643D02*
X24050357Y-16254929D01*
X24036071Y-16269214D01*
X24021786Y-16254929D01*
X24036071Y-16240643D01*
X24036071Y-16269214D01*
X24236071Y-15969214D02*
X24264643Y-15969214D01*
X24293214Y-15983500D01*
X24307500Y-15997786D01*
X24321786Y-16026357D01*
X24336071Y-16083500D01*
X24336071Y-16154929D01*
X24321786Y-16212071D01*
X24307500Y-16240643D01*
X24293214Y-16254929D01*
X24264643Y-16269214D01*
X24236071Y-16269214D01*
X24207500Y-16254929D01*
X24193214Y-16240643D01*
X24178928Y-16212071D01*
X24164643Y-16154929D01*
X24164643Y-16083500D01*
X24178928Y-16026357D01*
X24193214Y-15997786D01*
X24207500Y-15983500D01*
X24236071Y-15969214D01*
X24593214Y-16069214D02*
X24593214Y-16269214D01*
X24521786Y-15954929D02*
X24450357Y-16169214D01*
X24636071Y-16169214D01*
X24721786Y-15969214D02*
X24921786Y-15969214D01*
X24793214Y-16269214D01*
X25021786Y-15969214D02*
X25021786Y-16026357D01*
X25136071Y-15969214D02*
X25136071Y-16026357D01*
X25578928Y-16383500D02*
X25564643Y-16369214D01*
X25536071Y-16326357D01*
X25521786Y-16297786D01*
X25507500Y-16254929D01*
X25493214Y-16183500D01*
X25493214Y-16126357D01*
X25507500Y-16054929D01*
X25521786Y-16012071D01*
X25536071Y-15983500D01*
X25564643Y-15940643D01*
X25578928Y-15926357D01*
X25678928Y-15997786D02*
X25693214Y-15983500D01*
X25721786Y-15969214D01*
X25793214Y-15969214D01*
X25821786Y-15983500D01*
X25836071Y-15997786D01*
X25850357Y-16026357D01*
X25850357Y-16054929D01*
X25836071Y-16097786D01*
X25664643Y-16269214D01*
X25850357Y-16269214D01*
X26207500Y-16269214D02*
X26207500Y-15969214D01*
X26336071Y-16269214D02*
X26336071Y-16112071D01*
X26321786Y-16083500D01*
X26293214Y-16069214D01*
X26250357Y-16069214D01*
X26221786Y-16083500D01*
X26207500Y-16097786D01*
X26521786Y-16269214D02*
X26493214Y-16254929D01*
X26478928Y-16240643D01*
X26464643Y-16212071D01*
X26464643Y-16126357D01*
X26478928Y-16097786D01*
X26493214Y-16083500D01*
X26521786Y-16069214D01*
X26564643Y-16069214D01*
X26593214Y-16083500D01*
X26607500Y-16097786D01*
X26621786Y-16126357D01*
X26621786Y-16212071D01*
X26607500Y-16240643D01*
X26593214Y-16254929D01*
X26564643Y-16269214D01*
X26521786Y-16269214D01*
X26793214Y-16269214D02*
X26764643Y-16254929D01*
X26750357Y-16226357D01*
X26750357Y-15969214D01*
X27021786Y-16254929D02*
X26993214Y-16269214D01*
X26936071Y-16269214D01*
X26907500Y-16254929D01*
X26893214Y-16226357D01*
X26893214Y-16112071D01*
X26907500Y-16083500D01*
X26936071Y-16069214D01*
X26993214Y-16069214D01*
X27021786Y-16083500D01*
X27036071Y-16112071D01*
X27036071Y-16140643D01*
X26893214Y-16169214D01*
X27150357Y-16254929D02*
X27178928Y-16269214D01*
X27236071Y-16269214D01*
X27264643Y-16254929D01*
X27278928Y-16226357D01*
X27278928Y-16212071D01*
X27264643Y-16183500D01*
X27236071Y-16169214D01*
X27193214Y-16169214D01*
X27164643Y-16154929D01*
X27150357Y-16126357D01*
X27150357Y-16112071D01*
X27164643Y-16083500D01*
X27193214Y-16069214D01*
X27236071Y-16069214D01*
X27264643Y-16083500D01*
X27378928Y-16383500D02*
X27393214Y-16369214D01*
X27421786Y-16326357D01*
X27436071Y-16297786D01*
X27450357Y-16254929D01*
X27464643Y-16183500D01*
X27464643Y-16126357D01*
X27450357Y-16054929D01*
X27436071Y-16012071D01*
X27421786Y-15983500D01*
X27393214Y-15940643D01*
X27378928Y-15926357D01*
X27921786Y-16383500D02*
X27907500Y-16369214D01*
X27878928Y-16326357D01*
X27864643Y-16297786D01*
X27850357Y-16254929D01*
X27836071Y-16183500D01*
X27836071Y-16126357D01*
X27850357Y-16054929D01*
X27864643Y-16012071D01*
X27878928Y-15983500D01*
X27907500Y-15940643D01*
X27921786Y-15926357D01*
X28036071Y-16069214D02*
X28036071Y-16269214D01*
X28036071Y-16097786D02*
X28050357Y-16083500D01*
X28078928Y-16069214D01*
X28121786Y-16069214D01*
X28150357Y-16083500D01*
X28164643Y-16112071D01*
X28164643Y-16269214D01*
X28350357Y-16269214D02*
X28321786Y-16254929D01*
X28307500Y-16240643D01*
X28293214Y-16212071D01*
X28293214Y-16126357D01*
X28307500Y-16097786D01*
X28321786Y-16083500D01*
X28350357Y-16069214D01*
X28393214Y-16069214D01*
X28421786Y-16083500D01*
X28436071Y-16097786D01*
X28450357Y-16126357D01*
X28450357Y-16212071D01*
X28436071Y-16240643D01*
X28421786Y-16254929D01*
X28393214Y-16269214D01*
X28350357Y-16269214D01*
X28536071Y-16069214D02*
X28650357Y-16069214D01*
X28578928Y-15969214D02*
X28578928Y-16226357D01*
X28593214Y-16254929D01*
X28621786Y-16269214D01*
X28650357Y-16269214D01*
X28978928Y-16069214D02*
X28978928Y-16369214D01*
X28978928Y-16083500D02*
X29007500Y-16069214D01*
X29064643Y-16069214D01*
X29093214Y-16083500D01*
X29107500Y-16097786D01*
X29121786Y-16126357D01*
X29121786Y-16212071D01*
X29107500Y-16240643D01*
X29093214Y-16254929D01*
X29064643Y-16269214D01*
X29007500Y-16269214D01*
X28978928Y-16254929D01*
X29293214Y-16269214D02*
X29264643Y-16254929D01*
X29250357Y-16226357D01*
X29250357Y-15969214D01*
X29536071Y-16269214D02*
X29536071Y-16112071D01*
X29521786Y-16083500D01*
X29493214Y-16069214D01*
X29436071Y-16069214D01*
X29407500Y-16083500D01*
X29536071Y-16254929D02*
X29507500Y-16269214D01*
X29436071Y-16269214D01*
X29407500Y-16254929D01*
X29393214Y-16226357D01*
X29393214Y-16197786D01*
X29407500Y-16169214D01*
X29436071Y-16154929D01*
X29507500Y-16154929D01*
X29536071Y-16140643D01*
X29636071Y-16069214D02*
X29750357Y-16069214D01*
X29678928Y-15969214D02*
X29678928Y-16226357D01*
X29693214Y-16254929D01*
X29721786Y-16269214D01*
X29750357Y-16269214D01*
X29964643Y-16254929D02*
X29936071Y-16269214D01*
X29878928Y-16269214D01*
X29850357Y-16254929D01*
X29836071Y-16226357D01*
X29836071Y-16112071D01*
X29850357Y-16083500D01*
X29878928Y-16069214D01*
X29936071Y-16069214D01*
X29964643Y-16083500D01*
X29978928Y-16112071D01*
X29978928Y-16140643D01*
X29836071Y-16169214D01*
X30236071Y-16269214D02*
X30236071Y-15969214D01*
X30236071Y-16254929D02*
X30207500Y-16269214D01*
X30150357Y-16269214D01*
X30121786Y-16254929D01*
X30107500Y-16240643D01*
X30093214Y-16212071D01*
X30093214Y-16126357D01*
X30107500Y-16097786D01*
X30121786Y-16083500D01*
X30150357Y-16069214D01*
X30207500Y-16069214D01*
X30236071Y-16083500D01*
X30350357Y-16383500D02*
X30364643Y-16369214D01*
X30393214Y-16326357D01*
X30407500Y-16297786D01*
X30421786Y-16254929D01*
X30436071Y-16183500D01*
X30436071Y-16126357D01*
X30421786Y-16054929D01*
X30407500Y-16012071D01*
X30393214Y-15983500D01*
X30364643Y-15940643D01*
X30350357Y-15926357D01*
X20716500Y-16441500D02*
X20892500Y-16617500D01*
X20892500Y-16441500D02*
X20716500Y-16617500D01*
X20804500Y-16441500D02*
X20804500Y-16617500D01*
X20716500Y-16529500D02*
X20892500Y-16529500D01*
X21336071Y-16665214D02*
X21164643Y-16665214D01*
X21250357Y-16665214D02*
X21250357Y-16365214D01*
X21221786Y-16408071D01*
X21193214Y-16436643D01*
X21164643Y-16450929D01*
X21464643Y-16636643D02*
X21478928Y-16650929D01*
X21464643Y-16665214D01*
X21450357Y-16650929D01*
X21464643Y-16636643D01*
X21464643Y-16665214D01*
X21578928Y-16365214D02*
X21778928Y-16365214D01*
X21650357Y-16665214D01*
X22021786Y-16365214D02*
X21964643Y-16365214D01*
X21936071Y-16379500D01*
X21921786Y-16393786D01*
X21893214Y-16436643D01*
X21878928Y-16493786D01*
X21878928Y-16608071D01*
X21893214Y-16636643D01*
X21907500Y-16650929D01*
X21936071Y-16665214D01*
X21993214Y-16665214D01*
X22021786Y-16650929D01*
X22036071Y-16636643D01*
X22050357Y-16608071D01*
X22050357Y-16536643D01*
X22036071Y-16508071D01*
X22021786Y-16493786D01*
X21993214Y-16479500D01*
X21936071Y-16479500D01*
X21907500Y-16493786D01*
X21893214Y-16508071D01*
X21878928Y-16536643D01*
X22178928Y-16665214D02*
X22178928Y-16465214D01*
X22178928Y-16493786D02*
X22193214Y-16479500D01*
X22221786Y-16465214D01*
X22264643Y-16465214D01*
X22293214Y-16479500D01*
X22307500Y-16508071D01*
X22307500Y-16665214D01*
X22307500Y-16508071D02*
X22321786Y-16479500D01*
X22350357Y-16465214D01*
X22393214Y-16465214D01*
X22421786Y-16479500D01*
X22436071Y-16508071D01*
X22436071Y-16665214D01*
X22578928Y-16665214D02*
X22578928Y-16465214D01*
X22578928Y-16493786D02*
X22593214Y-16479500D01*
X22621786Y-16465214D01*
X22664643Y-16465214D01*
X22693214Y-16479500D01*
X22707500Y-16508071D01*
X22707500Y-16665214D01*
X22707500Y-16508071D02*
X22721786Y-16479500D01*
X22750357Y-16465214D01*
X22793214Y-16465214D01*
X22821786Y-16479500D01*
X22836071Y-16508071D01*
X22836071Y-16665214D01*
X23421786Y-16350929D02*
X23164643Y-16736643D01*
X23807500Y-16365214D02*
X23836071Y-16365214D01*
X23864643Y-16379500D01*
X23878928Y-16393786D01*
X23893214Y-16422357D01*
X23907500Y-16479500D01*
X23907500Y-16550929D01*
X23893214Y-16608071D01*
X23878928Y-16636643D01*
X23864643Y-16650929D01*
X23836071Y-16665214D01*
X23807500Y-16665214D01*
X23778928Y-16650929D01*
X23764643Y-16636643D01*
X23750357Y-16608071D01*
X23736071Y-16550929D01*
X23736071Y-16479500D01*
X23750357Y-16422357D01*
X23764643Y-16393786D01*
X23778928Y-16379500D01*
X23807500Y-16365214D01*
X24036071Y-16636643D02*
X24050357Y-16650929D01*
X24036071Y-16665214D01*
X24021786Y-16650929D01*
X24036071Y-16636643D01*
X24036071Y-16665214D01*
X24236071Y-16365214D02*
X24264643Y-16365214D01*
X24293214Y-16379500D01*
X24307500Y-16393786D01*
X24321786Y-16422357D01*
X24336071Y-16479500D01*
X24336071Y-16550929D01*
X24321786Y-16608071D01*
X24307500Y-16636643D01*
X24293214Y-16650929D01*
X24264643Y-16665214D01*
X24236071Y-16665214D01*
X24207500Y-16650929D01*
X24193214Y-16636643D01*
X24178928Y-16608071D01*
X24164643Y-16550929D01*
X24164643Y-16479500D01*
X24178928Y-16422357D01*
X24193214Y-16393786D01*
X24207500Y-16379500D01*
X24236071Y-16365214D01*
X24593214Y-16365214D02*
X24536071Y-16365214D01*
X24507500Y-16379500D01*
X24493214Y-16393786D01*
X24464643Y-16436643D01*
X24450357Y-16493786D01*
X24450357Y-16608071D01*
X24464643Y-16636643D01*
X24478928Y-16650929D01*
X24507500Y-16665214D01*
X24564643Y-16665214D01*
X24593214Y-16650929D01*
X24607500Y-16636643D01*
X24621786Y-16608071D01*
X24621786Y-16536643D01*
X24607500Y-16508071D01*
X24593214Y-16493786D01*
X24564643Y-16479500D01*
X24507500Y-16479500D01*
X24478928Y-16493786D01*
X24464643Y-16508071D01*
X24450357Y-16536643D01*
X24764643Y-16665214D02*
X24821786Y-16665214D01*
X24850357Y-16650929D01*
X24864643Y-16636643D01*
X24893214Y-16593786D01*
X24907500Y-16536643D01*
X24907500Y-16422357D01*
X24893214Y-16393786D01*
X24878928Y-16379500D01*
X24850357Y-16365214D01*
X24793214Y-16365214D01*
X24764643Y-16379500D01*
X24750357Y-16393786D01*
X24736071Y-16422357D01*
X24736071Y-16493786D01*
X24750357Y-16522357D01*
X24764643Y-16536643D01*
X24793214Y-16550929D01*
X24850357Y-16550929D01*
X24878928Y-16536643D01*
X24893214Y-16522357D01*
X24907500Y-16493786D01*
X25021786Y-16365214D02*
X25021786Y-16422357D01*
X25136071Y-16365214D02*
X25136071Y-16422357D01*
X25578928Y-16779500D02*
X25564643Y-16765214D01*
X25536071Y-16722357D01*
X25521786Y-16693786D01*
X25507500Y-16650929D01*
X25493214Y-16579500D01*
X25493214Y-16522357D01*
X25507500Y-16450929D01*
X25521786Y-16408071D01*
X25536071Y-16379500D01*
X25564643Y-16336643D01*
X25578928Y-16322357D01*
X25664643Y-16365214D02*
X25864643Y-16365214D01*
X25736071Y-16665214D01*
X26021786Y-16493786D02*
X25993214Y-16479500D01*
X25978928Y-16465214D01*
X25964643Y-16436643D01*
X25964643Y-16422357D01*
X25978928Y-16393786D01*
X25993214Y-16379500D01*
X26021786Y-16365214D01*
X26078928Y-16365214D01*
X26107500Y-16379500D01*
X26121786Y-16393786D01*
X26136071Y-16422357D01*
X26136071Y-16436643D01*
X26121786Y-16465214D01*
X26107500Y-16479500D01*
X26078928Y-16493786D01*
X26021786Y-16493786D01*
X25993214Y-16508071D01*
X25978928Y-16522357D01*
X25964643Y-16550929D01*
X25964643Y-16608071D01*
X25978928Y-16636643D01*
X25993214Y-16650929D01*
X26021786Y-16665214D01*
X26078928Y-16665214D01*
X26107500Y-16650929D01*
X26121786Y-16636643D01*
X26136071Y-16608071D01*
X26136071Y-16550929D01*
X26121786Y-16522357D01*
X26107500Y-16508071D01*
X26078928Y-16493786D01*
X26493214Y-16665214D02*
X26493214Y-16365214D01*
X26621786Y-16665214D02*
X26621786Y-16508071D01*
X26607500Y-16479500D01*
X26578928Y-16465214D01*
X26536071Y-16465214D01*
X26507500Y-16479500D01*
X26493214Y-16493786D01*
X26807500Y-16665214D02*
X26778928Y-16650929D01*
X26764643Y-16636643D01*
X26750357Y-16608071D01*
X26750357Y-16522357D01*
X26764643Y-16493786D01*
X26778928Y-16479500D01*
X26807500Y-16465214D01*
X26850357Y-16465214D01*
X26878928Y-16479500D01*
X26893214Y-16493786D01*
X26907500Y-16522357D01*
X26907500Y-16608071D01*
X26893214Y-16636643D01*
X26878928Y-16650929D01*
X26850357Y-16665214D01*
X26807500Y-16665214D01*
X27078928Y-16665214D02*
X27050357Y-16650929D01*
X27036071Y-16622357D01*
X27036071Y-16365214D01*
X27307500Y-16650929D02*
X27278928Y-16665214D01*
X27221786Y-16665214D01*
X27193214Y-16650929D01*
X27178928Y-16622357D01*
X27178928Y-16508071D01*
X27193214Y-16479500D01*
X27221786Y-16465214D01*
X27278928Y-16465214D01*
X27307500Y-16479500D01*
X27321786Y-16508071D01*
X27321786Y-16536643D01*
X27178928Y-16565214D01*
X27436071Y-16650929D02*
X27464643Y-16665214D01*
X27521786Y-16665214D01*
X27550357Y-16650929D01*
X27564643Y-16622357D01*
X27564643Y-16608071D01*
X27550357Y-16579500D01*
X27521786Y-16565214D01*
X27478928Y-16565214D01*
X27450357Y-16550929D01*
X27436071Y-16522357D01*
X27436071Y-16508071D01*
X27450357Y-16479500D01*
X27478928Y-16465214D01*
X27521786Y-16465214D01*
X27550357Y-16479500D01*
X27664643Y-16779500D02*
X27678928Y-16765214D01*
X27707500Y-16722357D01*
X27721786Y-16693786D01*
X27736071Y-16650929D01*
X27750357Y-16579500D01*
X27750357Y-16522357D01*
X27736071Y-16450929D01*
X27721786Y-16408071D01*
X27707500Y-16379500D01*
X27678928Y-16336643D01*
X27664643Y-16322357D01*
X28207500Y-16779500D02*
X28193214Y-16765214D01*
X28164643Y-16722357D01*
X28150357Y-16693786D01*
X28136071Y-16650929D01*
X28121786Y-16579500D01*
X28121786Y-16522357D01*
X28136071Y-16450929D01*
X28150357Y-16408071D01*
X28164643Y-16379500D01*
X28193214Y-16336643D01*
X28207500Y-16322357D01*
X28321786Y-16465214D02*
X28321786Y-16665214D01*
X28321786Y-16493786D02*
X28336071Y-16479500D01*
X28364643Y-16465214D01*
X28407500Y-16465214D01*
X28436071Y-16479500D01*
X28450357Y-16508071D01*
X28450357Y-16665214D01*
X28636071Y-16665214D02*
X28607500Y-16650929D01*
X28593214Y-16636643D01*
X28578928Y-16608071D01*
X28578928Y-16522357D01*
X28593214Y-16493786D01*
X28607500Y-16479500D01*
X28636071Y-16465214D01*
X28678928Y-16465214D01*
X28707500Y-16479500D01*
X28721786Y-16493786D01*
X28736071Y-16522357D01*
X28736071Y-16608071D01*
X28721786Y-16636643D01*
X28707500Y-16650929D01*
X28678928Y-16665214D01*
X28636071Y-16665214D01*
X28821786Y-16465214D02*
X28936071Y-16465214D01*
X28864643Y-16365214D02*
X28864643Y-16622357D01*
X28878928Y-16650929D01*
X28907500Y-16665214D01*
X28936071Y-16665214D01*
X29264643Y-16465214D02*
X29264643Y-16765214D01*
X29264643Y-16479500D02*
X29293214Y-16465214D01*
X29350357Y-16465214D01*
X29378928Y-16479500D01*
X29393214Y-16493786D01*
X29407500Y-16522357D01*
X29407500Y-16608071D01*
X29393214Y-16636643D01*
X29378928Y-16650929D01*
X29350357Y-16665214D01*
X29293214Y-16665214D01*
X29264643Y-16650929D01*
X29578928Y-16665214D02*
X29550357Y-16650929D01*
X29536071Y-16622357D01*
X29536071Y-16365214D01*
X29821786Y-16665214D02*
X29821786Y-16508071D01*
X29807500Y-16479500D01*
X29778928Y-16465214D01*
X29721786Y-16465214D01*
X29693214Y-16479500D01*
X29821786Y-16650929D02*
X29793214Y-16665214D01*
X29721786Y-16665214D01*
X29693214Y-16650929D01*
X29678928Y-16622357D01*
X29678928Y-16593786D01*
X29693214Y-16565214D01*
X29721786Y-16550929D01*
X29793214Y-16550929D01*
X29821786Y-16536643D01*
X29921786Y-16465214D02*
X30036071Y-16465214D01*
X29964643Y-16365214D02*
X29964643Y-16622357D01*
X29978928Y-16650929D01*
X30007500Y-16665214D01*
X30036071Y-16665214D01*
X30250357Y-16650929D02*
X30221786Y-16665214D01*
X30164643Y-16665214D01*
X30136071Y-16650929D01*
X30121786Y-16622357D01*
X30121786Y-16508071D01*
X30136071Y-16479500D01*
X30164643Y-16465214D01*
X30221786Y-16465214D01*
X30250357Y-16479500D01*
X30264643Y-16508071D01*
X30264643Y-16536643D01*
X30121786Y-16565214D01*
X30521786Y-16665214D02*
X30521786Y-16365214D01*
X30521786Y-16650929D02*
X30493214Y-16665214D01*
X30436071Y-16665214D01*
X30407500Y-16650929D01*
X30393214Y-16636643D01*
X30378928Y-16608071D01*
X30378928Y-16522357D01*
X30393214Y-16493786D01*
X30407500Y-16479500D01*
X30436071Y-16465214D01*
X30493214Y-16465214D01*
X30521786Y-16479500D01*
X30636071Y-16779500D02*
X30650357Y-16765214D01*
X30678928Y-16722357D01*
X30693214Y-16693786D01*
X30707500Y-16650929D01*
X30721786Y-16579500D01*
X30721786Y-16522357D01*
X30707500Y-16450929D01*
X30693214Y-16408071D01*
X30678928Y-16379500D01*
X30650357Y-16336643D01*
X30636071Y-16322357D01*
X20592500Y-16775500D02*
X20892500Y-17075500D01*
X20892500Y-16775500D02*
X20592500Y-17075500D01*
X20848567Y-17031567D02*
X20848567Y-16819433D01*
X20636433Y-16819433D01*
X20636433Y-17031567D01*
X20848567Y-17031567D01*
X21150357Y-16761214D02*
X21336071Y-16761214D01*
X21236071Y-16875500D01*
X21278928Y-16875500D01*
X21307500Y-16889786D01*
X21321786Y-16904072D01*
X21336071Y-16932643D01*
X21336071Y-17004072D01*
X21321786Y-17032643D01*
X21307500Y-17046929D01*
X21278928Y-17061214D01*
X21193214Y-17061214D01*
X21164643Y-17046929D01*
X21150357Y-17032643D01*
X21464643Y-17032643D02*
X21478928Y-17046929D01*
X21464643Y-17061214D01*
X21450357Y-17046929D01*
X21464643Y-17032643D01*
X21464643Y-17061214D01*
X21664643Y-16761214D02*
X21693214Y-16761214D01*
X21721786Y-16775500D01*
X21736071Y-16789786D01*
X21750357Y-16818357D01*
X21764643Y-16875500D01*
X21764643Y-16946929D01*
X21750357Y-17004072D01*
X21736071Y-17032643D01*
X21721786Y-17046929D01*
X21693214Y-17061214D01*
X21664643Y-17061214D01*
X21636071Y-17046929D01*
X21621786Y-17032643D01*
X21607500Y-17004072D01*
X21593214Y-16946929D01*
X21593214Y-16875500D01*
X21607500Y-16818357D01*
X21621786Y-16789786D01*
X21636071Y-16775500D01*
X21664643Y-16761214D01*
X21950357Y-16761214D02*
X21978928Y-16761214D01*
X22007500Y-16775500D01*
X22021786Y-16789786D01*
X22036071Y-16818357D01*
X22050357Y-16875500D01*
X22050357Y-16946929D01*
X22036071Y-17004072D01*
X22021786Y-17032643D01*
X22007500Y-17046929D01*
X21978928Y-17061214D01*
X21950357Y-17061214D01*
X21921786Y-17046929D01*
X21907500Y-17032643D01*
X21893214Y-17004072D01*
X21878928Y-16946929D01*
X21878928Y-16875500D01*
X21893214Y-16818357D01*
X21907500Y-16789786D01*
X21921786Y-16775500D01*
X21950357Y-16761214D01*
X22178928Y-17061214D02*
X22178928Y-16861214D01*
X22178928Y-16889786D02*
X22193214Y-16875500D01*
X22221786Y-16861214D01*
X22264643Y-16861214D01*
X22293214Y-16875500D01*
X22307500Y-16904072D01*
X22307500Y-17061214D01*
X22307500Y-16904072D02*
X22321786Y-16875500D01*
X22350357Y-16861214D01*
X22393214Y-16861214D01*
X22421786Y-16875500D01*
X22436071Y-16904072D01*
X22436071Y-17061214D01*
X22578928Y-17061214D02*
X22578928Y-16861214D01*
X22578928Y-16889786D02*
X22593214Y-16875500D01*
X22621786Y-16861214D01*
X22664643Y-16861214D01*
X22693214Y-16875500D01*
X22707500Y-16904072D01*
X22707500Y-17061214D01*
X22707500Y-16904072D02*
X22721786Y-16875500D01*
X22750357Y-16861214D01*
X22793214Y-16861214D01*
X22821786Y-16875500D01*
X22836071Y-16904072D01*
X22836071Y-17061214D01*
X23421786Y-16746929D02*
X23164643Y-17132643D01*
X23807500Y-16761214D02*
X23836071Y-16761214D01*
X23864643Y-16775500D01*
X23878928Y-16789786D01*
X23893214Y-16818357D01*
X23907500Y-16875500D01*
X23907500Y-16946929D01*
X23893214Y-17004072D01*
X23878928Y-17032643D01*
X23864643Y-17046929D01*
X23836071Y-17061214D01*
X23807500Y-17061214D01*
X23778928Y-17046929D01*
X23764643Y-17032643D01*
X23750357Y-17004072D01*
X23736071Y-16946929D01*
X23736071Y-16875500D01*
X23750357Y-16818357D01*
X23764643Y-16789786D01*
X23778928Y-16775500D01*
X23807500Y-16761214D01*
X24036071Y-17032643D02*
X24050357Y-17046929D01*
X24036071Y-17061214D01*
X24021786Y-17046929D01*
X24036071Y-17032643D01*
X24036071Y-17061214D01*
X24336071Y-17061214D02*
X24164643Y-17061214D01*
X24250357Y-17061214D02*
X24250357Y-16761214D01*
X24221786Y-16804072D01*
X24193214Y-16832643D01*
X24164643Y-16846929D01*
X24621786Y-17061214D02*
X24450357Y-17061214D01*
X24536071Y-17061214D02*
X24536071Y-16761214D01*
X24507500Y-16804072D01*
X24478928Y-16832643D01*
X24450357Y-16846929D01*
X24793214Y-16889786D02*
X24764643Y-16875500D01*
X24750357Y-16861214D01*
X24736071Y-16832643D01*
X24736071Y-16818357D01*
X24750357Y-16789786D01*
X24764643Y-16775500D01*
X24793214Y-16761214D01*
X24850357Y-16761214D01*
X24878928Y-16775500D01*
X24893214Y-16789786D01*
X24907500Y-16818357D01*
X24907500Y-16832643D01*
X24893214Y-16861214D01*
X24878928Y-16875500D01*
X24850357Y-16889786D01*
X24793214Y-16889786D01*
X24764643Y-16904072D01*
X24750357Y-16918357D01*
X24736071Y-16946929D01*
X24736071Y-17004072D01*
X24750357Y-17032643D01*
X24764643Y-17046929D01*
X24793214Y-17061214D01*
X24850357Y-17061214D01*
X24878928Y-17046929D01*
X24893214Y-17032643D01*
X24907500Y-17004072D01*
X24907500Y-16946929D01*
X24893214Y-16918357D01*
X24878928Y-16904072D01*
X24850357Y-16889786D01*
X25021786Y-16761214D02*
X25021786Y-16818357D01*
X25136071Y-16761214D02*
X25136071Y-16818357D01*
X25578928Y-17175500D02*
X25564643Y-17161214D01*
X25536071Y-17118357D01*
X25521786Y-17089786D01*
X25507500Y-17046929D01*
X25493214Y-16975500D01*
X25493214Y-16918357D01*
X25507500Y-16846929D01*
X25521786Y-16804072D01*
X25536071Y-16775500D01*
X25564643Y-16732643D01*
X25578928Y-16718357D01*
X25664643Y-16761214D02*
X25864643Y-16761214D01*
X25736071Y-17061214D01*
X26021786Y-16889786D02*
X25993214Y-16875500D01*
X25978928Y-16861214D01*
X25964643Y-16832643D01*
X25964643Y-16818357D01*
X25978928Y-16789786D01*
X25993214Y-16775500D01*
X26021786Y-16761214D01*
X26078928Y-16761214D01*
X26107500Y-16775500D01*
X26121786Y-16789786D01*
X26136071Y-16818357D01*
X26136071Y-16832643D01*
X26121786Y-16861214D01*
X26107500Y-16875500D01*
X26078928Y-16889786D01*
X26021786Y-16889786D01*
X25993214Y-16904072D01*
X25978928Y-16918357D01*
X25964643Y-16946929D01*
X25964643Y-17004072D01*
X25978928Y-17032643D01*
X25993214Y-17046929D01*
X26021786Y-17061214D01*
X26078928Y-17061214D01*
X26107500Y-17046929D01*
X26121786Y-17032643D01*
X26136071Y-17004072D01*
X26136071Y-16946929D01*
X26121786Y-16918357D01*
X26107500Y-16904072D01*
X26078928Y-16889786D01*
X26493214Y-17061214D02*
X26493214Y-16761214D01*
X26621786Y-17061214D02*
X26621786Y-16904072D01*
X26607500Y-16875500D01*
X26578928Y-16861214D01*
X26536071Y-16861214D01*
X26507500Y-16875500D01*
X26493214Y-16889786D01*
X26807500Y-17061214D02*
X26778928Y-17046929D01*
X26764643Y-17032643D01*
X26750357Y-17004072D01*
X26750357Y-16918357D01*
X26764643Y-16889786D01*
X26778928Y-16875500D01*
X26807500Y-16861214D01*
X26850357Y-16861214D01*
X26878928Y-16875500D01*
X26893214Y-16889786D01*
X26907500Y-16918357D01*
X26907500Y-17004072D01*
X26893214Y-17032643D01*
X26878928Y-17046929D01*
X26850357Y-17061214D01*
X26807500Y-17061214D01*
X27078928Y-17061214D02*
X27050357Y-17046929D01*
X27036071Y-17018357D01*
X27036071Y-16761214D01*
X27307500Y-17046929D02*
X27278928Y-17061214D01*
X27221786Y-17061214D01*
X27193214Y-17046929D01*
X27178928Y-17018357D01*
X27178928Y-16904072D01*
X27193214Y-16875500D01*
X27221786Y-16861214D01*
X27278928Y-16861214D01*
X27307500Y-16875500D01*
X27321786Y-16904072D01*
X27321786Y-16932643D01*
X27178928Y-16961214D01*
X27436071Y-17046929D02*
X27464643Y-17061214D01*
X27521786Y-17061214D01*
X27550357Y-17046929D01*
X27564643Y-17018357D01*
X27564643Y-17004072D01*
X27550357Y-16975500D01*
X27521786Y-16961214D01*
X27478928Y-16961214D01*
X27450357Y-16946929D01*
X27436071Y-16918357D01*
X27436071Y-16904072D01*
X27450357Y-16875500D01*
X27478928Y-16861214D01*
X27521786Y-16861214D01*
X27550357Y-16875500D01*
X27664643Y-17175500D02*
X27678928Y-17161214D01*
X27707500Y-17118357D01*
X27721786Y-17089786D01*
X27736071Y-17046929D01*
X27750357Y-16975500D01*
X27750357Y-16918357D01*
X27736071Y-16846929D01*
X27721786Y-16804072D01*
X27707500Y-16775500D01*
X27678928Y-16732643D01*
X27664643Y-16718357D01*
X28207500Y-17175500D02*
X28193214Y-17161214D01*
X28164643Y-17118357D01*
X28150357Y-17089786D01*
X28136071Y-17046929D01*
X28121786Y-16975500D01*
X28121786Y-16918357D01*
X28136071Y-16846929D01*
X28150357Y-16804072D01*
X28164643Y-16775500D01*
X28193214Y-16732643D01*
X28207500Y-16718357D01*
X28321786Y-16861214D02*
X28321786Y-17061214D01*
X28321786Y-16889786D02*
X28336071Y-16875500D01*
X28364643Y-16861214D01*
X28407500Y-16861214D01*
X28436071Y-16875500D01*
X28450357Y-16904072D01*
X28450357Y-17061214D01*
X28636071Y-17061214D02*
X28607500Y-17046929D01*
X28593214Y-17032643D01*
X28578928Y-17004072D01*
X28578928Y-16918357D01*
X28593214Y-16889786D01*
X28607500Y-16875500D01*
X28636071Y-16861214D01*
X28678928Y-16861214D01*
X28707500Y-16875500D01*
X28721786Y-16889786D01*
X28736071Y-16918357D01*
X28736071Y-17004072D01*
X28721786Y-17032643D01*
X28707500Y-17046929D01*
X28678928Y-17061214D01*
X28636071Y-17061214D01*
X28821786Y-16861214D02*
X28936071Y-16861214D01*
X28864643Y-16761214D02*
X28864643Y-17018357D01*
X28878928Y-17046929D01*
X28907500Y-17061214D01*
X28936071Y-17061214D01*
X29264643Y-16861214D02*
X29264643Y-17161214D01*
X29264643Y-16875500D02*
X29293214Y-16861214D01*
X29350357Y-16861214D01*
X29378928Y-16875500D01*
X29393214Y-16889786D01*
X29407500Y-16918357D01*
X29407500Y-17004072D01*
X29393214Y-17032643D01*
X29378928Y-17046929D01*
X29350357Y-17061214D01*
X29293214Y-17061214D01*
X29264643Y-17046929D01*
X29578928Y-17061214D02*
X29550357Y-17046929D01*
X29536071Y-17018357D01*
X29536071Y-16761214D01*
X29821786Y-17061214D02*
X29821786Y-16904072D01*
X29807500Y-16875500D01*
X29778928Y-16861214D01*
X29721786Y-16861214D01*
X29693214Y-16875500D01*
X29821786Y-17046929D02*
X29793214Y-17061214D01*
X29721786Y-17061214D01*
X29693214Y-17046929D01*
X29678928Y-17018357D01*
X29678928Y-16989786D01*
X29693214Y-16961214D01*
X29721786Y-16946929D01*
X29793214Y-16946929D01*
X29821786Y-16932643D01*
X29921786Y-16861214D02*
X30036071Y-16861214D01*
X29964643Y-16761214D02*
X29964643Y-17018357D01*
X29978928Y-17046929D01*
X30007500Y-17061214D01*
X30036071Y-17061214D01*
X30250357Y-17046929D02*
X30221786Y-17061214D01*
X30164643Y-17061214D01*
X30136071Y-17046929D01*
X30121786Y-17018357D01*
X30121786Y-16904072D01*
X30136071Y-16875500D01*
X30164643Y-16861214D01*
X30221786Y-16861214D01*
X30250357Y-16875500D01*
X30264643Y-16904072D01*
X30264643Y-16932643D01*
X30121786Y-16961214D01*
X30521786Y-17061214D02*
X30521786Y-16761214D01*
X30521786Y-17046929D02*
X30493214Y-17061214D01*
X30436071Y-17061214D01*
X30407500Y-17046929D01*
X30393214Y-17032643D01*
X30378928Y-17004072D01*
X30378928Y-16918357D01*
X30393214Y-16889786D01*
X30407500Y-16875500D01*
X30436071Y-16861214D01*
X30493214Y-16861214D01*
X30521786Y-16875500D01*
X30636071Y-17175500D02*
X30650357Y-17161214D01*
X30678928Y-17118357D01*
X30693214Y-17089786D01*
X30707500Y-17046929D01*
X30721786Y-16975500D01*
X30721786Y-16918357D01*
X30707500Y-16846929D01*
X30693214Y-16804072D01*
X30678928Y-16775500D01*
X30650357Y-16732643D01*
X30636071Y-16718357D01*
X20572500Y-17195500D02*
X20892500Y-17515500D01*
X20892500Y-17195500D02*
X20572500Y-17515500D01*
X20732500Y-17515500D02*
X20892500Y-17355500D01*
X20732500Y-17195500D01*
X20572500Y-17355500D01*
X20732500Y-17515500D01*
X21150357Y-17191214D02*
X21336071Y-17191214D01*
X21236071Y-17305500D01*
X21278928Y-17305500D01*
X21307500Y-17319786D01*
X21321786Y-17334072D01*
X21336071Y-17362643D01*
X21336071Y-17434072D01*
X21321786Y-17462643D01*
X21307500Y-17476929D01*
X21278928Y-17491214D01*
X21193214Y-17491214D01*
X21164643Y-17476929D01*
X21150357Y-17462643D01*
X21464643Y-17462643D02*
X21478928Y-17476929D01*
X21464643Y-17491214D01*
X21450357Y-17476929D01*
X21464643Y-17462643D01*
X21464643Y-17491214D01*
X21593214Y-17219786D02*
X21607500Y-17205500D01*
X21636071Y-17191214D01*
X21707500Y-17191214D01*
X21736071Y-17205500D01*
X21750357Y-17219786D01*
X21764643Y-17248357D01*
X21764643Y-17276929D01*
X21750357Y-17319786D01*
X21578928Y-17491214D01*
X21764643Y-17491214D01*
X21950357Y-17191214D02*
X21978928Y-17191214D01*
X22007500Y-17205500D01*
X22021786Y-17219786D01*
X22036071Y-17248357D01*
X22050357Y-17305500D01*
X22050357Y-17376929D01*
X22036071Y-17434072D01*
X22021786Y-17462643D01*
X22007500Y-17476929D01*
X21978928Y-17491214D01*
X21950357Y-17491214D01*
X21921786Y-17476929D01*
X21907500Y-17462643D01*
X21893214Y-17434072D01*
X21878928Y-17376929D01*
X21878928Y-17305500D01*
X21893214Y-17248357D01*
X21907500Y-17219786D01*
X21921786Y-17205500D01*
X21950357Y-17191214D01*
X22178928Y-17491214D02*
X22178928Y-17291214D01*
X22178928Y-17319786D02*
X22193214Y-17305500D01*
X22221786Y-17291214D01*
X22264643Y-17291214D01*
X22293214Y-17305500D01*
X22307500Y-17334072D01*
X22307500Y-17491214D01*
X22307500Y-17334072D02*
X22321786Y-17305500D01*
X22350357Y-17291214D01*
X22393214Y-17291214D01*
X22421786Y-17305500D01*
X22436071Y-17334072D01*
X22436071Y-17491214D01*
X22578928Y-17491214D02*
X22578928Y-17291214D01*
X22578928Y-17319786D02*
X22593214Y-17305500D01*
X22621786Y-17291214D01*
X22664643Y-17291214D01*
X22693214Y-17305500D01*
X22707500Y-17334072D01*
X22707500Y-17491214D01*
X22707500Y-17334072D02*
X22721786Y-17305500D01*
X22750357Y-17291214D01*
X22793214Y-17291214D01*
X22821786Y-17305500D01*
X22836071Y-17334072D01*
X22836071Y-17491214D01*
X23421786Y-17176929D02*
X23164643Y-17562643D01*
X23807500Y-17191214D02*
X23836071Y-17191214D01*
X23864643Y-17205500D01*
X23878928Y-17219786D01*
X23893214Y-17248357D01*
X23907500Y-17305500D01*
X23907500Y-17376929D01*
X23893214Y-17434072D01*
X23878928Y-17462643D01*
X23864643Y-17476929D01*
X23836071Y-17491214D01*
X23807500Y-17491214D01*
X23778928Y-17476929D01*
X23764643Y-17462643D01*
X23750357Y-17434072D01*
X23736071Y-17376929D01*
X23736071Y-17305500D01*
X23750357Y-17248357D01*
X23764643Y-17219786D01*
X23778928Y-17205500D01*
X23807500Y-17191214D01*
X24036071Y-17462643D02*
X24050357Y-17476929D01*
X24036071Y-17491214D01*
X24021786Y-17476929D01*
X24036071Y-17462643D01*
X24036071Y-17491214D01*
X24336071Y-17491214D02*
X24164643Y-17491214D01*
X24250357Y-17491214D02*
X24250357Y-17191214D01*
X24221786Y-17234072D01*
X24193214Y-17262643D01*
X24164643Y-17276929D01*
X24450357Y-17219786D02*
X24464643Y-17205500D01*
X24493214Y-17191214D01*
X24564643Y-17191214D01*
X24593214Y-17205500D01*
X24607500Y-17219786D01*
X24621786Y-17248357D01*
X24621786Y-17276929D01*
X24607500Y-17319786D01*
X24436071Y-17491214D01*
X24621786Y-17491214D01*
X24878928Y-17191214D02*
X24821786Y-17191214D01*
X24793214Y-17205500D01*
X24778928Y-17219786D01*
X24750357Y-17262643D01*
X24736071Y-17319786D01*
X24736071Y-17434072D01*
X24750357Y-17462643D01*
X24764643Y-17476929D01*
X24793214Y-17491214D01*
X24850357Y-17491214D01*
X24878928Y-17476929D01*
X24893214Y-17462643D01*
X24907500Y-17434072D01*
X24907500Y-17362643D01*
X24893214Y-17334072D01*
X24878928Y-17319786D01*
X24850357Y-17305500D01*
X24793214Y-17305500D01*
X24764643Y-17319786D01*
X24750357Y-17334072D01*
X24736071Y-17362643D01*
X25021786Y-17191214D02*
X25021786Y-17248357D01*
X25136071Y-17191214D02*
X25136071Y-17248357D01*
X25578928Y-17605500D02*
X25564643Y-17591214D01*
X25536071Y-17548357D01*
X25521786Y-17519786D01*
X25507500Y-17476929D01*
X25493214Y-17405500D01*
X25493214Y-17348357D01*
X25507500Y-17276929D01*
X25521786Y-17234072D01*
X25536071Y-17205500D01*
X25564643Y-17162643D01*
X25578928Y-17148357D01*
X25736071Y-17319786D02*
X25707500Y-17305500D01*
X25693214Y-17291214D01*
X25678928Y-17262643D01*
X25678928Y-17248357D01*
X25693214Y-17219786D01*
X25707500Y-17205500D01*
X25736071Y-17191214D01*
X25793214Y-17191214D01*
X25821786Y-17205500D01*
X25836071Y-17219786D01*
X25850357Y-17248357D01*
X25850357Y-17262643D01*
X25836071Y-17291214D01*
X25821786Y-17305500D01*
X25793214Y-17319786D01*
X25736071Y-17319786D01*
X25707500Y-17334072D01*
X25693214Y-17348357D01*
X25678928Y-17376929D01*
X25678928Y-17434072D01*
X25693214Y-17462643D01*
X25707500Y-17476929D01*
X25736071Y-17491214D01*
X25793214Y-17491214D01*
X25821786Y-17476929D01*
X25836071Y-17462643D01*
X25850357Y-17434072D01*
X25850357Y-17376929D01*
X25836071Y-17348357D01*
X25821786Y-17334072D01*
X25793214Y-17319786D01*
X26207500Y-17491214D02*
X26207500Y-17191214D01*
X26336071Y-17491214D02*
X26336071Y-17334072D01*
X26321786Y-17305500D01*
X26293214Y-17291214D01*
X26250357Y-17291214D01*
X26221786Y-17305500D01*
X26207500Y-17319786D01*
X26521786Y-17491214D02*
X26493214Y-17476929D01*
X26478928Y-17462643D01*
X26464643Y-17434072D01*
X26464643Y-17348357D01*
X26478928Y-17319786D01*
X26493214Y-17305500D01*
X26521786Y-17291214D01*
X26564643Y-17291214D01*
X26593214Y-17305500D01*
X26607500Y-17319786D01*
X26621786Y-17348357D01*
X26621786Y-17434072D01*
X26607500Y-17462643D01*
X26593214Y-17476929D01*
X26564643Y-17491214D01*
X26521786Y-17491214D01*
X26793214Y-17491214D02*
X26764643Y-17476929D01*
X26750357Y-17448357D01*
X26750357Y-17191214D01*
X27021786Y-17476929D02*
X26993214Y-17491214D01*
X26936071Y-17491214D01*
X26907500Y-17476929D01*
X26893214Y-17448357D01*
X26893214Y-17334072D01*
X26907500Y-17305500D01*
X26936071Y-17291214D01*
X26993214Y-17291214D01*
X27021786Y-17305500D01*
X27036071Y-17334072D01*
X27036071Y-17362643D01*
X26893214Y-17391214D01*
X27150357Y-17476929D02*
X27178928Y-17491214D01*
X27236071Y-17491214D01*
X27264643Y-17476929D01*
X27278928Y-17448357D01*
X27278928Y-17434072D01*
X27264643Y-17405500D01*
X27236071Y-17391214D01*
X27193214Y-17391214D01*
X27164643Y-17376929D01*
X27150357Y-17348357D01*
X27150357Y-17334072D01*
X27164643Y-17305500D01*
X27193214Y-17291214D01*
X27236071Y-17291214D01*
X27264643Y-17305500D01*
X27378928Y-17605500D02*
X27393214Y-17591214D01*
X27421786Y-17548357D01*
X27436071Y-17519786D01*
X27450357Y-17476929D01*
X27464643Y-17405500D01*
X27464643Y-17348357D01*
X27450357Y-17276929D01*
X27436071Y-17234072D01*
X27421786Y-17205500D01*
X27393214Y-17162643D01*
X27378928Y-17148357D01*
X27921786Y-17605500D02*
X27907500Y-17591214D01*
X27878928Y-17548357D01*
X27864643Y-17519786D01*
X27850357Y-17476929D01*
X27836071Y-17405500D01*
X27836071Y-17348357D01*
X27850357Y-17276929D01*
X27864643Y-17234072D01*
X27878928Y-17205500D01*
X27907500Y-17162643D01*
X27921786Y-17148357D01*
X28036071Y-17291214D02*
X28036071Y-17491214D01*
X28036071Y-17319786D02*
X28050357Y-17305500D01*
X28078928Y-17291214D01*
X28121786Y-17291214D01*
X28150357Y-17305500D01*
X28164643Y-17334072D01*
X28164643Y-17491214D01*
X28350357Y-17491214D02*
X28321786Y-17476929D01*
X28307500Y-17462643D01*
X28293214Y-17434072D01*
X28293214Y-17348357D01*
X28307500Y-17319786D01*
X28321786Y-17305500D01*
X28350357Y-17291214D01*
X28393214Y-17291214D01*
X28421786Y-17305500D01*
X28436071Y-17319786D01*
X28450357Y-17348357D01*
X28450357Y-17434072D01*
X28436071Y-17462643D01*
X28421786Y-17476929D01*
X28393214Y-17491214D01*
X28350357Y-17491214D01*
X28536071Y-17291214D02*
X28650357Y-17291214D01*
X28578928Y-17191214D02*
X28578928Y-17448357D01*
X28593214Y-17476929D01*
X28621786Y-17491214D01*
X28650357Y-17491214D01*
X28978928Y-17291214D02*
X28978928Y-17591214D01*
X28978928Y-17305500D02*
X29007500Y-17291214D01*
X29064643Y-17291214D01*
X29093214Y-17305500D01*
X29107500Y-17319786D01*
X29121786Y-17348357D01*
X29121786Y-17434072D01*
X29107500Y-17462643D01*
X29093214Y-17476929D01*
X29064643Y-17491214D01*
X29007500Y-17491214D01*
X28978928Y-17476929D01*
X29293214Y-17491214D02*
X29264643Y-17476929D01*
X29250357Y-17448357D01*
X29250357Y-17191214D01*
X29536071Y-17491214D02*
X29536071Y-17334072D01*
X29521786Y-17305500D01*
X29493214Y-17291214D01*
X29436071Y-17291214D01*
X29407500Y-17305500D01*
X29536071Y-17476929D02*
X29507500Y-17491214D01*
X29436071Y-17491214D01*
X29407500Y-17476929D01*
X29393214Y-17448357D01*
X29393214Y-17419786D01*
X29407500Y-17391214D01*
X29436071Y-17376929D01*
X29507500Y-17376929D01*
X29536071Y-17362643D01*
X29636071Y-17291214D02*
X29750357Y-17291214D01*
X29678928Y-17191214D02*
X29678928Y-17448357D01*
X29693214Y-17476929D01*
X29721786Y-17491214D01*
X29750357Y-17491214D01*
X29964643Y-17476929D02*
X29936071Y-17491214D01*
X29878928Y-17491214D01*
X29850357Y-17476929D01*
X29836071Y-17448357D01*
X29836071Y-17334072D01*
X29850357Y-17305500D01*
X29878928Y-17291214D01*
X29936071Y-17291214D01*
X29964643Y-17305500D01*
X29978928Y-17334072D01*
X29978928Y-17362643D01*
X29836071Y-17391214D01*
X30236071Y-17491214D02*
X30236071Y-17191214D01*
X30236071Y-17476929D02*
X30207500Y-17491214D01*
X30150357Y-17491214D01*
X30121786Y-17476929D01*
X30107500Y-17462643D01*
X30093214Y-17434072D01*
X30093214Y-17348357D01*
X30107500Y-17319786D01*
X30121786Y-17305500D01*
X30150357Y-17291214D01*
X30207500Y-17291214D01*
X30236071Y-17305500D01*
X30350357Y-17605500D02*
X30364643Y-17591214D01*
X30393214Y-17548357D01*
X30407500Y-17519786D01*
X30421786Y-17476929D01*
X30436071Y-17405500D01*
X30436071Y-17348357D01*
X30421786Y-17276929D01*
X30407500Y-17234072D01*
X30393214Y-17205500D01*
X30364643Y-17162643D01*
X30350357Y-17148357D01*
X20692500Y-17605500D02*
X20692500Y-18005500D01*
X20492500Y-17805500D02*
X20892500Y-17805500D01*
X20892500Y-17805500D02*
G75*
G03X20892500Y-17805500I-200000J0D01*
G01*
X21307500Y-17741214D02*
X21307500Y-17941214D01*
X21236071Y-17626929D02*
X21164643Y-17841214D01*
X21350357Y-17841214D01*
X21464643Y-17912643D02*
X21478928Y-17926929D01*
X21464643Y-17941214D01*
X21450357Y-17926929D01*
X21464643Y-17912643D01*
X21464643Y-17941214D01*
X21664643Y-17641214D02*
X21693214Y-17641214D01*
X21721786Y-17655500D01*
X21736071Y-17669786D01*
X21750357Y-17698357D01*
X21764643Y-17755500D01*
X21764643Y-17826929D01*
X21750357Y-17884072D01*
X21736071Y-17912643D01*
X21721786Y-17926929D01*
X21693214Y-17941214D01*
X21664643Y-17941214D01*
X21636071Y-17926929D01*
X21621786Y-17912643D01*
X21607500Y-17884072D01*
X21593214Y-17826929D01*
X21593214Y-17755500D01*
X21607500Y-17698357D01*
X21621786Y-17669786D01*
X21636071Y-17655500D01*
X21664643Y-17641214D01*
X21950357Y-17641214D02*
X21978928Y-17641214D01*
X22007500Y-17655500D01*
X22021786Y-17669786D01*
X22036071Y-17698357D01*
X22050357Y-17755500D01*
X22050357Y-17826929D01*
X22036071Y-17884072D01*
X22021786Y-17912643D01*
X22007500Y-17926929D01*
X21978928Y-17941214D01*
X21950357Y-17941214D01*
X21921786Y-17926929D01*
X21907500Y-17912643D01*
X21893214Y-17884072D01*
X21878928Y-17826929D01*
X21878928Y-17755500D01*
X21893214Y-17698357D01*
X21907500Y-17669786D01*
X21921786Y-17655500D01*
X21950357Y-17641214D01*
X22178928Y-17941214D02*
X22178928Y-17741214D01*
X22178928Y-17769786D02*
X22193214Y-17755500D01*
X22221786Y-17741214D01*
X22264643Y-17741214D01*
X22293214Y-17755500D01*
X22307500Y-17784072D01*
X22307500Y-17941214D01*
X22307500Y-17784072D02*
X22321786Y-17755500D01*
X22350357Y-17741214D01*
X22393214Y-17741214D01*
X22421786Y-17755500D01*
X22436071Y-17784072D01*
X22436071Y-17941214D01*
X22578928Y-17941214D02*
X22578928Y-17741214D01*
X22578928Y-17769786D02*
X22593214Y-17755500D01*
X22621786Y-17741214D01*
X22664643Y-17741214D01*
X22693214Y-17755500D01*
X22707500Y-17784072D01*
X22707500Y-17941214D01*
X22707500Y-17784072D02*
X22721786Y-17755500D01*
X22750357Y-17741214D01*
X22793214Y-17741214D01*
X22821786Y-17755500D01*
X22836071Y-17784072D01*
X22836071Y-17941214D01*
X23421786Y-17626929D02*
X23164643Y-18012643D01*
X23807500Y-17641214D02*
X23836071Y-17641214D01*
X23864643Y-17655500D01*
X23878928Y-17669786D01*
X23893214Y-17698357D01*
X23907500Y-17755500D01*
X23907500Y-17826929D01*
X23893214Y-17884072D01*
X23878928Y-17912643D01*
X23864643Y-17926929D01*
X23836071Y-17941214D01*
X23807500Y-17941214D01*
X23778928Y-17926929D01*
X23764643Y-17912643D01*
X23750357Y-17884072D01*
X23736071Y-17826929D01*
X23736071Y-17755500D01*
X23750357Y-17698357D01*
X23764643Y-17669786D01*
X23778928Y-17655500D01*
X23807500Y-17641214D01*
X24036071Y-17912643D02*
X24050357Y-17926929D01*
X24036071Y-17941214D01*
X24021786Y-17926929D01*
X24036071Y-17912643D01*
X24036071Y-17941214D01*
X24336071Y-17941214D02*
X24164643Y-17941214D01*
X24250357Y-17941214D02*
X24250357Y-17641214D01*
X24221786Y-17684072D01*
X24193214Y-17712643D01*
X24164643Y-17726929D01*
X24607500Y-17641214D02*
X24464643Y-17641214D01*
X24450357Y-17784072D01*
X24464643Y-17769786D01*
X24493214Y-17755500D01*
X24564643Y-17755500D01*
X24593214Y-17769786D01*
X24607500Y-17784072D01*
X24621786Y-17812643D01*
X24621786Y-17884072D01*
X24607500Y-17912643D01*
X24593214Y-17926929D01*
X24564643Y-17941214D01*
X24493214Y-17941214D01*
X24464643Y-17926929D01*
X24450357Y-17912643D01*
X24721786Y-17641214D02*
X24921786Y-17641214D01*
X24793214Y-17941214D01*
X25021786Y-17641214D02*
X25021786Y-17698357D01*
X25136071Y-17641214D02*
X25136071Y-17698357D01*
X25578928Y-18055500D02*
X25564643Y-18041214D01*
X25536071Y-17998357D01*
X25521786Y-17969786D01*
X25507500Y-17926929D01*
X25493214Y-17855500D01*
X25493214Y-17798357D01*
X25507500Y-17726929D01*
X25521786Y-17684072D01*
X25536071Y-17655500D01*
X25564643Y-17612643D01*
X25578928Y-17598357D01*
X25664643Y-17641214D02*
X25850357Y-17641214D01*
X25750357Y-17755500D01*
X25793214Y-17755500D01*
X25821786Y-17769786D01*
X25836071Y-17784072D01*
X25850357Y-17812643D01*
X25850357Y-17884072D01*
X25836071Y-17912643D01*
X25821786Y-17926929D01*
X25793214Y-17941214D01*
X25707500Y-17941214D01*
X25678928Y-17926929D01*
X25664643Y-17912643D01*
X25993214Y-17941214D02*
X26050357Y-17941214D01*
X26078928Y-17926929D01*
X26093214Y-17912643D01*
X26121786Y-17869786D01*
X26136071Y-17812643D01*
X26136071Y-17698357D01*
X26121786Y-17669786D01*
X26107500Y-17655500D01*
X26078928Y-17641214D01*
X26021786Y-17641214D01*
X25993214Y-17655500D01*
X25978928Y-17669786D01*
X25964643Y-17698357D01*
X25964643Y-17769786D01*
X25978928Y-17798357D01*
X25993214Y-17812643D01*
X26021786Y-17826929D01*
X26078928Y-17826929D01*
X26107500Y-17812643D01*
X26121786Y-17798357D01*
X26136071Y-17769786D01*
X26493214Y-17941214D02*
X26493214Y-17641214D01*
X26621786Y-17941214D02*
X26621786Y-17784072D01*
X26607500Y-17755500D01*
X26578928Y-17741214D01*
X26536071Y-17741214D01*
X26507500Y-17755500D01*
X26493214Y-17769786D01*
X26807500Y-17941214D02*
X26778928Y-17926929D01*
X26764643Y-17912643D01*
X26750357Y-17884072D01*
X26750357Y-17798357D01*
X26764643Y-17769786D01*
X26778928Y-17755500D01*
X26807500Y-17741214D01*
X26850357Y-17741214D01*
X26878928Y-17755500D01*
X26893214Y-17769786D01*
X26907500Y-17798357D01*
X26907500Y-17884072D01*
X26893214Y-17912643D01*
X26878928Y-17926929D01*
X26850357Y-17941214D01*
X26807500Y-17941214D01*
X27078928Y-17941214D02*
X27050357Y-17926929D01*
X27036071Y-17898357D01*
X27036071Y-17641214D01*
X27307500Y-17926929D02*
X27278928Y-17941214D01*
X27221786Y-17941214D01*
X27193214Y-17926929D01*
X27178928Y-17898357D01*
X27178928Y-17784072D01*
X27193214Y-17755500D01*
X27221786Y-17741214D01*
X27278928Y-17741214D01*
X27307500Y-17755500D01*
X27321786Y-17784072D01*
X27321786Y-17812643D01*
X27178928Y-17841214D01*
X27436071Y-17926929D02*
X27464643Y-17941214D01*
X27521786Y-17941214D01*
X27550357Y-17926929D01*
X27564643Y-17898357D01*
X27564643Y-17884072D01*
X27550357Y-17855500D01*
X27521786Y-17841214D01*
X27478928Y-17841214D01*
X27450357Y-17826929D01*
X27436071Y-17798357D01*
X27436071Y-17784072D01*
X27450357Y-17755500D01*
X27478928Y-17741214D01*
X27521786Y-17741214D01*
X27550357Y-17755500D01*
X27664643Y-18055500D02*
X27678928Y-18041214D01*
X27707500Y-17998357D01*
X27721786Y-17969786D01*
X27736071Y-17926929D01*
X27750357Y-17855500D01*
X27750357Y-17798357D01*
X27736071Y-17726929D01*
X27721786Y-17684072D01*
X27707500Y-17655500D01*
X27678928Y-17612643D01*
X27664643Y-17598357D01*
X28207500Y-18055500D02*
X28193214Y-18041214D01*
X28164643Y-17998357D01*
X28150357Y-17969786D01*
X28136071Y-17926929D01*
X28121786Y-17855500D01*
X28121786Y-17798357D01*
X28136071Y-17726929D01*
X28150357Y-17684072D01*
X28164643Y-17655500D01*
X28193214Y-17612643D01*
X28207500Y-17598357D01*
X28321786Y-17741214D02*
X28321786Y-17941214D01*
X28321786Y-17769786D02*
X28336071Y-17755500D01*
X28364643Y-17741214D01*
X28407500Y-17741214D01*
X28436071Y-17755500D01*
X28450357Y-17784072D01*
X28450357Y-17941214D01*
X28636071Y-17941214D02*
X28607500Y-17926929D01*
X28593214Y-17912643D01*
X28578928Y-17884072D01*
X28578928Y-17798357D01*
X28593214Y-17769786D01*
X28607500Y-17755500D01*
X28636071Y-17741214D01*
X28678928Y-17741214D01*
X28707500Y-17755500D01*
X28721786Y-17769786D01*
X28736071Y-17798357D01*
X28736071Y-17884072D01*
X28721786Y-17912643D01*
X28707500Y-17926929D01*
X28678928Y-17941214D01*
X28636071Y-17941214D01*
X28821786Y-17741214D02*
X28936071Y-17741214D01*
X28864643Y-17641214D02*
X28864643Y-17898357D01*
X28878928Y-17926929D01*
X28907500Y-17941214D01*
X28936071Y-17941214D01*
X29264643Y-17741214D02*
X29264643Y-18041214D01*
X29264643Y-17755500D02*
X29293214Y-17741214D01*
X29350357Y-17741214D01*
X29378928Y-17755500D01*
X29393214Y-17769786D01*
X29407500Y-17798357D01*
X29407500Y-17884072D01*
X29393214Y-17912643D01*
X29378928Y-17926929D01*
X29350357Y-17941214D01*
X29293214Y-17941214D01*
X29264643Y-17926929D01*
X29578928Y-17941214D02*
X29550357Y-17926929D01*
X29536071Y-17898357D01*
X29536071Y-17641214D01*
X29821786Y-17941214D02*
X29821786Y-17784072D01*
X29807500Y-17755500D01*
X29778928Y-17741214D01*
X29721786Y-17741214D01*
X29693214Y-17755500D01*
X29821786Y-17926929D02*
X29793214Y-17941214D01*
X29721786Y-17941214D01*
X29693214Y-17926929D01*
X29678928Y-17898357D01*
X29678928Y-17869786D01*
X29693214Y-17841214D01*
X29721786Y-17826929D01*
X29793214Y-17826929D01*
X29821786Y-17812643D01*
X29921786Y-17741214D02*
X30036071Y-17741214D01*
X29964643Y-17641214D02*
X29964643Y-17898357D01*
X29978928Y-17926929D01*
X30007500Y-17941214D01*
X30036071Y-17941214D01*
X30250357Y-17926929D02*
X30221786Y-17941214D01*
X30164643Y-17941214D01*
X30136071Y-17926929D01*
X30121786Y-17898357D01*
X30121786Y-17784072D01*
X30136071Y-17755500D01*
X30164643Y-17741214D01*
X30221786Y-17741214D01*
X30250357Y-17755500D01*
X30264643Y-17784072D01*
X30264643Y-17812643D01*
X30121786Y-17841214D01*
X30521786Y-17941214D02*
X30521786Y-17641214D01*
X30521786Y-17926929D02*
X30493214Y-17941214D01*
X30436071Y-17941214D01*
X30407500Y-17926929D01*
X30393214Y-17912643D01*
X30378928Y-17884072D01*
X30378928Y-17798357D01*
X30393214Y-17769786D01*
X30407500Y-17755500D01*
X30436071Y-17741214D01*
X30493214Y-17741214D01*
X30521786Y-17755500D01*
X30636071Y-18055500D02*
X30650357Y-18041214D01*
X30678928Y-17998357D01*
X30693214Y-17969786D01*
X30707500Y-17926929D01*
X30721786Y-17855500D01*
X30721786Y-17798357D01*
X30707500Y-17726929D01*
X30693214Y-17684072D01*
X30678928Y-17655500D01*
X30650357Y-17612643D01*
X30636071Y-17598357D01*
M02*
