G04 #@! TF.GenerationSoftware,KiCad,Pcbnew,(5.0.0-3-g5ebb6b6)*
G04 #@! TF.CreationDate,2018-10-13T13:11:11+09:00*
G04 #@! TF.ProjectId,pakbd,70616B62642E6B696361645F70636200,1*
G04 #@! TF.SameCoordinates,Original*
G04 #@! TF.FileFunction,Soldermask,Top*
G04 #@! TF.FilePolarity,Negative*
%FSLAX46Y46*%
G04 Gerber Fmt 4.6, Leading zero omitted, Abs format (unit mm)*
G04 Created by KiCad (PCBNEW (5.0.0-3-g5ebb6b6)) date *
%MOMM*%
%LPD*%
G01*
G04 APERTURE LIST*
%ADD10C,2.160000*%
%ADD11C,4.400000*%
%ADD12C,3.400000*%
%ADD13R,9.625000X1.400000*%
%ADD14R,28.710000X1.400000*%
%ADD15R,16.900000X1.400000*%
%ADD16C,3.600000*%
%ADD17C,1.797000*%
%ADD18C,2.000000*%
%ADD19R,2.000000X2.000000*%
%ADD20C,1.600000*%
%ADD21O,2.700000X1.900000*%
G04 APERTURE END LIST*
D10*
G04 #@! TO.C,SW54*
X349180250Y-81240000D03*
X359340250Y-81240000D03*
D11*
X354260250Y-81240000D03*
D12*
X358070250Y-83780000D03*
X351720250Y-86320000D03*
G04 #@! TD*
D13*
G04 #@! TO.C,cr10*
X223517501Y-52240001D03*
G04 #@! TD*
D10*
G04 #@! TO.C,SW51*
X284887000Y-81240000D03*
X295047000Y-81240000D03*
D11*
X289967000Y-81240000D03*
D12*
X293777000Y-83780000D03*
X287427000Y-86320000D03*
G04 #@! TD*
D10*
G04 #@! TO.C,SW52*
X303937000Y-81240000D03*
X314097000Y-81240000D03*
D11*
X309017000Y-81240000D03*
D12*
X312827000Y-83780000D03*
X306477000Y-86320000D03*
G04 #@! TD*
D10*
G04 #@! TO.C,SW56*
X218212000Y-100290000D03*
X228372000Y-100290000D03*
D11*
X223292000Y-100290000D03*
D12*
X227102000Y-102830000D03*
X220752000Y-105370000D03*
G04 #@! TD*
D10*
G04 #@! TO.C,SW66*
X301556250Y-119340000D03*
X311716250Y-119340000D03*
D11*
X306636250Y-119340000D03*
D12*
X310446250Y-121880000D03*
X304096250Y-124420000D03*
G04 #@! TD*
D14*
G04 #@! TO.C,cr18*
X377900001Y-52240001D03*
G04 #@! TD*
D15*
G04 #@! TO.C,cr11*
X238930001Y-52240001D03*
G04 #@! TD*
G04 #@! TO.C,cr16*
X334180001Y-52240001D03*
G04 #@! TD*
G04 #@! TO.C,cr12*
X257980001Y-52240001D03*
G04 #@! TD*
G04 #@! TO.C,cr14*
X296080001Y-52240001D03*
G04 #@! TD*
G04 #@! TO.C,cr13*
X277030001Y-52240001D03*
G04 #@! TD*
G04 #@! TO.C,cr15*
X315130001Y-52240001D03*
G04 #@! TD*
G04 #@! TO.C,cr17*
X353230001Y-52240001D03*
G04 #@! TD*
D16*
G04 #@! TO.C,h15*
X328070000Y-90790000D03*
G04 #@! TD*
G04 #@! TO.C,h14*
X251870000Y-90800000D03*
G04 #@! TD*
G04 #@! TO.C,h13*
X389710000Y-54960000D03*
G04 #@! TD*
G04 #@! TO.C,h12*
X237590000Y-54920000D03*
G04 #@! TD*
G04 #@! TO.C,h10*
X211260000Y-32870000D03*
G04 #@! TD*
G04 #@! TO.C,h11*
X389730000Y-32870000D03*
G04 #@! TD*
G04 #@! TO.C,h17*
X389720000Y-129610000D03*
G04 #@! TD*
D10*
G04 #@! TO.C,SW62*
X334892750Y-100290000D03*
X345052750Y-100290000D03*
D11*
X339972750Y-100290000D03*
D12*
X343782750Y-102830000D03*
X337432750Y-105370000D03*
G04 #@! TD*
D10*
G04 #@! TO.C,SW67*
X337274000Y-119340000D03*
X347434000Y-119340000D03*
D11*
X342354000Y-119340000D03*
D12*
X346164000Y-121880000D03*
X339814000Y-124420000D03*
G04 #@! TD*
D10*
G04 #@! TO.C,SW68*
X356324000Y-119340000D03*
X366484000Y-119340000D03*
D11*
X361404000Y-119340000D03*
D12*
X365214000Y-121880000D03*
X358864000Y-124420000D03*
G04 #@! TD*
D17*
G04 #@! TO.C,SW_r1*
X362290000Y-73090000D03*
X362290000Y-78170000D03*
X369910000Y-73090000D03*
X369910000Y-78170000D03*
G04 #@! TD*
D18*
G04 #@! TO.C,U1*
X387200000Y-108570000D03*
X384660000Y-108570000D03*
X382120000Y-108570000D03*
X379580000Y-108570000D03*
X377040000Y-108570000D03*
X374500000Y-108570000D03*
X371960000Y-108570000D03*
X369420000Y-108570000D03*
X366880000Y-108570000D03*
X364340000Y-108570000D03*
X361800000Y-108570000D03*
X359260000Y-108570000D03*
X359260000Y-93330000D03*
X361800000Y-93330000D03*
X364340000Y-93330000D03*
X366880000Y-93330000D03*
X369420000Y-93330000D03*
X371960000Y-93330000D03*
X374500000Y-93330000D03*
X377040000Y-93330000D03*
X379580000Y-93330000D03*
X382120000Y-93330000D03*
X384660000Y-93330000D03*
D19*
X387200000Y-93330000D03*
G04 #@! TD*
D20*
G04 #@! TO.C,J1*
X388480000Y-74815000D03*
X381480000Y-74815000D03*
D21*
X386680000Y-72665000D03*
X383680000Y-72665000D03*
X379680000Y-72665000D03*
X378180000Y-76965000D03*
G04 #@! TD*
D16*
G04 #@! TO.C,h16*
X225540000Y-129610000D03*
G04 #@! TD*
D10*
G04 #@! TO.C,SW45*
X337275000Y-62190000D03*
X347435000Y-62190000D03*
D11*
X342355000Y-62190000D03*
D12*
X346165000Y-64730000D03*
X339815000Y-67270000D03*
G04 #@! TD*
D10*
G04 #@! TO.C,SW46*
X356325000Y-62190000D03*
X366485000Y-62190000D03*
D11*
X361405000Y-62190000D03*
D12*
X365215000Y-64730000D03*
X358865000Y-67270000D03*
G04 #@! TD*
D10*
G04 #@! TO.C,SW47*
X375375000Y-62190000D03*
X385535000Y-62190000D03*
D11*
X380455000Y-62190000D03*
D12*
X384265000Y-64730000D03*
X377915000Y-67270000D03*
G04 #@! TD*
D10*
G04 #@! TO.C,SW58*
X256312000Y-100290000D03*
X266472000Y-100290000D03*
D11*
X261392000Y-100290000D03*
D12*
X265202000Y-102830000D03*
X258852000Y-105370000D03*
G04 #@! TD*
D10*
G04 #@! TO.C,SW59*
X275362000Y-100290000D03*
X285522000Y-100290000D03*
D11*
X280442000Y-100290000D03*
D12*
X284252000Y-102830000D03*
X277902000Y-105370000D03*
G04 #@! TD*
D10*
G04 #@! TO.C,SW35*
X289650000Y-43140000D03*
X299810000Y-43140000D03*
D11*
X294730000Y-43140000D03*
D12*
X298540000Y-45680000D03*
X292190000Y-48220000D03*
G04 #@! TD*
D10*
G04 #@! TO.C,SW38*
X346800000Y-43140000D03*
X356960000Y-43140000D03*
D11*
X351880000Y-43140000D03*
D12*
X355690000Y-45680000D03*
X349340000Y-48220000D03*
G04 #@! TD*
D10*
G04 #@! TO.C,SW39*
X222975000Y-62190000D03*
X233135000Y-62190000D03*
D11*
X228055000Y-62190000D03*
D12*
X231865000Y-64730000D03*
X225515000Y-67270000D03*
G04 #@! TD*
D10*
G04 #@! TO.C,SW36*
X308700000Y-43140000D03*
X318860000Y-43140000D03*
D11*
X313780000Y-43140000D03*
D12*
X317590000Y-45680000D03*
X311240000Y-48220000D03*
G04 #@! TD*
D10*
G04 #@! TO.C,SW64*
X227737000Y-119340000D03*
X237897000Y-119340000D03*
D11*
X232817000Y-119340000D03*
D12*
X236627000Y-121880000D03*
X230277000Y-124420000D03*
G04 #@! TD*
D10*
G04 #@! TO.C,SW65*
X263456250Y-119340000D03*
X273616250Y-119340000D03*
D11*
X268536250Y-119340000D03*
D12*
X272346250Y-121880000D03*
X265996250Y-124420000D03*
G04 #@! TD*
D10*
G04 #@! TO.C,SW60*
X294412000Y-100290000D03*
X304572000Y-100290000D03*
D11*
X299492000Y-100290000D03*
D12*
X303302000Y-102830000D03*
X296952000Y-105370000D03*
G04 #@! TD*
D10*
G04 #@! TO.C,SW61*
X313462000Y-100290000D03*
X323622000Y-100290000D03*
D11*
X318542000Y-100290000D03*
D12*
X322352000Y-102830000D03*
X316002000Y-105370000D03*
G04 #@! TD*
D10*
G04 #@! TO.C,SW41*
X261075000Y-62190000D03*
X271235000Y-62190000D03*
D11*
X266155000Y-62190000D03*
D12*
X269965000Y-64730000D03*
X263615000Y-67270000D03*
G04 #@! TD*
D10*
G04 #@! TO.C,SW63*
X356324000Y-100290000D03*
X366484000Y-100290000D03*
D11*
X361404000Y-100290000D03*
D12*
X365214000Y-102830000D03*
X358864000Y-105370000D03*
G04 #@! TD*
D10*
G04 #@! TO.C,SW44*
X318225000Y-62190000D03*
X328385000Y-62190000D03*
D11*
X323305000Y-62190000D03*
D12*
X327115000Y-64730000D03*
X320765000Y-67270000D03*
G04 #@! TD*
D10*
G04 #@! TO.C,SW37*
X327750000Y-43140000D03*
X337910000Y-43140000D03*
D11*
X332830000Y-43140000D03*
D12*
X336640000Y-45680000D03*
X330290000Y-48220000D03*
G04 #@! TD*
D10*
G04 #@! TO.C,SW43*
X299175000Y-62190000D03*
X309335000Y-62190000D03*
D11*
X304255000Y-62190000D03*
D12*
X308065000Y-64730000D03*
X301715000Y-67270000D03*
G04 #@! TD*
D10*
G04 #@! TO.C,SW31*
X213450000Y-43140000D03*
X223610000Y-43140000D03*
D11*
X218530000Y-43140000D03*
D12*
X222340000Y-45680000D03*
X215990000Y-48220000D03*
G04 #@! TD*
D10*
G04 #@! TO.C,SW40*
X242025000Y-62190000D03*
X252185000Y-62190000D03*
D11*
X247105000Y-62190000D03*
D12*
X250915000Y-64730000D03*
X244565000Y-67270000D03*
G04 #@! TD*
D10*
G04 #@! TO.C,SW42*
X280125000Y-62190000D03*
X290285000Y-62190000D03*
D11*
X285205000Y-62190000D03*
D12*
X289015000Y-64730000D03*
X282665000Y-67270000D03*
G04 #@! TD*
D10*
G04 #@! TO.C,SW32*
X232500000Y-43140000D03*
X242660000Y-43140000D03*
D11*
X237580000Y-43140000D03*
D12*
X241390000Y-45680000D03*
X235040000Y-48220000D03*
G04 #@! TD*
D10*
G04 #@! TO.C,SW33*
X251550000Y-43140000D03*
X261710000Y-43140000D03*
D11*
X256630000Y-43140000D03*
D12*
X260440000Y-45680000D03*
X254090000Y-48220000D03*
G04 #@! TD*
D10*
G04 #@! TO.C,SW34*
X270600000Y-43140000D03*
X280760000Y-43140000D03*
D11*
X275680000Y-43140000D03*
D12*
X279490000Y-45680000D03*
X273140000Y-48220000D03*
G04 #@! TD*
D10*
G04 #@! TO.C,SW57*
X237262000Y-100290000D03*
X247422000Y-100290000D03*
D11*
X242342000Y-100290000D03*
D12*
X246152000Y-102830000D03*
X239802000Y-105370000D03*
G04 #@! TD*
D10*
G04 #@! TO.C,SW48*
X227732000Y-81240000D03*
X237892000Y-81240000D03*
D11*
X232812000Y-81240000D03*
D12*
X236622000Y-83780000D03*
X230272000Y-86320000D03*
G04 #@! TD*
D10*
G04 #@! TO.C,SW53*
X322987000Y-81240000D03*
X333147000Y-81240000D03*
D11*
X328067000Y-81240000D03*
D12*
X331877000Y-83780000D03*
X325527000Y-86320000D03*
G04 #@! TD*
D10*
G04 #@! TO.C,SW69*
X375375000Y-119340000D03*
X385535000Y-119340000D03*
D11*
X380455000Y-119340000D03*
D12*
X384265000Y-121880000D03*
X377915000Y-124420000D03*
G04 #@! TD*
D10*
G04 #@! TO.C,SW49*
X246787000Y-81240000D03*
X256947000Y-81240000D03*
D11*
X251867000Y-81240000D03*
D12*
X255677000Y-83780000D03*
X249327000Y-86320000D03*
G04 #@! TD*
D10*
G04 #@! TO.C,SW50*
X265837000Y-81240000D03*
X275997000Y-81240000D03*
D11*
X270917000Y-81240000D03*
D12*
X274727000Y-83780000D03*
X268377000Y-86320000D03*
G04 #@! TD*
D10*
G04 #@! TO.C,SW55*
X375375000Y-81240000D03*
X385535000Y-81240000D03*
D11*
X380455000Y-81240000D03*
D12*
X384265000Y-83780000D03*
X377915000Y-86320000D03*
G04 #@! TD*
M02*
