M48
;DRILL file {KiCad (5.0.0-3-g5ebb6b6)} date 
;FORMAT={3:3/ absolute / metric / suppress leading zeros}
FMAT,2
METRIC,TZ
T1C0.400
T2C0.813
T3C1.000
T4C1.100
T5C1.000
T6C1.200
T7C1.760
T8C3.000
T9C3.200
T10C4.000
%
G90
G05
M71
T1
X219160Y-34160
X220730Y-96430
X221370Y-49070
X225210Y-58880
X225210Y-106160
X229120Y-115690
X229510Y-50360
X229690Y-77080
X231880Y-68690
X234970Y-95720
X235020Y-92920
X235500Y-87660
X235600Y-125790
X238180Y-34020
X239120Y-96720
X240590Y-64160
X240630Y-49070
X243880Y-77040
X243920Y-73770
X243990Y-105490
X244080Y-59160
X248440Y-50490
X248750Y-77180
X249420Y-120740
X250660Y-68690
X254620Y-95870
X254670Y-92970
X255140Y-87950
X255630Y-111680
X255630Y-114580
X256910Y-34020
X258090Y-97000
X259440Y-63990
X259890Y-49070
X262190Y-58880
X262570Y-105390
X262890Y-74010
X262890Y-76750
X264290Y-115020
X267550Y-50520
X267910Y-77180
X269340Y-68690
X270580Y-125410
X273180Y-93270
X273230Y-95920
X273250Y-87850
X276200Y-34300
X277640Y-96620
X278370Y-63970
X278750Y-49210
X279690Y-114770
X279730Y-112230
X281540Y-58780
X281540Y-105390
X282110Y-73690
X282160Y-77010
X286530Y-50850
X286690Y-77460
X287360Y-119220
X288790Y-68880
X292220Y-87660
X292260Y-95730
X292290Y-92990
X293130Y-108220
X295080Y-34160
X295750Y-96720
X297680Y-64340
X298140Y-49340
X300510Y-58880
X300510Y-105300
X301080Y-73990
X301100Y-76850
X302510Y-114930
X305570Y-50460
X306040Y-77370
X307990Y-68700
X308710Y-125220
X310460Y-109560
X311000Y-87950
X311230Y-93130
X311270Y-95870
X313390Y-34300
X315000Y-96720
X316220Y-114580
X316690Y-64240
X316730Y-49210
X318910Y-58680
X319770Y-105110
X320330Y-76710
X320370Y-73670
X323680Y-77180
X324590Y-50590
X326160Y-119310
X326490Y-68610
X331210Y-87660
X332270Y-34160
X332500Y-95590
X335800Y-64050
X335990Y-49340
X336000Y-70230
X336830Y-96910
X337400Y-71310
X337400Y-75110
X338070Y-115310
X338360Y-58780
X339460Y-83760
X341120Y-105110
X343110Y-73220
X343210Y-39960
X343850Y-77750
X344080Y-125220
X345080Y-86470
X345300Y-70890
X346100Y-77850
X346300Y-68330
X350550Y-92620
X350690Y-124860
X351280Y-34160
X352210Y-68450
X352800Y-54780
X352800Y-57150
X354280Y-76890
X354290Y-90550
X355055Y-64755
X355660Y-49480
X356560Y-58680
X356660Y-115400
X362660Y-104730
X363050Y-125220
X364650Y-114610
X364960Y-87170
X365050Y-88460
X365510Y-81850
X366950Y-67960
X369340Y-125670
X370550Y-70930
X371170Y-86310
X371430Y-111600
X371430Y-114450
X371910Y-58590
X372260Y-72650
X372550Y-126950
X373800Y-127090
X374470Y-89510
X374710Y-96450
X375350Y-127010
X377650Y-34300
X377930Y-46370
X378870Y-101770
X380110Y-115780
X381160Y-85280
X382400Y-125890
X383770Y-68240
X384640Y-90900
X385460Y-95670
X389190Y-94820
T2
X362290Y-73090
X362290Y-78170
X369910Y-73090
X369910Y-78170
T4
X359260Y-93330
X359260Y-108570
X361800Y-93330
X361800Y-108570
X364340Y-93330
X364340Y-108570
X366880Y-93330
X366880Y-108570
X369420Y-93330
X369420Y-108570
X371960Y-93330
X371960Y-108570
X374500Y-93330
X374500Y-108570
X377040Y-93330
X377040Y-108570
X379580Y-93330
X379580Y-108570
X382120Y-93330
X382120Y-108570
X384660Y-93330
X384660Y-108570
X387200Y-93330
X387200Y-108570
T6
X381480Y-74815
X388480Y-74815
T7
X356324Y-119340
X366484Y-119340
X256312Y-100290
X266472Y-100290
X356324Y-100290
X366484Y-100290
X303937Y-81240
X314097Y-81240
X375375Y-119340
X385535Y-119340
X289650Y-43140
X299810Y-43140
X327750Y-43140
X337910Y-43140
X301556Y-119340
X311716Y-119340
X237262Y-100290
X247422Y-100290
X222975Y-62190
X233135Y-62190
X213450Y-43140
X223610Y-43140
X246787Y-81240
X256947Y-81240
X227737Y-119340
X237897Y-119340
X280125Y-62190
X290285Y-62190
X322987Y-81240
X333147Y-81240
X375375Y-81240
X385535Y-81240
X251550Y-43140
X261710Y-43140
X337275Y-62190
X347435Y-62190
X294412Y-100290
X304572Y-100290
X337274Y-119340
X347434Y-119340
X232500Y-43140
X242660Y-43140
X375375Y-62190
X385535Y-62190
X261075Y-62190
X271235Y-62190
X284887Y-81240
X295047Y-81240
X275362Y-100290
X285522Y-100290
X318225Y-62190
X328385Y-62190
X218212Y-100290
X228372Y-100290
X270600Y-43140
X280760Y-43140
X349180Y-81240
X359340Y-81240
X346800Y-43140
X356960Y-43140
X299175Y-62190
X309335Y-62190
X308700Y-43140
X318860Y-43140
X242025Y-62190
X252185Y-62190
X227732Y-81240
X237892Y-81240
X265837Y-81240
X275997Y-81240
X263456Y-119340
X273616Y-119340
X334893Y-100290
X345053Y-100290
X356325Y-62190
X366485Y-62190
X313462Y-100290
X323622Y-100290
T8
X339814Y-124420
X346164Y-121880
X235040Y-48220
X241390Y-45680
X377915Y-67270
X384265Y-64730
X263615Y-67270
X269965Y-64730
X287427Y-86320
X293777Y-83780
X277902Y-105370
X284252Y-102830
X320765Y-67270
X327115Y-64730
X220752Y-105370
X227102Y-102830
X273140Y-48220
X279490Y-45680
X351720Y-86320
X358070Y-83780
X349340Y-48220
X355690Y-45680
X301715Y-67270
X308065Y-64730
X311240Y-48220
X317590Y-45680
X244565Y-67270
X250915Y-64730
X230272Y-86320
X236622Y-83780
X268377Y-86320
X274727Y-83780
X265996Y-124420
X272346Y-121880
X337433Y-105370
X343783Y-102830
X358865Y-67270
X365215Y-64730
X316002Y-105370
X322352Y-102830
X358864Y-124420
X365214Y-121880
X258852Y-105370
X265202Y-102830
X358864Y-105370
X365214Y-102830
X306477Y-86320
X312827Y-83780
X377915Y-124420
X384265Y-121880
X292190Y-48220
X298540Y-45680
X330290Y-48220
X336640Y-45680
X304096Y-124420
X310446Y-121880
X239802Y-105370
X246152Y-102830
X225515Y-67270
X231865Y-64730
X215990Y-48220
X222340Y-45680
X249327Y-86320
X255677Y-83780
X230277Y-124420
X236627Y-121880
X282665Y-67270
X289015Y-64730
X325527Y-86320
X331877Y-83780
X377915Y-86320
X384265Y-83780
X254090Y-48220
X260440Y-45680
X339815Y-67270
X346165Y-64730
X296952Y-105370
X303302Y-102830
T9
X237590Y-54920
X225540Y-129610
X389720Y-129610
X389710Y-54960
X389730Y-32870
X251870Y-90800
X211260Y-32870
X328070Y-90790
T10
X280442Y-100290
X323305Y-62190
X223292Y-100290
X275680Y-43140
X354260Y-81240
X351880Y-43140
X304255Y-62190
X313780Y-43140
X247105Y-62190
X232812Y-81240
X270917Y-81240
X268536Y-119340
X339973Y-100290
X361405Y-62190
X318542Y-100290
X361404Y-119340
X261392Y-100290
X361404Y-100290
X309017Y-81240
X380455Y-119340
X294730Y-43140
X332830Y-43140
X306636Y-119340
X242342Y-100290
X228055Y-62190
X218530Y-43140
X251867Y-81240
X232817Y-119340
X285205Y-62190
X328067Y-81240
X380455Y-81240
X256630Y-43140
X342355Y-62190
X299492Y-100290
X342354Y-119340
X237580Y-43140
X380455Y-62190
X266155Y-62190
X289967Y-81240
T3
X378430Y-76965G85X377930Y-76965
G05
X379930Y-72665G85X379430Y-72665
G05
X383930Y-72665G85X383430Y-72665
G05
X386930Y-72665G85X386430Y-72665
G05
T5
X250230Y-52240G85X265730Y-52240
G05
X219405Y-52240G85X227630Y-52240
G05
X326430Y-52240G85X341930Y-52240
G05
X231180Y-52240G85X246680Y-52240
G05
X307380Y-52240G85X322880Y-52240
G05
X364245Y-52240G85X391555Y-52240
G05
X269280Y-52240G85X284780Y-52240
G05
X288330Y-52240G85X303830Y-52240
G05
X345480Y-52240G85X360980Y-52240
G05
T0
M30
