G04 #@! TF.GenerationSoftware,KiCad,Pcbnew,(5.0.0-3-g5ebb6b6)*
G04 #@! TF.CreationDate,2018-10-13T13:11:11+09:00*
G04 #@! TF.ProjectId,pakbd,70616B62642E6B696361645F70636200,1*
G04 #@! TF.SameCoordinates,Original*
G04 #@! TF.FileFunction,Soldermask,Bot*
G04 #@! TF.FilePolarity,Negative*
%FSLAX46Y46*%
G04 Gerber Fmt 4.6, Leading zero omitted, Abs format (unit mm)*
G04 Created by KiCad (PCBNEW (5.0.0-3-g5ebb6b6)) date *
%MOMM*%
%LPD*%
G01*
G04 APERTURE LIST*
%ADD10R,3.400000X2.900000*%
%ADD11C,2.160000*%
%ADD12C,4.400000*%
%ADD13C,3.400000*%
%ADD14R,9.625000X1.400000*%
%ADD15C,0.100000*%
%ADD16C,1.825000*%
%ADD17R,28.710000X1.400000*%
%ADD18R,16.900000X1.400000*%
%ADD19C,3.600000*%
%ADD20R,1.400000X1.900000*%
%ADD21C,1.797000*%
%ADD22C,2.000000*%
%ADD23R,2.000000X2.000000*%
%ADD24C,1.600000*%
%ADD25O,2.700000X1.900000*%
G04 APERTURE END LIST*
D10*
G04 #@! TO.C,SW54*
X361880250Y-83780000D03*
X347910250Y-86320000D03*
D11*
X349180250Y-81240000D03*
X359340250Y-81240000D03*
D12*
X354260250Y-81240000D03*
D13*
X358070250Y-83780000D03*
X351720250Y-86320000D03*
G04 #@! TD*
D14*
G04 #@! TO.C,cr10*
X223517501Y-52240001D03*
G04 #@! TD*
D15*
G04 #@! TO.C,D46*
G36*
X368036207Y-55251542D02*
X368067287Y-55256152D01*
X368097766Y-55263787D01*
X368127350Y-55274372D01*
X368155754Y-55287806D01*
X368182704Y-55303959D01*
X368207942Y-55322677D01*
X368231223Y-55343777D01*
X368252323Y-55367058D01*
X368271041Y-55392296D01*
X368287194Y-55419246D01*
X368300628Y-55447650D01*
X368311213Y-55477234D01*
X368318848Y-55507713D01*
X368323458Y-55538793D01*
X368325000Y-55570176D01*
X368325000Y-56754824D01*
X368323458Y-56786207D01*
X368318848Y-56817287D01*
X368311213Y-56847766D01*
X368300628Y-56877350D01*
X368287194Y-56905754D01*
X368271041Y-56932704D01*
X368252323Y-56957942D01*
X368231223Y-56981223D01*
X368207942Y-57002323D01*
X368182704Y-57021041D01*
X368155754Y-57037194D01*
X368127350Y-57050628D01*
X368097766Y-57061213D01*
X368067287Y-57068848D01*
X368036207Y-57073458D01*
X368004824Y-57075000D01*
X366495176Y-57075000D01*
X366463793Y-57073458D01*
X366432713Y-57068848D01*
X366402234Y-57061213D01*
X366372650Y-57050628D01*
X366344246Y-57037194D01*
X366317296Y-57021041D01*
X366292058Y-57002323D01*
X366268777Y-56981223D01*
X366247677Y-56957942D01*
X366228959Y-56932704D01*
X366212806Y-56905754D01*
X366199372Y-56877350D01*
X366188787Y-56847766D01*
X366181152Y-56817287D01*
X366176542Y-56786207D01*
X366175000Y-56754824D01*
X366175000Y-55570176D01*
X366176542Y-55538793D01*
X366181152Y-55507713D01*
X366188787Y-55477234D01*
X366199372Y-55447650D01*
X366212806Y-55419246D01*
X366228959Y-55392296D01*
X366247677Y-55367058D01*
X366268777Y-55343777D01*
X366292058Y-55322677D01*
X366317296Y-55303959D01*
X366344246Y-55287806D01*
X366372650Y-55274372D01*
X366402234Y-55263787D01*
X366432713Y-55256152D01*
X366463793Y-55251542D01*
X366495176Y-55250000D01*
X368004824Y-55250000D01*
X368036207Y-55251542D01*
X368036207Y-55251542D01*
G37*
D16*
X367250000Y-56162500D03*
D15*
G36*
X368036207Y-58226542D02*
X368067287Y-58231152D01*
X368097766Y-58238787D01*
X368127350Y-58249372D01*
X368155754Y-58262806D01*
X368182704Y-58278959D01*
X368207942Y-58297677D01*
X368231223Y-58318777D01*
X368252323Y-58342058D01*
X368271041Y-58367296D01*
X368287194Y-58394246D01*
X368300628Y-58422650D01*
X368311213Y-58452234D01*
X368318848Y-58482713D01*
X368323458Y-58513793D01*
X368325000Y-58545176D01*
X368325000Y-59729824D01*
X368323458Y-59761207D01*
X368318848Y-59792287D01*
X368311213Y-59822766D01*
X368300628Y-59852350D01*
X368287194Y-59880754D01*
X368271041Y-59907704D01*
X368252323Y-59932942D01*
X368231223Y-59956223D01*
X368207942Y-59977323D01*
X368182704Y-59996041D01*
X368155754Y-60012194D01*
X368127350Y-60025628D01*
X368097766Y-60036213D01*
X368067287Y-60043848D01*
X368036207Y-60048458D01*
X368004824Y-60050000D01*
X366495176Y-60050000D01*
X366463793Y-60048458D01*
X366432713Y-60043848D01*
X366402234Y-60036213D01*
X366372650Y-60025628D01*
X366344246Y-60012194D01*
X366317296Y-59996041D01*
X366292058Y-59977323D01*
X366268777Y-59956223D01*
X366247677Y-59932942D01*
X366228959Y-59907704D01*
X366212806Y-59880754D01*
X366199372Y-59852350D01*
X366188787Y-59822766D01*
X366181152Y-59792287D01*
X366176542Y-59761207D01*
X366175000Y-59729824D01*
X366175000Y-58545176D01*
X366176542Y-58513793D01*
X366181152Y-58482713D01*
X366188787Y-58452234D01*
X366199372Y-58422650D01*
X366212806Y-58394246D01*
X366228959Y-58367296D01*
X366247677Y-58342058D01*
X366268777Y-58318777D01*
X366292058Y-58297677D01*
X366317296Y-58278959D01*
X366344246Y-58262806D01*
X366372650Y-58249372D01*
X366402234Y-58238787D01*
X366432713Y-58231152D01*
X366463793Y-58226542D01*
X366495176Y-58225000D01*
X368004824Y-58225000D01*
X368036207Y-58226542D01*
X368036207Y-58226542D01*
G37*
D16*
X367250000Y-59137500D03*
G04 #@! TD*
D15*
G04 #@! TO.C,D47*
G36*
X375406207Y-55291542D02*
X375437287Y-55296152D01*
X375467766Y-55303787D01*
X375497350Y-55314372D01*
X375525754Y-55327806D01*
X375552704Y-55343959D01*
X375577942Y-55362677D01*
X375601223Y-55383777D01*
X375622323Y-55407058D01*
X375641041Y-55432296D01*
X375657194Y-55459246D01*
X375670628Y-55487650D01*
X375681213Y-55517234D01*
X375688848Y-55547713D01*
X375693458Y-55578793D01*
X375695000Y-55610176D01*
X375695000Y-56794824D01*
X375693458Y-56826207D01*
X375688848Y-56857287D01*
X375681213Y-56887766D01*
X375670628Y-56917350D01*
X375657194Y-56945754D01*
X375641041Y-56972704D01*
X375622323Y-56997942D01*
X375601223Y-57021223D01*
X375577942Y-57042323D01*
X375552704Y-57061041D01*
X375525754Y-57077194D01*
X375497350Y-57090628D01*
X375467766Y-57101213D01*
X375437287Y-57108848D01*
X375406207Y-57113458D01*
X375374824Y-57115000D01*
X373865176Y-57115000D01*
X373833793Y-57113458D01*
X373802713Y-57108848D01*
X373772234Y-57101213D01*
X373742650Y-57090628D01*
X373714246Y-57077194D01*
X373687296Y-57061041D01*
X373662058Y-57042323D01*
X373638777Y-57021223D01*
X373617677Y-56997942D01*
X373598959Y-56972704D01*
X373582806Y-56945754D01*
X373569372Y-56917350D01*
X373558787Y-56887766D01*
X373551152Y-56857287D01*
X373546542Y-56826207D01*
X373545000Y-56794824D01*
X373545000Y-55610176D01*
X373546542Y-55578793D01*
X373551152Y-55547713D01*
X373558787Y-55517234D01*
X373569372Y-55487650D01*
X373582806Y-55459246D01*
X373598959Y-55432296D01*
X373617677Y-55407058D01*
X373638777Y-55383777D01*
X373662058Y-55362677D01*
X373687296Y-55343959D01*
X373714246Y-55327806D01*
X373742650Y-55314372D01*
X373772234Y-55303787D01*
X373802713Y-55296152D01*
X373833793Y-55291542D01*
X373865176Y-55290000D01*
X375374824Y-55290000D01*
X375406207Y-55291542D01*
X375406207Y-55291542D01*
G37*
D16*
X374620000Y-56202500D03*
D15*
G36*
X375406207Y-58266542D02*
X375437287Y-58271152D01*
X375467766Y-58278787D01*
X375497350Y-58289372D01*
X375525754Y-58302806D01*
X375552704Y-58318959D01*
X375577942Y-58337677D01*
X375601223Y-58358777D01*
X375622323Y-58382058D01*
X375641041Y-58407296D01*
X375657194Y-58434246D01*
X375670628Y-58462650D01*
X375681213Y-58492234D01*
X375688848Y-58522713D01*
X375693458Y-58553793D01*
X375695000Y-58585176D01*
X375695000Y-59769824D01*
X375693458Y-59801207D01*
X375688848Y-59832287D01*
X375681213Y-59862766D01*
X375670628Y-59892350D01*
X375657194Y-59920754D01*
X375641041Y-59947704D01*
X375622323Y-59972942D01*
X375601223Y-59996223D01*
X375577942Y-60017323D01*
X375552704Y-60036041D01*
X375525754Y-60052194D01*
X375497350Y-60065628D01*
X375467766Y-60076213D01*
X375437287Y-60083848D01*
X375406207Y-60088458D01*
X375374824Y-60090000D01*
X373865176Y-60090000D01*
X373833793Y-60088458D01*
X373802713Y-60083848D01*
X373772234Y-60076213D01*
X373742650Y-60065628D01*
X373714246Y-60052194D01*
X373687296Y-60036041D01*
X373662058Y-60017323D01*
X373638777Y-59996223D01*
X373617677Y-59972942D01*
X373598959Y-59947704D01*
X373582806Y-59920754D01*
X373569372Y-59892350D01*
X373558787Y-59862766D01*
X373551152Y-59832287D01*
X373546542Y-59801207D01*
X373545000Y-59769824D01*
X373545000Y-58585176D01*
X373546542Y-58553793D01*
X373551152Y-58522713D01*
X373558787Y-58492234D01*
X373569372Y-58462650D01*
X373582806Y-58434246D01*
X373598959Y-58407296D01*
X373617677Y-58382058D01*
X373638777Y-58358777D01*
X373662058Y-58337677D01*
X373687296Y-58318959D01*
X373714246Y-58302806D01*
X373742650Y-58289372D01*
X373772234Y-58278787D01*
X373802713Y-58271152D01*
X373833793Y-58266542D01*
X373865176Y-58265000D01*
X375374824Y-58265000D01*
X375406207Y-58266542D01*
X375406207Y-58266542D01*
G37*
D16*
X374620000Y-59177500D03*
G04 #@! TD*
D15*
G04 #@! TO.C,D48*
G36*
X239446207Y-74341542D02*
X239477287Y-74346152D01*
X239507766Y-74353787D01*
X239537350Y-74364372D01*
X239565754Y-74377806D01*
X239592704Y-74393959D01*
X239617942Y-74412677D01*
X239641223Y-74433777D01*
X239662323Y-74457058D01*
X239681041Y-74482296D01*
X239697194Y-74509246D01*
X239710628Y-74537650D01*
X239721213Y-74567234D01*
X239728848Y-74597713D01*
X239733458Y-74628793D01*
X239735000Y-74660176D01*
X239735000Y-75844824D01*
X239733458Y-75876207D01*
X239728848Y-75907287D01*
X239721213Y-75937766D01*
X239710628Y-75967350D01*
X239697194Y-75995754D01*
X239681041Y-76022704D01*
X239662323Y-76047942D01*
X239641223Y-76071223D01*
X239617942Y-76092323D01*
X239592704Y-76111041D01*
X239565754Y-76127194D01*
X239537350Y-76140628D01*
X239507766Y-76151213D01*
X239477287Y-76158848D01*
X239446207Y-76163458D01*
X239414824Y-76165000D01*
X237905176Y-76165000D01*
X237873793Y-76163458D01*
X237842713Y-76158848D01*
X237812234Y-76151213D01*
X237782650Y-76140628D01*
X237754246Y-76127194D01*
X237727296Y-76111041D01*
X237702058Y-76092323D01*
X237678777Y-76071223D01*
X237657677Y-76047942D01*
X237638959Y-76022704D01*
X237622806Y-75995754D01*
X237609372Y-75967350D01*
X237598787Y-75937766D01*
X237591152Y-75907287D01*
X237586542Y-75876207D01*
X237585000Y-75844824D01*
X237585000Y-74660176D01*
X237586542Y-74628793D01*
X237591152Y-74597713D01*
X237598787Y-74567234D01*
X237609372Y-74537650D01*
X237622806Y-74509246D01*
X237638959Y-74482296D01*
X237657677Y-74457058D01*
X237678777Y-74433777D01*
X237702058Y-74412677D01*
X237727296Y-74393959D01*
X237754246Y-74377806D01*
X237782650Y-74364372D01*
X237812234Y-74353787D01*
X237842713Y-74346152D01*
X237873793Y-74341542D01*
X237905176Y-74340000D01*
X239414824Y-74340000D01*
X239446207Y-74341542D01*
X239446207Y-74341542D01*
G37*
D16*
X238660000Y-75252500D03*
D15*
G36*
X239446207Y-77316542D02*
X239477287Y-77321152D01*
X239507766Y-77328787D01*
X239537350Y-77339372D01*
X239565754Y-77352806D01*
X239592704Y-77368959D01*
X239617942Y-77387677D01*
X239641223Y-77408777D01*
X239662323Y-77432058D01*
X239681041Y-77457296D01*
X239697194Y-77484246D01*
X239710628Y-77512650D01*
X239721213Y-77542234D01*
X239728848Y-77572713D01*
X239733458Y-77603793D01*
X239735000Y-77635176D01*
X239735000Y-78819824D01*
X239733458Y-78851207D01*
X239728848Y-78882287D01*
X239721213Y-78912766D01*
X239710628Y-78942350D01*
X239697194Y-78970754D01*
X239681041Y-78997704D01*
X239662323Y-79022942D01*
X239641223Y-79046223D01*
X239617942Y-79067323D01*
X239592704Y-79086041D01*
X239565754Y-79102194D01*
X239537350Y-79115628D01*
X239507766Y-79126213D01*
X239477287Y-79133848D01*
X239446207Y-79138458D01*
X239414824Y-79140000D01*
X237905176Y-79140000D01*
X237873793Y-79138458D01*
X237842713Y-79133848D01*
X237812234Y-79126213D01*
X237782650Y-79115628D01*
X237754246Y-79102194D01*
X237727296Y-79086041D01*
X237702058Y-79067323D01*
X237678777Y-79046223D01*
X237657677Y-79022942D01*
X237638959Y-78997704D01*
X237622806Y-78970754D01*
X237609372Y-78942350D01*
X237598787Y-78912766D01*
X237591152Y-78882287D01*
X237586542Y-78851207D01*
X237585000Y-78819824D01*
X237585000Y-77635176D01*
X237586542Y-77603793D01*
X237591152Y-77572713D01*
X237598787Y-77542234D01*
X237609372Y-77512650D01*
X237622806Y-77484246D01*
X237638959Y-77457296D01*
X237657677Y-77432058D01*
X237678777Y-77408777D01*
X237702058Y-77387677D01*
X237727296Y-77368959D01*
X237754246Y-77352806D01*
X237782650Y-77339372D01*
X237812234Y-77328787D01*
X237842713Y-77321152D01*
X237873793Y-77316542D01*
X237905176Y-77315000D01*
X239414824Y-77315000D01*
X239446207Y-77316542D01*
X239446207Y-77316542D01*
G37*
D16*
X238660000Y-78227500D03*
G04 #@! TD*
D15*
G04 #@! TO.C,D49*
G36*
X258496207Y-74341542D02*
X258527287Y-74346152D01*
X258557766Y-74353787D01*
X258587350Y-74364372D01*
X258615754Y-74377806D01*
X258642704Y-74393959D01*
X258667942Y-74412677D01*
X258691223Y-74433777D01*
X258712323Y-74457058D01*
X258731041Y-74482296D01*
X258747194Y-74509246D01*
X258760628Y-74537650D01*
X258771213Y-74567234D01*
X258778848Y-74597713D01*
X258783458Y-74628793D01*
X258785000Y-74660176D01*
X258785000Y-75844824D01*
X258783458Y-75876207D01*
X258778848Y-75907287D01*
X258771213Y-75937766D01*
X258760628Y-75967350D01*
X258747194Y-75995754D01*
X258731041Y-76022704D01*
X258712323Y-76047942D01*
X258691223Y-76071223D01*
X258667942Y-76092323D01*
X258642704Y-76111041D01*
X258615754Y-76127194D01*
X258587350Y-76140628D01*
X258557766Y-76151213D01*
X258527287Y-76158848D01*
X258496207Y-76163458D01*
X258464824Y-76165000D01*
X256955176Y-76165000D01*
X256923793Y-76163458D01*
X256892713Y-76158848D01*
X256862234Y-76151213D01*
X256832650Y-76140628D01*
X256804246Y-76127194D01*
X256777296Y-76111041D01*
X256752058Y-76092323D01*
X256728777Y-76071223D01*
X256707677Y-76047942D01*
X256688959Y-76022704D01*
X256672806Y-75995754D01*
X256659372Y-75967350D01*
X256648787Y-75937766D01*
X256641152Y-75907287D01*
X256636542Y-75876207D01*
X256635000Y-75844824D01*
X256635000Y-74660176D01*
X256636542Y-74628793D01*
X256641152Y-74597713D01*
X256648787Y-74567234D01*
X256659372Y-74537650D01*
X256672806Y-74509246D01*
X256688959Y-74482296D01*
X256707677Y-74457058D01*
X256728777Y-74433777D01*
X256752058Y-74412677D01*
X256777296Y-74393959D01*
X256804246Y-74377806D01*
X256832650Y-74364372D01*
X256862234Y-74353787D01*
X256892713Y-74346152D01*
X256923793Y-74341542D01*
X256955176Y-74340000D01*
X258464824Y-74340000D01*
X258496207Y-74341542D01*
X258496207Y-74341542D01*
G37*
D16*
X257710000Y-75252500D03*
D15*
G36*
X258496207Y-77316542D02*
X258527287Y-77321152D01*
X258557766Y-77328787D01*
X258587350Y-77339372D01*
X258615754Y-77352806D01*
X258642704Y-77368959D01*
X258667942Y-77387677D01*
X258691223Y-77408777D01*
X258712323Y-77432058D01*
X258731041Y-77457296D01*
X258747194Y-77484246D01*
X258760628Y-77512650D01*
X258771213Y-77542234D01*
X258778848Y-77572713D01*
X258783458Y-77603793D01*
X258785000Y-77635176D01*
X258785000Y-78819824D01*
X258783458Y-78851207D01*
X258778848Y-78882287D01*
X258771213Y-78912766D01*
X258760628Y-78942350D01*
X258747194Y-78970754D01*
X258731041Y-78997704D01*
X258712323Y-79022942D01*
X258691223Y-79046223D01*
X258667942Y-79067323D01*
X258642704Y-79086041D01*
X258615754Y-79102194D01*
X258587350Y-79115628D01*
X258557766Y-79126213D01*
X258527287Y-79133848D01*
X258496207Y-79138458D01*
X258464824Y-79140000D01*
X256955176Y-79140000D01*
X256923793Y-79138458D01*
X256892713Y-79133848D01*
X256862234Y-79126213D01*
X256832650Y-79115628D01*
X256804246Y-79102194D01*
X256777296Y-79086041D01*
X256752058Y-79067323D01*
X256728777Y-79046223D01*
X256707677Y-79022942D01*
X256688959Y-78997704D01*
X256672806Y-78970754D01*
X256659372Y-78942350D01*
X256648787Y-78912766D01*
X256641152Y-78882287D01*
X256636542Y-78851207D01*
X256635000Y-78819824D01*
X256635000Y-77635176D01*
X256636542Y-77603793D01*
X256641152Y-77572713D01*
X256648787Y-77542234D01*
X256659372Y-77512650D01*
X256672806Y-77484246D01*
X256688959Y-77457296D01*
X256707677Y-77432058D01*
X256728777Y-77408777D01*
X256752058Y-77387677D01*
X256777296Y-77368959D01*
X256804246Y-77352806D01*
X256832650Y-77339372D01*
X256862234Y-77328787D01*
X256892713Y-77321152D01*
X256923793Y-77316542D01*
X256955176Y-77315000D01*
X258464824Y-77315000D01*
X258496207Y-77316542D01*
X258496207Y-77316542D01*
G37*
D16*
X257710000Y-78227500D03*
G04 #@! TD*
D15*
G04 #@! TO.C,D50*
G36*
X277546207Y-74341542D02*
X277577287Y-74346152D01*
X277607766Y-74353787D01*
X277637350Y-74364372D01*
X277665754Y-74377806D01*
X277692704Y-74393959D01*
X277717942Y-74412677D01*
X277741223Y-74433777D01*
X277762323Y-74457058D01*
X277781041Y-74482296D01*
X277797194Y-74509246D01*
X277810628Y-74537650D01*
X277821213Y-74567234D01*
X277828848Y-74597713D01*
X277833458Y-74628793D01*
X277835000Y-74660176D01*
X277835000Y-75844824D01*
X277833458Y-75876207D01*
X277828848Y-75907287D01*
X277821213Y-75937766D01*
X277810628Y-75967350D01*
X277797194Y-75995754D01*
X277781041Y-76022704D01*
X277762323Y-76047942D01*
X277741223Y-76071223D01*
X277717942Y-76092323D01*
X277692704Y-76111041D01*
X277665754Y-76127194D01*
X277637350Y-76140628D01*
X277607766Y-76151213D01*
X277577287Y-76158848D01*
X277546207Y-76163458D01*
X277514824Y-76165000D01*
X276005176Y-76165000D01*
X275973793Y-76163458D01*
X275942713Y-76158848D01*
X275912234Y-76151213D01*
X275882650Y-76140628D01*
X275854246Y-76127194D01*
X275827296Y-76111041D01*
X275802058Y-76092323D01*
X275778777Y-76071223D01*
X275757677Y-76047942D01*
X275738959Y-76022704D01*
X275722806Y-75995754D01*
X275709372Y-75967350D01*
X275698787Y-75937766D01*
X275691152Y-75907287D01*
X275686542Y-75876207D01*
X275685000Y-75844824D01*
X275685000Y-74660176D01*
X275686542Y-74628793D01*
X275691152Y-74597713D01*
X275698787Y-74567234D01*
X275709372Y-74537650D01*
X275722806Y-74509246D01*
X275738959Y-74482296D01*
X275757677Y-74457058D01*
X275778777Y-74433777D01*
X275802058Y-74412677D01*
X275827296Y-74393959D01*
X275854246Y-74377806D01*
X275882650Y-74364372D01*
X275912234Y-74353787D01*
X275942713Y-74346152D01*
X275973793Y-74341542D01*
X276005176Y-74340000D01*
X277514824Y-74340000D01*
X277546207Y-74341542D01*
X277546207Y-74341542D01*
G37*
D16*
X276760000Y-75252500D03*
D15*
G36*
X277546207Y-77316542D02*
X277577287Y-77321152D01*
X277607766Y-77328787D01*
X277637350Y-77339372D01*
X277665754Y-77352806D01*
X277692704Y-77368959D01*
X277717942Y-77387677D01*
X277741223Y-77408777D01*
X277762323Y-77432058D01*
X277781041Y-77457296D01*
X277797194Y-77484246D01*
X277810628Y-77512650D01*
X277821213Y-77542234D01*
X277828848Y-77572713D01*
X277833458Y-77603793D01*
X277835000Y-77635176D01*
X277835000Y-78819824D01*
X277833458Y-78851207D01*
X277828848Y-78882287D01*
X277821213Y-78912766D01*
X277810628Y-78942350D01*
X277797194Y-78970754D01*
X277781041Y-78997704D01*
X277762323Y-79022942D01*
X277741223Y-79046223D01*
X277717942Y-79067323D01*
X277692704Y-79086041D01*
X277665754Y-79102194D01*
X277637350Y-79115628D01*
X277607766Y-79126213D01*
X277577287Y-79133848D01*
X277546207Y-79138458D01*
X277514824Y-79140000D01*
X276005176Y-79140000D01*
X275973793Y-79138458D01*
X275942713Y-79133848D01*
X275912234Y-79126213D01*
X275882650Y-79115628D01*
X275854246Y-79102194D01*
X275827296Y-79086041D01*
X275802058Y-79067323D01*
X275778777Y-79046223D01*
X275757677Y-79022942D01*
X275738959Y-78997704D01*
X275722806Y-78970754D01*
X275709372Y-78942350D01*
X275698787Y-78912766D01*
X275691152Y-78882287D01*
X275686542Y-78851207D01*
X275685000Y-78819824D01*
X275685000Y-77635176D01*
X275686542Y-77603793D01*
X275691152Y-77572713D01*
X275698787Y-77542234D01*
X275709372Y-77512650D01*
X275722806Y-77484246D01*
X275738959Y-77457296D01*
X275757677Y-77432058D01*
X275778777Y-77408777D01*
X275802058Y-77387677D01*
X275827296Y-77368959D01*
X275854246Y-77352806D01*
X275882650Y-77339372D01*
X275912234Y-77328787D01*
X275942713Y-77321152D01*
X275973793Y-77316542D01*
X276005176Y-77315000D01*
X277514824Y-77315000D01*
X277546207Y-77316542D01*
X277546207Y-77316542D01*
G37*
D16*
X276760000Y-78227500D03*
G04 #@! TD*
D15*
G04 #@! TO.C,D51*
G36*
X296596207Y-74341542D02*
X296627287Y-74346152D01*
X296657766Y-74353787D01*
X296687350Y-74364372D01*
X296715754Y-74377806D01*
X296742704Y-74393959D01*
X296767942Y-74412677D01*
X296791223Y-74433777D01*
X296812323Y-74457058D01*
X296831041Y-74482296D01*
X296847194Y-74509246D01*
X296860628Y-74537650D01*
X296871213Y-74567234D01*
X296878848Y-74597713D01*
X296883458Y-74628793D01*
X296885000Y-74660176D01*
X296885000Y-75844824D01*
X296883458Y-75876207D01*
X296878848Y-75907287D01*
X296871213Y-75937766D01*
X296860628Y-75967350D01*
X296847194Y-75995754D01*
X296831041Y-76022704D01*
X296812323Y-76047942D01*
X296791223Y-76071223D01*
X296767942Y-76092323D01*
X296742704Y-76111041D01*
X296715754Y-76127194D01*
X296687350Y-76140628D01*
X296657766Y-76151213D01*
X296627287Y-76158848D01*
X296596207Y-76163458D01*
X296564824Y-76165000D01*
X295055176Y-76165000D01*
X295023793Y-76163458D01*
X294992713Y-76158848D01*
X294962234Y-76151213D01*
X294932650Y-76140628D01*
X294904246Y-76127194D01*
X294877296Y-76111041D01*
X294852058Y-76092323D01*
X294828777Y-76071223D01*
X294807677Y-76047942D01*
X294788959Y-76022704D01*
X294772806Y-75995754D01*
X294759372Y-75967350D01*
X294748787Y-75937766D01*
X294741152Y-75907287D01*
X294736542Y-75876207D01*
X294735000Y-75844824D01*
X294735000Y-74660176D01*
X294736542Y-74628793D01*
X294741152Y-74597713D01*
X294748787Y-74567234D01*
X294759372Y-74537650D01*
X294772806Y-74509246D01*
X294788959Y-74482296D01*
X294807677Y-74457058D01*
X294828777Y-74433777D01*
X294852058Y-74412677D01*
X294877296Y-74393959D01*
X294904246Y-74377806D01*
X294932650Y-74364372D01*
X294962234Y-74353787D01*
X294992713Y-74346152D01*
X295023793Y-74341542D01*
X295055176Y-74340000D01*
X296564824Y-74340000D01*
X296596207Y-74341542D01*
X296596207Y-74341542D01*
G37*
D16*
X295810000Y-75252500D03*
D15*
G36*
X296596207Y-77316542D02*
X296627287Y-77321152D01*
X296657766Y-77328787D01*
X296687350Y-77339372D01*
X296715754Y-77352806D01*
X296742704Y-77368959D01*
X296767942Y-77387677D01*
X296791223Y-77408777D01*
X296812323Y-77432058D01*
X296831041Y-77457296D01*
X296847194Y-77484246D01*
X296860628Y-77512650D01*
X296871213Y-77542234D01*
X296878848Y-77572713D01*
X296883458Y-77603793D01*
X296885000Y-77635176D01*
X296885000Y-78819824D01*
X296883458Y-78851207D01*
X296878848Y-78882287D01*
X296871213Y-78912766D01*
X296860628Y-78942350D01*
X296847194Y-78970754D01*
X296831041Y-78997704D01*
X296812323Y-79022942D01*
X296791223Y-79046223D01*
X296767942Y-79067323D01*
X296742704Y-79086041D01*
X296715754Y-79102194D01*
X296687350Y-79115628D01*
X296657766Y-79126213D01*
X296627287Y-79133848D01*
X296596207Y-79138458D01*
X296564824Y-79140000D01*
X295055176Y-79140000D01*
X295023793Y-79138458D01*
X294992713Y-79133848D01*
X294962234Y-79126213D01*
X294932650Y-79115628D01*
X294904246Y-79102194D01*
X294877296Y-79086041D01*
X294852058Y-79067323D01*
X294828777Y-79046223D01*
X294807677Y-79022942D01*
X294788959Y-78997704D01*
X294772806Y-78970754D01*
X294759372Y-78942350D01*
X294748787Y-78912766D01*
X294741152Y-78882287D01*
X294736542Y-78851207D01*
X294735000Y-78819824D01*
X294735000Y-77635176D01*
X294736542Y-77603793D01*
X294741152Y-77572713D01*
X294748787Y-77542234D01*
X294759372Y-77512650D01*
X294772806Y-77484246D01*
X294788959Y-77457296D01*
X294807677Y-77432058D01*
X294828777Y-77408777D01*
X294852058Y-77387677D01*
X294877296Y-77368959D01*
X294904246Y-77352806D01*
X294932650Y-77339372D01*
X294962234Y-77328787D01*
X294992713Y-77321152D01*
X295023793Y-77316542D01*
X295055176Y-77315000D01*
X296564824Y-77315000D01*
X296596207Y-77316542D01*
X296596207Y-77316542D01*
G37*
D16*
X295810000Y-78227500D03*
G04 #@! TD*
D15*
G04 #@! TO.C,D52*
G36*
X315646207Y-74341542D02*
X315677287Y-74346152D01*
X315707766Y-74353787D01*
X315737350Y-74364372D01*
X315765754Y-74377806D01*
X315792704Y-74393959D01*
X315817942Y-74412677D01*
X315841223Y-74433777D01*
X315862323Y-74457058D01*
X315881041Y-74482296D01*
X315897194Y-74509246D01*
X315910628Y-74537650D01*
X315921213Y-74567234D01*
X315928848Y-74597713D01*
X315933458Y-74628793D01*
X315935000Y-74660176D01*
X315935000Y-75844824D01*
X315933458Y-75876207D01*
X315928848Y-75907287D01*
X315921213Y-75937766D01*
X315910628Y-75967350D01*
X315897194Y-75995754D01*
X315881041Y-76022704D01*
X315862323Y-76047942D01*
X315841223Y-76071223D01*
X315817942Y-76092323D01*
X315792704Y-76111041D01*
X315765754Y-76127194D01*
X315737350Y-76140628D01*
X315707766Y-76151213D01*
X315677287Y-76158848D01*
X315646207Y-76163458D01*
X315614824Y-76165000D01*
X314105176Y-76165000D01*
X314073793Y-76163458D01*
X314042713Y-76158848D01*
X314012234Y-76151213D01*
X313982650Y-76140628D01*
X313954246Y-76127194D01*
X313927296Y-76111041D01*
X313902058Y-76092323D01*
X313878777Y-76071223D01*
X313857677Y-76047942D01*
X313838959Y-76022704D01*
X313822806Y-75995754D01*
X313809372Y-75967350D01*
X313798787Y-75937766D01*
X313791152Y-75907287D01*
X313786542Y-75876207D01*
X313785000Y-75844824D01*
X313785000Y-74660176D01*
X313786542Y-74628793D01*
X313791152Y-74597713D01*
X313798787Y-74567234D01*
X313809372Y-74537650D01*
X313822806Y-74509246D01*
X313838959Y-74482296D01*
X313857677Y-74457058D01*
X313878777Y-74433777D01*
X313902058Y-74412677D01*
X313927296Y-74393959D01*
X313954246Y-74377806D01*
X313982650Y-74364372D01*
X314012234Y-74353787D01*
X314042713Y-74346152D01*
X314073793Y-74341542D01*
X314105176Y-74340000D01*
X315614824Y-74340000D01*
X315646207Y-74341542D01*
X315646207Y-74341542D01*
G37*
D16*
X314860000Y-75252500D03*
D15*
G36*
X315646207Y-77316542D02*
X315677287Y-77321152D01*
X315707766Y-77328787D01*
X315737350Y-77339372D01*
X315765754Y-77352806D01*
X315792704Y-77368959D01*
X315817942Y-77387677D01*
X315841223Y-77408777D01*
X315862323Y-77432058D01*
X315881041Y-77457296D01*
X315897194Y-77484246D01*
X315910628Y-77512650D01*
X315921213Y-77542234D01*
X315928848Y-77572713D01*
X315933458Y-77603793D01*
X315935000Y-77635176D01*
X315935000Y-78819824D01*
X315933458Y-78851207D01*
X315928848Y-78882287D01*
X315921213Y-78912766D01*
X315910628Y-78942350D01*
X315897194Y-78970754D01*
X315881041Y-78997704D01*
X315862323Y-79022942D01*
X315841223Y-79046223D01*
X315817942Y-79067323D01*
X315792704Y-79086041D01*
X315765754Y-79102194D01*
X315737350Y-79115628D01*
X315707766Y-79126213D01*
X315677287Y-79133848D01*
X315646207Y-79138458D01*
X315614824Y-79140000D01*
X314105176Y-79140000D01*
X314073793Y-79138458D01*
X314042713Y-79133848D01*
X314012234Y-79126213D01*
X313982650Y-79115628D01*
X313954246Y-79102194D01*
X313927296Y-79086041D01*
X313902058Y-79067323D01*
X313878777Y-79046223D01*
X313857677Y-79022942D01*
X313838959Y-78997704D01*
X313822806Y-78970754D01*
X313809372Y-78942350D01*
X313798787Y-78912766D01*
X313791152Y-78882287D01*
X313786542Y-78851207D01*
X313785000Y-78819824D01*
X313785000Y-77635176D01*
X313786542Y-77603793D01*
X313791152Y-77572713D01*
X313798787Y-77542234D01*
X313809372Y-77512650D01*
X313822806Y-77484246D01*
X313838959Y-77457296D01*
X313857677Y-77432058D01*
X313878777Y-77408777D01*
X313902058Y-77387677D01*
X313927296Y-77368959D01*
X313954246Y-77352806D01*
X313982650Y-77339372D01*
X314012234Y-77328787D01*
X314042713Y-77321152D01*
X314073793Y-77316542D01*
X314105176Y-77315000D01*
X315614824Y-77315000D01*
X315646207Y-77316542D01*
X315646207Y-77316542D01*
G37*
D16*
X314860000Y-78227500D03*
G04 #@! TD*
D15*
G04 #@! TO.C,D53*
G36*
X334696207Y-74341542D02*
X334727287Y-74346152D01*
X334757766Y-74353787D01*
X334787350Y-74364372D01*
X334815754Y-74377806D01*
X334842704Y-74393959D01*
X334867942Y-74412677D01*
X334891223Y-74433777D01*
X334912323Y-74457058D01*
X334931041Y-74482296D01*
X334947194Y-74509246D01*
X334960628Y-74537650D01*
X334971213Y-74567234D01*
X334978848Y-74597713D01*
X334983458Y-74628793D01*
X334985000Y-74660176D01*
X334985000Y-75844824D01*
X334983458Y-75876207D01*
X334978848Y-75907287D01*
X334971213Y-75937766D01*
X334960628Y-75967350D01*
X334947194Y-75995754D01*
X334931041Y-76022704D01*
X334912323Y-76047942D01*
X334891223Y-76071223D01*
X334867942Y-76092323D01*
X334842704Y-76111041D01*
X334815754Y-76127194D01*
X334787350Y-76140628D01*
X334757766Y-76151213D01*
X334727287Y-76158848D01*
X334696207Y-76163458D01*
X334664824Y-76165000D01*
X333155176Y-76165000D01*
X333123793Y-76163458D01*
X333092713Y-76158848D01*
X333062234Y-76151213D01*
X333032650Y-76140628D01*
X333004246Y-76127194D01*
X332977296Y-76111041D01*
X332952058Y-76092323D01*
X332928777Y-76071223D01*
X332907677Y-76047942D01*
X332888959Y-76022704D01*
X332872806Y-75995754D01*
X332859372Y-75967350D01*
X332848787Y-75937766D01*
X332841152Y-75907287D01*
X332836542Y-75876207D01*
X332835000Y-75844824D01*
X332835000Y-74660176D01*
X332836542Y-74628793D01*
X332841152Y-74597713D01*
X332848787Y-74567234D01*
X332859372Y-74537650D01*
X332872806Y-74509246D01*
X332888959Y-74482296D01*
X332907677Y-74457058D01*
X332928777Y-74433777D01*
X332952058Y-74412677D01*
X332977296Y-74393959D01*
X333004246Y-74377806D01*
X333032650Y-74364372D01*
X333062234Y-74353787D01*
X333092713Y-74346152D01*
X333123793Y-74341542D01*
X333155176Y-74340000D01*
X334664824Y-74340000D01*
X334696207Y-74341542D01*
X334696207Y-74341542D01*
G37*
D16*
X333910000Y-75252500D03*
D15*
G36*
X334696207Y-77316542D02*
X334727287Y-77321152D01*
X334757766Y-77328787D01*
X334787350Y-77339372D01*
X334815754Y-77352806D01*
X334842704Y-77368959D01*
X334867942Y-77387677D01*
X334891223Y-77408777D01*
X334912323Y-77432058D01*
X334931041Y-77457296D01*
X334947194Y-77484246D01*
X334960628Y-77512650D01*
X334971213Y-77542234D01*
X334978848Y-77572713D01*
X334983458Y-77603793D01*
X334985000Y-77635176D01*
X334985000Y-78819824D01*
X334983458Y-78851207D01*
X334978848Y-78882287D01*
X334971213Y-78912766D01*
X334960628Y-78942350D01*
X334947194Y-78970754D01*
X334931041Y-78997704D01*
X334912323Y-79022942D01*
X334891223Y-79046223D01*
X334867942Y-79067323D01*
X334842704Y-79086041D01*
X334815754Y-79102194D01*
X334787350Y-79115628D01*
X334757766Y-79126213D01*
X334727287Y-79133848D01*
X334696207Y-79138458D01*
X334664824Y-79140000D01*
X333155176Y-79140000D01*
X333123793Y-79138458D01*
X333092713Y-79133848D01*
X333062234Y-79126213D01*
X333032650Y-79115628D01*
X333004246Y-79102194D01*
X332977296Y-79086041D01*
X332952058Y-79067323D01*
X332928777Y-79046223D01*
X332907677Y-79022942D01*
X332888959Y-78997704D01*
X332872806Y-78970754D01*
X332859372Y-78942350D01*
X332848787Y-78912766D01*
X332841152Y-78882287D01*
X332836542Y-78851207D01*
X332835000Y-78819824D01*
X332835000Y-77635176D01*
X332836542Y-77603793D01*
X332841152Y-77572713D01*
X332848787Y-77542234D01*
X332859372Y-77512650D01*
X332872806Y-77484246D01*
X332888959Y-77457296D01*
X332907677Y-77432058D01*
X332928777Y-77408777D01*
X332952058Y-77387677D01*
X332977296Y-77368959D01*
X333004246Y-77352806D01*
X333032650Y-77339372D01*
X333062234Y-77328787D01*
X333092713Y-77321152D01*
X333123793Y-77316542D01*
X333155176Y-77315000D01*
X334664824Y-77315000D01*
X334696207Y-77316542D01*
X334696207Y-77316542D01*
G37*
D16*
X333910000Y-78227500D03*
G04 #@! TD*
D15*
G04 #@! TO.C,D54*
G36*
X349196207Y-74341542D02*
X349227287Y-74346152D01*
X349257766Y-74353787D01*
X349287350Y-74364372D01*
X349315754Y-74377806D01*
X349342704Y-74393959D01*
X349367942Y-74412677D01*
X349391223Y-74433777D01*
X349412323Y-74457058D01*
X349431041Y-74482296D01*
X349447194Y-74509246D01*
X349460628Y-74537650D01*
X349471213Y-74567234D01*
X349478848Y-74597713D01*
X349483458Y-74628793D01*
X349485000Y-74660176D01*
X349485000Y-75844824D01*
X349483458Y-75876207D01*
X349478848Y-75907287D01*
X349471213Y-75937766D01*
X349460628Y-75967350D01*
X349447194Y-75995754D01*
X349431041Y-76022704D01*
X349412323Y-76047942D01*
X349391223Y-76071223D01*
X349367942Y-76092323D01*
X349342704Y-76111041D01*
X349315754Y-76127194D01*
X349287350Y-76140628D01*
X349257766Y-76151213D01*
X349227287Y-76158848D01*
X349196207Y-76163458D01*
X349164824Y-76165000D01*
X347655176Y-76165000D01*
X347623793Y-76163458D01*
X347592713Y-76158848D01*
X347562234Y-76151213D01*
X347532650Y-76140628D01*
X347504246Y-76127194D01*
X347477296Y-76111041D01*
X347452058Y-76092323D01*
X347428777Y-76071223D01*
X347407677Y-76047942D01*
X347388959Y-76022704D01*
X347372806Y-75995754D01*
X347359372Y-75967350D01*
X347348787Y-75937766D01*
X347341152Y-75907287D01*
X347336542Y-75876207D01*
X347335000Y-75844824D01*
X347335000Y-74660176D01*
X347336542Y-74628793D01*
X347341152Y-74597713D01*
X347348787Y-74567234D01*
X347359372Y-74537650D01*
X347372806Y-74509246D01*
X347388959Y-74482296D01*
X347407677Y-74457058D01*
X347428777Y-74433777D01*
X347452058Y-74412677D01*
X347477296Y-74393959D01*
X347504246Y-74377806D01*
X347532650Y-74364372D01*
X347562234Y-74353787D01*
X347592713Y-74346152D01*
X347623793Y-74341542D01*
X347655176Y-74340000D01*
X349164824Y-74340000D01*
X349196207Y-74341542D01*
X349196207Y-74341542D01*
G37*
D16*
X348410000Y-75252500D03*
D15*
G36*
X349196207Y-77316542D02*
X349227287Y-77321152D01*
X349257766Y-77328787D01*
X349287350Y-77339372D01*
X349315754Y-77352806D01*
X349342704Y-77368959D01*
X349367942Y-77387677D01*
X349391223Y-77408777D01*
X349412323Y-77432058D01*
X349431041Y-77457296D01*
X349447194Y-77484246D01*
X349460628Y-77512650D01*
X349471213Y-77542234D01*
X349478848Y-77572713D01*
X349483458Y-77603793D01*
X349485000Y-77635176D01*
X349485000Y-78819824D01*
X349483458Y-78851207D01*
X349478848Y-78882287D01*
X349471213Y-78912766D01*
X349460628Y-78942350D01*
X349447194Y-78970754D01*
X349431041Y-78997704D01*
X349412323Y-79022942D01*
X349391223Y-79046223D01*
X349367942Y-79067323D01*
X349342704Y-79086041D01*
X349315754Y-79102194D01*
X349287350Y-79115628D01*
X349257766Y-79126213D01*
X349227287Y-79133848D01*
X349196207Y-79138458D01*
X349164824Y-79140000D01*
X347655176Y-79140000D01*
X347623793Y-79138458D01*
X347592713Y-79133848D01*
X347562234Y-79126213D01*
X347532650Y-79115628D01*
X347504246Y-79102194D01*
X347477296Y-79086041D01*
X347452058Y-79067323D01*
X347428777Y-79046223D01*
X347407677Y-79022942D01*
X347388959Y-78997704D01*
X347372806Y-78970754D01*
X347359372Y-78942350D01*
X347348787Y-78912766D01*
X347341152Y-78882287D01*
X347336542Y-78851207D01*
X347335000Y-78819824D01*
X347335000Y-77635176D01*
X347336542Y-77603793D01*
X347341152Y-77572713D01*
X347348787Y-77542234D01*
X347359372Y-77512650D01*
X347372806Y-77484246D01*
X347388959Y-77457296D01*
X347407677Y-77432058D01*
X347428777Y-77408777D01*
X347452058Y-77387677D01*
X347477296Y-77368959D01*
X347504246Y-77352806D01*
X347532650Y-77339372D01*
X347562234Y-77328787D01*
X347592713Y-77321152D01*
X347623793Y-77316542D01*
X347655176Y-77315000D01*
X349164824Y-77315000D01*
X349196207Y-77316542D01*
X349196207Y-77316542D01*
G37*
D16*
X348410000Y-78227500D03*
G04 #@! TD*
D15*
G04 #@! TO.C,D55*
G36*
X368626207Y-83021542D02*
X368657287Y-83026152D01*
X368687766Y-83033787D01*
X368717350Y-83044372D01*
X368745754Y-83057806D01*
X368772704Y-83073959D01*
X368797942Y-83092677D01*
X368821223Y-83113777D01*
X368842323Y-83137058D01*
X368861041Y-83162296D01*
X368877194Y-83189246D01*
X368890628Y-83217650D01*
X368901213Y-83247234D01*
X368908848Y-83277713D01*
X368913458Y-83308793D01*
X368915000Y-83340176D01*
X368915000Y-84524824D01*
X368913458Y-84556207D01*
X368908848Y-84587287D01*
X368901213Y-84617766D01*
X368890628Y-84647350D01*
X368877194Y-84675754D01*
X368861041Y-84702704D01*
X368842323Y-84727942D01*
X368821223Y-84751223D01*
X368797942Y-84772323D01*
X368772704Y-84791041D01*
X368745754Y-84807194D01*
X368717350Y-84820628D01*
X368687766Y-84831213D01*
X368657287Y-84838848D01*
X368626207Y-84843458D01*
X368594824Y-84845000D01*
X367085176Y-84845000D01*
X367053793Y-84843458D01*
X367022713Y-84838848D01*
X366992234Y-84831213D01*
X366962650Y-84820628D01*
X366934246Y-84807194D01*
X366907296Y-84791041D01*
X366882058Y-84772323D01*
X366858777Y-84751223D01*
X366837677Y-84727942D01*
X366818959Y-84702704D01*
X366802806Y-84675754D01*
X366789372Y-84647350D01*
X366778787Y-84617766D01*
X366771152Y-84587287D01*
X366766542Y-84556207D01*
X366765000Y-84524824D01*
X366765000Y-83340176D01*
X366766542Y-83308793D01*
X366771152Y-83277713D01*
X366778787Y-83247234D01*
X366789372Y-83217650D01*
X366802806Y-83189246D01*
X366818959Y-83162296D01*
X366837677Y-83137058D01*
X366858777Y-83113777D01*
X366882058Y-83092677D01*
X366907296Y-83073959D01*
X366934246Y-83057806D01*
X366962650Y-83044372D01*
X366992234Y-83033787D01*
X367022713Y-83026152D01*
X367053793Y-83021542D01*
X367085176Y-83020000D01*
X368594824Y-83020000D01*
X368626207Y-83021542D01*
X368626207Y-83021542D01*
G37*
D16*
X367840000Y-83932500D03*
D15*
G36*
X368626207Y-85996542D02*
X368657287Y-86001152D01*
X368687766Y-86008787D01*
X368717350Y-86019372D01*
X368745754Y-86032806D01*
X368772704Y-86048959D01*
X368797942Y-86067677D01*
X368821223Y-86088777D01*
X368842323Y-86112058D01*
X368861041Y-86137296D01*
X368877194Y-86164246D01*
X368890628Y-86192650D01*
X368901213Y-86222234D01*
X368908848Y-86252713D01*
X368913458Y-86283793D01*
X368915000Y-86315176D01*
X368915000Y-87499824D01*
X368913458Y-87531207D01*
X368908848Y-87562287D01*
X368901213Y-87592766D01*
X368890628Y-87622350D01*
X368877194Y-87650754D01*
X368861041Y-87677704D01*
X368842323Y-87702942D01*
X368821223Y-87726223D01*
X368797942Y-87747323D01*
X368772704Y-87766041D01*
X368745754Y-87782194D01*
X368717350Y-87795628D01*
X368687766Y-87806213D01*
X368657287Y-87813848D01*
X368626207Y-87818458D01*
X368594824Y-87820000D01*
X367085176Y-87820000D01*
X367053793Y-87818458D01*
X367022713Y-87813848D01*
X366992234Y-87806213D01*
X366962650Y-87795628D01*
X366934246Y-87782194D01*
X366907296Y-87766041D01*
X366882058Y-87747323D01*
X366858777Y-87726223D01*
X366837677Y-87702942D01*
X366818959Y-87677704D01*
X366802806Y-87650754D01*
X366789372Y-87622350D01*
X366778787Y-87592766D01*
X366771152Y-87562287D01*
X366766542Y-87531207D01*
X366765000Y-87499824D01*
X366765000Y-86315176D01*
X366766542Y-86283793D01*
X366771152Y-86252713D01*
X366778787Y-86222234D01*
X366789372Y-86192650D01*
X366802806Y-86164246D01*
X366818959Y-86137296D01*
X366837677Y-86112058D01*
X366858777Y-86088777D01*
X366882058Y-86067677D01*
X366907296Y-86048959D01*
X366934246Y-86032806D01*
X366962650Y-86019372D01*
X366992234Y-86008787D01*
X367022713Y-86001152D01*
X367053793Y-85996542D01*
X367085176Y-85995000D01*
X368594824Y-85995000D01*
X368626207Y-85996542D01*
X368626207Y-85996542D01*
G37*
D16*
X367840000Y-86907500D03*
G04 #@! TD*
D15*
G04 #@! TO.C,D56*
G36*
X229936207Y-93361542D02*
X229967287Y-93366152D01*
X229997766Y-93373787D01*
X230027350Y-93384372D01*
X230055754Y-93397806D01*
X230082704Y-93413959D01*
X230107942Y-93432677D01*
X230131223Y-93453777D01*
X230152323Y-93477058D01*
X230171041Y-93502296D01*
X230187194Y-93529246D01*
X230200628Y-93557650D01*
X230211213Y-93587234D01*
X230218848Y-93617713D01*
X230223458Y-93648793D01*
X230225000Y-93680176D01*
X230225000Y-94864824D01*
X230223458Y-94896207D01*
X230218848Y-94927287D01*
X230211213Y-94957766D01*
X230200628Y-94987350D01*
X230187194Y-95015754D01*
X230171041Y-95042704D01*
X230152323Y-95067942D01*
X230131223Y-95091223D01*
X230107942Y-95112323D01*
X230082704Y-95131041D01*
X230055754Y-95147194D01*
X230027350Y-95160628D01*
X229997766Y-95171213D01*
X229967287Y-95178848D01*
X229936207Y-95183458D01*
X229904824Y-95185000D01*
X228395176Y-95185000D01*
X228363793Y-95183458D01*
X228332713Y-95178848D01*
X228302234Y-95171213D01*
X228272650Y-95160628D01*
X228244246Y-95147194D01*
X228217296Y-95131041D01*
X228192058Y-95112323D01*
X228168777Y-95091223D01*
X228147677Y-95067942D01*
X228128959Y-95042704D01*
X228112806Y-95015754D01*
X228099372Y-94987350D01*
X228088787Y-94957766D01*
X228081152Y-94927287D01*
X228076542Y-94896207D01*
X228075000Y-94864824D01*
X228075000Y-93680176D01*
X228076542Y-93648793D01*
X228081152Y-93617713D01*
X228088787Y-93587234D01*
X228099372Y-93557650D01*
X228112806Y-93529246D01*
X228128959Y-93502296D01*
X228147677Y-93477058D01*
X228168777Y-93453777D01*
X228192058Y-93432677D01*
X228217296Y-93413959D01*
X228244246Y-93397806D01*
X228272650Y-93384372D01*
X228302234Y-93373787D01*
X228332713Y-93366152D01*
X228363793Y-93361542D01*
X228395176Y-93360000D01*
X229904824Y-93360000D01*
X229936207Y-93361542D01*
X229936207Y-93361542D01*
G37*
D16*
X229150000Y-94272500D03*
D15*
G36*
X229936207Y-96336542D02*
X229967287Y-96341152D01*
X229997766Y-96348787D01*
X230027350Y-96359372D01*
X230055754Y-96372806D01*
X230082704Y-96388959D01*
X230107942Y-96407677D01*
X230131223Y-96428777D01*
X230152323Y-96452058D01*
X230171041Y-96477296D01*
X230187194Y-96504246D01*
X230200628Y-96532650D01*
X230211213Y-96562234D01*
X230218848Y-96592713D01*
X230223458Y-96623793D01*
X230225000Y-96655176D01*
X230225000Y-97839824D01*
X230223458Y-97871207D01*
X230218848Y-97902287D01*
X230211213Y-97932766D01*
X230200628Y-97962350D01*
X230187194Y-97990754D01*
X230171041Y-98017704D01*
X230152323Y-98042942D01*
X230131223Y-98066223D01*
X230107942Y-98087323D01*
X230082704Y-98106041D01*
X230055754Y-98122194D01*
X230027350Y-98135628D01*
X229997766Y-98146213D01*
X229967287Y-98153848D01*
X229936207Y-98158458D01*
X229904824Y-98160000D01*
X228395176Y-98160000D01*
X228363793Y-98158458D01*
X228332713Y-98153848D01*
X228302234Y-98146213D01*
X228272650Y-98135628D01*
X228244246Y-98122194D01*
X228217296Y-98106041D01*
X228192058Y-98087323D01*
X228168777Y-98066223D01*
X228147677Y-98042942D01*
X228128959Y-98017704D01*
X228112806Y-97990754D01*
X228099372Y-97962350D01*
X228088787Y-97932766D01*
X228081152Y-97902287D01*
X228076542Y-97871207D01*
X228075000Y-97839824D01*
X228075000Y-96655176D01*
X228076542Y-96623793D01*
X228081152Y-96592713D01*
X228088787Y-96562234D01*
X228099372Y-96532650D01*
X228112806Y-96504246D01*
X228128959Y-96477296D01*
X228147677Y-96452058D01*
X228168777Y-96428777D01*
X228192058Y-96407677D01*
X228217296Y-96388959D01*
X228244246Y-96372806D01*
X228272650Y-96359372D01*
X228302234Y-96348787D01*
X228332713Y-96341152D01*
X228363793Y-96336542D01*
X228395176Y-96335000D01*
X229904824Y-96335000D01*
X229936207Y-96336542D01*
X229936207Y-96336542D01*
G37*
D16*
X229150000Y-97247500D03*
G04 #@! TD*
D15*
G04 #@! TO.C,D57*
G36*
X248986207Y-93361542D02*
X249017287Y-93366152D01*
X249047766Y-93373787D01*
X249077350Y-93384372D01*
X249105754Y-93397806D01*
X249132704Y-93413959D01*
X249157942Y-93432677D01*
X249181223Y-93453777D01*
X249202323Y-93477058D01*
X249221041Y-93502296D01*
X249237194Y-93529246D01*
X249250628Y-93557650D01*
X249261213Y-93587234D01*
X249268848Y-93617713D01*
X249273458Y-93648793D01*
X249275000Y-93680176D01*
X249275000Y-94864824D01*
X249273458Y-94896207D01*
X249268848Y-94927287D01*
X249261213Y-94957766D01*
X249250628Y-94987350D01*
X249237194Y-95015754D01*
X249221041Y-95042704D01*
X249202323Y-95067942D01*
X249181223Y-95091223D01*
X249157942Y-95112323D01*
X249132704Y-95131041D01*
X249105754Y-95147194D01*
X249077350Y-95160628D01*
X249047766Y-95171213D01*
X249017287Y-95178848D01*
X248986207Y-95183458D01*
X248954824Y-95185000D01*
X247445176Y-95185000D01*
X247413793Y-95183458D01*
X247382713Y-95178848D01*
X247352234Y-95171213D01*
X247322650Y-95160628D01*
X247294246Y-95147194D01*
X247267296Y-95131041D01*
X247242058Y-95112323D01*
X247218777Y-95091223D01*
X247197677Y-95067942D01*
X247178959Y-95042704D01*
X247162806Y-95015754D01*
X247149372Y-94987350D01*
X247138787Y-94957766D01*
X247131152Y-94927287D01*
X247126542Y-94896207D01*
X247125000Y-94864824D01*
X247125000Y-93680176D01*
X247126542Y-93648793D01*
X247131152Y-93617713D01*
X247138787Y-93587234D01*
X247149372Y-93557650D01*
X247162806Y-93529246D01*
X247178959Y-93502296D01*
X247197677Y-93477058D01*
X247218777Y-93453777D01*
X247242058Y-93432677D01*
X247267296Y-93413959D01*
X247294246Y-93397806D01*
X247322650Y-93384372D01*
X247352234Y-93373787D01*
X247382713Y-93366152D01*
X247413793Y-93361542D01*
X247445176Y-93360000D01*
X248954824Y-93360000D01*
X248986207Y-93361542D01*
X248986207Y-93361542D01*
G37*
D16*
X248200000Y-94272500D03*
D15*
G36*
X248986207Y-96336542D02*
X249017287Y-96341152D01*
X249047766Y-96348787D01*
X249077350Y-96359372D01*
X249105754Y-96372806D01*
X249132704Y-96388959D01*
X249157942Y-96407677D01*
X249181223Y-96428777D01*
X249202323Y-96452058D01*
X249221041Y-96477296D01*
X249237194Y-96504246D01*
X249250628Y-96532650D01*
X249261213Y-96562234D01*
X249268848Y-96592713D01*
X249273458Y-96623793D01*
X249275000Y-96655176D01*
X249275000Y-97839824D01*
X249273458Y-97871207D01*
X249268848Y-97902287D01*
X249261213Y-97932766D01*
X249250628Y-97962350D01*
X249237194Y-97990754D01*
X249221041Y-98017704D01*
X249202323Y-98042942D01*
X249181223Y-98066223D01*
X249157942Y-98087323D01*
X249132704Y-98106041D01*
X249105754Y-98122194D01*
X249077350Y-98135628D01*
X249047766Y-98146213D01*
X249017287Y-98153848D01*
X248986207Y-98158458D01*
X248954824Y-98160000D01*
X247445176Y-98160000D01*
X247413793Y-98158458D01*
X247382713Y-98153848D01*
X247352234Y-98146213D01*
X247322650Y-98135628D01*
X247294246Y-98122194D01*
X247267296Y-98106041D01*
X247242058Y-98087323D01*
X247218777Y-98066223D01*
X247197677Y-98042942D01*
X247178959Y-98017704D01*
X247162806Y-97990754D01*
X247149372Y-97962350D01*
X247138787Y-97932766D01*
X247131152Y-97902287D01*
X247126542Y-97871207D01*
X247125000Y-97839824D01*
X247125000Y-96655176D01*
X247126542Y-96623793D01*
X247131152Y-96592713D01*
X247138787Y-96562234D01*
X247149372Y-96532650D01*
X247162806Y-96504246D01*
X247178959Y-96477296D01*
X247197677Y-96452058D01*
X247218777Y-96428777D01*
X247242058Y-96407677D01*
X247267296Y-96388959D01*
X247294246Y-96372806D01*
X247322650Y-96359372D01*
X247352234Y-96348787D01*
X247382713Y-96341152D01*
X247413793Y-96336542D01*
X247445176Y-96335000D01*
X248954824Y-96335000D01*
X248986207Y-96336542D01*
X248986207Y-96336542D01*
G37*
D16*
X248200000Y-97247500D03*
G04 #@! TD*
D15*
G04 #@! TO.C,D58*
G36*
X268036207Y-93361542D02*
X268067287Y-93366152D01*
X268097766Y-93373787D01*
X268127350Y-93384372D01*
X268155754Y-93397806D01*
X268182704Y-93413959D01*
X268207942Y-93432677D01*
X268231223Y-93453777D01*
X268252323Y-93477058D01*
X268271041Y-93502296D01*
X268287194Y-93529246D01*
X268300628Y-93557650D01*
X268311213Y-93587234D01*
X268318848Y-93617713D01*
X268323458Y-93648793D01*
X268325000Y-93680176D01*
X268325000Y-94864824D01*
X268323458Y-94896207D01*
X268318848Y-94927287D01*
X268311213Y-94957766D01*
X268300628Y-94987350D01*
X268287194Y-95015754D01*
X268271041Y-95042704D01*
X268252323Y-95067942D01*
X268231223Y-95091223D01*
X268207942Y-95112323D01*
X268182704Y-95131041D01*
X268155754Y-95147194D01*
X268127350Y-95160628D01*
X268097766Y-95171213D01*
X268067287Y-95178848D01*
X268036207Y-95183458D01*
X268004824Y-95185000D01*
X266495176Y-95185000D01*
X266463793Y-95183458D01*
X266432713Y-95178848D01*
X266402234Y-95171213D01*
X266372650Y-95160628D01*
X266344246Y-95147194D01*
X266317296Y-95131041D01*
X266292058Y-95112323D01*
X266268777Y-95091223D01*
X266247677Y-95067942D01*
X266228959Y-95042704D01*
X266212806Y-95015754D01*
X266199372Y-94987350D01*
X266188787Y-94957766D01*
X266181152Y-94927287D01*
X266176542Y-94896207D01*
X266175000Y-94864824D01*
X266175000Y-93680176D01*
X266176542Y-93648793D01*
X266181152Y-93617713D01*
X266188787Y-93587234D01*
X266199372Y-93557650D01*
X266212806Y-93529246D01*
X266228959Y-93502296D01*
X266247677Y-93477058D01*
X266268777Y-93453777D01*
X266292058Y-93432677D01*
X266317296Y-93413959D01*
X266344246Y-93397806D01*
X266372650Y-93384372D01*
X266402234Y-93373787D01*
X266432713Y-93366152D01*
X266463793Y-93361542D01*
X266495176Y-93360000D01*
X268004824Y-93360000D01*
X268036207Y-93361542D01*
X268036207Y-93361542D01*
G37*
D16*
X267250000Y-94272500D03*
D15*
G36*
X268036207Y-96336542D02*
X268067287Y-96341152D01*
X268097766Y-96348787D01*
X268127350Y-96359372D01*
X268155754Y-96372806D01*
X268182704Y-96388959D01*
X268207942Y-96407677D01*
X268231223Y-96428777D01*
X268252323Y-96452058D01*
X268271041Y-96477296D01*
X268287194Y-96504246D01*
X268300628Y-96532650D01*
X268311213Y-96562234D01*
X268318848Y-96592713D01*
X268323458Y-96623793D01*
X268325000Y-96655176D01*
X268325000Y-97839824D01*
X268323458Y-97871207D01*
X268318848Y-97902287D01*
X268311213Y-97932766D01*
X268300628Y-97962350D01*
X268287194Y-97990754D01*
X268271041Y-98017704D01*
X268252323Y-98042942D01*
X268231223Y-98066223D01*
X268207942Y-98087323D01*
X268182704Y-98106041D01*
X268155754Y-98122194D01*
X268127350Y-98135628D01*
X268097766Y-98146213D01*
X268067287Y-98153848D01*
X268036207Y-98158458D01*
X268004824Y-98160000D01*
X266495176Y-98160000D01*
X266463793Y-98158458D01*
X266432713Y-98153848D01*
X266402234Y-98146213D01*
X266372650Y-98135628D01*
X266344246Y-98122194D01*
X266317296Y-98106041D01*
X266292058Y-98087323D01*
X266268777Y-98066223D01*
X266247677Y-98042942D01*
X266228959Y-98017704D01*
X266212806Y-97990754D01*
X266199372Y-97962350D01*
X266188787Y-97932766D01*
X266181152Y-97902287D01*
X266176542Y-97871207D01*
X266175000Y-97839824D01*
X266175000Y-96655176D01*
X266176542Y-96623793D01*
X266181152Y-96592713D01*
X266188787Y-96562234D01*
X266199372Y-96532650D01*
X266212806Y-96504246D01*
X266228959Y-96477296D01*
X266247677Y-96452058D01*
X266268777Y-96428777D01*
X266292058Y-96407677D01*
X266317296Y-96388959D01*
X266344246Y-96372806D01*
X266372650Y-96359372D01*
X266402234Y-96348787D01*
X266432713Y-96341152D01*
X266463793Y-96336542D01*
X266495176Y-96335000D01*
X268004824Y-96335000D01*
X268036207Y-96336542D01*
X268036207Y-96336542D01*
G37*
D16*
X267250000Y-97247500D03*
G04 #@! TD*
D15*
G04 #@! TO.C,D59*
G36*
X287086207Y-93361542D02*
X287117287Y-93366152D01*
X287147766Y-93373787D01*
X287177350Y-93384372D01*
X287205754Y-93397806D01*
X287232704Y-93413959D01*
X287257942Y-93432677D01*
X287281223Y-93453777D01*
X287302323Y-93477058D01*
X287321041Y-93502296D01*
X287337194Y-93529246D01*
X287350628Y-93557650D01*
X287361213Y-93587234D01*
X287368848Y-93617713D01*
X287373458Y-93648793D01*
X287375000Y-93680176D01*
X287375000Y-94864824D01*
X287373458Y-94896207D01*
X287368848Y-94927287D01*
X287361213Y-94957766D01*
X287350628Y-94987350D01*
X287337194Y-95015754D01*
X287321041Y-95042704D01*
X287302323Y-95067942D01*
X287281223Y-95091223D01*
X287257942Y-95112323D01*
X287232704Y-95131041D01*
X287205754Y-95147194D01*
X287177350Y-95160628D01*
X287147766Y-95171213D01*
X287117287Y-95178848D01*
X287086207Y-95183458D01*
X287054824Y-95185000D01*
X285545176Y-95185000D01*
X285513793Y-95183458D01*
X285482713Y-95178848D01*
X285452234Y-95171213D01*
X285422650Y-95160628D01*
X285394246Y-95147194D01*
X285367296Y-95131041D01*
X285342058Y-95112323D01*
X285318777Y-95091223D01*
X285297677Y-95067942D01*
X285278959Y-95042704D01*
X285262806Y-95015754D01*
X285249372Y-94987350D01*
X285238787Y-94957766D01*
X285231152Y-94927287D01*
X285226542Y-94896207D01*
X285225000Y-94864824D01*
X285225000Y-93680176D01*
X285226542Y-93648793D01*
X285231152Y-93617713D01*
X285238787Y-93587234D01*
X285249372Y-93557650D01*
X285262806Y-93529246D01*
X285278959Y-93502296D01*
X285297677Y-93477058D01*
X285318777Y-93453777D01*
X285342058Y-93432677D01*
X285367296Y-93413959D01*
X285394246Y-93397806D01*
X285422650Y-93384372D01*
X285452234Y-93373787D01*
X285482713Y-93366152D01*
X285513793Y-93361542D01*
X285545176Y-93360000D01*
X287054824Y-93360000D01*
X287086207Y-93361542D01*
X287086207Y-93361542D01*
G37*
D16*
X286300000Y-94272500D03*
D15*
G36*
X287086207Y-96336542D02*
X287117287Y-96341152D01*
X287147766Y-96348787D01*
X287177350Y-96359372D01*
X287205754Y-96372806D01*
X287232704Y-96388959D01*
X287257942Y-96407677D01*
X287281223Y-96428777D01*
X287302323Y-96452058D01*
X287321041Y-96477296D01*
X287337194Y-96504246D01*
X287350628Y-96532650D01*
X287361213Y-96562234D01*
X287368848Y-96592713D01*
X287373458Y-96623793D01*
X287375000Y-96655176D01*
X287375000Y-97839824D01*
X287373458Y-97871207D01*
X287368848Y-97902287D01*
X287361213Y-97932766D01*
X287350628Y-97962350D01*
X287337194Y-97990754D01*
X287321041Y-98017704D01*
X287302323Y-98042942D01*
X287281223Y-98066223D01*
X287257942Y-98087323D01*
X287232704Y-98106041D01*
X287205754Y-98122194D01*
X287177350Y-98135628D01*
X287147766Y-98146213D01*
X287117287Y-98153848D01*
X287086207Y-98158458D01*
X287054824Y-98160000D01*
X285545176Y-98160000D01*
X285513793Y-98158458D01*
X285482713Y-98153848D01*
X285452234Y-98146213D01*
X285422650Y-98135628D01*
X285394246Y-98122194D01*
X285367296Y-98106041D01*
X285342058Y-98087323D01*
X285318777Y-98066223D01*
X285297677Y-98042942D01*
X285278959Y-98017704D01*
X285262806Y-97990754D01*
X285249372Y-97962350D01*
X285238787Y-97932766D01*
X285231152Y-97902287D01*
X285226542Y-97871207D01*
X285225000Y-97839824D01*
X285225000Y-96655176D01*
X285226542Y-96623793D01*
X285231152Y-96592713D01*
X285238787Y-96562234D01*
X285249372Y-96532650D01*
X285262806Y-96504246D01*
X285278959Y-96477296D01*
X285297677Y-96452058D01*
X285318777Y-96428777D01*
X285342058Y-96407677D01*
X285367296Y-96388959D01*
X285394246Y-96372806D01*
X285422650Y-96359372D01*
X285452234Y-96348787D01*
X285482713Y-96341152D01*
X285513793Y-96336542D01*
X285545176Y-96335000D01*
X287054824Y-96335000D01*
X287086207Y-96336542D01*
X287086207Y-96336542D01*
G37*
D16*
X286300000Y-97247500D03*
G04 #@! TD*
D10*
G04 #@! TO.C,SW51*
X297587000Y-83780000D03*
X283617000Y-86320000D03*
D11*
X284887000Y-81240000D03*
X295047000Y-81240000D03*
D12*
X289967000Y-81240000D03*
D13*
X293777000Y-83780000D03*
X287427000Y-86320000D03*
G04 #@! TD*
D10*
G04 #@! TO.C,SW52*
X316637000Y-83780000D03*
X302667000Y-86320000D03*
D11*
X303937000Y-81240000D03*
X314097000Y-81240000D03*
D12*
X309017000Y-81240000D03*
D13*
X312827000Y-83780000D03*
X306477000Y-86320000D03*
G04 #@! TD*
D10*
G04 #@! TO.C,SW56*
X230912000Y-102830000D03*
X216942000Y-105370000D03*
D11*
X218212000Y-100290000D03*
X228372000Y-100290000D03*
D12*
X223292000Y-100290000D03*
D13*
X227102000Y-102830000D03*
X220752000Y-105370000D03*
G04 #@! TD*
D10*
G04 #@! TO.C,SW66*
X314256250Y-121880000D03*
X300286250Y-124420000D03*
D11*
X301556250Y-119340000D03*
X311716250Y-119340000D03*
D12*
X306636250Y-119340000D03*
D13*
X310446250Y-121880000D03*
X304096250Y-124420000D03*
G04 #@! TD*
D17*
G04 #@! TO.C,cr18*
X377900001Y-52240001D03*
G04 #@! TD*
D18*
G04 #@! TO.C,cr11*
X238930001Y-52240001D03*
G04 #@! TD*
G04 #@! TO.C,cr16*
X334180001Y-52240001D03*
G04 #@! TD*
G04 #@! TO.C,cr12*
X257980001Y-52240001D03*
G04 #@! TD*
G04 #@! TO.C,cr14*
X296080001Y-52240001D03*
G04 #@! TD*
G04 #@! TO.C,cr13*
X277030001Y-52240001D03*
G04 #@! TD*
G04 #@! TO.C,cr15*
X315130001Y-52240001D03*
G04 #@! TD*
G04 #@! TO.C,cr17*
X353230001Y-52240001D03*
G04 #@! TD*
D19*
G04 #@! TO.C,h15*
X328070000Y-90790000D03*
G04 #@! TD*
G04 #@! TO.C,h14*
X251870000Y-90800000D03*
G04 #@! TD*
G04 #@! TO.C,h13*
X389710000Y-54960000D03*
G04 #@! TD*
G04 #@! TO.C,h12*
X237590000Y-54920000D03*
G04 #@! TD*
D20*
G04 #@! TO.C,JP_da1*
X340790478Y-77790000D03*
X339490478Y-77790000D03*
G04 #@! TD*
D19*
G04 #@! TO.C,h10*
X211260000Y-32870000D03*
G04 #@! TD*
G04 #@! TO.C,h11*
X389730000Y-32870000D03*
G04 #@! TD*
G04 #@! TO.C,h17*
X389720000Y-129610000D03*
G04 #@! TD*
D15*
G04 #@! TO.C,D31*
G36*
X225186207Y-36211542D02*
X225217287Y-36216152D01*
X225247766Y-36223787D01*
X225277350Y-36234372D01*
X225305754Y-36247806D01*
X225332704Y-36263959D01*
X225357942Y-36282677D01*
X225381223Y-36303777D01*
X225402323Y-36327058D01*
X225421041Y-36352296D01*
X225437194Y-36379246D01*
X225450628Y-36407650D01*
X225461213Y-36437234D01*
X225468848Y-36467713D01*
X225473458Y-36498793D01*
X225475000Y-36530176D01*
X225475000Y-37714824D01*
X225473458Y-37746207D01*
X225468848Y-37777287D01*
X225461213Y-37807766D01*
X225450628Y-37837350D01*
X225437194Y-37865754D01*
X225421041Y-37892704D01*
X225402323Y-37917942D01*
X225381223Y-37941223D01*
X225357942Y-37962323D01*
X225332704Y-37981041D01*
X225305754Y-37997194D01*
X225277350Y-38010628D01*
X225247766Y-38021213D01*
X225217287Y-38028848D01*
X225186207Y-38033458D01*
X225154824Y-38035000D01*
X223645176Y-38035000D01*
X223613793Y-38033458D01*
X223582713Y-38028848D01*
X223552234Y-38021213D01*
X223522650Y-38010628D01*
X223494246Y-37997194D01*
X223467296Y-37981041D01*
X223442058Y-37962323D01*
X223418777Y-37941223D01*
X223397677Y-37917942D01*
X223378959Y-37892704D01*
X223362806Y-37865754D01*
X223349372Y-37837350D01*
X223338787Y-37807766D01*
X223331152Y-37777287D01*
X223326542Y-37746207D01*
X223325000Y-37714824D01*
X223325000Y-36530176D01*
X223326542Y-36498793D01*
X223331152Y-36467713D01*
X223338787Y-36437234D01*
X223349372Y-36407650D01*
X223362806Y-36379246D01*
X223378959Y-36352296D01*
X223397677Y-36327058D01*
X223418777Y-36303777D01*
X223442058Y-36282677D01*
X223467296Y-36263959D01*
X223494246Y-36247806D01*
X223522650Y-36234372D01*
X223552234Y-36223787D01*
X223582713Y-36216152D01*
X223613793Y-36211542D01*
X223645176Y-36210000D01*
X225154824Y-36210000D01*
X225186207Y-36211542D01*
X225186207Y-36211542D01*
G37*
D16*
X224400000Y-37122500D03*
D15*
G36*
X225186207Y-39186542D02*
X225217287Y-39191152D01*
X225247766Y-39198787D01*
X225277350Y-39209372D01*
X225305754Y-39222806D01*
X225332704Y-39238959D01*
X225357942Y-39257677D01*
X225381223Y-39278777D01*
X225402323Y-39302058D01*
X225421041Y-39327296D01*
X225437194Y-39354246D01*
X225450628Y-39382650D01*
X225461213Y-39412234D01*
X225468848Y-39442713D01*
X225473458Y-39473793D01*
X225475000Y-39505176D01*
X225475000Y-40689824D01*
X225473458Y-40721207D01*
X225468848Y-40752287D01*
X225461213Y-40782766D01*
X225450628Y-40812350D01*
X225437194Y-40840754D01*
X225421041Y-40867704D01*
X225402323Y-40892942D01*
X225381223Y-40916223D01*
X225357942Y-40937323D01*
X225332704Y-40956041D01*
X225305754Y-40972194D01*
X225277350Y-40985628D01*
X225247766Y-40996213D01*
X225217287Y-41003848D01*
X225186207Y-41008458D01*
X225154824Y-41010000D01*
X223645176Y-41010000D01*
X223613793Y-41008458D01*
X223582713Y-41003848D01*
X223552234Y-40996213D01*
X223522650Y-40985628D01*
X223494246Y-40972194D01*
X223467296Y-40956041D01*
X223442058Y-40937323D01*
X223418777Y-40916223D01*
X223397677Y-40892942D01*
X223378959Y-40867704D01*
X223362806Y-40840754D01*
X223349372Y-40812350D01*
X223338787Y-40782766D01*
X223331152Y-40752287D01*
X223326542Y-40721207D01*
X223325000Y-40689824D01*
X223325000Y-39505176D01*
X223326542Y-39473793D01*
X223331152Y-39442713D01*
X223338787Y-39412234D01*
X223349372Y-39382650D01*
X223362806Y-39354246D01*
X223378959Y-39327296D01*
X223397677Y-39302058D01*
X223418777Y-39278777D01*
X223442058Y-39257677D01*
X223467296Y-39238959D01*
X223494246Y-39222806D01*
X223522650Y-39209372D01*
X223552234Y-39198787D01*
X223582713Y-39191152D01*
X223613793Y-39186542D01*
X223645176Y-39185000D01*
X225154824Y-39185000D01*
X225186207Y-39186542D01*
X225186207Y-39186542D01*
G37*
D16*
X224400000Y-40097500D03*
G04 #@! TD*
D15*
G04 #@! TO.C,D32*
G36*
X244236207Y-36211542D02*
X244267287Y-36216152D01*
X244297766Y-36223787D01*
X244327350Y-36234372D01*
X244355754Y-36247806D01*
X244382704Y-36263959D01*
X244407942Y-36282677D01*
X244431223Y-36303777D01*
X244452323Y-36327058D01*
X244471041Y-36352296D01*
X244487194Y-36379246D01*
X244500628Y-36407650D01*
X244511213Y-36437234D01*
X244518848Y-36467713D01*
X244523458Y-36498793D01*
X244525000Y-36530176D01*
X244525000Y-37714824D01*
X244523458Y-37746207D01*
X244518848Y-37777287D01*
X244511213Y-37807766D01*
X244500628Y-37837350D01*
X244487194Y-37865754D01*
X244471041Y-37892704D01*
X244452323Y-37917942D01*
X244431223Y-37941223D01*
X244407942Y-37962323D01*
X244382704Y-37981041D01*
X244355754Y-37997194D01*
X244327350Y-38010628D01*
X244297766Y-38021213D01*
X244267287Y-38028848D01*
X244236207Y-38033458D01*
X244204824Y-38035000D01*
X242695176Y-38035000D01*
X242663793Y-38033458D01*
X242632713Y-38028848D01*
X242602234Y-38021213D01*
X242572650Y-38010628D01*
X242544246Y-37997194D01*
X242517296Y-37981041D01*
X242492058Y-37962323D01*
X242468777Y-37941223D01*
X242447677Y-37917942D01*
X242428959Y-37892704D01*
X242412806Y-37865754D01*
X242399372Y-37837350D01*
X242388787Y-37807766D01*
X242381152Y-37777287D01*
X242376542Y-37746207D01*
X242375000Y-37714824D01*
X242375000Y-36530176D01*
X242376542Y-36498793D01*
X242381152Y-36467713D01*
X242388787Y-36437234D01*
X242399372Y-36407650D01*
X242412806Y-36379246D01*
X242428959Y-36352296D01*
X242447677Y-36327058D01*
X242468777Y-36303777D01*
X242492058Y-36282677D01*
X242517296Y-36263959D01*
X242544246Y-36247806D01*
X242572650Y-36234372D01*
X242602234Y-36223787D01*
X242632713Y-36216152D01*
X242663793Y-36211542D01*
X242695176Y-36210000D01*
X244204824Y-36210000D01*
X244236207Y-36211542D01*
X244236207Y-36211542D01*
G37*
D16*
X243450000Y-37122500D03*
D15*
G36*
X244236207Y-39186542D02*
X244267287Y-39191152D01*
X244297766Y-39198787D01*
X244327350Y-39209372D01*
X244355754Y-39222806D01*
X244382704Y-39238959D01*
X244407942Y-39257677D01*
X244431223Y-39278777D01*
X244452323Y-39302058D01*
X244471041Y-39327296D01*
X244487194Y-39354246D01*
X244500628Y-39382650D01*
X244511213Y-39412234D01*
X244518848Y-39442713D01*
X244523458Y-39473793D01*
X244525000Y-39505176D01*
X244525000Y-40689824D01*
X244523458Y-40721207D01*
X244518848Y-40752287D01*
X244511213Y-40782766D01*
X244500628Y-40812350D01*
X244487194Y-40840754D01*
X244471041Y-40867704D01*
X244452323Y-40892942D01*
X244431223Y-40916223D01*
X244407942Y-40937323D01*
X244382704Y-40956041D01*
X244355754Y-40972194D01*
X244327350Y-40985628D01*
X244297766Y-40996213D01*
X244267287Y-41003848D01*
X244236207Y-41008458D01*
X244204824Y-41010000D01*
X242695176Y-41010000D01*
X242663793Y-41008458D01*
X242632713Y-41003848D01*
X242602234Y-40996213D01*
X242572650Y-40985628D01*
X242544246Y-40972194D01*
X242517296Y-40956041D01*
X242492058Y-40937323D01*
X242468777Y-40916223D01*
X242447677Y-40892942D01*
X242428959Y-40867704D01*
X242412806Y-40840754D01*
X242399372Y-40812350D01*
X242388787Y-40782766D01*
X242381152Y-40752287D01*
X242376542Y-40721207D01*
X242375000Y-40689824D01*
X242375000Y-39505176D01*
X242376542Y-39473793D01*
X242381152Y-39442713D01*
X242388787Y-39412234D01*
X242399372Y-39382650D01*
X242412806Y-39354246D01*
X242428959Y-39327296D01*
X242447677Y-39302058D01*
X242468777Y-39278777D01*
X242492058Y-39257677D01*
X242517296Y-39238959D01*
X242544246Y-39222806D01*
X242572650Y-39209372D01*
X242602234Y-39198787D01*
X242632713Y-39191152D01*
X242663793Y-39186542D01*
X242695176Y-39185000D01*
X244204824Y-39185000D01*
X244236207Y-39186542D01*
X244236207Y-39186542D01*
G37*
D16*
X243450000Y-40097500D03*
G04 #@! TD*
D15*
G04 #@! TO.C,D33*
G36*
X263286207Y-36211542D02*
X263317287Y-36216152D01*
X263347766Y-36223787D01*
X263377350Y-36234372D01*
X263405754Y-36247806D01*
X263432704Y-36263959D01*
X263457942Y-36282677D01*
X263481223Y-36303777D01*
X263502323Y-36327058D01*
X263521041Y-36352296D01*
X263537194Y-36379246D01*
X263550628Y-36407650D01*
X263561213Y-36437234D01*
X263568848Y-36467713D01*
X263573458Y-36498793D01*
X263575000Y-36530176D01*
X263575000Y-37714824D01*
X263573458Y-37746207D01*
X263568848Y-37777287D01*
X263561213Y-37807766D01*
X263550628Y-37837350D01*
X263537194Y-37865754D01*
X263521041Y-37892704D01*
X263502323Y-37917942D01*
X263481223Y-37941223D01*
X263457942Y-37962323D01*
X263432704Y-37981041D01*
X263405754Y-37997194D01*
X263377350Y-38010628D01*
X263347766Y-38021213D01*
X263317287Y-38028848D01*
X263286207Y-38033458D01*
X263254824Y-38035000D01*
X261745176Y-38035000D01*
X261713793Y-38033458D01*
X261682713Y-38028848D01*
X261652234Y-38021213D01*
X261622650Y-38010628D01*
X261594246Y-37997194D01*
X261567296Y-37981041D01*
X261542058Y-37962323D01*
X261518777Y-37941223D01*
X261497677Y-37917942D01*
X261478959Y-37892704D01*
X261462806Y-37865754D01*
X261449372Y-37837350D01*
X261438787Y-37807766D01*
X261431152Y-37777287D01*
X261426542Y-37746207D01*
X261425000Y-37714824D01*
X261425000Y-36530176D01*
X261426542Y-36498793D01*
X261431152Y-36467713D01*
X261438787Y-36437234D01*
X261449372Y-36407650D01*
X261462806Y-36379246D01*
X261478959Y-36352296D01*
X261497677Y-36327058D01*
X261518777Y-36303777D01*
X261542058Y-36282677D01*
X261567296Y-36263959D01*
X261594246Y-36247806D01*
X261622650Y-36234372D01*
X261652234Y-36223787D01*
X261682713Y-36216152D01*
X261713793Y-36211542D01*
X261745176Y-36210000D01*
X263254824Y-36210000D01*
X263286207Y-36211542D01*
X263286207Y-36211542D01*
G37*
D16*
X262500000Y-37122500D03*
D15*
G36*
X263286207Y-39186542D02*
X263317287Y-39191152D01*
X263347766Y-39198787D01*
X263377350Y-39209372D01*
X263405754Y-39222806D01*
X263432704Y-39238959D01*
X263457942Y-39257677D01*
X263481223Y-39278777D01*
X263502323Y-39302058D01*
X263521041Y-39327296D01*
X263537194Y-39354246D01*
X263550628Y-39382650D01*
X263561213Y-39412234D01*
X263568848Y-39442713D01*
X263573458Y-39473793D01*
X263575000Y-39505176D01*
X263575000Y-40689824D01*
X263573458Y-40721207D01*
X263568848Y-40752287D01*
X263561213Y-40782766D01*
X263550628Y-40812350D01*
X263537194Y-40840754D01*
X263521041Y-40867704D01*
X263502323Y-40892942D01*
X263481223Y-40916223D01*
X263457942Y-40937323D01*
X263432704Y-40956041D01*
X263405754Y-40972194D01*
X263377350Y-40985628D01*
X263347766Y-40996213D01*
X263317287Y-41003848D01*
X263286207Y-41008458D01*
X263254824Y-41010000D01*
X261745176Y-41010000D01*
X261713793Y-41008458D01*
X261682713Y-41003848D01*
X261652234Y-40996213D01*
X261622650Y-40985628D01*
X261594246Y-40972194D01*
X261567296Y-40956041D01*
X261542058Y-40937323D01*
X261518777Y-40916223D01*
X261497677Y-40892942D01*
X261478959Y-40867704D01*
X261462806Y-40840754D01*
X261449372Y-40812350D01*
X261438787Y-40782766D01*
X261431152Y-40752287D01*
X261426542Y-40721207D01*
X261425000Y-40689824D01*
X261425000Y-39505176D01*
X261426542Y-39473793D01*
X261431152Y-39442713D01*
X261438787Y-39412234D01*
X261449372Y-39382650D01*
X261462806Y-39354246D01*
X261478959Y-39327296D01*
X261497677Y-39302058D01*
X261518777Y-39278777D01*
X261542058Y-39257677D01*
X261567296Y-39238959D01*
X261594246Y-39222806D01*
X261622650Y-39209372D01*
X261652234Y-39198787D01*
X261682713Y-39191152D01*
X261713793Y-39186542D01*
X261745176Y-39185000D01*
X263254824Y-39185000D01*
X263286207Y-39186542D01*
X263286207Y-39186542D01*
G37*
D16*
X262500000Y-40097500D03*
G04 #@! TD*
D15*
G04 #@! TO.C,D34*
G36*
X282336207Y-36211542D02*
X282367287Y-36216152D01*
X282397766Y-36223787D01*
X282427350Y-36234372D01*
X282455754Y-36247806D01*
X282482704Y-36263959D01*
X282507942Y-36282677D01*
X282531223Y-36303777D01*
X282552323Y-36327058D01*
X282571041Y-36352296D01*
X282587194Y-36379246D01*
X282600628Y-36407650D01*
X282611213Y-36437234D01*
X282618848Y-36467713D01*
X282623458Y-36498793D01*
X282625000Y-36530176D01*
X282625000Y-37714824D01*
X282623458Y-37746207D01*
X282618848Y-37777287D01*
X282611213Y-37807766D01*
X282600628Y-37837350D01*
X282587194Y-37865754D01*
X282571041Y-37892704D01*
X282552323Y-37917942D01*
X282531223Y-37941223D01*
X282507942Y-37962323D01*
X282482704Y-37981041D01*
X282455754Y-37997194D01*
X282427350Y-38010628D01*
X282397766Y-38021213D01*
X282367287Y-38028848D01*
X282336207Y-38033458D01*
X282304824Y-38035000D01*
X280795176Y-38035000D01*
X280763793Y-38033458D01*
X280732713Y-38028848D01*
X280702234Y-38021213D01*
X280672650Y-38010628D01*
X280644246Y-37997194D01*
X280617296Y-37981041D01*
X280592058Y-37962323D01*
X280568777Y-37941223D01*
X280547677Y-37917942D01*
X280528959Y-37892704D01*
X280512806Y-37865754D01*
X280499372Y-37837350D01*
X280488787Y-37807766D01*
X280481152Y-37777287D01*
X280476542Y-37746207D01*
X280475000Y-37714824D01*
X280475000Y-36530176D01*
X280476542Y-36498793D01*
X280481152Y-36467713D01*
X280488787Y-36437234D01*
X280499372Y-36407650D01*
X280512806Y-36379246D01*
X280528959Y-36352296D01*
X280547677Y-36327058D01*
X280568777Y-36303777D01*
X280592058Y-36282677D01*
X280617296Y-36263959D01*
X280644246Y-36247806D01*
X280672650Y-36234372D01*
X280702234Y-36223787D01*
X280732713Y-36216152D01*
X280763793Y-36211542D01*
X280795176Y-36210000D01*
X282304824Y-36210000D01*
X282336207Y-36211542D01*
X282336207Y-36211542D01*
G37*
D16*
X281550000Y-37122500D03*
D15*
G36*
X282336207Y-39186542D02*
X282367287Y-39191152D01*
X282397766Y-39198787D01*
X282427350Y-39209372D01*
X282455754Y-39222806D01*
X282482704Y-39238959D01*
X282507942Y-39257677D01*
X282531223Y-39278777D01*
X282552323Y-39302058D01*
X282571041Y-39327296D01*
X282587194Y-39354246D01*
X282600628Y-39382650D01*
X282611213Y-39412234D01*
X282618848Y-39442713D01*
X282623458Y-39473793D01*
X282625000Y-39505176D01*
X282625000Y-40689824D01*
X282623458Y-40721207D01*
X282618848Y-40752287D01*
X282611213Y-40782766D01*
X282600628Y-40812350D01*
X282587194Y-40840754D01*
X282571041Y-40867704D01*
X282552323Y-40892942D01*
X282531223Y-40916223D01*
X282507942Y-40937323D01*
X282482704Y-40956041D01*
X282455754Y-40972194D01*
X282427350Y-40985628D01*
X282397766Y-40996213D01*
X282367287Y-41003848D01*
X282336207Y-41008458D01*
X282304824Y-41010000D01*
X280795176Y-41010000D01*
X280763793Y-41008458D01*
X280732713Y-41003848D01*
X280702234Y-40996213D01*
X280672650Y-40985628D01*
X280644246Y-40972194D01*
X280617296Y-40956041D01*
X280592058Y-40937323D01*
X280568777Y-40916223D01*
X280547677Y-40892942D01*
X280528959Y-40867704D01*
X280512806Y-40840754D01*
X280499372Y-40812350D01*
X280488787Y-40782766D01*
X280481152Y-40752287D01*
X280476542Y-40721207D01*
X280475000Y-40689824D01*
X280475000Y-39505176D01*
X280476542Y-39473793D01*
X280481152Y-39442713D01*
X280488787Y-39412234D01*
X280499372Y-39382650D01*
X280512806Y-39354246D01*
X280528959Y-39327296D01*
X280547677Y-39302058D01*
X280568777Y-39278777D01*
X280592058Y-39257677D01*
X280617296Y-39238959D01*
X280644246Y-39222806D01*
X280672650Y-39209372D01*
X280702234Y-39198787D01*
X280732713Y-39191152D01*
X280763793Y-39186542D01*
X280795176Y-39185000D01*
X282304824Y-39185000D01*
X282336207Y-39186542D01*
X282336207Y-39186542D01*
G37*
D16*
X281550000Y-40097500D03*
G04 #@! TD*
D15*
G04 #@! TO.C,D35*
G36*
X301386207Y-36211542D02*
X301417287Y-36216152D01*
X301447766Y-36223787D01*
X301477350Y-36234372D01*
X301505754Y-36247806D01*
X301532704Y-36263959D01*
X301557942Y-36282677D01*
X301581223Y-36303777D01*
X301602323Y-36327058D01*
X301621041Y-36352296D01*
X301637194Y-36379246D01*
X301650628Y-36407650D01*
X301661213Y-36437234D01*
X301668848Y-36467713D01*
X301673458Y-36498793D01*
X301675000Y-36530176D01*
X301675000Y-37714824D01*
X301673458Y-37746207D01*
X301668848Y-37777287D01*
X301661213Y-37807766D01*
X301650628Y-37837350D01*
X301637194Y-37865754D01*
X301621041Y-37892704D01*
X301602323Y-37917942D01*
X301581223Y-37941223D01*
X301557942Y-37962323D01*
X301532704Y-37981041D01*
X301505754Y-37997194D01*
X301477350Y-38010628D01*
X301447766Y-38021213D01*
X301417287Y-38028848D01*
X301386207Y-38033458D01*
X301354824Y-38035000D01*
X299845176Y-38035000D01*
X299813793Y-38033458D01*
X299782713Y-38028848D01*
X299752234Y-38021213D01*
X299722650Y-38010628D01*
X299694246Y-37997194D01*
X299667296Y-37981041D01*
X299642058Y-37962323D01*
X299618777Y-37941223D01*
X299597677Y-37917942D01*
X299578959Y-37892704D01*
X299562806Y-37865754D01*
X299549372Y-37837350D01*
X299538787Y-37807766D01*
X299531152Y-37777287D01*
X299526542Y-37746207D01*
X299525000Y-37714824D01*
X299525000Y-36530176D01*
X299526542Y-36498793D01*
X299531152Y-36467713D01*
X299538787Y-36437234D01*
X299549372Y-36407650D01*
X299562806Y-36379246D01*
X299578959Y-36352296D01*
X299597677Y-36327058D01*
X299618777Y-36303777D01*
X299642058Y-36282677D01*
X299667296Y-36263959D01*
X299694246Y-36247806D01*
X299722650Y-36234372D01*
X299752234Y-36223787D01*
X299782713Y-36216152D01*
X299813793Y-36211542D01*
X299845176Y-36210000D01*
X301354824Y-36210000D01*
X301386207Y-36211542D01*
X301386207Y-36211542D01*
G37*
D16*
X300600000Y-37122500D03*
D15*
G36*
X301386207Y-39186542D02*
X301417287Y-39191152D01*
X301447766Y-39198787D01*
X301477350Y-39209372D01*
X301505754Y-39222806D01*
X301532704Y-39238959D01*
X301557942Y-39257677D01*
X301581223Y-39278777D01*
X301602323Y-39302058D01*
X301621041Y-39327296D01*
X301637194Y-39354246D01*
X301650628Y-39382650D01*
X301661213Y-39412234D01*
X301668848Y-39442713D01*
X301673458Y-39473793D01*
X301675000Y-39505176D01*
X301675000Y-40689824D01*
X301673458Y-40721207D01*
X301668848Y-40752287D01*
X301661213Y-40782766D01*
X301650628Y-40812350D01*
X301637194Y-40840754D01*
X301621041Y-40867704D01*
X301602323Y-40892942D01*
X301581223Y-40916223D01*
X301557942Y-40937323D01*
X301532704Y-40956041D01*
X301505754Y-40972194D01*
X301477350Y-40985628D01*
X301447766Y-40996213D01*
X301417287Y-41003848D01*
X301386207Y-41008458D01*
X301354824Y-41010000D01*
X299845176Y-41010000D01*
X299813793Y-41008458D01*
X299782713Y-41003848D01*
X299752234Y-40996213D01*
X299722650Y-40985628D01*
X299694246Y-40972194D01*
X299667296Y-40956041D01*
X299642058Y-40937323D01*
X299618777Y-40916223D01*
X299597677Y-40892942D01*
X299578959Y-40867704D01*
X299562806Y-40840754D01*
X299549372Y-40812350D01*
X299538787Y-40782766D01*
X299531152Y-40752287D01*
X299526542Y-40721207D01*
X299525000Y-40689824D01*
X299525000Y-39505176D01*
X299526542Y-39473793D01*
X299531152Y-39442713D01*
X299538787Y-39412234D01*
X299549372Y-39382650D01*
X299562806Y-39354246D01*
X299578959Y-39327296D01*
X299597677Y-39302058D01*
X299618777Y-39278777D01*
X299642058Y-39257677D01*
X299667296Y-39238959D01*
X299694246Y-39222806D01*
X299722650Y-39209372D01*
X299752234Y-39198787D01*
X299782713Y-39191152D01*
X299813793Y-39186542D01*
X299845176Y-39185000D01*
X301354824Y-39185000D01*
X301386207Y-39186542D01*
X301386207Y-39186542D01*
G37*
D16*
X300600000Y-40097500D03*
G04 #@! TD*
D15*
G04 #@! TO.C,D36*
G36*
X320436207Y-36211542D02*
X320467287Y-36216152D01*
X320497766Y-36223787D01*
X320527350Y-36234372D01*
X320555754Y-36247806D01*
X320582704Y-36263959D01*
X320607942Y-36282677D01*
X320631223Y-36303777D01*
X320652323Y-36327058D01*
X320671041Y-36352296D01*
X320687194Y-36379246D01*
X320700628Y-36407650D01*
X320711213Y-36437234D01*
X320718848Y-36467713D01*
X320723458Y-36498793D01*
X320725000Y-36530176D01*
X320725000Y-37714824D01*
X320723458Y-37746207D01*
X320718848Y-37777287D01*
X320711213Y-37807766D01*
X320700628Y-37837350D01*
X320687194Y-37865754D01*
X320671041Y-37892704D01*
X320652323Y-37917942D01*
X320631223Y-37941223D01*
X320607942Y-37962323D01*
X320582704Y-37981041D01*
X320555754Y-37997194D01*
X320527350Y-38010628D01*
X320497766Y-38021213D01*
X320467287Y-38028848D01*
X320436207Y-38033458D01*
X320404824Y-38035000D01*
X318895176Y-38035000D01*
X318863793Y-38033458D01*
X318832713Y-38028848D01*
X318802234Y-38021213D01*
X318772650Y-38010628D01*
X318744246Y-37997194D01*
X318717296Y-37981041D01*
X318692058Y-37962323D01*
X318668777Y-37941223D01*
X318647677Y-37917942D01*
X318628959Y-37892704D01*
X318612806Y-37865754D01*
X318599372Y-37837350D01*
X318588787Y-37807766D01*
X318581152Y-37777287D01*
X318576542Y-37746207D01*
X318575000Y-37714824D01*
X318575000Y-36530176D01*
X318576542Y-36498793D01*
X318581152Y-36467713D01*
X318588787Y-36437234D01*
X318599372Y-36407650D01*
X318612806Y-36379246D01*
X318628959Y-36352296D01*
X318647677Y-36327058D01*
X318668777Y-36303777D01*
X318692058Y-36282677D01*
X318717296Y-36263959D01*
X318744246Y-36247806D01*
X318772650Y-36234372D01*
X318802234Y-36223787D01*
X318832713Y-36216152D01*
X318863793Y-36211542D01*
X318895176Y-36210000D01*
X320404824Y-36210000D01*
X320436207Y-36211542D01*
X320436207Y-36211542D01*
G37*
D16*
X319650000Y-37122500D03*
D15*
G36*
X320436207Y-39186542D02*
X320467287Y-39191152D01*
X320497766Y-39198787D01*
X320527350Y-39209372D01*
X320555754Y-39222806D01*
X320582704Y-39238959D01*
X320607942Y-39257677D01*
X320631223Y-39278777D01*
X320652323Y-39302058D01*
X320671041Y-39327296D01*
X320687194Y-39354246D01*
X320700628Y-39382650D01*
X320711213Y-39412234D01*
X320718848Y-39442713D01*
X320723458Y-39473793D01*
X320725000Y-39505176D01*
X320725000Y-40689824D01*
X320723458Y-40721207D01*
X320718848Y-40752287D01*
X320711213Y-40782766D01*
X320700628Y-40812350D01*
X320687194Y-40840754D01*
X320671041Y-40867704D01*
X320652323Y-40892942D01*
X320631223Y-40916223D01*
X320607942Y-40937323D01*
X320582704Y-40956041D01*
X320555754Y-40972194D01*
X320527350Y-40985628D01*
X320497766Y-40996213D01*
X320467287Y-41003848D01*
X320436207Y-41008458D01*
X320404824Y-41010000D01*
X318895176Y-41010000D01*
X318863793Y-41008458D01*
X318832713Y-41003848D01*
X318802234Y-40996213D01*
X318772650Y-40985628D01*
X318744246Y-40972194D01*
X318717296Y-40956041D01*
X318692058Y-40937323D01*
X318668777Y-40916223D01*
X318647677Y-40892942D01*
X318628959Y-40867704D01*
X318612806Y-40840754D01*
X318599372Y-40812350D01*
X318588787Y-40782766D01*
X318581152Y-40752287D01*
X318576542Y-40721207D01*
X318575000Y-40689824D01*
X318575000Y-39505176D01*
X318576542Y-39473793D01*
X318581152Y-39442713D01*
X318588787Y-39412234D01*
X318599372Y-39382650D01*
X318612806Y-39354246D01*
X318628959Y-39327296D01*
X318647677Y-39302058D01*
X318668777Y-39278777D01*
X318692058Y-39257677D01*
X318717296Y-39238959D01*
X318744246Y-39222806D01*
X318772650Y-39209372D01*
X318802234Y-39198787D01*
X318832713Y-39191152D01*
X318863793Y-39186542D01*
X318895176Y-39185000D01*
X320404824Y-39185000D01*
X320436207Y-39186542D01*
X320436207Y-39186542D01*
G37*
D16*
X319650000Y-40097500D03*
G04 #@! TD*
D15*
G04 #@! TO.C,D37*
G36*
X339486207Y-36211542D02*
X339517287Y-36216152D01*
X339547766Y-36223787D01*
X339577350Y-36234372D01*
X339605754Y-36247806D01*
X339632704Y-36263959D01*
X339657942Y-36282677D01*
X339681223Y-36303777D01*
X339702323Y-36327058D01*
X339721041Y-36352296D01*
X339737194Y-36379246D01*
X339750628Y-36407650D01*
X339761213Y-36437234D01*
X339768848Y-36467713D01*
X339773458Y-36498793D01*
X339775000Y-36530176D01*
X339775000Y-37714824D01*
X339773458Y-37746207D01*
X339768848Y-37777287D01*
X339761213Y-37807766D01*
X339750628Y-37837350D01*
X339737194Y-37865754D01*
X339721041Y-37892704D01*
X339702323Y-37917942D01*
X339681223Y-37941223D01*
X339657942Y-37962323D01*
X339632704Y-37981041D01*
X339605754Y-37997194D01*
X339577350Y-38010628D01*
X339547766Y-38021213D01*
X339517287Y-38028848D01*
X339486207Y-38033458D01*
X339454824Y-38035000D01*
X337945176Y-38035000D01*
X337913793Y-38033458D01*
X337882713Y-38028848D01*
X337852234Y-38021213D01*
X337822650Y-38010628D01*
X337794246Y-37997194D01*
X337767296Y-37981041D01*
X337742058Y-37962323D01*
X337718777Y-37941223D01*
X337697677Y-37917942D01*
X337678959Y-37892704D01*
X337662806Y-37865754D01*
X337649372Y-37837350D01*
X337638787Y-37807766D01*
X337631152Y-37777287D01*
X337626542Y-37746207D01*
X337625000Y-37714824D01*
X337625000Y-36530176D01*
X337626542Y-36498793D01*
X337631152Y-36467713D01*
X337638787Y-36437234D01*
X337649372Y-36407650D01*
X337662806Y-36379246D01*
X337678959Y-36352296D01*
X337697677Y-36327058D01*
X337718777Y-36303777D01*
X337742058Y-36282677D01*
X337767296Y-36263959D01*
X337794246Y-36247806D01*
X337822650Y-36234372D01*
X337852234Y-36223787D01*
X337882713Y-36216152D01*
X337913793Y-36211542D01*
X337945176Y-36210000D01*
X339454824Y-36210000D01*
X339486207Y-36211542D01*
X339486207Y-36211542D01*
G37*
D16*
X338700000Y-37122500D03*
D15*
G36*
X339486207Y-39186542D02*
X339517287Y-39191152D01*
X339547766Y-39198787D01*
X339577350Y-39209372D01*
X339605754Y-39222806D01*
X339632704Y-39238959D01*
X339657942Y-39257677D01*
X339681223Y-39278777D01*
X339702323Y-39302058D01*
X339721041Y-39327296D01*
X339737194Y-39354246D01*
X339750628Y-39382650D01*
X339761213Y-39412234D01*
X339768848Y-39442713D01*
X339773458Y-39473793D01*
X339775000Y-39505176D01*
X339775000Y-40689824D01*
X339773458Y-40721207D01*
X339768848Y-40752287D01*
X339761213Y-40782766D01*
X339750628Y-40812350D01*
X339737194Y-40840754D01*
X339721041Y-40867704D01*
X339702323Y-40892942D01*
X339681223Y-40916223D01*
X339657942Y-40937323D01*
X339632704Y-40956041D01*
X339605754Y-40972194D01*
X339577350Y-40985628D01*
X339547766Y-40996213D01*
X339517287Y-41003848D01*
X339486207Y-41008458D01*
X339454824Y-41010000D01*
X337945176Y-41010000D01*
X337913793Y-41008458D01*
X337882713Y-41003848D01*
X337852234Y-40996213D01*
X337822650Y-40985628D01*
X337794246Y-40972194D01*
X337767296Y-40956041D01*
X337742058Y-40937323D01*
X337718777Y-40916223D01*
X337697677Y-40892942D01*
X337678959Y-40867704D01*
X337662806Y-40840754D01*
X337649372Y-40812350D01*
X337638787Y-40782766D01*
X337631152Y-40752287D01*
X337626542Y-40721207D01*
X337625000Y-40689824D01*
X337625000Y-39505176D01*
X337626542Y-39473793D01*
X337631152Y-39442713D01*
X337638787Y-39412234D01*
X337649372Y-39382650D01*
X337662806Y-39354246D01*
X337678959Y-39327296D01*
X337697677Y-39302058D01*
X337718777Y-39278777D01*
X337742058Y-39257677D01*
X337767296Y-39238959D01*
X337794246Y-39222806D01*
X337822650Y-39209372D01*
X337852234Y-39198787D01*
X337882713Y-39191152D01*
X337913793Y-39186542D01*
X337945176Y-39185000D01*
X339454824Y-39185000D01*
X339486207Y-39186542D01*
X339486207Y-39186542D01*
G37*
D16*
X338700000Y-40097500D03*
G04 #@! TD*
D15*
G04 #@! TO.C,D38*
G36*
X346836207Y-36211542D02*
X346867287Y-36216152D01*
X346897766Y-36223787D01*
X346927350Y-36234372D01*
X346955754Y-36247806D01*
X346982704Y-36263959D01*
X347007942Y-36282677D01*
X347031223Y-36303777D01*
X347052323Y-36327058D01*
X347071041Y-36352296D01*
X347087194Y-36379246D01*
X347100628Y-36407650D01*
X347111213Y-36437234D01*
X347118848Y-36467713D01*
X347123458Y-36498793D01*
X347125000Y-36530176D01*
X347125000Y-37714824D01*
X347123458Y-37746207D01*
X347118848Y-37777287D01*
X347111213Y-37807766D01*
X347100628Y-37837350D01*
X347087194Y-37865754D01*
X347071041Y-37892704D01*
X347052323Y-37917942D01*
X347031223Y-37941223D01*
X347007942Y-37962323D01*
X346982704Y-37981041D01*
X346955754Y-37997194D01*
X346927350Y-38010628D01*
X346897766Y-38021213D01*
X346867287Y-38028848D01*
X346836207Y-38033458D01*
X346804824Y-38035000D01*
X345295176Y-38035000D01*
X345263793Y-38033458D01*
X345232713Y-38028848D01*
X345202234Y-38021213D01*
X345172650Y-38010628D01*
X345144246Y-37997194D01*
X345117296Y-37981041D01*
X345092058Y-37962323D01*
X345068777Y-37941223D01*
X345047677Y-37917942D01*
X345028959Y-37892704D01*
X345012806Y-37865754D01*
X344999372Y-37837350D01*
X344988787Y-37807766D01*
X344981152Y-37777287D01*
X344976542Y-37746207D01*
X344975000Y-37714824D01*
X344975000Y-36530176D01*
X344976542Y-36498793D01*
X344981152Y-36467713D01*
X344988787Y-36437234D01*
X344999372Y-36407650D01*
X345012806Y-36379246D01*
X345028959Y-36352296D01*
X345047677Y-36327058D01*
X345068777Y-36303777D01*
X345092058Y-36282677D01*
X345117296Y-36263959D01*
X345144246Y-36247806D01*
X345172650Y-36234372D01*
X345202234Y-36223787D01*
X345232713Y-36216152D01*
X345263793Y-36211542D01*
X345295176Y-36210000D01*
X346804824Y-36210000D01*
X346836207Y-36211542D01*
X346836207Y-36211542D01*
G37*
D16*
X346050000Y-37122500D03*
D15*
G36*
X346836207Y-39186542D02*
X346867287Y-39191152D01*
X346897766Y-39198787D01*
X346927350Y-39209372D01*
X346955754Y-39222806D01*
X346982704Y-39238959D01*
X347007942Y-39257677D01*
X347031223Y-39278777D01*
X347052323Y-39302058D01*
X347071041Y-39327296D01*
X347087194Y-39354246D01*
X347100628Y-39382650D01*
X347111213Y-39412234D01*
X347118848Y-39442713D01*
X347123458Y-39473793D01*
X347125000Y-39505176D01*
X347125000Y-40689824D01*
X347123458Y-40721207D01*
X347118848Y-40752287D01*
X347111213Y-40782766D01*
X347100628Y-40812350D01*
X347087194Y-40840754D01*
X347071041Y-40867704D01*
X347052323Y-40892942D01*
X347031223Y-40916223D01*
X347007942Y-40937323D01*
X346982704Y-40956041D01*
X346955754Y-40972194D01*
X346927350Y-40985628D01*
X346897766Y-40996213D01*
X346867287Y-41003848D01*
X346836207Y-41008458D01*
X346804824Y-41010000D01*
X345295176Y-41010000D01*
X345263793Y-41008458D01*
X345232713Y-41003848D01*
X345202234Y-40996213D01*
X345172650Y-40985628D01*
X345144246Y-40972194D01*
X345117296Y-40956041D01*
X345092058Y-40937323D01*
X345068777Y-40916223D01*
X345047677Y-40892942D01*
X345028959Y-40867704D01*
X345012806Y-40840754D01*
X344999372Y-40812350D01*
X344988787Y-40782766D01*
X344981152Y-40752287D01*
X344976542Y-40721207D01*
X344975000Y-40689824D01*
X344975000Y-39505176D01*
X344976542Y-39473793D01*
X344981152Y-39442713D01*
X344988787Y-39412234D01*
X344999372Y-39382650D01*
X345012806Y-39354246D01*
X345028959Y-39327296D01*
X345047677Y-39302058D01*
X345068777Y-39278777D01*
X345092058Y-39257677D01*
X345117296Y-39238959D01*
X345144246Y-39222806D01*
X345172650Y-39209372D01*
X345202234Y-39198787D01*
X345232713Y-39191152D01*
X345263793Y-39186542D01*
X345295176Y-39185000D01*
X346804824Y-39185000D01*
X346836207Y-39186542D01*
X346836207Y-39186542D01*
G37*
D16*
X346050000Y-40097500D03*
G04 #@! TD*
D15*
G04 #@! TO.C,D39*
G36*
X234686207Y-55251542D02*
X234717287Y-55256152D01*
X234747766Y-55263787D01*
X234777350Y-55274372D01*
X234805754Y-55287806D01*
X234832704Y-55303959D01*
X234857942Y-55322677D01*
X234881223Y-55343777D01*
X234902323Y-55367058D01*
X234921041Y-55392296D01*
X234937194Y-55419246D01*
X234950628Y-55447650D01*
X234961213Y-55477234D01*
X234968848Y-55507713D01*
X234973458Y-55538793D01*
X234975000Y-55570176D01*
X234975000Y-56754824D01*
X234973458Y-56786207D01*
X234968848Y-56817287D01*
X234961213Y-56847766D01*
X234950628Y-56877350D01*
X234937194Y-56905754D01*
X234921041Y-56932704D01*
X234902323Y-56957942D01*
X234881223Y-56981223D01*
X234857942Y-57002323D01*
X234832704Y-57021041D01*
X234805754Y-57037194D01*
X234777350Y-57050628D01*
X234747766Y-57061213D01*
X234717287Y-57068848D01*
X234686207Y-57073458D01*
X234654824Y-57075000D01*
X233145176Y-57075000D01*
X233113793Y-57073458D01*
X233082713Y-57068848D01*
X233052234Y-57061213D01*
X233022650Y-57050628D01*
X232994246Y-57037194D01*
X232967296Y-57021041D01*
X232942058Y-57002323D01*
X232918777Y-56981223D01*
X232897677Y-56957942D01*
X232878959Y-56932704D01*
X232862806Y-56905754D01*
X232849372Y-56877350D01*
X232838787Y-56847766D01*
X232831152Y-56817287D01*
X232826542Y-56786207D01*
X232825000Y-56754824D01*
X232825000Y-55570176D01*
X232826542Y-55538793D01*
X232831152Y-55507713D01*
X232838787Y-55477234D01*
X232849372Y-55447650D01*
X232862806Y-55419246D01*
X232878959Y-55392296D01*
X232897677Y-55367058D01*
X232918777Y-55343777D01*
X232942058Y-55322677D01*
X232967296Y-55303959D01*
X232994246Y-55287806D01*
X233022650Y-55274372D01*
X233052234Y-55263787D01*
X233082713Y-55256152D01*
X233113793Y-55251542D01*
X233145176Y-55250000D01*
X234654824Y-55250000D01*
X234686207Y-55251542D01*
X234686207Y-55251542D01*
G37*
D16*
X233900000Y-56162500D03*
D15*
G36*
X234686207Y-58226542D02*
X234717287Y-58231152D01*
X234747766Y-58238787D01*
X234777350Y-58249372D01*
X234805754Y-58262806D01*
X234832704Y-58278959D01*
X234857942Y-58297677D01*
X234881223Y-58318777D01*
X234902323Y-58342058D01*
X234921041Y-58367296D01*
X234937194Y-58394246D01*
X234950628Y-58422650D01*
X234961213Y-58452234D01*
X234968848Y-58482713D01*
X234973458Y-58513793D01*
X234975000Y-58545176D01*
X234975000Y-59729824D01*
X234973458Y-59761207D01*
X234968848Y-59792287D01*
X234961213Y-59822766D01*
X234950628Y-59852350D01*
X234937194Y-59880754D01*
X234921041Y-59907704D01*
X234902323Y-59932942D01*
X234881223Y-59956223D01*
X234857942Y-59977323D01*
X234832704Y-59996041D01*
X234805754Y-60012194D01*
X234777350Y-60025628D01*
X234747766Y-60036213D01*
X234717287Y-60043848D01*
X234686207Y-60048458D01*
X234654824Y-60050000D01*
X233145176Y-60050000D01*
X233113793Y-60048458D01*
X233082713Y-60043848D01*
X233052234Y-60036213D01*
X233022650Y-60025628D01*
X232994246Y-60012194D01*
X232967296Y-59996041D01*
X232942058Y-59977323D01*
X232918777Y-59956223D01*
X232897677Y-59932942D01*
X232878959Y-59907704D01*
X232862806Y-59880754D01*
X232849372Y-59852350D01*
X232838787Y-59822766D01*
X232831152Y-59792287D01*
X232826542Y-59761207D01*
X232825000Y-59729824D01*
X232825000Y-58545176D01*
X232826542Y-58513793D01*
X232831152Y-58482713D01*
X232838787Y-58452234D01*
X232849372Y-58422650D01*
X232862806Y-58394246D01*
X232878959Y-58367296D01*
X232897677Y-58342058D01*
X232918777Y-58318777D01*
X232942058Y-58297677D01*
X232967296Y-58278959D01*
X232994246Y-58262806D01*
X233022650Y-58249372D01*
X233052234Y-58238787D01*
X233082713Y-58231152D01*
X233113793Y-58226542D01*
X233145176Y-58225000D01*
X234654824Y-58225000D01*
X234686207Y-58226542D01*
X234686207Y-58226542D01*
G37*
D16*
X233900000Y-59137500D03*
G04 #@! TD*
D15*
G04 #@! TO.C,D40*
G36*
X253736207Y-55251542D02*
X253767287Y-55256152D01*
X253797766Y-55263787D01*
X253827350Y-55274372D01*
X253855754Y-55287806D01*
X253882704Y-55303959D01*
X253907942Y-55322677D01*
X253931223Y-55343777D01*
X253952323Y-55367058D01*
X253971041Y-55392296D01*
X253987194Y-55419246D01*
X254000628Y-55447650D01*
X254011213Y-55477234D01*
X254018848Y-55507713D01*
X254023458Y-55538793D01*
X254025000Y-55570176D01*
X254025000Y-56754824D01*
X254023458Y-56786207D01*
X254018848Y-56817287D01*
X254011213Y-56847766D01*
X254000628Y-56877350D01*
X253987194Y-56905754D01*
X253971041Y-56932704D01*
X253952323Y-56957942D01*
X253931223Y-56981223D01*
X253907942Y-57002323D01*
X253882704Y-57021041D01*
X253855754Y-57037194D01*
X253827350Y-57050628D01*
X253797766Y-57061213D01*
X253767287Y-57068848D01*
X253736207Y-57073458D01*
X253704824Y-57075000D01*
X252195176Y-57075000D01*
X252163793Y-57073458D01*
X252132713Y-57068848D01*
X252102234Y-57061213D01*
X252072650Y-57050628D01*
X252044246Y-57037194D01*
X252017296Y-57021041D01*
X251992058Y-57002323D01*
X251968777Y-56981223D01*
X251947677Y-56957942D01*
X251928959Y-56932704D01*
X251912806Y-56905754D01*
X251899372Y-56877350D01*
X251888787Y-56847766D01*
X251881152Y-56817287D01*
X251876542Y-56786207D01*
X251875000Y-56754824D01*
X251875000Y-55570176D01*
X251876542Y-55538793D01*
X251881152Y-55507713D01*
X251888787Y-55477234D01*
X251899372Y-55447650D01*
X251912806Y-55419246D01*
X251928959Y-55392296D01*
X251947677Y-55367058D01*
X251968777Y-55343777D01*
X251992058Y-55322677D01*
X252017296Y-55303959D01*
X252044246Y-55287806D01*
X252072650Y-55274372D01*
X252102234Y-55263787D01*
X252132713Y-55256152D01*
X252163793Y-55251542D01*
X252195176Y-55250000D01*
X253704824Y-55250000D01*
X253736207Y-55251542D01*
X253736207Y-55251542D01*
G37*
D16*
X252950000Y-56162500D03*
D15*
G36*
X253736207Y-58226542D02*
X253767287Y-58231152D01*
X253797766Y-58238787D01*
X253827350Y-58249372D01*
X253855754Y-58262806D01*
X253882704Y-58278959D01*
X253907942Y-58297677D01*
X253931223Y-58318777D01*
X253952323Y-58342058D01*
X253971041Y-58367296D01*
X253987194Y-58394246D01*
X254000628Y-58422650D01*
X254011213Y-58452234D01*
X254018848Y-58482713D01*
X254023458Y-58513793D01*
X254025000Y-58545176D01*
X254025000Y-59729824D01*
X254023458Y-59761207D01*
X254018848Y-59792287D01*
X254011213Y-59822766D01*
X254000628Y-59852350D01*
X253987194Y-59880754D01*
X253971041Y-59907704D01*
X253952323Y-59932942D01*
X253931223Y-59956223D01*
X253907942Y-59977323D01*
X253882704Y-59996041D01*
X253855754Y-60012194D01*
X253827350Y-60025628D01*
X253797766Y-60036213D01*
X253767287Y-60043848D01*
X253736207Y-60048458D01*
X253704824Y-60050000D01*
X252195176Y-60050000D01*
X252163793Y-60048458D01*
X252132713Y-60043848D01*
X252102234Y-60036213D01*
X252072650Y-60025628D01*
X252044246Y-60012194D01*
X252017296Y-59996041D01*
X251992058Y-59977323D01*
X251968777Y-59956223D01*
X251947677Y-59932942D01*
X251928959Y-59907704D01*
X251912806Y-59880754D01*
X251899372Y-59852350D01*
X251888787Y-59822766D01*
X251881152Y-59792287D01*
X251876542Y-59761207D01*
X251875000Y-59729824D01*
X251875000Y-58545176D01*
X251876542Y-58513793D01*
X251881152Y-58482713D01*
X251888787Y-58452234D01*
X251899372Y-58422650D01*
X251912806Y-58394246D01*
X251928959Y-58367296D01*
X251947677Y-58342058D01*
X251968777Y-58318777D01*
X251992058Y-58297677D01*
X252017296Y-58278959D01*
X252044246Y-58262806D01*
X252072650Y-58249372D01*
X252102234Y-58238787D01*
X252132713Y-58231152D01*
X252163793Y-58226542D01*
X252195176Y-58225000D01*
X253704824Y-58225000D01*
X253736207Y-58226542D01*
X253736207Y-58226542D01*
G37*
D16*
X252950000Y-59137500D03*
G04 #@! TD*
D15*
G04 #@! TO.C,D41*
G36*
X272786207Y-55251542D02*
X272817287Y-55256152D01*
X272847766Y-55263787D01*
X272877350Y-55274372D01*
X272905754Y-55287806D01*
X272932704Y-55303959D01*
X272957942Y-55322677D01*
X272981223Y-55343777D01*
X273002323Y-55367058D01*
X273021041Y-55392296D01*
X273037194Y-55419246D01*
X273050628Y-55447650D01*
X273061213Y-55477234D01*
X273068848Y-55507713D01*
X273073458Y-55538793D01*
X273075000Y-55570176D01*
X273075000Y-56754824D01*
X273073458Y-56786207D01*
X273068848Y-56817287D01*
X273061213Y-56847766D01*
X273050628Y-56877350D01*
X273037194Y-56905754D01*
X273021041Y-56932704D01*
X273002323Y-56957942D01*
X272981223Y-56981223D01*
X272957942Y-57002323D01*
X272932704Y-57021041D01*
X272905754Y-57037194D01*
X272877350Y-57050628D01*
X272847766Y-57061213D01*
X272817287Y-57068848D01*
X272786207Y-57073458D01*
X272754824Y-57075000D01*
X271245176Y-57075000D01*
X271213793Y-57073458D01*
X271182713Y-57068848D01*
X271152234Y-57061213D01*
X271122650Y-57050628D01*
X271094246Y-57037194D01*
X271067296Y-57021041D01*
X271042058Y-57002323D01*
X271018777Y-56981223D01*
X270997677Y-56957942D01*
X270978959Y-56932704D01*
X270962806Y-56905754D01*
X270949372Y-56877350D01*
X270938787Y-56847766D01*
X270931152Y-56817287D01*
X270926542Y-56786207D01*
X270925000Y-56754824D01*
X270925000Y-55570176D01*
X270926542Y-55538793D01*
X270931152Y-55507713D01*
X270938787Y-55477234D01*
X270949372Y-55447650D01*
X270962806Y-55419246D01*
X270978959Y-55392296D01*
X270997677Y-55367058D01*
X271018777Y-55343777D01*
X271042058Y-55322677D01*
X271067296Y-55303959D01*
X271094246Y-55287806D01*
X271122650Y-55274372D01*
X271152234Y-55263787D01*
X271182713Y-55256152D01*
X271213793Y-55251542D01*
X271245176Y-55250000D01*
X272754824Y-55250000D01*
X272786207Y-55251542D01*
X272786207Y-55251542D01*
G37*
D16*
X272000000Y-56162500D03*
D15*
G36*
X272786207Y-58226542D02*
X272817287Y-58231152D01*
X272847766Y-58238787D01*
X272877350Y-58249372D01*
X272905754Y-58262806D01*
X272932704Y-58278959D01*
X272957942Y-58297677D01*
X272981223Y-58318777D01*
X273002323Y-58342058D01*
X273021041Y-58367296D01*
X273037194Y-58394246D01*
X273050628Y-58422650D01*
X273061213Y-58452234D01*
X273068848Y-58482713D01*
X273073458Y-58513793D01*
X273075000Y-58545176D01*
X273075000Y-59729824D01*
X273073458Y-59761207D01*
X273068848Y-59792287D01*
X273061213Y-59822766D01*
X273050628Y-59852350D01*
X273037194Y-59880754D01*
X273021041Y-59907704D01*
X273002323Y-59932942D01*
X272981223Y-59956223D01*
X272957942Y-59977323D01*
X272932704Y-59996041D01*
X272905754Y-60012194D01*
X272877350Y-60025628D01*
X272847766Y-60036213D01*
X272817287Y-60043848D01*
X272786207Y-60048458D01*
X272754824Y-60050000D01*
X271245176Y-60050000D01*
X271213793Y-60048458D01*
X271182713Y-60043848D01*
X271152234Y-60036213D01*
X271122650Y-60025628D01*
X271094246Y-60012194D01*
X271067296Y-59996041D01*
X271042058Y-59977323D01*
X271018777Y-59956223D01*
X270997677Y-59932942D01*
X270978959Y-59907704D01*
X270962806Y-59880754D01*
X270949372Y-59852350D01*
X270938787Y-59822766D01*
X270931152Y-59792287D01*
X270926542Y-59761207D01*
X270925000Y-59729824D01*
X270925000Y-58545176D01*
X270926542Y-58513793D01*
X270931152Y-58482713D01*
X270938787Y-58452234D01*
X270949372Y-58422650D01*
X270962806Y-58394246D01*
X270978959Y-58367296D01*
X270997677Y-58342058D01*
X271018777Y-58318777D01*
X271042058Y-58297677D01*
X271067296Y-58278959D01*
X271094246Y-58262806D01*
X271122650Y-58249372D01*
X271152234Y-58238787D01*
X271182713Y-58231152D01*
X271213793Y-58226542D01*
X271245176Y-58225000D01*
X272754824Y-58225000D01*
X272786207Y-58226542D01*
X272786207Y-58226542D01*
G37*
D16*
X272000000Y-59137500D03*
G04 #@! TD*
D15*
G04 #@! TO.C,D42*
G36*
X291836207Y-55251542D02*
X291867287Y-55256152D01*
X291897766Y-55263787D01*
X291927350Y-55274372D01*
X291955754Y-55287806D01*
X291982704Y-55303959D01*
X292007942Y-55322677D01*
X292031223Y-55343777D01*
X292052323Y-55367058D01*
X292071041Y-55392296D01*
X292087194Y-55419246D01*
X292100628Y-55447650D01*
X292111213Y-55477234D01*
X292118848Y-55507713D01*
X292123458Y-55538793D01*
X292125000Y-55570176D01*
X292125000Y-56754824D01*
X292123458Y-56786207D01*
X292118848Y-56817287D01*
X292111213Y-56847766D01*
X292100628Y-56877350D01*
X292087194Y-56905754D01*
X292071041Y-56932704D01*
X292052323Y-56957942D01*
X292031223Y-56981223D01*
X292007942Y-57002323D01*
X291982704Y-57021041D01*
X291955754Y-57037194D01*
X291927350Y-57050628D01*
X291897766Y-57061213D01*
X291867287Y-57068848D01*
X291836207Y-57073458D01*
X291804824Y-57075000D01*
X290295176Y-57075000D01*
X290263793Y-57073458D01*
X290232713Y-57068848D01*
X290202234Y-57061213D01*
X290172650Y-57050628D01*
X290144246Y-57037194D01*
X290117296Y-57021041D01*
X290092058Y-57002323D01*
X290068777Y-56981223D01*
X290047677Y-56957942D01*
X290028959Y-56932704D01*
X290012806Y-56905754D01*
X289999372Y-56877350D01*
X289988787Y-56847766D01*
X289981152Y-56817287D01*
X289976542Y-56786207D01*
X289975000Y-56754824D01*
X289975000Y-55570176D01*
X289976542Y-55538793D01*
X289981152Y-55507713D01*
X289988787Y-55477234D01*
X289999372Y-55447650D01*
X290012806Y-55419246D01*
X290028959Y-55392296D01*
X290047677Y-55367058D01*
X290068777Y-55343777D01*
X290092058Y-55322677D01*
X290117296Y-55303959D01*
X290144246Y-55287806D01*
X290172650Y-55274372D01*
X290202234Y-55263787D01*
X290232713Y-55256152D01*
X290263793Y-55251542D01*
X290295176Y-55250000D01*
X291804824Y-55250000D01*
X291836207Y-55251542D01*
X291836207Y-55251542D01*
G37*
D16*
X291050000Y-56162500D03*
D15*
G36*
X291836207Y-58226542D02*
X291867287Y-58231152D01*
X291897766Y-58238787D01*
X291927350Y-58249372D01*
X291955754Y-58262806D01*
X291982704Y-58278959D01*
X292007942Y-58297677D01*
X292031223Y-58318777D01*
X292052323Y-58342058D01*
X292071041Y-58367296D01*
X292087194Y-58394246D01*
X292100628Y-58422650D01*
X292111213Y-58452234D01*
X292118848Y-58482713D01*
X292123458Y-58513793D01*
X292125000Y-58545176D01*
X292125000Y-59729824D01*
X292123458Y-59761207D01*
X292118848Y-59792287D01*
X292111213Y-59822766D01*
X292100628Y-59852350D01*
X292087194Y-59880754D01*
X292071041Y-59907704D01*
X292052323Y-59932942D01*
X292031223Y-59956223D01*
X292007942Y-59977323D01*
X291982704Y-59996041D01*
X291955754Y-60012194D01*
X291927350Y-60025628D01*
X291897766Y-60036213D01*
X291867287Y-60043848D01*
X291836207Y-60048458D01*
X291804824Y-60050000D01*
X290295176Y-60050000D01*
X290263793Y-60048458D01*
X290232713Y-60043848D01*
X290202234Y-60036213D01*
X290172650Y-60025628D01*
X290144246Y-60012194D01*
X290117296Y-59996041D01*
X290092058Y-59977323D01*
X290068777Y-59956223D01*
X290047677Y-59932942D01*
X290028959Y-59907704D01*
X290012806Y-59880754D01*
X289999372Y-59852350D01*
X289988787Y-59822766D01*
X289981152Y-59792287D01*
X289976542Y-59761207D01*
X289975000Y-59729824D01*
X289975000Y-58545176D01*
X289976542Y-58513793D01*
X289981152Y-58482713D01*
X289988787Y-58452234D01*
X289999372Y-58422650D01*
X290012806Y-58394246D01*
X290028959Y-58367296D01*
X290047677Y-58342058D01*
X290068777Y-58318777D01*
X290092058Y-58297677D01*
X290117296Y-58278959D01*
X290144246Y-58262806D01*
X290172650Y-58249372D01*
X290202234Y-58238787D01*
X290232713Y-58231152D01*
X290263793Y-58226542D01*
X290295176Y-58225000D01*
X291804824Y-58225000D01*
X291836207Y-58226542D01*
X291836207Y-58226542D01*
G37*
D16*
X291050000Y-59137500D03*
G04 #@! TD*
D15*
G04 #@! TO.C,D43*
G36*
X310886207Y-55251542D02*
X310917287Y-55256152D01*
X310947766Y-55263787D01*
X310977350Y-55274372D01*
X311005754Y-55287806D01*
X311032704Y-55303959D01*
X311057942Y-55322677D01*
X311081223Y-55343777D01*
X311102323Y-55367058D01*
X311121041Y-55392296D01*
X311137194Y-55419246D01*
X311150628Y-55447650D01*
X311161213Y-55477234D01*
X311168848Y-55507713D01*
X311173458Y-55538793D01*
X311175000Y-55570176D01*
X311175000Y-56754824D01*
X311173458Y-56786207D01*
X311168848Y-56817287D01*
X311161213Y-56847766D01*
X311150628Y-56877350D01*
X311137194Y-56905754D01*
X311121041Y-56932704D01*
X311102323Y-56957942D01*
X311081223Y-56981223D01*
X311057942Y-57002323D01*
X311032704Y-57021041D01*
X311005754Y-57037194D01*
X310977350Y-57050628D01*
X310947766Y-57061213D01*
X310917287Y-57068848D01*
X310886207Y-57073458D01*
X310854824Y-57075000D01*
X309345176Y-57075000D01*
X309313793Y-57073458D01*
X309282713Y-57068848D01*
X309252234Y-57061213D01*
X309222650Y-57050628D01*
X309194246Y-57037194D01*
X309167296Y-57021041D01*
X309142058Y-57002323D01*
X309118777Y-56981223D01*
X309097677Y-56957942D01*
X309078959Y-56932704D01*
X309062806Y-56905754D01*
X309049372Y-56877350D01*
X309038787Y-56847766D01*
X309031152Y-56817287D01*
X309026542Y-56786207D01*
X309025000Y-56754824D01*
X309025000Y-55570176D01*
X309026542Y-55538793D01*
X309031152Y-55507713D01*
X309038787Y-55477234D01*
X309049372Y-55447650D01*
X309062806Y-55419246D01*
X309078959Y-55392296D01*
X309097677Y-55367058D01*
X309118777Y-55343777D01*
X309142058Y-55322677D01*
X309167296Y-55303959D01*
X309194246Y-55287806D01*
X309222650Y-55274372D01*
X309252234Y-55263787D01*
X309282713Y-55256152D01*
X309313793Y-55251542D01*
X309345176Y-55250000D01*
X310854824Y-55250000D01*
X310886207Y-55251542D01*
X310886207Y-55251542D01*
G37*
D16*
X310100000Y-56162500D03*
D15*
G36*
X310886207Y-58226542D02*
X310917287Y-58231152D01*
X310947766Y-58238787D01*
X310977350Y-58249372D01*
X311005754Y-58262806D01*
X311032704Y-58278959D01*
X311057942Y-58297677D01*
X311081223Y-58318777D01*
X311102323Y-58342058D01*
X311121041Y-58367296D01*
X311137194Y-58394246D01*
X311150628Y-58422650D01*
X311161213Y-58452234D01*
X311168848Y-58482713D01*
X311173458Y-58513793D01*
X311175000Y-58545176D01*
X311175000Y-59729824D01*
X311173458Y-59761207D01*
X311168848Y-59792287D01*
X311161213Y-59822766D01*
X311150628Y-59852350D01*
X311137194Y-59880754D01*
X311121041Y-59907704D01*
X311102323Y-59932942D01*
X311081223Y-59956223D01*
X311057942Y-59977323D01*
X311032704Y-59996041D01*
X311005754Y-60012194D01*
X310977350Y-60025628D01*
X310947766Y-60036213D01*
X310917287Y-60043848D01*
X310886207Y-60048458D01*
X310854824Y-60050000D01*
X309345176Y-60050000D01*
X309313793Y-60048458D01*
X309282713Y-60043848D01*
X309252234Y-60036213D01*
X309222650Y-60025628D01*
X309194246Y-60012194D01*
X309167296Y-59996041D01*
X309142058Y-59977323D01*
X309118777Y-59956223D01*
X309097677Y-59932942D01*
X309078959Y-59907704D01*
X309062806Y-59880754D01*
X309049372Y-59852350D01*
X309038787Y-59822766D01*
X309031152Y-59792287D01*
X309026542Y-59761207D01*
X309025000Y-59729824D01*
X309025000Y-58545176D01*
X309026542Y-58513793D01*
X309031152Y-58482713D01*
X309038787Y-58452234D01*
X309049372Y-58422650D01*
X309062806Y-58394246D01*
X309078959Y-58367296D01*
X309097677Y-58342058D01*
X309118777Y-58318777D01*
X309142058Y-58297677D01*
X309167296Y-58278959D01*
X309194246Y-58262806D01*
X309222650Y-58249372D01*
X309252234Y-58238787D01*
X309282713Y-58231152D01*
X309313793Y-58226542D01*
X309345176Y-58225000D01*
X310854824Y-58225000D01*
X310886207Y-58226542D01*
X310886207Y-58226542D01*
G37*
D16*
X310100000Y-59137500D03*
G04 #@! TD*
D15*
G04 #@! TO.C,D44*
G36*
X329936207Y-55251542D02*
X329967287Y-55256152D01*
X329997766Y-55263787D01*
X330027350Y-55274372D01*
X330055754Y-55287806D01*
X330082704Y-55303959D01*
X330107942Y-55322677D01*
X330131223Y-55343777D01*
X330152323Y-55367058D01*
X330171041Y-55392296D01*
X330187194Y-55419246D01*
X330200628Y-55447650D01*
X330211213Y-55477234D01*
X330218848Y-55507713D01*
X330223458Y-55538793D01*
X330225000Y-55570176D01*
X330225000Y-56754824D01*
X330223458Y-56786207D01*
X330218848Y-56817287D01*
X330211213Y-56847766D01*
X330200628Y-56877350D01*
X330187194Y-56905754D01*
X330171041Y-56932704D01*
X330152323Y-56957942D01*
X330131223Y-56981223D01*
X330107942Y-57002323D01*
X330082704Y-57021041D01*
X330055754Y-57037194D01*
X330027350Y-57050628D01*
X329997766Y-57061213D01*
X329967287Y-57068848D01*
X329936207Y-57073458D01*
X329904824Y-57075000D01*
X328395176Y-57075000D01*
X328363793Y-57073458D01*
X328332713Y-57068848D01*
X328302234Y-57061213D01*
X328272650Y-57050628D01*
X328244246Y-57037194D01*
X328217296Y-57021041D01*
X328192058Y-57002323D01*
X328168777Y-56981223D01*
X328147677Y-56957942D01*
X328128959Y-56932704D01*
X328112806Y-56905754D01*
X328099372Y-56877350D01*
X328088787Y-56847766D01*
X328081152Y-56817287D01*
X328076542Y-56786207D01*
X328075000Y-56754824D01*
X328075000Y-55570176D01*
X328076542Y-55538793D01*
X328081152Y-55507713D01*
X328088787Y-55477234D01*
X328099372Y-55447650D01*
X328112806Y-55419246D01*
X328128959Y-55392296D01*
X328147677Y-55367058D01*
X328168777Y-55343777D01*
X328192058Y-55322677D01*
X328217296Y-55303959D01*
X328244246Y-55287806D01*
X328272650Y-55274372D01*
X328302234Y-55263787D01*
X328332713Y-55256152D01*
X328363793Y-55251542D01*
X328395176Y-55250000D01*
X329904824Y-55250000D01*
X329936207Y-55251542D01*
X329936207Y-55251542D01*
G37*
D16*
X329150000Y-56162500D03*
D15*
G36*
X329936207Y-58226542D02*
X329967287Y-58231152D01*
X329997766Y-58238787D01*
X330027350Y-58249372D01*
X330055754Y-58262806D01*
X330082704Y-58278959D01*
X330107942Y-58297677D01*
X330131223Y-58318777D01*
X330152323Y-58342058D01*
X330171041Y-58367296D01*
X330187194Y-58394246D01*
X330200628Y-58422650D01*
X330211213Y-58452234D01*
X330218848Y-58482713D01*
X330223458Y-58513793D01*
X330225000Y-58545176D01*
X330225000Y-59729824D01*
X330223458Y-59761207D01*
X330218848Y-59792287D01*
X330211213Y-59822766D01*
X330200628Y-59852350D01*
X330187194Y-59880754D01*
X330171041Y-59907704D01*
X330152323Y-59932942D01*
X330131223Y-59956223D01*
X330107942Y-59977323D01*
X330082704Y-59996041D01*
X330055754Y-60012194D01*
X330027350Y-60025628D01*
X329997766Y-60036213D01*
X329967287Y-60043848D01*
X329936207Y-60048458D01*
X329904824Y-60050000D01*
X328395176Y-60050000D01*
X328363793Y-60048458D01*
X328332713Y-60043848D01*
X328302234Y-60036213D01*
X328272650Y-60025628D01*
X328244246Y-60012194D01*
X328217296Y-59996041D01*
X328192058Y-59977323D01*
X328168777Y-59956223D01*
X328147677Y-59932942D01*
X328128959Y-59907704D01*
X328112806Y-59880754D01*
X328099372Y-59852350D01*
X328088787Y-59822766D01*
X328081152Y-59792287D01*
X328076542Y-59761207D01*
X328075000Y-59729824D01*
X328075000Y-58545176D01*
X328076542Y-58513793D01*
X328081152Y-58482713D01*
X328088787Y-58452234D01*
X328099372Y-58422650D01*
X328112806Y-58394246D01*
X328128959Y-58367296D01*
X328147677Y-58342058D01*
X328168777Y-58318777D01*
X328192058Y-58297677D01*
X328217296Y-58278959D01*
X328244246Y-58262806D01*
X328272650Y-58249372D01*
X328302234Y-58238787D01*
X328332713Y-58231152D01*
X328363793Y-58226542D01*
X328395176Y-58225000D01*
X329904824Y-58225000D01*
X329936207Y-58226542D01*
X329936207Y-58226542D01*
G37*
D16*
X329150000Y-59137500D03*
G04 #@! TD*
D15*
G04 #@! TO.C,D45*
G36*
X348986207Y-55251542D02*
X349017287Y-55256152D01*
X349047766Y-55263787D01*
X349077350Y-55274372D01*
X349105754Y-55287806D01*
X349132704Y-55303959D01*
X349157942Y-55322677D01*
X349181223Y-55343777D01*
X349202323Y-55367058D01*
X349221041Y-55392296D01*
X349237194Y-55419246D01*
X349250628Y-55447650D01*
X349261213Y-55477234D01*
X349268848Y-55507713D01*
X349273458Y-55538793D01*
X349275000Y-55570176D01*
X349275000Y-56754824D01*
X349273458Y-56786207D01*
X349268848Y-56817287D01*
X349261213Y-56847766D01*
X349250628Y-56877350D01*
X349237194Y-56905754D01*
X349221041Y-56932704D01*
X349202323Y-56957942D01*
X349181223Y-56981223D01*
X349157942Y-57002323D01*
X349132704Y-57021041D01*
X349105754Y-57037194D01*
X349077350Y-57050628D01*
X349047766Y-57061213D01*
X349017287Y-57068848D01*
X348986207Y-57073458D01*
X348954824Y-57075000D01*
X347445176Y-57075000D01*
X347413793Y-57073458D01*
X347382713Y-57068848D01*
X347352234Y-57061213D01*
X347322650Y-57050628D01*
X347294246Y-57037194D01*
X347267296Y-57021041D01*
X347242058Y-57002323D01*
X347218777Y-56981223D01*
X347197677Y-56957942D01*
X347178959Y-56932704D01*
X347162806Y-56905754D01*
X347149372Y-56877350D01*
X347138787Y-56847766D01*
X347131152Y-56817287D01*
X347126542Y-56786207D01*
X347125000Y-56754824D01*
X347125000Y-55570176D01*
X347126542Y-55538793D01*
X347131152Y-55507713D01*
X347138787Y-55477234D01*
X347149372Y-55447650D01*
X347162806Y-55419246D01*
X347178959Y-55392296D01*
X347197677Y-55367058D01*
X347218777Y-55343777D01*
X347242058Y-55322677D01*
X347267296Y-55303959D01*
X347294246Y-55287806D01*
X347322650Y-55274372D01*
X347352234Y-55263787D01*
X347382713Y-55256152D01*
X347413793Y-55251542D01*
X347445176Y-55250000D01*
X348954824Y-55250000D01*
X348986207Y-55251542D01*
X348986207Y-55251542D01*
G37*
D16*
X348200000Y-56162500D03*
D15*
G36*
X348986207Y-58226542D02*
X349017287Y-58231152D01*
X349047766Y-58238787D01*
X349077350Y-58249372D01*
X349105754Y-58262806D01*
X349132704Y-58278959D01*
X349157942Y-58297677D01*
X349181223Y-58318777D01*
X349202323Y-58342058D01*
X349221041Y-58367296D01*
X349237194Y-58394246D01*
X349250628Y-58422650D01*
X349261213Y-58452234D01*
X349268848Y-58482713D01*
X349273458Y-58513793D01*
X349275000Y-58545176D01*
X349275000Y-59729824D01*
X349273458Y-59761207D01*
X349268848Y-59792287D01*
X349261213Y-59822766D01*
X349250628Y-59852350D01*
X349237194Y-59880754D01*
X349221041Y-59907704D01*
X349202323Y-59932942D01*
X349181223Y-59956223D01*
X349157942Y-59977323D01*
X349132704Y-59996041D01*
X349105754Y-60012194D01*
X349077350Y-60025628D01*
X349047766Y-60036213D01*
X349017287Y-60043848D01*
X348986207Y-60048458D01*
X348954824Y-60050000D01*
X347445176Y-60050000D01*
X347413793Y-60048458D01*
X347382713Y-60043848D01*
X347352234Y-60036213D01*
X347322650Y-60025628D01*
X347294246Y-60012194D01*
X347267296Y-59996041D01*
X347242058Y-59977323D01*
X347218777Y-59956223D01*
X347197677Y-59932942D01*
X347178959Y-59907704D01*
X347162806Y-59880754D01*
X347149372Y-59852350D01*
X347138787Y-59822766D01*
X347131152Y-59792287D01*
X347126542Y-59761207D01*
X347125000Y-59729824D01*
X347125000Y-58545176D01*
X347126542Y-58513793D01*
X347131152Y-58482713D01*
X347138787Y-58452234D01*
X347149372Y-58422650D01*
X347162806Y-58394246D01*
X347178959Y-58367296D01*
X347197677Y-58342058D01*
X347218777Y-58318777D01*
X347242058Y-58297677D01*
X347267296Y-58278959D01*
X347294246Y-58262806D01*
X347322650Y-58249372D01*
X347352234Y-58238787D01*
X347382713Y-58231152D01*
X347413793Y-58226542D01*
X347445176Y-58225000D01*
X348954824Y-58225000D01*
X348986207Y-58226542D01*
X348986207Y-58226542D01*
G37*
D16*
X348200000Y-59137500D03*
G04 #@! TD*
D15*
G04 #@! TO.C,D60*
G36*
X306136207Y-93361542D02*
X306167287Y-93366152D01*
X306197766Y-93373787D01*
X306227350Y-93384372D01*
X306255754Y-93397806D01*
X306282704Y-93413959D01*
X306307942Y-93432677D01*
X306331223Y-93453777D01*
X306352323Y-93477058D01*
X306371041Y-93502296D01*
X306387194Y-93529246D01*
X306400628Y-93557650D01*
X306411213Y-93587234D01*
X306418848Y-93617713D01*
X306423458Y-93648793D01*
X306425000Y-93680176D01*
X306425000Y-94864824D01*
X306423458Y-94896207D01*
X306418848Y-94927287D01*
X306411213Y-94957766D01*
X306400628Y-94987350D01*
X306387194Y-95015754D01*
X306371041Y-95042704D01*
X306352323Y-95067942D01*
X306331223Y-95091223D01*
X306307942Y-95112323D01*
X306282704Y-95131041D01*
X306255754Y-95147194D01*
X306227350Y-95160628D01*
X306197766Y-95171213D01*
X306167287Y-95178848D01*
X306136207Y-95183458D01*
X306104824Y-95185000D01*
X304595176Y-95185000D01*
X304563793Y-95183458D01*
X304532713Y-95178848D01*
X304502234Y-95171213D01*
X304472650Y-95160628D01*
X304444246Y-95147194D01*
X304417296Y-95131041D01*
X304392058Y-95112323D01*
X304368777Y-95091223D01*
X304347677Y-95067942D01*
X304328959Y-95042704D01*
X304312806Y-95015754D01*
X304299372Y-94987350D01*
X304288787Y-94957766D01*
X304281152Y-94927287D01*
X304276542Y-94896207D01*
X304275000Y-94864824D01*
X304275000Y-93680176D01*
X304276542Y-93648793D01*
X304281152Y-93617713D01*
X304288787Y-93587234D01*
X304299372Y-93557650D01*
X304312806Y-93529246D01*
X304328959Y-93502296D01*
X304347677Y-93477058D01*
X304368777Y-93453777D01*
X304392058Y-93432677D01*
X304417296Y-93413959D01*
X304444246Y-93397806D01*
X304472650Y-93384372D01*
X304502234Y-93373787D01*
X304532713Y-93366152D01*
X304563793Y-93361542D01*
X304595176Y-93360000D01*
X306104824Y-93360000D01*
X306136207Y-93361542D01*
X306136207Y-93361542D01*
G37*
D16*
X305350000Y-94272500D03*
D15*
G36*
X306136207Y-96336542D02*
X306167287Y-96341152D01*
X306197766Y-96348787D01*
X306227350Y-96359372D01*
X306255754Y-96372806D01*
X306282704Y-96388959D01*
X306307942Y-96407677D01*
X306331223Y-96428777D01*
X306352323Y-96452058D01*
X306371041Y-96477296D01*
X306387194Y-96504246D01*
X306400628Y-96532650D01*
X306411213Y-96562234D01*
X306418848Y-96592713D01*
X306423458Y-96623793D01*
X306425000Y-96655176D01*
X306425000Y-97839824D01*
X306423458Y-97871207D01*
X306418848Y-97902287D01*
X306411213Y-97932766D01*
X306400628Y-97962350D01*
X306387194Y-97990754D01*
X306371041Y-98017704D01*
X306352323Y-98042942D01*
X306331223Y-98066223D01*
X306307942Y-98087323D01*
X306282704Y-98106041D01*
X306255754Y-98122194D01*
X306227350Y-98135628D01*
X306197766Y-98146213D01*
X306167287Y-98153848D01*
X306136207Y-98158458D01*
X306104824Y-98160000D01*
X304595176Y-98160000D01*
X304563793Y-98158458D01*
X304532713Y-98153848D01*
X304502234Y-98146213D01*
X304472650Y-98135628D01*
X304444246Y-98122194D01*
X304417296Y-98106041D01*
X304392058Y-98087323D01*
X304368777Y-98066223D01*
X304347677Y-98042942D01*
X304328959Y-98017704D01*
X304312806Y-97990754D01*
X304299372Y-97962350D01*
X304288787Y-97932766D01*
X304281152Y-97902287D01*
X304276542Y-97871207D01*
X304275000Y-97839824D01*
X304275000Y-96655176D01*
X304276542Y-96623793D01*
X304281152Y-96592713D01*
X304288787Y-96562234D01*
X304299372Y-96532650D01*
X304312806Y-96504246D01*
X304328959Y-96477296D01*
X304347677Y-96452058D01*
X304368777Y-96428777D01*
X304392058Y-96407677D01*
X304417296Y-96388959D01*
X304444246Y-96372806D01*
X304472650Y-96359372D01*
X304502234Y-96348787D01*
X304532713Y-96341152D01*
X304563793Y-96336542D01*
X304595176Y-96335000D01*
X306104824Y-96335000D01*
X306136207Y-96336542D01*
X306136207Y-96336542D01*
G37*
D16*
X305350000Y-97247500D03*
G04 #@! TD*
D15*
G04 #@! TO.C,D61*
G36*
X325186207Y-93361542D02*
X325217287Y-93366152D01*
X325247766Y-93373787D01*
X325277350Y-93384372D01*
X325305754Y-93397806D01*
X325332704Y-93413959D01*
X325357942Y-93432677D01*
X325381223Y-93453777D01*
X325402323Y-93477058D01*
X325421041Y-93502296D01*
X325437194Y-93529246D01*
X325450628Y-93557650D01*
X325461213Y-93587234D01*
X325468848Y-93617713D01*
X325473458Y-93648793D01*
X325475000Y-93680176D01*
X325475000Y-94864824D01*
X325473458Y-94896207D01*
X325468848Y-94927287D01*
X325461213Y-94957766D01*
X325450628Y-94987350D01*
X325437194Y-95015754D01*
X325421041Y-95042704D01*
X325402323Y-95067942D01*
X325381223Y-95091223D01*
X325357942Y-95112323D01*
X325332704Y-95131041D01*
X325305754Y-95147194D01*
X325277350Y-95160628D01*
X325247766Y-95171213D01*
X325217287Y-95178848D01*
X325186207Y-95183458D01*
X325154824Y-95185000D01*
X323645176Y-95185000D01*
X323613793Y-95183458D01*
X323582713Y-95178848D01*
X323552234Y-95171213D01*
X323522650Y-95160628D01*
X323494246Y-95147194D01*
X323467296Y-95131041D01*
X323442058Y-95112323D01*
X323418777Y-95091223D01*
X323397677Y-95067942D01*
X323378959Y-95042704D01*
X323362806Y-95015754D01*
X323349372Y-94987350D01*
X323338787Y-94957766D01*
X323331152Y-94927287D01*
X323326542Y-94896207D01*
X323325000Y-94864824D01*
X323325000Y-93680176D01*
X323326542Y-93648793D01*
X323331152Y-93617713D01*
X323338787Y-93587234D01*
X323349372Y-93557650D01*
X323362806Y-93529246D01*
X323378959Y-93502296D01*
X323397677Y-93477058D01*
X323418777Y-93453777D01*
X323442058Y-93432677D01*
X323467296Y-93413959D01*
X323494246Y-93397806D01*
X323522650Y-93384372D01*
X323552234Y-93373787D01*
X323582713Y-93366152D01*
X323613793Y-93361542D01*
X323645176Y-93360000D01*
X325154824Y-93360000D01*
X325186207Y-93361542D01*
X325186207Y-93361542D01*
G37*
D16*
X324400000Y-94272500D03*
D15*
G36*
X325186207Y-96336542D02*
X325217287Y-96341152D01*
X325247766Y-96348787D01*
X325277350Y-96359372D01*
X325305754Y-96372806D01*
X325332704Y-96388959D01*
X325357942Y-96407677D01*
X325381223Y-96428777D01*
X325402323Y-96452058D01*
X325421041Y-96477296D01*
X325437194Y-96504246D01*
X325450628Y-96532650D01*
X325461213Y-96562234D01*
X325468848Y-96592713D01*
X325473458Y-96623793D01*
X325475000Y-96655176D01*
X325475000Y-97839824D01*
X325473458Y-97871207D01*
X325468848Y-97902287D01*
X325461213Y-97932766D01*
X325450628Y-97962350D01*
X325437194Y-97990754D01*
X325421041Y-98017704D01*
X325402323Y-98042942D01*
X325381223Y-98066223D01*
X325357942Y-98087323D01*
X325332704Y-98106041D01*
X325305754Y-98122194D01*
X325277350Y-98135628D01*
X325247766Y-98146213D01*
X325217287Y-98153848D01*
X325186207Y-98158458D01*
X325154824Y-98160000D01*
X323645176Y-98160000D01*
X323613793Y-98158458D01*
X323582713Y-98153848D01*
X323552234Y-98146213D01*
X323522650Y-98135628D01*
X323494246Y-98122194D01*
X323467296Y-98106041D01*
X323442058Y-98087323D01*
X323418777Y-98066223D01*
X323397677Y-98042942D01*
X323378959Y-98017704D01*
X323362806Y-97990754D01*
X323349372Y-97962350D01*
X323338787Y-97932766D01*
X323331152Y-97902287D01*
X323326542Y-97871207D01*
X323325000Y-97839824D01*
X323325000Y-96655176D01*
X323326542Y-96623793D01*
X323331152Y-96592713D01*
X323338787Y-96562234D01*
X323349372Y-96532650D01*
X323362806Y-96504246D01*
X323378959Y-96477296D01*
X323397677Y-96452058D01*
X323418777Y-96428777D01*
X323442058Y-96407677D01*
X323467296Y-96388959D01*
X323494246Y-96372806D01*
X323522650Y-96359372D01*
X323552234Y-96348787D01*
X323582713Y-96341152D01*
X323613793Y-96336542D01*
X323645176Y-96335000D01*
X325154824Y-96335000D01*
X325186207Y-96336542D01*
X325186207Y-96336542D01*
G37*
D16*
X324400000Y-97247500D03*
G04 #@! TD*
D15*
G04 #@! TO.C,D62*
G36*
X346606207Y-93361542D02*
X346637287Y-93366152D01*
X346667766Y-93373787D01*
X346697350Y-93384372D01*
X346725754Y-93397806D01*
X346752704Y-93413959D01*
X346777942Y-93432677D01*
X346801223Y-93453777D01*
X346822323Y-93477058D01*
X346841041Y-93502296D01*
X346857194Y-93529246D01*
X346870628Y-93557650D01*
X346881213Y-93587234D01*
X346888848Y-93617713D01*
X346893458Y-93648793D01*
X346895000Y-93680176D01*
X346895000Y-94864824D01*
X346893458Y-94896207D01*
X346888848Y-94927287D01*
X346881213Y-94957766D01*
X346870628Y-94987350D01*
X346857194Y-95015754D01*
X346841041Y-95042704D01*
X346822323Y-95067942D01*
X346801223Y-95091223D01*
X346777942Y-95112323D01*
X346752704Y-95131041D01*
X346725754Y-95147194D01*
X346697350Y-95160628D01*
X346667766Y-95171213D01*
X346637287Y-95178848D01*
X346606207Y-95183458D01*
X346574824Y-95185000D01*
X345065176Y-95185000D01*
X345033793Y-95183458D01*
X345002713Y-95178848D01*
X344972234Y-95171213D01*
X344942650Y-95160628D01*
X344914246Y-95147194D01*
X344887296Y-95131041D01*
X344862058Y-95112323D01*
X344838777Y-95091223D01*
X344817677Y-95067942D01*
X344798959Y-95042704D01*
X344782806Y-95015754D01*
X344769372Y-94987350D01*
X344758787Y-94957766D01*
X344751152Y-94927287D01*
X344746542Y-94896207D01*
X344745000Y-94864824D01*
X344745000Y-93680176D01*
X344746542Y-93648793D01*
X344751152Y-93617713D01*
X344758787Y-93587234D01*
X344769372Y-93557650D01*
X344782806Y-93529246D01*
X344798959Y-93502296D01*
X344817677Y-93477058D01*
X344838777Y-93453777D01*
X344862058Y-93432677D01*
X344887296Y-93413959D01*
X344914246Y-93397806D01*
X344942650Y-93384372D01*
X344972234Y-93373787D01*
X345002713Y-93366152D01*
X345033793Y-93361542D01*
X345065176Y-93360000D01*
X346574824Y-93360000D01*
X346606207Y-93361542D01*
X346606207Y-93361542D01*
G37*
D16*
X345820000Y-94272500D03*
D15*
G36*
X346606207Y-96336542D02*
X346637287Y-96341152D01*
X346667766Y-96348787D01*
X346697350Y-96359372D01*
X346725754Y-96372806D01*
X346752704Y-96388959D01*
X346777942Y-96407677D01*
X346801223Y-96428777D01*
X346822323Y-96452058D01*
X346841041Y-96477296D01*
X346857194Y-96504246D01*
X346870628Y-96532650D01*
X346881213Y-96562234D01*
X346888848Y-96592713D01*
X346893458Y-96623793D01*
X346895000Y-96655176D01*
X346895000Y-97839824D01*
X346893458Y-97871207D01*
X346888848Y-97902287D01*
X346881213Y-97932766D01*
X346870628Y-97962350D01*
X346857194Y-97990754D01*
X346841041Y-98017704D01*
X346822323Y-98042942D01*
X346801223Y-98066223D01*
X346777942Y-98087323D01*
X346752704Y-98106041D01*
X346725754Y-98122194D01*
X346697350Y-98135628D01*
X346667766Y-98146213D01*
X346637287Y-98153848D01*
X346606207Y-98158458D01*
X346574824Y-98160000D01*
X345065176Y-98160000D01*
X345033793Y-98158458D01*
X345002713Y-98153848D01*
X344972234Y-98146213D01*
X344942650Y-98135628D01*
X344914246Y-98122194D01*
X344887296Y-98106041D01*
X344862058Y-98087323D01*
X344838777Y-98066223D01*
X344817677Y-98042942D01*
X344798959Y-98017704D01*
X344782806Y-97990754D01*
X344769372Y-97962350D01*
X344758787Y-97932766D01*
X344751152Y-97902287D01*
X344746542Y-97871207D01*
X344745000Y-97839824D01*
X344745000Y-96655176D01*
X344746542Y-96623793D01*
X344751152Y-96592713D01*
X344758787Y-96562234D01*
X344769372Y-96532650D01*
X344782806Y-96504246D01*
X344798959Y-96477296D01*
X344817677Y-96452058D01*
X344838777Y-96428777D01*
X344862058Y-96407677D01*
X344887296Y-96388959D01*
X344914246Y-96372806D01*
X344942650Y-96359372D01*
X344972234Y-96348787D01*
X345002713Y-96341152D01*
X345033793Y-96336542D01*
X345065176Y-96335000D01*
X346574824Y-96335000D01*
X346606207Y-96336542D01*
X346606207Y-96336542D01*
G37*
D16*
X345820000Y-97247500D03*
G04 #@! TD*
D15*
G04 #@! TO.C,D63*
G36*
X352506207Y-93361542D02*
X352537287Y-93366152D01*
X352567766Y-93373787D01*
X352597350Y-93384372D01*
X352625754Y-93397806D01*
X352652704Y-93413959D01*
X352677942Y-93432677D01*
X352701223Y-93453777D01*
X352722323Y-93477058D01*
X352741041Y-93502296D01*
X352757194Y-93529246D01*
X352770628Y-93557650D01*
X352781213Y-93587234D01*
X352788848Y-93617713D01*
X352793458Y-93648793D01*
X352795000Y-93680176D01*
X352795000Y-94864824D01*
X352793458Y-94896207D01*
X352788848Y-94927287D01*
X352781213Y-94957766D01*
X352770628Y-94987350D01*
X352757194Y-95015754D01*
X352741041Y-95042704D01*
X352722323Y-95067942D01*
X352701223Y-95091223D01*
X352677942Y-95112323D01*
X352652704Y-95131041D01*
X352625754Y-95147194D01*
X352597350Y-95160628D01*
X352567766Y-95171213D01*
X352537287Y-95178848D01*
X352506207Y-95183458D01*
X352474824Y-95185000D01*
X350965176Y-95185000D01*
X350933793Y-95183458D01*
X350902713Y-95178848D01*
X350872234Y-95171213D01*
X350842650Y-95160628D01*
X350814246Y-95147194D01*
X350787296Y-95131041D01*
X350762058Y-95112323D01*
X350738777Y-95091223D01*
X350717677Y-95067942D01*
X350698959Y-95042704D01*
X350682806Y-95015754D01*
X350669372Y-94987350D01*
X350658787Y-94957766D01*
X350651152Y-94927287D01*
X350646542Y-94896207D01*
X350645000Y-94864824D01*
X350645000Y-93680176D01*
X350646542Y-93648793D01*
X350651152Y-93617713D01*
X350658787Y-93587234D01*
X350669372Y-93557650D01*
X350682806Y-93529246D01*
X350698959Y-93502296D01*
X350717677Y-93477058D01*
X350738777Y-93453777D01*
X350762058Y-93432677D01*
X350787296Y-93413959D01*
X350814246Y-93397806D01*
X350842650Y-93384372D01*
X350872234Y-93373787D01*
X350902713Y-93366152D01*
X350933793Y-93361542D01*
X350965176Y-93360000D01*
X352474824Y-93360000D01*
X352506207Y-93361542D01*
X352506207Y-93361542D01*
G37*
D16*
X351720000Y-94272500D03*
D15*
G36*
X352506207Y-96336542D02*
X352537287Y-96341152D01*
X352567766Y-96348787D01*
X352597350Y-96359372D01*
X352625754Y-96372806D01*
X352652704Y-96388959D01*
X352677942Y-96407677D01*
X352701223Y-96428777D01*
X352722323Y-96452058D01*
X352741041Y-96477296D01*
X352757194Y-96504246D01*
X352770628Y-96532650D01*
X352781213Y-96562234D01*
X352788848Y-96592713D01*
X352793458Y-96623793D01*
X352795000Y-96655176D01*
X352795000Y-97839824D01*
X352793458Y-97871207D01*
X352788848Y-97902287D01*
X352781213Y-97932766D01*
X352770628Y-97962350D01*
X352757194Y-97990754D01*
X352741041Y-98017704D01*
X352722323Y-98042942D01*
X352701223Y-98066223D01*
X352677942Y-98087323D01*
X352652704Y-98106041D01*
X352625754Y-98122194D01*
X352597350Y-98135628D01*
X352567766Y-98146213D01*
X352537287Y-98153848D01*
X352506207Y-98158458D01*
X352474824Y-98160000D01*
X350965176Y-98160000D01*
X350933793Y-98158458D01*
X350902713Y-98153848D01*
X350872234Y-98146213D01*
X350842650Y-98135628D01*
X350814246Y-98122194D01*
X350787296Y-98106041D01*
X350762058Y-98087323D01*
X350738777Y-98066223D01*
X350717677Y-98042942D01*
X350698959Y-98017704D01*
X350682806Y-97990754D01*
X350669372Y-97962350D01*
X350658787Y-97932766D01*
X350651152Y-97902287D01*
X350646542Y-97871207D01*
X350645000Y-97839824D01*
X350645000Y-96655176D01*
X350646542Y-96623793D01*
X350651152Y-96592713D01*
X350658787Y-96562234D01*
X350669372Y-96532650D01*
X350682806Y-96504246D01*
X350698959Y-96477296D01*
X350717677Y-96452058D01*
X350738777Y-96428777D01*
X350762058Y-96407677D01*
X350787296Y-96388959D01*
X350814246Y-96372806D01*
X350842650Y-96359372D01*
X350872234Y-96348787D01*
X350902713Y-96341152D01*
X350933793Y-96336542D01*
X350965176Y-96335000D01*
X352474824Y-96335000D01*
X352506207Y-96336542D01*
X352506207Y-96336542D01*
G37*
D16*
X351720000Y-97247500D03*
G04 #@! TD*
D15*
G04 #@! TO.C,D64*
G36*
X239446207Y-112431542D02*
X239477287Y-112436152D01*
X239507766Y-112443787D01*
X239537350Y-112454372D01*
X239565754Y-112467806D01*
X239592704Y-112483959D01*
X239617942Y-112502677D01*
X239641223Y-112523777D01*
X239662323Y-112547058D01*
X239681041Y-112572296D01*
X239697194Y-112599246D01*
X239710628Y-112627650D01*
X239721213Y-112657234D01*
X239728848Y-112687713D01*
X239733458Y-112718793D01*
X239735000Y-112750176D01*
X239735000Y-113934824D01*
X239733458Y-113966207D01*
X239728848Y-113997287D01*
X239721213Y-114027766D01*
X239710628Y-114057350D01*
X239697194Y-114085754D01*
X239681041Y-114112704D01*
X239662323Y-114137942D01*
X239641223Y-114161223D01*
X239617942Y-114182323D01*
X239592704Y-114201041D01*
X239565754Y-114217194D01*
X239537350Y-114230628D01*
X239507766Y-114241213D01*
X239477287Y-114248848D01*
X239446207Y-114253458D01*
X239414824Y-114255000D01*
X237905176Y-114255000D01*
X237873793Y-114253458D01*
X237842713Y-114248848D01*
X237812234Y-114241213D01*
X237782650Y-114230628D01*
X237754246Y-114217194D01*
X237727296Y-114201041D01*
X237702058Y-114182323D01*
X237678777Y-114161223D01*
X237657677Y-114137942D01*
X237638959Y-114112704D01*
X237622806Y-114085754D01*
X237609372Y-114057350D01*
X237598787Y-114027766D01*
X237591152Y-113997287D01*
X237586542Y-113966207D01*
X237585000Y-113934824D01*
X237585000Y-112750176D01*
X237586542Y-112718793D01*
X237591152Y-112687713D01*
X237598787Y-112657234D01*
X237609372Y-112627650D01*
X237622806Y-112599246D01*
X237638959Y-112572296D01*
X237657677Y-112547058D01*
X237678777Y-112523777D01*
X237702058Y-112502677D01*
X237727296Y-112483959D01*
X237754246Y-112467806D01*
X237782650Y-112454372D01*
X237812234Y-112443787D01*
X237842713Y-112436152D01*
X237873793Y-112431542D01*
X237905176Y-112430000D01*
X239414824Y-112430000D01*
X239446207Y-112431542D01*
X239446207Y-112431542D01*
G37*
D16*
X238660000Y-113342500D03*
D15*
G36*
X239446207Y-115406542D02*
X239477287Y-115411152D01*
X239507766Y-115418787D01*
X239537350Y-115429372D01*
X239565754Y-115442806D01*
X239592704Y-115458959D01*
X239617942Y-115477677D01*
X239641223Y-115498777D01*
X239662323Y-115522058D01*
X239681041Y-115547296D01*
X239697194Y-115574246D01*
X239710628Y-115602650D01*
X239721213Y-115632234D01*
X239728848Y-115662713D01*
X239733458Y-115693793D01*
X239735000Y-115725176D01*
X239735000Y-116909824D01*
X239733458Y-116941207D01*
X239728848Y-116972287D01*
X239721213Y-117002766D01*
X239710628Y-117032350D01*
X239697194Y-117060754D01*
X239681041Y-117087704D01*
X239662323Y-117112942D01*
X239641223Y-117136223D01*
X239617942Y-117157323D01*
X239592704Y-117176041D01*
X239565754Y-117192194D01*
X239537350Y-117205628D01*
X239507766Y-117216213D01*
X239477287Y-117223848D01*
X239446207Y-117228458D01*
X239414824Y-117230000D01*
X237905176Y-117230000D01*
X237873793Y-117228458D01*
X237842713Y-117223848D01*
X237812234Y-117216213D01*
X237782650Y-117205628D01*
X237754246Y-117192194D01*
X237727296Y-117176041D01*
X237702058Y-117157323D01*
X237678777Y-117136223D01*
X237657677Y-117112942D01*
X237638959Y-117087704D01*
X237622806Y-117060754D01*
X237609372Y-117032350D01*
X237598787Y-117002766D01*
X237591152Y-116972287D01*
X237586542Y-116941207D01*
X237585000Y-116909824D01*
X237585000Y-115725176D01*
X237586542Y-115693793D01*
X237591152Y-115662713D01*
X237598787Y-115632234D01*
X237609372Y-115602650D01*
X237622806Y-115574246D01*
X237638959Y-115547296D01*
X237657677Y-115522058D01*
X237678777Y-115498777D01*
X237702058Y-115477677D01*
X237727296Y-115458959D01*
X237754246Y-115442806D01*
X237782650Y-115429372D01*
X237812234Y-115418787D01*
X237842713Y-115411152D01*
X237873793Y-115406542D01*
X237905176Y-115405000D01*
X239414824Y-115405000D01*
X239446207Y-115406542D01*
X239446207Y-115406542D01*
G37*
D16*
X238660000Y-116317500D03*
G04 #@! TD*
D15*
G04 #@! TO.C,D65*
G36*
X275186207Y-112421542D02*
X275217287Y-112426152D01*
X275247766Y-112433787D01*
X275277350Y-112444372D01*
X275305754Y-112457806D01*
X275332704Y-112473959D01*
X275357942Y-112492677D01*
X275381223Y-112513777D01*
X275402323Y-112537058D01*
X275421041Y-112562296D01*
X275437194Y-112589246D01*
X275450628Y-112617650D01*
X275461213Y-112647234D01*
X275468848Y-112677713D01*
X275473458Y-112708793D01*
X275475000Y-112740176D01*
X275475000Y-113924824D01*
X275473458Y-113956207D01*
X275468848Y-113987287D01*
X275461213Y-114017766D01*
X275450628Y-114047350D01*
X275437194Y-114075754D01*
X275421041Y-114102704D01*
X275402323Y-114127942D01*
X275381223Y-114151223D01*
X275357942Y-114172323D01*
X275332704Y-114191041D01*
X275305754Y-114207194D01*
X275277350Y-114220628D01*
X275247766Y-114231213D01*
X275217287Y-114238848D01*
X275186207Y-114243458D01*
X275154824Y-114245000D01*
X273645176Y-114245000D01*
X273613793Y-114243458D01*
X273582713Y-114238848D01*
X273552234Y-114231213D01*
X273522650Y-114220628D01*
X273494246Y-114207194D01*
X273467296Y-114191041D01*
X273442058Y-114172323D01*
X273418777Y-114151223D01*
X273397677Y-114127942D01*
X273378959Y-114102704D01*
X273362806Y-114075754D01*
X273349372Y-114047350D01*
X273338787Y-114017766D01*
X273331152Y-113987287D01*
X273326542Y-113956207D01*
X273325000Y-113924824D01*
X273325000Y-112740176D01*
X273326542Y-112708793D01*
X273331152Y-112677713D01*
X273338787Y-112647234D01*
X273349372Y-112617650D01*
X273362806Y-112589246D01*
X273378959Y-112562296D01*
X273397677Y-112537058D01*
X273418777Y-112513777D01*
X273442058Y-112492677D01*
X273467296Y-112473959D01*
X273494246Y-112457806D01*
X273522650Y-112444372D01*
X273552234Y-112433787D01*
X273582713Y-112426152D01*
X273613793Y-112421542D01*
X273645176Y-112420000D01*
X275154824Y-112420000D01*
X275186207Y-112421542D01*
X275186207Y-112421542D01*
G37*
D16*
X274400000Y-113332500D03*
D15*
G36*
X275186207Y-115396542D02*
X275217287Y-115401152D01*
X275247766Y-115408787D01*
X275277350Y-115419372D01*
X275305754Y-115432806D01*
X275332704Y-115448959D01*
X275357942Y-115467677D01*
X275381223Y-115488777D01*
X275402323Y-115512058D01*
X275421041Y-115537296D01*
X275437194Y-115564246D01*
X275450628Y-115592650D01*
X275461213Y-115622234D01*
X275468848Y-115652713D01*
X275473458Y-115683793D01*
X275475000Y-115715176D01*
X275475000Y-116899824D01*
X275473458Y-116931207D01*
X275468848Y-116962287D01*
X275461213Y-116992766D01*
X275450628Y-117022350D01*
X275437194Y-117050754D01*
X275421041Y-117077704D01*
X275402323Y-117102942D01*
X275381223Y-117126223D01*
X275357942Y-117147323D01*
X275332704Y-117166041D01*
X275305754Y-117182194D01*
X275277350Y-117195628D01*
X275247766Y-117206213D01*
X275217287Y-117213848D01*
X275186207Y-117218458D01*
X275154824Y-117220000D01*
X273645176Y-117220000D01*
X273613793Y-117218458D01*
X273582713Y-117213848D01*
X273552234Y-117206213D01*
X273522650Y-117195628D01*
X273494246Y-117182194D01*
X273467296Y-117166041D01*
X273442058Y-117147323D01*
X273418777Y-117126223D01*
X273397677Y-117102942D01*
X273378959Y-117077704D01*
X273362806Y-117050754D01*
X273349372Y-117022350D01*
X273338787Y-116992766D01*
X273331152Y-116962287D01*
X273326542Y-116931207D01*
X273325000Y-116899824D01*
X273325000Y-115715176D01*
X273326542Y-115683793D01*
X273331152Y-115652713D01*
X273338787Y-115622234D01*
X273349372Y-115592650D01*
X273362806Y-115564246D01*
X273378959Y-115537296D01*
X273397677Y-115512058D01*
X273418777Y-115488777D01*
X273442058Y-115467677D01*
X273467296Y-115448959D01*
X273494246Y-115432806D01*
X273522650Y-115419372D01*
X273552234Y-115408787D01*
X273582713Y-115401152D01*
X273613793Y-115396542D01*
X273645176Y-115395000D01*
X275154824Y-115395000D01*
X275186207Y-115396542D01*
X275186207Y-115396542D01*
G37*
D16*
X274400000Y-116307500D03*
G04 #@! TD*
D15*
G04 #@! TO.C,D66*
G36*
X313276207Y-112411542D02*
X313307287Y-112416152D01*
X313337766Y-112423787D01*
X313367350Y-112434372D01*
X313395754Y-112447806D01*
X313422704Y-112463959D01*
X313447942Y-112482677D01*
X313471223Y-112503777D01*
X313492323Y-112527058D01*
X313511041Y-112552296D01*
X313527194Y-112579246D01*
X313540628Y-112607650D01*
X313551213Y-112637234D01*
X313558848Y-112667713D01*
X313563458Y-112698793D01*
X313565000Y-112730176D01*
X313565000Y-113914824D01*
X313563458Y-113946207D01*
X313558848Y-113977287D01*
X313551213Y-114007766D01*
X313540628Y-114037350D01*
X313527194Y-114065754D01*
X313511041Y-114092704D01*
X313492323Y-114117942D01*
X313471223Y-114141223D01*
X313447942Y-114162323D01*
X313422704Y-114181041D01*
X313395754Y-114197194D01*
X313367350Y-114210628D01*
X313337766Y-114221213D01*
X313307287Y-114228848D01*
X313276207Y-114233458D01*
X313244824Y-114235000D01*
X311735176Y-114235000D01*
X311703793Y-114233458D01*
X311672713Y-114228848D01*
X311642234Y-114221213D01*
X311612650Y-114210628D01*
X311584246Y-114197194D01*
X311557296Y-114181041D01*
X311532058Y-114162323D01*
X311508777Y-114141223D01*
X311487677Y-114117942D01*
X311468959Y-114092704D01*
X311452806Y-114065754D01*
X311439372Y-114037350D01*
X311428787Y-114007766D01*
X311421152Y-113977287D01*
X311416542Y-113946207D01*
X311415000Y-113914824D01*
X311415000Y-112730176D01*
X311416542Y-112698793D01*
X311421152Y-112667713D01*
X311428787Y-112637234D01*
X311439372Y-112607650D01*
X311452806Y-112579246D01*
X311468959Y-112552296D01*
X311487677Y-112527058D01*
X311508777Y-112503777D01*
X311532058Y-112482677D01*
X311557296Y-112463959D01*
X311584246Y-112447806D01*
X311612650Y-112434372D01*
X311642234Y-112423787D01*
X311672713Y-112416152D01*
X311703793Y-112411542D01*
X311735176Y-112410000D01*
X313244824Y-112410000D01*
X313276207Y-112411542D01*
X313276207Y-112411542D01*
G37*
D16*
X312490000Y-113322500D03*
D15*
G36*
X313276207Y-115386542D02*
X313307287Y-115391152D01*
X313337766Y-115398787D01*
X313367350Y-115409372D01*
X313395754Y-115422806D01*
X313422704Y-115438959D01*
X313447942Y-115457677D01*
X313471223Y-115478777D01*
X313492323Y-115502058D01*
X313511041Y-115527296D01*
X313527194Y-115554246D01*
X313540628Y-115582650D01*
X313551213Y-115612234D01*
X313558848Y-115642713D01*
X313563458Y-115673793D01*
X313565000Y-115705176D01*
X313565000Y-116889824D01*
X313563458Y-116921207D01*
X313558848Y-116952287D01*
X313551213Y-116982766D01*
X313540628Y-117012350D01*
X313527194Y-117040754D01*
X313511041Y-117067704D01*
X313492323Y-117092942D01*
X313471223Y-117116223D01*
X313447942Y-117137323D01*
X313422704Y-117156041D01*
X313395754Y-117172194D01*
X313367350Y-117185628D01*
X313337766Y-117196213D01*
X313307287Y-117203848D01*
X313276207Y-117208458D01*
X313244824Y-117210000D01*
X311735176Y-117210000D01*
X311703793Y-117208458D01*
X311672713Y-117203848D01*
X311642234Y-117196213D01*
X311612650Y-117185628D01*
X311584246Y-117172194D01*
X311557296Y-117156041D01*
X311532058Y-117137323D01*
X311508777Y-117116223D01*
X311487677Y-117092942D01*
X311468959Y-117067704D01*
X311452806Y-117040754D01*
X311439372Y-117012350D01*
X311428787Y-116982766D01*
X311421152Y-116952287D01*
X311416542Y-116921207D01*
X311415000Y-116889824D01*
X311415000Y-115705176D01*
X311416542Y-115673793D01*
X311421152Y-115642713D01*
X311428787Y-115612234D01*
X311439372Y-115582650D01*
X311452806Y-115554246D01*
X311468959Y-115527296D01*
X311487677Y-115502058D01*
X311508777Y-115478777D01*
X311532058Y-115457677D01*
X311557296Y-115438959D01*
X311584246Y-115422806D01*
X311612650Y-115409372D01*
X311642234Y-115398787D01*
X311672713Y-115391152D01*
X311703793Y-115386542D01*
X311735176Y-115385000D01*
X313244824Y-115385000D01*
X313276207Y-115386542D01*
X313276207Y-115386542D01*
G37*
D16*
X312490000Y-116297500D03*
G04 #@! TD*
D15*
G04 #@! TO.C,D67*
G36*
X349006207Y-112441542D02*
X349037287Y-112446152D01*
X349067766Y-112453787D01*
X349097350Y-112464372D01*
X349125754Y-112477806D01*
X349152704Y-112493959D01*
X349177942Y-112512677D01*
X349201223Y-112533777D01*
X349222323Y-112557058D01*
X349241041Y-112582296D01*
X349257194Y-112609246D01*
X349270628Y-112637650D01*
X349281213Y-112667234D01*
X349288848Y-112697713D01*
X349293458Y-112728793D01*
X349295000Y-112760176D01*
X349295000Y-113944824D01*
X349293458Y-113976207D01*
X349288848Y-114007287D01*
X349281213Y-114037766D01*
X349270628Y-114067350D01*
X349257194Y-114095754D01*
X349241041Y-114122704D01*
X349222323Y-114147942D01*
X349201223Y-114171223D01*
X349177942Y-114192323D01*
X349152704Y-114211041D01*
X349125754Y-114227194D01*
X349097350Y-114240628D01*
X349067766Y-114251213D01*
X349037287Y-114258848D01*
X349006207Y-114263458D01*
X348974824Y-114265000D01*
X347465176Y-114265000D01*
X347433793Y-114263458D01*
X347402713Y-114258848D01*
X347372234Y-114251213D01*
X347342650Y-114240628D01*
X347314246Y-114227194D01*
X347287296Y-114211041D01*
X347262058Y-114192323D01*
X347238777Y-114171223D01*
X347217677Y-114147942D01*
X347198959Y-114122704D01*
X347182806Y-114095754D01*
X347169372Y-114067350D01*
X347158787Y-114037766D01*
X347151152Y-114007287D01*
X347146542Y-113976207D01*
X347145000Y-113944824D01*
X347145000Y-112760176D01*
X347146542Y-112728793D01*
X347151152Y-112697713D01*
X347158787Y-112667234D01*
X347169372Y-112637650D01*
X347182806Y-112609246D01*
X347198959Y-112582296D01*
X347217677Y-112557058D01*
X347238777Y-112533777D01*
X347262058Y-112512677D01*
X347287296Y-112493959D01*
X347314246Y-112477806D01*
X347342650Y-112464372D01*
X347372234Y-112453787D01*
X347402713Y-112446152D01*
X347433793Y-112441542D01*
X347465176Y-112440000D01*
X348974824Y-112440000D01*
X349006207Y-112441542D01*
X349006207Y-112441542D01*
G37*
D16*
X348220000Y-113352500D03*
D15*
G36*
X349006207Y-115416542D02*
X349037287Y-115421152D01*
X349067766Y-115428787D01*
X349097350Y-115439372D01*
X349125754Y-115452806D01*
X349152704Y-115468959D01*
X349177942Y-115487677D01*
X349201223Y-115508777D01*
X349222323Y-115532058D01*
X349241041Y-115557296D01*
X349257194Y-115584246D01*
X349270628Y-115612650D01*
X349281213Y-115642234D01*
X349288848Y-115672713D01*
X349293458Y-115703793D01*
X349295000Y-115735176D01*
X349295000Y-116919824D01*
X349293458Y-116951207D01*
X349288848Y-116982287D01*
X349281213Y-117012766D01*
X349270628Y-117042350D01*
X349257194Y-117070754D01*
X349241041Y-117097704D01*
X349222323Y-117122942D01*
X349201223Y-117146223D01*
X349177942Y-117167323D01*
X349152704Y-117186041D01*
X349125754Y-117202194D01*
X349097350Y-117215628D01*
X349067766Y-117226213D01*
X349037287Y-117233848D01*
X349006207Y-117238458D01*
X348974824Y-117240000D01*
X347465176Y-117240000D01*
X347433793Y-117238458D01*
X347402713Y-117233848D01*
X347372234Y-117226213D01*
X347342650Y-117215628D01*
X347314246Y-117202194D01*
X347287296Y-117186041D01*
X347262058Y-117167323D01*
X347238777Y-117146223D01*
X347217677Y-117122942D01*
X347198959Y-117097704D01*
X347182806Y-117070754D01*
X347169372Y-117042350D01*
X347158787Y-117012766D01*
X347151152Y-116982287D01*
X347146542Y-116951207D01*
X347145000Y-116919824D01*
X347145000Y-115735176D01*
X347146542Y-115703793D01*
X347151152Y-115672713D01*
X347158787Y-115642234D01*
X347169372Y-115612650D01*
X347182806Y-115584246D01*
X347198959Y-115557296D01*
X347217677Y-115532058D01*
X347238777Y-115508777D01*
X347262058Y-115487677D01*
X347287296Y-115468959D01*
X347314246Y-115452806D01*
X347342650Y-115439372D01*
X347372234Y-115428787D01*
X347402713Y-115421152D01*
X347433793Y-115416542D01*
X347465176Y-115415000D01*
X348974824Y-115415000D01*
X349006207Y-115416542D01*
X349006207Y-115416542D01*
G37*
D16*
X348220000Y-116327500D03*
G04 #@! TD*
D15*
G04 #@! TO.C,D68*
G36*
X368046207Y-112401542D02*
X368077287Y-112406152D01*
X368107766Y-112413787D01*
X368137350Y-112424372D01*
X368165754Y-112437806D01*
X368192704Y-112453959D01*
X368217942Y-112472677D01*
X368241223Y-112493777D01*
X368262323Y-112517058D01*
X368281041Y-112542296D01*
X368297194Y-112569246D01*
X368310628Y-112597650D01*
X368321213Y-112627234D01*
X368328848Y-112657713D01*
X368333458Y-112688793D01*
X368335000Y-112720176D01*
X368335000Y-113904824D01*
X368333458Y-113936207D01*
X368328848Y-113967287D01*
X368321213Y-113997766D01*
X368310628Y-114027350D01*
X368297194Y-114055754D01*
X368281041Y-114082704D01*
X368262323Y-114107942D01*
X368241223Y-114131223D01*
X368217942Y-114152323D01*
X368192704Y-114171041D01*
X368165754Y-114187194D01*
X368137350Y-114200628D01*
X368107766Y-114211213D01*
X368077287Y-114218848D01*
X368046207Y-114223458D01*
X368014824Y-114225000D01*
X366505176Y-114225000D01*
X366473793Y-114223458D01*
X366442713Y-114218848D01*
X366412234Y-114211213D01*
X366382650Y-114200628D01*
X366354246Y-114187194D01*
X366327296Y-114171041D01*
X366302058Y-114152323D01*
X366278777Y-114131223D01*
X366257677Y-114107942D01*
X366238959Y-114082704D01*
X366222806Y-114055754D01*
X366209372Y-114027350D01*
X366198787Y-113997766D01*
X366191152Y-113967287D01*
X366186542Y-113936207D01*
X366185000Y-113904824D01*
X366185000Y-112720176D01*
X366186542Y-112688793D01*
X366191152Y-112657713D01*
X366198787Y-112627234D01*
X366209372Y-112597650D01*
X366222806Y-112569246D01*
X366238959Y-112542296D01*
X366257677Y-112517058D01*
X366278777Y-112493777D01*
X366302058Y-112472677D01*
X366327296Y-112453959D01*
X366354246Y-112437806D01*
X366382650Y-112424372D01*
X366412234Y-112413787D01*
X366442713Y-112406152D01*
X366473793Y-112401542D01*
X366505176Y-112400000D01*
X368014824Y-112400000D01*
X368046207Y-112401542D01*
X368046207Y-112401542D01*
G37*
D16*
X367260000Y-113312500D03*
D15*
G36*
X368046207Y-115376542D02*
X368077287Y-115381152D01*
X368107766Y-115388787D01*
X368137350Y-115399372D01*
X368165754Y-115412806D01*
X368192704Y-115428959D01*
X368217942Y-115447677D01*
X368241223Y-115468777D01*
X368262323Y-115492058D01*
X368281041Y-115517296D01*
X368297194Y-115544246D01*
X368310628Y-115572650D01*
X368321213Y-115602234D01*
X368328848Y-115632713D01*
X368333458Y-115663793D01*
X368335000Y-115695176D01*
X368335000Y-116879824D01*
X368333458Y-116911207D01*
X368328848Y-116942287D01*
X368321213Y-116972766D01*
X368310628Y-117002350D01*
X368297194Y-117030754D01*
X368281041Y-117057704D01*
X368262323Y-117082942D01*
X368241223Y-117106223D01*
X368217942Y-117127323D01*
X368192704Y-117146041D01*
X368165754Y-117162194D01*
X368137350Y-117175628D01*
X368107766Y-117186213D01*
X368077287Y-117193848D01*
X368046207Y-117198458D01*
X368014824Y-117200000D01*
X366505176Y-117200000D01*
X366473793Y-117198458D01*
X366442713Y-117193848D01*
X366412234Y-117186213D01*
X366382650Y-117175628D01*
X366354246Y-117162194D01*
X366327296Y-117146041D01*
X366302058Y-117127323D01*
X366278777Y-117106223D01*
X366257677Y-117082942D01*
X366238959Y-117057704D01*
X366222806Y-117030754D01*
X366209372Y-117002350D01*
X366198787Y-116972766D01*
X366191152Y-116942287D01*
X366186542Y-116911207D01*
X366185000Y-116879824D01*
X366185000Y-115695176D01*
X366186542Y-115663793D01*
X366191152Y-115632713D01*
X366198787Y-115602234D01*
X366209372Y-115572650D01*
X366222806Y-115544246D01*
X366238959Y-115517296D01*
X366257677Y-115492058D01*
X366278777Y-115468777D01*
X366302058Y-115447677D01*
X366327296Y-115428959D01*
X366354246Y-115412806D01*
X366382650Y-115399372D01*
X366412234Y-115388787D01*
X366442713Y-115381152D01*
X366473793Y-115376542D01*
X366505176Y-115375000D01*
X368014824Y-115375000D01*
X368046207Y-115376542D01*
X368046207Y-115376542D01*
G37*
D16*
X367260000Y-116287500D03*
G04 #@! TD*
D15*
G04 #@! TO.C,D69*
G36*
X387106207Y-112421542D02*
X387137287Y-112426152D01*
X387167766Y-112433787D01*
X387197350Y-112444372D01*
X387225754Y-112457806D01*
X387252704Y-112473959D01*
X387277942Y-112492677D01*
X387301223Y-112513777D01*
X387322323Y-112537058D01*
X387341041Y-112562296D01*
X387357194Y-112589246D01*
X387370628Y-112617650D01*
X387381213Y-112647234D01*
X387388848Y-112677713D01*
X387393458Y-112708793D01*
X387395000Y-112740176D01*
X387395000Y-113924824D01*
X387393458Y-113956207D01*
X387388848Y-113987287D01*
X387381213Y-114017766D01*
X387370628Y-114047350D01*
X387357194Y-114075754D01*
X387341041Y-114102704D01*
X387322323Y-114127942D01*
X387301223Y-114151223D01*
X387277942Y-114172323D01*
X387252704Y-114191041D01*
X387225754Y-114207194D01*
X387197350Y-114220628D01*
X387167766Y-114231213D01*
X387137287Y-114238848D01*
X387106207Y-114243458D01*
X387074824Y-114245000D01*
X385565176Y-114245000D01*
X385533793Y-114243458D01*
X385502713Y-114238848D01*
X385472234Y-114231213D01*
X385442650Y-114220628D01*
X385414246Y-114207194D01*
X385387296Y-114191041D01*
X385362058Y-114172323D01*
X385338777Y-114151223D01*
X385317677Y-114127942D01*
X385298959Y-114102704D01*
X385282806Y-114075754D01*
X385269372Y-114047350D01*
X385258787Y-114017766D01*
X385251152Y-113987287D01*
X385246542Y-113956207D01*
X385245000Y-113924824D01*
X385245000Y-112740176D01*
X385246542Y-112708793D01*
X385251152Y-112677713D01*
X385258787Y-112647234D01*
X385269372Y-112617650D01*
X385282806Y-112589246D01*
X385298959Y-112562296D01*
X385317677Y-112537058D01*
X385338777Y-112513777D01*
X385362058Y-112492677D01*
X385387296Y-112473959D01*
X385414246Y-112457806D01*
X385442650Y-112444372D01*
X385472234Y-112433787D01*
X385502713Y-112426152D01*
X385533793Y-112421542D01*
X385565176Y-112420000D01*
X387074824Y-112420000D01*
X387106207Y-112421542D01*
X387106207Y-112421542D01*
G37*
D16*
X386320000Y-113332500D03*
D15*
G36*
X387106207Y-115396542D02*
X387137287Y-115401152D01*
X387167766Y-115408787D01*
X387197350Y-115419372D01*
X387225754Y-115432806D01*
X387252704Y-115448959D01*
X387277942Y-115467677D01*
X387301223Y-115488777D01*
X387322323Y-115512058D01*
X387341041Y-115537296D01*
X387357194Y-115564246D01*
X387370628Y-115592650D01*
X387381213Y-115622234D01*
X387388848Y-115652713D01*
X387393458Y-115683793D01*
X387395000Y-115715176D01*
X387395000Y-116899824D01*
X387393458Y-116931207D01*
X387388848Y-116962287D01*
X387381213Y-116992766D01*
X387370628Y-117022350D01*
X387357194Y-117050754D01*
X387341041Y-117077704D01*
X387322323Y-117102942D01*
X387301223Y-117126223D01*
X387277942Y-117147323D01*
X387252704Y-117166041D01*
X387225754Y-117182194D01*
X387197350Y-117195628D01*
X387167766Y-117206213D01*
X387137287Y-117213848D01*
X387106207Y-117218458D01*
X387074824Y-117220000D01*
X385565176Y-117220000D01*
X385533793Y-117218458D01*
X385502713Y-117213848D01*
X385472234Y-117206213D01*
X385442650Y-117195628D01*
X385414246Y-117182194D01*
X385387296Y-117166041D01*
X385362058Y-117147323D01*
X385338777Y-117126223D01*
X385317677Y-117102942D01*
X385298959Y-117077704D01*
X385282806Y-117050754D01*
X385269372Y-117022350D01*
X385258787Y-116992766D01*
X385251152Y-116962287D01*
X385246542Y-116931207D01*
X385245000Y-116899824D01*
X385245000Y-115715176D01*
X385246542Y-115683793D01*
X385251152Y-115652713D01*
X385258787Y-115622234D01*
X385269372Y-115592650D01*
X385282806Y-115564246D01*
X385298959Y-115537296D01*
X385317677Y-115512058D01*
X385338777Y-115488777D01*
X385362058Y-115467677D01*
X385387296Y-115448959D01*
X385414246Y-115432806D01*
X385442650Y-115419372D01*
X385472234Y-115408787D01*
X385502713Y-115401152D01*
X385533793Y-115396542D01*
X385565176Y-115395000D01*
X387074824Y-115395000D01*
X387106207Y-115396542D01*
X387106207Y-115396542D01*
G37*
D16*
X386320000Y-116307500D03*
G04 #@! TD*
D20*
G04 #@! TO.C,JP_db1*
X340790478Y-81380000D03*
X339490478Y-81380000D03*
G04 #@! TD*
G04 #@! TO.C,JP_xa1*
X340790478Y-89010000D03*
X339490478Y-89010000D03*
G04 #@! TD*
G04 #@! TO.C,JP_xb1*
X340790478Y-92580000D03*
X339490478Y-92580000D03*
G04 #@! TD*
D15*
G04 #@! TO.C,R_data1*
G36*
X340076685Y-74016542D02*
X340107765Y-74021152D01*
X340138244Y-74028787D01*
X340167828Y-74039372D01*
X340196232Y-74052806D01*
X340223182Y-74068959D01*
X340248420Y-74087677D01*
X340271701Y-74108777D01*
X340292801Y-74132058D01*
X340311519Y-74157296D01*
X340327672Y-74184246D01*
X340341106Y-74212650D01*
X340351691Y-74242234D01*
X340359326Y-74272713D01*
X340363936Y-74303793D01*
X340365478Y-74335176D01*
X340365478Y-75844824D01*
X340363936Y-75876207D01*
X340359326Y-75907287D01*
X340351691Y-75937766D01*
X340341106Y-75967350D01*
X340327672Y-75995754D01*
X340311519Y-76022704D01*
X340292801Y-76047942D01*
X340271701Y-76071223D01*
X340248420Y-76092323D01*
X340223182Y-76111041D01*
X340196232Y-76127194D01*
X340167828Y-76140628D01*
X340138244Y-76151213D01*
X340107765Y-76158848D01*
X340076685Y-76163458D01*
X340045302Y-76165000D01*
X338860654Y-76165000D01*
X338829271Y-76163458D01*
X338798191Y-76158848D01*
X338767712Y-76151213D01*
X338738128Y-76140628D01*
X338709724Y-76127194D01*
X338682774Y-76111041D01*
X338657536Y-76092323D01*
X338634255Y-76071223D01*
X338613155Y-76047942D01*
X338594437Y-76022704D01*
X338578284Y-75995754D01*
X338564850Y-75967350D01*
X338554265Y-75937766D01*
X338546630Y-75907287D01*
X338542020Y-75876207D01*
X338540478Y-75844824D01*
X338540478Y-74335176D01*
X338542020Y-74303793D01*
X338546630Y-74272713D01*
X338554265Y-74242234D01*
X338564850Y-74212650D01*
X338578284Y-74184246D01*
X338594437Y-74157296D01*
X338613155Y-74132058D01*
X338634255Y-74108777D01*
X338657536Y-74087677D01*
X338682774Y-74068959D01*
X338709724Y-74052806D01*
X338738128Y-74039372D01*
X338767712Y-74028787D01*
X338798191Y-74021152D01*
X338829271Y-74016542D01*
X338860654Y-74015000D01*
X340045302Y-74015000D01*
X340076685Y-74016542D01*
X340076685Y-74016542D01*
G37*
D16*
X339452978Y-75090000D03*
D15*
G36*
X343051685Y-74016542D02*
X343082765Y-74021152D01*
X343113244Y-74028787D01*
X343142828Y-74039372D01*
X343171232Y-74052806D01*
X343198182Y-74068959D01*
X343223420Y-74087677D01*
X343246701Y-74108777D01*
X343267801Y-74132058D01*
X343286519Y-74157296D01*
X343302672Y-74184246D01*
X343316106Y-74212650D01*
X343326691Y-74242234D01*
X343334326Y-74272713D01*
X343338936Y-74303793D01*
X343340478Y-74335176D01*
X343340478Y-75844824D01*
X343338936Y-75876207D01*
X343334326Y-75907287D01*
X343326691Y-75937766D01*
X343316106Y-75967350D01*
X343302672Y-75995754D01*
X343286519Y-76022704D01*
X343267801Y-76047942D01*
X343246701Y-76071223D01*
X343223420Y-76092323D01*
X343198182Y-76111041D01*
X343171232Y-76127194D01*
X343142828Y-76140628D01*
X343113244Y-76151213D01*
X343082765Y-76158848D01*
X343051685Y-76163458D01*
X343020302Y-76165000D01*
X341835654Y-76165000D01*
X341804271Y-76163458D01*
X341773191Y-76158848D01*
X341742712Y-76151213D01*
X341713128Y-76140628D01*
X341684724Y-76127194D01*
X341657774Y-76111041D01*
X341632536Y-76092323D01*
X341609255Y-76071223D01*
X341588155Y-76047942D01*
X341569437Y-76022704D01*
X341553284Y-75995754D01*
X341539850Y-75967350D01*
X341529265Y-75937766D01*
X341521630Y-75907287D01*
X341517020Y-75876207D01*
X341515478Y-75844824D01*
X341515478Y-74335176D01*
X341517020Y-74303793D01*
X341521630Y-74272713D01*
X341529265Y-74242234D01*
X341539850Y-74212650D01*
X341553284Y-74184246D01*
X341569437Y-74157296D01*
X341588155Y-74132058D01*
X341609255Y-74108777D01*
X341632536Y-74087677D01*
X341657774Y-74068959D01*
X341684724Y-74052806D01*
X341713128Y-74039372D01*
X341742712Y-74028787D01*
X341773191Y-74021152D01*
X341804271Y-74016542D01*
X341835654Y-74015000D01*
X343020302Y-74015000D01*
X343051685Y-74016542D01*
X343051685Y-74016542D01*
G37*
D16*
X342427978Y-75090000D03*
G04 #@! TD*
D15*
G04 #@! TO.C,R_xdata1*
G36*
X340056207Y-84696542D02*
X340087287Y-84701152D01*
X340117766Y-84708787D01*
X340147350Y-84719372D01*
X340175754Y-84732806D01*
X340202704Y-84748959D01*
X340227942Y-84767677D01*
X340251223Y-84788777D01*
X340272323Y-84812058D01*
X340291041Y-84837296D01*
X340307194Y-84864246D01*
X340320628Y-84892650D01*
X340331213Y-84922234D01*
X340338848Y-84952713D01*
X340343458Y-84983793D01*
X340345000Y-85015176D01*
X340345000Y-86524824D01*
X340343458Y-86556207D01*
X340338848Y-86587287D01*
X340331213Y-86617766D01*
X340320628Y-86647350D01*
X340307194Y-86675754D01*
X340291041Y-86702704D01*
X340272323Y-86727942D01*
X340251223Y-86751223D01*
X340227942Y-86772323D01*
X340202704Y-86791041D01*
X340175754Y-86807194D01*
X340147350Y-86820628D01*
X340117766Y-86831213D01*
X340087287Y-86838848D01*
X340056207Y-86843458D01*
X340024824Y-86845000D01*
X338840176Y-86845000D01*
X338808793Y-86843458D01*
X338777713Y-86838848D01*
X338747234Y-86831213D01*
X338717650Y-86820628D01*
X338689246Y-86807194D01*
X338662296Y-86791041D01*
X338637058Y-86772323D01*
X338613777Y-86751223D01*
X338592677Y-86727942D01*
X338573959Y-86702704D01*
X338557806Y-86675754D01*
X338544372Y-86647350D01*
X338533787Y-86617766D01*
X338526152Y-86587287D01*
X338521542Y-86556207D01*
X338520000Y-86524824D01*
X338520000Y-85015176D01*
X338521542Y-84983793D01*
X338526152Y-84952713D01*
X338533787Y-84922234D01*
X338544372Y-84892650D01*
X338557806Y-84864246D01*
X338573959Y-84837296D01*
X338592677Y-84812058D01*
X338613777Y-84788777D01*
X338637058Y-84767677D01*
X338662296Y-84748959D01*
X338689246Y-84732806D01*
X338717650Y-84719372D01*
X338747234Y-84708787D01*
X338777713Y-84701152D01*
X338808793Y-84696542D01*
X338840176Y-84695000D01*
X340024824Y-84695000D01*
X340056207Y-84696542D01*
X340056207Y-84696542D01*
G37*
D16*
X339432500Y-85770000D03*
D15*
G36*
X343031207Y-84696542D02*
X343062287Y-84701152D01*
X343092766Y-84708787D01*
X343122350Y-84719372D01*
X343150754Y-84732806D01*
X343177704Y-84748959D01*
X343202942Y-84767677D01*
X343226223Y-84788777D01*
X343247323Y-84812058D01*
X343266041Y-84837296D01*
X343282194Y-84864246D01*
X343295628Y-84892650D01*
X343306213Y-84922234D01*
X343313848Y-84952713D01*
X343318458Y-84983793D01*
X343320000Y-85015176D01*
X343320000Y-86524824D01*
X343318458Y-86556207D01*
X343313848Y-86587287D01*
X343306213Y-86617766D01*
X343295628Y-86647350D01*
X343282194Y-86675754D01*
X343266041Y-86702704D01*
X343247323Y-86727942D01*
X343226223Y-86751223D01*
X343202942Y-86772323D01*
X343177704Y-86791041D01*
X343150754Y-86807194D01*
X343122350Y-86820628D01*
X343092766Y-86831213D01*
X343062287Y-86838848D01*
X343031207Y-86843458D01*
X342999824Y-86845000D01*
X341815176Y-86845000D01*
X341783793Y-86843458D01*
X341752713Y-86838848D01*
X341722234Y-86831213D01*
X341692650Y-86820628D01*
X341664246Y-86807194D01*
X341637296Y-86791041D01*
X341612058Y-86772323D01*
X341588777Y-86751223D01*
X341567677Y-86727942D01*
X341548959Y-86702704D01*
X341532806Y-86675754D01*
X341519372Y-86647350D01*
X341508787Y-86617766D01*
X341501152Y-86587287D01*
X341496542Y-86556207D01*
X341495000Y-86524824D01*
X341495000Y-85015176D01*
X341496542Y-84983793D01*
X341501152Y-84952713D01*
X341508787Y-84922234D01*
X341519372Y-84892650D01*
X341532806Y-84864246D01*
X341548959Y-84837296D01*
X341567677Y-84812058D01*
X341588777Y-84788777D01*
X341612058Y-84767677D01*
X341637296Y-84748959D01*
X341664246Y-84732806D01*
X341692650Y-84719372D01*
X341722234Y-84708787D01*
X341752713Y-84701152D01*
X341783793Y-84696542D01*
X341815176Y-84695000D01*
X342999824Y-84695000D01*
X343031207Y-84696542D01*
X343031207Y-84696542D01*
G37*
D16*
X342407500Y-85770000D03*
G04 #@! TD*
D10*
G04 #@! TO.C,SW62*
X347592750Y-102830000D03*
X333622750Y-105370000D03*
D11*
X334892750Y-100290000D03*
X345052750Y-100290000D03*
D12*
X339972750Y-100290000D03*
D13*
X343782750Y-102830000D03*
X337432750Y-105370000D03*
G04 #@! TD*
D10*
G04 #@! TO.C,SW67*
X349974000Y-121880000D03*
X336004000Y-124420000D03*
D11*
X337274000Y-119340000D03*
X347434000Y-119340000D03*
D12*
X342354000Y-119340000D03*
D13*
X346164000Y-121880000D03*
X339814000Y-124420000D03*
G04 #@! TD*
D10*
G04 #@! TO.C,SW68*
X369024000Y-121880000D03*
X355054000Y-124420000D03*
D11*
X356324000Y-119340000D03*
X366484000Y-119340000D03*
D12*
X361404000Y-119340000D03*
D13*
X365214000Y-121880000D03*
X358864000Y-124420000D03*
G04 #@! TD*
D21*
G04 #@! TO.C,SW_r1*
X362290000Y-73090000D03*
X362290000Y-78170000D03*
X369910000Y-73090000D03*
X369910000Y-78170000D03*
G04 #@! TD*
D22*
G04 #@! TO.C,U1*
X387200000Y-108570000D03*
X384660000Y-108570000D03*
X382120000Y-108570000D03*
X379580000Y-108570000D03*
X377040000Y-108570000D03*
X374500000Y-108570000D03*
X371960000Y-108570000D03*
X369420000Y-108570000D03*
X366880000Y-108570000D03*
X364340000Y-108570000D03*
X361800000Y-108570000D03*
X359260000Y-108570000D03*
X359260000Y-93330000D03*
X361800000Y-93330000D03*
X364340000Y-93330000D03*
X366880000Y-93330000D03*
X369420000Y-93330000D03*
X371960000Y-93330000D03*
X374500000Y-93330000D03*
X377040000Y-93330000D03*
X379580000Y-93330000D03*
X382120000Y-93330000D03*
X384660000Y-93330000D03*
D23*
X387200000Y-93330000D03*
G04 #@! TD*
D24*
G04 #@! TO.C,J1*
X388480000Y-74815000D03*
X381480000Y-74815000D03*
D25*
X386680000Y-72665000D03*
X383680000Y-72665000D03*
X379680000Y-72665000D03*
X378180000Y-76965000D03*
G04 #@! TD*
D19*
G04 #@! TO.C,h16*
X225540000Y-129610000D03*
G04 #@! TD*
D10*
G04 #@! TO.C,SW45*
X349975000Y-64730000D03*
X336005000Y-67270000D03*
D11*
X337275000Y-62190000D03*
X347435000Y-62190000D03*
D12*
X342355000Y-62190000D03*
D13*
X346165000Y-64730000D03*
X339815000Y-67270000D03*
G04 #@! TD*
D10*
G04 #@! TO.C,SW46*
X369025000Y-64730000D03*
X355055000Y-67270000D03*
D11*
X356325000Y-62190000D03*
X366485000Y-62190000D03*
D12*
X361405000Y-62190000D03*
D13*
X365215000Y-64730000D03*
X358865000Y-67270000D03*
G04 #@! TD*
D10*
G04 #@! TO.C,SW47*
X388075000Y-64730000D03*
X374105000Y-67270000D03*
D11*
X375375000Y-62190000D03*
X385535000Y-62190000D03*
D12*
X380455000Y-62190000D03*
D13*
X384265000Y-64730000D03*
X377915000Y-67270000D03*
G04 #@! TD*
D10*
G04 #@! TO.C,SW58*
X269012000Y-102830000D03*
X255042000Y-105370000D03*
D11*
X256312000Y-100290000D03*
X266472000Y-100290000D03*
D12*
X261392000Y-100290000D03*
D13*
X265202000Y-102830000D03*
X258852000Y-105370000D03*
G04 #@! TD*
D10*
G04 #@! TO.C,SW59*
X288062000Y-102830000D03*
X274092000Y-105370000D03*
D11*
X275362000Y-100290000D03*
X285522000Y-100290000D03*
D12*
X280442000Y-100290000D03*
D13*
X284252000Y-102830000D03*
X277902000Y-105370000D03*
G04 #@! TD*
D10*
G04 #@! TO.C,SW35*
X302350000Y-45680000D03*
X288380000Y-48220000D03*
D11*
X289650000Y-43140000D03*
X299810000Y-43140000D03*
D12*
X294730000Y-43140000D03*
D13*
X298540000Y-45680000D03*
X292190000Y-48220000D03*
G04 #@! TD*
D10*
G04 #@! TO.C,SW38*
X359500000Y-45680000D03*
X345530000Y-48220000D03*
D11*
X346800000Y-43140000D03*
X356960000Y-43140000D03*
D12*
X351880000Y-43140000D03*
D13*
X355690000Y-45680000D03*
X349340000Y-48220000D03*
G04 #@! TD*
D10*
G04 #@! TO.C,SW39*
X235675000Y-64730000D03*
X221705000Y-67270000D03*
D11*
X222975000Y-62190000D03*
X233135000Y-62190000D03*
D12*
X228055000Y-62190000D03*
D13*
X231865000Y-64730000D03*
X225515000Y-67270000D03*
G04 #@! TD*
D10*
G04 #@! TO.C,SW36*
X321400000Y-45680000D03*
X307430000Y-48220000D03*
D11*
X308700000Y-43140000D03*
X318860000Y-43140000D03*
D12*
X313780000Y-43140000D03*
D13*
X317590000Y-45680000D03*
X311240000Y-48220000D03*
G04 #@! TD*
D10*
G04 #@! TO.C,SW64*
X240437000Y-121880000D03*
X226467000Y-124420000D03*
D11*
X227737000Y-119340000D03*
X237897000Y-119340000D03*
D12*
X232817000Y-119340000D03*
D13*
X236627000Y-121880000D03*
X230277000Y-124420000D03*
G04 #@! TD*
D10*
G04 #@! TO.C,SW65*
X276156250Y-121880000D03*
X262186250Y-124420000D03*
D11*
X263456250Y-119340000D03*
X273616250Y-119340000D03*
D12*
X268536250Y-119340000D03*
D13*
X272346250Y-121880000D03*
X265996250Y-124420000D03*
G04 #@! TD*
D10*
G04 #@! TO.C,SW60*
X307112000Y-102830000D03*
X293142000Y-105370000D03*
D11*
X294412000Y-100290000D03*
X304572000Y-100290000D03*
D12*
X299492000Y-100290000D03*
D13*
X303302000Y-102830000D03*
X296952000Y-105370000D03*
G04 #@! TD*
D10*
G04 #@! TO.C,SW61*
X326162000Y-102830000D03*
X312192000Y-105370000D03*
D11*
X313462000Y-100290000D03*
X323622000Y-100290000D03*
D12*
X318542000Y-100290000D03*
D13*
X322352000Y-102830000D03*
X316002000Y-105370000D03*
G04 #@! TD*
D10*
G04 #@! TO.C,SW41*
X273775000Y-64730000D03*
X259805000Y-67270000D03*
D11*
X261075000Y-62190000D03*
X271235000Y-62190000D03*
D12*
X266155000Y-62190000D03*
D13*
X269965000Y-64730000D03*
X263615000Y-67270000D03*
G04 #@! TD*
D10*
G04 #@! TO.C,SW63*
X369024000Y-102830000D03*
X355054000Y-105370000D03*
D11*
X356324000Y-100290000D03*
X366484000Y-100290000D03*
D12*
X361404000Y-100290000D03*
D13*
X365214000Y-102830000D03*
X358864000Y-105370000D03*
G04 #@! TD*
D10*
G04 #@! TO.C,SW44*
X330925000Y-64730000D03*
X316955000Y-67270000D03*
D11*
X318225000Y-62190000D03*
X328385000Y-62190000D03*
D12*
X323305000Y-62190000D03*
D13*
X327115000Y-64730000D03*
X320765000Y-67270000D03*
G04 #@! TD*
D10*
G04 #@! TO.C,SW37*
X340450000Y-45680000D03*
X326480000Y-48220000D03*
D11*
X327750000Y-43140000D03*
X337910000Y-43140000D03*
D12*
X332830000Y-43140000D03*
D13*
X336640000Y-45680000D03*
X330290000Y-48220000D03*
G04 #@! TD*
D10*
G04 #@! TO.C,SW43*
X311875000Y-64730000D03*
X297905000Y-67270000D03*
D11*
X299175000Y-62190000D03*
X309335000Y-62190000D03*
D12*
X304255000Y-62190000D03*
D13*
X308065000Y-64730000D03*
X301715000Y-67270000D03*
G04 #@! TD*
D10*
G04 #@! TO.C,SW31*
X226150000Y-45680000D03*
X212180000Y-48220000D03*
D11*
X213450000Y-43140000D03*
X223610000Y-43140000D03*
D12*
X218530000Y-43140000D03*
D13*
X222340000Y-45680000D03*
X215990000Y-48220000D03*
G04 #@! TD*
D10*
G04 #@! TO.C,SW40*
X254725000Y-64730000D03*
X240755000Y-67270000D03*
D11*
X242025000Y-62190000D03*
X252185000Y-62190000D03*
D12*
X247105000Y-62190000D03*
D13*
X250915000Y-64730000D03*
X244565000Y-67270000D03*
G04 #@! TD*
D10*
G04 #@! TO.C,SW42*
X292825000Y-64730000D03*
X278855000Y-67270000D03*
D11*
X280125000Y-62190000D03*
X290285000Y-62190000D03*
D12*
X285205000Y-62190000D03*
D13*
X289015000Y-64730000D03*
X282665000Y-67270000D03*
G04 #@! TD*
D10*
G04 #@! TO.C,SW32*
X245200000Y-45680000D03*
X231230000Y-48220000D03*
D11*
X232500000Y-43140000D03*
X242660000Y-43140000D03*
D12*
X237580000Y-43140000D03*
D13*
X241390000Y-45680000D03*
X235040000Y-48220000D03*
G04 #@! TD*
D10*
G04 #@! TO.C,SW33*
X264250000Y-45680000D03*
X250280000Y-48220000D03*
D11*
X251550000Y-43140000D03*
X261710000Y-43140000D03*
D12*
X256630000Y-43140000D03*
D13*
X260440000Y-45680000D03*
X254090000Y-48220000D03*
G04 #@! TD*
D10*
G04 #@! TO.C,SW34*
X283300000Y-45680000D03*
X269330000Y-48220000D03*
D11*
X270600000Y-43140000D03*
X280760000Y-43140000D03*
D12*
X275680000Y-43140000D03*
D13*
X279490000Y-45680000D03*
X273140000Y-48220000D03*
G04 #@! TD*
D10*
G04 #@! TO.C,SW57*
X249962000Y-102830000D03*
X235992000Y-105370000D03*
D11*
X237262000Y-100290000D03*
X247422000Y-100290000D03*
D12*
X242342000Y-100290000D03*
D13*
X246152000Y-102830000D03*
X239802000Y-105370000D03*
G04 #@! TD*
D10*
G04 #@! TO.C,SW48*
X240432000Y-83780000D03*
X226462000Y-86320000D03*
D11*
X227732000Y-81240000D03*
X237892000Y-81240000D03*
D12*
X232812000Y-81240000D03*
D13*
X236622000Y-83780000D03*
X230272000Y-86320000D03*
G04 #@! TD*
D10*
G04 #@! TO.C,SW53*
X335687000Y-83780000D03*
X321717000Y-86320000D03*
D11*
X322987000Y-81240000D03*
X333147000Y-81240000D03*
D12*
X328067000Y-81240000D03*
D13*
X331877000Y-83780000D03*
X325527000Y-86320000D03*
G04 #@! TD*
D10*
G04 #@! TO.C,SW69*
X388075000Y-121880000D03*
X374105000Y-124420000D03*
D11*
X375375000Y-119340000D03*
X385535000Y-119340000D03*
D12*
X380455000Y-119340000D03*
D13*
X384265000Y-121880000D03*
X377915000Y-124420000D03*
G04 #@! TD*
D10*
G04 #@! TO.C,SW49*
X259487000Y-83780000D03*
X245517000Y-86320000D03*
D11*
X246787000Y-81240000D03*
X256947000Y-81240000D03*
D12*
X251867000Y-81240000D03*
D13*
X255677000Y-83780000D03*
X249327000Y-86320000D03*
G04 #@! TD*
D10*
G04 #@! TO.C,SW50*
X278537000Y-83780000D03*
X264567000Y-86320000D03*
D11*
X265837000Y-81240000D03*
X275997000Y-81240000D03*
D12*
X270917000Y-81240000D03*
D13*
X274727000Y-83780000D03*
X268377000Y-86320000D03*
G04 #@! TD*
D10*
G04 #@! TO.C,SW55*
X388075000Y-83780000D03*
X374105000Y-86320000D03*
D11*
X375375000Y-81240000D03*
X385535000Y-81240000D03*
D12*
X380455000Y-81240000D03*
D13*
X384265000Y-83780000D03*
X377915000Y-86320000D03*
G04 #@! TD*
M02*
