G04 #@! TF.GenerationSoftware,KiCad,Pcbnew,(5.0.2)-1*
G04 #@! TF.CreationDate,2019-02-16T22:04:27+09:00*
G04 #@! TF.ProjectId,pakbd,70616b62-642e-46b6-9963-61645f706362,1*
G04 #@! TF.SameCoordinates,Original*
G04 #@! TF.FileFunction,Legend,Bot*
G04 #@! TF.FilePolarity,Positive*
%FSLAX46Y46*%
G04 Gerber Fmt 4.6, Leading zero omitted, Abs format (unit mm)*
G04 Created by KiCad (PCBNEW (5.0.2)-1) date 2019/02/16 22:04:27*
%MOMM*%
%LPD*%
G01*
G04 APERTURE LIST*
%ADD10C,0.300000*%
%ADD11C,0.120000*%
%ADD12C,0.150000*%
%ADD13C,0.100000*%
%ADD14C,1.825000*%
%ADD15C,2.600000*%
%ADD16R,16.900000X1.400000*%
%ADD17R,14.687500X1.400000*%
%ADD18C,3.400000*%
%ADD19C,4.400000*%
%ADD20C,2.200000*%
%ADD21R,3.400000X2.900000*%
%ADD22R,1.400000X1.900000*%
%ADD23O,1.900000X2.700000*%
%ADD24C,1.600000*%
%ADD25R,18.900000X1.400000*%
%ADD26C,3.450000*%
%ADD27C,1.670000*%
%ADD28R,1.670000X1.670000*%
%ADD29C,1.797000*%
G04 APERTURE END LIST*
D10*
X64598571Y-135943571D02*
X64598571Y-137443571D01*
X64598571Y-136015000D02*
X64455714Y-135943571D01*
X64170000Y-135943571D01*
X64027142Y-136015000D01*
X63955714Y-136086428D01*
X63884285Y-136229285D01*
X63884285Y-136657857D01*
X63955714Y-136800714D01*
X64027142Y-136872142D01*
X64170000Y-136943571D01*
X64455714Y-136943571D01*
X64598571Y-136872142D01*
X62598571Y-136943571D02*
X62598571Y-136157857D01*
X62670000Y-136015000D01*
X62812857Y-135943571D01*
X63098571Y-135943571D01*
X63241428Y-136015000D01*
X62598571Y-136872142D02*
X62741428Y-136943571D01*
X63098571Y-136943571D01*
X63241428Y-136872142D01*
X63312857Y-136729285D01*
X63312857Y-136586428D01*
X63241428Y-136443571D01*
X63098571Y-136372142D01*
X62741428Y-136372142D01*
X62598571Y-136300714D01*
X61884285Y-136943571D02*
X61884285Y-135443571D01*
X61741428Y-136372142D02*
X61312857Y-136943571D01*
X61312857Y-135943571D02*
X61884285Y-136515000D01*
X60670000Y-136943571D02*
X60670000Y-135443571D01*
X60670000Y-136015000D02*
X60527142Y-135943571D01*
X60241428Y-135943571D01*
X60098571Y-136015000D01*
X60027142Y-136086428D01*
X59955714Y-136229285D01*
X59955714Y-136657857D01*
X60027142Y-136800714D01*
X60098571Y-136872142D01*
X60241428Y-136943571D01*
X60527142Y-136943571D01*
X60670000Y-136872142D01*
X58670000Y-136943571D02*
X58670000Y-135443571D01*
X58670000Y-136872142D02*
X58812857Y-136943571D01*
X59098571Y-136943571D01*
X59241428Y-136872142D01*
X59312857Y-136800714D01*
X59384285Y-136657857D01*
X59384285Y-136229285D01*
X59312857Y-136086428D01*
X59241428Y-136015000D01*
X59098571Y-135943571D01*
X58812857Y-135943571D01*
X58670000Y-136015000D01*
X56812857Y-136943571D02*
X56812857Y-135943571D01*
X56812857Y-136229285D02*
X56741428Y-136086428D01*
X56670000Y-136015000D01*
X56527142Y-135943571D01*
X56384285Y-135943571D01*
X55312857Y-136872142D02*
X55455714Y-136943571D01*
X55741428Y-136943571D01*
X55884285Y-136872142D01*
X55955714Y-136729285D01*
X55955714Y-136157857D01*
X55884285Y-136015000D01*
X55741428Y-135943571D01*
X55455714Y-135943571D01*
X55312857Y-136015000D01*
X55241428Y-136157857D01*
X55241428Y-136300714D01*
X55955714Y-136443571D01*
X54741428Y-135943571D02*
X54384285Y-136943571D01*
X54027142Y-135943571D01*
X53527142Y-135586428D02*
X53455714Y-135515000D01*
X53312857Y-135443571D01*
X52955714Y-135443571D01*
X52812857Y-135515000D01*
X52741428Y-135586428D01*
X52670000Y-135729285D01*
X52670000Y-135872142D01*
X52741428Y-136086428D01*
X53598571Y-136943571D01*
X52670000Y-136943571D01*
X62491428Y-138779285D02*
X62562857Y-138707857D01*
X62705714Y-138636428D01*
X62848571Y-138636428D01*
X62991428Y-138707857D01*
X63062857Y-138779285D01*
X63134285Y-138922142D01*
X63134285Y-139065000D01*
X63062857Y-139207857D01*
X62991428Y-139279285D01*
X62848571Y-139350714D01*
X62705714Y-139350714D01*
X62562857Y-139279285D01*
X62491428Y-139207857D01*
X62491428Y-138636428D02*
X62491428Y-139207857D01*
X62420000Y-139279285D01*
X62348571Y-139279285D01*
X62205714Y-139207857D01*
X62134285Y-139065000D01*
X62134285Y-138707857D01*
X62277142Y-138493571D01*
X62491428Y-138350714D01*
X62777142Y-138279285D01*
X63062857Y-138350714D01*
X63277142Y-138493571D01*
X63420000Y-138707857D01*
X63491428Y-138993571D01*
X63420000Y-139279285D01*
X63277142Y-139493571D01*
X63062857Y-139636428D01*
X62777142Y-139707857D01*
X62491428Y-139636428D01*
X62277142Y-139493571D01*
X61848571Y-139636428D02*
X60705714Y-139636428D01*
X60491428Y-138493571D02*
X60134285Y-139493571D01*
X59777142Y-138493571D02*
X60134285Y-139493571D01*
X60277142Y-139850714D01*
X60348571Y-139922142D01*
X60491428Y-139993571D01*
X59277142Y-139422142D02*
X59134285Y-139493571D01*
X58848571Y-139493571D01*
X58705714Y-139422142D01*
X58634285Y-139279285D01*
X58634285Y-139207857D01*
X58705714Y-139065000D01*
X58848571Y-138993571D01*
X59062857Y-138993571D01*
X59205714Y-138922142D01*
X59277142Y-138779285D01*
X59277142Y-138707857D01*
X59205714Y-138565000D01*
X59062857Y-138493571D01*
X58848571Y-138493571D01*
X58705714Y-138565000D01*
X57991428Y-139493571D02*
X57991428Y-137993571D01*
X57848571Y-138922142D02*
X57420000Y-139493571D01*
X57420000Y-138493571D02*
X57991428Y-139065000D01*
X56562857Y-139493571D02*
X56705714Y-139422142D01*
X56777142Y-139350714D01*
X56848571Y-139207857D01*
X56848571Y-138779285D01*
X56777142Y-138636428D01*
X56705714Y-138565000D01*
X56562857Y-138493571D01*
X56348571Y-138493571D01*
X56205714Y-138565000D01*
X56134285Y-138636428D01*
X56062857Y-138779285D01*
X56062857Y-139207857D01*
X56134285Y-139350714D01*
X56205714Y-139422142D01*
X56348571Y-139493571D01*
X56562857Y-139493571D01*
X55420000Y-139493571D02*
X55420000Y-137993571D01*
X54777142Y-139493571D02*
X54777142Y-138707857D01*
X54848571Y-138565000D01*
X54991428Y-138493571D01*
X55205714Y-138493571D01*
X55348571Y-138565000D01*
X55420000Y-138636428D01*
X54277142Y-138493571D02*
X53705714Y-138493571D01*
X54062857Y-137993571D02*
X54062857Y-139279285D01*
X53991428Y-139422142D01*
X53848571Y-139493571D01*
X53705714Y-139493571D01*
D11*
G04 #@! TO.C,D4*
X116370000Y-44660000D02*
X116370000Y-40600000D01*
X116370000Y-40600000D02*
X118640000Y-40600000D01*
X118640000Y-40600000D02*
X118640000Y-44660000D01*
G04 #@! TO.C,D0*
X30645000Y-44660000D02*
X30645000Y-40600000D01*
X30645000Y-40600000D02*
X32915000Y-40600000D01*
X32915000Y-40600000D02*
X32915000Y-44660000D01*
G04 #@! TO.C,D3*
X99590000Y-40600000D02*
X99590000Y-44660000D01*
X97320000Y-40600000D02*
X99590000Y-40600000D01*
X97320000Y-44660000D02*
X97320000Y-40600000D01*
G04 #@! TO.C,D5*
X32915000Y-64367500D02*
X32915000Y-68427500D01*
X30645000Y-64367500D02*
X32915000Y-64367500D01*
X30645000Y-68427500D02*
X30645000Y-64367500D01*
G04 #@! TO.C,D6*
X51965000Y-64337500D02*
X51965000Y-68397500D01*
X49695000Y-64337500D02*
X51965000Y-64337500D01*
X49695000Y-68397500D02*
X49695000Y-64337500D01*
G04 #@! TO.C,D7*
X71015000Y-64367500D02*
X71015000Y-68427500D01*
X68745000Y-64367500D02*
X71015000Y-64367500D01*
X68745000Y-68427500D02*
X68745000Y-64367500D01*
G04 #@! TO.C,D1*
X59220000Y-44660000D02*
X59220000Y-40600000D01*
X59220000Y-40600000D02*
X61490000Y-40600000D01*
X61490000Y-40600000D02*
X61490000Y-44660000D01*
G04 #@! TO.C,D28*
X151977500Y-121497500D02*
X151977500Y-125557500D01*
X149707500Y-121497500D02*
X151977500Y-121497500D01*
X149707500Y-125557500D02*
X149707500Y-121497500D01*
G04 #@! TO.C,D2*
X78270000Y-44660000D02*
X78270000Y-40600000D01*
X78270000Y-40600000D02*
X80540000Y-40600000D01*
X80540000Y-40600000D02*
X80540000Y-44660000D01*
G04 #@! TO.C,D25*
X92557500Y-125557500D02*
X92557500Y-121497500D01*
X92557500Y-121497500D02*
X94827500Y-121497500D01*
X94827500Y-121497500D02*
X94827500Y-125557500D01*
G04 #@! TO.C,D29*
X80651000Y-144657500D02*
X80651000Y-140597500D01*
X80651000Y-140597500D02*
X82921000Y-140597500D01*
X82921000Y-140597500D02*
X82921000Y-144657500D01*
G04 #@! TO.C,JP_da0*
X33860000Y-118450000D02*
X31060000Y-118450000D01*
X31060000Y-118450000D02*
X31060000Y-120450000D01*
X31060000Y-120450000D02*
X33860000Y-120450000D01*
X33860000Y-120450000D02*
X33860000Y-118450000D01*
G04 #@! TO.C,JP_xa0*
X33950000Y-99450000D02*
X31150000Y-99450000D01*
X31150000Y-99450000D02*
X31150000Y-101450000D01*
X31150000Y-101450000D02*
X33950000Y-101450000D01*
X33950000Y-101450000D02*
X33950000Y-99450000D01*
G04 #@! TO.C,R_xdata0*
X33942064Y-108800000D02*
X32737936Y-108800000D01*
X33942064Y-110620000D02*
X32737936Y-110620000D01*
G04 #@! TO.C,D18*
X63982500Y-106547500D02*
X63982500Y-102487500D01*
X63982500Y-102487500D02*
X66252500Y-102487500D01*
X66252500Y-102487500D02*
X66252500Y-106547500D01*
G04 #@! TO.C,D30*
X106733500Y-140597500D02*
X106733500Y-144657500D01*
X104463500Y-140597500D02*
X106733500Y-140597500D01*
X104463500Y-144657500D02*
X104463500Y-140597500D01*
G04 #@! TO.C,D8*
X87795000Y-68427500D02*
X87795000Y-64367500D01*
X87795000Y-64367500D02*
X90065000Y-64367500D01*
X90065000Y-64367500D02*
X90065000Y-68427500D01*
G04 #@! TO.C,D9*
X106845000Y-68427500D02*
X106845000Y-64367500D01*
X106845000Y-64367500D02*
X109115000Y-64367500D01*
X109115000Y-64367500D02*
X109115000Y-68427500D01*
G04 #@! TO.C,D26*
X111607500Y-125557500D02*
X111607500Y-121497500D01*
X111607500Y-121497500D02*
X113877500Y-121497500D01*
X113877500Y-121497500D02*
X113877500Y-125557500D01*
G04 #@! TO.C,R_data0*
X33912064Y-115280000D02*
X32707936Y-115280000D01*
X33912064Y-113460000D02*
X32707936Y-113460000D01*
G04 #@! TO.C,D13*
X78270000Y-87427500D02*
X78270000Y-83367500D01*
X78270000Y-83367500D02*
X80540000Y-83367500D01*
X80540000Y-83367500D02*
X80540000Y-87427500D01*
G04 #@! TO.C,D19*
X83032500Y-106547500D02*
X83032500Y-102487500D01*
X83032500Y-102487500D02*
X85302500Y-102487500D01*
X85302500Y-102487500D02*
X85302500Y-106547500D01*
G04 #@! TO.C,JP_db0*
X33840000Y-126290000D02*
X33840000Y-124290000D01*
X31040000Y-126290000D02*
X33840000Y-126290000D01*
X31040000Y-124290000D02*
X31040000Y-126290000D01*
X33840000Y-124290000D02*
X31040000Y-124290000D01*
D12*
G04 #@! TO.C,J0*
X50740000Y-25970000D02*
X55740000Y-25970000D01*
X55740000Y-25970000D02*
X55740000Y-27970000D01*
X50740000Y-25970000D02*
X50740000Y-27970000D01*
X50240000Y-40070000D02*
X56240000Y-40070000D01*
X56240000Y-40070000D02*
X56240000Y-27970000D01*
X56240000Y-27970000D02*
X50240000Y-27970000D01*
X50240000Y-27970000D02*
X50240000Y-40070000D01*
D11*
G04 #@! TO.C,JP_xb0*
X33940000Y-105020000D02*
X33940000Y-103020000D01*
X31140000Y-105020000D02*
X33940000Y-105020000D01*
X31140000Y-103020000D02*
X31140000Y-105020000D01*
X33940000Y-103020000D02*
X31140000Y-103020000D01*
G04 #@! TO.C,D11*
X31925000Y-94910000D02*
X31925000Y-90850000D01*
X31925000Y-90850000D02*
X34195000Y-90850000D01*
X34195000Y-90850000D02*
X34195000Y-94910000D01*
G04 #@! TO.C,D16*
X135420000Y-87427500D02*
X135420000Y-83367500D01*
X135420000Y-83367500D02*
X137690000Y-83367500D01*
X137690000Y-83367500D02*
X137690000Y-87427500D01*
G04 #@! TO.C,D17*
X40058900Y-102487500D02*
X40058900Y-106547500D01*
X37788900Y-102487500D02*
X40058900Y-102487500D01*
X37788900Y-106547500D02*
X37788900Y-102487500D01*
G04 #@! TO.C,D24*
X75777500Y-121497500D02*
X75777500Y-125557500D01*
X73507500Y-121497500D02*
X75777500Y-121497500D01*
X73507500Y-125557500D02*
X73507500Y-121497500D01*
G04 #@! TO.C,D27*
X132927500Y-121497500D02*
X132927500Y-125557500D01*
X130657500Y-121497500D02*
X132927500Y-121497500D01*
X130657500Y-125557500D02*
X130657500Y-121497500D01*
G04 #@! TO.C,D31*
X140071000Y-140597500D02*
X140071000Y-144657500D01*
X137801000Y-140597500D02*
X140071000Y-140597500D01*
X137801000Y-144657500D02*
X137801000Y-140597500D01*
D12*
G04 #@! TO.C,J1*
X144870000Y-54920000D02*
X144870000Y-67020000D01*
X150870000Y-54920000D02*
X144870000Y-54920000D01*
X150870000Y-67020000D02*
X150870000Y-54920000D01*
X144870000Y-67020000D02*
X150870000Y-67020000D01*
X145370000Y-52920000D02*
X145370000Y-54920000D01*
X150370000Y-52920000D02*
X150370000Y-54920000D01*
X145370000Y-52920000D02*
X150370000Y-52920000D01*
D11*
G04 #@! TO.C,D10*
X128165000Y-64367500D02*
X128165000Y-68427500D01*
X125895000Y-64367500D02*
X128165000Y-64367500D01*
X125895000Y-68427500D02*
X125895000Y-64367500D01*
G04 #@! TO.C,D23*
X44821100Y-121497500D02*
X44821100Y-125557500D01*
X42551100Y-121497500D02*
X44821100Y-121497500D01*
X42551100Y-125557500D02*
X42551100Y-121497500D01*
G04 #@! TO.C,D22*
X140182500Y-106547500D02*
X140182500Y-102487500D01*
X140182500Y-102487500D02*
X142452500Y-102487500D01*
X142452500Y-102487500D02*
X142452500Y-106547500D01*
G04 #@! TO.C,D12*
X59220000Y-94937500D02*
X59220000Y-90877500D01*
X59220000Y-90877500D02*
X61490000Y-90877500D01*
X61490000Y-90877500D02*
X61490000Y-94937500D01*
G04 #@! TO.C,D20*
X104352500Y-102487500D02*
X104352500Y-106547500D01*
X102082500Y-102487500D02*
X104352500Y-102487500D01*
X102082500Y-106547500D02*
X102082500Y-102487500D01*
G04 #@! TO.C,D14*
X99590000Y-83367500D02*
X99590000Y-87427500D01*
X97320000Y-83367500D02*
X99590000Y-83367500D01*
X97320000Y-87427500D02*
X97320000Y-83367500D01*
G04 #@! TO.C,D15*
X116370000Y-87427500D02*
X116370000Y-83367500D01*
X116370000Y-83367500D02*
X118640000Y-83367500D01*
X118640000Y-83367500D02*
X118640000Y-87427500D01*
G04 #@! TO.C,D21*
X123402500Y-102487500D02*
X123402500Y-106547500D01*
X121132500Y-102487500D02*
X123402500Y-102487500D01*
X121132500Y-106547500D02*
X121132500Y-102487500D01*
G04 #@! TO.C,JP_da0*
D12*
X34579047Y-117102380D02*
X34579047Y-117816666D01*
X34626666Y-117959523D01*
X34721904Y-118054761D01*
X34864761Y-118102380D01*
X34960000Y-118102380D01*
X34102857Y-118102380D02*
X34102857Y-117102380D01*
X33721904Y-117102380D01*
X33626666Y-117150000D01*
X33579047Y-117197619D01*
X33531428Y-117292857D01*
X33531428Y-117435714D01*
X33579047Y-117530952D01*
X33626666Y-117578571D01*
X33721904Y-117626190D01*
X34102857Y-117626190D01*
X33340952Y-118197619D02*
X32579047Y-118197619D01*
X31912380Y-118102380D02*
X31912380Y-117102380D01*
X31912380Y-118054761D02*
X32007619Y-118102380D01*
X32198095Y-118102380D01*
X32293333Y-118054761D01*
X32340952Y-118007142D01*
X32388571Y-117911904D01*
X32388571Y-117626190D01*
X32340952Y-117530952D01*
X32293333Y-117483333D01*
X32198095Y-117435714D01*
X32007619Y-117435714D01*
X31912380Y-117483333D01*
X31007619Y-118102380D02*
X31007619Y-117578571D01*
X31055238Y-117483333D01*
X31150476Y-117435714D01*
X31340952Y-117435714D01*
X31436190Y-117483333D01*
X31007619Y-118054761D02*
X31102857Y-118102380D01*
X31340952Y-118102380D01*
X31436190Y-118054761D01*
X31483809Y-117959523D01*
X31483809Y-117864285D01*
X31436190Y-117769047D01*
X31340952Y-117721428D01*
X31102857Y-117721428D01*
X31007619Y-117673809D01*
X30340952Y-117102380D02*
X30245714Y-117102380D01*
X30150476Y-117150000D01*
X30102857Y-117197619D01*
X30055238Y-117292857D01*
X30007619Y-117483333D01*
X30007619Y-117721428D01*
X30055238Y-117911904D01*
X30102857Y-118007142D01*
X30150476Y-118054761D01*
X30245714Y-118102380D01*
X30340952Y-118102380D01*
X30436190Y-118054761D01*
X30483809Y-118007142D01*
X30531428Y-117911904D01*
X30579047Y-117721428D01*
X30579047Y-117483333D01*
X30531428Y-117292857D01*
X30483809Y-117197619D01*
X30436190Y-117150000D01*
X30340952Y-117102380D01*
G04 #@! TO.C,JP_xa0*
X34621428Y-98102380D02*
X34621428Y-98816666D01*
X34669047Y-98959523D01*
X34764285Y-99054761D01*
X34907142Y-99102380D01*
X35002380Y-99102380D01*
X34145238Y-99102380D02*
X34145238Y-98102380D01*
X33764285Y-98102380D01*
X33669047Y-98150000D01*
X33621428Y-98197619D01*
X33573809Y-98292857D01*
X33573809Y-98435714D01*
X33621428Y-98530952D01*
X33669047Y-98578571D01*
X33764285Y-98626190D01*
X34145238Y-98626190D01*
X33383333Y-99197619D02*
X32621428Y-99197619D01*
X32478571Y-99102380D02*
X31954761Y-98435714D01*
X32478571Y-98435714D02*
X31954761Y-99102380D01*
X31145238Y-99102380D02*
X31145238Y-98578571D01*
X31192857Y-98483333D01*
X31288095Y-98435714D01*
X31478571Y-98435714D01*
X31573809Y-98483333D01*
X31145238Y-99054761D02*
X31240476Y-99102380D01*
X31478571Y-99102380D01*
X31573809Y-99054761D01*
X31621428Y-98959523D01*
X31621428Y-98864285D01*
X31573809Y-98769047D01*
X31478571Y-98721428D01*
X31240476Y-98721428D01*
X31145238Y-98673809D01*
X30478571Y-98102380D02*
X30383333Y-98102380D01*
X30288095Y-98150000D01*
X30240476Y-98197619D01*
X30192857Y-98292857D01*
X30145238Y-98483333D01*
X30145238Y-98721428D01*
X30192857Y-98911904D01*
X30240476Y-99007142D01*
X30288095Y-99054761D01*
X30383333Y-99102380D01*
X30478571Y-99102380D01*
X30573809Y-99054761D01*
X30621428Y-99007142D01*
X30669047Y-98911904D01*
X30716666Y-98721428D01*
X30716666Y-98483333D01*
X30669047Y-98292857D01*
X30621428Y-98197619D01*
X30573809Y-98150000D01*
X30478571Y-98102380D01*
G04 #@! TO.C,R_xdata0*
X35935238Y-108342380D02*
X36268571Y-107866190D01*
X36506666Y-108342380D02*
X36506666Y-107342380D01*
X36125714Y-107342380D01*
X36030476Y-107390000D01*
X35982857Y-107437619D01*
X35935238Y-107532857D01*
X35935238Y-107675714D01*
X35982857Y-107770952D01*
X36030476Y-107818571D01*
X36125714Y-107866190D01*
X36506666Y-107866190D01*
X35744761Y-108437619D02*
X34982857Y-108437619D01*
X34840000Y-108342380D02*
X34316190Y-107675714D01*
X34840000Y-107675714D02*
X34316190Y-108342380D01*
X33506666Y-108342380D02*
X33506666Y-107342380D01*
X33506666Y-108294761D02*
X33601904Y-108342380D01*
X33792380Y-108342380D01*
X33887619Y-108294761D01*
X33935238Y-108247142D01*
X33982857Y-108151904D01*
X33982857Y-107866190D01*
X33935238Y-107770952D01*
X33887619Y-107723333D01*
X33792380Y-107675714D01*
X33601904Y-107675714D01*
X33506666Y-107723333D01*
X32601904Y-108342380D02*
X32601904Y-107818571D01*
X32649523Y-107723333D01*
X32744761Y-107675714D01*
X32935238Y-107675714D01*
X33030476Y-107723333D01*
X32601904Y-108294761D02*
X32697142Y-108342380D01*
X32935238Y-108342380D01*
X33030476Y-108294761D01*
X33078095Y-108199523D01*
X33078095Y-108104285D01*
X33030476Y-108009047D01*
X32935238Y-107961428D01*
X32697142Y-107961428D01*
X32601904Y-107913809D01*
X32268571Y-107675714D02*
X31887619Y-107675714D01*
X32125714Y-107342380D02*
X32125714Y-108199523D01*
X32078095Y-108294761D01*
X31982857Y-108342380D01*
X31887619Y-108342380D01*
X31125714Y-108342380D02*
X31125714Y-107818571D01*
X31173333Y-107723333D01*
X31268571Y-107675714D01*
X31459047Y-107675714D01*
X31554285Y-107723333D01*
X31125714Y-108294761D02*
X31220952Y-108342380D01*
X31459047Y-108342380D01*
X31554285Y-108294761D01*
X31601904Y-108199523D01*
X31601904Y-108104285D01*
X31554285Y-108009047D01*
X31459047Y-107961428D01*
X31220952Y-107961428D01*
X31125714Y-107913809D01*
X30459047Y-107342380D02*
X30363809Y-107342380D01*
X30268571Y-107390000D01*
X30220952Y-107437619D01*
X30173333Y-107532857D01*
X30125714Y-107723333D01*
X30125714Y-107961428D01*
X30173333Y-108151904D01*
X30220952Y-108247142D01*
X30268571Y-108294761D01*
X30363809Y-108342380D01*
X30459047Y-108342380D01*
X30554285Y-108294761D01*
X30601904Y-108247142D01*
X30649523Y-108151904D01*
X30697142Y-107961428D01*
X30697142Y-107723333D01*
X30649523Y-107532857D01*
X30601904Y-107437619D01*
X30554285Y-107390000D01*
X30459047Y-107342380D01*
G04 #@! TO.C,R_data0*
X35500476Y-113002380D02*
X35833809Y-112526190D01*
X36071904Y-113002380D02*
X36071904Y-112002380D01*
X35690952Y-112002380D01*
X35595714Y-112050000D01*
X35548095Y-112097619D01*
X35500476Y-112192857D01*
X35500476Y-112335714D01*
X35548095Y-112430952D01*
X35595714Y-112478571D01*
X35690952Y-112526190D01*
X36071904Y-112526190D01*
X35310000Y-113097619D02*
X34548095Y-113097619D01*
X33881428Y-113002380D02*
X33881428Y-112002380D01*
X33881428Y-112954761D02*
X33976666Y-113002380D01*
X34167142Y-113002380D01*
X34262380Y-112954761D01*
X34310000Y-112907142D01*
X34357619Y-112811904D01*
X34357619Y-112526190D01*
X34310000Y-112430952D01*
X34262380Y-112383333D01*
X34167142Y-112335714D01*
X33976666Y-112335714D01*
X33881428Y-112383333D01*
X32976666Y-113002380D02*
X32976666Y-112478571D01*
X33024285Y-112383333D01*
X33119523Y-112335714D01*
X33310000Y-112335714D01*
X33405238Y-112383333D01*
X32976666Y-112954761D02*
X33071904Y-113002380D01*
X33310000Y-113002380D01*
X33405238Y-112954761D01*
X33452857Y-112859523D01*
X33452857Y-112764285D01*
X33405238Y-112669047D01*
X33310000Y-112621428D01*
X33071904Y-112621428D01*
X32976666Y-112573809D01*
X32643333Y-112335714D02*
X32262380Y-112335714D01*
X32500476Y-112002380D02*
X32500476Y-112859523D01*
X32452857Y-112954761D01*
X32357619Y-113002380D01*
X32262380Y-113002380D01*
X31500476Y-113002380D02*
X31500476Y-112478571D01*
X31548095Y-112383333D01*
X31643333Y-112335714D01*
X31833809Y-112335714D01*
X31929047Y-112383333D01*
X31500476Y-112954761D02*
X31595714Y-113002380D01*
X31833809Y-113002380D01*
X31929047Y-112954761D01*
X31976666Y-112859523D01*
X31976666Y-112764285D01*
X31929047Y-112669047D01*
X31833809Y-112621428D01*
X31595714Y-112621428D01*
X31500476Y-112573809D01*
X30833809Y-112002380D02*
X30738571Y-112002380D01*
X30643333Y-112050000D01*
X30595714Y-112097619D01*
X30548095Y-112192857D01*
X30500476Y-112383333D01*
X30500476Y-112621428D01*
X30548095Y-112811904D01*
X30595714Y-112907142D01*
X30643333Y-112954761D01*
X30738571Y-113002380D01*
X30833809Y-113002380D01*
X30929047Y-112954761D01*
X30976666Y-112907142D01*
X31024285Y-112811904D01*
X31071904Y-112621428D01*
X31071904Y-112383333D01*
X31024285Y-112192857D01*
X30976666Y-112097619D01*
X30929047Y-112050000D01*
X30833809Y-112002380D01*
G04 #@! TO.C,JP_db0*
X34559047Y-122942380D02*
X34559047Y-123656666D01*
X34606666Y-123799523D01*
X34701904Y-123894761D01*
X34844761Y-123942380D01*
X34940000Y-123942380D01*
X34082857Y-123942380D02*
X34082857Y-122942380D01*
X33701904Y-122942380D01*
X33606666Y-122990000D01*
X33559047Y-123037619D01*
X33511428Y-123132857D01*
X33511428Y-123275714D01*
X33559047Y-123370952D01*
X33606666Y-123418571D01*
X33701904Y-123466190D01*
X34082857Y-123466190D01*
X33320952Y-124037619D02*
X32559047Y-124037619D01*
X31892380Y-123942380D02*
X31892380Y-122942380D01*
X31892380Y-123894761D02*
X31987619Y-123942380D01*
X32178095Y-123942380D01*
X32273333Y-123894761D01*
X32320952Y-123847142D01*
X32368571Y-123751904D01*
X32368571Y-123466190D01*
X32320952Y-123370952D01*
X32273333Y-123323333D01*
X32178095Y-123275714D01*
X31987619Y-123275714D01*
X31892380Y-123323333D01*
X31416190Y-123942380D02*
X31416190Y-122942380D01*
X31416190Y-123323333D02*
X31320952Y-123275714D01*
X31130476Y-123275714D01*
X31035238Y-123323333D01*
X30987619Y-123370952D01*
X30940000Y-123466190D01*
X30940000Y-123751904D01*
X30987619Y-123847142D01*
X31035238Y-123894761D01*
X31130476Y-123942380D01*
X31320952Y-123942380D01*
X31416190Y-123894761D01*
X30320952Y-122942380D02*
X30225714Y-122942380D01*
X30130476Y-122990000D01*
X30082857Y-123037619D01*
X30035238Y-123132857D01*
X29987619Y-123323333D01*
X29987619Y-123561428D01*
X30035238Y-123751904D01*
X30082857Y-123847142D01*
X30130476Y-123894761D01*
X30225714Y-123942380D01*
X30320952Y-123942380D01*
X30416190Y-123894761D01*
X30463809Y-123847142D01*
X30511428Y-123751904D01*
X30559047Y-123561428D01*
X30559047Y-123323333D01*
X30511428Y-123132857D01*
X30463809Y-123037619D01*
X30416190Y-122990000D01*
X30320952Y-122942380D01*
G04 #@! TO.C,JP_xb0*
X34611428Y-101672380D02*
X34611428Y-102386666D01*
X34659047Y-102529523D01*
X34754285Y-102624761D01*
X34897142Y-102672380D01*
X34992380Y-102672380D01*
X34135238Y-102672380D02*
X34135238Y-101672380D01*
X33754285Y-101672380D01*
X33659047Y-101720000D01*
X33611428Y-101767619D01*
X33563809Y-101862857D01*
X33563809Y-102005714D01*
X33611428Y-102100952D01*
X33659047Y-102148571D01*
X33754285Y-102196190D01*
X34135238Y-102196190D01*
X33373333Y-102767619D02*
X32611428Y-102767619D01*
X32468571Y-102672380D02*
X31944761Y-102005714D01*
X32468571Y-102005714D02*
X31944761Y-102672380D01*
X31563809Y-102672380D02*
X31563809Y-101672380D01*
X31563809Y-102053333D02*
X31468571Y-102005714D01*
X31278095Y-102005714D01*
X31182857Y-102053333D01*
X31135238Y-102100952D01*
X31087619Y-102196190D01*
X31087619Y-102481904D01*
X31135238Y-102577142D01*
X31182857Y-102624761D01*
X31278095Y-102672380D01*
X31468571Y-102672380D01*
X31563809Y-102624761D01*
X30468571Y-101672380D02*
X30373333Y-101672380D01*
X30278095Y-101720000D01*
X30230476Y-101767619D01*
X30182857Y-101862857D01*
X30135238Y-102053333D01*
X30135238Y-102291428D01*
X30182857Y-102481904D01*
X30230476Y-102577142D01*
X30278095Y-102624761D01*
X30373333Y-102672380D01*
X30468571Y-102672380D01*
X30563809Y-102624761D01*
X30611428Y-102577142D01*
X30659047Y-102481904D01*
X30706666Y-102291428D01*
X30706666Y-102053333D01*
X30659047Y-101862857D01*
X30611428Y-101767619D01*
X30563809Y-101720000D01*
X30468571Y-101672380D01*
G04 #@! TD*
%LPC*%
D13*
G04 #@! TO.C,D4*
G36*
X118291207Y-40661542D02*
X118322287Y-40666152D01*
X118352766Y-40673787D01*
X118382350Y-40684372D01*
X118410754Y-40697806D01*
X118437704Y-40713959D01*
X118462942Y-40732677D01*
X118486223Y-40753777D01*
X118507323Y-40777058D01*
X118526041Y-40802296D01*
X118542194Y-40829246D01*
X118555628Y-40857650D01*
X118566213Y-40887234D01*
X118573848Y-40917713D01*
X118578458Y-40948793D01*
X118580000Y-40980176D01*
X118580000Y-42164824D01*
X118578458Y-42196207D01*
X118573848Y-42227287D01*
X118566213Y-42257766D01*
X118555628Y-42287350D01*
X118542194Y-42315754D01*
X118526041Y-42342704D01*
X118507323Y-42367942D01*
X118486223Y-42391223D01*
X118462942Y-42412323D01*
X118437704Y-42431041D01*
X118410754Y-42447194D01*
X118382350Y-42460628D01*
X118352766Y-42471213D01*
X118322287Y-42478848D01*
X118291207Y-42483458D01*
X118259824Y-42485000D01*
X116750176Y-42485000D01*
X116718793Y-42483458D01*
X116687713Y-42478848D01*
X116657234Y-42471213D01*
X116627650Y-42460628D01*
X116599246Y-42447194D01*
X116572296Y-42431041D01*
X116547058Y-42412323D01*
X116523777Y-42391223D01*
X116502677Y-42367942D01*
X116483959Y-42342704D01*
X116467806Y-42315754D01*
X116454372Y-42287350D01*
X116443787Y-42257766D01*
X116436152Y-42227287D01*
X116431542Y-42196207D01*
X116430000Y-42164824D01*
X116430000Y-40980176D01*
X116431542Y-40948793D01*
X116436152Y-40917713D01*
X116443787Y-40887234D01*
X116454372Y-40857650D01*
X116467806Y-40829246D01*
X116483959Y-40802296D01*
X116502677Y-40777058D01*
X116523777Y-40753777D01*
X116547058Y-40732677D01*
X116572296Y-40713959D01*
X116599246Y-40697806D01*
X116627650Y-40684372D01*
X116657234Y-40673787D01*
X116687713Y-40666152D01*
X116718793Y-40661542D01*
X116750176Y-40660000D01*
X118259824Y-40660000D01*
X118291207Y-40661542D01*
X118291207Y-40661542D01*
G37*
D14*
X117505000Y-41572500D03*
D13*
G36*
X118291207Y-43636542D02*
X118322287Y-43641152D01*
X118352766Y-43648787D01*
X118382350Y-43659372D01*
X118410754Y-43672806D01*
X118437704Y-43688959D01*
X118462942Y-43707677D01*
X118486223Y-43728777D01*
X118507323Y-43752058D01*
X118526041Y-43777296D01*
X118542194Y-43804246D01*
X118555628Y-43832650D01*
X118566213Y-43862234D01*
X118573848Y-43892713D01*
X118578458Y-43923793D01*
X118580000Y-43955176D01*
X118580000Y-45139824D01*
X118578458Y-45171207D01*
X118573848Y-45202287D01*
X118566213Y-45232766D01*
X118555628Y-45262350D01*
X118542194Y-45290754D01*
X118526041Y-45317704D01*
X118507323Y-45342942D01*
X118486223Y-45366223D01*
X118462942Y-45387323D01*
X118437704Y-45406041D01*
X118410754Y-45422194D01*
X118382350Y-45435628D01*
X118352766Y-45446213D01*
X118322287Y-45453848D01*
X118291207Y-45458458D01*
X118259824Y-45460000D01*
X116750176Y-45460000D01*
X116718793Y-45458458D01*
X116687713Y-45453848D01*
X116657234Y-45446213D01*
X116627650Y-45435628D01*
X116599246Y-45422194D01*
X116572296Y-45406041D01*
X116547058Y-45387323D01*
X116523777Y-45366223D01*
X116502677Y-45342942D01*
X116483959Y-45317704D01*
X116467806Y-45290754D01*
X116454372Y-45262350D01*
X116443787Y-45232766D01*
X116436152Y-45202287D01*
X116431542Y-45171207D01*
X116430000Y-45139824D01*
X116430000Y-43955176D01*
X116431542Y-43923793D01*
X116436152Y-43892713D01*
X116443787Y-43862234D01*
X116454372Y-43832650D01*
X116467806Y-43804246D01*
X116483959Y-43777296D01*
X116502677Y-43752058D01*
X116523777Y-43728777D01*
X116547058Y-43707677D01*
X116572296Y-43688959D01*
X116599246Y-43672806D01*
X116627650Y-43659372D01*
X116657234Y-43648787D01*
X116687713Y-43641152D01*
X116718793Y-43636542D01*
X116750176Y-43635000D01*
X118259824Y-43635000D01*
X118291207Y-43636542D01*
X118291207Y-43636542D01*
G37*
D14*
X117505000Y-44547500D03*
G04 #@! TD*
D13*
G04 #@! TO.C,D0*
G36*
X32566207Y-40661542D02*
X32597287Y-40666152D01*
X32627766Y-40673787D01*
X32657350Y-40684372D01*
X32685754Y-40697806D01*
X32712704Y-40713959D01*
X32737942Y-40732677D01*
X32761223Y-40753777D01*
X32782323Y-40777058D01*
X32801041Y-40802296D01*
X32817194Y-40829246D01*
X32830628Y-40857650D01*
X32841213Y-40887234D01*
X32848848Y-40917713D01*
X32853458Y-40948793D01*
X32855000Y-40980176D01*
X32855000Y-42164824D01*
X32853458Y-42196207D01*
X32848848Y-42227287D01*
X32841213Y-42257766D01*
X32830628Y-42287350D01*
X32817194Y-42315754D01*
X32801041Y-42342704D01*
X32782323Y-42367942D01*
X32761223Y-42391223D01*
X32737942Y-42412323D01*
X32712704Y-42431041D01*
X32685754Y-42447194D01*
X32657350Y-42460628D01*
X32627766Y-42471213D01*
X32597287Y-42478848D01*
X32566207Y-42483458D01*
X32534824Y-42485000D01*
X31025176Y-42485000D01*
X30993793Y-42483458D01*
X30962713Y-42478848D01*
X30932234Y-42471213D01*
X30902650Y-42460628D01*
X30874246Y-42447194D01*
X30847296Y-42431041D01*
X30822058Y-42412323D01*
X30798777Y-42391223D01*
X30777677Y-42367942D01*
X30758959Y-42342704D01*
X30742806Y-42315754D01*
X30729372Y-42287350D01*
X30718787Y-42257766D01*
X30711152Y-42227287D01*
X30706542Y-42196207D01*
X30705000Y-42164824D01*
X30705000Y-40980176D01*
X30706542Y-40948793D01*
X30711152Y-40917713D01*
X30718787Y-40887234D01*
X30729372Y-40857650D01*
X30742806Y-40829246D01*
X30758959Y-40802296D01*
X30777677Y-40777058D01*
X30798777Y-40753777D01*
X30822058Y-40732677D01*
X30847296Y-40713959D01*
X30874246Y-40697806D01*
X30902650Y-40684372D01*
X30932234Y-40673787D01*
X30962713Y-40666152D01*
X30993793Y-40661542D01*
X31025176Y-40660000D01*
X32534824Y-40660000D01*
X32566207Y-40661542D01*
X32566207Y-40661542D01*
G37*
D14*
X31780000Y-41572500D03*
D13*
G36*
X32566207Y-43636542D02*
X32597287Y-43641152D01*
X32627766Y-43648787D01*
X32657350Y-43659372D01*
X32685754Y-43672806D01*
X32712704Y-43688959D01*
X32737942Y-43707677D01*
X32761223Y-43728777D01*
X32782323Y-43752058D01*
X32801041Y-43777296D01*
X32817194Y-43804246D01*
X32830628Y-43832650D01*
X32841213Y-43862234D01*
X32848848Y-43892713D01*
X32853458Y-43923793D01*
X32855000Y-43955176D01*
X32855000Y-45139824D01*
X32853458Y-45171207D01*
X32848848Y-45202287D01*
X32841213Y-45232766D01*
X32830628Y-45262350D01*
X32817194Y-45290754D01*
X32801041Y-45317704D01*
X32782323Y-45342942D01*
X32761223Y-45366223D01*
X32737942Y-45387323D01*
X32712704Y-45406041D01*
X32685754Y-45422194D01*
X32657350Y-45435628D01*
X32627766Y-45446213D01*
X32597287Y-45453848D01*
X32566207Y-45458458D01*
X32534824Y-45460000D01*
X31025176Y-45460000D01*
X30993793Y-45458458D01*
X30962713Y-45453848D01*
X30932234Y-45446213D01*
X30902650Y-45435628D01*
X30874246Y-45422194D01*
X30847296Y-45406041D01*
X30822058Y-45387323D01*
X30798777Y-45366223D01*
X30777677Y-45342942D01*
X30758959Y-45317704D01*
X30742806Y-45290754D01*
X30729372Y-45262350D01*
X30718787Y-45232766D01*
X30711152Y-45202287D01*
X30706542Y-45171207D01*
X30705000Y-45139824D01*
X30705000Y-43955176D01*
X30706542Y-43923793D01*
X30711152Y-43892713D01*
X30718787Y-43862234D01*
X30729372Y-43832650D01*
X30742806Y-43804246D01*
X30758959Y-43777296D01*
X30777677Y-43752058D01*
X30798777Y-43728777D01*
X30822058Y-43707677D01*
X30847296Y-43688959D01*
X30874246Y-43672806D01*
X30902650Y-43659372D01*
X30932234Y-43648787D01*
X30962713Y-43641152D01*
X30993793Y-43636542D01*
X31025176Y-43635000D01*
X32534824Y-43635000D01*
X32566207Y-43636542D01*
X32566207Y-43636542D01*
G37*
D14*
X31780000Y-44547500D03*
G04 #@! TD*
D13*
G04 #@! TO.C,D3*
G36*
X99241207Y-43636542D02*
X99272287Y-43641152D01*
X99302766Y-43648787D01*
X99332350Y-43659372D01*
X99360754Y-43672806D01*
X99387704Y-43688959D01*
X99412942Y-43707677D01*
X99436223Y-43728777D01*
X99457323Y-43752058D01*
X99476041Y-43777296D01*
X99492194Y-43804246D01*
X99505628Y-43832650D01*
X99516213Y-43862234D01*
X99523848Y-43892713D01*
X99528458Y-43923793D01*
X99530000Y-43955176D01*
X99530000Y-45139824D01*
X99528458Y-45171207D01*
X99523848Y-45202287D01*
X99516213Y-45232766D01*
X99505628Y-45262350D01*
X99492194Y-45290754D01*
X99476041Y-45317704D01*
X99457323Y-45342942D01*
X99436223Y-45366223D01*
X99412942Y-45387323D01*
X99387704Y-45406041D01*
X99360754Y-45422194D01*
X99332350Y-45435628D01*
X99302766Y-45446213D01*
X99272287Y-45453848D01*
X99241207Y-45458458D01*
X99209824Y-45460000D01*
X97700176Y-45460000D01*
X97668793Y-45458458D01*
X97637713Y-45453848D01*
X97607234Y-45446213D01*
X97577650Y-45435628D01*
X97549246Y-45422194D01*
X97522296Y-45406041D01*
X97497058Y-45387323D01*
X97473777Y-45366223D01*
X97452677Y-45342942D01*
X97433959Y-45317704D01*
X97417806Y-45290754D01*
X97404372Y-45262350D01*
X97393787Y-45232766D01*
X97386152Y-45202287D01*
X97381542Y-45171207D01*
X97380000Y-45139824D01*
X97380000Y-43955176D01*
X97381542Y-43923793D01*
X97386152Y-43892713D01*
X97393787Y-43862234D01*
X97404372Y-43832650D01*
X97417806Y-43804246D01*
X97433959Y-43777296D01*
X97452677Y-43752058D01*
X97473777Y-43728777D01*
X97497058Y-43707677D01*
X97522296Y-43688959D01*
X97549246Y-43672806D01*
X97577650Y-43659372D01*
X97607234Y-43648787D01*
X97637713Y-43641152D01*
X97668793Y-43636542D01*
X97700176Y-43635000D01*
X99209824Y-43635000D01*
X99241207Y-43636542D01*
X99241207Y-43636542D01*
G37*
D14*
X98455000Y-44547500D03*
D13*
G36*
X99241207Y-40661542D02*
X99272287Y-40666152D01*
X99302766Y-40673787D01*
X99332350Y-40684372D01*
X99360754Y-40697806D01*
X99387704Y-40713959D01*
X99412942Y-40732677D01*
X99436223Y-40753777D01*
X99457323Y-40777058D01*
X99476041Y-40802296D01*
X99492194Y-40829246D01*
X99505628Y-40857650D01*
X99516213Y-40887234D01*
X99523848Y-40917713D01*
X99528458Y-40948793D01*
X99530000Y-40980176D01*
X99530000Y-42164824D01*
X99528458Y-42196207D01*
X99523848Y-42227287D01*
X99516213Y-42257766D01*
X99505628Y-42287350D01*
X99492194Y-42315754D01*
X99476041Y-42342704D01*
X99457323Y-42367942D01*
X99436223Y-42391223D01*
X99412942Y-42412323D01*
X99387704Y-42431041D01*
X99360754Y-42447194D01*
X99332350Y-42460628D01*
X99302766Y-42471213D01*
X99272287Y-42478848D01*
X99241207Y-42483458D01*
X99209824Y-42485000D01*
X97700176Y-42485000D01*
X97668793Y-42483458D01*
X97637713Y-42478848D01*
X97607234Y-42471213D01*
X97577650Y-42460628D01*
X97549246Y-42447194D01*
X97522296Y-42431041D01*
X97497058Y-42412323D01*
X97473777Y-42391223D01*
X97452677Y-42367942D01*
X97433959Y-42342704D01*
X97417806Y-42315754D01*
X97404372Y-42287350D01*
X97393787Y-42257766D01*
X97386152Y-42227287D01*
X97381542Y-42196207D01*
X97380000Y-42164824D01*
X97380000Y-40980176D01*
X97381542Y-40948793D01*
X97386152Y-40917713D01*
X97393787Y-40887234D01*
X97404372Y-40857650D01*
X97417806Y-40829246D01*
X97433959Y-40802296D01*
X97452677Y-40777058D01*
X97473777Y-40753777D01*
X97497058Y-40732677D01*
X97522296Y-40713959D01*
X97549246Y-40697806D01*
X97577650Y-40684372D01*
X97607234Y-40673787D01*
X97637713Y-40666152D01*
X97668793Y-40661542D01*
X97700176Y-40660000D01*
X99209824Y-40660000D01*
X99241207Y-40661542D01*
X99241207Y-40661542D01*
G37*
D14*
X98455000Y-41572500D03*
G04 #@! TD*
D13*
G04 #@! TO.C,D5*
G36*
X32566207Y-67404042D02*
X32597287Y-67408652D01*
X32627766Y-67416287D01*
X32657350Y-67426872D01*
X32685754Y-67440306D01*
X32712704Y-67456459D01*
X32737942Y-67475177D01*
X32761223Y-67496277D01*
X32782323Y-67519558D01*
X32801041Y-67544796D01*
X32817194Y-67571746D01*
X32830628Y-67600150D01*
X32841213Y-67629734D01*
X32848848Y-67660213D01*
X32853458Y-67691293D01*
X32855000Y-67722676D01*
X32855000Y-68907324D01*
X32853458Y-68938707D01*
X32848848Y-68969787D01*
X32841213Y-69000266D01*
X32830628Y-69029850D01*
X32817194Y-69058254D01*
X32801041Y-69085204D01*
X32782323Y-69110442D01*
X32761223Y-69133723D01*
X32737942Y-69154823D01*
X32712704Y-69173541D01*
X32685754Y-69189694D01*
X32657350Y-69203128D01*
X32627766Y-69213713D01*
X32597287Y-69221348D01*
X32566207Y-69225958D01*
X32534824Y-69227500D01*
X31025176Y-69227500D01*
X30993793Y-69225958D01*
X30962713Y-69221348D01*
X30932234Y-69213713D01*
X30902650Y-69203128D01*
X30874246Y-69189694D01*
X30847296Y-69173541D01*
X30822058Y-69154823D01*
X30798777Y-69133723D01*
X30777677Y-69110442D01*
X30758959Y-69085204D01*
X30742806Y-69058254D01*
X30729372Y-69029850D01*
X30718787Y-69000266D01*
X30711152Y-68969787D01*
X30706542Y-68938707D01*
X30705000Y-68907324D01*
X30705000Y-67722676D01*
X30706542Y-67691293D01*
X30711152Y-67660213D01*
X30718787Y-67629734D01*
X30729372Y-67600150D01*
X30742806Y-67571746D01*
X30758959Y-67544796D01*
X30777677Y-67519558D01*
X30798777Y-67496277D01*
X30822058Y-67475177D01*
X30847296Y-67456459D01*
X30874246Y-67440306D01*
X30902650Y-67426872D01*
X30932234Y-67416287D01*
X30962713Y-67408652D01*
X30993793Y-67404042D01*
X31025176Y-67402500D01*
X32534824Y-67402500D01*
X32566207Y-67404042D01*
X32566207Y-67404042D01*
G37*
D14*
X31780000Y-68315000D03*
D13*
G36*
X32566207Y-64429042D02*
X32597287Y-64433652D01*
X32627766Y-64441287D01*
X32657350Y-64451872D01*
X32685754Y-64465306D01*
X32712704Y-64481459D01*
X32737942Y-64500177D01*
X32761223Y-64521277D01*
X32782323Y-64544558D01*
X32801041Y-64569796D01*
X32817194Y-64596746D01*
X32830628Y-64625150D01*
X32841213Y-64654734D01*
X32848848Y-64685213D01*
X32853458Y-64716293D01*
X32855000Y-64747676D01*
X32855000Y-65932324D01*
X32853458Y-65963707D01*
X32848848Y-65994787D01*
X32841213Y-66025266D01*
X32830628Y-66054850D01*
X32817194Y-66083254D01*
X32801041Y-66110204D01*
X32782323Y-66135442D01*
X32761223Y-66158723D01*
X32737942Y-66179823D01*
X32712704Y-66198541D01*
X32685754Y-66214694D01*
X32657350Y-66228128D01*
X32627766Y-66238713D01*
X32597287Y-66246348D01*
X32566207Y-66250958D01*
X32534824Y-66252500D01*
X31025176Y-66252500D01*
X30993793Y-66250958D01*
X30962713Y-66246348D01*
X30932234Y-66238713D01*
X30902650Y-66228128D01*
X30874246Y-66214694D01*
X30847296Y-66198541D01*
X30822058Y-66179823D01*
X30798777Y-66158723D01*
X30777677Y-66135442D01*
X30758959Y-66110204D01*
X30742806Y-66083254D01*
X30729372Y-66054850D01*
X30718787Y-66025266D01*
X30711152Y-65994787D01*
X30706542Y-65963707D01*
X30705000Y-65932324D01*
X30705000Y-64747676D01*
X30706542Y-64716293D01*
X30711152Y-64685213D01*
X30718787Y-64654734D01*
X30729372Y-64625150D01*
X30742806Y-64596746D01*
X30758959Y-64569796D01*
X30777677Y-64544558D01*
X30798777Y-64521277D01*
X30822058Y-64500177D01*
X30847296Y-64481459D01*
X30874246Y-64465306D01*
X30902650Y-64451872D01*
X30932234Y-64441287D01*
X30962713Y-64433652D01*
X30993793Y-64429042D01*
X31025176Y-64427500D01*
X32534824Y-64427500D01*
X32566207Y-64429042D01*
X32566207Y-64429042D01*
G37*
D14*
X31780000Y-65340000D03*
G04 #@! TD*
D15*
G04 #@! TO.C,REF\002A\002A*
X77500000Y-71830000D03*
G04 #@! TD*
D13*
G04 #@! TO.C,D6*
G36*
X51616207Y-67374042D02*
X51647287Y-67378652D01*
X51677766Y-67386287D01*
X51707350Y-67396872D01*
X51735754Y-67410306D01*
X51762704Y-67426459D01*
X51787942Y-67445177D01*
X51811223Y-67466277D01*
X51832323Y-67489558D01*
X51851041Y-67514796D01*
X51867194Y-67541746D01*
X51880628Y-67570150D01*
X51891213Y-67599734D01*
X51898848Y-67630213D01*
X51903458Y-67661293D01*
X51905000Y-67692676D01*
X51905000Y-68877324D01*
X51903458Y-68908707D01*
X51898848Y-68939787D01*
X51891213Y-68970266D01*
X51880628Y-68999850D01*
X51867194Y-69028254D01*
X51851041Y-69055204D01*
X51832323Y-69080442D01*
X51811223Y-69103723D01*
X51787942Y-69124823D01*
X51762704Y-69143541D01*
X51735754Y-69159694D01*
X51707350Y-69173128D01*
X51677766Y-69183713D01*
X51647287Y-69191348D01*
X51616207Y-69195958D01*
X51584824Y-69197500D01*
X50075176Y-69197500D01*
X50043793Y-69195958D01*
X50012713Y-69191348D01*
X49982234Y-69183713D01*
X49952650Y-69173128D01*
X49924246Y-69159694D01*
X49897296Y-69143541D01*
X49872058Y-69124823D01*
X49848777Y-69103723D01*
X49827677Y-69080442D01*
X49808959Y-69055204D01*
X49792806Y-69028254D01*
X49779372Y-68999850D01*
X49768787Y-68970266D01*
X49761152Y-68939787D01*
X49756542Y-68908707D01*
X49755000Y-68877324D01*
X49755000Y-67692676D01*
X49756542Y-67661293D01*
X49761152Y-67630213D01*
X49768787Y-67599734D01*
X49779372Y-67570150D01*
X49792806Y-67541746D01*
X49808959Y-67514796D01*
X49827677Y-67489558D01*
X49848777Y-67466277D01*
X49872058Y-67445177D01*
X49897296Y-67426459D01*
X49924246Y-67410306D01*
X49952650Y-67396872D01*
X49982234Y-67386287D01*
X50012713Y-67378652D01*
X50043793Y-67374042D01*
X50075176Y-67372500D01*
X51584824Y-67372500D01*
X51616207Y-67374042D01*
X51616207Y-67374042D01*
G37*
D14*
X50830000Y-68285000D03*
D13*
G36*
X51616207Y-64399042D02*
X51647287Y-64403652D01*
X51677766Y-64411287D01*
X51707350Y-64421872D01*
X51735754Y-64435306D01*
X51762704Y-64451459D01*
X51787942Y-64470177D01*
X51811223Y-64491277D01*
X51832323Y-64514558D01*
X51851041Y-64539796D01*
X51867194Y-64566746D01*
X51880628Y-64595150D01*
X51891213Y-64624734D01*
X51898848Y-64655213D01*
X51903458Y-64686293D01*
X51905000Y-64717676D01*
X51905000Y-65902324D01*
X51903458Y-65933707D01*
X51898848Y-65964787D01*
X51891213Y-65995266D01*
X51880628Y-66024850D01*
X51867194Y-66053254D01*
X51851041Y-66080204D01*
X51832323Y-66105442D01*
X51811223Y-66128723D01*
X51787942Y-66149823D01*
X51762704Y-66168541D01*
X51735754Y-66184694D01*
X51707350Y-66198128D01*
X51677766Y-66208713D01*
X51647287Y-66216348D01*
X51616207Y-66220958D01*
X51584824Y-66222500D01*
X50075176Y-66222500D01*
X50043793Y-66220958D01*
X50012713Y-66216348D01*
X49982234Y-66208713D01*
X49952650Y-66198128D01*
X49924246Y-66184694D01*
X49897296Y-66168541D01*
X49872058Y-66149823D01*
X49848777Y-66128723D01*
X49827677Y-66105442D01*
X49808959Y-66080204D01*
X49792806Y-66053254D01*
X49779372Y-66024850D01*
X49768787Y-65995266D01*
X49761152Y-65964787D01*
X49756542Y-65933707D01*
X49755000Y-65902324D01*
X49755000Y-64717676D01*
X49756542Y-64686293D01*
X49761152Y-64655213D01*
X49768787Y-64624734D01*
X49779372Y-64595150D01*
X49792806Y-64566746D01*
X49808959Y-64539796D01*
X49827677Y-64514558D01*
X49848777Y-64491277D01*
X49872058Y-64470177D01*
X49897296Y-64451459D01*
X49924246Y-64435306D01*
X49952650Y-64421872D01*
X49982234Y-64411287D01*
X50012713Y-64403652D01*
X50043793Y-64399042D01*
X50075176Y-64397500D01*
X51584824Y-64397500D01*
X51616207Y-64399042D01*
X51616207Y-64399042D01*
G37*
D14*
X50830000Y-65310000D03*
G04 #@! TD*
D13*
G04 #@! TO.C,D7*
G36*
X70666207Y-67404042D02*
X70697287Y-67408652D01*
X70727766Y-67416287D01*
X70757350Y-67426872D01*
X70785754Y-67440306D01*
X70812704Y-67456459D01*
X70837942Y-67475177D01*
X70861223Y-67496277D01*
X70882323Y-67519558D01*
X70901041Y-67544796D01*
X70917194Y-67571746D01*
X70930628Y-67600150D01*
X70941213Y-67629734D01*
X70948848Y-67660213D01*
X70953458Y-67691293D01*
X70955000Y-67722676D01*
X70955000Y-68907324D01*
X70953458Y-68938707D01*
X70948848Y-68969787D01*
X70941213Y-69000266D01*
X70930628Y-69029850D01*
X70917194Y-69058254D01*
X70901041Y-69085204D01*
X70882323Y-69110442D01*
X70861223Y-69133723D01*
X70837942Y-69154823D01*
X70812704Y-69173541D01*
X70785754Y-69189694D01*
X70757350Y-69203128D01*
X70727766Y-69213713D01*
X70697287Y-69221348D01*
X70666207Y-69225958D01*
X70634824Y-69227500D01*
X69125176Y-69227500D01*
X69093793Y-69225958D01*
X69062713Y-69221348D01*
X69032234Y-69213713D01*
X69002650Y-69203128D01*
X68974246Y-69189694D01*
X68947296Y-69173541D01*
X68922058Y-69154823D01*
X68898777Y-69133723D01*
X68877677Y-69110442D01*
X68858959Y-69085204D01*
X68842806Y-69058254D01*
X68829372Y-69029850D01*
X68818787Y-69000266D01*
X68811152Y-68969787D01*
X68806542Y-68938707D01*
X68805000Y-68907324D01*
X68805000Y-67722676D01*
X68806542Y-67691293D01*
X68811152Y-67660213D01*
X68818787Y-67629734D01*
X68829372Y-67600150D01*
X68842806Y-67571746D01*
X68858959Y-67544796D01*
X68877677Y-67519558D01*
X68898777Y-67496277D01*
X68922058Y-67475177D01*
X68947296Y-67456459D01*
X68974246Y-67440306D01*
X69002650Y-67426872D01*
X69032234Y-67416287D01*
X69062713Y-67408652D01*
X69093793Y-67404042D01*
X69125176Y-67402500D01*
X70634824Y-67402500D01*
X70666207Y-67404042D01*
X70666207Y-67404042D01*
G37*
D14*
X69880000Y-68315000D03*
D13*
G36*
X70666207Y-64429042D02*
X70697287Y-64433652D01*
X70727766Y-64441287D01*
X70757350Y-64451872D01*
X70785754Y-64465306D01*
X70812704Y-64481459D01*
X70837942Y-64500177D01*
X70861223Y-64521277D01*
X70882323Y-64544558D01*
X70901041Y-64569796D01*
X70917194Y-64596746D01*
X70930628Y-64625150D01*
X70941213Y-64654734D01*
X70948848Y-64685213D01*
X70953458Y-64716293D01*
X70955000Y-64747676D01*
X70955000Y-65932324D01*
X70953458Y-65963707D01*
X70948848Y-65994787D01*
X70941213Y-66025266D01*
X70930628Y-66054850D01*
X70917194Y-66083254D01*
X70901041Y-66110204D01*
X70882323Y-66135442D01*
X70861223Y-66158723D01*
X70837942Y-66179823D01*
X70812704Y-66198541D01*
X70785754Y-66214694D01*
X70757350Y-66228128D01*
X70727766Y-66238713D01*
X70697287Y-66246348D01*
X70666207Y-66250958D01*
X70634824Y-66252500D01*
X69125176Y-66252500D01*
X69093793Y-66250958D01*
X69062713Y-66246348D01*
X69032234Y-66238713D01*
X69002650Y-66228128D01*
X68974246Y-66214694D01*
X68947296Y-66198541D01*
X68922058Y-66179823D01*
X68898777Y-66158723D01*
X68877677Y-66135442D01*
X68858959Y-66110204D01*
X68842806Y-66083254D01*
X68829372Y-66054850D01*
X68818787Y-66025266D01*
X68811152Y-65994787D01*
X68806542Y-65963707D01*
X68805000Y-65932324D01*
X68805000Y-64747676D01*
X68806542Y-64716293D01*
X68811152Y-64685213D01*
X68818787Y-64654734D01*
X68829372Y-64625150D01*
X68842806Y-64596746D01*
X68858959Y-64569796D01*
X68877677Y-64544558D01*
X68898777Y-64521277D01*
X68922058Y-64500177D01*
X68947296Y-64481459D01*
X68974246Y-64465306D01*
X69002650Y-64451872D01*
X69032234Y-64441287D01*
X69062713Y-64433652D01*
X69093793Y-64429042D01*
X69125176Y-64427500D01*
X70634824Y-64427500D01*
X70666207Y-64429042D01*
X70666207Y-64429042D01*
G37*
D14*
X69880000Y-65340000D03*
G04 #@! TD*
D13*
G04 #@! TO.C,D1*
G36*
X61141207Y-40661542D02*
X61172287Y-40666152D01*
X61202766Y-40673787D01*
X61232350Y-40684372D01*
X61260754Y-40697806D01*
X61287704Y-40713959D01*
X61312942Y-40732677D01*
X61336223Y-40753777D01*
X61357323Y-40777058D01*
X61376041Y-40802296D01*
X61392194Y-40829246D01*
X61405628Y-40857650D01*
X61416213Y-40887234D01*
X61423848Y-40917713D01*
X61428458Y-40948793D01*
X61430000Y-40980176D01*
X61430000Y-42164824D01*
X61428458Y-42196207D01*
X61423848Y-42227287D01*
X61416213Y-42257766D01*
X61405628Y-42287350D01*
X61392194Y-42315754D01*
X61376041Y-42342704D01*
X61357323Y-42367942D01*
X61336223Y-42391223D01*
X61312942Y-42412323D01*
X61287704Y-42431041D01*
X61260754Y-42447194D01*
X61232350Y-42460628D01*
X61202766Y-42471213D01*
X61172287Y-42478848D01*
X61141207Y-42483458D01*
X61109824Y-42485000D01*
X59600176Y-42485000D01*
X59568793Y-42483458D01*
X59537713Y-42478848D01*
X59507234Y-42471213D01*
X59477650Y-42460628D01*
X59449246Y-42447194D01*
X59422296Y-42431041D01*
X59397058Y-42412323D01*
X59373777Y-42391223D01*
X59352677Y-42367942D01*
X59333959Y-42342704D01*
X59317806Y-42315754D01*
X59304372Y-42287350D01*
X59293787Y-42257766D01*
X59286152Y-42227287D01*
X59281542Y-42196207D01*
X59280000Y-42164824D01*
X59280000Y-40980176D01*
X59281542Y-40948793D01*
X59286152Y-40917713D01*
X59293787Y-40887234D01*
X59304372Y-40857650D01*
X59317806Y-40829246D01*
X59333959Y-40802296D01*
X59352677Y-40777058D01*
X59373777Y-40753777D01*
X59397058Y-40732677D01*
X59422296Y-40713959D01*
X59449246Y-40697806D01*
X59477650Y-40684372D01*
X59507234Y-40673787D01*
X59537713Y-40666152D01*
X59568793Y-40661542D01*
X59600176Y-40660000D01*
X61109824Y-40660000D01*
X61141207Y-40661542D01*
X61141207Y-40661542D01*
G37*
D14*
X60355000Y-41572500D03*
D13*
G36*
X61141207Y-43636542D02*
X61172287Y-43641152D01*
X61202766Y-43648787D01*
X61232350Y-43659372D01*
X61260754Y-43672806D01*
X61287704Y-43688959D01*
X61312942Y-43707677D01*
X61336223Y-43728777D01*
X61357323Y-43752058D01*
X61376041Y-43777296D01*
X61392194Y-43804246D01*
X61405628Y-43832650D01*
X61416213Y-43862234D01*
X61423848Y-43892713D01*
X61428458Y-43923793D01*
X61430000Y-43955176D01*
X61430000Y-45139824D01*
X61428458Y-45171207D01*
X61423848Y-45202287D01*
X61416213Y-45232766D01*
X61405628Y-45262350D01*
X61392194Y-45290754D01*
X61376041Y-45317704D01*
X61357323Y-45342942D01*
X61336223Y-45366223D01*
X61312942Y-45387323D01*
X61287704Y-45406041D01*
X61260754Y-45422194D01*
X61232350Y-45435628D01*
X61202766Y-45446213D01*
X61172287Y-45453848D01*
X61141207Y-45458458D01*
X61109824Y-45460000D01*
X59600176Y-45460000D01*
X59568793Y-45458458D01*
X59537713Y-45453848D01*
X59507234Y-45446213D01*
X59477650Y-45435628D01*
X59449246Y-45422194D01*
X59422296Y-45406041D01*
X59397058Y-45387323D01*
X59373777Y-45366223D01*
X59352677Y-45342942D01*
X59333959Y-45317704D01*
X59317806Y-45290754D01*
X59304372Y-45262350D01*
X59293787Y-45232766D01*
X59286152Y-45202287D01*
X59281542Y-45171207D01*
X59280000Y-45139824D01*
X59280000Y-43955176D01*
X59281542Y-43923793D01*
X59286152Y-43892713D01*
X59293787Y-43862234D01*
X59304372Y-43832650D01*
X59317806Y-43804246D01*
X59333959Y-43777296D01*
X59352677Y-43752058D01*
X59373777Y-43728777D01*
X59397058Y-43707677D01*
X59422296Y-43688959D01*
X59449246Y-43672806D01*
X59477650Y-43659372D01*
X59507234Y-43648787D01*
X59537713Y-43641152D01*
X59568793Y-43636542D01*
X59600176Y-43635000D01*
X61109824Y-43635000D01*
X61141207Y-43636542D01*
X61141207Y-43636542D01*
G37*
D14*
X60355000Y-44547500D03*
G04 #@! TD*
D15*
G04 #@! TO.C,REF\002A\002A*
X72740000Y-109940000D03*
G04 #@! TD*
G04 #@! TO.C,REF\002A\002A*
X29880000Y-149020000D03*
G04 #@! TD*
G04 #@! TO.C,REF\002A\002A*
X165990000Y-149020000D03*
G04 #@! TD*
G04 #@! TO.C,REF\002A\002A*
X129880000Y-109890000D03*
G04 #@! TD*
G04 #@! TO.C,REF\002A\002A*
X137417500Y-27970000D03*
G04 #@! TD*
G04 #@! TO.C,REF\002A\002A*
X29880000Y-27970000D03*
G04 #@! TD*
G04 #@! TO.C,REF\002A\002A*
X29880000Y-54920000D03*
G04 #@! TD*
D13*
G04 #@! TO.C,D28*
G36*
X151628707Y-124534042D02*
X151659787Y-124538652D01*
X151690266Y-124546287D01*
X151719850Y-124556872D01*
X151748254Y-124570306D01*
X151775204Y-124586459D01*
X151800442Y-124605177D01*
X151823723Y-124626277D01*
X151844823Y-124649558D01*
X151863541Y-124674796D01*
X151879694Y-124701746D01*
X151893128Y-124730150D01*
X151903713Y-124759734D01*
X151911348Y-124790213D01*
X151915958Y-124821293D01*
X151917500Y-124852676D01*
X151917500Y-126037324D01*
X151915958Y-126068707D01*
X151911348Y-126099787D01*
X151903713Y-126130266D01*
X151893128Y-126159850D01*
X151879694Y-126188254D01*
X151863541Y-126215204D01*
X151844823Y-126240442D01*
X151823723Y-126263723D01*
X151800442Y-126284823D01*
X151775204Y-126303541D01*
X151748254Y-126319694D01*
X151719850Y-126333128D01*
X151690266Y-126343713D01*
X151659787Y-126351348D01*
X151628707Y-126355958D01*
X151597324Y-126357500D01*
X150087676Y-126357500D01*
X150056293Y-126355958D01*
X150025213Y-126351348D01*
X149994734Y-126343713D01*
X149965150Y-126333128D01*
X149936746Y-126319694D01*
X149909796Y-126303541D01*
X149884558Y-126284823D01*
X149861277Y-126263723D01*
X149840177Y-126240442D01*
X149821459Y-126215204D01*
X149805306Y-126188254D01*
X149791872Y-126159850D01*
X149781287Y-126130266D01*
X149773652Y-126099787D01*
X149769042Y-126068707D01*
X149767500Y-126037324D01*
X149767500Y-124852676D01*
X149769042Y-124821293D01*
X149773652Y-124790213D01*
X149781287Y-124759734D01*
X149791872Y-124730150D01*
X149805306Y-124701746D01*
X149821459Y-124674796D01*
X149840177Y-124649558D01*
X149861277Y-124626277D01*
X149884558Y-124605177D01*
X149909796Y-124586459D01*
X149936746Y-124570306D01*
X149965150Y-124556872D01*
X149994734Y-124546287D01*
X150025213Y-124538652D01*
X150056293Y-124534042D01*
X150087676Y-124532500D01*
X151597324Y-124532500D01*
X151628707Y-124534042D01*
X151628707Y-124534042D01*
G37*
D14*
X150842500Y-125445000D03*
D13*
G36*
X151628707Y-121559042D02*
X151659787Y-121563652D01*
X151690266Y-121571287D01*
X151719850Y-121581872D01*
X151748254Y-121595306D01*
X151775204Y-121611459D01*
X151800442Y-121630177D01*
X151823723Y-121651277D01*
X151844823Y-121674558D01*
X151863541Y-121699796D01*
X151879694Y-121726746D01*
X151893128Y-121755150D01*
X151903713Y-121784734D01*
X151911348Y-121815213D01*
X151915958Y-121846293D01*
X151917500Y-121877676D01*
X151917500Y-123062324D01*
X151915958Y-123093707D01*
X151911348Y-123124787D01*
X151903713Y-123155266D01*
X151893128Y-123184850D01*
X151879694Y-123213254D01*
X151863541Y-123240204D01*
X151844823Y-123265442D01*
X151823723Y-123288723D01*
X151800442Y-123309823D01*
X151775204Y-123328541D01*
X151748254Y-123344694D01*
X151719850Y-123358128D01*
X151690266Y-123368713D01*
X151659787Y-123376348D01*
X151628707Y-123380958D01*
X151597324Y-123382500D01*
X150087676Y-123382500D01*
X150056293Y-123380958D01*
X150025213Y-123376348D01*
X149994734Y-123368713D01*
X149965150Y-123358128D01*
X149936746Y-123344694D01*
X149909796Y-123328541D01*
X149884558Y-123309823D01*
X149861277Y-123288723D01*
X149840177Y-123265442D01*
X149821459Y-123240204D01*
X149805306Y-123213254D01*
X149791872Y-123184850D01*
X149781287Y-123155266D01*
X149773652Y-123124787D01*
X149769042Y-123093707D01*
X149767500Y-123062324D01*
X149767500Y-121877676D01*
X149769042Y-121846293D01*
X149773652Y-121815213D01*
X149781287Y-121784734D01*
X149791872Y-121755150D01*
X149805306Y-121726746D01*
X149821459Y-121699796D01*
X149840177Y-121674558D01*
X149861277Y-121651277D01*
X149884558Y-121630177D01*
X149909796Y-121611459D01*
X149936746Y-121595306D01*
X149965150Y-121581872D01*
X149994734Y-121571287D01*
X150025213Y-121563652D01*
X150056293Y-121559042D01*
X150087676Y-121557500D01*
X151597324Y-121557500D01*
X151628707Y-121559042D01*
X151628707Y-121559042D01*
G37*
D14*
X150842500Y-122470000D03*
G04 #@! TD*
D15*
G04 #@! TO.C,REF\002A\002A*
X134650000Y-71840000D03*
G04 #@! TD*
D13*
G04 #@! TO.C,D2*
G36*
X80191207Y-40661542D02*
X80222287Y-40666152D01*
X80252766Y-40673787D01*
X80282350Y-40684372D01*
X80310754Y-40697806D01*
X80337704Y-40713959D01*
X80362942Y-40732677D01*
X80386223Y-40753777D01*
X80407323Y-40777058D01*
X80426041Y-40802296D01*
X80442194Y-40829246D01*
X80455628Y-40857650D01*
X80466213Y-40887234D01*
X80473848Y-40917713D01*
X80478458Y-40948793D01*
X80480000Y-40980176D01*
X80480000Y-42164824D01*
X80478458Y-42196207D01*
X80473848Y-42227287D01*
X80466213Y-42257766D01*
X80455628Y-42287350D01*
X80442194Y-42315754D01*
X80426041Y-42342704D01*
X80407323Y-42367942D01*
X80386223Y-42391223D01*
X80362942Y-42412323D01*
X80337704Y-42431041D01*
X80310754Y-42447194D01*
X80282350Y-42460628D01*
X80252766Y-42471213D01*
X80222287Y-42478848D01*
X80191207Y-42483458D01*
X80159824Y-42485000D01*
X78650176Y-42485000D01*
X78618793Y-42483458D01*
X78587713Y-42478848D01*
X78557234Y-42471213D01*
X78527650Y-42460628D01*
X78499246Y-42447194D01*
X78472296Y-42431041D01*
X78447058Y-42412323D01*
X78423777Y-42391223D01*
X78402677Y-42367942D01*
X78383959Y-42342704D01*
X78367806Y-42315754D01*
X78354372Y-42287350D01*
X78343787Y-42257766D01*
X78336152Y-42227287D01*
X78331542Y-42196207D01*
X78330000Y-42164824D01*
X78330000Y-40980176D01*
X78331542Y-40948793D01*
X78336152Y-40917713D01*
X78343787Y-40887234D01*
X78354372Y-40857650D01*
X78367806Y-40829246D01*
X78383959Y-40802296D01*
X78402677Y-40777058D01*
X78423777Y-40753777D01*
X78447058Y-40732677D01*
X78472296Y-40713959D01*
X78499246Y-40697806D01*
X78527650Y-40684372D01*
X78557234Y-40673787D01*
X78587713Y-40666152D01*
X78618793Y-40661542D01*
X78650176Y-40660000D01*
X80159824Y-40660000D01*
X80191207Y-40661542D01*
X80191207Y-40661542D01*
G37*
D14*
X79405000Y-41572500D03*
D13*
G36*
X80191207Y-43636542D02*
X80222287Y-43641152D01*
X80252766Y-43648787D01*
X80282350Y-43659372D01*
X80310754Y-43672806D01*
X80337704Y-43688959D01*
X80362942Y-43707677D01*
X80386223Y-43728777D01*
X80407323Y-43752058D01*
X80426041Y-43777296D01*
X80442194Y-43804246D01*
X80455628Y-43832650D01*
X80466213Y-43862234D01*
X80473848Y-43892713D01*
X80478458Y-43923793D01*
X80480000Y-43955176D01*
X80480000Y-45139824D01*
X80478458Y-45171207D01*
X80473848Y-45202287D01*
X80466213Y-45232766D01*
X80455628Y-45262350D01*
X80442194Y-45290754D01*
X80426041Y-45317704D01*
X80407323Y-45342942D01*
X80386223Y-45366223D01*
X80362942Y-45387323D01*
X80337704Y-45406041D01*
X80310754Y-45422194D01*
X80282350Y-45435628D01*
X80252766Y-45446213D01*
X80222287Y-45453848D01*
X80191207Y-45458458D01*
X80159824Y-45460000D01*
X78650176Y-45460000D01*
X78618793Y-45458458D01*
X78587713Y-45453848D01*
X78557234Y-45446213D01*
X78527650Y-45435628D01*
X78499246Y-45422194D01*
X78472296Y-45406041D01*
X78447058Y-45387323D01*
X78423777Y-45366223D01*
X78402677Y-45342942D01*
X78383959Y-45317704D01*
X78367806Y-45290754D01*
X78354372Y-45262350D01*
X78343787Y-45232766D01*
X78336152Y-45202287D01*
X78331542Y-45171207D01*
X78330000Y-45139824D01*
X78330000Y-43955176D01*
X78331542Y-43923793D01*
X78336152Y-43892713D01*
X78343787Y-43862234D01*
X78354372Y-43832650D01*
X78367806Y-43804246D01*
X78383959Y-43777296D01*
X78402677Y-43752058D01*
X78423777Y-43728777D01*
X78447058Y-43707677D01*
X78472296Y-43688959D01*
X78499246Y-43672806D01*
X78527650Y-43659372D01*
X78557234Y-43648787D01*
X78587713Y-43641152D01*
X78618793Y-43636542D01*
X78650176Y-43635000D01*
X80159824Y-43635000D01*
X80191207Y-43636542D01*
X80191207Y-43636542D01*
G37*
D14*
X79405000Y-44547500D03*
G04 #@! TD*
D16*
G04 #@! TO.C,REF\002A\002A*
X76150000Y-52310000D03*
G04 #@! TD*
G04 #@! TO.C,REF\002A\002A*
X57100000Y-52310000D03*
G04 #@! TD*
D17*
G04 #@! TO.C,REF\002A\002A*
X132380000Y-52310000D03*
G04 #@! TD*
D16*
G04 #@! TO.C,REF\002A\002A*
X114250000Y-52310000D03*
G04 #@! TD*
D18*
G04 #@! TO.C,SW18*
X75277500Y-95310000D03*
X68927500Y-97850000D03*
D19*
X72737500Y-100390000D03*
D20*
X67657500Y-100390000D03*
X77817500Y-100390000D03*
D21*
X79087500Y-95310000D03*
X65117500Y-97850000D03*
G04 #@! TD*
D16*
G04 #@! TO.C,REF\002A\002A*
X95200000Y-52310000D03*
G04 #@! TD*
D13*
G04 #@! TO.C,D25*
G36*
X94478707Y-121559042D02*
X94509787Y-121563652D01*
X94540266Y-121571287D01*
X94569850Y-121581872D01*
X94598254Y-121595306D01*
X94625204Y-121611459D01*
X94650442Y-121630177D01*
X94673723Y-121651277D01*
X94694823Y-121674558D01*
X94713541Y-121699796D01*
X94729694Y-121726746D01*
X94743128Y-121755150D01*
X94753713Y-121784734D01*
X94761348Y-121815213D01*
X94765958Y-121846293D01*
X94767500Y-121877676D01*
X94767500Y-123062324D01*
X94765958Y-123093707D01*
X94761348Y-123124787D01*
X94753713Y-123155266D01*
X94743128Y-123184850D01*
X94729694Y-123213254D01*
X94713541Y-123240204D01*
X94694823Y-123265442D01*
X94673723Y-123288723D01*
X94650442Y-123309823D01*
X94625204Y-123328541D01*
X94598254Y-123344694D01*
X94569850Y-123358128D01*
X94540266Y-123368713D01*
X94509787Y-123376348D01*
X94478707Y-123380958D01*
X94447324Y-123382500D01*
X92937676Y-123382500D01*
X92906293Y-123380958D01*
X92875213Y-123376348D01*
X92844734Y-123368713D01*
X92815150Y-123358128D01*
X92786746Y-123344694D01*
X92759796Y-123328541D01*
X92734558Y-123309823D01*
X92711277Y-123288723D01*
X92690177Y-123265442D01*
X92671459Y-123240204D01*
X92655306Y-123213254D01*
X92641872Y-123184850D01*
X92631287Y-123155266D01*
X92623652Y-123124787D01*
X92619042Y-123093707D01*
X92617500Y-123062324D01*
X92617500Y-121877676D01*
X92619042Y-121846293D01*
X92623652Y-121815213D01*
X92631287Y-121784734D01*
X92641872Y-121755150D01*
X92655306Y-121726746D01*
X92671459Y-121699796D01*
X92690177Y-121674558D01*
X92711277Y-121651277D01*
X92734558Y-121630177D01*
X92759796Y-121611459D01*
X92786746Y-121595306D01*
X92815150Y-121581872D01*
X92844734Y-121571287D01*
X92875213Y-121563652D01*
X92906293Y-121559042D01*
X92937676Y-121557500D01*
X94447324Y-121557500D01*
X94478707Y-121559042D01*
X94478707Y-121559042D01*
G37*
D14*
X93692500Y-122470000D03*
D13*
G36*
X94478707Y-124534042D02*
X94509787Y-124538652D01*
X94540266Y-124546287D01*
X94569850Y-124556872D01*
X94598254Y-124570306D01*
X94625204Y-124586459D01*
X94650442Y-124605177D01*
X94673723Y-124626277D01*
X94694823Y-124649558D01*
X94713541Y-124674796D01*
X94729694Y-124701746D01*
X94743128Y-124730150D01*
X94753713Y-124759734D01*
X94761348Y-124790213D01*
X94765958Y-124821293D01*
X94767500Y-124852676D01*
X94767500Y-126037324D01*
X94765958Y-126068707D01*
X94761348Y-126099787D01*
X94753713Y-126130266D01*
X94743128Y-126159850D01*
X94729694Y-126188254D01*
X94713541Y-126215204D01*
X94694823Y-126240442D01*
X94673723Y-126263723D01*
X94650442Y-126284823D01*
X94625204Y-126303541D01*
X94598254Y-126319694D01*
X94569850Y-126333128D01*
X94540266Y-126343713D01*
X94509787Y-126351348D01*
X94478707Y-126355958D01*
X94447324Y-126357500D01*
X92937676Y-126357500D01*
X92906293Y-126355958D01*
X92875213Y-126351348D01*
X92844734Y-126343713D01*
X92815150Y-126333128D01*
X92786746Y-126319694D01*
X92759796Y-126303541D01*
X92734558Y-126284823D01*
X92711277Y-126263723D01*
X92690177Y-126240442D01*
X92671459Y-126215204D01*
X92655306Y-126188254D01*
X92641872Y-126159850D01*
X92631287Y-126130266D01*
X92623652Y-126099787D01*
X92619042Y-126068707D01*
X92617500Y-126037324D01*
X92617500Y-124852676D01*
X92619042Y-124821293D01*
X92623652Y-124790213D01*
X92631287Y-124759734D01*
X92641872Y-124730150D01*
X92655306Y-124701746D01*
X92671459Y-124674796D01*
X92690177Y-124649558D01*
X92711277Y-124626277D01*
X92734558Y-124605177D01*
X92759796Y-124586459D01*
X92786746Y-124570306D01*
X92815150Y-124556872D01*
X92844734Y-124546287D01*
X92875213Y-124538652D01*
X92906293Y-124534042D01*
X92937676Y-124532500D01*
X94447324Y-124532500D01*
X94478707Y-124534042D01*
X94478707Y-124534042D01*
G37*
D14*
X93692500Y-125445000D03*
G04 #@! TD*
D13*
G04 #@! TO.C,D29*
G36*
X82572207Y-140659042D02*
X82603287Y-140663652D01*
X82633766Y-140671287D01*
X82663350Y-140681872D01*
X82691754Y-140695306D01*
X82718704Y-140711459D01*
X82743942Y-140730177D01*
X82767223Y-140751277D01*
X82788323Y-140774558D01*
X82807041Y-140799796D01*
X82823194Y-140826746D01*
X82836628Y-140855150D01*
X82847213Y-140884734D01*
X82854848Y-140915213D01*
X82859458Y-140946293D01*
X82861000Y-140977676D01*
X82861000Y-142162324D01*
X82859458Y-142193707D01*
X82854848Y-142224787D01*
X82847213Y-142255266D01*
X82836628Y-142284850D01*
X82823194Y-142313254D01*
X82807041Y-142340204D01*
X82788323Y-142365442D01*
X82767223Y-142388723D01*
X82743942Y-142409823D01*
X82718704Y-142428541D01*
X82691754Y-142444694D01*
X82663350Y-142458128D01*
X82633766Y-142468713D01*
X82603287Y-142476348D01*
X82572207Y-142480958D01*
X82540824Y-142482500D01*
X81031176Y-142482500D01*
X80999793Y-142480958D01*
X80968713Y-142476348D01*
X80938234Y-142468713D01*
X80908650Y-142458128D01*
X80880246Y-142444694D01*
X80853296Y-142428541D01*
X80828058Y-142409823D01*
X80804777Y-142388723D01*
X80783677Y-142365442D01*
X80764959Y-142340204D01*
X80748806Y-142313254D01*
X80735372Y-142284850D01*
X80724787Y-142255266D01*
X80717152Y-142224787D01*
X80712542Y-142193707D01*
X80711000Y-142162324D01*
X80711000Y-140977676D01*
X80712542Y-140946293D01*
X80717152Y-140915213D01*
X80724787Y-140884734D01*
X80735372Y-140855150D01*
X80748806Y-140826746D01*
X80764959Y-140799796D01*
X80783677Y-140774558D01*
X80804777Y-140751277D01*
X80828058Y-140730177D01*
X80853296Y-140711459D01*
X80880246Y-140695306D01*
X80908650Y-140681872D01*
X80938234Y-140671287D01*
X80968713Y-140663652D01*
X80999793Y-140659042D01*
X81031176Y-140657500D01*
X82540824Y-140657500D01*
X82572207Y-140659042D01*
X82572207Y-140659042D01*
G37*
D14*
X81786000Y-141570000D03*
D13*
G36*
X82572207Y-143634042D02*
X82603287Y-143638652D01*
X82633766Y-143646287D01*
X82663350Y-143656872D01*
X82691754Y-143670306D01*
X82718704Y-143686459D01*
X82743942Y-143705177D01*
X82767223Y-143726277D01*
X82788323Y-143749558D01*
X82807041Y-143774796D01*
X82823194Y-143801746D01*
X82836628Y-143830150D01*
X82847213Y-143859734D01*
X82854848Y-143890213D01*
X82859458Y-143921293D01*
X82861000Y-143952676D01*
X82861000Y-145137324D01*
X82859458Y-145168707D01*
X82854848Y-145199787D01*
X82847213Y-145230266D01*
X82836628Y-145259850D01*
X82823194Y-145288254D01*
X82807041Y-145315204D01*
X82788323Y-145340442D01*
X82767223Y-145363723D01*
X82743942Y-145384823D01*
X82718704Y-145403541D01*
X82691754Y-145419694D01*
X82663350Y-145433128D01*
X82633766Y-145443713D01*
X82603287Y-145451348D01*
X82572207Y-145455958D01*
X82540824Y-145457500D01*
X81031176Y-145457500D01*
X80999793Y-145455958D01*
X80968713Y-145451348D01*
X80938234Y-145443713D01*
X80908650Y-145433128D01*
X80880246Y-145419694D01*
X80853296Y-145403541D01*
X80828058Y-145384823D01*
X80804777Y-145363723D01*
X80783677Y-145340442D01*
X80764959Y-145315204D01*
X80748806Y-145288254D01*
X80735372Y-145259850D01*
X80724787Y-145230266D01*
X80717152Y-145199787D01*
X80712542Y-145168707D01*
X80711000Y-145137324D01*
X80711000Y-143952676D01*
X80712542Y-143921293D01*
X80717152Y-143890213D01*
X80724787Y-143859734D01*
X80735372Y-143830150D01*
X80748806Y-143801746D01*
X80764959Y-143774796D01*
X80783677Y-143749558D01*
X80804777Y-143726277D01*
X80828058Y-143705177D01*
X80853296Y-143686459D01*
X80880246Y-143670306D01*
X80908650Y-143656872D01*
X80938234Y-143646287D01*
X80968713Y-143638652D01*
X80999793Y-143634042D01*
X81031176Y-143632500D01*
X82540824Y-143632500D01*
X82572207Y-143634042D01*
X82572207Y-143634042D01*
G37*
D14*
X81786000Y-144545000D03*
G04 #@! TD*
D22*
G04 #@! TO.C,JP_da0*
X33110000Y-119450000D03*
X31810000Y-119450000D03*
G04 #@! TD*
G04 #@! TO.C,JP_xa0*
X33200000Y-100450000D03*
X31900000Y-100450000D03*
G04 #@! TD*
D13*
G04 #@! TO.C,R_xdata0*
G36*
X35451207Y-108636542D02*
X35482287Y-108641152D01*
X35512766Y-108648787D01*
X35542350Y-108659372D01*
X35570754Y-108672806D01*
X35597704Y-108688959D01*
X35622942Y-108707677D01*
X35646223Y-108728777D01*
X35667323Y-108752058D01*
X35686041Y-108777296D01*
X35702194Y-108804246D01*
X35715628Y-108832650D01*
X35726213Y-108862234D01*
X35733848Y-108892713D01*
X35738458Y-108923793D01*
X35740000Y-108955176D01*
X35740000Y-110464824D01*
X35738458Y-110496207D01*
X35733848Y-110527287D01*
X35726213Y-110557766D01*
X35715628Y-110587350D01*
X35702194Y-110615754D01*
X35686041Y-110642704D01*
X35667323Y-110667942D01*
X35646223Y-110691223D01*
X35622942Y-110712323D01*
X35597704Y-110731041D01*
X35570754Y-110747194D01*
X35542350Y-110760628D01*
X35512766Y-110771213D01*
X35482287Y-110778848D01*
X35451207Y-110783458D01*
X35419824Y-110785000D01*
X34235176Y-110785000D01*
X34203793Y-110783458D01*
X34172713Y-110778848D01*
X34142234Y-110771213D01*
X34112650Y-110760628D01*
X34084246Y-110747194D01*
X34057296Y-110731041D01*
X34032058Y-110712323D01*
X34008777Y-110691223D01*
X33987677Y-110667942D01*
X33968959Y-110642704D01*
X33952806Y-110615754D01*
X33939372Y-110587350D01*
X33928787Y-110557766D01*
X33921152Y-110527287D01*
X33916542Y-110496207D01*
X33915000Y-110464824D01*
X33915000Y-108955176D01*
X33916542Y-108923793D01*
X33921152Y-108892713D01*
X33928787Y-108862234D01*
X33939372Y-108832650D01*
X33952806Y-108804246D01*
X33968959Y-108777296D01*
X33987677Y-108752058D01*
X34008777Y-108728777D01*
X34032058Y-108707677D01*
X34057296Y-108688959D01*
X34084246Y-108672806D01*
X34112650Y-108659372D01*
X34142234Y-108648787D01*
X34172713Y-108641152D01*
X34203793Y-108636542D01*
X34235176Y-108635000D01*
X35419824Y-108635000D01*
X35451207Y-108636542D01*
X35451207Y-108636542D01*
G37*
D14*
X34827500Y-109710000D03*
D13*
G36*
X32476207Y-108636542D02*
X32507287Y-108641152D01*
X32537766Y-108648787D01*
X32567350Y-108659372D01*
X32595754Y-108672806D01*
X32622704Y-108688959D01*
X32647942Y-108707677D01*
X32671223Y-108728777D01*
X32692323Y-108752058D01*
X32711041Y-108777296D01*
X32727194Y-108804246D01*
X32740628Y-108832650D01*
X32751213Y-108862234D01*
X32758848Y-108892713D01*
X32763458Y-108923793D01*
X32765000Y-108955176D01*
X32765000Y-110464824D01*
X32763458Y-110496207D01*
X32758848Y-110527287D01*
X32751213Y-110557766D01*
X32740628Y-110587350D01*
X32727194Y-110615754D01*
X32711041Y-110642704D01*
X32692323Y-110667942D01*
X32671223Y-110691223D01*
X32647942Y-110712323D01*
X32622704Y-110731041D01*
X32595754Y-110747194D01*
X32567350Y-110760628D01*
X32537766Y-110771213D01*
X32507287Y-110778848D01*
X32476207Y-110783458D01*
X32444824Y-110785000D01*
X31260176Y-110785000D01*
X31228793Y-110783458D01*
X31197713Y-110778848D01*
X31167234Y-110771213D01*
X31137650Y-110760628D01*
X31109246Y-110747194D01*
X31082296Y-110731041D01*
X31057058Y-110712323D01*
X31033777Y-110691223D01*
X31012677Y-110667942D01*
X30993959Y-110642704D01*
X30977806Y-110615754D01*
X30964372Y-110587350D01*
X30953787Y-110557766D01*
X30946152Y-110527287D01*
X30941542Y-110496207D01*
X30940000Y-110464824D01*
X30940000Y-108955176D01*
X30941542Y-108923793D01*
X30946152Y-108892713D01*
X30953787Y-108862234D01*
X30964372Y-108832650D01*
X30977806Y-108804246D01*
X30993959Y-108777296D01*
X31012677Y-108752058D01*
X31033777Y-108728777D01*
X31057058Y-108707677D01*
X31082296Y-108688959D01*
X31109246Y-108672806D01*
X31137650Y-108659372D01*
X31167234Y-108648787D01*
X31197713Y-108641152D01*
X31228793Y-108636542D01*
X31260176Y-108635000D01*
X32444824Y-108635000D01*
X32476207Y-108636542D01*
X32476207Y-108636542D01*
G37*
D14*
X31852500Y-109710000D03*
G04 #@! TD*
D13*
G04 #@! TO.C,D18*
G36*
X65903707Y-102549042D02*
X65934787Y-102553652D01*
X65965266Y-102561287D01*
X65994850Y-102571872D01*
X66023254Y-102585306D01*
X66050204Y-102601459D01*
X66075442Y-102620177D01*
X66098723Y-102641277D01*
X66119823Y-102664558D01*
X66138541Y-102689796D01*
X66154694Y-102716746D01*
X66168128Y-102745150D01*
X66178713Y-102774734D01*
X66186348Y-102805213D01*
X66190958Y-102836293D01*
X66192500Y-102867676D01*
X66192500Y-104052324D01*
X66190958Y-104083707D01*
X66186348Y-104114787D01*
X66178713Y-104145266D01*
X66168128Y-104174850D01*
X66154694Y-104203254D01*
X66138541Y-104230204D01*
X66119823Y-104255442D01*
X66098723Y-104278723D01*
X66075442Y-104299823D01*
X66050204Y-104318541D01*
X66023254Y-104334694D01*
X65994850Y-104348128D01*
X65965266Y-104358713D01*
X65934787Y-104366348D01*
X65903707Y-104370958D01*
X65872324Y-104372500D01*
X64362676Y-104372500D01*
X64331293Y-104370958D01*
X64300213Y-104366348D01*
X64269734Y-104358713D01*
X64240150Y-104348128D01*
X64211746Y-104334694D01*
X64184796Y-104318541D01*
X64159558Y-104299823D01*
X64136277Y-104278723D01*
X64115177Y-104255442D01*
X64096459Y-104230204D01*
X64080306Y-104203254D01*
X64066872Y-104174850D01*
X64056287Y-104145266D01*
X64048652Y-104114787D01*
X64044042Y-104083707D01*
X64042500Y-104052324D01*
X64042500Y-102867676D01*
X64044042Y-102836293D01*
X64048652Y-102805213D01*
X64056287Y-102774734D01*
X64066872Y-102745150D01*
X64080306Y-102716746D01*
X64096459Y-102689796D01*
X64115177Y-102664558D01*
X64136277Y-102641277D01*
X64159558Y-102620177D01*
X64184796Y-102601459D01*
X64211746Y-102585306D01*
X64240150Y-102571872D01*
X64269734Y-102561287D01*
X64300213Y-102553652D01*
X64331293Y-102549042D01*
X64362676Y-102547500D01*
X65872324Y-102547500D01*
X65903707Y-102549042D01*
X65903707Y-102549042D01*
G37*
D14*
X65117500Y-103460000D03*
D13*
G36*
X65903707Y-105524042D02*
X65934787Y-105528652D01*
X65965266Y-105536287D01*
X65994850Y-105546872D01*
X66023254Y-105560306D01*
X66050204Y-105576459D01*
X66075442Y-105595177D01*
X66098723Y-105616277D01*
X66119823Y-105639558D01*
X66138541Y-105664796D01*
X66154694Y-105691746D01*
X66168128Y-105720150D01*
X66178713Y-105749734D01*
X66186348Y-105780213D01*
X66190958Y-105811293D01*
X66192500Y-105842676D01*
X66192500Y-107027324D01*
X66190958Y-107058707D01*
X66186348Y-107089787D01*
X66178713Y-107120266D01*
X66168128Y-107149850D01*
X66154694Y-107178254D01*
X66138541Y-107205204D01*
X66119823Y-107230442D01*
X66098723Y-107253723D01*
X66075442Y-107274823D01*
X66050204Y-107293541D01*
X66023254Y-107309694D01*
X65994850Y-107323128D01*
X65965266Y-107333713D01*
X65934787Y-107341348D01*
X65903707Y-107345958D01*
X65872324Y-107347500D01*
X64362676Y-107347500D01*
X64331293Y-107345958D01*
X64300213Y-107341348D01*
X64269734Y-107333713D01*
X64240150Y-107323128D01*
X64211746Y-107309694D01*
X64184796Y-107293541D01*
X64159558Y-107274823D01*
X64136277Y-107253723D01*
X64115177Y-107230442D01*
X64096459Y-107205204D01*
X64080306Y-107178254D01*
X64066872Y-107149850D01*
X64056287Y-107120266D01*
X64048652Y-107089787D01*
X64044042Y-107058707D01*
X64042500Y-107027324D01*
X64042500Y-105842676D01*
X64044042Y-105811293D01*
X64048652Y-105780213D01*
X64056287Y-105749734D01*
X64066872Y-105720150D01*
X64080306Y-105691746D01*
X64096459Y-105664796D01*
X64115177Y-105639558D01*
X64136277Y-105616277D01*
X64159558Y-105595177D01*
X64184796Y-105576459D01*
X64211746Y-105560306D01*
X64240150Y-105546872D01*
X64269734Y-105536287D01*
X64300213Y-105528652D01*
X64331293Y-105524042D01*
X64362676Y-105522500D01*
X65872324Y-105522500D01*
X65903707Y-105524042D01*
X65903707Y-105524042D01*
G37*
D14*
X65117500Y-106435000D03*
G04 #@! TD*
D13*
G04 #@! TO.C,D30*
G36*
X106384707Y-143634042D02*
X106415787Y-143638652D01*
X106446266Y-143646287D01*
X106475850Y-143656872D01*
X106504254Y-143670306D01*
X106531204Y-143686459D01*
X106556442Y-143705177D01*
X106579723Y-143726277D01*
X106600823Y-143749558D01*
X106619541Y-143774796D01*
X106635694Y-143801746D01*
X106649128Y-143830150D01*
X106659713Y-143859734D01*
X106667348Y-143890213D01*
X106671958Y-143921293D01*
X106673500Y-143952676D01*
X106673500Y-145137324D01*
X106671958Y-145168707D01*
X106667348Y-145199787D01*
X106659713Y-145230266D01*
X106649128Y-145259850D01*
X106635694Y-145288254D01*
X106619541Y-145315204D01*
X106600823Y-145340442D01*
X106579723Y-145363723D01*
X106556442Y-145384823D01*
X106531204Y-145403541D01*
X106504254Y-145419694D01*
X106475850Y-145433128D01*
X106446266Y-145443713D01*
X106415787Y-145451348D01*
X106384707Y-145455958D01*
X106353324Y-145457500D01*
X104843676Y-145457500D01*
X104812293Y-145455958D01*
X104781213Y-145451348D01*
X104750734Y-145443713D01*
X104721150Y-145433128D01*
X104692746Y-145419694D01*
X104665796Y-145403541D01*
X104640558Y-145384823D01*
X104617277Y-145363723D01*
X104596177Y-145340442D01*
X104577459Y-145315204D01*
X104561306Y-145288254D01*
X104547872Y-145259850D01*
X104537287Y-145230266D01*
X104529652Y-145199787D01*
X104525042Y-145168707D01*
X104523500Y-145137324D01*
X104523500Y-143952676D01*
X104525042Y-143921293D01*
X104529652Y-143890213D01*
X104537287Y-143859734D01*
X104547872Y-143830150D01*
X104561306Y-143801746D01*
X104577459Y-143774796D01*
X104596177Y-143749558D01*
X104617277Y-143726277D01*
X104640558Y-143705177D01*
X104665796Y-143686459D01*
X104692746Y-143670306D01*
X104721150Y-143656872D01*
X104750734Y-143646287D01*
X104781213Y-143638652D01*
X104812293Y-143634042D01*
X104843676Y-143632500D01*
X106353324Y-143632500D01*
X106384707Y-143634042D01*
X106384707Y-143634042D01*
G37*
D14*
X105598500Y-144545000D03*
D13*
G36*
X106384707Y-140659042D02*
X106415787Y-140663652D01*
X106446266Y-140671287D01*
X106475850Y-140681872D01*
X106504254Y-140695306D01*
X106531204Y-140711459D01*
X106556442Y-140730177D01*
X106579723Y-140751277D01*
X106600823Y-140774558D01*
X106619541Y-140799796D01*
X106635694Y-140826746D01*
X106649128Y-140855150D01*
X106659713Y-140884734D01*
X106667348Y-140915213D01*
X106671958Y-140946293D01*
X106673500Y-140977676D01*
X106673500Y-142162324D01*
X106671958Y-142193707D01*
X106667348Y-142224787D01*
X106659713Y-142255266D01*
X106649128Y-142284850D01*
X106635694Y-142313254D01*
X106619541Y-142340204D01*
X106600823Y-142365442D01*
X106579723Y-142388723D01*
X106556442Y-142409823D01*
X106531204Y-142428541D01*
X106504254Y-142444694D01*
X106475850Y-142458128D01*
X106446266Y-142468713D01*
X106415787Y-142476348D01*
X106384707Y-142480958D01*
X106353324Y-142482500D01*
X104843676Y-142482500D01*
X104812293Y-142480958D01*
X104781213Y-142476348D01*
X104750734Y-142468713D01*
X104721150Y-142458128D01*
X104692746Y-142444694D01*
X104665796Y-142428541D01*
X104640558Y-142409823D01*
X104617277Y-142388723D01*
X104596177Y-142365442D01*
X104577459Y-142340204D01*
X104561306Y-142313254D01*
X104547872Y-142284850D01*
X104537287Y-142255266D01*
X104529652Y-142224787D01*
X104525042Y-142193707D01*
X104523500Y-142162324D01*
X104523500Y-140977676D01*
X104525042Y-140946293D01*
X104529652Y-140915213D01*
X104537287Y-140884734D01*
X104547872Y-140855150D01*
X104561306Y-140826746D01*
X104577459Y-140799796D01*
X104596177Y-140774558D01*
X104617277Y-140751277D01*
X104640558Y-140730177D01*
X104665796Y-140711459D01*
X104692746Y-140695306D01*
X104721150Y-140681872D01*
X104750734Y-140671287D01*
X104781213Y-140663652D01*
X104812293Y-140659042D01*
X104843676Y-140657500D01*
X106353324Y-140657500D01*
X106384707Y-140659042D01*
X106384707Y-140659042D01*
G37*
D14*
X105598500Y-141570000D03*
G04 #@! TD*
D13*
G04 #@! TO.C,D8*
G36*
X89716207Y-64429042D02*
X89747287Y-64433652D01*
X89777766Y-64441287D01*
X89807350Y-64451872D01*
X89835754Y-64465306D01*
X89862704Y-64481459D01*
X89887942Y-64500177D01*
X89911223Y-64521277D01*
X89932323Y-64544558D01*
X89951041Y-64569796D01*
X89967194Y-64596746D01*
X89980628Y-64625150D01*
X89991213Y-64654734D01*
X89998848Y-64685213D01*
X90003458Y-64716293D01*
X90005000Y-64747676D01*
X90005000Y-65932324D01*
X90003458Y-65963707D01*
X89998848Y-65994787D01*
X89991213Y-66025266D01*
X89980628Y-66054850D01*
X89967194Y-66083254D01*
X89951041Y-66110204D01*
X89932323Y-66135442D01*
X89911223Y-66158723D01*
X89887942Y-66179823D01*
X89862704Y-66198541D01*
X89835754Y-66214694D01*
X89807350Y-66228128D01*
X89777766Y-66238713D01*
X89747287Y-66246348D01*
X89716207Y-66250958D01*
X89684824Y-66252500D01*
X88175176Y-66252500D01*
X88143793Y-66250958D01*
X88112713Y-66246348D01*
X88082234Y-66238713D01*
X88052650Y-66228128D01*
X88024246Y-66214694D01*
X87997296Y-66198541D01*
X87972058Y-66179823D01*
X87948777Y-66158723D01*
X87927677Y-66135442D01*
X87908959Y-66110204D01*
X87892806Y-66083254D01*
X87879372Y-66054850D01*
X87868787Y-66025266D01*
X87861152Y-65994787D01*
X87856542Y-65963707D01*
X87855000Y-65932324D01*
X87855000Y-64747676D01*
X87856542Y-64716293D01*
X87861152Y-64685213D01*
X87868787Y-64654734D01*
X87879372Y-64625150D01*
X87892806Y-64596746D01*
X87908959Y-64569796D01*
X87927677Y-64544558D01*
X87948777Y-64521277D01*
X87972058Y-64500177D01*
X87997296Y-64481459D01*
X88024246Y-64465306D01*
X88052650Y-64451872D01*
X88082234Y-64441287D01*
X88112713Y-64433652D01*
X88143793Y-64429042D01*
X88175176Y-64427500D01*
X89684824Y-64427500D01*
X89716207Y-64429042D01*
X89716207Y-64429042D01*
G37*
D14*
X88930000Y-65340000D03*
D13*
G36*
X89716207Y-67404042D02*
X89747287Y-67408652D01*
X89777766Y-67416287D01*
X89807350Y-67426872D01*
X89835754Y-67440306D01*
X89862704Y-67456459D01*
X89887942Y-67475177D01*
X89911223Y-67496277D01*
X89932323Y-67519558D01*
X89951041Y-67544796D01*
X89967194Y-67571746D01*
X89980628Y-67600150D01*
X89991213Y-67629734D01*
X89998848Y-67660213D01*
X90003458Y-67691293D01*
X90005000Y-67722676D01*
X90005000Y-68907324D01*
X90003458Y-68938707D01*
X89998848Y-68969787D01*
X89991213Y-69000266D01*
X89980628Y-69029850D01*
X89967194Y-69058254D01*
X89951041Y-69085204D01*
X89932323Y-69110442D01*
X89911223Y-69133723D01*
X89887942Y-69154823D01*
X89862704Y-69173541D01*
X89835754Y-69189694D01*
X89807350Y-69203128D01*
X89777766Y-69213713D01*
X89747287Y-69221348D01*
X89716207Y-69225958D01*
X89684824Y-69227500D01*
X88175176Y-69227500D01*
X88143793Y-69225958D01*
X88112713Y-69221348D01*
X88082234Y-69213713D01*
X88052650Y-69203128D01*
X88024246Y-69189694D01*
X87997296Y-69173541D01*
X87972058Y-69154823D01*
X87948777Y-69133723D01*
X87927677Y-69110442D01*
X87908959Y-69085204D01*
X87892806Y-69058254D01*
X87879372Y-69029850D01*
X87868787Y-69000266D01*
X87861152Y-68969787D01*
X87856542Y-68938707D01*
X87855000Y-68907324D01*
X87855000Y-67722676D01*
X87856542Y-67691293D01*
X87861152Y-67660213D01*
X87868787Y-67629734D01*
X87879372Y-67600150D01*
X87892806Y-67571746D01*
X87908959Y-67544796D01*
X87927677Y-67519558D01*
X87948777Y-67496277D01*
X87972058Y-67475177D01*
X87997296Y-67456459D01*
X88024246Y-67440306D01*
X88052650Y-67426872D01*
X88082234Y-67416287D01*
X88112713Y-67408652D01*
X88143793Y-67404042D01*
X88175176Y-67402500D01*
X89684824Y-67402500D01*
X89716207Y-67404042D01*
X89716207Y-67404042D01*
G37*
D14*
X88930000Y-68315000D03*
G04 #@! TD*
D21*
G04 #@! TO.C,SW0*
X31780000Y-35937500D03*
X45750000Y-33397500D03*
D20*
X44480000Y-38477500D03*
X34320000Y-38477500D03*
D19*
X39400000Y-38477500D03*
D18*
X35590000Y-35937500D03*
X41940000Y-33397500D03*
G04 #@! TD*
D13*
G04 #@! TO.C,D9*
G36*
X108766207Y-64429042D02*
X108797287Y-64433652D01*
X108827766Y-64441287D01*
X108857350Y-64451872D01*
X108885754Y-64465306D01*
X108912704Y-64481459D01*
X108937942Y-64500177D01*
X108961223Y-64521277D01*
X108982323Y-64544558D01*
X109001041Y-64569796D01*
X109017194Y-64596746D01*
X109030628Y-64625150D01*
X109041213Y-64654734D01*
X109048848Y-64685213D01*
X109053458Y-64716293D01*
X109055000Y-64747676D01*
X109055000Y-65932324D01*
X109053458Y-65963707D01*
X109048848Y-65994787D01*
X109041213Y-66025266D01*
X109030628Y-66054850D01*
X109017194Y-66083254D01*
X109001041Y-66110204D01*
X108982323Y-66135442D01*
X108961223Y-66158723D01*
X108937942Y-66179823D01*
X108912704Y-66198541D01*
X108885754Y-66214694D01*
X108857350Y-66228128D01*
X108827766Y-66238713D01*
X108797287Y-66246348D01*
X108766207Y-66250958D01*
X108734824Y-66252500D01*
X107225176Y-66252500D01*
X107193793Y-66250958D01*
X107162713Y-66246348D01*
X107132234Y-66238713D01*
X107102650Y-66228128D01*
X107074246Y-66214694D01*
X107047296Y-66198541D01*
X107022058Y-66179823D01*
X106998777Y-66158723D01*
X106977677Y-66135442D01*
X106958959Y-66110204D01*
X106942806Y-66083254D01*
X106929372Y-66054850D01*
X106918787Y-66025266D01*
X106911152Y-65994787D01*
X106906542Y-65963707D01*
X106905000Y-65932324D01*
X106905000Y-64747676D01*
X106906542Y-64716293D01*
X106911152Y-64685213D01*
X106918787Y-64654734D01*
X106929372Y-64625150D01*
X106942806Y-64596746D01*
X106958959Y-64569796D01*
X106977677Y-64544558D01*
X106998777Y-64521277D01*
X107022058Y-64500177D01*
X107047296Y-64481459D01*
X107074246Y-64465306D01*
X107102650Y-64451872D01*
X107132234Y-64441287D01*
X107162713Y-64433652D01*
X107193793Y-64429042D01*
X107225176Y-64427500D01*
X108734824Y-64427500D01*
X108766207Y-64429042D01*
X108766207Y-64429042D01*
G37*
D14*
X107980000Y-65340000D03*
D13*
G36*
X108766207Y-67404042D02*
X108797287Y-67408652D01*
X108827766Y-67416287D01*
X108857350Y-67426872D01*
X108885754Y-67440306D01*
X108912704Y-67456459D01*
X108937942Y-67475177D01*
X108961223Y-67496277D01*
X108982323Y-67519558D01*
X109001041Y-67544796D01*
X109017194Y-67571746D01*
X109030628Y-67600150D01*
X109041213Y-67629734D01*
X109048848Y-67660213D01*
X109053458Y-67691293D01*
X109055000Y-67722676D01*
X109055000Y-68907324D01*
X109053458Y-68938707D01*
X109048848Y-68969787D01*
X109041213Y-69000266D01*
X109030628Y-69029850D01*
X109017194Y-69058254D01*
X109001041Y-69085204D01*
X108982323Y-69110442D01*
X108961223Y-69133723D01*
X108937942Y-69154823D01*
X108912704Y-69173541D01*
X108885754Y-69189694D01*
X108857350Y-69203128D01*
X108827766Y-69213713D01*
X108797287Y-69221348D01*
X108766207Y-69225958D01*
X108734824Y-69227500D01*
X107225176Y-69227500D01*
X107193793Y-69225958D01*
X107162713Y-69221348D01*
X107132234Y-69213713D01*
X107102650Y-69203128D01*
X107074246Y-69189694D01*
X107047296Y-69173541D01*
X107022058Y-69154823D01*
X106998777Y-69133723D01*
X106977677Y-69110442D01*
X106958959Y-69085204D01*
X106942806Y-69058254D01*
X106929372Y-69029850D01*
X106918787Y-69000266D01*
X106911152Y-68969787D01*
X106906542Y-68938707D01*
X106905000Y-68907324D01*
X106905000Y-67722676D01*
X106906542Y-67691293D01*
X106911152Y-67660213D01*
X106918787Y-67629734D01*
X106929372Y-67600150D01*
X106942806Y-67571746D01*
X106958959Y-67544796D01*
X106977677Y-67519558D01*
X106998777Y-67496277D01*
X107022058Y-67475177D01*
X107047296Y-67456459D01*
X107074246Y-67440306D01*
X107102650Y-67426872D01*
X107132234Y-67416287D01*
X107162713Y-67408652D01*
X107193793Y-67404042D01*
X107225176Y-67402500D01*
X108734824Y-67402500D01*
X108766207Y-67404042D01*
X108766207Y-67404042D01*
G37*
D14*
X107980000Y-68315000D03*
G04 #@! TD*
D13*
G04 #@! TO.C,D26*
G36*
X113528707Y-121559042D02*
X113559787Y-121563652D01*
X113590266Y-121571287D01*
X113619850Y-121581872D01*
X113648254Y-121595306D01*
X113675204Y-121611459D01*
X113700442Y-121630177D01*
X113723723Y-121651277D01*
X113744823Y-121674558D01*
X113763541Y-121699796D01*
X113779694Y-121726746D01*
X113793128Y-121755150D01*
X113803713Y-121784734D01*
X113811348Y-121815213D01*
X113815958Y-121846293D01*
X113817500Y-121877676D01*
X113817500Y-123062324D01*
X113815958Y-123093707D01*
X113811348Y-123124787D01*
X113803713Y-123155266D01*
X113793128Y-123184850D01*
X113779694Y-123213254D01*
X113763541Y-123240204D01*
X113744823Y-123265442D01*
X113723723Y-123288723D01*
X113700442Y-123309823D01*
X113675204Y-123328541D01*
X113648254Y-123344694D01*
X113619850Y-123358128D01*
X113590266Y-123368713D01*
X113559787Y-123376348D01*
X113528707Y-123380958D01*
X113497324Y-123382500D01*
X111987676Y-123382500D01*
X111956293Y-123380958D01*
X111925213Y-123376348D01*
X111894734Y-123368713D01*
X111865150Y-123358128D01*
X111836746Y-123344694D01*
X111809796Y-123328541D01*
X111784558Y-123309823D01*
X111761277Y-123288723D01*
X111740177Y-123265442D01*
X111721459Y-123240204D01*
X111705306Y-123213254D01*
X111691872Y-123184850D01*
X111681287Y-123155266D01*
X111673652Y-123124787D01*
X111669042Y-123093707D01*
X111667500Y-123062324D01*
X111667500Y-121877676D01*
X111669042Y-121846293D01*
X111673652Y-121815213D01*
X111681287Y-121784734D01*
X111691872Y-121755150D01*
X111705306Y-121726746D01*
X111721459Y-121699796D01*
X111740177Y-121674558D01*
X111761277Y-121651277D01*
X111784558Y-121630177D01*
X111809796Y-121611459D01*
X111836746Y-121595306D01*
X111865150Y-121581872D01*
X111894734Y-121571287D01*
X111925213Y-121563652D01*
X111956293Y-121559042D01*
X111987676Y-121557500D01*
X113497324Y-121557500D01*
X113528707Y-121559042D01*
X113528707Y-121559042D01*
G37*
D14*
X112742500Y-122470000D03*
D13*
G36*
X113528707Y-124534042D02*
X113559787Y-124538652D01*
X113590266Y-124546287D01*
X113619850Y-124556872D01*
X113648254Y-124570306D01*
X113675204Y-124586459D01*
X113700442Y-124605177D01*
X113723723Y-124626277D01*
X113744823Y-124649558D01*
X113763541Y-124674796D01*
X113779694Y-124701746D01*
X113793128Y-124730150D01*
X113803713Y-124759734D01*
X113811348Y-124790213D01*
X113815958Y-124821293D01*
X113817500Y-124852676D01*
X113817500Y-126037324D01*
X113815958Y-126068707D01*
X113811348Y-126099787D01*
X113803713Y-126130266D01*
X113793128Y-126159850D01*
X113779694Y-126188254D01*
X113763541Y-126215204D01*
X113744823Y-126240442D01*
X113723723Y-126263723D01*
X113700442Y-126284823D01*
X113675204Y-126303541D01*
X113648254Y-126319694D01*
X113619850Y-126333128D01*
X113590266Y-126343713D01*
X113559787Y-126351348D01*
X113528707Y-126355958D01*
X113497324Y-126357500D01*
X111987676Y-126357500D01*
X111956293Y-126355958D01*
X111925213Y-126351348D01*
X111894734Y-126343713D01*
X111865150Y-126333128D01*
X111836746Y-126319694D01*
X111809796Y-126303541D01*
X111784558Y-126284823D01*
X111761277Y-126263723D01*
X111740177Y-126240442D01*
X111721459Y-126215204D01*
X111705306Y-126188254D01*
X111691872Y-126159850D01*
X111681287Y-126130266D01*
X111673652Y-126099787D01*
X111669042Y-126068707D01*
X111667500Y-126037324D01*
X111667500Y-124852676D01*
X111669042Y-124821293D01*
X111673652Y-124790213D01*
X111681287Y-124759734D01*
X111691872Y-124730150D01*
X111705306Y-124701746D01*
X111721459Y-124674796D01*
X111740177Y-124649558D01*
X111761277Y-124626277D01*
X111784558Y-124605177D01*
X111809796Y-124586459D01*
X111836746Y-124570306D01*
X111865150Y-124556872D01*
X111894734Y-124546287D01*
X111925213Y-124538652D01*
X111956293Y-124534042D01*
X111987676Y-124532500D01*
X113497324Y-124532500D01*
X113528707Y-124534042D01*
X113528707Y-124534042D01*
G37*
D14*
X112742500Y-125445000D03*
G04 #@! TD*
D13*
G04 #@! TO.C,R_data0*
G36*
X32446207Y-113296542D02*
X32477287Y-113301152D01*
X32507766Y-113308787D01*
X32537350Y-113319372D01*
X32565754Y-113332806D01*
X32592704Y-113348959D01*
X32617942Y-113367677D01*
X32641223Y-113388777D01*
X32662323Y-113412058D01*
X32681041Y-113437296D01*
X32697194Y-113464246D01*
X32710628Y-113492650D01*
X32721213Y-113522234D01*
X32728848Y-113552713D01*
X32733458Y-113583793D01*
X32735000Y-113615176D01*
X32735000Y-115124824D01*
X32733458Y-115156207D01*
X32728848Y-115187287D01*
X32721213Y-115217766D01*
X32710628Y-115247350D01*
X32697194Y-115275754D01*
X32681041Y-115302704D01*
X32662323Y-115327942D01*
X32641223Y-115351223D01*
X32617942Y-115372323D01*
X32592704Y-115391041D01*
X32565754Y-115407194D01*
X32537350Y-115420628D01*
X32507766Y-115431213D01*
X32477287Y-115438848D01*
X32446207Y-115443458D01*
X32414824Y-115445000D01*
X31230176Y-115445000D01*
X31198793Y-115443458D01*
X31167713Y-115438848D01*
X31137234Y-115431213D01*
X31107650Y-115420628D01*
X31079246Y-115407194D01*
X31052296Y-115391041D01*
X31027058Y-115372323D01*
X31003777Y-115351223D01*
X30982677Y-115327942D01*
X30963959Y-115302704D01*
X30947806Y-115275754D01*
X30934372Y-115247350D01*
X30923787Y-115217766D01*
X30916152Y-115187287D01*
X30911542Y-115156207D01*
X30910000Y-115124824D01*
X30910000Y-113615176D01*
X30911542Y-113583793D01*
X30916152Y-113552713D01*
X30923787Y-113522234D01*
X30934372Y-113492650D01*
X30947806Y-113464246D01*
X30963959Y-113437296D01*
X30982677Y-113412058D01*
X31003777Y-113388777D01*
X31027058Y-113367677D01*
X31052296Y-113348959D01*
X31079246Y-113332806D01*
X31107650Y-113319372D01*
X31137234Y-113308787D01*
X31167713Y-113301152D01*
X31198793Y-113296542D01*
X31230176Y-113295000D01*
X32414824Y-113295000D01*
X32446207Y-113296542D01*
X32446207Y-113296542D01*
G37*
D14*
X31822500Y-114370000D03*
D13*
G36*
X35421207Y-113296542D02*
X35452287Y-113301152D01*
X35482766Y-113308787D01*
X35512350Y-113319372D01*
X35540754Y-113332806D01*
X35567704Y-113348959D01*
X35592942Y-113367677D01*
X35616223Y-113388777D01*
X35637323Y-113412058D01*
X35656041Y-113437296D01*
X35672194Y-113464246D01*
X35685628Y-113492650D01*
X35696213Y-113522234D01*
X35703848Y-113552713D01*
X35708458Y-113583793D01*
X35710000Y-113615176D01*
X35710000Y-115124824D01*
X35708458Y-115156207D01*
X35703848Y-115187287D01*
X35696213Y-115217766D01*
X35685628Y-115247350D01*
X35672194Y-115275754D01*
X35656041Y-115302704D01*
X35637323Y-115327942D01*
X35616223Y-115351223D01*
X35592942Y-115372323D01*
X35567704Y-115391041D01*
X35540754Y-115407194D01*
X35512350Y-115420628D01*
X35482766Y-115431213D01*
X35452287Y-115438848D01*
X35421207Y-115443458D01*
X35389824Y-115445000D01*
X34205176Y-115445000D01*
X34173793Y-115443458D01*
X34142713Y-115438848D01*
X34112234Y-115431213D01*
X34082650Y-115420628D01*
X34054246Y-115407194D01*
X34027296Y-115391041D01*
X34002058Y-115372323D01*
X33978777Y-115351223D01*
X33957677Y-115327942D01*
X33938959Y-115302704D01*
X33922806Y-115275754D01*
X33909372Y-115247350D01*
X33898787Y-115217766D01*
X33891152Y-115187287D01*
X33886542Y-115156207D01*
X33885000Y-115124824D01*
X33885000Y-113615176D01*
X33886542Y-113583793D01*
X33891152Y-113552713D01*
X33898787Y-113522234D01*
X33909372Y-113492650D01*
X33922806Y-113464246D01*
X33938959Y-113437296D01*
X33957677Y-113412058D01*
X33978777Y-113388777D01*
X34002058Y-113367677D01*
X34027296Y-113348959D01*
X34054246Y-113332806D01*
X34082650Y-113319372D01*
X34112234Y-113308787D01*
X34142713Y-113301152D01*
X34173793Y-113296542D01*
X34205176Y-113295000D01*
X35389824Y-113295000D01*
X35421207Y-113296542D01*
X35421207Y-113296542D01*
G37*
D14*
X34797500Y-114370000D03*
G04 #@! TD*
D21*
G04 #@! TO.C,SW2*
X79405000Y-35937500D03*
X93375000Y-33397500D03*
D20*
X92105000Y-38477500D03*
X81945000Y-38477500D03*
D19*
X87025000Y-38477500D03*
D18*
X83215000Y-35937500D03*
X89565000Y-33397500D03*
G04 #@! TD*
D21*
G04 #@! TO.C,SW3*
X98455000Y-35937500D03*
X112425000Y-33397500D03*
D20*
X111155000Y-38477500D03*
X100995000Y-38477500D03*
D19*
X106075000Y-38477500D03*
D18*
X102265000Y-35937500D03*
X108615000Y-33397500D03*
G04 #@! TD*
D13*
G04 #@! TO.C,D13*
G36*
X80191207Y-83429042D02*
X80222287Y-83433652D01*
X80252766Y-83441287D01*
X80282350Y-83451872D01*
X80310754Y-83465306D01*
X80337704Y-83481459D01*
X80362942Y-83500177D01*
X80386223Y-83521277D01*
X80407323Y-83544558D01*
X80426041Y-83569796D01*
X80442194Y-83596746D01*
X80455628Y-83625150D01*
X80466213Y-83654734D01*
X80473848Y-83685213D01*
X80478458Y-83716293D01*
X80480000Y-83747676D01*
X80480000Y-84932324D01*
X80478458Y-84963707D01*
X80473848Y-84994787D01*
X80466213Y-85025266D01*
X80455628Y-85054850D01*
X80442194Y-85083254D01*
X80426041Y-85110204D01*
X80407323Y-85135442D01*
X80386223Y-85158723D01*
X80362942Y-85179823D01*
X80337704Y-85198541D01*
X80310754Y-85214694D01*
X80282350Y-85228128D01*
X80252766Y-85238713D01*
X80222287Y-85246348D01*
X80191207Y-85250958D01*
X80159824Y-85252500D01*
X78650176Y-85252500D01*
X78618793Y-85250958D01*
X78587713Y-85246348D01*
X78557234Y-85238713D01*
X78527650Y-85228128D01*
X78499246Y-85214694D01*
X78472296Y-85198541D01*
X78447058Y-85179823D01*
X78423777Y-85158723D01*
X78402677Y-85135442D01*
X78383959Y-85110204D01*
X78367806Y-85083254D01*
X78354372Y-85054850D01*
X78343787Y-85025266D01*
X78336152Y-84994787D01*
X78331542Y-84963707D01*
X78330000Y-84932324D01*
X78330000Y-83747676D01*
X78331542Y-83716293D01*
X78336152Y-83685213D01*
X78343787Y-83654734D01*
X78354372Y-83625150D01*
X78367806Y-83596746D01*
X78383959Y-83569796D01*
X78402677Y-83544558D01*
X78423777Y-83521277D01*
X78447058Y-83500177D01*
X78472296Y-83481459D01*
X78499246Y-83465306D01*
X78527650Y-83451872D01*
X78557234Y-83441287D01*
X78587713Y-83433652D01*
X78618793Y-83429042D01*
X78650176Y-83427500D01*
X80159824Y-83427500D01*
X80191207Y-83429042D01*
X80191207Y-83429042D01*
G37*
D14*
X79405000Y-84340000D03*
D13*
G36*
X80191207Y-86404042D02*
X80222287Y-86408652D01*
X80252766Y-86416287D01*
X80282350Y-86426872D01*
X80310754Y-86440306D01*
X80337704Y-86456459D01*
X80362942Y-86475177D01*
X80386223Y-86496277D01*
X80407323Y-86519558D01*
X80426041Y-86544796D01*
X80442194Y-86571746D01*
X80455628Y-86600150D01*
X80466213Y-86629734D01*
X80473848Y-86660213D01*
X80478458Y-86691293D01*
X80480000Y-86722676D01*
X80480000Y-87907324D01*
X80478458Y-87938707D01*
X80473848Y-87969787D01*
X80466213Y-88000266D01*
X80455628Y-88029850D01*
X80442194Y-88058254D01*
X80426041Y-88085204D01*
X80407323Y-88110442D01*
X80386223Y-88133723D01*
X80362942Y-88154823D01*
X80337704Y-88173541D01*
X80310754Y-88189694D01*
X80282350Y-88203128D01*
X80252766Y-88213713D01*
X80222287Y-88221348D01*
X80191207Y-88225958D01*
X80159824Y-88227500D01*
X78650176Y-88227500D01*
X78618793Y-88225958D01*
X78587713Y-88221348D01*
X78557234Y-88213713D01*
X78527650Y-88203128D01*
X78499246Y-88189694D01*
X78472296Y-88173541D01*
X78447058Y-88154823D01*
X78423777Y-88133723D01*
X78402677Y-88110442D01*
X78383959Y-88085204D01*
X78367806Y-88058254D01*
X78354372Y-88029850D01*
X78343787Y-88000266D01*
X78336152Y-87969787D01*
X78331542Y-87938707D01*
X78330000Y-87907324D01*
X78330000Y-86722676D01*
X78331542Y-86691293D01*
X78336152Y-86660213D01*
X78343787Y-86629734D01*
X78354372Y-86600150D01*
X78367806Y-86571746D01*
X78383959Y-86544796D01*
X78402677Y-86519558D01*
X78423777Y-86496277D01*
X78447058Y-86475177D01*
X78472296Y-86456459D01*
X78499246Y-86440306D01*
X78527650Y-86426872D01*
X78557234Y-86416287D01*
X78587713Y-86408652D01*
X78618793Y-86404042D01*
X78650176Y-86402500D01*
X80159824Y-86402500D01*
X80191207Y-86404042D01*
X80191207Y-86404042D01*
G37*
D14*
X79405000Y-87315000D03*
G04 #@! TD*
D18*
G04 #@! TO.C,SW4*
X127665000Y-33397500D03*
X121315000Y-35937500D03*
D19*
X125125000Y-38477500D03*
D20*
X120045000Y-38477500D03*
X130205000Y-38477500D03*
D21*
X131475000Y-33397500D03*
X117505000Y-35937500D03*
G04 #@! TD*
D13*
G04 #@! TO.C,D19*
G36*
X84953707Y-102549042D02*
X84984787Y-102553652D01*
X85015266Y-102561287D01*
X85044850Y-102571872D01*
X85073254Y-102585306D01*
X85100204Y-102601459D01*
X85125442Y-102620177D01*
X85148723Y-102641277D01*
X85169823Y-102664558D01*
X85188541Y-102689796D01*
X85204694Y-102716746D01*
X85218128Y-102745150D01*
X85228713Y-102774734D01*
X85236348Y-102805213D01*
X85240958Y-102836293D01*
X85242500Y-102867676D01*
X85242500Y-104052324D01*
X85240958Y-104083707D01*
X85236348Y-104114787D01*
X85228713Y-104145266D01*
X85218128Y-104174850D01*
X85204694Y-104203254D01*
X85188541Y-104230204D01*
X85169823Y-104255442D01*
X85148723Y-104278723D01*
X85125442Y-104299823D01*
X85100204Y-104318541D01*
X85073254Y-104334694D01*
X85044850Y-104348128D01*
X85015266Y-104358713D01*
X84984787Y-104366348D01*
X84953707Y-104370958D01*
X84922324Y-104372500D01*
X83412676Y-104372500D01*
X83381293Y-104370958D01*
X83350213Y-104366348D01*
X83319734Y-104358713D01*
X83290150Y-104348128D01*
X83261746Y-104334694D01*
X83234796Y-104318541D01*
X83209558Y-104299823D01*
X83186277Y-104278723D01*
X83165177Y-104255442D01*
X83146459Y-104230204D01*
X83130306Y-104203254D01*
X83116872Y-104174850D01*
X83106287Y-104145266D01*
X83098652Y-104114787D01*
X83094042Y-104083707D01*
X83092500Y-104052324D01*
X83092500Y-102867676D01*
X83094042Y-102836293D01*
X83098652Y-102805213D01*
X83106287Y-102774734D01*
X83116872Y-102745150D01*
X83130306Y-102716746D01*
X83146459Y-102689796D01*
X83165177Y-102664558D01*
X83186277Y-102641277D01*
X83209558Y-102620177D01*
X83234796Y-102601459D01*
X83261746Y-102585306D01*
X83290150Y-102571872D01*
X83319734Y-102561287D01*
X83350213Y-102553652D01*
X83381293Y-102549042D01*
X83412676Y-102547500D01*
X84922324Y-102547500D01*
X84953707Y-102549042D01*
X84953707Y-102549042D01*
G37*
D14*
X84167500Y-103460000D03*
D13*
G36*
X84953707Y-105524042D02*
X84984787Y-105528652D01*
X85015266Y-105536287D01*
X85044850Y-105546872D01*
X85073254Y-105560306D01*
X85100204Y-105576459D01*
X85125442Y-105595177D01*
X85148723Y-105616277D01*
X85169823Y-105639558D01*
X85188541Y-105664796D01*
X85204694Y-105691746D01*
X85218128Y-105720150D01*
X85228713Y-105749734D01*
X85236348Y-105780213D01*
X85240958Y-105811293D01*
X85242500Y-105842676D01*
X85242500Y-107027324D01*
X85240958Y-107058707D01*
X85236348Y-107089787D01*
X85228713Y-107120266D01*
X85218128Y-107149850D01*
X85204694Y-107178254D01*
X85188541Y-107205204D01*
X85169823Y-107230442D01*
X85148723Y-107253723D01*
X85125442Y-107274823D01*
X85100204Y-107293541D01*
X85073254Y-107309694D01*
X85044850Y-107323128D01*
X85015266Y-107333713D01*
X84984787Y-107341348D01*
X84953707Y-107345958D01*
X84922324Y-107347500D01*
X83412676Y-107347500D01*
X83381293Y-107345958D01*
X83350213Y-107341348D01*
X83319734Y-107333713D01*
X83290150Y-107323128D01*
X83261746Y-107309694D01*
X83234796Y-107293541D01*
X83209558Y-107274823D01*
X83186277Y-107253723D01*
X83165177Y-107230442D01*
X83146459Y-107205204D01*
X83130306Y-107178254D01*
X83116872Y-107149850D01*
X83106287Y-107120266D01*
X83098652Y-107089787D01*
X83094042Y-107058707D01*
X83092500Y-107027324D01*
X83092500Y-105842676D01*
X83094042Y-105811293D01*
X83098652Y-105780213D01*
X83106287Y-105749734D01*
X83116872Y-105720150D01*
X83130306Y-105691746D01*
X83146459Y-105664796D01*
X83165177Y-105639558D01*
X83186277Y-105616277D01*
X83209558Y-105595177D01*
X83234796Y-105576459D01*
X83261746Y-105560306D01*
X83290150Y-105546872D01*
X83319734Y-105536287D01*
X83350213Y-105528652D01*
X83381293Y-105524042D01*
X83412676Y-105522500D01*
X84922324Y-105522500D01*
X84953707Y-105524042D01*
X84953707Y-105524042D01*
G37*
D14*
X84167500Y-106435000D03*
G04 #@! TD*
D22*
G04 #@! TO.C,JP_db0*
X31790000Y-125290000D03*
X33090000Y-125290000D03*
G04 #@! TD*
D23*
G04 #@! TO.C,J0*
X55390000Y-39770000D03*
X51090000Y-38270000D03*
X51090000Y-34270000D03*
X51090000Y-31270000D03*
D24*
X53240000Y-36470000D03*
X53240000Y-29470000D03*
G04 #@! TD*
D22*
G04 #@! TO.C,JP_xb0*
X31890000Y-104020000D03*
X33190000Y-104020000D03*
G04 #@! TD*
D13*
G04 #@! TO.C,D11*
G36*
X33846207Y-90911542D02*
X33877287Y-90916152D01*
X33907766Y-90923787D01*
X33937350Y-90934372D01*
X33965754Y-90947806D01*
X33992704Y-90963959D01*
X34017942Y-90982677D01*
X34041223Y-91003777D01*
X34062323Y-91027058D01*
X34081041Y-91052296D01*
X34097194Y-91079246D01*
X34110628Y-91107650D01*
X34121213Y-91137234D01*
X34128848Y-91167713D01*
X34133458Y-91198793D01*
X34135000Y-91230176D01*
X34135000Y-92414824D01*
X34133458Y-92446207D01*
X34128848Y-92477287D01*
X34121213Y-92507766D01*
X34110628Y-92537350D01*
X34097194Y-92565754D01*
X34081041Y-92592704D01*
X34062323Y-92617942D01*
X34041223Y-92641223D01*
X34017942Y-92662323D01*
X33992704Y-92681041D01*
X33965754Y-92697194D01*
X33937350Y-92710628D01*
X33907766Y-92721213D01*
X33877287Y-92728848D01*
X33846207Y-92733458D01*
X33814824Y-92735000D01*
X32305176Y-92735000D01*
X32273793Y-92733458D01*
X32242713Y-92728848D01*
X32212234Y-92721213D01*
X32182650Y-92710628D01*
X32154246Y-92697194D01*
X32127296Y-92681041D01*
X32102058Y-92662323D01*
X32078777Y-92641223D01*
X32057677Y-92617942D01*
X32038959Y-92592704D01*
X32022806Y-92565754D01*
X32009372Y-92537350D01*
X31998787Y-92507766D01*
X31991152Y-92477287D01*
X31986542Y-92446207D01*
X31985000Y-92414824D01*
X31985000Y-91230176D01*
X31986542Y-91198793D01*
X31991152Y-91167713D01*
X31998787Y-91137234D01*
X32009372Y-91107650D01*
X32022806Y-91079246D01*
X32038959Y-91052296D01*
X32057677Y-91027058D01*
X32078777Y-91003777D01*
X32102058Y-90982677D01*
X32127296Y-90963959D01*
X32154246Y-90947806D01*
X32182650Y-90934372D01*
X32212234Y-90923787D01*
X32242713Y-90916152D01*
X32273793Y-90911542D01*
X32305176Y-90910000D01*
X33814824Y-90910000D01*
X33846207Y-90911542D01*
X33846207Y-90911542D01*
G37*
D14*
X33060000Y-91822500D03*
D13*
G36*
X33846207Y-93886542D02*
X33877287Y-93891152D01*
X33907766Y-93898787D01*
X33937350Y-93909372D01*
X33965754Y-93922806D01*
X33992704Y-93938959D01*
X34017942Y-93957677D01*
X34041223Y-93978777D01*
X34062323Y-94002058D01*
X34081041Y-94027296D01*
X34097194Y-94054246D01*
X34110628Y-94082650D01*
X34121213Y-94112234D01*
X34128848Y-94142713D01*
X34133458Y-94173793D01*
X34135000Y-94205176D01*
X34135000Y-95389824D01*
X34133458Y-95421207D01*
X34128848Y-95452287D01*
X34121213Y-95482766D01*
X34110628Y-95512350D01*
X34097194Y-95540754D01*
X34081041Y-95567704D01*
X34062323Y-95592942D01*
X34041223Y-95616223D01*
X34017942Y-95637323D01*
X33992704Y-95656041D01*
X33965754Y-95672194D01*
X33937350Y-95685628D01*
X33907766Y-95696213D01*
X33877287Y-95703848D01*
X33846207Y-95708458D01*
X33814824Y-95710000D01*
X32305176Y-95710000D01*
X32273793Y-95708458D01*
X32242713Y-95703848D01*
X32212234Y-95696213D01*
X32182650Y-95685628D01*
X32154246Y-95672194D01*
X32127296Y-95656041D01*
X32102058Y-95637323D01*
X32078777Y-95616223D01*
X32057677Y-95592942D01*
X32038959Y-95567704D01*
X32022806Y-95540754D01*
X32009372Y-95512350D01*
X31998787Y-95482766D01*
X31991152Y-95452287D01*
X31986542Y-95421207D01*
X31985000Y-95389824D01*
X31985000Y-94205176D01*
X31986542Y-94173793D01*
X31991152Y-94142713D01*
X31998787Y-94112234D01*
X32009372Y-94082650D01*
X32022806Y-94054246D01*
X32038959Y-94027296D01*
X32057677Y-94002058D01*
X32078777Y-93978777D01*
X32102058Y-93957677D01*
X32127296Y-93938959D01*
X32154246Y-93922806D01*
X32182650Y-93909372D01*
X32212234Y-93898787D01*
X32242713Y-93891152D01*
X32273793Y-93886542D01*
X32305176Y-93885000D01*
X33814824Y-93885000D01*
X33846207Y-93886542D01*
X33846207Y-93886542D01*
G37*
D14*
X33060000Y-94797500D03*
G04 #@! TD*
D13*
G04 #@! TO.C,D16*
G36*
X137341207Y-83429042D02*
X137372287Y-83433652D01*
X137402766Y-83441287D01*
X137432350Y-83451872D01*
X137460754Y-83465306D01*
X137487704Y-83481459D01*
X137512942Y-83500177D01*
X137536223Y-83521277D01*
X137557323Y-83544558D01*
X137576041Y-83569796D01*
X137592194Y-83596746D01*
X137605628Y-83625150D01*
X137616213Y-83654734D01*
X137623848Y-83685213D01*
X137628458Y-83716293D01*
X137630000Y-83747676D01*
X137630000Y-84932324D01*
X137628458Y-84963707D01*
X137623848Y-84994787D01*
X137616213Y-85025266D01*
X137605628Y-85054850D01*
X137592194Y-85083254D01*
X137576041Y-85110204D01*
X137557323Y-85135442D01*
X137536223Y-85158723D01*
X137512942Y-85179823D01*
X137487704Y-85198541D01*
X137460754Y-85214694D01*
X137432350Y-85228128D01*
X137402766Y-85238713D01*
X137372287Y-85246348D01*
X137341207Y-85250958D01*
X137309824Y-85252500D01*
X135800176Y-85252500D01*
X135768793Y-85250958D01*
X135737713Y-85246348D01*
X135707234Y-85238713D01*
X135677650Y-85228128D01*
X135649246Y-85214694D01*
X135622296Y-85198541D01*
X135597058Y-85179823D01*
X135573777Y-85158723D01*
X135552677Y-85135442D01*
X135533959Y-85110204D01*
X135517806Y-85083254D01*
X135504372Y-85054850D01*
X135493787Y-85025266D01*
X135486152Y-84994787D01*
X135481542Y-84963707D01*
X135480000Y-84932324D01*
X135480000Y-83747676D01*
X135481542Y-83716293D01*
X135486152Y-83685213D01*
X135493787Y-83654734D01*
X135504372Y-83625150D01*
X135517806Y-83596746D01*
X135533959Y-83569796D01*
X135552677Y-83544558D01*
X135573777Y-83521277D01*
X135597058Y-83500177D01*
X135622296Y-83481459D01*
X135649246Y-83465306D01*
X135677650Y-83451872D01*
X135707234Y-83441287D01*
X135737713Y-83433652D01*
X135768793Y-83429042D01*
X135800176Y-83427500D01*
X137309824Y-83427500D01*
X137341207Y-83429042D01*
X137341207Y-83429042D01*
G37*
D14*
X136555000Y-84340000D03*
D13*
G36*
X137341207Y-86404042D02*
X137372287Y-86408652D01*
X137402766Y-86416287D01*
X137432350Y-86426872D01*
X137460754Y-86440306D01*
X137487704Y-86456459D01*
X137512942Y-86475177D01*
X137536223Y-86496277D01*
X137557323Y-86519558D01*
X137576041Y-86544796D01*
X137592194Y-86571746D01*
X137605628Y-86600150D01*
X137616213Y-86629734D01*
X137623848Y-86660213D01*
X137628458Y-86691293D01*
X137630000Y-86722676D01*
X137630000Y-87907324D01*
X137628458Y-87938707D01*
X137623848Y-87969787D01*
X137616213Y-88000266D01*
X137605628Y-88029850D01*
X137592194Y-88058254D01*
X137576041Y-88085204D01*
X137557323Y-88110442D01*
X137536223Y-88133723D01*
X137512942Y-88154823D01*
X137487704Y-88173541D01*
X137460754Y-88189694D01*
X137432350Y-88203128D01*
X137402766Y-88213713D01*
X137372287Y-88221348D01*
X137341207Y-88225958D01*
X137309824Y-88227500D01*
X135800176Y-88227500D01*
X135768793Y-88225958D01*
X135737713Y-88221348D01*
X135707234Y-88213713D01*
X135677650Y-88203128D01*
X135649246Y-88189694D01*
X135622296Y-88173541D01*
X135597058Y-88154823D01*
X135573777Y-88133723D01*
X135552677Y-88110442D01*
X135533959Y-88085204D01*
X135517806Y-88058254D01*
X135504372Y-88029850D01*
X135493787Y-88000266D01*
X135486152Y-87969787D01*
X135481542Y-87938707D01*
X135480000Y-87907324D01*
X135480000Y-86722676D01*
X135481542Y-86691293D01*
X135486152Y-86660213D01*
X135493787Y-86629734D01*
X135504372Y-86600150D01*
X135517806Y-86571746D01*
X135533959Y-86544796D01*
X135552677Y-86519558D01*
X135573777Y-86496277D01*
X135597058Y-86475177D01*
X135622296Y-86456459D01*
X135649246Y-86440306D01*
X135677650Y-86426872D01*
X135707234Y-86416287D01*
X135737713Y-86408652D01*
X135768793Y-86404042D01*
X135800176Y-86402500D01*
X137309824Y-86402500D01*
X137341207Y-86404042D01*
X137341207Y-86404042D01*
G37*
D14*
X136555000Y-87315000D03*
G04 #@! TD*
D13*
G04 #@! TO.C,D17*
G36*
X39710107Y-105524042D02*
X39741187Y-105528652D01*
X39771666Y-105536287D01*
X39801250Y-105546872D01*
X39829654Y-105560306D01*
X39856604Y-105576459D01*
X39881842Y-105595177D01*
X39905123Y-105616277D01*
X39926223Y-105639558D01*
X39944941Y-105664796D01*
X39961094Y-105691746D01*
X39974528Y-105720150D01*
X39985113Y-105749734D01*
X39992748Y-105780213D01*
X39997358Y-105811293D01*
X39998900Y-105842676D01*
X39998900Y-107027324D01*
X39997358Y-107058707D01*
X39992748Y-107089787D01*
X39985113Y-107120266D01*
X39974528Y-107149850D01*
X39961094Y-107178254D01*
X39944941Y-107205204D01*
X39926223Y-107230442D01*
X39905123Y-107253723D01*
X39881842Y-107274823D01*
X39856604Y-107293541D01*
X39829654Y-107309694D01*
X39801250Y-107323128D01*
X39771666Y-107333713D01*
X39741187Y-107341348D01*
X39710107Y-107345958D01*
X39678724Y-107347500D01*
X38169076Y-107347500D01*
X38137693Y-107345958D01*
X38106613Y-107341348D01*
X38076134Y-107333713D01*
X38046550Y-107323128D01*
X38018146Y-107309694D01*
X37991196Y-107293541D01*
X37965958Y-107274823D01*
X37942677Y-107253723D01*
X37921577Y-107230442D01*
X37902859Y-107205204D01*
X37886706Y-107178254D01*
X37873272Y-107149850D01*
X37862687Y-107120266D01*
X37855052Y-107089787D01*
X37850442Y-107058707D01*
X37848900Y-107027324D01*
X37848900Y-105842676D01*
X37850442Y-105811293D01*
X37855052Y-105780213D01*
X37862687Y-105749734D01*
X37873272Y-105720150D01*
X37886706Y-105691746D01*
X37902859Y-105664796D01*
X37921577Y-105639558D01*
X37942677Y-105616277D01*
X37965958Y-105595177D01*
X37991196Y-105576459D01*
X38018146Y-105560306D01*
X38046550Y-105546872D01*
X38076134Y-105536287D01*
X38106613Y-105528652D01*
X38137693Y-105524042D01*
X38169076Y-105522500D01*
X39678724Y-105522500D01*
X39710107Y-105524042D01*
X39710107Y-105524042D01*
G37*
D14*
X38923900Y-106435000D03*
D13*
G36*
X39710107Y-102549042D02*
X39741187Y-102553652D01*
X39771666Y-102561287D01*
X39801250Y-102571872D01*
X39829654Y-102585306D01*
X39856604Y-102601459D01*
X39881842Y-102620177D01*
X39905123Y-102641277D01*
X39926223Y-102664558D01*
X39944941Y-102689796D01*
X39961094Y-102716746D01*
X39974528Y-102745150D01*
X39985113Y-102774734D01*
X39992748Y-102805213D01*
X39997358Y-102836293D01*
X39998900Y-102867676D01*
X39998900Y-104052324D01*
X39997358Y-104083707D01*
X39992748Y-104114787D01*
X39985113Y-104145266D01*
X39974528Y-104174850D01*
X39961094Y-104203254D01*
X39944941Y-104230204D01*
X39926223Y-104255442D01*
X39905123Y-104278723D01*
X39881842Y-104299823D01*
X39856604Y-104318541D01*
X39829654Y-104334694D01*
X39801250Y-104348128D01*
X39771666Y-104358713D01*
X39741187Y-104366348D01*
X39710107Y-104370958D01*
X39678724Y-104372500D01*
X38169076Y-104372500D01*
X38137693Y-104370958D01*
X38106613Y-104366348D01*
X38076134Y-104358713D01*
X38046550Y-104348128D01*
X38018146Y-104334694D01*
X37991196Y-104318541D01*
X37965958Y-104299823D01*
X37942677Y-104278723D01*
X37921577Y-104255442D01*
X37902859Y-104230204D01*
X37886706Y-104203254D01*
X37873272Y-104174850D01*
X37862687Y-104145266D01*
X37855052Y-104114787D01*
X37850442Y-104083707D01*
X37848900Y-104052324D01*
X37848900Y-102867676D01*
X37850442Y-102836293D01*
X37855052Y-102805213D01*
X37862687Y-102774734D01*
X37873272Y-102745150D01*
X37886706Y-102716746D01*
X37902859Y-102689796D01*
X37921577Y-102664558D01*
X37942677Y-102641277D01*
X37965958Y-102620177D01*
X37991196Y-102601459D01*
X38018146Y-102585306D01*
X38046550Y-102571872D01*
X38076134Y-102561287D01*
X38106613Y-102553652D01*
X38137693Y-102549042D01*
X38169076Y-102547500D01*
X39678724Y-102547500D01*
X39710107Y-102549042D01*
X39710107Y-102549042D01*
G37*
D14*
X38923900Y-103460000D03*
G04 #@! TD*
D13*
G04 #@! TO.C,D24*
G36*
X75428707Y-124534042D02*
X75459787Y-124538652D01*
X75490266Y-124546287D01*
X75519850Y-124556872D01*
X75548254Y-124570306D01*
X75575204Y-124586459D01*
X75600442Y-124605177D01*
X75623723Y-124626277D01*
X75644823Y-124649558D01*
X75663541Y-124674796D01*
X75679694Y-124701746D01*
X75693128Y-124730150D01*
X75703713Y-124759734D01*
X75711348Y-124790213D01*
X75715958Y-124821293D01*
X75717500Y-124852676D01*
X75717500Y-126037324D01*
X75715958Y-126068707D01*
X75711348Y-126099787D01*
X75703713Y-126130266D01*
X75693128Y-126159850D01*
X75679694Y-126188254D01*
X75663541Y-126215204D01*
X75644823Y-126240442D01*
X75623723Y-126263723D01*
X75600442Y-126284823D01*
X75575204Y-126303541D01*
X75548254Y-126319694D01*
X75519850Y-126333128D01*
X75490266Y-126343713D01*
X75459787Y-126351348D01*
X75428707Y-126355958D01*
X75397324Y-126357500D01*
X73887676Y-126357500D01*
X73856293Y-126355958D01*
X73825213Y-126351348D01*
X73794734Y-126343713D01*
X73765150Y-126333128D01*
X73736746Y-126319694D01*
X73709796Y-126303541D01*
X73684558Y-126284823D01*
X73661277Y-126263723D01*
X73640177Y-126240442D01*
X73621459Y-126215204D01*
X73605306Y-126188254D01*
X73591872Y-126159850D01*
X73581287Y-126130266D01*
X73573652Y-126099787D01*
X73569042Y-126068707D01*
X73567500Y-126037324D01*
X73567500Y-124852676D01*
X73569042Y-124821293D01*
X73573652Y-124790213D01*
X73581287Y-124759734D01*
X73591872Y-124730150D01*
X73605306Y-124701746D01*
X73621459Y-124674796D01*
X73640177Y-124649558D01*
X73661277Y-124626277D01*
X73684558Y-124605177D01*
X73709796Y-124586459D01*
X73736746Y-124570306D01*
X73765150Y-124556872D01*
X73794734Y-124546287D01*
X73825213Y-124538652D01*
X73856293Y-124534042D01*
X73887676Y-124532500D01*
X75397324Y-124532500D01*
X75428707Y-124534042D01*
X75428707Y-124534042D01*
G37*
D14*
X74642500Y-125445000D03*
D13*
G36*
X75428707Y-121559042D02*
X75459787Y-121563652D01*
X75490266Y-121571287D01*
X75519850Y-121581872D01*
X75548254Y-121595306D01*
X75575204Y-121611459D01*
X75600442Y-121630177D01*
X75623723Y-121651277D01*
X75644823Y-121674558D01*
X75663541Y-121699796D01*
X75679694Y-121726746D01*
X75693128Y-121755150D01*
X75703713Y-121784734D01*
X75711348Y-121815213D01*
X75715958Y-121846293D01*
X75717500Y-121877676D01*
X75717500Y-123062324D01*
X75715958Y-123093707D01*
X75711348Y-123124787D01*
X75703713Y-123155266D01*
X75693128Y-123184850D01*
X75679694Y-123213254D01*
X75663541Y-123240204D01*
X75644823Y-123265442D01*
X75623723Y-123288723D01*
X75600442Y-123309823D01*
X75575204Y-123328541D01*
X75548254Y-123344694D01*
X75519850Y-123358128D01*
X75490266Y-123368713D01*
X75459787Y-123376348D01*
X75428707Y-123380958D01*
X75397324Y-123382500D01*
X73887676Y-123382500D01*
X73856293Y-123380958D01*
X73825213Y-123376348D01*
X73794734Y-123368713D01*
X73765150Y-123358128D01*
X73736746Y-123344694D01*
X73709796Y-123328541D01*
X73684558Y-123309823D01*
X73661277Y-123288723D01*
X73640177Y-123265442D01*
X73621459Y-123240204D01*
X73605306Y-123213254D01*
X73591872Y-123184850D01*
X73581287Y-123155266D01*
X73573652Y-123124787D01*
X73569042Y-123093707D01*
X73567500Y-123062324D01*
X73567500Y-121877676D01*
X73569042Y-121846293D01*
X73573652Y-121815213D01*
X73581287Y-121784734D01*
X73591872Y-121755150D01*
X73605306Y-121726746D01*
X73621459Y-121699796D01*
X73640177Y-121674558D01*
X73661277Y-121651277D01*
X73684558Y-121630177D01*
X73709796Y-121611459D01*
X73736746Y-121595306D01*
X73765150Y-121581872D01*
X73794734Y-121571287D01*
X73825213Y-121563652D01*
X73856293Y-121559042D01*
X73887676Y-121557500D01*
X75397324Y-121557500D01*
X75428707Y-121559042D01*
X75428707Y-121559042D01*
G37*
D14*
X74642500Y-122470000D03*
G04 #@! TD*
D13*
G04 #@! TO.C,D27*
G36*
X132578707Y-124534042D02*
X132609787Y-124538652D01*
X132640266Y-124546287D01*
X132669850Y-124556872D01*
X132698254Y-124570306D01*
X132725204Y-124586459D01*
X132750442Y-124605177D01*
X132773723Y-124626277D01*
X132794823Y-124649558D01*
X132813541Y-124674796D01*
X132829694Y-124701746D01*
X132843128Y-124730150D01*
X132853713Y-124759734D01*
X132861348Y-124790213D01*
X132865958Y-124821293D01*
X132867500Y-124852676D01*
X132867500Y-126037324D01*
X132865958Y-126068707D01*
X132861348Y-126099787D01*
X132853713Y-126130266D01*
X132843128Y-126159850D01*
X132829694Y-126188254D01*
X132813541Y-126215204D01*
X132794823Y-126240442D01*
X132773723Y-126263723D01*
X132750442Y-126284823D01*
X132725204Y-126303541D01*
X132698254Y-126319694D01*
X132669850Y-126333128D01*
X132640266Y-126343713D01*
X132609787Y-126351348D01*
X132578707Y-126355958D01*
X132547324Y-126357500D01*
X131037676Y-126357500D01*
X131006293Y-126355958D01*
X130975213Y-126351348D01*
X130944734Y-126343713D01*
X130915150Y-126333128D01*
X130886746Y-126319694D01*
X130859796Y-126303541D01*
X130834558Y-126284823D01*
X130811277Y-126263723D01*
X130790177Y-126240442D01*
X130771459Y-126215204D01*
X130755306Y-126188254D01*
X130741872Y-126159850D01*
X130731287Y-126130266D01*
X130723652Y-126099787D01*
X130719042Y-126068707D01*
X130717500Y-126037324D01*
X130717500Y-124852676D01*
X130719042Y-124821293D01*
X130723652Y-124790213D01*
X130731287Y-124759734D01*
X130741872Y-124730150D01*
X130755306Y-124701746D01*
X130771459Y-124674796D01*
X130790177Y-124649558D01*
X130811277Y-124626277D01*
X130834558Y-124605177D01*
X130859796Y-124586459D01*
X130886746Y-124570306D01*
X130915150Y-124556872D01*
X130944734Y-124546287D01*
X130975213Y-124538652D01*
X131006293Y-124534042D01*
X131037676Y-124532500D01*
X132547324Y-124532500D01*
X132578707Y-124534042D01*
X132578707Y-124534042D01*
G37*
D14*
X131792500Y-125445000D03*
D13*
G36*
X132578707Y-121559042D02*
X132609787Y-121563652D01*
X132640266Y-121571287D01*
X132669850Y-121581872D01*
X132698254Y-121595306D01*
X132725204Y-121611459D01*
X132750442Y-121630177D01*
X132773723Y-121651277D01*
X132794823Y-121674558D01*
X132813541Y-121699796D01*
X132829694Y-121726746D01*
X132843128Y-121755150D01*
X132853713Y-121784734D01*
X132861348Y-121815213D01*
X132865958Y-121846293D01*
X132867500Y-121877676D01*
X132867500Y-123062324D01*
X132865958Y-123093707D01*
X132861348Y-123124787D01*
X132853713Y-123155266D01*
X132843128Y-123184850D01*
X132829694Y-123213254D01*
X132813541Y-123240204D01*
X132794823Y-123265442D01*
X132773723Y-123288723D01*
X132750442Y-123309823D01*
X132725204Y-123328541D01*
X132698254Y-123344694D01*
X132669850Y-123358128D01*
X132640266Y-123368713D01*
X132609787Y-123376348D01*
X132578707Y-123380958D01*
X132547324Y-123382500D01*
X131037676Y-123382500D01*
X131006293Y-123380958D01*
X130975213Y-123376348D01*
X130944734Y-123368713D01*
X130915150Y-123358128D01*
X130886746Y-123344694D01*
X130859796Y-123328541D01*
X130834558Y-123309823D01*
X130811277Y-123288723D01*
X130790177Y-123265442D01*
X130771459Y-123240204D01*
X130755306Y-123213254D01*
X130741872Y-123184850D01*
X130731287Y-123155266D01*
X130723652Y-123124787D01*
X130719042Y-123093707D01*
X130717500Y-123062324D01*
X130717500Y-121877676D01*
X130719042Y-121846293D01*
X130723652Y-121815213D01*
X130731287Y-121784734D01*
X130741872Y-121755150D01*
X130755306Y-121726746D01*
X130771459Y-121699796D01*
X130790177Y-121674558D01*
X130811277Y-121651277D01*
X130834558Y-121630177D01*
X130859796Y-121611459D01*
X130886746Y-121595306D01*
X130915150Y-121581872D01*
X130944734Y-121571287D01*
X130975213Y-121563652D01*
X131006293Y-121559042D01*
X131037676Y-121557500D01*
X132547324Y-121557500D01*
X132578707Y-121559042D01*
X132578707Y-121559042D01*
G37*
D14*
X131792500Y-122470000D03*
G04 #@! TD*
D13*
G04 #@! TO.C,D31*
G36*
X139722207Y-143634042D02*
X139753287Y-143638652D01*
X139783766Y-143646287D01*
X139813350Y-143656872D01*
X139841754Y-143670306D01*
X139868704Y-143686459D01*
X139893942Y-143705177D01*
X139917223Y-143726277D01*
X139938323Y-143749558D01*
X139957041Y-143774796D01*
X139973194Y-143801746D01*
X139986628Y-143830150D01*
X139997213Y-143859734D01*
X140004848Y-143890213D01*
X140009458Y-143921293D01*
X140011000Y-143952676D01*
X140011000Y-145137324D01*
X140009458Y-145168707D01*
X140004848Y-145199787D01*
X139997213Y-145230266D01*
X139986628Y-145259850D01*
X139973194Y-145288254D01*
X139957041Y-145315204D01*
X139938323Y-145340442D01*
X139917223Y-145363723D01*
X139893942Y-145384823D01*
X139868704Y-145403541D01*
X139841754Y-145419694D01*
X139813350Y-145433128D01*
X139783766Y-145443713D01*
X139753287Y-145451348D01*
X139722207Y-145455958D01*
X139690824Y-145457500D01*
X138181176Y-145457500D01*
X138149793Y-145455958D01*
X138118713Y-145451348D01*
X138088234Y-145443713D01*
X138058650Y-145433128D01*
X138030246Y-145419694D01*
X138003296Y-145403541D01*
X137978058Y-145384823D01*
X137954777Y-145363723D01*
X137933677Y-145340442D01*
X137914959Y-145315204D01*
X137898806Y-145288254D01*
X137885372Y-145259850D01*
X137874787Y-145230266D01*
X137867152Y-145199787D01*
X137862542Y-145168707D01*
X137861000Y-145137324D01*
X137861000Y-143952676D01*
X137862542Y-143921293D01*
X137867152Y-143890213D01*
X137874787Y-143859734D01*
X137885372Y-143830150D01*
X137898806Y-143801746D01*
X137914959Y-143774796D01*
X137933677Y-143749558D01*
X137954777Y-143726277D01*
X137978058Y-143705177D01*
X138003296Y-143686459D01*
X138030246Y-143670306D01*
X138058650Y-143656872D01*
X138088234Y-143646287D01*
X138118713Y-143638652D01*
X138149793Y-143634042D01*
X138181176Y-143632500D01*
X139690824Y-143632500D01*
X139722207Y-143634042D01*
X139722207Y-143634042D01*
G37*
D14*
X138936000Y-144545000D03*
D13*
G36*
X139722207Y-140659042D02*
X139753287Y-140663652D01*
X139783766Y-140671287D01*
X139813350Y-140681872D01*
X139841754Y-140695306D01*
X139868704Y-140711459D01*
X139893942Y-140730177D01*
X139917223Y-140751277D01*
X139938323Y-140774558D01*
X139957041Y-140799796D01*
X139973194Y-140826746D01*
X139986628Y-140855150D01*
X139997213Y-140884734D01*
X140004848Y-140915213D01*
X140009458Y-140946293D01*
X140011000Y-140977676D01*
X140011000Y-142162324D01*
X140009458Y-142193707D01*
X140004848Y-142224787D01*
X139997213Y-142255266D01*
X139986628Y-142284850D01*
X139973194Y-142313254D01*
X139957041Y-142340204D01*
X139938323Y-142365442D01*
X139917223Y-142388723D01*
X139893942Y-142409823D01*
X139868704Y-142428541D01*
X139841754Y-142444694D01*
X139813350Y-142458128D01*
X139783766Y-142468713D01*
X139753287Y-142476348D01*
X139722207Y-142480958D01*
X139690824Y-142482500D01*
X138181176Y-142482500D01*
X138149793Y-142480958D01*
X138118713Y-142476348D01*
X138088234Y-142468713D01*
X138058650Y-142458128D01*
X138030246Y-142444694D01*
X138003296Y-142428541D01*
X137978058Y-142409823D01*
X137954777Y-142388723D01*
X137933677Y-142365442D01*
X137914959Y-142340204D01*
X137898806Y-142313254D01*
X137885372Y-142284850D01*
X137874787Y-142255266D01*
X137867152Y-142224787D01*
X137862542Y-142193707D01*
X137861000Y-142162324D01*
X137861000Y-140977676D01*
X137862542Y-140946293D01*
X137867152Y-140915213D01*
X137874787Y-140884734D01*
X137885372Y-140855150D01*
X137898806Y-140826746D01*
X137914959Y-140799796D01*
X137933677Y-140774558D01*
X137954777Y-140751277D01*
X137978058Y-140730177D01*
X138003296Y-140711459D01*
X138030246Y-140695306D01*
X138058650Y-140681872D01*
X138088234Y-140671287D01*
X138118713Y-140663652D01*
X138149793Y-140659042D01*
X138181176Y-140657500D01*
X139690824Y-140657500D01*
X139722207Y-140659042D01*
X139722207Y-140659042D01*
G37*
D14*
X138936000Y-141570000D03*
G04 #@! TD*
D24*
G04 #@! TO.C,J1*
X147870000Y-56420000D03*
X147870000Y-63420000D03*
D23*
X145720000Y-58220000D03*
X145720000Y-61220000D03*
X145720000Y-65220000D03*
X150020000Y-66720000D03*
G04 #@! TD*
D21*
G04 #@! TO.C,SW1*
X60355000Y-35937500D03*
X74325000Y-33397500D03*
D20*
X73055000Y-38477500D03*
X62895000Y-38477500D03*
D19*
X67975000Y-38477500D03*
D18*
X64165000Y-35937500D03*
X70515000Y-33397500D03*
G04 #@! TD*
D13*
G04 #@! TO.C,D10*
G36*
X127816207Y-67404042D02*
X127847287Y-67408652D01*
X127877766Y-67416287D01*
X127907350Y-67426872D01*
X127935754Y-67440306D01*
X127962704Y-67456459D01*
X127987942Y-67475177D01*
X128011223Y-67496277D01*
X128032323Y-67519558D01*
X128051041Y-67544796D01*
X128067194Y-67571746D01*
X128080628Y-67600150D01*
X128091213Y-67629734D01*
X128098848Y-67660213D01*
X128103458Y-67691293D01*
X128105000Y-67722676D01*
X128105000Y-68907324D01*
X128103458Y-68938707D01*
X128098848Y-68969787D01*
X128091213Y-69000266D01*
X128080628Y-69029850D01*
X128067194Y-69058254D01*
X128051041Y-69085204D01*
X128032323Y-69110442D01*
X128011223Y-69133723D01*
X127987942Y-69154823D01*
X127962704Y-69173541D01*
X127935754Y-69189694D01*
X127907350Y-69203128D01*
X127877766Y-69213713D01*
X127847287Y-69221348D01*
X127816207Y-69225958D01*
X127784824Y-69227500D01*
X126275176Y-69227500D01*
X126243793Y-69225958D01*
X126212713Y-69221348D01*
X126182234Y-69213713D01*
X126152650Y-69203128D01*
X126124246Y-69189694D01*
X126097296Y-69173541D01*
X126072058Y-69154823D01*
X126048777Y-69133723D01*
X126027677Y-69110442D01*
X126008959Y-69085204D01*
X125992806Y-69058254D01*
X125979372Y-69029850D01*
X125968787Y-69000266D01*
X125961152Y-68969787D01*
X125956542Y-68938707D01*
X125955000Y-68907324D01*
X125955000Y-67722676D01*
X125956542Y-67691293D01*
X125961152Y-67660213D01*
X125968787Y-67629734D01*
X125979372Y-67600150D01*
X125992806Y-67571746D01*
X126008959Y-67544796D01*
X126027677Y-67519558D01*
X126048777Y-67496277D01*
X126072058Y-67475177D01*
X126097296Y-67456459D01*
X126124246Y-67440306D01*
X126152650Y-67426872D01*
X126182234Y-67416287D01*
X126212713Y-67408652D01*
X126243793Y-67404042D01*
X126275176Y-67402500D01*
X127784824Y-67402500D01*
X127816207Y-67404042D01*
X127816207Y-67404042D01*
G37*
D14*
X127030000Y-68315000D03*
D13*
G36*
X127816207Y-64429042D02*
X127847287Y-64433652D01*
X127877766Y-64441287D01*
X127907350Y-64451872D01*
X127935754Y-64465306D01*
X127962704Y-64481459D01*
X127987942Y-64500177D01*
X128011223Y-64521277D01*
X128032323Y-64544558D01*
X128051041Y-64569796D01*
X128067194Y-64596746D01*
X128080628Y-64625150D01*
X128091213Y-64654734D01*
X128098848Y-64685213D01*
X128103458Y-64716293D01*
X128105000Y-64747676D01*
X128105000Y-65932324D01*
X128103458Y-65963707D01*
X128098848Y-65994787D01*
X128091213Y-66025266D01*
X128080628Y-66054850D01*
X128067194Y-66083254D01*
X128051041Y-66110204D01*
X128032323Y-66135442D01*
X128011223Y-66158723D01*
X127987942Y-66179823D01*
X127962704Y-66198541D01*
X127935754Y-66214694D01*
X127907350Y-66228128D01*
X127877766Y-66238713D01*
X127847287Y-66246348D01*
X127816207Y-66250958D01*
X127784824Y-66252500D01*
X126275176Y-66252500D01*
X126243793Y-66250958D01*
X126212713Y-66246348D01*
X126182234Y-66238713D01*
X126152650Y-66228128D01*
X126124246Y-66214694D01*
X126097296Y-66198541D01*
X126072058Y-66179823D01*
X126048777Y-66158723D01*
X126027677Y-66135442D01*
X126008959Y-66110204D01*
X125992806Y-66083254D01*
X125979372Y-66054850D01*
X125968787Y-66025266D01*
X125961152Y-65994787D01*
X125956542Y-65963707D01*
X125955000Y-65932324D01*
X125955000Y-64747676D01*
X125956542Y-64716293D01*
X125961152Y-64685213D01*
X125968787Y-64654734D01*
X125979372Y-64625150D01*
X125992806Y-64596746D01*
X126008959Y-64569796D01*
X126027677Y-64544558D01*
X126048777Y-64521277D01*
X126072058Y-64500177D01*
X126097296Y-64481459D01*
X126124246Y-64465306D01*
X126152650Y-64451872D01*
X126182234Y-64441287D01*
X126212713Y-64433652D01*
X126243793Y-64429042D01*
X126275176Y-64427500D01*
X127784824Y-64427500D01*
X127816207Y-64429042D01*
X127816207Y-64429042D01*
G37*
D14*
X127030000Y-65340000D03*
G04 #@! TD*
D13*
G04 #@! TO.C,D23*
G36*
X44472307Y-124534042D02*
X44503387Y-124538652D01*
X44533866Y-124546287D01*
X44563450Y-124556872D01*
X44591854Y-124570306D01*
X44618804Y-124586459D01*
X44644042Y-124605177D01*
X44667323Y-124626277D01*
X44688423Y-124649558D01*
X44707141Y-124674796D01*
X44723294Y-124701746D01*
X44736728Y-124730150D01*
X44747313Y-124759734D01*
X44754948Y-124790213D01*
X44759558Y-124821293D01*
X44761100Y-124852676D01*
X44761100Y-126037324D01*
X44759558Y-126068707D01*
X44754948Y-126099787D01*
X44747313Y-126130266D01*
X44736728Y-126159850D01*
X44723294Y-126188254D01*
X44707141Y-126215204D01*
X44688423Y-126240442D01*
X44667323Y-126263723D01*
X44644042Y-126284823D01*
X44618804Y-126303541D01*
X44591854Y-126319694D01*
X44563450Y-126333128D01*
X44533866Y-126343713D01*
X44503387Y-126351348D01*
X44472307Y-126355958D01*
X44440924Y-126357500D01*
X42931276Y-126357500D01*
X42899893Y-126355958D01*
X42868813Y-126351348D01*
X42838334Y-126343713D01*
X42808750Y-126333128D01*
X42780346Y-126319694D01*
X42753396Y-126303541D01*
X42728158Y-126284823D01*
X42704877Y-126263723D01*
X42683777Y-126240442D01*
X42665059Y-126215204D01*
X42648906Y-126188254D01*
X42635472Y-126159850D01*
X42624887Y-126130266D01*
X42617252Y-126099787D01*
X42612642Y-126068707D01*
X42611100Y-126037324D01*
X42611100Y-124852676D01*
X42612642Y-124821293D01*
X42617252Y-124790213D01*
X42624887Y-124759734D01*
X42635472Y-124730150D01*
X42648906Y-124701746D01*
X42665059Y-124674796D01*
X42683777Y-124649558D01*
X42704877Y-124626277D01*
X42728158Y-124605177D01*
X42753396Y-124586459D01*
X42780346Y-124570306D01*
X42808750Y-124556872D01*
X42838334Y-124546287D01*
X42868813Y-124538652D01*
X42899893Y-124534042D01*
X42931276Y-124532500D01*
X44440924Y-124532500D01*
X44472307Y-124534042D01*
X44472307Y-124534042D01*
G37*
D14*
X43686100Y-125445000D03*
D13*
G36*
X44472307Y-121559042D02*
X44503387Y-121563652D01*
X44533866Y-121571287D01*
X44563450Y-121581872D01*
X44591854Y-121595306D01*
X44618804Y-121611459D01*
X44644042Y-121630177D01*
X44667323Y-121651277D01*
X44688423Y-121674558D01*
X44707141Y-121699796D01*
X44723294Y-121726746D01*
X44736728Y-121755150D01*
X44747313Y-121784734D01*
X44754948Y-121815213D01*
X44759558Y-121846293D01*
X44761100Y-121877676D01*
X44761100Y-123062324D01*
X44759558Y-123093707D01*
X44754948Y-123124787D01*
X44747313Y-123155266D01*
X44736728Y-123184850D01*
X44723294Y-123213254D01*
X44707141Y-123240204D01*
X44688423Y-123265442D01*
X44667323Y-123288723D01*
X44644042Y-123309823D01*
X44618804Y-123328541D01*
X44591854Y-123344694D01*
X44563450Y-123358128D01*
X44533866Y-123368713D01*
X44503387Y-123376348D01*
X44472307Y-123380958D01*
X44440924Y-123382500D01*
X42931276Y-123382500D01*
X42899893Y-123380958D01*
X42868813Y-123376348D01*
X42838334Y-123368713D01*
X42808750Y-123358128D01*
X42780346Y-123344694D01*
X42753396Y-123328541D01*
X42728158Y-123309823D01*
X42704877Y-123288723D01*
X42683777Y-123265442D01*
X42665059Y-123240204D01*
X42648906Y-123213254D01*
X42635472Y-123184850D01*
X42624887Y-123155266D01*
X42617252Y-123124787D01*
X42612642Y-123093707D01*
X42611100Y-123062324D01*
X42611100Y-121877676D01*
X42612642Y-121846293D01*
X42617252Y-121815213D01*
X42624887Y-121784734D01*
X42635472Y-121755150D01*
X42648906Y-121726746D01*
X42665059Y-121699796D01*
X42683777Y-121674558D01*
X42704877Y-121651277D01*
X42728158Y-121630177D01*
X42753396Y-121611459D01*
X42780346Y-121595306D01*
X42808750Y-121581872D01*
X42838334Y-121571287D01*
X42868813Y-121563652D01*
X42899893Y-121559042D01*
X42931276Y-121557500D01*
X44440924Y-121557500D01*
X44472307Y-121559042D01*
X44472307Y-121559042D01*
G37*
D14*
X43686100Y-122470000D03*
G04 #@! TD*
D13*
G04 #@! TO.C,D22*
G36*
X142103707Y-102549042D02*
X142134787Y-102553652D01*
X142165266Y-102561287D01*
X142194850Y-102571872D01*
X142223254Y-102585306D01*
X142250204Y-102601459D01*
X142275442Y-102620177D01*
X142298723Y-102641277D01*
X142319823Y-102664558D01*
X142338541Y-102689796D01*
X142354694Y-102716746D01*
X142368128Y-102745150D01*
X142378713Y-102774734D01*
X142386348Y-102805213D01*
X142390958Y-102836293D01*
X142392500Y-102867676D01*
X142392500Y-104052324D01*
X142390958Y-104083707D01*
X142386348Y-104114787D01*
X142378713Y-104145266D01*
X142368128Y-104174850D01*
X142354694Y-104203254D01*
X142338541Y-104230204D01*
X142319823Y-104255442D01*
X142298723Y-104278723D01*
X142275442Y-104299823D01*
X142250204Y-104318541D01*
X142223254Y-104334694D01*
X142194850Y-104348128D01*
X142165266Y-104358713D01*
X142134787Y-104366348D01*
X142103707Y-104370958D01*
X142072324Y-104372500D01*
X140562676Y-104372500D01*
X140531293Y-104370958D01*
X140500213Y-104366348D01*
X140469734Y-104358713D01*
X140440150Y-104348128D01*
X140411746Y-104334694D01*
X140384796Y-104318541D01*
X140359558Y-104299823D01*
X140336277Y-104278723D01*
X140315177Y-104255442D01*
X140296459Y-104230204D01*
X140280306Y-104203254D01*
X140266872Y-104174850D01*
X140256287Y-104145266D01*
X140248652Y-104114787D01*
X140244042Y-104083707D01*
X140242500Y-104052324D01*
X140242500Y-102867676D01*
X140244042Y-102836293D01*
X140248652Y-102805213D01*
X140256287Y-102774734D01*
X140266872Y-102745150D01*
X140280306Y-102716746D01*
X140296459Y-102689796D01*
X140315177Y-102664558D01*
X140336277Y-102641277D01*
X140359558Y-102620177D01*
X140384796Y-102601459D01*
X140411746Y-102585306D01*
X140440150Y-102571872D01*
X140469734Y-102561287D01*
X140500213Y-102553652D01*
X140531293Y-102549042D01*
X140562676Y-102547500D01*
X142072324Y-102547500D01*
X142103707Y-102549042D01*
X142103707Y-102549042D01*
G37*
D14*
X141317500Y-103460000D03*
D13*
G36*
X142103707Y-105524042D02*
X142134787Y-105528652D01*
X142165266Y-105536287D01*
X142194850Y-105546872D01*
X142223254Y-105560306D01*
X142250204Y-105576459D01*
X142275442Y-105595177D01*
X142298723Y-105616277D01*
X142319823Y-105639558D01*
X142338541Y-105664796D01*
X142354694Y-105691746D01*
X142368128Y-105720150D01*
X142378713Y-105749734D01*
X142386348Y-105780213D01*
X142390958Y-105811293D01*
X142392500Y-105842676D01*
X142392500Y-107027324D01*
X142390958Y-107058707D01*
X142386348Y-107089787D01*
X142378713Y-107120266D01*
X142368128Y-107149850D01*
X142354694Y-107178254D01*
X142338541Y-107205204D01*
X142319823Y-107230442D01*
X142298723Y-107253723D01*
X142275442Y-107274823D01*
X142250204Y-107293541D01*
X142223254Y-107309694D01*
X142194850Y-107323128D01*
X142165266Y-107333713D01*
X142134787Y-107341348D01*
X142103707Y-107345958D01*
X142072324Y-107347500D01*
X140562676Y-107347500D01*
X140531293Y-107345958D01*
X140500213Y-107341348D01*
X140469734Y-107333713D01*
X140440150Y-107323128D01*
X140411746Y-107309694D01*
X140384796Y-107293541D01*
X140359558Y-107274823D01*
X140336277Y-107253723D01*
X140315177Y-107230442D01*
X140296459Y-107205204D01*
X140280306Y-107178254D01*
X140266872Y-107149850D01*
X140256287Y-107120266D01*
X140248652Y-107089787D01*
X140244042Y-107058707D01*
X140242500Y-107027324D01*
X140242500Y-105842676D01*
X140244042Y-105811293D01*
X140248652Y-105780213D01*
X140256287Y-105749734D01*
X140266872Y-105720150D01*
X140280306Y-105691746D01*
X140296459Y-105664796D01*
X140315177Y-105639558D01*
X140336277Y-105616277D01*
X140359558Y-105595177D01*
X140384796Y-105576459D01*
X140411746Y-105560306D01*
X140440150Y-105546872D01*
X140469734Y-105536287D01*
X140500213Y-105528652D01*
X140531293Y-105524042D01*
X140562676Y-105522500D01*
X142072324Y-105522500D01*
X142103707Y-105524042D01*
X142103707Y-105524042D01*
G37*
D14*
X141317500Y-106435000D03*
G04 #@! TD*
D13*
G04 #@! TO.C,D12*
G36*
X61141207Y-90939042D02*
X61172287Y-90943652D01*
X61202766Y-90951287D01*
X61232350Y-90961872D01*
X61260754Y-90975306D01*
X61287704Y-90991459D01*
X61312942Y-91010177D01*
X61336223Y-91031277D01*
X61357323Y-91054558D01*
X61376041Y-91079796D01*
X61392194Y-91106746D01*
X61405628Y-91135150D01*
X61416213Y-91164734D01*
X61423848Y-91195213D01*
X61428458Y-91226293D01*
X61430000Y-91257676D01*
X61430000Y-92442324D01*
X61428458Y-92473707D01*
X61423848Y-92504787D01*
X61416213Y-92535266D01*
X61405628Y-92564850D01*
X61392194Y-92593254D01*
X61376041Y-92620204D01*
X61357323Y-92645442D01*
X61336223Y-92668723D01*
X61312942Y-92689823D01*
X61287704Y-92708541D01*
X61260754Y-92724694D01*
X61232350Y-92738128D01*
X61202766Y-92748713D01*
X61172287Y-92756348D01*
X61141207Y-92760958D01*
X61109824Y-92762500D01*
X59600176Y-92762500D01*
X59568793Y-92760958D01*
X59537713Y-92756348D01*
X59507234Y-92748713D01*
X59477650Y-92738128D01*
X59449246Y-92724694D01*
X59422296Y-92708541D01*
X59397058Y-92689823D01*
X59373777Y-92668723D01*
X59352677Y-92645442D01*
X59333959Y-92620204D01*
X59317806Y-92593254D01*
X59304372Y-92564850D01*
X59293787Y-92535266D01*
X59286152Y-92504787D01*
X59281542Y-92473707D01*
X59280000Y-92442324D01*
X59280000Y-91257676D01*
X59281542Y-91226293D01*
X59286152Y-91195213D01*
X59293787Y-91164734D01*
X59304372Y-91135150D01*
X59317806Y-91106746D01*
X59333959Y-91079796D01*
X59352677Y-91054558D01*
X59373777Y-91031277D01*
X59397058Y-91010177D01*
X59422296Y-90991459D01*
X59449246Y-90975306D01*
X59477650Y-90961872D01*
X59507234Y-90951287D01*
X59537713Y-90943652D01*
X59568793Y-90939042D01*
X59600176Y-90937500D01*
X61109824Y-90937500D01*
X61141207Y-90939042D01*
X61141207Y-90939042D01*
G37*
D14*
X60355000Y-91850000D03*
D13*
G36*
X61141207Y-93914042D02*
X61172287Y-93918652D01*
X61202766Y-93926287D01*
X61232350Y-93936872D01*
X61260754Y-93950306D01*
X61287704Y-93966459D01*
X61312942Y-93985177D01*
X61336223Y-94006277D01*
X61357323Y-94029558D01*
X61376041Y-94054796D01*
X61392194Y-94081746D01*
X61405628Y-94110150D01*
X61416213Y-94139734D01*
X61423848Y-94170213D01*
X61428458Y-94201293D01*
X61430000Y-94232676D01*
X61430000Y-95417324D01*
X61428458Y-95448707D01*
X61423848Y-95479787D01*
X61416213Y-95510266D01*
X61405628Y-95539850D01*
X61392194Y-95568254D01*
X61376041Y-95595204D01*
X61357323Y-95620442D01*
X61336223Y-95643723D01*
X61312942Y-95664823D01*
X61287704Y-95683541D01*
X61260754Y-95699694D01*
X61232350Y-95713128D01*
X61202766Y-95723713D01*
X61172287Y-95731348D01*
X61141207Y-95735958D01*
X61109824Y-95737500D01*
X59600176Y-95737500D01*
X59568793Y-95735958D01*
X59537713Y-95731348D01*
X59507234Y-95723713D01*
X59477650Y-95713128D01*
X59449246Y-95699694D01*
X59422296Y-95683541D01*
X59397058Y-95664823D01*
X59373777Y-95643723D01*
X59352677Y-95620442D01*
X59333959Y-95595204D01*
X59317806Y-95568254D01*
X59304372Y-95539850D01*
X59293787Y-95510266D01*
X59286152Y-95479787D01*
X59281542Y-95448707D01*
X59280000Y-95417324D01*
X59280000Y-94232676D01*
X59281542Y-94201293D01*
X59286152Y-94170213D01*
X59293787Y-94139734D01*
X59304372Y-94110150D01*
X59317806Y-94081746D01*
X59333959Y-94054796D01*
X59352677Y-94029558D01*
X59373777Y-94006277D01*
X59397058Y-93985177D01*
X59422296Y-93966459D01*
X59449246Y-93950306D01*
X59477650Y-93936872D01*
X59507234Y-93926287D01*
X59537713Y-93918652D01*
X59568793Y-93914042D01*
X59600176Y-93912500D01*
X61109824Y-93912500D01*
X61141207Y-93914042D01*
X61141207Y-93914042D01*
G37*
D14*
X60355000Y-94825000D03*
G04 #@! TD*
D13*
G04 #@! TO.C,D20*
G36*
X104003707Y-105524042D02*
X104034787Y-105528652D01*
X104065266Y-105536287D01*
X104094850Y-105546872D01*
X104123254Y-105560306D01*
X104150204Y-105576459D01*
X104175442Y-105595177D01*
X104198723Y-105616277D01*
X104219823Y-105639558D01*
X104238541Y-105664796D01*
X104254694Y-105691746D01*
X104268128Y-105720150D01*
X104278713Y-105749734D01*
X104286348Y-105780213D01*
X104290958Y-105811293D01*
X104292500Y-105842676D01*
X104292500Y-107027324D01*
X104290958Y-107058707D01*
X104286348Y-107089787D01*
X104278713Y-107120266D01*
X104268128Y-107149850D01*
X104254694Y-107178254D01*
X104238541Y-107205204D01*
X104219823Y-107230442D01*
X104198723Y-107253723D01*
X104175442Y-107274823D01*
X104150204Y-107293541D01*
X104123254Y-107309694D01*
X104094850Y-107323128D01*
X104065266Y-107333713D01*
X104034787Y-107341348D01*
X104003707Y-107345958D01*
X103972324Y-107347500D01*
X102462676Y-107347500D01*
X102431293Y-107345958D01*
X102400213Y-107341348D01*
X102369734Y-107333713D01*
X102340150Y-107323128D01*
X102311746Y-107309694D01*
X102284796Y-107293541D01*
X102259558Y-107274823D01*
X102236277Y-107253723D01*
X102215177Y-107230442D01*
X102196459Y-107205204D01*
X102180306Y-107178254D01*
X102166872Y-107149850D01*
X102156287Y-107120266D01*
X102148652Y-107089787D01*
X102144042Y-107058707D01*
X102142500Y-107027324D01*
X102142500Y-105842676D01*
X102144042Y-105811293D01*
X102148652Y-105780213D01*
X102156287Y-105749734D01*
X102166872Y-105720150D01*
X102180306Y-105691746D01*
X102196459Y-105664796D01*
X102215177Y-105639558D01*
X102236277Y-105616277D01*
X102259558Y-105595177D01*
X102284796Y-105576459D01*
X102311746Y-105560306D01*
X102340150Y-105546872D01*
X102369734Y-105536287D01*
X102400213Y-105528652D01*
X102431293Y-105524042D01*
X102462676Y-105522500D01*
X103972324Y-105522500D01*
X104003707Y-105524042D01*
X104003707Y-105524042D01*
G37*
D14*
X103217500Y-106435000D03*
D13*
G36*
X104003707Y-102549042D02*
X104034787Y-102553652D01*
X104065266Y-102561287D01*
X104094850Y-102571872D01*
X104123254Y-102585306D01*
X104150204Y-102601459D01*
X104175442Y-102620177D01*
X104198723Y-102641277D01*
X104219823Y-102664558D01*
X104238541Y-102689796D01*
X104254694Y-102716746D01*
X104268128Y-102745150D01*
X104278713Y-102774734D01*
X104286348Y-102805213D01*
X104290958Y-102836293D01*
X104292500Y-102867676D01*
X104292500Y-104052324D01*
X104290958Y-104083707D01*
X104286348Y-104114787D01*
X104278713Y-104145266D01*
X104268128Y-104174850D01*
X104254694Y-104203254D01*
X104238541Y-104230204D01*
X104219823Y-104255442D01*
X104198723Y-104278723D01*
X104175442Y-104299823D01*
X104150204Y-104318541D01*
X104123254Y-104334694D01*
X104094850Y-104348128D01*
X104065266Y-104358713D01*
X104034787Y-104366348D01*
X104003707Y-104370958D01*
X103972324Y-104372500D01*
X102462676Y-104372500D01*
X102431293Y-104370958D01*
X102400213Y-104366348D01*
X102369734Y-104358713D01*
X102340150Y-104348128D01*
X102311746Y-104334694D01*
X102284796Y-104318541D01*
X102259558Y-104299823D01*
X102236277Y-104278723D01*
X102215177Y-104255442D01*
X102196459Y-104230204D01*
X102180306Y-104203254D01*
X102166872Y-104174850D01*
X102156287Y-104145266D01*
X102148652Y-104114787D01*
X102144042Y-104083707D01*
X102142500Y-104052324D01*
X102142500Y-102867676D01*
X102144042Y-102836293D01*
X102148652Y-102805213D01*
X102156287Y-102774734D01*
X102166872Y-102745150D01*
X102180306Y-102716746D01*
X102196459Y-102689796D01*
X102215177Y-102664558D01*
X102236277Y-102641277D01*
X102259558Y-102620177D01*
X102284796Y-102601459D01*
X102311746Y-102585306D01*
X102340150Y-102571872D01*
X102369734Y-102561287D01*
X102400213Y-102553652D01*
X102431293Y-102549042D01*
X102462676Y-102547500D01*
X103972324Y-102547500D01*
X104003707Y-102549042D01*
X104003707Y-102549042D01*
G37*
D14*
X103217500Y-103460000D03*
G04 #@! TD*
D13*
G04 #@! TO.C,D14*
G36*
X99241207Y-86404042D02*
X99272287Y-86408652D01*
X99302766Y-86416287D01*
X99332350Y-86426872D01*
X99360754Y-86440306D01*
X99387704Y-86456459D01*
X99412942Y-86475177D01*
X99436223Y-86496277D01*
X99457323Y-86519558D01*
X99476041Y-86544796D01*
X99492194Y-86571746D01*
X99505628Y-86600150D01*
X99516213Y-86629734D01*
X99523848Y-86660213D01*
X99528458Y-86691293D01*
X99530000Y-86722676D01*
X99530000Y-87907324D01*
X99528458Y-87938707D01*
X99523848Y-87969787D01*
X99516213Y-88000266D01*
X99505628Y-88029850D01*
X99492194Y-88058254D01*
X99476041Y-88085204D01*
X99457323Y-88110442D01*
X99436223Y-88133723D01*
X99412942Y-88154823D01*
X99387704Y-88173541D01*
X99360754Y-88189694D01*
X99332350Y-88203128D01*
X99302766Y-88213713D01*
X99272287Y-88221348D01*
X99241207Y-88225958D01*
X99209824Y-88227500D01*
X97700176Y-88227500D01*
X97668793Y-88225958D01*
X97637713Y-88221348D01*
X97607234Y-88213713D01*
X97577650Y-88203128D01*
X97549246Y-88189694D01*
X97522296Y-88173541D01*
X97497058Y-88154823D01*
X97473777Y-88133723D01*
X97452677Y-88110442D01*
X97433959Y-88085204D01*
X97417806Y-88058254D01*
X97404372Y-88029850D01*
X97393787Y-88000266D01*
X97386152Y-87969787D01*
X97381542Y-87938707D01*
X97380000Y-87907324D01*
X97380000Y-86722676D01*
X97381542Y-86691293D01*
X97386152Y-86660213D01*
X97393787Y-86629734D01*
X97404372Y-86600150D01*
X97417806Y-86571746D01*
X97433959Y-86544796D01*
X97452677Y-86519558D01*
X97473777Y-86496277D01*
X97497058Y-86475177D01*
X97522296Y-86456459D01*
X97549246Y-86440306D01*
X97577650Y-86426872D01*
X97607234Y-86416287D01*
X97637713Y-86408652D01*
X97668793Y-86404042D01*
X97700176Y-86402500D01*
X99209824Y-86402500D01*
X99241207Y-86404042D01*
X99241207Y-86404042D01*
G37*
D14*
X98455000Y-87315000D03*
D13*
G36*
X99241207Y-83429042D02*
X99272287Y-83433652D01*
X99302766Y-83441287D01*
X99332350Y-83451872D01*
X99360754Y-83465306D01*
X99387704Y-83481459D01*
X99412942Y-83500177D01*
X99436223Y-83521277D01*
X99457323Y-83544558D01*
X99476041Y-83569796D01*
X99492194Y-83596746D01*
X99505628Y-83625150D01*
X99516213Y-83654734D01*
X99523848Y-83685213D01*
X99528458Y-83716293D01*
X99530000Y-83747676D01*
X99530000Y-84932324D01*
X99528458Y-84963707D01*
X99523848Y-84994787D01*
X99516213Y-85025266D01*
X99505628Y-85054850D01*
X99492194Y-85083254D01*
X99476041Y-85110204D01*
X99457323Y-85135442D01*
X99436223Y-85158723D01*
X99412942Y-85179823D01*
X99387704Y-85198541D01*
X99360754Y-85214694D01*
X99332350Y-85228128D01*
X99302766Y-85238713D01*
X99272287Y-85246348D01*
X99241207Y-85250958D01*
X99209824Y-85252500D01*
X97700176Y-85252500D01*
X97668793Y-85250958D01*
X97637713Y-85246348D01*
X97607234Y-85238713D01*
X97577650Y-85228128D01*
X97549246Y-85214694D01*
X97522296Y-85198541D01*
X97497058Y-85179823D01*
X97473777Y-85158723D01*
X97452677Y-85135442D01*
X97433959Y-85110204D01*
X97417806Y-85083254D01*
X97404372Y-85054850D01*
X97393787Y-85025266D01*
X97386152Y-84994787D01*
X97381542Y-84963707D01*
X97380000Y-84932324D01*
X97380000Y-83747676D01*
X97381542Y-83716293D01*
X97386152Y-83685213D01*
X97393787Y-83654734D01*
X97404372Y-83625150D01*
X97417806Y-83596746D01*
X97433959Y-83569796D01*
X97452677Y-83544558D01*
X97473777Y-83521277D01*
X97497058Y-83500177D01*
X97522296Y-83481459D01*
X97549246Y-83465306D01*
X97577650Y-83451872D01*
X97607234Y-83441287D01*
X97637713Y-83433652D01*
X97668793Y-83429042D01*
X97700176Y-83427500D01*
X99209824Y-83427500D01*
X99241207Y-83429042D01*
X99241207Y-83429042D01*
G37*
D14*
X98455000Y-84340000D03*
G04 #@! TD*
D13*
G04 #@! TO.C,D15*
G36*
X118291207Y-83429042D02*
X118322287Y-83433652D01*
X118352766Y-83441287D01*
X118382350Y-83451872D01*
X118410754Y-83465306D01*
X118437704Y-83481459D01*
X118462942Y-83500177D01*
X118486223Y-83521277D01*
X118507323Y-83544558D01*
X118526041Y-83569796D01*
X118542194Y-83596746D01*
X118555628Y-83625150D01*
X118566213Y-83654734D01*
X118573848Y-83685213D01*
X118578458Y-83716293D01*
X118580000Y-83747676D01*
X118580000Y-84932324D01*
X118578458Y-84963707D01*
X118573848Y-84994787D01*
X118566213Y-85025266D01*
X118555628Y-85054850D01*
X118542194Y-85083254D01*
X118526041Y-85110204D01*
X118507323Y-85135442D01*
X118486223Y-85158723D01*
X118462942Y-85179823D01*
X118437704Y-85198541D01*
X118410754Y-85214694D01*
X118382350Y-85228128D01*
X118352766Y-85238713D01*
X118322287Y-85246348D01*
X118291207Y-85250958D01*
X118259824Y-85252500D01*
X116750176Y-85252500D01*
X116718793Y-85250958D01*
X116687713Y-85246348D01*
X116657234Y-85238713D01*
X116627650Y-85228128D01*
X116599246Y-85214694D01*
X116572296Y-85198541D01*
X116547058Y-85179823D01*
X116523777Y-85158723D01*
X116502677Y-85135442D01*
X116483959Y-85110204D01*
X116467806Y-85083254D01*
X116454372Y-85054850D01*
X116443787Y-85025266D01*
X116436152Y-84994787D01*
X116431542Y-84963707D01*
X116430000Y-84932324D01*
X116430000Y-83747676D01*
X116431542Y-83716293D01*
X116436152Y-83685213D01*
X116443787Y-83654734D01*
X116454372Y-83625150D01*
X116467806Y-83596746D01*
X116483959Y-83569796D01*
X116502677Y-83544558D01*
X116523777Y-83521277D01*
X116547058Y-83500177D01*
X116572296Y-83481459D01*
X116599246Y-83465306D01*
X116627650Y-83451872D01*
X116657234Y-83441287D01*
X116687713Y-83433652D01*
X116718793Y-83429042D01*
X116750176Y-83427500D01*
X118259824Y-83427500D01*
X118291207Y-83429042D01*
X118291207Y-83429042D01*
G37*
D14*
X117505000Y-84340000D03*
D13*
G36*
X118291207Y-86404042D02*
X118322287Y-86408652D01*
X118352766Y-86416287D01*
X118382350Y-86426872D01*
X118410754Y-86440306D01*
X118437704Y-86456459D01*
X118462942Y-86475177D01*
X118486223Y-86496277D01*
X118507323Y-86519558D01*
X118526041Y-86544796D01*
X118542194Y-86571746D01*
X118555628Y-86600150D01*
X118566213Y-86629734D01*
X118573848Y-86660213D01*
X118578458Y-86691293D01*
X118580000Y-86722676D01*
X118580000Y-87907324D01*
X118578458Y-87938707D01*
X118573848Y-87969787D01*
X118566213Y-88000266D01*
X118555628Y-88029850D01*
X118542194Y-88058254D01*
X118526041Y-88085204D01*
X118507323Y-88110442D01*
X118486223Y-88133723D01*
X118462942Y-88154823D01*
X118437704Y-88173541D01*
X118410754Y-88189694D01*
X118382350Y-88203128D01*
X118352766Y-88213713D01*
X118322287Y-88221348D01*
X118291207Y-88225958D01*
X118259824Y-88227500D01*
X116750176Y-88227500D01*
X116718793Y-88225958D01*
X116687713Y-88221348D01*
X116657234Y-88213713D01*
X116627650Y-88203128D01*
X116599246Y-88189694D01*
X116572296Y-88173541D01*
X116547058Y-88154823D01*
X116523777Y-88133723D01*
X116502677Y-88110442D01*
X116483959Y-88085204D01*
X116467806Y-88058254D01*
X116454372Y-88029850D01*
X116443787Y-88000266D01*
X116436152Y-87969787D01*
X116431542Y-87938707D01*
X116430000Y-87907324D01*
X116430000Y-86722676D01*
X116431542Y-86691293D01*
X116436152Y-86660213D01*
X116443787Y-86629734D01*
X116454372Y-86600150D01*
X116467806Y-86571746D01*
X116483959Y-86544796D01*
X116502677Y-86519558D01*
X116523777Y-86496277D01*
X116547058Y-86475177D01*
X116572296Y-86456459D01*
X116599246Y-86440306D01*
X116627650Y-86426872D01*
X116657234Y-86416287D01*
X116687713Y-86408652D01*
X116718793Y-86404042D01*
X116750176Y-86402500D01*
X118259824Y-86402500D01*
X118291207Y-86404042D01*
X118291207Y-86404042D01*
G37*
D14*
X117505000Y-87315000D03*
G04 #@! TD*
D13*
G04 #@! TO.C,D21*
G36*
X123053707Y-105524042D02*
X123084787Y-105528652D01*
X123115266Y-105536287D01*
X123144850Y-105546872D01*
X123173254Y-105560306D01*
X123200204Y-105576459D01*
X123225442Y-105595177D01*
X123248723Y-105616277D01*
X123269823Y-105639558D01*
X123288541Y-105664796D01*
X123304694Y-105691746D01*
X123318128Y-105720150D01*
X123328713Y-105749734D01*
X123336348Y-105780213D01*
X123340958Y-105811293D01*
X123342500Y-105842676D01*
X123342500Y-107027324D01*
X123340958Y-107058707D01*
X123336348Y-107089787D01*
X123328713Y-107120266D01*
X123318128Y-107149850D01*
X123304694Y-107178254D01*
X123288541Y-107205204D01*
X123269823Y-107230442D01*
X123248723Y-107253723D01*
X123225442Y-107274823D01*
X123200204Y-107293541D01*
X123173254Y-107309694D01*
X123144850Y-107323128D01*
X123115266Y-107333713D01*
X123084787Y-107341348D01*
X123053707Y-107345958D01*
X123022324Y-107347500D01*
X121512676Y-107347500D01*
X121481293Y-107345958D01*
X121450213Y-107341348D01*
X121419734Y-107333713D01*
X121390150Y-107323128D01*
X121361746Y-107309694D01*
X121334796Y-107293541D01*
X121309558Y-107274823D01*
X121286277Y-107253723D01*
X121265177Y-107230442D01*
X121246459Y-107205204D01*
X121230306Y-107178254D01*
X121216872Y-107149850D01*
X121206287Y-107120266D01*
X121198652Y-107089787D01*
X121194042Y-107058707D01*
X121192500Y-107027324D01*
X121192500Y-105842676D01*
X121194042Y-105811293D01*
X121198652Y-105780213D01*
X121206287Y-105749734D01*
X121216872Y-105720150D01*
X121230306Y-105691746D01*
X121246459Y-105664796D01*
X121265177Y-105639558D01*
X121286277Y-105616277D01*
X121309558Y-105595177D01*
X121334796Y-105576459D01*
X121361746Y-105560306D01*
X121390150Y-105546872D01*
X121419734Y-105536287D01*
X121450213Y-105528652D01*
X121481293Y-105524042D01*
X121512676Y-105522500D01*
X123022324Y-105522500D01*
X123053707Y-105524042D01*
X123053707Y-105524042D01*
G37*
D14*
X122267500Y-106435000D03*
D13*
G36*
X123053707Y-102549042D02*
X123084787Y-102553652D01*
X123115266Y-102561287D01*
X123144850Y-102571872D01*
X123173254Y-102585306D01*
X123200204Y-102601459D01*
X123225442Y-102620177D01*
X123248723Y-102641277D01*
X123269823Y-102664558D01*
X123288541Y-102689796D01*
X123304694Y-102716746D01*
X123318128Y-102745150D01*
X123328713Y-102774734D01*
X123336348Y-102805213D01*
X123340958Y-102836293D01*
X123342500Y-102867676D01*
X123342500Y-104052324D01*
X123340958Y-104083707D01*
X123336348Y-104114787D01*
X123328713Y-104145266D01*
X123318128Y-104174850D01*
X123304694Y-104203254D01*
X123288541Y-104230204D01*
X123269823Y-104255442D01*
X123248723Y-104278723D01*
X123225442Y-104299823D01*
X123200204Y-104318541D01*
X123173254Y-104334694D01*
X123144850Y-104348128D01*
X123115266Y-104358713D01*
X123084787Y-104366348D01*
X123053707Y-104370958D01*
X123022324Y-104372500D01*
X121512676Y-104372500D01*
X121481293Y-104370958D01*
X121450213Y-104366348D01*
X121419734Y-104358713D01*
X121390150Y-104348128D01*
X121361746Y-104334694D01*
X121334796Y-104318541D01*
X121309558Y-104299823D01*
X121286277Y-104278723D01*
X121265177Y-104255442D01*
X121246459Y-104230204D01*
X121230306Y-104203254D01*
X121216872Y-104174850D01*
X121206287Y-104145266D01*
X121198652Y-104114787D01*
X121194042Y-104083707D01*
X121192500Y-104052324D01*
X121192500Y-102867676D01*
X121194042Y-102836293D01*
X121198652Y-102805213D01*
X121206287Y-102774734D01*
X121216872Y-102745150D01*
X121230306Y-102716746D01*
X121246459Y-102689796D01*
X121265177Y-102664558D01*
X121286277Y-102641277D01*
X121309558Y-102620177D01*
X121334796Y-102601459D01*
X121361746Y-102585306D01*
X121390150Y-102571872D01*
X121419734Y-102561287D01*
X121450213Y-102553652D01*
X121481293Y-102549042D01*
X121512676Y-102547500D01*
X123022324Y-102547500D01*
X123053707Y-102549042D01*
X123053707Y-102549042D01*
G37*
D14*
X122267500Y-103460000D03*
G04 #@! TD*
D21*
G04 #@! TO.C,SW29*
X81786000Y-135950000D03*
X95756000Y-133410000D03*
D20*
X94486000Y-138490000D03*
X84326000Y-138490000D03*
D19*
X89406000Y-138490000D03*
D18*
X85596000Y-135950000D03*
X91946000Y-133410000D03*
G04 #@! TD*
D25*
G04 #@! TO.C,REF\002A\002A*
X37050000Y-52310000D03*
G04 #@! TD*
D18*
G04 #@! TO.C,SW22*
X151477500Y-95310000D03*
X145127500Y-97850000D03*
D19*
X148937500Y-100390000D03*
D20*
X143857500Y-100390000D03*
X154017500Y-100390000D03*
D21*
X155287500Y-95310000D03*
X141317500Y-97850000D03*
G04 #@! TD*
G04 #@! TO.C,SW24*
X74642500Y-116900000D03*
X88612500Y-114360000D03*
D20*
X87342500Y-119440000D03*
X77182500Y-119440000D03*
D19*
X82262500Y-119440000D03*
D18*
X78452500Y-116900000D03*
X84802500Y-114360000D03*
G04 #@! TD*
G04 #@! TO.C,SW20*
X113377500Y-95310000D03*
X107027500Y-97850000D03*
D19*
X110837500Y-100390000D03*
D20*
X105757500Y-100390000D03*
X115917500Y-100390000D03*
D21*
X117187500Y-95310000D03*
X103217500Y-97850000D03*
G04 #@! TD*
G04 #@! TO.C,SW9*
X107980000Y-59750000D03*
X121950000Y-57210000D03*
D20*
X120680000Y-62290000D03*
X110520000Y-62290000D03*
D19*
X115600000Y-62290000D03*
D18*
X111790000Y-59750000D03*
X118140000Y-57210000D03*
G04 #@! TD*
G04 #@! TO.C,SW30*
X115758500Y-133410000D03*
X109408500Y-135950000D03*
D19*
X113218500Y-138490000D03*
D20*
X108138500Y-138490000D03*
X118298500Y-138490000D03*
D21*
X119568500Y-133410000D03*
X105598500Y-135950000D03*
G04 #@! TD*
G04 #@! TO.C,SW5*
X31780000Y-59750000D03*
X45750000Y-57210000D03*
D20*
X44480000Y-62290000D03*
X34320000Y-62290000D03*
D19*
X39400000Y-62290000D03*
D18*
X35590000Y-59750000D03*
X41940000Y-57210000D03*
G04 #@! TD*
G04 #@! TO.C,SW17*
X49083900Y-95310000D03*
X42733900Y-97850000D03*
D19*
X46543900Y-100390000D03*
D20*
X41463900Y-100390000D03*
X51623900Y-100390000D03*
D21*
X52893900Y-95310000D03*
X38923900Y-97850000D03*
G04 #@! TD*
D18*
G04 #@! TO.C,SW6*
X60990000Y-57210000D03*
X54640000Y-59750000D03*
D19*
X58450000Y-62290000D03*
D20*
X53370000Y-62290000D03*
X63530000Y-62290000D03*
D21*
X64800000Y-57210000D03*
X50830000Y-59750000D03*
G04 #@! TD*
G04 #@! TO.C,SW11*
X36542500Y-78800000D03*
X50512500Y-76260000D03*
D20*
X49242500Y-81340000D03*
X39082500Y-81340000D03*
D19*
X44162500Y-81340000D03*
D18*
X40352500Y-78800000D03*
X46702500Y-76260000D03*
G04 #@! TD*
G04 #@! TO.C,SW10*
X137190000Y-57210000D03*
X130840000Y-59750000D03*
D19*
X134650000Y-62290000D03*
D20*
X129570000Y-62290000D03*
X139730000Y-62290000D03*
D21*
X141000000Y-57210000D03*
X127030000Y-59750000D03*
G04 #@! TD*
D18*
G04 #@! TO.C,SW27*
X141952500Y-114360000D03*
X135602500Y-116900000D03*
D19*
X139412500Y-119440000D03*
D20*
X134332500Y-119440000D03*
X144492500Y-119440000D03*
D21*
X145762500Y-114360000D03*
X131792500Y-116900000D03*
G04 #@! TD*
D18*
G04 #@! TO.C,SW8*
X99090000Y-57210000D03*
X92740000Y-59750000D03*
D19*
X96550000Y-62290000D03*
D20*
X91470000Y-62290000D03*
X101630000Y-62290000D03*
D21*
X102900000Y-57210000D03*
X88930000Y-59750000D03*
G04 #@! TD*
G04 #@! TO.C,SW26*
X112742500Y-116900000D03*
X126712500Y-114360000D03*
D20*
X125442500Y-119440000D03*
X115282500Y-119440000D03*
D19*
X120362500Y-119440000D03*
D18*
X116552500Y-116900000D03*
X122902500Y-114360000D03*
G04 #@! TD*
D21*
G04 #@! TO.C,SW14*
X98455000Y-78800000D03*
X112425000Y-76260000D03*
D20*
X111155000Y-81340000D03*
X100995000Y-81340000D03*
D19*
X106075000Y-81340000D03*
D18*
X102265000Y-78800000D03*
X108615000Y-76260000D03*
G04 #@! TD*
G04 #@! TO.C,SW31*
X149096000Y-133410000D03*
X142746000Y-135950000D03*
D19*
X146556000Y-138490000D03*
D20*
X141476000Y-138490000D03*
X151636000Y-138490000D03*
D19*
X158456000Y-146730000D03*
X134656000Y-146730000D03*
D26*
X134656000Y-131490000D03*
X158456000Y-131490000D03*
D21*
X152906000Y-133410000D03*
X138936000Y-135950000D03*
G04 #@! TD*
D27*
G04 #@! TO.C,U0*
X60650000Y-73090000D03*
X58110000Y-73090000D03*
X55570000Y-73090000D03*
X52960000Y-73090000D03*
X42800000Y-73090000D03*
X45340000Y-73090000D03*
X50420000Y-73090000D03*
X47880000Y-73090000D03*
X40260000Y-73090000D03*
X37720000Y-73090000D03*
X32640000Y-73090000D03*
X35180000Y-73090000D03*
X60650000Y-88330000D03*
X58110000Y-88330000D03*
X45340000Y-88330000D03*
D28*
X32640000Y-88330000D03*
D27*
X35180000Y-88330000D03*
X52960000Y-88330000D03*
X40260000Y-88330000D03*
X50420000Y-88330000D03*
X55570000Y-88330000D03*
X42800000Y-88330000D03*
X47880000Y-88330000D03*
X37720000Y-88330000D03*
G04 #@! TD*
D21*
G04 #@! TO.C,SW7*
X69880000Y-59750000D03*
X83850000Y-57210000D03*
D20*
X82580000Y-62290000D03*
X72420000Y-62290000D03*
D19*
X77500000Y-62290000D03*
D18*
X73690000Y-59750000D03*
X80040000Y-57210000D03*
G04 #@! TD*
D21*
G04 #@! TO.C,SW12*
X60355000Y-78800000D03*
X74325000Y-76260000D03*
D20*
X73055000Y-81340000D03*
X62895000Y-81340000D03*
D19*
X67975000Y-81340000D03*
D18*
X64165000Y-78800000D03*
X70515000Y-76260000D03*
G04 #@! TD*
G04 #@! TO.C,SW13*
X89565000Y-76260000D03*
X83215000Y-78800000D03*
D19*
X87025000Y-81340000D03*
D20*
X81945000Y-81340000D03*
X92105000Y-81340000D03*
D21*
X93375000Y-76260000D03*
X79405000Y-78800000D03*
G04 #@! TD*
G04 #@! TO.C,SW21*
X122267500Y-97850000D03*
X136237500Y-95310000D03*
D20*
X134967500Y-100390000D03*
X124807500Y-100390000D03*
D19*
X129887500Y-100390000D03*
D18*
X126077500Y-97850000D03*
X132427500Y-95310000D03*
G04 #@! TD*
D29*
G04 #@! TO.C,SW_r0*
X67290000Y-140290000D03*
X67290000Y-135210000D03*
X74910000Y-140290000D03*
X74910000Y-135210000D03*
G04 #@! TD*
D18*
G04 #@! TO.C,SW15*
X127665000Y-76260000D03*
X121315000Y-78800000D03*
D19*
X125125000Y-81340000D03*
D20*
X120045000Y-81340000D03*
X130205000Y-81340000D03*
D21*
X131475000Y-76260000D03*
X117505000Y-78800000D03*
G04 #@! TD*
G04 #@! TO.C,SW16*
X136555000Y-78800000D03*
X150525000Y-76260000D03*
D20*
X149255000Y-81340000D03*
X139095000Y-81340000D03*
D19*
X144175000Y-81340000D03*
D18*
X140365000Y-78800000D03*
X146715000Y-76260000D03*
G04 #@! TD*
G04 #@! TO.C,SW25*
X103852500Y-114360000D03*
X97502500Y-116900000D03*
D19*
X101312500Y-119440000D03*
D20*
X96232500Y-119440000D03*
X106392500Y-119440000D03*
D21*
X107662500Y-114360000D03*
X93692500Y-116900000D03*
G04 #@! TD*
G04 #@! TO.C,SW28*
X150842500Y-116900000D03*
X164812500Y-114360000D03*
D20*
X163542500Y-119440000D03*
X153382500Y-119440000D03*
D19*
X158462500Y-119440000D03*
D18*
X154652500Y-116900000D03*
X161002500Y-114360000D03*
G04 #@! TD*
G04 #@! TO.C,SW23*
X53846100Y-114360000D03*
X47496100Y-116900000D03*
D19*
X51306100Y-119440000D03*
D20*
X46226100Y-119440000D03*
X56386100Y-119440000D03*
D19*
X63206100Y-127680000D03*
X39406100Y-127680000D03*
D26*
X39406100Y-112440000D03*
X63206100Y-112440000D03*
D21*
X57656100Y-114360000D03*
X43686100Y-116900000D03*
G04 #@! TD*
D18*
G04 #@! TO.C,SW19*
X94327500Y-95310000D03*
X87977500Y-97850000D03*
D19*
X91787500Y-100390000D03*
D20*
X86707500Y-100390000D03*
X96867500Y-100390000D03*
D21*
X98137500Y-95310000D03*
X84167500Y-97850000D03*
G04 #@! TD*
M02*
