%FSLAX45Y45*%
G04 Gerber Fmt 4.5, Leading zero omitted, Abs format (unit mm)*
G04 Created by KiCad (PCBNEW (5.0.2)-1) date 2019/02/16 22:04:40*
%MOMM*%
%LPD*%
G01*
G04 APERTURE LIST*
%ADD10C,0.200000*%
%ADD11C,0.150000*%
%ADD12C,0.300000*%
G04 APERTURE END LIST*
D10*
X2788000Y-15102000D02*
X16799250Y-15102000D01*
D11*
X15370500Y-5278250D02*
X15370500Y-9088250D01*
X16799250Y-10993250D02*
X16799250Y-15103250D01*
D10*
X2788000Y-2597000D02*
X13941750Y-2597000D01*
X13941750Y-5278250D02*
X15370500Y-5278250D01*
D11*
X13941750Y-2597000D02*
X13941750Y-5278250D01*
X15846750Y-9088250D02*
X15846750Y-10993250D01*
X2788000Y-2597000D02*
X2788000Y-15102000D01*
D10*
X15846750Y-10993000D02*
X16799250Y-10993000D01*
X15370500Y-9088250D02*
X15846750Y-9088250D01*
D10*
X2995000Y-10687000D02*
X3035000Y-10727000D01*
X3035000Y-10687000D02*
X2995000Y-10727000D01*
X3071000Y-9829000D02*
X3111000Y-9869000D01*
X3111000Y-9829000D02*
X3071000Y-9869000D01*
X3158000Y-6991000D02*
X3198000Y-7031000D01*
X3198000Y-6991000D02*
X3158000Y-7031000D01*
X3159000Y-4616000D02*
X3199000Y-4656000D01*
X3199000Y-4616000D02*
X3159000Y-4656000D01*
X3160000Y-12725000D02*
X3200000Y-12765000D01*
X3200000Y-12725000D02*
X3160000Y-12765000D01*
X3244000Y-7092000D02*
X3284000Y-7132000D01*
X3284000Y-7092000D02*
X3244000Y-7132000D01*
X3348000Y-13316000D02*
X3388000Y-13356000D01*
X3388000Y-13316000D02*
X3348000Y-13356000D01*
X3352000Y-8478000D02*
X3392000Y-8518000D01*
X3392000Y-8478000D02*
X3352000Y-8518000D01*
X3461000Y-10685000D02*
X3501000Y-10725000D01*
X3501000Y-10685000D02*
X3461000Y-10725000D01*
X3480000Y-11925000D02*
X3520000Y-11965000D01*
X3520000Y-11925000D02*
X3480000Y-11965000D01*
X3501000Y-6882000D02*
X3541000Y-6922000D01*
X3541000Y-6882000D02*
X3501000Y-6922000D01*
X3530000Y-9452000D02*
X3570000Y-9492000D01*
X3570000Y-9452000D02*
X3530000Y-9492000D01*
X3616000Y-9769000D02*
X3656000Y-9809000D01*
X3656000Y-9769000D02*
X3616000Y-9809000D01*
X3639000Y-5603000D02*
X3679000Y-5643000D01*
X3679000Y-5603000D02*
X3639000Y-5643000D01*
X3693000Y-3152000D02*
X3733000Y-3192000D01*
X3733000Y-3152000D02*
X3693000Y-3192000D01*
X3876000Y-10784000D02*
X3916000Y-10824000D01*
X3916000Y-10784000D02*
X3876000Y-10824000D01*
X4006000Y-7094000D02*
X4046000Y-7134000D01*
X4046000Y-7094000D02*
X4006000Y-7134000D01*
X4181000Y-14681000D02*
X4221000Y-14721000D01*
X4221000Y-14681000D02*
X4181000Y-14721000D01*
X4440000Y-10508000D02*
X4480000Y-10548000D01*
X4480000Y-10508000D02*
X4440000Y-10548000D01*
X4478000Y-6552000D02*
X4518000Y-6592000D01*
X4518000Y-6552000D02*
X4478000Y-6592000D01*
X4513000Y-9226000D02*
X4553000Y-9266000D01*
X4553000Y-9226000D02*
X4513000Y-9266000D01*
X4615000Y-12521000D02*
X4655000Y-12561000D01*
X4655000Y-12521000D02*
X4615000Y-12561000D01*
X4790000Y-6884000D02*
X4830000Y-6924000D01*
X4830000Y-6884000D02*
X4790000Y-6924000D01*
X5010000Y-13326000D02*
X5050000Y-13366000D01*
X5050000Y-13326000D02*
X5010000Y-13366000D01*
X5063000Y-6991000D02*
X5103000Y-7031000D01*
X5103000Y-6991000D02*
X5063000Y-7031000D01*
X5089000Y-4880000D02*
X5129000Y-4920000D01*
X5129000Y-4880000D02*
X5089000Y-4920000D01*
X5402000Y-8630000D02*
X5442000Y-8670000D01*
X5442000Y-8630000D02*
X5402000Y-8670000D01*
X5403000Y-6991000D02*
X5443000Y-7031000D01*
X5443000Y-6991000D02*
X5403000Y-7031000D01*
X5520000Y-4754000D02*
X5560000Y-4794000D01*
X5560000Y-4754000D02*
X5520000Y-4794000D01*
X5535000Y-10784000D02*
X5575000Y-10824000D01*
X5575000Y-10784000D02*
X5535000Y-10824000D01*
X5599000Y-5603000D02*
X5639000Y-5643000D01*
X5639000Y-5603000D02*
X5599000Y-5643000D01*
X5652000Y-8468000D02*
X5692000Y-8508000D01*
X5692000Y-8468000D02*
X5652000Y-8508000D01*
X5751000Y-9448000D02*
X5791000Y-9488000D01*
X5791000Y-9448000D02*
X5751000Y-9488000D01*
X5887000Y-13083000D02*
X5927000Y-13123000D01*
X5927000Y-13083000D02*
X5887000Y-13123000D01*
X5918000Y-10644000D02*
X5958000Y-10684000D01*
X5958000Y-10644000D02*
X5918000Y-10684000D01*
X6019000Y-4614000D02*
X6059000Y-4654000D01*
X6059000Y-4614000D02*
X6019000Y-4654000D01*
X6019000Y-4614000D02*
X6059000Y-4654000D01*
X6059000Y-4614000D02*
X6019000Y-4654000D01*
X6037000Y-12400000D02*
X6077000Y-12440000D01*
X6077000Y-12400000D02*
X6037000Y-12440000D01*
X6050000Y-10640000D02*
X6090000Y-10680000D01*
X6090000Y-10640000D02*
X6050000Y-10680000D01*
X6151000Y-6429000D02*
X6191000Y-6469000D01*
X6191000Y-6429000D02*
X6151000Y-6469000D01*
X6286000Y-9465000D02*
X6326000Y-9505000D01*
X6326000Y-9465000D02*
X6286000Y-9505000D01*
X6491000Y-10784000D02*
X6531000Y-10824000D01*
X6531000Y-10784000D02*
X6491000Y-10824000D01*
X6523000Y-2844000D02*
X6563000Y-2884000D01*
X6563000Y-2844000D02*
X6523000Y-2884000D01*
X6523000Y-7093000D02*
X6563000Y-7133000D01*
X6563000Y-7093000D02*
X6523000Y-7133000D01*
X6863000Y-9363000D02*
X6903000Y-9403000D01*
X6903000Y-9363000D02*
X6863000Y-9403000D01*
X6968000Y-6991000D02*
X7008000Y-7031000D01*
X7008000Y-6991000D02*
X6968000Y-7031000D01*
X7098000Y-8314000D02*
X7138000Y-8354000D01*
X7138000Y-8314000D02*
X7098000Y-8354000D01*
X7186000Y-12400000D02*
X7226000Y-12440000D01*
X7226000Y-12400000D02*
X7186000Y-12440000D01*
X7314000Y-5581000D02*
X7354000Y-5621000D01*
X7354000Y-5581000D02*
X7314000Y-5621000D01*
X7444000Y-12718000D02*
X7484000Y-12758000D01*
X7484000Y-12718000D02*
X7444000Y-12758000D01*
X7920000Y-8944000D02*
X7960000Y-8984000D01*
X7960000Y-8944000D02*
X7920000Y-8984000D01*
X7922000Y-4620000D02*
X7962000Y-4660000D01*
X7962000Y-4620000D02*
X7922000Y-4660000D01*
X8048000Y-7213000D02*
X8088000Y-7253000D01*
X8088000Y-7213000D02*
X8048000Y-7253000D01*
X8139000Y-11167000D02*
X8179000Y-11207000D01*
X8179000Y-11167000D02*
X8139000Y-11207000D01*
X8397000Y-14435000D02*
X8437000Y-14475000D01*
X8437000Y-14435000D02*
X8397000Y-14475000D01*
X8400000Y-10784000D02*
X8440000Y-10824000D01*
X8440000Y-10784000D02*
X8400000Y-10824000D01*
X8637000Y-14176000D02*
X8677000Y-14216000D01*
X8677000Y-14176000D02*
X8637000Y-14216000D01*
X8718000Y-9342000D02*
X8758000Y-9382000D01*
X8758000Y-9342000D02*
X8718000Y-9382000D01*
X8745000Y-2863000D02*
X8785000Y-2903000D01*
X8785000Y-2863000D02*
X8745000Y-2903000D01*
X8873000Y-6984000D02*
X8913000Y-7024000D01*
X8913000Y-6984000D02*
X8873000Y-7024000D01*
X9147000Y-12962000D02*
X9187000Y-13002000D01*
X9187000Y-12962000D02*
X9147000Y-13002000D01*
X9342000Y-5596000D02*
X9382000Y-5636000D01*
X9382000Y-5596000D02*
X9342000Y-5636000D01*
X9349000Y-12718000D02*
X9389000Y-12758000D01*
X9389000Y-12718000D02*
X9349000Y-12758000D01*
X9378000Y-8660000D02*
X9418000Y-8700000D01*
X9418000Y-8660000D02*
X9378000Y-8700000D01*
X9550000Y-13082000D02*
X9590000Y-13122000D01*
X9590000Y-13082000D02*
X9550000Y-13122000D01*
X9824000Y-4620000D02*
X9864000Y-4660000D01*
X9864000Y-4620000D02*
X9824000Y-4660000D01*
X9826000Y-8944000D02*
X9866000Y-8984000D01*
X9866000Y-8944000D02*
X9826000Y-8984000D01*
X10014000Y-7497000D02*
X10054000Y-7537000D01*
X10054000Y-7497000D02*
X10014000Y-7537000D01*
X10299000Y-10783000D02*
X10339000Y-10823000D01*
X10339000Y-10783000D02*
X10299000Y-10823000D01*
X10300000Y-14442000D02*
X10340000Y-14482000D01*
X10340000Y-14442000D02*
X10300000Y-14482000D01*
X10526000Y-2893000D02*
X10566000Y-2933000D01*
X10566000Y-2893000D02*
X10526000Y-2933000D01*
X10726000Y-9370000D02*
X10766000Y-9410000D01*
X10766000Y-9370000D02*
X10726000Y-9410000D01*
X10772000Y-14435000D02*
X10812000Y-14475000D01*
X10812000Y-14435000D02*
X10772000Y-14475000D01*
X10778000Y-6984000D02*
X10818000Y-7024000D01*
X10818000Y-6984000D02*
X10778000Y-7024000D01*
X10992000Y-13233000D02*
X11032000Y-13273000D01*
X11032000Y-13233000D02*
X10992000Y-13273000D01*
X11043000Y-12868000D02*
X11083000Y-12908000D01*
X11083000Y-12868000D02*
X11043000Y-12908000D01*
X11254000Y-12718000D02*
X11294000Y-12758000D01*
X11294000Y-12718000D02*
X11254000Y-12758000D01*
X11276000Y-5605000D02*
X11316000Y-5645000D01*
X11316000Y-5605000D02*
X11276000Y-5645000D01*
X11278000Y-8557000D02*
X11318000Y-8597000D01*
X11318000Y-8557000D02*
X11278000Y-8597000D01*
X11729000Y-4616000D02*
X11769000Y-4656000D01*
X11769000Y-4616000D02*
X11729000Y-4656000D01*
X11730000Y-8944000D02*
X11770000Y-8984000D01*
X11770000Y-8944000D02*
X11730000Y-8984000D01*
X11914000Y-7523000D02*
X11954000Y-7563000D01*
X11954000Y-7523000D02*
X11914000Y-7563000D01*
X11946000Y-12965000D02*
X11986000Y-13005000D01*
X11986000Y-12965000D02*
X11946000Y-13005000D01*
X12202000Y-10786000D02*
X12242000Y-10826000D01*
X12242000Y-10786000D02*
X12202000Y-10826000D01*
X12463000Y-2885000D02*
X12503000Y-2925000D01*
X12503000Y-2885000D02*
X12463000Y-2925000D01*
X12675000Y-9326000D02*
X12715000Y-9366000D01*
X12715000Y-9326000D02*
X12675000Y-9366000D01*
X12685000Y-6984000D02*
X12725000Y-7024000D01*
X12725000Y-6984000D02*
X12685000Y-7024000D01*
X13159000Y-12718000D02*
X13199000Y-12758000D01*
X13199000Y-12718000D02*
X13159000Y-12758000D01*
X13192000Y-8413000D02*
X13232000Y-8453000D01*
X13232000Y-8413000D02*
X13192000Y-8453000D01*
X13297000Y-5605000D02*
X13337000Y-5645000D01*
X13337000Y-5605000D02*
X13297000Y-5645000D01*
X13592000Y-14332000D02*
X13632000Y-14372000D01*
X13632000Y-14332000D02*
X13592000Y-14372000D01*
X13636000Y-8944000D02*
X13676000Y-8984000D01*
X13676000Y-8944000D02*
X13636000Y-8984000D01*
X14080000Y-7348000D02*
X14120000Y-7388000D01*
X14120000Y-7348000D02*
X14080000Y-7388000D01*
X14111000Y-10786000D02*
X14151000Y-10826000D01*
X14151000Y-10786000D02*
X14111000Y-10826000D01*
X14181000Y-6974000D02*
X14221000Y-7014000D01*
X14221000Y-6974000D02*
X14181000Y-7014000D01*
X14331000Y-6884000D02*
X14371000Y-6924000D01*
X14371000Y-6884000D02*
X14331000Y-6924000D01*
X14377000Y-8516000D02*
X14417000Y-8556000D01*
X14417000Y-8516000D02*
X14377000Y-8556000D01*
X14632000Y-14420000D02*
X14672000Y-14460000D01*
X14672000Y-14420000D02*
X14632000Y-14460000D01*
X14682000Y-9370000D02*
X14722000Y-9410000D01*
X14722000Y-9370000D02*
X14682000Y-9410000D01*
X15062000Y-12718000D02*
X15102000Y-12758000D01*
X15102000Y-12718000D02*
X15062000Y-12758000D01*
X15286000Y-12864000D02*
X15326000Y-12904000D01*
X15326000Y-12864000D02*
X15286000Y-12904000D01*
X15825000Y-13847000D02*
X15865000Y-13887000D01*
X15865000Y-13847000D02*
X15825000Y-13887000D01*
X3302100Y-7309000D02*
G75*
G03X3302100Y-7309000I-38100J0D01*
G01*
X3302100Y-8833000D02*
G75*
G03X3302100Y-8833000I-38100J0D01*
G01*
X3556100Y-7309000D02*
G75*
G03X3556100Y-7309000I-38100J0D01*
G01*
X3556100Y-8833000D02*
G75*
G03X3556100Y-8833000I-38100J0D01*
G01*
X3810100Y-7309000D02*
G75*
G03X3810100Y-7309000I-38100J0D01*
G01*
X3810100Y-8833000D02*
G75*
G03X3810100Y-8833000I-38100J0D01*
G01*
X4064100Y-7309000D02*
G75*
G03X4064100Y-7309000I-38100J0D01*
G01*
X4064100Y-8833000D02*
G75*
G03X4064100Y-8833000I-38100J0D01*
G01*
X4318100Y-7309000D02*
G75*
G03X4318100Y-7309000I-38100J0D01*
G01*
X4318100Y-8833000D02*
G75*
G03X4318100Y-8833000I-38100J0D01*
G01*
X4572100Y-7309000D02*
G75*
G03X4572100Y-7309000I-38100J0D01*
G01*
X4572100Y-8833000D02*
G75*
G03X4572100Y-8833000I-38100J0D01*
G01*
X4826100Y-7309000D02*
G75*
G03X4826100Y-7309000I-38100J0D01*
G01*
X4826100Y-8833000D02*
G75*
G03X4826100Y-8833000I-38100J0D01*
G01*
X5080100Y-7309000D02*
G75*
G03X5080100Y-7309000I-38100J0D01*
G01*
X5080100Y-8833000D02*
G75*
G03X5080100Y-8833000I-38100J0D01*
G01*
X5334100Y-7309000D02*
G75*
G03X5334100Y-7309000I-38100J0D01*
G01*
X5334100Y-8833000D02*
G75*
G03X5334100Y-8833000I-38100J0D01*
G01*
X5595100Y-7309000D02*
G75*
G03X5595100Y-7309000I-38100J0D01*
G01*
X5595100Y-8833000D02*
G75*
G03X5595100Y-8833000I-38100J0D01*
G01*
X5849100Y-7309000D02*
G75*
G03X5849100Y-7309000I-38100J0D01*
G01*
X5849100Y-8833000D02*
G75*
G03X5849100Y-8833000I-38100J0D01*
G01*
X6103100Y-7309000D02*
G75*
G03X6103100Y-7309000I-38100J0D01*
G01*
X6103100Y-8833000D02*
G75*
G03X6103100Y-8833000I-38100J0D01*
G01*
X6729000Y-13480360D02*
X6729000Y-13561640D01*
X6688360Y-13521000D02*
X6769640Y-13521000D01*
X6729000Y-13988360D02*
X6729000Y-14069640D01*
X6688360Y-14029000D02*
X6769640Y-14029000D01*
X7491000Y-13480360D02*
X7491000Y-13561640D01*
X7450360Y-13521000D02*
X7531640Y-13521000D01*
X7491000Y-13988360D02*
X7491000Y-14069640D01*
X7450360Y-14029000D02*
X7531640Y-14029000D01*
X5144356Y-3162356D02*
X5144356Y-3091644D01*
X5073644Y-3091644D01*
X5073644Y-3162356D01*
X5144356Y-3162356D01*
X5069000Y-3102000D02*
X5069000Y-3152000D01*
X5149000Y-3102000D02*
X5149000Y-3152000D01*
X5069000Y-3152000D02*
G75*
G03X5149000Y-3152000I40000J0D01*
G01*
X5149000Y-3102000D02*
G75*
G03X5069000Y-3102000I-40000J0D01*
G01*
X5144356Y-3462356D02*
X5144356Y-3391644D01*
X5073644Y-3391644D01*
X5073644Y-3462356D01*
X5144356Y-3462356D01*
X5069000Y-3402000D02*
X5069000Y-3452000D01*
X5149000Y-3402000D02*
X5149000Y-3452000D01*
X5069000Y-3452000D02*
G75*
G03X5149000Y-3452000I40000J0D01*
G01*
X5149000Y-3402000D02*
G75*
G03X5069000Y-3402000I-40000J0D01*
G01*
X5144356Y-3862356D02*
X5144356Y-3791644D01*
X5073644Y-3791644D01*
X5073644Y-3862356D01*
X5144356Y-3862356D01*
X5069000Y-3802000D02*
X5069000Y-3852000D01*
X5149000Y-3802000D02*
X5149000Y-3852000D01*
X5069000Y-3852000D02*
G75*
G03X5149000Y-3852000I40000J0D01*
G01*
X5149000Y-3802000D02*
G75*
G03X5069000Y-3802000I-40000J0D01*
G01*
X5574356Y-4012356D02*
X5574356Y-3941644D01*
X5503644Y-3941644D01*
X5503644Y-4012356D01*
X5574356Y-4012356D01*
X5499000Y-3952000D02*
X5499000Y-4002000D01*
X5579000Y-3952000D02*
X5579000Y-4002000D01*
X5499000Y-4002000D02*
G75*
G03X5579000Y-4002000I40000J0D01*
G01*
X5579000Y-3952000D02*
G75*
G03X5499000Y-3952000I-40000J0D01*
G01*
X14607356Y-5857356D02*
X14607356Y-5786644D01*
X14536644Y-5786644D01*
X14536644Y-5857356D01*
X14607356Y-5857356D01*
X14532000Y-5797000D02*
X14532000Y-5847000D01*
X14612000Y-5797000D02*
X14612000Y-5847000D01*
X14532000Y-5847000D02*
G75*
G03X14612000Y-5847000I40000J0D01*
G01*
X14612000Y-5797000D02*
G75*
G03X14532000Y-5797000I-40000J0D01*
G01*
X14607356Y-6157356D02*
X14607356Y-6086644D01*
X14536644Y-6086644D01*
X14536644Y-6157356D01*
X14607356Y-6157356D01*
X14532000Y-6097000D02*
X14532000Y-6147000D01*
X14612000Y-6097000D02*
X14612000Y-6147000D01*
X14532000Y-6147000D02*
G75*
G03X14612000Y-6147000I40000J0D01*
G01*
X14612000Y-6097000D02*
G75*
G03X14532000Y-6097000I-40000J0D01*
G01*
X14607356Y-6557356D02*
X14607356Y-6486644D01*
X14536644Y-6486644D01*
X14536644Y-6557356D01*
X14607356Y-6557356D01*
X14532000Y-6497000D02*
X14532000Y-6547000D01*
X14612000Y-6497000D02*
X14612000Y-6547000D01*
X14532000Y-6547000D02*
G75*
G03X14612000Y-6547000I40000J0D01*
G01*
X14612000Y-6497000D02*
G75*
G03X14532000Y-6497000I-40000J0D01*
G01*
X15037356Y-6707356D02*
X15037356Y-6636644D01*
X14966644Y-6636644D01*
X14966644Y-6707356D01*
X15037356Y-6707356D01*
X14962000Y-6647000D02*
X14962000Y-6697000D01*
X15042000Y-6647000D02*
X15042000Y-6697000D01*
X14962000Y-6697000D02*
G75*
G03X15042000Y-6697000I40000J0D01*
G01*
X15042000Y-6647000D02*
G75*
G03X14962000Y-6647000I-40000J0D01*
G01*
D12*
X3064428Y-15577714D02*
X3064428Y-15277714D01*
X3135857Y-15277714D01*
X3178714Y-15292000D01*
X3207286Y-15320571D01*
X3221571Y-15349143D01*
X3235857Y-15406286D01*
X3235857Y-15449143D01*
X3221571Y-15506286D01*
X3207286Y-15534857D01*
X3178714Y-15563429D01*
X3135857Y-15577714D01*
X3064428Y-15577714D01*
X3364428Y-15577714D02*
X3364428Y-15377714D01*
X3364428Y-15434857D02*
X3378714Y-15406286D01*
X3393000Y-15392000D01*
X3421571Y-15377714D01*
X3450143Y-15377714D01*
X3550143Y-15577714D02*
X3550143Y-15377714D01*
X3550143Y-15277714D02*
X3535857Y-15292000D01*
X3550143Y-15306286D01*
X3564428Y-15292000D01*
X3550143Y-15277714D01*
X3550143Y-15306286D01*
X3735857Y-15577714D02*
X3707286Y-15563429D01*
X3693000Y-15534857D01*
X3693000Y-15277714D01*
X3893000Y-15577714D02*
X3864428Y-15563429D01*
X3850143Y-15534857D01*
X3850143Y-15277714D01*
X4235857Y-15577714D02*
X4235857Y-15277714D01*
X4335857Y-15492000D01*
X4435857Y-15277714D01*
X4435857Y-15577714D01*
X4707286Y-15577714D02*
X4707286Y-15420571D01*
X4693000Y-15392000D01*
X4664428Y-15377714D01*
X4607286Y-15377714D01*
X4578714Y-15392000D01*
X4707286Y-15563429D02*
X4678714Y-15577714D01*
X4607286Y-15577714D01*
X4578714Y-15563429D01*
X4564428Y-15534857D01*
X4564428Y-15506286D01*
X4578714Y-15477714D01*
X4607286Y-15463429D01*
X4678714Y-15463429D01*
X4707286Y-15449143D01*
X4850143Y-15377714D02*
X4850143Y-15677714D01*
X4850143Y-15392000D02*
X4878714Y-15377714D01*
X4935857Y-15377714D01*
X4964428Y-15392000D01*
X4978714Y-15406286D01*
X4993000Y-15434857D01*
X4993000Y-15520571D01*
X4978714Y-15549143D01*
X4964428Y-15563429D01*
X4935857Y-15577714D01*
X4878714Y-15577714D01*
X4850143Y-15563429D01*
X5121571Y-15549143D02*
X5135857Y-15563429D01*
X5121571Y-15577714D01*
X5107286Y-15563429D01*
X5121571Y-15549143D01*
X5121571Y-15577714D01*
X5121571Y-15392000D02*
X5135857Y-15406286D01*
X5121571Y-15420571D01*
X5107286Y-15406286D01*
X5121571Y-15392000D01*
X5121571Y-15420571D01*
X2738000Y-16052000D02*
X2778000Y-16092000D01*
X2778000Y-16052000D02*
X2738000Y-16092000D01*
X3121571Y-15907714D02*
X3150143Y-15907714D01*
X3178714Y-15922000D01*
X3193000Y-15936286D01*
X3207286Y-15964857D01*
X3221571Y-16022000D01*
X3221571Y-16093429D01*
X3207286Y-16150571D01*
X3193000Y-16179143D01*
X3178714Y-16193429D01*
X3150143Y-16207714D01*
X3121571Y-16207714D01*
X3093000Y-16193429D01*
X3078714Y-16179143D01*
X3064428Y-16150571D01*
X3050143Y-16093429D01*
X3050143Y-16022000D01*
X3064428Y-15964857D01*
X3078714Y-15936286D01*
X3093000Y-15922000D01*
X3121571Y-15907714D01*
X3350143Y-16179143D02*
X3364428Y-16193429D01*
X3350143Y-16207714D01*
X3335857Y-16193429D01*
X3350143Y-16179143D01*
X3350143Y-16207714D01*
X3621571Y-16007714D02*
X3621571Y-16207714D01*
X3550143Y-15893429D02*
X3478714Y-16107714D01*
X3664428Y-16107714D01*
X3835857Y-15907714D02*
X3864428Y-15907714D01*
X3893000Y-15922000D01*
X3907286Y-15936286D01*
X3921571Y-15964857D01*
X3935857Y-16022000D01*
X3935857Y-16093429D01*
X3921571Y-16150571D01*
X3907286Y-16179143D01*
X3893000Y-16193429D01*
X3864428Y-16207714D01*
X3835857Y-16207714D01*
X3807286Y-16193429D01*
X3793000Y-16179143D01*
X3778714Y-16150571D01*
X3764428Y-16093429D01*
X3764428Y-16022000D01*
X3778714Y-15964857D01*
X3793000Y-15936286D01*
X3807286Y-15922000D01*
X3835857Y-15907714D01*
X4064428Y-16207714D02*
X4064428Y-16007714D01*
X4064428Y-16036286D02*
X4078714Y-16022000D01*
X4107286Y-16007714D01*
X4150143Y-16007714D01*
X4178714Y-16022000D01*
X4193000Y-16050571D01*
X4193000Y-16207714D01*
X4193000Y-16050571D02*
X4207286Y-16022000D01*
X4235857Y-16007714D01*
X4278714Y-16007714D01*
X4307286Y-16022000D01*
X4321571Y-16050571D01*
X4321571Y-16207714D01*
X4464428Y-16207714D02*
X4464428Y-16007714D01*
X4464428Y-16036286D02*
X4478714Y-16022000D01*
X4507286Y-16007714D01*
X4550143Y-16007714D01*
X4578714Y-16022000D01*
X4593000Y-16050571D01*
X4593000Y-16207714D01*
X4593000Y-16050571D02*
X4607286Y-16022000D01*
X4635857Y-16007714D01*
X4678714Y-16007714D01*
X4707286Y-16022000D01*
X4721571Y-16050571D01*
X4721571Y-16207714D01*
X5307286Y-15893429D02*
X5050143Y-16279143D01*
X5693000Y-15907714D02*
X5721571Y-15907714D01*
X5750143Y-15922000D01*
X5764428Y-15936286D01*
X5778714Y-15964857D01*
X5793000Y-16022000D01*
X5793000Y-16093429D01*
X5778714Y-16150571D01*
X5764428Y-16179143D01*
X5750143Y-16193429D01*
X5721571Y-16207714D01*
X5693000Y-16207714D01*
X5664428Y-16193429D01*
X5650143Y-16179143D01*
X5635857Y-16150571D01*
X5621571Y-16093429D01*
X5621571Y-16022000D01*
X5635857Y-15964857D01*
X5650143Y-15936286D01*
X5664428Y-15922000D01*
X5693000Y-15907714D01*
X5921571Y-16179143D02*
X5935857Y-16193429D01*
X5921571Y-16207714D01*
X5907286Y-16193429D01*
X5921571Y-16179143D01*
X5921571Y-16207714D01*
X6121571Y-15907714D02*
X6150143Y-15907714D01*
X6178714Y-15922000D01*
X6193000Y-15936286D01*
X6207286Y-15964857D01*
X6221571Y-16022000D01*
X6221571Y-16093429D01*
X6207286Y-16150571D01*
X6193000Y-16179143D01*
X6178714Y-16193429D01*
X6150143Y-16207714D01*
X6121571Y-16207714D01*
X6093000Y-16193429D01*
X6078714Y-16179143D01*
X6064428Y-16150571D01*
X6050143Y-16093429D01*
X6050143Y-16022000D01*
X6064428Y-15964857D01*
X6078714Y-15936286D01*
X6093000Y-15922000D01*
X6121571Y-15907714D01*
X6507286Y-16207714D02*
X6335857Y-16207714D01*
X6421571Y-16207714D02*
X6421571Y-15907714D01*
X6393000Y-15950571D01*
X6364428Y-15979143D01*
X6335857Y-15993429D01*
X6764428Y-15907714D02*
X6707286Y-15907714D01*
X6678714Y-15922000D01*
X6664428Y-15936286D01*
X6635857Y-15979143D01*
X6621571Y-16036286D01*
X6621571Y-16150571D01*
X6635857Y-16179143D01*
X6650143Y-16193429D01*
X6678714Y-16207714D01*
X6735857Y-16207714D01*
X6764428Y-16193429D01*
X6778714Y-16179143D01*
X6793000Y-16150571D01*
X6793000Y-16079143D01*
X6778714Y-16050571D01*
X6764428Y-16036286D01*
X6735857Y-16022000D01*
X6678714Y-16022000D01*
X6650143Y-16036286D01*
X6635857Y-16050571D01*
X6621571Y-16079143D01*
X6907286Y-15907714D02*
X6907286Y-15964857D01*
X7021571Y-15907714D02*
X7021571Y-15964857D01*
X7464428Y-16322000D02*
X7450143Y-16307714D01*
X7421571Y-16264857D01*
X7407286Y-16236286D01*
X7393000Y-16193429D01*
X7378714Y-16122000D01*
X7378714Y-16064857D01*
X7393000Y-15993429D01*
X7407286Y-15950571D01*
X7421571Y-15922000D01*
X7450143Y-15879143D01*
X7464428Y-15864857D01*
X7735857Y-16207714D02*
X7564428Y-16207714D01*
X7650143Y-16207714D02*
X7650143Y-15907714D01*
X7621571Y-15950571D01*
X7593000Y-15979143D01*
X7564428Y-15993429D01*
X7921571Y-15907714D02*
X7950143Y-15907714D01*
X7978714Y-15922000D01*
X7993000Y-15936286D01*
X8007286Y-15964857D01*
X8021571Y-16022000D01*
X8021571Y-16093429D01*
X8007286Y-16150571D01*
X7993000Y-16179143D01*
X7978714Y-16193429D01*
X7950143Y-16207714D01*
X7921571Y-16207714D01*
X7893000Y-16193429D01*
X7878714Y-16179143D01*
X7864428Y-16150571D01*
X7850143Y-16093429D01*
X7850143Y-16022000D01*
X7864428Y-15964857D01*
X7878714Y-15936286D01*
X7893000Y-15922000D01*
X7921571Y-15907714D01*
X8135857Y-15936286D02*
X8150143Y-15922000D01*
X8178714Y-15907714D01*
X8250143Y-15907714D01*
X8278714Y-15922000D01*
X8293000Y-15936286D01*
X8307286Y-15964857D01*
X8307286Y-15993429D01*
X8293000Y-16036286D01*
X8121571Y-16207714D01*
X8307286Y-16207714D01*
X8664428Y-16207714D02*
X8664428Y-15907714D01*
X8793000Y-16207714D02*
X8793000Y-16050571D01*
X8778714Y-16022000D01*
X8750143Y-16007714D01*
X8707286Y-16007714D01*
X8678714Y-16022000D01*
X8664428Y-16036286D01*
X8978714Y-16207714D02*
X8950143Y-16193429D01*
X8935857Y-16179143D01*
X8921571Y-16150571D01*
X8921571Y-16064857D01*
X8935857Y-16036286D01*
X8950143Y-16022000D01*
X8978714Y-16007714D01*
X9021571Y-16007714D01*
X9050143Y-16022000D01*
X9064428Y-16036286D01*
X9078714Y-16064857D01*
X9078714Y-16150571D01*
X9064428Y-16179143D01*
X9050143Y-16193429D01*
X9021571Y-16207714D01*
X8978714Y-16207714D01*
X9250143Y-16207714D02*
X9221571Y-16193429D01*
X9207286Y-16164857D01*
X9207286Y-15907714D01*
X9478714Y-16193429D02*
X9450143Y-16207714D01*
X9393000Y-16207714D01*
X9364428Y-16193429D01*
X9350143Y-16164857D01*
X9350143Y-16050571D01*
X9364428Y-16022000D01*
X9393000Y-16007714D01*
X9450143Y-16007714D01*
X9478714Y-16022000D01*
X9493000Y-16050571D01*
X9493000Y-16079143D01*
X9350143Y-16107714D01*
X9607286Y-16193429D02*
X9635857Y-16207714D01*
X9693000Y-16207714D01*
X9721571Y-16193429D01*
X9735857Y-16164857D01*
X9735857Y-16150571D01*
X9721571Y-16122000D01*
X9693000Y-16107714D01*
X9650143Y-16107714D01*
X9621571Y-16093429D01*
X9607286Y-16064857D01*
X9607286Y-16050571D01*
X9621571Y-16022000D01*
X9650143Y-16007714D01*
X9693000Y-16007714D01*
X9721571Y-16022000D01*
X9835857Y-16322000D02*
X9850143Y-16307714D01*
X9878714Y-16264857D01*
X9893000Y-16236286D01*
X9907286Y-16193429D01*
X9921571Y-16122000D01*
X9921571Y-16064857D01*
X9907286Y-15993429D01*
X9893000Y-15950571D01*
X9878714Y-15922000D01*
X9850143Y-15879143D01*
X9835857Y-15864857D01*
X2778000Y-16468000D02*
G75*
G03X2778000Y-16468000I-38100J0D01*
G01*
X3121571Y-16303714D02*
X3150143Y-16303714D01*
X3178714Y-16318000D01*
X3193000Y-16332286D01*
X3207286Y-16360857D01*
X3221571Y-16418000D01*
X3221571Y-16489429D01*
X3207286Y-16546571D01*
X3193000Y-16575143D01*
X3178714Y-16589429D01*
X3150143Y-16603714D01*
X3121571Y-16603714D01*
X3093000Y-16589429D01*
X3078714Y-16575143D01*
X3064428Y-16546571D01*
X3050143Y-16489429D01*
X3050143Y-16418000D01*
X3064428Y-16360857D01*
X3078714Y-16332286D01*
X3093000Y-16318000D01*
X3121571Y-16303714D01*
X3350143Y-16575143D02*
X3364428Y-16589429D01*
X3350143Y-16603714D01*
X3335857Y-16589429D01*
X3350143Y-16575143D01*
X3350143Y-16603714D01*
X3464428Y-16303714D02*
X3664428Y-16303714D01*
X3535857Y-16603714D01*
X3907286Y-16303714D02*
X3850143Y-16303714D01*
X3821571Y-16318000D01*
X3807286Y-16332286D01*
X3778714Y-16375143D01*
X3764428Y-16432286D01*
X3764428Y-16546571D01*
X3778714Y-16575143D01*
X3793000Y-16589429D01*
X3821571Y-16603714D01*
X3878714Y-16603714D01*
X3907286Y-16589429D01*
X3921571Y-16575143D01*
X3935857Y-16546571D01*
X3935857Y-16475143D01*
X3921571Y-16446571D01*
X3907286Y-16432286D01*
X3878714Y-16418000D01*
X3821571Y-16418000D01*
X3793000Y-16432286D01*
X3778714Y-16446571D01*
X3764428Y-16475143D01*
X4064428Y-16603714D02*
X4064428Y-16403714D01*
X4064428Y-16432286D02*
X4078714Y-16418000D01*
X4107286Y-16403714D01*
X4150143Y-16403714D01*
X4178714Y-16418000D01*
X4193000Y-16446571D01*
X4193000Y-16603714D01*
X4193000Y-16446571D02*
X4207286Y-16418000D01*
X4235857Y-16403714D01*
X4278714Y-16403714D01*
X4307286Y-16418000D01*
X4321571Y-16446571D01*
X4321571Y-16603714D01*
X4464428Y-16603714D02*
X4464428Y-16403714D01*
X4464428Y-16432286D02*
X4478714Y-16418000D01*
X4507286Y-16403714D01*
X4550143Y-16403714D01*
X4578714Y-16418000D01*
X4593000Y-16446571D01*
X4593000Y-16603714D01*
X4593000Y-16446571D02*
X4607286Y-16418000D01*
X4635857Y-16403714D01*
X4678714Y-16403714D01*
X4707286Y-16418000D01*
X4721571Y-16446571D01*
X4721571Y-16603714D01*
X5307286Y-16289429D02*
X5050143Y-16675143D01*
X5693000Y-16303714D02*
X5721571Y-16303714D01*
X5750143Y-16318000D01*
X5764428Y-16332286D01*
X5778714Y-16360857D01*
X5793000Y-16418000D01*
X5793000Y-16489429D01*
X5778714Y-16546571D01*
X5764428Y-16575143D01*
X5750143Y-16589429D01*
X5721571Y-16603714D01*
X5693000Y-16603714D01*
X5664428Y-16589429D01*
X5650143Y-16575143D01*
X5635857Y-16546571D01*
X5621571Y-16489429D01*
X5621571Y-16418000D01*
X5635857Y-16360857D01*
X5650143Y-16332286D01*
X5664428Y-16318000D01*
X5693000Y-16303714D01*
X5921571Y-16575143D02*
X5935857Y-16589429D01*
X5921571Y-16603714D01*
X5907286Y-16589429D01*
X5921571Y-16575143D01*
X5921571Y-16603714D01*
X6121571Y-16303714D02*
X6150143Y-16303714D01*
X6178714Y-16318000D01*
X6193000Y-16332286D01*
X6207286Y-16360857D01*
X6221571Y-16418000D01*
X6221571Y-16489429D01*
X6207286Y-16546571D01*
X6193000Y-16575143D01*
X6178714Y-16589429D01*
X6150143Y-16603714D01*
X6121571Y-16603714D01*
X6093000Y-16589429D01*
X6078714Y-16575143D01*
X6064428Y-16546571D01*
X6050143Y-16489429D01*
X6050143Y-16418000D01*
X6064428Y-16360857D01*
X6078714Y-16332286D01*
X6093000Y-16318000D01*
X6121571Y-16303714D01*
X6321571Y-16303714D02*
X6507286Y-16303714D01*
X6407286Y-16418000D01*
X6450143Y-16418000D01*
X6478714Y-16432286D01*
X6493000Y-16446571D01*
X6507286Y-16475143D01*
X6507286Y-16546571D01*
X6493000Y-16575143D01*
X6478714Y-16589429D01*
X6450143Y-16603714D01*
X6364428Y-16603714D01*
X6335857Y-16589429D01*
X6321571Y-16575143D01*
X6693000Y-16303714D02*
X6721571Y-16303714D01*
X6750143Y-16318000D01*
X6764428Y-16332286D01*
X6778714Y-16360857D01*
X6793000Y-16418000D01*
X6793000Y-16489429D01*
X6778714Y-16546571D01*
X6764428Y-16575143D01*
X6750143Y-16589429D01*
X6721571Y-16603714D01*
X6693000Y-16603714D01*
X6664428Y-16589429D01*
X6650143Y-16575143D01*
X6635857Y-16546571D01*
X6621571Y-16489429D01*
X6621571Y-16418000D01*
X6635857Y-16360857D01*
X6650143Y-16332286D01*
X6664428Y-16318000D01*
X6693000Y-16303714D01*
X6907286Y-16303714D02*
X6907286Y-16360857D01*
X7021571Y-16303714D02*
X7021571Y-16360857D01*
X7464428Y-16718000D02*
X7450143Y-16703714D01*
X7421571Y-16660857D01*
X7407286Y-16632286D01*
X7393000Y-16589429D01*
X7378714Y-16518000D01*
X7378714Y-16460857D01*
X7393000Y-16389429D01*
X7407286Y-16346571D01*
X7421571Y-16318000D01*
X7450143Y-16275143D01*
X7464428Y-16260857D01*
X7564428Y-16332286D02*
X7578714Y-16318000D01*
X7607286Y-16303714D01*
X7678714Y-16303714D01*
X7707286Y-16318000D01*
X7721571Y-16332286D01*
X7735857Y-16360857D01*
X7735857Y-16389429D01*
X7721571Y-16432286D01*
X7550143Y-16603714D01*
X7735857Y-16603714D01*
X7993000Y-16403714D02*
X7993000Y-16603714D01*
X7921571Y-16289429D02*
X7850143Y-16503714D01*
X8035857Y-16503714D01*
X8378714Y-16603714D02*
X8378714Y-16303714D01*
X8507286Y-16603714D02*
X8507286Y-16446571D01*
X8493000Y-16418000D01*
X8464428Y-16403714D01*
X8421571Y-16403714D01*
X8393000Y-16418000D01*
X8378714Y-16432286D01*
X8693000Y-16603714D02*
X8664428Y-16589429D01*
X8650143Y-16575143D01*
X8635857Y-16546571D01*
X8635857Y-16460857D01*
X8650143Y-16432286D01*
X8664428Y-16418000D01*
X8693000Y-16403714D01*
X8735857Y-16403714D01*
X8764428Y-16418000D01*
X8778714Y-16432286D01*
X8793000Y-16460857D01*
X8793000Y-16546571D01*
X8778714Y-16575143D01*
X8764428Y-16589429D01*
X8735857Y-16603714D01*
X8693000Y-16603714D01*
X8964428Y-16603714D02*
X8935857Y-16589429D01*
X8921571Y-16560857D01*
X8921571Y-16303714D01*
X9193000Y-16589429D02*
X9164428Y-16603714D01*
X9107286Y-16603714D01*
X9078714Y-16589429D01*
X9064428Y-16560857D01*
X9064428Y-16446571D01*
X9078714Y-16418000D01*
X9107286Y-16403714D01*
X9164428Y-16403714D01*
X9193000Y-16418000D01*
X9207286Y-16446571D01*
X9207286Y-16475143D01*
X9064428Y-16503714D01*
X9321571Y-16589429D02*
X9350143Y-16603714D01*
X9407286Y-16603714D01*
X9435857Y-16589429D01*
X9450143Y-16560857D01*
X9450143Y-16546571D01*
X9435857Y-16518000D01*
X9407286Y-16503714D01*
X9364428Y-16503714D01*
X9335857Y-16489429D01*
X9321571Y-16460857D01*
X9321571Y-16446571D01*
X9335857Y-16418000D01*
X9364428Y-16403714D01*
X9407286Y-16403714D01*
X9435857Y-16418000D01*
X9550143Y-16718000D02*
X9564428Y-16703714D01*
X9593000Y-16660857D01*
X9607286Y-16632286D01*
X9621571Y-16589429D01*
X9635857Y-16518000D01*
X9635857Y-16460857D01*
X9621571Y-16389429D01*
X9607286Y-16346571D01*
X9593000Y-16318000D01*
X9564428Y-16275143D01*
X9550143Y-16260857D01*
X2737360Y-16823360D02*
X2737360Y-16904640D01*
X2696720Y-16864000D02*
X2778000Y-16864000D01*
X3121571Y-16699714D02*
X3150143Y-16699714D01*
X3178714Y-16714000D01*
X3193000Y-16728286D01*
X3207286Y-16756857D01*
X3221571Y-16814000D01*
X3221571Y-16885429D01*
X3207286Y-16942572D01*
X3193000Y-16971143D01*
X3178714Y-16985429D01*
X3150143Y-16999714D01*
X3121571Y-16999714D01*
X3093000Y-16985429D01*
X3078714Y-16971143D01*
X3064428Y-16942572D01*
X3050143Y-16885429D01*
X3050143Y-16814000D01*
X3064428Y-16756857D01*
X3078714Y-16728286D01*
X3093000Y-16714000D01*
X3121571Y-16699714D01*
X3350143Y-16971143D02*
X3364428Y-16985429D01*
X3350143Y-16999714D01*
X3335857Y-16985429D01*
X3350143Y-16971143D01*
X3350143Y-16999714D01*
X3535857Y-16828286D02*
X3507286Y-16814000D01*
X3493000Y-16799714D01*
X3478714Y-16771143D01*
X3478714Y-16756857D01*
X3493000Y-16728286D01*
X3507286Y-16714000D01*
X3535857Y-16699714D01*
X3593000Y-16699714D01*
X3621571Y-16714000D01*
X3635857Y-16728286D01*
X3650143Y-16756857D01*
X3650143Y-16771143D01*
X3635857Y-16799714D01*
X3621571Y-16814000D01*
X3593000Y-16828286D01*
X3535857Y-16828286D01*
X3507286Y-16842572D01*
X3493000Y-16856857D01*
X3478714Y-16885429D01*
X3478714Y-16942572D01*
X3493000Y-16971143D01*
X3507286Y-16985429D01*
X3535857Y-16999714D01*
X3593000Y-16999714D01*
X3621571Y-16985429D01*
X3635857Y-16971143D01*
X3650143Y-16942572D01*
X3650143Y-16885429D01*
X3635857Y-16856857D01*
X3621571Y-16842572D01*
X3593000Y-16828286D01*
X3935857Y-16999714D02*
X3764428Y-16999714D01*
X3850143Y-16999714D02*
X3850143Y-16699714D01*
X3821571Y-16742571D01*
X3793000Y-16771143D01*
X3764428Y-16785429D01*
X4064428Y-16999714D02*
X4064428Y-16799714D01*
X4064428Y-16828286D02*
X4078714Y-16814000D01*
X4107286Y-16799714D01*
X4150143Y-16799714D01*
X4178714Y-16814000D01*
X4193000Y-16842572D01*
X4193000Y-16999714D01*
X4193000Y-16842572D02*
X4207286Y-16814000D01*
X4235857Y-16799714D01*
X4278714Y-16799714D01*
X4307286Y-16814000D01*
X4321571Y-16842572D01*
X4321571Y-16999714D01*
X4464428Y-16999714D02*
X4464428Y-16799714D01*
X4464428Y-16828286D02*
X4478714Y-16814000D01*
X4507286Y-16799714D01*
X4550143Y-16799714D01*
X4578714Y-16814000D01*
X4593000Y-16842572D01*
X4593000Y-16999714D01*
X4593000Y-16842572D02*
X4607286Y-16814000D01*
X4635857Y-16799714D01*
X4678714Y-16799714D01*
X4707286Y-16814000D01*
X4721571Y-16842572D01*
X4721571Y-16999714D01*
X5307286Y-16685429D02*
X5050143Y-17071143D01*
X5693000Y-16699714D02*
X5721571Y-16699714D01*
X5750143Y-16714000D01*
X5764428Y-16728286D01*
X5778714Y-16756857D01*
X5793000Y-16814000D01*
X5793000Y-16885429D01*
X5778714Y-16942572D01*
X5764428Y-16971143D01*
X5750143Y-16985429D01*
X5721571Y-16999714D01*
X5693000Y-16999714D01*
X5664428Y-16985429D01*
X5650143Y-16971143D01*
X5635857Y-16942572D01*
X5621571Y-16885429D01*
X5621571Y-16814000D01*
X5635857Y-16756857D01*
X5650143Y-16728286D01*
X5664428Y-16714000D01*
X5693000Y-16699714D01*
X5921571Y-16971143D02*
X5935857Y-16985429D01*
X5921571Y-16999714D01*
X5907286Y-16985429D01*
X5921571Y-16971143D01*
X5921571Y-16999714D01*
X6121571Y-16699714D02*
X6150143Y-16699714D01*
X6178714Y-16714000D01*
X6193000Y-16728286D01*
X6207286Y-16756857D01*
X6221571Y-16814000D01*
X6221571Y-16885429D01*
X6207286Y-16942572D01*
X6193000Y-16971143D01*
X6178714Y-16985429D01*
X6150143Y-16999714D01*
X6121571Y-16999714D01*
X6093000Y-16985429D01*
X6078714Y-16971143D01*
X6064428Y-16942572D01*
X6050143Y-16885429D01*
X6050143Y-16814000D01*
X6064428Y-16756857D01*
X6078714Y-16728286D01*
X6093000Y-16714000D01*
X6121571Y-16699714D01*
X6321571Y-16699714D02*
X6507286Y-16699714D01*
X6407286Y-16814000D01*
X6450143Y-16814000D01*
X6478714Y-16828286D01*
X6493000Y-16842572D01*
X6507286Y-16871143D01*
X6507286Y-16942572D01*
X6493000Y-16971143D01*
X6478714Y-16985429D01*
X6450143Y-16999714D01*
X6364428Y-16999714D01*
X6335857Y-16985429D01*
X6321571Y-16971143D01*
X6621571Y-16728286D02*
X6635857Y-16714000D01*
X6664428Y-16699714D01*
X6735857Y-16699714D01*
X6764428Y-16714000D01*
X6778714Y-16728286D01*
X6793000Y-16756857D01*
X6793000Y-16785429D01*
X6778714Y-16828286D01*
X6607286Y-16999714D01*
X6793000Y-16999714D01*
X6907286Y-16699714D02*
X6907286Y-16756857D01*
X7021571Y-16699714D02*
X7021571Y-16756857D01*
X7464428Y-17114000D02*
X7450143Y-17099714D01*
X7421571Y-17056857D01*
X7407286Y-17028286D01*
X7393000Y-16985429D01*
X7378714Y-16914000D01*
X7378714Y-16856857D01*
X7393000Y-16785429D01*
X7407286Y-16742571D01*
X7421571Y-16714000D01*
X7450143Y-16671143D01*
X7464428Y-16656857D01*
X7707286Y-16799714D02*
X7707286Y-16999714D01*
X7635857Y-16685429D02*
X7564428Y-16899714D01*
X7750143Y-16899714D01*
X8093000Y-16999714D02*
X8093000Y-16699714D01*
X8221571Y-16999714D02*
X8221571Y-16842572D01*
X8207286Y-16814000D01*
X8178714Y-16799714D01*
X8135857Y-16799714D01*
X8107286Y-16814000D01*
X8093000Y-16828286D01*
X8407286Y-16999714D02*
X8378714Y-16985429D01*
X8364428Y-16971143D01*
X8350143Y-16942572D01*
X8350143Y-16856857D01*
X8364428Y-16828286D01*
X8378714Y-16814000D01*
X8407286Y-16799714D01*
X8450143Y-16799714D01*
X8478714Y-16814000D01*
X8493000Y-16828286D01*
X8507286Y-16856857D01*
X8507286Y-16942572D01*
X8493000Y-16971143D01*
X8478714Y-16985429D01*
X8450143Y-16999714D01*
X8407286Y-16999714D01*
X8678714Y-16999714D02*
X8650143Y-16985429D01*
X8635857Y-16956857D01*
X8635857Y-16699714D01*
X8907286Y-16985429D02*
X8878714Y-16999714D01*
X8821571Y-16999714D01*
X8793000Y-16985429D01*
X8778714Y-16956857D01*
X8778714Y-16842572D01*
X8793000Y-16814000D01*
X8821571Y-16799714D01*
X8878714Y-16799714D01*
X8907286Y-16814000D01*
X8921571Y-16842572D01*
X8921571Y-16871143D01*
X8778714Y-16899714D01*
X9035857Y-16985429D02*
X9064428Y-16999714D01*
X9121571Y-16999714D01*
X9150143Y-16985429D01*
X9164428Y-16956857D01*
X9164428Y-16942572D01*
X9150143Y-16914000D01*
X9121571Y-16899714D01*
X9078714Y-16899714D01*
X9050143Y-16885429D01*
X9035857Y-16856857D01*
X9035857Y-16842572D01*
X9050143Y-16814000D01*
X9078714Y-16799714D01*
X9121571Y-16799714D01*
X9150143Y-16814000D01*
X9264428Y-17114000D02*
X9278714Y-17099714D01*
X9307286Y-17056857D01*
X9321571Y-17028286D01*
X9335857Y-16985429D01*
X9350143Y-16914000D01*
X9350143Y-16856857D01*
X9335857Y-16785429D01*
X9321571Y-16742571D01*
X9307286Y-16714000D01*
X9278714Y-16671143D01*
X9264428Y-16656857D01*
X2763356Y-17295356D02*
X2763356Y-17224644D01*
X2692644Y-17224644D01*
X2692644Y-17295356D01*
X2763356Y-17295356D01*
X3221571Y-17395714D02*
X3050143Y-17395714D01*
X3135857Y-17395714D02*
X3135857Y-17095714D01*
X3107286Y-17138572D01*
X3078714Y-17167143D01*
X3050143Y-17181429D01*
X3350143Y-17367143D02*
X3364428Y-17381429D01*
X3350143Y-17395714D01*
X3335857Y-17381429D01*
X3350143Y-17367143D01*
X3350143Y-17395714D01*
X3550143Y-17095714D02*
X3578714Y-17095714D01*
X3607286Y-17110000D01*
X3621571Y-17124286D01*
X3635857Y-17152857D01*
X3650143Y-17210000D01*
X3650143Y-17281429D01*
X3635857Y-17338572D01*
X3621571Y-17367143D01*
X3607286Y-17381429D01*
X3578714Y-17395714D01*
X3550143Y-17395714D01*
X3521571Y-17381429D01*
X3507286Y-17367143D01*
X3493000Y-17338572D01*
X3478714Y-17281429D01*
X3478714Y-17210000D01*
X3493000Y-17152857D01*
X3507286Y-17124286D01*
X3521571Y-17110000D01*
X3550143Y-17095714D01*
X3835857Y-17095714D02*
X3864428Y-17095714D01*
X3893000Y-17110000D01*
X3907286Y-17124286D01*
X3921571Y-17152857D01*
X3935857Y-17210000D01*
X3935857Y-17281429D01*
X3921571Y-17338572D01*
X3907286Y-17367143D01*
X3893000Y-17381429D01*
X3864428Y-17395714D01*
X3835857Y-17395714D01*
X3807286Y-17381429D01*
X3793000Y-17367143D01*
X3778714Y-17338572D01*
X3764428Y-17281429D01*
X3764428Y-17210000D01*
X3778714Y-17152857D01*
X3793000Y-17124286D01*
X3807286Y-17110000D01*
X3835857Y-17095714D01*
X4064428Y-17395714D02*
X4064428Y-17195714D01*
X4064428Y-17224286D02*
X4078714Y-17210000D01*
X4107286Y-17195714D01*
X4150143Y-17195714D01*
X4178714Y-17210000D01*
X4193000Y-17238572D01*
X4193000Y-17395714D01*
X4193000Y-17238572D02*
X4207286Y-17210000D01*
X4235857Y-17195714D01*
X4278714Y-17195714D01*
X4307286Y-17210000D01*
X4321571Y-17238572D01*
X4321571Y-17395714D01*
X4464428Y-17395714D02*
X4464428Y-17195714D01*
X4464428Y-17224286D02*
X4478714Y-17210000D01*
X4507286Y-17195714D01*
X4550143Y-17195714D01*
X4578714Y-17210000D01*
X4593000Y-17238572D01*
X4593000Y-17395714D01*
X4593000Y-17238572D02*
X4607286Y-17210000D01*
X4635857Y-17195714D01*
X4678714Y-17195714D01*
X4707286Y-17210000D01*
X4721571Y-17238572D01*
X4721571Y-17395714D01*
X5307286Y-17081429D02*
X5050143Y-17467143D01*
X5693000Y-17095714D02*
X5721571Y-17095714D01*
X5750143Y-17110000D01*
X5764428Y-17124286D01*
X5778714Y-17152857D01*
X5793000Y-17210000D01*
X5793000Y-17281429D01*
X5778714Y-17338572D01*
X5764428Y-17367143D01*
X5750143Y-17381429D01*
X5721571Y-17395714D01*
X5693000Y-17395714D01*
X5664428Y-17381429D01*
X5650143Y-17367143D01*
X5635857Y-17338572D01*
X5621571Y-17281429D01*
X5621571Y-17210000D01*
X5635857Y-17152857D01*
X5650143Y-17124286D01*
X5664428Y-17110000D01*
X5693000Y-17095714D01*
X5921571Y-17367143D02*
X5935857Y-17381429D01*
X5921571Y-17395714D01*
X5907286Y-17381429D01*
X5921571Y-17367143D01*
X5921571Y-17395714D01*
X6121571Y-17095714D02*
X6150143Y-17095714D01*
X6178714Y-17110000D01*
X6193000Y-17124286D01*
X6207286Y-17152857D01*
X6221571Y-17210000D01*
X6221571Y-17281429D01*
X6207286Y-17338572D01*
X6193000Y-17367143D01*
X6178714Y-17381429D01*
X6150143Y-17395714D01*
X6121571Y-17395714D01*
X6093000Y-17381429D01*
X6078714Y-17367143D01*
X6064428Y-17338572D01*
X6050143Y-17281429D01*
X6050143Y-17210000D01*
X6064428Y-17152857D01*
X6078714Y-17124286D01*
X6093000Y-17110000D01*
X6121571Y-17095714D01*
X6321571Y-17095714D02*
X6507286Y-17095714D01*
X6407286Y-17210000D01*
X6450143Y-17210000D01*
X6478714Y-17224286D01*
X6493000Y-17238572D01*
X6507286Y-17267143D01*
X6507286Y-17338572D01*
X6493000Y-17367143D01*
X6478714Y-17381429D01*
X6450143Y-17395714D01*
X6364428Y-17395714D01*
X6335857Y-17381429D01*
X6321571Y-17367143D01*
X6650143Y-17395714D02*
X6707286Y-17395714D01*
X6735857Y-17381429D01*
X6750143Y-17367143D01*
X6778714Y-17324286D01*
X6793000Y-17267143D01*
X6793000Y-17152857D01*
X6778714Y-17124286D01*
X6764428Y-17110000D01*
X6735857Y-17095714D01*
X6678714Y-17095714D01*
X6650143Y-17110000D01*
X6635857Y-17124286D01*
X6621571Y-17152857D01*
X6621571Y-17224286D01*
X6635857Y-17252857D01*
X6650143Y-17267143D01*
X6678714Y-17281429D01*
X6735857Y-17281429D01*
X6764428Y-17267143D01*
X6778714Y-17252857D01*
X6793000Y-17224286D01*
X6907286Y-17095714D02*
X6907286Y-17152857D01*
X7021571Y-17095714D02*
X7021571Y-17152857D01*
X7464428Y-17510000D02*
X7450143Y-17495714D01*
X7421571Y-17452857D01*
X7407286Y-17424286D01*
X7393000Y-17381429D01*
X7378714Y-17310000D01*
X7378714Y-17252857D01*
X7393000Y-17181429D01*
X7407286Y-17138572D01*
X7421571Y-17110000D01*
X7450143Y-17067143D01*
X7464428Y-17052857D01*
X7635857Y-17095714D02*
X7664428Y-17095714D01*
X7693000Y-17110000D01*
X7707286Y-17124286D01*
X7721571Y-17152857D01*
X7735857Y-17210000D01*
X7735857Y-17281429D01*
X7721571Y-17338572D01*
X7707286Y-17367143D01*
X7693000Y-17381429D01*
X7664428Y-17395714D01*
X7635857Y-17395714D01*
X7607286Y-17381429D01*
X7593000Y-17367143D01*
X7578714Y-17338572D01*
X7564428Y-17281429D01*
X7564428Y-17210000D01*
X7578714Y-17152857D01*
X7593000Y-17124286D01*
X7607286Y-17110000D01*
X7635857Y-17095714D01*
X8093000Y-17395714D02*
X8093000Y-17095714D01*
X8221571Y-17395714D02*
X8221571Y-17238572D01*
X8207286Y-17210000D01*
X8178714Y-17195714D01*
X8135857Y-17195714D01*
X8107286Y-17210000D01*
X8093000Y-17224286D01*
X8407286Y-17395714D02*
X8378714Y-17381429D01*
X8364428Y-17367143D01*
X8350143Y-17338572D01*
X8350143Y-17252857D01*
X8364428Y-17224286D01*
X8378714Y-17210000D01*
X8407286Y-17195714D01*
X8450143Y-17195714D01*
X8478714Y-17210000D01*
X8493000Y-17224286D01*
X8507286Y-17252857D01*
X8507286Y-17338572D01*
X8493000Y-17367143D01*
X8478714Y-17381429D01*
X8450143Y-17395714D01*
X8407286Y-17395714D01*
X8678714Y-17395714D02*
X8650143Y-17381429D01*
X8635857Y-17352857D01*
X8635857Y-17095714D01*
X8907286Y-17381429D02*
X8878714Y-17395714D01*
X8821571Y-17395714D01*
X8793000Y-17381429D01*
X8778714Y-17352857D01*
X8778714Y-17238572D01*
X8793000Y-17210000D01*
X8821571Y-17195714D01*
X8878714Y-17195714D01*
X8907286Y-17210000D01*
X8921571Y-17238572D01*
X8921571Y-17267143D01*
X8778714Y-17295714D01*
X9035857Y-17381429D02*
X9064428Y-17395714D01*
X9121571Y-17395714D01*
X9150143Y-17381429D01*
X9164428Y-17352857D01*
X9164428Y-17338572D01*
X9150143Y-17310000D01*
X9121571Y-17295714D01*
X9078714Y-17295714D01*
X9050143Y-17281429D01*
X9035857Y-17252857D01*
X9035857Y-17238572D01*
X9050143Y-17210000D01*
X9078714Y-17195714D01*
X9121571Y-17195714D01*
X9150143Y-17210000D01*
X9521571Y-17281429D02*
X9750143Y-17281429D01*
X9635857Y-17395714D02*
X9635857Y-17167143D01*
X10164428Y-17224286D02*
X10135857Y-17210000D01*
X10121571Y-17195714D01*
X10107286Y-17167143D01*
X10107286Y-17152857D01*
X10121571Y-17124286D01*
X10135857Y-17110000D01*
X10164428Y-17095714D01*
X10221571Y-17095714D01*
X10250143Y-17110000D01*
X10264428Y-17124286D01*
X10278714Y-17152857D01*
X10278714Y-17167143D01*
X10264428Y-17195714D01*
X10250143Y-17210000D01*
X10221571Y-17224286D01*
X10164428Y-17224286D01*
X10135857Y-17238572D01*
X10121571Y-17252857D01*
X10107286Y-17281429D01*
X10107286Y-17338572D01*
X10121571Y-17367143D01*
X10135857Y-17381429D01*
X10164428Y-17395714D01*
X10221571Y-17395714D01*
X10250143Y-17381429D01*
X10264428Y-17367143D01*
X10278714Y-17338572D01*
X10278714Y-17281429D01*
X10264428Y-17252857D01*
X10250143Y-17238572D01*
X10221571Y-17224286D01*
X10621571Y-17381429D02*
X10650143Y-17395714D01*
X10707286Y-17395714D01*
X10735857Y-17381429D01*
X10750143Y-17352857D01*
X10750143Y-17338572D01*
X10735857Y-17310000D01*
X10707286Y-17295714D01*
X10664428Y-17295714D01*
X10635857Y-17281429D01*
X10621571Y-17252857D01*
X10621571Y-17238572D01*
X10635857Y-17210000D01*
X10664428Y-17195714D01*
X10707286Y-17195714D01*
X10735857Y-17210000D01*
X10921571Y-17395714D02*
X10893000Y-17381429D01*
X10878714Y-17352857D01*
X10878714Y-17095714D01*
X11078714Y-17395714D02*
X11050143Y-17381429D01*
X11035857Y-17367143D01*
X11021571Y-17338572D01*
X11021571Y-17252857D01*
X11035857Y-17224286D01*
X11050143Y-17210000D01*
X11078714Y-17195714D01*
X11121571Y-17195714D01*
X11150143Y-17210000D01*
X11164428Y-17224286D01*
X11178714Y-17252857D01*
X11178714Y-17338572D01*
X11164428Y-17367143D01*
X11150143Y-17381429D01*
X11121571Y-17395714D01*
X11078714Y-17395714D01*
X11264428Y-17195714D02*
X11378714Y-17195714D01*
X11307286Y-17095714D02*
X11307286Y-17352857D01*
X11321571Y-17381429D01*
X11350143Y-17395714D01*
X11378714Y-17395714D01*
X11464428Y-17381429D02*
X11493000Y-17395714D01*
X11550143Y-17395714D01*
X11578714Y-17381429D01*
X11593000Y-17352857D01*
X11593000Y-17338572D01*
X11578714Y-17310000D01*
X11550143Y-17295714D01*
X11507286Y-17295714D01*
X11478714Y-17281429D01*
X11464428Y-17252857D01*
X11464428Y-17238572D01*
X11478714Y-17210000D01*
X11507286Y-17195714D01*
X11550143Y-17195714D01*
X11578714Y-17210000D01*
X11693000Y-17510000D02*
X11707286Y-17495714D01*
X11735857Y-17452857D01*
X11750143Y-17424286D01*
X11764428Y-17381429D01*
X11778714Y-17310000D01*
X11778714Y-17252857D01*
X11764428Y-17181429D01*
X11750143Y-17138572D01*
X11735857Y-17110000D01*
X11707286Y-17067143D01*
X11693000Y-17052857D01*
M02*
