G04 #@! TF.GenerationSoftware,KiCad,Pcbnew,(5.0.2)-1*
G04 #@! TF.CreationDate,2019-02-16T22:04:27+09:00*
G04 #@! TF.ProjectId,pakbd,70616b62-642e-46b6-9963-61645f706362,1*
G04 #@! TF.SameCoordinates,Original*
G04 #@! TF.FileFunction,Paste,Bot*
G04 #@! TF.FilePolarity,Positive*
%FSLAX46Y46*%
G04 Gerber Fmt 4.6, Leading zero omitted, Abs format (unit mm)*
G04 Created by KiCad (PCBNEW (5.0.2)-1) date 2019/02/16 22:04:27*
%MOMM*%
%LPD*%
G01*
G04 APERTURE LIST*
%ADD10C,0.100000*%
%ADD11C,1.425000*%
%ADD12R,3.000000X2.500000*%
G04 APERTURE END LIST*
D10*
G04 #@! TO.C,D4*
G36*
X118154504Y-40861204D02*
X118178773Y-40864804D01*
X118202571Y-40870765D01*
X118225671Y-40879030D01*
X118247849Y-40889520D01*
X118268893Y-40902133D01*
X118288598Y-40916747D01*
X118306777Y-40933223D01*
X118323253Y-40951402D01*
X118337867Y-40971107D01*
X118350480Y-40992151D01*
X118360970Y-41014329D01*
X118369235Y-41037429D01*
X118375196Y-41061227D01*
X118378796Y-41085496D01*
X118380000Y-41110000D01*
X118380000Y-42035000D01*
X118378796Y-42059504D01*
X118375196Y-42083773D01*
X118369235Y-42107571D01*
X118360970Y-42130671D01*
X118350480Y-42152849D01*
X118337867Y-42173893D01*
X118323253Y-42193598D01*
X118306777Y-42211777D01*
X118288598Y-42228253D01*
X118268893Y-42242867D01*
X118247849Y-42255480D01*
X118225671Y-42265970D01*
X118202571Y-42274235D01*
X118178773Y-42280196D01*
X118154504Y-42283796D01*
X118130000Y-42285000D01*
X116880000Y-42285000D01*
X116855496Y-42283796D01*
X116831227Y-42280196D01*
X116807429Y-42274235D01*
X116784329Y-42265970D01*
X116762151Y-42255480D01*
X116741107Y-42242867D01*
X116721402Y-42228253D01*
X116703223Y-42211777D01*
X116686747Y-42193598D01*
X116672133Y-42173893D01*
X116659520Y-42152849D01*
X116649030Y-42130671D01*
X116640765Y-42107571D01*
X116634804Y-42083773D01*
X116631204Y-42059504D01*
X116630000Y-42035000D01*
X116630000Y-41110000D01*
X116631204Y-41085496D01*
X116634804Y-41061227D01*
X116640765Y-41037429D01*
X116649030Y-41014329D01*
X116659520Y-40992151D01*
X116672133Y-40971107D01*
X116686747Y-40951402D01*
X116703223Y-40933223D01*
X116721402Y-40916747D01*
X116741107Y-40902133D01*
X116762151Y-40889520D01*
X116784329Y-40879030D01*
X116807429Y-40870765D01*
X116831227Y-40864804D01*
X116855496Y-40861204D01*
X116880000Y-40860000D01*
X118130000Y-40860000D01*
X118154504Y-40861204D01*
X118154504Y-40861204D01*
G37*
D11*
X117505000Y-41572500D03*
D10*
G36*
X118154504Y-43836204D02*
X118178773Y-43839804D01*
X118202571Y-43845765D01*
X118225671Y-43854030D01*
X118247849Y-43864520D01*
X118268893Y-43877133D01*
X118288598Y-43891747D01*
X118306777Y-43908223D01*
X118323253Y-43926402D01*
X118337867Y-43946107D01*
X118350480Y-43967151D01*
X118360970Y-43989329D01*
X118369235Y-44012429D01*
X118375196Y-44036227D01*
X118378796Y-44060496D01*
X118380000Y-44085000D01*
X118380000Y-45010000D01*
X118378796Y-45034504D01*
X118375196Y-45058773D01*
X118369235Y-45082571D01*
X118360970Y-45105671D01*
X118350480Y-45127849D01*
X118337867Y-45148893D01*
X118323253Y-45168598D01*
X118306777Y-45186777D01*
X118288598Y-45203253D01*
X118268893Y-45217867D01*
X118247849Y-45230480D01*
X118225671Y-45240970D01*
X118202571Y-45249235D01*
X118178773Y-45255196D01*
X118154504Y-45258796D01*
X118130000Y-45260000D01*
X116880000Y-45260000D01*
X116855496Y-45258796D01*
X116831227Y-45255196D01*
X116807429Y-45249235D01*
X116784329Y-45240970D01*
X116762151Y-45230480D01*
X116741107Y-45217867D01*
X116721402Y-45203253D01*
X116703223Y-45186777D01*
X116686747Y-45168598D01*
X116672133Y-45148893D01*
X116659520Y-45127849D01*
X116649030Y-45105671D01*
X116640765Y-45082571D01*
X116634804Y-45058773D01*
X116631204Y-45034504D01*
X116630000Y-45010000D01*
X116630000Y-44085000D01*
X116631204Y-44060496D01*
X116634804Y-44036227D01*
X116640765Y-44012429D01*
X116649030Y-43989329D01*
X116659520Y-43967151D01*
X116672133Y-43946107D01*
X116686747Y-43926402D01*
X116703223Y-43908223D01*
X116721402Y-43891747D01*
X116741107Y-43877133D01*
X116762151Y-43864520D01*
X116784329Y-43854030D01*
X116807429Y-43845765D01*
X116831227Y-43839804D01*
X116855496Y-43836204D01*
X116880000Y-43835000D01*
X118130000Y-43835000D01*
X118154504Y-43836204D01*
X118154504Y-43836204D01*
G37*
D11*
X117505000Y-44547500D03*
G04 #@! TD*
D10*
G04 #@! TO.C,D0*
G36*
X32429504Y-40861204D02*
X32453773Y-40864804D01*
X32477571Y-40870765D01*
X32500671Y-40879030D01*
X32522849Y-40889520D01*
X32543893Y-40902133D01*
X32563598Y-40916747D01*
X32581777Y-40933223D01*
X32598253Y-40951402D01*
X32612867Y-40971107D01*
X32625480Y-40992151D01*
X32635970Y-41014329D01*
X32644235Y-41037429D01*
X32650196Y-41061227D01*
X32653796Y-41085496D01*
X32655000Y-41110000D01*
X32655000Y-42035000D01*
X32653796Y-42059504D01*
X32650196Y-42083773D01*
X32644235Y-42107571D01*
X32635970Y-42130671D01*
X32625480Y-42152849D01*
X32612867Y-42173893D01*
X32598253Y-42193598D01*
X32581777Y-42211777D01*
X32563598Y-42228253D01*
X32543893Y-42242867D01*
X32522849Y-42255480D01*
X32500671Y-42265970D01*
X32477571Y-42274235D01*
X32453773Y-42280196D01*
X32429504Y-42283796D01*
X32405000Y-42285000D01*
X31155000Y-42285000D01*
X31130496Y-42283796D01*
X31106227Y-42280196D01*
X31082429Y-42274235D01*
X31059329Y-42265970D01*
X31037151Y-42255480D01*
X31016107Y-42242867D01*
X30996402Y-42228253D01*
X30978223Y-42211777D01*
X30961747Y-42193598D01*
X30947133Y-42173893D01*
X30934520Y-42152849D01*
X30924030Y-42130671D01*
X30915765Y-42107571D01*
X30909804Y-42083773D01*
X30906204Y-42059504D01*
X30905000Y-42035000D01*
X30905000Y-41110000D01*
X30906204Y-41085496D01*
X30909804Y-41061227D01*
X30915765Y-41037429D01*
X30924030Y-41014329D01*
X30934520Y-40992151D01*
X30947133Y-40971107D01*
X30961747Y-40951402D01*
X30978223Y-40933223D01*
X30996402Y-40916747D01*
X31016107Y-40902133D01*
X31037151Y-40889520D01*
X31059329Y-40879030D01*
X31082429Y-40870765D01*
X31106227Y-40864804D01*
X31130496Y-40861204D01*
X31155000Y-40860000D01*
X32405000Y-40860000D01*
X32429504Y-40861204D01*
X32429504Y-40861204D01*
G37*
D11*
X31780000Y-41572500D03*
D10*
G36*
X32429504Y-43836204D02*
X32453773Y-43839804D01*
X32477571Y-43845765D01*
X32500671Y-43854030D01*
X32522849Y-43864520D01*
X32543893Y-43877133D01*
X32563598Y-43891747D01*
X32581777Y-43908223D01*
X32598253Y-43926402D01*
X32612867Y-43946107D01*
X32625480Y-43967151D01*
X32635970Y-43989329D01*
X32644235Y-44012429D01*
X32650196Y-44036227D01*
X32653796Y-44060496D01*
X32655000Y-44085000D01*
X32655000Y-45010000D01*
X32653796Y-45034504D01*
X32650196Y-45058773D01*
X32644235Y-45082571D01*
X32635970Y-45105671D01*
X32625480Y-45127849D01*
X32612867Y-45148893D01*
X32598253Y-45168598D01*
X32581777Y-45186777D01*
X32563598Y-45203253D01*
X32543893Y-45217867D01*
X32522849Y-45230480D01*
X32500671Y-45240970D01*
X32477571Y-45249235D01*
X32453773Y-45255196D01*
X32429504Y-45258796D01*
X32405000Y-45260000D01*
X31155000Y-45260000D01*
X31130496Y-45258796D01*
X31106227Y-45255196D01*
X31082429Y-45249235D01*
X31059329Y-45240970D01*
X31037151Y-45230480D01*
X31016107Y-45217867D01*
X30996402Y-45203253D01*
X30978223Y-45186777D01*
X30961747Y-45168598D01*
X30947133Y-45148893D01*
X30934520Y-45127849D01*
X30924030Y-45105671D01*
X30915765Y-45082571D01*
X30909804Y-45058773D01*
X30906204Y-45034504D01*
X30905000Y-45010000D01*
X30905000Y-44085000D01*
X30906204Y-44060496D01*
X30909804Y-44036227D01*
X30915765Y-44012429D01*
X30924030Y-43989329D01*
X30934520Y-43967151D01*
X30947133Y-43946107D01*
X30961747Y-43926402D01*
X30978223Y-43908223D01*
X30996402Y-43891747D01*
X31016107Y-43877133D01*
X31037151Y-43864520D01*
X31059329Y-43854030D01*
X31082429Y-43845765D01*
X31106227Y-43839804D01*
X31130496Y-43836204D01*
X31155000Y-43835000D01*
X32405000Y-43835000D01*
X32429504Y-43836204D01*
X32429504Y-43836204D01*
G37*
D11*
X31780000Y-44547500D03*
G04 #@! TD*
D10*
G04 #@! TO.C,D3*
G36*
X99104504Y-43836204D02*
X99128773Y-43839804D01*
X99152571Y-43845765D01*
X99175671Y-43854030D01*
X99197849Y-43864520D01*
X99218893Y-43877133D01*
X99238598Y-43891747D01*
X99256777Y-43908223D01*
X99273253Y-43926402D01*
X99287867Y-43946107D01*
X99300480Y-43967151D01*
X99310970Y-43989329D01*
X99319235Y-44012429D01*
X99325196Y-44036227D01*
X99328796Y-44060496D01*
X99330000Y-44085000D01*
X99330000Y-45010000D01*
X99328796Y-45034504D01*
X99325196Y-45058773D01*
X99319235Y-45082571D01*
X99310970Y-45105671D01*
X99300480Y-45127849D01*
X99287867Y-45148893D01*
X99273253Y-45168598D01*
X99256777Y-45186777D01*
X99238598Y-45203253D01*
X99218893Y-45217867D01*
X99197849Y-45230480D01*
X99175671Y-45240970D01*
X99152571Y-45249235D01*
X99128773Y-45255196D01*
X99104504Y-45258796D01*
X99080000Y-45260000D01*
X97830000Y-45260000D01*
X97805496Y-45258796D01*
X97781227Y-45255196D01*
X97757429Y-45249235D01*
X97734329Y-45240970D01*
X97712151Y-45230480D01*
X97691107Y-45217867D01*
X97671402Y-45203253D01*
X97653223Y-45186777D01*
X97636747Y-45168598D01*
X97622133Y-45148893D01*
X97609520Y-45127849D01*
X97599030Y-45105671D01*
X97590765Y-45082571D01*
X97584804Y-45058773D01*
X97581204Y-45034504D01*
X97580000Y-45010000D01*
X97580000Y-44085000D01*
X97581204Y-44060496D01*
X97584804Y-44036227D01*
X97590765Y-44012429D01*
X97599030Y-43989329D01*
X97609520Y-43967151D01*
X97622133Y-43946107D01*
X97636747Y-43926402D01*
X97653223Y-43908223D01*
X97671402Y-43891747D01*
X97691107Y-43877133D01*
X97712151Y-43864520D01*
X97734329Y-43854030D01*
X97757429Y-43845765D01*
X97781227Y-43839804D01*
X97805496Y-43836204D01*
X97830000Y-43835000D01*
X99080000Y-43835000D01*
X99104504Y-43836204D01*
X99104504Y-43836204D01*
G37*
D11*
X98455000Y-44547500D03*
D10*
G36*
X99104504Y-40861204D02*
X99128773Y-40864804D01*
X99152571Y-40870765D01*
X99175671Y-40879030D01*
X99197849Y-40889520D01*
X99218893Y-40902133D01*
X99238598Y-40916747D01*
X99256777Y-40933223D01*
X99273253Y-40951402D01*
X99287867Y-40971107D01*
X99300480Y-40992151D01*
X99310970Y-41014329D01*
X99319235Y-41037429D01*
X99325196Y-41061227D01*
X99328796Y-41085496D01*
X99330000Y-41110000D01*
X99330000Y-42035000D01*
X99328796Y-42059504D01*
X99325196Y-42083773D01*
X99319235Y-42107571D01*
X99310970Y-42130671D01*
X99300480Y-42152849D01*
X99287867Y-42173893D01*
X99273253Y-42193598D01*
X99256777Y-42211777D01*
X99238598Y-42228253D01*
X99218893Y-42242867D01*
X99197849Y-42255480D01*
X99175671Y-42265970D01*
X99152571Y-42274235D01*
X99128773Y-42280196D01*
X99104504Y-42283796D01*
X99080000Y-42285000D01*
X97830000Y-42285000D01*
X97805496Y-42283796D01*
X97781227Y-42280196D01*
X97757429Y-42274235D01*
X97734329Y-42265970D01*
X97712151Y-42255480D01*
X97691107Y-42242867D01*
X97671402Y-42228253D01*
X97653223Y-42211777D01*
X97636747Y-42193598D01*
X97622133Y-42173893D01*
X97609520Y-42152849D01*
X97599030Y-42130671D01*
X97590765Y-42107571D01*
X97584804Y-42083773D01*
X97581204Y-42059504D01*
X97580000Y-42035000D01*
X97580000Y-41110000D01*
X97581204Y-41085496D01*
X97584804Y-41061227D01*
X97590765Y-41037429D01*
X97599030Y-41014329D01*
X97609520Y-40992151D01*
X97622133Y-40971107D01*
X97636747Y-40951402D01*
X97653223Y-40933223D01*
X97671402Y-40916747D01*
X97691107Y-40902133D01*
X97712151Y-40889520D01*
X97734329Y-40879030D01*
X97757429Y-40870765D01*
X97781227Y-40864804D01*
X97805496Y-40861204D01*
X97830000Y-40860000D01*
X99080000Y-40860000D01*
X99104504Y-40861204D01*
X99104504Y-40861204D01*
G37*
D11*
X98455000Y-41572500D03*
G04 #@! TD*
D10*
G04 #@! TO.C,D5*
G36*
X32429504Y-67603704D02*
X32453773Y-67607304D01*
X32477571Y-67613265D01*
X32500671Y-67621530D01*
X32522849Y-67632020D01*
X32543893Y-67644633D01*
X32563598Y-67659247D01*
X32581777Y-67675723D01*
X32598253Y-67693902D01*
X32612867Y-67713607D01*
X32625480Y-67734651D01*
X32635970Y-67756829D01*
X32644235Y-67779929D01*
X32650196Y-67803727D01*
X32653796Y-67827996D01*
X32655000Y-67852500D01*
X32655000Y-68777500D01*
X32653796Y-68802004D01*
X32650196Y-68826273D01*
X32644235Y-68850071D01*
X32635970Y-68873171D01*
X32625480Y-68895349D01*
X32612867Y-68916393D01*
X32598253Y-68936098D01*
X32581777Y-68954277D01*
X32563598Y-68970753D01*
X32543893Y-68985367D01*
X32522849Y-68997980D01*
X32500671Y-69008470D01*
X32477571Y-69016735D01*
X32453773Y-69022696D01*
X32429504Y-69026296D01*
X32405000Y-69027500D01*
X31155000Y-69027500D01*
X31130496Y-69026296D01*
X31106227Y-69022696D01*
X31082429Y-69016735D01*
X31059329Y-69008470D01*
X31037151Y-68997980D01*
X31016107Y-68985367D01*
X30996402Y-68970753D01*
X30978223Y-68954277D01*
X30961747Y-68936098D01*
X30947133Y-68916393D01*
X30934520Y-68895349D01*
X30924030Y-68873171D01*
X30915765Y-68850071D01*
X30909804Y-68826273D01*
X30906204Y-68802004D01*
X30905000Y-68777500D01*
X30905000Y-67852500D01*
X30906204Y-67827996D01*
X30909804Y-67803727D01*
X30915765Y-67779929D01*
X30924030Y-67756829D01*
X30934520Y-67734651D01*
X30947133Y-67713607D01*
X30961747Y-67693902D01*
X30978223Y-67675723D01*
X30996402Y-67659247D01*
X31016107Y-67644633D01*
X31037151Y-67632020D01*
X31059329Y-67621530D01*
X31082429Y-67613265D01*
X31106227Y-67607304D01*
X31130496Y-67603704D01*
X31155000Y-67602500D01*
X32405000Y-67602500D01*
X32429504Y-67603704D01*
X32429504Y-67603704D01*
G37*
D11*
X31780000Y-68315000D03*
D10*
G36*
X32429504Y-64628704D02*
X32453773Y-64632304D01*
X32477571Y-64638265D01*
X32500671Y-64646530D01*
X32522849Y-64657020D01*
X32543893Y-64669633D01*
X32563598Y-64684247D01*
X32581777Y-64700723D01*
X32598253Y-64718902D01*
X32612867Y-64738607D01*
X32625480Y-64759651D01*
X32635970Y-64781829D01*
X32644235Y-64804929D01*
X32650196Y-64828727D01*
X32653796Y-64852996D01*
X32655000Y-64877500D01*
X32655000Y-65802500D01*
X32653796Y-65827004D01*
X32650196Y-65851273D01*
X32644235Y-65875071D01*
X32635970Y-65898171D01*
X32625480Y-65920349D01*
X32612867Y-65941393D01*
X32598253Y-65961098D01*
X32581777Y-65979277D01*
X32563598Y-65995753D01*
X32543893Y-66010367D01*
X32522849Y-66022980D01*
X32500671Y-66033470D01*
X32477571Y-66041735D01*
X32453773Y-66047696D01*
X32429504Y-66051296D01*
X32405000Y-66052500D01*
X31155000Y-66052500D01*
X31130496Y-66051296D01*
X31106227Y-66047696D01*
X31082429Y-66041735D01*
X31059329Y-66033470D01*
X31037151Y-66022980D01*
X31016107Y-66010367D01*
X30996402Y-65995753D01*
X30978223Y-65979277D01*
X30961747Y-65961098D01*
X30947133Y-65941393D01*
X30934520Y-65920349D01*
X30924030Y-65898171D01*
X30915765Y-65875071D01*
X30909804Y-65851273D01*
X30906204Y-65827004D01*
X30905000Y-65802500D01*
X30905000Y-64877500D01*
X30906204Y-64852996D01*
X30909804Y-64828727D01*
X30915765Y-64804929D01*
X30924030Y-64781829D01*
X30934520Y-64759651D01*
X30947133Y-64738607D01*
X30961747Y-64718902D01*
X30978223Y-64700723D01*
X30996402Y-64684247D01*
X31016107Y-64669633D01*
X31037151Y-64657020D01*
X31059329Y-64646530D01*
X31082429Y-64638265D01*
X31106227Y-64632304D01*
X31130496Y-64628704D01*
X31155000Y-64627500D01*
X32405000Y-64627500D01*
X32429504Y-64628704D01*
X32429504Y-64628704D01*
G37*
D11*
X31780000Y-65340000D03*
G04 #@! TD*
D10*
G04 #@! TO.C,D6*
G36*
X51479504Y-67573704D02*
X51503773Y-67577304D01*
X51527571Y-67583265D01*
X51550671Y-67591530D01*
X51572849Y-67602020D01*
X51593893Y-67614633D01*
X51613598Y-67629247D01*
X51631777Y-67645723D01*
X51648253Y-67663902D01*
X51662867Y-67683607D01*
X51675480Y-67704651D01*
X51685970Y-67726829D01*
X51694235Y-67749929D01*
X51700196Y-67773727D01*
X51703796Y-67797996D01*
X51705000Y-67822500D01*
X51705000Y-68747500D01*
X51703796Y-68772004D01*
X51700196Y-68796273D01*
X51694235Y-68820071D01*
X51685970Y-68843171D01*
X51675480Y-68865349D01*
X51662867Y-68886393D01*
X51648253Y-68906098D01*
X51631777Y-68924277D01*
X51613598Y-68940753D01*
X51593893Y-68955367D01*
X51572849Y-68967980D01*
X51550671Y-68978470D01*
X51527571Y-68986735D01*
X51503773Y-68992696D01*
X51479504Y-68996296D01*
X51455000Y-68997500D01*
X50205000Y-68997500D01*
X50180496Y-68996296D01*
X50156227Y-68992696D01*
X50132429Y-68986735D01*
X50109329Y-68978470D01*
X50087151Y-68967980D01*
X50066107Y-68955367D01*
X50046402Y-68940753D01*
X50028223Y-68924277D01*
X50011747Y-68906098D01*
X49997133Y-68886393D01*
X49984520Y-68865349D01*
X49974030Y-68843171D01*
X49965765Y-68820071D01*
X49959804Y-68796273D01*
X49956204Y-68772004D01*
X49955000Y-68747500D01*
X49955000Y-67822500D01*
X49956204Y-67797996D01*
X49959804Y-67773727D01*
X49965765Y-67749929D01*
X49974030Y-67726829D01*
X49984520Y-67704651D01*
X49997133Y-67683607D01*
X50011747Y-67663902D01*
X50028223Y-67645723D01*
X50046402Y-67629247D01*
X50066107Y-67614633D01*
X50087151Y-67602020D01*
X50109329Y-67591530D01*
X50132429Y-67583265D01*
X50156227Y-67577304D01*
X50180496Y-67573704D01*
X50205000Y-67572500D01*
X51455000Y-67572500D01*
X51479504Y-67573704D01*
X51479504Y-67573704D01*
G37*
D11*
X50830000Y-68285000D03*
D10*
G36*
X51479504Y-64598704D02*
X51503773Y-64602304D01*
X51527571Y-64608265D01*
X51550671Y-64616530D01*
X51572849Y-64627020D01*
X51593893Y-64639633D01*
X51613598Y-64654247D01*
X51631777Y-64670723D01*
X51648253Y-64688902D01*
X51662867Y-64708607D01*
X51675480Y-64729651D01*
X51685970Y-64751829D01*
X51694235Y-64774929D01*
X51700196Y-64798727D01*
X51703796Y-64822996D01*
X51705000Y-64847500D01*
X51705000Y-65772500D01*
X51703796Y-65797004D01*
X51700196Y-65821273D01*
X51694235Y-65845071D01*
X51685970Y-65868171D01*
X51675480Y-65890349D01*
X51662867Y-65911393D01*
X51648253Y-65931098D01*
X51631777Y-65949277D01*
X51613598Y-65965753D01*
X51593893Y-65980367D01*
X51572849Y-65992980D01*
X51550671Y-66003470D01*
X51527571Y-66011735D01*
X51503773Y-66017696D01*
X51479504Y-66021296D01*
X51455000Y-66022500D01*
X50205000Y-66022500D01*
X50180496Y-66021296D01*
X50156227Y-66017696D01*
X50132429Y-66011735D01*
X50109329Y-66003470D01*
X50087151Y-65992980D01*
X50066107Y-65980367D01*
X50046402Y-65965753D01*
X50028223Y-65949277D01*
X50011747Y-65931098D01*
X49997133Y-65911393D01*
X49984520Y-65890349D01*
X49974030Y-65868171D01*
X49965765Y-65845071D01*
X49959804Y-65821273D01*
X49956204Y-65797004D01*
X49955000Y-65772500D01*
X49955000Y-64847500D01*
X49956204Y-64822996D01*
X49959804Y-64798727D01*
X49965765Y-64774929D01*
X49974030Y-64751829D01*
X49984520Y-64729651D01*
X49997133Y-64708607D01*
X50011747Y-64688902D01*
X50028223Y-64670723D01*
X50046402Y-64654247D01*
X50066107Y-64639633D01*
X50087151Y-64627020D01*
X50109329Y-64616530D01*
X50132429Y-64608265D01*
X50156227Y-64602304D01*
X50180496Y-64598704D01*
X50205000Y-64597500D01*
X51455000Y-64597500D01*
X51479504Y-64598704D01*
X51479504Y-64598704D01*
G37*
D11*
X50830000Y-65310000D03*
G04 #@! TD*
D10*
G04 #@! TO.C,D7*
G36*
X70529504Y-67603704D02*
X70553773Y-67607304D01*
X70577571Y-67613265D01*
X70600671Y-67621530D01*
X70622849Y-67632020D01*
X70643893Y-67644633D01*
X70663598Y-67659247D01*
X70681777Y-67675723D01*
X70698253Y-67693902D01*
X70712867Y-67713607D01*
X70725480Y-67734651D01*
X70735970Y-67756829D01*
X70744235Y-67779929D01*
X70750196Y-67803727D01*
X70753796Y-67827996D01*
X70755000Y-67852500D01*
X70755000Y-68777500D01*
X70753796Y-68802004D01*
X70750196Y-68826273D01*
X70744235Y-68850071D01*
X70735970Y-68873171D01*
X70725480Y-68895349D01*
X70712867Y-68916393D01*
X70698253Y-68936098D01*
X70681777Y-68954277D01*
X70663598Y-68970753D01*
X70643893Y-68985367D01*
X70622849Y-68997980D01*
X70600671Y-69008470D01*
X70577571Y-69016735D01*
X70553773Y-69022696D01*
X70529504Y-69026296D01*
X70505000Y-69027500D01*
X69255000Y-69027500D01*
X69230496Y-69026296D01*
X69206227Y-69022696D01*
X69182429Y-69016735D01*
X69159329Y-69008470D01*
X69137151Y-68997980D01*
X69116107Y-68985367D01*
X69096402Y-68970753D01*
X69078223Y-68954277D01*
X69061747Y-68936098D01*
X69047133Y-68916393D01*
X69034520Y-68895349D01*
X69024030Y-68873171D01*
X69015765Y-68850071D01*
X69009804Y-68826273D01*
X69006204Y-68802004D01*
X69005000Y-68777500D01*
X69005000Y-67852500D01*
X69006204Y-67827996D01*
X69009804Y-67803727D01*
X69015765Y-67779929D01*
X69024030Y-67756829D01*
X69034520Y-67734651D01*
X69047133Y-67713607D01*
X69061747Y-67693902D01*
X69078223Y-67675723D01*
X69096402Y-67659247D01*
X69116107Y-67644633D01*
X69137151Y-67632020D01*
X69159329Y-67621530D01*
X69182429Y-67613265D01*
X69206227Y-67607304D01*
X69230496Y-67603704D01*
X69255000Y-67602500D01*
X70505000Y-67602500D01*
X70529504Y-67603704D01*
X70529504Y-67603704D01*
G37*
D11*
X69880000Y-68315000D03*
D10*
G36*
X70529504Y-64628704D02*
X70553773Y-64632304D01*
X70577571Y-64638265D01*
X70600671Y-64646530D01*
X70622849Y-64657020D01*
X70643893Y-64669633D01*
X70663598Y-64684247D01*
X70681777Y-64700723D01*
X70698253Y-64718902D01*
X70712867Y-64738607D01*
X70725480Y-64759651D01*
X70735970Y-64781829D01*
X70744235Y-64804929D01*
X70750196Y-64828727D01*
X70753796Y-64852996D01*
X70755000Y-64877500D01*
X70755000Y-65802500D01*
X70753796Y-65827004D01*
X70750196Y-65851273D01*
X70744235Y-65875071D01*
X70735970Y-65898171D01*
X70725480Y-65920349D01*
X70712867Y-65941393D01*
X70698253Y-65961098D01*
X70681777Y-65979277D01*
X70663598Y-65995753D01*
X70643893Y-66010367D01*
X70622849Y-66022980D01*
X70600671Y-66033470D01*
X70577571Y-66041735D01*
X70553773Y-66047696D01*
X70529504Y-66051296D01*
X70505000Y-66052500D01*
X69255000Y-66052500D01*
X69230496Y-66051296D01*
X69206227Y-66047696D01*
X69182429Y-66041735D01*
X69159329Y-66033470D01*
X69137151Y-66022980D01*
X69116107Y-66010367D01*
X69096402Y-65995753D01*
X69078223Y-65979277D01*
X69061747Y-65961098D01*
X69047133Y-65941393D01*
X69034520Y-65920349D01*
X69024030Y-65898171D01*
X69015765Y-65875071D01*
X69009804Y-65851273D01*
X69006204Y-65827004D01*
X69005000Y-65802500D01*
X69005000Y-64877500D01*
X69006204Y-64852996D01*
X69009804Y-64828727D01*
X69015765Y-64804929D01*
X69024030Y-64781829D01*
X69034520Y-64759651D01*
X69047133Y-64738607D01*
X69061747Y-64718902D01*
X69078223Y-64700723D01*
X69096402Y-64684247D01*
X69116107Y-64669633D01*
X69137151Y-64657020D01*
X69159329Y-64646530D01*
X69182429Y-64638265D01*
X69206227Y-64632304D01*
X69230496Y-64628704D01*
X69255000Y-64627500D01*
X70505000Y-64627500D01*
X70529504Y-64628704D01*
X70529504Y-64628704D01*
G37*
D11*
X69880000Y-65340000D03*
G04 #@! TD*
D10*
G04 #@! TO.C,D1*
G36*
X61004504Y-40861204D02*
X61028773Y-40864804D01*
X61052571Y-40870765D01*
X61075671Y-40879030D01*
X61097849Y-40889520D01*
X61118893Y-40902133D01*
X61138598Y-40916747D01*
X61156777Y-40933223D01*
X61173253Y-40951402D01*
X61187867Y-40971107D01*
X61200480Y-40992151D01*
X61210970Y-41014329D01*
X61219235Y-41037429D01*
X61225196Y-41061227D01*
X61228796Y-41085496D01*
X61230000Y-41110000D01*
X61230000Y-42035000D01*
X61228796Y-42059504D01*
X61225196Y-42083773D01*
X61219235Y-42107571D01*
X61210970Y-42130671D01*
X61200480Y-42152849D01*
X61187867Y-42173893D01*
X61173253Y-42193598D01*
X61156777Y-42211777D01*
X61138598Y-42228253D01*
X61118893Y-42242867D01*
X61097849Y-42255480D01*
X61075671Y-42265970D01*
X61052571Y-42274235D01*
X61028773Y-42280196D01*
X61004504Y-42283796D01*
X60980000Y-42285000D01*
X59730000Y-42285000D01*
X59705496Y-42283796D01*
X59681227Y-42280196D01*
X59657429Y-42274235D01*
X59634329Y-42265970D01*
X59612151Y-42255480D01*
X59591107Y-42242867D01*
X59571402Y-42228253D01*
X59553223Y-42211777D01*
X59536747Y-42193598D01*
X59522133Y-42173893D01*
X59509520Y-42152849D01*
X59499030Y-42130671D01*
X59490765Y-42107571D01*
X59484804Y-42083773D01*
X59481204Y-42059504D01*
X59480000Y-42035000D01*
X59480000Y-41110000D01*
X59481204Y-41085496D01*
X59484804Y-41061227D01*
X59490765Y-41037429D01*
X59499030Y-41014329D01*
X59509520Y-40992151D01*
X59522133Y-40971107D01*
X59536747Y-40951402D01*
X59553223Y-40933223D01*
X59571402Y-40916747D01*
X59591107Y-40902133D01*
X59612151Y-40889520D01*
X59634329Y-40879030D01*
X59657429Y-40870765D01*
X59681227Y-40864804D01*
X59705496Y-40861204D01*
X59730000Y-40860000D01*
X60980000Y-40860000D01*
X61004504Y-40861204D01*
X61004504Y-40861204D01*
G37*
D11*
X60355000Y-41572500D03*
D10*
G36*
X61004504Y-43836204D02*
X61028773Y-43839804D01*
X61052571Y-43845765D01*
X61075671Y-43854030D01*
X61097849Y-43864520D01*
X61118893Y-43877133D01*
X61138598Y-43891747D01*
X61156777Y-43908223D01*
X61173253Y-43926402D01*
X61187867Y-43946107D01*
X61200480Y-43967151D01*
X61210970Y-43989329D01*
X61219235Y-44012429D01*
X61225196Y-44036227D01*
X61228796Y-44060496D01*
X61230000Y-44085000D01*
X61230000Y-45010000D01*
X61228796Y-45034504D01*
X61225196Y-45058773D01*
X61219235Y-45082571D01*
X61210970Y-45105671D01*
X61200480Y-45127849D01*
X61187867Y-45148893D01*
X61173253Y-45168598D01*
X61156777Y-45186777D01*
X61138598Y-45203253D01*
X61118893Y-45217867D01*
X61097849Y-45230480D01*
X61075671Y-45240970D01*
X61052571Y-45249235D01*
X61028773Y-45255196D01*
X61004504Y-45258796D01*
X60980000Y-45260000D01*
X59730000Y-45260000D01*
X59705496Y-45258796D01*
X59681227Y-45255196D01*
X59657429Y-45249235D01*
X59634329Y-45240970D01*
X59612151Y-45230480D01*
X59591107Y-45217867D01*
X59571402Y-45203253D01*
X59553223Y-45186777D01*
X59536747Y-45168598D01*
X59522133Y-45148893D01*
X59509520Y-45127849D01*
X59499030Y-45105671D01*
X59490765Y-45082571D01*
X59484804Y-45058773D01*
X59481204Y-45034504D01*
X59480000Y-45010000D01*
X59480000Y-44085000D01*
X59481204Y-44060496D01*
X59484804Y-44036227D01*
X59490765Y-44012429D01*
X59499030Y-43989329D01*
X59509520Y-43967151D01*
X59522133Y-43946107D01*
X59536747Y-43926402D01*
X59553223Y-43908223D01*
X59571402Y-43891747D01*
X59591107Y-43877133D01*
X59612151Y-43864520D01*
X59634329Y-43854030D01*
X59657429Y-43845765D01*
X59681227Y-43839804D01*
X59705496Y-43836204D01*
X59730000Y-43835000D01*
X60980000Y-43835000D01*
X61004504Y-43836204D01*
X61004504Y-43836204D01*
G37*
D11*
X60355000Y-44547500D03*
G04 #@! TD*
D10*
G04 #@! TO.C,D28*
G36*
X151492004Y-124733704D02*
X151516273Y-124737304D01*
X151540071Y-124743265D01*
X151563171Y-124751530D01*
X151585349Y-124762020D01*
X151606393Y-124774633D01*
X151626098Y-124789247D01*
X151644277Y-124805723D01*
X151660753Y-124823902D01*
X151675367Y-124843607D01*
X151687980Y-124864651D01*
X151698470Y-124886829D01*
X151706735Y-124909929D01*
X151712696Y-124933727D01*
X151716296Y-124957996D01*
X151717500Y-124982500D01*
X151717500Y-125907500D01*
X151716296Y-125932004D01*
X151712696Y-125956273D01*
X151706735Y-125980071D01*
X151698470Y-126003171D01*
X151687980Y-126025349D01*
X151675367Y-126046393D01*
X151660753Y-126066098D01*
X151644277Y-126084277D01*
X151626098Y-126100753D01*
X151606393Y-126115367D01*
X151585349Y-126127980D01*
X151563171Y-126138470D01*
X151540071Y-126146735D01*
X151516273Y-126152696D01*
X151492004Y-126156296D01*
X151467500Y-126157500D01*
X150217500Y-126157500D01*
X150192996Y-126156296D01*
X150168727Y-126152696D01*
X150144929Y-126146735D01*
X150121829Y-126138470D01*
X150099651Y-126127980D01*
X150078607Y-126115367D01*
X150058902Y-126100753D01*
X150040723Y-126084277D01*
X150024247Y-126066098D01*
X150009633Y-126046393D01*
X149997020Y-126025349D01*
X149986530Y-126003171D01*
X149978265Y-125980071D01*
X149972304Y-125956273D01*
X149968704Y-125932004D01*
X149967500Y-125907500D01*
X149967500Y-124982500D01*
X149968704Y-124957996D01*
X149972304Y-124933727D01*
X149978265Y-124909929D01*
X149986530Y-124886829D01*
X149997020Y-124864651D01*
X150009633Y-124843607D01*
X150024247Y-124823902D01*
X150040723Y-124805723D01*
X150058902Y-124789247D01*
X150078607Y-124774633D01*
X150099651Y-124762020D01*
X150121829Y-124751530D01*
X150144929Y-124743265D01*
X150168727Y-124737304D01*
X150192996Y-124733704D01*
X150217500Y-124732500D01*
X151467500Y-124732500D01*
X151492004Y-124733704D01*
X151492004Y-124733704D01*
G37*
D11*
X150842500Y-125445000D03*
D10*
G36*
X151492004Y-121758704D02*
X151516273Y-121762304D01*
X151540071Y-121768265D01*
X151563171Y-121776530D01*
X151585349Y-121787020D01*
X151606393Y-121799633D01*
X151626098Y-121814247D01*
X151644277Y-121830723D01*
X151660753Y-121848902D01*
X151675367Y-121868607D01*
X151687980Y-121889651D01*
X151698470Y-121911829D01*
X151706735Y-121934929D01*
X151712696Y-121958727D01*
X151716296Y-121982996D01*
X151717500Y-122007500D01*
X151717500Y-122932500D01*
X151716296Y-122957004D01*
X151712696Y-122981273D01*
X151706735Y-123005071D01*
X151698470Y-123028171D01*
X151687980Y-123050349D01*
X151675367Y-123071393D01*
X151660753Y-123091098D01*
X151644277Y-123109277D01*
X151626098Y-123125753D01*
X151606393Y-123140367D01*
X151585349Y-123152980D01*
X151563171Y-123163470D01*
X151540071Y-123171735D01*
X151516273Y-123177696D01*
X151492004Y-123181296D01*
X151467500Y-123182500D01*
X150217500Y-123182500D01*
X150192996Y-123181296D01*
X150168727Y-123177696D01*
X150144929Y-123171735D01*
X150121829Y-123163470D01*
X150099651Y-123152980D01*
X150078607Y-123140367D01*
X150058902Y-123125753D01*
X150040723Y-123109277D01*
X150024247Y-123091098D01*
X150009633Y-123071393D01*
X149997020Y-123050349D01*
X149986530Y-123028171D01*
X149978265Y-123005071D01*
X149972304Y-122981273D01*
X149968704Y-122957004D01*
X149967500Y-122932500D01*
X149967500Y-122007500D01*
X149968704Y-121982996D01*
X149972304Y-121958727D01*
X149978265Y-121934929D01*
X149986530Y-121911829D01*
X149997020Y-121889651D01*
X150009633Y-121868607D01*
X150024247Y-121848902D01*
X150040723Y-121830723D01*
X150058902Y-121814247D01*
X150078607Y-121799633D01*
X150099651Y-121787020D01*
X150121829Y-121776530D01*
X150144929Y-121768265D01*
X150168727Y-121762304D01*
X150192996Y-121758704D01*
X150217500Y-121757500D01*
X151467500Y-121757500D01*
X151492004Y-121758704D01*
X151492004Y-121758704D01*
G37*
D11*
X150842500Y-122470000D03*
G04 #@! TD*
D10*
G04 #@! TO.C,D2*
G36*
X80054504Y-40861204D02*
X80078773Y-40864804D01*
X80102571Y-40870765D01*
X80125671Y-40879030D01*
X80147849Y-40889520D01*
X80168893Y-40902133D01*
X80188598Y-40916747D01*
X80206777Y-40933223D01*
X80223253Y-40951402D01*
X80237867Y-40971107D01*
X80250480Y-40992151D01*
X80260970Y-41014329D01*
X80269235Y-41037429D01*
X80275196Y-41061227D01*
X80278796Y-41085496D01*
X80280000Y-41110000D01*
X80280000Y-42035000D01*
X80278796Y-42059504D01*
X80275196Y-42083773D01*
X80269235Y-42107571D01*
X80260970Y-42130671D01*
X80250480Y-42152849D01*
X80237867Y-42173893D01*
X80223253Y-42193598D01*
X80206777Y-42211777D01*
X80188598Y-42228253D01*
X80168893Y-42242867D01*
X80147849Y-42255480D01*
X80125671Y-42265970D01*
X80102571Y-42274235D01*
X80078773Y-42280196D01*
X80054504Y-42283796D01*
X80030000Y-42285000D01*
X78780000Y-42285000D01*
X78755496Y-42283796D01*
X78731227Y-42280196D01*
X78707429Y-42274235D01*
X78684329Y-42265970D01*
X78662151Y-42255480D01*
X78641107Y-42242867D01*
X78621402Y-42228253D01*
X78603223Y-42211777D01*
X78586747Y-42193598D01*
X78572133Y-42173893D01*
X78559520Y-42152849D01*
X78549030Y-42130671D01*
X78540765Y-42107571D01*
X78534804Y-42083773D01*
X78531204Y-42059504D01*
X78530000Y-42035000D01*
X78530000Y-41110000D01*
X78531204Y-41085496D01*
X78534804Y-41061227D01*
X78540765Y-41037429D01*
X78549030Y-41014329D01*
X78559520Y-40992151D01*
X78572133Y-40971107D01*
X78586747Y-40951402D01*
X78603223Y-40933223D01*
X78621402Y-40916747D01*
X78641107Y-40902133D01*
X78662151Y-40889520D01*
X78684329Y-40879030D01*
X78707429Y-40870765D01*
X78731227Y-40864804D01*
X78755496Y-40861204D01*
X78780000Y-40860000D01*
X80030000Y-40860000D01*
X80054504Y-40861204D01*
X80054504Y-40861204D01*
G37*
D11*
X79405000Y-41572500D03*
D10*
G36*
X80054504Y-43836204D02*
X80078773Y-43839804D01*
X80102571Y-43845765D01*
X80125671Y-43854030D01*
X80147849Y-43864520D01*
X80168893Y-43877133D01*
X80188598Y-43891747D01*
X80206777Y-43908223D01*
X80223253Y-43926402D01*
X80237867Y-43946107D01*
X80250480Y-43967151D01*
X80260970Y-43989329D01*
X80269235Y-44012429D01*
X80275196Y-44036227D01*
X80278796Y-44060496D01*
X80280000Y-44085000D01*
X80280000Y-45010000D01*
X80278796Y-45034504D01*
X80275196Y-45058773D01*
X80269235Y-45082571D01*
X80260970Y-45105671D01*
X80250480Y-45127849D01*
X80237867Y-45148893D01*
X80223253Y-45168598D01*
X80206777Y-45186777D01*
X80188598Y-45203253D01*
X80168893Y-45217867D01*
X80147849Y-45230480D01*
X80125671Y-45240970D01*
X80102571Y-45249235D01*
X80078773Y-45255196D01*
X80054504Y-45258796D01*
X80030000Y-45260000D01*
X78780000Y-45260000D01*
X78755496Y-45258796D01*
X78731227Y-45255196D01*
X78707429Y-45249235D01*
X78684329Y-45240970D01*
X78662151Y-45230480D01*
X78641107Y-45217867D01*
X78621402Y-45203253D01*
X78603223Y-45186777D01*
X78586747Y-45168598D01*
X78572133Y-45148893D01*
X78559520Y-45127849D01*
X78549030Y-45105671D01*
X78540765Y-45082571D01*
X78534804Y-45058773D01*
X78531204Y-45034504D01*
X78530000Y-45010000D01*
X78530000Y-44085000D01*
X78531204Y-44060496D01*
X78534804Y-44036227D01*
X78540765Y-44012429D01*
X78549030Y-43989329D01*
X78559520Y-43967151D01*
X78572133Y-43946107D01*
X78586747Y-43926402D01*
X78603223Y-43908223D01*
X78621402Y-43891747D01*
X78641107Y-43877133D01*
X78662151Y-43864520D01*
X78684329Y-43854030D01*
X78707429Y-43845765D01*
X78731227Y-43839804D01*
X78755496Y-43836204D01*
X78780000Y-43835000D01*
X80030000Y-43835000D01*
X80054504Y-43836204D01*
X80054504Y-43836204D01*
G37*
D11*
X79405000Y-44547500D03*
G04 #@! TD*
D12*
G04 #@! TO.C,SW18*
X79087500Y-95310000D03*
X65117500Y-97850000D03*
G04 #@! TD*
D10*
G04 #@! TO.C,D25*
G36*
X94342004Y-121758704D02*
X94366273Y-121762304D01*
X94390071Y-121768265D01*
X94413171Y-121776530D01*
X94435349Y-121787020D01*
X94456393Y-121799633D01*
X94476098Y-121814247D01*
X94494277Y-121830723D01*
X94510753Y-121848902D01*
X94525367Y-121868607D01*
X94537980Y-121889651D01*
X94548470Y-121911829D01*
X94556735Y-121934929D01*
X94562696Y-121958727D01*
X94566296Y-121982996D01*
X94567500Y-122007500D01*
X94567500Y-122932500D01*
X94566296Y-122957004D01*
X94562696Y-122981273D01*
X94556735Y-123005071D01*
X94548470Y-123028171D01*
X94537980Y-123050349D01*
X94525367Y-123071393D01*
X94510753Y-123091098D01*
X94494277Y-123109277D01*
X94476098Y-123125753D01*
X94456393Y-123140367D01*
X94435349Y-123152980D01*
X94413171Y-123163470D01*
X94390071Y-123171735D01*
X94366273Y-123177696D01*
X94342004Y-123181296D01*
X94317500Y-123182500D01*
X93067500Y-123182500D01*
X93042996Y-123181296D01*
X93018727Y-123177696D01*
X92994929Y-123171735D01*
X92971829Y-123163470D01*
X92949651Y-123152980D01*
X92928607Y-123140367D01*
X92908902Y-123125753D01*
X92890723Y-123109277D01*
X92874247Y-123091098D01*
X92859633Y-123071393D01*
X92847020Y-123050349D01*
X92836530Y-123028171D01*
X92828265Y-123005071D01*
X92822304Y-122981273D01*
X92818704Y-122957004D01*
X92817500Y-122932500D01*
X92817500Y-122007500D01*
X92818704Y-121982996D01*
X92822304Y-121958727D01*
X92828265Y-121934929D01*
X92836530Y-121911829D01*
X92847020Y-121889651D01*
X92859633Y-121868607D01*
X92874247Y-121848902D01*
X92890723Y-121830723D01*
X92908902Y-121814247D01*
X92928607Y-121799633D01*
X92949651Y-121787020D01*
X92971829Y-121776530D01*
X92994929Y-121768265D01*
X93018727Y-121762304D01*
X93042996Y-121758704D01*
X93067500Y-121757500D01*
X94317500Y-121757500D01*
X94342004Y-121758704D01*
X94342004Y-121758704D01*
G37*
D11*
X93692500Y-122470000D03*
D10*
G36*
X94342004Y-124733704D02*
X94366273Y-124737304D01*
X94390071Y-124743265D01*
X94413171Y-124751530D01*
X94435349Y-124762020D01*
X94456393Y-124774633D01*
X94476098Y-124789247D01*
X94494277Y-124805723D01*
X94510753Y-124823902D01*
X94525367Y-124843607D01*
X94537980Y-124864651D01*
X94548470Y-124886829D01*
X94556735Y-124909929D01*
X94562696Y-124933727D01*
X94566296Y-124957996D01*
X94567500Y-124982500D01*
X94567500Y-125907500D01*
X94566296Y-125932004D01*
X94562696Y-125956273D01*
X94556735Y-125980071D01*
X94548470Y-126003171D01*
X94537980Y-126025349D01*
X94525367Y-126046393D01*
X94510753Y-126066098D01*
X94494277Y-126084277D01*
X94476098Y-126100753D01*
X94456393Y-126115367D01*
X94435349Y-126127980D01*
X94413171Y-126138470D01*
X94390071Y-126146735D01*
X94366273Y-126152696D01*
X94342004Y-126156296D01*
X94317500Y-126157500D01*
X93067500Y-126157500D01*
X93042996Y-126156296D01*
X93018727Y-126152696D01*
X92994929Y-126146735D01*
X92971829Y-126138470D01*
X92949651Y-126127980D01*
X92928607Y-126115367D01*
X92908902Y-126100753D01*
X92890723Y-126084277D01*
X92874247Y-126066098D01*
X92859633Y-126046393D01*
X92847020Y-126025349D01*
X92836530Y-126003171D01*
X92828265Y-125980071D01*
X92822304Y-125956273D01*
X92818704Y-125932004D01*
X92817500Y-125907500D01*
X92817500Y-124982500D01*
X92818704Y-124957996D01*
X92822304Y-124933727D01*
X92828265Y-124909929D01*
X92836530Y-124886829D01*
X92847020Y-124864651D01*
X92859633Y-124843607D01*
X92874247Y-124823902D01*
X92890723Y-124805723D01*
X92908902Y-124789247D01*
X92928607Y-124774633D01*
X92949651Y-124762020D01*
X92971829Y-124751530D01*
X92994929Y-124743265D01*
X93018727Y-124737304D01*
X93042996Y-124733704D01*
X93067500Y-124732500D01*
X94317500Y-124732500D01*
X94342004Y-124733704D01*
X94342004Y-124733704D01*
G37*
D11*
X93692500Y-125445000D03*
G04 #@! TD*
D10*
G04 #@! TO.C,D29*
G36*
X82435504Y-140858704D02*
X82459773Y-140862304D01*
X82483571Y-140868265D01*
X82506671Y-140876530D01*
X82528849Y-140887020D01*
X82549893Y-140899633D01*
X82569598Y-140914247D01*
X82587777Y-140930723D01*
X82604253Y-140948902D01*
X82618867Y-140968607D01*
X82631480Y-140989651D01*
X82641970Y-141011829D01*
X82650235Y-141034929D01*
X82656196Y-141058727D01*
X82659796Y-141082996D01*
X82661000Y-141107500D01*
X82661000Y-142032500D01*
X82659796Y-142057004D01*
X82656196Y-142081273D01*
X82650235Y-142105071D01*
X82641970Y-142128171D01*
X82631480Y-142150349D01*
X82618867Y-142171393D01*
X82604253Y-142191098D01*
X82587777Y-142209277D01*
X82569598Y-142225753D01*
X82549893Y-142240367D01*
X82528849Y-142252980D01*
X82506671Y-142263470D01*
X82483571Y-142271735D01*
X82459773Y-142277696D01*
X82435504Y-142281296D01*
X82411000Y-142282500D01*
X81161000Y-142282500D01*
X81136496Y-142281296D01*
X81112227Y-142277696D01*
X81088429Y-142271735D01*
X81065329Y-142263470D01*
X81043151Y-142252980D01*
X81022107Y-142240367D01*
X81002402Y-142225753D01*
X80984223Y-142209277D01*
X80967747Y-142191098D01*
X80953133Y-142171393D01*
X80940520Y-142150349D01*
X80930030Y-142128171D01*
X80921765Y-142105071D01*
X80915804Y-142081273D01*
X80912204Y-142057004D01*
X80911000Y-142032500D01*
X80911000Y-141107500D01*
X80912204Y-141082996D01*
X80915804Y-141058727D01*
X80921765Y-141034929D01*
X80930030Y-141011829D01*
X80940520Y-140989651D01*
X80953133Y-140968607D01*
X80967747Y-140948902D01*
X80984223Y-140930723D01*
X81002402Y-140914247D01*
X81022107Y-140899633D01*
X81043151Y-140887020D01*
X81065329Y-140876530D01*
X81088429Y-140868265D01*
X81112227Y-140862304D01*
X81136496Y-140858704D01*
X81161000Y-140857500D01*
X82411000Y-140857500D01*
X82435504Y-140858704D01*
X82435504Y-140858704D01*
G37*
D11*
X81786000Y-141570000D03*
D10*
G36*
X82435504Y-143833704D02*
X82459773Y-143837304D01*
X82483571Y-143843265D01*
X82506671Y-143851530D01*
X82528849Y-143862020D01*
X82549893Y-143874633D01*
X82569598Y-143889247D01*
X82587777Y-143905723D01*
X82604253Y-143923902D01*
X82618867Y-143943607D01*
X82631480Y-143964651D01*
X82641970Y-143986829D01*
X82650235Y-144009929D01*
X82656196Y-144033727D01*
X82659796Y-144057996D01*
X82661000Y-144082500D01*
X82661000Y-145007500D01*
X82659796Y-145032004D01*
X82656196Y-145056273D01*
X82650235Y-145080071D01*
X82641970Y-145103171D01*
X82631480Y-145125349D01*
X82618867Y-145146393D01*
X82604253Y-145166098D01*
X82587777Y-145184277D01*
X82569598Y-145200753D01*
X82549893Y-145215367D01*
X82528849Y-145227980D01*
X82506671Y-145238470D01*
X82483571Y-145246735D01*
X82459773Y-145252696D01*
X82435504Y-145256296D01*
X82411000Y-145257500D01*
X81161000Y-145257500D01*
X81136496Y-145256296D01*
X81112227Y-145252696D01*
X81088429Y-145246735D01*
X81065329Y-145238470D01*
X81043151Y-145227980D01*
X81022107Y-145215367D01*
X81002402Y-145200753D01*
X80984223Y-145184277D01*
X80967747Y-145166098D01*
X80953133Y-145146393D01*
X80940520Y-145125349D01*
X80930030Y-145103171D01*
X80921765Y-145080071D01*
X80915804Y-145056273D01*
X80912204Y-145032004D01*
X80911000Y-145007500D01*
X80911000Y-144082500D01*
X80912204Y-144057996D01*
X80915804Y-144033727D01*
X80921765Y-144009929D01*
X80930030Y-143986829D01*
X80940520Y-143964651D01*
X80953133Y-143943607D01*
X80967747Y-143923902D01*
X80984223Y-143905723D01*
X81002402Y-143889247D01*
X81022107Y-143874633D01*
X81043151Y-143862020D01*
X81065329Y-143851530D01*
X81088429Y-143843265D01*
X81112227Y-143837304D01*
X81136496Y-143833704D01*
X81161000Y-143832500D01*
X82411000Y-143832500D01*
X82435504Y-143833704D01*
X82435504Y-143833704D01*
G37*
D11*
X81786000Y-144545000D03*
G04 #@! TD*
D10*
G04 #@! TO.C,R_xdata0*
G36*
X35314504Y-108836204D02*
X35338773Y-108839804D01*
X35362571Y-108845765D01*
X35385671Y-108854030D01*
X35407849Y-108864520D01*
X35428893Y-108877133D01*
X35448598Y-108891747D01*
X35466777Y-108908223D01*
X35483253Y-108926402D01*
X35497867Y-108946107D01*
X35510480Y-108967151D01*
X35520970Y-108989329D01*
X35529235Y-109012429D01*
X35535196Y-109036227D01*
X35538796Y-109060496D01*
X35540000Y-109085000D01*
X35540000Y-110335000D01*
X35538796Y-110359504D01*
X35535196Y-110383773D01*
X35529235Y-110407571D01*
X35520970Y-110430671D01*
X35510480Y-110452849D01*
X35497867Y-110473893D01*
X35483253Y-110493598D01*
X35466777Y-110511777D01*
X35448598Y-110528253D01*
X35428893Y-110542867D01*
X35407849Y-110555480D01*
X35385671Y-110565970D01*
X35362571Y-110574235D01*
X35338773Y-110580196D01*
X35314504Y-110583796D01*
X35290000Y-110585000D01*
X34365000Y-110585000D01*
X34340496Y-110583796D01*
X34316227Y-110580196D01*
X34292429Y-110574235D01*
X34269329Y-110565970D01*
X34247151Y-110555480D01*
X34226107Y-110542867D01*
X34206402Y-110528253D01*
X34188223Y-110511777D01*
X34171747Y-110493598D01*
X34157133Y-110473893D01*
X34144520Y-110452849D01*
X34134030Y-110430671D01*
X34125765Y-110407571D01*
X34119804Y-110383773D01*
X34116204Y-110359504D01*
X34115000Y-110335000D01*
X34115000Y-109085000D01*
X34116204Y-109060496D01*
X34119804Y-109036227D01*
X34125765Y-109012429D01*
X34134030Y-108989329D01*
X34144520Y-108967151D01*
X34157133Y-108946107D01*
X34171747Y-108926402D01*
X34188223Y-108908223D01*
X34206402Y-108891747D01*
X34226107Y-108877133D01*
X34247151Y-108864520D01*
X34269329Y-108854030D01*
X34292429Y-108845765D01*
X34316227Y-108839804D01*
X34340496Y-108836204D01*
X34365000Y-108835000D01*
X35290000Y-108835000D01*
X35314504Y-108836204D01*
X35314504Y-108836204D01*
G37*
D11*
X34827500Y-109710000D03*
D10*
G36*
X32339504Y-108836204D02*
X32363773Y-108839804D01*
X32387571Y-108845765D01*
X32410671Y-108854030D01*
X32432849Y-108864520D01*
X32453893Y-108877133D01*
X32473598Y-108891747D01*
X32491777Y-108908223D01*
X32508253Y-108926402D01*
X32522867Y-108946107D01*
X32535480Y-108967151D01*
X32545970Y-108989329D01*
X32554235Y-109012429D01*
X32560196Y-109036227D01*
X32563796Y-109060496D01*
X32565000Y-109085000D01*
X32565000Y-110335000D01*
X32563796Y-110359504D01*
X32560196Y-110383773D01*
X32554235Y-110407571D01*
X32545970Y-110430671D01*
X32535480Y-110452849D01*
X32522867Y-110473893D01*
X32508253Y-110493598D01*
X32491777Y-110511777D01*
X32473598Y-110528253D01*
X32453893Y-110542867D01*
X32432849Y-110555480D01*
X32410671Y-110565970D01*
X32387571Y-110574235D01*
X32363773Y-110580196D01*
X32339504Y-110583796D01*
X32315000Y-110585000D01*
X31390000Y-110585000D01*
X31365496Y-110583796D01*
X31341227Y-110580196D01*
X31317429Y-110574235D01*
X31294329Y-110565970D01*
X31272151Y-110555480D01*
X31251107Y-110542867D01*
X31231402Y-110528253D01*
X31213223Y-110511777D01*
X31196747Y-110493598D01*
X31182133Y-110473893D01*
X31169520Y-110452849D01*
X31159030Y-110430671D01*
X31150765Y-110407571D01*
X31144804Y-110383773D01*
X31141204Y-110359504D01*
X31140000Y-110335000D01*
X31140000Y-109085000D01*
X31141204Y-109060496D01*
X31144804Y-109036227D01*
X31150765Y-109012429D01*
X31159030Y-108989329D01*
X31169520Y-108967151D01*
X31182133Y-108946107D01*
X31196747Y-108926402D01*
X31213223Y-108908223D01*
X31231402Y-108891747D01*
X31251107Y-108877133D01*
X31272151Y-108864520D01*
X31294329Y-108854030D01*
X31317429Y-108845765D01*
X31341227Y-108839804D01*
X31365496Y-108836204D01*
X31390000Y-108835000D01*
X32315000Y-108835000D01*
X32339504Y-108836204D01*
X32339504Y-108836204D01*
G37*
D11*
X31852500Y-109710000D03*
G04 #@! TD*
D10*
G04 #@! TO.C,D18*
G36*
X65767004Y-102748704D02*
X65791273Y-102752304D01*
X65815071Y-102758265D01*
X65838171Y-102766530D01*
X65860349Y-102777020D01*
X65881393Y-102789633D01*
X65901098Y-102804247D01*
X65919277Y-102820723D01*
X65935753Y-102838902D01*
X65950367Y-102858607D01*
X65962980Y-102879651D01*
X65973470Y-102901829D01*
X65981735Y-102924929D01*
X65987696Y-102948727D01*
X65991296Y-102972996D01*
X65992500Y-102997500D01*
X65992500Y-103922500D01*
X65991296Y-103947004D01*
X65987696Y-103971273D01*
X65981735Y-103995071D01*
X65973470Y-104018171D01*
X65962980Y-104040349D01*
X65950367Y-104061393D01*
X65935753Y-104081098D01*
X65919277Y-104099277D01*
X65901098Y-104115753D01*
X65881393Y-104130367D01*
X65860349Y-104142980D01*
X65838171Y-104153470D01*
X65815071Y-104161735D01*
X65791273Y-104167696D01*
X65767004Y-104171296D01*
X65742500Y-104172500D01*
X64492500Y-104172500D01*
X64467996Y-104171296D01*
X64443727Y-104167696D01*
X64419929Y-104161735D01*
X64396829Y-104153470D01*
X64374651Y-104142980D01*
X64353607Y-104130367D01*
X64333902Y-104115753D01*
X64315723Y-104099277D01*
X64299247Y-104081098D01*
X64284633Y-104061393D01*
X64272020Y-104040349D01*
X64261530Y-104018171D01*
X64253265Y-103995071D01*
X64247304Y-103971273D01*
X64243704Y-103947004D01*
X64242500Y-103922500D01*
X64242500Y-102997500D01*
X64243704Y-102972996D01*
X64247304Y-102948727D01*
X64253265Y-102924929D01*
X64261530Y-102901829D01*
X64272020Y-102879651D01*
X64284633Y-102858607D01*
X64299247Y-102838902D01*
X64315723Y-102820723D01*
X64333902Y-102804247D01*
X64353607Y-102789633D01*
X64374651Y-102777020D01*
X64396829Y-102766530D01*
X64419929Y-102758265D01*
X64443727Y-102752304D01*
X64467996Y-102748704D01*
X64492500Y-102747500D01*
X65742500Y-102747500D01*
X65767004Y-102748704D01*
X65767004Y-102748704D01*
G37*
D11*
X65117500Y-103460000D03*
D10*
G36*
X65767004Y-105723704D02*
X65791273Y-105727304D01*
X65815071Y-105733265D01*
X65838171Y-105741530D01*
X65860349Y-105752020D01*
X65881393Y-105764633D01*
X65901098Y-105779247D01*
X65919277Y-105795723D01*
X65935753Y-105813902D01*
X65950367Y-105833607D01*
X65962980Y-105854651D01*
X65973470Y-105876829D01*
X65981735Y-105899929D01*
X65987696Y-105923727D01*
X65991296Y-105947996D01*
X65992500Y-105972500D01*
X65992500Y-106897500D01*
X65991296Y-106922004D01*
X65987696Y-106946273D01*
X65981735Y-106970071D01*
X65973470Y-106993171D01*
X65962980Y-107015349D01*
X65950367Y-107036393D01*
X65935753Y-107056098D01*
X65919277Y-107074277D01*
X65901098Y-107090753D01*
X65881393Y-107105367D01*
X65860349Y-107117980D01*
X65838171Y-107128470D01*
X65815071Y-107136735D01*
X65791273Y-107142696D01*
X65767004Y-107146296D01*
X65742500Y-107147500D01*
X64492500Y-107147500D01*
X64467996Y-107146296D01*
X64443727Y-107142696D01*
X64419929Y-107136735D01*
X64396829Y-107128470D01*
X64374651Y-107117980D01*
X64353607Y-107105367D01*
X64333902Y-107090753D01*
X64315723Y-107074277D01*
X64299247Y-107056098D01*
X64284633Y-107036393D01*
X64272020Y-107015349D01*
X64261530Y-106993171D01*
X64253265Y-106970071D01*
X64247304Y-106946273D01*
X64243704Y-106922004D01*
X64242500Y-106897500D01*
X64242500Y-105972500D01*
X64243704Y-105947996D01*
X64247304Y-105923727D01*
X64253265Y-105899929D01*
X64261530Y-105876829D01*
X64272020Y-105854651D01*
X64284633Y-105833607D01*
X64299247Y-105813902D01*
X64315723Y-105795723D01*
X64333902Y-105779247D01*
X64353607Y-105764633D01*
X64374651Y-105752020D01*
X64396829Y-105741530D01*
X64419929Y-105733265D01*
X64443727Y-105727304D01*
X64467996Y-105723704D01*
X64492500Y-105722500D01*
X65742500Y-105722500D01*
X65767004Y-105723704D01*
X65767004Y-105723704D01*
G37*
D11*
X65117500Y-106435000D03*
G04 #@! TD*
D10*
G04 #@! TO.C,D30*
G36*
X106248004Y-143833704D02*
X106272273Y-143837304D01*
X106296071Y-143843265D01*
X106319171Y-143851530D01*
X106341349Y-143862020D01*
X106362393Y-143874633D01*
X106382098Y-143889247D01*
X106400277Y-143905723D01*
X106416753Y-143923902D01*
X106431367Y-143943607D01*
X106443980Y-143964651D01*
X106454470Y-143986829D01*
X106462735Y-144009929D01*
X106468696Y-144033727D01*
X106472296Y-144057996D01*
X106473500Y-144082500D01*
X106473500Y-145007500D01*
X106472296Y-145032004D01*
X106468696Y-145056273D01*
X106462735Y-145080071D01*
X106454470Y-145103171D01*
X106443980Y-145125349D01*
X106431367Y-145146393D01*
X106416753Y-145166098D01*
X106400277Y-145184277D01*
X106382098Y-145200753D01*
X106362393Y-145215367D01*
X106341349Y-145227980D01*
X106319171Y-145238470D01*
X106296071Y-145246735D01*
X106272273Y-145252696D01*
X106248004Y-145256296D01*
X106223500Y-145257500D01*
X104973500Y-145257500D01*
X104948996Y-145256296D01*
X104924727Y-145252696D01*
X104900929Y-145246735D01*
X104877829Y-145238470D01*
X104855651Y-145227980D01*
X104834607Y-145215367D01*
X104814902Y-145200753D01*
X104796723Y-145184277D01*
X104780247Y-145166098D01*
X104765633Y-145146393D01*
X104753020Y-145125349D01*
X104742530Y-145103171D01*
X104734265Y-145080071D01*
X104728304Y-145056273D01*
X104724704Y-145032004D01*
X104723500Y-145007500D01*
X104723500Y-144082500D01*
X104724704Y-144057996D01*
X104728304Y-144033727D01*
X104734265Y-144009929D01*
X104742530Y-143986829D01*
X104753020Y-143964651D01*
X104765633Y-143943607D01*
X104780247Y-143923902D01*
X104796723Y-143905723D01*
X104814902Y-143889247D01*
X104834607Y-143874633D01*
X104855651Y-143862020D01*
X104877829Y-143851530D01*
X104900929Y-143843265D01*
X104924727Y-143837304D01*
X104948996Y-143833704D01*
X104973500Y-143832500D01*
X106223500Y-143832500D01*
X106248004Y-143833704D01*
X106248004Y-143833704D01*
G37*
D11*
X105598500Y-144545000D03*
D10*
G36*
X106248004Y-140858704D02*
X106272273Y-140862304D01*
X106296071Y-140868265D01*
X106319171Y-140876530D01*
X106341349Y-140887020D01*
X106362393Y-140899633D01*
X106382098Y-140914247D01*
X106400277Y-140930723D01*
X106416753Y-140948902D01*
X106431367Y-140968607D01*
X106443980Y-140989651D01*
X106454470Y-141011829D01*
X106462735Y-141034929D01*
X106468696Y-141058727D01*
X106472296Y-141082996D01*
X106473500Y-141107500D01*
X106473500Y-142032500D01*
X106472296Y-142057004D01*
X106468696Y-142081273D01*
X106462735Y-142105071D01*
X106454470Y-142128171D01*
X106443980Y-142150349D01*
X106431367Y-142171393D01*
X106416753Y-142191098D01*
X106400277Y-142209277D01*
X106382098Y-142225753D01*
X106362393Y-142240367D01*
X106341349Y-142252980D01*
X106319171Y-142263470D01*
X106296071Y-142271735D01*
X106272273Y-142277696D01*
X106248004Y-142281296D01*
X106223500Y-142282500D01*
X104973500Y-142282500D01*
X104948996Y-142281296D01*
X104924727Y-142277696D01*
X104900929Y-142271735D01*
X104877829Y-142263470D01*
X104855651Y-142252980D01*
X104834607Y-142240367D01*
X104814902Y-142225753D01*
X104796723Y-142209277D01*
X104780247Y-142191098D01*
X104765633Y-142171393D01*
X104753020Y-142150349D01*
X104742530Y-142128171D01*
X104734265Y-142105071D01*
X104728304Y-142081273D01*
X104724704Y-142057004D01*
X104723500Y-142032500D01*
X104723500Y-141107500D01*
X104724704Y-141082996D01*
X104728304Y-141058727D01*
X104734265Y-141034929D01*
X104742530Y-141011829D01*
X104753020Y-140989651D01*
X104765633Y-140968607D01*
X104780247Y-140948902D01*
X104796723Y-140930723D01*
X104814902Y-140914247D01*
X104834607Y-140899633D01*
X104855651Y-140887020D01*
X104877829Y-140876530D01*
X104900929Y-140868265D01*
X104924727Y-140862304D01*
X104948996Y-140858704D01*
X104973500Y-140857500D01*
X106223500Y-140857500D01*
X106248004Y-140858704D01*
X106248004Y-140858704D01*
G37*
D11*
X105598500Y-141570000D03*
G04 #@! TD*
D10*
G04 #@! TO.C,D8*
G36*
X89579504Y-64628704D02*
X89603773Y-64632304D01*
X89627571Y-64638265D01*
X89650671Y-64646530D01*
X89672849Y-64657020D01*
X89693893Y-64669633D01*
X89713598Y-64684247D01*
X89731777Y-64700723D01*
X89748253Y-64718902D01*
X89762867Y-64738607D01*
X89775480Y-64759651D01*
X89785970Y-64781829D01*
X89794235Y-64804929D01*
X89800196Y-64828727D01*
X89803796Y-64852996D01*
X89805000Y-64877500D01*
X89805000Y-65802500D01*
X89803796Y-65827004D01*
X89800196Y-65851273D01*
X89794235Y-65875071D01*
X89785970Y-65898171D01*
X89775480Y-65920349D01*
X89762867Y-65941393D01*
X89748253Y-65961098D01*
X89731777Y-65979277D01*
X89713598Y-65995753D01*
X89693893Y-66010367D01*
X89672849Y-66022980D01*
X89650671Y-66033470D01*
X89627571Y-66041735D01*
X89603773Y-66047696D01*
X89579504Y-66051296D01*
X89555000Y-66052500D01*
X88305000Y-66052500D01*
X88280496Y-66051296D01*
X88256227Y-66047696D01*
X88232429Y-66041735D01*
X88209329Y-66033470D01*
X88187151Y-66022980D01*
X88166107Y-66010367D01*
X88146402Y-65995753D01*
X88128223Y-65979277D01*
X88111747Y-65961098D01*
X88097133Y-65941393D01*
X88084520Y-65920349D01*
X88074030Y-65898171D01*
X88065765Y-65875071D01*
X88059804Y-65851273D01*
X88056204Y-65827004D01*
X88055000Y-65802500D01*
X88055000Y-64877500D01*
X88056204Y-64852996D01*
X88059804Y-64828727D01*
X88065765Y-64804929D01*
X88074030Y-64781829D01*
X88084520Y-64759651D01*
X88097133Y-64738607D01*
X88111747Y-64718902D01*
X88128223Y-64700723D01*
X88146402Y-64684247D01*
X88166107Y-64669633D01*
X88187151Y-64657020D01*
X88209329Y-64646530D01*
X88232429Y-64638265D01*
X88256227Y-64632304D01*
X88280496Y-64628704D01*
X88305000Y-64627500D01*
X89555000Y-64627500D01*
X89579504Y-64628704D01*
X89579504Y-64628704D01*
G37*
D11*
X88930000Y-65340000D03*
D10*
G36*
X89579504Y-67603704D02*
X89603773Y-67607304D01*
X89627571Y-67613265D01*
X89650671Y-67621530D01*
X89672849Y-67632020D01*
X89693893Y-67644633D01*
X89713598Y-67659247D01*
X89731777Y-67675723D01*
X89748253Y-67693902D01*
X89762867Y-67713607D01*
X89775480Y-67734651D01*
X89785970Y-67756829D01*
X89794235Y-67779929D01*
X89800196Y-67803727D01*
X89803796Y-67827996D01*
X89805000Y-67852500D01*
X89805000Y-68777500D01*
X89803796Y-68802004D01*
X89800196Y-68826273D01*
X89794235Y-68850071D01*
X89785970Y-68873171D01*
X89775480Y-68895349D01*
X89762867Y-68916393D01*
X89748253Y-68936098D01*
X89731777Y-68954277D01*
X89713598Y-68970753D01*
X89693893Y-68985367D01*
X89672849Y-68997980D01*
X89650671Y-69008470D01*
X89627571Y-69016735D01*
X89603773Y-69022696D01*
X89579504Y-69026296D01*
X89555000Y-69027500D01*
X88305000Y-69027500D01*
X88280496Y-69026296D01*
X88256227Y-69022696D01*
X88232429Y-69016735D01*
X88209329Y-69008470D01*
X88187151Y-68997980D01*
X88166107Y-68985367D01*
X88146402Y-68970753D01*
X88128223Y-68954277D01*
X88111747Y-68936098D01*
X88097133Y-68916393D01*
X88084520Y-68895349D01*
X88074030Y-68873171D01*
X88065765Y-68850071D01*
X88059804Y-68826273D01*
X88056204Y-68802004D01*
X88055000Y-68777500D01*
X88055000Y-67852500D01*
X88056204Y-67827996D01*
X88059804Y-67803727D01*
X88065765Y-67779929D01*
X88074030Y-67756829D01*
X88084520Y-67734651D01*
X88097133Y-67713607D01*
X88111747Y-67693902D01*
X88128223Y-67675723D01*
X88146402Y-67659247D01*
X88166107Y-67644633D01*
X88187151Y-67632020D01*
X88209329Y-67621530D01*
X88232429Y-67613265D01*
X88256227Y-67607304D01*
X88280496Y-67603704D01*
X88305000Y-67602500D01*
X89555000Y-67602500D01*
X89579504Y-67603704D01*
X89579504Y-67603704D01*
G37*
D11*
X88930000Y-68315000D03*
G04 #@! TD*
D12*
G04 #@! TO.C,SW0*
X31780000Y-35937500D03*
X45750000Y-33397500D03*
G04 #@! TD*
D10*
G04 #@! TO.C,D9*
G36*
X108629504Y-64628704D02*
X108653773Y-64632304D01*
X108677571Y-64638265D01*
X108700671Y-64646530D01*
X108722849Y-64657020D01*
X108743893Y-64669633D01*
X108763598Y-64684247D01*
X108781777Y-64700723D01*
X108798253Y-64718902D01*
X108812867Y-64738607D01*
X108825480Y-64759651D01*
X108835970Y-64781829D01*
X108844235Y-64804929D01*
X108850196Y-64828727D01*
X108853796Y-64852996D01*
X108855000Y-64877500D01*
X108855000Y-65802500D01*
X108853796Y-65827004D01*
X108850196Y-65851273D01*
X108844235Y-65875071D01*
X108835970Y-65898171D01*
X108825480Y-65920349D01*
X108812867Y-65941393D01*
X108798253Y-65961098D01*
X108781777Y-65979277D01*
X108763598Y-65995753D01*
X108743893Y-66010367D01*
X108722849Y-66022980D01*
X108700671Y-66033470D01*
X108677571Y-66041735D01*
X108653773Y-66047696D01*
X108629504Y-66051296D01*
X108605000Y-66052500D01*
X107355000Y-66052500D01*
X107330496Y-66051296D01*
X107306227Y-66047696D01*
X107282429Y-66041735D01*
X107259329Y-66033470D01*
X107237151Y-66022980D01*
X107216107Y-66010367D01*
X107196402Y-65995753D01*
X107178223Y-65979277D01*
X107161747Y-65961098D01*
X107147133Y-65941393D01*
X107134520Y-65920349D01*
X107124030Y-65898171D01*
X107115765Y-65875071D01*
X107109804Y-65851273D01*
X107106204Y-65827004D01*
X107105000Y-65802500D01*
X107105000Y-64877500D01*
X107106204Y-64852996D01*
X107109804Y-64828727D01*
X107115765Y-64804929D01*
X107124030Y-64781829D01*
X107134520Y-64759651D01*
X107147133Y-64738607D01*
X107161747Y-64718902D01*
X107178223Y-64700723D01*
X107196402Y-64684247D01*
X107216107Y-64669633D01*
X107237151Y-64657020D01*
X107259329Y-64646530D01*
X107282429Y-64638265D01*
X107306227Y-64632304D01*
X107330496Y-64628704D01*
X107355000Y-64627500D01*
X108605000Y-64627500D01*
X108629504Y-64628704D01*
X108629504Y-64628704D01*
G37*
D11*
X107980000Y-65340000D03*
D10*
G36*
X108629504Y-67603704D02*
X108653773Y-67607304D01*
X108677571Y-67613265D01*
X108700671Y-67621530D01*
X108722849Y-67632020D01*
X108743893Y-67644633D01*
X108763598Y-67659247D01*
X108781777Y-67675723D01*
X108798253Y-67693902D01*
X108812867Y-67713607D01*
X108825480Y-67734651D01*
X108835970Y-67756829D01*
X108844235Y-67779929D01*
X108850196Y-67803727D01*
X108853796Y-67827996D01*
X108855000Y-67852500D01*
X108855000Y-68777500D01*
X108853796Y-68802004D01*
X108850196Y-68826273D01*
X108844235Y-68850071D01*
X108835970Y-68873171D01*
X108825480Y-68895349D01*
X108812867Y-68916393D01*
X108798253Y-68936098D01*
X108781777Y-68954277D01*
X108763598Y-68970753D01*
X108743893Y-68985367D01*
X108722849Y-68997980D01*
X108700671Y-69008470D01*
X108677571Y-69016735D01*
X108653773Y-69022696D01*
X108629504Y-69026296D01*
X108605000Y-69027500D01*
X107355000Y-69027500D01*
X107330496Y-69026296D01*
X107306227Y-69022696D01*
X107282429Y-69016735D01*
X107259329Y-69008470D01*
X107237151Y-68997980D01*
X107216107Y-68985367D01*
X107196402Y-68970753D01*
X107178223Y-68954277D01*
X107161747Y-68936098D01*
X107147133Y-68916393D01*
X107134520Y-68895349D01*
X107124030Y-68873171D01*
X107115765Y-68850071D01*
X107109804Y-68826273D01*
X107106204Y-68802004D01*
X107105000Y-68777500D01*
X107105000Y-67852500D01*
X107106204Y-67827996D01*
X107109804Y-67803727D01*
X107115765Y-67779929D01*
X107124030Y-67756829D01*
X107134520Y-67734651D01*
X107147133Y-67713607D01*
X107161747Y-67693902D01*
X107178223Y-67675723D01*
X107196402Y-67659247D01*
X107216107Y-67644633D01*
X107237151Y-67632020D01*
X107259329Y-67621530D01*
X107282429Y-67613265D01*
X107306227Y-67607304D01*
X107330496Y-67603704D01*
X107355000Y-67602500D01*
X108605000Y-67602500D01*
X108629504Y-67603704D01*
X108629504Y-67603704D01*
G37*
D11*
X107980000Y-68315000D03*
G04 #@! TD*
D10*
G04 #@! TO.C,D26*
G36*
X113392004Y-121758704D02*
X113416273Y-121762304D01*
X113440071Y-121768265D01*
X113463171Y-121776530D01*
X113485349Y-121787020D01*
X113506393Y-121799633D01*
X113526098Y-121814247D01*
X113544277Y-121830723D01*
X113560753Y-121848902D01*
X113575367Y-121868607D01*
X113587980Y-121889651D01*
X113598470Y-121911829D01*
X113606735Y-121934929D01*
X113612696Y-121958727D01*
X113616296Y-121982996D01*
X113617500Y-122007500D01*
X113617500Y-122932500D01*
X113616296Y-122957004D01*
X113612696Y-122981273D01*
X113606735Y-123005071D01*
X113598470Y-123028171D01*
X113587980Y-123050349D01*
X113575367Y-123071393D01*
X113560753Y-123091098D01*
X113544277Y-123109277D01*
X113526098Y-123125753D01*
X113506393Y-123140367D01*
X113485349Y-123152980D01*
X113463171Y-123163470D01*
X113440071Y-123171735D01*
X113416273Y-123177696D01*
X113392004Y-123181296D01*
X113367500Y-123182500D01*
X112117500Y-123182500D01*
X112092996Y-123181296D01*
X112068727Y-123177696D01*
X112044929Y-123171735D01*
X112021829Y-123163470D01*
X111999651Y-123152980D01*
X111978607Y-123140367D01*
X111958902Y-123125753D01*
X111940723Y-123109277D01*
X111924247Y-123091098D01*
X111909633Y-123071393D01*
X111897020Y-123050349D01*
X111886530Y-123028171D01*
X111878265Y-123005071D01*
X111872304Y-122981273D01*
X111868704Y-122957004D01*
X111867500Y-122932500D01*
X111867500Y-122007500D01*
X111868704Y-121982996D01*
X111872304Y-121958727D01*
X111878265Y-121934929D01*
X111886530Y-121911829D01*
X111897020Y-121889651D01*
X111909633Y-121868607D01*
X111924247Y-121848902D01*
X111940723Y-121830723D01*
X111958902Y-121814247D01*
X111978607Y-121799633D01*
X111999651Y-121787020D01*
X112021829Y-121776530D01*
X112044929Y-121768265D01*
X112068727Y-121762304D01*
X112092996Y-121758704D01*
X112117500Y-121757500D01*
X113367500Y-121757500D01*
X113392004Y-121758704D01*
X113392004Y-121758704D01*
G37*
D11*
X112742500Y-122470000D03*
D10*
G36*
X113392004Y-124733704D02*
X113416273Y-124737304D01*
X113440071Y-124743265D01*
X113463171Y-124751530D01*
X113485349Y-124762020D01*
X113506393Y-124774633D01*
X113526098Y-124789247D01*
X113544277Y-124805723D01*
X113560753Y-124823902D01*
X113575367Y-124843607D01*
X113587980Y-124864651D01*
X113598470Y-124886829D01*
X113606735Y-124909929D01*
X113612696Y-124933727D01*
X113616296Y-124957996D01*
X113617500Y-124982500D01*
X113617500Y-125907500D01*
X113616296Y-125932004D01*
X113612696Y-125956273D01*
X113606735Y-125980071D01*
X113598470Y-126003171D01*
X113587980Y-126025349D01*
X113575367Y-126046393D01*
X113560753Y-126066098D01*
X113544277Y-126084277D01*
X113526098Y-126100753D01*
X113506393Y-126115367D01*
X113485349Y-126127980D01*
X113463171Y-126138470D01*
X113440071Y-126146735D01*
X113416273Y-126152696D01*
X113392004Y-126156296D01*
X113367500Y-126157500D01*
X112117500Y-126157500D01*
X112092996Y-126156296D01*
X112068727Y-126152696D01*
X112044929Y-126146735D01*
X112021829Y-126138470D01*
X111999651Y-126127980D01*
X111978607Y-126115367D01*
X111958902Y-126100753D01*
X111940723Y-126084277D01*
X111924247Y-126066098D01*
X111909633Y-126046393D01*
X111897020Y-126025349D01*
X111886530Y-126003171D01*
X111878265Y-125980071D01*
X111872304Y-125956273D01*
X111868704Y-125932004D01*
X111867500Y-125907500D01*
X111867500Y-124982500D01*
X111868704Y-124957996D01*
X111872304Y-124933727D01*
X111878265Y-124909929D01*
X111886530Y-124886829D01*
X111897020Y-124864651D01*
X111909633Y-124843607D01*
X111924247Y-124823902D01*
X111940723Y-124805723D01*
X111958902Y-124789247D01*
X111978607Y-124774633D01*
X111999651Y-124762020D01*
X112021829Y-124751530D01*
X112044929Y-124743265D01*
X112068727Y-124737304D01*
X112092996Y-124733704D01*
X112117500Y-124732500D01*
X113367500Y-124732500D01*
X113392004Y-124733704D01*
X113392004Y-124733704D01*
G37*
D11*
X112742500Y-125445000D03*
G04 #@! TD*
D10*
G04 #@! TO.C,R_data0*
G36*
X32309504Y-113496204D02*
X32333773Y-113499804D01*
X32357571Y-113505765D01*
X32380671Y-113514030D01*
X32402849Y-113524520D01*
X32423893Y-113537133D01*
X32443598Y-113551747D01*
X32461777Y-113568223D01*
X32478253Y-113586402D01*
X32492867Y-113606107D01*
X32505480Y-113627151D01*
X32515970Y-113649329D01*
X32524235Y-113672429D01*
X32530196Y-113696227D01*
X32533796Y-113720496D01*
X32535000Y-113745000D01*
X32535000Y-114995000D01*
X32533796Y-115019504D01*
X32530196Y-115043773D01*
X32524235Y-115067571D01*
X32515970Y-115090671D01*
X32505480Y-115112849D01*
X32492867Y-115133893D01*
X32478253Y-115153598D01*
X32461777Y-115171777D01*
X32443598Y-115188253D01*
X32423893Y-115202867D01*
X32402849Y-115215480D01*
X32380671Y-115225970D01*
X32357571Y-115234235D01*
X32333773Y-115240196D01*
X32309504Y-115243796D01*
X32285000Y-115245000D01*
X31360000Y-115245000D01*
X31335496Y-115243796D01*
X31311227Y-115240196D01*
X31287429Y-115234235D01*
X31264329Y-115225970D01*
X31242151Y-115215480D01*
X31221107Y-115202867D01*
X31201402Y-115188253D01*
X31183223Y-115171777D01*
X31166747Y-115153598D01*
X31152133Y-115133893D01*
X31139520Y-115112849D01*
X31129030Y-115090671D01*
X31120765Y-115067571D01*
X31114804Y-115043773D01*
X31111204Y-115019504D01*
X31110000Y-114995000D01*
X31110000Y-113745000D01*
X31111204Y-113720496D01*
X31114804Y-113696227D01*
X31120765Y-113672429D01*
X31129030Y-113649329D01*
X31139520Y-113627151D01*
X31152133Y-113606107D01*
X31166747Y-113586402D01*
X31183223Y-113568223D01*
X31201402Y-113551747D01*
X31221107Y-113537133D01*
X31242151Y-113524520D01*
X31264329Y-113514030D01*
X31287429Y-113505765D01*
X31311227Y-113499804D01*
X31335496Y-113496204D01*
X31360000Y-113495000D01*
X32285000Y-113495000D01*
X32309504Y-113496204D01*
X32309504Y-113496204D01*
G37*
D11*
X31822500Y-114370000D03*
D10*
G36*
X35284504Y-113496204D02*
X35308773Y-113499804D01*
X35332571Y-113505765D01*
X35355671Y-113514030D01*
X35377849Y-113524520D01*
X35398893Y-113537133D01*
X35418598Y-113551747D01*
X35436777Y-113568223D01*
X35453253Y-113586402D01*
X35467867Y-113606107D01*
X35480480Y-113627151D01*
X35490970Y-113649329D01*
X35499235Y-113672429D01*
X35505196Y-113696227D01*
X35508796Y-113720496D01*
X35510000Y-113745000D01*
X35510000Y-114995000D01*
X35508796Y-115019504D01*
X35505196Y-115043773D01*
X35499235Y-115067571D01*
X35490970Y-115090671D01*
X35480480Y-115112849D01*
X35467867Y-115133893D01*
X35453253Y-115153598D01*
X35436777Y-115171777D01*
X35418598Y-115188253D01*
X35398893Y-115202867D01*
X35377849Y-115215480D01*
X35355671Y-115225970D01*
X35332571Y-115234235D01*
X35308773Y-115240196D01*
X35284504Y-115243796D01*
X35260000Y-115245000D01*
X34335000Y-115245000D01*
X34310496Y-115243796D01*
X34286227Y-115240196D01*
X34262429Y-115234235D01*
X34239329Y-115225970D01*
X34217151Y-115215480D01*
X34196107Y-115202867D01*
X34176402Y-115188253D01*
X34158223Y-115171777D01*
X34141747Y-115153598D01*
X34127133Y-115133893D01*
X34114520Y-115112849D01*
X34104030Y-115090671D01*
X34095765Y-115067571D01*
X34089804Y-115043773D01*
X34086204Y-115019504D01*
X34085000Y-114995000D01*
X34085000Y-113745000D01*
X34086204Y-113720496D01*
X34089804Y-113696227D01*
X34095765Y-113672429D01*
X34104030Y-113649329D01*
X34114520Y-113627151D01*
X34127133Y-113606107D01*
X34141747Y-113586402D01*
X34158223Y-113568223D01*
X34176402Y-113551747D01*
X34196107Y-113537133D01*
X34217151Y-113524520D01*
X34239329Y-113514030D01*
X34262429Y-113505765D01*
X34286227Y-113499804D01*
X34310496Y-113496204D01*
X34335000Y-113495000D01*
X35260000Y-113495000D01*
X35284504Y-113496204D01*
X35284504Y-113496204D01*
G37*
D11*
X34797500Y-114370000D03*
G04 #@! TD*
D12*
G04 #@! TO.C,SW2*
X79405000Y-35937500D03*
X93375000Y-33397500D03*
G04 #@! TD*
G04 #@! TO.C,SW3*
X98455000Y-35937500D03*
X112425000Y-33397500D03*
G04 #@! TD*
D10*
G04 #@! TO.C,D13*
G36*
X80054504Y-83628704D02*
X80078773Y-83632304D01*
X80102571Y-83638265D01*
X80125671Y-83646530D01*
X80147849Y-83657020D01*
X80168893Y-83669633D01*
X80188598Y-83684247D01*
X80206777Y-83700723D01*
X80223253Y-83718902D01*
X80237867Y-83738607D01*
X80250480Y-83759651D01*
X80260970Y-83781829D01*
X80269235Y-83804929D01*
X80275196Y-83828727D01*
X80278796Y-83852996D01*
X80280000Y-83877500D01*
X80280000Y-84802500D01*
X80278796Y-84827004D01*
X80275196Y-84851273D01*
X80269235Y-84875071D01*
X80260970Y-84898171D01*
X80250480Y-84920349D01*
X80237867Y-84941393D01*
X80223253Y-84961098D01*
X80206777Y-84979277D01*
X80188598Y-84995753D01*
X80168893Y-85010367D01*
X80147849Y-85022980D01*
X80125671Y-85033470D01*
X80102571Y-85041735D01*
X80078773Y-85047696D01*
X80054504Y-85051296D01*
X80030000Y-85052500D01*
X78780000Y-85052500D01*
X78755496Y-85051296D01*
X78731227Y-85047696D01*
X78707429Y-85041735D01*
X78684329Y-85033470D01*
X78662151Y-85022980D01*
X78641107Y-85010367D01*
X78621402Y-84995753D01*
X78603223Y-84979277D01*
X78586747Y-84961098D01*
X78572133Y-84941393D01*
X78559520Y-84920349D01*
X78549030Y-84898171D01*
X78540765Y-84875071D01*
X78534804Y-84851273D01*
X78531204Y-84827004D01*
X78530000Y-84802500D01*
X78530000Y-83877500D01*
X78531204Y-83852996D01*
X78534804Y-83828727D01*
X78540765Y-83804929D01*
X78549030Y-83781829D01*
X78559520Y-83759651D01*
X78572133Y-83738607D01*
X78586747Y-83718902D01*
X78603223Y-83700723D01*
X78621402Y-83684247D01*
X78641107Y-83669633D01*
X78662151Y-83657020D01*
X78684329Y-83646530D01*
X78707429Y-83638265D01*
X78731227Y-83632304D01*
X78755496Y-83628704D01*
X78780000Y-83627500D01*
X80030000Y-83627500D01*
X80054504Y-83628704D01*
X80054504Y-83628704D01*
G37*
D11*
X79405000Y-84340000D03*
D10*
G36*
X80054504Y-86603704D02*
X80078773Y-86607304D01*
X80102571Y-86613265D01*
X80125671Y-86621530D01*
X80147849Y-86632020D01*
X80168893Y-86644633D01*
X80188598Y-86659247D01*
X80206777Y-86675723D01*
X80223253Y-86693902D01*
X80237867Y-86713607D01*
X80250480Y-86734651D01*
X80260970Y-86756829D01*
X80269235Y-86779929D01*
X80275196Y-86803727D01*
X80278796Y-86827996D01*
X80280000Y-86852500D01*
X80280000Y-87777500D01*
X80278796Y-87802004D01*
X80275196Y-87826273D01*
X80269235Y-87850071D01*
X80260970Y-87873171D01*
X80250480Y-87895349D01*
X80237867Y-87916393D01*
X80223253Y-87936098D01*
X80206777Y-87954277D01*
X80188598Y-87970753D01*
X80168893Y-87985367D01*
X80147849Y-87997980D01*
X80125671Y-88008470D01*
X80102571Y-88016735D01*
X80078773Y-88022696D01*
X80054504Y-88026296D01*
X80030000Y-88027500D01*
X78780000Y-88027500D01*
X78755496Y-88026296D01*
X78731227Y-88022696D01*
X78707429Y-88016735D01*
X78684329Y-88008470D01*
X78662151Y-87997980D01*
X78641107Y-87985367D01*
X78621402Y-87970753D01*
X78603223Y-87954277D01*
X78586747Y-87936098D01*
X78572133Y-87916393D01*
X78559520Y-87895349D01*
X78549030Y-87873171D01*
X78540765Y-87850071D01*
X78534804Y-87826273D01*
X78531204Y-87802004D01*
X78530000Y-87777500D01*
X78530000Y-86852500D01*
X78531204Y-86827996D01*
X78534804Y-86803727D01*
X78540765Y-86779929D01*
X78549030Y-86756829D01*
X78559520Y-86734651D01*
X78572133Y-86713607D01*
X78586747Y-86693902D01*
X78603223Y-86675723D01*
X78621402Y-86659247D01*
X78641107Y-86644633D01*
X78662151Y-86632020D01*
X78684329Y-86621530D01*
X78707429Y-86613265D01*
X78731227Y-86607304D01*
X78755496Y-86603704D01*
X78780000Y-86602500D01*
X80030000Y-86602500D01*
X80054504Y-86603704D01*
X80054504Y-86603704D01*
G37*
D11*
X79405000Y-87315000D03*
G04 #@! TD*
D12*
G04 #@! TO.C,SW4*
X131475000Y-33397500D03*
X117505000Y-35937500D03*
G04 #@! TD*
D10*
G04 #@! TO.C,D19*
G36*
X84817004Y-102748704D02*
X84841273Y-102752304D01*
X84865071Y-102758265D01*
X84888171Y-102766530D01*
X84910349Y-102777020D01*
X84931393Y-102789633D01*
X84951098Y-102804247D01*
X84969277Y-102820723D01*
X84985753Y-102838902D01*
X85000367Y-102858607D01*
X85012980Y-102879651D01*
X85023470Y-102901829D01*
X85031735Y-102924929D01*
X85037696Y-102948727D01*
X85041296Y-102972996D01*
X85042500Y-102997500D01*
X85042500Y-103922500D01*
X85041296Y-103947004D01*
X85037696Y-103971273D01*
X85031735Y-103995071D01*
X85023470Y-104018171D01*
X85012980Y-104040349D01*
X85000367Y-104061393D01*
X84985753Y-104081098D01*
X84969277Y-104099277D01*
X84951098Y-104115753D01*
X84931393Y-104130367D01*
X84910349Y-104142980D01*
X84888171Y-104153470D01*
X84865071Y-104161735D01*
X84841273Y-104167696D01*
X84817004Y-104171296D01*
X84792500Y-104172500D01*
X83542500Y-104172500D01*
X83517996Y-104171296D01*
X83493727Y-104167696D01*
X83469929Y-104161735D01*
X83446829Y-104153470D01*
X83424651Y-104142980D01*
X83403607Y-104130367D01*
X83383902Y-104115753D01*
X83365723Y-104099277D01*
X83349247Y-104081098D01*
X83334633Y-104061393D01*
X83322020Y-104040349D01*
X83311530Y-104018171D01*
X83303265Y-103995071D01*
X83297304Y-103971273D01*
X83293704Y-103947004D01*
X83292500Y-103922500D01*
X83292500Y-102997500D01*
X83293704Y-102972996D01*
X83297304Y-102948727D01*
X83303265Y-102924929D01*
X83311530Y-102901829D01*
X83322020Y-102879651D01*
X83334633Y-102858607D01*
X83349247Y-102838902D01*
X83365723Y-102820723D01*
X83383902Y-102804247D01*
X83403607Y-102789633D01*
X83424651Y-102777020D01*
X83446829Y-102766530D01*
X83469929Y-102758265D01*
X83493727Y-102752304D01*
X83517996Y-102748704D01*
X83542500Y-102747500D01*
X84792500Y-102747500D01*
X84817004Y-102748704D01*
X84817004Y-102748704D01*
G37*
D11*
X84167500Y-103460000D03*
D10*
G36*
X84817004Y-105723704D02*
X84841273Y-105727304D01*
X84865071Y-105733265D01*
X84888171Y-105741530D01*
X84910349Y-105752020D01*
X84931393Y-105764633D01*
X84951098Y-105779247D01*
X84969277Y-105795723D01*
X84985753Y-105813902D01*
X85000367Y-105833607D01*
X85012980Y-105854651D01*
X85023470Y-105876829D01*
X85031735Y-105899929D01*
X85037696Y-105923727D01*
X85041296Y-105947996D01*
X85042500Y-105972500D01*
X85042500Y-106897500D01*
X85041296Y-106922004D01*
X85037696Y-106946273D01*
X85031735Y-106970071D01*
X85023470Y-106993171D01*
X85012980Y-107015349D01*
X85000367Y-107036393D01*
X84985753Y-107056098D01*
X84969277Y-107074277D01*
X84951098Y-107090753D01*
X84931393Y-107105367D01*
X84910349Y-107117980D01*
X84888171Y-107128470D01*
X84865071Y-107136735D01*
X84841273Y-107142696D01*
X84817004Y-107146296D01*
X84792500Y-107147500D01*
X83542500Y-107147500D01*
X83517996Y-107146296D01*
X83493727Y-107142696D01*
X83469929Y-107136735D01*
X83446829Y-107128470D01*
X83424651Y-107117980D01*
X83403607Y-107105367D01*
X83383902Y-107090753D01*
X83365723Y-107074277D01*
X83349247Y-107056098D01*
X83334633Y-107036393D01*
X83322020Y-107015349D01*
X83311530Y-106993171D01*
X83303265Y-106970071D01*
X83297304Y-106946273D01*
X83293704Y-106922004D01*
X83292500Y-106897500D01*
X83292500Y-105972500D01*
X83293704Y-105947996D01*
X83297304Y-105923727D01*
X83303265Y-105899929D01*
X83311530Y-105876829D01*
X83322020Y-105854651D01*
X83334633Y-105833607D01*
X83349247Y-105813902D01*
X83365723Y-105795723D01*
X83383902Y-105779247D01*
X83403607Y-105764633D01*
X83424651Y-105752020D01*
X83446829Y-105741530D01*
X83469929Y-105733265D01*
X83493727Y-105727304D01*
X83517996Y-105723704D01*
X83542500Y-105722500D01*
X84792500Y-105722500D01*
X84817004Y-105723704D01*
X84817004Y-105723704D01*
G37*
D11*
X84167500Y-106435000D03*
G04 #@! TD*
D10*
G04 #@! TO.C,D11*
G36*
X33709504Y-91111204D02*
X33733773Y-91114804D01*
X33757571Y-91120765D01*
X33780671Y-91129030D01*
X33802849Y-91139520D01*
X33823893Y-91152133D01*
X33843598Y-91166747D01*
X33861777Y-91183223D01*
X33878253Y-91201402D01*
X33892867Y-91221107D01*
X33905480Y-91242151D01*
X33915970Y-91264329D01*
X33924235Y-91287429D01*
X33930196Y-91311227D01*
X33933796Y-91335496D01*
X33935000Y-91360000D01*
X33935000Y-92285000D01*
X33933796Y-92309504D01*
X33930196Y-92333773D01*
X33924235Y-92357571D01*
X33915970Y-92380671D01*
X33905480Y-92402849D01*
X33892867Y-92423893D01*
X33878253Y-92443598D01*
X33861777Y-92461777D01*
X33843598Y-92478253D01*
X33823893Y-92492867D01*
X33802849Y-92505480D01*
X33780671Y-92515970D01*
X33757571Y-92524235D01*
X33733773Y-92530196D01*
X33709504Y-92533796D01*
X33685000Y-92535000D01*
X32435000Y-92535000D01*
X32410496Y-92533796D01*
X32386227Y-92530196D01*
X32362429Y-92524235D01*
X32339329Y-92515970D01*
X32317151Y-92505480D01*
X32296107Y-92492867D01*
X32276402Y-92478253D01*
X32258223Y-92461777D01*
X32241747Y-92443598D01*
X32227133Y-92423893D01*
X32214520Y-92402849D01*
X32204030Y-92380671D01*
X32195765Y-92357571D01*
X32189804Y-92333773D01*
X32186204Y-92309504D01*
X32185000Y-92285000D01*
X32185000Y-91360000D01*
X32186204Y-91335496D01*
X32189804Y-91311227D01*
X32195765Y-91287429D01*
X32204030Y-91264329D01*
X32214520Y-91242151D01*
X32227133Y-91221107D01*
X32241747Y-91201402D01*
X32258223Y-91183223D01*
X32276402Y-91166747D01*
X32296107Y-91152133D01*
X32317151Y-91139520D01*
X32339329Y-91129030D01*
X32362429Y-91120765D01*
X32386227Y-91114804D01*
X32410496Y-91111204D01*
X32435000Y-91110000D01*
X33685000Y-91110000D01*
X33709504Y-91111204D01*
X33709504Y-91111204D01*
G37*
D11*
X33060000Y-91822500D03*
D10*
G36*
X33709504Y-94086204D02*
X33733773Y-94089804D01*
X33757571Y-94095765D01*
X33780671Y-94104030D01*
X33802849Y-94114520D01*
X33823893Y-94127133D01*
X33843598Y-94141747D01*
X33861777Y-94158223D01*
X33878253Y-94176402D01*
X33892867Y-94196107D01*
X33905480Y-94217151D01*
X33915970Y-94239329D01*
X33924235Y-94262429D01*
X33930196Y-94286227D01*
X33933796Y-94310496D01*
X33935000Y-94335000D01*
X33935000Y-95260000D01*
X33933796Y-95284504D01*
X33930196Y-95308773D01*
X33924235Y-95332571D01*
X33915970Y-95355671D01*
X33905480Y-95377849D01*
X33892867Y-95398893D01*
X33878253Y-95418598D01*
X33861777Y-95436777D01*
X33843598Y-95453253D01*
X33823893Y-95467867D01*
X33802849Y-95480480D01*
X33780671Y-95490970D01*
X33757571Y-95499235D01*
X33733773Y-95505196D01*
X33709504Y-95508796D01*
X33685000Y-95510000D01*
X32435000Y-95510000D01*
X32410496Y-95508796D01*
X32386227Y-95505196D01*
X32362429Y-95499235D01*
X32339329Y-95490970D01*
X32317151Y-95480480D01*
X32296107Y-95467867D01*
X32276402Y-95453253D01*
X32258223Y-95436777D01*
X32241747Y-95418598D01*
X32227133Y-95398893D01*
X32214520Y-95377849D01*
X32204030Y-95355671D01*
X32195765Y-95332571D01*
X32189804Y-95308773D01*
X32186204Y-95284504D01*
X32185000Y-95260000D01*
X32185000Y-94335000D01*
X32186204Y-94310496D01*
X32189804Y-94286227D01*
X32195765Y-94262429D01*
X32204030Y-94239329D01*
X32214520Y-94217151D01*
X32227133Y-94196107D01*
X32241747Y-94176402D01*
X32258223Y-94158223D01*
X32276402Y-94141747D01*
X32296107Y-94127133D01*
X32317151Y-94114520D01*
X32339329Y-94104030D01*
X32362429Y-94095765D01*
X32386227Y-94089804D01*
X32410496Y-94086204D01*
X32435000Y-94085000D01*
X33685000Y-94085000D01*
X33709504Y-94086204D01*
X33709504Y-94086204D01*
G37*
D11*
X33060000Y-94797500D03*
G04 #@! TD*
D10*
G04 #@! TO.C,D16*
G36*
X137204504Y-83628704D02*
X137228773Y-83632304D01*
X137252571Y-83638265D01*
X137275671Y-83646530D01*
X137297849Y-83657020D01*
X137318893Y-83669633D01*
X137338598Y-83684247D01*
X137356777Y-83700723D01*
X137373253Y-83718902D01*
X137387867Y-83738607D01*
X137400480Y-83759651D01*
X137410970Y-83781829D01*
X137419235Y-83804929D01*
X137425196Y-83828727D01*
X137428796Y-83852996D01*
X137430000Y-83877500D01*
X137430000Y-84802500D01*
X137428796Y-84827004D01*
X137425196Y-84851273D01*
X137419235Y-84875071D01*
X137410970Y-84898171D01*
X137400480Y-84920349D01*
X137387867Y-84941393D01*
X137373253Y-84961098D01*
X137356777Y-84979277D01*
X137338598Y-84995753D01*
X137318893Y-85010367D01*
X137297849Y-85022980D01*
X137275671Y-85033470D01*
X137252571Y-85041735D01*
X137228773Y-85047696D01*
X137204504Y-85051296D01*
X137180000Y-85052500D01*
X135930000Y-85052500D01*
X135905496Y-85051296D01*
X135881227Y-85047696D01*
X135857429Y-85041735D01*
X135834329Y-85033470D01*
X135812151Y-85022980D01*
X135791107Y-85010367D01*
X135771402Y-84995753D01*
X135753223Y-84979277D01*
X135736747Y-84961098D01*
X135722133Y-84941393D01*
X135709520Y-84920349D01*
X135699030Y-84898171D01*
X135690765Y-84875071D01*
X135684804Y-84851273D01*
X135681204Y-84827004D01*
X135680000Y-84802500D01*
X135680000Y-83877500D01*
X135681204Y-83852996D01*
X135684804Y-83828727D01*
X135690765Y-83804929D01*
X135699030Y-83781829D01*
X135709520Y-83759651D01*
X135722133Y-83738607D01*
X135736747Y-83718902D01*
X135753223Y-83700723D01*
X135771402Y-83684247D01*
X135791107Y-83669633D01*
X135812151Y-83657020D01*
X135834329Y-83646530D01*
X135857429Y-83638265D01*
X135881227Y-83632304D01*
X135905496Y-83628704D01*
X135930000Y-83627500D01*
X137180000Y-83627500D01*
X137204504Y-83628704D01*
X137204504Y-83628704D01*
G37*
D11*
X136555000Y-84340000D03*
D10*
G36*
X137204504Y-86603704D02*
X137228773Y-86607304D01*
X137252571Y-86613265D01*
X137275671Y-86621530D01*
X137297849Y-86632020D01*
X137318893Y-86644633D01*
X137338598Y-86659247D01*
X137356777Y-86675723D01*
X137373253Y-86693902D01*
X137387867Y-86713607D01*
X137400480Y-86734651D01*
X137410970Y-86756829D01*
X137419235Y-86779929D01*
X137425196Y-86803727D01*
X137428796Y-86827996D01*
X137430000Y-86852500D01*
X137430000Y-87777500D01*
X137428796Y-87802004D01*
X137425196Y-87826273D01*
X137419235Y-87850071D01*
X137410970Y-87873171D01*
X137400480Y-87895349D01*
X137387867Y-87916393D01*
X137373253Y-87936098D01*
X137356777Y-87954277D01*
X137338598Y-87970753D01*
X137318893Y-87985367D01*
X137297849Y-87997980D01*
X137275671Y-88008470D01*
X137252571Y-88016735D01*
X137228773Y-88022696D01*
X137204504Y-88026296D01*
X137180000Y-88027500D01*
X135930000Y-88027500D01*
X135905496Y-88026296D01*
X135881227Y-88022696D01*
X135857429Y-88016735D01*
X135834329Y-88008470D01*
X135812151Y-87997980D01*
X135791107Y-87985367D01*
X135771402Y-87970753D01*
X135753223Y-87954277D01*
X135736747Y-87936098D01*
X135722133Y-87916393D01*
X135709520Y-87895349D01*
X135699030Y-87873171D01*
X135690765Y-87850071D01*
X135684804Y-87826273D01*
X135681204Y-87802004D01*
X135680000Y-87777500D01*
X135680000Y-86852500D01*
X135681204Y-86827996D01*
X135684804Y-86803727D01*
X135690765Y-86779929D01*
X135699030Y-86756829D01*
X135709520Y-86734651D01*
X135722133Y-86713607D01*
X135736747Y-86693902D01*
X135753223Y-86675723D01*
X135771402Y-86659247D01*
X135791107Y-86644633D01*
X135812151Y-86632020D01*
X135834329Y-86621530D01*
X135857429Y-86613265D01*
X135881227Y-86607304D01*
X135905496Y-86603704D01*
X135930000Y-86602500D01*
X137180000Y-86602500D01*
X137204504Y-86603704D01*
X137204504Y-86603704D01*
G37*
D11*
X136555000Y-87315000D03*
G04 #@! TD*
D10*
G04 #@! TO.C,D17*
G36*
X39573404Y-105723704D02*
X39597673Y-105727304D01*
X39621471Y-105733265D01*
X39644571Y-105741530D01*
X39666749Y-105752020D01*
X39687793Y-105764633D01*
X39707498Y-105779247D01*
X39725677Y-105795723D01*
X39742153Y-105813902D01*
X39756767Y-105833607D01*
X39769380Y-105854651D01*
X39779870Y-105876829D01*
X39788135Y-105899929D01*
X39794096Y-105923727D01*
X39797696Y-105947996D01*
X39798900Y-105972500D01*
X39798900Y-106897500D01*
X39797696Y-106922004D01*
X39794096Y-106946273D01*
X39788135Y-106970071D01*
X39779870Y-106993171D01*
X39769380Y-107015349D01*
X39756767Y-107036393D01*
X39742153Y-107056098D01*
X39725677Y-107074277D01*
X39707498Y-107090753D01*
X39687793Y-107105367D01*
X39666749Y-107117980D01*
X39644571Y-107128470D01*
X39621471Y-107136735D01*
X39597673Y-107142696D01*
X39573404Y-107146296D01*
X39548900Y-107147500D01*
X38298900Y-107147500D01*
X38274396Y-107146296D01*
X38250127Y-107142696D01*
X38226329Y-107136735D01*
X38203229Y-107128470D01*
X38181051Y-107117980D01*
X38160007Y-107105367D01*
X38140302Y-107090753D01*
X38122123Y-107074277D01*
X38105647Y-107056098D01*
X38091033Y-107036393D01*
X38078420Y-107015349D01*
X38067930Y-106993171D01*
X38059665Y-106970071D01*
X38053704Y-106946273D01*
X38050104Y-106922004D01*
X38048900Y-106897500D01*
X38048900Y-105972500D01*
X38050104Y-105947996D01*
X38053704Y-105923727D01*
X38059665Y-105899929D01*
X38067930Y-105876829D01*
X38078420Y-105854651D01*
X38091033Y-105833607D01*
X38105647Y-105813902D01*
X38122123Y-105795723D01*
X38140302Y-105779247D01*
X38160007Y-105764633D01*
X38181051Y-105752020D01*
X38203229Y-105741530D01*
X38226329Y-105733265D01*
X38250127Y-105727304D01*
X38274396Y-105723704D01*
X38298900Y-105722500D01*
X39548900Y-105722500D01*
X39573404Y-105723704D01*
X39573404Y-105723704D01*
G37*
D11*
X38923900Y-106435000D03*
D10*
G36*
X39573404Y-102748704D02*
X39597673Y-102752304D01*
X39621471Y-102758265D01*
X39644571Y-102766530D01*
X39666749Y-102777020D01*
X39687793Y-102789633D01*
X39707498Y-102804247D01*
X39725677Y-102820723D01*
X39742153Y-102838902D01*
X39756767Y-102858607D01*
X39769380Y-102879651D01*
X39779870Y-102901829D01*
X39788135Y-102924929D01*
X39794096Y-102948727D01*
X39797696Y-102972996D01*
X39798900Y-102997500D01*
X39798900Y-103922500D01*
X39797696Y-103947004D01*
X39794096Y-103971273D01*
X39788135Y-103995071D01*
X39779870Y-104018171D01*
X39769380Y-104040349D01*
X39756767Y-104061393D01*
X39742153Y-104081098D01*
X39725677Y-104099277D01*
X39707498Y-104115753D01*
X39687793Y-104130367D01*
X39666749Y-104142980D01*
X39644571Y-104153470D01*
X39621471Y-104161735D01*
X39597673Y-104167696D01*
X39573404Y-104171296D01*
X39548900Y-104172500D01*
X38298900Y-104172500D01*
X38274396Y-104171296D01*
X38250127Y-104167696D01*
X38226329Y-104161735D01*
X38203229Y-104153470D01*
X38181051Y-104142980D01*
X38160007Y-104130367D01*
X38140302Y-104115753D01*
X38122123Y-104099277D01*
X38105647Y-104081098D01*
X38091033Y-104061393D01*
X38078420Y-104040349D01*
X38067930Y-104018171D01*
X38059665Y-103995071D01*
X38053704Y-103971273D01*
X38050104Y-103947004D01*
X38048900Y-103922500D01*
X38048900Y-102997500D01*
X38050104Y-102972996D01*
X38053704Y-102948727D01*
X38059665Y-102924929D01*
X38067930Y-102901829D01*
X38078420Y-102879651D01*
X38091033Y-102858607D01*
X38105647Y-102838902D01*
X38122123Y-102820723D01*
X38140302Y-102804247D01*
X38160007Y-102789633D01*
X38181051Y-102777020D01*
X38203229Y-102766530D01*
X38226329Y-102758265D01*
X38250127Y-102752304D01*
X38274396Y-102748704D01*
X38298900Y-102747500D01*
X39548900Y-102747500D01*
X39573404Y-102748704D01*
X39573404Y-102748704D01*
G37*
D11*
X38923900Y-103460000D03*
G04 #@! TD*
D10*
G04 #@! TO.C,D24*
G36*
X75292004Y-124733704D02*
X75316273Y-124737304D01*
X75340071Y-124743265D01*
X75363171Y-124751530D01*
X75385349Y-124762020D01*
X75406393Y-124774633D01*
X75426098Y-124789247D01*
X75444277Y-124805723D01*
X75460753Y-124823902D01*
X75475367Y-124843607D01*
X75487980Y-124864651D01*
X75498470Y-124886829D01*
X75506735Y-124909929D01*
X75512696Y-124933727D01*
X75516296Y-124957996D01*
X75517500Y-124982500D01*
X75517500Y-125907500D01*
X75516296Y-125932004D01*
X75512696Y-125956273D01*
X75506735Y-125980071D01*
X75498470Y-126003171D01*
X75487980Y-126025349D01*
X75475367Y-126046393D01*
X75460753Y-126066098D01*
X75444277Y-126084277D01*
X75426098Y-126100753D01*
X75406393Y-126115367D01*
X75385349Y-126127980D01*
X75363171Y-126138470D01*
X75340071Y-126146735D01*
X75316273Y-126152696D01*
X75292004Y-126156296D01*
X75267500Y-126157500D01*
X74017500Y-126157500D01*
X73992996Y-126156296D01*
X73968727Y-126152696D01*
X73944929Y-126146735D01*
X73921829Y-126138470D01*
X73899651Y-126127980D01*
X73878607Y-126115367D01*
X73858902Y-126100753D01*
X73840723Y-126084277D01*
X73824247Y-126066098D01*
X73809633Y-126046393D01*
X73797020Y-126025349D01*
X73786530Y-126003171D01*
X73778265Y-125980071D01*
X73772304Y-125956273D01*
X73768704Y-125932004D01*
X73767500Y-125907500D01*
X73767500Y-124982500D01*
X73768704Y-124957996D01*
X73772304Y-124933727D01*
X73778265Y-124909929D01*
X73786530Y-124886829D01*
X73797020Y-124864651D01*
X73809633Y-124843607D01*
X73824247Y-124823902D01*
X73840723Y-124805723D01*
X73858902Y-124789247D01*
X73878607Y-124774633D01*
X73899651Y-124762020D01*
X73921829Y-124751530D01*
X73944929Y-124743265D01*
X73968727Y-124737304D01*
X73992996Y-124733704D01*
X74017500Y-124732500D01*
X75267500Y-124732500D01*
X75292004Y-124733704D01*
X75292004Y-124733704D01*
G37*
D11*
X74642500Y-125445000D03*
D10*
G36*
X75292004Y-121758704D02*
X75316273Y-121762304D01*
X75340071Y-121768265D01*
X75363171Y-121776530D01*
X75385349Y-121787020D01*
X75406393Y-121799633D01*
X75426098Y-121814247D01*
X75444277Y-121830723D01*
X75460753Y-121848902D01*
X75475367Y-121868607D01*
X75487980Y-121889651D01*
X75498470Y-121911829D01*
X75506735Y-121934929D01*
X75512696Y-121958727D01*
X75516296Y-121982996D01*
X75517500Y-122007500D01*
X75517500Y-122932500D01*
X75516296Y-122957004D01*
X75512696Y-122981273D01*
X75506735Y-123005071D01*
X75498470Y-123028171D01*
X75487980Y-123050349D01*
X75475367Y-123071393D01*
X75460753Y-123091098D01*
X75444277Y-123109277D01*
X75426098Y-123125753D01*
X75406393Y-123140367D01*
X75385349Y-123152980D01*
X75363171Y-123163470D01*
X75340071Y-123171735D01*
X75316273Y-123177696D01*
X75292004Y-123181296D01*
X75267500Y-123182500D01*
X74017500Y-123182500D01*
X73992996Y-123181296D01*
X73968727Y-123177696D01*
X73944929Y-123171735D01*
X73921829Y-123163470D01*
X73899651Y-123152980D01*
X73878607Y-123140367D01*
X73858902Y-123125753D01*
X73840723Y-123109277D01*
X73824247Y-123091098D01*
X73809633Y-123071393D01*
X73797020Y-123050349D01*
X73786530Y-123028171D01*
X73778265Y-123005071D01*
X73772304Y-122981273D01*
X73768704Y-122957004D01*
X73767500Y-122932500D01*
X73767500Y-122007500D01*
X73768704Y-121982996D01*
X73772304Y-121958727D01*
X73778265Y-121934929D01*
X73786530Y-121911829D01*
X73797020Y-121889651D01*
X73809633Y-121868607D01*
X73824247Y-121848902D01*
X73840723Y-121830723D01*
X73858902Y-121814247D01*
X73878607Y-121799633D01*
X73899651Y-121787020D01*
X73921829Y-121776530D01*
X73944929Y-121768265D01*
X73968727Y-121762304D01*
X73992996Y-121758704D01*
X74017500Y-121757500D01*
X75267500Y-121757500D01*
X75292004Y-121758704D01*
X75292004Y-121758704D01*
G37*
D11*
X74642500Y-122470000D03*
G04 #@! TD*
D10*
G04 #@! TO.C,D27*
G36*
X132442004Y-124733704D02*
X132466273Y-124737304D01*
X132490071Y-124743265D01*
X132513171Y-124751530D01*
X132535349Y-124762020D01*
X132556393Y-124774633D01*
X132576098Y-124789247D01*
X132594277Y-124805723D01*
X132610753Y-124823902D01*
X132625367Y-124843607D01*
X132637980Y-124864651D01*
X132648470Y-124886829D01*
X132656735Y-124909929D01*
X132662696Y-124933727D01*
X132666296Y-124957996D01*
X132667500Y-124982500D01*
X132667500Y-125907500D01*
X132666296Y-125932004D01*
X132662696Y-125956273D01*
X132656735Y-125980071D01*
X132648470Y-126003171D01*
X132637980Y-126025349D01*
X132625367Y-126046393D01*
X132610753Y-126066098D01*
X132594277Y-126084277D01*
X132576098Y-126100753D01*
X132556393Y-126115367D01*
X132535349Y-126127980D01*
X132513171Y-126138470D01*
X132490071Y-126146735D01*
X132466273Y-126152696D01*
X132442004Y-126156296D01*
X132417500Y-126157500D01*
X131167500Y-126157500D01*
X131142996Y-126156296D01*
X131118727Y-126152696D01*
X131094929Y-126146735D01*
X131071829Y-126138470D01*
X131049651Y-126127980D01*
X131028607Y-126115367D01*
X131008902Y-126100753D01*
X130990723Y-126084277D01*
X130974247Y-126066098D01*
X130959633Y-126046393D01*
X130947020Y-126025349D01*
X130936530Y-126003171D01*
X130928265Y-125980071D01*
X130922304Y-125956273D01*
X130918704Y-125932004D01*
X130917500Y-125907500D01*
X130917500Y-124982500D01*
X130918704Y-124957996D01*
X130922304Y-124933727D01*
X130928265Y-124909929D01*
X130936530Y-124886829D01*
X130947020Y-124864651D01*
X130959633Y-124843607D01*
X130974247Y-124823902D01*
X130990723Y-124805723D01*
X131008902Y-124789247D01*
X131028607Y-124774633D01*
X131049651Y-124762020D01*
X131071829Y-124751530D01*
X131094929Y-124743265D01*
X131118727Y-124737304D01*
X131142996Y-124733704D01*
X131167500Y-124732500D01*
X132417500Y-124732500D01*
X132442004Y-124733704D01*
X132442004Y-124733704D01*
G37*
D11*
X131792500Y-125445000D03*
D10*
G36*
X132442004Y-121758704D02*
X132466273Y-121762304D01*
X132490071Y-121768265D01*
X132513171Y-121776530D01*
X132535349Y-121787020D01*
X132556393Y-121799633D01*
X132576098Y-121814247D01*
X132594277Y-121830723D01*
X132610753Y-121848902D01*
X132625367Y-121868607D01*
X132637980Y-121889651D01*
X132648470Y-121911829D01*
X132656735Y-121934929D01*
X132662696Y-121958727D01*
X132666296Y-121982996D01*
X132667500Y-122007500D01*
X132667500Y-122932500D01*
X132666296Y-122957004D01*
X132662696Y-122981273D01*
X132656735Y-123005071D01*
X132648470Y-123028171D01*
X132637980Y-123050349D01*
X132625367Y-123071393D01*
X132610753Y-123091098D01*
X132594277Y-123109277D01*
X132576098Y-123125753D01*
X132556393Y-123140367D01*
X132535349Y-123152980D01*
X132513171Y-123163470D01*
X132490071Y-123171735D01*
X132466273Y-123177696D01*
X132442004Y-123181296D01*
X132417500Y-123182500D01*
X131167500Y-123182500D01*
X131142996Y-123181296D01*
X131118727Y-123177696D01*
X131094929Y-123171735D01*
X131071829Y-123163470D01*
X131049651Y-123152980D01*
X131028607Y-123140367D01*
X131008902Y-123125753D01*
X130990723Y-123109277D01*
X130974247Y-123091098D01*
X130959633Y-123071393D01*
X130947020Y-123050349D01*
X130936530Y-123028171D01*
X130928265Y-123005071D01*
X130922304Y-122981273D01*
X130918704Y-122957004D01*
X130917500Y-122932500D01*
X130917500Y-122007500D01*
X130918704Y-121982996D01*
X130922304Y-121958727D01*
X130928265Y-121934929D01*
X130936530Y-121911829D01*
X130947020Y-121889651D01*
X130959633Y-121868607D01*
X130974247Y-121848902D01*
X130990723Y-121830723D01*
X131008902Y-121814247D01*
X131028607Y-121799633D01*
X131049651Y-121787020D01*
X131071829Y-121776530D01*
X131094929Y-121768265D01*
X131118727Y-121762304D01*
X131142996Y-121758704D01*
X131167500Y-121757500D01*
X132417500Y-121757500D01*
X132442004Y-121758704D01*
X132442004Y-121758704D01*
G37*
D11*
X131792500Y-122470000D03*
G04 #@! TD*
D10*
G04 #@! TO.C,D31*
G36*
X139585504Y-143833704D02*
X139609773Y-143837304D01*
X139633571Y-143843265D01*
X139656671Y-143851530D01*
X139678849Y-143862020D01*
X139699893Y-143874633D01*
X139719598Y-143889247D01*
X139737777Y-143905723D01*
X139754253Y-143923902D01*
X139768867Y-143943607D01*
X139781480Y-143964651D01*
X139791970Y-143986829D01*
X139800235Y-144009929D01*
X139806196Y-144033727D01*
X139809796Y-144057996D01*
X139811000Y-144082500D01*
X139811000Y-145007500D01*
X139809796Y-145032004D01*
X139806196Y-145056273D01*
X139800235Y-145080071D01*
X139791970Y-145103171D01*
X139781480Y-145125349D01*
X139768867Y-145146393D01*
X139754253Y-145166098D01*
X139737777Y-145184277D01*
X139719598Y-145200753D01*
X139699893Y-145215367D01*
X139678849Y-145227980D01*
X139656671Y-145238470D01*
X139633571Y-145246735D01*
X139609773Y-145252696D01*
X139585504Y-145256296D01*
X139561000Y-145257500D01*
X138311000Y-145257500D01*
X138286496Y-145256296D01*
X138262227Y-145252696D01*
X138238429Y-145246735D01*
X138215329Y-145238470D01*
X138193151Y-145227980D01*
X138172107Y-145215367D01*
X138152402Y-145200753D01*
X138134223Y-145184277D01*
X138117747Y-145166098D01*
X138103133Y-145146393D01*
X138090520Y-145125349D01*
X138080030Y-145103171D01*
X138071765Y-145080071D01*
X138065804Y-145056273D01*
X138062204Y-145032004D01*
X138061000Y-145007500D01*
X138061000Y-144082500D01*
X138062204Y-144057996D01*
X138065804Y-144033727D01*
X138071765Y-144009929D01*
X138080030Y-143986829D01*
X138090520Y-143964651D01*
X138103133Y-143943607D01*
X138117747Y-143923902D01*
X138134223Y-143905723D01*
X138152402Y-143889247D01*
X138172107Y-143874633D01*
X138193151Y-143862020D01*
X138215329Y-143851530D01*
X138238429Y-143843265D01*
X138262227Y-143837304D01*
X138286496Y-143833704D01*
X138311000Y-143832500D01*
X139561000Y-143832500D01*
X139585504Y-143833704D01*
X139585504Y-143833704D01*
G37*
D11*
X138936000Y-144545000D03*
D10*
G36*
X139585504Y-140858704D02*
X139609773Y-140862304D01*
X139633571Y-140868265D01*
X139656671Y-140876530D01*
X139678849Y-140887020D01*
X139699893Y-140899633D01*
X139719598Y-140914247D01*
X139737777Y-140930723D01*
X139754253Y-140948902D01*
X139768867Y-140968607D01*
X139781480Y-140989651D01*
X139791970Y-141011829D01*
X139800235Y-141034929D01*
X139806196Y-141058727D01*
X139809796Y-141082996D01*
X139811000Y-141107500D01*
X139811000Y-142032500D01*
X139809796Y-142057004D01*
X139806196Y-142081273D01*
X139800235Y-142105071D01*
X139791970Y-142128171D01*
X139781480Y-142150349D01*
X139768867Y-142171393D01*
X139754253Y-142191098D01*
X139737777Y-142209277D01*
X139719598Y-142225753D01*
X139699893Y-142240367D01*
X139678849Y-142252980D01*
X139656671Y-142263470D01*
X139633571Y-142271735D01*
X139609773Y-142277696D01*
X139585504Y-142281296D01*
X139561000Y-142282500D01*
X138311000Y-142282500D01*
X138286496Y-142281296D01*
X138262227Y-142277696D01*
X138238429Y-142271735D01*
X138215329Y-142263470D01*
X138193151Y-142252980D01*
X138172107Y-142240367D01*
X138152402Y-142225753D01*
X138134223Y-142209277D01*
X138117747Y-142191098D01*
X138103133Y-142171393D01*
X138090520Y-142150349D01*
X138080030Y-142128171D01*
X138071765Y-142105071D01*
X138065804Y-142081273D01*
X138062204Y-142057004D01*
X138061000Y-142032500D01*
X138061000Y-141107500D01*
X138062204Y-141082996D01*
X138065804Y-141058727D01*
X138071765Y-141034929D01*
X138080030Y-141011829D01*
X138090520Y-140989651D01*
X138103133Y-140968607D01*
X138117747Y-140948902D01*
X138134223Y-140930723D01*
X138152402Y-140914247D01*
X138172107Y-140899633D01*
X138193151Y-140887020D01*
X138215329Y-140876530D01*
X138238429Y-140868265D01*
X138262227Y-140862304D01*
X138286496Y-140858704D01*
X138311000Y-140857500D01*
X139561000Y-140857500D01*
X139585504Y-140858704D01*
X139585504Y-140858704D01*
G37*
D11*
X138936000Y-141570000D03*
G04 #@! TD*
D12*
G04 #@! TO.C,SW1*
X60355000Y-35937500D03*
X74325000Y-33397500D03*
G04 #@! TD*
D10*
G04 #@! TO.C,D10*
G36*
X127679504Y-67603704D02*
X127703773Y-67607304D01*
X127727571Y-67613265D01*
X127750671Y-67621530D01*
X127772849Y-67632020D01*
X127793893Y-67644633D01*
X127813598Y-67659247D01*
X127831777Y-67675723D01*
X127848253Y-67693902D01*
X127862867Y-67713607D01*
X127875480Y-67734651D01*
X127885970Y-67756829D01*
X127894235Y-67779929D01*
X127900196Y-67803727D01*
X127903796Y-67827996D01*
X127905000Y-67852500D01*
X127905000Y-68777500D01*
X127903796Y-68802004D01*
X127900196Y-68826273D01*
X127894235Y-68850071D01*
X127885970Y-68873171D01*
X127875480Y-68895349D01*
X127862867Y-68916393D01*
X127848253Y-68936098D01*
X127831777Y-68954277D01*
X127813598Y-68970753D01*
X127793893Y-68985367D01*
X127772849Y-68997980D01*
X127750671Y-69008470D01*
X127727571Y-69016735D01*
X127703773Y-69022696D01*
X127679504Y-69026296D01*
X127655000Y-69027500D01*
X126405000Y-69027500D01*
X126380496Y-69026296D01*
X126356227Y-69022696D01*
X126332429Y-69016735D01*
X126309329Y-69008470D01*
X126287151Y-68997980D01*
X126266107Y-68985367D01*
X126246402Y-68970753D01*
X126228223Y-68954277D01*
X126211747Y-68936098D01*
X126197133Y-68916393D01*
X126184520Y-68895349D01*
X126174030Y-68873171D01*
X126165765Y-68850071D01*
X126159804Y-68826273D01*
X126156204Y-68802004D01*
X126155000Y-68777500D01*
X126155000Y-67852500D01*
X126156204Y-67827996D01*
X126159804Y-67803727D01*
X126165765Y-67779929D01*
X126174030Y-67756829D01*
X126184520Y-67734651D01*
X126197133Y-67713607D01*
X126211747Y-67693902D01*
X126228223Y-67675723D01*
X126246402Y-67659247D01*
X126266107Y-67644633D01*
X126287151Y-67632020D01*
X126309329Y-67621530D01*
X126332429Y-67613265D01*
X126356227Y-67607304D01*
X126380496Y-67603704D01*
X126405000Y-67602500D01*
X127655000Y-67602500D01*
X127679504Y-67603704D01*
X127679504Y-67603704D01*
G37*
D11*
X127030000Y-68315000D03*
D10*
G36*
X127679504Y-64628704D02*
X127703773Y-64632304D01*
X127727571Y-64638265D01*
X127750671Y-64646530D01*
X127772849Y-64657020D01*
X127793893Y-64669633D01*
X127813598Y-64684247D01*
X127831777Y-64700723D01*
X127848253Y-64718902D01*
X127862867Y-64738607D01*
X127875480Y-64759651D01*
X127885970Y-64781829D01*
X127894235Y-64804929D01*
X127900196Y-64828727D01*
X127903796Y-64852996D01*
X127905000Y-64877500D01*
X127905000Y-65802500D01*
X127903796Y-65827004D01*
X127900196Y-65851273D01*
X127894235Y-65875071D01*
X127885970Y-65898171D01*
X127875480Y-65920349D01*
X127862867Y-65941393D01*
X127848253Y-65961098D01*
X127831777Y-65979277D01*
X127813598Y-65995753D01*
X127793893Y-66010367D01*
X127772849Y-66022980D01*
X127750671Y-66033470D01*
X127727571Y-66041735D01*
X127703773Y-66047696D01*
X127679504Y-66051296D01*
X127655000Y-66052500D01*
X126405000Y-66052500D01*
X126380496Y-66051296D01*
X126356227Y-66047696D01*
X126332429Y-66041735D01*
X126309329Y-66033470D01*
X126287151Y-66022980D01*
X126266107Y-66010367D01*
X126246402Y-65995753D01*
X126228223Y-65979277D01*
X126211747Y-65961098D01*
X126197133Y-65941393D01*
X126184520Y-65920349D01*
X126174030Y-65898171D01*
X126165765Y-65875071D01*
X126159804Y-65851273D01*
X126156204Y-65827004D01*
X126155000Y-65802500D01*
X126155000Y-64877500D01*
X126156204Y-64852996D01*
X126159804Y-64828727D01*
X126165765Y-64804929D01*
X126174030Y-64781829D01*
X126184520Y-64759651D01*
X126197133Y-64738607D01*
X126211747Y-64718902D01*
X126228223Y-64700723D01*
X126246402Y-64684247D01*
X126266107Y-64669633D01*
X126287151Y-64657020D01*
X126309329Y-64646530D01*
X126332429Y-64638265D01*
X126356227Y-64632304D01*
X126380496Y-64628704D01*
X126405000Y-64627500D01*
X127655000Y-64627500D01*
X127679504Y-64628704D01*
X127679504Y-64628704D01*
G37*
D11*
X127030000Y-65340000D03*
G04 #@! TD*
D10*
G04 #@! TO.C,D23*
G36*
X44335604Y-124733704D02*
X44359873Y-124737304D01*
X44383671Y-124743265D01*
X44406771Y-124751530D01*
X44428949Y-124762020D01*
X44449993Y-124774633D01*
X44469698Y-124789247D01*
X44487877Y-124805723D01*
X44504353Y-124823902D01*
X44518967Y-124843607D01*
X44531580Y-124864651D01*
X44542070Y-124886829D01*
X44550335Y-124909929D01*
X44556296Y-124933727D01*
X44559896Y-124957996D01*
X44561100Y-124982500D01*
X44561100Y-125907500D01*
X44559896Y-125932004D01*
X44556296Y-125956273D01*
X44550335Y-125980071D01*
X44542070Y-126003171D01*
X44531580Y-126025349D01*
X44518967Y-126046393D01*
X44504353Y-126066098D01*
X44487877Y-126084277D01*
X44469698Y-126100753D01*
X44449993Y-126115367D01*
X44428949Y-126127980D01*
X44406771Y-126138470D01*
X44383671Y-126146735D01*
X44359873Y-126152696D01*
X44335604Y-126156296D01*
X44311100Y-126157500D01*
X43061100Y-126157500D01*
X43036596Y-126156296D01*
X43012327Y-126152696D01*
X42988529Y-126146735D01*
X42965429Y-126138470D01*
X42943251Y-126127980D01*
X42922207Y-126115367D01*
X42902502Y-126100753D01*
X42884323Y-126084277D01*
X42867847Y-126066098D01*
X42853233Y-126046393D01*
X42840620Y-126025349D01*
X42830130Y-126003171D01*
X42821865Y-125980071D01*
X42815904Y-125956273D01*
X42812304Y-125932004D01*
X42811100Y-125907500D01*
X42811100Y-124982500D01*
X42812304Y-124957996D01*
X42815904Y-124933727D01*
X42821865Y-124909929D01*
X42830130Y-124886829D01*
X42840620Y-124864651D01*
X42853233Y-124843607D01*
X42867847Y-124823902D01*
X42884323Y-124805723D01*
X42902502Y-124789247D01*
X42922207Y-124774633D01*
X42943251Y-124762020D01*
X42965429Y-124751530D01*
X42988529Y-124743265D01*
X43012327Y-124737304D01*
X43036596Y-124733704D01*
X43061100Y-124732500D01*
X44311100Y-124732500D01*
X44335604Y-124733704D01*
X44335604Y-124733704D01*
G37*
D11*
X43686100Y-125445000D03*
D10*
G36*
X44335604Y-121758704D02*
X44359873Y-121762304D01*
X44383671Y-121768265D01*
X44406771Y-121776530D01*
X44428949Y-121787020D01*
X44449993Y-121799633D01*
X44469698Y-121814247D01*
X44487877Y-121830723D01*
X44504353Y-121848902D01*
X44518967Y-121868607D01*
X44531580Y-121889651D01*
X44542070Y-121911829D01*
X44550335Y-121934929D01*
X44556296Y-121958727D01*
X44559896Y-121982996D01*
X44561100Y-122007500D01*
X44561100Y-122932500D01*
X44559896Y-122957004D01*
X44556296Y-122981273D01*
X44550335Y-123005071D01*
X44542070Y-123028171D01*
X44531580Y-123050349D01*
X44518967Y-123071393D01*
X44504353Y-123091098D01*
X44487877Y-123109277D01*
X44469698Y-123125753D01*
X44449993Y-123140367D01*
X44428949Y-123152980D01*
X44406771Y-123163470D01*
X44383671Y-123171735D01*
X44359873Y-123177696D01*
X44335604Y-123181296D01*
X44311100Y-123182500D01*
X43061100Y-123182500D01*
X43036596Y-123181296D01*
X43012327Y-123177696D01*
X42988529Y-123171735D01*
X42965429Y-123163470D01*
X42943251Y-123152980D01*
X42922207Y-123140367D01*
X42902502Y-123125753D01*
X42884323Y-123109277D01*
X42867847Y-123091098D01*
X42853233Y-123071393D01*
X42840620Y-123050349D01*
X42830130Y-123028171D01*
X42821865Y-123005071D01*
X42815904Y-122981273D01*
X42812304Y-122957004D01*
X42811100Y-122932500D01*
X42811100Y-122007500D01*
X42812304Y-121982996D01*
X42815904Y-121958727D01*
X42821865Y-121934929D01*
X42830130Y-121911829D01*
X42840620Y-121889651D01*
X42853233Y-121868607D01*
X42867847Y-121848902D01*
X42884323Y-121830723D01*
X42902502Y-121814247D01*
X42922207Y-121799633D01*
X42943251Y-121787020D01*
X42965429Y-121776530D01*
X42988529Y-121768265D01*
X43012327Y-121762304D01*
X43036596Y-121758704D01*
X43061100Y-121757500D01*
X44311100Y-121757500D01*
X44335604Y-121758704D01*
X44335604Y-121758704D01*
G37*
D11*
X43686100Y-122470000D03*
G04 #@! TD*
D10*
G04 #@! TO.C,D22*
G36*
X141967004Y-102748704D02*
X141991273Y-102752304D01*
X142015071Y-102758265D01*
X142038171Y-102766530D01*
X142060349Y-102777020D01*
X142081393Y-102789633D01*
X142101098Y-102804247D01*
X142119277Y-102820723D01*
X142135753Y-102838902D01*
X142150367Y-102858607D01*
X142162980Y-102879651D01*
X142173470Y-102901829D01*
X142181735Y-102924929D01*
X142187696Y-102948727D01*
X142191296Y-102972996D01*
X142192500Y-102997500D01*
X142192500Y-103922500D01*
X142191296Y-103947004D01*
X142187696Y-103971273D01*
X142181735Y-103995071D01*
X142173470Y-104018171D01*
X142162980Y-104040349D01*
X142150367Y-104061393D01*
X142135753Y-104081098D01*
X142119277Y-104099277D01*
X142101098Y-104115753D01*
X142081393Y-104130367D01*
X142060349Y-104142980D01*
X142038171Y-104153470D01*
X142015071Y-104161735D01*
X141991273Y-104167696D01*
X141967004Y-104171296D01*
X141942500Y-104172500D01*
X140692500Y-104172500D01*
X140667996Y-104171296D01*
X140643727Y-104167696D01*
X140619929Y-104161735D01*
X140596829Y-104153470D01*
X140574651Y-104142980D01*
X140553607Y-104130367D01*
X140533902Y-104115753D01*
X140515723Y-104099277D01*
X140499247Y-104081098D01*
X140484633Y-104061393D01*
X140472020Y-104040349D01*
X140461530Y-104018171D01*
X140453265Y-103995071D01*
X140447304Y-103971273D01*
X140443704Y-103947004D01*
X140442500Y-103922500D01*
X140442500Y-102997500D01*
X140443704Y-102972996D01*
X140447304Y-102948727D01*
X140453265Y-102924929D01*
X140461530Y-102901829D01*
X140472020Y-102879651D01*
X140484633Y-102858607D01*
X140499247Y-102838902D01*
X140515723Y-102820723D01*
X140533902Y-102804247D01*
X140553607Y-102789633D01*
X140574651Y-102777020D01*
X140596829Y-102766530D01*
X140619929Y-102758265D01*
X140643727Y-102752304D01*
X140667996Y-102748704D01*
X140692500Y-102747500D01*
X141942500Y-102747500D01*
X141967004Y-102748704D01*
X141967004Y-102748704D01*
G37*
D11*
X141317500Y-103460000D03*
D10*
G36*
X141967004Y-105723704D02*
X141991273Y-105727304D01*
X142015071Y-105733265D01*
X142038171Y-105741530D01*
X142060349Y-105752020D01*
X142081393Y-105764633D01*
X142101098Y-105779247D01*
X142119277Y-105795723D01*
X142135753Y-105813902D01*
X142150367Y-105833607D01*
X142162980Y-105854651D01*
X142173470Y-105876829D01*
X142181735Y-105899929D01*
X142187696Y-105923727D01*
X142191296Y-105947996D01*
X142192500Y-105972500D01*
X142192500Y-106897500D01*
X142191296Y-106922004D01*
X142187696Y-106946273D01*
X142181735Y-106970071D01*
X142173470Y-106993171D01*
X142162980Y-107015349D01*
X142150367Y-107036393D01*
X142135753Y-107056098D01*
X142119277Y-107074277D01*
X142101098Y-107090753D01*
X142081393Y-107105367D01*
X142060349Y-107117980D01*
X142038171Y-107128470D01*
X142015071Y-107136735D01*
X141991273Y-107142696D01*
X141967004Y-107146296D01*
X141942500Y-107147500D01*
X140692500Y-107147500D01*
X140667996Y-107146296D01*
X140643727Y-107142696D01*
X140619929Y-107136735D01*
X140596829Y-107128470D01*
X140574651Y-107117980D01*
X140553607Y-107105367D01*
X140533902Y-107090753D01*
X140515723Y-107074277D01*
X140499247Y-107056098D01*
X140484633Y-107036393D01*
X140472020Y-107015349D01*
X140461530Y-106993171D01*
X140453265Y-106970071D01*
X140447304Y-106946273D01*
X140443704Y-106922004D01*
X140442500Y-106897500D01*
X140442500Y-105972500D01*
X140443704Y-105947996D01*
X140447304Y-105923727D01*
X140453265Y-105899929D01*
X140461530Y-105876829D01*
X140472020Y-105854651D01*
X140484633Y-105833607D01*
X140499247Y-105813902D01*
X140515723Y-105795723D01*
X140533902Y-105779247D01*
X140553607Y-105764633D01*
X140574651Y-105752020D01*
X140596829Y-105741530D01*
X140619929Y-105733265D01*
X140643727Y-105727304D01*
X140667996Y-105723704D01*
X140692500Y-105722500D01*
X141942500Y-105722500D01*
X141967004Y-105723704D01*
X141967004Y-105723704D01*
G37*
D11*
X141317500Y-106435000D03*
G04 #@! TD*
D10*
G04 #@! TO.C,D12*
G36*
X61004504Y-91138704D02*
X61028773Y-91142304D01*
X61052571Y-91148265D01*
X61075671Y-91156530D01*
X61097849Y-91167020D01*
X61118893Y-91179633D01*
X61138598Y-91194247D01*
X61156777Y-91210723D01*
X61173253Y-91228902D01*
X61187867Y-91248607D01*
X61200480Y-91269651D01*
X61210970Y-91291829D01*
X61219235Y-91314929D01*
X61225196Y-91338727D01*
X61228796Y-91362996D01*
X61230000Y-91387500D01*
X61230000Y-92312500D01*
X61228796Y-92337004D01*
X61225196Y-92361273D01*
X61219235Y-92385071D01*
X61210970Y-92408171D01*
X61200480Y-92430349D01*
X61187867Y-92451393D01*
X61173253Y-92471098D01*
X61156777Y-92489277D01*
X61138598Y-92505753D01*
X61118893Y-92520367D01*
X61097849Y-92532980D01*
X61075671Y-92543470D01*
X61052571Y-92551735D01*
X61028773Y-92557696D01*
X61004504Y-92561296D01*
X60980000Y-92562500D01*
X59730000Y-92562500D01*
X59705496Y-92561296D01*
X59681227Y-92557696D01*
X59657429Y-92551735D01*
X59634329Y-92543470D01*
X59612151Y-92532980D01*
X59591107Y-92520367D01*
X59571402Y-92505753D01*
X59553223Y-92489277D01*
X59536747Y-92471098D01*
X59522133Y-92451393D01*
X59509520Y-92430349D01*
X59499030Y-92408171D01*
X59490765Y-92385071D01*
X59484804Y-92361273D01*
X59481204Y-92337004D01*
X59480000Y-92312500D01*
X59480000Y-91387500D01*
X59481204Y-91362996D01*
X59484804Y-91338727D01*
X59490765Y-91314929D01*
X59499030Y-91291829D01*
X59509520Y-91269651D01*
X59522133Y-91248607D01*
X59536747Y-91228902D01*
X59553223Y-91210723D01*
X59571402Y-91194247D01*
X59591107Y-91179633D01*
X59612151Y-91167020D01*
X59634329Y-91156530D01*
X59657429Y-91148265D01*
X59681227Y-91142304D01*
X59705496Y-91138704D01*
X59730000Y-91137500D01*
X60980000Y-91137500D01*
X61004504Y-91138704D01*
X61004504Y-91138704D01*
G37*
D11*
X60355000Y-91850000D03*
D10*
G36*
X61004504Y-94113704D02*
X61028773Y-94117304D01*
X61052571Y-94123265D01*
X61075671Y-94131530D01*
X61097849Y-94142020D01*
X61118893Y-94154633D01*
X61138598Y-94169247D01*
X61156777Y-94185723D01*
X61173253Y-94203902D01*
X61187867Y-94223607D01*
X61200480Y-94244651D01*
X61210970Y-94266829D01*
X61219235Y-94289929D01*
X61225196Y-94313727D01*
X61228796Y-94337996D01*
X61230000Y-94362500D01*
X61230000Y-95287500D01*
X61228796Y-95312004D01*
X61225196Y-95336273D01*
X61219235Y-95360071D01*
X61210970Y-95383171D01*
X61200480Y-95405349D01*
X61187867Y-95426393D01*
X61173253Y-95446098D01*
X61156777Y-95464277D01*
X61138598Y-95480753D01*
X61118893Y-95495367D01*
X61097849Y-95507980D01*
X61075671Y-95518470D01*
X61052571Y-95526735D01*
X61028773Y-95532696D01*
X61004504Y-95536296D01*
X60980000Y-95537500D01*
X59730000Y-95537500D01*
X59705496Y-95536296D01*
X59681227Y-95532696D01*
X59657429Y-95526735D01*
X59634329Y-95518470D01*
X59612151Y-95507980D01*
X59591107Y-95495367D01*
X59571402Y-95480753D01*
X59553223Y-95464277D01*
X59536747Y-95446098D01*
X59522133Y-95426393D01*
X59509520Y-95405349D01*
X59499030Y-95383171D01*
X59490765Y-95360071D01*
X59484804Y-95336273D01*
X59481204Y-95312004D01*
X59480000Y-95287500D01*
X59480000Y-94362500D01*
X59481204Y-94337996D01*
X59484804Y-94313727D01*
X59490765Y-94289929D01*
X59499030Y-94266829D01*
X59509520Y-94244651D01*
X59522133Y-94223607D01*
X59536747Y-94203902D01*
X59553223Y-94185723D01*
X59571402Y-94169247D01*
X59591107Y-94154633D01*
X59612151Y-94142020D01*
X59634329Y-94131530D01*
X59657429Y-94123265D01*
X59681227Y-94117304D01*
X59705496Y-94113704D01*
X59730000Y-94112500D01*
X60980000Y-94112500D01*
X61004504Y-94113704D01*
X61004504Y-94113704D01*
G37*
D11*
X60355000Y-94825000D03*
G04 #@! TD*
D10*
G04 #@! TO.C,D20*
G36*
X103867004Y-105723704D02*
X103891273Y-105727304D01*
X103915071Y-105733265D01*
X103938171Y-105741530D01*
X103960349Y-105752020D01*
X103981393Y-105764633D01*
X104001098Y-105779247D01*
X104019277Y-105795723D01*
X104035753Y-105813902D01*
X104050367Y-105833607D01*
X104062980Y-105854651D01*
X104073470Y-105876829D01*
X104081735Y-105899929D01*
X104087696Y-105923727D01*
X104091296Y-105947996D01*
X104092500Y-105972500D01*
X104092500Y-106897500D01*
X104091296Y-106922004D01*
X104087696Y-106946273D01*
X104081735Y-106970071D01*
X104073470Y-106993171D01*
X104062980Y-107015349D01*
X104050367Y-107036393D01*
X104035753Y-107056098D01*
X104019277Y-107074277D01*
X104001098Y-107090753D01*
X103981393Y-107105367D01*
X103960349Y-107117980D01*
X103938171Y-107128470D01*
X103915071Y-107136735D01*
X103891273Y-107142696D01*
X103867004Y-107146296D01*
X103842500Y-107147500D01*
X102592500Y-107147500D01*
X102567996Y-107146296D01*
X102543727Y-107142696D01*
X102519929Y-107136735D01*
X102496829Y-107128470D01*
X102474651Y-107117980D01*
X102453607Y-107105367D01*
X102433902Y-107090753D01*
X102415723Y-107074277D01*
X102399247Y-107056098D01*
X102384633Y-107036393D01*
X102372020Y-107015349D01*
X102361530Y-106993171D01*
X102353265Y-106970071D01*
X102347304Y-106946273D01*
X102343704Y-106922004D01*
X102342500Y-106897500D01*
X102342500Y-105972500D01*
X102343704Y-105947996D01*
X102347304Y-105923727D01*
X102353265Y-105899929D01*
X102361530Y-105876829D01*
X102372020Y-105854651D01*
X102384633Y-105833607D01*
X102399247Y-105813902D01*
X102415723Y-105795723D01*
X102433902Y-105779247D01*
X102453607Y-105764633D01*
X102474651Y-105752020D01*
X102496829Y-105741530D01*
X102519929Y-105733265D01*
X102543727Y-105727304D01*
X102567996Y-105723704D01*
X102592500Y-105722500D01*
X103842500Y-105722500D01*
X103867004Y-105723704D01*
X103867004Y-105723704D01*
G37*
D11*
X103217500Y-106435000D03*
D10*
G36*
X103867004Y-102748704D02*
X103891273Y-102752304D01*
X103915071Y-102758265D01*
X103938171Y-102766530D01*
X103960349Y-102777020D01*
X103981393Y-102789633D01*
X104001098Y-102804247D01*
X104019277Y-102820723D01*
X104035753Y-102838902D01*
X104050367Y-102858607D01*
X104062980Y-102879651D01*
X104073470Y-102901829D01*
X104081735Y-102924929D01*
X104087696Y-102948727D01*
X104091296Y-102972996D01*
X104092500Y-102997500D01*
X104092500Y-103922500D01*
X104091296Y-103947004D01*
X104087696Y-103971273D01*
X104081735Y-103995071D01*
X104073470Y-104018171D01*
X104062980Y-104040349D01*
X104050367Y-104061393D01*
X104035753Y-104081098D01*
X104019277Y-104099277D01*
X104001098Y-104115753D01*
X103981393Y-104130367D01*
X103960349Y-104142980D01*
X103938171Y-104153470D01*
X103915071Y-104161735D01*
X103891273Y-104167696D01*
X103867004Y-104171296D01*
X103842500Y-104172500D01*
X102592500Y-104172500D01*
X102567996Y-104171296D01*
X102543727Y-104167696D01*
X102519929Y-104161735D01*
X102496829Y-104153470D01*
X102474651Y-104142980D01*
X102453607Y-104130367D01*
X102433902Y-104115753D01*
X102415723Y-104099277D01*
X102399247Y-104081098D01*
X102384633Y-104061393D01*
X102372020Y-104040349D01*
X102361530Y-104018171D01*
X102353265Y-103995071D01*
X102347304Y-103971273D01*
X102343704Y-103947004D01*
X102342500Y-103922500D01*
X102342500Y-102997500D01*
X102343704Y-102972996D01*
X102347304Y-102948727D01*
X102353265Y-102924929D01*
X102361530Y-102901829D01*
X102372020Y-102879651D01*
X102384633Y-102858607D01*
X102399247Y-102838902D01*
X102415723Y-102820723D01*
X102433902Y-102804247D01*
X102453607Y-102789633D01*
X102474651Y-102777020D01*
X102496829Y-102766530D01*
X102519929Y-102758265D01*
X102543727Y-102752304D01*
X102567996Y-102748704D01*
X102592500Y-102747500D01*
X103842500Y-102747500D01*
X103867004Y-102748704D01*
X103867004Y-102748704D01*
G37*
D11*
X103217500Y-103460000D03*
G04 #@! TD*
D10*
G04 #@! TO.C,D14*
G36*
X99104504Y-86603704D02*
X99128773Y-86607304D01*
X99152571Y-86613265D01*
X99175671Y-86621530D01*
X99197849Y-86632020D01*
X99218893Y-86644633D01*
X99238598Y-86659247D01*
X99256777Y-86675723D01*
X99273253Y-86693902D01*
X99287867Y-86713607D01*
X99300480Y-86734651D01*
X99310970Y-86756829D01*
X99319235Y-86779929D01*
X99325196Y-86803727D01*
X99328796Y-86827996D01*
X99330000Y-86852500D01*
X99330000Y-87777500D01*
X99328796Y-87802004D01*
X99325196Y-87826273D01*
X99319235Y-87850071D01*
X99310970Y-87873171D01*
X99300480Y-87895349D01*
X99287867Y-87916393D01*
X99273253Y-87936098D01*
X99256777Y-87954277D01*
X99238598Y-87970753D01*
X99218893Y-87985367D01*
X99197849Y-87997980D01*
X99175671Y-88008470D01*
X99152571Y-88016735D01*
X99128773Y-88022696D01*
X99104504Y-88026296D01*
X99080000Y-88027500D01*
X97830000Y-88027500D01*
X97805496Y-88026296D01*
X97781227Y-88022696D01*
X97757429Y-88016735D01*
X97734329Y-88008470D01*
X97712151Y-87997980D01*
X97691107Y-87985367D01*
X97671402Y-87970753D01*
X97653223Y-87954277D01*
X97636747Y-87936098D01*
X97622133Y-87916393D01*
X97609520Y-87895349D01*
X97599030Y-87873171D01*
X97590765Y-87850071D01*
X97584804Y-87826273D01*
X97581204Y-87802004D01*
X97580000Y-87777500D01*
X97580000Y-86852500D01*
X97581204Y-86827996D01*
X97584804Y-86803727D01*
X97590765Y-86779929D01*
X97599030Y-86756829D01*
X97609520Y-86734651D01*
X97622133Y-86713607D01*
X97636747Y-86693902D01*
X97653223Y-86675723D01*
X97671402Y-86659247D01*
X97691107Y-86644633D01*
X97712151Y-86632020D01*
X97734329Y-86621530D01*
X97757429Y-86613265D01*
X97781227Y-86607304D01*
X97805496Y-86603704D01*
X97830000Y-86602500D01*
X99080000Y-86602500D01*
X99104504Y-86603704D01*
X99104504Y-86603704D01*
G37*
D11*
X98455000Y-87315000D03*
D10*
G36*
X99104504Y-83628704D02*
X99128773Y-83632304D01*
X99152571Y-83638265D01*
X99175671Y-83646530D01*
X99197849Y-83657020D01*
X99218893Y-83669633D01*
X99238598Y-83684247D01*
X99256777Y-83700723D01*
X99273253Y-83718902D01*
X99287867Y-83738607D01*
X99300480Y-83759651D01*
X99310970Y-83781829D01*
X99319235Y-83804929D01*
X99325196Y-83828727D01*
X99328796Y-83852996D01*
X99330000Y-83877500D01*
X99330000Y-84802500D01*
X99328796Y-84827004D01*
X99325196Y-84851273D01*
X99319235Y-84875071D01*
X99310970Y-84898171D01*
X99300480Y-84920349D01*
X99287867Y-84941393D01*
X99273253Y-84961098D01*
X99256777Y-84979277D01*
X99238598Y-84995753D01*
X99218893Y-85010367D01*
X99197849Y-85022980D01*
X99175671Y-85033470D01*
X99152571Y-85041735D01*
X99128773Y-85047696D01*
X99104504Y-85051296D01*
X99080000Y-85052500D01*
X97830000Y-85052500D01*
X97805496Y-85051296D01*
X97781227Y-85047696D01*
X97757429Y-85041735D01*
X97734329Y-85033470D01*
X97712151Y-85022980D01*
X97691107Y-85010367D01*
X97671402Y-84995753D01*
X97653223Y-84979277D01*
X97636747Y-84961098D01*
X97622133Y-84941393D01*
X97609520Y-84920349D01*
X97599030Y-84898171D01*
X97590765Y-84875071D01*
X97584804Y-84851273D01*
X97581204Y-84827004D01*
X97580000Y-84802500D01*
X97580000Y-83877500D01*
X97581204Y-83852996D01*
X97584804Y-83828727D01*
X97590765Y-83804929D01*
X97599030Y-83781829D01*
X97609520Y-83759651D01*
X97622133Y-83738607D01*
X97636747Y-83718902D01*
X97653223Y-83700723D01*
X97671402Y-83684247D01*
X97691107Y-83669633D01*
X97712151Y-83657020D01*
X97734329Y-83646530D01*
X97757429Y-83638265D01*
X97781227Y-83632304D01*
X97805496Y-83628704D01*
X97830000Y-83627500D01*
X99080000Y-83627500D01*
X99104504Y-83628704D01*
X99104504Y-83628704D01*
G37*
D11*
X98455000Y-84340000D03*
G04 #@! TD*
D10*
G04 #@! TO.C,D15*
G36*
X118154504Y-83628704D02*
X118178773Y-83632304D01*
X118202571Y-83638265D01*
X118225671Y-83646530D01*
X118247849Y-83657020D01*
X118268893Y-83669633D01*
X118288598Y-83684247D01*
X118306777Y-83700723D01*
X118323253Y-83718902D01*
X118337867Y-83738607D01*
X118350480Y-83759651D01*
X118360970Y-83781829D01*
X118369235Y-83804929D01*
X118375196Y-83828727D01*
X118378796Y-83852996D01*
X118380000Y-83877500D01*
X118380000Y-84802500D01*
X118378796Y-84827004D01*
X118375196Y-84851273D01*
X118369235Y-84875071D01*
X118360970Y-84898171D01*
X118350480Y-84920349D01*
X118337867Y-84941393D01*
X118323253Y-84961098D01*
X118306777Y-84979277D01*
X118288598Y-84995753D01*
X118268893Y-85010367D01*
X118247849Y-85022980D01*
X118225671Y-85033470D01*
X118202571Y-85041735D01*
X118178773Y-85047696D01*
X118154504Y-85051296D01*
X118130000Y-85052500D01*
X116880000Y-85052500D01*
X116855496Y-85051296D01*
X116831227Y-85047696D01*
X116807429Y-85041735D01*
X116784329Y-85033470D01*
X116762151Y-85022980D01*
X116741107Y-85010367D01*
X116721402Y-84995753D01*
X116703223Y-84979277D01*
X116686747Y-84961098D01*
X116672133Y-84941393D01*
X116659520Y-84920349D01*
X116649030Y-84898171D01*
X116640765Y-84875071D01*
X116634804Y-84851273D01*
X116631204Y-84827004D01*
X116630000Y-84802500D01*
X116630000Y-83877500D01*
X116631204Y-83852996D01*
X116634804Y-83828727D01*
X116640765Y-83804929D01*
X116649030Y-83781829D01*
X116659520Y-83759651D01*
X116672133Y-83738607D01*
X116686747Y-83718902D01*
X116703223Y-83700723D01*
X116721402Y-83684247D01*
X116741107Y-83669633D01*
X116762151Y-83657020D01*
X116784329Y-83646530D01*
X116807429Y-83638265D01*
X116831227Y-83632304D01*
X116855496Y-83628704D01*
X116880000Y-83627500D01*
X118130000Y-83627500D01*
X118154504Y-83628704D01*
X118154504Y-83628704D01*
G37*
D11*
X117505000Y-84340000D03*
D10*
G36*
X118154504Y-86603704D02*
X118178773Y-86607304D01*
X118202571Y-86613265D01*
X118225671Y-86621530D01*
X118247849Y-86632020D01*
X118268893Y-86644633D01*
X118288598Y-86659247D01*
X118306777Y-86675723D01*
X118323253Y-86693902D01*
X118337867Y-86713607D01*
X118350480Y-86734651D01*
X118360970Y-86756829D01*
X118369235Y-86779929D01*
X118375196Y-86803727D01*
X118378796Y-86827996D01*
X118380000Y-86852500D01*
X118380000Y-87777500D01*
X118378796Y-87802004D01*
X118375196Y-87826273D01*
X118369235Y-87850071D01*
X118360970Y-87873171D01*
X118350480Y-87895349D01*
X118337867Y-87916393D01*
X118323253Y-87936098D01*
X118306777Y-87954277D01*
X118288598Y-87970753D01*
X118268893Y-87985367D01*
X118247849Y-87997980D01*
X118225671Y-88008470D01*
X118202571Y-88016735D01*
X118178773Y-88022696D01*
X118154504Y-88026296D01*
X118130000Y-88027500D01*
X116880000Y-88027500D01*
X116855496Y-88026296D01*
X116831227Y-88022696D01*
X116807429Y-88016735D01*
X116784329Y-88008470D01*
X116762151Y-87997980D01*
X116741107Y-87985367D01*
X116721402Y-87970753D01*
X116703223Y-87954277D01*
X116686747Y-87936098D01*
X116672133Y-87916393D01*
X116659520Y-87895349D01*
X116649030Y-87873171D01*
X116640765Y-87850071D01*
X116634804Y-87826273D01*
X116631204Y-87802004D01*
X116630000Y-87777500D01*
X116630000Y-86852500D01*
X116631204Y-86827996D01*
X116634804Y-86803727D01*
X116640765Y-86779929D01*
X116649030Y-86756829D01*
X116659520Y-86734651D01*
X116672133Y-86713607D01*
X116686747Y-86693902D01*
X116703223Y-86675723D01*
X116721402Y-86659247D01*
X116741107Y-86644633D01*
X116762151Y-86632020D01*
X116784329Y-86621530D01*
X116807429Y-86613265D01*
X116831227Y-86607304D01*
X116855496Y-86603704D01*
X116880000Y-86602500D01*
X118130000Y-86602500D01*
X118154504Y-86603704D01*
X118154504Y-86603704D01*
G37*
D11*
X117505000Y-87315000D03*
G04 #@! TD*
D10*
G04 #@! TO.C,D21*
G36*
X122917004Y-105723704D02*
X122941273Y-105727304D01*
X122965071Y-105733265D01*
X122988171Y-105741530D01*
X123010349Y-105752020D01*
X123031393Y-105764633D01*
X123051098Y-105779247D01*
X123069277Y-105795723D01*
X123085753Y-105813902D01*
X123100367Y-105833607D01*
X123112980Y-105854651D01*
X123123470Y-105876829D01*
X123131735Y-105899929D01*
X123137696Y-105923727D01*
X123141296Y-105947996D01*
X123142500Y-105972500D01*
X123142500Y-106897500D01*
X123141296Y-106922004D01*
X123137696Y-106946273D01*
X123131735Y-106970071D01*
X123123470Y-106993171D01*
X123112980Y-107015349D01*
X123100367Y-107036393D01*
X123085753Y-107056098D01*
X123069277Y-107074277D01*
X123051098Y-107090753D01*
X123031393Y-107105367D01*
X123010349Y-107117980D01*
X122988171Y-107128470D01*
X122965071Y-107136735D01*
X122941273Y-107142696D01*
X122917004Y-107146296D01*
X122892500Y-107147500D01*
X121642500Y-107147500D01*
X121617996Y-107146296D01*
X121593727Y-107142696D01*
X121569929Y-107136735D01*
X121546829Y-107128470D01*
X121524651Y-107117980D01*
X121503607Y-107105367D01*
X121483902Y-107090753D01*
X121465723Y-107074277D01*
X121449247Y-107056098D01*
X121434633Y-107036393D01*
X121422020Y-107015349D01*
X121411530Y-106993171D01*
X121403265Y-106970071D01*
X121397304Y-106946273D01*
X121393704Y-106922004D01*
X121392500Y-106897500D01*
X121392500Y-105972500D01*
X121393704Y-105947996D01*
X121397304Y-105923727D01*
X121403265Y-105899929D01*
X121411530Y-105876829D01*
X121422020Y-105854651D01*
X121434633Y-105833607D01*
X121449247Y-105813902D01*
X121465723Y-105795723D01*
X121483902Y-105779247D01*
X121503607Y-105764633D01*
X121524651Y-105752020D01*
X121546829Y-105741530D01*
X121569929Y-105733265D01*
X121593727Y-105727304D01*
X121617996Y-105723704D01*
X121642500Y-105722500D01*
X122892500Y-105722500D01*
X122917004Y-105723704D01*
X122917004Y-105723704D01*
G37*
D11*
X122267500Y-106435000D03*
D10*
G36*
X122917004Y-102748704D02*
X122941273Y-102752304D01*
X122965071Y-102758265D01*
X122988171Y-102766530D01*
X123010349Y-102777020D01*
X123031393Y-102789633D01*
X123051098Y-102804247D01*
X123069277Y-102820723D01*
X123085753Y-102838902D01*
X123100367Y-102858607D01*
X123112980Y-102879651D01*
X123123470Y-102901829D01*
X123131735Y-102924929D01*
X123137696Y-102948727D01*
X123141296Y-102972996D01*
X123142500Y-102997500D01*
X123142500Y-103922500D01*
X123141296Y-103947004D01*
X123137696Y-103971273D01*
X123131735Y-103995071D01*
X123123470Y-104018171D01*
X123112980Y-104040349D01*
X123100367Y-104061393D01*
X123085753Y-104081098D01*
X123069277Y-104099277D01*
X123051098Y-104115753D01*
X123031393Y-104130367D01*
X123010349Y-104142980D01*
X122988171Y-104153470D01*
X122965071Y-104161735D01*
X122941273Y-104167696D01*
X122917004Y-104171296D01*
X122892500Y-104172500D01*
X121642500Y-104172500D01*
X121617996Y-104171296D01*
X121593727Y-104167696D01*
X121569929Y-104161735D01*
X121546829Y-104153470D01*
X121524651Y-104142980D01*
X121503607Y-104130367D01*
X121483902Y-104115753D01*
X121465723Y-104099277D01*
X121449247Y-104081098D01*
X121434633Y-104061393D01*
X121422020Y-104040349D01*
X121411530Y-104018171D01*
X121403265Y-103995071D01*
X121397304Y-103971273D01*
X121393704Y-103947004D01*
X121392500Y-103922500D01*
X121392500Y-102997500D01*
X121393704Y-102972996D01*
X121397304Y-102948727D01*
X121403265Y-102924929D01*
X121411530Y-102901829D01*
X121422020Y-102879651D01*
X121434633Y-102858607D01*
X121449247Y-102838902D01*
X121465723Y-102820723D01*
X121483902Y-102804247D01*
X121503607Y-102789633D01*
X121524651Y-102777020D01*
X121546829Y-102766530D01*
X121569929Y-102758265D01*
X121593727Y-102752304D01*
X121617996Y-102748704D01*
X121642500Y-102747500D01*
X122892500Y-102747500D01*
X122917004Y-102748704D01*
X122917004Y-102748704D01*
G37*
D11*
X122267500Y-103460000D03*
G04 #@! TD*
D12*
G04 #@! TO.C,SW29*
X81786000Y-135950000D03*
X95756000Y-133410000D03*
G04 #@! TD*
G04 #@! TO.C,SW22*
X155287500Y-95310000D03*
X141317500Y-97850000D03*
G04 #@! TD*
G04 #@! TO.C,SW24*
X74642500Y-116900000D03*
X88612500Y-114360000D03*
G04 #@! TD*
G04 #@! TO.C,SW20*
X117187500Y-95310000D03*
X103217500Y-97850000D03*
G04 #@! TD*
G04 #@! TO.C,SW9*
X107980000Y-59750000D03*
X121950000Y-57210000D03*
G04 #@! TD*
G04 #@! TO.C,SW30*
X119568500Y-133410000D03*
X105598500Y-135950000D03*
G04 #@! TD*
G04 #@! TO.C,SW5*
X31780000Y-59750000D03*
X45750000Y-57210000D03*
G04 #@! TD*
G04 #@! TO.C,SW17*
X52893900Y-95310000D03*
X38923900Y-97850000D03*
G04 #@! TD*
G04 #@! TO.C,SW6*
X64800000Y-57210000D03*
X50830000Y-59750000D03*
G04 #@! TD*
G04 #@! TO.C,SW11*
X36542500Y-78800000D03*
X50512500Y-76260000D03*
G04 #@! TD*
G04 #@! TO.C,SW10*
X141000000Y-57210000D03*
X127030000Y-59750000D03*
G04 #@! TD*
G04 #@! TO.C,SW27*
X145762500Y-114360000D03*
X131792500Y-116900000D03*
G04 #@! TD*
G04 #@! TO.C,SW8*
X102900000Y-57210000D03*
X88930000Y-59750000D03*
G04 #@! TD*
G04 #@! TO.C,SW26*
X112742500Y-116900000D03*
X126712500Y-114360000D03*
G04 #@! TD*
G04 #@! TO.C,SW14*
X98455000Y-78800000D03*
X112425000Y-76260000D03*
G04 #@! TD*
G04 #@! TO.C,SW31*
X152906000Y-133410000D03*
X138936000Y-135950000D03*
G04 #@! TD*
G04 #@! TO.C,SW7*
X69880000Y-59750000D03*
X83850000Y-57210000D03*
G04 #@! TD*
G04 #@! TO.C,SW12*
X60355000Y-78800000D03*
X74325000Y-76260000D03*
G04 #@! TD*
G04 #@! TO.C,SW13*
X93375000Y-76260000D03*
X79405000Y-78800000D03*
G04 #@! TD*
G04 #@! TO.C,SW21*
X122267500Y-97850000D03*
X136237500Y-95310000D03*
G04 #@! TD*
G04 #@! TO.C,SW15*
X131475000Y-76260000D03*
X117505000Y-78800000D03*
G04 #@! TD*
G04 #@! TO.C,SW16*
X136555000Y-78800000D03*
X150525000Y-76260000D03*
G04 #@! TD*
G04 #@! TO.C,SW25*
X107662500Y-114360000D03*
X93692500Y-116900000D03*
G04 #@! TD*
G04 #@! TO.C,SW28*
X150842500Y-116900000D03*
X164812500Y-114360000D03*
G04 #@! TD*
G04 #@! TO.C,SW23*
X57656100Y-114360000D03*
X43686100Y-116900000D03*
G04 #@! TD*
G04 #@! TO.C,SW19*
X98137500Y-95310000D03*
X84167500Y-97850000D03*
G04 #@! TD*
M02*
