M48
;DRILL file {KiCad (5.0.2)-1} date 2019/02/16 22:04:39
;FORMAT={3:3/ absolute / metric / suppress trailing zeros}
FMAT,2
METRIC,LZ
T1C0.400
T2C0.762
T3C0.813
T4C1.000
%
G90
G05
T1
X03015Y-10707
X03091Y-09849
X03178Y-07011
X03179Y-04636
X0318Y-12745
X03264Y-07112
X03368Y-13336
X03372Y-08498
X03481Y-10705
X035Y-11945
X03521Y-06902
X0355Y-09472
X03636Y-09789
X03659Y-05623
X03713Y-03172
X03896Y-10804
X04026Y-07114
X04201Y-14701
X0446Y-10528
X04498Y-06572
X04533Y-09246
X04635Y-12541
X0481Y-06904
X0503Y-13346
X05083Y-07011
X05109Y-049
X05422Y-0865
X05423Y-07011
X0554Y-04774
X05555Y-10804
X05619Y-05623
X05672Y-08488
X05771Y-09468
X05907Y-13103
X05938Y-10664
X06039Y-04634
X06039Y-04634
X06057Y-1242
X0607Y-1066
X06171Y-06449
X06306Y-09485
X06511Y-10804
X06543Y-02864
X06543Y-07113
X06883Y-09383
X06988Y-07011
X07118Y-08334
X07206Y-1242
X07334Y-05601
X07464Y-12738
X0794Y-08964
X07942Y-0464
X08068Y-07233
X08159Y-11187
X08417Y-14455
X0842Y-10804
X08657Y-14196
X08738Y-09362
X08765Y-02883
X08893Y-07004
X09167Y-12982
X09362Y-05616
X09369Y-12738
X09398Y-0868
X0957Y-13102
X09844Y-0464
X09846Y-08964
X10034Y-07517
X10319Y-10803
X1032Y-14462
X10546Y-02913
X10746Y-0939
X10792Y-14455
X10798Y-07004
X11012Y-13253
X11063Y-12888
X11274Y-12738
X11296Y-05625
X11298Y-08577
X11749Y-04636
X1175Y-08964
X11934Y-07543
X11966Y-12985
X12222Y-10806
X12483Y-02905
X12695Y-09346
X12705Y-07004
X13179Y-12738
X13212Y-08433
X13317Y-05625
X13612Y-14352
X13656Y-08964
X141Y-07368
X14131Y-10806
X14201Y-06994
X14351Y-06904
X14397Y-08536
X14652Y-1444
X14702Y-0939
X15082Y-12738
X15306Y-12884
X15845Y-13867
T2
X03264Y-07309
X03264Y-08833
X03518Y-07309
X03518Y-08833
X03772Y-07309
X03772Y-08833
X04026Y-07309
X04026Y-08833
X0428Y-07309
X0428Y-08833
X04534Y-07309
X04534Y-08833
X04788Y-07309
X04788Y-08833
X05042Y-07309
X05042Y-08833
X05296Y-07309
X05296Y-08833
X05557Y-07309
X05557Y-08833
X05811Y-07309
X05811Y-08833
X06065Y-07309
X06065Y-08833
T3
X06729Y-13521
X06729Y-14029
X07491Y-13521
X07491Y-14029
T4
X05109Y-03102G85X05109Y-03152
G05
X05109Y-03402G85X05109Y-03452
G05
X05109Y-03802G85X05109Y-03852
G05
X05539Y-03952G85X05539Y-04002
G05
X14572Y-05797G85X14572Y-05847
G05
X14572Y-06097G85X14572Y-06147
G05
X14572Y-06497G85X14572Y-06547
G05
X15002Y-06647G85X15002Y-06697
G05
T0
M30
