M48
;DRILL file {KiCad (5.0.2)-1} date 2019/02/16 22:04:39
;FORMAT={3:3/ absolute / metric / suppress trailing zeros}
FMAT,2
METRIC,LZ
T1C1.000
T2C1.200
T3C1.800
T4C2.200
T5C3.000
T6C3.050
T7C4.000
%
G90
G05
T2
X05324Y-02947
X05324Y-03647
X14787Y-05642
X14787Y-06342
T3
X086708Y-10039
X096868Y-10039
X096233Y-11944
X106393Y-11944
X120045Y-038478
X130205Y-038478
X039082Y-08134
X049243Y-08134
X12957Y-06229
X13973Y-06229
X139095Y-08134
X149255Y-08134
X153382Y-11944
X163543Y-11944
X03432Y-06229
X04448Y-06229
X046226Y-11944
X056386Y-11944
X03432Y-038478
X04448Y-038478
X077182Y-11944
X087343Y-11944
X09147Y-06229
X10163Y-06229
X067658Y-10039
X077818Y-10039
X120045Y-08134
X130205Y-08134
X108139Y-13849
X118298Y-13849
X100995Y-038478
X111155Y-038478
X143857Y-10039
X154017Y-10039
X134332Y-11944
X144493Y-11944
X062895Y-038478
X073055Y-038478
X081945Y-08134
X092105Y-08134
X105757Y-10039
X115918Y-10039
X05337Y-06229
X06353Y-06229
X124807Y-10039
X134968Y-10039
X07242Y-06229
X08258Y-06229
X141476Y-13849
X151636Y-13849
X081945Y-038478
X092105Y-038478
X11052Y-06229
X12068Y-06229
X041464Y-10039
X051624Y-10039
X062895Y-08134
X073055Y-08134
X084326Y-13849
X094486Y-13849
X100995Y-08134
X111155Y-08134
X115283Y-11944
X125443Y-11944
T4
X0775Y-07183
X12988Y-10989
X07274Y-10994
X16599Y-14902
X02988Y-14902
X137418Y-02797
X13465Y-07184
X02988Y-02797
X02988Y-05492
T5
X116552Y-1169
X122902Y-11436
X087977Y-09785
X094328Y-09531
X097503Y-1169
X103852Y-11436
X121315Y-035938
X127665Y-033398
X040353Y-0788
X046703Y-07626
X13084Y-05975
X13719Y-05721
X140365Y-0788
X146715Y-07626
X154653Y-1169
X161003Y-11436
X03559Y-05975
X04194Y-05721
X047496Y-1169
X053846Y-11436
X03559Y-035938
X04194Y-033398
X078453Y-1169
X084803Y-11436
X09274Y-05975
X09909Y-05721
X068928Y-09785
X075278Y-09531
X121315Y-0788
X127665Y-07626
X109408Y-13595
X115759Y-13341
X102265Y-035938
X108615Y-033398
X145128Y-09785
X151477Y-09531
X135602Y-1169
X141952Y-11436
X064165Y-035938
X070515Y-033398
X083215Y-0788
X089565Y-07626
X107027Y-09785
X113378Y-09531
X05464Y-05975
X06099Y-05721
X126078Y-09785
X132427Y-09531
X07369Y-05975
X08004Y-05721
X142746Y-13595
X149096Y-13341
X083215Y-035938
X089565Y-033398
X11179Y-05975
X11814Y-05721
X042734Y-09785
X049084Y-09531
X064165Y-0788
X070515Y-07626
X085596Y-13595
X091946Y-13341
X102265Y-0788
X108615Y-07626
T6
X039406Y-11244
X063206Y-11244
X134656Y-13149
X158456Y-13149
T7
X120363Y-11944
X091788Y-10039
X101313Y-11944
X125125Y-038478
X044163Y-08134
X13465Y-06229
X144175Y-08134
X158463Y-11944
X0394Y-06229
X039406Y-12768
X051306Y-11944
X063206Y-12768
X0394Y-038478
X082263Y-11944
X09655Y-06229
X072738Y-10039
X125125Y-08134
X113218Y-13849
X106075Y-038478
X148938Y-10039
X139413Y-11944
X067975Y-038478
X087025Y-08134
X110838Y-10039
X05845Y-06229
X129888Y-10039
X0775Y-06229
X134656Y-14673
X146556Y-13849
X158456Y-14673
X087025Y-038478
X1156Y-06229
X046544Y-10039
X067975Y-08134
X089406Y-13849
X106075Y-08134
T1
X125736Y-05231G85X139024Y-05231
G05
X04935Y-05231G85X06485Y-05231
G05
X0684Y-05231G85X0839Y-05231
G05
X1065Y-05231G85X122Y-05231
G05
X0283Y-05231G85X0458Y-05231
G05
X08745Y-05231G85X10295Y-05231
G05
T0
M30
