M48
;DRILL file {KiCad (5.0.2)-1} date 2019/02/16 22:06:01
;FORMAT={3:3/ absolute / metric / suppress trailing zeros}
FMAT,2
METRIC,LZ
T1C0.400
T2C0.762
T3C0.813
T4C1.000
%
G90
G05
T1
X19609Y-04667
X20201Y-03015
X21514Y-04667
X21514Y-06986
X21987Y-12722
X22175Y-03032
X22233Y-13971
X22466Y-08927
X22473Y-07544
X22477Y-07357
X22573Y-06505
X22766Y-0859
X22943Y-10821
X22955Y-12267
X23389Y-14451
X23419Y-04667
X23419Y-06986
X23499Y-10965
X23672Y-09222
X23895Y-12722
X23957Y-08648
X23972Y-03102
X2407Y-07872
X24292Y-1132
X2437Y-08927
X24488Y-06493
X24847Y-10821
X2486Y-14155
X25075Y-05444
X25323Y-04667
X25324Y-06986
X25356Y-0937
X25418Y-08428
X25701Y-137
X25801Y-12722
X25926Y-03106
X26084Y-1132
X26244Y-14337
X26277Y-08927
X26442Y-06467
X26515Y-14623
X26519Y-11209
X26752Y-10821
X27177Y-0937
X27229Y-06986
X27272Y-13051
X27349Y-08389
X27589Y-04828
X27707Y-12722
X28182Y-04667
X28182Y-08927
X28189Y-13341
X28317Y-06484
X284Y-11564
X28656Y-10821
X2871Y-03171
X28925Y-13757
X29055Y-09416
X29134Y-06986
X29211Y-12905
X29242Y-08383
X29609Y-12722
X29856Y-07383
X29991Y-11337
X30086Y-04667
X30087Y-08927
X30193Y-06441
X30563Y-10821
X30574Y-03189
X30663Y-12722
X30717Y-0937
X30758Y-06664
X30763Y-07543
X31038Y-14623
X31039Y-06986
X31147Y-12819
X31152Y-08507
X31514Y-12722
X31555Y-08519
X31734Y-13484
X31747Y-07612
X31991Y-04667
X31992Y-08927
X32094Y-06504
X32443Y-13056
X32461Y-10821
X32541Y-03193
X32903Y-09351
X32943Y-14623
X32944Y-06986
X33063Y-13048
X33353Y-06504
X33637Y-13457
X33896Y-08927
X33897Y-04667
X33924Y-09869
X34075Y-06838
X34206Y-06543
X34206Y-06838
X34341Y-10413
X34343Y-11518
X34343Y-11813
X34344Y-12905
X34436Y-03193
X34585Y-07202
X34598Y-09119
X34598Y-10423
X3484Y-12379
X34849Y-06989
X34849Y-14623
X34966Y-11162
X35044Y-06535
X35058Y-08927
X35279Y-10527
X35393Y-09231
X35472Y-05741
X35529Y-13451
X35548Y-08648
X35553Y-08519
X35562Y-0684
X35609Y-04465
X35648Y-07092
X35653Y-07631
X35737Y-11449
X35797Y-08645
X35901Y-09374
X36102Y-09235
X36253Y-12491
X3629Y-08517
X3629Y-09119
X36363Y-07483
X36411Y-06996
X36612Y-10265
X36752Y-14623
X36997Y-11623
X37327Y-06724
X37332Y-03155
X37366Y-13071
X37443Y-13458
X37488Y-12068
X37726Y-09906
X37808Y-06968
X37855Y-12537
X37877Y-10121
X37917Y-06734
X38005Y-11844
X380133Y-075535
X3815Y-0709
X3815Y-12905
X38226Y-11623
X38407Y-14322
X38543Y-14484
T2
X35394Y-07309
X35394Y-08833
X35648Y-07309
X35648Y-08833
X35902Y-07309
X35902Y-08833
X36163Y-07309
X36163Y-08833
X36417Y-07309
X36417Y-08833
X36671Y-07309
X36671Y-08833
X36925Y-07309
X36925Y-08833
X37179Y-07309
X37179Y-08833
X37433Y-07309
X37433Y-08833
X37687Y-07309
X37687Y-08833
X37941Y-07309
X37941Y-08833
X38195Y-07309
X38195Y-08833
T3
X29766Y-13521
X29766Y-14029
X30528Y-13521
X30528Y-14029
T4
X35858Y-03102G85X35858Y-03152
G05
X35858Y-03402G85X35858Y-03452
G05
X35858Y-03802G85X35858Y-03852
G05
X36288Y-03952G85X36288Y-04002
G05
X20714Y-05784G85X20714Y-05834
G05
X20714Y-06084G85X20714Y-06134
G05
X20714Y-06484G85X20714Y-06534
G05
X21144Y-06634G85X21144Y-06684
G05
T0
M30
