M48
;DRILL file {KiCad (5.0.2)-1} date 2019/02/16 22:06:01
;FORMAT={3:3/ absolute / metric / suppress trailing zeros}
FMAT,2
METRIC,LZ
T1C1.000
T2C1.200
T3C1.800
T4C2.200
T5C3.000
T6C3.050
T7C4.000
%
G90
G05
T2
X36073Y-02947
X36073Y-03647
X20929Y-05629
X20929Y-06329
T3
X365318Y-08134
X375478Y-08134
X21768Y-038478
X22784Y-038478
X358174Y-10039
X368334Y-10039
X265305Y-08134
X275465Y-08134
X25578Y-038478
X26594Y-038478
X21768Y-06229
X22784Y-06229
X35103Y-13849
X36119Y-13849
X33198Y-13849
X34214Y-13849
X234348Y-13849
X244508Y-13849
X27483Y-06229
X28499Y-06229
X23673Y-038478
X24689Y-038478
X284355Y-038478
X294515Y-038478
X303405Y-08134
X313565Y-08134
X289118Y-10039
X299277Y-10039
X303405Y-038478
X313565Y-038478
X19863Y-038478
X20879Y-038478
X341505Y-08134
X351665Y-08134
X31293Y-06229
X32309Y-06229
X246255Y-08134
X256415Y-08134
X29388Y-06229
X30404Y-06229
X37008Y-13849
X38024Y-13849
X37008Y-06229
X38024Y-06229
X322455Y-038478
X332615Y-038478
X241492Y-11944
X251652Y-11944
X298642Y-11944
X308803Y-11944
X322455Y-08134
X332615Y-08134
X270068Y-10039
X280227Y-10039
X25578Y-06229
X26594Y-06229
X35103Y-06229
X36119Y-06229
X231968Y-10039
X242128Y-10039
X222443Y-11944
X232603Y-11944
X317693Y-11944
X327853Y-11944
X308167Y-10039
X318327Y-10039
X227205Y-08134
X237365Y-08134
X353412Y-11944
X363573Y-11944
X33198Y-06229
X34214Y-06229
X279592Y-11944
X289753Y-11944
X341505Y-038478
X351665Y-038478
X37008Y-038478
X38024Y-038478
X260542Y-11944
X270702Y-11944
X31293Y-13849
X32309Y-13849
X23673Y-06229
X24689Y-06229
X284355Y-08134
X294515Y-08134
X267685Y-13849
X277845Y-13849
X251017Y-10039
X261178Y-10039
X327217Y-10039
X337378Y-10039
X360555Y-06229
X370715Y-06229
T4
X23229Y-07182
X3847Y-02797
X33706Y-07181
X3847Y-14902
X2967Y-14902
X191428Y-02797
X22001Y-14902
X2561Y-10992
X33229Y-10994
X2744Y-02797
X27991Y-07182
T5
X242763Y-1169
X249113Y-11436
X299912Y-1169
X306263Y-11436
X323725Y-0788
X330075Y-07626
X271338Y-09785
X277688Y-09531
X25705Y-05975
X2634Y-05721
X3523Y-05975
X35865Y-05721
X233238Y-09785
X239588Y-09531
X223713Y-1169
X230063Y-11436
X318963Y-1169
X325313Y-11436
X309438Y-09785
X315787Y-09531
X228475Y-0788
X234825Y-07626
X354683Y-1169
X361033Y-11436
X33325Y-05975
X3396Y-05721
X280863Y-1169
X287213Y-11436
X342775Y-035938
X349125Y-033398
X37135Y-035938
X3777Y-033398
X261813Y-1169
X268162Y-11436
X3142Y-13595
X32055Y-13341
X238Y-05975
X24435Y-05721
X285625Y-0788
X291975Y-07626
X268955Y-13595
X275305Y-13341
X252288Y-09785
X258638Y-09531
X328488Y-09785
X334838Y-09531
X363095Y-06737
X369445Y-06483
X366588Y-0788
X372938Y-07626
X21895Y-035938
X2253Y-033398
X359444Y-09785
X365794Y-09531
X266575Y-0788
X272925Y-07626
X25705Y-035938
X2634Y-033398
X21895Y-05975
X2253Y-05721
X3523Y-13595
X35865Y-13341
X33325Y-13595
X3396Y-13341
X235617Y-13595
X241968Y-13341
X2761Y-05975
X28245Y-05721
X238Y-035938
X24435Y-033398
X285625Y-035938
X291975Y-033398
X304675Y-0788
X311025Y-07626
X290388Y-09785
X296738Y-09531
X304675Y-035938
X311025Y-033398
X1999Y-035938
X20625Y-033398
X342775Y-0788
X349125Y-07626
X3142Y-05975
X32055Y-05721
X247525Y-0788
X253875Y-07626
X29515Y-05975
X3015Y-05721
X37135Y-13595
X3777Y-13341
X37135Y-05975
X3777Y-05721
X323725Y-035938
X330075Y-033398
T6
X346593Y-11244
X370393Y-11244
X351354Y-09339
X375154Y-09339
X227528Y-13149
X251327Y-13149
T7
X237048Y-10039
X227523Y-11944
X322773Y-11944
X313248Y-10039
X232285Y-08134
X346593Y-12768
X358493Y-11944
X370393Y-12768
X33706Y-06229
X284673Y-11944
X346585Y-038478
X37516Y-038478
X265623Y-11944
X31801Y-13849
X24181Y-06229
X289435Y-08134
X272765Y-13849
X256097Y-10039
X332297Y-10039
X365635Y-06229
X370398Y-08134
X22276Y-038478
X351354Y-10863
X363254Y-10039
X375154Y-10863
X270385Y-08134
X26086Y-038478
X22276Y-06229
X35611Y-13849
X33706Y-13849
X227528Y-14673
X239427Y-13849
X251327Y-14673
X27991Y-06229
X24181Y-038478
X289435Y-038478
X308485Y-08134
X294198Y-10039
X308485Y-038478
X20371Y-038478
X346585Y-08134
X31801Y-06229
X251335Y-08134
X29896Y-06229
X37516Y-13849
X37516Y-06229
X327535Y-038478
X246573Y-11944
X303722Y-11944
X327535Y-08134
X275148Y-10039
X26086Y-06229
X35611Y-06229
T1
X33069Y-05231G85X34619Y-05231
G05
X23544Y-05231G85X25094Y-05231
G05
X27354Y-05231G85X28904Y-05231
G05
X31164Y-05231G85X32714Y-05231
G05
X21639Y-05231G85X23189Y-05231
G05
X34974Y-05231G85X36524Y-05231
G05
X25449Y-05231G85X26999Y-05231
G05
X29259Y-05231G85X30809Y-05231
G05
X36879Y-05231G85X38629Y-05231
G05
X204288Y-05231G85X212813Y-05231
G05
T0
M30
