%FSLAX45Y45*%
G04 Gerber Fmt 4.5, Leading zero omitted, Abs format (unit mm)*
G04 Created by KiCad (PCBNEW (5.0.2)-1) date 2019/02/16 22:06:02*
%MOMM*%
%LPD*%
G01*
G04 APERTURE LIST*
%ADD10C,0.150000*%
%ADD11C,0.200000*%
%ADD12C,0.300000*%
G04 APERTURE END LIST*
D10*
X18942750Y-2597000D02*
X18942750Y-5278250D01*
D11*
X22276500Y-9088250D02*
X22752750Y-9088250D01*
D10*
X22276500Y-7183250D02*
X22276500Y-9088250D01*
D11*
X21800250Y-10993000D02*
X22752750Y-10993000D01*
X18942750Y-5278250D02*
X20371500Y-5278250D01*
X18942750Y-2597000D02*
X38668000Y-2597000D01*
D10*
X20371500Y-5278250D02*
X20371500Y-7183250D01*
D11*
X21800250Y-15102000D02*
X38670000Y-15102000D01*
D10*
X21800250Y-10993250D02*
X21800250Y-15103250D01*
X38670000Y-2597000D02*
X38670000Y-15102000D01*
X22752750Y-9088250D02*
X22752750Y-10993250D01*
D11*
X20371500Y-7183250D02*
X22276500Y-7183250D01*
D11*
X33794000Y-5181000D02*
X33894000Y-5281000D01*
X33894000Y-5181000D02*
X33794000Y-5281000D01*
X33069000Y-5271000D02*
X34619000Y-5271000D01*
X33069000Y-5191000D02*
X34619000Y-5191000D01*
X34619000Y-5271000D02*
G75*
G03X34619000Y-5191000I0J40000D01*
G01*
X33069000Y-5191000D02*
G75*
G03X33069000Y-5271000I0J-40000D01*
G01*
X24269000Y-5181000D02*
X24369000Y-5281000D01*
X24369000Y-5181000D02*
X24269000Y-5281000D01*
X23544000Y-5271000D02*
X25094000Y-5271000D01*
X23544000Y-5191000D02*
X25094000Y-5191000D01*
X25094000Y-5271000D02*
G75*
G03X25094000Y-5191000I0J40000D01*
G01*
X23544000Y-5191000D02*
G75*
G03X23544000Y-5271000I0J-40000D01*
G01*
X28079000Y-5181000D02*
X28179000Y-5281000D01*
X28179000Y-5181000D02*
X28079000Y-5281000D01*
X27354000Y-5271000D02*
X28904000Y-5271000D01*
X27354000Y-5191000D02*
X28904000Y-5191000D01*
X28904000Y-5271000D02*
G75*
G03X28904000Y-5191000I0J40000D01*
G01*
X27354000Y-5191000D02*
G75*
G03X27354000Y-5271000I0J-40000D01*
G01*
X31889000Y-5181000D02*
X31989000Y-5281000D01*
X31989000Y-5181000D02*
X31889000Y-5281000D01*
X31164000Y-5271000D02*
X32714000Y-5271000D01*
X31164000Y-5191000D02*
X32714000Y-5191000D01*
X32714000Y-5271000D02*
G75*
G03X32714000Y-5191000I0J40000D01*
G01*
X31164000Y-5191000D02*
G75*
G03X31164000Y-5271000I0J-40000D01*
G01*
X22364000Y-5181000D02*
X22464000Y-5281000D01*
X22464000Y-5181000D02*
X22364000Y-5281000D01*
X21639000Y-5271000D02*
X23189000Y-5271000D01*
X21639000Y-5191000D02*
X23189000Y-5191000D01*
X23189000Y-5271000D02*
G75*
G03X23189000Y-5191000I0J40000D01*
G01*
X21639000Y-5191000D02*
G75*
G03X21639000Y-5271000I0J-40000D01*
G01*
X35699000Y-5181000D02*
X35799000Y-5281000D01*
X35799000Y-5181000D02*
X35699000Y-5281000D01*
X34974000Y-5271000D02*
X36524000Y-5271000D01*
X34974000Y-5191000D02*
X36524000Y-5191000D01*
X36524000Y-5271000D02*
G75*
G03X36524000Y-5191000I0J40000D01*
G01*
X34974000Y-5191000D02*
G75*
G03X34974000Y-5271000I0J-40000D01*
G01*
X26174000Y-5181000D02*
X26274000Y-5281000D01*
X26274000Y-5181000D02*
X26174000Y-5281000D01*
X25449000Y-5271000D02*
X26999000Y-5271000D01*
X25449000Y-5191000D02*
X26999000Y-5191000D01*
X26999000Y-5271000D02*
G75*
G03X26999000Y-5191000I0J40000D01*
G01*
X25449000Y-5191000D02*
G75*
G03X25449000Y-5271000I0J-40000D01*
G01*
X29984000Y-5181000D02*
X30084000Y-5281000D01*
X30084000Y-5181000D02*
X29984000Y-5281000D01*
X29259000Y-5271000D02*
X30809000Y-5271000D01*
X29259000Y-5191000D02*
X30809000Y-5191000D01*
X30809000Y-5271000D02*
G75*
G03X30809000Y-5191000I0J40000D01*
G01*
X29259000Y-5191000D02*
G75*
G03X29259000Y-5271000I0J-40000D01*
G01*
X37704000Y-5181000D02*
X37804000Y-5281000D01*
X37804000Y-5181000D02*
X37704000Y-5281000D01*
X36879000Y-5271000D02*
X38629000Y-5271000D01*
X36879000Y-5191000D02*
X38629000Y-5191000D01*
X38629000Y-5271000D02*
G75*
G03X38629000Y-5191000I0J40000D01*
G01*
X36879000Y-5191000D02*
G75*
G03X36879000Y-5271000I0J-40000D01*
G01*
X20805000Y-5181000D02*
X20905000Y-5281000D01*
X20905000Y-5181000D02*
X20805000Y-5281000D01*
X20428750Y-5271000D02*
X21281250Y-5271000D01*
X20428750Y-5191000D02*
X21281250Y-5191000D01*
X21281250Y-5271000D02*
G75*
G03X21281250Y-5191000I0J40000D01*
G01*
X20428750Y-5191000D02*
G75*
G03X20428750Y-5271000I0J-40000D01*
G01*
X36133000Y-2947000D02*
G75*
G03X36133000Y-2947000I-60000J0D01*
G01*
X36133000Y-3647000D02*
G75*
G03X36133000Y-3647000I-60000J0D01*
G01*
X20989000Y-5629000D02*
G75*
G03X20989000Y-5629000I-60000J0D01*
G01*
X20989000Y-6329000D02*
G75*
G03X20989000Y-6329000I-60000J0D01*
G01*
X36531750Y-8044000D02*
X36531750Y-8224000D01*
X36441750Y-8134000D02*
X36621750Y-8134000D01*
X37547750Y-8044000D02*
X37547750Y-8224000D01*
X37457750Y-8134000D02*
X37637750Y-8134000D01*
X21768000Y-3757750D02*
X21768000Y-3937750D01*
X21678000Y-3847750D02*
X21858000Y-3847750D01*
X22784000Y-3757750D02*
X22784000Y-3937750D01*
X22694000Y-3847750D02*
X22874000Y-3847750D01*
X35817390Y-9949000D02*
X35817390Y-10129000D01*
X35727390Y-10039000D02*
X35907390Y-10039000D01*
X36833390Y-9949000D02*
X36833390Y-10129000D01*
X36743390Y-10039000D02*
X36923390Y-10039000D01*
X26530500Y-8044000D02*
X26530500Y-8224000D01*
X26440500Y-8134000D02*
X26620500Y-8134000D01*
X27546500Y-8044000D02*
X27546500Y-8224000D01*
X27456500Y-8134000D02*
X27636500Y-8134000D01*
X25578000Y-3757750D02*
X25578000Y-3937750D01*
X25488000Y-3847750D02*
X25668000Y-3847750D01*
X26594000Y-3757750D02*
X26594000Y-3937750D01*
X26504000Y-3847750D02*
X26684000Y-3847750D01*
X21768000Y-6139000D02*
X21768000Y-6319000D01*
X21678000Y-6229000D02*
X21858000Y-6229000D01*
X22784000Y-6139000D02*
X22784000Y-6319000D01*
X22694000Y-6229000D02*
X22874000Y-6229000D01*
X35103000Y-13759000D02*
X35103000Y-13939000D01*
X35013000Y-13849000D02*
X35193000Y-13849000D01*
X36119000Y-13759000D02*
X36119000Y-13939000D01*
X36029000Y-13849000D02*
X36209000Y-13849000D01*
X33198000Y-13759000D02*
X33198000Y-13939000D01*
X33108000Y-13849000D02*
X33288000Y-13849000D01*
X34214000Y-13759000D02*
X34214000Y-13939000D01*
X34124000Y-13849000D02*
X34304000Y-13849000D01*
X23434750Y-13759000D02*
X23434750Y-13939000D01*
X23344750Y-13849000D02*
X23524750Y-13849000D01*
X24450750Y-13759000D02*
X24450750Y-13939000D01*
X24360750Y-13849000D02*
X24540750Y-13849000D01*
X27483000Y-6139000D02*
X27483000Y-6319000D01*
X27393000Y-6229000D02*
X27573000Y-6229000D01*
X28499000Y-6139000D02*
X28499000Y-6319000D01*
X28409000Y-6229000D02*
X28589000Y-6229000D01*
X23673000Y-3757750D02*
X23673000Y-3937750D01*
X23583000Y-3847750D02*
X23763000Y-3847750D01*
X24689000Y-3757750D02*
X24689000Y-3937750D01*
X24599000Y-3847750D02*
X24779000Y-3847750D01*
X28435500Y-3757750D02*
X28435500Y-3937750D01*
X28345500Y-3847750D02*
X28525500Y-3847750D01*
X29451500Y-3757750D02*
X29451500Y-3937750D01*
X29361500Y-3847750D02*
X29541500Y-3847750D01*
X30340500Y-8044000D02*
X30340500Y-8224000D01*
X30250500Y-8134000D02*
X30430500Y-8134000D01*
X31356500Y-8044000D02*
X31356500Y-8224000D01*
X31266500Y-8134000D02*
X31446500Y-8134000D01*
X28911750Y-9949000D02*
X28911750Y-10129000D01*
X28821750Y-10039000D02*
X29001750Y-10039000D01*
X29927750Y-9949000D02*
X29927750Y-10129000D01*
X29837750Y-10039000D02*
X30017750Y-10039000D01*
X30340500Y-3757750D02*
X30340500Y-3937750D01*
X30250500Y-3847750D02*
X30430500Y-3847750D01*
X31356500Y-3757750D02*
X31356500Y-3937750D01*
X31266500Y-3847750D02*
X31446500Y-3847750D01*
X19863000Y-3757750D02*
X19863000Y-3937750D01*
X19773000Y-3847750D02*
X19953000Y-3847750D01*
X20879000Y-3757750D02*
X20879000Y-3937750D01*
X20789000Y-3847750D02*
X20969000Y-3847750D01*
X34150500Y-8044000D02*
X34150500Y-8224000D01*
X34060500Y-8134000D02*
X34240500Y-8134000D01*
X35166500Y-8044000D02*
X35166500Y-8224000D01*
X35076500Y-8134000D02*
X35256500Y-8134000D01*
X31293000Y-6139000D02*
X31293000Y-6319000D01*
X31203000Y-6229000D02*
X31383000Y-6229000D01*
X32309000Y-6139000D02*
X32309000Y-6319000D01*
X32219000Y-6229000D02*
X32399000Y-6229000D01*
X24625500Y-8044000D02*
X24625500Y-8224000D01*
X24535500Y-8134000D02*
X24715500Y-8134000D01*
X25641500Y-8044000D02*
X25641500Y-8224000D01*
X25551500Y-8134000D02*
X25731500Y-8134000D01*
X29388000Y-6139000D02*
X29388000Y-6319000D01*
X29298000Y-6229000D02*
X29478000Y-6229000D01*
X30404000Y-6139000D02*
X30404000Y-6319000D01*
X30314000Y-6229000D02*
X30494000Y-6229000D01*
X37008000Y-13759000D02*
X37008000Y-13939000D01*
X36918000Y-13849000D02*
X37098000Y-13849000D01*
X38024000Y-13759000D02*
X38024000Y-13939000D01*
X37934000Y-13849000D02*
X38114000Y-13849000D01*
X37008000Y-6139000D02*
X37008000Y-6319000D01*
X36918000Y-6229000D02*
X37098000Y-6229000D01*
X38024000Y-6139000D02*
X38024000Y-6319000D01*
X37934000Y-6229000D02*
X38114000Y-6229000D01*
X32245500Y-3757750D02*
X32245500Y-3937750D01*
X32155500Y-3847750D02*
X32335500Y-3847750D01*
X33261500Y-3757750D02*
X33261500Y-3937750D01*
X33171500Y-3847750D02*
X33351500Y-3847750D01*
X24149250Y-11854000D02*
X24149250Y-12034000D01*
X24059250Y-11944000D02*
X24239250Y-11944000D01*
X25165250Y-11854000D02*
X25165250Y-12034000D01*
X25075250Y-11944000D02*
X25255250Y-11944000D01*
X29864250Y-11854000D02*
X29864250Y-12034000D01*
X29774250Y-11944000D02*
X29954250Y-11944000D01*
X30880250Y-11854000D02*
X30880250Y-12034000D01*
X30790250Y-11944000D02*
X30970250Y-11944000D01*
X32245500Y-8044000D02*
X32245500Y-8224000D01*
X32155500Y-8134000D02*
X32335500Y-8134000D01*
X33261500Y-8044000D02*
X33261500Y-8224000D01*
X33171500Y-8134000D02*
X33351500Y-8134000D01*
X27006750Y-9949000D02*
X27006750Y-10129000D01*
X26916750Y-10039000D02*
X27096750Y-10039000D01*
X28022750Y-9949000D02*
X28022750Y-10129000D01*
X27932750Y-10039000D02*
X28112750Y-10039000D01*
X25578000Y-6139000D02*
X25578000Y-6319000D01*
X25488000Y-6229000D02*
X25668000Y-6229000D01*
X26594000Y-6139000D02*
X26594000Y-6319000D01*
X26504000Y-6229000D02*
X26684000Y-6229000D01*
X35103000Y-6139000D02*
X35103000Y-6319000D01*
X35013000Y-6229000D02*
X35193000Y-6229000D01*
X36119000Y-6139000D02*
X36119000Y-6319000D01*
X36029000Y-6229000D02*
X36209000Y-6229000D01*
X23196750Y-9949000D02*
X23196750Y-10129000D01*
X23106750Y-10039000D02*
X23286750Y-10039000D01*
X24212750Y-9949000D02*
X24212750Y-10129000D01*
X24122750Y-10039000D02*
X24302750Y-10039000D01*
X22244250Y-11854000D02*
X22244250Y-12034000D01*
X22154250Y-11944000D02*
X22334250Y-11944000D01*
X23260250Y-11854000D02*
X23260250Y-12034000D01*
X23170250Y-11944000D02*
X23350250Y-11944000D01*
X31769250Y-11854000D02*
X31769250Y-12034000D01*
X31679250Y-11944000D02*
X31859250Y-11944000D01*
X32785250Y-11854000D02*
X32785250Y-12034000D01*
X32695250Y-11944000D02*
X32875250Y-11944000D01*
X30816750Y-9949000D02*
X30816750Y-10129000D01*
X30726750Y-10039000D02*
X30906750Y-10039000D01*
X31832750Y-9949000D02*
X31832750Y-10129000D01*
X31742750Y-10039000D02*
X31922750Y-10039000D01*
X22720500Y-8044000D02*
X22720500Y-8224000D01*
X22630500Y-8134000D02*
X22810500Y-8134000D01*
X23736500Y-8044000D02*
X23736500Y-8224000D01*
X23646500Y-8134000D02*
X23826500Y-8134000D01*
X35341250Y-11854000D02*
X35341250Y-12034000D01*
X35251250Y-11944000D02*
X35431250Y-11944000D01*
X36357250Y-11854000D02*
X36357250Y-12034000D01*
X36267250Y-11944000D02*
X36447250Y-11944000D01*
X33198000Y-6139000D02*
X33198000Y-6319000D01*
X33108000Y-6229000D02*
X33288000Y-6229000D01*
X34214000Y-6139000D02*
X34214000Y-6319000D01*
X34124000Y-6229000D02*
X34304000Y-6229000D01*
X27959250Y-11854000D02*
X27959250Y-12034000D01*
X27869250Y-11944000D02*
X28049250Y-11944000D01*
X28975250Y-11854000D02*
X28975250Y-12034000D01*
X28885250Y-11944000D02*
X29065250Y-11944000D01*
X34150500Y-3757750D02*
X34150500Y-3937750D01*
X34060500Y-3847750D02*
X34240500Y-3847750D01*
X35166500Y-3757750D02*
X35166500Y-3937750D01*
X35076500Y-3847750D02*
X35256500Y-3847750D01*
X37008000Y-3757750D02*
X37008000Y-3937750D01*
X36918000Y-3847750D02*
X37098000Y-3847750D01*
X38024000Y-3757750D02*
X38024000Y-3937750D01*
X37934000Y-3847750D02*
X38114000Y-3847750D01*
X26054250Y-11854000D02*
X26054250Y-12034000D01*
X25964250Y-11944000D02*
X26144250Y-11944000D01*
X27070250Y-11854000D02*
X27070250Y-12034000D01*
X26980250Y-11944000D02*
X27160250Y-11944000D01*
X31293000Y-13759000D02*
X31293000Y-13939000D01*
X31203000Y-13849000D02*
X31383000Y-13849000D01*
X32309000Y-13759000D02*
X32309000Y-13939000D01*
X32219000Y-13849000D02*
X32399000Y-13849000D01*
X23673000Y-6139000D02*
X23673000Y-6319000D01*
X23583000Y-6229000D02*
X23763000Y-6229000D01*
X24689000Y-6139000D02*
X24689000Y-6319000D01*
X24599000Y-6229000D02*
X24779000Y-6229000D01*
X28435500Y-8044000D02*
X28435500Y-8224000D01*
X28345500Y-8134000D02*
X28525500Y-8134000D01*
X29451500Y-8044000D02*
X29451500Y-8224000D01*
X29361500Y-8134000D02*
X29541500Y-8134000D01*
X26768500Y-13759000D02*
X26768500Y-13939000D01*
X26678500Y-13849000D02*
X26858500Y-13849000D01*
X27784500Y-13759000D02*
X27784500Y-13939000D01*
X27694500Y-13849000D02*
X27874500Y-13849000D01*
X25101750Y-9949000D02*
X25101750Y-10129000D01*
X25011750Y-10039000D02*
X25191750Y-10039000D01*
X26117750Y-9949000D02*
X26117750Y-10129000D01*
X26027750Y-10039000D02*
X26207750Y-10039000D01*
X32721750Y-9949000D02*
X32721750Y-10129000D01*
X32631750Y-10039000D02*
X32811750Y-10039000D01*
X33737750Y-9949000D02*
X33737750Y-10129000D01*
X33647750Y-10039000D02*
X33827750Y-10039000D01*
X36055500Y-6139000D02*
X36055500Y-6319000D01*
X35965500Y-6229000D02*
X36145500Y-6229000D01*
X37071500Y-6139000D02*
X37071500Y-6319000D01*
X36981500Y-6229000D02*
X37161500Y-6229000D01*
X23306782Y-7259782D02*
X23306782Y-7104217D01*
X23151217Y-7104217D01*
X23151217Y-7259782D01*
X23306782Y-7259782D01*
X38547783Y-2874782D02*
X38547783Y-2719218D01*
X38392218Y-2719218D01*
X38392218Y-2874782D01*
X38547783Y-2874782D01*
X33783783Y-7258782D02*
X33783783Y-7103217D01*
X33628218Y-7103217D01*
X33628218Y-7258782D01*
X33783783Y-7258782D01*
X38547783Y-14979782D02*
X38547783Y-14824217D01*
X38392218Y-14824217D01*
X38392218Y-14979782D01*
X38547783Y-14979782D01*
X29747782Y-14979782D02*
X29747782Y-14824217D01*
X29592217Y-14824217D01*
X29592217Y-14979782D01*
X29747782Y-14979782D01*
X19220533Y-2874782D02*
X19220533Y-2719218D01*
X19064968Y-2719218D01*
X19064968Y-2874782D01*
X19220533Y-2874782D01*
X22078783Y-14979782D02*
X22078783Y-14824217D01*
X21923218Y-14824217D01*
X21923218Y-14979782D01*
X22078783Y-14979782D01*
X25687782Y-11069783D02*
X25687782Y-10914218D01*
X25532217Y-10914218D01*
X25532217Y-11069783D01*
X25687782Y-11069783D01*
X33306782Y-11071783D02*
X33306782Y-10916218D01*
X33151217Y-10916218D01*
X33151217Y-11071783D01*
X33306782Y-11071783D01*
X27517782Y-2874782D02*
X27517782Y-2719218D01*
X27362217Y-2719218D01*
X27362217Y-2874782D01*
X27517782Y-2874782D01*
X28068782Y-7259782D02*
X28068782Y-7104217D01*
X27913217Y-7104217D01*
X27913217Y-7259782D01*
X28068782Y-7259782D01*
X24276250Y-11840000D02*
X24426250Y-11690000D01*
X24276250Y-11540000D01*
X24126250Y-11690000D01*
X24276250Y-11840000D01*
X24911250Y-11586000D02*
X25061250Y-11436000D01*
X24911250Y-11286000D01*
X24761250Y-11436000D01*
X24911250Y-11586000D01*
X29991250Y-11840000D02*
X30141250Y-11690000D01*
X29991250Y-11540000D01*
X29841250Y-11690000D01*
X29991250Y-11840000D01*
X30626250Y-11586000D02*
X30776250Y-11436000D01*
X30626250Y-11286000D01*
X30476250Y-11436000D01*
X30626250Y-11586000D01*
X32372500Y-8030000D02*
X32522500Y-7880000D01*
X32372500Y-7730000D01*
X32222500Y-7880000D01*
X32372500Y-8030000D01*
X33007500Y-7776000D02*
X33157500Y-7626000D01*
X33007500Y-7476000D01*
X32857500Y-7626000D01*
X33007500Y-7776000D01*
X27133750Y-9935000D02*
X27283750Y-9785000D01*
X27133750Y-9635000D01*
X26983750Y-9785000D01*
X27133750Y-9935000D01*
X27768750Y-9681000D02*
X27918750Y-9531000D01*
X27768750Y-9381000D01*
X27618750Y-9531000D01*
X27768750Y-9681000D01*
X25705000Y-6125000D02*
X25855000Y-5975000D01*
X25705000Y-5825000D01*
X25555000Y-5975000D01*
X25705000Y-6125000D01*
X26340000Y-5871000D02*
X26490000Y-5721000D01*
X26340000Y-5571000D01*
X26190000Y-5721000D01*
X26340000Y-5871000D01*
X35230000Y-6125000D02*
X35380000Y-5975000D01*
X35230000Y-5825000D01*
X35080000Y-5975000D01*
X35230000Y-6125000D01*
X35865000Y-5871000D02*
X36015000Y-5721000D01*
X35865000Y-5571000D01*
X35715000Y-5721000D01*
X35865000Y-5871000D01*
X23323750Y-9935000D02*
X23473750Y-9785000D01*
X23323750Y-9635000D01*
X23173750Y-9785000D01*
X23323750Y-9935000D01*
X23958750Y-9681000D02*
X24108750Y-9531000D01*
X23958750Y-9381000D01*
X23808750Y-9531000D01*
X23958750Y-9681000D01*
X22371250Y-11840000D02*
X22521250Y-11690000D01*
X22371250Y-11540000D01*
X22221250Y-11690000D01*
X22371250Y-11840000D01*
X23006250Y-11586000D02*
X23156250Y-11436000D01*
X23006250Y-11286000D01*
X22856250Y-11436000D01*
X23006250Y-11586000D01*
X31896250Y-11840000D02*
X32046250Y-11690000D01*
X31896250Y-11540000D01*
X31746250Y-11690000D01*
X31896250Y-11840000D01*
X32531250Y-11586000D02*
X32681250Y-11436000D01*
X32531250Y-11286000D01*
X32381250Y-11436000D01*
X32531250Y-11586000D01*
X30943750Y-9935000D02*
X31093750Y-9785000D01*
X30943750Y-9635000D01*
X30793750Y-9785000D01*
X30943750Y-9935000D01*
X31578750Y-9681000D02*
X31728750Y-9531000D01*
X31578750Y-9381000D01*
X31428750Y-9531000D01*
X31578750Y-9681000D01*
X22847500Y-8030000D02*
X22997500Y-7880000D01*
X22847500Y-7730000D01*
X22697500Y-7880000D01*
X22847500Y-8030000D01*
X23482500Y-7776000D02*
X23632500Y-7626000D01*
X23482500Y-7476000D01*
X23332500Y-7626000D01*
X23482500Y-7776000D01*
X35468250Y-11840000D02*
X35618250Y-11690000D01*
X35468250Y-11540000D01*
X35318250Y-11690000D01*
X35468250Y-11840000D01*
X36103250Y-11586000D02*
X36253250Y-11436000D01*
X36103250Y-11286000D01*
X35953250Y-11436000D01*
X36103250Y-11586000D01*
X33325000Y-6125000D02*
X33475000Y-5975000D01*
X33325000Y-5825000D01*
X33175000Y-5975000D01*
X33325000Y-6125000D01*
X33960000Y-5871000D02*
X34110000Y-5721000D01*
X33960000Y-5571000D01*
X33810000Y-5721000D01*
X33960000Y-5871000D01*
X28086250Y-11840000D02*
X28236250Y-11690000D01*
X28086250Y-11540000D01*
X27936250Y-11690000D01*
X28086250Y-11840000D01*
X28721250Y-11586000D02*
X28871250Y-11436000D01*
X28721250Y-11286000D01*
X28571250Y-11436000D01*
X28721250Y-11586000D01*
X34277500Y-3743750D02*
X34427500Y-3593750D01*
X34277500Y-3443750D01*
X34127500Y-3593750D01*
X34277500Y-3743750D01*
X34912500Y-3489750D02*
X35062500Y-3339750D01*
X34912500Y-3189750D01*
X34762500Y-3339750D01*
X34912500Y-3489750D01*
X37135000Y-3743750D02*
X37285000Y-3593750D01*
X37135000Y-3443750D01*
X36985000Y-3593750D01*
X37135000Y-3743750D01*
X37770000Y-3489750D02*
X37920000Y-3339750D01*
X37770000Y-3189750D01*
X37620000Y-3339750D01*
X37770000Y-3489750D01*
X26181250Y-11840000D02*
X26331250Y-11690000D01*
X26181250Y-11540000D01*
X26031250Y-11690000D01*
X26181250Y-11840000D01*
X26816250Y-11586000D02*
X26966250Y-11436000D01*
X26816250Y-11286000D01*
X26666250Y-11436000D01*
X26816250Y-11586000D01*
X31420000Y-13745000D02*
X31570000Y-13595000D01*
X31420000Y-13445000D01*
X31270000Y-13595000D01*
X31420000Y-13745000D01*
X32055000Y-13491000D02*
X32205000Y-13341000D01*
X32055000Y-13191000D01*
X31905000Y-13341000D01*
X32055000Y-13491000D01*
X23800000Y-6125000D02*
X23950000Y-5975000D01*
X23800000Y-5825000D01*
X23650000Y-5975000D01*
X23800000Y-6125000D01*
X24435000Y-5871000D02*
X24585000Y-5721000D01*
X24435000Y-5571000D01*
X24285000Y-5721000D01*
X24435000Y-5871000D01*
X28562500Y-8030000D02*
X28712500Y-7880000D01*
X28562500Y-7730000D01*
X28412500Y-7880000D01*
X28562500Y-8030000D01*
X29197500Y-7776000D02*
X29347500Y-7626000D01*
X29197500Y-7476000D01*
X29047500Y-7626000D01*
X29197500Y-7776000D01*
X26895500Y-13745000D02*
X27045500Y-13595000D01*
X26895500Y-13445000D01*
X26745500Y-13595000D01*
X26895500Y-13745000D01*
X27530500Y-13491000D02*
X27680500Y-13341000D01*
X27530500Y-13191000D01*
X27380500Y-13341000D01*
X27530500Y-13491000D01*
X25228750Y-9935000D02*
X25378750Y-9785000D01*
X25228750Y-9635000D01*
X25078750Y-9785000D01*
X25228750Y-9935000D01*
X25863750Y-9681000D02*
X26013750Y-9531000D01*
X25863750Y-9381000D01*
X25713750Y-9531000D01*
X25863750Y-9681000D01*
X32848750Y-9935000D02*
X32998750Y-9785000D01*
X32848750Y-9635000D01*
X32698750Y-9785000D01*
X32848750Y-9935000D01*
X33483750Y-9681000D02*
X33633750Y-9531000D01*
X33483750Y-9381000D01*
X33333750Y-9531000D01*
X33483750Y-9681000D01*
X36309500Y-6887000D02*
X36459500Y-6737000D01*
X36309500Y-6587000D01*
X36159500Y-6737000D01*
X36309500Y-6887000D01*
X36944500Y-6633000D02*
X37094500Y-6483000D01*
X36944500Y-6333000D01*
X36794500Y-6483000D01*
X36944500Y-6633000D01*
X36658750Y-8030000D02*
X36808750Y-7880000D01*
X36658750Y-7730000D01*
X36508750Y-7880000D01*
X36658750Y-8030000D01*
X37293750Y-7776000D02*
X37443750Y-7626000D01*
X37293750Y-7476000D01*
X37143750Y-7626000D01*
X37293750Y-7776000D01*
X21895000Y-3743750D02*
X22045000Y-3593750D01*
X21895000Y-3443750D01*
X21745000Y-3593750D01*
X21895000Y-3743750D01*
X22530000Y-3489750D02*
X22680000Y-3339750D01*
X22530000Y-3189750D01*
X22380000Y-3339750D01*
X22530000Y-3489750D01*
X35944390Y-9935000D02*
X36094390Y-9785000D01*
X35944390Y-9635000D01*
X35794390Y-9785000D01*
X35944390Y-9935000D01*
X36579390Y-9681000D02*
X36729390Y-9531000D01*
X36579390Y-9381000D01*
X36429390Y-9531000D01*
X36579390Y-9681000D01*
X26657500Y-8030000D02*
X26807500Y-7880000D01*
X26657500Y-7730000D01*
X26507500Y-7880000D01*
X26657500Y-8030000D01*
X27292500Y-7776000D02*
X27442500Y-7626000D01*
X27292500Y-7476000D01*
X27142500Y-7626000D01*
X27292500Y-7776000D01*
X25705000Y-3743750D02*
X25855000Y-3593750D01*
X25705000Y-3443750D01*
X25555000Y-3593750D01*
X25705000Y-3743750D01*
X26340000Y-3489750D02*
X26490000Y-3339750D01*
X26340000Y-3189750D01*
X26190000Y-3339750D01*
X26340000Y-3489750D01*
X21895000Y-6125000D02*
X22045000Y-5975000D01*
X21895000Y-5825000D01*
X21745000Y-5975000D01*
X21895000Y-6125000D01*
X22530000Y-5871000D02*
X22680000Y-5721000D01*
X22530000Y-5571000D01*
X22380000Y-5721000D01*
X22530000Y-5871000D01*
X35230000Y-13745000D02*
X35380000Y-13595000D01*
X35230000Y-13445000D01*
X35080000Y-13595000D01*
X35230000Y-13745000D01*
X35865000Y-13491000D02*
X36015000Y-13341000D01*
X35865000Y-13191000D01*
X35715000Y-13341000D01*
X35865000Y-13491000D01*
X33325000Y-13745000D02*
X33475000Y-13595000D01*
X33325000Y-13445000D01*
X33175000Y-13595000D01*
X33325000Y-13745000D01*
X33960000Y-13491000D02*
X34110000Y-13341000D01*
X33960000Y-13191000D01*
X33810000Y-13341000D01*
X33960000Y-13491000D01*
X23561750Y-13745000D02*
X23711750Y-13595000D01*
X23561750Y-13445000D01*
X23411750Y-13595000D01*
X23561750Y-13745000D01*
X24196750Y-13491000D02*
X24346750Y-13341000D01*
X24196750Y-13191000D01*
X24046750Y-13341000D01*
X24196750Y-13491000D01*
X27610000Y-6125000D02*
X27760000Y-5975000D01*
X27610000Y-5825000D01*
X27460000Y-5975000D01*
X27610000Y-6125000D01*
X28245000Y-5871000D02*
X28395000Y-5721000D01*
X28245000Y-5571000D01*
X28095000Y-5721000D01*
X28245000Y-5871000D01*
X23800000Y-3743750D02*
X23950000Y-3593750D01*
X23800000Y-3443750D01*
X23650000Y-3593750D01*
X23800000Y-3743750D01*
X24435000Y-3489750D02*
X24585000Y-3339750D01*
X24435000Y-3189750D01*
X24285000Y-3339750D01*
X24435000Y-3489750D01*
X28562500Y-3743750D02*
X28712500Y-3593750D01*
X28562500Y-3443750D01*
X28412500Y-3593750D01*
X28562500Y-3743750D01*
X29197500Y-3489750D02*
X29347500Y-3339750D01*
X29197500Y-3189750D01*
X29047500Y-3339750D01*
X29197500Y-3489750D01*
X30467500Y-8030000D02*
X30617500Y-7880000D01*
X30467500Y-7730000D01*
X30317500Y-7880000D01*
X30467500Y-8030000D01*
X31102500Y-7776000D02*
X31252500Y-7626000D01*
X31102500Y-7476000D01*
X30952500Y-7626000D01*
X31102500Y-7776000D01*
X29038750Y-9935000D02*
X29188750Y-9785000D01*
X29038750Y-9635000D01*
X28888750Y-9785000D01*
X29038750Y-9935000D01*
X29673750Y-9681000D02*
X29823750Y-9531000D01*
X29673750Y-9381000D01*
X29523750Y-9531000D01*
X29673750Y-9681000D01*
X30467500Y-3743750D02*
X30617500Y-3593750D01*
X30467500Y-3443750D01*
X30317500Y-3593750D01*
X30467500Y-3743750D01*
X31102500Y-3489750D02*
X31252500Y-3339750D01*
X31102500Y-3189750D01*
X30952500Y-3339750D01*
X31102500Y-3489750D01*
X19990000Y-3743750D02*
X20140000Y-3593750D01*
X19990000Y-3443750D01*
X19840000Y-3593750D01*
X19990000Y-3743750D01*
X20625000Y-3489750D02*
X20775000Y-3339750D01*
X20625000Y-3189750D01*
X20475000Y-3339750D01*
X20625000Y-3489750D01*
X34277500Y-8030000D02*
X34427500Y-7880000D01*
X34277500Y-7730000D01*
X34127500Y-7880000D01*
X34277500Y-8030000D01*
X34912500Y-7776000D02*
X35062500Y-7626000D01*
X34912500Y-7476000D01*
X34762500Y-7626000D01*
X34912500Y-7776000D01*
X31420000Y-6125000D02*
X31570000Y-5975000D01*
X31420000Y-5825000D01*
X31270000Y-5975000D01*
X31420000Y-6125000D01*
X32055000Y-5871000D02*
X32205000Y-5721000D01*
X32055000Y-5571000D01*
X31905000Y-5721000D01*
X32055000Y-5871000D01*
X24752500Y-8030000D02*
X24902500Y-7880000D01*
X24752500Y-7730000D01*
X24602500Y-7880000D01*
X24752500Y-8030000D01*
X25387500Y-7776000D02*
X25537500Y-7626000D01*
X25387500Y-7476000D01*
X25237500Y-7626000D01*
X25387500Y-7776000D01*
X29515000Y-6125000D02*
X29665000Y-5975000D01*
X29515000Y-5825000D01*
X29365000Y-5975000D01*
X29515000Y-6125000D01*
X30150000Y-5871000D02*
X30300000Y-5721000D01*
X30150000Y-5571000D01*
X30000000Y-5721000D01*
X30150000Y-5871000D01*
X37135000Y-13745000D02*
X37285000Y-13595000D01*
X37135000Y-13445000D01*
X36985000Y-13595000D01*
X37135000Y-13745000D01*
X37770000Y-13491000D02*
X37920000Y-13341000D01*
X37770000Y-13191000D01*
X37620000Y-13341000D01*
X37770000Y-13491000D01*
X37135000Y-6125000D02*
X37285000Y-5975000D01*
X37135000Y-5825000D01*
X36985000Y-5975000D01*
X37135000Y-6125000D01*
X37770000Y-5871000D02*
X37920000Y-5721000D01*
X37770000Y-5571000D01*
X37620000Y-5721000D01*
X37770000Y-5871000D01*
X32372500Y-3743750D02*
X32522500Y-3593750D01*
X32372500Y-3443750D01*
X32222500Y-3593750D01*
X32372500Y-3743750D01*
X33007500Y-3489750D02*
X33157500Y-3339750D01*
X33007500Y-3189750D01*
X32857500Y-3339750D01*
X33007500Y-3489750D01*
X34506750Y-11091500D02*
X34811750Y-11396500D01*
X34811750Y-11091500D02*
X34506750Y-11396500D01*
X34811750Y-11244000D02*
G75*
G03X34811750Y-11244000I-152500J0D01*
G01*
X36886750Y-11091500D02*
X37191750Y-11396500D01*
X37191750Y-11091500D02*
X36886750Y-11396500D01*
X37191750Y-11244000D02*
G75*
G03X37191750Y-11244000I-152500J0D01*
G01*
X34982890Y-9186500D02*
X35287890Y-9491500D01*
X35287890Y-9186500D02*
X34982890Y-9491500D01*
X35287890Y-9339000D02*
G75*
G03X35287890Y-9339000I-152500J0D01*
G01*
X37362890Y-9186500D02*
X37667890Y-9491500D01*
X37667890Y-9186500D02*
X37362890Y-9491500D01*
X37667890Y-9339000D02*
G75*
G03X37667890Y-9339000I-152500J0D01*
G01*
X22600250Y-12996500D02*
X22905250Y-13301500D01*
X22905250Y-12996500D02*
X22600250Y-13301500D01*
X22905250Y-13149000D02*
G75*
G03X22905250Y-13149000I-152500J0D01*
G01*
X24980250Y-12996500D02*
X25285250Y-13301500D01*
X25285250Y-12996500D02*
X24980250Y-13301500D01*
X25285250Y-13149000D02*
G75*
G03X25285250Y-13149000I-152500J0D01*
G01*
X23504750Y-9839000D02*
X23904750Y-10239000D01*
X23904750Y-9839000D02*
X23504750Y-10239000D01*
X23704750Y-9839000D02*
X23704750Y-10239000D01*
X23504750Y-10039000D02*
X23904750Y-10039000D01*
X22552250Y-11744000D02*
X22952250Y-12144000D01*
X22952250Y-11744000D02*
X22552250Y-12144000D01*
X22752250Y-11744000D02*
X22752250Y-12144000D01*
X22552250Y-11944000D02*
X22952250Y-11944000D01*
X32077250Y-11744000D02*
X32477250Y-12144000D01*
X32477250Y-11744000D02*
X32077250Y-12144000D01*
X32277250Y-11744000D02*
X32277250Y-12144000D01*
X32077250Y-11944000D02*
X32477250Y-11944000D01*
X31124750Y-9839000D02*
X31524750Y-10239000D01*
X31524750Y-9839000D02*
X31124750Y-10239000D01*
X31324750Y-9839000D02*
X31324750Y-10239000D01*
X31124750Y-10039000D02*
X31524750Y-10039000D01*
X23028500Y-7934000D02*
X23428500Y-8334000D01*
X23428500Y-7934000D02*
X23028500Y-8334000D01*
X23228500Y-7934000D02*
X23228500Y-8334000D01*
X23028500Y-8134000D02*
X23428500Y-8134000D01*
X34459250Y-12568000D02*
X34859250Y-12968000D01*
X34859250Y-12568000D02*
X34459250Y-12968000D01*
X34659250Y-12568000D02*
X34659250Y-12968000D01*
X34459250Y-12768000D02*
X34859250Y-12768000D01*
X35649250Y-11744000D02*
X36049250Y-12144000D01*
X36049250Y-11744000D02*
X35649250Y-12144000D01*
X35849250Y-11744000D02*
X35849250Y-12144000D01*
X35649250Y-11944000D02*
X36049250Y-11944000D01*
X36839250Y-12568000D02*
X37239250Y-12968000D01*
X37239250Y-12568000D02*
X36839250Y-12968000D01*
X37039250Y-12568000D02*
X37039250Y-12968000D01*
X36839250Y-12768000D02*
X37239250Y-12768000D01*
X33506000Y-6029000D02*
X33906000Y-6429000D01*
X33906000Y-6029000D02*
X33506000Y-6429000D01*
X33706000Y-6029000D02*
X33706000Y-6429000D01*
X33506000Y-6229000D02*
X33906000Y-6229000D01*
X28267250Y-11744000D02*
X28667250Y-12144000D01*
X28667250Y-11744000D02*
X28267250Y-12144000D01*
X28467250Y-11744000D02*
X28467250Y-12144000D01*
X28267250Y-11944000D02*
X28667250Y-11944000D01*
X34458500Y-3647750D02*
X34858500Y-4047750D01*
X34858500Y-3647750D02*
X34458500Y-4047750D01*
X34658500Y-3647750D02*
X34658500Y-4047750D01*
X34458500Y-3847750D02*
X34858500Y-3847750D01*
X37316000Y-3647750D02*
X37716000Y-4047750D01*
X37716000Y-3647750D02*
X37316000Y-4047750D01*
X37516000Y-3647750D02*
X37516000Y-4047750D01*
X37316000Y-3847750D02*
X37716000Y-3847750D01*
X26362250Y-11744000D02*
X26762250Y-12144000D01*
X26762250Y-11744000D02*
X26362250Y-12144000D01*
X26562250Y-11744000D02*
X26562250Y-12144000D01*
X26362250Y-11944000D02*
X26762250Y-11944000D01*
X31601000Y-13649000D02*
X32001000Y-14049000D01*
X32001000Y-13649000D02*
X31601000Y-14049000D01*
X31801000Y-13649000D02*
X31801000Y-14049000D01*
X31601000Y-13849000D02*
X32001000Y-13849000D01*
X23981000Y-6029000D02*
X24381000Y-6429000D01*
X24381000Y-6029000D02*
X23981000Y-6429000D01*
X24181000Y-6029000D02*
X24181000Y-6429000D01*
X23981000Y-6229000D02*
X24381000Y-6229000D01*
X28743500Y-7934000D02*
X29143500Y-8334000D01*
X29143500Y-7934000D02*
X28743500Y-8334000D01*
X28943500Y-7934000D02*
X28943500Y-8334000D01*
X28743500Y-8134000D02*
X29143500Y-8134000D01*
X27076500Y-13649000D02*
X27476500Y-14049000D01*
X27476500Y-13649000D02*
X27076500Y-14049000D01*
X27276500Y-13649000D02*
X27276500Y-14049000D01*
X27076500Y-13849000D02*
X27476500Y-13849000D01*
X25409750Y-9839000D02*
X25809750Y-10239000D01*
X25809750Y-9839000D02*
X25409750Y-10239000D01*
X25609750Y-9839000D02*
X25609750Y-10239000D01*
X25409750Y-10039000D02*
X25809750Y-10039000D01*
X33029750Y-9839000D02*
X33429750Y-10239000D01*
X33429750Y-9839000D02*
X33029750Y-10239000D01*
X33229750Y-9839000D02*
X33229750Y-10239000D01*
X33029750Y-10039000D02*
X33429750Y-10039000D01*
X36363500Y-6029000D02*
X36763500Y-6429000D01*
X36763500Y-6029000D02*
X36363500Y-6429000D01*
X36563500Y-6029000D02*
X36563500Y-6429000D01*
X36363500Y-6229000D02*
X36763500Y-6229000D01*
X36839750Y-7934000D02*
X37239750Y-8334000D01*
X37239750Y-7934000D02*
X36839750Y-8334000D01*
X37039750Y-7934000D02*
X37039750Y-8334000D01*
X36839750Y-8134000D02*
X37239750Y-8134000D01*
X22076000Y-3647750D02*
X22476000Y-4047750D01*
X22476000Y-3647750D02*
X22076000Y-4047750D01*
X22276000Y-3647750D02*
X22276000Y-4047750D01*
X22076000Y-3847750D02*
X22476000Y-3847750D01*
X34935390Y-10663000D02*
X35335390Y-11063000D01*
X35335390Y-10663000D02*
X34935390Y-11063000D01*
X35135390Y-10663000D02*
X35135390Y-11063000D01*
X34935390Y-10863000D02*
X35335390Y-10863000D01*
X36125390Y-9839000D02*
X36525390Y-10239000D01*
X36525390Y-9839000D02*
X36125390Y-10239000D01*
X36325390Y-9839000D02*
X36325390Y-10239000D01*
X36125390Y-10039000D02*
X36525390Y-10039000D01*
X37315390Y-10663000D02*
X37715390Y-11063000D01*
X37715390Y-10663000D02*
X37315390Y-11063000D01*
X37515390Y-10663000D02*
X37515390Y-11063000D01*
X37315390Y-10863000D02*
X37715390Y-10863000D01*
X26838500Y-7934000D02*
X27238500Y-8334000D01*
X27238500Y-7934000D02*
X26838500Y-8334000D01*
X27038500Y-7934000D02*
X27038500Y-8334000D01*
X26838500Y-8134000D02*
X27238500Y-8134000D01*
X25886000Y-3647750D02*
X26286000Y-4047750D01*
X26286000Y-3647750D02*
X25886000Y-4047750D01*
X26086000Y-3647750D02*
X26086000Y-4047750D01*
X25886000Y-3847750D02*
X26286000Y-3847750D01*
X22076000Y-6029000D02*
X22476000Y-6429000D01*
X22476000Y-6029000D02*
X22076000Y-6429000D01*
X22276000Y-6029000D02*
X22276000Y-6429000D01*
X22076000Y-6229000D02*
X22476000Y-6229000D01*
X35411000Y-13649000D02*
X35811000Y-14049000D01*
X35811000Y-13649000D02*
X35411000Y-14049000D01*
X35611000Y-13649000D02*
X35611000Y-14049000D01*
X35411000Y-13849000D02*
X35811000Y-13849000D01*
X33506000Y-13649000D02*
X33906000Y-14049000D01*
X33906000Y-13649000D02*
X33506000Y-14049000D01*
X33706000Y-13649000D02*
X33706000Y-14049000D01*
X33506000Y-13849000D02*
X33906000Y-13849000D01*
X22552750Y-14473000D02*
X22952750Y-14873000D01*
X22952750Y-14473000D02*
X22552750Y-14873000D01*
X22752750Y-14473000D02*
X22752750Y-14873000D01*
X22552750Y-14673000D02*
X22952750Y-14673000D01*
X23742750Y-13649000D02*
X24142750Y-14049000D01*
X24142750Y-13649000D02*
X23742750Y-14049000D01*
X23942750Y-13649000D02*
X23942750Y-14049000D01*
X23742750Y-13849000D02*
X24142750Y-13849000D01*
X24932750Y-14473000D02*
X25332750Y-14873000D01*
X25332750Y-14473000D02*
X24932750Y-14873000D01*
X25132750Y-14473000D02*
X25132750Y-14873000D01*
X24932750Y-14673000D02*
X25332750Y-14673000D01*
X27791000Y-6029000D02*
X28191000Y-6429000D01*
X28191000Y-6029000D02*
X27791000Y-6429000D01*
X27991000Y-6029000D02*
X27991000Y-6429000D01*
X27791000Y-6229000D02*
X28191000Y-6229000D01*
X23981000Y-3647750D02*
X24381000Y-4047750D01*
X24381000Y-3647750D02*
X23981000Y-4047750D01*
X24181000Y-3647750D02*
X24181000Y-4047750D01*
X23981000Y-3847750D02*
X24381000Y-3847750D01*
X28743500Y-3647750D02*
X29143500Y-4047750D01*
X29143500Y-3647750D02*
X28743500Y-4047750D01*
X28943500Y-3647750D02*
X28943500Y-4047750D01*
X28743500Y-3847750D02*
X29143500Y-3847750D01*
X30648500Y-7934000D02*
X31048500Y-8334000D01*
X31048500Y-7934000D02*
X30648500Y-8334000D01*
X30848500Y-7934000D02*
X30848500Y-8334000D01*
X30648500Y-8134000D02*
X31048500Y-8134000D01*
X29219750Y-9839000D02*
X29619750Y-10239000D01*
X29619750Y-9839000D02*
X29219750Y-10239000D01*
X29419750Y-9839000D02*
X29419750Y-10239000D01*
X29219750Y-10039000D02*
X29619750Y-10039000D01*
X30648500Y-3647750D02*
X31048500Y-4047750D01*
X31048500Y-3647750D02*
X30648500Y-4047750D01*
X30848500Y-3647750D02*
X30848500Y-4047750D01*
X30648500Y-3847750D02*
X31048500Y-3847750D01*
X20171000Y-3647750D02*
X20571000Y-4047750D01*
X20571000Y-3647750D02*
X20171000Y-4047750D01*
X20371000Y-3647750D02*
X20371000Y-4047750D01*
X20171000Y-3847750D02*
X20571000Y-3847750D01*
X34458500Y-7934000D02*
X34858500Y-8334000D01*
X34858500Y-7934000D02*
X34458500Y-8334000D01*
X34658500Y-7934000D02*
X34658500Y-8334000D01*
X34458500Y-8134000D02*
X34858500Y-8134000D01*
X31601000Y-6029000D02*
X32001000Y-6429000D01*
X32001000Y-6029000D02*
X31601000Y-6429000D01*
X31801000Y-6029000D02*
X31801000Y-6429000D01*
X31601000Y-6229000D02*
X32001000Y-6229000D01*
X24933500Y-7934000D02*
X25333500Y-8334000D01*
X25333500Y-7934000D02*
X24933500Y-8334000D01*
X25133500Y-7934000D02*
X25133500Y-8334000D01*
X24933500Y-8134000D02*
X25333500Y-8134000D01*
X29696000Y-6029000D02*
X30096000Y-6429000D01*
X30096000Y-6029000D02*
X29696000Y-6429000D01*
X29896000Y-6029000D02*
X29896000Y-6429000D01*
X29696000Y-6229000D02*
X30096000Y-6229000D01*
X37316000Y-13649000D02*
X37716000Y-14049000D01*
X37716000Y-13649000D02*
X37316000Y-14049000D01*
X37516000Y-13649000D02*
X37516000Y-14049000D01*
X37316000Y-13849000D02*
X37716000Y-13849000D01*
X37316000Y-6029000D02*
X37716000Y-6429000D01*
X37716000Y-6029000D02*
X37316000Y-6429000D01*
X37516000Y-6029000D02*
X37516000Y-6429000D01*
X37316000Y-6229000D02*
X37716000Y-6229000D01*
X32553500Y-3647750D02*
X32953500Y-4047750D01*
X32953500Y-3647750D02*
X32553500Y-4047750D01*
X32753500Y-3647750D02*
X32753500Y-4047750D01*
X32553500Y-3847750D02*
X32953500Y-3847750D01*
X24457250Y-11744000D02*
X24857250Y-12144000D01*
X24857250Y-11744000D02*
X24457250Y-12144000D01*
X24657250Y-11744000D02*
X24657250Y-12144000D01*
X24457250Y-11944000D02*
X24857250Y-11944000D01*
X30172250Y-11744000D02*
X30572250Y-12144000D01*
X30572250Y-11744000D02*
X30172250Y-12144000D01*
X30372250Y-11744000D02*
X30372250Y-12144000D01*
X30172250Y-11944000D02*
X30572250Y-11944000D01*
X32553500Y-7934000D02*
X32953500Y-8334000D01*
X32953500Y-7934000D02*
X32553500Y-8334000D01*
X32753500Y-7934000D02*
X32753500Y-8334000D01*
X32553500Y-8134000D02*
X32953500Y-8134000D01*
X27314750Y-9839000D02*
X27714750Y-10239000D01*
X27714750Y-9839000D02*
X27314750Y-10239000D01*
X27514750Y-9839000D02*
X27514750Y-10239000D01*
X27314750Y-10039000D02*
X27714750Y-10039000D01*
X25886000Y-6029000D02*
X26286000Y-6429000D01*
X26286000Y-6029000D02*
X25886000Y-6429000D01*
X26086000Y-6029000D02*
X26086000Y-6429000D01*
X25886000Y-6229000D02*
X26286000Y-6229000D01*
X35411000Y-6029000D02*
X35811000Y-6429000D01*
X35811000Y-6029000D02*
X35411000Y-6429000D01*
X35611000Y-6029000D02*
X35611000Y-6429000D01*
X35411000Y-6229000D02*
X35811000Y-6229000D01*
D12*
X19219178Y-15577714D02*
X19219178Y-15277714D01*
X19290607Y-15277714D01*
X19333464Y-15292000D01*
X19362036Y-15320571D01*
X19376321Y-15349143D01*
X19390607Y-15406286D01*
X19390607Y-15449143D01*
X19376321Y-15506286D01*
X19362036Y-15534857D01*
X19333464Y-15563429D01*
X19290607Y-15577714D01*
X19219178Y-15577714D01*
X19519178Y-15577714D02*
X19519178Y-15377714D01*
X19519178Y-15434857D02*
X19533464Y-15406286D01*
X19547750Y-15392000D01*
X19576321Y-15377714D01*
X19604893Y-15377714D01*
X19704893Y-15577714D02*
X19704893Y-15377714D01*
X19704893Y-15277714D02*
X19690607Y-15292000D01*
X19704893Y-15306286D01*
X19719178Y-15292000D01*
X19704893Y-15277714D01*
X19704893Y-15306286D01*
X19890607Y-15577714D02*
X19862036Y-15563429D01*
X19847750Y-15534857D01*
X19847750Y-15277714D01*
X20047750Y-15577714D02*
X20019178Y-15563429D01*
X20004893Y-15534857D01*
X20004893Y-15277714D01*
X20390607Y-15577714D02*
X20390607Y-15277714D01*
X20490607Y-15492000D01*
X20590607Y-15277714D01*
X20590607Y-15577714D01*
X20862036Y-15577714D02*
X20862036Y-15420571D01*
X20847750Y-15392000D01*
X20819178Y-15377714D01*
X20762036Y-15377714D01*
X20733464Y-15392000D01*
X20862036Y-15563429D02*
X20833464Y-15577714D01*
X20762036Y-15577714D01*
X20733464Y-15563429D01*
X20719178Y-15534857D01*
X20719178Y-15506286D01*
X20733464Y-15477714D01*
X20762036Y-15463429D01*
X20833464Y-15463429D01*
X20862036Y-15449143D01*
X21004893Y-15377714D02*
X21004893Y-15677714D01*
X21004893Y-15392000D02*
X21033464Y-15377714D01*
X21090607Y-15377714D01*
X21119178Y-15392000D01*
X21133464Y-15406286D01*
X21147750Y-15434857D01*
X21147750Y-15520571D01*
X21133464Y-15549143D01*
X21119178Y-15563429D01*
X21090607Y-15577714D01*
X21033464Y-15577714D01*
X21004893Y-15563429D01*
X21276321Y-15549143D02*
X21290607Y-15563429D01*
X21276321Y-15577714D01*
X21262036Y-15563429D01*
X21276321Y-15549143D01*
X21276321Y-15577714D01*
X21276321Y-15392000D02*
X21290607Y-15406286D01*
X21276321Y-15420571D01*
X21262036Y-15406286D01*
X21276321Y-15392000D01*
X21276321Y-15420571D01*
X18832750Y-16022000D02*
X18932750Y-16122000D01*
X18932750Y-16022000D02*
X18832750Y-16122000D01*
X19376321Y-16207714D02*
X19204893Y-16207714D01*
X19290607Y-16207714D02*
X19290607Y-15907714D01*
X19262036Y-15950571D01*
X19233464Y-15979143D01*
X19204893Y-15993429D01*
X19504893Y-16179143D02*
X19519178Y-16193429D01*
X19504893Y-16207714D01*
X19490607Y-16193429D01*
X19504893Y-16179143D01*
X19504893Y-16207714D01*
X19704893Y-15907714D02*
X19733464Y-15907714D01*
X19762036Y-15922000D01*
X19776321Y-15936286D01*
X19790607Y-15964857D01*
X19804893Y-16022000D01*
X19804893Y-16093429D01*
X19790607Y-16150571D01*
X19776321Y-16179143D01*
X19762036Y-16193429D01*
X19733464Y-16207714D01*
X19704893Y-16207714D01*
X19676321Y-16193429D01*
X19662036Y-16179143D01*
X19647750Y-16150571D01*
X19633464Y-16093429D01*
X19633464Y-16022000D01*
X19647750Y-15964857D01*
X19662036Y-15936286D01*
X19676321Y-15922000D01*
X19704893Y-15907714D01*
X19990607Y-15907714D02*
X20019178Y-15907714D01*
X20047750Y-15922000D01*
X20062036Y-15936286D01*
X20076321Y-15964857D01*
X20090607Y-16022000D01*
X20090607Y-16093429D01*
X20076321Y-16150571D01*
X20062036Y-16179143D01*
X20047750Y-16193429D01*
X20019178Y-16207714D01*
X19990607Y-16207714D01*
X19962036Y-16193429D01*
X19947750Y-16179143D01*
X19933464Y-16150571D01*
X19919178Y-16093429D01*
X19919178Y-16022000D01*
X19933464Y-15964857D01*
X19947750Y-15936286D01*
X19962036Y-15922000D01*
X19990607Y-15907714D01*
X20219178Y-16207714D02*
X20219178Y-16007714D01*
X20219178Y-16036286D02*
X20233464Y-16022000D01*
X20262036Y-16007714D01*
X20304893Y-16007714D01*
X20333464Y-16022000D01*
X20347750Y-16050571D01*
X20347750Y-16207714D01*
X20347750Y-16050571D02*
X20362036Y-16022000D01*
X20390607Y-16007714D01*
X20433464Y-16007714D01*
X20462036Y-16022000D01*
X20476321Y-16050571D01*
X20476321Y-16207714D01*
X20619178Y-16207714D02*
X20619178Y-16007714D01*
X20619178Y-16036286D02*
X20633464Y-16022000D01*
X20662036Y-16007714D01*
X20704893Y-16007714D01*
X20733464Y-16022000D01*
X20747750Y-16050571D01*
X20747750Y-16207714D01*
X20747750Y-16050571D02*
X20762036Y-16022000D01*
X20790607Y-16007714D01*
X20833464Y-16007714D01*
X20862036Y-16022000D01*
X20876321Y-16050571D01*
X20876321Y-16207714D01*
X21462036Y-15893429D02*
X21204893Y-16279143D01*
X21847750Y-15907714D02*
X21876321Y-15907714D01*
X21904893Y-15922000D01*
X21919178Y-15936286D01*
X21933464Y-15964857D01*
X21947750Y-16022000D01*
X21947750Y-16093429D01*
X21933464Y-16150571D01*
X21919178Y-16179143D01*
X21904893Y-16193429D01*
X21876321Y-16207714D01*
X21847750Y-16207714D01*
X21819178Y-16193429D01*
X21804893Y-16179143D01*
X21790607Y-16150571D01*
X21776321Y-16093429D01*
X21776321Y-16022000D01*
X21790607Y-15964857D01*
X21804893Y-15936286D01*
X21819178Y-15922000D01*
X21847750Y-15907714D01*
X22076321Y-16179143D02*
X22090607Y-16193429D01*
X22076321Y-16207714D01*
X22062036Y-16193429D01*
X22076321Y-16179143D01*
X22076321Y-16207714D01*
X22276321Y-15907714D02*
X22304893Y-15907714D01*
X22333464Y-15922000D01*
X22347750Y-15936286D01*
X22362036Y-15964857D01*
X22376321Y-16022000D01*
X22376321Y-16093429D01*
X22362036Y-16150571D01*
X22347750Y-16179143D01*
X22333464Y-16193429D01*
X22304893Y-16207714D01*
X22276321Y-16207714D01*
X22247750Y-16193429D01*
X22233464Y-16179143D01*
X22219178Y-16150571D01*
X22204893Y-16093429D01*
X22204893Y-16022000D01*
X22219178Y-15964857D01*
X22233464Y-15936286D01*
X22247750Y-15922000D01*
X22276321Y-15907714D01*
X22476321Y-15907714D02*
X22662036Y-15907714D01*
X22562036Y-16022000D01*
X22604893Y-16022000D01*
X22633464Y-16036286D01*
X22647750Y-16050571D01*
X22662036Y-16079143D01*
X22662036Y-16150571D01*
X22647750Y-16179143D01*
X22633464Y-16193429D01*
X22604893Y-16207714D01*
X22519178Y-16207714D01*
X22490607Y-16193429D01*
X22476321Y-16179143D01*
X22804893Y-16207714D02*
X22862036Y-16207714D01*
X22890607Y-16193429D01*
X22904893Y-16179143D01*
X22933464Y-16136286D01*
X22947750Y-16079143D01*
X22947750Y-15964857D01*
X22933464Y-15936286D01*
X22919178Y-15922000D01*
X22890607Y-15907714D01*
X22833464Y-15907714D01*
X22804893Y-15922000D01*
X22790607Y-15936286D01*
X22776321Y-15964857D01*
X22776321Y-16036286D01*
X22790607Y-16064857D01*
X22804893Y-16079143D01*
X22833464Y-16093429D01*
X22890607Y-16093429D01*
X22919178Y-16079143D01*
X22933464Y-16064857D01*
X22947750Y-16036286D01*
X23062036Y-15907714D02*
X23062036Y-15964857D01*
X23176321Y-15907714D02*
X23176321Y-15964857D01*
X23619178Y-16322000D02*
X23604893Y-16307714D01*
X23576321Y-16264857D01*
X23562036Y-16236286D01*
X23547750Y-16193429D01*
X23533464Y-16122000D01*
X23533464Y-16064857D01*
X23547750Y-15993429D01*
X23562036Y-15950571D01*
X23576321Y-15922000D01*
X23604893Y-15879143D01*
X23619178Y-15864857D01*
X23790607Y-15907714D02*
X23819178Y-15907714D01*
X23847750Y-15922000D01*
X23862036Y-15936286D01*
X23876321Y-15964857D01*
X23890607Y-16022000D01*
X23890607Y-16093429D01*
X23876321Y-16150571D01*
X23862036Y-16179143D01*
X23847750Y-16193429D01*
X23819178Y-16207714D01*
X23790607Y-16207714D01*
X23762036Y-16193429D01*
X23747750Y-16179143D01*
X23733464Y-16150571D01*
X23719178Y-16093429D01*
X23719178Y-16022000D01*
X23733464Y-15964857D01*
X23747750Y-15936286D01*
X23762036Y-15922000D01*
X23790607Y-15907714D01*
X24247750Y-16207714D02*
X24247750Y-15907714D01*
X24376321Y-16207714D02*
X24376321Y-16050571D01*
X24362036Y-16022000D01*
X24333464Y-16007714D01*
X24290607Y-16007714D01*
X24262036Y-16022000D01*
X24247750Y-16036286D01*
X24562036Y-16207714D02*
X24533464Y-16193429D01*
X24519178Y-16179143D01*
X24504893Y-16150571D01*
X24504893Y-16064857D01*
X24519178Y-16036286D01*
X24533464Y-16022000D01*
X24562036Y-16007714D01*
X24604893Y-16007714D01*
X24633464Y-16022000D01*
X24647750Y-16036286D01*
X24662036Y-16064857D01*
X24662036Y-16150571D01*
X24647750Y-16179143D01*
X24633464Y-16193429D01*
X24604893Y-16207714D01*
X24562036Y-16207714D01*
X24833464Y-16207714D02*
X24804893Y-16193429D01*
X24790607Y-16164857D01*
X24790607Y-15907714D01*
X25062036Y-16193429D02*
X25033464Y-16207714D01*
X24976321Y-16207714D01*
X24947750Y-16193429D01*
X24933464Y-16164857D01*
X24933464Y-16050571D01*
X24947750Y-16022000D01*
X24976321Y-16007714D01*
X25033464Y-16007714D01*
X25062036Y-16022000D01*
X25076321Y-16050571D01*
X25076321Y-16079143D01*
X24933464Y-16107714D01*
X25190607Y-16193429D02*
X25219178Y-16207714D01*
X25276321Y-16207714D01*
X25304893Y-16193429D01*
X25319178Y-16164857D01*
X25319178Y-16150571D01*
X25304893Y-16122000D01*
X25276321Y-16107714D01*
X25233464Y-16107714D01*
X25204893Y-16093429D01*
X25190607Y-16064857D01*
X25190607Y-16050571D01*
X25204893Y-16022000D01*
X25233464Y-16007714D01*
X25276321Y-16007714D01*
X25304893Y-16022000D01*
X25676321Y-16093429D02*
X25904893Y-16093429D01*
X25790607Y-16207714D02*
X25790607Y-15979143D01*
X26433464Y-16207714D02*
X26262036Y-16207714D01*
X26347750Y-16207714D02*
X26347750Y-15907714D01*
X26319178Y-15950571D01*
X26290607Y-15979143D01*
X26262036Y-15993429D01*
X26619178Y-15907714D02*
X26647750Y-15907714D01*
X26676321Y-15922000D01*
X26690607Y-15936286D01*
X26704893Y-15964857D01*
X26719178Y-16022000D01*
X26719178Y-16093429D01*
X26704893Y-16150571D01*
X26690607Y-16179143D01*
X26676321Y-16193429D01*
X26647750Y-16207714D01*
X26619178Y-16207714D01*
X26590607Y-16193429D01*
X26576321Y-16179143D01*
X26562036Y-16150571D01*
X26547750Y-16093429D01*
X26547750Y-16022000D01*
X26562036Y-15964857D01*
X26576321Y-15936286D01*
X26590607Y-15922000D01*
X26619178Y-15907714D01*
X27062036Y-16193429D02*
X27090607Y-16207714D01*
X27147750Y-16207714D01*
X27176321Y-16193429D01*
X27190607Y-16164857D01*
X27190607Y-16150571D01*
X27176321Y-16122000D01*
X27147750Y-16107714D01*
X27104893Y-16107714D01*
X27076321Y-16093429D01*
X27062036Y-16064857D01*
X27062036Y-16050571D01*
X27076321Y-16022000D01*
X27104893Y-16007714D01*
X27147750Y-16007714D01*
X27176321Y-16022000D01*
X27362036Y-16207714D02*
X27333464Y-16193429D01*
X27319178Y-16164857D01*
X27319178Y-15907714D01*
X27519178Y-16207714D02*
X27490607Y-16193429D01*
X27476321Y-16179143D01*
X27462036Y-16150571D01*
X27462036Y-16064857D01*
X27476321Y-16036286D01*
X27490607Y-16022000D01*
X27519178Y-16007714D01*
X27562036Y-16007714D01*
X27590607Y-16022000D01*
X27604893Y-16036286D01*
X27619178Y-16064857D01*
X27619178Y-16150571D01*
X27604893Y-16179143D01*
X27590607Y-16193429D01*
X27562036Y-16207714D01*
X27519178Y-16207714D01*
X27704893Y-16007714D02*
X27819178Y-16007714D01*
X27747750Y-15907714D02*
X27747750Y-16164857D01*
X27762036Y-16193429D01*
X27790607Y-16207714D01*
X27819178Y-16207714D01*
X27904893Y-16193429D02*
X27933464Y-16207714D01*
X27990607Y-16207714D01*
X28019178Y-16193429D01*
X28033464Y-16164857D01*
X28033464Y-16150571D01*
X28019178Y-16122000D01*
X27990607Y-16107714D01*
X27947750Y-16107714D01*
X27919178Y-16093429D01*
X27904893Y-16064857D01*
X27904893Y-16050571D01*
X27919178Y-16022000D01*
X27947750Y-16007714D01*
X27990607Y-16007714D01*
X28019178Y-16022000D01*
X28133464Y-16322000D02*
X28147750Y-16307714D01*
X28176321Y-16264857D01*
X28190607Y-16236286D01*
X28204893Y-16193429D01*
X28219178Y-16122000D01*
X28219178Y-16064857D01*
X28204893Y-15993429D01*
X28190607Y-15950571D01*
X28176321Y-15922000D01*
X28147750Y-15879143D01*
X28133464Y-15864857D01*
X28676321Y-16322000D02*
X28662036Y-16307714D01*
X28633464Y-16264857D01*
X28619178Y-16236286D01*
X28604893Y-16193429D01*
X28590607Y-16122000D01*
X28590607Y-16064857D01*
X28604893Y-15993429D01*
X28619178Y-15950571D01*
X28633464Y-15922000D01*
X28662036Y-15879143D01*
X28676321Y-15864857D01*
X28790607Y-16007714D02*
X28790607Y-16207714D01*
X28790607Y-16036286D02*
X28804893Y-16022000D01*
X28833464Y-16007714D01*
X28876321Y-16007714D01*
X28904893Y-16022000D01*
X28919178Y-16050571D01*
X28919178Y-16207714D01*
X29104893Y-16207714D02*
X29076321Y-16193429D01*
X29062036Y-16179143D01*
X29047750Y-16150571D01*
X29047750Y-16064857D01*
X29062036Y-16036286D01*
X29076321Y-16022000D01*
X29104893Y-16007714D01*
X29147750Y-16007714D01*
X29176321Y-16022000D01*
X29190607Y-16036286D01*
X29204893Y-16064857D01*
X29204893Y-16150571D01*
X29190607Y-16179143D01*
X29176321Y-16193429D01*
X29147750Y-16207714D01*
X29104893Y-16207714D01*
X29290607Y-16007714D02*
X29404893Y-16007714D01*
X29333464Y-15907714D02*
X29333464Y-16164857D01*
X29347750Y-16193429D01*
X29376321Y-16207714D01*
X29404893Y-16207714D01*
X29733464Y-16007714D02*
X29733464Y-16307714D01*
X29733464Y-16022000D02*
X29762036Y-16007714D01*
X29819178Y-16007714D01*
X29847750Y-16022000D01*
X29862036Y-16036286D01*
X29876321Y-16064857D01*
X29876321Y-16150571D01*
X29862036Y-16179143D01*
X29847750Y-16193429D01*
X29819178Y-16207714D01*
X29762036Y-16207714D01*
X29733464Y-16193429D01*
X30047750Y-16207714D02*
X30019178Y-16193429D01*
X30004893Y-16164857D01*
X30004893Y-15907714D01*
X30290607Y-16207714D02*
X30290607Y-16050571D01*
X30276321Y-16022000D01*
X30247750Y-16007714D01*
X30190607Y-16007714D01*
X30162036Y-16022000D01*
X30290607Y-16193429D02*
X30262036Y-16207714D01*
X30190607Y-16207714D01*
X30162036Y-16193429D01*
X30147750Y-16164857D01*
X30147750Y-16136286D01*
X30162036Y-16107714D01*
X30190607Y-16093429D01*
X30262036Y-16093429D01*
X30290607Y-16079143D01*
X30390607Y-16007714D02*
X30504893Y-16007714D01*
X30433464Y-15907714D02*
X30433464Y-16164857D01*
X30447750Y-16193429D01*
X30476321Y-16207714D01*
X30504893Y-16207714D01*
X30719178Y-16193429D02*
X30690607Y-16207714D01*
X30633464Y-16207714D01*
X30604893Y-16193429D01*
X30590607Y-16164857D01*
X30590607Y-16050571D01*
X30604893Y-16022000D01*
X30633464Y-16007714D01*
X30690607Y-16007714D01*
X30719178Y-16022000D01*
X30733464Y-16050571D01*
X30733464Y-16079143D01*
X30590607Y-16107714D01*
X30990607Y-16207714D02*
X30990607Y-15907714D01*
X30990607Y-16193429D02*
X30962036Y-16207714D01*
X30904893Y-16207714D01*
X30876321Y-16193429D01*
X30862036Y-16179143D01*
X30847750Y-16150571D01*
X30847750Y-16064857D01*
X30862036Y-16036286D01*
X30876321Y-16022000D01*
X30904893Y-16007714D01*
X30962036Y-16007714D01*
X30990607Y-16022000D01*
X31104893Y-16322000D02*
X31119178Y-16307714D01*
X31147750Y-16264857D01*
X31162036Y-16236286D01*
X31176321Y-16193429D01*
X31190607Y-16122000D01*
X31190607Y-16064857D01*
X31176321Y-15993429D01*
X31162036Y-15950571D01*
X31147750Y-15922000D01*
X31119178Y-15879143D01*
X31104893Y-15864857D01*
X18932750Y-16468000D02*
G75*
G03X18932750Y-16468000I-60000J0D01*
G01*
X19376321Y-16603714D02*
X19204893Y-16603714D01*
X19290607Y-16603714D02*
X19290607Y-16303714D01*
X19262036Y-16346571D01*
X19233464Y-16375143D01*
X19204893Y-16389429D01*
X19504893Y-16575143D02*
X19519178Y-16589429D01*
X19504893Y-16603714D01*
X19490607Y-16589429D01*
X19504893Y-16575143D01*
X19504893Y-16603714D01*
X19633464Y-16332286D02*
X19647750Y-16318000D01*
X19676321Y-16303714D01*
X19747750Y-16303714D01*
X19776321Y-16318000D01*
X19790607Y-16332286D01*
X19804893Y-16360857D01*
X19804893Y-16389429D01*
X19790607Y-16432286D01*
X19619178Y-16603714D01*
X19804893Y-16603714D01*
X19990607Y-16303714D02*
X20019178Y-16303714D01*
X20047750Y-16318000D01*
X20062036Y-16332286D01*
X20076321Y-16360857D01*
X20090607Y-16418000D01*
X20090607Y-16489429D01*
X20076321Y-16546571D01*
X20062036Y-16575143D01*
X20047750Y-16589429D01*
X20019178Y-16603714D01*
X19990607Y-16603714D01*
X19962036Y-16589429D01*
X19947750Y-16575143D01*
X19933464Y-16546571D01*
X19919178Y-16489429D01*
X19919178Y-16418000D01*
X19933464Y-16360857D01*
X19947750Y-16332286D01*
X19962036Y-16318000D01*
X19990607Y-16303714D01*
X20219178Y-16603714D02*
X20219178Y-16403714D01*
X20219178Y-16432286D02*
X20233464Y-16418000D01*
X20262036Y-16403714D01*
X20304893Y-16403714D01*
X20333464Y-16418000D01*
X20347750Y-16446571D01*
X20347750Y-16603714D01*
X20347750Y-16446571D02*
X20362036Y-16418000D01*
X20390607Y-16403714D01*
X20433464Y-16403714D01*
X20462036Y-16418000D01*
X20476321Y-16446571D01*
X20476321Y-16603714D01*
X20619178Y-16603714D02*
X20619178Y-16403714D01*
X20619178Y-16432286D02*
X20633464Y-16418000D01*
X20662036Y-16403714D01*
X20704893Y-16403714D01*
X20733464Y-16418000D01*
X20747750Y-16446571D01*
X20747750Y-16603714D01*
X20747750Y-16446571D02*
X20762036Y-16418000D01*
X20790607Y-16403714D01*
X20833464Y-16403714D01*
X20862036Y-16418000D01*
X20876321Y-16446571D01*
X20876321Y-16603714D01*
X21462036Y-16289429D02*
X21204893Y-16675143D01*
X21847750Y-16303714D02*
X21876321Y-16303714D01*
X21904893Y-16318000D01*
X21919178Y-16332286D01*
X21933464Y-16360857D01*
X21947750Y-16418000D01*
X21947750Y-16489429D01*
X21933464Y-16546571D01*
X21919178Y-16575143D01*
X21904893Y-16589429D01*
X21876321Y-16603714D01*
X21847750Y-16603714D01*
X21819178Y-16589429D01*
X21804893Y-16575143D01*
X21790607Y-16546571D01*
X21776321Y-16489429D01*
X21776321Y-16418000D01*
X21790607Y-16360857D01*
X21804893Y-16332286D01*
X21819178Y-16318000D01*
X21847750Y-16303714D01*
X22076321Y-16575143D02*
X22090607Y-16589429D01*
X22076321Y-16603714D01*
X22062036Y-16589429D01*
X22076321Y-16575143D01*
X22076321Y-16603714D01*
X22276321Y-16303714D02*
X22304893Y-16303714D01*
X22333464Y-16318000D01*
X22347750Y-16332286D01*
X22362036Y-16360857D01*
X22376321Y-16418000D01*
X22376321Y-16489429D01*
X22362036Y-16546571D01*
X22347750Y-16575143D01*
X22333464Y-16589429D01*
X22304893Y-16603714D01*
X22276321Y-16603714D01*
X22247750Y-16589429D01*
X22233464Y-16575143D01*
X22219178Y-16546571D01*
X22204893Y-16489429D01*
X22204893Y-16418000D01*
X22219178Y-16360857D01*
X22233464Y-16332286D01*
X22247750Y-16318000D01*
X22276321Y-16303714D01*
X22633464Y-16403714D02*
X22633464Y-16603714D01*
X22562036Y-16289429D02*
X22490607Y-16503714D01*
X22676321Y-16503714D01*
X22762036Y-16303714D02*
X22962036Y-16303714D01*
X22833464Y-16603714D01*
X23062036Y-16303714D02*
X23062036Y-16360857D01*
X23176321Y-16303714D02*
X23176321Y-16360857D01*
X23619178Y-16718000D02*
X23604893Y-16703714D01*
X23576321Y-16660857D01*
X23562036Y-16632286D01*
X23547750Y-16589429D01*
X23533464Y-16518000D01*
X23533464Y-16460857D01*
X23547750Y-16389429D01*
X23562036Y-16346571D01*
X23576321Y-16318000D01*
X23604893Y-16275143D01*
X23619178Y-16260857D01*
X23862036Y-16403714D02*
X23862036Y-16603714D01*
X23790607Y-16289429D02*
X23719178Y-16503714D01*
X23904893Y-16503714D01*
X24247750Y-16603714D02*
X24247750Y-16303714D01*
X24376321Y-16603714D02*
X24376321Y-16446571D01*
X24362036Y-16418000D01*
X24333464Y-16403714D01*
X24290607Y-16403714D01*
X24262036Y-16418000D01*
X24247750Y-16432286D01*
X24562036Y-16603714D02*
X24533464Y-16589429D01*
X24519178Y-16575143D01*
X24504893Y-16546571D01*
X24504893Y-16460857D01*
X24519178Y-16432286D01*
X24533464Y-16418000D01*
X24562036Y-16403714D01*
X24604893Y-16403714D01*
X24633464Y-16418000D01*
X24647750Y-16432286D01*
X24662036Y-16460857D01*
X24662036Y-16546571D01*
X24647750Y-16575143D01*
X24633464Y-16589429D01*
X24604893Y-16603714D01*
X24562036Y-16603714D01*
X24833464Y-16603714D02*
X24804893Y-16589429D01*
X24790607Y-16560857D01*
X24790607Y-16303714D01*
X25062036Y-16589429D02*
X25033464Y-16603714D01*
X24976321Y-16603714D01*
X24947750Y-16589429D01*
X24933464Y-16560857D01*
X24933464Y-16446571D01*
X24947750Y-16418000D01*
X24976321Y-16403714D01*
X25033464Y-16403714D01*
X25062036Y-16418000D01*
X25076321Y-16446571D01*
X25076321Y-16475143D01*
X24933464Y-16503714D01*
X25190607Y-16589429D02*
X25219178Y-16603714D01*
X25276321Y-16603714D01*
X25304893Y-16589429D01*
X25319178Y-16560857D01*
X25319178Y-16546571D01*
X25304893Y-16518000D01*
X25276321Y-16503714D01*
X25233464Y-16503714D01*
X25204893Y-16489429D01*
X25190607Y-16460857D01*
X25190607Y-16446571D01*
X25204893Y-16418000D01*
X25233464Y-16403714D01*
X25276321Y-16403714D01*
X25304893Y-16418000D01*
X25419178Y-16718000D02*
X25433464Y-16703714D01*
X25462036Y-16660857D01*
X25476321Y-16632286D01*
X25490607Y-16589429D01*
X25504893Y-16518000D01*
X25504893Y-16460857D01*
X25490607Y-16389429D01*
X25476321Y-16346571D01*
X25462036Y-16318000D01*
X25433464Y-16275143D01*
X25419178Y-16260857D01*
X25962036Y-16718000D02*
X25947750Y-16703714D01*
X25919178Y-16660857D01*
X25904893Y-16632286D01*
X25890607Y-16589429D01*
X25876321Y-16518000D01*
X25876321Y-16460857D01*
X25890607Y-16389429D01*
X25904893Y-16346571D01*
X25919178Y-16318000D01*
X25947750Y-16275143D01*
X25962036Y-16260857D01*
X26076321Y-16403714D02*
X26076321Y-16603714D01*
X26076321Y-16432286D02*
X26090607Y-16418000D01*
X26119178Y-16403714D01*
X26162036Y-16403714D01*
X26190607Y-16418000D01*
X26204893Y-16446571D01*
X26204893Y-16603714D01*
X26390607Y-16603714D02*
X26362036Y-16589429D01*
X26347750Y-16575143D01*
X26333464Y-16546571D01*
X26333464Y-16460857D01*
X26347750Y-16432286D01*
X26362036Y-16418000D01*
X26390607Y-16403714D01*
X26433464Y-16403714D01*
X26462036Y-16418000D01*
X26476321Y-16432286D01*
X26490607Y-16460857D01*
X26490607Y-16546571D01*
X26476321Y-16575143D01*
X26462036Y-16589429D01*
X26433464Y-16603714D01*
X26390607Y-16603714D01*
X26576321Y-16403714D02*
X26690607Y-16403714D01*
X26619178Y-16303714D02*
X26619178Y-16560857D01*
X26633464Y-16589429D01*
X26662036Y-16603714D01*
X26690607Y-16603714D01*
X27019178Y-16403714D02*
X27019178Y-16703714D01*
X27019178Y-16418000D02*
X27047750Y-16403714D01*
X27104893Y-16403714D01*
X27133464Y-16418000D01*
X27147750Y-16432286D01*
X27162036Y-16460857D01*
X27162036Y-16546571D01*
X27147750Y-16575143D01*
X27133464Y-16589429D01*
X27104893Y-16603714D01*
X27047750Y-16603714D01*
X27019178Y-16589429D01*
X27333464Y-16603714D02*
X27304893Y-16589429D01*
X27290607Y-16560857D01*
X27290607Y-16303714D01*
X27576321Y-16603714D02*
X27576321Y-16446571D01*
X27562036Y-16418000D01*
X27533464Y-16403714D01*
X27476321Y-16403714D01*
X27447750Y-16418000D01*
X27576321Y-16589429D02*
X27547750Y-16603714D01*
X27476321Y-16603714D01*
X27447750Y-16589429D01*
X27433464Y-16560857D01*
X27433464Y-16532286D01*
X27447750Y-16503714D01*
X27476321Y-16489429D01*
X27547750Y-16489429D01*
X27576321Y-16475143D01*
X27676321Y-16403714D02*
X27790607Y-16403714D01*
X27719178Y-16303714D02*
X27719178Y-16560857D01*
X27733464Y-16589429D01*
X27762036Y-16603714D01*
X27790607Y-16603714D01*
X28004893Y-16589429D02*
X27976321Y-16603714D01*
X27919178Y-16603714D01*
X27890607Y-16589429D01*
X27876321Y-16560857D01*
X27876321Y-16446571D01*
X27890607Y-16418000D01*
X27919178Y-16403714D01*
X27976321Y-16403714D01*
X28004893Y-16418000D01*
X28019178Y-16446571D01*
X28019178Y-16475143D01*
X27876321Y-16503714D01*
X28276321Y-16603714D02*
X28276321Y-16303714D01*
X28276321Y-16589429D02*
X28247750Y-16603714D01*
X28190607Y-16603714D01*
X28162036Y-16589429D01*
X28147750Y-16575143D01*
X28133464Y-16546571D01*
X28133464Y-16460857D01*
X28147750Y-16432286D01*
X28162036Y-16418000D01*
X28190607Y-16403714D01*
X28247750Y-16403714D01*
X28276321Y-16418000D01*
X28390607Y-16718000D02*
X28404893Y-16703714D01*
X28433464Y-16660857D01*
X28447750Y-16632286D01*
X28462036Y-16589429D01*
X28476321Y-16518000D01*
X28476321Y-16460857D01*
X28462036Y-16389429D01*
X28447750Y-16346571D01*
X28433464Y-16318000D01*
X28404893Y-16275143D01*
X28390607Y-16260857D01*
X18842750Y-16774000D02*
X18842750Y-16954000D01*
X18752750Y-16864000D02*
X18932750Y-16864000D01*
X19376321Y-16999714D02*
X19204893Y-16999714D01*
X19290607Y-16999714D02*
X19290607Y-16699714D01*
X19262036Y-16742571D01*
X19233464Y-16771143D01*
X19204893Y-16785429D01*
X19504893Y-16971143D02*
X19519178Y-16985429D01*
X19504893Y-16999714D01*
X19490607Y-16985429D01*
X19504893Y-16971143D01*
X19504893Y-16999714D01*
X19690607Y-16828286D02*
X19662036Y-16814000D01*
X19647750Y-16799714D01*
X19633464Y-16771143D01*
X19633464Y-16756857D01*
X19647750Y-16728286D01*
X19662036Y-16714000D01*
X19690607Y-16699714D01*
X19747750Y-16699714D01*
X19776321Y-16714000D01*
X19790607Y-16728286D01*
X19804893Y-16756857D01*
X19804893Y-16771143D01*
X19790607Y-16799714D01*
X19776321Y-16814000D01*
X19747750Y-16828286D01*
X19690607Y-16828286D01*
X19662036Y-16842572D01*
X19647750Y-16856857D01*
X19633464Y-16885429D01*
X19633464Y-16942572D01*
X19647750Y-16971143D01*
X19662036Y-16985429D01*
X19690607Y-16999714D01*
X19747750Y-16999714D01*
X19776321Y-16985429D01*
X19790607Y-16971143D01*
X19804893Y-16942572D01*
X19804893Y-16885429D01*
X19790607Y-16856857D01*
X19776321Y-16842572D01*
X19747750Y-16828286D01*
X19990607Y-16699714D02*
X20019178Y-16699714D01*
X20047750Y-16714000D01*
X20062036Y-16728286D01*
X20076321Y-16756857D01*
X20090607Y-16814000D01*
X20090607Y-16885429D01*
X20076321Y-16942572D01*
X20062036Y-16971143D01*
X20047750Y-16985429D01*
X20019178Y-16999714D01*
X19990607Y-16999714D01*
X19962036Y-16985429D01*
X19947750Y-16971143D01*
X19933464Y-16942572D01*
X19919178Y-16885429D01*
X19919178Y-16814000D01*
X19933464Y-16756857D01*
X19947750Y-16728286D01*
X19962036Y-16714000D01*
X19990607Y-16699714D01*
X20219178Y-16999714D02*
X20219178Y-16799714D01*
X20219178Y-16828286D02*
X20233464Y-16814000D01*
X20262036Y-16799714D01*
X20304893Y-16799714D01*
X20333464Y-16814000D01*
X20347750Y-16842572D01*
X20347750Y-16999714D01*
X20347750Y-16842572D02*
X20362036Y-16814000D01*
X20390607Y-16799714D01*
X20433464Y-16799714D01*
X20462036Y-16814000D01*
X20476321Y-16842572D01*
X20476321Y-16999714D01*
X20619178Y-16999714D02*
X20619178Y-16799714D01*
X20619178Y-16828286D02*
X20633464Y-16814000D01*
X20662036Y-16799714D01*
X20704893Y-16799714D01*
X20733464Y-16814000D01*
X20747750Y-16842572D01*
X20747750Y-16999714D01*
X20747750Y-16842572D02*
X20762036Y-16814000D01*
X20790607Y-16799714D01*
X20833464Y-16799714D01*
X20862036Y-16814000D01*
X20876321Y-16842572D01*
X20876321Y-16999714D01*
X21462036Y-16685429D02*
X21204893Y-17071143D01*
X21847750Y-16699714D02*
X21876321Y-16699714D01*
X21904893Y-16714000D01*
X21919178Y-16728286D01*
X21933464Y-16756857D01*
X21947750Y-16814000D01*
X21947750Y-16885429D01*
X21933464Y-16942572D01*
X21919178Y-16971143D01*
X21904893Y-16985429D01*
X21876321Y-16999714D01*
X21847750Y-16999714D01*
X21819178Y-16985429D01*
X21804893Y-16971143D01*
X21790607Y-16942572D01*
X21776321Y-16885429D01*
X21776321Y-16814000D01*
X21790607Y-16756857D01*
X21804893Y-16728286D01*
X21819178Y-16714000D01*
X21847750Y-16699714D01*
X22076321Y-16971143D02*
X22090607Y-16985429D01*
X22076321Y-16999714D01*
X22062036Y-16985429D01*
X22076321Y-16971143D01*
X22076321Y-16999714D01*
X22276321Y-16699714D02*
X22304893Y-16699714D01*
X22333464Y-16714000D01*
X22347750Y-16728286D01*
X22362036Y-16756857D01*
X22376321Y-16814000D01*
X22376321Y-16885429D01*
X22362036Y-16942572D01*
X22347750Y-16971143D01*
X22333464Y-16985429D01*
X22304893Y-16999714D01*
X22276321Y-16999714D01*
X22247750Y-16985429D01*
X22233464Y-16971143D01*
X22219178Y-16942572D01*
X22204893Y-16885429D01*
X22204893Y-16814000D01*
X22219178Y-16756857D01*
X22233464Y-16728286D01*
X22247750Y-16714000D01*
X22276321Y-16699714D01*
X22476321Y-16699714D02*
X22676321Y-16699714D01*
X22547750Y-16999714D01*
X22947750Y-16999714D02*
X22776321Y-16999714D01*
X22862036Y-16999714D02*
X22862036Y-16699714D01*
X22833464Y-16742571D01*
X22804893Y-16771143D01*
X22776321Y-16785429D01*
X23062036Y-16699714D02*
X23062036Y-16756857D01*
X23176321Y-16699714D02*
X23176321Y-16756857D01*
X23619178Y-17114000D02*
X23604893Y-17099714D01*
X23576321Y-17056857D01*
X23562036Y-17028286D01*
X23547750Y-16985429D01*
X23533464Y-16914000D01*
X23533464Y-16856857D01*
X23547750Y-16785429D01*
X23562036Y-16742571D01*
X23576321Y-16714000D01*
X23604893Y-16671143D01*
X23619178Y-16656857D01*
X23747750Y-16999714D02*
X23804893Y-16999714D01*
X23833464Y-16985429D01*
X23847750Y-16971143D01*
X23876321Y-16928286D01*
X23890607Y-16871143D01*
X23890607Y-16756857D01*
X23876321Y-16728286D01*
X23862036Y-16714000D01*
X23833464Y-16699714D01*
X23776321Y-16699714D01*
X23747750Y-16714000D01*
X23733464Y-16728286D01*
X23719178Y-16756857D01*
X23719178Y-16828286D01*
X23733464Y-16856857D01*
X23747750Y-16871143D01*
X23776321Y-16885429D01*
X23833464Y-16885429D01*
X23862036Y-16871143D01*
X23876321Y-16856857D01*
X23890607Y-16828286D01*
X24147750Y-16799714D02*
X24147750Y-16999714D01*
X24076321Y-16685429D02*
X24004893Y-16899714D01*
X24190607Y-16899714D01*
X24533464Y-16999714D02*
X24533464Y-16699714D01*
X24662036Y-16999714D02*
X24662036Y-16842572D01*
X24647750Y-16814000D01*
X24619178Y-16799714D01*
X24576321Y-16799714D01*
X24547750Y-16814000D01*
X24533464Y-16828286D01*
X24847750Y-16999714D02*
X24819178Y-16985429D01*
X24804893Y-16971143D01*
X24790607Y-16942572D01*
X24790607Y-16856857D01*
X24804893Y-16828286D01*
X24819178Y-16814000D01*
X24847750Y-16799714D01*
X24890607Y-16799714D01*
X24919178Y-16814000D01*
X24933464Y-16828286D01*
X24947750Y-16856857D01*
X24947750Y-16942572D01*
X24933464Y-16971143D01*
X24919178Y-16985429D01*
X24890607Y-16999714D01*
X24847750Y-16999714D01*
X25119178Y-16999714D02*
X25090607Y-16985429D01*
X25076321Y-16956857D01*
X25076321Y-16699714D01*
X25347750Y-16985429D02*
X25319178Y-16999714D01*
X25262036Y-16999714D01*
X25233464Y-16985429D01*
X25219178Y-16956857D01*
X25219178Y-16842572D01*
X25233464Y-16814000D01*
X25262036Y-16799714D01*
X25319178Y-16799714D01*
X25347750Y-16814000D01*
X25362036Y-16842572D01*
X25362036Y-16871143D01*
X25219178Y-16899714D01*
X25476321Y-16985429D02*
X25504893Y-16999714D01*
X25562036Y-16999714D01*
X25590607Y-16985429D01*
X25604893Y-16956857D01*
X25604893Y-16942572D01*
X25590607Y-16914000D01*
X25562036Y-16899714D01*
X25519178Y-16899714D01*
X25490607Y-16885429D01*
X25476321Y-16856857D01*
X25476321Y-16842572D01*
X25490607Y-16814000D01*
X25519178Y-16799714D01*
X25562036Y-16799714D01*
X25590607Y-16814000D01*
X25704893Y-17114000D02*
X25719178Y-17099714D01*
X25747750Y-17056857D01*
X25762036Y-17028286D01*
X25776321Y-16985429D01*
X25790607Y-16914000D01*
X25790607Y-16856857D01*
X25776321Y-16785429D01*
X25762036Y-16742571D01*
X25747750Y-16714000D01*
X25719178Y-16671143D01*
X25704893Y-16656857D01*
X26247750Y-17114000D02*
X26233464Y-17099714D01*
X26204893Y-17056857D01*
X26190607Y-17028286D01*
X26176321Y-16985429D01*
X26162036Y-16914000D01*
X26162036Y-16856857D01*
X26176321Y-16785429D01*
X26190607Y-16742571D01*
X26204893Y-16714000D01*
X26233464Y-16671143D01*
X26247750Y-16656857D01*
X26362036Y-16799714D02*
X26362036Y-16999714D01*
X26362036Y-16828286D02*
X26376321Y-16814000D01*
X26404893Y-16799714D01*
X26447750Y-16799714D01*
X26476321Y-16814000D01*
X26490607Y-16842572D01*
X26490607Y-16999714D01*
X26676321Y-16999714D02*
X26647750Y-16985429D01*
X26633464Y-16971143D01*
X26619178Y-16942572D01*
X26619178Y-16856857D01*
X26633464Y-16828286D01*
X26647750Y-16814000D01*
X26676321Y-16799714D01*
X26719178Y-16799714D01*
X26747750Y-16814000D01*
X26762036Y-16828286D01*
X26776321Y-16856857D01*
X26776321Y-16942572D01*
X26762036Y-16971143D01*
X26747750Y-16985429D01*
X26719178Y-16999714D01*
X26676321Y-16999714D01*
X26862036Y-16799714D02*
X26976321Y-16799714D01*
X26904893Y-16699714D02*
X26904893Y-16956857D01*
X26919178Y-16985429D01*
X26947750Y-16999714D01*
X26976321Y-16999714D01*
X27304893Y-16799714D02*
X27304893Y-17099714D01*
X27304893Y-16814000D02*
X27333464Y-16799714D01*
X27390607Y-16799714D01*
X27419178Y-16814000D01*
X27433464Y-16828286D01*
X27447750Y-16856857D01*
X27447750Y-16942572D01*
X27433464Y-16971143D01*
X27419178Y-16985429D01*
X27390607Y-16999714D01*
X27333464Y-16999714D01*
X27304893Y-16985429D01*
X27619178Y-16999714D02*
X27590607Y-16985429D01*
X27576321Y-16956857D01*
X27576321Y-16699714D01*
X27862036Y-16999714D02*
X27862036Y-16842572D01*
X27847750Y-16814000D01*
X27819178Y-16799714D01*
X27762036Y-16799714D01*
X27733464Y-16814000D01*
X27862036Y-16985429D02*
X27833464Y-16999714D01*
X27762036Y-16999714D01*
X27733464Y-16985429D01*
X27719178Y-16956857D01*
X27719178Y-16928286D01*
X27733464Y-16899714D01*
X27762036Y-16885429D01*
X27833464Y-16885429D01*
X27862036Y-16871143D01*
X27962036Y-16799714D02*
X28076321Y-16799714D01*
X28004893Y-16699714D02*
X28004893Y-16956857D01*
X28019178Y-16985429D01*
X28047750Y-16999714D01*
X28076321Y-16999714D01*
X28290607Y-16985429D02*
X28262036Y-16999714D01*
X28204893Y-16999714D01*
X28176321Y-16985429D01*
X28162036Y-16956857D01*
X28162036Y-16842572D01*
X28176321Y-16814000D01*
X28204893Y-16799714D01*
X28262036Y-16799714D01*
X28290607Y-16814000D01*
X28304893Y-16842572D01*
X28304893Y-16871143D01*
X28162036Y-16899714D01*
X28562036Y-16999714D02*
X28562036Y-16699714D01*
X28562036Y-16985429D02*
X28533464Y-16999714D01*
X28476321Y-16999714D01*
X28447750Y-16985429D01*
X28433464Y-16971143D01*
X28419178Y-16942572D01*
X28419178Y-16856857D01*
X28433464Y-16828286D01*
X28447750Y-16814000D01*
X28476321Y-16799714D01*
X28533464Y-16799714D01*
X28562036Y-16814000D01*
X28676321Y-17114000D02*
X28690607Y-17099714D01*
X28719178Y-17056857D01*
X28733464Y-17028286D01*
X28747750Y-16985429D01*
X28762036Y-16914000D01*
X28762036Y-16856857D01*
X28747750Y-16785429D01*
X28733464Y-16742571D01*
X28719178Y-16714000D01*
X28690607Y-16671143D01*
X28676321Y-16656857D01*
X18900532Y-17337783D02*
X18900532Y-17182218D01*
X18744967Y-17182218D01*
X18744967Y-17337783D01*
X18900532Y-17337783D01*
X19204893Y-17124286D02*
X19219178Y-17110000D01*
X19247750Y-17095714D01*
X19319178Y-17095714D01*
X19347750Y-17110000D01*
X19362036Y-17124286D01*
X19376321Y-17152857D01*
X19376321Y-17181429D01*
X19362036Y-17224286D01*
X19190607Y-17395714D01*
X19376321Y-17395714D01*
X19504893Y-17367143D02*
X19519178Y-17381429D01*
X19504893Y-17395714D01*
X19490607Y-17381429D01*
X19504893Y-17367143D01*
X19504893Y-17395714D01*
X19633464Y-17124286D02*
X19647750Y-17110000D01*
X19676321Y-17095714D01*
X19747750Y-17095714D01*
X19776321Y-17110000D01*
X19790607Y-17124286D01*
X19804893Y-17152857D01*
X19804893Y-17181429D01*
X19790607Y-17224286D01*
X19619178Y-17395714D01*
X19804893Y-17395714D01*
X19990607Y-17095714D02*
X20019178Y-17095714D01*
X20047750Y-17110000D01*
X20062036Y-17124286D01*
X20076321Y-17152857D01*
X20090607Y-17210000D01*
X20090607Y-17281429D01*
X20076321Y-17338572D01*
X20062036Y-17367143D01*
X20047750Y-17381429D01*
X20019178Y-17395714D01*
X19990607Y-17395714D01*
X19962036Y-17381429D01*
X19947750Y-17367143D01*
X19933464Y-17338572D01*
X19919178Y-17281429D01*
X19919178Y-17210000D01*
X19933464Y-17152857D01*
X19947750Y-17124286D01*
X19962036Y-17110000D01*
X19990607Y-17095714D01*
X20219178Y-17395714D02*
X20219178Y-17195714D01*
X20219178Y-17224286D02*
X20233464Y-17210000D01*
X20262036Y-17195714D01*
X20304893Y-17195714D01*
X20333464Y-17210000D01*
X20347750Y-17238572D01*
X20347750Y-17395714D01*
X20347750Y-17238572D02*
X20362036Y-17210000D01*
X20390607Y-17195714D01*
X20433464Y-17195714D01*
X20462036Y-17210000D01*
X20476321Y-17238572D01*
X20476321Y-17395714D01*
X20619178Y-17395714D02*
X20619178Y-17195714D01*
X20619178Y-17224286D02*
X20633464Y-17210000D01*
X20662036Y-17195714D01*
X20704893Y-17195714D01*
X20733464Y-17210000D01*
X20747750Y-17238572D01*
X20747750Y-17395714D01*
X20747750Y-17238572D02*
X20762036Y-17210000D01*
X20790607Y-17195714D01*
X20833464Y-17195714D01*
X20862036Y-17210000D01*
X20876321Y-17238572D01*
X20876321Y-17395714D01*
X21462036Y-17081429D02*
X21204893Y-17467143D01*
X21847750Y-17095714D02*
X21876321Y-17095714D01*
X21904893Y-17110000D01*
X21919178Y-17124286D01*
X21933464Y-17152857D01*
X21947750Y-17210000D01*
X21947750Y-17281429D01*
X21933464Y-17338572D01*
X21919178Y-17367143D01*
X21904893Y-17381429D01*
X21876321Y-17395714D01*
X21847750Y-17395714D01*
X21819178Y-17381429D01*
X21804893Y-17367143D01*
X21790607Y-17338572D01*
X21776321Y-17281429D01*
X21776321Y-17210000D01*
X21790607Y-17152857D01*
X21804893Y-17124286D01*
X21819178Y-17110000D01*
X21847750Y-17095714D01*
X22076321Y-17367143D02*
X22090607Y-17381429D01*
X22076321Y-17395714D01*
X22062036Y-17381429D01*
X22076321Y-17367143D01*
X22076321Y-17395714D01*
X22276321Y-17095714D02*
X22304893Y-17095714D01*
X22333464Y-17110000D01*
X22347750Y-17124286D01*
X22362036Y-17152857D01*
X22376321Y-17210000D01*
X22376321Y-17281429D01*
X22362036Y-17338572D01*
X22347750Y-17367143D01*
X22333464Y-17381429D01*
X22304893Y-17395714D01*
X22276321Y-17395714D01*
X22247750Y-17381429D01*
X22233464Y-17367143D01*
X22219178Y-17338572D01*
X22204893Y-17281429D01*
X22204893Y-17210000D01*
X22219178Y-17152857D01*
X22233464Y-17124286D01*
X22247750Y-17110000D01*
X22276321Y-17095714D01*
X22547750Y-17224286D02*
X22519178Y-17210000D01*
X22504893Y-17195714D01*
X22490607Y-17167143D01*
X22490607Y-17152857D01*
X22504893Y-17124286D01*
X22519178Y-17110000D01*
X22547750Y-17095714D01*
X22604893Y-17095714D01*
X22633464Y-17110000D01*
X22647750Y-17124286D01*
X22662036Y-17152857D01*
X22662036Y-17167143D01*
X22647750Y-17195714D01*
X22633464Y-17210000D01*
X22604893Y-17224286D01*
X22547750Y-17224286D01*
X22519178Y-17238572D01*
X22504893Y-17252857D01*
X22490607Y-17281429D01*
X22490607Y-17338572D01*
X22504893Y-17367143D01*
X22519178Y-17381429D01*
X22547750Y-17395714D01*
X22604893Y-17395714D01*
X22633464Y-17381429D01*
X22647750Y-17367143D01*
X22662036Y-17338572D01*
X22662036Y-17281429D01*
X22647750Y-17252857D01*
X22633464Y-17238572D01*
X22604893Y-17224286D01*
X22762036Y-17095714D02*
X22962036Y-17095714D01*
X22833464Y-17395714D01*
X23062036Y-17095714D02*
X23062036Y-17152857D01*
X23176321Y-17095714D02*
X23176321Y-17152857D01*
X23619178Y-17510000D02*
X23604893Y-17495714D01*
X23576321Y-17452857D01*
X23562036Y-17424286D01*
X23547750Y-17381429D01*
X23533464Y-17310000D01*
X23533464Y-17252857D01*
X23547750Y-17181429D01*
X23562036Y-17138572D01*
X23576321Y-17110000D01*
X23604893Y-17067143D01*
X23619178Y-17052857D01*
X23890607Y-17395714D02*
X23719178Y-17395714D01*
X23804893Y-17395714D02*
X23804893Y-17095714D01*
X23776321Y-17138572D01*
X23747750Y-17167143D01*
X23719178Y-17181429D01*
X24176321Y-17395714D02*
X24004893Y-17395714D01*
X24090607Y-17395714D02*
X24090607Y-17095714D01*
X24062036Y-17138572D01*
X24033464Y-17167143D01*
X24004893Y-17181429D01*
X24533464Y-17395714D02*
X24533464Y-17095714D01*
X24662036Y-17395714D02*
X24662036Y-17238572D01*
X24647750Y-17210000D01*
X24619178Y-17195714D01*
X24576321Y-17195714D01*
X24547750Y-17210000D01*
X24533464Y-17224286D01*
X24847750Y-17395714D02*
X24819178Y-17381429D01*
X24804893Y-17367143D01*
X24790607Y-17338572D01*
X24790607Y-17252857D01*
X24804893Y-17224286D01*
X24819178Y-17210000D01*
X24847750Y-17195714D01*
X24890607Y-17195714D01*
X24919178Y-17210000D01*
X24933464Y-17224286D01*
X24947750Y-17252857D01*
X24947750Y-17338572D01*
X24933464Y-17367143D01*
X24919178Y-17381429D01*
X24890607Y-17395714D01*
X24847750Y-17395714D01*
X25119178Y-17395714D02*
X25090607Y-17381429D01*
X25076321Y-17352857D01*
X25076321Y-17095714D01*
X25347750Y-17381429D02*
X25319178Y-17395714D01*
X25262036Y-17395714D01*
X25233464Y-17381429D01*
X25219178Y-17352857D01*
X25219178Y-17238572D01*
X25233464Y-17210000D01*
X25262036Y-17195714D01*
X25319178Y-17195714D01*
X25347750Y-17210000D01*
X25362036Y-17238572D01*
X25362036Y-17267143D01*
X25219178Y-17295714D01*
X25476321Y-17381429D02*
X25504893Y-17395714D01*
X25562036Y-17395714D01*
X25590607Y-17381429D01*
X25604893Y-17352857D01*
X25604893Y-17338572D01*
X25590607Y-17310000D01*
X25562036Y-17295714D01*
X25519178Y-17295714D01*
X25490607Y-17281429D01*
X25476321Y-17252857D01*
X25476321Y-17238572D01*
X25490607Y-17210000D01*
X25519178Y-17195714D01*
X25562036Y-17195714D01*
X25590607Y-17210000D01*
X25704893Y-17510000D02*
X25719178Y-17495714D01*
X25747750Y-17452857D01*
X25762036Y-17424286D01*
X25776321Y-17381429D01*
X25790607Y-17310000D01*
X25790607Y-17252857D01*
X25776321Y-17181429D01*
X25762036Y-17138572D01*
X25747750Y-17110000D01*
X25719178Y-17067143D01*
X25704893Y-17052857D01*
X26247750Y-17510000D02*
X26233464Y-17495714D01*
X26204893Y-17452857D01*
X26190607Y-17424286D01*
X26176321Y-17381429D01*
X26162036Y-17310000D01*
X26162036Y-17252857D01*
X26176321Y-17181429D01*
X26190607Y-17138572D01*
X26204893Y-17110000D01*
X26233464Y-17067143D01*
X26247750Y-17052857D01*
X26362036Y-17195714D02*
X26362036Y-17395714D01*
X26362036Y-17224286D02*
X26376321Y-17210000D01*
X26404893Y-17195714D01*
X26447750Y-17195714D01*
X26476321Y-17210000D01*
X26490607Y-17238572D01*
X26490607Y-17395714D01*
X26676321Y-17395714D02*
X26647750Y-17381429D01*
X26633464Y-17367143D01*
X26619178Y-17338572D01*
X26619178Y-17252857D01*
X26633464Y-17224286D01*
X26647750Y-17210000D01*
X26676321Y-17195714D01*
X26719178Y-17195714D01*
X26747750Y-17210000D01*
X26762036Y-17224286D01*
X26776321Y-17252857D01*
X26776321Y-17338572D01*
X26762036Y-17367143D01*
X26747750Y-17381429D01*
X26719178Y-17395714D01*
X26676321Y-17395714D01*
X26862036Y-17195714D02*
X26976321Y-17195714D01*
X26904893Y-17095714D02*
X26904893Y-17352857D01*
X26919178Y-17381429D01*
X26947750Y-17395714D01*
X26976321Y-17395714D01*
X27304893Y-17195714D02*
X27304893Y-17495714D01*
X27304893Y-17210000D02*
X27333464Y-17195714D01*
X27390607Y-17195714D01*
X27419178Y-17210000D01*
X27433464Y-17224286D01*
X27447750Y-17252857D01*
X27447750Y-17338572D01*
X27433464Y-17367143D01*
X27419178Y-17381429D01*
X27390607Y-17395714D01*
X27333464Y-17395714D01*
X27304893Y-17381429D01*
X27619178Y-17395714D02*
X27590607Y-17381429D01*
X27576321Y-17352857D01*
X27576321Y-17095714D01*
X27862036Y-17395714D02*
X27862036Y-17238572D01*
X27847750Y-17210000D01*
X27819178Y-17195714D01*
X27762036Y-17195714D01*
X27733464Y-17210000D01*
X27862036Y-17381429D02*
X27833464Y-17395714D01*
X27762036Y-17395714D01*
X27733464Y-17381429D01*
X27719178Y-17352857D01*
X27719178Y-17324286D01*
X27733464Y-17295714D01*
X27762036Y-17281429D01*
X27833464Y-17281429D01*
X27862036Y-17267143D01*
X27962036Y-17195714D02*
X28076321Y-17195714D01*
X28004893Y-17095714D02*
X28004893Y-17352857D01*
X28019178Y-17381429D01*
X28047750Y-17395714D01*
X28076321Y-17395714D01*
X28290607Y-17381429D02*
X28262036Y-17395714D01*
X28204893Y-17395714D01*
X28176321Y-17381429D01*
X28162036Y-17352857D01*
X28162036Y-17238572D01*
X28176321Y-17210000D01*
X28204893Y-17195714D01*
X28262036Y-17195714D01*
X28290607Y-17210000D01*
X28304893Y-17238572D01*
X28304893Y-17267143D01*
X28162036Y-17295714D01*
X28562036Y-17395714D02*
X28562036Y-17095714D01*
X28562036Y-17381429D02*
X28533464Y-17395714D01*
X28476321Y-17395714D01*
X28447750Y-17381429D01*
X28433464Y-17367143D01*
X28419178Y-17338572D01*
X28419178Y-17252857D01*
X28433464Y-17224286D01*
X28447750Y-17210000D01*
X28476321Y-17195714D01*
X28533464Y-17195714D01*
X28562036Y-17210000D01*
X28676321Y-17510000D02*
X28690607Y-17495714D01*
X28719178Y-17452857D01*
X28733464Y-17424286D01*
X28747750Y-17381429D01*
X28762036Y-17310000D01*
X28762036Y-17252857D01*
X28747750Y-17181429D01*
X28733464Y-17138572D01*
X28719178Y-17110000D01*
X28690607Y-17067143D01*
X28676321Y-17052857D01*
X18782750Y-17806000D02*
X18932750Y-17656000D01*
X18782750Y-17506000D01*
X18632750Y-17656000D01*
X18782750Y-17806000D01*
X19190607Y-17491714D02*
X19376321Y-17491714D01*
X19276321Y-17606000D01*
X19319178Y-17606000D01*
X19347750Y-17620286D01*
X19362036Y-17634572D01*
X19376321Y-17663143D01*
X19376321Y-17734572D01*
X19362036Y-17763143D01*
X19347750Y-17777429D01*
X19319178Y-17791714D01*
X19233464Y-17791714D01*
X19204893Y-17777429D01*
X19190607Y-17763143D01*
X19504893Y-17763143D02*
X19519178Y-17777429D01*
X19504893Y-17791714D01*
X19490607Y-17777429D01*
X19504893Y-17763143D01*
X19504893Y-17791714D01*
X19704893Y-17491714D02*
X19733464Y-17491714D01*
X19762036Y-17506000D01*
X19776321Y-17520286D01*
X19790607Y-17548857D01*
X19804893Y-17606000D01*
X19804893Y-17677429D01*
X19790607Y-17734572D01*
X19776321Y-17763143D01*
X19762036Y-17777429D01*
X19733464Y-17791714D01*
X19704893Y-17791714D01*
X19676321Y-17777429D01*
X19662036Y-17763143D01*
X19647750Y-17734572D01*
X19633464Y-17677429D01*
X19633464Y-17606000D01*
X19647750Y-17548857D01*
X19662036Y-17520286D01*
X19676321Y-17506000D01*
X19704893Y-17491714D01*
X19990607Y-17491714D02*
X20019178Y-17491714D01*
X20047750Y-17506000D01*
X20062036Y-17520286D01*
X20076321Y-17548857D01*
X20090607Y-17606000D01*
X20090607Y-17677429D01*
X20076321Y-17734572D01*
X20062036Y-17763143D01*
X20047750Y-17777429D01*
X20019178Y-17791714D01*
X19990607Y-17791714D01*
X19962036Y-17777429D01*
X19947750Y-17763143D01*
X19933464Y-17734572D01*
X19919178Y-17677429D01*
X19919178Y-17606000D01*
X19933464Y-17548857D01*
X19947750Y-17520286D01*
X19962036Y-17506000D01*
X19990607Y-17491714D01*
X20219178Y-17791714D02*
X20219178Y-17591714D01*
X20219178Y-17620286D02*
X20233464Y-17606000D01*
X20262036Y-17591714D01*
X20304893Y-17591714D01*
X20333464Y-17606000D01*
X20347750Y-17634572D01*
X20347750Y-17791714D01*
X20347750Y-17634572D02*
X20362036Y-17606000D01*
X20390607Y-17591714D01*
X20433464Y-17591714D01*
X20462036Y-17606000D01*
X20476321Y-17634572D01*
X20476321Y-17791714D01*
X20619178Y-17791714D02*
X20619178Y-17591714D01*
X20619178Y-17620286D02*
X20633464Y-17606000D01*
X20662036Y-17591714D01*
X20704893Y-17591714D01*
X20733464Y-17606000D01*
X20747750Y-17634572D01*
X20747750Y-17791714D01*
X20747750Y-17634572D02*
X20762036Y-17606000D01*
X20790607Y-17591714D01*
X20833464Y-17591714D01*
X20862036Y-17606000D01*
X20876321Y-17634572D01*
X20876321Y-17791714D01*
X21462036Y-17477429D02*
X21204893Y-17863143D01*
X21847750Y-17491714D02*
X21876321Y-17491714D01*
X21904893Y-17506000D01*
X21919178Y-17520286D01*
X21933464Y-17548857D01*
X21947750Y-17606000D01*
X21947750Y-17677429D01*
X21933464Y-17734572D01*
X21919178Y-17763143D01*
X21904893Y-17777429D01*
X21876321Y-17791714D01*
X21847750Y-17791714D01*
X21819178Y-17777429D01*
X21804893Y-17763143D01*
X21790607Y-17734572D01*
X21776321Y-17677429D01*
X21776321Y-17606000D01*
X21790607Y-17548857D01*
X21804893Y-17520286D01*
X21819178Y-17506000D01*
X21847750Y-17491714D01*
X22076321Y-17763143D02*
X22090607Y-17777429D01*
X22076321Y-17791714D01*
X22062036Y-17777429D01*
X22076321Y-17763143D01*
X22076321Y-17791714D01*
X22376321Y-17791714D02*
X22204893Y-17791714D01*
X22290607Y-17791714D02*
X22290607Y-17491714D01*
X22262036Y-17534572D01*
X22233464Y-17563143D01*
X22204893Y-17577429D01*
X22662036Y-17791714D02*
X22490607Y-17791714D01*
X22576321Y-17791714D02*
X22576321Y-17491714D01*
X22547750Y-17534572D01*
X22519178Y-17563143D01*
X22490607Y-17577429D01*
X22833464Y-17620286D02*
X22804893Y-17606000D01*
X22790607Y-17591714D01*
X22776321Y-17563143D01*
X22776321Y-17548857D01*
X22790607Y-17520286D01*
X22804893Y-17506000D01*
X22833464Y-17491714D01*
X22890607Y-17491714D01*
X22919178Y-17506000D01*
X22933464Y-17520286D01*
X22947750Y-17548857D01*
X22947750Y-17563143D01*
X22933464Y-17591714D01*
X22919178Y-17606000D01*
X22890607Y-17620286D01*
X22833464Y-17620286D01*
X22804893Y-17634572D01*
X22790607Y-17648857D01*
X22776321Y-17677429D01*
X22776321Y-17734572D01*
X22790607Y-17763143D01*
X22804893Y-17777429D01*
X22833464Y-17791714D01*
X22890607Y-17791714D01*
X22919178Y-17777429D01*
X22933464Y-17763143D01*
X22947750Y-17734572D01*
X22947750Y-17677429D01*
X22933464Y-17648857D01*
X22919178Y-17634572D01*
X22890607Y-17620286D01*
X23062036Y-17491714D02*
X23062036Y-17548857D01*
X23176321Y-17491714D02*
X23176321Y-17548857D01*
X23619178Y-17906000D02*
X23604893Y-17891714D01*
X23576321Y-17848857D01*
X23562036Y-17820286D01*
X23547750Y-17777429D01*
X23533464Y-17706000D01*
X23533464Y-17648857D01*
X23547750Y-17577429D01*
X23562036Y-17534572D01*
X23576321Y-17506000D01*
X23604893Y-17463143D01*
X23619178Y-17448857D01*
X23747750Y-17791714D02*
X23804893Y-17791714D01*
X23833464Y-17777429D01*
X23847750Y-17763143D01*
X23876321Y-17720286D01*
X23890607Y-17663143D01*
X23890607Y-17548857D01*
X23876321Y-17520286D01*
X23862036Y-17506000D01*
X23833464Y-17491714D01*
X23776321Y-17491714D01*
X23747750Y-17506000D01*
X23733464Y-17520286D01*
X23719178Y-17548857D01*
X23719178Y-17620286D01*
X23733464Y-17648857D01*
X23747750Y-17663143D01*
X23776321Y-17677429D01*
X23833464Y-17677429D01*
X23862036Y-17663143D01*
X23876321Y-17648857D01*
X23890607Y-17620286D01*
X24147750Y-17591714D02*
X24147750Y-17791714D01*
X24076321Y-17477429D02*
X24004893Y-17691714D01*
X24190607Y-17691714D01*
X24533464Y-17791714D02*
X24533464Y-17491714D01*
X24662036Y-17791714D02*
X24662036Y-17634572D01*
X24647750Y-17606000D01*
X24619178Y-17591714D01*
X24576321Y-17591714D01*
X24547750Y-17606000D01*
X24533464Y-17620286D01*
X24847750Y-17791714D02*
X24819178Y-17777429D01*
X24804893Y-17763143D01*
X24790607Y-17734572D01*
X24790607Y-17648857D01*
X24804893Y-17620286D01*
X24819178Y-17606000D01*
X24847750Y-17591714D01*
X24890607Y-17591714D01*
X24919178Y-17606000D01*
X24933464Y-17620286D01*
X24947750Y-17648857D01*
X24947750Y-17734572D01*
X24933464Y-17763143D01*
X24919178Y-17777429D01*
X24890607Y-17791714D01*
X24847750Y-17791714D01*
X25119178Y-17791714D02*
X25090607Y-17777429D01*
X25076321Y-17748857D01*
X25076321Y-17491714D01*
X25347750Y-17777429D02*
X25319178Y-17791714D01*
X25262036Y-17791714D01*
X25233464Y-17777429D01*
X25219178Y-17748857D01*
X25219178Y-17634572D01*
X25233464Y-17606000D01*
X25262036Y-17591714D01*
X25319178Y-17591714D01*
X25347750Y-17606000D01*
X25362036Y-17634572D01*
X25362036Y-17663143D01*
X25219178Y-17691714D01*
X25476321Y-17777429D02*
X25504893Y-17791714D01*
X25562036Y-17791714D01*
X25590607Y-17777429D01*
X25604893Y-17748857D01*
X25604893Y-17734572D01*
X25590607Y-17706000D01*
X25562036Y-17691714D01*
X25519178Y-17691714D01*
X25490607Y-17677429D01*
X25476321Y-17648857D01*
X25476321Y-17634572D01*
X25490607Y-17606000D01*
X25519178Y-17591714D01*
X25562036Y-17591714D01*
X25590607Y-17606000D01*
X25704893Y-17906000D02*
X25719178Y-17891714D01*
X25747750Y-17848857D01*
X25762036Y-17820286D01*
X25776321Y-17777429D01*
X25790607Y-17706000D01*
X25790607Y-17648857D01*
X25776321Y-17577429D01*
X25762036Y-17534572D01*
X25747750Y-17506000D01*
X25719178Y-17463143D01*
X25704893Y-17448857D01*
X26247750Y-17906000D02*
X26233464Y-17891714D01*
X26204893Y-17848857D01*
X26190607Y-17820286D01*
X26176321Y-17777429D01*
X26162036Y-17706000D01*
X26162036Y-17648857D01*
X26176321Y-17577429D01*
X26190607Y-17534572D01*
X26204893Y-17506000D01*
X26233464Y-17463143D01*
X26247750Y-17448857D01*
X26362036Y-17591714D02*
X26362036Y-17791714D01*
X26362036Y-17620286D02*
X26376321Y-17606000D01*
X26404893Y-17591714D01*
X26447750Y-17591714D01*
X26476321Y-17606000D01*
X26490607Y-17634572D01*
X26490607Y-17791714D01*
X26676321Y-17791714D02*
X26647750Y-17777429D01*
X26633464Y-17763143D01*
X26619178Y-17734572D01*
X26619178Y-17648857D01*
X26633464Y-17620286D01*
X26647750Y-17606000D01*
X26676321Y-17591714D01*
X26719178Y-17591714D01*
X26747750Y-17606000D01*
X26762036Y-17620286D01*
X26776321Y-17648857D01*
X26776321Y-17734572D01*
X26762036Y-17763143D01*
X26747750Y-17777429D01*
X26719178Y-17791714D01*
X26676321Y-17791714D01*
X26862036Y-17591714D02*
X26976321Y-17591714D01*
X26904893Y-17491714D02*
X26904893Y-17748857D01*
X26919178Y-17777429D01*
X26947750Y-17791714D01*
X26976321Y-17791714D01*
X27304893Y-17591714D02*
X27304893Y-17891714D01*
X27304893Y-17606000D02*
X27333464Y-17591714D01*
X27390607Y-17591714D01*
X27419178Y-17606000D01*
X27433464Y-17620286D01*
X27447750Y-17648857D01*
X27447750Y-17734572D01*
X27433464Y-17763143D01*
X27419178Y-17777429D01*
X27390607Y-17791714D01*
X27333464Y-17791714D01*
X27304893Y-17777429D01*
X27619178Y-17791714D02*
X27590607Y-17777429D01*
X27576321Y-17748857D01*
X27576321Y-17491714D01*
X27862036Y-17791714D02*
X27862036Y-17634572D01*
X27847750Y-17606000D01*
X27819178Y-17591714D01*
X27762036Y-17591714D01*
X27733464Y-17606000D01*
X27862036Y-17777429D02*
X27833464Y-17791714D01*
X27762036Y-17791714D01*
X27733464Y-17777429D01*
X27719178Y-17748857D01*
X27719178Y-17720286D01*
X27733464Y-17691714D01*
X27762036Y-17677429D01*
X27833464Y-17677429D01*
X27862036Y-17663143D01*
X27962036Y-17591714D02*
X28076321Y-17591714D01*
X28004893Y-17491714D02*
X28004893Y-17748857D01*
X28019178Y-17777429D01*
X28047750Y-17791714D01*
X28076321Y-17791714D01*
X28290607Y-17777429D02*
X28262036Y-17791714D01*
X28204893Y-17791714D01*
X28176321Y-17777429D01*
X28162036Y-17748857D01*
X28162036Y-17634572D01*
X28176321Y-17606000D01*
X28204893Y-17591714D01*
X28262036Y-17591714D01*
X28290607Y-17606000D01*
X28304893Y-17634572D01*
X28304893Y-17663143D01*
X28162036Y-17691714D01*
X28562036Y-17791714D02*
X28562036Y-17491714D01*
X28562036Y-17777429D02*
X28533464Y-17791714D01*
X28476321Y-17791714D01*
X28447750Y-17777429D01*
X28433464Y-17763143D01*
X28419178Y-17734572D01*
X28419178Y-17648857D01*
X28433464Y-17620286D01*
X28447750Y-17606000D01*
X28476321Y-17591714D01*
X28533464Y-17591714D01*
X28562036Y-17606000D01*
X28676321Y-17906000D02*
X28690607Y-17891714D01*
X28719178Y-17848857D01*
X28733464Y-17820286D01*
X28747750Y-17777429D01*
X28762036Y-17706000D01*
X28762036Y-17648857D01*
X28747750Y-17577429D01*
X28733464Y-17534572D01*
X28719178Y-17506000D01*
X28690607Y-17463143D01*
X28676321Y-17448857D01*
X18627750Y-17933500D02*
X18932750Y-18238500D01*
X18932750Y-17933500D02*
X18627750Y-18238500D01*
X18932750Y-18086000D02*
G75*
G03X18932750Y-18086000I-152500J0D01*
G01*
X19190607Y-17921714D02*
X19376321Y-17921714D01*
X19276321Y-18036000D01*
X19319178Y-18036000D01*
X19347750Y-18050286D01*
X19362036Y-18064572D01*
X19376321Y-18093143D01*
X19376321Y-18164572D01*
X19362036Y-18193143D01*
X19347750Y-18207429D01*
X19319178Y-18221714D01*
X19233464Y-18221714D01*
X19204893Y-18207429D01*
X19190607Y-18193143D01*
X19504893Y-18193143D02*
X19519178Y-18207429D01*
X19504893Y-18221714D01*
X19490607Y-18207429D01*
X19504893Y-18193143D01*
X19504893Y-18221714D01*
X19704893Y-17921714D02*
X19733464Y-17921714D01*
X19762036Y-17936000D01*
X19776321Y-17950286D01*
X19790607Y-17978857D01*
X19804893Y-18036000D01*
X19804893Y-18107429D01*
X19790607Y-18164572D01*
X19776321Y-18193143D01*
X19762036Y-18207429D01*
X19733464Y-18221714D01*
X19704893Y-18221714D01*
X19676321Y-18207429D01*
X19662036Y-18193143D01*
X19647750Y-18164572D01*
X19633464Y-18107429D01*
X19633464Y-18036000D01*
X19647750Y-17978857D01*
X19662036Y-17950286D01*
X19676321Y-17936000D01*
X19704893Y-17921714D01*
X20076321Y-17921714D02*
X19933464Y-17921714D01*
X19919178Y-18064572D01*
X19933464Y-18050286D01*
X19962036Y-18036000D01*
X20033464Y-18036000D01*
X20062036Y-18050286D01*
X20076321Y-18064572D01*
X20090607Y-18093143D01*
X20090607Y-18164572D01*
X20076321Y-18193143D01*
X20062036Y-18207429D01*
X20033464Y-18221714D01*
X19962036Y-18221714D01*
X19933464Y-18207429D01*
X19919178Y-18193143D01*
X20219178Y-18221714D02*
X20219178Y-18021714D01*
X20219178Y-18050286D02*
X20233464Y-18036000D01*
X20262036Y-18021714D01*
X20304893Y-18021714D01*
X20333464Y-18036000D01*
X20347750Y-18064572D01*
X20347750Y-18221714D01*
X20347750Y-18064572D02*
X20362036Y-18036000D01*
X20390607Y-18021714D01*
X20433464Y-18021714D01*
X20462036Y-18036000D01*
X20476321Y-18064572D01*
X20476321Y-18221714D01*
X20619178Y-18221714D02*
X20619178Y-18021714D01*
X20619178Y-18050286D02*
X20633464Y-18036000D01*
X20662036Y-18021714D01*
X20704893Y-18021714D01*
X20733464Y-18036000D01*
X20747750Y-18064572D01*
X20747750Y-18221714D01*
X20747750Y-18064572D02*
X20762036Y-18036000D01*
X20790607Y-18021714D01*
X20833464Y-18021714D01*
X20862036Y-18036000D01*
X20876321Y-18064572D01*
X20876321Y-18221714D01*
X21462036Y-17907429D02*
X21204893Y-18293143D01*
X21847750Y-17921714D02*
X21876321Y-17921714D01*
X21904893Y-17936000D01*
X21919178Y-17950286D01*
X21933464Y-17978857D01*
X21947750Y-18036000D01*
X21947750Y-18107429D01*
X21933464Y-18164572D01*
X21919178Y-18193143D01*
X21904893Y-18207429D01*
X21876321Y-18221714D01*
X21847750Y-18221714D01*
X21819178Y-18207429D01*
X21804893Y-18193143D01*
X21790607Y-18164572D01*
X21776321Y-18107429D01*
X21776321Y-18036000D01*
X21790607Y-17978857D01*
X21804893Y-17950286D01*
X21819178Y-17936000D01*
X21847750Y-17921714D01*
X22076321Y-18193143D02*
X22090607Y-18207429D01*
X22076321Y-18221714D01*
X22062036Y-18207429D01*
X22076321Y-18193143D01*
X22076321Y-18221714D01*
X22376321Y-18221714D02*
X22204893Y-18221714D01*
X22290607Y-18221714D02*
X22290607Y-17921714D01*
X22262036Y-17964572D01*
X22233464Y-17993143D01*
X22204893Y-18007429D01*
X22490607Y-17950286D02*
X22504893Y-17936000D01*
X22533464Y-17921714D01*
X22604893Y-17921714D01*
X22633464Y-17936000D01*
X22647750Y-17950286D01*
X22662036Y-17978857D01*
X22662036Y-18007429D01*
X22647750Y-18050286D01*
X22476321Y-18221714D01*
X22662036Y-18221714D01*
X22847750Y-17921714D02*
X22876321Y-17921714D01*
X22904893Y-17936000D01*
X22919178Y-17950286D01*
X22933464Y-17978857D01*
X22947750Y-18036000D01*
X22947750Y-18107429D01*
X22933464Y-18164572D01*
X22919178Y-18193143D01*
X22904893Y-18207429D01*
X22876321Y-18221714D01*
X22847750Y-18221714D01*
X22819178Y-18207429D01*
X22804893Y-18193143D01*
X22790607Y-18164572D01*
X22776321Y-18107429D01*
X22776321Y-18036000D01*
X22790607Y-17978857D01*
X22804893Y-17950286D01*
X22819178Y-17936000D01*
X22847750Y-17921714D01*
X23062036Y-17921714D02*
X23062036Y-17978857D01*
X23176321Y-17921714D02*
X23176321Y-17978857D01*
X23619178Y-18336000D02*
X23604893Y-18321714D01*
X23576321Y-18278857D01*
X23562036Y-18250286D01*
X23547750Y-18207429D01*
X23533464Y-18136000D01*
X23533464Y-18078857D01*
X23547750Y-18007429D01*
X23562036Y-17964572D01*
X23576321Y-17936000D01*
X23604893Y-17893143D01*
X23619178Y-17878857D01*
X23862036Y-17921714D02*
X23804893Y-17921714D01*
X23776321Y-17936000D01*
X23762036Y-17950286D01*
X23733464Y-17993143D01*
X23719178Y-18050286D01*
X23719178Y-18164572D01*
X23733464Y-18193143D01*
X23747750Y-18207429D01*
X23776321Y-18221714D01*
X23833464Y-18221714D01*
X23862036Y-18207429D01*
X23876321Y-18193143D01*
X23890607Y-18164572D01*
X23890607Y-18093143D01*
X23876321Y-18064572D01*
X23862036Y-18050286D01*
X23833464Y-18036000D01*
X23776321Y-18036000D01*
X23747750Y-18050286D01*
X23733464Y-18064572D01*
X23719178Y-18093143D01*
X24247750Y-18221714D02*
X24247750Y-17921714D01*
X24376321Y-18221714D02*
X24376321Y-18064572D01*
X24362036Y-18036000D01*
X24333464Y-18021714D01*
X24290607Y-18021714D01*
X24262036Y-18036000D01*
X24247750Y-18050286D01*
X24562036Y-18221714D02*
X24533464Y-18207429D01*
X24519178Y-18193143D01*
X24504893Y-18164572D01*
X24504893Y-18078857D01*
X24519178Y-18050286D01*
X24533464Y-18036000D01*
X24562036Y-18021714D01*
X24604893Y-18021714D01*
X24633464Y-18036000D01*
X24647750Y-18050286D01*
X24662036Y-18078857D01*
X24662036Y-18164572D01*
X24647750Y-18193143D01*
X24633464Y-18207429D01*
X24604893Y-18221714D01*
X24562036Y-18221714D01*
X24833464Y-18221714D02*
X24804893Y-18207429D01*
X24790607Y-18178857D01*
X24790607Y-17921714D01*
X25062036Y-18207429D02*
X25033464Y-18221714D01*
X24976321Y-18221714D01*
X24947750Y-18207429D01*
X24933464Y-18178857D01*
X24933464Y-18064572D01*
X24947750Y-18036000D01*
X24976321Y-18021714D01*
X25033464Y-18021714D01*
X25062036Y-18036000D01*
X25076321Y-18064572D01*
X25076321Y-18093143D01*
X24933464Y-18121714D01*
X25190607Y-18207429D02*
X25219178Y-18221714D01*
X25276321Y-18221714D01*
X25304893Y-18207429D01*
X25319178Y-18178857D01*
X25319178Y-18164572D01*
X25304893Y-18136000D01*
X25276321Y-18121714D01*
X25233464Y-18121714D01*
X25204893Y-18107429D01*
X25190607Y-18078857D01*
X25190607Y-18064572D01*
X25204893Y-18036000D01*
X25233464Y-18021714D01*
X25276321Y-18021714D01*
X25304893Y-18036000D01*
X25419178Y-18336000D02*
X25433464Y-18321714D01*
X25462036Y-18278857D01*
X25476321Y-18250286D01*
X25490607Y-18207429D01*
X25504893Y-18136000D01*
X25504893Y-18078857D01*
X25490607Y-18007429D01*
X25476321Y-17964572D01*
X25462036Y-17936000D01*
X25433464Y-17893143D01*
X25419178Y-17878857D01*
X25962036Y-18336000D02*
X25947750Y-18321714D01*
X25919178Y-18278857D01*
X25904893Y-18250286D01*
X25890607Y-18207429D01*
X25876321Y-18136000D01*
X25876321Y-18078857D01*
X25890607Y-18007429D01*
X25904893Y-17964572D01*
X25919178Y-17936000D01*
X25947750Y-17893143D01*
X25962036Y-17878857D01*
X26076321Y-18021714D02*
X26076321Y-18221714D01*
X26076321Y-18050286D02*
X26090607Y-18036000D01*
X26119178Y-18021714D01*
X26162036Y-18021714D01*
X26190607Y-18036000D01*
X26204893Y-18064572D01*
X26204893Y-18221714D01*
X26390607Y-18221714D02*
X26362036Y-18207429D01*
X26347750Y-18193143D01*
X26333464Y-18164572D01*
X26333464Y-18078857D01*
X26347750Y-18050286D01*
X26362036Y-18036000D01*
X26390607Y-18021714D01*
X26433464Y-18021714D01*
X26462036Y-18036000D01*
X26476321Y-18050286D01*
X26490607Y-18078857D01*
X26490607Y-18164572D01*
X26476321Y-18193143D01*
X26462036Y-18207429D01*
X26433464Y-18221714D01*
X26390607Y-18221714D01*
X26576321Y-18021714D02*
X26690607Y-18021714D01*
X26619178Y-17921714D02*
X26619178Y-18178857D01*
X26633464Y-18207429D01*
X26662036Y-18221714D01*
X26690607Y-18221714D01*
X27019178Y-18021714D02*
X27019178Y-18321714D01*
X27019178Y-18036000D02*
X27047750Y-18021714D01*
X27104893Y-18021714D01*
X27133464Y-18036000D01*
X27147750Y-18050286D01*
X27162036Y-18078857D01*
X27162036Y-18164572D01*
X27147750Y-18193143D01*
X27133464Y-18207429D01*
X27104893Y-18221714D01*
X27047750Y-18221714D01*
X27019178Y-18207429D01*
X27333464Y-18221714D02*
X27304893Y-18207429D01*
X27290607Y-18178857D01*
X27290607Y-17921714D01*
X27576321Y-18221714D02*
X27576321Y-18064572D01*
X27562036Y-18036000D01*
X27533464Y-18021714D01*
X27476321Y-18021714D01*
X27447750Y-18036000D01*
X27576321Y-18207429D02*
X27547750Y-18221714D01*
X27476321Y-18221714D01*
X27447750Y-18207429D01*
X27433464Y-18178857D01*
X27433464Y-18150286D01*
X27447750Y-18121714D01*
X27476321Y-18107429D01*
X27547750Y-18107429D01*
X27576321Y-18093143D01*
X27676321Y-18021714D02*
X27790607Y-18021714D01*
X27719178Y-17921714D02*
X27719178Y-18178857D01*
X27733464Y-18207429D01*
X27762036Y-18221714D01*
X27790607Y-18221714D01*
X28004893Y-18207429D02*
X27976321Y-18221714D01*
X27919178Y-18221714D01*
X27890607Y-18207429D01*
X27876321Y-18178857D01*
X27876321Y-18064572D01*
X27890607Y-18036000D01*
X27919178Y-18021714D01*
X27976321Y-18021714D01*
X28004893Y-18036000D01*
X28019178Y-18064572D01*
X28019178Y-18093143D01*
X27876321Y-18121714D01*
X28276321Y-18221714D02*
X28276321Y-17921714D01*
X28276321Y-18207429D02*
X28247750Y-18221714D01*
X28190607Y-18221714D01*
X28162036Y-18207429D01*
X28147750Y-18193143D01*
X28133464Y-18164572D01*
X28133464Y-18078857D01*
X28147750Y-18050286D01*
X28162036Y-18036000D01*
X28190607Y-18021714D01*
X28247750Y-18021714D01*
X28276321Y-18036000D01*
X28390607Y-18336000D02*
X28404893Y-18321714D01*
X28433464Y-18278857D01*
X28447750Y-18250286D01*
X28462036Y-18207429D01*
X28476321Y-18136000D01*
X28476321Y-18078857D01*
X28462036Y-18007429D01*
X28447750Y-17964572D01*
X28433464Y-17936000D01*
X28404893Y-17893143D01*
X28390607Y-17878857D01*
X18532750Y-18321000D02*
X18932750Y-18721000D01*
X18932750Y-18321000D02*
X18532750Y-18721000D01*
X18732750Y-18321000D02*
X18732750Y-18721000D01*
X18532750Y-18521000D02*
X18932750Y-18521000D01*
X19347750Y-18456714D02*
X19347750Y-18656714D01*
X19276321Y-18342429D02*
X19204893Y-18556714D01*
X19390607Y-18556714D01*
X19504893Y-18628143D02*
X19519178Y-18642429D01*
X19504893Y-18656714D01*
X19490607Y-18642429D01*
X19504893Y-18628143D01*
X19504893Y-18656714D01*
X19704893Y-18356714D02*
X19733464Y-18356714D01*
X19762036Y-18371000D01*
X19776321Y-18385286D01*
X19790607Y-18413857D01*
X19804893Y-18471000D01*
X19804893Y-18542429D01*
X19790607Y-18599572D01*
X19776321Y-18628143D01*
X19762036Y-18642429D01*
X19733464Y-18656714D01*
X19704893Y-18656714D01*
X19676321Y-18642429D01*
X19662036Y-18628143D01*
X19647750Y-18599572D01*
X19633464Y-18542429D01*
X19633464Y-18471000D01*
X19647750Y-18413857D01*
X19662036Y-18385286D01*
X19676321Y-18371000D01*
X19704893Y-18356714D01*
X19990607Y-18356714D02*
X20019178Y-18356714D01*
X20047750Y-18371000D01*
X20062036Y-18385286D01*
X20076321Y-18413857D01*
X20090607Y-18471000D01*
X20090607Y-18542429D01*
X20076321Y-18599572D01*
X20062036Y-18628143D01*
X20047750Y-18642429D01*
X20019178Y-18656714D01*
X19990607Y-18656714D01*
X19962036Y-18642429D01*
X19947750Y-18628143D01*
X19933464Y-18599572D01*
X19919178Y-18542429D01*
X19919178Y-18471000D01*
X19933464Y-18413857D01*
X19947750Y-18385286D01*
X19962036Y-18371000D01*
X19990607Y-18356714D01*
X20219178Y-18656714D02*
X20219178Y-18456714D01*
X20219178Y-18485286D02*
X20233464Y-18471000D01*
X20262036Y-18456714D01*
X20304893Y-18456714D01*
X20333464Y-18471000D01*
X20347750Y-18499572D01*
X20347750Y-18656714D01*
X20347750Y-18499572D02*
X20362036Y-18471000D01*
X20390607Y-18456714D01*
X20433464Y-18456714D01*
X20462036Y-18471000D01*
X20476321Y-18499572D01*
X20476321Y-18656714D01*
X20619178Y-18656714D02*
X20619178Y-18456714D01*
X20619178Y-18485286D02*
X20633464Y-18471000D01*
X20662036Y-18456714D01*
X20704893Y-18456714D01*
X20733464Y-18471000D01*
X20747750Y-18499572D01*
X20747750Y-18656714D01*
X20747750Y-18499572D02*
X20762036Y-18471000D01*
X20790607Y-18456714D01*
X20833464Y-18456714D01*
X20862036Y-18471000D01*
X20876321Y-18499572D01*
X20876321Y-18656714D01*
X21462036Y-18342429D02*
X21204893Y-18728143D01*
X21847750Y-18356714D02*
X21876321Y-18356714D01*
X21904893Y-18371000D01*
X21919178Y-18385286D01*
X21933464Y-18413857D01*
X21947750Y-18471000D01*
X21947750Y-18542429D01*
X21933464Y-18599572D01*
X21919178Y-18628143D01*
X21904893Y-18642429D01*
X21876321Y-18656714D01*
X21847750Y-18656714D01*
X21819178Y-18642429D01*
X21804893Y-18628143D01*
X21790607Y-18599572D01*
X21776321Y-18542429D01*
X21776321Y-18471000D01*
X21790607Y-18413857D01*
X21804893Y-18385286D01*
X21819178Y-18371000D01*
X21847750Y-18356714D01*
X22076321Y-18628143D02*
X22090607Y-18642429D01*
X22076321Y-18656714D01*
X22062036Y-18642429D01*
X22076321Y-18628143D01*
X22076321Y-18656714D01*
X22376321Y-18656714D02*
X22204893Y-18656714D01*
X22290607Y-18656714D02*
X22290607Y-18356714D01*
X22262036Y-18399572D01*
X22233464Y-18428143D01*
X22204893Y-18442429D01*
X22647750Y-18356714D02*
X22504893Y-18356714D01*
X22490607Y-18499572D01*
X22504893Y-18485286D01*
X22533464Y-18471000D01*
X22604893Y-18471000D01*
X22633464Y-18485286D01*
X22647750Y-18499572D01*
X22662036Y-18528143D01*
X22662036Y-18599572D01*
X22647750Y-18628143D01*
X22633464Y-18642429D01*
X22604893Y-18656714D01*
X22533464Y-18656714D01*
X22504893Y-18642429D01*
X22490607Y-18628143D01*
X22762036Y-18356714D02*
X22962036Y-18356714D01*
X22833464Y-18656714D01*
X23062036Y-18356714D02*
X23062036Y-18413857D01*
X23176321Y-18356714D02*
X23176321Y-18413857D01*
X23619178Y-18771000D02*
X23604893Y-18756714D01*
X23576321Y-18713857D01*
X23562036Y-18685286D01*
X23547750Y-18642429D01*
X23533464Y-18571000D01*
X23533464Y-18513857D01*
X23547750Y-18442429D01*
X23562036Y-18399572D01*
X23576321Y-18371000D01*
X23604893Y-18328143D01*
X23619178Y-18313857D01*
X23876321Y-18356714D02*
X23733464Y-18356714D01*
X23719178Y-18499572D01*
X23733464Y-18485286D01*
X23762036Y-18471000D01*
X23833464Y-18471000D01*
X23862036Y-18485286D01*
X23876321Y-18499572D01*
X23890607Y-18528143D01*
X23890607Y-18599572D01*
X23876321Y-18628143D01*
X23862036Y-18642429D01*
X23833464Y-18656714D01*
X23762036Y-18656714D01*
X23733464Y-18642429D01*
X23719178Y-18628143D01*
X23990607Y-18356714D02*
X24176321Y-18356714D01*
X24076321Y-18471000D01*
X24119178Y-18471000D01*
X24147750Y-18485286D01*
X24162036Y-18499572D01*
X24176321Y-18528143D01*
X24176321Y-18599572D01*
X24162036Y-18628143D01*
X24147750Y-18642429D01*
X24119178Y-18656714D01*
X24033464Y-18656714D01*
X24004893Y-18642429D01*
X23990607Y-18628143D01*
X24533464Y-18656714D02*
X24533464Y-18356714D01*
X24662036Y-18656714D02*
X24662036Y-18499572D01*
X24647750Y-18471000D01*
X24619178Y-18456714D01*
X24576321Y-18456714D01*
X24547750Y-18471000D01*
X24533464Y-18485286D01*
X24847750Y-18656714D02*
X24819178Y-18642429D01*
X24804893Y-18628143D01*
X24790607Y-18599572D01*
X24790607Y-18513857D01*
X24804893Y-18485286D01*
X24819178Y-18471000D01*
X24847750Y-18456714D01*
X24890607Y-18456714D01*
X24919178Y-18471000D01*
X24933464Y-18485286D01*
X24947750Y-18513857D01*
X24947750Y-18599572D01*
X24933464Y-18628143D01*
X24919178Y-18642429D01*
X24890607Y-18656714D01*
X24847750Y-18656714D01*
X25119178Y-18656714D02*
X25090607Y-18642429D01*
X25076321Y-18613857D01*
X25076321Y-18356714D01*
X25347750Y-18642429D02*
X25319178Y-18656714D01*
X25262036Y-18656714D01*
X25233464Y-18642429D01*
X25219178Y-18613857D01*
X25219178Y-18499572D01*
X25233464Y-18471000D01*
X25262036Y-18456714D01*
X25319178Y-18456714D01*
X25347750Y-18471000D01*
X25362036Y-18499572D01*
X25362036Y-18528143D01*
X25219178Y-18556714D01*
X25476321Y-18642429D02*
X25504893Y-18656714D01*
X25562036Y-18656714D01*
X25590607Y-18642429D01*
X25604893Y-18613857D01*
X25604893Y-18599572D01*
X25590607Y-18571000D01*
X25562036Y-18556714D01*
X25519178Y-18556714D01*
X25490607Y-18542429D01*
X25476321Y-18513857D01*
X25476321Y-18499572D01*
X25490607Y-18471000D01*
X25519178Y-18456714D01*
X25562036Y-18456714D01*
X25590607Y-18471000D01*
X25704893Y-18771000D02*
X25719178Y-18756714D01*
X25747750Y-18713857D01*
X25762036Y-18685286D01*
X25776321Y-18642429D01*
X25790607Y-18571000D01*
X25790607Y-18513857D01*
X25776321Y-18442429D01*
X25762036Y-18399572D01*
X25747750Y-18371000D01*
X25719178Y-18328143D01*
X25704893Y-18313857D01*
X26247750Y-18771000D02*
X26233464Y-18756714D01*
X26204893Y-18713857D01*
X26190607Y-18685286D01*
X26176321Y-18642429D01*
X26162036Y-18571000D01*
X26162036Y-18513857D01*
X26176321Y-18442429D01*
X26190607Y-18399572D01*
X26204893Y-18371000D01*
X26233464Y-18328143D01*
X26247750Y-18313857D01*
X26362036Y-18456714D02*
X26362036Y-18656714D01*
X26362036Y-18485286D02*
X26376321Y-18471000D01*
X26404893Y-18456714D01*
X26447750Y-18456714D01*
X26476321Y-18471000D01*
X26490607Y-18499572D01*
X26490607Y-18656714D01*
X26676321Y-18656714D02*
X26647750Y-18642429D01*
X26633464Y-18628143D01*
X26619178Y-18599572D01*
X26619178Y-18513857D01*
X26633464Y-18485286D01*
X26647750Y-18471000D01*
X26676321Y-18456714D01*
X26719178Y-18456714D01*
X26747750Y-18471000D01*
X26762036Y-18485286D01*
X26776321Y-18513857D01*
X26776321Y-18599572D01*
X26762036Y-18628143D01*
X26747750Y-18642429D01*
X26719178Y-18656714D01*
X26676321Y-18656714D01*
X26862036Y-18456714D02*
X26976321Y-18456714D01*
X26904893Y-18356714D02*
X26904893Y-18613857D01*
X26919178Y-18642429D01*
X26947750Y-18656714D01*
X26976321Y-18656714D01*
X27304893Y-18456714D02*
X27304893Y-18756714D01*
X27304893Y-18471000D02*
X27333464Y-18456714D01*
X27390607Y-18456714D01*
X27419178Y-18471000D01*
X27433464Y-18485286D01*
X27447750Y-18513857D01*
X27447750Y-18599572D01*
X27433464Y-18628143D01*
X27419178Y-18642429D01*
X27390607Y-18656714D01*
X27333464Y-18656714D01*
X27304893Y-18642429D01*
X27619178Y-18656714D02*
X27590607Y-18642429D01*
X27576321Y-18613857D01*
X27576321Y-18356714D01*
X27862036Y-18656714D02*
X27862036Y-18499572D01*
X27847750Y-18471000D01*
X27819178Y-18456714D01*
X27762036Y-18456714D01*
X27733464Y-18471000D01*
X27862036Y-18642429D02*
X27833464Y-18656714D01*
X27762036Y-18656714D01*
X27733464Y-18642429D01*
X27719178Y-18613857D01*
X27719178Y-18585286D01*
X27733464Y-18556714D01*
X27762036Y-18542429D01*
X27833464Y-18542429D01*
X27862036Y-18528143D01*
X27962036Y-18456714D02*
X28076321Y-18456714D01*
X28004893Y-18356714D02*
X28004893Y-18613857D01*
X28019178Y-18642429D01*
X28047750Y-18656714D01*
X28076321Y-18656714D01*
X28290607Y-18642429D02*
X28262036Y-18656714D01*
X28204893Y-18656714D01*
X28176321Y-18642429D01*
X28162036Y-18613857D01*
X28162036Y-18499572D01*
X28176321Y-18471000D01*
X28204893Y-18456714D01*
X28262036Y-18456714D01*
X28290607Y-18471000D01*
X28304893Y-18499572D01*
X28304893Y-18528143D01*
X28162036Y-18556714D01*
X28562036Y-18656714D02*
X28562036Y-18356714D01*
X28562036Y-18642429D02*
X28533464Y-18656714D01*
X28476321Y-18656714D01*
X28447750Y-18642429D01*
X28433464Y-18628143D01*
X28419178Y-18599572D01*
X28419178Y-18513857D01*
X28433464Y-18485286D01*
X28447750Y-18471000D01*
X28476321Y-18456714D01*
X28533464Y-18456714D01*
X28562036Y-18471000D01*
X28676321Y-18771000D02*
X28690607Y-18756714D01*
X28719178Y-18713857D01*
X28733464Y-18685286D01*
X28747750Y-18642429D01*
X28762036Y-18571000D01*
X28762036Y-18513857D01*
X28747750Y-18442429D01*
X28733464Y-18399572D01*
X28719178Y-18371000D01*
X28690607Y-18328143D01*
X28676321Y-18313857D01*
M02*
