G04 #@! TF.GenerationSoftware,KiCad,Pcbnew,(5.0.0-3-g5ebb6b6)*
G04 #@! TF.CreationDate,2018-10-13T13:09:02+09:00*
G04 #@! TF.ProjectId,pakbd,70616B62642E6B696361645F70636200,1*
G04 #@! TF.SameCoordinates,Original*
G04 #@! TF.FileFunction,Paste,Bot*
G04 #@! TF.FilePolarity,Positive*
%FSLAX46Y46*%
G04 Gerber Fmt 4.6, Leading zero omitted, Abs format (unit mm)*
G04 Created by KiCad (PCBNEW (5.0.0-3-g5ebb6b6)) date *
%MOMM*%
%LPD*%
G01*
G04 APERTURE LIST*
%ADD10C,0.100000*%
%ADD11C,1.425000*%
%ADD12R,3.000000X2.500000*%
G04 APERTURE END LIST*
D10*
G04 #@! TO.C,D17*
G36*
X113119504Y-74511204D02*
X113143773Y-74514804D01*
X113167571Y-74520765D01*
X113190671Y-74529030D01*
X113212849Y-74539520D01*
X113233893Y-74552133D01*
X113253598Y-74566747D01*
X113271777Y-74583223D01*
X113288253Y-74601402D01*
X113302867Y-74621107D01*
X113315480Y-74642151D01*
X113325970Y-74664329D01*
X113334235Y-74687429D01*
X113340196Y-74711227D01*
X113343796Y-74735496D01*
X113345000Y-74760000D01*
X113345000Y-75685000D01*
X113343796Y-75709504D01*
X113340196Y-75733773D01*
X113334235Y-75757571D01*
X113325970Y-75780671D01*
X113315480Y-75802849D01*
X113302867Y-75823893D01*
X113288253Y-75843598D01*
X113271777Y-75861777D01*
X113253598Y-75878253D01*
X113233893Y-75892867D01*
X113212849Y-75905480D01*
X113190671Y-75915970D01*
X113167571Y-75924235D01*
X113143773Y-75930196D01*
X113119504Y-75933796D01*
X113095000Y-75935000D01*
X111845000Y-75935000D01*
X111820496Y-75933796D01*
X111796227Y-75930196D01*
X111772429Y-75924235D01*
X111749329Y-75915970D01*
X111727151Y-75905480D01*
X111706107Y-75892867D01*
X111686402Y-75878253D01*
X111668223Y-75861777D01*
X111651747Y-75843598D01*
X111637133Y-75823893D01*
X111624520Y-75802849D01*
X111614030Y-75780671D01*
X111605765Y-75757571D01*
X111599804Y-75733773D01*
X111596204Y-75709504D01*
X111595000Y-75685000D01*
X111595000Y-74760000D01*
X111596204Y-74735496D01*
X111599804Y-74711227D01*
X111605765Y-74687429D01*
X111614030Y-74664329D01*
X111624520Y-74642151D01*
X111637133Y-74621107D01*
X111651747Y-74601402D01*
X111668223Y-74583223D01*
X111686402Y-74566747D01*
X111706107Y-74552133D01*
X111727151Y-74539520D01*
X111749329Y-74529030D01*
X111772429Y-74520765D01*
X111796227Y-74514804D01*
X111820496Y-74511204D01*
X111845000Y-74510000D01*
X113095000Y-74510000D01*
X113119504Y-74511204D01*
X113119504Y-74511204D01*
G37*
D11*
X112470000Y-75222500D03*
D10*
G36*
X113119504Y-77486204D02*
X113143773Y-77489804D01*
X113167571Y-77495765D01*
X113190671Y-77504030D01*
X113212849Y-77514520D01*
X113233893Y-77527133D01*
X113253598Y-77541747D01*
X113271777Y-77558223D01*
X113288253Y-77576402D01*
X113302867Y-77596107D01*
X113315480Y-77617151D01*
X113325970Y-77639329D01*
X113334235Y-77662429D01*
X113340196Y-77686227D01*
X113343796Y-77710496D01*
X113345000Y-77735000D01*
X113345000Y-78660000D01*
X113343796Y-78684504D01*
X113340196Y-78708773D01*
X113334235Y-78732571D01*
X113325970Y-78755671D01*
X113315480Y-78777849D01*
X113302867Y-78798893D01*
X113288253Y-78818598D01*
X113271777Y-78836777D01*
X113253598Y-78853253D01*
X113233893Y-78867867D01*
X113212849Y-78880480D01*
X113190671Y-78890970D01*
X113167571Y-78899235D01*
X113143773Y-78905196D01*
X113119504Y-78908796D01*
X113095000Y-78910000D01*
X111845000Y-78910000D01*
X111820496Y-78908796D01*
X111796227Y-78905196D01*
X111772429Y-78899235D01*
X111749329Y-78890970D01*
X111727151Y-78880480D01*
X111706107Y-78867867D01*
X111686402Y-78853253D01*
X111668223Y-78836777D01*
X111651747Y-78818598D01*
X111637133Y-78798893D01*
X111624520Y-78777849D01*
X111614030Y-78755671D01*
X111605765Y-78732571D01*
X111599804Y-78708773D01*
X111596204Y-78684504D01*
X111595000Y-78660000D01*
X111595000Y-77735000D01*
X111596204Y-77710496D01*
X111599804Y-77686227D01*
X111605765Y-77662429D01*
X111614030Y-77639329D01*
X111624520Y-77617151D01*
X111637133Y-77596107D01*
X111651747Y-77576402D01*
X111668223Y-77558223D01*
X111686402Y-77541747D01*
X111706107Y-77527133D01*
X111727151Y-77514520D01*
X111749329Y-77504030D01*
X111772429Y-77495765D01*
X111796227Y-77489804D01*
X111820496Y-77486204D01*
X111845000Y-77485000D01*
X113095000Y-77485000D01*
X113119504Y-77486204D01*
X113119504Y-77486204D01*
G37*
D11*
X112470000Y-78197500D03*
G04 #@! TD*
D12*
G04 #@! TO.C,SW20*
X171387000Y-83780000D03*
X157417000Y-86320000D03*
G04 #@! TD*
D10*
G04 #@! TO.C,D8*
G36*
X70231570Y-55501718D02*
X70255839Y-55505318D01*
X70279637Y-55511279D01*
X70302737Y-55519544D01*
X70324915Y-55530034D01*
X70345959Y-55542647D01*
X70365664Y-55557261D01*
X70383843Y-55573737D01*
X70400319Y-55591916D01*
X70414933Y-55611621D01*
X70427546Y-55632665D01*
X70438036Y-55654843D01*
X70446301Y-55677943D01*
X70452262Y-55701741D01*
X70455862Y-55726010D01*
X70457066Y-55750514D01*
X70457066Y-56675514D01*
X70455862Y-56700018D01*
X70452262Y-56724287D01*
X70446301Y-56748085D01*
X70438036Y-56771185D01*
X70427546Y-56793363D01*
X70414933Y-56814407D01*
X70400319Y-56834112D01*
X70383843Y-56852291D01*
X70365664Y-56868767D01*
X70345959Y-56883381D01*
X70324915Y-56895994D01*
X70302737Y-56906484D01*
X70279637Y-56914749D01*
X70255839Y-56920710D01*
X70231570Y-56924310D01*
X70207066Y-56925514D01*
X68957066Y-56925514D01*
X68932562Y-56924310D01*
X68908293Y-56920710D01*
X68884495Y-56914749D01*
X68861395Y-56906484D01*
X68839217Y-56895994D01*
X68818173Y-56883381D01*
X68798468Y-56868767D01*
X68780289Y-56852291D01*
X68763813Y-56834112D01*
X68749199Y-56814407D01*
X68736586Y-56793363D01*
X68726096Y-56771185D01*
X68717831Y-56748085D01*
X68711870Y-56724287D01*
X68708270Y-56700018D01*
X68707066Y-56675514D01*
X68707066Y-55750514D01*
X68708270Y-55726010D01*
X68711870Y-55701741D01*
X68717831Y-55677943D01*
X68726096Y-55654843D01*
X68736586Y-55632665D01*
X68749199Y-55611621D01*
X68763813Y-55591916D01*
X68780289Y-55573737D01*
X68798468Y-55557261D01*
X68818173Y-55542647D01*
X68839217Y-55530034D01*
X68861395Y-55519544D01*
X68884495Y-55511279D01*
X68908293Y-55505318D01*
X68932562Y-55501718D01*
X68957066Y-55500514D01*
X70207066Y-55500514D01*
X70231570Y-55501718D01*
X70231570Y-55501718D01*
G37*
D11*
X69582066Y-56213014D03*
D10*
G36*
X70231570Y-58476718D02*
X70255839Y-58480318D01*
X70279637Y-58486279D01*
X70302737Y-58494544D01*
X70324915Y-58505034D01*
X70345959Y-58517647D01*
X70365664Y-58532261D01*
X70383843Y-58548737D01*
X70400319Y-58566916D01*
X70414933Y-58586621D01*
X70427546Y-58607665D01*
X70438036Y-58629843D01*
X70446301Y-58652943D01*
X70452262Y-58676741D01*
X70455862Y-58701010D01*
X70457066Y-58725514D01*
X70457066Y-59650514D01*
X70455862Y-59675018D01*
X70452262Y-59699287D01*
X70446301Y-59723085D01*
X70438036Y-59746185D01*
X70427546Y-59768363D01*
X70414933Y-59789407D01*
X70400319Y-59809112D01*
X70383843Y-59827291D01*
X70365664Y-59843767D01*
X70345959Y-59858381D01*
X70324915Y-59870994D01*
X70302737Y-59881484D01*
X70279637Y-59889749D01*
X70255839Y-59895710D01*
X70231570Y-59899310D01*
X70207066Y-59900514D01*
X68957066Y-59900514D01*
X68932562Y-59899310D01*
X68908293Y-59895710D01*
X68884495Y-59889749D01*
X68861395Y-59881484D01*
X68839217Y-59870994D01*
X68818173Y-59858381D01*
X68798468Y-59843767D01*
X68780289Y-59827291D01*
X68763813Y-59809112D01*
X68749199Y-59789407D01*
X68736586Y-59768363D01*
X68726096Y-59746185D01*
X68717831Y-59723085D01*
X68711870Y-59699287D01*
X68708270Y-59675018D01*
X68707066Y-59650514D01*
X68707066Y-58725514D01*
X68708270Y-58701010D01*
X68711870Y-58676741D01*
X68717831Y-58652943D01*
X68726096Y-58629843D01*
X68736586Y-58607665D01*
X68749199Y-58586621D01*
X68763813Y-58566916D01*
X68780289Y-58548737D01*
X68798468Y-58532261D01*
X68818173Y-58517647D01*
X68839217Y-58505034D01*
X68861395Y-58494544D01*
X68884495Y-58486279D01*
X68908293Y-58480318D01*
X68932562Y-58476718D01*
X68957066Y-58475514D01*
X70207066Y-58475514D01*
X70231570Y-58476718D01*
X70231570Y-58476718D01*
G37*
D11*
X69582066Y-59188014D03*
G04 #@! TD*
D10*
G04 #@! TO.C,D20*
G36*
X158529504Y-74551204D02*
X158553773Y-74554804D01*
X158577571Y-74560765D01*
X158600671Y-74569030D01*
X158622849Y-74579520D01*
X158643893Y-74592133D01*
X158663598Y-74606747D01*
X158681777Y-74623223D01*
X158698253Y-74641402D01*
X158712867Y-74661107D01*
X158725480Y-74682151D01*
X158735970Y-74704329D01*
X158744235Y-74727429D01*
X158750196Y-74751227D01*
X158753796Y-74775496D01*
X158755000Y-74800000D01*
X158755000Y-75725000D01*
X158753796Y-75749504D01*
X158750196Y-75773773D01*
X158744235Y-75797571D01*
X158735970Y-75820671D01*
X158725480Y-75842849D01*
X158712867Y-75863893D01*
X158698253Y-75883598D01*
X158681777Y-75901777D01*
X158663598Y-75918253D01*
X158643893Y-75932867D01*
X158622849Y-75945480D01*
X158600671Y-75955970D01*
X158577571Y-75964235D01*
X158553773Y-75970196D01*
X158529504Y-75973796D01*
X158505000Y-75975000D01*
X157255000Y-75975000D01*
X157230496Y-75973796D01*
X157206227Y-75970196D01*
X157182429Y-75964235D01*
X157159329Y-75955970D01*
X157137151Y-75945480D01*
X157116107Y-75932867D01*
X157096402Y-75918253D01*
X157078223Y-75901777D01*
X157061747Y-75883598D01*
X157047133Y-75863893D01*
X157034520Y-75842849D01*
X157024030Y-75820671D01*
X157015765Y-75797571D01*
X157009804Y-75773773D01*
X157006204Y-75749504D01*
X157005000Y-75725000D01*
X157005000Y-74800000D01*
X157006204Y-74775496D01*
X157009804Y-74751227D01*
X157015765Y-74727429D01*
X157024030Y-74704329D01*
X157034520Y-74682151D01*
X157047133Y-74661107D01*
X157061747Y-74641402D01*
X157078223Y-74623223D01*
X157096402Y-74606747D01*
X157116107Y-74592133D01*
X157137151Y-74579520D01*
X157159329Y-74569030D01*
X157182429Y-74560765D01*
X157206227Y-74554804D01*
X157230496Y-74551204D01*
X157255000Y-74550000D01*
X158505000Y-74550000D01*
X158529504Y-74551204D01*
X158529504Y-74551204D01*
G37*
D11*
X157880000Y-75262500D03*
D10*
G36*
X158529504Y-77526204D02*
X158553773Y-77529804D01*
X158577571Y-77535765D01*
X158600671Y-77544030D01*
X158622849Y-77554520D01*
X158643893Y-77567133D01*
X158663598Y-77581747D01*
X158681777Y-77598223D01*
X158698253Y-77616402D01*
X158712867Y-77636107D01*
X158725480Y-77657151D01*
X158735970Y-77679329D01*
X158744235Y-77702429D01*
X158750196Y-77726227D01*
X158753796Y-77750496D01*
X158755000Y-77775000D01*
X158755000Y-78700000D01*
X158753796Y-78724504D01*
X158750196Y-78748773D01*
X158744235Y-78772571D01*
X158735970Y-78795671D01*
X158725480Y-78817849D01*
X158712867Y-78838893D01*
X158698253Y-78858598D01*
X158681777Y-78876777D01*
X158663598Y-78893253D01*
X158643893Y-78907867D01*
X158622849Y-78920480D01*
X158600671Y-78930970D01*
X158577571Y-78939235D01*
X158553773Y-78945196D01*
X158529504Y-78948796D01*
X158505000Y-78950000D01*
X157255000Y-78950000D01*
X157230496Y-78948796D01*
X157206227Y-78945196D01*
X157182429Y-78939235D01*
X157159329Y-78930970D01*
X157137151Y-78920480D01*
X157116107Y-78907867D01*
X157096402Y-78893253D01*
X157078223Y-78876777D01*
X157061747Y-78858598D01*
X157047133Y-78838893D01*
X157034520Y-78817849D01*
X157024030Y-78795671D01*
X157015765Y-78772571D01*
X157009804Y-78748773D01*
X157006204Y-78724504D01*
X157005000Y-78700000D01*
X157005000Y-77775000D01*
X157006204Y-77750496D01*
X157009804Y-77726227D01*
X157015765Y-77702429D01*
X157024030Y-77679329D01*
X157034520Y-77657151D01*
X157047133Y-77636107D01*
X157061747Y-77616402D01*
X157078223Y-77598223D01*
X157096402Y-77581747D01*
X157116107Y-77567133D01*
X157137151Y-77554520D01*
X157159329Y-77544030D01*
X157182429Y-77535765D01*
X157206227Y-77529804D01*
X157230496Y-77526204D01*
X157255000Y-77525000D01*
X158505000Y-77525000D01*
X158529504Y-77526204D01*
X158529504Y-77526204D01*
G37*
D11*
X157880000Y-78237500D03*
G04 #@! TD*
D10*
G04 #@! TO.C,D9*
G36*
X89281570Y-55501718D02*
X89305839Y-55505318D01*
X89329637Y-55511279D01*
X89352737Y-55519544D01*
X89374915Y-55530034D01*
X89395959Y-55542647D01*
X89415664Y-55557261D01*
X89433843Y-55573737D01*
X89450319Y-55591916D01*
X89464933Y-55611621D01*
X89477546Y-55632665D01*
X89488036Y-55654843D01*
X89496301Y-55677943D01*
X89502262Y-55701741D01*
X89505862Y-55726010D01*
X89507066Y-55750514D01*
X89507066Y-56675514D01*
X89505862Y-56700018D01*
X89502262Y-56724287D01*
X89496301Y-56748085D01*
X89488036Y-56771185D01*
X89477546Y-56793363D01*
X89464933Y-56814407D01*
X89450319Y-56834112D01*
X89433843Y-56852291D01*
X89415664Y-56868767D01*
X89395959Y-56883381D01*
X89374915Y-56895994D01*
X89352737Y-56906484D01*
X89329637Y-56914749D01*
X89305839Y-56920710D01*
X89281570Y-56924310D01*
X89257066Y-56925514D01*
X88007066Y-56925514D01*
X87982562Y-56924310D01*
X87958293Y-56920710D01*
X87934495Y-56914749D01*
X87911395Y-56906484D01*
X87889217Y-56895994D01*
X87868173Y-56883381D01*
X87848468Y-56868767D01*
X87830289Y-56852291D01*
X87813813Y-56834112D01*
X87799199Y-56814407D01*
X87786586Y-56793363D01*
X87776096Y-56771185D01*
X87767831Y-56748085D01*
X87761870Y-56724287D01*
X87758270Y-56700018D01*
X87757066Y-56675514D01*
X87757066Y-55750514D01*
X87758270Y-55726010D01*
X87761870Y-55701741D01*
X87767831Y-55677943D01*
X87776096Y-55654843D01*
X87786586Y-55632665D01*
X87799199Y-55611621D01*
X87813813Y-55591916D01*
X87830289Y-55573737D01*
X87848468Y-55557261D01*
X87868173Y-55542647D01*
X87889217Y-55530034D01*
X87911395Y-55519544D01*
X87934495Y-55511279D01*
X87958293Y-55505318D01*
X87982562Y-55501718D01*
X88007066Y-55500514D01*
X89257066Y-55500514D01*
X89281570Y-55501718D01*
X89281570Y-55501718D01*
G37*
D11*
X88632066Y-56213014D03*
D10*
G36*
X89281570Y-58476718D02*
X89305839Y-58480318D01*
X89329637Y-58486279D01*
X89352737Y-58494544D01*
X89374915Y-58505034D01*
X89395959Y-58517647D01*
X89415664Y-58532261D01*
X89433843Y-58548737D01*
X89450319Y-58566916D01*
X89464933Y-58586621D01*
X89477546Y-58607665D01*
X89488036Y-58629843D01*
X89496301Y-58652943D01*
X89502262Y-58676741D01*
X89505862Y-58701010D01*
X89507066Y-58725514D01*
X89507066Y-59650514D01*
X89505862Y-59675018D01*
X89502262Y-59699287D01*
X89496301Y-59723085D01*
X89488036Y-59746185D01*
X89477546Y-59768363D01*
X89464933Y-59789407D01*
X89450319Y-59809112D01*
X89433843Y-59827291D01*
X89415664Y-59843767D01*
X89395959Y-59858381D01*
X89374915Y-59870994D01*
X89352737Y-59881484D01*
X89329637Y-59889749D01*
X89305839Y-59895710D01*
X89281570Y-59899310D01*
X89257066Y-59900514D01*
X88007066Y-59900514D01*
X87982562Y-59899310D01*
X87958293Y-59895710D01*
X87934495Y-59889749D01*
X87911395Y-59881484D01*
X87889217Y-59870994D01*
X87868173Y-59858381D01*
X87848468Y-59843767D01*
X87830289Y-59827291D01*
X87813813Y-59809112D01*
X87799199Y-59789407D01*
X87786586Y-59768363D01*
X87776096Y-59746185D01*
X87767831Y-59723085D01*
X87761870Y-59699287D01*
X87758270Y-59675018D01*
X87757066Y-59650514D01*
X87757066Y-58725514D01*
X87758270Y-58701010D01*
X87761870Y-58676741D01*
X87767831Y-58652943D01*
X87776096Y-58629843D01*
X87786586Y-58607665D01*
X87799199Y-58586621D01*
X87813813Y-58566916D01*
X87830289Y-58548737D01*
X87848468Y-58532261D01*
X87868173Y-58517647D01*
X87889217Y-58505034D01*
X87911395Y-58494544D01*
X87934495Y-58486279D01*
X87958293Y-58480318D01*
X87982562Y-58476718D01*
X88007066Y-58475514D01*
X89257066Y-58475514D01*
X89281570Y-58476718D01*
X89281570Y-58476718D01*
G37*
D11*
X88632066Y-59188014D03*
G04 #@! TD*
D10*
G04 #@! TO.C,D10*
G36*
X108331570Y-55501718D02*
X108355839Y-55505318D01*
X108379637Y-55511279D01*
X108402737Y-55519544D01*
X108424915Y-55530034D01*
X108445959Y-55542647D01*
X108465664Y-55557261D01*
X108483843Y-55573737D01*
X108500319Y-55591916D01*
X108514933Y-55611621D01*
X108527546Y-55632665D01*
X108538036Y-55654843D01*
X108546301Y-55677943D01*
X108552262Y-55701741D01*
X108555862Y-55726010D01*
X108557066Y-55750514D01*
X108557066Y-56675514D01*
X108555862Y-56700018D01*
X108552262Y-56724287D01*
X108546301Y-56748085D01*
X108538036Y-56771185D01*
X108527546Y-56793363D01*
X108514933Y-56814407D01*
X108500319Y-56834112D01*
X108483843Y-56852291D01*
X108465664Y-56868767D01*
X108445959Y-56883381D01*
X108424915Y-56895994D01*
X108402737Y-56906484D01*
X108379637Y-56914749D01*
X108355839Y-56920710D01*
X108331570Y-56924310D01*
X108307066Y-56925514D01*
X107057066Y-56925514D01*
X107032562Y-56924310D01*
X107008293Y-56920710D01*
X106984495Y-56914749D01*
X106961395Y-56906484D01*
X106939217Y-56895994D01*
X106918173Y-56883381D01*
X106898468Y-56868767D01*
X106880289Y-56852291D01*
X106863813Y-56834112D01*
X106849199Y-56814407D01*
X106836586Y-56793363D01*
X106826096Y-56771185D01*
X106817831Y-56748085D01*
X106811870Y-56724287D01*
X106808270Y-56700018D01*
X106807066Y-56675514D01*
X106807066Y-55750514D01*
X106808270Y-55726010D01*
X106811870Y-55701741D01*
X106817831Y-55677943D01*
X106826096Y-55654843D01*
X106836586Y-55632665D01*
X106849199Y-55611621D01*
X106863813Y-55591916D01*
X106880289Y-55573737D01*
X106898468Y-55557261D01*
X106918173Y-55542647D01*
X106939217Y-55530034D01*
X106961395Y-55519544D01*
X106984495Y-55511279D01*
X107008293Y-55505318D01*
X107032562Y-55501718D01*
X107057066Y-55500514D01*
X108307066Y-55500514D01*
X108331570Y-55501718D01*
X108331570Y-55501718D01*
G37*
D11*
X107682066Y-56213014D03*
D10*
G36*
X108331570Y-58476718D02*
X108355839Y-58480318D01*
X108379637Y-58486279D01*
X108402737Y-58494544D01*
X108424915Y-58505034D01*
X108445959Y-58517647D01*
X108465664Y-58532261D01*
X108483843Y-58548737D01*
X108500319Y-58566916D01*
X108514933Y-58586621D01*
X108527546Y-58607665D01*
X108538036Y-58629843D01*
X108546301Y-58652943D01*
X108552262Y-58676741D01*
X108555862Y-58701010D01*
X108557066Y-58725514D01*
X108557066Y-59650514D01*
X108555862Y-59675018D01*
X108552262Y-59699287D01*
X108546301Y-59723085D01*
X108538036Y-59746185D01*
X108527546Y-59768363D01*
X108514933Y-59789407D01*
X108500319Y-59809112D01*
X108483843Y-59827291D01*
X108465664Y-59843767D01*
X108445959Y-59858381D01*
X108424915Y-59870994D01*
X108402737Y-59881484D01*
X108379637Y-59889749D01*
X108355839Y-59895710D01*
X108331570Y-59899310D01*
X108307066Y-59900514D01*
X107057066Y-59900514D01*
X107032562Y-59899310D01*
X107008293Y-59895710D01*
X106984495Y-59889749D01*
X106961395Y-59881484D01*
X106939217Y-59870994D01*
X106918173Y-59858381D01*
X106898468Y-59843767D01*
X106880289Y-59827291D01*
X106863813Y-59809112D01*
X106849199Y-59789407D01*
X106836586Y-59768363D01*
X106826096Y-59746185D01*
X106817831Y-59723085D01*
X106811870Y-59699287D01*
X106808270Y-59675018D01*
X106807066Y-59650514D01*
X106807066Y-58725514D01*
X106808270Y-58701010D01*
X106811870Y-58676741D01*
X106817831Y-58652943D01*
X106826096Y-58629843D01*
X106836586Y-58607665D01*
X106849199Y-58586621D01*
X106863813Y-58566916D01*
X106880289Y-58548737D01*
X106898468Y-58532261D01*
X106918173Y-58517647D01*
X106939217Y-58505034D01*
X106961395Y-58494544D01*
X106984495Y-58486279D01*
X107008293Y-58480318D01*
X107032562Y-58476718D01*
X107057066Y-58475514D01*
X108307066Y-58475514D01*
X108331570Y-58476718D01*
X108331570Y-58476718D01*
G37*
D11*
X107682066Y-59188014D03*
G04 #@! TD*
D10*
G04 #@! TO.C,D11*
G36*
X127381570Y-55501718D02*
X127405839Y-55505318D01*
X127429637Y-55511279D01*
X127452737Y-55519544D01*
X127474915Y-55530034D01*
X127495959Y-55542647D01*
X127515664Y-55557261D01*
X127533843Y-55573737D01*
X127550319Y-55591916D01*
X127564933Y-55611621D01*
X127577546Y-55632665D01*
X127588036Y-55654843D01*
X127596301Y-55677943D01*
X127602262Y-55701741D01*
X127605862Y-55726010D01*
X127607066Y-55750514D01*
X127607066Y-56675514D01*
X127605862Y-56700018D01*
X127602262Y-56724287D01*
X127596301Y-56748085D01*
X127588036Y-56771185D01*
X127577546Y-56793363D01*
X127564933Y-56814407D01*
X127550319Y-56834112D01*
X127533843Y-56852291D01*
X127515664Y-56868767D01*
X127495959Y-56883381D01*
X127474915Y-56895994D01*
X127452737Y-56906484D01*
X127429637Y-56914749D01*
X127405839Y-56920710D01*
X127381570Y-56924310D01*
X127357066Y-56925514D01*
X126107066Y-56925514D01*
X126082562Y-56924310D01*
X126058293Y-56920710D01*
X126034495Y-56914749D01*
X126011395Y-56906484D01*
X125989217Y-56895994D01*
X125968173Y-56883381D01*
X125948468Y-56868767D01*
X125930289Y-56852291D01*
X125913813Y-56834112D01*
X125899199Y-56814407D01*
X125886586Y-56793363D01*
X125876096Y-56771185D01*
X125867831Y-56748085D01*
X125861870Y-56724287D01*
X125858270Y-56700018D01*
X125857066Y-56675514D01*
X125857066Y-55750514D01*
X125858270Y-55726010D01*
X125861870Y-55701741D01*
X125867831Y-55677943D01*
X125876096Y-55654843D01*
X125886586Y-55632665D01*
X125899199Y-55611621D01*
X125913813Y-55591916D01*
X125930289Y-55573737D01*
X125948468Y-55557261D01*
X125968173Y-55542647D01*
X125989217Y-55530034D01*
X126011395Y-55519544D01*
X126034495Y-55511279D01*
X126058293Y-55505318D01*
X126082562Y-55501718D01*
X126107066Y-55500514D01*
X127357066Y-55500514D01*
X127381570Y-55501718D01*
X127381570Y-55501718D01*
G37*
D11*
X126732066Y-56213014D03*
D10*
G36*
X127381570Y-58476718D02*
X127405839Y-58480318D01*
X127429637Y-58486279D01*
X127452737Y-58494544D01*
X127474915Y-58505034D01*
X127495959Y-58517647D01*
X127515664Y-58532261D01*
X127533843Y-58548737D01*
X127550319Y-58566916D01*
X127564933Y-58586621D01*
X127577546Y-58607665D01*
X127588036Y-58629843D01*
X127596301Y-58652943D01*
X127602262Y-58676741D01*
X127605862Y-58701010D01*
X127607066Y-58725514D01*
X127607066Y-59650514D01*
X127605862Y-59675018D01*
X127602262Y-59699287D01*
X127596301Y-59723085D01*
X127588036Y-59746185D01*
X127577546Y-59768363D01*
X127564933Y-59789407D01*
X127550319Y-59809112D01*
X127533843Y-59827291D01*
X127515664Y-59843767D01*
X127495959Y-59858381D01*
X127474915Y-59870994D01*
X127452737Y-59881484D01*
X127429637Y-59889749D01*
X127405839Y-59895710D01*
X127381570Y-59899310D01*
X127357066Y-59900514D01*
X126107066Y-59900514D01*
X126082562Y-59899310D01*
X126058293Y-59895710D01*
X126034495Y-59889749D01*
X126011395Y-59881484D01*
X125989217Y-59870994D01*
X125968173Y-59858381D01*
X125948468Y-59843767D01*
X125930289Y-59827291D01*
X125913813Y-59809112D01*
X125899199Y-59789407D01*
X125886586Y-59768363D01*
X125876096Y-59746185D01*
X125867831Y-59723085D01*
X125861870Y-59699287D01*
X125858270Y-59675018D01*
X125857066Y-59650514D01*
X125857066Y-58725514D01*
X125858270Y-58701010D01*
X125861870Y-58676741D01*
X125867831Y-58652943D01*
X125876096Y-58629843D01*
X125886586Y-58607665D01*
X125899199Y-58586621D01*
X125913813Y-58566916D01*
X125930289Y-58548737D01*
X125948468Y-58532261D01*
X125968173Y-58517647D01*
X125989217Y-58505034D01*
X126011395Y-58494544D01*
X126034495Y-58486279D01*
X126058293Y-58480318D01*
X126082562Y-58476718D01*
X126107066Y-58475514D01*
X127357066Y-58475514D01*
X127381570Y-58476718D01*
X127381570Y-58476718D01*
G37*
D11*
X126732066Y-59188014D03*
G04 #@! TD*
D10*
G04 #@! TO.C,D12*
G36*
X146431570Y-55501718D02*
X146455839Y-55505318D01*
X146479637Y-55511279D01*
X146502737Y-55519544D01*
X146524915Y-55530034D01*
X146545959Y-55542647D01*
X146565664Y-55557261D01*
X146583843Y-55573737D01*
X146600319Y-55591916D01*
X146614933Y-55611621D01*
X146627546Y-55632665D01*
X146638036Y-55654843D01*
X146646301Y-55677943D01*
X146652262Y-55701741D01*
X146655862Y-55726010D01*
X146657066Y-55750514D01*
X146657066Y-56675514D01*
X146655862Y-56700018D01*
X146652262Y-56724287D01*
X146646301Y-56748085D01*
X146638036Y-56771185D01*
X146627546Y-56793363D01*
X146614933Y-56814407D01*
X146600319Y-56834112D01*
X146583843Y-56852291D01*
X146565664Y-56868767D01*
X146545959Y-56883381D01*
X146524915Y-56895994D01*
X146502737Y-56906484D01*
X146479637Y-56914749D01*
X146455839Y-56920710D01*
X146431570Y-56924310D01*
X146407066Y-56925514D01*
X145157066Y-56925514D01*
X145132562Y-56924310D01*
X145108293Y-56920710D01*
X145084495Y-56914749D01*
X145061395Y-56906484D01*
X145039217Y-56895994D01*
X145018173Y-56883381D01*
X144998468Y-56868767D01*
X144980289Y-56852291D01*
X144963813Y-56834112D01*
X144949199Y-56814407D01*
X144936586Y-56793363D01*
X144926096Y-56771185D01*
X144917831Y-56748085D01*
X144911870Y-56724287D01*
X144908270Y-56700018D01*
X144907066Y-56675514D01*
X144907066Y-55750514D01*
X144908270Y-55726010D01*
X144911870Y-55701741D01*
X144917831Y-55677943D01*
X144926096Y-55654843D01*
X144936586Y-55632665D01*
X144949199Y-55611621D01*
X144963813Y-55591916D01*
X144980289Y-55573737D01*
X144998468Y-55557261D01*
X145018173Y-55542647D01*
X145039217Y-55530034D01*
X145061395Y-55519544D01*
X145084495Y-55511279D01*
X145108293Y-55505318D01*
X145132562Y-55501718D01*
X145157066Y-55500514D01*
X146407066Y-55500514D01*
X146431570Y-55501718D01*
X146431570Y-55501718D01*
G37*
D11*
X145782066Y-56213014D03*
D10*
G36*
X146431570Y-58476718D02*
X146455839Y-58480318D01*
X146479637Y-58486279D01*
X146502737Y-58494544D01*
X146524915Y-58505034D01*
X146545959Y-58517647D01*
X146565664Y-58532261D01*
X146583843Y-58548737D01*
X146600319Y-58566916D01*
X146614933Y-58586621D01*
X146627546Y-58607665D01*
X146638036Y-58629843D01*
X146646301Y-58652943D01*
X146652262Y-58676741D01*
X146655862Y-58701010D01*
X146657066Y-58725514D01*
X146657066Y-59650514D01*
X146655862Y-59675018D01*
X146652262Y-59699287D01*
X146646301Y-59723085D01*
X146638036Y-59746185D01*
X146627546Y-59768363D01*
X146614933Y-59789407D01*
X146600319Y-59809112D01*
X146583843Y-59827291D01*
X146565664Y-59843767D01*
X146545959Y-59858381D01*
X146524915Y-59870994D01*
X146502737Y-59881484D01*
X146479637Y-59889749D01*
X146455839Y-59895710D01*
X146431570Y-59899310D01*
X146407066Y-59900514D01*
X145157066Y-59900514D01*
X145132562Y-59899310D01*
X145108293Y-59895710D01*
X145084495Y-59889749D01*
X145061395Y-59881484D01*
X145039217Y-59870994D01*
X145018173Y-59858381D01*
X144998468Y-59843767D01*
X144980289Y-59827291D01*
X144963813Y-59809112D01*
X144949199Y-59789407D01*
X144936586Y-59768363D01*
X144926096Y-59746185D01*
X144917831Y-59723085D01*
X144911870Y-59699287D01*
X144908270Y-59675018D01*
X144907066Y-59650514D01*
X144907066Y-58725514D01*
X144908270Y-58701010D01*
X144911870Y-58676741D01*
X144917831Y-58652943D01*
X144926096Y-58629843D01*
X144936586Y-58607665D01*
X144949199Y-58586621D01*
X144963813Y-58566916D01*
X144980289Y-58548737D01*
X144998468Y-58532261D01*
X145018173Y-58517647D01*
X145039217Y-58505034D01*
X145061395Y-58494544D01*
X145084495Y-58486279D01*
X145108293Y-58480318D01*
X145132562Y-58476718D01*
X145157066Y-58475514D01*
X146407066Y-58475514D01*
X146431570Y-58476718D01*
X146431570Y-58476718D01*
G37*
D11*
X145782066Y-59188014D03*
G04 #@! TD*
D10*
G04 #@! TO.C,D13*
G36*
X153819504Y-55451204D02*
X153843773Y-55454804D01*
X153867571Y-55460765D01*
X153890671Y-55469030D01*
X153912849Y-55479520D01*
X153933893Y-55492133D01*
X153953598Y-55506747D01*
X153971777Y-55523223D01*
X153988253Y-55541402D01*
X154002867Y-55561107D01*
X154015480Y-55582151D01*
X154025970Y-55604329D01*
X154034235Y-55627429D01*
X154040196Y-55651227D01*
X154043796Y-55675496D01*
X154045000Y-55700000D01*
X154045000Y-56625000D01*
X154043796Y-56649504D01*
X154040196Y-56673773D01*
X154034235Y-56697571D01*
X154025970Y-56720671D01*
X154015480Y-56742849D01*
X154002867Y-56763893D01*
X153988253Y-56783598D01*
X153971777Y-56801777D01*
X153953598Y-56818253D01*
X153933893Y-56832867D01*
X153912849Y-56845480D01*
X153890671Y-56855970D01*
X153867571Y-56864235D01*
X153843773Y-56870196D01*
X153819504Y-56873796D01*
X153795000Y-56875000D01*
X152545000Y-56875000D01*
X152520496Y-56873796D01*
X152496227Y-56870196D01*
X152472429Y-56864235D01*
X152449329Y-56855970D01*
X152427151Y-56845480D01*
X152406107Y-56832867D01*
X152386402Y-56818253D01*
X152368223Y-56801777D01*
X152351747Y-56783598D01*
X152337133Y-56763893D01*
X152324520Y-56742849D01*
X152314030Y-56720671D01*
X152305765Y-56697571D01*
X152299804Y-56673773D01*
X152296204Y-56649504D01*
X152295000Y-56625000D01*
X152295000Y-55700000D01*
X152296204Y-55675496D01*
X152299804Y-55651227D01*
X152305765Y-55627429D01*
X152314030Y-55604329D01*
X152324520Y-55582151D01*
X152337133Y-55561107D01*
X152351747Y-55541402D01*
X152368223Y-55523223D01*
X152386402Y-55506747D01*
X152406107Y-55492133D01*
X152427151Y-55479520D01*
X152449329Y-55469030D01*
X152472429Y-55460765D01*
X152496227Y-55454804D01*
X152520496Y-55451204D01*
X152545000Y-55450000D01*
X153795000Y-55450000D01*
X153819504Y-55451204D01*
X153819504Y-55451204D01*
G37*
D11*
X153170000Y-56162500D03*
D10*
G36*
X153819504Y-58426204D02*
X153843773Y-58429804D01*
X153867571Y-58435765D01*
X153890671Y-58444030D01*
X153912849Y-58454520D01*
X153933893Y-58467133D01*
X153953598Y-58481747D01*
X153971777Y-58498223D01*
X153988253Y-58516402D01*
X154002867Y-58536107D01*
X154015480Y-58557151D01*
X154025970Y-58579329D01*
X154034235Y-58602429D01*
X154040196Y-58626227D01*
X154043796Y-58650496D01*
X154045000Y-58675000D01*
X154045000Y-59600000D01*
X154043796Y-59624504D01*
X154040196Y-59648773D01*
X154034235Y-59672571D01*
X154025970Y-59695671D01*
X154015480Y-59717849D01*
X154002867Y-59738893D01*
X153988253Y-59758598D01*
X153971777Y-59776777D01*
X153953598Y-59793253D01*
X153933893Y-59807867D01*
X153912849Y-59820480D01*
X153890671Y-59830970D01*
X153867571Y-59839235D01*
X153843773Y-59845196D01*
X153819504Y-59848796D01*
X153795000Y-59850000D01*
X152545000Y-59850000D01*
X152520496Y-59848796D01*
X152496227Y-59845196D01*
X152472429Y-59839235D01*
X152449329Y-59830970D01*
X152427151Y-59820480D01*
X152406107Y-59807867D01*
X152386402Y-59793253D01*
X152368223Y-59776777D01*
X152351747Y-59758598D01*
X152337133Y-59738893D01*
X152324520Y-59717849D01*
X152314030Y-59695671D01*
X152305765Y-59672571D01*
X152299804Y-59648773D01*
X152296204Y-59624504D01*
X152295000Y-59600000D01*
X152295000Y-58675000D01*
X152296204Y-58650496D01*
X152299804Y-58626227D01*
X152305765Y-58602429D01*
X152314030Y-58579329D01*
X152324520Y-58557151D01*
X152337133Y-58536107D01*
X152351747Y-58516402D01*
X152368223Y-58498223D01*
X152386402Y-58481747D01*
X152406107Y-58467133D01*
X152427151Y-58454520D01*
X152449329Y-58444030D01*
X152472429Y-58435765D01*
X152496227Y-58429804D01*
X152520496Y-58426204D01*
X152545000Y-58425000D01*
X153795000Y-58425000D01*
X153819504Y-58426204D01*
X153819504Y-58426204D01*
G37*
D11*
X153170000Y-59137500D03*
G04 #@! TD*
D10*
G04 #@! TO.C,D14*
G36*
X48799504Y-74511204D02*
X48823773Y-74514804D01*
X48847571Y-74520765D01*
X48870671Y-74529030D01*
X48892849Y-74539520D01*
X48913893Y-74552133D01*
X48933598Y-74566747D01*
X48951777Y-74583223D01*
X48968253Y-74601402D01*
X48982867Y-74621107D01*
X48995480Y-74642151D01*
X49005970Y-74664329D01*
X49014235Y-74687429D01*
X49020196Y-74711227D01*
X49023796Y-74735496D01*
X49025000Y-74760000D01*
X49025000Y-75685000D01*
X49023796Y-75709504D01*
X49020196Y-75733773D01*
X49014235Y-75757571D01*
X49005970Y-75780671D01*
X48995480Y-75802849D01*
X48982867Y-75823893D01*
X48968253Y-75843598D01*
X48951777Y-75861777D01*
X48933598Y-75878253D01*
X48913893Y-75892867D01*
X48892849Y-75905480D01*
X48870671Y-75915970D01*
X48847571Y-75924235D01*
X48823773Y-75930196D01*
X48799504Y-75933796D01*
X48775000Y-75935000D01*
X47525000Y-75935000D01*
X47500496Y-75933796D01*
X47476227Y-75930196D01*
X47452429Y-75924235D01*
X47429329Y-75915970D01*
X47407151Y-75905480D01*
X47386107Y-75892867D01*
X47366402Y-75878253D01*
X47348223Y-75861777D01*
X47331747Y-75843598D01*
X47317133Y-75823893D01*
X47304520Y-75802849D01*
X47294030Y-75780671D01*
X47285765Y-75757571D01*
X47279804Y-75733773D01*
X47276204Y-75709504D01*
X47275000Y-75685000D01*
X47275000Y-74760000D01*
X47276204Y-74735496D01*
X47279804Y-74711227D01*
X47285765Y-74687429D01*
X47294030Y-74664329D01*
X47304520Y-74642151D01*
X47317133Y-74621107D01*
X47331747Y-74601402D01*
X47348223Y-74583223D01*
X47366402Y-74566747D01*
X47386107Y-74552133D01*
X47407151Y-74539520D01*
X47429329Y-74529030D01*
X47452429Y-74520765D01*
X47476227Y-74514804D01*
X47500496Y-74511204D01*
X47525000Y-74510000D01*
X48775000Y-74510000D01*
X48799504Y-74511204D01*
X48799504Y-74511204D01*
G37*
D11*
X48150000Y-75222500D03*
D10*
G36*
X48799504Y-77486204D02*
X48823773Y-77489804D01*
X48847571Y-77495765D01*
X48870671Y-77504030D01*
X48892849Y-77514520D01*
X48913893Y-77527133D01*
X48933598Y-77541747D01*
X48951777Y-77558223D01*
X48968253Y-77576402D01*
X48982867Y-77596107D01*
X48995480Y-77617151D01*
X49005970Y-77639329D01*
X49014235Y-77662429D01*
X49020196Y-77686227D01*
X49023796Y-77710496D01*
X49025000Y-77735000D01*
X49025000Y-78660000D01*
X49023796Y-78684504D01*
X49020196Y-78708773D01*
X49014235Y-78732571D01*
X49005970Y-78755671D01*
X48995480Y-78777849D01*
X48982867Y-78798893D01*
X48968253Y-78818598D01*
X48951777Y-78836777D01*
X48933598Y-78853253D01*
X48913893Y-78867867D01*
X48892849Y-78880480D01*
X48870671Y-78890970D01*
X48847571Y-78899235D01*
X48823773Y-78905196D01*
X48799504Y-78908796D01*
X48775000Y-78910000D01*
X47525000Y-78910000D01*
X47500496Y-78908796D01*
X47476227Y-78905196D01*
X47452429Y-78899235D01*
X47429329Y-78890970D01*
X47407151Y-78880480D01*
X47386107Y-78867867D01*
X47366402Y-78853253D01*
X47348223Y-78836777D01*
X47331747Y-78818598D01*
X47317133Y-78798893D01*
X47304520Y-78777849D01*
X47294030Y-78755671D01*
X47285765Y-78732571D01*
X47279804Y-78708773D01*
X47276204Y-78684504D01*
X47275000Y-78660000D01*
X47275000Y-77735000D01*
X47276204Y-77710496D01*
X47279804Y-77686227D01*
X47285765Y-77662429D01*
X47294030Y-77639329D01*
X47304520Y-77617151D01*
X47317133Y-77596107D01*
X47331747Y-77576402D01*
X47348223Y-77558223D01*
X47366402Y-77541747D01*
X47386107Y-77527133D01*
X47407151Y-77514520D01*
X47429329Y-77504030D01*
X47452429Y-77495765D01*
X47476227Y-77489804D01*
X47500496Y-77486204D01*
X47525000Y-77485000D01*
X48775000Y-77485000D01*
X48799504Y-77486204D01*
X48799504Y-77486204D01*
G37*
D11*
X48150000Y-78197500D03*
G04 #@! TD*
D10*
G04 #@! TO.C,D15*
G36*
X75019504Y-74511204D02*
X75043773Y-74514804D01*
X75067571Y-74520765D01*
X75090671Y-74529030D01*
X75112849Y-74539520D01*
X75133893Y-74552133D01*
X75153598Y-74566747D01*
X75171777Y-74583223D01*
X75188253Y-74601402D01*
X75202867Y-74621107D01*
X75215480Y-74642151D01*
X75225970Y-74664329D01*
X75234235Y-74687429D01*
X75240196Y-74711227D01*
X75243796Y-74735496D01*
X75245000Y-74760000D01*
X75245000Y-75685000D01*
X75243796Y-75709504D01*
X75240196Y-75733773D01*
X75234235Y-75757571D01*
X75225970Y-75780671D01*
X75215480Y-75802849D01*
X75202867Y-75823893D01*
X75188253Y-75843598D01*
X75171777Y-75861777D01*
X75153598Y-75878253D01*
X75133893Y-75892867D01*
X75112849Y-75905480D01*
X75090671Y-75915970D01*
X75067571Y-75924235D01*
X75043773Y-75930196D01*
X75019504Y-75933796D01*
X74995000Y-75935000D01*
X73745000Y-75935000D01*
X73720496Y-75933796D01*
X73696227Y-75930196D01*
X73672429Y-75924235D01*
X73649329Y-75915970D01*
X73627151Y-75905480D01*
X73606107Y-75892867D01*
X73586402Y-75878253D01*
X73568223Y-75861777D01*
X73551747Y-75843598D01*
X73537133Y-75823893D01*
X73524520Y-75802849D01*
X73514030Y-75780671D01*
X73505765Y-75757571D01*
X73499804Y-75733773D01*
X73496204Y-75709504D01*
X73495000Y-75685000D01*
X73495000Y-74760000D01*
X73496204Y-74735496D01*
X73499804Y-74711227D01*
X73505765Y-74687429D01*
X73514030Y-74664329D01*
X73524520Y-74642151D01*
X73537133Y-74621107D01*
X73551747Y-74601402D01*
X73568223Y-74583223D01*
X73586402Y-74566747D01*
X73606107Y-74552133D01*
X73627151Y-74539520D01*
X73649329Y-74529030D01*
X73672429Y-74520765D01*
X73696227Y-74514804D01*
X73720496Y-74511204D01*
X73745000Y-74510000D01*
X74995000Y-74510000D01*
X75019504Y-74511204D01*
X75019504Y-74511204D01*
G37*
D11*
X74370000Y-75222500D03*
D10*
G36*
X75019504Y-77486204D02*
X75043773Y-77489804D01*
X75067571Y-77495765D01*
X75090671Y-77504030D01*
X75112849Y-77514520D01*
X75133893Y-77527133D01*
X75153598Y-77541747D01*
X75171777Y-77558223D01*
X75188253Y-77576402D01*
X75202867Y-77596107D01*
X75215480Y-77617151D01*
X75225970Y-77639329D01*
X75234235Y-77662429D01*
X75240196Y-77686227D01*
X75243796Y-77710496D01*
X75245000Y-77735000D01*
X75245000Y-78660000D01*
X75243796Y-78684504D01*
X75240196Y-78708773D01*
X75234235Y-78732571D01*
X75225970Y-78755671D01*
X75215480Y-78777849D01*
X75202867Y-78798893D01*
X75188253Y-78818598D01*
X75171777Y-78836777D01*
X75153598Y-78853253D01*
X75133893Y-78867867D01*
X75112849Y-78880480D01*
X75090671Y-78890970D01*
X75067571Y-78899235D01*
X75043773Y-78905196D01*
X75019504Y-78908796D01*
X74995000Y-78910000D01*
X73745000Y-78910000D01*
X73720496Y-78908796D01*
X73696227Y-78905196D01*
X73672429Y-78899235D01*
X73649329Y-78890970D01*
X73627151Y-78880480D01*
X73606107Y-78867867D01*
X73586402Y-78853253D01*
X73568223Y-78836777D01*
X73551747Y-78818598D01*
X73537133Y-78798893D01*
X73524520Y-78777849D01*
X73514030Y-78755671D01*
X73505765Y-78732571D01*
X73499804Y-78708773D01*
X73496204Y-78684504D01*
X73495000Y-78660000D01*
X73495000Y-77735000D01*
X73496204Y-77710496D01*
X73499804Y-77686227D01*
X73505765Y-77662429D01*
X73514030Y-77639329D01*
X73524520Y-77617151D01*
X73537133Y-77596107D01*
X73551747Y-77576402D01*
X73568223Y-77558223D01*
X73586402Y-77541747D01*
X73606107Y-77527133D01*
X73627151Y-77514520D01*
X73649329Y-77504030D01*
X73672429Y-77495765D01*
X73696227Y-77489804D01*
X73720496Y-77486204D01*
X73745000Y-77485000D01*
X74995000Y-77485000D01*
X75019504Y-77486204D01*
X75019504Y-77486204D01*
G37*
D11*
X74370000Y-78197500D03*
G04 #@! TD*
D10*
G04 #@! TO.C,D16*
G36*
X94069504Y-74511204D02*
X94093773Y-74514804D01*
X94117571Y-74520765D01*
X94140671Y-74529030D01*
X94162849Y-74539520D01*
X94183893Y-74552133D01*
X94203598Y-74566747D01*
X94221777Y-74583223D01*
X94238253Y-74601402D01*
X94252867Y-74621107D01*
X94265480Y-74642151D01*
X94275970Y-74664329D01*
X94284235Y-74687429D01*
X94290196Y-74711227D01*
X94293796Y-74735496D01*
X94295000Y-74760000D01*
X94295000Y-75685000D01*
X94293796Y-75709504D01*
X94290196Y-75733773D01*
X94284235Y-75757571D01*
X94275970Y-75780671D01*
X94265480Y-75802849D01*
X94252867Y-75823893D01*
X94238253Y-75843598D01*
X94221777Y-75861777D01*
X94203598Y-75878253D01*
X94183893Y-75892867D01*
X94162849Y-75905480D01*
X94140671Y-75915970D01*
X94117571Y-75924235D01*
X94093773Y-75930196D01*
X94069504Y-75933796D01*
X94045000Y-75935000D01*
X92795000Y-75935000D01*
X92770496Y-75933796D01*
X92746227Y-75930196D01*
X92722429Y-75924235D01*
X92699329Y-75915970D01*
X92677151Y-75905480D01*
X92656107Y-75892867D01*
X92636402Y-75878253D01*
X92618223Y-75861777D01*
X92601747Y-75843598D01*
X92587133Y-75823893D01*
X92574520Y-75802849D01*
X92564030Y-75780671D01*
X92555765Y-75757571D01*
X92549804Y-75733773D01*
X92546204Y-75709504D01*
X92545000Y-75685000D01*
X92545000Y-74760000D01*
X92546204Y-74735496D01*
X92549804Y-74711227D01*
X92555765Y-74687429D01*
X92564030Y-74664329D01*
X92574520Y-74642151D01*
X92587133Y-74621107D01*
X92601747Y-74601402D01*
X92618223Y-74583223D01*
X92636402Y-74566747D01*
X92656107Y-74552133D01*
X92677151Y-74539520D01*
X92699329Y-74529030D01*
X92722429Y-74520765D01*
X92746227Y-74514804D01*
X92770496Y-74511204D01*
X92795000Y-74510000D01*
X94045000Y-74510000D01*
X94069504Y-74511204D01*
X94069504Y-74511204D01*
G37*
D11*
X93420000Y-75222500D03*
D10*
G36*
X94069504Y-77486204D02*
X94093773Y-77489804D01*
X94117571Y-77495765D01*
X94140671Y-77504030D01*
X94162849Y-77514520D01*
X94183893Y-77527133D01*
X94203598Y-77541747D01*
X94221777Y-77558223D01*
X94238253Y-77576402D01*
X94252867Y-77596107D01*
X94265480Y-77617151D01*
X94275970Y-77639329D01*
X94284235Y-77662429D01*
X94290196Y-77686227D01*
X94293796Y-77710496D01*
X94295000Y-77735000D01*
X94295000Y-78660000D01*
X94293796Y-78684504D01*
X94290196Y-78708773D01*
X94284235Y-78732571D01*
X94275970Y-78755671D01*
X94265480Y-78777849D01*
X94252867Y-78798893D01*
X94238253Y-78818598D01*
X94221777Y-78836777D01*
X94203598Y-78853253D01*
X94183893Y-78867867D01*
X94162849Y-78880480D01*
X94140671Y-78890970D01*
X94117571Y-78899235D01*
X94093773Y-78905196D01*
X94069504Y-78908796D01*
X94045000Y-78910000D01*
X92795000Y-78910000D01*
X92770496Y-78908796D01*
X92746227Y-78905196D01*
X92722429Y-78899235D01*
X92699329Y-78890970D01*
X92677151Y-78880480D01*
X92656107Y-78867867D01*
X92636402Y-78853253D01*
X92618223Y-78836777D01*
X92601747Y-78818598D01*
X92587133Y-78798893D01*
X92574520Y-78777849D01*
X92564030Y-78755671D01*
X92555765Y-78732571D01*
X92549804Y-78708773D01*
X92546204Y-78684504D01*
X92545000Y-78660000D01*
X92545000Y-77735000D01*
X92546204Y-77710496D01*
X92549804Y-77686227D01*
X92555765Y-77662429D01*
X92564030Y-77639329D01*
X92574520Y-77617151D01*
X92587133Y-77596107D01*
X92601747Y-77576402D01*
X92618223Y-77558223D01*
X92636402Y-77541747D01*
X92656107Y-77527133D01*
X92677151Y-77514520D01*
X92699329Y-77504030D01*
X92722429Y-77495765D01*
X92746227Y-77489804D01*
X92770496Y-77486204D01*
X92795000Y-77485000D01*
X94045000Y-77485000D01*
X94069504Y-77486204D01*
X94069504Y-77486204D01*
G37*
D11*
X93420000Y-78197500D03*
G04 #@! TD*
D10*
G04 #@! TO.C,D18*
G36*
X132169504Y-74511204D02*
X132193773Y-74514804D01*
X132217571Y-74520765D01*
X132240671Y-74529030D01*
X132262849Y-74539520D01*
X132283893Y-74552133D01*
X132303598Y-74566747D01*
X132321777Y-74583223D01*
X132338253Y-74601402D01*
X132352867Y-74621107D01*
X132365480Y-74642151D01*
X132375970Y-74664329D01*
X132384235Y-74687429D01*
X132390196Y-74711227D01*
X132393796Y-74735496D01*
X132395000Y-74760000D01*
X132395000Y-75685000D01*
X132393796Y-75709504D01*
X132390196Y-75733773D01*
X132384235Y-75757571D01*
X132375970Y-75780671D01*
X132365480Y-75802849D01*
X132352867Y-75823893D01*
X132338253Y-75843598D01*
X132321777Y-75861777D01*
X132303598Y-75878253D01*
X132283893Y-75892867D01*
X132262849Y-75905480D01*
X132240671Y-75915970D01*
X132217571Y-75924235D01*
X132193773Y-75930196D01*
X132169504Y-75933796D01*
X132145000Y-75935000D01*
X130895000Y-75935000D01*
X130870496Y-75933796D01*
X130846227Y-75930196D01*
X130822429Y-75924235D01*
X130799329Y-75915970D01*
X130777151Y-75905480D01*
X130756107Y-75892867D01*
X130736402Y-75878253D01*
X130718223Y-75861777D01*
X130701747Y-75843598D01*
X130687133Y-75823893D01*
X130674520Y-75802849D01*
X130664030Y-75780671D01*
X130655765Y-75757571D01*
X130649804Y-75733773D01*
X130646204Y-75709504D01*
X130645000Y-75685000D01*
X130645000Y-74760000D01*
X130646204Y-74735496D01*
X130649804Y-74711227D01*
X130655765Y-74687429D01*
X130664030Y-74664329D01*
X130674520Y-74642151D01*
X130687133Y-74621107D01*
X130701747Y-74601402D01*
X130718223Y-74583223D01*
X130736402Y-74566747D01*
X130756107Y-74552133D01*
X130777151Y-74539520D01*
X130799329Y-74529030D01*
X130822429Y-74520765D01*
X130846227Y-74514804D01*
X130870496Y-74511204D01*
X130895000Y-74510000D01*
X132145000Y-74510000D01*
X132169504Y-74511204D01*
X132169504Y-74511204D01*
G37*
D11*
X131520000Y-75222500D03*
D10*
G36*
X132169504Y-77486204D02*
X132193773Y-77489804D01*
X132217571Y-77495765D01*
X132240671Y-77504030D01*
X132262849Y-77514520D01*
X132283893Y-77527133D01*
X132303598Y-77541747D01*
X132321777Y-77558223D01*
X132338253Y-77576402D01*
X132352867Y-77596107D01*
X132365480Y-77617151D01*
X132375970Y-77639329D01*
X132384235Y-77662429D01*
X132390196Y-77686227D01*
X132393796Y-77710496D01*
X132395000Y-77735000D01*
X132395000Y-78660000D01*
X132393796Y-78684504D01*
X132390196Y-78708773D01*
X132384235Y-78732571D01*
X132375970Y-78755671D01*
X132365480Y-78777849D01*
X132352867Y-78798893D01*
X132338253Y-78818598D01*
X132321777Y-78836777D01*
X132303598Y-78853253D01*
X132283893Y-78867867D01*
X132262849Y-78880480D01*
X132240671Y-78890970D01*
X132217571Y-78899235D01*
X132193773Y-78905196D01*
X132169504Y-78908796D01*
X132145000Y-78910000D01*
X130895000Y-78910000D01*
X130870496Y-78908796D01*
X130846227Y-78905196D01*
X130822429Y-78899235D01*
X130799329Y-78890970D01*
X130777151Y-78880480D01*
X130756107Y-78867867D01*
X130736402Y-78853253D01*
X130718223Y-78836777D01*
X130701747Y-78818598D01*
X130687133Y-78798893D01*
X130674520Y-78777849D01*
X130664030Y-78755671D01*
X130655765Y-78732571D01*
X130649804Y-78708773D01*
X130646204Y-78684504D01*
X130645000Y-78660000D01*
X130645000Y-77735000D01*
X130646204Y-77710496D01*
X130649804Y-77686227D01*
X130655765Y-77662429D01*
X130664030Y-77639329D01*
X130674520Y-77617151D01*
X130687133Y-77596107D01*
X130701747Y-77576402D01*
X130718223Y-77558223D01*
X130736402Y-77541747D01*
X130756107Y-77527133D01*
X130777151Y-77514520D01*
X130799329Y-77504030D01*
X130822429Y-77495765D01*
X130846227Y-77489804D01*
X130870496Y-77486204D01*
X130895000Y-77485000D01*
X132145000Y-77485000D01*
X132169504Y-77486204D01*
X132169504Y-77486204D01*
G37*
D11*
X131520000Y-78197500D03*
G04 #@! TD*
D10*
G04 #@! TO.C,D19*
G36*
X151219504Y-74511204D02*
X151243773Y-74514804D01*
X151267571Y-74520765D01*
X151290671Y-74529030D01*
X151312849Y-74539520D01*
X151333893Y-74552133D01*
X151353598Y-74566747D01*
X151371777Y-74583223D01*
X151388253Y-74601402D01*
X151402867Y-74621107D01*
X151415480Y-74642151D01*
X151425970Y-74664329D01*
X151434235Y-74687429D01*
X151440196Y-74711227D01*
X151443796Y-74735496D01*
X151445000Y-74760000D01*
X151445000Y-75685000D01*
X151443796Y-75709504D01*
X151440196Y-75733773D01*
X151434235Y-75757571D01*
X151425970Y-75780671D01*
X151415480Y-75802849D01*
X151402867Y-75823893D01*
X151388253Y-75843598D01*
X151371777Y-75861777D01*
X151353598Y-75878253D01*
X151333893Y-75892867D01*
X151312849Y-75905480D01*
X151290671Y-75915970D01*
X151267571Y-75924235D01*
X151243773Y-75930196D01*
X151219504Y-75933796D01*
X151195000Y-75935000D01*
X149945000Y-75935000D01*
X149920496Y-75933796D01*
X149896227Y-75930196D01*
X149872429Y-75924235D01*
X149849329Y-75915970D01*
X149827151Y-75905480D01*
X149806107Y-75892867D01*
X149786402Y-75878253D01*
X149768223Y-75861777D01*
X149751747Y-75843598D01*
X149737133Y-75823893D01*
X149724520Y-75802849D01*
X149714030Y-75780671D01*
X149705765Y-75757571D01*
X149699804Y-75733773D01*
X149696204Y-75709504D01*
X149695000Y-75685000D01*
X149695000Y-74760000D01*
X149696204Y-74735496D01*
X149699804Y-74711227D01*
X149705765Y-74687429D01*
X149714030Y-74664329D01*
X149724520Y-74642151D01*
X149737133Y-74621107D01*
X149751747Y-74601402D01*
X149768223Y-74583223D01*
X149786402Y-74566747D01*
X149806107Y-74552133D01*
X149827151Y-74539520D01*
X149849329Y-74529030D01*
X149872429Y-74520765D01*
X149896227Y-74514804D01*
X149920496Y-74511204D01*
X149945000Y-74510000D01*
X151195000Y-74510000D01*
X151219504Y-74511204D01*
X151219504Y-74511204D01*
G37*
D11*
X150570000Y-75222500D03*
D10*
G36*
X151219504Y-77486204D02*
X151243773Y-77489804D01*
X151267571Y-77495765D01*
X151290671Y-77504030D01*
X151312849Y-77514520D01*
X151333893Y-77527133D01*
X151353598Y-77541747D01*
X151371777Y-77558223D01*
X151388253Y-77576402D01*
X151402867Y-77596107D01*
X151415480Y-77617151D01*
X151425970Y-77639329D01*
X151434235Y-77662429D01*
X151440196Y-77686227D01*
X151443796Y-77710496D01*
X151445000Y-77735000D01*
X151445000Y-78660000D01*
X151443796Y-78684504D01*
X151440196Y-78708773D01*
X151434235Y-78732571D01*
X151425970Y-78755671D01*
X151415480Y-78777849D01*
X151402867Y-78798893D01*
X151388253Y-78818598D01*
X151371777Y-78836777D01*
X151353598Y-78853253D01*
X151333893Y-78867867D01*
X151312849Y-78880480D01*
X151290671Y-78890970D01*
X151267571Y-78899235D01*
X151243773Y-78905196D01*
X151219504Y-78908796D01*
X151195000Y-78910000D01*
X149945000Y-78910000D01*
X149920496Y-78908796D01*
X149896227Y-78905196D01*
X149872429Y-78899235D01*
X149849329Y-78890970D01*
X149827151Y-78880480D01*
X149806107Y-78867867D01*
X149786402Y-78853253D01*
X149768223Y-78836777D01*
X149751747Y-78818598D01*
X149737133Y-78798893D01*
X149724520Y-78777849D01*
X149714030Y-78755671D01*
X149705765Y-78732571D01*
X149699804Y-78708773D01*
X149696204Y-78684504D01*
X149695000Y-78660000D01*
X149695000Y-77735000D01*
X149696204Y-77710496D01*
X149699804Y-77686227D01*
X149705765Y-77662429D01*
X149714030Y-77639329D01*
X149724520Y-77617151D01*
X149737133Y-77596107D01*
X149751747Y-77576402D01*
X149768223Y-77558223D01*
X149786402Y-77541747D01*
X149806107Y-77527133D01*
X149827151Y-77514520D01*
X149849329Y-77504030D01*
X149872429Y-77495765D01*
X149896227Y-77489804D01*
X149920496Y-77486204D01*
X149945000Y-77485000D01*
X151195000Y-77485000D01*
X151219504Y-77486204D01*
X151219504Y-77486204D01*
G37*
D11*
X150570000Y-78197500D03*
G04 #@! TD*
D10*
G04 #@! TO.C,D4*
G36*
X117929504Y-36488704D02*
X117953773Y-36492304D01*
X117977571Y-36498265D01*
X118000671Y-36506530D01*
X118022849Y-36517020D01*
X118043893Y-36529633D01*
X118063598Y-36544247D01*
X118081777Y-36560723D01*
X118098253Y-36578902D01*
X118112867Y-36598607D01*
X118125480Y-36619651D01*
X118135970Y-36641829D01*
X118144235Y-36664929D01*
X118150196Y-36688727D01*
X118153796Y-36712996D01*
X118155000Y-36737500D01*
X118155000Y-37662500D01*
X118153796Y-37687004D01*
X118150196Y-37711273D01*
X118144235Y-37735071D01*
X118135970Y-37758171D01*
X118125480Y-37780349D01*
X118112867Y-37801393D01*
X118098253Y-37821098D01*
X118081777Y-37839277D01*
X118063598Y-37855753D01*
X118043893Y-37870367D01*
X118022849Y-37882980D01*
X118000671Y-37893470D01*
X117977571Y-37901735D01*
X117953773Y-37907696D01*
X117929504Y-37911296D01*
X117905000Y-37912500D01*
X116655000Y-37912500D01*
X116630496Y-37911296D01*
X116606227Y-37907696D01*
X116582429Y-37901735D01*
X116559329Y-37893470D01*
X116537151Y-37882980D01*
X116516107Y-37870367D01*
X116496402Y-37855753D01*
X116478223Y-37839277D01*
X116461747Y-37821098D01*
X116447133Y-37801393D01*
X116434520Y-37780349D01*
X116424030Y-37758171D01*
X116415765Y-37735071D01*
X116409804Y-37711273D01*
X116406204Y-37687004D01*
X116405000Y-37662500D01*
X116405000Y-36737500D01*
X116406204Y-36712996D01*
X116409804Y-36688727D01*
X116415765Y-36664929D01*
X116424030Y-36641829D01*
X116434520Y-36619651D01*
X116447133Y-36598607D01*
X116461747Y-36578902D01*
X116478223Y-36560723D01*
X116496402Y-36544247D01*
X116516107Y-36529633D01*
X116537151Y-36517020D01*
X116559329Y-36506530D01*
X116582429Y-36498265D01*
X116606227Y-36492304D01*
X116630496Y-36488704D01*
X116655000Y-36487500D01*
X117905000Y-36487500D01*
X117929504Y-36488704D01*
X117929504Y-36488704D01*
G37*
D11*
X117280000Y-37200000D03*
D10*
G36*
X117929504Y-39463704D02*
X117953773Y-39467304D01*
X117977571Y-39473265D01*
X118000671Y-39481530D01*
X118022849Y-39492020D01*
X118043893Y-39504633D01*
X118063598Y-39519247D01*
X118081777Y-39535723D01*
X118098253Y-39553902D01*
X118112867Y-39573607D01*
X118125480Y-39594651D01*
X118135970Y-39616829D01*
X118144235Y-39639929D01*
X118150196Y-39663727D01*
X118153796Y-39687996D01*
X118155000Y-39712500D01*
X118155000Y-40637500D01*
X118153796Y-40662004D01*
X118150196Y-40686273D01*
X118144235Y-40710071D01*
X118135970Y-40733171D01*
X118125480Y-40755349D01*
X118112867Y-40776393D01*
X118098253Y-40796098D01*
X118081777Y-40814277D01*
X118063598Y-40830753D01*
X118043893Y-40845367D01*
X118022849Y-40857980D01*
X118000671Y-40868470D01*
X117977571Y-40876735D01*
X117953773Y-40882696D01*
X117929504Y-40886296D01*
X117905000Y-40887500D01*
X116655000Y-40887500D01*
X116630496Y-40886296D01*
X116606227Y-40882696D01*
X116582429Y-40876735D01*
X116559329Y-40868470D01*
X116537151Y-40857980D01*
X116516107Y-40845367D01*
X116496402Y-40830753D01*
X116478223Y-40814277D01*
X116461747Y-40796098D01*
X116447133Y-40776393D01*
X116434520Y-40755349D01*
X116424030Y-40733171D01*
X116415765Y-40710071D01*
X116409804Y-40686273D01*
X116406204Y-40662004D01*
X116405000Y-40637500D01*
X116405000Y-39712500D01*
X116406204Y-39687996D01*
X116409804Y-39663727D01*
X116415765Y-39639929D01*
X116424030Y-39616829D01*
X116434520Y-39594651D01*
X116447133Y-39573607D01*
X116461747Y-39553902D01*
X116478223Y-39535723D01*
X116496402Y-39519247D01*
X116516107Y-39504633D01*
X116537151Y-39492020D01*
X116559329Y-39481530D01*
X116582429Y-39473265D01*
X116606227Y-39467304D01*
X116630496Y-39463704D01*
X116655000Y-39462500D01*
X117905000Y-39462500D01*
X117929504Y-39463704D01*
X117929504Y-39463704D01*
G37*
D11*
X117280000Y-40175000D03*
G04 #@! TD*
D10*
G04 #@! TO.C,D5*
G36*
X136979504Y-36488704D02*
X137003773Y-36492304D01*
X137027571Y-36498265D01*
X137050671Y-36506530D01*
X137072849Y-36517020D01*
X137093893Y-36529633D01*
X137113598Y-36544247D01*
X137131777Y-36560723D01*
X137148253Y-36578902D01*
X137162867Y-36598607D01*
X137175480Y-36619651D01*
X137185970Y-36641829D01*
X137194235Y-36664929D01*
X137200196Y-36688727D01*
X137203796Y-36712996D01*
X137205000Y-36737500D01*
X137205000Y-37662500D01*
X137203796Y-37687004D01*
X137200196Y-37711273D01*
X137194235Y-37735071D01*
X137185970Y-37758171D01*
X137175480Y-37780349D01*
X137162867Y-37801393D01*
X137148253Y-37821098D01*
X137131777Y-37839277D01*
X137113598Y-37855753D01*
X137093893Y-37870367D01*
X137072849Y-37882980D01*
X137050671Y-37893470D01*
X137027571Y-37901735D01*
X137003773Y-37907696D01*
X136979504Y-37911296D01*
X136955000Y-37912500D01*
X135705000Y-37912500D01*
X135680496Y-37911296D01*
X135656227Y-37907696D01*
X135632429Y-37901735D01*
X135609329Y-37893470D01*
X135587151Y-37882980D01*
X135566107Y-37870367D01*
X135546402Y-37855753D01*
X135528223Y-37839277D01*
X135511747Y-37821098D01*
X135497133Y-37801393D01*
X135484520Y-37780349D01*
X135474030Y-37758171D01*
X135465765Y-37735071D01*
X135459804Y-37711273D01*
X135456204Y-37687004D01*
X135455000Y-37662500D01*
X135455000Y-36737500D01*
X135456204Y-36712996D01*
X135459804Y-36688727D01*
X135465765Y-36664929D01*
X135474030Y-36641829D01*
X135484520Y-36619651D01*
X135497133Y-36598607D01*
X135511747Y-36578902D01*
X135528223Y-36560723D01*
X135546402Y-36544247D01*
X135566107Y-36529633D01*
X135587151Y-36517020D01*
X135609329Y-36506530D01*
X135632429Y-36498265D01*
X135656227Y-36492304D01*
X135680496Y-36488704D01*
X135705000Y-36487500D01*
X136955000Y-36487500D01*
X136979504Y-36488704D01*
X136979504Y-36488704D01*
G37*
D11*
X136330000Y-37200000D03*
D10*
G36*
X136979504Y-39463704D02*
X137003773Y-39467304D01*
X137027571Y-39473265D01*
X137050671Y-39481530D01*
X137072849Y-39492020D01*
X137093893Y-39504633D01*
X137113598Y-39519247D01*
X137131777Y-39535723D01*
X137148253Y-39553902D01*
X137162867Y-39573607D01*
X137175480Y-39594651D01*
X137185970Y-39616829D01*
X137194235Y-39639929D01*
X137200196Y-39663727D01*
X137203796Y-39687996D01*
X137205000Y-39712500D01*
X137205000Y-40637500D01*
X137203796Y-40662004D01*
X137200196Y-40686273D01*
X137194235Y-40710071D01*
X137185970Y-40733171D01*
X137175480Y-40755349D01*
X137162867Y-40776393D01*
X137148253Y-40796098D01*
X137131777Y-40814277D01*
X137113598Y-40830753D01*
X137093893Y-40845367D01*
X137072849Y-40857980D01*
X137050671Y-40868470D01*
X137027571Y-40876735D01*
X137003773Y-40882696D01*
X136979504Y-40886296D01*
X136955000Y-40887500D01*
X135705000Y-40887500D01*
X135680496Y-40886296D01*
X135656227Y-40882696D01*
X135632429Y-40876735D01*
X135609329Y-40868470D01*
X135587151Y-40857980D01*
X135566107Y-40845367D01*
X135546402Y-40830753D01*
X135528223Y-40814277D01*
X135511747Y-40796098D01*
X135497133Y-40776393D01*
X135484520Y-40755349D01*
X135474030Y-40733171D01*
X135465765Y-40710071D01*
X135459804Y-40686273D01*
X135456204Y-40662004D01*
X135455000Y-40637500D01*
X135455000Y-39712500D01*
X135456204Y-39687996D01*
X135459804Y-39663727D01*
X135465765Y-39639929D01*
X135474030Y-39616829D01*
X135484520Y-39594651D01*
X135497133Y-39573607D01*
X135511747Y-39553902D01*
X135528223Y-39535723D01*
X135546402Y-39519247D01*
X135566107Y-39504633D01*
X135587151Y-39492020D01*
X135609329Y-39481530D01*
X135632429Y-39473265D01*
X135656227Y-39467304D01*
X135680496Y-39463704D01*
X135705000Y-39462500D01*
X136955000Y-39462500D01*
X136979504Y-39463704D01*
X136979504Y-39463704D01*
G37*
D11*
X136330000Y-40175000D03*
G04 #@! TD*
D10*
G04 #@! TO.C,D7*
G36*
X46461570Y-55501718D02*
X46485839Y-55505318D01*
X46509637Y-55511279D01*
X46532737Y-55519544D01*
X46554915Y-55530034D01*
X46575959Y-55542647D01*
X46595664Y-55557261D01*
X46613843Y-55573737D01*
X46630319Y-55591916D01*
X46644933Y-55611621D01*
X46657546Y-55632665D01*
X46668036Y-55654843D01*
X46676301Y-55677943D01*
X46682262Y-55701741D01*
X46685862Y-55726010D01*
X46687066Y-55750514D01*
X46687066Y-56675514D01*
X46685862Y-56700018D01*
X46682262Y-56724287D01*
X46676301Y-56748085D01*
X46668036Y-56771185D01*
X46657546Y-56793363D01*
X46644933Y-56814407D01*
X46630319Y-56834112D01*
X46613843Y-56852291D01*
X46595664Y-56868767D01*
X46575959Y-56883381D01*
X46554915Y-56895994D01*
X46532737Y-56906484D01*
X46509637Y-56914749D01*
X46485839Y-56920710D01*
X46461570Y-56924310D01*
X46437066Y-56925514D01*
X45187066Y-56925514D01*
X45162562Y-56924310D01*
X45138293Y-56920710D01*
X45114495Y-56914749D01*
X45091395Y-56906484D01*
X45069217Y-56895994D01*
X45048173Y-56883381D01*
X45028468Y-56868767D01*
X45010289Y-56852291D01*
X44993813Y-56834112D01*
X44979199Y-56814407D01*
X44966586Y-56793363D01*
X44956096Y-56771185D01*
X44947831Y-56748085D01*
X44941870Y-56724287D01*
X44938270Y-56700018D01*
X44937066Y-56675514D01*
X44937066Y-55750514D01*
X44938270Y-55726010D01*
X44941870Y-55701741D01*
X44947831Y-55677943D01*
X44956096Y-55654843D01*
X44966586Y-55632665D01*
X44979199Y-55611621D01*
X44993813Y-55591916D01*
X45010289Y-55573737D01*
X45028468Y-55557261D01*
X45048173Y-55542647D01*
X45069217Y-55530034D01*
X45091395Y-55519544D01*
X45114495Y-55511279D01*
X45138293Y-55505318D01*
X45162562Y-55501718D01*
X45187066Y-55500514D01*
X46437066Y-55500514D01*
X46461570Y-55501718D01*
X46461570Y-55501718D01*
G37*
D11*
X45812066Y-56213014D03*
D10*
G36*
X46461570Y-58476718D02*
X46485839Y-58480318D01*
X46509637Y-58486279D01*
X46532737Y-58494544D01*
X46554915Y-58505034D01*
X46575959Y-58517647D01*
X46595664Y-58532261D01*
X46613843Y-58548737D01*
X46630319Y-58566916D01*
X46644933Y-58586621D01*
X46657546Y-58607665D01*
X46668036Y-58629843D01*
X46676301Y-58652943D01*
X46682262Y-58676741D01*
X46685862Y-58701010D01*
X46687066Y-58725514D01*
X46687066Y-59650514D01*
X46685862Y-59675018D01*
X46682262Y-59699287D01*
X46676301Y-59723085D01*
X46668036Y-59746185D01*
X46657546Y-59768363D01*
X46644933Y-59789407D01*
X46630319Y-59809112D01*
X46613843Y-59827291D01*
X46595664Y-59843767D01*
X46575959Y-59858381D01*
X46554915Y-59870994D01*
X46532737Y-59881484D01*
X46509637Y-59889749D01*
X46485839Y-59895710D01*
X46461570Y-59899310D01*
X46437066Y-59900514D01*
X45187066Y-59900514D01*
X45162562Y-59899310D01*
X45138293Y-59895710D01*
X45114495Y-59889749D01*
X45091395Y-59881484D01*
X45069217Y-59870994D01*
X45048173Y-59858381D01*
X45028468Y-59843767D01*
X45010289Y-59827291D01*
X44993813Y-59809112D01*
X44979199Y-59789407D01*
X44966586Y-59768363D01*
X44956096Y-59746185D01*
X44947831Y-59723085D01*
X44941870Y-59699287D01*
X44938270Y-59675018D01*
X44937066Y-59650514D01*
X44937066Y-58725514D01*
X44938270Y-58701010D01*
X44941870Y-58676741D01*
X44947831Y-58652943D01*
X44956096Y-58629843D01*
X44966586Y-58607665D01*
X44979199Y-58586621D01*
X44993813Y-58566916D01*
X45010289Y-58548737D01*
X45028468Y-58532261D01*
X45048173Y-58517647D01*
X45069217Y-58505034D01*
X45091395Y-58494544D01*
X45114495Y-58486279D01*
X45138293Y-58480318D01*
X45162562Y-58476718D01*
X45187066Y-58475514D01*
X46437066Y-58475514D01*
X46461570Y-58476718D01*
X46461570Y-58476718D01*
G37*
D11*
X45812066Y-59188014D03*
G04 #@! TD*
D10*
G04 #@! TO.C,D6*
G36*
X144299504Y-36451204D02*
X144323773Y-36454804D01*
X144347571Y-36460765D01*
X144370671Y-36469030D01*
X144392849Y-36479520D01*
X144413893Y-36492133D01*
X144433598Y-36506747D01*
X144451777Y-36523223D01*
X144468253Y-36541402D01*
X144482867Y-36561107D01*
X144495480Y-36582151D01*
X144505970Y-36604329D01*
X144514235Y-36627429D01*
X144520196Y-36651227D01*
X144523796Y-36675496D01*
X144525000Y-36700000D01*
X144525000Y-37625000D01*
X144523796Y-37649504D01*
X144520196Y-37673773D01*
X144514235Y-37697571D01*
X144505970Y-37720671D01*
X144495480Y-37742849D01*
X144482867Y-37763893D01*
X144468253Y-37783598D01*
X144451777Y-37801777D01*
X144433598Y-37818253D01*
X144413893Y-37832867D01*
X144392849Y-37845480D01*
X144370671Y-37855970D01*
X144347571Y-37864235D01*
X144323773Y-37870196D01*
X144299504Y-37873796D01*
X144275000Y-37875000D01*
X143025000Y-37875000D01*
X143000496Y-37873796D01*
X142976227Y-37870196D01*
X142952429Y-37864235D01*
X142929329Y-37855970D01*
X142907151Y-37845480D01*
X142886107Y-37832867D01*
X142866402Y-37818253D01*
X142848223Y-37801777D01*
X142831747Y-37783598D01*
X142817133Y-37763893D01*
X142804520Y-37742849D01*
X142794030Y-37720671D01*
X142785765Y-37697571D01*
X142779804Y-37673773D01*
X142776204Y-37649504D01*
X142775000Y-37625000D01*
X142775000Y-36700000D01*
X142776204Y-36675496D01*
X142779804Y-36651227D01*
X142785765Y-36627429D01*
X142794030Y-36604329D01*
X142804520Y-36582151D01*
X142817133Y-36561107D01*
X142831747Y-36541402D01*
X142848223Y-36523223D01*
X142866402Y-36506747D01*
X142886107Y-36492133D01*
X142907151Y-36479520D01*
X142929329Y-36469030D01*
X142952429Y-36460765D01*
X142976227Y-36454804D01*
X143000496Y-36451204D01*
X143025000Y-36450000D01*
X144275000Y-36450000D01*
X144299504Y-36451204D01*
X144299504Y-36451204D01*
G37*
D11*
X143650000Y-37162500D03*
D10*
G36*
X144299504Y-39426204D02*
X144323773Y-39429804D01*
X144347571Y-39435765D01*
X144370671Y-39444030D01*
X144392849Y-39454520D01*
X144413893Y-39467133D01*
X144433598Y-39481747D01*
X144451777Y-39498223D01*
X144468253Y-39516402D01*
X144482867Y-39536107D01*
X144495480Y-39557151D01*
X144505970Y-39579329D01*
X144514235Y-39602429D01*
X144520196Y-39626227D01*
X144523796Y-39650496D01*
X144525000Y-39675000D01*
X144525000Y-40600000D01*
X144523796Y-40624504D01*
X144520196Y-40648773D01*
X144514235Y-40672571D01*
X144505970Y-40695671D01*
X144495480Y-40717849D01*
X144482867Y-40738893D01*
X144468253Y-40758598D01*
X144451777Y-40776777D01*
X144433598Y-40793253D01*
X144413893Y-40807867D01*
X144392849Y-40820480D01*
X144370671Y-40830970D01*
X144347571Y-40839235D01*
X144323773Y-40845196D01*
X144299504Y-40848796D01*
X144275000Y-40850000D01*
X143025000Y-40850000D01*
X143000496Y-40848796D01*
X142976227Y-40845196D01*
X142952429Y-40839235D01*
X142929329Y-40830970D01*
X142907151Y-40820480D01*
X142886107Y-40807867D01*
X142866402Y-40793253D01*
X142848223Y-40776777D01*
X142831747Y-40758598D01*
X142817133Y-40738893D01*
X142804520Y-40717849D01*
X142794030Y-40695671D01*
X142785765Y-40672571D01*
X142779804Y-40648773D01*
X142776204Y-40624504D01*
X142775000Y-40600000D01*
X142775000Y-39675000D01*
X142776204Y-39650496D01*
X142779804Y-39626227D01*
X142785765Y-39602429D01*
X142794030Y-39579329D01*
X142804520Y-39557151D01*
X142817133Y-39536107D01*
X142831747Y-39516402D01*
X142848223Y-39498223D01*
X142866402Y-39481747D01*
X142886107Y-39467133D01*
X142907151Y-39454520D01*
X142929329Y-39444030D01*
X142952429Y-39435765D01*
X142976227Y-39429804D01*
X143000496Y-39426204D01*
X143025000Y-39425000D01*
X144275000Y-39425000D01*
X144299504Y-39426204D01*
X144299504Y-39426204D01*
G37*
D11*
X143650000Y-40137500D03*
G04 #@! TD*
D10*
G04 #@! TO.C,D21*
G36*
X65509504Y-93561204D02*
X65533773Y-93564804D01*
X65557571Y-93570765D01*
X65580671Y-93579030D01*
X65602849Y-93589520D01*
X65623893Y-93602133D01*
X65643598Y-93616747D01*
X65661777Y-93633223D01*
X65678253Y-93651402D01*
X65692867Y-93671107D01*
X65705480Y-93692151D01*
X65715970Y-93714329D01*
X65724235Y-93737429D01*
X65730196Y-93761227D01*
X65733796Y-93785496D01*
X65735000Y-93810000D01*
X65735000Y-94735000D01*
X65733796Y-94759504D01*
X65730196Y-94783773D01*
X65724235Y-94807571D01*
X65715970Y-94830671D01*
X65705480Y-94852849D01*
X65692867Y-94873893D01*
X65678253Y-94893598D01*
X65661777Y-94911777D01*
X65643598Y-94928253D01*
X65623893Y-94942867D01*
X65602849Y-94955480D01*
X65580671Y-94965970D01*
X65557571Y-94974235D01*
X65533773Y-94980196D01*
X65509504Y-94983796D01*
X65485000Y-94985000D01*
X64235000Y-94985000D01*
X64210496Y-94983796D01*
X64186227Y-94980196D01*
X64162429Y-94974235D01*
X64139329Y-94965970D01*
X64117151Y-94955480D01*
X64096107Y-94942867D01*
X64076402Y-94928253D01*
X64058223Y-94911777D01*
X64041747Y-94893598D01*
X64027133Y-94873893D01*
X64014520Y-94852849D01*
X64004030Y-94830671D01*
X63995765Y-94807571D01*
X63989804Y-94783773D01*
X63986204Y-94759504D01*
X63985000Y-94735000D01*
X63985000Y-93810000D01*
X63986204Y-93785496D01*
X63989804Y-93761227D01*
X63995765Y-93737429D01*
X64004030Y-93714329D01*
X64014520Y-93692151D01*
X64027133Y-93671107D01*
X64041747Y-93651402D01*
X64058223Y-93633223D01*
X64076402Y-93616747D01*
X64096107Y-93602133D01*
X64117151Y-93589520D01*
X64139329Y-93579030D01*
X64162429Y-93570765D01*
X64186227Y-93564804D01*
X64210496Y-93561204D01*
X64235000Y-93560000D01*
X65485000Y-93560000D01*
X65509504Y-93561204D01*
X65509504Y-93561204D01*
G37*
D11*
X64860000Y-94272500D03*
D10*
G36*
X65509504Y-96536204D02*
X65533773Y-96539804D01*
X65557571Y-96545765D01*
X65580671Y-96554030D01*
X65602849Y-96564520D01*
X65623893Y-96577133D01*
X65643598Y-96591747D01*
X65661777Y-96608223D01*
X65678253Y-96626402D01*
X65692867Y-96646107D01*
X65705480Y-96667151D01*
X65715970Y-96689329D01*
X65724235Y-96712429D01*
X65730196Y-96736227D01*
X65733796Y-96760496D01*
X65735000Y-96785000D01*
X65735000Y-97710000D01*
X65733796Y-97734504D01*
X65730196Y-97758773D01*
X65724235Y-97782571D01*
X65715970Y-97805671D01*
X65705480Y-97827849D01*
X65692867Y-97848893D01*
X65678253Y-97868598D01*
X65661777Y-97886777D01*
X65643598Y-97903253D01*
X65623893Y-97917867D01*
X65602849Y-97930480D01*
X65580671Y-97940970D01*
X65557571Y-97949235D01*
X65533773Y-97955196D01*
X65509504Y-97958796D01*
X65485000Y-97960000D01*
X64235000Y-97960000D01*
X64210496Y-97958796D01*
X64186227Y-97955196D01*
X64162429Y-97949235D01*
X64139329Y-97940970D01*
X64117151Y-97930480D01*
X64096107Y-97917867D01*
X64076402Y-97903253D01*
X64058223Y-97886777D01*
X64041747Y-97868598D01*
X64027133Y-97848893D01*
X64014520Y-97827849D01*
X64004030Y-97805671D01*
X63995765Y-97782571D01*
X63989804Y-97758773D01*
X63986204Y-97734504D01*
X63985000Y-97710000D01*
X63985000Y-96785000D01*
X63986204Y-96760496D01*
X63989804Y-96736227D01*
X63995765Y-96712429D01*
X64004030Y-96689329D01*
X64014520Y-96667151D01*
X64027133Y-96646107D01*
X64041747Y-96626402D01*
X64058223Y-96608223D01*
X64076402Y-96591747D01*
X64096107Y-96577133D01*
X64117151Y-96564520D01*
X64139329Y-96554030D01*
X64162429Y-96545765D01*
X64186227Y-96539804D01*
X64210496Y-96536204D01*
X64235000Y-96535000D01*
X65485000Y-96535000D01*
X65509504Y-96536204D01*
X65509504Y-96536204D01*
G37*
D11*
X64860000Y-97247500D03*
G04 #@! TD*
D10*
G04 #@! TO.C,D22*
G36*
X84559504Y-93561204D02*
X84583773Y-93564804D01*
X84607571Y-93570765D01*
X84630671Y-93579030D01*
X84652849Y-93589520D01*
X84673893Y-93602133D01*
X84693598Y-93616747D01*
X84711777Y-93633223D01*
X84728253Y-93651402D01*
X84742867Y-93671107D01*
X84755480Y-93692151D01*
X84765970Y-93714329D01*
X84774235Y-93737429D01*
X84780196Y-93761227D01*
X84783796Y-93785496D01*
X84785000Y-93810000D01*
X84785000Y-94735000D01*
X84783796Y-94759504D01*
X84780196Y-94783773D01*
X84774235Y-94807571D01*
X84765970Y-94830671D01*
X84755480Y-94852849D01*
X84742867Y-94873893D01*
X84728253Y-94893598D01*
X84711777Y-94911777D01*
X84693598Y-94928253D01*
X84673893Y-94942867D01*
X84652849Y-94955480D01*
X84630671Y-94965970D01*
X84607571Y-94974235D01*
X84583773Y-94980196D01*
X84559504Y-94983796D01*
X84535000Y-94985000D01*
X83285000Y-94985000D01*
X83260496Y-94983796D01*
X83236227Y-94980196D01*
X83212429Y-94974235D01*
X83189329Y-94965970D01*
X83167151Y-94955480D01*
X83146107Y-94942867D01*
X83126402Y-94928253D01*
X83108223Y-94911777D01*
X83091747Y-94893598D01*
X83077133Y-94873893D01*
X83064520Y-94852849D01*
X83054030Y-94830671D01*
X83045765Y-94807571D01*
X83039804Y-94783773D01*
X83036204Y-94759504D01*
X83035000Y-94735000D01*
X83035000Y-93810000D01*
X83036204Y-93785496D01*
X83039804Y-93761227D01*
X83045765Y-93737429D01*
X83054030Y-93714329D01*
X83064520Y-93692151D01*
X83077133Y-93671107D01*
X83091747Y-93651402D01*
X83108223Y-93633223D01*
X83126402Y-93616747D01*
X83146107Y-93602133D01*
X83167151Y-93589520D01*
X83189329Y-93579030D01*
X83212429Y-93570765D01*
X83236227Y-93564804D01*
X83260496Y-93561204D01*
X83285000Y-93560000D01*
X84535000Y-93560000D01*
X84559504Y-93561204D01*
X84559504Y-93561204D01*
G37*
D11*
X83910000Y-94272500D03*
D10*
G36*
X84559504Y-96536204D02*
X84583773Y-96539804D01*
X84607571Y-96545765D01*
X84630671Y-96554030D01*
X84652849Y-96564520D01*
X84673893Y-96577133D01*
X84693598Y-96591747D01*
X84711777Y-96608223D01*
X84728253Y-96626402D01*
X84742867Y-96646107D01*
X84755480Y-96667151D01*
X84765970Y-96689329D01*
X84774235Y-96712429D01*
X84780196Y-96736227D01*
X84783796Y-96760496D01*
X84785000Y-96785000D01*
X84785000Y-97710000D01*
X84783796Y-97734504D01*
X84780196Y-97758773D01*
X84774235Y-97782571D01*
X84765970Y-97805671D01*
X84755480Y-97827849D01*
X84742867Y-97848893D01*
X84728253Y-97868598D01*
X84711777Y-97886777D01*
X84693598Y-97903253D01*
X84673893Y-97917867D01*
X84652849Y-97930480D01*
X84630671Y-97940970D01*
X84607571Y-97949235D01*
X84583773Y-97955196D01*
X84559504Y-97958796D01*
X84535000Y-97960000D01*
X83285000Y-97960000D01*
X83260496Y-97958796D01*
X83236227Y-97955196D01*
X83212429Y-97949235D01*
X83189329Y-97940970D01*
X83167151Y-97930480D01*
X83146107Y-97917867D01*
X83126402Y-97903253D01*
X83108223Y-97886777D01*
X83091747Y-97868598D01*
X83077133Y-97848893D01*
X83064520Y-97827849D01*
X83054030Y-97805671D01*
X83045765Y-97782571D01*
X83039804Y-97758773D01*
X83036204Y-97734504D01*
X83035000Y-97710000D01*
X83035000Y-96785000D01*
X83036204Y-96760496D01*
X83039804Y-96736227D01*
X83045765Y-96712429D01*
X83054030Y-96689329D01*
X83064520Y-96667151D01*
X83077133Y-96646107D01*
X83091747Y-96626402D01*
X83108223Y-96608223D01*
X83126402Y-96591747D01*
X83146107Y-96577133D01*
X83167151Y-96564520D01*
X83189329Y-96554030D01*
X83212429Y-96545765D01*
X83236227Y-96539804D01*
X83260496Y-96536204D01*
X83285000Y-96535000D01*
X84535000Y-96535000D01*
X84559504Y-96536204D01*
X84559504Y-96536204D01*
G37*
D11*
X83910000Y-97247500D03*
G04 #@! TD*
D10*
G04 #@! TO.C,D23*
G36*
X103609504Y-93561204D02*
X103633773Y-93564804D01*
X103657571Y-93570765D01*
X103680671Y-93579030D01*
X103702849Y-93589520D01*
X103723893Y-93602133D01*
X103743598Y-93616747D01*
X103761777Y-93633223D01*
X103778253Y-93651402D01*
X103792867Y-93671107D01*
X103805480Y-93692151D01*
X103815970Y-93714329D01*
X103824235Y-93737429D01*
X103830196Y-93761227D01*
X103833796Y-93785496D01*
X103835000Y-93810000D01*
X103835000Y-94735000D01*
X103833796Y-94759504D01*
X103830196Y-94783773D01*
X103824235Y-94807571D01*
X103815970Y-94830671D01*
X103805480Y-94852849D01*
X103792867Y-94873893D01*
X103778253Y-94893598D01*
X103761777Y-94911777D01*
X103743598Y-94928253D01*
X103723893Y-94942867D01*
X103702849Y-94955480D01*
X103680671Y-94965970D01*
X103657571Y-94974235D01*
X103633773Y-94980196D01*
X103609504Y-94983796D01*
X103585000Y-94985000D01*
X102335000Y-94985000D01*
X102310496Y-94983796D01*
X102286227Y-94980196D01*
X102262429Y-94974235D01*
X102239329Y-94965970D01*
X102217151Y-94955480D01*
X102196107Y-94942867D01*
X102176402Y-94928253D01*
X102158223Y-94911777D01*
X102141747Y-94893598D01*
X102127133Y-94873893D01*
X102114520Y-94852849D01*
X102104030Y-94830671D01*
X102095765Y-94807571D01*
X102089804Y-94783773D01*
X102086204Y-94759504D01*
X102085000Y-94735000D01*
X102085000Y-93810000D01*
X102086204Y-93785496D01*
X102089804Y-93761227D01*
X102095765Y-93737429D01*
X102104030Y-93714329D01*
X102114520Y-93692151D01*
X102127133Y-93671107D01*
X102141747Y-93651402D01*
X102158223Y-93633223D01*
X102176402Y-93616747D01*
X102196107Y-93602133D01*
X102217151Y-93589520D01*
X102239329Y-93579030D01*
X102262429Y-93570765D01*
X102286227Y-93564804D01*
X102310496Y-93561204D01*
X102335000Y-93560000D01*
X103585000Y-93560000D01*
X103609504Y-93561204D01*
X103609504Y-93561204D01*
G37*
D11*
X102960000Y-94272500D03*
D10*
G36*
X103609504Y-96536204D02*
X103633773Y-96539804D01*
X103657571Y-96545765D01*
X103680671Y-96554030D01*
X103702849Y-96564520D01*
X103723893Y-96577133D01*
X103743598Y-96591747D01*
X103761777Y-96608223D01*
X103778253Y-96626402D01*
X103792867Y-96646107D01*
X103805480Y-96667151D01*
X103815970Y-96689329D01*
X103824235Y-96712429D01*
X103830196Y-96736227D01*
X103833796Y-96760496D01*
X103835000Y-96785000D01*
X103835000Y-97710000D01*
X103833796Y-97734504D01*
X103830196Y-97758773D01*
X103824235Y-97782571D01*
X103815970Y-97805671D01*
X103805480Y-97827849D01*
X103792867Y-97848893D01*
X103778253Y-97868598D01*
X103761777Y-97886777D01*
X103743598Y-97903253D01*
X103723893Y-97917867D01*
X103702849Y-97930480D01*
X103680671Y-97940970D01*
X103657571Y-97949235D01*
X103633773Y-97955196D01*
X103609504Y-97958796D01*
X103585000Y-97960000D01*
X102335000Y-97960000D01*
X102310496Y-97958796D01*
X102286227Y-97955196D01*
X102262429Y-97949235D01*
X102239329Y-97940970D01*
X102217151Y-97930480D01*
X102196107Y-97917867D01*
X102176402Y-97903253D01*
X102158223Y-97886777D01*
X102141747Y-97868598D01*
X102127133Y-97848893D01*
X102114520Y-97827849D01*
X102104030Y-97805671D01*
X102095765Y-97782571D01*
X102089804Y-97758773D01*
X102086204Y-97734504D01*
X102085000Y-97710000D01*
X102085000Y-96785000D01*
X102086204Y-96760496D01*
X102089804Y-96736227D01*
X102095765Y-96712429D01*
X102104030Y-96689329D01*
X102114520Y-96667151D01*
X102127133Y-96646107D01*
X102141747Y-96626402D01*
X102158223Y-96608223D01*
X102176402Y-96591747D01*
X102196107Y-96577133D01*
X102217151Y-96564520D01*
X102239329Y-96554030D01*
X102262429Y-96545765D01*
X102286227Y-96539804D01*
X102310496Y-96536204D01*
X102335000Y-96535000D01*
X103585000Y-96535000D01*
X103609504Y-96536204D01*
X103609504Y-96536204D01*
G37*
D11*
X102960000Y-97247500D03*
G04 #@! TD*
D10*
G04 #@! TO.C,D24*
G36*
X122659504Y-93561204D02*
X122683773Y-93564804D01*
X122707571Y-93570765D01*
X122730671Y-93579030D01*
X122752849Y-93589520D01*
X122773893Y-93602133D01*
X122793598Y-93616747D01*
X122811777Y-93633223D01*
X122828253Y-93651402D01*
X122842867Y-93671107D01*
X122855480Y-93692151D01*
X122865970Y-93714329D01*
X122874235Y-93737429D01*
X122880196Y-93761227D01*
X122883796Y-93785496D01*
X122885000Y-93810000D01*
X122885000Y-94735000D01*
X122883796Y-94759504D01*
X122880196Y-94783773D01*
X122874235Y-94807571D01*
X122865970Y-94830671D01*
X122855480Y-94852849D01*
X122842867Y-94873893D01*
X122828253Y-94893598D01*
X122811777Y-94911777D01*
X122793598Y-94928253D01*
X122773893Y-94942867D01*
X122752849Y-94955480D01*
X122730671Y-94965970D01*
X122707571Y-94974235D01*
X122683773Y-94980196D01*
X122659504Y-94983796D01*
X122635000Y-94985000D01*
X121385000Y-94985000D01*
X121360496Y-94983796D01*
X121336227Y-94980196D01*
X121312429Y-94974235D01*
X121289329Y-94965970D01*
X121267151Y-94955480D01*
X121246107Y-94942867D01*
X121226402Y-94928253D01*
X121208223Y-94911777D01*
X121191747Y-94893598D01*
X121177133Y-94873893D01*
X121164520Y-94852849D01*
X121154030Y-94830671D01*
X121145765Y-94807571D01*
X121139804Y-94783773D01*
X121136204Y-94759504D01*
X121135000Y-94735000D01*
X121135000Y-93810000D01*
X121136204Y-93785496D01*
X121139804Y-93761227D01*
X121145765Y-93737429D01*
X121154030Y-93714329D01*
X121164520Y-93692151D01*
X121177133Y-93671107D01*
X121191747Y-93651402D01*
X121208223Y-93633223D01*
X121226402Y-93616747D01*
X121246107Y-93602133D01*
X121267151Y-93589520D01*
X121289329Y-93579030D01*
X121312429Y-93570765D01*
X121336227Y-93564804D01*
X121360496Y-93561204D01*
X121385000Y-93560000D01*
X122635000Y-93560000D01*
X122659504Y-93561204D01*
X122659504Y-93561204D01*
G37*
D11*
X122010000Y-94272500D03*
D10*
G36*
X122659504Y-96536204D02*
X122683773Y-96539804D01*
X122707571Y-96545765D01*
X122730671Y-96554030D01*
X122752849Y-96564520D01*
X122773893Y-96577133D01*
X122793598Y-96591747D01*
X122811777Y-96608223D01*
X122828253Y-96626402D01*
X122842867Y-96646107D01*
X122855480Y-96667151D01*
X122865970Y-96689329D01*
X122874235Y-96712429D01*
X122880196Y-96736227D01*
X122883796Y-96760496D01*
X122885000Y-96785000D01*
X122885000Y-97710000D01*
X122883796Y-97734504D01*
X122880196Y-97758773D01*
X122874235Y-97782571D01*
X122865970Y-97805671D01*
X122855480Y-97827849D01*
X122842867Y-97848893D01*
X122828253Y-97868598D01*
X122811777Y-97886777D01*
X122793598Y-97903253D01*
X122773893Y-97917867D01*
X122752849Y-97930480D01*
X122730671Y-97940970D01*
X122707571Y-97949235D01*
X122683773Y-97955196D01*
X122659504Y-97958796D01*
X122635000Y-97960000D01*
X121385000Y-97960000D01*
X121360496Y-97958796D01*
X121336227Y-97955196D01*
X121312429Y-97949235D01*
X121289329Y-97940970D01*
X121267151Y-97930480D01*
X121246107Y-97917867D01*
X121226402Y-97903253D01*
X121208223Y-97886777D01*
X121191747Y-97868598D01*
X121177133Y-97848893D01*
X121164520Y-97827849D01*
X121154030Y-97805671D01*
X121145765Y-97782571D01*
X121139804Y-97758773D01*
X121136204Y-97734504D01*
X121135000Y-97710000D01*
X121135000Y-96785000D01*
X121136204Y-96760496D01*
X121139804Y-96736227D01*
X121145765Y-96712429D01*
X121154030Y-96689329D01*
X121164520Y-96667151D01*
X121177133Y-96646107D01*
X121191747Y-96626402D01*
X121208223Y-96608223D01*
X121226402Y-96591747D01*
X121246107Y-96577133D01*
X121267151Y-96564520D01*
X121289329Y-96554030D01*
X121312429Y-96545765D01*
X121336227Y-96539804D01*
X121360496Y-96536204D01*
X121385000Y-96535000D01*
X122635000Y-96535000D01*
X122659504Y-96536204D01*
X122659504Y-96536204D01*
G37*
D11*
X122010000Y-97247500D03*
G04 #@! TD*
D10*
G04 #@! TO.C,D25*
G36*
X141709504Y-93561204D02*
X141733773Y-93564804D01*
X141757571Y-93570765D01*
X141780671Y-93579030D01*
X141802849Y-93589520D01*
X141823893Y-93602133D01*
X141843598Y-93616747D01*
X141861777Y-93633223D01*
X141878253Y-93651402D01*
X141892867Y-93671107D01*
X141905480Y-93692151D01*
X141915970Y-93714329D01*
X141924235Y-93737429D01*
X141930196Y-93761227D01*
X141933796Y-93785496D01*
X141935000Y-93810000D01*
X141935000Y-94735000D01*
X141933796Y-94759504D01*
X141930196Y-94783773D01*
X141924235Y-94807571D01*
X141915970Y-94830671D01*
X141905480Y-94852849D01*
X141892867Y-94873893D01*
X141878253Y-94893598D01*
X141861777Y-94911777D01*
X141843598Y-94928253D01*
X141823893Y-94942867D01*
X141802849Y-94955480D01*
X141780671Y-94965970D01*
X141757571Y-94974235D01*
X141733773Y-94980196D01*
X141709504Y-94983796D01*
X141685000Y-94985000D01*
X140435000Y-94985000D01*
X140410496Y-94983796D01*
X140386227Y-94980196D01*
X140362429Y-94974235D01*
X140339329Y-94965970D01*
X140317151Y-94955480D01*
X140296107Y-94942867D01*
X140276402Y-94928253D01*
X140258223Y-94911777D01*
X140241747Y-94893598D01*
X140227133Y-94873893D01*
X140214520Y-94852849D01*
X140204030Y-94830671D01*
X140195765Y-94807571D01*
X140189804Y-94783773D01*
X140186204Y-94759504D01*
X140185000Y-94735000D01*
X140185000Y-93810000D01*
X140186204Y-93785496D01*
X140189804Y-93761227D01*
X140195765Y-93737429D01*
X140204030Y-93714329D01*
X140214520Y-93692151D01*
X140227133Y-93671107D01*
X140241747Y-93651402D01*
X140258223Y-93633223D01*
X140276402Y-93616747D01*
X140296107Y-93602133D01*
X140317151Y-93589520D01*
X140339329Y-93579030D01*
X140362429Y-93570765D01*
X140386227Y-93564804D01*
X140410496Y-93561204D01*
X140435000Y-93560000D01*
X141685000Y-93560000D01*
X141709504Y-93561204D01*
X141709504Y-93561204D01*
G37*
D11*
X141060000Y-94272500D03*
D10*
G36*
X141709504Y-96536204D02*
X141733773Y-96539804D01*
X141757571Y-96545765D01*
X141780671Y-96554030D01*
X141802849Y-96564520D01*
X141823893Y-96577133D01*
X141843598Y-96591747D01*
X141861777Y-96608223D01*
X141878253Y-96626402D01*
X141892867Y-96646107D01*
X141905480Y-96667151D01*
X141915970Y-96689329D01*
X141924235Y-96712429D01*
X141930196Y-96736227D01*
X141933796Y-96760496D01*
X141935000Y-96785000D01*
X141935000Y-97710000D01*
X141933796Y-97734504D01*
X141930196Y-97758773D01*
X141924235Y-97782571D01*
X141915970Y-97805671D01*
X141905480Y-97827849D01*
X141892867Y-97848893D01*
X141878253Y-97868598D01*
X141861777Y-97886777D01*
X141843598Y-97903253D01*
X141823893Y-97917867D01*
X141802849Y-97930480D01*
X141780671Y-97940970D01*
X141757571Y-97949235D01*
X141733773Y-97955196D01*
X141709504Y-97958796D01*
X141685000Y-97960000D01*
X140435000Y-97960000D01*
X140410496Y-97958796D01*
X140386227Y-97955196D01*
X140362429Y-97949235D01*
X140339329Y-97940970D01*
X140317151Y-97930480D01*
X140296107Y-97917867D01*
X140276402Y-97903253D01*
X140258223Y-97886777D01*
X140241747Y-97868598D01*
X140227133Y-97848893D01*
X140214520Y-97827849D01*
X140204030Y-97805671D01*
X140195765Y-97782571D01*
X140189804Y-97758773D01*
X140186204Y-97734504D01*
X140185000Y-97710000D01*
X140185000Y-96785000D01*
X140186204Y-96760496D01*
X140189804Y-96736227D01*
X140195765Y-96712429D01*
X140204030Y-96689329D01*
X140214520Y-96667151D01*
X140227133Y-96646107D01*
X140241747Y-96626402D01*
X140258223Y-96608223D01*
X140276402Y-96591747D01*
X140296107Y-96577133D01*
X140317151Y-96564520D01*
X140339329Y-96554030D01*
X140362429Y-96545765D01*
X140386227Y-96539804D01*
X140410496Y-96536204D01*
X140435000Y-96535000D01*
X141685000Y-96535000D01*
X141709504Y-96536204D01*
X141709504Y-96536204D01*
G37*
D11*
X141060000Y-97247500D03*
G04 #@! TD*
D10*
G04 #@! TO.C,D27*
G36*
X91689504Y-112601204D02*
X91713773Y-112604804D01*
X91737571Y-112610765D01*
X91760671Y-112619030D01*
X91782849Y-112629520D01*
X91803893Y-112642133D01*
X91823598Y-112656747D01*
X91841777Y-112673223D01*
X91858253Y-112691402D01*
X91872867Y-112711107D01*
X91885480Y-112732151D01*
X91895970Y-112754329D01*
X91904235Y-112777429D01*
X91910196Y-112801227D01*
X91913796Y-112825496D01*
X91915000Y-112850000D01*
X91915000Y-113775000D01*
X91913796Y-113799504D01*
X91910196Y-113823773D01*
X91904235Y-113847571D01*
X91895970Y-113870671D01*
X91885480Y-113892849D01*
X91872867Y-113913893D01*
X91858253Y-113933598D01*
X91841777Y-113951777D01*
X91823598Y-113968253D01*
X91803893Y-113982867D01*
X91782849Y-113995480D01*
X91760671Y-114005970D01*
X91737571Y-114014235D01*
X91713773Y-114020196D01*
X91689504Y-114023796D01*
X91665000Y-114025000D01*
X90415000Y-114025000D01*
X90390496Y-114023796D01*
X90366227Y-114020196D01*
X90342429Y-114014235D01*
X90319329Y-114005970D01*
X90297151Y-113995480D01*
X90276107Y-113982867D01*
X90256402Y-113968253D01*
X90238223Y-113951777D01*
X90221747Y-113933598D01*
X90207133Y-113913893D01*
X90194520Y-113892849D01*
X90184030Y-113870671D01*
X90175765Y-113847571D01*
X90169804Y-113823773D01*
X90166204Y-113799504D01*
X90165000Y-113775000D01*
X90165000Y-112850000D01*
X90166204Y-112825496D01*
X90169804Y-112801227D01*
X90175765Y-112777429D01*
X90184030Y-112754329D01*
X90194520Y-112732151D01*
X90207133Y-112711107D01*
X90221747Y-112691402D01*
X90238223Y-112673223D01*
X90256402Y-112656747D01*
X90276107Y-112642133D01*
X90297151Y-112629520D01*
X90319329Y-112619030D01*
X90342429Y-112610765D01*
X90366227Y-112604804D01*
X90390496Y-112601204D01*
X90415000Y-112600000D01*
X91665000Y-112600000D01*
X91689504Y-112601204D01*
X91689504Y-112601204D01*
G37*
D11*
X91040000Y-113312500D03*
D10*
G36*
X91689504Y-115576204D02*
X91713773Y-115579804D01*
X91737571Y-115585765D01*
X91760671Y-115594030D01*
X91782849Y-115604520D01*
X91803893Y-115617133D01*
X91823598Y-115631747D01*
X91841777Y-115648223D01*
X91858253Y-115666402D01*
X91872867Y-115686107D01*
X91885480Y-115707151D01*
X91895970Y-115729329D01*
X91904235Y-115752429D01*
X91910196Y-115776227D01*
X91913796Y-115800496D01*
X91915000Y-115825000D01*
X91915000Y-116750000D01*
X91913796Y-116774504D01*
X91910196Y-116798773D01*
X91904235Y-116822571D01*
X91895970Y-116845671D01*
X91885480Y-116867849D01*
X91872867Y-116888893D01*
X91858253Y-116908598D01*
X91841777Y-116926777D01*
X91823598Y-116943253D01*
X91803893Y-116957867D01*
X91782849Y-116970480D01*
X91760671Y-116980970D01*
X91737571Y-116989235D01*
X91713773Y-116995196D01*
X91689504Y-116998796D01*
X91665000Y-117000000D01*
X90415000Y-117000000D01*
X90390496Y-116998796D01*
X90366227Y-116995196D01*
X90342429Y-116989235D01*
X90319329Y-116980970D01*
X90297151Y-116970480D01*
X90276107Y-116957867D01*
X90256402Y-116943253D01*
X90238223Y-116926777D01*
X90221747Y-116908598D01*
X90207133Y-116888893D01*
X90194520Y-116867849D01*
X90184030Y-116845671D01*
X90175765Y-116822571D01*
X90169804Y-116798773D01*
X90166204Y-116774504D01*
X90165000Y-116750000D01*
X90165000Y-115825000D01*
X90166204Y-115800496D01*
X90169804Y-115776227D01*
X90175765Y-115752429D01*
X90184030Y-115729329D01*
X90194520Y-115707151D01*
X90207133Y-115686107D01*
X90221747Y-115666402D01*
X90238223Y-115648223D01*
X90256402Y-115631747D01*
X90276107Y-115617133D01*
X90297151Y-115604520D01*
X90319329Y-115594030D01*
X90342429Y-115585765D01*
X90366227Y-115579804D01*
X90390496Y-115576204D01*
X90415000Y-115575000D01*
X91665000Y-115575000D01*
X91689504Y-115576204D01*
X91689504Y-115576204D01*
G37*
D11*
X91040000Y-116287500D03*
G04 #@! TD*
D10*
G04 #@! TO.C,D28*
G36*
X115519504Y-112601204D02*
X115543773Y-112604804D01*
X115567571Y-112610765D01*
X115590671Y-112619030D01*
X115612849Y-112629520D01*
X115633893Y-112642133D01*
X115653598Y-112656747D01*
X115671777Y-112673223D01*
X115688253Y-112691402D01*
X115702867Y-112711107D01*
X115715480Y-112732151D01*
X115725970Y-112754329D01*
X115734235Y-112777429D01*
X115740196Y-112801227D01*
X115743796Y-112825496D01*
X115745000Y-112850000D01*
X115745000Y-113775000D01*
X115743796Y-113799504D01*
X115740196Y-113823773D01*
X115734235Y-113847571D01*
X115725970Y-113870671D01*
X115715480Y-113892849D01*
X115702867Y-113913893D01*
X115688253Y-113933598D01*
X115671777Y-113951777D01*
X115653598Y-113968253D01*
X115633893Y-113982867D01*
X115612849Y-113995480D01*
X115590671Y-114005970D01*
X115567571Y-114014235D01*
X115543773Y-114020196D01*
X115519504Y-114023796D01*
X115495000Y-114025000D01*
X114245000Y-114025000D01*
X114220496Y-114023796D01*
X114196227Y-114020196D01*
X114172429Y-114014235D01*
X114149329Y-114005970D01*
X114127151Y-113995480D01*
X114106107Y-113982867D01*
X114086402Y-113968253D01*
X114068223Y-113951777D01*
X114051747Y-113933598D01*
X114037133Y-113913893D01*
X114024520Y-113892849D01*
X114014030Y-113870671D01*
X114005765Y-113847571D01*
X113999804Y-113823773D01*
X113996204Y-113799504D01*
X113995000Y-113775000D01*
X113995000Y-112850000D01*
X113996204Y-112825496D01*
X113999804Y-112801227D01*
X114005765Y-112777429D01*
X114014030Y-112754329D01*
X114024520Y-112732151D01*
X114037133Y-112711107D01*
X114051747Y-112691402D01*
X114068223Y-112673223D01*
X114086402Y-112656747D01*
X114106107Y-112642133D01*
X114127151Y-112629520D01*
X114149329Y-112619030D01*
X114172429Y-112610765D01*
X114196227Y-112604804D01*
X114220496Y-112601204D01*
X114245000Y-112600000D01*
X115495000Y-112600000D01*
X115519504Y-112601204D01*
X115519504Y-112601204D01*
G37*
D11*
X114870000Y-113312500D03*
D10*
G36*
X115519504Y-115576204D02*
X115543773Y-115579804D01*
X115567571Y-115585765D01*
X115590671Y-115594030D01*
X115612849Y-115604520D01*
X115633893Y-115617133D01*
X115653598Y-115631747D01*
X115671777Y-115648223D01*
X115688253Y-115666402D01*
X115702867Y-115686107D01*
X115715480Y-115707151D01*
X115725970Y-115729329D01*
X115734235Y-115752429D01*
X115740196Y-115776227D01*
X115743796Y-115800496D01*
X115745000Y-115825000D01*
X115745000Y-116750000D01*
X115743796Y-116774504D01*
X115740196Y-116798773D01*
X115734235Y-116822571D01*
X115725970Y-116845671D01*
X115715480Y-116867849D01*
X115702867Y-116888893D01*
X115688253Y-116908598D01*
X115671777Y-116926777D01*
X115653598Y-116943253D01*
X115633893Y-116957867D01*
X115612849Y-116970480D01*
X115590671Y-116980970D01*
X115567571Y-116989235D01*
X115543773Y-116995196D01*
X115519504Y-116998796D01*
X115495000Y-117000000D01*
X114245000Y-117000000D01*
X114220496Y-116998796D01*
X114196227Y-116995196D01*
X114172429Y-116989235D01*
X114149329Y-116980970D01*
X114127151Y-116970480D01*
X114106107Y-116957867D01*
X114086402Y-116943253D01*
X114068223Y-116926777D01*
X114051747Y-116908598D01*
X114037133Y-116888893D01*
X114024520Y-116867849D01*
X114014030Y-116845671D01*
X114005765Y-116822571D01*
X113999804Y-116798773D01*
X113996204Y-116774504D01*
X113995000Y-116750000D01*
X113995000Y-115825000D01*
X113996204Y-115800496D01*
X113999804Y-115776227D01*
X114005765Y-115752429D01*
X114014030Y-115729329D01*
X114024520Y-115707151D01*
X114037133Y-115686107D01*
X114051747Y-115666402D01*
X114068223Y-115648223D01*
X114086402Y-115631747D01*
X114106107Y-115617133D01*
X114127151Y-115604520D01*
X114149329Y-115594030D01*
X114172429Y-115585765D01*
X114196227Y-115579804D01*
X114220496Y-115576204D01*
X114245000Y-115575000D01*
X115495000Y-115575000D01*
X115519504Y-115576204D01*
X115519504Y-115576204D01*
G37*
D11*
X114870000Y-116287500D03*
G04 #@! TD*
D10*
G04 #@! TO.C,D29*
G36*
X151249504Y-112611204D02*
X151273773Y-112614804D01*
X151297571Y-112620765D01*
X151320671Y-112629030D01*
X151342849Y-112639520D01*
X151363893Y-112652133D01*
X151383598Y-112666747D01*
X151401777Y-112683223D01*
X151418253Y-112701402D01*
X151432867Y-112721107D01*
X151445480Y-112742151D01*
X151455970Y-112764329D01*
X151464235Y-112787429D01*
X151470196Y-112811227D01*
X151473796Y-112835496D01*
X151475000Y-112860000D01*
X151475000Y-113785000D01*
X151473796Y-113809504D01*
X151470196Y-113833773D01*
X151464235Y-113857571D01*
X151455970Y-113880671D01*
X151445480Y-113902849D01*
X151432867Y-113923893D01*
X151418253Y-113943598D01*
X151401777Y-113961777D01*
X151383598Y-113978253D01*
X151363893Y-113992867D01*
X151342849Y-114005480D01*
X151320671Y-114015970D01*
X151297571Y-114024235D01*
X151273773Y-114030196D01*
X151249504Y-114033796D01*
X151225000Y-114035000D01*
X149975000Y-114035000D01*
X149950496Y-114033796D01*
X149926227Y-114030196D01*
X149902429Y-114024235D01*
X149879329Y-114015970D01*
X149857151Y-114005480D01*
X149836107Y-113992867D01*
X149816402Y-113978253D01*
X149798223Y-113961777D01*
X149781747Y-113943598D01*
X149767133Y-113923893D01*
X149754520Y-113902849D01*
X149744030Y-113880671D01*
X149735765Y-113857571D01*
X149729804Y-113833773D01*
X149726204Y-113809504D01*
X149725000Y-113785000D01*
X149725000Y-112860000D01*
X149726204Y-112835496D01*
X149729804Y-112811227D01*
X149735765Y-112787429D01*
X149744030Y-112764329D01*
X149754520Y-112742151D01*
X149767133Y-112721107D01*
X149781747Y-112701402D01*
X149798223Y-112683223D01*
X149816402Y-112666747D01*
X149836107Y-112652133D01*
X149857151Y-112639520D01*
X149879329Y-112629030D01*
X149902429Y-112620765D01*
X149926227Y-112614804D01*
X149950496Y-112611204D01*
X149975000Y-112610000D01*
X151225000Y-112610000D01*
X151249504Y-112611204D01*
X151249504Y-112611204D01*
G37*
D11*
X150600000Y-113322500D03*
D10*
G36*
X151249504Y-115586204D02*
X151273773Y-115589804D01*
X151297571Y-115595765D01*
X151320671Y-115604030D01*
X151342849Y-115614520D01*
X151363893Y-115627133D01*
X151383598Y-115641747D01*
X151401777Y-115658223D01*
X151418253Y-115676402D01*
X151432867Y-115696107D01*
X151445480Y-115717151D01*
X151455970Y-115739329D01*
X151464235Y-115762429D01*
X151470196Y-115786227D01*
X151473796Y-115810496D01*
X151475000Y-115835000D01*
X151475000Y-116760000D01*
X151473796Y-116784504D01*
X151470196Y-116808773D01*
X151464235Y-116832571D01*
X151455970Y-116855671D01*
X151445480Y-116877849D01*
X151432867Y-116898893D01*
X151418253Y-116918598D01*
X151401777Y-116936777D01*
X151383598Y-116953253D01*
X151363893Y-116967867D01*
X151342849Y-116980480D01*
X151320671Y-116990970D01*
X151297571Y-116999235D01*
X151273773Y-117005196D01*
X151249504Y-117008796D01*
X151225000Y-117010000D01*
X149975000Y-117010000D01*
X149950496Y-117008796D01*
X149926227Y-117005196D01*
X149902429Y-116999235D01*
X149879329Y-116990970D01*
X149857151Y-116980480D01*
X149836107Y-116967867D01*
X149816402Y-116953253D01*
X149798223Y-116936777D01*
X149781747Y-116918598D01*
X149767133Y-116898893D01*
X149754520Y-116877849D01*
X149744030Y-116855671D01*
X149735765Y-116832571D01*
X149729804Y-116808773D01*
X149726204Y-116784504D01*
X149725000Y-116760000D01*
X149725000Y-115835000D01*
X149726204Y-115810496D01*
X149729804Y-115786227D01*
X149735765Y-115762429D01*
X149744030Y-115739329D01*
X149754520Y-115717151D01*
X149767133Y-115696107D01*
X149781747Y-115676402D01*
X149798223Y-115658223D01*
X149816402Y-115641747D01*
X149836107Y-115627133D01*
X149857151Y-115614520D01*
X149879329Y-115604030D01*
X149902429Y-115595765D01*
X149926227Y-115589804D01*
X149950496Y-115586204D01*
X149975000Y-115585000D01*
X151225000Y-115585000D01*
X151249504Y-115586204D01*
X151249504Y-115586204D01*
G37*
D11*
X150600000Y-116297500D03*
G04 #@! TD*
D10*
G04 #@! TO.C,D3*
G36*
X98879504Y-36488704D02*
X98903773Y-36492304D01*
X98927571Y-36498265D01*
X98950671Y-36506530D01*
X98972849Y-36517020D01*
X98993893Y-36529633D01*
X99013598Y-36544247D01*
X99031777Y-36560723D01*
X99048253Y-36578902D01*
X99062867Y-36598607D01*
X99075480Y-36619651D01*
X99085970Y-36641829D01*
X99094235Y-36664929D01*
X99100196Y-36688727D01*
X99103796Y-36712996D01*
X99105000Y-36737500D01*
X99105000Y-37662500D01*
X99103796Y-37687004D01*
X99100196Y-37711273D01*
X99094235Y-37735071D01*
X99085970Y-37758171D01*
X99075480Y-37780349D01*
X99062867Y-37801393D01*
X99048253Y-37821098D01*
X99031777Y-37839277D01*
X99013598Y-37855753D01*
X98993893Y-37870367D01*
X98972849Y-37882980D01*
X98950671Y-37893470D01*
X98927571Y-37901735D01*
X98903773Y-37907696D01*
X98879504Y-37911296D01*
X98855000Y-37912500D01*
X97605000Y-37912500D01*
X97580496Y-37911296D01*
X97556227Y-37907696D01*
X97532429Y-37901735D01*
X97509329Y-37893470D01*
X97487151Y-37882980D01*
X97466107Y-37870367D01*
X97446402Y-37855753D01*
X97428223Y-37839277D01*
X97411747Y-37821098D01*
X97397133Y-37801393D01*
X97384520Y-37780349D01*
X97374030Y-37758171D01*
X97365765Y-37735071D01*
X97359804Y-37711273D01*
X97356204Y-37687004D01*
X97355000Y-37662500D01*
X97355000Y-36737500D01*
X97356204Y-36712996D01*
X97359804Y-36688727D01*
X97365765Y-36664929D01*
X97374030Y-36641829D01*
X97384520Y-36619651D01*
X97397133Y-36598607D01*
X97411747Y-36578902D01*
X97428223Y-36560723D01*
X97446402Y-36544247D01*
X97466107Y-36529633D01*
X97487151Y-36517020D01*
X97509329Y-36506530D01*
X97532429Y-36498265D01*
X97556227Y-36492304D01*
X97580496Y-36488704D01*
X97605000Y-36487500D01*
X98855000Y-36487500D01*
X98879504Y-36488704D01*
X98879504Y-36488704D01*
G37*
D11*
X98230000Y-37200000D03*
D10*
G36*
X98879504Y-39463704D02*
X98903773Y-39467304D01*
X98927571Y-39473265D01*
X98950671Y-39481530D01*
X98972849Y-39492020D01*
X98993893Y-39504633D01*
X99013598Y-39519247D01*
X99031777Y-39535723D01*
X99048253Y-39553902D01*
X99062867Y-39573607D01*
X99075480Y-39594651D01*
X99085970Y-39616829D01*
X99094235Y-39639929D01*
X99100196Y-39663727D01*
X99103796Y-39687996D01*
X99105000Y-39712500D01*
X99105000Y-40637500D01*
X99103796Y-40662004D01*
X99100196Y-40686273D01*
X99094235Y-40710071D01*
X99085970Y-40733171D01*
X99075480Y-40755349D01*
X99062867Y-40776393D01*
X99048253Y-40796098D01*
X99031777Y-40814277D01*
X99013598Y-40830753D01*
X98993893Y-40845367D01*
X98972849Y-40857980D01*
X98950671Y-40868470D01*
X98927571Y-40876735D01*
X98903773Y-40882696D01*
X98879504Y-40886296D01*
X98855000Y-40887500D01*
X97605000Y-40887500D01*
X97580496Y-40886296D01*
X97556227Y-40882696D01*
X97532429Y-40876735D01*
X97509329Y-40868470D01*
X97487151Y-40857980D01*
X97466107Y-40845367D01*
X97446402Y-40830753D01*
X97428223Y-40814277D01*
X97411747Y-40796098D01*
X97397133Y-40776393D01*
X97384520Y-40755349D01*
X97374030Y-40733171D01*
X97365765Y-40710071D01*
X97359804Y-40686273D01*
X97356204Y-40662004D01*
X97355000Y-40637500D01*
X97355000Y-39712500D01*
X97356204Y-39687996D01*
X97359804Y-39663727D01*
X97365765Y-39639929D01*
X97374030Y-39616829D01*
X97384520Y-39594651D01*
X97397133Y-39573607D01*
X97411747Y-39553902D01*
X97428223Y-39535723D01*
X97446402Y-39519247D01*
X97466107Y-39504633D01*
X97487151Y-39492020D01*
X97509329Y-39481530D01*
X97532429Y-39473265D01*
X97556227Y-39467304D01*
X97580496Y-39463704D01*
X97605000Y-39462500D01*
X98855000Y-39462500D01*
X98879504Y-39463704D01*
X98879504Y-39463704D01*
G37*
D11*
X98230000Y-40175000D03*
G04 #@! TD*
D10*
G04 #@! TO.C,D26*
G36*
X149049504Y-93571204D02*
X149073773Y-93574804D01*
X149097571Y-93580765D01*
X149120671Y-93589030D01*
X149142849Y-93599520D01*
X149163893Y-93612133D01*
X149183598Y-93626747D01*
X149201777Y-93643223D01*
X149218253Y-93661402D01*
X149232867Y-93681107D01*
X149245480Y-93702151D01*
X149255970Y-93724329D01*
X149264235Y-93747429D01*
X149270196Y-93771227D01*
X149273796Y-93795496D01*
X149275000Y-93820000D01*
X149275000Y-94745000D01*
X149273796Y-94769504D01*
X149270196Y-94793773D01*
X149264235Y-94817571D01*
X149255970Y-94840671D01*
X149245480Y-94862849D01*
X149232867Y-94883893D01*
X149218253Y-94903598D01*
X149201777Y-94921777D01*
X149183598Y-94938253D01*
X149163893Y-94952867D01*
X149142849Y-94965480D01*
X149120671Y-94975970D01*
X149097571Y-94984235D01*
X149073773Y-94990196D01*
X149049504Y-94993796D01*
X149025000Y-94995000D01*
X147775000Y-94995000D01*
X147750496Y-94993796D01*
X147726227Y-94990196D01*
X147702429Y-94984235D01*
X147679329Y-94975970D01*
X147657151Y-94965480D01*
X147636107Y-94952867D01*
X147616402Y-94938253D01*
X147598223Y-94921777D01*
X147581747Y-94903598D01*
X147567133Y-94883893D01*
X147554520Y-94862849D01*
X147544030Y-94840671D01*
X147535765Y-94817571D01*
X147529804Y-94793773D01*
X147526204Y-94769504D01*
X147525000Y-94745000D01*
X147525000Y-93820000D01*
X147526204Y-93795496D01*
X147529804Y-93771227D01*
X147535765Y-93747429D01*
X147544030Y-93724329D01*
X147554520Y-93702151D01*
X147567133Y-93681107D01*
X147581747Y-93661402D01*
X147598223Y-93643223D01*
X147616402Y-93626747D01*
X147636107Y-93612133D01*
X147657151Y-93599520D01*
X147679329Y-93589030D01*
X147702429Y-93580765D01*
X147726227Y-93574804D01*
X147750496Y-93571204D01*
X147775000Y-93570000D01*
X149025000Y-93570000D01*
X149049504Y-93571204D01*
X149049504Y-93571204D01*
G37*
D11*
X148400000Y-94282500D03*
D10*
G36*
X149049504Y-96546204D02*
X149073773Y-96549804D01*
X149097571Y-96555765D01*
X149120671Y-96564030D01*
X149142849Y-96574520D01*
X149163893Y-96587133D01*
X149183598Y-96601747D01*
X149201777Y-96618223D01*
X149218253Y-96636402D01*
X149232867Y-96656107D01*
X149245480Y-96677151D01*
X149255970Y-96699329D01*
X149264235Y-96722429D01*
X149270196Y-96746227D01*
X149273796Y-96770496D01*
X149275000Y-96795000D01*
X149275000Y-97720000D01*
X149273796Y-97744504D01*
X149270196Y-97768773D01*
X149264235Y-97792571D01*
X149255970Y-97815671D01*
X149245480Y-97837849D01*
X149232867Y-97858893D01*
X149218253Y-97878598D01*
X149201777Y-97896777D01*
X149183598Y-97913253D01*
X149163893Y-97927867D01*
X149142849Y-97940480D01*
X149120671Y-97950970D01*
X149097571Y-97959235D01*
X149073773Y-97965196D01*
X149049504Y-97968796D01*
X149025000Y-97970000D01*
X147775000Y-97970000D01*
X147750496Y-97968796D01*
X147726227Y-97965196D01*
X147702429Y-97959235D01*
X147679329Y-97950970D01*
X147657151Y-97940480D01*
X147636107Y-97927867D01*
X147616402Y-97913253D01*
X147598223Y-97896777D01*
X147581747Y-97878598D01*
X147567133Y-97858893D01*
X147554520Y-97837849D01*
X147544030Y-97815671D01*
X147535765Y-97792571D01*
X147529804Y-97768773D01*
X147526204Y-97744504D01*
X147525000Y-97720000D01*
X147525000Y-96795000D01*
X147526204Y-96770496D01*
X147529804Y-96746227D01*
X147535765Y-96722429D01*
X147544030Y-96699329D01*
X147554520Y-96677151D01*
X147567133Y-96656107D01*
X147581747Y-96636402D01*
X147598223Y-96618223D01*
X147616402Y-96601747D01*
X147636107Y-96587133D01*
X147657151Y-96574520D01*
X147679329Y-96564030D01*
X147702429Y-96555765D01*
X147726227Y-96549804D01*
X147750496Y-96546204D01*
X147775000Y-96545000D01*
X149025000Y-96545000D01*
X149049504Y-96546204D01*
X149049504Y-96546204D01*
G37*
D11*
X148400000Y-97257500D03*
G04 #@! TD*
D10*
G04 #@! TO.C,D0*
G36*
X41729504Y-36488704D02*
X41753773Y-36492304D01*
X41777571Y-36498265D01*
X41800671Y-36506530D01*
X41822849Y-36517020D01*
X41843893Y-36529633D01*
X41863598Y-36544247D01*
X41881777Y-36560723D01*
X41898253Y-36578902D01*
X41912867Y-36598607D01*
X41925480Y-36619651D01*
X41935970Y-36641829D01*
X41944235Y-36664929D01*
X41950196Y-36688727D01*
X41953796Y-36712996D01*
X41955000Y-36737500D01*
X41955000Y-37662500D01*
X41953796Y-37687004D01*
X41950196Y-37711273D01*
X41944235Y-37735071D01*
X41935970Y-37758171D01*
X41925480Y-37780349D01*
X41912867Y-37801393D01*
X41898253Y-37821098D01*
X41881777Y-37839277D01*
X41863598Y-37855753D01*
X41843893Y-37870367D01*
X41822849Y-37882980D01*
X41800671Y-37893470D01*
X41777571Y-37901735D01*
X41753773Y-37907696D01*
X41729504Y-37911296D01*
X41705000Y-37912500D01*
X40455000Y-37912500D01*
X40430496Y-37911296D01*
X40406227Y-37907696D01*
X40382429Y-37901735D01*
X40359329Y-37893470D01*
X40337151Y-37882980D01*
X40316107Y-37870367D01*
X40296402Y-37855753D01*
X40278223Y-37839277D01*
X40261747Y-37821098D01*
X40247133Y-37801393D01*
X40234520Y-37780349D01*
X40224030Y-37758171D01*
X40215765Y-37735071D01*
X40209804Y-37711273D01*
X40206204Y-37687004D01*
X40205000Y-37662500D01*
X40205000Y-36737500D01*
X40206204Y-36712996D01*
X40209804Y-36688727D01*
X40215765Y-36664929D01*
X40224030Y-36641829D01*
X40234520Y-36619651D01*
X40247133Y-36598607D01*
X40261747Y-36578902D01*
X40278223Y-36560723D01*
X40296402Y-36544247D01*
X40316107Y-36529633D01*
X40337151Y-36517020D01*
X40359329Y-36506530D01*
X40382429Y-36498265D01*
X40406227Y-36492304D01*
X40430496Y-36488704D01*
X40455000Y-36487500D01*
X41705000Y-36487500D01*
X41729504Y-36488704D01*
X41729504Y-36488704D01*
G37*
D11*
X41080000Y-37200000D03*
D10*
G36*
X41729504Y-39463704D02*
X41753773Y-39467304D01*
X41777571Y-39473265D01*
X41800671Y-39481530D01*
X41822849Y-39492020D01*
X41843893Y-39504633D01*
X41863598Y-39519247D01*
X41881777Y-39535723D01*
X41898253Y-39553902D01*
X41912867Y-39573607D01*
X41925480Y-39594651D01*
X41935970Y-39616829D01*
X41944235Y-39639929D01*
X41950196Y-39663727D01*
X41953796Y-39687996D01*
X41955000Y-39712500D01*
X41955000Y-40637500D01*
X41953796Y-40662004D01*
X41950196Y-40686273D01*
X41944235Y-40710071D01*
X41935970Y-40733171D01*
X41925480Y-40755349D01*
X41912867Y-40776393D01*
X41898253Y-40796098D01*
X41881777Y-40814277D01*
X41863598Y-40830753D01*
X41843893Y-40845367D01*
X41822849Y-40857980D01*
X41800671Y-40868470D01*
X41777571Y-40876735D01*
X41753773Y-40882696D01*
X41729504Y-40886296D01*
X41705000Y-40887500D01*
X40455000Y-40887500D01*
X40430496Y-40886296D01*
X40406227Y-40882696D01*
X40382429Y-40876735D01*
X40359329Y-40868470D01*
X40337151Y-40857980D01*
X40316107Y-40845367D01*
X40296402Y-40830753D01*
X40278223Y-40814277D01*
X40261747Y-40796098D01*
X40247133Y-40776393D01*
X40234520Y-40755349D01*
X40224030Y-40733171D01*
X40215765Y-40710071D01*
X40209804Y-40686273D01*
X40206204Y-40662004D01*
X40205000Y-40637500D01*
X40205000Y-39712500D01*
X40206204Y-39687996D01*
X40209804Y-39663727D01*
X40215765Y-39639929D01*
X40224030Y-39616829D01*
X40234520Y-39594651D01*
X40247133Y-39573607D01*
X40261747Y-39553902D01*
X40278223Y-39535723D01*
X40296402Y-39519247D01*
X40316107Y-39504633D01*
X40337151Y-39492020D01*
X40359329Y-39481530D01*
X40382429Y-39473265D01*
X40406227Y-39467304D01*
X40430496Y-39463704D01*
X40455000Y-39462500D01*
X41705000Y-39462500D01*
X41729504Y-39463704D01*
X41729504Y-39463704D01*
G37*
D11*
X41080000Y-40175000D03*
G04 #@! TD*
D10*
G04 #@! TO.C,D1*
G36*
X60779504Y-36488704D02*
X60803773Y-36492304D01*
X60827571Y-36498265D01*
X60850671Y-36506530D01*
X60872849Y-36517020D01*
X60893893Y-36529633D01*
X60913598Y-36544247D01*
X60931777Y-36560723D01*
X60948253Y-36578902D01*
X60962867Y-36598607D01*
X60975480Y-36619651D01*
X60985970Y-36641829D01*
X60994235Y-36664929D01*
X61000196Y-36688727D01*
X61003796Y-36712996D01*
X61005000Y-36737500D01*
X61005000Y-37662500D01*
X61003796Y-37687004D01*
X61000196Y-37711273D01*
X60994235Y-37735071D01*
X60985970Y-37758171D01*
X60975480Y-37780349D01*
X60962867Y-37801393D01*
X60948253Y-37821098D01*
X60931777Y-37839277D01*
X60913598Y-37855753D01*
X60893893Y-37870367D01*
X60872849Y-37882980D01*
X60850671Y-37893470D01*
X60827571Y-37901735D01*
X60803773Y-37907696D01*
X60779504Y-37911296D01*
X60755000Y-37912500D01*
X59505000Y-37912500D01*
X59480496Y-37911296D01*
X59456227Y-37907696D01*
X59432429Y-37901735D01*
X59409329Y-37893470D01*
X59387151Y-37882980D01*
X59366107Y-37870367D01*
X59346402Y-37855753D01*
X59328223Y-37839277D01*
X59311747Y-37821098D01*
X59297133Y-37801393D01*
X59284520Y-37780349D01*
X59274030Y-37758171D01*
X59265765Y-37735071D01*
X59259804Y-37711273D01*
X59256204Y-37687004D01*
X59255000Y-37662500D01*
X59255000Y-36737500D01*
X59256204Y-36712996D01*
X59259804Y-36688727D01*
X59265765Y-36664929D01*
X59274030Y-36641829D01*
X59284520Y-36619651D01*
X59297133Y-36598607D01*
X59311747Y-36578902D01*
X59328223Y-36560723D01*
X59346402Y-36544247D01*
X59366107Y-36529633D01*
X59387151Y-36517020D01*
X59409329Y-36506530D01*
X59432429Y-36498265D01*
X59456227Y-36492304D01*
X59480496Y-36488704D01*
X59505000Y-36487500D01*
X60755000Y-36487500D01*
X60779504Y-36488704D01*
X60779504Y-36488704D01*
G37*
D11*
X60130000Y-37200000D03*
D10*
G36*
X60779504Y-39463704D02*
X60803773Y-39467304D01*
X60827571Y-39473265D01*
X60850671Y-39481530D01*
X60872849Y-39492020D01*
X60893893Y-39504633D01*
X60913598Y-39519247D01*
X60931777Y-39535723D01*
X60948253Y-39553902D01*
X60962867Y-39573607D01*
X60975480Y-39594651D01*
X60985970Y-39616829D01*
X60994235Y-39639929D01*
X61000196Y-39663727D01*
X61003796Y-39687996D01*
X61005000Y-39712500D01*
X61005000Y-40637500D01*
X61003796Y-40662004D01*
X61000196Y-40686273D01*
X60994235Y-40710071D01*
X60985970Y-40733171D01*
X60975480Y-40755349D01*
X60962867Y-40776393D01*
X60948253Y-40796098D01*
X60931777Y-40814277D01*
X60913598Y-40830753D01*
X60893893Y-40845367D01*
X60872849Y-40857980D01*
X60850671Y-40868470D01*
X60827571Y-40876735D01*
X60803773Y-40882696D01*
X60779504Y-40886296D01*
X60755000Y-40887500D01*
X59505000Y-40887500D01*
X59480496Y-40886296D01*
X59456227Y-40882696D01*
X59432429Y-40876735D01*
X59409329Y-40868470D01*
X59387151Y-40857980D01*
X59366107Y-40845367D01*
X59346402Y-40830753D01*
X59328223Y-40814277D01*
X59311747Y-40796098D01*
X59297133Y-40776393D01*
X59284520Y-40755349D01*
X59274030Y-40733171D01*
X59265765Y-40710071D01*
X59259804Y-40686273D01*
X59256204Y-40662004D01*
X59255000Y-40637500D01*
X59255000Y-39712500D01*
X59256204Y-39687996D01*
X59259804Y-39663727D01*
X59265765Y-39639929D01*
X59274030Y-39616829D01*
X59284520Y-39594651D01*
X59297133Y-39573607D01*
X59311747Y-39553902D01*
X59328223Y-39535723D01*
X59346402Y-39519247D01*
X59366107Y-39504633D01*
X59387151Y-39492020D01*
X59409329Y-39481530D01*
X59432429Y-39473265D01*
X59456227Y-39467304D01*
X59480496Y-39463704D01*
X59505000Y-39462500D01*
X60755000Y-39462500D01*
X60779504Y-39463704D01*
X60779504Y-39463704D01*
G37*
D11*
X60130000Y-40175000D03*
G04 #@! TD*
D10*
G04 #@! TO.C,D30*
G36*
X158629504Y-112571204D02*
X158653773Y-112574804D01*
X158677571Y-112580765D01*
X158700671Y-112589030D01*
X158722849Y-112599520D01*
X158743893Y-112612133D01*
X158763598Y-112626747D01*
X158781777Y-112643223D01*
X158798253Y-112661402D01*
X158812867Y-112681107D01*
X158825480Y-112702151D01*
X158835970Y-112724329D01*
X158844235Y-112747429D01*
X158850196Y-112771227D01*
X158853796Y-112795496D01*
X158855000Y-112820000D01*
X158855000Y-113745000D01*
X158853796Y-113769504D01*
X158850196Y-113793773D01*
X158844235Y-113817571D01*
X158835970Y-113840671D01*
X158825480Y-113862849D01*
X158812867Y-113883893D01*
X158798253Y-113903598D01*
X158781777Y-113921777D01*
X158763598Y-113938253D01*
X158743893Y-113952867D01*
X158722849Y-113965480D01*
X158700671Y-113975970D01*
X158677571Y-113984235D01*
X158653773Y-113990196D01*
X158629504Y-113993796D01*
X158605000Y-113995000D01*
X157355000Y-113995000D01*
X157330496Y-113993796D01*
X157306227Y-113990196D01*
X157282429Y-113984235D01*
X157259329Y-113975970D01*
X157237151Y-113965480D01*
X157216107Y-113952867D01*
X157196402Y-113938253D01*
X157178223Y-113921777D01*
X157161747Y-113903598D01*
X157147133Y-113883893D01*
X157134520Y-113862849D01*
X157124030Y-113840671D01*
X157115765Y-113817571D01*
X157109804Y-113793773D01*
X157106204Y-113769504D01*
X157105000Y-113745000D01*
X157105000Y-112820000D01*
X157106204Y-112795496D01*
X157109804Y-112771227D01*
X157115765Y-112747429D01*
X157124030Y-112724329D01*
X157134520Y-112702151D01*
X157147133Y-112681107D01*
X157161747Y-112661402D01*
X157178223Y-112643223D01*
X157196402Y-112626747D01*
X157216107Y-112612133D01*
X157237151Y-112599520D01*
X157259329Y-112589030D01*
X157282429Y-112580765D01*
X157306227Y-112574804D01*
X157330496Y-112571204D01*
X157355000Y-112570000D01*
X158605000Y-112570000D01*
X158629504Y-112571204D01*
X158629504Y-112571204D01*
G37*
D11*
X157980000Y-113282500D03*
D10*
G36*
X158629504Y-115546204D02*
X158653773Y-115549804D01*
X158677571Y-115555765D01*
X158700671Y-115564030D01*
X158722849Y-115574520D01*
X158743893Y-115587133D01*
X158763598Y-115601747D01*
X158781777Y-115618223D01*
X158798253Y-115636402D01*
X158812867Y-115656107D01*
X158825480Y-115677151D01*
X158835970Y-115699329D01*
X158844235Y-115722429D01*
X158850196Y-115746227D01*
X158853796Y-115770496D01*
X158855000Y-115795000D01*
X158855000Y-116720000D01*
X158853796Y-116744504D01*
X158850196Y-116768773D01*
X158844235Y-116792571D01*
X158835970Y-116815671D01*
X158825480Y-116837849D01*
X158812867Y-116858893D01*
X158798253Y-116878598D01*
X158781777Y-116896777D01*
X158763598Y-116913253D01*
X158743893Y-116927867D01*
X158722849Y-116940480D01*
X158700671Y-116950970D01*
X158677571Y-116959235D01*
X158653773Y-116965196D01*
X158629504Y-116968796D01*
X158605000Y-116970000D01*
X157355000Y-116970000D01*
X157330496Y-116968796D01*
X157306227Y-116965196D01*
X157282429Y-116959235D01*
X157259329Y-116950970D01*
X157237151Y-116940480D01*
X157216107Y-116927867D01*
X157196402Y-116913253D01*
X157178223Y-116896777D01*
X157161747Y-116878598D01*
X157147133Y-116858893D01*
X157134520Y-116837849D01*
X157124030Y-116815671D01*
X157115765Y-116792571D01*
X157109804Y-116768773D01*
X157106204Y-116744504D01*
X157105000Y-116720000D01*
X157105000Y-115795000D01*
X157106204Y-115770496D01*
X157109804Y-115746227D01*
X157115765Y-115722429D01*
X157124030Y-115699329D01*
X157134520Y-115677151D01*
X157147133Y-115656107D01*
X157161747Y-115636402D01*
X157178223Y-115618223D01*
X157196402Y-115601747D01*
X157216107Y-115587133D01*
X157237151Y-115574520D01*
X157259329Y-115564030D01*
X157282429Y-115555765D01*
X157306227Y-115549804D01*
X157330496Y-115546204D01*
X157355000Y-115545000D01*
X158605000Y-115545000D01*
X158629504Y-115546204D01*
X158629504Y-115546204D01*
G37*
D11*
X157980000Y-116257500D03*
G04 #@! TD*
D10*
G04 #@! TO.C,R_data0*
G36*
X36367004Y-121576204D02*
X36391273Y-121579804D01*
X36415071Y-121585765D01*
X36438171Y-121594030D01*
X36460349Y-121604520D01*
X36481393Y-121617133D01*
X36501098Y-121631747D01*
X36519277Y-121648223D01*
X36535753Y-121666402D01*
X36550367Y-121686107D01*
X36562980Y-121707151D01*
X36573470Y-121729329D01*
X36581735Y-121752429D01*
X36587696Y-121776227D01*
X36591296Y-121800496D01*
X36592500Y-121825000D01*
X36592500Y-123075000D01*
X36591296Y-123099504D01*
X36587696Y-123123773D01*
X36581735Y-123147571D01*
X36573470Y-123170671D01*
X36562980Y-123192849D01*
X36550367Y-123213893D01*
X36535753Y-123233598D01*
X36519277Y-123251777D01*
X36501098Y-123268253D01*
X36481393Y-123282867D01*
X36460349Y-123295480D01*
X36438171Y-123305970D01*
X36415071Y-123314235D01*
X36391273Y-123320196D01*
X36367004Y-123323796D01*
X36342500Y-123325000D01*
X35417500Y-123325000D01*
X35392996Y-123323796D01*
X35368727Y-123320196D01*
X35344929Y-123314235D01*
X35321829Y-123305970D01*
X35299651Y-123295480D01*
X35278607Y-123282867D01*
X35258902Y-123268253D01*
X35240723Y-123251777D01*
X35224247Y-123233598D01*
X35209633Y-123213893D01*
X35197020Y-123192849D01*
X35186530Y-123170671D01*
X35178265Y-123147571D01*
X35172304Y-123123773D01*
X35168704Y-123099504D01*
X35167500Y-123075000D01*
X35167500Y-121825000D01*
X35168704Y-121800496D01*
X35172304Y-121776227D01*
X35178265Y-121752429D01*
X35186530Y-121729329D01*
X35197020Y-121707151D01*
X35209633Y-121686107D01*
X35224247Y-121666402D01*
X35240723Y-121648223D01*
X35258902Y-121631747D01*
X35278607Y-121617133D01*
X35299651Y-121604520D01*
X35321829Y-121594030D01*
X35344929Y-121585765D01*
X35368727Y-121579804D01*
X35392996Y-121576204D01*
X35417500Y-121575000D01*
X36342500Y-121575000D01*
X36367004Y-121576204D01*
X36367004Y-121576204D01*
G37*
D11*
X35880000Y-122450000D03*
D10*
G36*
X33392004Y-121576204D02*
X33416273Y-121579804D01*
X33440071Y-121585765D01*
X33463171Y-121594030D01*
X33485349Y-121604520D01*
X33506393Y-121617133D01*
X33526098Y-121631747D01*
X33544277Y-121648223D01*
X33560753Y-121666402D01*
X33575367Y-121686107D01*
X33587980Y-121707151D01*
X33598470Y-121729329D01*
X33606735Y-121752429D01*
X33612696Y-121776227D01*
X33616296Y-121800496D01*
X33617500Y-121825000D01*
X33617500Y-123075000D01*
X33616296Y-123099504D01*
X33612696Y-123123773D01*
X33606735Y-123147571D01*
X33598470Y-123170671D01*
X33587980Y-123192849D01*
X33575367Y-123213893D01*
X33560753Y-123233598D01*
X33544277Y-123251777D01*
X33526098Y-123268253D01*
X33506393Y-123282867D01*
X33485349Y-123295480D01*
X33463171Y-123305970D01*
X33440071Y-123314235D01*
X33416273Y-123320196D01*
X33392004Y-123323796D01*
X33367500Y-123325000D01*
X32442500Y-123325000D01*
X32417996Y-123323796D01*
X32393727Y-123320196D01*
X32369929Y-123314235D01*
X32346829Y-123305970D01*
X32324651Y-123295480D01*
X32303607Y-123282867D01*
X32283902Y-123268253D01*
X32265723Y-123251777D01*
X32249247Y-123233598D01*
X32234633Y-123213893D01*
X32222020Y-123192849D01*
X32211530Y-123170671D01*
X32203265Y-123147571D01*
X32197304Y-123123773D01*
X32193704Y-123099504D01*
X32192500Y-123075000D01*
X32192500Y-121825000D01*
X32193704Y-121800496D01*
X32197304Y-121776227D01*
X32203265Y-121752429D01*
X32211530Y-121729329D01*
X32222020Y-121707151D01*
X32234633Y-121686107D01*
X32249247Y-121666402D01*
X32265723Y-121648223D01*
X32283902Y-121631747D01*
X32303607Y-121617133D01*
X32324651Y-121604520D01*
X32346829Y-121594030D01*
X32369929Y-121585765D01*
X32393727Y-121579804D01*
X32417996Y-121576204D01*
X32442500Y-121575000D01*
X33367500Y-121575000D01*
X33392004Y-121576204D01*
X33392004Y-121576204D01*
G37*
D11*
X32905000Y-122450000D03*
G04 #@! TD*
D10*
G04 #@! TO.C,R_xdata0*
G36*
X36367004Y-117686204D02*
X36391273Y-117689804D01*
X36415071Y-117695765D01*
X36438171Y-117704030D01*
X36460349Y-117714520D01*
X36481393Y-117727133D01*
X36501098Y-117741747D01*
X36519277Y-117758223D01*
X36535753Y-117776402D01*
X36550367Y-117796107D01*
X36562980Y-117817151D01*
X36573470Y-117839329D01*
X36581735Y-117862429D01*
X36587696Y-117886227D01*
X36591296Y-117910496D01*
X36592500Y-117935000D01*
X36592500Y-119185000D01*
X36591296Y-119209504D01*
X36587696Y-119233773D01*
X36581735Y-119257571D01*
X36573470Y-119280671D01*
X36562980Y-119302849D01*
X36550367Y-119323893D01*
X36535753Y-119343598D01*
X36519277Y-119361777D01*
X36501098Y-119378253D01*
X36481393Y-119392867D01*
X36460349Y-119405480D01*
X36438171Y-119415970D01*
X36415071Y-119424235D01*
X36391273Y-119430196D01*
X36367004Y-119433796D01*
X36342500Y-119435000D01*
X35417500Y-119435000D01*
X35392996Y-119433796D01*
X35368727Y-119430196D01*
X35344929Y-119424235D01*
X35321829Y-119415970D01*
X35299651Y-119405480D01*
X35278607Y-119392867D01*
X35258902Y-119378253D01*
X35240723Y-119361777D01*
X35224247Y-119343598D01*
X35209633Y-119323893D01*
X35197020Y-119302849D01*
X35186530Y-119280671D01*
X35178265Y-119257571D01*
X35172304Y-119233773D01*
X35168704Y-119209504D01*
X35167500Y-119185000D01*
X35167500Y-117935000D01*
X35168704Y-117910496D01*
X35172304Y-117886227D01*
X35178265Y-117862429D01*
X35186530Y-117839329D01*
X35197020Y-117817151D01*
X35209633Y-117796107D01*
X35224247Y-117776402D01*
X35240723Y-117758223D01*
X35258902Y-117741747D01*
X35278607Y-117727133D01*
X35299651Y-117714520D01*
X35321829Y-117704030D01*
X35344929Y-117695765D01*
X35368727Y-117689804D01*
X35392996Y-117686204D01*
X35417500Y-117685000D01*
X36342500Y-117685000D01*
X36367004Y-117686204D01*
X36367004Y-117686204D01*
G37*
D11*
X35880000Y-118560000D03*
D10*
G36*
X33392004Y-117686204D02*
X33416273Y-117689804D01*
X33440071Y-117695765D01*
X33463171Y-117704030D01*
X33485349Y-117714520D01*
X33506393Y-117727133D01*
X33526098Y-117741747D01*
X33544277Y-117758223D01*
X33560753Y-117776402D01*
X33575367Y-117796107D01*
X33587980Y-117817151D01*
X33598470Y-117839329D01*
X33606735Y-117862429D01*
X33612696Y-117886227D01*
X33616296Y-117910496D01*
X33617500Y-117935000D01*
X33617500Y-119185000D01*
X33616296Y-119209504D01*
X33612696Y-119233773D01*
X33606735Y-119257571D01*
X33598470Y-119280671D01*
X33587980Y-119302849D01*
X33575367Y-119323893D01*
X33560753Y-119343598D01*
X33544277Y-119361777D01*
X33526098Y-119378253D01*
X33506393Y-119392867D01*
X33485349Y-119405480D01*
X33463171Y-119415970D01*
X33440071Y-119424235D01*
X33416273Y-119430196D01*
X33392004Y-119433796D01*
X33367500Y-119435000D01*
X32442500Y-119435000D01*
X32417996Y-119433796D01*
X32393727Y-119430196D01*
X32369929Y-119424235D01*
X32346829Y-119415970D01*
X32324651Y-119405480D01*
X32303607Y-119392867D01*
X32283902Y-119378253D01*
X32265723Y-119361777D01*
X32249247Y-119343598D01*
X32234633Y-119323893D01*
X32222020Y-119302849D01*
X32211530Y-119280671D01*
X32203265Y-119257571D01*
X32197304Y-119233773D01*
X32193704Y-119209504D01*
X32192500Y-119185000D01*
X32192500Y-117935000D01*
X32193704Y-117910496D01*
X32197304Y-117886227D01*
X32203265Y-117862429D01*
X32211530Y-117839329D01*
X32222020Y-117817151D01*
X32234633Y-117796107D01*
X32249247Y-117776402D01*
X32265723Y-117758223D01*
X32283902Y-117741747D01*
X32303607Y-117727133D01*
X32324651Y-117714520D01*
X32346829Y-117704030D01*
X32369929Y-117695765D01*
X32393727Y-117689804D01*
X32417996Y-117686204D01*
X32442500Y-117685000D01*
X33367500Y-117685000D01*
X33392004Y-117686204D01*
X33392004Y-117686204D01*
G37*
D11*
X32905000Y-118560000D03*
G04 #@! TD*
D12*
G04 #@! TO.C,SW0*
X42800000Y-45680000D03*
X28830000Y-48220000D03*
G04 #@! TD*
G04 #@! TO.C,SW1*
X61850000Y-45680000D03*
X47880000Y-48220000D03*
G04 #@! TD*
G04 #@! TO.C,SW2*
X80900000Y-45680000D03*
X66930000Y-48220000D03*
G04 #@! TD*
G04 #@! TO.C,SW3*
X99950000Y-45680000D03*
X85980000Y-48220000D03*
G04 #@! TD*
G04 #@! TO.C,SW4*
X119000000Y-45680000D03*
X105030000Y-48220000D03*
G04 #@! TD*
G04 #@! TO.C,SW5*
X138050000Y-45680000D03*
X124080000Y-48220000D03*
G04 #@! TD*
G04 #@! TO.C,SW6*
X157100000Y-45680000D03*
X143130000Y-48220000D03*
G04 #@! TD*
G04 #@! TO.C,SW7*
X47562500Y-64730000D03*
X33592500Y-67270000D03*
G04 #@! TD*
G04 #@! TO.C,SW8*
X71375000Y-64730000D03*
X57405000Y-67270000D03*
G04 #@! TD*
G04 #@! TO.C,SW9*
X90425000Y-64730000D03*
X76455000Y-67270000D03*
G04 #@! TD*
G04 #@! TO.C,SW10*
X109475000Y-64730000D03*
X95505000Y-67270000D03*
G04 #@! TD*
G04 #@! TO.C,SW11*
X128525000Y-64730000D03*
X114555000Y-67270000D03*
G04 #@! TD*
G04 #@! TO.C,SW12*
X147575000Y-64730000D03*
X133605000Y-67270000D03*
G04 #@! TD*
G04 #@! TO.C,SW13*
X166625000Y-64730000D03*
X152655000Y-67270000D03*
G04 #@! TD*
G04 #@! TO.C,SW14*
X49943750Y-83780000D03*
X35973750Y-86320000D03*
G04 #@! TD*
G04 #@! TO.C,SW15*
X76137000Y-83780000D03*
X62167000Y-86320000D03*
G04 #@! TD*
G04 #@! TO.C,SW16*
X95187000Y-83780000D03*
X81217000Y-86320000D03*
G04 #@! TD*
G04 #@! TO.C,SW17*
X114237000Y-83780000D03*
X100267000Y-86320000D03*
G04 #@! TD*
G04 #@! TO.C,SW18*
X133287000Y-83780000D03*
X119317000Y-86320000D03*
G04 #@! TD*
G04 #@! TO.C,SW19*
X152337000Y-83780000D03*
X138367000Y-86320000D03*
G04 #@! TD*
G04 #@! TO.C,SW21*
X59463000Y-102830000D03*
X45493000Y-105370000D03*
G04 #@! TD*
G04 #@! TO.C,SW22*
X85662000Y-102830000D03*
X71692000Y-105370000D03*
G04 #@! TD*
G04 #@! TO.C,SW23*
X104712000Y-102830000D03*
X90742000Y-105370000D03*
G04 #@! TD*
G04 #@! TO.C,SW24*
X123762000Y-102830000D03*
X109792000Y-105370000D03*
G04 #@! TD*
G04 #@! TO.C,SW25*
X142812000Y-102830000D03*
X128842000Y-105370000D03*
G04 #@! TD*
G04 #@! TO.C,SW26*
X161862000Y-102830000D03*
X147892000Y-105370000D03*
G04 #@! TD*
G04 #@! TO.C,SW27*
X92805750Y-121880000D03*
X78835750Y-124420000D03*
G04 #@! TD*
G04 #@! TO.C,SW28*
X116618250Y-121880000D03*
X102648250Y-124420000D03*
G04 #@! TD*
G04 #@! TO.C,SW29*
X152337000Y-121880000D03*
X138367000Y-124420000D03*
G04 #@! TD*
G04 #@! TO.C,SW30*
X171387000Y-121880000D03*
X157417000Y-124420000D03*
G04 #@! TD*
D10*
G04 #@! TO.C,D2*
G36*
X79829504Y-36488704D02*
X79853773Y-36492304D01*
X79877571Y-36498265D01*
X79900671Y-36506530D01*
X79922849Y-36517020D01*
X79943893Y-36529633D01*
X79963598Y-36544247D01*
X79981777Y-36560723D01*
X79998253Y-36578902D01*
X80012867Y-36598607D01*
X80025480Y-36619651D01*
X80035970Y-36641829D01*
X80044235Y-36664929D01*
X80050196Y-36688727D01*
X80053796Y-36712996D01*
X80055000Y-36737500D01*
X80055000Y-37662500D01*
X80053796Y-37687004D01*
X80050196Y-37711273D01*
X80044235Y-37735071D01*
X80035970Y-37758171D01*
X80025480Y-37780349D01*
X80012867Y-37801393D01*
X79998253Y-37821098D01*
X79981777Y-37839277D01*
X79963598Y-37855753D01*
X79943893Y-37870367D01*
X79922849Y-37882980D01*
X79900671Y-37893470D01*
X79877571Y-37901735D01*
X79853773Y-37907696D01*
X79829504Y-37911296D01*
X79805000Y-37912500D01*
X78555000Y-37912500D01*
X78530496Y-37911296D01*
X78506227Y-37907696D01*
X78482429Y-37901735D01*
X78459329Y-37893470D01*
X78437151Y-37882980D01*
X78416107Y-37870367D01*
X78396402Y-37855753D01*
X78378223Y-37839277D01*
X78361747Y-37821098D01*
X78347133Y-37801393D01*
X78334520Y-37780349D01*
X78324030Y-37758171D01*
X78315765Y-37735071D01*
X78309804Y-37711273D01*
X78306204Y-37687004D01*
X78305000Y-37662500D01*
X78305000Y-36737500D01*
X78306204Y-36712996D01*
X78309804Y-36688727D01*
X78315765Y-36664929D01*
X78324030Y-36641829D01*
X78334520Y-36619651D01*
X78347133Y-36598607D01*
X78361747Y-36578902D01*
X78378223Y-36560723D01*
X78396402Y-36544247D01*
X78416107Y-36529633D01*
X78437151Y-36517020D01*
X78459329Y-36506530D01*
X78482429Y-36498265D01*
X78506227Y-36492304D01*
X78530496Y-36488704D01*
X78555000Y-36487500D01*
X79805000Y-36487500D01*
X79829504Y-36488704D01*
X79829504Y-36488704D01*
G37*
D11*
X79180000Y-37200000D03*
D10*
G36*
X79829504Y-39463704D02*
X79853773Y-39467304D01*
X79877571Y-39473265D01*
X79900671Y-39481530D01*
X79922849Y-39492020D01*
X79943893Y-39504633D01*
X79963598Y-39519247D01*
X79981777Y-39535723D01*
X79998253Y-39553902D01*
X80012867Y-39573607D01*
X80025480Y-39594651D01*
X80035970Y-39616829D01*
X80044235Y-39639929D01*
X80050196Y-39663727D01*
X80053796Y-39687996D01*
X80055000Y-39712500D01*
X80055000Y-40637500D01*
X80053796Y-40662004D01*
X80050196Y-40686273D01*
X80044235Y-40710071D01*
X80035970Y-40733171D01*
X80025480Y-40755349D01*
X80012867Y-40776393D01*
X79998253Y-40796098D01*
X79981777Y-40814277D01*
X79963598Y-40830753D01*
X79943893Y-40845367D01*
X79922849Y-40857980D01*
X79900671Y-40868470D01*
X79877571Y-40876735D01*
X79853773Y-40882696D01*
X79829504Y-40886296D01*
X79805000Y-40887500D01*
X78555000Y-40887500D01*
X78530496Y-40886296D01*
X78506227Y-40882696D01*
X78482429Y-40876735D01*
X78459329Y-40868470D01*
X78437151Y-40857980D01*
X78416107Y-40845367D01*
X78396402Y-40830753D01*
X78378223Y-40814277D01*
X78361747Y-40796098D01*
X78347133Y-40776393D01*
X78334520Y-40755349D01*
X78324030Y-40733171D01*
X78315765Y-40710071D01*
X78309804Y-40686273D01*
X78306204Y-40662004D01*
X78305000Y-40637500D01*
X78305000Y-39712500D01*
X78306204Y-39687996D01*
X78309804Y-39663727D01*
X78315765Y-39639929D01*
X78324030Y-39616829D01*
X78334520Y-39594651D01*
X78347133Y-39573607D01*
X78361747Y-39553902D01*
X78378223Y-39535723D01*
X78396402Y-39519247D01*
X78416107Y-39504633D01*
X78437151Y-39492020D01*
X78459329Y-39481530D01*
X78482429Y-39473265D01*
X78506227Y-39467304D01*
X78530496Y-39463704D01*
X78555000Y-39462500D01*
X79805000Y-39462500D01*
X79829504Y-39463704D01*
X79829504Y-39463704D01*
G37*
D11*
X79180000Y-40175000D03*
G04 #@! TD*
M02*
