%FSLAX45Y45*%
G04 Gerber Fmt 4.5, Leading zero omitted, Abs format (unit mm)*
G04 Created by KiCad (PCBNEW (5.0.0-3-g5ebb6b6)) date *
%MOMM*%
%LPD*%
G01*
G04 APERTURE LIST*
%ADD10C,0.150000*%
%ADD11C,0.200000*%
%ADD12C,0.300000*%
G04 APERTURE END LIST*
D10*
X2365000Y-13186000D02*
X2365000Y-3061000D01*
X17330000Y-13186000D02*
X2365000Y-13186000D01*
X17330000Y-10981000D02*
X17330000Y-13186000D01*
X16377000Y-10981000D02*
X17330000Y-10981000D01*
X16377000Y-9076000D02*
X16377000Y-10981000D01*
X17330000Y-9076000D02*
X16377000Y-9076000D01*
X17330000Y-7171000D02*
X17330000Y-9076000D01*
X16854000Y-7171000D02*
X17330000Y-7171000D01*
X16854000Y-5266000D02*
X16854000Y-7171000D01*
X15901000Y-5266000D02*
X16854000Y-5266000D01*
X15901000Y-3061000D02*
X15901000Y-5266000D01*
X2365000Y-3061000D02*
X15901000Y-3061000D01*
D11*
X2505000Y-10637000D02*
X2545000Y-10677000D01*
X2545000Y-10637000D02*
X2505000Y-10677000D01*
X2759000Y-10642000D02*
X2799000Y-10682000D01*
X2799000Y-10642000D02*
X2759000Y-10682000D01*
X2830000Y-8392000D02*
X2870000Y-8432000D01*
X2870000Y-8392000D02*
X2830000Y-8432000D01*
X2864000Y-6267000D02*
X2904000Y-6307000D01*
X2904000Y-6267000D02*
X2864000Y-6307000D01*
X2966000Y-10082000D02*
X3006000Y-10122000D01*
X3006000Y-10082000D02*
X2966000Y-10122000D01*
X3292000Y-11417000D02*
X3332000Y-11457000D01*
X3332000Y-11417000D02*
X3292000Y-11457000D01*
X3333000Y-6979000D02*
X3373000Y-7019000D01*
X3373000Y-6979000D02*
X3333000Y-7019000D01*
X3373000Y-12810000D02*
X3413000Y-12850000D01*
X3413000Y-12810000D02*
X3373000Y-12850000D01*
X3417000Y-12034000D02*
X3457000Y-12074000D01*
X3457000Y-12034000D02*
X3417000Y-12074000D01*
X3486000Y-7820000D02*
X3526000Y-7860000D01*
X3526000Y-7820000D02*
X3486000Y-7860000D01*
X3493000Y-3931000D02*
X3533000Y-3971000D01*
X3533000Y-3931000D02*
X3493000Y-3971000D01*
X3520000Y-7986000D02*
X3560000Y-8026000D01*
X3560000Y-7986000D02*
X3520000Y-8026000D01*
X3739000Y-4874000D02*
X3779000Y-4914000D01*
X3779000Y-4874000D02*
X3739000Y-4914000D01*
X3773000Y-10312000D02*
X3813000Y-10352000D01*
X3813000Y-10312000D02*
X3773000Y-10352000D01*
X4190000Y-6820000D02*
X4230000Y-6860000D01*
X4230000Y-6820000D02*
X4190000Y-6860000D01*
X4345000Y-5603000D02*
X4385000Y-5643000D01*
X4385000Y-5603000D02*
X4345000Y-5643000D01*
X4348000Y-3960000D02*
X4388000Y-4000000D01*
X4388000Y-3960000D02*
X4348000Y-4000000D01*
X4607000Y-7513000D02*
X4647000Y-7553000D01*
X4647000Y-7513000D02*
X4607000Y-7553000D01*
X5180000Y-12157000D02*
X5220000Y-12197000D01*
X5220000Y-12157000D02*
X5180000Y-12197000D01*
X5382000Y-3396000D02*
X5422000Y-3436000D01*
X5422000Y-3396000D02*
X5382000Y-3436000D01*
X5388000Y-3931000D02*
X5428000Y-3971000D01*
X5428000Y-3931000D02*
X5388000Y-3971000D01*
X5485000Y-9754000D02*
X5525000Y-9794000D01*
X5525000Y-9754000D02*
X5485000Y-9794000D01*
X5634000Y-4866000D02*
X5674000Y-4906000D01*
X5674000Y-4866000D02*
X5634000Y-4906000D01*
X5968000Y-5722000D02*
X6008000Y-5762000D01*
X6008000Y-5722000D02*
X5968000Y-5762000D01*
X6165000Y-7652000D02*
X6205000Y-7692000D01*
X6205000Y-7652000D02*
X6165000Y-7692000D01*
X6169000Y-7113000D02*
X6209000Y-7153000D01*
X6209000Y-7113000D02*
X6169000Y-7153000D01*
X6205000Y-5423000D02*
X6245000Y-5463000D01*
X6245000Y-5423000D02*
X6205000Y-5463000D01*
X6245000Y-9408000D02*
X6285000Y-9448000D01*
X6285000Y-9408000D02*
X6245000Y-9448000D01*
X6315000Y-8897000D02*
X6355000Y-8937000D01*
X6355000Y-8897000D02*
X6315000Y-8937000D01*
X6513000Y-10625000D02*
X6553000Y-10665000D01*
X6553000Y-10625000D02*
X6513000Y-10665000D01*
X6611000Y-6811000D02*
X6651000Y-6851000D01*
X6651000Y-6811000D02*
X6611000Y-6851000D01*
X6732000Y-11841000D02*
X6772000Y-11881000D01*
X6772000Y-11841000D02*
X6732000Y-11881000D01*
X6732000Y-12714000D02*
X6772000Y-12754000D01*
X6772000Y-12714000D02*
X6732000Y-12754000D01*
X6791000Y-9673000D02*
X6831000Y-9713000D01*
X6831000Y-9673000D02*
X6791000Y-9713000D01*
X7282000Y-8791000D02*
X7322000Y-8831000D01*
X7322000Y-8791000D02*
X7282000Y-8831000D01*
X7311000Y-3368000D02*
X7351000Y-3408000D01*
X7351000Y-3368000D02*
X7311000Y-3408000D01*
X7325000Y-3956000D02*
X7365000Y-3996000D01*
X7365000Y-3956000D02*
X7325000Y-3996000D01*
X7406000Y-9734000D02*
X7446000Y-9774000D01*
X7446000Y-9734000D02*
X7406000Y-9774000D01*
X7554000Y-4857000D02*
X7594000Y-4897000D01*
X7594000Y-4857000D02*
X7554000Y-4897000D01*
X7842000Y-5716000D02*
X7882000Y-5756000D01*
X7882000Y-5716000D02*
X7842000Y-5756000D01*
X8003000Y-10584000D02*
X8043000Y-10624000D01*
X8043000Y-10584000D02*
X8003000Y-10624000D01*
X8017000Y-7113000D02*
X8057000Y-7153000D01*
X8057000Y-7113000D02*
X8017000Y-7153000D01*
X8017000Y-7652000D02*
X8057000Y-7692000D01*
X8057000Y-7652000D02*
X8017000Y-7692000D01*
X8125000Y-5441000D02*
X8165000Y-5481000D01*
X8165000Y-5441000D02*
X8125000Y-5481000D01*
X8216000Y-11594000D02*
X8256000Y-11634000D01*
X8256000Y-11594000D02*
X8216000Y-11634000D01*
X8480000Y-6803000D02*
X8520000Y-6843000D01*
X8520000Y-6803000D02*
X8480000Y-6843000D01*
X8781000Y-10759000D02*
X8821000Y-10799000D01*
X8821000Y-10759000D02*
X8781000Y-10799000D01*
X8869000Y-12563000D02*
X8909000Y-12603000D01*
X8909000Y-12563000D02*
X8869000Y-12603000D01*
X8910000Y-8941000D02*
X8950000Y-8981000D01*
X8950000Y-8941000D02*
X8910000Y-8981000D01*
X8910000Y-9713000D02*
X8950000Y-9753000D01*
X8950000Y-9713000D02*
X8910000Y-9753000D01*
X9058000Y-8731000D02*
X9098000Y-8771000D01*
X9098000Y-8731000D02*
X9058000Y-8771000D01*
X9211000Y-3939000D02*
X9251000Y-3979000D01*
X9251000Y-3939000D02*
X9211000Y-3979000D01*
X9254000Y-3368000D02*
X9294000Y-3408000D01*
X9294000Y-3368000D02*
X9254000Y-3408000D01*
X9308000Y-9754000D02*
X9348000Y-9794000D01*
X9348000Y-9754000D02*
X9308000Y-9794000D01*
X9414000Y-11398000D02*
X9454000Y-11438000D01*
X9454000Y-11398000D02*
X9414000Y-11438000D01*
X9475000Y-4900000D02*
X9515000Y-4940000D01*
X9515000Y-4900000D02*
X9475000Y-4940000D01*
X9755000Y-5688000D02*
X9795000Y-5728000D01*
X9795000Y-5688000D02*
X9755000Y-5728000D01*
X9797000Y-10522000D02*
X9837000Y-10562000D01*
X9837000Y-10522000D02*
X9797000Y-10562000D01*
X9896000Y-7113000D02*
X9936000Y-7153000D01*
X9936000Y-7113000D02*
X9896000Y-7153000D01*
X9901000Y-7648000D02*
X9941000Y-7688000D01*
X9941000Y-7648000D02*
X9901000Y-7688000D01*
X10022000Y-5429000D02*
X10062000Y-5469000D01*
X10062000Y-5429000D02*
X10022000Y-5469000D01*
X10130000Y-10764000D02*
X10170000Y-10804000D01*
X10170000Y-10764000D02*
X10130000Y-10804000D01*
X10409000Y-6803000D02*
X10449000Y-6843000D01*
X10449000Y-6803000D02*
X10409000Y-6843000D01*
X10490000Y-11573000D02*
X10530000Y-11613000D01*
X10530000Y-11573000D02*
X10490000Y-11613000D01*
X10860000Y-8936000D02*
X10900000Y-8976000D01*
X10900000Y-8936000D02*
X10860000Y-8976000D01*
X10864000Y-10265000D02*
X10904000Y-10305000D01*
X10904000Y-10265000D02*
X10864000Y-10305000D01*
X10961000Y-8731000D02*
X11001000Y-8771000D01*
X11001000Y-8731000D02*
X10961000Y-8771000D01*
X11129000Y-12494000D02*
X11169000Y-12534000D01*
X11169000Y-12494000D02*
X11129000Y-12534000D01*
X11148000Y-3948000D02*
X11188000Y-3988000D01*
X11188000Y-3948000D02*
X11148000Y-3988000D01*
X11155000Y-3368000D02*
X11195000Y-3408000D01*
X11195000Y-3368000D02*
X11155000Y-3408000D01*
X11198000Y-9767000D02*
X11238000Y-9807000D01*
X11238000Y-9767000D02*
X11198000Y-9807000D01*
X11395000Y-4883000D02*
X11435000Y-4923000D01*
X11435000Y-4883000D02*
X11395000Y-4923000D01*
X11655000Y-5699000D02*
X11695000Y-5739000D01*
X11695000Y-5699000D02*
X11655000Y-5739000D01*
X11721000Y-7080000D02*
X11761000Y-7120000D01*
X11761000Y-7080000D02*
X11721000Y-7120000D01*
X11721000Y-7645000D02*
X11761000Y-7685000D01*
X11761000Y-7645000D02*
X11721000Y-7685000D01*
X11931000Y-5431000D02*
X11971000Y-5471000D01*
X11971000Y-5431000D02*
X11931000Y-5471000D01*
X11989000Y-11412000D02*
X12029000Y-11452000D01*
X12029000Y-11412000D02*
X11989000Y-11452000D01*
X12009000Y-10715000D02*
X12049000Y-10755000D01*
X12049000Y-10715000D02*
X12009000Y-10755000D01*
X12346000Y-6794000D02*
X12386000Y-6834000D01*
X12386000Y-6794000D02*
X12346000Y-6834000D01*
X12503000Y-12199000D02*
X12543000Y-12239000D01*
X12543000Y-12199000D02*
X12503000Y-12239000D01*
X12809000Y-8955000D02*
X12849000Y-8995000D01*
X12849000Y-8955000D02*
X12809000Y-8995000D01*
X12809000Y-10223000D02*
X12849000Y-10263000D01*
X12849000Y-10223000D02*
X12809000Y-10263000D01*
X13001000Y-3939000D02*
X13041000Y-3979000D01*
X13041000Y-3939000D02*
X13001000Y-3979000D01*
X13009000Y-8748000D02*
X13049000Y-8788000D01*
X13049000Y-8748000D02*
X13009000Y-8788000D01*
X13056000Y-3382000D02*
X13096000Y-3422000D01*
X13096000Y-3382000D02*
X13056000Y-3422000D01*
X13108000Y-9739000D02*
X13148000Y-9779000D01*
X13148000Y-9739000D02*
X13108000Y-9779000D01*
X13323000Y-4866000D02*
X13363000Y-4906000D01*
X13363000Y-4866000D02*
X13323000Y-4906000D01*
X13548000Y-5692000D02*
X13588000Y-5732000D01*
X13588000Y-5692000D02*
X13548000Y-5732000D01*
X13712000Y-7636000D02*
X13752000Y-7676000D01*
X13752000Y-7636000D02*
X13712000Y-7676000D01*
X13716000Y-7093000D02*
X13756000Y-7133000D01*
X13756000Y-7093000D02*
X13716000Y-7133000D01*
X13767000Y-10653000D02*
X13807000Y-10693000D01*
X13807000Y-10653000D02*
X13767000Y-10693000D01*
X13835000Y-5402000D02*
X13875000Y-5442000D01*
X13875000Y-5402000D02*
X13835000Y-5442000D01*
X13989000Y-8906000D02*
X14029000Y-8946000D01*
X14029000Y-8906000D02*
X13989000Y-8946000D01*
X14015000Y-11580000D02*
X14055000Y-11620000D01*
X14055000Y-11580000D02*
X14015000Y-11620000D01*
X14182000Y-6803000D02*
X14222000Y-6843000D01*
X14222000Y-6803000D02*
X14182000Y-6843000D01*
X14599000Y-9605000D02*
X14639000Y-9645000D01*
X14639000Y-9605000D02*
X14599000Y-9645000D01*
X14688000Y-12494000D02*
X14728000Y-12534000D01*
X14728000Y-12494000D02*
X14688000Y-12534000D01*
X14878000Y-8765000D02*
X14918000Y-8805000D01*
X14918000Y-8765000D02*
X14878000Y-8805000D01*
X14970000Y-3573000D02*
X15010000Y-3613000D01*
X15010000Y-3573000D02*
X14970000Y-3613000D01*
X15163000Y-10894000D02*
X15203000Y-10934000D01*
X15203000Y-10894000D02*
X15163000Y-10934000D01*
X15227000Y-4874000D02*
X15267000Y-4914000D01*
X15267000Y-4874000D02*
X15227000Y-4914000D01*
X15451000Y-11406000D02*
X15491000Y-11446000D01*
X15491000Y-11406000D02*
X15451000Y-11446000D01*
X15536000Y-7085000D02*
X15576000Y-7125000D01*
X15576000Y-7085000D02*
X15536000Y-7125000D01*
X15540000Y-7643000D02*
X15580000Y-7683000D01*
X15580000Y-7643000D02*
X15540000Y-7683000D01*
X15547000Y-6019000D02*
X15587000Y-6059000D01*
X15587000Y-6019000D02*
X15547000Y-6059000D01*
X15657000Y-10667000D02*
X15697000Y-10707000D01*
X15697000Y-10667000D02*
X15657000Y-10707000D01*
X15746000Y-9519000D02*
X15786000Y-9559000D01*
X15786000Y-9519000D02*
X15746000Y-9559000D01*
X15783000Y-5757000D02*
X15823000Y-5797000D01*
X15823000Y-5757000D02*
X15783000Y-5797000D01*
X16085000Y-6769000D02*
X16125000Y-6809000D01*
X16125000Y-6769000D02*
X16085000Y-6809000D01*
X16474000Y-11402000D02*
X16514000Y-11442000D01*
X16514000Y-11402000D02*
X16474000Y-11442000D01*
X16550000Y-12494000D02*
X16590000Y-12534000D01*
X16590000Y-12494000D02*
X16550000Y-12534000D01*
X16646000Y-8706000D02*
X16686000Y-8746000D01*
X16686000Y-8706000D02*
X16646000Y-8746000D01*
X5177640Y-7304000D02*
G75*
G03X5177640Y-7304000I-40640J0D01*
G01*
X5177640Y-7812000D02*
G75*
G03X5177640Y-7812000I-40640J0D01*
G01*
X5939640Y-7304000D02*
G75*
G03X5939640Y-7304000I-40640J0D01*
G01*
X5939640Y-7812000D02*
G75*
G03X5939640Y-7812000I-40640J0D01*
G01*
X2895500Y-7626500D02*
X2895500Y-7726500D01*
X2845500Y-7676500D02*
X2945500Y-7676500D01*
X2870500Y-7716500D02*
X2920500Y-7716500D01*
X2870500Y-7636500D02*
X2920500Y-7636500D01*
X2920500Y-7716500D02*
G75*
G03X2920500Y-7636500I0J40000D01*
G01*
X2870500Y-7636500D02*
G75*
G03X2870500Y-7716500I0J-40000D01*
G01*
X3195500Y-7626500D02*
X3195500Y-7726500D01*
X3145500Y-7676500D02*
X3245500Y-7676500D01*
X3170500Y-7716500D02*
X3220500Y-7716500D01*
X3170500Y-7636500D02*
X3220500Y-7636500D01*
X3220500Y-7716500D02*
G75*
G03X3220500Y-7636500I0J40000D01*
G01*
X3170500Y-7636500D02*
G75*
G03X3170500Y-7716500I0J-40000D01*
G01*
X3595500Y-7626500D02*
X3595500Y-7726500D01*
X3545500Y-7676500D02*
X3645500Y-7676500D01*
X3570500Y-7716500D02*
X3620500Y-7716500D01*
X3570500Y-7636500D02*
X3620500Y-7636500D01*
X3620500Y-7716500D02*
G75*
G03X3620500Y-7636500I0J40000D01*
G01*
X3570500Y-7636500D02*
G75*
G03X3570500Y-7716500I0J-40000D01*
G01*
X3745500Y-7196500D02*
X3745500Y-7296500D01*
X3695500Y-7246500D02*
X3795500Y-7246500D01*
X3720500Y-7286500D02*
X3770500Y-7286500D01*
X3720500Y-7206500D02*
X3770500Y-7206500D01*
X3770500Y-7286500D02*
G75*
G03X3770500Y-7206500I0J40000D01*
G01*
X3720500Y-7206500D02*
G75*
G03X3720500Y-7286500I0J-40000D01*
G01*
X2878891Y-9371891D02*
X2878891Y-9294109D01*
X2801109Y-9294109D01*
X2801109Y-9371891D01*
X2878891Y-9371891D01*
X2878891Y-10895891D02*
X2878891Y-10818109D01*
X2801109Y-10818109D01*
X2801109Y-10895891D01*
X2878891Y-10895891D01*
X3132891Y-9371891D02*
X3132891Y-9294109D01*
X3055109Y-9294109D01*
X3055109Y-9371891D01*
X3132891Y-9371891D01*
X3132891Y-10895891D02*
X3132891Y-10818109D01*
X3055109Y-10818109D01*
X3055109Y-10895891D01*
X3132891Y-10895891D01*
X3386891Y-9371891D02*
X3386891Y-9294109D01*
X3309109Y-9294109D01*
X3309109Y-9371891D01*
X3386891Y-9371891D01*
X3386891Y-10895891D02*
X3386891Y-10818109D01*
X3309109Y-10818109D01*
X3309109Y-10895891D01*
X3386891Y-10895891D01*
X3640891Y-9371891D02*
X3640891Y-9294109D01*
X3563109Y-9294109D01*
X3563109Y-9371891D01*
X3640891Y-9371891D01*
X3640891Y-10895891D02*
X3640891Y-10818109D01*
X3563109Y-10818109D01*
X3563109Y-10895891D01*
X3640891Y-10895891D01*
X3894891Y-9371891D02*
X3894891Y-9294109D01*
X3817109Y-9294109D01*
X3817109Y-9371891D01*
X3894891Y-9371891D01*
X3894891Y-10895891D02*
X3894891Y-10818109D01*
X3817109Y-10818109D01*
X3817109Y-10895891D01*
X3894891Y-10895891D01*
X4148891Y-9371891D02*
X4148891Y-9294109D01*
X4071109Y-9294109D01*
X4071109Y-9371891D01*
X4148891Y-9371891D01*
X4148891Y-10895891D02*
X4148891Y-10818109D01*
X4071109Y-10818109D01*
X4071109Y-10895891D01*
X4148891Y-10895891D01*
X4402891Y-9371891D02*
X4402891Y-9294109D01*
X4325109Y-9294109D01*
X4325109Y-9371891D01*
X4402891Y-9371891D01*
X4402891Y-10895891D02*
X4402891Y-10818109D01*
X4325109Y-10818109D01*
X4325109Y-10895891D01*
X4402891Y-10895891D01*
X4656891Y-9371891D02*
X4656891Y-9294109D01*
X4579109Y-9294109D01*
X4579109Y-9371891D01*
X4656891Y-9371891D01*
X4656891Y-10895891D02*
X4656891Y-10818109D01*
X4579109Y-10818109D01*
X4579109Y-10895891D01*
X4656891Y-10895891D01*
X4910891Y-9371891D02*
X4910891Y-9294109D01*
X4833109Y-9294109D01*
X4833109Y-9371891D01*
X4910891Y-9371891D01*
X4910891Y-10895891D02*
X4910891Y-10818109D01*
X4833109Y-10818109D01*
X4833109Y-10895891D01*
X4910891Y-10895891D01*
X5164891Y-9371891D02*
X5164891Y-9294109D01*
X5087109Y-9294109D01*
X5087109Y-9371891D01*
X5164891Y-9371891D01*
X5164891Y-10895891D02*
X5164891Y-10818109D01*
X5087109Y-10818109D01*
X5087109Y-10895891D01*
X5164891Y-10895891D01*
X5418891Y-9371891D02*
X5418891Y-9294109D01*
X5341109Y-9294109D01*
X5341109Y-9371891D01*
X5418891Y-9371891D01*
X5418891Y-10895891D02*
X5418891Y-10818109D01*
X5341109Y-10818109D01*
X5341109Y-10895891D01*
X5418891Y-10895891D01*
X5672891Y-9371891D02*
X5672891Y-9294109D01*
X5595109Y-9294109D01*
X5595109Y-9371891D01*
X5672891Y-9371891D01*
X5672891Y-10895891D02*
X5672891Y-10818109D01*
X5595109Y-10818109D01*
X5595109Y-10895891D01*
X5672891Y-10895891D01*
X11003000Y-5274000D02*
X11053000Y-5224000D01*
X11003000Y-5174000D01*
X10953000Y-5224000D01*
X11003000Y-5274000D01*
X10228000Y-5264000D02*
X11778000Y-5264000D01*
X10228000Y-5184000D02*
X11778000Y-5184000D01*
X11778000Y-5264000D02*
G75*
G03X11778000Y-5184000I0J40000D01*
G01*
X10228000Y-5184000D02*
G75*
G03X10228000Y-5264000I0J-40000D01*
G01*
X7193000Y-5274000D02*
X7243000Y-5224000D01*
X7193000Y-5174000D01*
X7143000Y-5224000D01*
X7193000Y-5274000D01*
X6418000Y-5264000D02*
X7968000Y-5264000D01*
X6418000Y-5184000D02*
X7968000Y-5184000D01*
X7968000Y-5264000D02*
G75*
G03X7968000Y-5184000I0J40000D01*
G01*
X6418000Y-5184000D02*
G75*
G03X6418000Y-5264000I0J-40000D01*
G01*
X3282500Y-5274000D02*
X3332500Y-5224000D01*
X3282500Y-5174000D01*
X3232500Y-5224000D01*
X3282500Y-5274000D01*
X2407500Y-5264000D02*
X4157500Y-5264000D01*
X2407500Y-5184000D02*
X4157500Y-5184000D01*
X4157500Y-5264000D02*
G75*
G03X4157500Y-5184000I0J40000D01*
G01*
X2407500Y-5184000D02*
G75*
G03X2407500Y-5264000I0J-40000D01*
G01*
X14813000Y-5274000D02*
X14863000Y-5224000D01*
X14813000Y-5174000D01*
X14763000Y-5224000D01*
X14813000Y-5274000D01*
X14038000Y-5264000D02*
X15588000Y-5264000D01*
X14038000Y-5184000D02*
X15588000Y-5184000D01*
X15588000Y-5264000D02*
G75*
G03X15588000Y-5184000I0J40000D01*
G01*
X14038000Y-5184000D02*
G75*
G03X14038000Y-5264000I0J-40000D01*
G01*
X12908000Y-5274000D02*
X12958000Y-5224000D01*
X12908000Y-5174000D01*
X12858000Y-5224000D01*
X12908000Y-5274000D01*
X12133000Y-5264000D02*
X13683000Y-5264000D01*
X12133000Y-5184000D02*
X13683000Y-5184000D01*
X13683000Y-5264000D02*
G75*
G03X13683000Y-5184000I0J40000D01*
G01*
X12133000Y-5184000D02*
G75*
G03X12133000Y-5264000I0J-40000D01*
G01*
X9098000Y-5274000D02*
X9148000Y-5224000D01*
X9098000Y-5174000D01*
X9048000Y-5224000D01*
X9098000Y-5274000D01*
X8323000Y-5264000D02*
X9873000Y-5264000D01*
X8323000Y-5184000D02*
X9873000Y-5184000D01*
X9873000Y-5264000D02*
G75*
G03X9873000Y-5184000I0J40000D01*
G01*
X8323000Y-5184000D02*
G75*
G03X8323000Y-5264000I0J-40000D01*
G01*
X5288000Y-5274000D02*
X5338000Y-5224000D01*
X5288000Y-5174000D01*
X5238000Y-5224000D01*
X5288000Y-5274000D01*
X4513000Y-5264000D02*
X6063000Y-5264000D01*
X4513000Y-5184000D02*
X6063000Y-5184000D01*
X6063000Y-5264000D02*
G75*
G03X6063000Y-5184000I0J40000D01*
G01*
X4513000Y-5184000D02*
G75*
G03X4513000Y-5264000I0J-40000D01*
G01*
X2655500Y-7401500D02*
X2775500Y-7521500D01*
X2775500Y-7401500D02*
X2655500Y-7521500D01*
X2775500Y-7461500D02*
G75*
G03X2775500Y-7461500I-60000J0D01*
G01*
X3355500Y-7401500D02*
X3475500Y-7521500D01*
X3475500Y-7401500D02*
X3355500Y-7521500D01*
X3475500Y-7461500D02*
G75*
G03X3475500Y-7461500I-60000J0D01*
G01*
X3398250Y-6131000D02*
X3574250Y-6307000D01*
X3574250Y-6131000D02*
X3398250Y-6307000D01*
X3486250Y-6131000D02*
X3486250Y-6307000D01*
X3398250Y-6219000D02*
X3574250Y-6219000D01*
X4414250Y-6131000D02*
X4590250Y-6307000D01*
X4590250Y-6131000D02*
X4414250Y-6307000D01*
X4502250Y-6131000D02*
X4502250Y-6307000D01*
X4414250Y-6219000D02*
X4590250Y-6219000D01*
X11970700Y-8036000D02*
X12146700Y-8212000D01*
X12146700Y-8036000D02*
X11970700Y-8212000D01*
X12058700Y-8036000D02*
X12058700Y-8212000D01*
X11970700Y-8124000D02*
X12146700Y-8124000D01*
X12986700Y-8036000D02*
X13162700Y-8212000D01*
X13162700Y-8036000D02*
X12986700Y-8212000D01*
X13074700Y-8036000D02*
X13074700Y-8212000D01*
X12986700Y-8124000D02*
X13162700Y-8124000D01*
X15780700Y-11846000D02*
X15956700Y-12022000D01*
X15956700Y-11846000D02*
X15780700Y-12022000D01*
X15868700Y-11846000D02*
X15868700Y-12022000D01*
X15780700Y-11934000D02*
X15956700Y-11934000D01*
X16796700Y-11846000D02*
X16972700Y-12022000D01*
X16972700Y-11846000D02*
X16796700Y-12022000D01*
X16884700Y-11846000D02*
X16884700Y-12022000D01*
X16796700Y-11934000D02*
X16972700Y-11934000D01*
X7684500Y-6131000D02*
X7860500Y-6307000D01*
X7860500Y-6131000D02*
X7684500Y-6307000D01*
X7772500Y-6131000D02*
X7772500Y-6307000D01*
X7684500Y-6219000D02*
X7860500Y-6219000D01*
X8700500Y-6131000D02*
X8876500Y-6307000D01*
X8876500Y-6131000D02*
X8700500Y-6307000D01*
X8788500Y-6131000D02*
X8788500Y-6307000D01*
X8700500Y-6219000D02*
X8876500Y-6219000D01*
X4588300Y-9941000D02*
X4764300Y-10117000D01*
X4764300Y-9941000D02*
X4588300Y-10117000D01*
X4676300Y-9941000D02*
X4676300Y-10117000D01*
X4588300Y-10029000D02*
X4764300Y-10029000D01*
X5604300Y-9941000D02*
X5780300Y-10117000D01*
X5780300Y-9941000D02*
X5604300Y-10117000D01*
X5692300Y-9941000D02*
X5692300Y-10117000D01*
X5604300Y-10029000D02*
X5780300Y-10029000D01*
X2922000Y-4226000D02*
X3098000Y-4402000D01*
X3098000Y-4226000D02*
X2922000Y-4402000D01*
X3010000Y-4226000D02*
X3010000Y-4402000D01*
X2922000Y-4314000D02*
X3098000Y-4314000D01*
X3938000Y-4226000D02*
X4114000Y-4402000D01*
X4114000Y-4226000D02*
X3938000Y-4402000D01*
X4026000Y-4226000D02*
X4026000Y-4402000D01*
X3938000Y-4314000D02*
X4114000Y-4314000D01*
X11494500Y-6131000D02*
X11670500Y-6307000D01*
X11670500Y-6131000D02*
X11494500Y-6307000D01*
X11582500Y-6131000D02*
X11582500Y-6307000D01*
X11494500Y-6219000D02*
X11670500Y-6219000D01*
X12510500Y-6131000D02*
X12686500Y-6307000D01*
X12686500Y-6131000D02*
X12510500Y-6307000D01*
X12598500Y-6131000D02*
X12598500Y-6307000D01*
X12510500Y-6219000D02*
X12686500Y-6219000D01*
X9113200Y-9941000D02*
X9289200Y-10117000D01*
X9289200Y-9941000D02*
X9113200Y-10117000D01*
X9201200Y-9941000D02*
X9201200Y-10117000D01*
X9113200Y-10029000D02*
X9289200Y-10029000D01*
X10129200Y-9941000D02*
X10305200Y-10117000D01*
X10305200Y-9941000D02*
X10129200Y-10117000D01*
X10217200Y-9941000D02*
X10217200Y-10117000D01*
X10129200Y-10029000D02*
X10305200Y-10029000D01*
X6732000Y-4226000D02*
X6908000Y-4402000D01*
X6908000Y-4226000D02*
X6732000Y-4402000D01*
X6820000Y-4226000D02*
X6820000Y-4402000D01*
X6732000Y-4314000D02*
X6908000Y-4314000D01*
X7748000Y-4226000D02*
X7924000Y-4402000D01*
X7924000Y-4226000D02*
X7748000Y-4402000D01*
X7836000Y-4226000D02*
X7836000Y-4402000D01*
X7748000Y-4314000D02*
X7924000Y-4314000D01*
X15304500Y-6131000D02*
X15480500Y-6307000D01*
X15480500Y-6131000D02*
X15304500Y-6307000D01*
X15392500Y-6131000D02*
X15392500Y-6307000D01*
X15304500Y-6219000D02*
X15480500Y-6219000D01*
X16320500Y-6131000D02*
X16496500Y-6307000D01*
X16496500Y-6131000D02*
X16320500Y-6307000D01*
X16408500Y-6131000D02*
X16408500Y-6307000D01*
X16320500Y-6219000D02*
X16496500Y-6219000D01*
X12923200Y-9941000D02*
X13099200Y-10117000D01*
X13099200Y-9941000D02*
X12923200Y-10117000D01*
X13011200Y-9941000D02*
X13011200Y-10117000D01*
X12923200Y-10029000D02*
X13099200Y-10029000D01*
X13939200Y-9941000D02*
X14115200Y-10117000D01*
X14115200Y-9941000D02*
X13939200Y-10117000D01*
X14027200Y-9941000D02*
X14027200Y-10117000D01*
X13939200Y-10029000D02*
X14115200Y-10029000D01*
X10542000Y-4226000D02*
X10718000Y-4402000D01*
X10718000Y-4226000D02*
X10542000Y-4402000D01*
X10630000Y-4226000D02*
X10630000Y-4402000D01*
X10542000Y-4314000D02*
X10718000Y-4314000D01*
X11558000Y-4226000D02*
X11734000Y-4402000D01*
X11734000Y-4226000D02*
X11558000Y-4402000D01*
X11646000Y-4226000D02*
X11646000Y-4402000D01*
X11558000Y-4314000D02*
X11734000Y-4314000D01*
X6255700Y-8036000D02*
X6431700Y-8212000D01*
X6431700Y-8036000D02*
X6255700Y-8212000D01*
X6343700Y-8036000D02*
X6343700Y-8212000D01*
X6255700Y-8124000D02*
X6431700Y-8124000D01*
X7271700Y-8036000D02*
X7447700Y-8212000D01*
X7447700Y-8036000D02*
X7271700Y-8212000D01*
X7359700Y-8036000D02*
X7359700Y-8212000D01*
X7271700Y-8124000D02*
X7447700Y-8124000D01*
X7922575Y-11846000D02*
X8098575Y-12022000D01*
X8098575Y-11846000D02*
X7922575Y-12022000D01*
X8010575Y-11846000D02*
X8010575Y-12022000D01*
X7922575Y-11934000D02*
X8098575Y-11934000D01*
X8938575Y-11846000D02*
X9114575Y-12022000D01*
X9114575Y-11846000D02*
X8938575Y-12022000D01*
X9026575Y-11846000D02*
X9026575Y-12022000D01*
X8938575Y-11934000D02*
X9114575Y-11934000D01*
X14352000Y-4226000D02*
X14528000Y-4402000D01*
X14528000Y-4226000D02*
X14352000Y-4402000D01*
X14440000Y-4226000D02*
X14440000Y-4402000D01*
X14352000Y-4314000D02*
X14528000Y-4314000D01*
X15368000Y-4226000D02*
X15544000Y-4402000D01*
X15544000Y-4226000D02*
X15368000Y-4402000D01*
X15456000Y-4226000D02*
X15456000Y-4402000D01*
X15368000Y-4314000D02*
X15544000Y-4314000D01*
X10065700Y-8036000D02*
X10241700Y-8212000D01*
X10241700Y-8036000D02*
X10065700Y-8212000D01*
X10153700Y-8036000D02*
X10153700Y-8212000D01*
X10065700Y-8124000D02*
X10241700Y-8124000D01*
X11081700Y-8036000D02*
X11257700Y-8212000D01*
X11257700Y-8036000D02*
X11081700Y-8212000D01*
X11169700Y-8036000D02*
X11169700Y-8212000D01*
X11081700Y-8124000D02*
X11257700Y-8124000D01*
X13875700Y-11846000D02*
X14051700Y-12022000D01*
X14051700Y-11846000D02*
X13875700Y-12022000D01*
X13963700Y-11846000D02*
X13963700Y-12022000D01*
X13875700Y-11934000D02*
X14051700Y-11934000D01*
X14891700Y-11846000D02*
X15067700Y-12022000D01*
X15067700Y-11846000D02*
X14891700Y-12022000D01*
X14979700Y-11846000D02*
X14979700Y-12022000D01*
X14891700Y-11934000D02*
X15067700Y-11934000D01*
X5779500Y-6131000D02*
X5955500Y-6307000D01*
X5955500Y-6131000D02*
X5779500Y-6307000D01*
X5867500Y-6131000D02*
X5867500Y-6307000D01*
X5779500Y-6219000D02*
X5955500Y-6219000D01*
X6795500Y-6131000D02*
X6971500Y-6307000D01*
X6971500Y-6131000D02*
X6795500Y-6307000D01*
X6883500Y-6131000D02*
X6883500Y-6307000D01*
X6795500Y-6219000D02*
X6971500Y-6219000D01*
X13875700Y-8036000D02*
X14051700Y-8212000D01*
X14051700Y-8036000D02*
X13875700Y-8212000D01*
X13963700Y-8036000D02*
X13963700Y-8212000D01*
X13875700Y-8124000D02*
X14051700Y-8124000D01*
X14891700Y-8036000D02*
X15067700Y-8212000D01*
X15067700Y-8036000D02*
X14891700Y-8212000D01*
X14979700Y-8036000D02*
X14979700Y-8212000D01*
X14891700Y-8124000D02*
X15067700Y-8124000D01*
X15780700Y-8036000D02*
X15956700Y-8212000D01*
X15956700Y-8036000D02*
X15780700Y-8212000D01*
X15868700Y-8036000D02*
X15868700Y-8212000D01*
X15780700Y-8124000D02*
X15956700Y-8124000D01*
X16796700Y-8036000D02*
X16972700Y-8212000D01*
X16972700Y-8036000D02*
X16796700Y-8212000D01*
X16884700Y-8036000D02*
X16884700Y-8212000D01*
X16796700Y-8124000D02*
X16972700Y-8124000D01*
X9589500Y-6131000D02*
X9765500Y-6307000D01*
X9765500Y-6131000D02*
X9589500Y-6307000D01*
X9677500Y-6131000D02*
X9677500Y-6307000D01*
X9589500Y-6219000D02*
X9765500Y-6219000D01*
X10605500Y-6131000D02*
X10781500Y-6307000D01*
X10781500Y-6131000D02*
X10605500Y-6307000D01*
X10693500Y-6131000D02*
X10693500Y-6307000D01*
X10605500Y-6219000D02*
X10781500Y-6219000D01*
X7208200Y-9941000D02*
X7384200Y-10117000D01*
X7384200Y-9941000D02*
X7208200Y-10117000D01*
X7296200Y-9941000D02*
X7296200Y-10117000D01*
X7208200Y-10029000D02*
X7384200Y-10029000D01*
X8224200Y-9941000D02*
X8400200Y-10117000D01*
X8400200Y-9941000D02*
X8224200Y-10117000D01*
X8312200Y-9941000D02*
X8312200Y-10117000D01*
X8224200Y-10029000D02*
X8400200Y-10029000D01*
X4827000Y-4226000D02*
X5003000Y-4402000D01*
X5003000Y-4226000D02*
X4827000Y-4402000D01*
X4915000Y-4226000D02*
X4915000Y-4402000D01*
X4827000Y-4314000D02*
X5003000Y-4314000D01*
X5843000Y-4226000D02*
X6019000Y-4402000D01*
X6019000Y-4226000D02*
X5843000Y-4402000D01*
X5931000Y-4226000D02*
X5931000Y-4402000D01*
X5843000Y-4314000D02*
X6019000Y-4314000D01*
X13399500Y-6131000D02*
X13575500Y-6307000D01*
X13575500Y-6131000D02*
X13399500Y-6307000D01*
X13487500Y-6131000D02*
X13487500Y-6307000D01*
X13399500Y-6219000D02*
X13575500Y-6219000D01*
X14415500Y-6131000D02*
X14591500Y-6307000D01*
X14591500Y-6131000D02*
X14415500Y-6307000D01*
X14503500Y-6131000D02*
X14503500Y-6307000D01*
X14415500Y-6219000D02*
X14591500Y-6219000D01*
X11018200Y-9941000D02*
X11194200Y-10117000D01*
X11194200Y-9941000D02*
X11018200Y-10117000D01*
X11106200Y-9941000D02*
X11106200Y-10117000D01*
X11018200Y-10029000D02*
X11194200Y-10029000D01*
X12034200Y-9941000D02*
X12210200Y-10117000D01*
X12210200Y-9941000D02*
X12034200Y-10117000D01*
X12122200Y-9941000D02*
X12122200Y-10117000D01*
X12034200Y-10029000D02*
X12210200Y-10029000D01*
X8637000Y-4226000D02*
X8813000Y-4402000D01*
X8813000Y-4226000D02*
X8637000Y-4402000D01*
X8725000Y-4226000D02*
X8725000Y-4402000D01*
X8637000Y-4314000D02*
X8813000Y-4314000D01*
X9653000Y-4226000D02*
X9829000Y-4402000D01*
X9829000Y-4226000D02*
X9653000Y-4402000D01*
X9741000Y-4226000D02*
X9741000Y-4402000D01*
X9653000Y-4314000D02*
X9829000Y-4314000D01*
X3636375Y-8036000D02*
X3812375Y-8212000D01*
X3812375Y-8036000D02*
X3636375Y-8212000D01*
X3724375Y-8036000D02*
X3724375Y-8212000D01*
X3636375Y-8124000D02*
X3812375Y-8124000D01*
X4652375Y-8036000D02*
X4828375Y-8212000D01*
X4828375Y-8036000D02*
X4652375Y-8212000D01*
X4740375Y-8036000D02*
X4740375Y-8212000D01*
X4652375Y-8124000D02*
X4828375Y-8124000D01*
X14828200Y-9941000D02*
X15004200Y-10117000D01*
X15004200Y-9941000D02*
X14828200Y-10117000D01*
X14916200Y-9941000D02*
X14916200Y-10117000D01*
X14828200Y-10029000D02*
X15004200Y-10029000D01*
X15844200Y-9941000D02*
X16020200Y-10117000D01*
X16020200Y-9941000D02*
X15844200Y-10117000D01*
X15932200Y-9941000D02*
X15932200Y-10117000D01*
X15844200Y-10029000D02*
X16020200Y-10029000D01*
X12447000Y-4226000D02*
X12623000Y-4402000D01*
X12623000Y-4226000D02*
X12447000Y-4402000D01*
X12535000Y-4226000D02*
X12535000Y-4402000D01*
X12447000Y-4314000D02*
X12623000Y-4314000D01*
X13463000Y-4226000D02*
X13639000Y-4402000D01*
X13639000Y-4226000D02*
X13463000Y-4402000D01*
X13551000Y-4226000D02*
X13551000Y-4402000D01*
X13463000Y-4314000D02*
X13639000Y-4314000D01*
X8160700Y-8036000D02*
X8336700Y-8212000D01*
X8336700Y-8036000D02*
X8160700Y-8212000D01*
X8248700Y-8036000D02*
X8248700Y-8212000D01*
X8160700Y-8124000D02*
X8336700Y-8124000D01*
X9176700Y-8036000D02*
X9352700Y-8212000D01*
X9352700Y-8036000D02*
X9176700Y-8212000D01*
X9264700Y-8036000D02*
X9264700Y-8212000D01*
X9176700Y-8124000D02*
X9352700Y-8124000D01*
X10303825Y-11846000D02*
X10479825Y-12022000D01*
X10479825Y-11846000D02*
X10303825Y-12022000D01*
X10391825Y-11846000D02*
X10391825Y-12022000D01*
X10303825Y-11934000D02*
X10479825Y-11934000D01*
X11319825Y-11846000D02*
X11495825Y-12022000D01*
X11495825Y-11846000D02*
X11319825Y-12022000D01*
X11407825Y-11846000D02*
X11407825Y-12022000D01*
X11319825Y-11934000D02*
X11495825Y-11934000D01*
X3114000Y-4672000D02*
X3414000Y-4972000D01*
X3414000Y-4672000D02*
X3114000Y-4972000D01*
X3370067Y-4928067D02*
X3370067Y-4715933D01*
X3157933Y-4715933D01*
X3157933Y-4928067D01*
X3370067Y-4928067D01*
X3749000Y-4418000D02*
X4049000Y-4718000D01*
X4049000Y-4418000D02*
X3749000Y-4718000D01*
X4005067Y-4674067D02*
X4005067Y-4461933D01*
X3792933Y-4461933D01*
X3792933Y-4674067D01*
X4005067Y-4674067D01*
X11686500Y-6577000D02*
X11986500Y-6877000D01*
X11986500Y-6577000D02*
X11686500Y-6877000D01*
X11942567Y-6833067D02*
X11942567Y-6620933D01*
X11730433Y-6620933D01*
X11730433Y-6833067D01*
X11942567Y-6833067D01*
X12321500Y-6323000D02*
X12621500Y-6623000D01*
X12621500Y-6323000D02*
X12321500Y-6623000D01*
X12577567Y-6579067D02*
X12577567Y-6366933D01*
X12365433Y-6366933D01*
X12365433Y-6579067D01*
X12577567Y-6579067D01*
X9305200Y-10387000D02*
X9605200Y-10687000D01*
X9605200Y-10387000D02*
X9305200Y-10687000D01*
X9561267Y-10643067D02*
X9561267Y-10430933D01*
X9349133Y-10430933D01*
X9349133Y-10643067D01*
X9561267Y-10643067D01*
X9940200Y-10133000D02*
X10240200Y-10433000D01*
X10240200Y-10133000D02*
X9940200Y-10433000D01*
X10196267Y-10389067D02*
X10196267Y-10176933D01*
X9984133Y-10176933D01*
X9984133Y-10389067D01*
X10196267Y-10389067D01*
X6924000Y-4672000D02*
X7224000Y-4972000D01*
X7224000Y-4672000D02*
X6924000Y-4972000D01*
X7180067Y-4928067D02*
X7180067Y-4715933D01*
X6967933Y-4715933D01*
X6967933Y-4928067D01*
X7180067Y-4928067D01*
X7559000Y-4418000D02*
X7859000Y-4718000D01*
X7859000Y-4418000D02*
X7559000Y-4718000D01*
X7815067Y-4674067D02*
X7815067Y-4461933D01*
X7602933Y-4461933D01*
X7602933Y-4674067D01*
X7815067Y-4674067D01*
X15496500Y-6577000D02*
X15796500Y-6877000D01*
X15796500Y-6577000D02*
X15496500Y-6877000D01*
X15752567Y-6833067D02*
X15752567Y-6620933D01*
X15540433Y-6620933D01*
X15540433Y-6833067D01*
X15752567Y-6833067D01*
X16131500Y-6323000D02*
X16431500Y-6623000D01*
X16431500Y-6323000D02*
X16131500Y-6623000D01*
X16387567Y-6579067D02*
X16387567Y-6366933D01*
X16175433Y-6366933D01*
X16175433Y-6579067D01*
X16387567Y-6579067D01*
X13115200Y-10387000D02*
X13415200Y-10687000D01*
X13415200Y-10387000D02*
X13115200Y-10687000D01*
X13371267Y-10643067D02*
X13371267Y-10430933D01*
X13159133Y-10430933D01*
X13159133Y-10643067D01*
X13371267Y-10643067D01*
X13750200Y-10133000D02*
X14050200Y-10433000D01*
X14050200Y-10133000D02*
X13750200Y-10433000D01*
X14006267Y-10389067D02*
X14006267Y-10176933D01*
X13794133Y-10176933D01*
X13794133Y-10389067D01*
X14006267Y-10389067D01*
X10734000Y-4672000D02*
X11034000Y-4972000D01*
X11034000Y-4672000D02*
X10734000Y-4972000D01*
X10990067Y-4928067D02*
X10990067Y-4715933D01*
X10777933Y-4715933D01*
X10777933Y-4928067D01*
X10990067Y-4928067D01*
X11369000Y-4418000D02*
X11669000Y-4718000D01*
X11669000Y-4418000D02*
X11369000Y-4718000D01*
X11625067Y-4674067D02*
X11625067Y-4461933D01*
X11412933Y-4461933D01*
X11412933Y-4674067D01*
X11625067Y-4674067D01*
X6447700Y-8482000D02*
X6747700Y-8782000D01*
X6747700Y-8482000D02*
X6447700Y-8782000D01*
X6703767Y-8738067D02*
X6703767Y-8525933D01*
X6491633Y-8525933D01*
X6491633Y-8738067D01*
X6703767Y-8738067D01*
X7082700Y-8228000D02*
X7382700Y-8528000D01*
X7382700Y-8228000D02*
X7082700Y-8528000D01*
X7338767Y-8484067D02*
X7338767Y-8271933D01*
X7126633Y-8271933D01*
X7126633Y-8484067D01*
X7338767Y-8484067D01*
X8114575Y-12292000D02*
X8414575Y-12592000D01*
X8414575Y-12292000D02*
X8114575Y-12592000D01*
X8370642Y-12548067D02*
X8370642Y-12335933D01*
X8158508Y-12335933D01*
X8158508Y-12548067D01*
X8370642Y-12548067D01*
X8749575Y-12038000D02*
X9049575Y-12338000D01*
X9049575Y-12038000D02*
X8749575Y-12338000D01*
X9005642Y-12294067D02*
X9005642Y-12081933D01*
X8793508Y-12081933D01*
X8793508Y-12294067D01*
X9005642Y-12294067D01*
X14544000Y-4672000D02*
X14844000Y-4972000D01*
X14844000Y-4672000D02*
X14544000Y-4972000D01*
X14800067Y-4928067D02*
X14800067Y-4715933D01*
X14587933Y-4715933D01*
X14587933Y-4928067D01*
X14800067Y-4928067D01*
X15179000Y-4418000D02*
X15479000Y-4718000D01*
X15479000Y-4418000D02*
X15179000Y-4718000D01*
X15435067Y-4674067D02*
X15435067Y-4461933D01*
X15222933Y-4461933D01*
X15222933Y-4674067D01*
X15435067Y-4674067D01*
X10257700Y-8482000D02*
X10557700Y-8782000D01*
X10557700Y-8482000D02*
X10257700Y-8782000D01*
X10513767Y-8738067D02*
X10513767Y-8525933D01*
X10301633Y-8525933D01*
X10301633Y-8738067D01*
X10513767Y-8738067D01*
X10892700Y-8228000D02*
X11192700Y-8528000D01*
X11192700Y-8228000D02*
X10892700Y-8528000D01*
X11148767Y-8484067D02*
X11148767Y-8271933D01*
X10936633Y-8271933D01*
X10936633Y-8484067D01*
X11148767Y-8484067D01*
X14067700Y-12292000D02*
X14367700Y-12592000D01*
X14367700Y-12292000D02*
X14067700Y-12592000D01*
X14323767Y-12548067D02*
X14323767Y-12335933D01*
X14111633Y-12335933D01*
X14111633Y-12548067D01*
X14323767Y-12548067D01*
X14702700Y-12038000D02*
X15002700Y-12338000D01*
X15002700Y-12038000D02*
X14702700Y-12338000D01*
X14958767Y-12294067D02*
X14958767Y-12081933D01*
X14746633Y-12081933D01*
X14746633Y-12294067D01*
X14958767Y-12294067D01*
X5971500Y-6577000D02*
X6271500Y-6877000D01*
X6271500Y-6577000D02*
X5971500Y-6877000D01*
X6227567Y-6833067D02*
X6227567Y-6620933D01*
X6015433Y-6620933D01*
X6015433Y-6833067D01*
X6227567Y-6833067D01*
X6606500Y-6323000D02*
X6906500Y-6623000D01*
X6906500Y-6323000D02*
X6606500Y-6623000D01*
X6862567Y-6579067D02*
X6862567Y-6366933D01*
X6650433Y-6366933D01*
X6650433Y-6579067D01*
X6862567Y-6579067D01*
X14067700Y-8482000D02*
X14367700Y-8782000D01*
X14367700Y-8482000D02*
X14067700Y-8782000D01*
X14323767Y-8738067D02*
X14323767Y-8525933D01*
X14111633Y-8525933D01*
X14111633Y-8738067D01*
X14323767Y-8738067D01*
X14702700Y-8228000D02*
X15002700Y-8528000D01*
X15002700Y-8228000D02*
X14702700Y-8528000D01*
X14958767Y-8484067D02*
X14958767Y-8271933D01*
X14746633Y-8271933D01*
X14746633Y-8484067D01*
X14958767Y-8484067D01*
X15972700Y-8482000D02*
X16272700Y-8782000D01*
X16272700Y-8482000D02*
X15972700Y-8782000D01*
X16228767Y-8738067D02*
X16228767Y-8525933D01*
X16016633Y-8525933D01*
X16016633Y-8738067D01*
X16228767Y-8738067D01*
X16607700Y-8228000D02*
X16907700Y-8528000D01*
X16907700Y-8228000D02*
X16607700Y-8528000D01*
X16863767Y-8484067D02*
X16863767Y-8271933D01*
X16651633Y-8271933D01*
X16651633Y-8484067D01*
X16863767Y-8484067D01*
X9781500Y-6577000D02*
X10081500Y-6877000D01*
X10081500Y-6577000D02*
X9781500Y-6877000D01*
X10037567Y-6833067D02*
X10037567Y-6620933D01*
X9825433Y-6620933D01*
X9825433Y-6833067D01*
X10037567Y-6833067D01*
X10416500Y-6323000D02*
X10716500Y-6623000D01*
X10716500Y-6323000D02*
X10416500Y-6623000D01*
X10672567Y-6579067D02*
X10672567Y-6366933D01*
X10460433Y-6366933D01*
X10460433Y-6579067D01*
X10672567Y-6579067D01*
X7400200Y-10387000D02*
X7700200Y-10687000D01*
X7700200Y-10387000D02*
X7400200Y-10687000D01*
X7656267Y-10643067D02*
X7656267Y-10430933D01*
X7444133Y-10430933D01*
X7444133Y-10643067D01*
X7656267Y-10643067D01*
X8035200Y-10133000D02*
X8335200Y-10433000D01*
X8335200Y-10133000D02*
X8035200Y-10433000D01*
X8291267Y-10389067D02*
X8291267Y-10176933D01*
X8079133Y-10176933D01*
X8079133Y-10389067D01*
X8291267Y-10389067D01*
X5019000Y-4672000D02*
X5319000Y-4972000D01*
X5319000Y-4672000D02*
X5019000Y-4972000D01*
X5275067Y-4928067D02*
X5275067Y-4715933D01*
X5062933Y-4715933D01*
X5062933Y-4928067D01*
X5275067Y-4928067D01*
X5654000Y-4418000D02*
X5954000Y-4718000D01*
X5954000Y-4418000D02*
X5654000Y-4718000D01*
X5910067Y-4674067D02*
X5910067Y-4461933D01*
X5697933Y-4461933D01*
X5697933Y-4674067D01*
X5910067Y-4674067D01*
X13591500Y-6577000D02*
X13891500Y-6877000D01*
X13891500Y-6577000D02*
X13591500Y-6877000D01*
X13847567Y-6833067D02*
X13847567Y-6620933D01*
X13635433Y-6620933D01*
X13635433Y-6833067D01*
X13847567Y-6833067D01*
X14226500Y-6323000D02*
X14526500Y-6623000D01*
X14526500Y-6323000D02*
X14226500Y-6623000D01*
X14482567Y-6579067D02*
X14482567Y-6366933D01*
X14270433Y-6366933D01*
X14270433Y-6579067D01*
X14482567Y-6579067D01*
X11210200Y-10387000D02*
X11510200Y-10687000D01*
X11510200Y-10387000D02*
X11210200Y-10687000D01*
X11466267Y-10643067D02*
X11466267Y-10430933D01*
X11254133Y-10430933D01*
X11254133Y-10643067D01*
X11466267Y-10643067D01*
X11845200Y-10133000D02*
X12145200Y-10433000D01*
X12145200Y-10133000D02*
X11845200Y-10433000D01*
X12101267Y-10389067D02*
X12101267Y-10176933D01*
X11889133Y-10176933D01*
X11889133Y-10389067D01*
X12101267Y-10389067D01*
X8829000Y-4672000D02*
X9129000Y-4972000D01*
X9129000Y-4672000D02*
X8829000Y-4972000D01*
X9085067Y-4928067D02*
X9085067Y-4715933D01*
X8872933Y-4715933D01*
X8872933Y-4928067D01*
X9085067Y-4928067D01*
X9464000Y-4418000D02*
X9764000Y-4718000D01*
X9764000Y-4418000D02*
X9464000Y-4718000D01*
X9720067Y-4674067D02*
X9720067Y-4461933D01*
X9507933Y-4461933D01*
X9507933Y-4674067D01*
X9720067Y-4674067D01*
X3828375Y-8482000D02*
X4128375Y-8782000D01*
X4128375Y-8482000D02*
X3828375Y-8782000D01*
X4084442Y-8738067D02*
X4084442Y-8525933D01*
X3872308Y-8525933D01*
X3872308Y-8738067D01*
X4084442Y-8738067D01*
X4463375Y-8228000D02*
X4763375Y-8528000D01*
X4763375Y-8228000D02*
X4463375Y-8528000D01*
X4719442Y-8484067D02*
X4719442Y-8271933D01*
X4507308Y-8271933D01*
X4507308Y-8484067D01*
X4719442Y-8484067D01*
X15020200Y-10387000D02*
X15320200Y-10687000D01*
X15320200Y-10387000D02*
X15020200Y-10687000D01*
X15276267Y-10643067D02*
X15276267Y-10430933D01*
X15064133Y-10430933D01*
X15064133Y-10643067D01*
X15276267Y-10643067D01*
X15655200Y-10133000D02*
X15955200Y-10433000D01*
X15955200Y-10133000D02*
X15655200Y-10433000D01*
X15911267Y-10389067D02*
X15911267Y-10176933D01*
X15699133Y-10176933D01*
X15699133Y-10389067D01*
X15911267Y-10389067D01*
X12639000Y-4672000D02*
X12939000Y-4972000D01*
X12939000Y-4672000D02*
X12639000Y-4972000D01*
X12895067Y-4928067D02*
X12895067Y-4715933D01*
X12682933Y-4715933D01*
X12682933Y-4928067D01*
X12895067Y-4928067D01*
X13274000Y-4418000D02*
X13574000Y-4718000D01*
X13574000Y-4418000D02*
X13274000Y-4718000D01*
X13530067Y-4674067D02*
X13530067Y-4461933D01*
X13317933Y-4461933D01*
X13317933Y-4674067D01*
X13530067Y-4674067D01*
X8352700Y-8482000D02*
X8652700Y-8782000D01*
X8652700Y-8482000D02*
X8352700Y-8782000D01*
X8608767Y-8738067D02*
X8608767Y-8525933D01*
X8396633Y-8525933D01*
X8396633Y-8738067D01*
X8608767Y-8738067D01*
X8987700Y-8228000D02*
X9287700Y-8528000D01*
X9287700Y-8228000D02*
X8987700Y-8528000D01*
X9243767Y-8484067D02*
X9243767Y-8271933D01*
X9031633Y-8271933D01*
X9031633Y-8484067D01*
X9243767Y-8484067D01*
X10495825Y-12292000D02*
X10795825Y-12592000D01*
X10795825Y-12292000D02*
X10495825Y-12592000D01*
X10751892Y-12548067D02*
X10751892Y-12335933D01*
X10539758Y-12335933D01*
X10539758Y-12548067D01*
X10751892Y-12548067D01*
X11130825Y-12038000D02*
X11430825Y-12338000D01*
X11430825Y-12038000D02*
X11130825Y-12338000D01*
X11386892Y-12294067D02*
X11386892Y-12081933D01*
X11174758Y-12081933D01*
X11174758Y-12294067D01*
X11386892Y-12294067D01*
X3590250Y-6577000D02*
X3890250Y-6877000D01*
X3890250Y-6577000D02*
X3590250Y-6877000D01*
X3846317Y-6833067D02*
X3846317Y-6620933D01*
X3634183Y-6620933D01*
X3634183Y-6833067D01*
X3846317Y-6833067D01*
X4225250Y-6323000D02*
X4525250Y-6623000D01*
X4525250Y-6323000D02*
X4225250Y-6623000D01*
X4481317Y-6579067D02*
X4481317Y-6366933D01*
X4269183Y-6366933D01*
X4269183Y-6579067D01*
X4481317Y-6579067D01*
X12162700Y-8482000D02*
X12462700Y-8782000D01*
X12462700Y-8482000D02*
X12162700Y-8782000D01*
X12418767Y-8738067D02*
X12418767Y-8525933D01*
X12206633Y-8525933D01*
X12206633Y-8738067D01*
X12418767Y-8738067D01*
X12797700Y-8228000D02*
X13097700Y-8528000D01*
X13097700Y-8228000D02*
X12797700Y-8528000D01*
X13053767Y-8484067D02*
X13053767Y-8271933D01*
X12841633Y-8271933D01*
X12841633Y-8484067D01*
X13053767Y-8484067D01*
X15972700Y-12292000D02*
X16272700Y-12592000D01*
X16272700Y-12292000D02*
X15972700Y-12592000D01*
X16228767Y-12548067D02*
X16228767Y-12335933D01*
X16016633Y-12335933D01*
X16016633Y-12548067D01*
X16228767Y-12548067D01*
X16607700Y-12038000D02*
X16907700Y-12338000D01*
X16907700Y-12038000D02*
X16607700Y-12338000D01*
X16863767Y-12294067D02*
X16863767Y-12081933D01*
X16651633Y-12081933D01*
X16651633Y-12294067D01*
X16863767Y-12294067D01*
X7876500Y-6577000D02*
X8176500Y-6877000D01*
X8176500Y-6577000D02*
X7876500Y-6877000D01*
X8132567Y-6833067D02*
X8132567Y-6620933D01*
X7920433Y-6620933D01*
X7920433Y-6833067D01*
X8132567Y-6833067D01*
X8511500Y-6323000D02*
X8811500Y-6623000D01*
X8811500Y-6323000D02*
X8511500Y-6623000D01*
X8767567Y-6579067D02*
X8767567Y-6366933D01*
X8555433Y-6366933D01*
X8555433Y-6579067D01*
X8767567Y-6579067D01*
X4780300Y-10387000D02*
X5080300Y-10687000D01*
X5080300Y-10387000D02*
X4780300Y-10687000D01*
X5036367Y-10643067D02*
X5036367Y-10430933D01*
X4824233Y-10430933D01*
X4824233Y-10643067D01*
X5036367Y-10643067D01*
X5415300Y-10133000D02*
X5715300Y-10433000D01*
X5715300Y-10133000D02*
X5415300Y-10433000D01*
X5671367Y-10389067D02*
X5671367Y-10176933D01*
X5459233Y-10176933D01*
X5459233Y-10389067D01*
X5671367Y-10389067D01*
X16945000Y-12801000D02*
X17265000Y-13121000D01*
X17265000Y-12801000D02*
X16945000Y-13121000D01*
X17105000Y-13121000D02*
X17265000Y-12961000D01*
X17105000Y-12801000D01*
X16945000Y-12961000D01*
X17105000Y-13121000D01*
X2432000Y-3128000D02*
X2752000Y-3448000D01*
X2752000Y-3128000D02*
X2432000Y-3448000D01*
X2592000Y-3448000D02*
X2752000Y-3288000D01*
X2592000Y-3128000D01*
X2432000Y-3288000D01*
X2592000Y-3448000D01*
X15514000Y-3129000D02*
X15834000Y-3449000D01*
X15834000Y-3129000D02*
X15514000Y-3449000D01*
X15674000Y-3449000D02*
X15834000Y-3289000D01*
X15674000Y-3129000D01*
X15514000Y-3289000D01*
X15674000Y-3449000D01*
X6691000Y-8917000D02*
X7011000Y-9237000D01*
X7011000Y-8917000D02*
X6691000Y-9237000D01*
X6851000Y-9237000D02*
X7011000Y-9077000D01*
X6851000Y-8917000D01*
X6691000Y-9077000D01*
X6851000Y-9237000D01*
X2430000Y-5333000D02*
X2750000Y-5653000D01*
X2750000Y-5333000D02*
X2430000Y-5653000D01*
X2590000Y-5653000D02*
X2750000Y-5493000D01*
X2590000Y-5333000D01*
X2430000Y-5493000D01*
X2590000Y-5653000D01*
X2432000Y-12799000D02*
X2752000Y-13119000D01*
X2752000Y-12799000D02*
X2432000Y-13119000D01*
X2592000Y-13119000D02*
X2752000Y-12959000D01*
X2592000Y-12799000D01*
X2432000Y-12959000D01*
X2592000Y-13119000D01*
X14788000Y-5333000D02*
X15108000Y-5653000D01*
X15108000Y-5333000D02*
X14788000Y-5653000D01*
X14948000Y-5653000D02*
X15108000Y-5493000D01*
X14948000Y-5333000D01*
X14788000Y-5493000D01*
X14948000Y-5653000D01*
X14311000Y-8918000D02*
X14631000Y-9238000D01*
X14631000Y-8918000D02*
X14311000Y-9238000D01*
X14471000Y-9238000D02*
X14631000Y-9078000D01*
X14471000Y-8918000D01*
X14311000Y-9078000D01*
X14471000Y-9238000D01*
X6375500Y-6019000D02*
X6375500Y-6419000D01*
X6175500Y-6219000D02*
X6575500Y-6219000D01*
X6575500Y-6219000D02*
G75*
G03X6575500Y-6219000I-200000J0D01*
G01*
X14471700Y-7924000D02*
X14471700Y-8324000D01*
X14271700Y-8124000D02*
X14671700Y-8124000D01*
X14671700Y-8124000D02*
G75*
G03X14671700Y-8124000I-200000J0D01*
G01*
X16376700Y-7924000D02*
X16376700Y-8324000D01*
X16176700Y-8124000D02*
X16576700Y-8124000D01*
X16576700Y-8124000D02*
G75*
G03X16576700Y-8124000I-200000J0D01*
G01*
X10185500Y-6019000D02*
X10185500Y-6419000D01*
X9985500Y-6219000D02*
X10385500Y-6219000D01*
X10385500Y-6219000D02*
G75*
G03X10385500Y-6219000I-200000J0D01*
G01*
X7804200Y-9829000D02*
X7804200Y-10229000D01*
X7604200Y-10029000D02*
X8004200Y-10029000D01*
X8004200Y-10029000D02*
G75*
G03X8004200Y-10029000I-200000J0D01*
G01*
X5423000Y-4114000D02*
X5423000Y-4514000D01*
X5223000Y-4314000D02*
X5623000Y-4314000D01*
X5623000Y-4314000D02*
G75*
G03X5623000Y-4314000I-200000J0D01*
G01*
X13995500Y-6019000D02*
X13995500Y-6419000D01*
X13795500Y-6219000D02*
X14195500Y-6219000D01*
X14195500Y-6219000D02*
G75*
G03X14195500Y-6219000I-200000J0D01*
G01*
X11614200Y-9829000D02*
X11614200Y-10229000D01*
X11414200Y-10029000D02*
X11814200Y-10029000D01*
X11814200Y-10029000D02*
G75*
G03X11814200Y-10029000I-200000J0D01*
G01*
X9233000Y-4114000D02*
X9233000Y-4514000D01*
X9033000Y-4314000D02*
X9433000Y-4314000D01*
X9433000Y-4314000D02*
G75*
G03X9433000Y-4314000I-200000J0D01*
G01*
X4232375Y-7924000D02*
X4232375Y-8324000D01*
X4032375Y-8124000D02*
X4432375Y-8124000D01*
X4432375Y-8124000D02*
G75*
G03X4432375Y-8124000I-200000J0D01*
G01*
X15424200Y-9829000D02*
X15424200Y-10229000D01*
X15224200Y-10029000D02*
X15624200Y-10029000D01*
X15624200Y-10029000D02*
G75*
G03X15624200Y-10029000I-200000J0D01*
G01*
X13043000Y-4114000D02*
X13043000Y-4514000D01*
X12843000Y-4314000D02*
X13243000Y-4314000D01*
X13243000Y-4314000D02*
G75*
G03X13243000Y-4314000I-200000J0D01*
G01*
X8756700Y-7924000D02*
X8756700Y-8324000D01*
X8556700Y-8124000D02*
X8956700Y-8124000D01*
X8956700Y-8124000D02*
G75*
G03X8956700Y-8124000I-200000J0D01*
G01*
X10899825Y-11734000D02*
X10899825Y-12134000D01*
X10699825Y-11934000D02*
X11099825Y-11934000D01*
X11099825Y-11934000D02*
G75*
G03X11099825Y-11934000I-200000J0D01*
G01*
X3994250Y-6019000D02*
X3994250Y-6419000D01*
X3794250Y-6219000D02*
X4194250Y-6219000D01*
X4194250Y-6219000D02*
G75*
G03X4194250Y-6219000I-200000J0D01*
G01*
X12566700Y-7924000D02*
X12566700Y-8324000D01*
X12366700Y-8124000D02*
X12766700Y-8124000D01*
X12766700Y-8124000D02*
G75*
G03X12766700Y-8124000I-200000J0D01*
G01*
X16376700Y-11734000D02*
X16376700Y-12134000D01*
X16176700Y-11934000D02*
X16576700Y-11934000D01*
X16576700Y-11934000D02*
G75*
G03X16576700Y-11934000I-200000J0D01*
G01*
X8280500Y-6019000D02*
X8280500Y-6419000D01*
X8080500Y-6219000D02*
X8480500Y-6219000D01*
X8480500Y-6219000D02*
G75*
G03X8480500Y-6219000I-200000J0D01*
G01*
X5184300Y-9829000D02*
X5184300Y-10229000D01*
X4984300Y-10029000D02*
X5384300Y-10029000D01*
X5384300Y-10029000D02*
G75*
G03X5384300Y-10029000I-200000J0D01*
G01*
X3518000Y-4114000D02*
X3518000Y-4514000D01*
X3318000Y-4314000D02*
X3718000Y-4314000D01*
X3718000Y-4314000D02*
G75*
G03X3718000Y-4314000I-200000J0D01*
G01*
X12090500Y-6019000D02*
X12090500Y-6419000D01*
X11890500Y-6219000D02*
X12290500Y-6219000D01*
X12290500Y-6219000D02*
G75*
G03X12290500Y-6219000I-200000J0D01*
G01*
X9709200Y-9829000D02*
X9709200Y-10229000D01*
X9509200Y-10029000D02*
X9909200Y-10029000D01*
X9909200Y-10029000D02*
G75*
G03X9909200Y-10029000I-200000J0D01*
G01*
X7328000Y-4114000D02*
X7328000Y-4514000D01*
X7128000Y-4314000D02*
X7528000Y-4314000D01*
X7528000Y-4314000D02*
G75*
G03X7528000Y-4314000I-200000J0D01*
G01*
X15900500Y-6019000D02*
X15900500Y-6419000D01*
X15700500Y-6219000D02*
X16100500Y-6219000D01*
X16100500Y-6219000D02*
G75*
G03X16100500Y-6219000I-200000J0D01*
G01*
X13519200Y-9829000D02*
X13519200Y-10229000D01*
X13319200Y-10029000D02*
X13719200Y-10029000D01*
X13719200Y-10029000D02*
G75*
G03X13719200Y-10029000I-200000J0D01*
G01*
X11138000Y-4114000D02*
X11138000Y-4514000D01*
X10938000Y-4314000D02*
X11338000Y-4314000D01*
X11338000Y-4314000D02*
G75*
G03X11338000Y-4314000I-200000J0D01*
G01*
X6851700Y-7924000D02*
X6851700Y-8324000D01*
X6651700Y-8124000D02*
X7051700Y-8124000D01*
X7051700Y-8124000D02*
G75*
G03X7051700Y-8124000I-200000J0D01*
G01*
X8518575Y-11734000D02*
X8518575Y-12134000D01*
X8318575Y-11934000D02*
X8718575Y-11934000D01*
X8718575Y-11934000D02*
G75*
G03X8718575Y-11934000I-200000J0D01*
G01*
X14948000Y-4114000D02*
X14948000Y-4514000D01*
X14748000Y-4314000D02*
X15148000Y-4314000D01*
X15148000Y-4314000D02*
G75*
G03X15148000Y-4314000I-200000J0D01*
G01*
X10661700Y-7924000D02*
X10661700Y-8324000D01*
X10461700Y-8124000D02*
X10861700Y-8124000D01*
X10861700Y-8124000D02*
G75*
G03X10861700Y-8124000I-200000J0D01*
G01*
X14471700Y-11734000D02*
X14471700Y-12134000D01*
X14271700Y-11934000D02*
X14671700Y-11934000D01*
X14671700Y-11934000D02*
G75*
G03X14671700Y-11934000I-200000J0D01*
G01*
D12*
X2643928Y-13659214D02*
X2643928Y-13359214D01*
X2715357Y-13359214D01*
X2758214Y-13373500D01*
X2786786Y-13402071D01*
X2801071Y-13430643D01*
X2815357Y-13487786D01*
X2815357Y-13530643D01*
X2801071Y-13587786D01*
X2786786Y-13616357D01*
X2758214Y-13644929D01*
X2715357Y-13659214D01*
X2643928Y-13659214D01*
X2943928Y-13659214D02*
X2943928Y-13459214D01*
X2943928Y-13516357D02*
X2958214Y-13487786D01*
X2972500Y-13473500D01*
X3001071Y-13459214D01*
X3029643Y-13459214D01*
X3129643Y-13659214D02*
X3129643Y-13459214D01*
X3129643Y-13359214D02*
X3115357Y-13373500D01*
X3129643Y-13387786D01*
X3143928Y-13373500D01*
X3129643Y-13359214D01*
X3129643Y-13387786D01*
X3315357Y-13659214D02*
X3286786Y-13644929D01*
X3272500Y-13616357D01*
X3272500Y-13359214D01*
X3472500Y-13659214D02*
X3443928Y-13644929D01*
X3429643Y-13616357D01*
X3429643Y-13359214D01*
X3815357Y-13659214D02*
X3815357Y-13359214D01*
X3915357Y-13573500D01*
X4015357Y-13359214D01*
X4015357Y-13659214D01*
X4286786Y-13659214D02*
X4286786Y-13502071D01*
X4272500Y-13473500D01*
X4243928Y-13459214D01*
X4186786Y-13459214D01*
X4158214Y-13473500D01*
X4286786Y-13644929D02*
X4258214Y-13659214D01*
X4186786Y-13659214D01*
X4158214Y-13644929D01*
X4143928Y-13616357D01*
X4143928Y-13587786D01*
X4158214Y-13559214D01*
X4186786Y-13544929D01*
X4258214Y-13544929D01*
X4286786Y-13530643D01*
X4429643Y-13459214D02*
X4429643Y-13759214D01*
X4429643Y-13473500D02*
X4458214Y-13459214D01*
X4515357Y-13459214D01*
X4543928Y-13473500D01*
X4558214Y-13487786D01*
X4572500Y-13516357D01*
X4572500Y-13602071D01*
X4558214Y-13630643D01*
X4543928Y-13644929D01*
X4515357Y-13659214D01*
X4458214Y-13659214D01*
X4429643Y-13644929D01*
X4701071Y-13630643D02*
X4715357Y-13644929D01*
X4701071Y-13659214D01*
X4686786Y-13644929D01*
X4701071Y-13630643D01*
X4701071Y-13659214D01*
X4701071Y-13473500D02*
X4715357Y-13487786D01*
X4701071Y-13502071D01*
X4686786Y-13487786D01*
X4701071Y-13473500D01*
X4701071Y-13502071D01*
X2317500Y-14133500D02*
X2357500Y-14173500D01*
X2357500Y-14133500D02*
X2317500Y-14173500D01*
X2701071Y-13989214D02*
X2729643Y-13989214D01*
X2758214Y-14003500D01*
X2772500Y-14017786D01*
X2786786Y-14046357D01*
X2801071Y-14103500D01*
X2801071Y-14174929D01*
X2786786Y-14232071D01*
X2772500Y-14260643D01*
X2758214Y-14274929D01*
X2729643Y-14289214D01*
X2701071Y-14289214D01*
X2672500Y-14274929D01*
X2658214Y-14260643D01*
X2643928Y-14232071D01*
X2629643Y-14174929D01*
X2629643Y-14103500D01*
X2643928Y-14046357D01*
X2658214Y-14017786D01*
X2672500Y-14003500D01*
X2701071Y-13989214D01*
X2929643Y-14260643D02*
X2943928Y-14274929D01*
X2929643Y-14289214D01*
X2915357Y-14274929D01*
X2929643Y-14260643D01*
X2929643Y-14289214D01*
X3201071Y-14089214D02*
X3201071Y-14289214D01*
X3129643Y-13974929D02*
X3058214Y-14189214D01*
X3243928Y-14189214D01*
X3415357Y-13989214D02*
X3443928Y-13989214D01*
X3472500Y-14003500D01*
X3486786Y-14017786D01*
X3501071Y-14046357D01*
X3515357Y-14103500D01*
X3515357Y-14174929D01*
X3501071Y-14232071D01*
X3486786Y-14260643D01*
X3472500Y-14274929D01*
X3443928Y-14289214D01*
X3415357Y-14289214D01*
X3386786Y-14274929D01*
X3372500Y-14260643D01*
X3358214Y-14232071D01*
X3343928Y-14174929D01*
X3343928Y-14103500D01*
X3358214Y-14046357D01*
X3372500Y-14017786D01*
X3386786Y-14003500D01*
X3415357Y-13989214D01*
X3643928Y-14289214D02*
X3643928Y-14089214D01*
X3643928Y-14117786D02*
X3658214Y-14103500D01*
X3686786Y-14089214D01*
X3729643Y-14089214D01*
X3758214Y-14103500D01*
X3772500Y-14132071D01*
X3772500Y-14289214D01*
X3772500Y-14132071D02*
X3786786Y-14103500D01*
X3815357Y-14089214D01*
X3858214Y-14089214D01*
X3886786Y-14103500D01*
X3901071Y-14132071D01*
X3901071Y-14289214D01*
X4043928Y-14289214D02*
X4043928Y-14089214D01*
X4043928Y-14117786D02*
X4058214Y-14103500D01*
X4086786Y-14089214D01*
X4129643Y-14089214D01*
X4158214Y-14103500D01*
X4172500Y-14132071D01*
X4172500Y-14289214D01*
X4172500Y-14132071D02*
X4186786Y-14103500D01*
X4215357Y-14089214D01*
X4258214Y-14089214D01*
X4286786Y-14103500D01*
X4301071Y-14132071D01*
X4301071Y-14289214D01*
X4886786Y-13974929D02*
X4629643Y-14360643D01*
X5272500Y-13989214D02*
X5301071Y-13989214D01*
X5329643Y-14003500D01*
X5343928Y-14017786D01*
X5358214Y-14046357D01*
X5372500Y-14103500D01*
X5372500Y-14174929D01*
X5358214Y-14232071D01*
X5343928Y-14260643D01*
X5329643Y-14274929D01*
X5301071Y-14289214D01*
X5272500Y-14289214D01*
X5243928Y-14274929D01*
X5229643Y-14260643D01*
X5215357Y-14232071D01*
X5201071Y-14174929D01*
X5201071Y-14103500D01*
X5215357Y-14046357D01*
X5229643Y-14017786D01*
X5243928Y-14003500D01*
X5272500Y-13989214D01*
X5501071Y-14260643D02*
X5515357Y-14274929D01*
X5501071Y-14289214D01*
X5486786Y-14274929D01*
X5501071Y-14260643D01*
X5501071Y-14289214D01*
X5701071Y-13989214D02*
X5729643Y-13989214D01*
X5758214Y-14003500D01*
X5772500Y-14017786D01*
X5786786Y-14046357D01*
X5801071Y-14103500D01*
X5801071Y-14174929D01*
X5786786Y-14232071D01*
X5772500Y-14260643D01*
X5758214Y-14274929D01*
X5729643Y-14289214D01*
X5701071Y-14289214D01*
X5672500Y-14274929D01*
X5658214Y-14260643D01*
X5643928Y-14232071D01*
X5629643Y-14174929D01*
X5629643Y-14103500D01*
X5643928Y-14046357D01*
X5658214Y-14017786D01*
X5672500Y-14003500D01*
X5701071Y-13989214D01*
X6086786Y-14289214D02*
X5915357Y-14289214D01*
X6001071Y-14289214D02*
X6001071Y-13989214D01*
X5972500Y-14032071D01*
X5943928Y-14060643D01*
X5915357Y-14074929D01*
X6343928Y-13989214D02*
X6286786Y-13989214D01*
X6258214Y-14003500D01*
X6243928Y-14017786D01*
X6215357Y-14060643D01*
X6201071Y-14117786D01*
X6201071Y-14232071D01*
X6215357Y-14260643D01*
X6229643Y-14274929D01*
X6258214Y-14289214D01*
X6315357Y-14289214D01*
X6343928Y-14274929D01*
X6358214Y-14260643D01*
X6372500Y-14232071D01*
X6372500Y-14160643D01*
X6358214Y-14132071D01*
X6343928Y-14117786D01*
X6315357Y-14103500D01*
X6258214Y-14103500D01*
X6229643Y-14117786D01*
X6215357Y-14132071D01*
X6201071Y-14160643D01*
X6486786Y-13989214D02*
X6486786Y-14046357D01*
X6601071Y-13989214D02*
X6601071Y-14046357D01*
X7043928Y-14403500D02*
X7029643Y-14389214D01*
X7001071Y-14346357D01*
X6986786Y-14317786D01*
X6972500Y-14274929D01*
X6958214Y-14203500D01*
X6958214Y-14146357D01*
X6972500Y-14074929D01*
X6986786Y-14032071D01*
X7001071Y-14003500D01*
X7029643Y-13960643D01*
X7043928Y-13946357D01*
X7315357Y-14289214D02*
X7143928Y-14289214D01*
X7229643Y-14289214D02*
X7229643Y-13989214D01*
X7201071Y-14032071D01*
X7172500Y-14060643D01*
X7143928Y-14074929D01*
X7601071Y-14289214D02*
X7429643Y-14289214D01*
X7515357Y-14289214D02*
X7515357Y-13989214D01*
X7486786Y-14032071D01*
X7458214Y-14060643D01*
X7429643Y-14074929D01*
X7715357Y-14017786D02*
X7729643Y-14003500D01*
X7758214Y-13989214D01*
X7829643Y-13989214D01*
X7858214Y-14003500D01*
X7872500Y-14017786D01*
X7886786Y-14046357D01*
X7886786Y-14074929D01*
X7872500Y-14117786D01*
X7701071Y-14289214D01*
X7886786Y-14289214D01*
X8243928Y-14289214D02*
X8243928Y-13989214D01*
X8372500Y-14289214D02*
X8372500Y-14132071D01*
X8358214Y-14103500D01*
X8329643Y-14089214D01*
X8286786Y-14089214D01*
X8258214Y-14103500D01*
X8243928Y-14117786D01*
X8558214Y-14289214D02*
X8529643Y-14274929D01*
X8515357Y-14260643D01*
X8501071Y-14232071D01*
X8501071Y-14146357D01*
X8515357Y-14117786D01*
X8529643Y-14103500D01*
X8558214Y-14089214D01*
X8601071Y-14089214D01*
X8629643Y-14103500D01*
X8643928Y-14117786D01*
X8658214Y-14146357D01*
X8658214Y-14232071D01*
X8643928Y-14260643D01*
X8629643Y-14274929D01*
X8601071Y-14289214D01*
X8558214Y-14289214D01*
X8829643Y-14289214D02*
X8801071Y-14274929D01*
X8786786Y-14246357D01*
X8786786Y-13989214D01*
X9058214Y-14274929D02*
X9029643Y-14289214D01*
X8972500Y-14289214D01*
X8943928Y-14274929D01*
X8929643Y-14246357D01*
X8929643Y-14132071D01*
X8943928Y-14103500D01*
X8972500Y-14089214D01*
X9029643Y-14089214D01*
X9058214Y-14103500D01*
X9072500Y-14132071D01*
X9072500Y-14160643D01*
X8929643Y-14189214D01*
X9186786Y-14274929D02*
X9215357Y-14289214D01*
X9272500Y-14289214D01*
X9301071Y-14274929D01*
X9315357Y-14246357D01*
X9315357Y-14232071D01*
X9301071Y-14203500D01*
X9272500Y-14189214D01*
X9229643Y-14189214D01*
X9201071Y-14174929D01*
X9186786Y-14146357D01*
X9186786Y-14132071D01*
X9201071Y-14103500D01*
X9229643Y-14089214D01*
X9272500Y-14089214D01*
X9301071Y-14103500D01*
X9415357Y-14403500D02*
X9429643Y-14389214D01*
X9458214Y-14346357D01*
X9472500Y-14317786D01*
X9486786Y-14274929D01*
X9501071Y-14203500D01*
X9501071Y-14146357D01*
X9486786Y-14074929D01*
X9472500Y-14032071D01*
X9458214Y-14003500D01*
X9429643Y-13960643D01*
X9415357Y-13946357D01*
X2357500Y-14549500D02*
G75*
G03X2357500Y-14549500I-40640J0D01*
G01*
X2701071Y-14385214D02*
X2729643Y-14385214D01*
X2758214Y-14399500D01*
X2772500Y-14413786D01*
X2786786Y-14442357D01*
X2801071Y-14499500D01*
X2801071Y-14570929D01*
X2786786Y-14628071D01*
X2772500Y-14656643D01*
X2758214Y-14670929D01*
X2729643Y-14685214D01*
X2701071Y-14685214D01*
X2672500Y-14670929D01*
X2658214Y-14656643D01*
X2643928Y-14628071D01*
X2629643Y-14570929D01*
X2629643Y-14499500D01*
X2643928Y-14442357D01*
X2658214Y-14413786D01*
X2672500Y-14399500D01*
X2701071Y-14385214D01*
X2929643Y-14656643D02*
X2943928Y-14670929D01*
X2929643Y-14685214D01*
X2915357Y-14670929D01*
X2929643Y-14656643D01*
X2929643Y-14685214D01*
X3115357Y-14513786D02*
X3086786Y-14499500D01*
X3072500Y-14485214D01*
X3058214Y-14456643D01*
X3058214Y-14442357D01*
X3072500Y-14413786D01*
X3086786Y-14399500D01*
X3115357Y-14385214D01*
X3172500Y-14385214D01*
X3201071Y-14399500D01*
X3215357Y-14413786D01*
X3229643Y-14442357D01*
X3229643Y-14456643D01*
X3215357Y-14485214D01*
X3201071Y-14499500D01*
X3172500Y-14513786D01*
X3115357Y-14513786D01*
X3086786Y-14528071D01*
X3072500Y-14542357D01*
X3058214Y-14570929D01*
X3058214Y-14628071D01*
X3072500Y-14656643D01*
X3086786Y-14670929D01*
X3115357Y-14685214D01*
X3172500Y-14685214D01*
X3201071Y-14670929D01*
X3215357Y-14656643D01*
X3229643Y-14628071D01*
X3229643Y-14570929D01*
X3215357Y-14542357D01*
X3201071Y-14528071D01*
X3172500Y-14513786D01*
X3515357Y-14685214D02*
X3343928Y-14685214D01*
X3429643Y-14685214D02*
X3429643Y-14385214D01*
X3401071Y-14428071D01*
X3372500Y-14456643D01*
X3343928Y-14470929D01*
X3643928Y-14685214D02*
X3643928Y-14485214D01*
X3643928Y-14513786D02*
X3658214Y-14499500D01*
X3686786Y-14485214D01*
X3729643Y-14485214D01*
X3758214Y-14499500D01*
X3772500Y-14528071D01*
X3772500Y-14685214D01*
X3772500Y-14528071D02*
X3786786Y-14499500D01*
X3815357Y-14485214D01*
X3858214Y-14485214D01*
X3886786Y-14499500D01*
X3901071Y-14528071D01*
X3901071Y-14685214D01*
X4043928Y-14685214D02*
X4043928Y-14485214D01*
X4043928Y-14513786D02*
X4058214Y-14499500D01*
X4086786Y-14485214D01*
X4129643Y-14485214D01*
X4158214Y-14499500D01*
X4172500Y-14528071D01*
X4172500Y-14685214D01*
X4172500Y-14528071D02*
X4186786Y-14499500D01*
X4215357Y-14485214D01*
X4258214Y-14485214D01*
X4286786Y-14499500D01*
X4301071Y-14528071D01*
X4301071Y-14685214D01*
X4886786Y-14370929D02*
X4629643Y-14756643D01*
X5272500Y-14385214D02*
X5301071Y-14385214D01*
X5329643Y-14399500D01*
X5343928Y-14413786D01*
X5358214Y-14442357D01*
X5372500Y-14499500D01*
X5372500Y-14570929D01*
X5358214Y-14628071D01*
X5343928Y-14656643D01*
X5329643Y-14670929D01*
X5301071Y-14685214D01*
X5272500Y-14685214D01*
X5243928Y-14670929D01*
X5229643Y-14656643D01*
X5215357Y-14628071D01*
X5201071Y-14570929D01*
X5201071Y-14499500D01*
X5215357Y-14442357D01*
X5229643Y-14413786D01*
X5243928Y-14399500D01*
X5272500Y-14385214D01*
X5501071Y-14656643D02*
X5515357Y-14670929D01*
X5501071Y-14685214D01*
X5486786Y-14670929D01*
X5501071Y-14656643D01*
X5501071Y-14685214D01*
X5701071Y-14385214D02*
X5729643Y-14385214D01*
X5758214Y-14399500D01*
X5772500Y-14413786D01*
X5786786Y-14442357D01*
X5801071Y-14499500D01*
X5801071Y-14570929D01*
X5786786Y-14628071D01*
X5772500Y-14656643D01*
X5758214Y-14670929D01*
X5729643Y-14685214D01*
X5701071Y-14685214D01*
X5672500Y-14670929D01*
X5658214Y-14656643D01*
X5643928Y-14628071D01*
X5629643Y-14570929D01*
X5629643Y-14499500D01*
X5643928Y-14442357D01*
X5658214Y-14413786D01*
X5672500Y-14399500D01*
X5701071Y-14385214D01*
X5901071Y-14385214D02*
X6086786Y-14385214D01*
X5986786Y-14499500D01*
X6029643Y-14499500D01*
X6058214Y-14513786D01*
X6072500Y-14528071D01*
X6086786Y-14556643D01*
X6086786Y-14628071D01*
X6072500Y-14656643D01*
X6058214Y-14670929D01*
X6029643Y-14685214D01*
X5943928Y-14685214D01*
X5915357Y-14670929D01*
X5901071Y-14656643D01*
X6201071Y-14413786D02*
X6215357Y-14399500D01*
X6243928Y-14385214D01*
X6315357Y-14385214D01*
X6343928Y-14399500D01*
X6358214Y-14413786D01*
X6372500Y-14442357D01*
X6372500Y-14470929D01*
X6358214Y-14513786D01*
X6186786Y-14685214D01*
X6372500Y-14685214D01*
X6486786Y-14385214D02*
X6486786Y-14442357D01*
X6601071Y-14385214D02*
X6601071Y-14442357D01*
X7043928Y-14799500D02*
X7029643Y-14785214D01*
X7001071Y-14742357D01*
X6986786Y-14713786D01*
X6972500Y-14670929D01*
X6958214Y-14599500D01*
X6958214Y-14542357D01*
X6972500Y-14470929D01*
X6986786Y-14428071D01*
X7001071Y-14399500D01*
X7029643Y-14356643D01*
X7043928Y-14342357D01*
X7286786Y-14485214D02*
X7286786Y-14685214D01*
X7215357Y-14370929D02*
X7143928Y-14585214D01*
X7329643Y-14585214D01*
X7672500Y-14685214D02*
X7672500Y-14385214D01*
X7801071Y-14685214D02*
X7801071Y-14528071D01*
X7786786Y-14499500D01*
X7758214Y-14485214D01*
X7715357Y-14485214D01*
X7686786Y-14499500D01*
X7672500Y-14513786D01*
X7986786Y-14685214D02*
X7958214Y-14670929D01*
X7943928Y-14656643D01*
X7929643Y-14628071D01*
X7929643Y-14542357D01*
X7943928Y-14513786D01*
X7958214Y-14499500D01*
X7986786Y-14485214D01*
X8029643Y-14485214D01*
X8058214Y-14499500D01*
X8072500Y-14513786D01*
X8086786Y-14542357D01*
X8086786Y-14628071D01*
X8072500Y-14656643D01*
X8058214Y-14670929D01*
X8029643Y-14685214D01*
X7986786Y-14685214D01*
X8258214Y-14685214D02*
X8229643Y-14670929D01*
X8215357Y-14642357D01*
X8215357Y-14385214D01*
X8486786Y-14670929D02*
X8458214Y-14685214D01*
X8401071Y-14685214D01*
X8372500Y-14670929D01*
X8358214Y-14642357D01*
X8358214Y-14528071D01*
X8372500Y-14499500D01*
X8401071Y-14485214D01*
X8458214Y-14485214D01*
X8486786Y-14499500D01*
X8501071Y-14528071D01*
X8501071Y-14556643D01*
X8358214Y-14585214D01*
X8615357Y-14670929D02*
X8643928Y-14685214D01*
X8701071Y-14685214D01*
X8729643Y-14670929D01*
X8743928Y-14642357D01*
X8743928Y-14628071D01*
X8729643Y-14599500D01*
X8701071Y-14585214D01*
X8658214Y-14585214D01*
X8629643Y-14570929D01*
X8615357Y-14542357D01*
X8615357Y-14528071D01*
X8629643Y-14499500D01*
X8658214Y-14485214D01*
X8701071Y-14485214D01*
X8729643Y-14499500D01*
X8843928Y-14799500D02*
X8858214Y-14785214D01*
X8886786Y-14742357D01*
X8901071Y-14713786D01*
X8915357Y-14670929D01*
X8929643Y-14599500D01*
X8929643Y-14542357D01*
X8915357Y-14470929D01*
X8901071Y-14428071D01*
X8886786Y-14399500D01*
X8858214Y-14356643D01*
X8843928Y-14342357D01*
X2307500Y-14895500D02*
X2307500Y-14995500D01*
X2257500Y-14945500D02*
X2357500Y-14945500D01*
X2801071Y-15081214D02*
X2629643Y-15081214D01*
X2715357Y-15081214D02*
X2715357Y-14781214D01*
X2686786Y-14824071D01*
X2658214Y-14852643D01*
X2629643Y-14866929D01*
X2929643Y-15052643D02*
X2943928Y-15066929D01*
X2929643Y-15081214D01*
X2915357Y-15066929D01*
X2929643Y-15052643D01*
X2929643Y-15081214D01*
X3129643Y-14781214D02*
X3158214Y-14781214D01*
X3186786Y-14795500D01*
X3201071Y-14809786D01*
X3215357Y-14838357D01*
X3229643Y-14895500D01*
X3229643Y-14966929D01*
X3215357Y-15024071D01*
X3201071Y-15052643D01*
X3186786Y-15066929D01*
X3158214Y-15081214D01*
X3129643Y-15081214D01*
X3101071Y-15066929D01*
X3086786Y-15052643D01*
X3072500Y-15024071D01*
X3058214Y-14966929D01*
X3058214Y-14895500D01*
X3072500Y-14838357D01*
X3086786Y-14809786D01*
X3101071Y-14795500D01*
X3129643Y-14781214D01*
X3415357Y-14781214D02*
X3443928Y-14781214D01*
X3472500Y-14795500D01*
X3486786Y-14809786D01*
X3501071Y-14838357D01*
X3515357Y-14895500D01*
X3515357Y-14966929D01*
X3501071Y-15024071D01*
X3486786Y-15052643D01*
X3472500Y-15066929D01*
X3443928Y-15081214D01*
X3415357Y-15081214D01*
X3386786Y-15066929D01*
X3372500Y-15052643D01*
X3358214Y-15024071D01*
X3343928Y-14966929D01*
X3343928Y-14895500D01*
X3358214Y-14838357D01*
X3372500Y-14809786D01*
X3386786Y-14795500D01*
X3415357Y-14781214D01*
X3643928Y-15081214D02*
X3643928Y-14881214D01*
X3643928Y-14909786D02*
X3658214Y-14895500D01*
X3686786Y-14881214D01*
X3729643Y-14881214D01*
X3758214Y-14895500D01*
X3772500Y-14924071D01*
X3772500Y-15081214D01*
X3772500Y-14924071D02*
X3786786Y-14895500D01*
X3815357Y-14881214D01*
X3858214Y-14881214D01*
X3886786Y-14895500D01*
X3901071Y-14924071D01*
X3901071Y-15081214D01*
X4043928Y-15081214D02*
X4043928Y-14881214D01*
X4043928Y-14909786D02*
X4058214Y-14895500D01*
X4086786Y-14881214D01*
X4129643Y-14881214D01*
X4158214Y-14895500D01*
X4172500Y-14924071D01*
X4172500Y-15081214D01*
X4172500Y-14924071D02*
X4186786Y-14895500D01*
X4215357Y-14881214D01*
X4258214Y-14881214D01*
X4286786Y-14895500D01*
X4301071Y-14924071D01*
X4301071Y-15081214D01*
X4886786Y-14766929D02*
X4629643Y-15152643D01*
X5272500Y-14781214D02*
X5301071Y-14781214D01*
X5329643Y-14795500D01*
X5343928Y-14809786D01*
X5358214Y-14838357D01*
X5372500Y-14895500D01*
X5372500Y-14966929D01*
X5358214Y-15024071D01*
X5343928Y-15052643D01*
X5329643Y-15066929D01*
X5301071Y-15081214D01*
X5272500Y-15081214D01*
X5243928Y-15066929D01*
X5229643Y-15052643D01*
X5215357Y-15024071D01*
X5201071Y-14966929D01*
X5201071Y-14895500D01*
X5215357Y-14838357D01*
X5229643Y-14809786D01*
X5243928Y-14795500D01*
X5272500Y-14781214D01*
X5501071Y-15052643D02*
X5515357Y-15066929D01*
X5501071Y-15081214D01*
X5486786Y-15066929D01*
X5501071Y-15052643D01*
X5501071Y-15081214D01*
X5701071Y-14781214D02*
X5729643Y-14781214D01*
X5758214Y-14795500D01*
X5772500Y-14809786D01*
X5786786Y-14838357D01*
X5801071Y-14895500D01*
X5801071Y-14966929D01*
X5786786Y-15024071D01*
X5772500Y-15052643D01*
X5758214Y-15066929D01*
X5729643Y-15081214D01*
X5701071Y-15081214D01*
X5672500Y-15066929D01*
X5658214Y-15052643D01*
X5643928Y-15024071D01*
X5629643Y-14966929D01*
X5629643Y-14895500D01*
X5643928Y-14838357D01*
X5658214Y-14809786D01*
X5672500Y-14795500D01*
X5701071Y-14781214D01*
X5901071Y-14781214D02*
X6086786Y-14781214D01*
X5986786Y-14895500D01*
X6029643Y-14895500D01*
X6058214Y-14909786D01*
X6072500Y-14924071D01*
X6086786Y-14952643D01*
X6086786Y-15024071D01*
X6072500Y-15052643D01*
X6058214Y-15066929D01*
X6029643Y-15081214D01*
X5943928Y-15081214D01*
X5915357Y-15066929D01*
X5901071Y-15052643D01*
X6229643Y-15081214D02*
X6286786Y-15081214D01*
X6315357Y-15066929D01*
X6329643Y-15052643D01*
X6358214Y-15009786D01*
X6372500Y-14952643D01*
X6372500Y-14838357D01*
X6358214Y-14809786D01*
X6343928Y-14795500D01*
X6315357Y-14781214D01*
X6258214Y-14781214D01*
X6229643Y-14795500D01*
X6215357Y-14809786D01*
X6201071Y-14838357D01*
X6201071Y-14909786D01*
X6215357Y-14938357D01*
X6229643Y-14952643D01*
X6258214Y-14966929D01*
X6315357Y-14966929D01*
X6343928Y-14952643D01*
X6358214Y-14938357D01*
X6372500Y-14909786D01*
X6486786Y-14781214D02*
X6486786Y-14838357D01*
X6601071Y-14781214D02*
X6601071Y-14838357D01*
X7043928Y-15195500D02*
X7029643Y-15181214D01*
X7001071Y-15138357D01*
X6986786Y-15109786D01*
X6972500Y-15066929D01*
X6958214Y-14995500D01*
X6958214Y-14938357D01*
X6972500Y-14866929D01*
X6986786Y-14824071D01*
X7001071Y-14795500D01*
X7029643Y-14752643D01*
X7043928Y-14738357D01*
X7215357Y-14781214D02*
X7243928Y-14781214D01*
X7272500Y-14795500D01*
X7286786Y-14809786D01*
X7301071Y-14838357D01*
X7315357Y-14895500D01*
X7315357Y-14966929D01*
X7301071Y-15024071D01*
X7286786Y-15052643D01*
X7272500Y-15066929D01*
X7243928Y-15081214D01*
X7215357Y-15081214D01*
X7186786Y-15066929D01*
X7172500Y-15052643D01*
X7158214Y-15024071D01*
X7143928Y-14966929D01*
X7143928Y-14895500D01*
X7158214Y-14838357D01*
X7172500Y-14809786D01*
X7186786Y-14795500D01*
X7215357Y-14781214D01*
X7672500Y-15081214D02*
X7672500Y-14781214D01*
X7801071Y-15081214D02*
X7801071Y-14924071D01*
X7786786Y-14895500D01*
X7758214Y-14881214D01*
X7715357Y-14881214D01*
X7686786Y-14895500D01*
X7672500Y-14909786D01*
X7986786Y-15081214D02*
X7958214Y-15066929D01*
X7943928Y-15052643D01*
X7929643Y-15024071D01*
X7929643Y-14938357D01*
X7943928Y-14909786D01*
X7958214Y-14895500D01*
X7986786Y-14881214D01*
X8029643Y-14881214D01*
X8058214Y-14895500D01*
X8072500Y-14909786D01*
X8086786Y-14938357D01*
X8086786Y-15024071D01*
X8072500Y-15052643D01*
X8058214Y-15066929D01*
X8029643Y-15081214D01*
X7986786Y-15081214D01*
X8258214Y-15081214D02*
X8229643Y-15066929D01*
X8215357Y-15038357D01*
X8215357Y-14781214D01*
X8486786Y-15066929D02*
X8458214Y-15081214D01*
X8401071Y-15081214D01*
X8372500Y-15066929D01*
X8358214Y-15038357D01*
X8358214Y-14924071D01*
X8372500Y-14895500D01*
X8401071Y-14881214D01*
X8458214Y-14881214D01*
X8486786Y-14895500D01*
X8501071Y-14924071D01*
X8501071Y-14952643D01*
X8358214Y-14981214D01*
X8615357Y-15066929D02*
X8643928Y-15081214D01*
X8701071Y-15081214D01*
X8729643Y-15066929D01*
X8743928Y-15038357D01*
X8743928Y-15024071D01*
X8729643Y-14995500D01*
X8701071Y-14981214D01*
X8658214Y-14981214D01*
X8629643Y-14966929D01*
X8615357Y-14938357D01*
X8615357Y-14924071D01*
X8629643Y-14895500D01*
X8658214Y-14881214D01*
X8701071Y-14881214D01*
X8729643Y-14895500D01*
X9101071Y-14966929D02*
X9329643Y-14966929D01*
X9215357Y-15081214D02*
X9215357Y-14852643D01*
X9829643Y-14881214D02*
X9829643Y-15081214D01*
X9758214Y-14766929D02*
X9686786Y-14981214D01*
X9872500Y-14981214D01*
X10201071Y-15066929D02*
X10229643Y-15081214D01*
X10286786Y-15081214D01*
X10315357Y-15066929D01*
X10329643Y-15038357D01*
X10329643Y-15024071D01*
X10315357Y-14995500D01*
X10286786Y-14981214D01*
X10243928Y-14981214D01*
X10215357Y-14966929D01*
X10201071Y-14938357D01*
X10201071Y-14924071D01*
X10215357Y-14895500D01*
X10243928Y-14881214D01*
X10286786Y-14881214D01*
X10315357Y-14895500D01*
X10501071Y-15081214D02*
X10472500Y-15066929D01*
X10458214Y-15038357D01*
X10458214Y-14781214D01*
X10658214Y-15081214D02*
X10629643Y-15066929D01*
X10615357Y-15052643D01*
X10601071Y-15024071D01*
X10601071Y-14938357D01*
X10615357Y-14909786D01*
X10629643Y-14895500D01*
X10658214Y-14881214D01*
X10701071Y-14881214D01*
X10729643Y-14895500D01*
X10743928Y-14909786D01*
X10758214Y-14938357D01*
X10758214Y-15024071D01*
X10743928Y-15052643D01*
X10729643Y-15066929D01*
X10701071Y-15081214D01*
X10658214Y-15081214D01*
X10843928Y-14881214D02*
X10958214Y-14881214D01*
X10886786Y-14781214D02*
X10886786Y-15038357D01*
X10901071Y-15066929D01*
X10929643Y-15081214D01*
X10958214Y-15081214D01*
X11043928Y-15066929D02*
X11072500Y-15081214D01*
X11129643Y-15081214D01*
X11158214Y-15066929D01*
X11172500Y-15038357D01*
X11172500Y-15024071D01*
X11158214Y-14995500D01*
X11129643Y-14981214D01*
X11086786Y-14981214D01*
X11058214Y-14966929D01*
X11043928Y-14938357D01*
X11043928Y-14924071D01*
X11058214Y-14895500D01*
X11086786Y-14881214D01*
X11129643Y-14881214D01*
X11158214Y-14895500D01*
X11272500Y-15195500D02*
X11286786Y-15181214D01*
X11315357Y-15138357D01*
X11329643Y-15109786D01*
X11343928Y-15066929D01*
X11358214Y-14995500D01*
X11358214Y-14938357D01*
X11343928Y-14866929D01*
X11329643Y-14824071D01*
X11315357Y-14795500D01*
X11286786Y-14752643D01*
X11272500Y-14738357D01*
X2341391Y-15380391D02*
X2341391Y-15302609D01*
X2263609Y-15302609D01*
X2263609Y-15380391D01*
X2341391Y-15380391D01*
X2801071Y-15477214D02*
X2629643Y-15477214D01*
X2715357Y-15477214D02*
X2715357Y-15177214D01*
X2686786Y-15220071D01*
X2658214Y-15248643D01*
X2629643Y-15262929D01*
X2929643Y-15448643D02*
X2943928Y-15462929D01*
X2929643Y-15477214D01*
X2915357Y-15462929D01*
X2929643Y-15448643D01*
X2929643Y-15477214D01*
X3229643Y-15477214D02*
X3058214Y-15477214D01*
X3143928Y-15477214D02*
X3143928Y-15177214D01*
X3115357Y-15220071D01*
X3086786Y-15248643D01*
X3058214Y-15262929D01*
X3415357Y-15177214D02*
X3443928Y-15177214D01*
X3472500Y-15191500D01*
X3486786Y-15205786D01*
X3501071Y-15234357D01*
X3515357Y-15291500D01*
X3515357Y-15362929D01*
X3501071Y-15420071D01*
X3486786Y-15448643D01*
X3472500Y-15462929D01*
X3443928Y-15477214D01*
X3415357Y-15477214D01*
X3386786Y-15462929D01*
X3372500Y-15448643D01*
X3358214Y-15420071D01*
X3343928Y-15362929D01*
X3343928Y-15291500D01*
X3358214Y-15234357D01*
X3372500Y-15205786D01*
X3386786Y-15191500D01*
X3415357Y-15177214D01*
X3643928Y-15477214D02*
X3643928Y-15277214D01*
X3643928Y-15305786D02*
X3658214Y-15291500D01*
X3686786Y-15277214D01*
X3729643Y-15277214D01*
X3758214Y-15291500D01*
X3772500Y-15320071D01*
X3772500Y-15477214D01*
X3772500Y-15320071D02*
X3786786Y-15291500D01*
X3815357Y-15277214D01*
X3858214Y-15277214D01*
X3886786Y-15291500D01*
X3901071Y-15320071D01*
X3901071Y-15477214D01*
X4043928Y-15477214D02*
X4043928Y-15277214D01*
X4043928Y-15305786D02*
X4058214Y-15291500D01*
X4086786Y-15277214D01*
X4129643Y-15277214D01*
X4158214Y-15291500D01*
X4172500Y-15320071D01*
X4172500Y-15477214D01*
X4172500Y-15320071D02*
X4186786Y-15291500D01*
X4215357Y-15277214D01*
X4258214Y-15277214D01*
X4286786Y-15291500D01*
X4301071Y-15320071D01*
X4301071Y-15477214D01*
X4886786Y-15162929D02*
X4629643Y-15548643D01*
X5272500Y-15177214D02*
X5301071Y-15177214D01*
X5329643Y-15191500D01*
X5343928Y-15205786D01*
X5358214Y-15234357D01*
X5372500Y-15291500D01*
X5372500Y-15362929D01*
X5358214Y-15420071D01*
X5343928Y-15448643D01*
X5329643Y-15462929D01*
X5301071Y-15477214D01*
X5272500Y-15477214D01*
X5243928Y-15462929D01*
X5229643Y-15448643D01*
X5215357Y-15420071D01*
X5201071Y-15362929D01*
X5201071Y-15291500D01*
X5215357Y-15234357D01*
X5229643Y-15205786D01*
X5243928Y-15191500D01*
X5272500Y-15177214D01*
X5501071Y-15448643D02*
X5515357Y-15462929D01*
X5501071Y-15477214D01*
X5486786Y-15462929D01*
X5501071Y-15448643D01*
X5501071Y-15477214D01*
X5701071Y-15177214D02*
X5729643Y-15177214D01*
X5758214Y-15191500D01*
X5772500Y-15205786D01*
X5786786Y-15234357D01*
X5801071Y-15291500D01*
X5801071Y-15362929D01*
X5786786Y-15420071D01*
X5772500Y-15448643D01*
X5758214Y-15462929D01*
X5729643Y-15477214D01*
X5701071Y-15477214D01*
X5672500Y-15462929D01*
X5658214Y-15448643D01*
X5643928Y-15420071D01*
X5629643Y-15362929D01*
X5629643Y-15291500D01*
X5643928Y-15234357D01*
X5658214Y-15205786D01*
X5672500Y-15191500D01*
X5701071Y-15177214D01*
X6058214Y-15277214D02*
X6058214Y-15477214D01*
X5986786Y-15162929D02*
X5915357Y-15377214D01*
X6101071Y-15377214D01*
X6186786Y-15177214D02*
X6372500Y-15177214D01*
X6272500Y-15291500D01*
X6315357Y-15291500D01*
X6343928Y-15305786D01*
X6358214Y-15320071D01*
X6372500Y-15348643D01*
X6372500Y-15420071D01*
X6358214Y-15448643D01*
X6343928Y-15462929D01*
X6315357Y-15477214D01*
X6229643Y-15477214D01*
X6201071Y-15462929D01*
X6186786Y-15448643D01*
X6486786Y-15177214D02*
X6486786Y-15234357D01*
X6601071Y-15177214D02*
X6601071Y-15234357D01*
X7043928Y-15591500D02*
X7029643Y-15577214D01*
X7001071Y-15534357D01*
X6986786Y-15505786D01*
X6972500Y-15462929D01*
X6958214Y-15391500D01*
X6958214Y-15334357D01*
X6972500Y-15262929D01*
X6986786Y-15220071D01*
X7001071Y-15191500D01*
X7029643Y-15148643D01*
X7043928Y-15134357D01*
X7143928Y-15205786D02*
X7158214Y-15191500D01*
X7186786Y-15177214D01*
X7258214Y-15177214D01*
X7286786Y-15191500D01*
X7301071Y-15205786D01*
X7315357Y-15234357D01*
X7315357Y-15262929D01*
X7301071Y-15305786D01*
X7129643Y-15477214D01*
X7315357Y-15477214D01*
X7572500Y-15277214D02*
X7572500Y-15477214D01*
X7501071Y-15162929D02*
X7429643Y-15377214D01*
X7615357Y-15377214D01*
X7958214Y-15477214D02*
X7958214Y-15177214D01*
X8086786Y-15477214D02*
X8086786Y-15320071D01*
X8072500Y-15291500D01*
X8043928Y-15277214D01*
X8001071Y-15277214D01*
X7972500Y-15291500D01*
X7958214Y-15305786D01*
X8272500Y-15477214D02*
X8243928Y-15462929D01*
X8229643Y-15448643D01*
X8215357Y-15420071D01*
X8215357Y-15334357D01*
X8229643Y-15305786D01*
X8243928Y-15291500D01*
X8272500Y-15277214D01*
X8315357Y-15277214D01*
X8343928Y-15291500D01*
X8358214Y-15305786D01*
X8372500Y-15334357D01*
X8372500Y-15420071D01*
X8358214Y-15448643D01*
X8343928Y-15462929D01*
X8315357Y-15477214D01*
X8272500Y-15477214D01*
X8543928Y-15477214D02*
X8515357Y-15462929D01*
X8501071Y-15434357D01*
X8501071Y-15177214D01*
X8772500Y-15462929D02*
X8743928Y-15477214D01*
X8686786Y-15477214D01*
X8658214Y-15462929D01*
X8643928Y-15434357D01*
X8643928Y-15320071D01*
X8658214Y-15291500D01*
X8686786Y-15277214D01*
X8743928Y-15277214D01*
X8772500Y-15291500D01*
X8786786Y-15320071D01*
X8786786Y-15348643D01*
X8643928Y-15377214D01*
X8901071Y-15462929D02*
X8929643Y-15477214D01*
X8986786Y-15477214D01*
X9015357Y-15462929D01*
X9029643Y-15434357D01*
X9029643Y-15420071D01*
X9015357Y-15391500D01*
X8986786Y-15377214D01*
X8943928Y-15377214D01*
X8915357Y-15362929D01*
X8901071Y-15334357D01*
X8901071Y-15320071D01*
X8915357Y-15291500D01*
X8943928Y-15277214D01*
X8986786Y-15277214D01*
X9015357Y-15291500D01*
X9129643Y-15591500D02*
X9143928Y-15577214D01*
X9172500Y-15534357D01*
X9186786Y-15505786D01*
X9201071Y-15462929D01*
X9215357Y-15391500D01*
X9215357Y-15334357D01*
X9201071Y-15262929D01*
X9186786Y-15220071D01*
X9172500Y-15191500D01*
X9143928Y-15148643D01*
X9129643Y-15134357D01*
X2307500Y-15787500D02*
X2357500Y-15737500D01*
X2307500Y-15687500D01*
X2257500Y-15737500D01*
X2307500Y-15787500D01*
X2801071Y-15873214D02*
X2629643Y-15873214D01*
X2715357Y-15873214D02*
X2715357Y-15573214D01*
X2686786Y-15616071D01*
X2658214Y-15644643D01*
X2629643Y-15658929D01*
X2929643Y-15844643D02*
X2943928Y-15858929D01*
X2929643Y-15873214D01*
X2915357Y-15858929D01*
X2929643Y-15844643D01*
X2929643Y-15873214D01*
X3129643Y-15573214D02*
X3158214Y-15573214D01*
X3186786Y-15587500D01*
X3201071Y-15601786D01*
X3215357Y-15630357D01*
X3229643Y-15687500D01*
X3229643Y-15758929D01*
X3215357Y-15816071D01*
X3201071Y-15844643D01*
X3186786Y-15858929D01*
X3158214Y-15873214D01*
X3129643Y-15873214D01*
X3101071Y-15858929D01*
X3086786Y-15844643D01*
X3072500Y-15816071D01*
X3058214Y-15758929D01*
X3058214Y-15687500D01*
X3072500Y-15630357D01*
X3086786Y-15601786D01*
X3101071Y-15587500D01*
X3129643Y-15573214D01*
X3415357Y-15573214D02*
X3443928Y-15573214D01*
X3472500Y-15587500D01*
X3486786Y-15601786D01*
X3501071Y-15630357D01*
X3515357Y-15687500D01*
X3515357Y-15758929D01*
X3501071Y-15816071D01*
X3486786Y-15844643D01*
X3472500Y-15858929D01*
X3443928Y-15873214D01*
X3415357Y-15873214D01*
X3386786Y-15858929D01*
X3372500Y-15844643D01*
X3358214Y-15816071D01*
X3343928Y-15758929D01*
X3343928Y-15687500D01*
X3358214Y-15630357D01*
X3372500Y-15601786D01*
X3386786Y-15587500D01*
X3415357Y-15573214D01*
X3643928Y-15873214D02*
X3643928Y-15673214D01*
X3643928Y-15701786D02*
X3658214Y-15687500D01*
X3686786Y-15673214D01*
X3729643Y-15673214D01*
X3758214Y-15687500D01*
X3772500Y-15716071D01*
X3772500Y-15873214D01*
X3772500Y-15716071D02*
X3786786Y-15687500D01*
X3815357Y-15673214D01*
X3858214Y-15673214D01*
X3886786Y-15687500D01*
X3901071Y-15716071D01*
X3901071Y-15873214D01*
X4043928Y-15873214D02*
X4043928Y-15673214D01*
X4043928Y-15701786D02*
X4058214Y-15687500D01*
X4086786Y-15673214D01*
X4129643Y-15673214D01*
X4158214Y-15687500D01*
X4172500Y-15716071D01*
X4172500Y-15873214D01*
X4172500Y-15716071D02*
X4186786Y-15687500D01*
X4215357Y-15673214D01*
X4258214Y-15673214D01*
X4286786Y-15687500D01*
X4301071Y-15716071D01*
X4301071Y-15873214D01*
X4886786Y-15558929D02*
X4629643Y-15944643D01*
X5272500Y-15573214D02*
X5301071Y-15573214D01*
X5329643Y-15587500D01*
X5343928Y-15601786D01*
X5358214Y-15630357D01*
X5372500Y-15687500D01*
X5372500Y-15758929D01*
X5358214Y-15816071D01*
X5343928Y-15844643D01*
X5329643Y-15858929D01*
X5301071Y-15873214D01*
X5272500Y-15873214D01*
X5243928Y-15858929D01*
X5229643Y-15844643D01*
X5215357Y-15816071D01*
X5201071Y-15758929D01*
X5201071Y-15687500D01*
X5215357Y-15630357D01*
X5229643Y-15601786D01*
X5243928Y-15587500D01*
X5272500Y-15573214D01*
X5501071Y-15844643D02*
X5515357Y-15858929D01*
X5501071Y-15873214D01*
X5486786Y-15858929D01*
X5501071Y-15844643D01*
X5501071Y-15873214D01*
X5701071Y-15573214D02*
X5729643Y-15573214D01*
X5758214Y-15587500D01*
X5772500Y-15601786D01*
X5786786Y-15630357D01*
X5801071Y-15687500D01*
X5801071Y-15758929D01*
X5786786Y-15816071D01*
X5772500Y-15844643D01*
X5758214Y-15858929D01*
X5729643Y-15873214D01*
X5701071Y-15873214D01*
X5672500Y-15858929D01*
X5658214Y-15844643D01*
X5643928Y-15816071D01*
X5629643Y-15758929D01*
X5629643Y-15687500D01*
X5643928Y-15630357D01*
X5658214Y-15601786D01*
X5672500Y-15587500D01*
X5701071Y-15573214D01*
X5901071Y-15573214D02*
X6086786Y-15573214D01*
X5986786Y-15687500D01*
X6029643Y-15687500D01*
X6058214Y-15701786D01*
X6072500Y-15716071D01*
X6086786Y-15744643D01*
X6086786Y-15816071D01*
X6072500Y-15844643D01*
X6058214Y-15858929D01*
X6029643Y-15873214D01*
X5943928Y-15873214D01*
X5915357Y-15858929D01*
X5901071Y-15844643D01*
X6229643Y-15873214D02*
X6286786Y-15873214D01*
X6315357Y-15858929D01*
X6329643Y-15844643D01*
X6358214Y-15801786D01*
X6372500Y-15744643D01*
X6372500Y-15630357D01*
X6358214Y-15601786D01*
X6343928Y-15587500D01*
X6315357Y-15573214D01*
X6258214Y-15573214D01*
X6229643Y-15587500D01*
X6215357Y-15601786D01*
X6201071Y-15630357D01*
X6201071Y-15701786D01*
X6215357Y-15730357D01*
X6229643Y-15744643D01*
X6258214Y-15758929D01*
X6315357Y-15758929D01*
X6343928Y-15744643D01*
X6358214Y-15730357D01*
X6372500Y-15701786D01*
X6486786Y-15573214D02*
X6486786Y-15630357D01*
X6601071Y-15573214D02*
X6601071Y-15630357D01*
X7043928Y-15987500D02*
X7029643Y-15973214D01*
X7001071Y-15930357D01*
X6986786Y-15901786D01*
X6972500Y-15858929D01*
X6958214Y-15787500D01*
X6958214Y-15730357D01*
X6972500Y-15658929D01*
X6986786Y-15616071D01*
X7001071Y-15587500D01*
X7029643Y-15544643D01*
X7043928Y-15530357D01*
X7215357Y-15573214D02*
X7243928Y-15573214D01*
X7272500Y-15587500D01*
X7286786Y-15601786D01*
X7301071Y-15630357D01*
X7315357Y-15687500D01*
X7315357Y-15758929D01*
X7301071Y-15816071D01*
X7286786Y-15844643D01*
X7272500Y-15858929D01*
X7243928Y-15873214D01*
X7215357Y-15873214D01*
X7186786Y-15858929D01*
X7172500Y-15844643D01*
X7158214Y-15816071D01*
X7143928Y-15758929D01*
X7143928Y-15687500D01*
X7158214Y-15630357D01*
X7172500Y-15601786D01*
X7186786Y-15587500D01*
X7215357Y-15573214D01*
X7672500Y-15873214D02*
X7672500Y-15573214D01*
X7801071Y-15873214D02*
X7801071Y-15716071D01*
X7786786Y-15687500D01*
X7758214Y-15673214D01*
X7715357Y-15673214D01*
X7686786Y-15687500D01*
X7672500Y-15701786D01*
X7986786Y-15873214D02*
X7958214Y-15858929D01*
X7943928Y-15844643D01*
X7929643Y-15816071D01*
X7929643Y-15730357D01*
X7943928Y-15701786D01*
X7958214Y-15687500D01*
X7986786Y-15673214D01*
X8029643Y-15673214D01*
X8058214Y-15687500D01*
X8072500Y-15701786D01*
X8086786Y-15730357D01*
X8086786Y-15816071D01*
X8072500Y-15844643D01*
X8058214Y-15858929D01*
X8029643Y-15873214D01*
X7986786Y-15873214D01*
X8258214Y-15873214D02*
X8229643Y-15858929D01*
X8215357Y-15830357D01*
X8215357Y-15573214D01*
X8486786Y-15858929D02*
X8458214Y-15873214D01*
X8401071Y-15873214D01*
X8372500Y-15858929D01*
X8358214Y-15830357D01*
X8358214Y-15716071D01*
X8372500Y-15687500D01*
X8401071Y-15673214D01*
X8458214Y-15673214D01*
X8486786Y-15687500D01*
X8501071Y-15716071D01*
X8501071Y-15744643D01*
X8358214Y-15773214D01*
X8615357Y-15858929D02*
X8643928Y-15873214D01*
X8701071Y-15873214D01*
X8729643Y-15858929D01*
X8743928Y-15830357D01*
X8743928Y-15816071D01*
X8729643Y-15787500D01*
X8701071Y-15773214D01*
X8658214Y-15773214D01*
X8629643Y-15758929D01*
X8615357Y-15730357D01*
X8615357Y-15716071D01*
X8629643Y-15687500D01*
X8658214Y-15673214D01*
X8701071Y-15673214D01*
X8729643Y-15687500D01*
X9101071Y-15758929D02*
X9329643Y-15758929D01*
X9215357Y-15873214D02*
X9215357Y-15644643D01*
X9672500Y-15573214D02*
X9872500Y-15573214D01*
X9743928Y-15873214D01*
X10201071Y-15858929D02*
X10229643Y-15873214D01*
X10286786Y-15873214D01*
X10315357Y-15858929D01*
X10329643Y-15830357D01*
X10329643Y-15816071D01*
X10315357Y-15787500D01*
X10286786Y-15773214D01*
X10243928Y-15773214D01*
X10215357Y-15758929D01*
X10201071Y-15730357D01*
X10201071Y-15716071D01*
X10215357Y-15687500D01*
X10243928Y-15673214D01*
X10286786Y-15673214D01*
X10315357Y-15687500D01*
X10501071Y-15873214D02*
X10472500Y-15858929D01*
X10458214Y-15830357D01*
X10458214Y-15573214D01*
X10658214Y-15873214D02*
X10629643Y-15858929D01*
X10615357Y-15844643D01*
X10601071Y-15816071D01*
X10601071Y-15730357D01*
X10615357Y-15701786D01*
X10629643Y-15687500D01*
X10658214Y-15673214D01*
X10701071Y-15673214D01*
X10729643Y-15687500D01*
X10743928Y-15701786D01*
X10758214Y-15730357D01*
X10758214Y-15816071D01*
X10743928Y-15844643D01*
X10729643Y-15858929D01*
X10701071Y-15873214D01*
X10658214Y-15873214D01*
X10843928Y-15673214D02*
X10958214Y-15673214D01*
X10886786Y-15573214D02*
X10886786Y-15830357D01*
X10901071Y-15858929D01*
X10929643Y-15873214D01*
X10958214Y-15873214D01*
X11043928Y-15858929D02*
X11072500Y-15873214D01*
X11129643Y-15873214D01*
X11158214Y-15858929D01*
X11172500Y-15830357D01*
X11172500Y-15816071D01*
X11158214Y-15787500D01*
X11129643Y-15773214D01*
X11086786Y-15773214D01*
X11058214Y-15758929D01*
X11043928Y-15730357D01*
X11043928Y-15716071D01*
X11058214Y-15687500D01*
X11086786Y-15673214D01*
X11129643Y-15673214D01*
X11158214Y-15687500D01*
X11272500Y-15987500D02*
X11286786Y-15973214D01*
X11315357Y-15930357D01*
X11329643Y-15901786D01*
X11343928Y-15858929D01*
X11358214Y-15787500D01*
X11358214Y-15730357D01*
X11343928Y-15658929D01*
X11329643Y-15616071D01*
X11315357Y-15587500D01*
X11286786Y-15544643D01*
X11272500Y-15530357D01*
X11815357Y-15987500D02*
X11801071Y-15973214D01*
X11772500Y-15930357D01*
X11758214Y-15901786D01*
X11743928Y-15858929D01*
X11729643Y-15787500D01*
X11729643Y-15730357D01*
X11743928Y-15658929D01*
X11758214Y-15616071D01*
X11772500Y-15587500D01*
X11801071Y-15544643D01*
X11815357Y-15530357D01*
X11929643Y-15673214D02*
X11929643Y-15873214D01*
X11929643Y-15701786D02*
X11943928Y-15687500D01*
X11972500Y-15673214D01*
X12015357Y-15673214D01*
X12043928Y-15687500D01*
X12058214Y-15716071D01*
X12058214Y-15873214D01*
X12243928Y-15873214D02*
X12215357Y-15858929D01*
X12201071Y-15844643D01*
X12186786Y-15816071D01*
X12186786Y-15730357D01*
X12201071Y-15701786D01*
X12215357Y-15687500D01*
X12243928Y-15673214D01*
X12286786Y-15673214D01*
X12315357Y-15687500D01*
X12329643Y-15701786D01*
X12343928Y-15730357D01*
X12343928Y-15816071D01*
X12329643Y-15844643D01*
X12315357Y-15858929D01*
X12286786Y-15873214D01*
X12243928Y-15873214D01*
X12429643Y-15673214D02*
X12543928Y-15673214D01*
X12472500Y-15573214D02*
X12472500Y-15830357D01*
X12486786Y-15858929D01*
X12515357Y-15873214D01*
X12543928Y-15873214D01*
X12872500Y-15673214D02*
X12872500Y-15973214D01*
X12872500Y-15687500D02*
X12901071Y-15673214D01*
X12958214Y-15673214D01*
X12986786Y-15687500D01*
X13001071Y-15701786D01*
X13015357Y-15730357D01*
X13015357Y-15816071D01*
X13001071Y-15844643D01*
X12986786Y-15858929D01*
X12958214Y-15873214D01*
X12901071Y-15873214D01*
X12872500Y-15858929D01*
X13186786Y-15873214D02*
X13158214Y-15858929D01*
X13143928Y-15830357D01*
X13143928Y-15573214D01*
X13429643Y-15873214D02*
X13429643Y-15716071D01*
X13415357Y-15687500D01*
X13386786Y-15673214D01*
X13329643Y-15673214D01*
X13301071Y-15687500D01*
X13429643Y-15858929D02*
X13401071Y-15873214D01*
X13329643Y-15873214D01*
X13301071Y-15858929D01*
X13286786Y-15830357D01*
X13286786Y-15801786D01*
X13301071Y-15773214D01*
X13329643Y-15758929D01*
X13401071Y-15758929D01*
X13429643Y-15744643D01*
X13529643Y-15673214D02*
X13643928Y-15673214D01*
X13572500Y-15573214D02*
X13572500Y-15830357D01*
X13586786Y-15858929D01*
X13615357Y-15873214D01*
X13643928Y-15873214D01*
X13858214Y-15858929D02*
X13829643Y-15873214D01*
X13772500Y-15873214D01*
X13743928Y-15858929D01*
X13729643Y-15830357D01*
X13729643Y-15716071D01*
X13743928Y-15687500D01*
X13772500Y-15673214D01*
X13829643Y-15673214D01*
X13858214Y-15687500D01*
X13872500Y-15716071D01*
X13872500Y-15744643D01*
X13729643Y-15773214D01*
X14129643Y-15873214D02*
X14129643Y-15573214D01*
X14129643Y-15858929D02*
X14101071Y-15873214D01*
X14043928Y-15873214D01*
X14015357Y-15858929D01*
X14001071Y-15844643D01*
X13986786Y-15816071D01*
X13986786Y-15730357D01*
X14001071Y-15701786D01*
X14015357Y-15687500D01*
X14043928Y-15673214D01*
X14101071Y-15673214D01*
X14129643Y-15687500D01*
X14243928Y-15987500D02*
X14258214Y-15973214D01*
X14286786Y-15930357D01*
X14301071Y-15901786D01*
X14315357Y-15858929D01*
X14329643Y-15787500D01*
X14329643Y-15730357D01*
X14315357Y-15658929D01*
X14301071Y-15616071D01*
X14286786Y-15587500D01*
X14258214Y-15544643D01*
X14243928Y-15530357D01*
X2237500Y-16073500D02*
X2357500Y-16193500D01*
X2357500Y-16073500D02*
X2237500Y-16193500D01*
X2357500Y-16133500D02*
G75*
G03X2357500Y-16133500I-60000J0D01*
G01*
X2801071Y-16269214D02*
X2629643Y-16269214D01*
X2715357Y-16269214D02*
X2715357Y-15969214D01*
X2686786Y-16012071D01*
X2658214Y-16040643D01*
X2629643Y-16054929D01*
X2929643Y-16240643D02*
X2943928Y-16254929D01*
X2929643Y-16269214D01*
X2915357Y-16254929D01*
X2929643Y-16240643D01*
X2929643Y-16269214D01*
X3058214Y-15997786D02*
X3072500Y-15983500D01*
X3101071Y-15969214D01*
X3172500Y-15969214D01*
X3201071Y-15983500D01*
X3215357Y-15997786D01*
X3229643Y-16026357D01*
X3229643Y-16054929D01*
X3215357Y-16097786D01*
X3043928Y-16269214D01*
X3229643Y-16269214D01*
X3415357Y-15969214D02*
X3443928Y-15969214D01*
X3472500Y-15983500D01*
X3486786Y-15997786D01*
X3501071Y-16026357D01*
X3515357Y-16083500D01*
X3515357Y-16154929D01*
X3501071Y-16212071D01*
X3486786Y-16240643D01*
X3472500Y-16254929D01*
X3443928Y-16269214D01*
X3415357Y-16269214D01*
X3386786Y-16254929D01*
X3372500Y-16240643D01*
X3358214Y-16212071D01*
X3343928Y-16154929D01*
X3343928Y-16083500D01*
X3358214Y-16026357D01*
X3372500Y-15997786D01*
X3386786Y-15983500D01*
X3415357Y-15969214D01*
X3643928Y-16269214D02*
X3643928Y-16069214D01*
X3643928Y-16097786D02*
X3658214Y-16083500D01*
X3686786Y-16069214D01*
X3729643Y-16069214D01*
X3758214Y-16083500D01*
X3772500Y-16112071D01*
X3772500Y-16269214D01*
X3772500Y-16112071D02*
X3786786Y-16083500D01*
X3815357Y-16069214D01*
X3858214Y-16069214D01*
X3886786Y-16083500D01*
X3901071Y-16112071D01*
X3901071Y-16269214D01*
X4043928Y-16269214D02*
X4043928Y-16069214D01*
X4043928Y-16097786D02*
X4058214Y-16083500D01*
X4086786Y-16069214D01*
X4129643Y-16069214D01*
X4158214Y-16083500D01*
X4172500Y-16112071D01*
X4172500Y-16269214D01*
X4172500Y-16112071D02*
X4186786Y-16083500D01*
X4215357Y-16069214D01*
X4258214Y-16069214D01*
X4286786Y-16083500D01*
X4301071Y-16112071D01*
X4301071Y-16269214D01*
X4886786Y-15954929D02*
X4629643Y-16340643D01*
X5272500Y-15969214D02*
X5301071Y-15969214D01*
X5329643Y-15983500D01*
X5343928Y-15997786D01*
X5358214Y-16026357D01*
X5372500Y-16083500D01*
X5372500Y-16154929D01*
X5358214Y-16212071D01*
X5343928Y-16240643D01*
X5329643Y-16254929D01*
X5301071Y-16269214D01*
X5272500Y-16269214D01*
X5243928Y-16254929D01*
X5229643Y-16240643D01*
X5215357Y-16212071D01*
X5201071Y-16154929D01*
X5201071Y-16083500D01*
X5215357Y-16026357D01*
X5229643Y-15997786D01*
X5243928Y-15983500D01*
X5272500Y-15969214D01*
X5501071Y-16240643D02*
X5515357Y-16254929D01*
X5501071Y-16269214D01*
X5486786Y-16254929D01*
X5501071Y-16240643D01*
X5501071Y-16269214D01*
X5701071Y-15969214D02*
X5729643Y-15969214D01*
X5758214Y-15983500D01*
X5772500Y-15997786D01*
X5786786Y-16026357D01*
X5801071Y-16083500D01*
X5801071Y-16154929D01*
X5786786Y-16212071D01*
X5772500Y-16240643D01*
X5758214Y-16254929D01*
X5729643Y-16269214D01*
X5701071Y-16269214D01*
X5672500Y-16254929D01*
X5658214Y-16240643D01*
X5643928Y-16212071D01*
X5629643Y-16154929D01*
X5629643Y-16083500D01*
X5643928Y-16026357D01*
X5658214Y-15997786D01*
X5672500Y-15983500D01*
X5701071Y-15969214D01*
X6058214Y-16069214D02*
X6058214Y-16269214D01*
X5986786Y-15954929D02*
X5915357Y-16169214D01*
X6101071Y-16169214D01*
X6186786Y-15969214D02*
X6386786Y-15969214D01*
X6258214Y-16269214D01*
X6486786Y-15969214D02*
X6486786Y-16026357D01*
X6601071Y-15969214D02*
X6601071Y-16026357D01*
X7043928Y-16383500D02*
X7029643Y-16369214D01*
X7001071Y-16326357D01*
X6986786Y-16297786D01*
X6972500Y-16254929D01*
X6958214Y-16183500D01*
X6958214Y-16126357D01*
X6972500Y-16054929D01*
X6986786Y-16012071D01*
X7001071Y-15983500D01*
X7029643Y-15940643D01*
X7043928Y-15926357D01*
X7143928Y-15997786D02*
X7158214Y-15983500D01*
X7186786Y-15969214D01*
X7258214Y-15969214D01*
X7286786Y-15983500D01*
X7301071Y-15997786D01*
X7315357Y-16026357D01*
X7315357Y-16054929D01*
X7301071Y-16097786D01*
X7129643Y-16269214D01*
X7315357Y-16269214D01*
X7672500Y-16269214D02*
X7672500Y-15969214D01*
X7801071Y-16269214D02*
X7801071Y-16112071D01*
X7786786Y-16083500D01*
X7758214Y-16069214D01*
X7715357Y-16069214D01*
X7686786Y-16083500D01*
X7672500Y-16097786D01*
X7986786Y-16269214D02*
X7958214Y-16254929D01*
X7943928Y-16240643D01*
X7929643Y-16212071D01*
X7929643Y-16126357D01*
X7943928Y-16097786D01*
X7958214Y-16083500D01*
X7986786Y-16069214D01*
X8029643Y-16069214D01*
X8058214Y-16083500D01*
X8072500Y-16097786D01*
X8086786Y-16126357D01*
X8086786Y-16212071D01*
X8072500Y-16240643D01*
X8058214Y-16254929D01*
X8029643Y-16269214D01*
X7986786Y-16269214D01*
X8258214Y-16269214D02*
X8229643Y-16254929D01*
X8215357Y-16226357D01*
X8215357Y-15969214D01*
X8486786Y-16254929D02*
X8458214Y-16269214D01*
X8401071Y-16269214D01*
X8372500Y-16254929D01*
X8358214Y-16226357D01*
X8358214Y-16112071D01*
X8372500Y-16083500D01*
X8401071Y-16069214D01*
X8458214Y-16069214D01*
X8486786Y-16083500D01*
X8501071Y-16112071D01*
X8501071Y-16140643D01*
X8358214Y-16169214D01*
X8615357Y-16254929D02*
X8643928Y-16269214D01*
X8701071Y-16269214D01*
X8729643Y-16254929D01*
X8743928Y-16226357D01*
X8743928Y-16212071D01*
X8729643Y-16183500D01*
X8701071Y-16169214D01*
X8658214Y-16169214D01*
X8629643Y-16154929D01*
X8615357Y-16126357D01*
X8615357Y-16112071D01*
X8629643Y-16083500D01*
X8658214Y-16069214D01*
X8701071Y-16069214D01*
X8729643Y-16083500D01*
X8843928Y-16383500D02*
X8858214Y-16369214D01*
X8886786Y-16326357D01*
X8901071Y-16297786D01*
X8915357Y-16254929D01*
X8929643Y-16183500D01*
X8929643Y-16126357D01*
X8915357Y-16054929D01*
X8901071Y-16012071D01*
X8886786Y-15983500D01*
X8858214Y-15940643D01*
X8843928Y-15926357D01*
X9386786Y-16383500D02*
X9372500Y-16369214D01*
X9343928Y-16326357D01*
X9329643Y-16297786D01*
X9315357Y-16254929D01*
X9301071Y-16183500D01*
X9301071Y-16126357D01*
X9315357Y-16054929D01*
X9329643Y-16012071D01*
X9343928Y-15983500D01*
X9372500Y-15940643D01*
X9386786Y-15926357D01*
X9501071Y-16069214D02*
X9501071Y-16269214D01*
X9501071Y-16097786D02*
X9515357Y-16083500D01*
X9543928Y-16069214D01*
X9586786Y-16069214D01*
X9615357Y-16083500D01*
X9629643Y-16112071D01*
X9629643Y-16269214D01*
X9815357Y-16269214D02*
X9786786Y-16254929D01*
X9772500Y-16240643D01*
X9758214Y-16212071D01*
X9758214Y-16126357D01*
X9772500Y-16097786D01*
X9786786Y-16083500D01*
X9815357Y-16069214D01*
X9858214Y-16069214D01*
X9886786Y-16083500D01*
X9901071Y-16097786D01*
X9915357Y-16126357D01*
X9915357Y-16212071D01*
X9901071Y-16240643D01*
X9886786Y-16254929D01*
X9858214Y-16269214D01*
X9815357Y-16269214D01*
X10001071Y-16069214D02*
X10115357Y-16069214D01*
X10043928Y-15969214D02*
X10043928Y-16226357D01*
X10058214Y-16254929D01*
X10086786Y-16269214D01*
X10115357Y-16269214D01*
X10443928Y-16069214D02*
X10443928Y-16369214D01*
X10443928Y-16083500D02*
X10472500Y-16069214D01*
X10529643Y-16069214D01*
X10558214Y-16083500D01*
X10572500Y-16097786D01*
X10586786Y-16126357D01*
X10586786Y-16212071D01*
X10572500Y-16240643D01*
X10558214Y-16254929D01*
X10529643Y-16269214D01*
X10472500Y-16269214D01*
X10443928Y-16254929D01*
X10758214Y-16269214D02*
X10729643Y-16254929D01*
X10715357Y-16226357D01*
X10715357Y-15969214D01*
X11001071Y-16269214D02*
X11001071Y-16112071D01*
X10986786Y-16083500D01*
X10958214Y-16069214D01*
X10901071Y-16069214D01*
X10872500Y-16083500D01*
X11001071Y-16254929D02*
X10972500Y-16269214D01*
X10901071Y-16269214D01*
X10872500Y-16254929D01*
X10858214Y-16226357D01*
X10858214Y-16197786D01*
X10872500Y-16169214D01*
X10901071Y-16154929D01*
X10972500Y-16154929D01*
X11001071Y-16140643D01*
X11101071Y-16069214D02*
X11215357Y-16069214D01*
X11143928Y-15969214D02*
X11143928Y-16226357D01*
X11158214Y-16254929D01*
X11186786Y-16269214D01*
X11215357Y-16269214D01*
X11429643Y-16254929D02*
X11401071Y-16269214D01*
X11343928Y-16269214D01*
X11315357Y-16254929D01*
X11301071Y-16226357D01*
X11301071Y-16112071D01*
X11315357Y-16083500D01*
X11343928Y-16069214D01*
X11401071Y-16069214D01*
X11429643Y-16083500D01*
X11443928Y-16112071D01*
X11443928Y-16140643D01*
X11301071Y-16169214D01*
X11701071Y-16269214D02*
X11701071Y-15969214D01*
X11701071Y-16254929D02*
X11672500Y-16269214D01*
X11615357Y-16269214D01*
X11586786Y-16254929D01*
X11572500Y-16240643D01*
X11558214Y-16212071D01*
X11558214Y-16126357D01*
X11572500Y-16097786D01*
X11586786Y-16083500D01*
X11615357Y-16069214D01*
X11672500Y-16069214D01*
X11701071Y-16083500D01*
X11815357Y-16383500D02*
X11829643Y-16369214D01*
X11858214Y-16326357D01*
X11872500Y-16297786D01*
X11886786Y-16254929D01*
X11901071Y-16183500D01*
X11901071Y-16126357D01*
X11886786Y-16054929D01*
X11872500Y-16012071D01*
X11858214Y-15983500D01*
X11829643Y-15940643D01*
X11815357Y-15926357D01*
X2181500Y-16441500D02*
X2357500Y-16617500D01*
X2357500Y-16441500D02*
X2181500Y-16617500D01*
X2269500Y-16441500D02*
X2269500Y-16617500D01*
X2181500Y-16529500D02*
X2357500Y-16529500D01*
X2801071Y-16665214D02*
X2629643Y-16665214D01*
X2715357Y-16665214D02*
X2715357Y-16365214D01*
X2686786Y-16408071D01*
X2658214Y-16436643D01*
X2629643Y-16450929D01*
X2929643Y-16636643D02*
X2943928Y-16650929D01*
X2929643Y-16665214D01*
X2915357Y-16650929D01*
X2929643Y-16636643D01*
X2929643Y-16665214D01*
X3043928Y-16365214D02*
X3243928Y-16365214D01*
X3115357Y-16665214D01*
X3486786Y-16365214D02*
X3429643Y-16365214D01*
X3401071Y-16379500D01*
X3386786Y-16393786D01*
X3358214Y-16436643D01*
X3343928Y-16493786D01*
X3343928Y-16608071D01*
X3358214Y-16636643D01*
X3372500Y-16650929D01*
X3401071Y-16665214D01*
X3458214Y-16665214D01*
X3486786Y-16650929D01*
X3501071Y-16636643D01*
X3515357Y-16608071D01*
X3515357Y-16536643D01*
X3501071Y-16508071D01*
X3486786Y-16493786D01*
X3458214Y-16479500D01*
X3401071Y-16479500D01*
X3372500Y-16493786D01*
X3358214Y-16508071D01*
X3343928Y-16536643D01*
X3643928Y-16665214D02*
X3643928Y-16465214D01*
X3643928Y-16493786D02*
X3658214Y-16479500D01*
X3686786Y-16465214D01*
X3729643Y-16465214D01*
X3758214Y-16479500D01*
X3772500Y-16508071D01*
X3772500Y-16665214D01*
X3772500Y-16508071D02*
X3786786Y-16479500D01*
X3815357Y-16465214D01*
X3858214Y-16465214D01*
X3886786Y-16479500D01*
X3901071Y-16508071D01*
X3901071Y-16665214D01*
X4043928Y-16665214D02*
X4043928Y-16465214D01*
X4043928Y-16493786D02*
X4058214Y-16479500D01*
X4086786Y-16465214D01*
X4129643Y-16465214D01*
X4158214Y-16479500D01*
X4172500Y-16508071D01*
X4172500Y-16665214D01*
X4172500Y-16508071D02*
X4186786Y-16479500D01*
X4215357Y-16465214D01*
X4258214Y-16465214D01*
X4286786Y-16479500D01*
X4301071Y-16508071D01*
X4301071Y-16665214D01*
X4886786Y-16350929D02*
X4629643Y-16736643D01*
X5272500Y-16365214D02*
X5301071Y-16365214D01*
X5329643Y-16379500D01*
X5343928Y-16393786D01*
X5358214Y-16422357D01*
X5372500Y-16479500D01*
X5372500Y-16550929D01*
X5358214Y-16608071D01*
X5343928Y-16636643D01*
X5329643Y-16650929D01*
X5301071Y-16665214D01*
X5272500Y-16665214D01*
X5243928Y-16650929D01*
X5229643Y-16636643D01*
X5215357Y-16608071D01*
X5201071Y-16550929D01*
X5201071Y-16479500D01*
X5215357Y-16422357D01*
X5229643Y-16393786D01*
X5243928Y-16379500D01*
X5272500Y-16365214D01*
X5501071Y-16636643D02*
X5515357Y-16650929D01*
X5501071Y-16665214D01*
X5486786Y-16650929D01*
X5501071Y-16636643D01*
X5501071Y-16665214D01*
X5701071Y-16365214D02*
X5729643Y-16365214D01*
X5758214Y-16379500D01*
X5772500Y-16393786D01*
X5786786Y-16422357D01*
X5801071Y-16479500D01*
X5801071Y-16550929D01*
X5786786Y-16608071D01*
X5772500Y-16636643D01*
X5758214Y-16650929D01*
X5729643Y-16665214D01*
X5701071Y-16665214D01*
X5672500Y-16650929D01*
X5658214Y-16636643D01*
X5643928Y-16608071D01*
X5629643Y-16550929D01*
X5629643Y-16479500D01*
X5643928Y-16422357D01*
X5658214Y-16393786D01*
X5672500Y-16379500D01*
X5701071Y-16365214D01*
X6058214Y-16365214D02*
X6001071Y-16365214D01*
X5972500Y-16379500D01*
X5958214Y-16393786D01*
X5929643Y-16436643D01*
X5915357Y-16493786D01*
X5915357Y-16608071D01*
X5929643Y-16636643D01*
X5943928Y-16650929D01*
X5972500Y-16665214D01*
X6029643Y-16665214D01*
X6058214Y-16650929D01*
X6072500Y-16636643D01*
X6086786Y-16608071D01*
X6086786Y-16536643D01*
X6072500Y-16508071D01*
X6058214Y-16493786D01*
X6029643Y-16479500D01*
X5972500Y-16479500D01*
X5943928Y-16493786D01*
X5929643Y-16508071D01*
X5915357Y-16536643D01*
X6229643Y-16665214D02*
X6286786Y-16665214D01*
X6315357Y-16650929D01*
X6329643Y-16636643D01*
X6358214Y-16593786D01*
X6372500Y-16536643D01*
X6372500Y-16422357D01*
X6358214Y-16393786D01*
X6343928Y-16379500D01*
X6315357Y-16365214D01*
X6258214Y-16365214D01*
X6229643Y-16379500D01*
X6215357Y-16393786D01*
X6201071Y-16422357D01*
X6201071Y-16493786D01*
X6215357Y-16522357D01*
X6229643Y-16536643D01*
X6258214Y-16550929D01*
X6315357Y-16550929D01*
X6343928Y-16536643D01*
X6358214Y-16522357D01*
X6372500Y-16493786D01*
X6486786Y-16365214D02*
X6486786Y-16422357D01*
X6601071Y-16365214D02*
X6601071Y-16422357D01*
X7043928Y-16779500D02*
X7029643Y-16765214D01*
X7001071Y-16722357D01*
X6986786Y-16693786D01*
X6972500Y-16650929D01*
X6958214Y-16579500D01*
X6958214Y-16522357D01*
X6972500Y-16450929D01*
X6986786Y-16408071D01*
X7001071Y-16379500D01*
X7029643Y-16336643D01*
X7043928Y-16322357D01*
X7286786Y-16365214D02*
X7229643Y-16365214D01*
X7201071Y-16379500D01*
X7186786Y-16393786D01*
X7158214Y-16436643D01*
X7143928Y-16493786D01*
X7143928Y-16608071D01*
X7158214Y-16636643D01*
X7172500Y-16650929D01*
X7201071Y-16665214D01*
X7258214Y-16665214D01*
X7286786Y-16650929D01*
X7301071Y-16636643D01*
X7315357Y-16608071D01*
X7315357Y-16536643D01*
X7301071Y-16508071D01*
X7286786Y-16493786D01*
X7258214Y-16479500D01*
X7201071Y-16479500D01*
X7172500Y-16493786D01*
X7158214Y-16508071D01*
X7143928Y-16536643D01*
X7429643Y-16393786D02*
X7443928Y-16379500D01*
X7472500Y-16365214D01*
X7543928Y-16365214D01*
X7572500Y-16379500D01*
X7586786Y-16393786D01*
X7601071Y-16422357D01*
X7601071Y-16450929D01*
X7586786Y-16493786D01*
X7415357Y-16665214D01*
X7601071Y-16665214D01*
X7958214Y-16665214D02*
X7958214Y-16365214D01*
X8086786Y-16665214D02*
X8086786Y-16508071D01*
X8072500Y-16479500D01*
X8043928Y-16465214D01*
X8001071Y-16465214D01*
X7972500Y-16479500D01*
X7958214Y-16493786D01*
X8272500Y-16665214D02*
X8243928Y-16650929D01*
X8229643Y-16636643D01*
X8215357Y-16608071D01*
X8215357Y-16522357D01*
X8229643Y-16493786D01*
X8243928Y-16479500D01*
X8272500Y-16465214D01*
X8315357Y-16465214D01*
X8343928Y-16479500D01*
X8358214Y-16493786D01*
X8372500Y-16522357D01*
X8372500Y-16608071D01*
X8358214Y-16636643D01*
X8343928Y-16650929D01*
X8315357Y-16665214D01*
X8272500Y-16665214D01*
X8543928Y-16665214D02*
X8515357Y-16650929D01*
X8501071Y-16622357D01*
X8501071Y-16365214D01*
X8772500Y-16650929D02*
X8743928Y-16665214D01*
X8686786Y-16665214D01*
X8658214Y-16650929D01*
X8643928Y-16622357D01*
X8643928Y-16508071D01*
X8658214Y-16479500D01*
X8686786Y-16465214D01*
X8743928Y-16465214D01*
X8772500Y-16479500D01*
X8786786Y-16508071D01*
X8786786Y-16536643D01*
X8643928Y-16565214D01*
X8901071Y-16650929D02*
X8929643Y-16665214D01*
X8986786Y-16665214D01*
X9015357Y-16650929D01*
X9029643Y-16622357D01*
X9029643Y-16608071D01*
X9015357Y-16579500D01*
X8986786Y-16565214D01*
X8943928Y-16565214D01*
X8915357Y-16550929D01*
X8901071Y-16522357D01*
X8901071Y-16508071D01*
X8915357Y-16479500D01*
X8943928Y-16465214D01*
X8986786Y-16465214D01*
X9015357Y-16479500D01*
X9129643Y-16779500D02*
X9143928Y-16765214D01*
X9172500Y-16722357D01*
X9186786Y-16693786D01*
X9201071Y-16650929D01*
X9215357Y-16579500D01*
X9215357Y-16522357D01*
X9201071Y-16450929D01*
X9186786Y-16408071D01*
X9172500Y-16379500D01*
X9143928Y-16336643D01*
X9129643Y-16322357D01*
X9672500Y-16779500D02*
X9658214Y-16765214D01*
X9629643Y-16722357D01*
X9615357Y-16693786D01*
X9601071Y-16650929D01*
X9586786Y-16579500D01*
X9586786Y-16522357D01*
X9601071Y-16450929D01*
X9615357Y-16408071D01*
X9629643Y-16379500D01*
X9658214Y-16336643D01*
X9672500Y-16322357D01*
X9786786Y-16465214D02*
X9786786Y-16665214D01*
X9786786Y-16493786D02*
X9801071Y-16479500D01*
X9829643Y-16465214D01*
X9872500Y-16465214D01*
X9901071Y-16479500D01*
X9915357Y-16508071D01*
X9915357Y-16665214D01*
X10101071Y-16665214D02*
X10072500Y-16650929D01*
X10058214Y-16636643D01*
X10043928Y-16608071D01*
X10043928Y-16522357D01*
X10058214Y-16493786D01*
X10072500Y-16479500D01*
X10101071Y-16465214D01*
X10143928Y-16465214D01*
X10172500Y-16479500D01*
X10186786Y-16493786D01*
X10201071Y-16522357D01*
X10201071Y-16608071D01*
X10186786Y-16636643D01*
X10172500Y-16650929D01*
X10143928Y-16665214D01*
X10101071Y-16665214D01*
X10286786Y-16465214D02*
X10401071Y-16465214D01*
X10329643Y-16365214D02*
X10329643Y-16622357D01*
X10343928Y-16650929D01*
X10372500Y-16665214D01*
X10401071Y-16665214D01*
X10729643Y-16465214D02*
X10729643Y-16765214D01*
X10729643Y-16479500D02*
X10758214Y-16465214D01*
X10815357Y-16465214D01*
X10843928Y-16479500D01*
X10858214Y-16493786D01*
X10872500Y-16522357D01*
X10872500Y-16608071D01*
X10858214Y-16636643D01*
X10843928Y-16650929D01*
X10815357Y-16665214D01*
X10758214Y-16665214D01*
X10729643Y-16650929D01*
X11043928Y-16665214D02*
X11015357Y-16650929D01*
X11001071Y-16622357D01*
X11001071Y-16365214D01*
X11286786Y-16665214D02*
X11286786Y-16508071D01*
X11272500Y-16479500D01*
X11243928Y-16465214D01*
X11186786Y-16465214D01*
X11158214Y-16479500D01*
X11286786Y-16650929D02*
X11258214Y-16665214D01*
X11186786Y-16665214D01*
X11158214Y-16650929D01*
X11143928Y-16622357D01*
X11143928Y-16593786D01*
X11158214Y-16565214D01*
X11186786Y-16550929D01*
X11258214Y-16550929D01*
X11286786Y-16536643D01*
X11386786Y-16465214D02*
X11501071Y-16465214D01*
X11429643Y-16365214D02*
X11429643Y-16622357D01*
X11443928Y-16650929D01*
X11472500Y-16665214D01*
X11501071Y-16665214D01*
X11715357Y-16650929D02*
X11686786Y-16665214D01*
X11629643Y-16665214D01*
X11601071Y-16650929D01*
X11586786Y-16622357D01*
X11586786Y-16508071D01*
X11601071Y-16479500D01*
X11629643Y-16465214D01*
X11686786Y-16465214D01*
X11715357Y-16479500D01*
X11729643Y-16508071D01*
X11729643Y-16536643D01*
X11586786Y-16565214D01*
X11986786Y-16665214D02*
X11986786Y-16365214D01*
X11986786Y-16650929D02*
X11958214Y-16665214D01*
X11901071Y-16665214D01*
X11872500Y-16650929D01*
X11858214Y-16636643D01*
X11843928Y-16608071D01*
X11843928Y-16522357D01*
X11858214Y-16493786D01*
X11872500Y-16479500D01*
X11901071Y-16465214D01*
X11958214Y-16465214D01*
X11986786Y-16479500D01*
X12101071Y-16779500D02*
X12115357Y-16765214D01*
X12143928Y-16722357D01*
X12158214Y-16693786D01*
X12172500Y-16650929D01*
X12186786Y-16579500D01*
X12186786Y-16522357D01*
X12172500Y-16450929D01*
X12158214Y-16408071D01*
X12143928Y-16379500D01*
X12115357Y-16336643D01*
X12101071Y-16322357D01*
X2057500Y-16775500D02*
X2357500Y-17075500D01*
X2357500Y-16775500D02*
X2057500Y-17075500D01*
X2313567Y-17031567D02*
X2313567Y-16819433D01*
X2101433Y-16819433D01*
X2101433Y-17031567D01*
X2313567Y-17031567D01*
X2615357Y-16761214D02*
X2801071Y-16761214D01*
X2701071Y-16875500D01*
X2743928Y-16875500D01*
X2772500Y-16889786D01*
X2786786Y-16904072D01*
X2801071Y-16932643D01*
X2801071Y-17004072D01*
X2786786Y-17032643D01*
X2772500Y-17046929D01*
X2743928Y-17061214D01*
X2658214Y-17061214D01*
X2629643Y-17046929D01*
X2615357Y-17032643D01*
X2929643Y-17032643D02*
X2943928Y-17046929D01*
X2929643Y-17061214D01*
X2915357Y-17046929D01*
X2929643Y-17032643D01*
X2929643Y-17061214D01*
X3129643Y-16761214D02*
X3158214Y-16761214D01*
X3186786Y-16775500D01*
X3201071Y-16789786D01*
X3215357Y-16818357D01*
X3229643Y-16875500D01*
X3229643Y-16946929D01*
X3215357Y-17004072D01*
X3201071Y-17032643D01*
X3186786Y-17046929D01*
X3158214Y-17061214D01*
X3129643Y-17061214D01*
X3101071Y-17046929D01*
X3086786Y-17032643D01*
X3072500Y-17004072D01*
X3058214Y-16946929D01*
X3058214Y-16875500D01*
X3072500Y-16818357D01*
X3086786Y-16789786D01*
X3101071Y-16775500D01*
X3129643Y-16761214D01*
X3415357Y-16761214D02*
X3443928Y-16761214D01*
X3472500Y-16775500D01*
X3486786Y-16789786D01*
X3501071Y-16818357D01*
X3515357Y-16875500D01*
X3515357Y-16946929D01*
X3501071Y-17004072D01*
X3486786Y-17032643D01*
X3472500Y-17046929D01*
X3443928Y-17061214D01*
X3415357Y-17061214D01*
X3386786Y-17046929D01*
X3372500Y-17032643D01*
X3358214Y-17004072D01*
X3343928Y-16946929D01*
X3343928Y-16875500D01*
X3358214Y-16818357D01*
X3372500Y-16789786D01*
X3386786Y-16775500D01*
X3415357Y-16761214D01*
X3643928Y-17061214D02*
X3643928Y-16861214D01*
X3643928Y-16889786D02*
X3658214Y-16875500D01*
X3686786Y-16861214D01*
X3729643Y-16861214D01*
X3758214Y-16875500D01*
X3772500Y-16904072D01*
X3772500Y-17061214D01*
X3772500Y-16904072D02*
X3786786Y-16875500D01*
X3815357Y-16861214D01*
X3858214Y-16861214D01*
X3886786Y-16875500D01*
X3901071Y-16904072D01*
X3901071Y-17061214D01*
X4043928Y-17061214D02*
X4043928Y-16861214D01*
X4043928Y-16889786D02*
X4058214Y-16875500D01*
X4086786Y-16861214D01*
X4129643Y-16861214D01*
X4158214Y-16875500D01*
X4172500Y-16904072D01*
X4172500Y-17061214D01*
X4172500Y-16904072D02*
X4186786Y-16875500D01*
X4215357Y-16861214D01*
X4258214Y-16861214D01*
X4286786Y-16875500D01*
X4301071Y-16904072D01*
X4301071Y-17061214D01*
X4886786Y-16746929D02*
X4629643Y-17132643D01*
X5272500Y-16761214D02*
X5301071Y-16761214D01*
X5329643Y-16775500D01*
X5343928Y-16789786D01*
X5358214Y-16818357D01*
X5372500Y-16875500D01*
X5372500Y-16946929D01*
X5358214Y-17004072D01*
X5343928Y-17032643D01*
X5329643Y-17046929D01*
X5301071Y-17061214D01*
X5272500Y-17061214D01*
X5243928Y-17046929D01*
X5229643Y-17032643D01*
X5215357Y-17004072D01*
X5201071Y-16946929D01*
X5201071Y-16875500D01*
X5215357Y-16818357D01*
X5229643Y-16789786D01*
X5243928Y-16775500D01*
X5272500Y-16761214D01*
X5501071Y-17032643D02*
X5515357Y-17046929D01*
X5501071Y-17061214D01*
X5486786Y-17046929D01*
X5501071Y-17032643D01*
X5501071Y-17061214D01*
X5801071Y-17061214D02*
X5629643Y-17061214D01*
X5715357Y-17061214D02*
X5715357Y-16761214D01*
X5686786Y-16804072D01*
X5658214Y-16832643D01*
X5629643Y-16846929D01*
X6086786Y-17061214D02*
X5915357Y-17061214D01*
X6001071Y-17061214D02*
X6001071Y-16761214D01*
X5972500Y-16804072D01*
X5943928Y-16832643D01*
X5915357Y-16846929D01*
X6258214Y-16889786D02*
X6229643Y-16875500D01*
X6215357Y-16861214D01*
X6201071Y-16832643D01*
X6201071Y-16818357D01*
X6215357Y-16789786D01*
X6229643Y-16775500D01*
X6258214Y-16761214D01*
X6315357Y-16761214D01*
X6343928Y-16775500D01*
X6358214Y-16789786D01*
X6372500Y-16818357D01*
X6372500Y-16832643D01*
X6358214Y-16861214D01*
X6343928Y-16875500D01*
X6315357Y-16889786D01*
X6258214Y-16889786D01*
X6229643Y-16904072D01*
X6215357Y-16918357D01*
X6201071Y-16946929D01*
X6201071Y-17004072D01*
X6215357Y-17032643D01*
X6229643Y-17046929D01*
X6258214Y-17061214D01*
X6315357Y-17061214D01*
X6343928Y-17046929D01*
X6358214Y-17032643D01*
X6372500Y-17004072D01*
X6372500Y-16946929D01*
X6358214Y-16918357D01*
X6343928Y-16904072D01*
X6315357Y-16889786D01*
X6486786Y-16761214D02*
X6486786Y-16818357D01*
X6601071Y-16761214D02*
X6601071Y-16818357D01*
X7043928Y-17175500D02*
X7029643Y-17161214D01*
X7001071Y-17118357D01*
X6986786Y-17089786D01*
X6972500Y-17046929D01*
X6958214Y-16975500D01*
X6958214Y-16918357D01*
X6972500Y-16846929D01*
X6986786Y-16804072D01*
X7001071Y-16775500D01*
X7029643Y-16732643D01*
X7043928Y-16718357D01*
X7286786Y-16761214D02*
X7229643Y-16761214D01*
X7201071Y-16775500D01*
X7186786Y-16789786D01*
X7158214Y-16832643D01*
X7143928Y-16889786D01*
X7143928Y-17004072D01*
X7158214Y-17032643D01*
X7172500Y-17046929D01*
X7201071Y-17061214D01*
X7258214Y-17061214D01*
X7286786Y-17046929D01*
X7301071Y-17032643D01*
X7315357Y-17004072D01*
X7315357Y-16932643D01*
X7301071Y-16904072D01*
X7286786Y-16889786D01*
X7258214Y-16875500D01*
X7201071Y-16875500D01*
X7172500Y-16889786D01*
X7158214Y-16904072D01*
X7143928Y-16932643D01*
X7429643Y-16789786D02*
X7443928Y-16775500D01*
X7472500Y-16761214D01*
X7543928Y-16761214D01*
X7572500Y-16775500D01*
X7586786Y-16789786D01*
X7601071Y-16818357D01*
X7601071Y-16846929D01*
X7586786Y-16889786D01*
X7415357Y-17061214D01*
X7601071Y-17061214D01*
X7958214Y-17061214D02*
X7958214Y-16761214D01*
X8086786Y-17061214D02*
X8086786Y-16904072D01*
X8072500Y-16875500D01*
X8043928Y-16861214D01*
X8001071Y-16861214D01*
X7972500Y-16875500D01*
X7958214Y-16889786D01*
X8272500Y-17061214D02*
X8243928Y-17046929D01*
X8229643Y-17032643D01*
X8215357Y-17004072D01*
X8215357Y-16918357D01*
X8229643Y-16889786D01*
X8243928Y-16875500D01*
X8272500Y-16861214D01*
X8315357Y-16861214D01*
X8343928Y-16875500D01*
X8358214Y-16889786D01*
X8372500Y-16918357D01*
X8372500Y-17004072D01*
X8358214Y-17032643D01*
X8343928Y-17046929D01*
X8315357Y-17061214D01*
X8272500Y-17061214D01*
X8543928Y-17061214D02*
X8515357Y-17046929D01*
X8501071Y-17018357D01*
X8501071Y-16761214D01*
X8772500Y-17046929D02*
X8743928Y-17061214D01*
X8686786Y-17061214D01*
X8658214Y-17046929D01*
X8643928Y-17018357D01*
X8643928Y-16904072D01*
X8658214Y-16875500D01*
X8686786Y-16861214D01*
X8743928Y-16861214D01*
X8772500Y-16875500D01*
X8786786Y-16904072D01*
X8786786Y-16932643D01*
X8643928Y-16961214D01*
X8901071Y-17046929D02*
X8929643Y-17061214D01*
X8986786Y-17061214D01*
X9015357Y-17046929D01*
X9029643Y-17018357D01*
X9029643Y-17004072D01*
X9015357Y-16975500D01*
X8986786Y-16961214D01*
X8943928Y-16961214D01*
X8915357Y-16946929D01*
X8901071Y-16918357D01*
X8901071Y-16904072D01*
X8915357Y-16875500D01*
X8943928Y-16861214D01*
X8986786Y-16861214D01*
X9015357Y-16875500D01*
X9129643Y-17175500D02*
X9143928Y-17161214D01*
X9172500Y-17118357D01*
X9186786Y-17089786D01*
X9201071Y-17046929D01*
X9215357Y-16975500D01*
X9215357Y-16918357D01*
X9201071Y-16846929D01*
X9186786Y-16804072D01*
X9172500Y-16775500D01*
X9143928Y-16732643D01*
X9129643Y-16718357D01*
X9672500Y-17175500D02*
X9658214Y-17161214D01*
X9629643Y-17118357D01*
X9615357Y-17089786D01*
X9601071Y-17046929D01*
X9586786Y-16975500D01*
X9586786Y-16918357D01*
X9601071Y-16846929D01*
X9615357Y-16804072D01*
X9629643Y-16775500D01*
X9658214Y-16732643D01*
X9672500Y-16718357D01*
X9786786Y-16861214D02*
X9786786Y-17061214D01*
X9786786Y-16889786D02*
X9801071Y-16875500D01*
X9829643Y-16861214D01*
X9872500Y-16861214D01*
X9901071Y-16875500D01*
X9915357Y-16904072D01*
X9915357Y-17061214D01*
X10101071Y-17061214D02*
X10072500Y-17046929D01*
X10058214Y-17032643D01*
X10043928Y-17004072D01*
X10043928Y-16918357D01*
X10058214Y-16889786D01*
X10072500Y-16875500D01*
X10101071Y-16861214D01*
X10143928Y-16861214D01*
X10172500Y-16875500D01*
X10186786Y-16889786D01*
X10201071Y-16918357D01*
X10201071Y-17004072D01*
X10186786Y-17032643D01*
X10172500Y-17046929D01*
X10143928Y-17061214D01*
X10101071Y-17061214D01*
X10286786Y-16861214D02*
X10401071Y-16861214D01*
X10329643Y-16761214D02*
X10329643Y-17018357D01*
X10343928Y-17046929D01*
X10372500Y-17061214D01*
X10401071Y-17061214D01*
X10729643Y-16861214D02*
X10729643Y-17161214D01*
X10729643Y-16875500D02*
X10758214Y-16861214D01*
X10815357Y-16861214D01*
X10843928Y-16875500D01*
X10858214Y-16889786D01*
X10872500Y-16918357D01*
X10872500Y-17004072D01*
X10858214Y-17032643D01*
X10843928Y-17046929D01*
X10815357Y-17061214D01*
X10758214Y-17061214D01*
X10729643Y-17046929D01*
X11043928Y-17061214D02*
X11015357Y-17046929D01*
X11001071Y-17018357D01*
X11001071Y-16761214D01*
X11286786Y-17061214D02*
X11286786Y-16904072D01*
X11272500Y-16875500D01*
X11243928Y-16861214D01*
X11186786Y-16861214D01*
X11158214Y-16875500D01*
X11286786Y-17046929D02*
X11258214Y-17061214D01*
X11186786Y-17061214D01*
X11158214Y-17046929D01*
X11143928Y-17018357D01*
X11143928Y-16989786D01*
X11158214Y-16961214D01*
X11186786Y-16946929D01*
X11258214Y-16946929D01*
X11286786Y-16932643D01*
X11386786Y-16861214D02*
X11501071Y-16861214D01*
X11429643Y-16761214D02*
X11429643Y-17018357D01*
X11443928Y-17046929D01*
X11472500Y-17061214D01*
X11501071Y-17061214D01*
X11715357Y-17046929D02*
X11686786Y-17061214D01*
X11629643Y-17061214D01*
X11601071Y-17046929D01*
X11586786Y-17018357D01*
X11586786Y-16904072D01*
X11601071Y-16875500D01*
X11629643Y-16861214D01*
X11686786Y-16861214D01*
X11715357Y-16875500D01*
X11729643Y-16904072D01*
X11729643Y-16932643D01*
X11586786Y-16961214D01*
X11986786Y-17061214D02*
X11986786Y-16761214D01*
X11986786Y-17046929D02*
X11958214Y-17061214D01*
X11901071Y-17061214D01*
X11872500Y-17046929D01*
X11858214Y-17032643D01*
X11843928Y-17004072D01*
X11843928Y-16918357D01*
X11858214Y-16889786D01*
X11872500Y-16875500D01*
X11901071Y-16861214D01*
X11958214Y-16861214D01*
X11986786Y-16875500D01*
X12101071Y-17175500D02*
X12115357Y-17161214D01*
X12143928Y-17118357D01*
X12158214Y-17089786D01*
X12172500Y-17046929D01*
X12186786Y-16975500D01*
X12186786Y-16918357D01*
X12172500Y-16846929D01*
X12158214Y-16804072D01*
X12143928Y-16775500D01*
X12115357Y-16732643D01*
X12101071Y-16718357D01*
X2037500Y-17195500D02*
X2357500Y-17515500D01*
X2357500Y-17195500D02*
X2037500Y-17515500D01*
X2197500Y-17515500D02*
X2357500Y-17355500D01*
X2197500Y-17195500D01*
X2037500Y-17355500D01*
X2197500Y-17515500D01*
X2615357Y-17191214D02*
X2801071Y-17191214D01*
X2701071Y-17305500D01*
X2743928Y-17305500D01*
X2772500Y-17319786D01*
X2786786Y-17334072D01*
X2801071Y-17362643D01*
X2801071Y-17434072D01*
X2786786Y-17462643D01*
X2772500Y-17476929D01*
X2743928Y-17491214D01*
X2658214Y-17491214D01*
X2629643Y-17476929D01*
X2615357Y-17462643D01*
X2929643Y-17462643D02*
X2943928Y-17476929D01*
X2929643Y-17491214D01*
X2915357Y-17476929D01*
X2929643Y-17462643D01*
X2929643Y-17491214D01*
X3058214Y-17219786D02*
X3072500Y-17205500D01*
X3101071Y-17191214D01*
X3172500Y-17191214D01*
X3201071Y-17205500D01*
X3215357Y-17219786D01*
X3229643Y-17248357D01*
X3229643Y-17276929D01*
X3215357Y-17319786D01*
X3043928Y-17491214D01*
X3229643Y-17491214D01*
X3415357Y-17191214D02*
X3443928Y-17191214D01*
X3472500Y-17205500D01*
X3486786Y-17219786D01*
X3501071Y-17248357D01*
X3515357Y-17305500D01*
X3515357Y-17376929D01*
X3501071Y-17434072D01*
X3486786Y-17462643D01*
X3472500Y-17476929D01*
X3443928Y-17491214D01*
X3415357Y-17491214D01*
X3386786Y-17476929D01*
X3372500Y-17462643D01*
X3358214Y-17434072D01*
X3343928Y-17376929D01*
X3343928Y-17305500D01*
X3358214Y-17248357D01*
X3372500Y-17219786D01*
X3386786Y-17205500D01*
X3415357Y-17191214D01*
X3643928Y-17491214D02*
X3643928Y-17291214D01*
X3643928Y-17319786D02*
X3658214Y-17305500D01*
X3686786Y-17291214D01*
X3729643Y-17291214D01*
X3758214Y-17305500D01*
X3772500Y-17334072D01*
X3772500Y-17491214D01*
X3772500Y-17334072D02*
X3786786Y-17305500D01*
X3815357Y-17291214D01*
X3858214Y-17291214D01*
X3886786Y-17305500D01*
X3901071Y-17334072D01*
X3901071Y-17491214D01*
X4043928Y-17491214D02*
X4043928Y-17291214D01*
X4043928Y-17319786D02*
X4058214Y-17305500D01*
X4086786Y-17291214D01*
X4129643Y-17291214D01*
X4158214Y-17305500D01*
X4172500Y-17334072D01*
X4172500Y-17491214D01*
X4172500Y-17334072D02*
X4186786Y-17305500D01*
X4215357Y-17291214D01*
X4258214Y-17291214D01*
X4286786Y-17305500D01*
X4301071Y-17334072D01*
X4301071Y-17491214D01*
X4886786Y-17176929D02*
X4629643Y-17562643D01*
X5272500Y-17191214D02*
X5301071Y-17191214D01*
X5329643Y-17205500D01*
X5343928Y-17219786D01*
X5358214Y-17248357D01*
X5372500Y-17305500D01*
X5372500Y-17376929D01*
X5358214Y-17434072D01*
X5343928Y-17462643D01*
X5329643Y-17476929D01*
X5301071Y-17491214D01*
X5272500Y-17491214D01*
X5243928Y-17476929D01*
X5229643Y-17462643D01*
X5215357Y-17434072D01*
X5201071Y-17376929D01*
X5201071Y-17305500D01*
X5215357Y-17248357D01*
X5229643Y-17219786D01*
X5243928Y-17205500D01*
X5272500Y-17191214D01*
X5501071Y-17462643D02*
X5515357Y-17476929D01*
X5501071Y-17491214D01*
X5486786Y-17476929D01*
X5501071Y-17462643D01*
X5501071Y-17491214D01*
X5801071Y-17491214D02*
X5629643Y-17491214D01*
X5715357Y-17491214D02*
X5715357Y-17191214D01*
X5686786Y-17234072D01*
X5658214Y-17262643D01*
X5629643Y-17276929D01*
X5915357Y-17219786D02*
X5929643Y-17205500D01*
X5958214Y-17191214D01*
X6029643Y-17191214D01*
X6058214Y-17205500D01*
X6072500Y-17219786D01*
X6086786Y-17248357D01*
X6086786Y-17276929D01*
X6072500Y-17319786D01*
X5901071Y-17491214D01*
X6086786Y-17491214D01*
X6343928Y-17191214D02*
X6286786Y-17191214D01*
X6258214Y-17205500D01*
X6243928Y-17219786D01*
X6215357Y-17262643D01*
X6201071Y-17319786D01*
X6201071Y-17434072D01*
X6215357Y-17462643D01*
X6229643Y-17476929D01*
X6258214Y-17491214D01*
X6315357Y-17491214D01*
X6343928Y-17476929D01*
X6358214Y-17462643D01*
X6372500Y-17434072D01*
X6372500Y-17362643D01*
X6358214Y-17334072D01*
X6343928Y-17319786D01*
X6315357Y-17305500D01*
X6258214Y-17305500D01*
X6229643Y-17319786D01*
X6215357Y-17334072D01*
X6201071Y-17362643D01*
X6486786Y-17191214D02*
X6486786Y-17248357D01*
X6601071Y-17191214D02*
X6601071Y-17248357D01*
X7043928Y-17605500D02*
X7029643Y-17591214D01*
X7001071Y-17548357D01*
X6986786Y-17519786D01*
X6972500Y-17476929D01*
X6958214Y-17405500D01*
X6958214Y-17348357D01*
X6972500Y-17276929D01*
X6986786Y-17234072D01*
X7001071Y-17205500D01*
X7029643Y-17162643D01*
X7043928Y-17148357D01*
X7201071Y-17319786D02*
X7172500Y-17305500D01*
X7158214Y-17291214D01*
X7143928Y-17262643D01*
X7143928Y-17248357D01*
X7158214Y-17219786D01*
X7172500Y-17205500D01*
X7201071Y-17191214D01*
X7258214Y-17191214D01*
X7286786Y-17205500D01*
X7301071Y-17219786D01*
X7315357Y-17248357D01*
X7315357Y-17262643D01*
X7301071Y-17291214D01*
X7286786Y-17305500D01*
X7258214Y-17319786D01*
X7201071Y-17319786D01*
X7172500Y-17334072D01*
X7158214Y-17348357D01*
X7143928Y-17376929D01*
X7143928Y-17434072D01*
X7158214Y-17462643D01*
X7172500Y-17476929D01*
X7201071Y-17491214D01*
X7258214Y-17491214D01*
X7286786Y-17476929D01*
X7301071Y-17462643D01*
X7315357Y-17434072D01*
X7315357Y-17376929D01*
X7301071Y-17348357D01*
X7286786Y-17334072D01*
X7258214Y-17319786D01*
X7672500Y-17491214D02*
X7672500Y-17191214D01*
X7801071Y-17491214D02*
X7801071Y-17334072D01*
X7786786Y-17305500D01*
X7758214Y-17291214D01*
X7715357Y-17291214D01*
X7686786Y-17305500D01*
X7672500Y-17319786D01*
X7986786Y-17491214D02*
X7958214Y-17476929D01*
X7943928Y-17462643D01*
X7929643Y-17434072D01*
X7929643Y-17348357D01*
X7943928Y-17319786D01*
X7958214Y-17305500D01*
X7986786Y-17291214D01*
X8029643Y-17291214D01*
X8058214Y-17305500D01*
X8072500Y-17319786D01*
X8086786Y-17348357D01*
X8086786Y-17434072D01*
X8072500Y-17462643D01*
X8058214Y-17476929D01*
X8029643Y-17491214D01*
X7986786Y-17491214D01*
X8258214Y-17491214D02*
X8229643Y-17476929D01*
X8215357Y-17448357D01*
X8215357Y-17191214D01*
X8486786Y-17476929D02*
X8458214Y-17491214D01*
X8401071Y-17491214D01*
X8372500Y-17476929D01*
X8358214Y-17448357D01*
X8358214Y-17334072D01*
X8372500Y-17305500D01*
X8401071Y-17291214D01*
X8458214Y-17291214D01*
X8486786Y-17305500D01*
X8501071Y-17334072D01*
X8501071Y-17362643D01*
X8358214Y-17391214D01*
X8615357Y-17476929D02*
X8643928Y-17491214D01*
X8701071Y-17491214D01*
X8729643Y-17476929D01*
X8743928Y-17448357D01*
X8743928Y-17434072D01*
X8729643Y-17405500D01*
X8701071Y-17391214D01*
X8658214Y-17391214D01*
X8629643Y-17376929D01*
X8615357Y-17348357D01*
X8615357Y-17334072D01*
X8629643Y-17305500D01*
X8658214Y-17291214D01*
X8701071Y-17291214D01*
X8729643Y-17305500D01*
X8843928Y-17605500D02*
X8858214Y-17591214D01*
X8886786Y-17548357D01*
X8901071Y-17519786D01*
X8915357Y-17476929D01*
X8929643Y-17405500D01*
X8929643Y-17348357D01*
X8915357Y-17276929D01*
X8901071Y-17234072D01*
X8886786Y-17205500D01*
X8858214Y-17162643D01*
X8843928Y-17148357D01*
X9386786Y-17605500D02*
X9372500Y-17591214D01*
X9343928Y-17548357D01*
X9329643Y-17519786D01*
X9315357Y-17476929D01*
X9301071Y-17405500D01*
X9301071Y-17348357D01*
X9315357Y-17276929D01*
X9329643Y-17234072D01*
X9343928Y-17205500D01*
X9372500Y-17162643D01*
X9386786Y-17148357D01*
X9501071Y-17291214D02*
X9501071Y-17491214D01*
X9501071Y-17319786D02*
X9515357Y-17305500D01*
X9543928Y-17291214D01*
X9586786Y-17291214D01*
X9615357Y-17305500D01*
X9629643Y-17334072D01*
X9629643Y-17491214D01*
X9815357Y-17491214D02*
X9786786Y-17476929D01*
X9772500Y-17462643D01*
X9758214Y-17434072D01*
X9758214Y-17348357D01*
X9772500Y-17319786D01*
X9786786Y-17305500D01*
X9815357Y-17291214D01*
X9858214Y-17291214D01*
X9886786Y-17305500D01*
X9901071Y-17319786D01*
X9915357Y-17348357D01*
X9915357Y-17434072D01*
X9901071Y-17462643D01*
X9886786Y-17476929D01*
X9858214Y-17491214D01*
X9815357Y-17491214D01*
X10001071Y-17291214D02*
X10115357Y-17291214D01*
X10043928Y-17191214D02*
X10043928Y-17448357D01*
X10058214Y-17476929D01*
X10086786Y-17491214D01*
X10115357Y-17491214D01*
X10443928Y-17291214D02*
X10443928Y-17591214D01*
X10443928Y-17305500D02*
X10472500Y-17291214D01*
X10529643Y-17291214D01*
X10558214Y-17305500D01*
X10572500Y-17319786D01*
X10586786Y-17348357D01*
X10586786Y-17434072D01*
X10572500Y-17462643D01*
X10558214Y-17476929D01*
X10529643Y-17491214D01*
X10472500Y-17491214D01*
X10443928Y-17476929D01*
X10758214Y-17491214D02*
X10729643Y-17476929D01*
X10715357Y-17448357D01*
X10715357Y-17191214D01*
X11001071Y-17491214D02*
X11001071Y-17334072D01*
X10986786Y-17305500D01*
X10958214Y-17291214D01*
X10901071Y-17291214D01*
X10872500Y-17305500D01*
X11001071Y-17476929D02*
X10972500Y-17491214D01*
X10901071Y-17491214D01*
X10872500Y-17476929D01*
X10858214Y-17448357D01*
X10858214Y-17419786D01*
X10872500Y-17391214D01*
X10901071Y-17376929D01*
X10972500Y-17376929D01*
X11001071Y-17362643D01*
X11101071Y-17291214D02*
X11215357Y-17291214D01*
X11143928Y-17191214D02*
X11143928Y-17448357D01*
X11158214Y-17476929D01*
X11186786Y-17491214D01*
X11215357Y-17491214D01*
X11429643Y-17476929D02*
X11401071Y-17491214D01*
X11343928Y-17491214D01*
X11315357Y-17476929D01*
X11301071Y-17448357D01*
X11301071Y-17334072D01*
X11315357Y-17305500D01*
X11343928Y-17291214D01*
X11401071Y-17291214D01*
X11429643Y-17305500D01*
X11443928Y-17334072D01*
X11443928Y-17362643D01*
X11301071Y-17391214D01*
X11701071Y-17491214D02*
X11701071Y-17191214D01*
X11701071Y-17476929D02*
X11672500Y-17491214D01*
X11615357Y-17491214D01*
X11586786Y-17476929D01*
X11572500Y-17462643D01*
X11558214Y-17434072D01*
X11558214Y-17348357D01*
X11572500Y-17319786D01*
X11586786Y-17305500D01*
X11615357Y-17291214D01*
X11672500Y-17291214D01*
X11701071Y-17305500D01*
X11815357Y-17605500D02*
X11829643Y-17591214D01*
X11858214Y-17548357D01*
X11872500Y-17519786D01*
X11886786Y-17476929D01*
X11901071Y-17405500D01*
X11901071Y-17348357D01*
X11886786Y-17276929D01*
X11872500Y-17234072D01*
X11858214Y-17205500D01*
X11829643Y-17162643D01*
X11815357Y-17148357D01*
X2157500Y-17605500D02*
X2157500Y-18005500D01*
X1957500Y-17805500D02*
X2357500Y-17805500D01*
X2357500Y-17805500D02*
G75*
G03X2357500Y-17805500I-200000J0D01*
G01*
X2772500Y-17741214D02*
X2772500Y-17941214D01*
X2701071Y-17626929D02*
X2629643Y-17841214D01*
X2815357Y-17841214D01*
X2929643Y-17912643D02*
X2943928Y-17926929D01*
X2929643Y-17941214D01*
X2915357Y-17926929D01*
X2929643Y-17912643D01*
X2929643Y-17941214D01*
X3129643Y-17641214D02*
X3158214Y-17641214D01*
X3186786Y-17655500D01*
X3201071Y-17669786D01*
X3215357Y-17698357D01*
X3229643Y-17755500D01*
X3229643Y-17826929D01*
X3215357Y-17884072D01*
X3201071Y-17912643D01*
X3186786Y-17926929D01*
X3158214Y-17941214D01*
X3129643Y-17941214D01*
X3101071Y-17926929D01*
X3086786Y-17912643D01*
X3072500Y-17884072D01*
X3058214Y-17826929D01*
X3058214Y-17755500D01*
X3072500Y-17698357D01*
X3086786Y-17669786D01*
X3101071Y-17655500D01*
X3129643Y-17641214D01*
X3415357Y-17641214D02*
X3443928Y-17641214D01*
X3472500Y-17655500D01*
X3486786Y-17669786D01*
X3501071Y-17698357D01*
X3515357Y-17755500D01*
X3515357Y-17826929D01*
X3501071Y-17884072D01*
X3486786Y-17912643D01*
X3472500Y-17926929D01*
X3443928Y-17941214D01*
X3415357Y-17941214D01*
X3386786Y-17926929D01*
X3372500Y-17912643D01*
X3358214Y-17884072D01*
X3343928Y-17826929D01*
X3343928Y-17755500D01*
X3358214Y-17698357D01*
X3372500Y-17669786D01*
X3386786Y-17655500D01*
X3415357Y-17641214D01*
X3643928Y-17941214D02*
X3643928Y-17741214D01*
X3643928Y-17769786D02*
X3658214Y-17755500D01*
X3686786Y-17741214D01*
X3729643Y-17741214D01*
X3758214Y-17755500D01*
X3772500Y-17784072D01*
X3772500Y-17941214D01*
X3772500Y-17784072D02*
X3786786Y-17755500D01*
X3815357Y-17741214D01*
X3858214Y-17741214D01*
X3886786Y-17755500D01*
X3901071Y-17784072D01*
X3901071Y-17941214D01*
X4043928Y-17941214D02*
X4043928Y-17741214D01*
X4043928Y-17769786D02*
X4058214Y-17755500D01*
X4086786Y-17741214D01*
X4129643Y-17741214D01*
X4158214Y-17755500D01*
X4172500Y-17784072D01*
X4172500Y-17941214D01*
X4172500Y-17784072D02*
X4186786Y-17755500D01*
X4215357Y-17741214D01*
X4258214Y-17741214D01*
X4286786Y-17755500D01*
X4301071Y-17784072D01*
X4301071Y-17941214D01*
X4886786Y-17626929D02*
X4629643Y-18012643D01*
X5272500Y-17641214D02*
X5301071Y-17641214D01*
X5329643Y-17655500D01*
X5343928Y-17669786D01*
X5358214Y-17698357D01*
X5372500Y-17755500D01*
X5372500Y-17826929D01*
X5358214Y-17884072D01*
X5343928Y-17912643D01*
X5329643Y-17926929D01*
X5301071Y-17941214D01*
X5272500Y-17941214D01*
X5243928Y-17926929D01*
X5229643Y-17912643D01*
X5215357Y-17884072D01*
X5201071Y-17826929D01*
X5201071Y-17755500D01*
X5215357Y-17698357D01*
X5229643Y-17669786D01*
X5243928Y-17655500D01*
X5272500Y-17641214D01*
X5501071Y-17912643D02*
X5515357Y-17926929D01*
X5501071Y-17941214D01*
X5486786Y-17926929D01*
X5501071Y-17912643D01*
X5501071Y-17941214D01*
X5801071Y-17941214D02*
X5629643Y-17941214D01*
X5715357Y-17941214D02*
X5715357Y-17641214D01*
X5686786Y-17684072D01*
X5658214Y-17712643D01*
X5629643Y-17726929D01*
X6072500Y-17641214D02*
X5929643Y-17641214D01*
X5915357Y-17784072D01*
X5929643Y-17769786D01*
X5958214Y-17755500D01*
X6029643Y-17755500D01*
X6058214Y-17769786D01*
X6072500Y-17784072D01*
X6086786Y-17812643D01*
X6086786Y-17884072D01*
X6072500Y-17912643D01*
X6058214Y-17926929D01*
X6029643Y-17941214D01*
X5958214Y-17941214D01*
X5929643Y-17926929D01*
X5915357Y-17912643D01*
X6186786Y-17641214D02*
X6386786Y-17641214D01*
X6258214Y-17941214D01*
X6486786Y-17641214D02*
X6486786Y-17698357D01*
X6601071Y-17641214D02*
X6601071Y-17698357D01*
X7043928Y-18055500D02*
X7029643Y-18041214D01*
X7001071Y-17998357D01*
X6986786Y-17969786D01*
X6972500Y-17926929D01*
X6958214Y-17855500D01*
X6958214Y-17798357D01*
X6972500Y-17726929D01*
X6986786Y-17684072D01*
X7001071Y-17655500D01*
X7029643Y-17612643D01*
X7043928Y-17598357D01*
X7129643Y-17641214D02*
X7315357Y-17641214D01*
X7215357Y-17755500D01*
X7258214Y-17755500D01*
X7286786Y-17769786D01*
X7301071Y-17784072D01*
X7315357Y-17812643D01*
X7315357Y-17884072D01*
X7301071Y-17912643D01*
X7286786Y-17926929D01*
X7258214Y-17941214D01*
X7172500Y-17941214D01*
X7143928Y-17926929D01*
X7129643Y-17912643D01*
X7601071Y-17941214D02*
X7429643Y-17941214D01*
X7515357Y-17941214D02*
X7515357Y-17641214D01*
X7486786Y-17684072D01*
X7458214Y-17712643D01*
X7429643Y-17726929D01*
X7958214Y-17941214D02*
X7958214Y-17641214D01*
X8086786Y-17941214D02*
X8086786Y-17784072D01*
X8072500Y-17755500D01*
X8043928Y-17741214D01*
X8001071Y-17741214D01*
X7972500Y-17755500D01*
X7958214Y-17769786D01*
X8272500Y-17941214D02*
X8243928Y-17926929D01*
X8229643Y-17912643D01*
X8215357Y-17884072D01*
X8215357Y-17798357D01*
X8229643Y-17769786D01*
X8243928Y-17755500D01*
X8272500Y-17741214D01*
X8315357Y-17741214D01*
X8343928Y-17755500D01*
X8358214Y-17769786D01*
X8372500Y-17798357D01*
X8372500Y-17884072D01*
X8358214Y-17912643D01*
X8343928Y-17926929D01*
X8315357Y-17941214D01*
X8272500Y-17941214D01*
X8543928Y-17941214D02*
X8515357Y-17926929D01*
X8501071Y-17898357D01*
X8501071Y-17641214D01*
X8772500Y-17926929D02*
X8743928Y-17941214D01*
X8686786Y-17941214D01*
X8658214Y-17926929D01*
X8643928Y-17898357D01*
X8643928Y-17784072D01*
X8658214Y-17755500D01*
X8686786Y-17741214D01*
X8743928Y-17741214D01*
X8772500Y-17755500D01*
X8786786Y-17784072D01*
X8786786Y-17812643D01*
X8643928Y-17841214D01*
X8901071Y-17926929D02*
X8929643Y-17941214D01*
X8986786Y-17941214D01*
X9015357Y-17926929D01*
X9029643Y-17898357D01*
X9029643Y-17884072D01*
X9015357Y-17855500D01*
X8986786Y-17841214D01*
X8943928Y-17841214D01*
X8915357Y-17826929D01*
X8901071Y-17798357D01*
X8901071Y-17784072D01*
X8915357Y-17755500D01*
X8943928Y-17741214D01*
X8986786Y-17741214D01*
X9015357Y-17755500D01*
X9129643Y-18055500D02*
X9143928Y-18041214D01*
X9172500Y-17998357D01*
X9186786Y-17969786D01*
X9201071Y-17926929D01*
X9215357Y-17855500D01*
X9215357Y-17798357D01*
X9201071Y-17726929D01*
X9186786Y-17684072D01*
X9172500Y-17655500D01*
X9143928Y-17612643D01*
X9129643Y-17598357D01*
X9672500Y-18055500D02*
X9658214Y-18041214D01*
X9629643Y-17998357D01*
X9615357Y-17969786D01*
X9601071Y-17926929D01*
X9586786Y-17855500D01*
X9586786Y-17798357D01*
X9601071Y-17726929D01*
X9615357Y-17684072D01*
X9629643Y-17655500D01*
X9658214Y-17612643D01*
X9672500Y-17598357D01*
X9786786Y-17741214D02*
X9786786Y-17941214D01*
X9786786Y-17769786D02*
X9801071Y-17755500D01*
X9829643Y-17741214D01*
X9872500Y-17741214D01*
X9901071Y-17755500D01*
X9915357Y-17784072D01*
X9915357Y-17941214D01*
X10101071Y-17941214D02*
X10072500Y-17926929D01*
X10058214Y-17912643D01*
X10043928Y-17884072D01*
X10043928Y-17798357D01*
X10058214Y-17769786D01*
X10072500Y-17755500D01*
X10101071Y-17741214D01*
X10143928Y-17741214D01*
X10172500Y-17755500D01*
X10186786Y-17769786D01*
X10201071Y-17798357D01*
X10201071Y-17884072D01*
X10186786Y-17912643D01*
X10172500Y-17926929D01*
X10143928Y-17941214D01*
X10101071Y-17941214D01*
X10286786Y-17741214D02*
X10401071Y-17741214D01*
X10329643Y-17641214D02*
X10329643Y-17898357D01*
X10343928Y-17926929D01*
X10372500Y-17941214D01*
X10401071Y-17941214D01*
X10729643Y-17741214D02*
X10729643Y-18041214D01*
X10729643Y-17755500D02*
X10758214Y-17741214D01*
X10815357Y-17741214D01*
X10843928Y-17755500D01*
X10858214Y-17769786D01*
X10872500Y-17798357D01*
X10872500Y-17884072D01*
X10858214Y-17912643D01*
X10843928Y-17926929D01*
X10815357Y-17941214D01*
X10758214Y-17941214D01*
X10729643Y-17926929D01*
X11043928Y-17941214D02*
X11015357Y-17926929D01*
X11001071Y-17898357D01*
X11001071Y-17641214D01*
X11286786Y-17941214D02*
X11286786Y-17784072D01*
X11272500Y-17755500D01*
X11243928Y-17741214D01*
X11186786Y-17741214D01*
X11158214Y-17755500D01*
X11286786Y-17926929D02*
X11258214Y-17941214D01*
X11186786Y-17941214D01*
X11158214Y-17926929D01*
X11143928Y-17898357D01*
X11143928Y-17869786D01*
X11158214Y-17841214D01*
X11186786Y-17826929D01*
X11258214Y-17826929D01*
X11286786Y-17812643D01*
X11386786Y-17741214D02*
X11501071Y-17741214D01*
X11429643Y-17641214D02*
X11429643Y-17898357D01*
X11443928Y-17926929D01*
X11472500Y-17941214D01*
X11501071Y-17941214D01*
X11715357Y-17926929D02*
X11686786Y-17941214D01*
X11629643Y-17941214D01*
X11601071Y-17926929D01*
X11586786Y-17898357D01*
X11586786Y-17784072D01*
X11601071Y-17755500D01*
X11629643Y-17741214D01*
X11686786Y-17741214D01*
X11715357Y-17755500D01*
X11729643Y-17784072D01*
X11729643Y-17812643D01*
X11586786Y-17841214D01*
X11986786Y-17941214D02*
X11986786Y-17641214D01*
X11986786Y-17926929D02*
X11958214Y-17941214D01*
X11901071Y-17941214D01*
X11872500Y-17926929D01*
X11858214Y-17912643D01*
X11843928Y-17884072D01*
X11843928Y-17798357D01*
X11858214Y-17769786D01*
X11872500Y-17755500D01*
X11901071Y-17741214D01*
X11958214Y-17741214D01*
X11986786Y-17755500D01*
X12101071Y-18055500D02*
X12115357Y-18041214D01*
X12143928Y-17998357D01*
X12158214Y-17969786D01*
X12172500Y-17926929D01*
X12186786Y-17855500D01*
X12186786Y-17798357D01*
X12172500Y-17726929D01*
X12158214Y-17684072D01*
X12143928Y-17655500D01*
X12115357Y-17612643D01*
X12101071Y-17598357D01*
M02*
