G04 #@! TF.GenerationSoftware,KiCad,Pcbnew,(5.0.0-3-g5ebb6b6)*
G04 #@! TF.CreationDate,2018-10-13T13:09:02+09:00*
G04 #@! TF.ProjectId,pakbd,70616B62642E6B696361645F70636200,1*
G04 #@! TF.SameCoordinates,Original*
G04 #@! TF.FileFunction,Legend,Bot*
G04 #@! TF.FilePolarity,Positive*
%FSLAX46Y46*%
G04 Gerber Fmt 4.6, Leading zero omitted, Abs format (unit mm)*
G04 Created by KiCad (PCBNEW (5.0.0-3-g5ebb6b6)) date *
%MOMM*%
%LPD*%
G01*
G04 APERTURE LIST*
%ADD10C,0.300000*%
%ADD11C,0.120000*%
%ADD12C,0.150000*%
%ADD13C,0.100000*%
%ADD14C,1.825000*%
%ADD15R,3.400000X2.900000*%
%ADD16C,2.160000*%
%ADD17C,4.400000*%
%ADD18C,3.400000*%
%ADD19R,16.900000X1.400000*%
%ADD20R,18.900000X1.400000*%
%ADD21C,3.600000*%
%ADD22R,1.900000X1.400000*%
%ADD23C,1.797000*%
%ADD24C,2.000000*%
%ADD25R,2.000000X2.000000*%
%ADD26C,1.600000*%
%ADD27O,2.700000X1.900000*%
G04 APERTURE END LIST*
D10*
X61580000Y-121724285D02*
X61651428Y-121652857D01*
X61794285Y-121581428D01*
X61937142Y-121581428D01*
X62080000Y-121652857D01*
X62151428Y-121724285D01*
X62222857Y-121867142D01*
X62222857Y-122010000D01*
X62151428Y-122152857D01*
X62080000Y-122224285D01*
X61937142Y-122295714D01*
X61794285Y-122295714D01*
X61651428Y-122224285D01*
X61580000Y-122152857D01*
X61580000Y-121581428D02*
X61580000Y-122152857D01*
X61508571Y-122224285D01*
X61437142Y-122224285D01*
X61294285Y-122152857D01*
X61222857Y-122010000D01*
X61222857Y-121652857D01*
X61365714Y-121438571D01*
X61580000Y-121295714D01*
X61865714Y-121224285D01*
X62151428Y-121295714D01*
X62365714Y-121438571D01*
X62508571Y-121652857D01*
X62580000Y-121938571D01*
X62508571Y-122224285D01*
X62365714Y-122438571D01*
X62151428Y-122581428D01*
X61865714Y-122652857D01*
X61580000Y-122581428D01*
X61365714Y-122438571D01*
X60722857Y-121438571D02*
X60365714Y-122438571D01*
X60008571Y-121438571D02*
X60365714Y-122438571D01*
X60508571Y-122795714D01*
X60580000Y-122867142D01*
X60722857Y-122938571D01*
X59508571Y-122367142D02*
X59365714Y-122438571D01*
X59080000Y-122438571D01*
X58937142Y-122367142D01*
X58865714Y-122224285D01*
X58865714Y-122152857D01*
X58937142Y-122010000D01*
X59080000Y-121938571D01*
X59294285Y-121938571D01*
X59437142Y-121867142D01*
X59508571Y-121724285D01*
X59508571Y-121652857D01*
X59437142Y-121510000D01*
X59294285Y-121438571D01*
X59080000Y-121438571D01*
X58937142Y-121510000D01*
X58222857Y-122438571D02*
X58222857Y-120938571D01*
X58080000Y-121867142D02*
X57651428Y-122438571D01*
X57651428Y-121438571D02*
X58222857Y-122010000D01*
X56794285Y-122438571D02*
X56937142Y-122367142D01*
X57008571Y-122295714D01*
X57080000Y-122152857D01*
X57080000Y-121724285D01*
X57008571Y-121581428D01*
X56937142Y-121510000D01*
X56794285Y-121438571D01*
X56580000Y-121438571D01*
X56437142Y-121510000D01*
X56365714Y-121581428D01*
X56294285Y-121724285D01*
X56294285Y-122152857D01*
X56365714Y-122295714D01*
X56437142Y-122367142D01*
X56580000Y-122438571D01*
X56794285Y-122438571D01*
X55651428Y-122438571D02*
X55651428Y-120938571D01*
X55008571Y-122438571D02*
X55008571Y-121652857D01*
X55080000Y-121510000D01*
X55222857Y-121438571D01*
X55437142Y-121438571D01*
X55580000Y-121510000D01*
X55651428Y-121581428D01*
X54508571Y-121438571D02*
X53937142Y-121438571D01*
X54294285Y-120938571D02*
X54294285Y-122224285D01*
X54222857Y-122367142D01*
X54080000Y-122438571D01*
X53937142Y-122438571D01*
X64258571Y-118688571D02*
X64258571Y-120188571D01*
X64258571Y-118760000D02*
X64115714Y-118688571D01*
X63830000Y-118688571D01*
X63687142Y-118760000D01*
X63615714Y-118831428D01*
X63544285Y-118974285D01*
X63544285Y-119402857D01*
X63615714Y-119545714D01*
X63687142Y-119617142D01*
X63830000Y-119688571D01*
X64115714Y-119688571D01*
X64258571Y-119617142D01*
X62258571Y-119688571D02*
X62258571Y-118902857D01*
X62330000Y-118760000D01*
X62472857Y-118688571D01*
X62758571Y-118688571D01*
X62901428Y-118760000D01*
X62258571Y-119617142D02*
X62401428Y-119688571D01*
X62758571Y-119688571D01*
X62901428Y-119617142D01*
X62972857Y-119474285D01*
X62972857Y-119331428D01*
X62901428Y-119188571D01*
X62758571Y-119117142D01*
X62401428Y-119117142D01*
X62258571Y-119045714D01*
X61544285Y-119688571D02*
X61544285Y-118188571D01*
X61401428Y-119117142D02*
X60972857Y-119688571D01*
X60972857Y-118688571D02*
X61544285Y-119260000D01*
X60330000Y-119688571D02*
X60330000Y-118188571D01*
X60330000Y-118760000D02*
X60187142Y-118688571D01*
X59901428Y-118688571D01*
X59758571Y-118760000D01*
X59687142Y-118831428D01*
X59615714Y-118974285D01*
X59615714Y-119402857D01*
X59687142Y-119545714D01*
X59758571Y-119617142D01*
X59901428Y-119688571D01*
X60187142Y-119688571D01*
X60330000Y-119617142D01*
X58330000Y-119688571D02*
X58330000Y-118188571D01*
X58330000Y-119617142D02*
X58472857Y-119688571D01*
X58758571Y-119688571D01*
X58901428Y-119617142D01*
X58972857Y-119545714D01*
X59044285Y-119402857D01*
X59044285Y-118974285D01*
X58972857Y-118831428D01*
X58901428Y-118760000D01*
X58758571Y-118688571D01*
X58472857Y-118688571D01*
X58330000Y-118760000D01*
X56472857Y-119688571D02*
X56472857Y-118688571D01*
X56472857Y-118974285D02*
X56401428Y-118831428D01*
X56330000Y-118760000D01*
X56187142Y-118688571D01*
X56044285Y-118688571D01*
X54972857Y-119617142D02*
X55115714Y-119688571D01*
X55401428Y-119688571D01*
X55544285Y-119617142D01*
X55615714Y-119474285D01*
X55615714Y-118902857D01*
X55544285Y-118760000D01*
X55401428Y-118688571D01*
X55115714Y-118688571D01*
X54972857Y-118760000D01*
X54901428Y-118902857D01*
X54901428Y-119045714D01*
X55615714Y-119188571D01*
X54401428Y-118688571D02*
X54044285Y-119688571D01*
X53687142Y-118688571D01*
X52330000Y-119688571D02*
X53187142Y-119688571D01*
X52758571Y-119688571D02*
X52758571Y-118188571D01*
X52901428Y-118402857D01*
X53044285Y-118545714D01*
X53187142Y-118617142D01*
D11*
G04 #@! TO.C,D17*
X111335000Y-79170000D02*
X111335000Y-75110000D01*
X113605000Y-79170000D02*
X111335000Y-79170000D01*
X113605000Y-75110000D02*
X113605000Y-79170000D01*
G04 #@! TO.C,D8*
X68447066Y-60160514D02*
X68447066Y-56100514D01*
X70717066Y-60160514D02*
X68447066Y-60160514D01*
X70717066Y-56100514D02*
X70717066Y-60160514D01*
G04 #@! TO.C,D20*
X156745000Y-79210000D02*
X156745000Y-75150000D01*
X159015000Y-79210000D02*
X156745000Y-79210000D01*
X159015000Y-75150000D02*
X159015000Y-79210000D01*
G04 #@! TO.C,D9*
X87497066Y-60160514D02*
X87497066Y-56100514D01*
X89767066Y-60160514D02*
X87497066Y-60160514D01*
X89767066Y-56100514D02*
X89767066Y-60160514D01*
G04 #@! TO.C,D10*
X106547066Y-60160514D02*
X106547066Y-56100514D01*
X108817066Y-60160514D02*
X106547066Y-60160514D01*
X108817066Y-56100514D02*
X108817066Y-60160514D01*
G04 #@! TO.C,D11*
X125597066Y-60160514D02*
X125597066Y-56100514D01*
X127867066Y-60160514D02*
X125597066Y-60160514D01*
X127867066Y-56100514D02*
X127867066Y-60160514D01*
G04 #@! TO.C,D12*
X144647066Y-60160514D02*
X144647066Y-56100514D01*
X146917066Y-60160514D02*
X144647066Y-60160514D01*
X146917066Y-56100514D02*
X146917066Y-60160514D01*
G04 #@! TO.C,D13*
X152035000Y-60110000D02*
X152035000Y-56050000D01*
X154305000Y-60110000D02*
X152035000Y-60110000D01*
X154305000Y-56050000D02*
X154305000Y-60110000D01*
G04 #@! TO.C,D14*
X47015000Y-79170000D02*
X47015000Y-75110000D01*
X49285000Y-79170000D02*
X47015000Y-79170000D01*
X49285000Y-75110000D02*
X49285000Y-79170000D01*
G04 #@! TO.C,D15*
X73235000Y-79170000D02*
X73235000Y-75110000D01*
X75505000Y-79170000D02*
X73235000Y-79170000D01*
X75505000Y-75110000D02*
X75505000Y-79170000D01*
G04 #@! TO.C,D16*
X92285000Y-79170000D02*
X92285000Y-75110000D01*
X94555000Y-79170000D02*
X92285000Y-79170000D01*
X94555000Y-75110000D02*
X94555000Y-79170000D01*
G04 #@! TO.C,D18*
X130385000Y-79170000D02*
X130385000Y-75110000D01*
X132655000Y-79170000D02*
X130385000Y-79170000D01*
X132655000Y-75110000D02*
X132655000Y-79170000D01*
G04 #@! TO.C,D19*
X149435000Y-79170000D02*
X149435000Y-75110000D01*
X151705000Y-79170000D02*
X149435000Y-79170000D01*
X151705000Y-75110000D02*
X151705000Y-79170000D01*
G04 #@! TO.C,D4*
X116145000Y-41147500D02*
X116145000Y-37087500D01*
X118415000Y-41147500D02*
X116145000Y-41147500D01*
X118415000Y-37087500D02*
X118415000Y-41147500D01*
G04 #@! TO.C,D5*
X135195000Y-41147500D02*
X135195000Y-37087500D01*
X137465000Y-41147500D02*
X135195000Y-41147500D01*
X137465000Y-37087500D02*
X137465000Y-41147500D01*
G04 #@! TO.C,D7*
X44677066Y-60160514D02*
X44677066Y-56100514D01*
X46947066Y-60160514D02*
X44677066Y-60160514D01*
X46947066Y-56100514D02*
X46947066Y-60160514D01*
G04 #@! TO.C,D6*
X142515000Y-41110000D02*
X142515000Y-37050000D01*
X144785000Y-41110000D02*
X142515000Y-41110000D01*
X144785000Y-37050000D02*
X144785000Y-41110000D01*
G04 #@! TO.C,D21*
X63725000Y-98220000D02*
X63725000Y-94160000D01*
X65995000Y-98220000D02*
X63725000Y-98220000D01*
X65995000Y-94160000D02*
X65995000Y-98220000D01*
G04 #@! TO.C,D22*
X82775000Y-98220000D02*
X82775000Y-94160000D01*
X85045000Y-98220000D02*
X82775000Y-98220000D01*
X85045000Y-94160000D02*
X85045000Y-98220000D01*
G04 #@! TO.C,D23*
X101825000Y-98220000D02*
X101825000Y-94160000D01*
X104095000Y-98220000D02*
X101825000Y-98220000D01*
X104095000Y-94160000D02*
X104095000Y-98220000D01*
G04 #@! TO.C,D24*
X120875000Y-98220000D02*
X120875000Y-94160000D01*
X123145000Y-98220000D02*
X120875000Y-98220000D01*
X123145000Y-94160000D02*
X123145000Y-98220000D01*
G04 #@! TO.C,D25*
X139925000Y-98220000D02*
X139925000Y-94160000D01*
X142195000Y-98220000D02*
X139925000Y-98220000D01*
X142195000Y-94160000D02*
X142195000Y-98220000D01*
G04 #@! TO.C,D27*
X89905000Y-117260000D02*
X89905000Y-113200000D01*
X92175000Y-117260000D02*
X89905000Y-117260000D01*
X92175000Y-113200000D02*
X92175000Y-117260000D01*
G04 #@! TO.C,D28*
X113735000Y-117260000D02*
X113735000Y-113200000D01*
X116005000Y-117260000D02*
X113735000Y-117260000D01*
X116005000Y-113200000D02*
X116005000Y-117260000D01*
G04 #@! TO.C,D29*
X149465000Y-117270000D02*
X149465000Y-113210000D01*
X151735000Y-117270000D02*
X149465000Y-117270000D01*
X151735000Y-113210000D02*
X151735000Y-117270000D01*
G04 #@! TO.C,D3*
X97095000Y-41147500D02*
X97095000Y-37087500D01*
X99365000Y-41147500D02*
X97095000Y-41147500D01*
X99365000Y-37087500D02*
X99365000Y-41147500D01*
G04 #@! TO.C,JP_db0*
X40170000Y-112340000D02*
X40170000Y-115140000D01*
X40170000Y-115140000D02*
X42170000Y-115140000D01*
X42170000Y-115140000D02*
X42170000Y-112340000D01*
X42170000Y-112340000D02*
X40170000Y-112340000D01*
G04 #@! TO.C,D26*
X147265000Y-98230000D02*
X147265000Y-94170000D01*
X149535000Y-98230000D02*
X147265000Y-98230000D01*
X149535000Y-94170000D02*
X149535000Y-98230000D01*
G04 #@! TO.C,D0*
X39945000Y-41147500D02*
X39945000Y-37087500D01*
X42215000Y-41147500D02*
X39945000Y-41147500D01*
X42215000Y-37087500D02*
X42215000Y-41147500D01*
G04 #@! TO.C,D1*
X58995000Y-41147500D02*
X58995000Y-37087500D01*
X61265000Y-41147500D02*
X58995000Y-41147500D01*
X61265000Y-37087500D02*
X61265000Y-41147500D01*
G04 #@! TO.C,D30*
X156845000Y-117230000D02*
X156845000Y-113170000D01*
X159115000Y-117230000D02*
X156845000Y-117230000D01*
X159115000Y-113170000D02*
X159115000Y-117230000D01*
G04 #@! TO.C,JP_da0*
X29950000Y-112340000D02*
X29950000Y-115140000D01*
X29950000Y-115140000D02*
X31950000Y-115140000D01*
X31950000Y-115140000D02*
X31950000Y-112340000D01*
X31950000Y-112340000D02*
X29950000Y-112340000D01*
G04 #@! TO.C,JP_xa0*
X27400000Y-112340000D02*
X27400000Y-115140000D01*
X27400000Y-115140000D02*
X29400000Y-115140000D01*
X29400000Y-115140000D02*
X29400000Y-112340000D01*
X29400000Y-112340000D02*
X27400000Y-112340000D01*
G04 #@! TO.C,JP_xb0*
X37550000Y-112340000D02*
X37550000Y-115140000D01*
X37550000Y-115140000D02*
X39550000Y-115140000D01*
X39550000Y-115140000D02*
X39550000Y-112340000D01*
X39550000Y-112340000D02*
X37550000Y-112340000D01*
G04 #@! TO.C,R_data0*
X33790436Y-121540000D02*
X34994564Y-121540000D01*
X33790436Y-123360000D02*
X34994564Y-123360000D01*
G04 #@! TO.C,R_xdata0*
X33790436Y-117650000D02*
X34994564Y-117650000D01*
X33790436Y-119470000D02*
X34994564Y-119470000D01*
G04 #@! TO.C,SW_r0*
X57720000Y-75580000D02*
G75*
G03X57720000Y-75580000I-2540000J0D01*
G01*
X51370000Y-72070000D02*
X51370000Y-71770000D01*
X58990000Y-72070000D02*
X58990000Y-71770000D01*
X51370000Y-77150000D02*
X51370000Y-74010000D01*
X58990000Y-77150000D02*
X58990000Y-74010000D01*
X51370000Y-79390000D02*
X51370000Y-79090000D01*
X58990000Y-71770000D02*
X51370000Y-71770000D01*
X58990000Y-79390000D02*
X58990000Y-79090000D01*
X51370000Y-79390000D02*
X58990000Y-79390000D01*
D12*
G04 #@! TO.C,U0*
X27130000Y-92060000D02*
X57610000Y-92060000D01*
X27130000Y-97140000D02*
X27130000Y-92060000D01*
X24590000Y-97140000D02*
X27130000Y-97140000D01*
X24590000Y-104760000D02*
X24590000Y-97140000D01*
X27130000Y-104760000D02*
X24590000Y-104760000D01*
X27130000Y-109840000D02*
X27130000Y-104760000D01*
X57610000Y-109840000D02*
X27130000Y-109840000D01*
X57610000Y-92060000D02*
X57610000Y-109840000D01*
G04 #@! TO.C,J0*
X25655000Y-77615000D02*
X37755000Y-77615000D01*
X25655000Y-71615000D02*
X25655000Y-77615000D01*
X37755000Y-71615000D02*
X25655000Y-71615000D01*
X37755000Y-77615000D02*
X37755000Y-71615000D01*
X23655000Y-77115000D02*
X25655000Y-77115000D01*
X23655000Y-72115000D02*
X25655000Y-72115000D01*
X23655000Y-77115000D02*
X23655000Y-72115000D01*
D11*
G04 #@! TO.C,D2*
X78045000Y-41147500D02*
X78045000Y-37087500D01*
X80315000Y-41147500D02*
X78045000Y-41147500D01*
X80315000Y-37087500D02*
X80315000Y-41147500D01*
G04 #@! TO.C,D17*
D12*
X114742380Y-75495714D02*
X113742380Y-75495714D01*
X113742380Y-75733809D01*
X113790000Y-75876666D01*
X113885238Y-75971904D01*
X113980476Y-76019523D01*
X114170952Y-76067142D01*
X114313809Y-76067142D01*
X114504285Y-76019523D01*
X114599523Y-75971904D01*
X114694761Y-75876666D01*
X114742380Y-75733809D01*
X114742380Y-75495714D01*
X114742380Y-77019523D02*
X114742380Y-76448095D01*
X114742380Y-76733809D02*
X113742380Y-76733809D01*
X113885238Y-76638571D01*
X113980476Y-76543333D01*
X114028095Y-76448095D01*
X113742380Y-77352857D02*
X113742380Y-78019523D01*
X114742380Y-77590952D01*
G04 #@! TO.C,D8*
X71854446Y-56962418D02*
X70854446Y-56962418D01*
X70854446Y-57200514D01*
X70902066Y-57343371D01*
X70997304Y-57438609D01*
X71092542Y-57486228D01*
X71283018Y-57533847D01*
X71425875Y-57533847D01*
X71616351Y-57486228D01*
X71711589Y-57438609D01*
X71806827Y-57343371D01*
X71854446Y-57200514D01*
X71854446Y-56962418D01*
X71283018Y-58105275D02*
X71235399Y-58010037D01*
X71187780Y-57962418D01*
X71092542Y-57914799D01*
X71044923Y-57914799D01*
X70949685Y-57962418D01*
X70902066Y-58010037D01*
X70854446Y-58105275D01*
X70854446Y-58295752D01*
X70902066Y-58390990D01*
X70949685Y-58438609D01*
X71044923Y-58486228D01*
X71092542Y-58486228D01*
X71187780Y-58438609D01*
X71235399Y-58390990D01*
X71283018Y-58295752D01*
X71283018Y-58105275D01*
X71330637Y-58010037D01*
X71378256Y-57962418D01*
X71473494Y-57914799D01*
X71663970Y-57914799D01*
X71759208Y-57962418D01*
X71806827Y-58010037D01*
X71854446Y-58105275D01*
X71854446Y-58295752D01*
X71806827Y-58390990D01*
X71759208Y-58438609D01*
X71663970Y-58486228D01*
X71473494Y-58486228D01*
X71378256Y-58438609D01*
X71330637Y-58390990D01*
X71283018Y-58295752D01*
G04 #@! TO.C,D20*
X160152380Y-75535714D02*
X159152380Y-75535714D01*
X159152380Y-75773809D01*
X159200000Y-75916666D01*
X159295238Y-76011904D01*
X159390476Y-76059523D01*
X159580952Y-76107142D01*
X159723809Y-76107142D01*
X159914285Y-76059523D01*
X160009523Y-76011904D01*
X160104761Y-75916666D01*
X160152380Y-75773809D01*
X160152380Y-75535714D01*
X159247619Y-76488095D02*
X159200000Y-76535714D01*
X159152380Y-76630952D01*
X159152380Y-76869047D01*
X159200000Y-76964285D01*
X159247619Y-77011904D01*
X159342857Y-77059523D01*
X159438095Y-77059523D01*
X159580952Y-77011904D01*
X160152380Y-76440476D01*
X160152380Y-77059523D01*
X159152380Y-77678571D02*
X159152380Y-77773809D01*
X159200000Y-77869047D01*
X159247619Y-77916666D01*
X159342857Y-77964285D01*
X159533333Y-78011904D01*
X159771428Y-78011904D01*
X159961904Y-77964285D01*
X160057142Y-77916666D01*
X160104761Y-77869047D01*
X160152380Y-77773809D01*
X160152380Y-77678571D01*
X160104761Y-77583333D01*
X160057142Y-77535714D01*
X159961904Y-77488095D01*
X159771428Y-77440476D01*
X159533333Y-77440476D01*
X159342857Y-77488095D01*
X159247619Y-77535714D01*
X159200000Y-77583333D01*
X159152380Y-77678571D01*
G04 #@! TO.C,D9*
X90904446Y-56962418D02*
X89904446Y-56962418D01*
X89904446Y-57200514D01*
X89952066Y-57343371D01*
X90047304Y-57438609D01*
X90142542Y-57486228D01*
X90333018Y-57533847D01*
X90475875Y-57533847D01*
X90666351Y-57486228D01*
X90761589Y-57438609D01*
X90856827Y-57343371D01*
X90904446Y-57200514D01*
X90904446Y-56962418D01*
X90904446Y-58010037D02*
X90904446Y-58200514D01*
X90856827Y-58295752D01*
X90809208Y-58343371D01*
X90666351Y-58438609D01*
X90475875Y-58486228D01*
X90094923Y-58486228D01*
X89999685Y-58438609D01*
X89952066Y-58390990D01*
X89904446Y-58295752D01*
X89904446Y-58105275D01*
X89952066Y-58010037D01*
X89999685Y-57962418D01*
X90094923Y-57914799D01*
X90333018Y-57914799D01*
X90428256Y-57962418D01*
X90475875Y-58010037D01*
X90523494Y-58105275D01*
X90523494Y-58295752D01*
X90475875Y-58390990D01*
X90428256Y-58438609D01*
X90333018Y-58486228D01*
G04 #@! TO.C,D10*
X109954446Y-56486228D02*
X108954446Y-56486228D01*
X108954446Y-56724323D01*
X109002066Y-56867180D01*
X109097304Y-56962418D01*
X109192542Y-57010037D01*
X109383018Y-57057656D01*
X109525875Y-57057656D01*
X109716351Y-57010037D01*
X109811589Y-56962418D01*
X109906827Y-56867180D01*
X109954446Y-56724323D01*
X109954446Y-56486228D01*
X109954446Y-58010037D02*
X109954446Y-57438609D01*
X109954446Y-57724323D02*
X108954446Y-57724323D01*
X109097304Y-57629085D01*
X109192542Y-57533847D01*
X109240161Y-57438609D01*
X108954446Y-58629085D02*
X108954446Y-58724323D01*
X109002066Y-58819561D01*
X109049685Y-58867180D01*
X109144923Y-58914799D01*
X109335399Y-58962418D01*
X109573494Y-58962418D01*
X109763970Y-58914799D01*
X109859208Y-58867180D01*
X109906827Y-58819561D01*
X109954446Y-58724323D01*
X109954446Y-58629085D01*
X109906827Y-58533847D01*
X109859208Y-58486228D01*
X109763970Y-58438609D01*
X109573494Y-58390990D01*
X109335399Y-58390990D01*
X109144923Y-58438609D01*
X109049685Y-58486228D01*
X109002066Y-58533847D01*
X108954446Y-58629085D01*
G04 #@! TO.C,D11*
X129004446Y-56486228D02*
X128004446Y-56486228D01*
X128004446Y-56724323D01*
X128052066Y-56867180D01*
X128147304Y-56962418D01*
X128242542Y-57010037D01*
X128433018Y-57057656D01*
X128575875Y-57057656D01*
X128766351Y-57010037D01*
X128861589Y-56962418D01*
X128956827Y-56867180D01*
X129004446Y-56724323D01*
X129004446Y-56486228D01*
X129004446Y-58010037D02*
X129004446Y-57438609D01*
X129004446Y-57724323D02*
X128004446Y-57724323D01*
X128147304Y-57629085D01*
X128242542Y-57533847D01*
X128290161Y-57438609D01*
X129004446Y-58962418D02*
X129004446Y-58390990D01*
X129004446Y-58676704D02*
X128004446Y-58676704D01*
X128147304Y-58581466D01*
X128242542Y-58486228D01*
X128290161Y-58390990D01*
G04 #@! TO.C,D12*
X148054446Y-56486228D02*
X147054446Y-56486228D01*
X147054446Y-56724323D01*
X147102066Y-56867180D01*
X147197304Y-56962418D01*
X147292542Y-57010037D01*
X147483018Y-57057656D01*
X147625875Y-57057656D01*
X147816351Y-57010037D01*
X147911589Y-56962418D01*
X148006827Y-56867180D01*
X148054446Y-56724323D01*
X148054446Y-56486228D01*
X148054446Y-58010037D02*
X148054446Y-57438609D01*
X148054446Y-57724323D02*
X147054446Y-57724323D01*
X147197304Y-57629085D01*
X147292542Y-57533847D01*
X147340161Y-57438609D01*
X147149685Y-58390990D02*
X147102066Y-58438609D01*
X147054446Y-58533847D01*
X147054446Y-58771942D01*
X147102066Y-58867180D01*
X147149685Y-58914799D01*
X147244923Y-58962418D01*
X147340161Y-58962418D01*
X147483018Y-58914799D01*
X148054446Y-58343371D01*
X148054446Y-58962418D01*
G04 #@! TO.C,D13*
X155442380Y-56435714D02*
X154442380Y-56435714D01*
X154442380Y-56673809D01*
X154490000Y-56816666D01*
X154585238Y-56911904D01*
X154680476Y-56959523D01*
X154870952Y-57007142D01*
X155013809Y-57007142D01*
X155204285Y-56959523D01*
X155299523Y-56911904D01*
X155394761Y-56816666D01*
X155442380Y-56673809D01*
X155442380Y-56435714D01*
X155442380Y-57959523D02*
X155442380Y-57388095D01*
X155442380Y-57673809D02*
X154442380Y-57673809D01*
X154585238Y-57578571D01*
X154680476Y-57483333D01*
X154728095Y-57388095D01*
X154442380Y-58292857D02*
X154442380Y-58911904D01*
X154823333Y-58578571D01*
X154823333Y-58721428D01*
X154870952Y-58816666D01*
X154918571Y-58864285D01*
X155013809Y-58911904D01*
X155251904Y-58911904D01*
X155347142Y-58864285D01*
X155394761Y-58816666D01*
X155442380Y-58721428D01*
X155442380Y-58435714D01*
X155394761Y-58340476D01*
X155347142Y-58292857D01*
G04 #@! TO.C,D14*
X50422380Y-75495714D02*
X49422380Y-75495714D01*
X49422380Y-75733809D01*
X49470000Y-75876666D01*
X49565238Y-75971904D01*
X49660476Y-76019523D01*
X49850952Y-76067142D01*
X49993809Y-76067142D01*
X50184285Y-76019523D01*
X50279523Y-75971904D01*
X50374761Y-75876666D01*
X50422380Y-75733809D01*
X50422380Y-75495714D01*
X50422380Y-77019523D02*
X50422380Y-76448095D01*
X50422380Y-76733809D02*
X49422380Y-76733809D01*
X49565238Y-76638571D01*
X49660476Y-76543333D01*
X49708095Y-76448095D01*
X49755714Y-77876666D02*
X50422380Y-77876666D01*
X49374761Y-77638571D02*
X50089047Y-77400476D01*
X50089047Y-78019523D01*
G04 #@! TO.C,D15*
X76642380Y-75495714D02*
X75642380Y-75495714D01*
X75642380Y-75733809D01*
X75690000Y-75876666D01*
X75785238Y-75971904D01*
X75880476Y-76019523D01*
X76070952Y-76067142D01*
X76213809Y-76067142D01*
X76404285Y-76019523D01*
X76499523Y-75971904D01*
X76594761Y-75876666D01*
X76642380Y-75733809D01*
X76642380Y-75495714D01*
X76642380Y-77019523D02*
X76642380Y-76448095D01*
X76642380Y-76733809D02*
X75642380Y-76733809D01*
X75785238Y-76638571D01*
X75880476Y-76543333D01*
X75928095Y-76448095D01*
X75642380Y-77924285D02*
X75642380Y-77448095D01*
X76118571Y-77400476D01*
X76070952Y-77448095D01*
X76023333Y-77543333D01*
X76023333Y-77781428D01*
X76070952Y-77876666D01*
X76118571Y-77924285D01*
X76213809Y-77971904D01*
X76451904Y-77971904D01*
X76547142Y-77924285D01*
X76594761Y-77876666D01*
X76642380Y-77781428D01*
X76642380Y-77543333D01*
X76594761Y-77448095D01*
X76547142Y-77400476D01*
G04 #@! TO.C,D16*
X95692380Y-75495714D02*
X94692380Y-75495714D01*
X94692380Y-75733809D01*
X94740000Y-75876666D01*
X94835238Y-75971904D01*
X94930476Y-76019523D01*
X95120952Y-76067142D01*
X95263809Y-76067142D01*
X95454285Y-76019523D01*
X95549523Y-75971904D01*
X95644761Y-75876666D01*
X95692380Y-75733809D01*
X95692380Y-75495714D01*
X95692380Y-77019523D02*
X95692380Y-76448095D01*
X95692380Y-76733809D02*
X94692380Y-76733809D01*
X94835238Y-76638571D01*
X94930476Y-76543333D01*
X94978095Y-76448095D01*
X94692380Y-77876666D02*
X94692380Y-77686190D01*
X94740000Y-77590952D01*
X94787619Y-77543333D01*
X94930476Y-77448095D01*
X95120952Y-77400476D01*
X95501904Y-77400476D01*
X95597142Y-77448095D01*
X95644761Y-77495714D01*
X95692380Y-77590952D01*
X95692380Y-77781428D01*
X95644761Y-77876666D01*
X95597142Y-77924285D01*
X95501904Y-77971904D01*
X95263809Y-77971904D01*
X95168571Y-77924285D01*
X95120952Y-77876666D01*
X95073333Y-77781428D01*
X95073333Y-77590952D01*
X95120952Y-77495714D01*
X95168571Y-77448095D01*
X95263809Y-77400476D01*
G04 #@! TO.C,D18*
X133792380Y-75495714D02*
X132792380Y-75495714D01*
X132792380Y-75733809D01*
X132840000Y-75876666D01*
X132935238Y-75971904D01*
X133030476Y-76019523D01*
X133220952Y-76067142D01*
X133363809Y-76067142D01*
X133554285Y-76019523D01*
X133649523Y-75971904D01*
X133744761Y-75876666D01*
X133792380Y-75733809D01*
X133792380Y-75495714D01*
X133792380Y-77019523D02*
X133792380Y-76448095D01*
X133792380Y-76733809D02*
X132792380Y-76733809D01*
X132935238Y-76638571D01*
X133030476Y-76543333D01*
X133078095Y-76448095D01*
X133220952Y-77590952D02*
X133173333Y-77495714D01*
X133125714Y-77448095D01*
X133030476Y-77400476D01*
X132982857Y-77400476D01*
X132887619Y-77448095D01*
X132840000Y-77495714D01*
X132792380Y-77590952D01*
X132792380Y-77781428D01*
X132840000Y-77876666D01*
X132887619Y-77924285D01*
X132982857Y-77971904D01*
X133030476Y-77971904D01*
X133125714Y-77924285D01*
X133173333Y-77876666D01*
X133220952Y-77781428D01*
X133220952Y-77590952D01*
X133268571Y-77495714D01*
X133316190Y-77448095D01*
X133411428Y-77400476D01*
X133601904Y-77400476D01*
X133697142Y-77448095D01*
X133744761Y-77495714D01*
X133792380Y-77590952D01*
X133792380Y-77781428D01*
X133744761Y-77876666D01*
X133697142Y-77924285D01*
X133601904Y-77971904D01*
X133411428Y-77971904D01*
X133316190Y-77924285D01*
X133268571Y-77876666D01*
X133220952Y-77781428D01*
G04 #@! TO.C,D19*
X152842380Y-75495714D02*
X151842380Y-75495714D01*
X151842380Y-75733809D01*
X151890000Y-75876666D01*
X151985238Y-75971904D01*
X152080476Y-76019523D01*
X152270952Y-76067142D01*
X152413809Y-76067142D01*
X152604285Y-76019523D01*
X152699523Y-75971904D01*
X152794761Y-75876666D01*
X152842380Y-75733809D01*
X152842380Y-75495714D01*
X152842380Y-77019523D02*
X152842380Y-76448095D01*
X152842380Y-76733809D02*
X151842380Y-76733809D01*
X151985238Y-76638571D01*
X152080476Y-76543333D01*
X152128095Y-76448095D01*
X152842380Y-77495714D02*
X152842380Y-77686190D01*
X152794761Y-77781428D01*
X152747142Y-77829047D01*
X152604285Y-77924285D01*
X152413809Y-77971904D01*
X152032857Y-77971904D01*
X151937619Y-77924285D01*
X151890000Y-77876666D01*
X151842380Y-77781428D01*
X151842380Y-77590952D01*
X151890000Y-77495714D01*
X151937619Y-77448095D01*
X152032857Y-77400476D01*
X152270952Y-77400476D01*
X152366190Y-77448095D01*
X152413809Y-77495714D01*
X152461428Y-77590952D01*
X152461428Y-77781428D01*
X152413809Y-77876666D01*
X152366190Y-77924285D01*
X152270952Y-77971904D01*
G04 #@! TO.C,D4*
X119552380Y-37949404D02*
X118552380Y-37949404D01*
X118552380Y-38187500D01*
X118600000Y-38330357D01*
X118695238Y-38425595D01*
X118790476Y-38473214D01*
X118980952Y-38520833D01*
X119123809Y-38520833D01*
X119314285Y-38473214D01*
X119409523Y-38425595D01*
X119504761Y-38330357D01*
X119552380Y-38187500D01*
X119552380Y-37949404D01*
X118885714Y-39377976D02*
X119552380Y-39377976D01*
X118504761Y-39139880D02*
X119219047Y-38901785D01*
X119219047Y-39520833D01*
G04 #@! TO.C,D5*
X138602380Y-37949404D02*
X137602380Y-37949404D01*
X137602380Y-38187500D01*
X137650000Y-38330357D01*
X137745238Y-38425595D01*
X137840476Y-38473214D01*
X138030952Y-38520833D01*
X138173809Y-38520833D01*
X138364285Y-38473214D01*
X138459523Y-38425595D01*
X138554761Y-38330357D01*
X138602380Y-38187500D01*
X138602380Y-37949404D01*
X137602380Y-39425595D02*
X137602380Y-38949404D01*
X138078571Y-38901785D01*
X138030952Y-38949404D01*
X137983333Y-39044642D01*
X137983333Y-39282738D01*
X138030952Y-39377976D01*
X138078571Y-39425595D01*
X138173809Y-39473214D01*
X138411904Y-39473214D01*
X138507142Y-39425595D01*
X138554761Y-39377976D01*
X138602380Y-39282738D01*
X138602380Y-39044642D01*
X138554761Y-38949404D01*
X138507142Y-38901785D01*
G04 #@! TO.C,D7*
X48084446Y-56962418D02*
X47084446Y-56962418D01*
X47084446Y-57200514D01*
X47132066Y-57343371D01*
X47227304Y-57438609D01*
X47322542Y-57486228D01*
X47513018Y-57533847D01*
X47655875Y-57533847D01*
X47846351Y-57486228D01*
X47941589Y-57438609D01*
X48036827Y-57343371D01*
X48084446Y-57200514D01*
X48084446Y-56962418D01*
X47084446Y-57867180D02*
X47084446Y-58533847D01*
X48084446Y-58105275D01*
G04 #@! TO.C,D6*
X145922380Y-37911904D02*
X144922380Y-37911904D01*
X144922380Y-38150000D01*
X144970000Y-38292857D01*
X145065238Y-38388095D01*
X145160476Y-38435714D01*
X145350952Y-38483333D01*
X145493809Y-38483333D01*
X145684285Y-38435714D01*
X145779523Y-38388095D01*
X145874761Y-38292857D01*
X145922380Y-38150000D01*
X145922380Y-37911904D01*
X144922380Y-39340476D02*
X144922380Y-39150000D01*
X144970000Y-39054761D01*
X145017619Y-39007142D01*
X145160476Y-38911904D01*
X145350952Y-38864285D01*
X145731904Y-38864285D01*
X145827142Y-38911904D01*
X145874761Y-38959523D01*
X145922380Y-39054761D01*
X145922380Y-39245238D01*
X145874761Y-39340476D01*
X145827142Y-39388095D01*
X145731904Y-39435714D01*
X145493809Y-39435714D01*
X145398571Y-39388095D01*
X145350952Y-39340476D01*
X145303333Y-39245238D01*
X145303333Y-39054761D01*
X145350952Y-38959523D01*
X145398571Y-38911904D01*
X145493809Y-38864285D01*
G04 #@! TO.C,D21*
X67132380Y-94545714D02*
X66132380Y-94545714D01*
X66132380Y-94783809D01*
X66180000Y-94926666D01*
X66275238Y-95021904D01*
X66370476Y-95069523D01*
X66560952Y-95117142D01*
X66703809Y-95117142D01*
X66894285Y-95069523D01*
X66989523Y-95021904D01*
X67084761Y-94926666D01*
X67132380Y-94783809D01*
X67132380Y-94545714D01*
X66227619Y-95498095D02*
X66180000Y-95545714D01*
X66132380Y-95640952D01*
X66132380Y-95879047D01*
X66180000Y-95974285D01*
X66227619Y-96021904D01*
X66322857Y-96069523D01*
X66418095Y-96069523D01*
X66560952Y-96021904D01*
X67132380Y-95450476D01*
X67132380Y-96069523D01*
X67132380Y-97021904D02*
X67132380Y-96450476D01*
X67132380Y-96736190D02*
X66132380Y-96736190D01*
X66275238Y-96640952D01*
X66370476Y-96545714D01*
X66418095Y-96450476D01*
G04 #@! TO.C,D22*
X86182380Y-94545714D02*
X85182380Y-94545714D01*
X85182380Y-94783809D01*
X85230000Y-94926666D01*
X85325238Y-95021904D01*
X85420476Y-95069523D01*
X85610952Y-95117142D01*
X85753809Y-95117142D01*
X85944285Y-95069523D01*
X86039523Y-95021904D01*
X86134761Y-94926666D01*
X86182380Y-94783809D01*
X86182380Y-94545714D01*
X85277619Y-95498095D02*
X85230000Y-95545714D01*
X85182380Y-95640952D01*
X85182380Y-95879047D01*
X85230000Y-95974285D01*
X85277619Y-96021904D01*
X85372857Y-96069523D01*
X85468095Y-96069523D01*
X85610952Y-96021904D01*
X86182380Y-95450476D01*
X86182380Y-96069523D01*
X85277619Y-96450476D02*
X85230000Y-96498095D01*
X85182380Y-96593333D01*
X85182380Y-96831428D01*
X85230000Y-96926666D01*
X85277619Y-96974285D01*
X85372857Y-97021904D01*
X85468095Y-97021904D01*
X85610952Y-96974285D01*
X86182380Y-96402857D01*
X86182380Y-97021904D01*
G04 #@! TO.C,D23*
X105232380Y-94545714D02*
X104232380Y-94545714D01*
X104232380Y-94783809D01*
X104280000Y-94926666D01*
X104375238Y-95021904D01*
X104470476Y-95069523D01*
X104660952Y-95117142D01*
X104803809Y-95117142D01*
X104994285Y-95069523D01*
X105089523Y-95021904D01*
X105184761Y-94926666D01*
X105232380Y-94783809D01*
X105232380Y-94545714D01*
X104327619Y-95498095D02*
X104280000Y-95545714D01*
X104232380Y-95640952D01*
X104232380Y-95879047D01*
X104280000Y-95974285D01*
X104327619Y-96021904D01*
X104422857Y-96069523D01*
X104518095Y-96069523D01*
X104660952Y-96021904D01*
X105232380Y-95450476D01*
X105232380Y-96069523D01*
X104232380Y-96402857D02*
X104232380Y-97021904D01*
X104613333Y-96688571D01*
X104613333Y-96831428D01*
X104660952Y-96926666D01*
X104708571Y-96974285D01*
X104803809Y-97021904D01*
X105041904Y-97021904D01*
X105137142Y-96974285D01*
X105184761Y-96926666D01*
X105232380Y-96831428D01*
X105232380Y-96545714D01*
X105184761Y-96450476D01*
X105137142Y-96402857D01*
G04 #@! TO.C,D24*
X124282380Y-94545714D02*
X123282380Y-94545714D01*
X123282380Y-94783809D01*
X123330000Y-94926666D01*
X123425238Y-95021904D01*
X123520476Y-95069523D01*
X123710952Y-95117142D01*
X123853809Y-95117142D01*
X124044285Y-95069523D01*
X124139523Y-95021904D01*
X124234761Y-94926666D01*
X124282380Y-94783809D01*
X124282380Y-94545714D01*
X123377619Y-95498095D02*
X123330000Y-95545714D01*
X123282380Y-95640952D01*
X123282380Y-95879047D01*
X123330000Y-95974285D01*
X123377619Y-96021904D01*
X123472857Y-96069523D01*
X123568095Y-96069523D01*
X123710952Y-96021904D01*
X124282380Y-95450476D01*
X124282380Y-96069523D01*
X123615714Y-96926666D02*
X124282380Y-96926666D01*
X123234761Y-96688571D02*
X123949047Y-96450476D01*
X123949047Y-97069523D01*
G04 #@! TO.C,D25*
X143332380Y-94545714D02*
X142332380Y-94545714D01*
X142332380Y-94783809D01*
X142380000Y-94926666D01*
X142475238Y-95021904D01*
X142570476Y-95069523D01*
X142760952Y-95117142D01*
X142903809Y-95117142D01*
X143094285Y-95069523D01*
X143189523Y-95021904D01*
X143284761Y-94926666D01*
X143332380Y-94783809D01*
X143332380Y-94545714D01*
X142427619Y-95498095D02*
X142380000Y-95545714D01*
X142332380Y-95640952D01*
X142332380Y-95879047D01*
X142380000Y-95974285D01*
X142427619Y-96021904D01*
X142522857Y-96069523D01*
X142618095Y-96069523D01*
X142760952Y-96021904D01*
X143332380Y-95450476D01*
X143332380Y-96069523D01*
X142332380Y-96974285D02*
X142332380Y-96498095D01*
X142808571Y-96450476D01*
X142760952Y-96498095D01*
X142713333Y-96593333D01*
X142713333Y-96831428D01*
X142760952Y-96926666D01*
X142808571Y-96974285D01*
X142903809Y-97021904D01*
X143141904Y-97021904D01*
X143237142Y-96974285D01*
X143284761Y-96926666D01*
X143332380Y-96831428D01*
X143332380Y-96593333D01*
X143284761Y-96498095D01*
X143237142Y-96450476D01*
G04 #@! TO.C,D27*
X93312380Y-113585714D02*
X92312380Y-113585714D01*
X92312380Y-113823809D01*
X92360000Y-113966666D01*
X92455238Y-114061904D01*
X92550476Y-114109523D01*
X92740952Y-114157142D01*
X92883809Y-114157142D01*
X93074285Y-114109523D01*
X93169523Y-114061904D01*
X93264761Y-113966666D01*
X93312380Y-113823809D01*
X93312380Y-113585714D01*
X92407619Y-114538095D02*
X92360000Y-114585714D01*
X92312380Y-114680952D01*
X92312380Y-114919047D01*
X92360000Y-115014285D01*
X92407619Y-115061904D01*
X92502857Y-115109523D01*
X92598095Y-115109523D01*
X92740952Y-115061904D01*
X93312380Y-114490476D01*
X93312380Y-115109523D01*
X92312380Y-115442857D02*
X92312380Y-116109523D01*
X93312380Y-115680952D01*
G04 #@! TO.C,D28*
X117142380Y-113585714D02*
X116142380Y-113585714D01*
X116142380Y-113823809D01*
X116190000Y-113966666D01*
X116285238Y-114061904D01*
X116380476Y-114109523D01*
X116570952Y-114157142D01*
X116713809Y-114157142D01*
X116904285Y-114109523D01*
X116999523Y-114061904D01*
X117094761Y-113966666D01*
X117142380Y-113823809D01*
X117142380Y-113585714D01*
X116237619Y-114538095D02*
X116190000Y-114585714D01*
X116142380Y-114680952D01*
X116142380Y-114919047D01*
X116190000Y-115014285D01*
X116237619Y-115061904D01*
X116332857Y-115109523D01*
X116428095Y-115109523D01*
X116570952Y-115061904D01*
X117142380Y-114490476D01*
X117142380Y-115109523D01*
X116570952Y-115680952D02*
X116523333Y-115585714D01*
X116475714Y-115538095D01*
X116380476Y-115490476D01*
X116332857Y-115490476D01*
X116237619Y-115538095D01*
X116190000Y-115585714D01*
X116142380Y-115680952D01*
X116142380Y-115871428D01*
X116190000Y-115966666D01*
X116237619Y-116014285D01*
X116332857Y-116061904D01*
X116380476Y-116061904D01*
X116475714Y-116014285D01*
X116523333Y-115966666D01*
X116570952Y-115871428D01*
X116570952Y-115680952D01*
X116618571Y-115585714D01*
X116666190Y-115538095D01*
X116761428Y-115490476D01*
X116951904Y-115490476D01*
X117047142Y-115538095D01*
X117094761Y-115585714D01*
X117142380Y-115680952D01*
X117142380Y-115871428D01*
X117094761Y-115966666D01*
X117047142Y-116014285D01*
X116951904Y-116061904D01*
X116761428Y-116061904D01*
X116666190Y-116014285D01*
X116618571Y-115966666D01*
X116570952Y-115871428D01*
G04 #@! TO.C,D29*
X152872380Y-113595714D02*
X151872380Y-113595714D01*
X151872380Y-113833809D01*
X151920000Y-113976666D01*
X152015238Y-114071904D01*
X152110476Y-114119523D01*
X152300952Y-114167142D01*
X152443809Y-114167142D01*
X152634285Y-114119523D01*
X152729523Y-114071904D01*
X152824761Y-113976666D01*
X152872380Y-113833809D01*
X152872380Y-113595714D01*
X151967619Y-114548095D02*
X151920000Y-114595714D01*
X151872380Y-114690952D01*
X151872380Y-114929047D01*
X151920000Y-115024285D01*
X151967619Y-115071904D01*
X152062857Y-115119523D01*
X152158095Y-115119523D01*
X152300952Y-115071904D01*
X152872380Y-114500476D01*
X152872380Y-115119523D01*
X152872380Y-115595714D02*
X152872380Y-115786190D01*
X152824761Y-115881428D01*
X152777142Y-115929047D01*
X152634285Y-116024285D01*
X152443809Y-116071904D01*
X152062857Y-116071904D01*
X151967619Y-116024285D01*
X151920000Y-115976666D01*
X151872380Y-115881428D01*
X151872380Y-115690952D01*
X151920000Y-115595714D01*
X151967619Y-115548095D01*
X152062857Y-115500476D01*
X152300952Y-115500476D01*
X152396190Y-115548095D01*
X152443809Y-115595714D01*
X152491428Y-115690952D01*
X152491428Y-115881428D01*
X152443809Y-115976666D01*
X152396190Y-116024285D01*
X152300952Y-116071904D01*
G04 #@! TO.C,D3*
X100502380Y-37949404D02*
X99502380Y-37949404D01*
X99502380Y-38187500D01*
X99550000Y-38330357D01*
X99645238Y-38425595D01*
X99740476Y-38473214D01*
X99930952Y-38520833D01*
X100073809Y-38520833D01*
X100264285Y-38473214D01*
X100359523Y-38425595D01*
X100454761Y-38330357D01*
X100502380Y-38187500D01*
X100502380Y-37949404D01*
X99502380Y-38854166D02*
X99502380Y-39473214D01*
X99883333Y-39139880D01*
X99883333Y-39282738D01*
X99930952Y-39377976D01*
X99978571Y-39425595D01*
X100073809Y-39473214D01*
X100311904Y-39473214D01*
X100407142Y-39425595D01*
X100454761Y-39377976D01*
X100502380Y-39282738D01*
X100502380Y-38997023D01*
X100454761Y-38901785D01*
X100407142Y-38854166D01*
G04 #@! TO.C,JP_db0*
X38822380Y-111620952D02*
X39536666Y-111620952D01*
X39679523Y-111573333D01*
X39774761Y-111478095D01*
X39822380Y-111335238D01*
X39822380Y-111240000D01*
X39822380Y-112097142D02*
X38822380Y-112097142D01*
X38822380Y-112478095D01*
X38870000Y-112573333D01*
X38917619Y-112620952D01*
X39012857Y-112668571D01*
X39155714Y-112668571D01*
X39250952Y-112620952D01*
X39298571Y-112573333D01*
X39346190Y-112478095D01*
X39346190Y-112097142D01*
X39917619Y-112859047D02*
X39917619Y-113620952D01*
X39822380Y-114287619D02*
X38822380Y-114287619D01*
X39774761Y-114287619D02*
X39822380Y-114192380D01*
X39822380Y-114001904D01*
X39774761Y-113906666D01*
X39727142Y-113859047D01*
X39631904Y-113811428D01*
X39346190Y-113811428D01*
X39250952Y-113859047D01*
X39203333Y-113906666D01*
X39155714Y-114001904D01*
X39155714Y-114192380D01*
X39203333Y-114287619D01*
X39822380Y-114763809D02*
X38822380Y-114763809D01*
X39203333Y-114763809D02*
X39155714Y-114859047D01*
X39155714Y-115049523D01*
X39203333Y-115144761D01*
X39250952Y-115192380D01*
X39346190Y-115240000D01*
X39631904Y-115240000D01*
X39727142Y-115192380D01*
X39774761Y-115144761D01*
X39822380Y-115049523D01*
X39822380Y-114859047D01*
X39774761Y-114763809D01*
X38822380Y-115859047D02*
X38822380Y-115954285D01*
X38870000Y-116049523D01*
X38917619Y-116097142D01*
X39012857Y-116144761D01*
X39203333Y-116192380D01*
X39441428Y-116192380D01*
X39631904Y-116144761D01*
X39727142Y-116097142D01*
X39774761Y-116049523D01*
X39822380Y-115954285D01*
X39822380Y-115859047D01*
X39774761Y-115763809D01*
X39727142Y-115716190D01*
X39631904Y-115668571D01*
X39441428Y-115620952D01*
X39203333Y-115620952D01*
X39012857Y-115668571D01*
X38917619Y-115716190D01*
X38870000Y-115763809D01*
X38822380Y-115859047D01*
G04 #@! TO.C,D26*
X150672380Y-94555714D02*
X149672380Y-94555714D01*
X149672380Y-94793809D01*
X149720000Y-94936666D01*
X149815238Y-95031904D01*
X149910476Y-95079523D01*
X150100952Y-95127142D01*
X150243809Y-95127142D01*
X150434285Y-95079523D01*
X150529523Y-95031904D01*
X150624761Y-94936666D01*
X150672380Y-94793809D01*
X150672380Y-94555714D01*
X149767619Y-95508095D02*
X149720000Y-95555714D01*
X149672380Y-95650952D01*
X149672380Y-95889047D01*
X149720000Y-95984285D01*
X149767619Y-96031904D01*
X149862857Y-96079523D01*
X149958095Y-96079523D01*
X150100952Y-96031904D01*
X150672380Y-95460476D01*
X150672380Y-96079523D01*
X149672380Y-96936666D02*
X149672380Y-96746190D01*
X149720000Y-96650952D01*
X149767619Y-96603333D01*
X149910476Y-96508095D01*
X150100952Y-96460476D01*
X150481904Y-96460476D01*
X150577142Y-96508095D01*
X150624761Y-96555714D01*
X150672380Y-96650952D01*
X150672380Y-96841428D01*
X150624761Y-96936666D01*
X150577142Y-96984285D01*
X150481904Y-97031904D01*
X150243809Y-97031904D01*
X150148571Y-96984285D01*
X150100952Y-96936666D01*
X150053333Y-96841428D01*
X150053333Y-96650952D01*
X150100952Y-96555714D01*
X150148571Y-96508095D01*
X150243809Y-96460476D01*
G04 #@! TO.C,D0*
X43352380Y-37949404D02*
X42352380Y-37949404D01*
X42352380Y-38187500D01*
X42400000Y-38330357D01*
X42495238Y-38425595D01*
X42590476Y-38473214D01*
X42780952Y-38520833D01*
X42923809Y-38520833D01*
X43114285Y-38473214D01*
X43209523Y-38425595D01*
X43304761Y-38330357D01*
X43352380Y-38187500D01*
X43352380Y-37949404D01*
X42352380Y-39139880D02*
X42352380Y-39235119D01*
X42400000Y-39330357D01*
X42447619Y-39377976D01*
X42542857Y-39425595D01*
X42733333Y-39473214D01*
X42971428Y-39473214D01*
X43161904Y-39425595D01*
X43257142Y-39377976D01*
X43304761Y-39330357D01*
X43352380Y-39235119D01*
X43352380Y-39139880D01*
X43304761Y-39044642D01*
X43257142Y-38997023D01*
X43161904Y-38949404D01*
X42971428Y-38901785D01*
X42733333Y-38901785D01*
X42542857Y-38949404D01*
X42447619Y-38997023D01*
X42400000Y-39044642D01*
X42352380Y-39139880D01*
G04 #@! TO.C,D1*
X62402380Y-37949404D02*
X61402380Y-37949404D01*
X61402380Y-38187500D01*
X61450000Y-38330357D01*
X61545238Y-38425595D01*
X61640476Y-38473214D01*
X61830952Y-38520833D01*
X61973809Y-38520833D01*
X62164285Y-38473214D01*
X62259523Y-38425595D01*
X62354761Y-38330357D01*
X62402380Y-38187500D01*
X62402380Y-37949404D01*
X62402380Y-39473214D02*
X62402380Y-38901785D01*
X62402380Y-39187500D02*
X61402380Y-39187500D01*
X61545238Y-39092261D01*
X61640476Y-38997023D01*
X61688095Y-38901785D01*
G04 #@! TO.C,D30*
X160252380Y-113555714D02*
X159252380Y-113555714D01*
X159252380Y-113793809D01*
X159300000Y-113936666D01*
X159395238Y-114031904D01*
X159490476Y-114079523D01*
X159680952Y-114127142D01*
X159823809Y-114127142D01*
X160014285Y-114079523D01*
X160109523Y-114031904D01*
X160204761Y-113936666D01*
X160252380Y-113793809D01*
X160252380Y-113555714D01*
X159252380Y-114460476D02*
X159252380Y-115079523D01*
X159633333Y-114746190D01*
X159633333Y-114889047D01*
X159680952Y-114984285D01*
X159728571Y-115031904D01*
X159823809Y-115079523D01*
X160061904Y-115079523D01*
X160157142Y-115031904D01*
X160204761Y-114984285D01*
X160252380Y-114889047D01*
X160252380Y-114603333D01*
X160204761Y-114508095D01*
X160157142Y-114460476D01*
X159252380Y-115698571D02*
X159252380Y-115793809D01*
X159300000Y-115889047D01*
X159347619Y-115936666D01*
X159442857Y-115984285D01*
X159633333Y-116031904D01*
X159871428Y-116031904D01*
X160061904Y-115984285D01*
X160157142Y-115936666D01*
X160204761Y-115889047D01*
X160252380Y-115793809D01*
X160252380Y-115698571D01*
X160204761Y-115603333D01*
X160157142Y-115555714D01*
X160061904Y-115508095D01*
X159871428Y-115460476D01*
X159633333Y-115460476D01*
X159442857Y-115508095D01*
X159347619Y-115555714D01*
X159300000Y-115603333D01*
X159252380Y-115698571D01*
G04 #@! TO.C,JP_da0*
X28602380Y-111620952D02*
X29316666Y-111620952D01*
X29459523Y-111573333D01*
X29554761Y-111478095D01*
X29602380Y-111335238D01*
X29602380Y-111240000D01*
X29602380Y-112097142D02*
X28602380Y-112097142D01*
X28602380Y-112478095D01*
X28650000Y-112573333D01*
X28697619Y-112620952D01*
X28792857Y-112668571D01*
X28935714Y-112668571D01*
X29030952Y-112620952D01*
X29078571Y-112573333D01*
X29126190Y-112478095D01*
X29126190Y-112097142D01*
X29697619Y-112859047D02*
X29697619Y-113620952D01*
X29602380Y-114287619D02*
X28602380Y-114287619D01*
X29554761Y-114287619D02*
X29602380Y-114192380D01*
X29602380Y-114001904D01*
X29554761Y-113906666D01*
X29507142Y-113859047D01*
X29411904Y-113811428D01*
X29126190Y-113811428D01*
X29030952Y-113859047D01*
X28983333Y-113906666D01*
X28935714Y-114001904D01*
X28935714Y-114192380D01*
X28983333Y-114287619D01*
X29602380Y-115192380D02*
X29078571Y-115192380D01*
X28983333Y-115144761D01*
X28935714Y-115049523D01*
X28935714Y-114859047D01*
X28983333Y-114763809D01*
X29554761Y-115192380D02*
X29602380Y-115097142D01*
X29602380Y-114859047D01*
X29554761Y-114763809D01*
X29459523Y-114716190D01*
X29364285Y-114716190D01*
X29269047Y-114763809D01*
X29221428Y-114859047D01*
X29221428Y-115097142D01*
X29173809Y-115192380D01*
X28602380Y-115859047D02*
X28602380Y-115954285D01*
X28650000Y-116049523D01*
X28697619Y-116097142D01*
X28792857Y-116144761D01*
X28983333Y-116192380D01*
X29221428Y-116192380D01*
X29411904Y-116144761D01*
X29507142Y-116097142D01*
X29554761Y-116049523D01*
X29602380Y-115954285D01*
X29602380Y-115859047D01*
X29554761Y-115763809D01*
X29507142Y-115716190D01*
X29411904Y-115668571D01*
X29221428Y-115620952D01*
X28983333Y-115620952D01*
X28792857Y-115668571D01*
X28697619Y-115716190D01*
X28650000Y-115763809D01*
X28602380Y-115859047D01*
G04 #@! TO.C,JP_xa0*
X26052380Y-111668571D02*
X26766666Y-111668571D01*
X26909523Y-111620952D01*
X27004761Y-111525714D01*
X27052380Y-111382857D01*
X27052380Y-111287619D01*
X27052380Y-112144761D02*
X26052380Y-112144761D01*
X26052380Y-112525714D01*
X26100000Y-112620952D01*
X26147619Y-112668571D01*
X26242857Y-112716190D01*
X26385714Y-112716190D01*
X26480952Y-112668571D01*
X26528571Y-112620952D01*
X26576190Y-112525714D01*
X26576190Y-112144761D01*
X27147619Y-112906666D02*
X27147619Y-113668571D01*
X27052380Y-113811428D02*
X26385714Y-114335238D01*
X26385714Y-113811428D02*
X27052380Y-114335238D01*
X27052380Y-115144761D02*
X26528571Y-115144761D01*
X26433333Y-115097142D01*
X26385714Y-115001904D01*
X26385714Y-114811428D01*
X26433333Y-114716190D01*
X27004761Y-115144761D02*
X27052380Y-115049523D01*
X27052380Y-114811428D01*
X27004761Y-114716190D01*
X26909523Y-114668571D01*
X26814285Y-114668571D01*
X26719047Y-114716190D01*
X26671428Y-114811428D01*
X26671428Y-115049523D01*
X26623809Y-115144761D01*
X26052380Y-115811428D02*
X26052380Y-115906666D01*
X26100000Y-116001904D01*
X26147619Y-116049523D01*
X26242857Y-116097142D01*
X26433333Y-116144761D01*
X26671428Y-116144761D01*
X26861904Y-116097142D01*
X26957142Y-116049523D01*
X27004761Y-116001904D01*
X27052380Y-115906666D01*
X27052380Y-115811428D01*
X27004761Y-115716190D01*
X26957142Y-115668571D01*
X26861904Y-115620952D01*
X26671428Y-115573333D01*
X26433333Y-115573333D01*
X26242857Y-115620952D01*
X26147619Y-115668571D01*
X26100000Y-115716190D01*
X26052380Y-115811428D01*
G04 #@! TO.C,JP_xb0*
X36202380Y-111668571D02*
X36916666Y-111668571D01*
X37059523Y-111620952D01*
X37154761Y-111525714D01*
X37202380Y-111382857D01*
X37202380Y-111287619D01*
X37202380Y-112144761D02*
X36202380Y-112144761D01*
X36202380Y-112525714D01*
X36250000Y-112620952D01*
X36297619Y-112668571D01*
X36392857Y-112716190D01*
X36535714Y-112716190D01*
X36630952Y-112668571D01*
X36678571Y-112620952D01*
X36726190Y-112525714D01*
X36726190Y-112144761D01*
X37297619Y-112906666D02*
X37297619Y-113668571D01*
X37202380Y-113811428D02*
X36535714Y-114335238D01*
X36535714Y-113811428D02*
X37202380Y-114335238D01*
X37202380Y-114716190D02*
X36202380Y-114716190D01*
X36583333Y-114716190D02*
X36535714Y-114811428D01*
X36535714Y-115001904D01*
X36583333Y-115097142D01*
X36630952Y-115144761D01*
X36726190Y-115192380D01*
X37011904Y-115192380D01*
X37107142Y-115144761D01*
X37154761Y-115097142D01*
X37202380Y-115001904D01*
X37202380Y-114811428D01*
X37154761Y-114716190D01*
X36202380Y-115811428D02*
X36202380Y-115906666D01*
X36250000Y-116001904D01*
X36297619Y-116049523D01*
X36392857Y-116097142D01*
X36583333Y-116144761D01*
X36821428Y-116144761D01*
X37011904Y-116097142D01*
X37107142Y-116049523D01*
X37154761Y-116001904D01*
X37202380Y-115906666D01*
X37202380Y-115811428D01*
X37154761Y-115716190D01*
X37107142Y-115668571D01*
X37011904Y-115620952D01*
X36821428Y-115573333D01*
X36583333Y-115573333D01*
X36392857Y-115620952D01*
X36297619Y-115668571D01*
X36250000Y-115716190D01*
X36202380Y-115811428D01*
G04 #@! TO.C,R_data0*
X36582976Y-124722380D02*
X36916309Y-124246190D01*
X37154404Y-124722380D02*
X37154404Y-123722380D01*
X36773452Y-123722380D01*
X36678214Y-123770000D01*
X36630595Y-123817619D01*
X36582976Y-123912857D01*
X36582976Y-124055714D01*
X36630595Y-124150952D01*
X36678214Y-124198571D01*
X36773452Y-124246190D01*
X37154404Y-124246190D01*
X36392500Y-124817619D02*
X35630595Y-124817619D01*
X34963928Y-124722380D02*
X34963928Y-123722380D01*
X34963928Y-124674761D02*
X35059166Y-124722380D01*
X35249642Y-124722380D01*
X35344880Y-124674761D01*
X35392500Y-124627142D01*
X35440119Y-124531904D01*
X35440119Y-124246190D01*
X35392500Y-124150952D01*
X35344880Y-124103333D01*
X35249642Y-124055714D01*
X35059166Y-124055714D01*
X34963928Y-124103333D01*
X34059166Y-124722380D02*
X34059166Y-124198571D01*
X34106785Y-124103333D01*
X34202023Y-124055714D01*
X34392500Y-124055714D01*
X34487738Y-124103333D01*
X34059166Y-124674761D02*
X34154404Y-124722380D01*
X34392500Y-124722380D01*
X34487738Y-124674761D01*
X34535357Y-124579523D01*
X34535357Y-124484285D01*
X34487738Y-124389047D01*
X34392500Y-124341428D01*
X34154404Y-124341428D01*
X34059166Y-124293809D01*
X33725833Y-124055714D02*
X33344880Y-124055714D01*
X33582976Y-123722380D02*
X33582976Y-124579523D01*
X33535357Y-124674761D01*
X33440119Y-124722380D01*
X33344880Y-124722380D01*
X32582976Y-124722380D02*
X32582976Y-124198571D01*
X32630595Y-124103333D01*
X32725833Y-124055714D01*
X32916309Y-124055714D01*
X33011547Y-124103333D01*
X32582976Y-124674761D02*
X32678214Y-124722380D01*
X32916309Y-124722380D01*
X33011547Y-124674761D01*
X33059166Y-124579523D01*
X33059166Y-124484285D01*
X33011547Y-124389047D01*
X32916309Y-124341428D01*
X32678214Y-124341428D01*
X32582976Y-124293809D01*
X31916309Y-123722380D02*
X31821071Y-123722380D01*
X31725833Y-123770000D01*
X31678214Y-123817619D01*
X31630595Y-123912857D01*
X31582976Y-124103333D01*
X31582976Y-124341428D01*
X31630595Y-124531904D01*
X31678214Y-124627142D01*
X31725833Y-124674761D01*
X31821071Y-124722380D01*
X31916309Y-124722380D01*
X32011547Y-124674761D01*
X32059166Y-124627142D01*
X32106785Y-124531904D01*
X32154404Y-124341428D01*
X32154404Y-124103333D01*
X32106785Y-123912857D01*
X32059166Y-123817619D01*
X32011547Y-123770000D01*
X31916309Y-123722380D01*
G04 #@! TO.C,R_xdata0*
X36987738Y-120832380D02*
X37321071Y-120356190D01*
X37559166Y-120832380D02*
X37559166Y-119832380D01*
X37178214Y-119832380D01*
X37082976Y-119880000D01*
X37035357Y-119927619D01*
X36987738Y-120022857D01*
X36987738Y-120165714D01*
X37035357Y-120260952D01*
X37082976Y-120308571D01*
X37178214Y-120356190D01*
X37559166Y-120356190D01*
X36797261Y-120927619D02*
X36035357Y-120927619D01*
X35892500Y-120832380D02*
X35368690Y-120165714D01*
X35892500Y-120165714D02*
X35368690Y-120832380D01*
X34559166Y-120832380D02*
X34559166Y-119832380D01*
X34559166Y-120784761D02*
X34654404Y-120832380D01*
X34844880Y-120832380D01*
X34940119Y-120784761D01*
X34987738Y-120737142D01*
X35035357Y-120641904D01*
X35035357Y-120356190D01*
X34987738Y-120260952D01*
X34940119Y-120213333D01*
X34844880Y-120165714D01*
X34654404Y-120165714D01*
X34559166Y-120213333D01*
X33654404Y-120832380D02*
X33654404Y-120308571D01*
X33702023Y-120213333D01*
X33797261Y-120165714D01*
X33987738Y-120165714D01*
X34082976Y-120213333D01*
X33654404Y-120784761D02*
X33749642Y-120832380D01*
X33987738Y-120832380D01*
X34082976Y-120784761D01*
X34130595Y-120689523D01*
X34130595Y-120594285D01*
X34082976Y-120499047D01*
X33987738Y-120451428D01*
X33749642Y-120451428D01*
X33654404Y-120403809D01*
X33321071Y-120165714D02*
X32940119Y-120165714D01*
X33178214Y-119832380D02*
X33178214Y-120689523D01*
X33130595Y-120784761D01*
X33035357Y-120832380D01*
X32940119Y-120832380D01*
X32178214Y-120832380D02*
X32178214Y-120308571D01*
X32225833Y-120213333D01*
X32321071Y-120165714D01*
X32511547Y-120165714D01*
X32606785Y-120213333D01*
X32178214Y-120784761D02*
X32273452Y-120832380D01*
X32511547Y-120832380D01*
X32606785Y-120784761D01*
X32654404Y-120689523D01*
X32654404Y-120594285D01*
X32606785Y-120499047D01*
X32511547Y-120451428D01*
X32273452Y-120451428D01*
X32178214Y-120403809D01*
X31511547Y-119832380D02*
X31416309Y-119832380D01*
X31321071Y-119880000D01*
X31273452Y-119927619D01*
X31225833Y-120022857D01*
X31178214Y-120213333D01*
X31178214Y-120451428D01*
X31225833Y-120641904D01*
X31273452Y-120737142D01*
X31321071Y-120784761D01*
X31416309Y-120832380D01*
X31511547Y-120832380D01*
X31606785Y-120784761D01*
X31654404Y-120737142D01*
X31702023Y-120641904D01*
X31749642Y-120451428D01*
X31749642Y-120213333D01*
X31702023Y-120022857D01*
X31654404Y-119927619D01*
X31606785Y-119880000D01*
X31511547Y-119832380D01*
G04 #@! TO.C,SW_r0*
X57203809Y-80604761D02*
X57060952Y-80652380D01*
X56822857Y-80652380D01*
X56727619Y-80604761D01*
X56680000Y-80557142D01*
X56632380Y-80461904D01*
X56632380Y-80366666D01*
X56680000Y-80271428D01*
X56727619Y-80223809D01*
X56822857Y-80176190D01*
X57013333Y-80128571D01*
X57108571Y-80080952D01*
X57156190Y-80033333D01*
X57203809Y-79938095D01*
X57203809Y-79842857D01*
X57156190Y-79747619D01*
X57108571Y-79700000D01*
X57013333Y-79652380D01*
X56775238Y-79652380D01*
X56632380Y-79700000D01*
X56299047Y-79652380D02*
X56060952Y-80652380D01*
X55870476Y-79938095D01*
X55680000Y-80652380D01*
X55441904Y-79652380D01*
X55299047Y-80747619D02*
X54537142Y-80747619D01*
X54299047Y-80652380D02*
X54299047Y-79985714D01*
X54299047Y-80176190D02*
X54251428Y-80080952D01*
X54203809Y-80033333D01*
X54108571Y-79985714D01*
X54013333Y-79985714D01*
X53489523Y-79652380D02*
X53394285Y-79652380D01*
X53299047Y-79700000D01*
X53251428Y-79747619D01*
X53203809Y-79842857D01*
X53156190Y-80033333D01*
X53156190Y-80271428D01*
X53203809Y-80461904D01*
X53251428Y-80557142D01*
X53299047Y-80604761D01*
X53394285Y-80652380D01*
X53489523Y-80652380D01*
X53584761Y-80604761D01*
X53632380Y-80557142D01*
X53680000Y-80461904D01*
X53727619Y-80271428D01*
X53727619Y-80033333D01*
X53680000Y-79842857D01*
X53632380Y-79747619D01*
X53584761Y-79700000D01*
X53489523Y-79652380D01*
G04 #@! TO.C,J0*
X32038333Y-72009180D02*
X32038333Y-72723466D01*
X32085952Y-72866323D01*
X32181190Y-72961561D01*
X32324047Y-73009180D01*
X32419285Y-73009180D01*
X31371666Y-72009180D02*
X31276428Y-72009180D01*
X31181190Y-72056800D01*
X31133571Y-72104419D01*
X31085952Y-72199657D01*
X31038333Y-72390133D01*
X31038333Y-72628228D01*
X31085952Y-72818704D01*
X31133571Y-72913942D01*
X31181190Y-72961561D01*
X31276428Y-73009180D01*
X31371666Y-73009180D01*
X31466904Y-72961561D01*
X31514523Y-72913942D01*
X31562142Y-72818704D01*
X31609761Y-72628228D01*
X31609761Y-72390133D01*
X31562142Y-72199657D01*
X31514523Y-72104419D01*
X31466904Y-72056800D01*
X31371666Y-72009180D01*
G04 #@! TO.C,D2*
X81452380Y-37949404D02*
X80452380Y-37949404D01*
X80452380Y-38187500D01*
X80500000Y-38330357D01*
X80595238Y-38425595D01*
X80690476Y-38473214D01*
X80880952Y-38520833D01*
X81023809Y-38520833D01*
X81214285Y-38473214D01*
X81309523Y-38425595D01*
X81404761Y-38330357D01*
X81452380Y-38187500D01*
X81452380Y-37949404D01*
X80547619Y-38901785D02*
X80500000Y-38949404D01*
X80452380Y-39044642D01*
X80452380Y-39282738D01*
X80500000Y-39377976D01*
X80547619Y-39425595D01*
X80642857Y-39473214D01*
X80738095Y-39473214D01*
X80880952Y-39425595D01*
X81452380Y-38854166D01*
X81452380Y-39473214D01*
G04 #@! TD*
%LPC*%
D13*
G04 #@! TO.C,D17*
G36*
X113256207Y-74311542D02*
X113287287Y-74316152D01*
X113317766Y-74323787D01*
X113347350Y-74334372D01*
X113375754Y-74347806D01*
X113402704Y-74363959D01*
X113427942Y-74382677D01*
X113451223Y-74403777D01*
X113472323Y-74427058D01*
X113491041Y-74452296D01*
X113507194Y-74479246D01*
X113520628Y-74507650D01*
X113531213Y-74537234D01*
X113538848Y-74567713D01*
X113543458Y-74598793D01*
X113545000Y-74630176D01*
X113545000Y-75814824D01*
X113543458Y-75846207D01*
X113538848Y-75877287D01*
X113531213Y-75907766D01*
X113520628Y-75937350D01*
X113507194Y-75965754D01*
X113491041Y-75992704D01*
X113472323Y-76017942D01*
X113451223Y-76041223D01*
X113427942Y-76062323D01*
X113402704Y-76081041D01*
X113375754Y-76097194D01*
X113347350Y-76110628D01*
X113317766Y-76121213D01*
X113287287Y-76128848D01*
X113256207Y-76133458D01*
X113224824Y-76135000D01*
X111715176Y-76135000D01*
X111683793Y-76133458D01*
X111652713Y-76128848D01*
X111622234Y-76121213D01*
X111592650Y-76110628D01*
X111564246Y-76097194D01*
X111537296Y-76081041D01*
X111512058Y-76062323D01*
X111488777Y-76041223D01*
X111467677Y-76017942D01*
X111448959Y-75992704D01*
X111432806Y-75965754D01*
X111419372Y-75937350D01*
X111408787Y-75907766D01*
X111401152Y-75877287D01*
X111396542Y-75846207D01*
X111395000Y-75814824D01*
X111395000Y-74630176D01*
X111396542Y-74598793D01*
X111401152Y-74567713D01*
X111408787Y-74537234D01*
X111419372Y-74507650D01*
X111432806Y-74479246D01*
X111448959Y-74452296D01*
X111467677Y-74427058D01*
X111488777Y-74403777D01*
X111512058Y-74382677D01*
X111537296Y-74363959D01*
X111564246Y-74347806D01*
X111592650Y-74334372D01*
X111622234Y-74323787D01*
X111652713Y-74316152D01*
X111683793Y-74311542D01*
X111715176Y-74310000D01*
X113224824Y-74310000D01*
X113256207Y-74311542D01*
X113256207Y-74311542D01*
G37*
D14*
X112470000Y-75222500D03*
D13*
G36*
X113256207Y-77286542D02*
X113287287Y-77291152D01*
X113317766Y-77298787D01*
X113347350Y-77309372D01*
X113375754Y-77322806D01*
X113402704Y-77338959D01*
X113427942Y-77357677D01*
X113451223Y-77378777D01*
X113472323Y-77402058D01*
X113491041Y-77427296D01*
X113507194Y-77454246D01*
X113520628Y-77482650D01*
X113531213Y-77512234D01*
X113538848Y-77542713D01*
X113543458Y-77573793D01*
X113545000Y-77605176D01*
X113545000Y-78789824D01*
X113543458Y-78821207D01*
X113538848Y-78852287D01*
X113531213Y-78882766D01*
X113520628Y-78912350D01*
X113507194Y-78940754D01*
X113491041Y-78967704D01*
X113472323Y-78992942D01*
X113451223Y-79016223D01*
X113427942Y-79037323D01*
X113402704Y-79056041D01*
X113375754Y-79072194D01*
X113347350Y-79085628D01*
X113317766Y-79096213D01*
X113287287Y-79103848D01*
X113256207Y-79108458D01*
X113224824Y-79110000D01*
X111715176Y-79110000D01*
X111683793Y-79108458D01*
X111652713Y-79103848D01*
X111622234Y-79096213D01*
X111592650Y-79085628D01*
X111564246Y-79072194D01*
X111537296Y-79056041D01*
X111512058Y-79037323D01*
X111488777Y-79016223D01*
X111467677Y-78992942D01*
X111448959Y-78967704D01*
X111432806Y-78940754D01*
X111419372Y-78912350D01*
X111408787Y-78882766D01*
X111401152Y-78852287D01*
X111396542Y-78821207D01*
X111395000Y-78789824D01*
X111395000Y-77605176D01*
X111396542Y-77573793D01*
X111401152Y-77542713D01*
X111408787Y-77512234D01*
X111419372Y-77482650D01*
X111432806Y-77454246D01*
X111448959Y-77427296D01*
X111467677Y-77402058D01*
X111488777Y-77378777D01*
X111512058Y-77357677D01*
X111537296Y-77338959D01*
X111564246Y-77322806D01*
X111592650Y-77309372D01*
X111622234Y-77298787D01*
X111652713Y-77291152D01*
X111683793Y-77286542D01*
X111715176Y-77285000D01*
X113224824Y-77285000D01*
X113256207Y-77286542D01*
X113256207Y-77286542D01*
G37*
D14*
X112470000Y-78197500D03*
G04 #@! TD*
D15*
G04 #@! TO.C,SW20*
X171387000Y-83780000D03*
X157417000Y-86320000D03*
D16*
X158687000Y-81240000D03*
X168847000Y-81240000D03*
D17*
X163767000Y-81240000D03*
D18*
X167577000Y-83780000D03*
X161227000Y-86320000D03*
G04 #@! TD*
D13*
G04 #@! TO.C,D8*
G36*
X70368273Y-55302056D02*
X70399353Y-55306666D01*
X70429832Y-55314301D01*
X70459416Y-55324886D01*
X70487820Y-55338320D01*
X70514770Y-55354473D01*
X70540008Y-55373191D01*
X70563289Y-55394291D01*
X70584389Y-55417572D01*
X70603107Y-55442810D01*
X70619260Y-55469760D01*
X70632694Y-55498164D01*
X70643279Y-55527748D01*
X70650914Y-55558227D01*
X70655524Y-55589307D01*
X70657066Y-55620690D01*
X70657066Y-56805338D01*
X70655524Y-56836721D01*
X70650914Y-56867801D01*
X70643279Y-56898280D01*
X70632694Y-56927864D01*
X70619260Y-56956268D01*
X70603107Y-56983218D01*
X70584389Y-57008456D01*
X70563289Y-57031737D01*
X70540008Y-57052837D01*
X70514770Y-57071555D01*
X70487820Y-57087708D01*
X70459416Y-57101142D01*
X70429832Y-57111727D01*
X70399353Y-57119362D01*
X70368273Y-57123972D01*
X70336890Y-57125514D01*
X68827242Y-57125514D01*
X68795859Y-57123972D01*
X68764779Y-57119362D01*
X68734300Y-57111727D01*
X68704716Y-57101142D01*
X68676312Y-57087708D01*
X68649362Y-57071555D01*
X68624124Y-57052837D01*
X68600843Y-57031737D01*
X68579743Y-57008456D01*
X68561025Y-56983218D01*
X68544872Y-56956268D01*
X68531438Y-56927864D01*
X68520853Y-56898280D01*
X68513218Y-56867801D01*
X68508608Y-56836721D01*
X68507066Y-56805338D01*
X68507066Y-55620690D01*
X68508608Y-55589307D01*
X68513218Y-55558227D01*
X68520853Y-55527748D01*
X68531438Y-55498164D01*
X68544872Y-55469760D01*
X68561025Y-55442810D01*
X68579743Y-55417572D01*
X68600843Y-55394291D01*
X68624124Y-55373191D01*
X68649362Y-55354473D01*
X68676312Y-55338320D01*
X68704716Y-55324886D01*
X68734300Y-55314301D01*
X68764779Y-55306666D01*
X68795859Y-55302056D01*
X68827242Y-55300514D01*
X70336890Y-55300514D01*
X70368273Y-55302056D01*
X70368273Y-55302056D01*
G37*
D14*
X69582066Y-56213014D03*
D13*
G36*
X70368273Y-58277056D02*
X70399353Y-58281666D01*
X70429832Y-58289301D01*
X70459416Y-58299886D01*
X70487820Y-58313320D01*
X70514770Y-58329473D01*
X70540008Y-58348191D01*
X70563289Y-58369291D01*
X70584389Y-58392572D01*
X70603107Y-58417810D01*
X70619260Y-58444760D01*
X70632694Y-58473164D01*
X70643279Y-58502748D01*
X70650914Y-58533227D01*
X70655524Y-58564307D01*
X70657066Y-58595690D01*
X70657066Y-59780338D01*
X70655524Y-59811721D01*
X70650914Y-59842801D01*
X70643279Y-59873280D01*
X70632694Y-59902864D01*
X70619260Y-59931268D01*
X70603107Y-59958218D01*
X70584389Y-59983456D01*
X70563289Y-60006737D01*
X70540008Y-60027837D01*
X70514770Y-60046555D01*
X70487820Y-60062708D01*
X70459416Y-60076142D01*
X70429832Y-60086727D01*
X70399353Y-60094362D01*
X70368273Y-60098972D01*
X70336890Y-60100514D01*
X68827242Y-60100514D01*
X68795859Y-60098972D01*
X68764779Y-60094362D01*
X68734300Y-60086727D01*
X68704716Y-60076142D01*
X68676312Y-60062708D01*
X68649362Y-60046555D01*
X68624124Y-60027837D01*
X68600843Y-60006737D01*
X68579743Y-59983456D01*
X68561025Y-59958218D01*
X68544872Y-59931268D01*
X68531438Y-59902864D01*
X68520853Y-59873280D01*
X68513218Y-59842801D01*
X68508608Y-59811721D01*
X68507066Y-59780338D01*
X68507066Y-58595690D01*
X68508608Y-58564307D01*
X68513218Y-58533227D01*
X68520853Y-58502748D01*
X68531438Y-58473164D01*
X68544872Y-58444760D01*
X68561025Y-58417810D01*
X68579743Y-58392572D01*
X68600843Y-58369291D01*
X68624124Y-58348191D01*
X68649362Y-58329473D01*
X68676312Y-58313320D01*
X68704716Y-58299886D01*
X68734300Y-58289301D01*
X68764779Y-58281666D01*
X68795859Y-58277056D01*
X68827242Y-58275514D01*
X70336890Y-58275514D01*
X70368273Y-58277056D01*
X70368273Y-58277056D01*
G37*
D14*
X69582066Y-59188014D03*
G04 #@! TD*
D19*
G04 #@! TO.C,cr04*
X110029999Y-52240001D03*
G04 #@! TD*
D13*
G04 #@! TO.C,D20*
G36*
X158666207Y-74351542D02*
X158697287Y-74356152D01*
X158727766Y-74363787D01*
X158757350Y-74374372D01*
X158785754Y-74387806D01*
X158812704Y-74403959D01*
X158837942Y-74422677D01*
X158861223Y-74443777D01*
X158882323Y-74467058D01*
X158901041Y-74492296D01*
X158917194Y-74519246D01*
X158930628Y-74547650D01*
X158941213Y-74577234D01*
X158948848Y-74607713D01*
X158953458Y-74638793D01*
X158955000Y-74670176D01*
X158955000Y-75854824D01*
X158953458Y-75886207D01*
X158948848Y-75917287D01*
X158941213Y-75947766D01*
X158930628Y-75977350D01*
X158917194Y-76005754D01*
X158901041Y-76032704D01*
X158882323Y-76057942D01*
X158861223Y-76081223D01*
X158837942Y-76102323D01*
X158812704Y-76121041D01*
X158785754Y-76137194D01*
X158757350Y-76150628D01*
X158727766Y-76161213D01*
X158697287Y-76168848D01*
X158666207Y-76173458D01*
X158634824Y-76175000D01*
X157125176Y-76175000D01*
X157093793Y-76173458D01*
X157062713Y-76168848D01*
X157032234Y-76161213D01*
X157002650Y-76150628D01*
X156974246Y-76137194D01*
X156947296Y-76121041D01*
X156922058Y-76102323D01*
X156898777Y-76081223D01*
X156877677Y-76057942D01*
X156858959Y-76032704D01*
X156842806Y-76005754D01*
X156829372Y-75977350D01*
X156818787Y-75947766D01*
X156811152Y-75917287D01*
X156806542Y-75886207D01*
X156805000Y-75854824D01*
X156805000Y-74670176D01*
X156806542Y-74638793D01*
X156811152Y-74607713D01*
X156818787Y-74577234D01*
X156829372Y-74547650D01*
X156842806Y-74519246D01*
X156858959Y-74492296D01*
X156877677Y-74467058D01*
X156898777Y-74443777D01*
X156922058Y-74422677D01*
X156947296Y-74403959D01*
X156974246Y-74387806D01*
X157002650Y-74374372D01*
X157032234Y-74363787D01*
X157062713Y-74356152D01*
X157093793Y-74351542D01*
X157125176Y-74350000D01*
X158634824Y-74350000D01*
X158666207Y-74351542D01*
X158666207Y-74351542D01*
G37*
D14*
X157880000Y-75262500D03*
D13*
G36*
X158666207Y-77326542D02*
X158697287Y-77331152D01*
X158727766Y-77338787D01*
X158757350Y-77349372D01*
X158785754Y-77362806D01*
X158812704Y-77378959D01*
X158837942Y-77397677D01*
X158861223Y-77418777D01*
X158882323Y-77442058D01*
X158901041Y-77467296D01*
X158917194Y-77494246D01*
X158930628Y-77522650D01*
X158941213Y-77552234D01*
X158948848Y-77582713D01*
X158953458Y-77613793D01*
X158955000Y-77645176D01*
X158955000Y-78829824D01*
X158953458Y-78861207D01*
X158948848Y-78892287D01*
X158941213Y-78922766D01*
X158930628Y-78952350D01*
X158917194Y-78980754D01*
X158901041Y-79007704D01*
X158882323Y-79032942D01*
X158861223Y-79056223D01*
X158837942Y-79077323D01*
X158812704Y-79096041D01*
X158785754Y-79112194D01*
X158757350Y-79125628D01*
X158727766Y-79136213D01*
X158697287Y-79143848D01*
X158666207Y-79148458D01*
X158634824Y-79150000D01*
X157125176Y-79150000D01*
X157093793Y-79148458D01*
X157062713Y-79143848D01*
X157032234Y-79136213D01*
X157002650Y-79125628D01*
X156974246Y-79112194D01*
X156947296Y-79096041D01*
X156922058Y-79077323D01*
X156898777Y-79056223D01*
X156877677Y-79032942D01*
X156858959Y-79007704D01*
X156842806Y-78980754D01*
X156829372Y-78952350D01*
X156818787Y-78922766D01*
X156811152Y-78892287D01*
X156806542Y-78861207D01*
X156805000Y-78829824D01*
X156805000Y-77645176D01*
X156806542Y-77613793D01*
X156811152Y-77582713D01*
X156818787Y-77552234D01*
X156829372Y-77522650D01*
X156842806Y-77494246D01*
X156858959Y-77467296D01*
X156877677Y-77442058D01*
X156898777Y-77418777D01*
X156922058Y-77397677D01*
X156947296Y-77378959D01*
X156974246Y-77362806D01*
X157002650Y-77349372D01*
X157032234Y-77338787D01*
X157062713Y-77331152D01*
X157093793Y-77326542D01*
X157125176Y-77325000D01*
X158634824Y-77325000D01*
X158666207Y-77326542D01*
X158666207Y-77326542D01*
G37*
D14*
X157880000Y-78237500D03*
G04 #@! TD*
D19*
G04 #@! TO.C,cr02*
X71929999Y-52240001D03*
G04 #@! TD*
D13*
G04 #@! TO.C,D9*
G36*
X89418273Y-55302056D02*
X89449353Y-55306666D01*
X89479832Y-55314301D01*
X89509416Y-55324886D01*
X89537820Y-55338320D01*
X89564770Y-55354473D01*
X89590008Y-55373191D01*
X89613289Y-55394291D01*
X89634389Y-55417572D01*
X89653107Y-55442810D01*
X89669260Y-55469760D01*
X89682694Y-55498164D01*
X89693279Y-55527748D01*
X89700914Y-55558227D01*
X89705524Y-55589307D01*
X89707066Y-55620690D01*
X89707066Y-56805338D01*
X89705524Y-56836721D01*
X89700914Y-56867801D01*
X89693279Y-56898280D01*
X89682694Y-56927864D01*
X89669260Y-56956268D01*
X89653107Y-56983218D01*
X89634389Y-57008456D01*
X89613289Y-57031737D01*
X89590008Y-57052837D01*
X89564770Y-57071555D01*
X89537820Y-57087708D01*
X89509416Y-57101142D01*
X89479832Y-57111727D01*
X89449353Y-57119362D01*
X89418273Y-57123972D01*
X89386890Y-57125514D01*
X87877242Y-57125514D01*
X87845859Y-57123972D01*
X87814779Y-57119362D01*
X87784300Y-57111727D01*
X87754716Y-57101142D01*
X87726312Y-57087708D01*
X87699362Y-57071555D01*
X87674124Y-57052837D01*
X87650843Y-57031737D01*
X87629743Y-57008456D01*
X87611025Y-56983218D01*
X87594872Y-56956268D01*
X87581438Y-56927864D01*
X87570853Y-56898280D01*
X87563218Y-56867801D01*
X87558608Y-56836721D01*
X87557066Y-56805338D01*
X87557066Y-55620690D01*
X87558608Y-55589307D01*
X87563218Y-55558227D01*
X87570853Y-55527748D01*
X87581438Y-55498164D01*
X87594872Y-55469760D01*
X87611025Y-55442810D01*
X87629743Y-55417572D01*
X87650843Y-55394291D01*
X87674124Y-55373191D01*
X87699362Y-55354473D01*
X87726312Y-55338320D01*
X87754716Y-55324886D01*
X87784300Y-55314301D01*
X87814779Y-55306666D01*
X87845859Y-55302056D01*
X87877242Y-55300514D01*
X89386890Y-55300514D01*
X89418273Y-55302056D01*
X89418273Y-55302056D01*
G37*
D14*
X88632066Y-56213014D03*
D13*
G36*
X89418273Y-58277056D02*
X89449353Y-58281666D01*
X89479832Y-58289301D01*
X89509416Y-58299886D01*
X89537820Y-58313320D01*
X89564770Y-58329473D01*
X89590008Y-58348191D01*
X89613289Y-58369291D01*
X89634389Y-58392572D01*
X89653107Y-58417810D01*
X89669260Y-58444760D01*
X89682694Y-58473164D01*
X89693279Y-58502748D01*
X89700914Y-58533227D01*
X89705524Y-58564307D01*
X89707066Y-58595690D01*
X89707066Y-59780338D01*
X89705524Y-59811721D01*
X89700914Y-59842801D01*
X89693279Y-59873280D01*
X89682694Y-59902864D01*
X89669260Y-59931268D01*
X89653107Y-59958218D01*
X89634389Y-59983456D01*
X89613289Y-60006737D01*
X89590008Y-60027837D01*
X89564770Y-60046555D01*
X89537820Y-60062708D01*
X89509416Y-60076142D01*
X89479832Y-60086727D01*
X89449353Y-60094362D01*
X89418273Y-60098972D01*
X89386890Y-60100514D01*
X87877242Y-60100514D01*
X87845859Y-60098972D01*
X87814779Y-60094362D01*
X87784300Y-60086727D01*
X87754716Y-60076142D01*
X87726312Y-60062708D01*
X87699362Y-60046555D01*
X87674124Y-60027837D01*
X87650843Y-60006737D01*
X87629743Y-59983456D01*
X87611025Y-59958218D01*
X87594872Y-59931268D01*
X87581438Y-59902864D01*
X87570853Y-59873280D01*
X87563218Y-59842801D01*
X87558608Y-59811721D01*
X87557066Y-59780338D01*
X87557066Y-58595690D01*
X87558608Y-58564307D01*
X87563218Y-58533227D01*
X87570853Y-58502748D01*
X87581438Y-58473164D01*
X87594872Y-58444760D01*
X87611025Y-58417810D01*
X87629743Y-58392572D01*
X87650843Y-58369291D01*
X87674124Y-58348191D01*
X87699362Y-58329473D01*
X87726312Y-58313320D01*
X87754716Y-58299886D01*
X87784300Y-58289301D01*
X87814779Y-58281666D01*
X87845859Y-58277056D01*
X87877242Y-58275514D01*
X89386890Y-58275514D01*
X89418273Y-58277056D01*
X89418273Y-58277056D01*
G37*
D14*
X88632066Y-59188014D03*
G04 #@! TD*
D13*
G04 #@! TO.C,D10*
G36*
X108468273Y-55302056D02*
X108499353Y-55306666D01*
X108529832Y-55314301D01*
X108559416Y-55324886D01*
X108587820Y-55338320D01*
X108614770Y-55354473D01*
X108640008Y-55373191D01*
X108663289Y-55394291D01*
X108684389Y-55417572D01*
X108703107Y-55442810D01*
X108719260Y-55469760D01*
X108732694Y-55498164D01*
X108743279Y-55527748D01*
X108750914Y-55558227D01*
X108755524Y-55589307D01*
X108757066Y-55620690D01*
X108757066Y-56805338D01*
X108755524Y-56836721D01*
X108750914Y-56867801D01*
X108743279Y-56898280D01*
X108732694Y-56927864D01*
X108719260Y-56956268D01*
X108703107Y-56983218D01*
X108684389Y-57008456D01*
X108663289Y-57031737D01*
X108640008Y-57052837D01*
X108614770Y-57071555D01*
X108587820Y-57087708D01*
X108559416Y-57101142D01*
X108529832Y-57111727D01*
X108499353Y-57119362D01*
X108468273Y-57123972D01*
X108436890Y-57125514D01*
X106927242Y-57125514D01*
X106895859Y-57123972D01*
X106864779Y-57119362D01*
X106834300Y-57111727D01*
X106804716Y-57101142D01*
X106776312Y-57087708D01*
X106749362Y-57071555D01*
X106724124Y-57052837D01*
X106700843Y-57031737D01*
X106679743Y-57008456D01*
X106661025Y-56983218D01*
X106644872Y-56956268D01*
X106631438Y-56927864D01*
X106620853Y-56898280D01*
X106613218Y-56867801D01*
X106608608Y-56836721D01*
X106607066Y-56805338D01*
X106607066Y-55620690D01*
X106608608Y-55589307D01*
X106613218Y-55558227D01*
X106620853Y-55527748D01*
X106631438Y-55498164D01*
X106644872Y-55469760D01*
X106661025Y-55442810D01*
X106679743Y-55417572D01*
X106700843Y-55394291D01*
X106724124Y-55373191D01*
X106749362Y-55354473D01*
X106776312Y-55338320D01*
X106804716Y-55324886D01*
X106834300Y-55314301D01*
X106864779Y-55306666D01*
X106895859Y-55302056D01*
X106927242Y-55300514D01*
X108436890Y-55300514D01*
X108468273Y-55302056D01*
X108468273Y-55302056D01*
G37*
D14*
X107682066Y-56213014D03*
D13*
G36*
X108468273Y-58277056D02*
X108499353Y-58281666D01*
X108529832Y-58289301D01*
X108559416Y-58299886D01*
X108587820Y-58313320D01*
X108614770Y-58329473D01*
X108640008Y-58348191D01*
X108663289Y-58369291D01*
X108684389Y-58392572D01*
X108703107Y-58417810D01*
X108719260Y-58444760D01*
X108732694Y-58473164D01*
X108743279Y-58502748D01*
X108750914Y-58533227D01*
X108755524Y-58564307D01*
X108757066Y-58595690D01*
X108757066Y-59780338D01*
X108755524Y-59811721D01*
X108750914Y-59842801D01*
X108743279Y-59873280D01*
X108732694Y-59902864D01*
X108719260Y-59931268D01*
X108703107Y-59958218D01*
X108684389Y-59983456D01*
X108663289Y-60006737D01*
X108640008Y-60027837D01*
X108614770Y-60046555D01*
X108587820Y-60062708D01*
X108559416Y-60076142D01*
X108529832Y-60086727D01*
X108499353Y-60094362D01*
X108468273Y-60098972D01*
X108436890Y-60100514D01*
X106927242Y-60100514D01*
X106895859Y-60098972D01*
X106864779Y-60094362D01*
X106834300Y-60086727D01*
X106804716Y-60076142D01*
X106776312Y-60062708D01*
X106749362Y-60046555D01*
X106724124Y-60027837D01*
X106700843Y-60006737D01*
X106679743Y-59983456D01*
X106661025Y-59958218D01*
X106644872Y-59931268D01*
X106631438Y-59902864D01*
X106620853Y-59873280D01*
X106613218Y-59842801D01*
X106608608Y-59811721D01*
X106607066Y-59780338D01*
X106607066Y-58595690D01*
X106608608Y-58564307D01*
X106613218Y-58533227D01*
X106620853Y-58502748D01*
X106631438Y-58473164D01*
X106644872Y-58444760D01*
X106661025Y-58417810D01*
X106679743Y-58392572D01*
X106700843Y-58369291D01*
X106724124Y-58348191D01*
X106749362Y-58329473D01*
X106776312Y-58313320D01*
X106804716Y-58299886D01*
X106834300Y-58289301D01*
X106864779Y-58281666D01*
X106895859Y-58277056D01*
X106927242Y-58275514D01*
X108436890Y-58275514D01*
X108468273Y-58277056D01*
X108468273Y-58277056D01*
G37*
D14*
X107682066Y-59188014D03*
G04 #@! TD*
D13*
G04 #@! TO.C,D11*
G36*
X127518273Y-55302056D02*
X127549353Y-55306666D01*
X127579832Y-55314301D01*
X127609416Y-55324886D01*
X127637820Y-55338320D01*
X127664770Y-55354473D01*
X127690008Y-55373191D01*
X127713289Y-55394291D01*
X127734389Y-55417572D01*
X127753107Y-55442810D01*
X127769260Y-55469760D01*
X127782694Y-55498164D01*
X127793279Y-55527748D01*
X127800914Y-55558227D01*
X127805524Y-55589307D01*
X127807066Y-55620690D01*
X127807066Y-56805338D01*
X127805524Y-56836721D01*
X127800914Y-56867801D01*
X127793279Y-56898280D01*
X127782694Y-56927864D01*
X127769260Y-56956268D01*
X127753107Y-56983218D01*
X127734389Y-57008456D01*
X127713289Y-57031737D01*
X127690008Y-57052837D01*
X127664770Y-57071555D01*
X127637820Y-57087708D01*
X127609416Y-57101142D01*
X127579832Y-57111727D01*
X127549353Y-57119362D01*
X127518273Y-57123972D01*
X127486890Y-57125514D01*
X125977242Y-57125514D01*
X125945859Y-57123972D01*
X125914779Y-57119362D01*
X125884300Y-57111727D01*
X125854716Y-57101142D01*
X125826312Y-57087708D01*
X125799362Y-57071555D01*
X125774124Y-57052837D01*
X125750843Y-57031737D01*
X125729743Y-57008456D01*
X125711025Y-56983218D01*
X125694872Y-56956268D01*
X125681438Y-56927864D01*
X125670853Y-56898280D01*
X125663218Y-56867801D01*
X125658608Y-56836721D01*
X125657066Y-56805338D01*
X125657066Y-55620690D01*
X125658608Y-55589307D01*
X125663218Y-55558227D01*
X125670853Y-55527748D01*
X125681438Y-55498164D01*
X125694872Y-55469760D01*
X125711025Y-55442810D01*
X125729743Y-55417572D01*
X125750843Y-55394291D01*
X125774124Y-55373191D01*
X125799362Y-55354473D01*
X125826312Y-55338320D01*
X125854716Y-55324886D01*
X125884300Y-55314301D01*
X125914779Y-55306666D01*
X125945859Y-55302056D01*
X125977242Y-55300514D01*
X127486890Y-55300514D01*
X127518273Y-55302056D01*
X127518273Y-55302056D01*
G37*
D14*
X126732066Y-56213014D03*
D13*
G36*
X127518273Y-58277056D02*
X127549353Y-58281666D01*
X127579832Y-58289301D01*
X127609416Y-58299886D01*
X127637820Y-58313320D01*
X127664770Y-58329473D01*
X127690008Y-58348191D01*
X127713289Y-58369291D01*
X127734389Y-58392572D01*
X127753107Y-58417810D01*
X127769260Y-58444760D01*
X127782694Y-58473164D01*
X127793279Y-58502748D01*
X127800914Y-58533227D01*
X127805524Y-58564307D01*
X127807066Y-58595690D01*
X127807066Y-59780338D01*
X127805524Y-59811721D01*
X127800914Y-59842801D01*
X127793279Y-59873280D01*
X127782694Y-59902864D01*
X127769260Y-59931268D01*
X127753107Y-59958218D01*
X127734389Y-59983456D01*
X127713289Y-60006737D01*
X127690008Y-60027837D01*
X127664770Y-60046555D01*
X127637820Y-60062708D01*
X127609416Y-60076142D01*
X127579832Y-60086727D01*
X127549353Y-60094362D01*
X127518273Y-60098972D01*
X127486890Y-60100514D01*
X125977242Y-60100514D01*
X125945859Y-60098972D01*
X125914779Y-60094362D01*
X125884300Y-60086727D01*
X125854716Y-60076142D01*
X125826312Y-60062708D01*
X125799362Y-60046555D01*
X125774124Y-60027837D01*
X125750843Y-60006737D01*
X125729743Y-59983456D01*
X125711025Y-59958218D01*
X125694872Y-59931268D01*
X125681438Y-59902864D01*
X125670853Y-59873280D01*
X125663218Y-59842801D01*
X125658608Y-59811721D01*
X125657066Y-59780338D01*
X125657066Y-58595690D01*
X125658608Y-58564307D01*
X125663218Y-58533227D01*
X125670853Y-58502748D01*
X125681438Y-58473164D01*
X125694872Y-58444760D01*
X125711025Y-58417810D01*
X125729743Y-58392572D01*
X125750843Y-58369291D01*
X125774124Y-58348191D01*
X125799362Y-58329473D01*
X125826312Y-58313320D01*
X125854716Y-58299886D01*
X125884300Y-58289301D01*
X125914779Y-58281666D01*
X125945859Y-58277056D01*
X125977242Y-58275514D01*
X127486890Y-58275514D01*
X127518273Y-58277056D01*
X127518273Y-58277056D01*
G37*
D14*
X126732066Y-59188014D03*
G04 #@! TD*
D13*
G04 #@! TO.C,D12*
G36*
X146568273Y-55302056D02*
X146599353Y-55306666D01*
X146629832Y-55314301D01*
X146659416Y-55324886D01*
X146687820Y-55338320D01*
X146714770Y-55354473D01*
X146740008Y-55373191D01*
X146763289Y-55394291D01*
X146784389Y-55417572D01*
X146803107Y-55442810D01*
X146819260Y-55469760D01*
X146832694Y-55498164D01*
X146843279Y-55527748D01*
X146850914Y-55558227D01*
X146855524Y-55589307D01*
X146857066Y-55620690D01*
X146857066Y-56805338D01*
X146855524Y-56836721D01*
X146850914Y-56867801D01*
X146843279Y-56898280D01*
X146832694Y-56927864D01*
X146819260Y-56956268D01*
X146803107Y-56983218D01*
X146784389Y-57008456D01*
X146763289Y-57031737D01*
X146740008Y-57052837D01*
X146714770Y-57071555D01*
X146687820Y-57087708D01*
X146659416Y-57101142D01*
X146629832Y-57111727D01*
X146599353Y-57119362D01*
X146568273Y-57123972D01*
X146536890Y-57125514D01*
X145027242Y-57125514D01*
X144995859Y-57123972D01*
X144964779Y-57119362D01*
X144934300Y-57111727D01*
X144904716Y-57101142D01*
X144876312Y-57087708D01*
X144849362Y-57071555D01*
X144824124Y-57052837D01*
X144800843Y-57031737D01*
X144779743Y-57008456D01*
X144761025Y-56983218D01*
X144744872Y-56956268D01*
X144731438Y-56927864D01*
X144720853Y-56898280D01*
X144713218Y-56867801D01*
X144708608Y-56836721D01*
X144707066Y-56805338D01*
X144707066Y-55620690D01*
X144708608Y-55589307D01*
X144713218Y-55558227D01*
X144720853Y-55527748D01*
X144731438Y-55498164D01*
X144744872Y-55469760D01*
X144761025Y-55442810D01*
X144779743Y-55417572D01*
X144800843Y-55394291D01*
X144824124Y-55373191D01*
X144849362Y-55354473D01*
X144876312Y-55338320D01*
X144904716Y-55324886D01*
X144934300Y-55314301D01*
X144964779Y-55306666D01*
X144995859Y-55302056D01*
X145027242Y-55300514D01*
X146536890Y-55300514D01*
X146568273Y-55302056D01*
X146568273Y-55302056D01*
G37*
D14*
X145782066Y-56213014D03*
D13*
G36*
X146568273Y-58277056D02*
X146599353Y-58281666D01*
X146629832Y-58289301D01*
X146659416Y-58299886D01*
X146687820Y-58313320D01*
X146714770Y-58329473D01*
X146740008Y-58348191D01*
X146763289Y-58369291D01*
X146784389Y-58392572D01*
X146803107Y-58417810D01*
X146819260Y-58444760D01*
X146832694Y-58473164D01*
X146843279Y-58502748D01*
X146850914Y-58533227D01*
X146855524Y-58564307D01*
X146857066Y-58595690D01*
X146857066Y-59780338D01*
X146855524Y-59811721D01*
X146850914Y-59842801D01*
X146843279Y-59873280D01*
X146832694Y-59902864D01*
X146819260Y-59931268D01*
X146803107Y-59958218D01*
X146784389Y-59983456D01*
X146763289Y-60006737D01*
X146740008Y-60027837D01*
X146714770Y-60046555D01*
X146687820Y-60062708D01*
X146659416Y-60076142D01*
X146629832Y-60086727D01*
X146599353Y-60094362D01*
X146568273Y-60098972D01*
X146536890Y-60100514D01*
X145027242Y-60100514D01*
X144995859Y-60098972D01*
X144964779Y-60094362D01*
X144934300Y-60086727D01*
X144904716Y-60076142D01*
X144876312Y-60062708D01*
X144849362Y-60046555D01*
X144824124Y-60027837D01*
X144800843Y-60006737D01*
X144779743Y-59983456D01*
X144761025Y-59958218D01*
X144744872Y-59931268D01*
X144731438Y-59902864D01*
X144720853Y-59873280D01*
X144713218Y-59842801D01*
X144708608Y-59811721D01*
X144707066Y-59780338D01*
X144707066Y-58595690D01*
X144708608Y-58564307D01*
X144713218Y-58533227D01*
X144720853Y-58502748D01*
X144731438Y-58473164D01*
X144744872Y-58444760D01*
X144761025Y-58417810D01*
X144779743Y-58392572D01*
X144800843Y-58369291D01*
X144824124Y-58348191D01*
X144849362Y-58329473D01*
X144876312Y-58313320D01*
X144904716Y-58299886D01*
X144934300Y-58289301D01*
X144964779Y-58281666D01*
X144995859Y-58277056D01*
X145027242Y-58275514D01*
X146536890Y-58275514D01*
X146568273Y-58277056D01*
X146568273Y-58277056D01*
G37*
D14*
X145782066Y-59188014D03*
G04 #@! TD*
D13*
G04 #@! TO.C,D13*
G36*
X153956207Y-55251542D02*
X153987287Y-55256152D01*
X154017766Y-55263787D01*
X154047350Y-55274372D01*
X154075754Y-55287806D01*
X154102704Y-55303959D01*
X154127942Y-55322677D01*
X154151223Y-55343777D01*
X154172323Y-55367058D01*
X154191041Y-55392296D01*
X154207194Y-55419246D01*
X154220628Y-55447650D01*
X154231213Y-55477234D01*
X154238848Y-55507713D01*
X154243458Y-55538793D01*
X154245000Y-55570176D01*
X154245000Y-56754824D01*
X154243458Y-56786207D01*
X154238848Y-56817287D01*
X154231213Y-56847766D01*
X154220628Y-56877350D01*
X154207194Y-56905754D01*
X154191041Y-56932704D01*
X154172323Y-56957942D01*
X154151223Y-56981223D01*
X154127942Y-57002323D01*
X154102704Y-57021041D01*
X154075754Y-57037194D01*
X154047350Y-57050628D01*
X154017766Y-57061213D01*
X153987287Y-57068848D01*
X153956207Y-57073458D01*
X153924824Y-57075000D01*
X152415176Y-57075000D01*
X152383793Y-57073458D01*
X152352713Y-57068848D01*
X152322234Y-57061213D01*
X152292650Y-57050628D01*
X152264246Y-57037194D01*
X152237296Y-57021041D01*
X152212058Y-57002323D01*
X152188777Y-56981223D01*
X152167677Y-56957942D01*
X152148959Y-56932704D01*
X152132806Y-56905754D01*
X152119372Y-56877350D01*
X152108787Y-56847766D01*
X152101152Y-56817287D01*
X152096542Y-56786207D01*
X152095000Y-56754824D01*
X152095000Y-55570176D01*
X152096542Y-55538793D01*
X152101152Y-55507713D01*
X152108787Y-55477234D01*
X152119372Y-55447650D01*
X152132806Y-55419246D01*
X152148959Y-55392296D01*
X152167677Y-55367058D01*
X152188777Y-55343777D01*
X152212058Y-55322677D01*
X152237296Y-55303959D01*
X152264246Y-55287806D01*
X152292650Y-55274372D01*
X152322234Y-55263787D01*
X152352713Y-55256152D01*
X152383793Y-55251542D01*
X152415176Y-55250000D01*
X153924824Y-55250000D01*
X153956207Y-55251542D01*
X153956207Y-55251542D01*
G37*
D14*
X153170000Y-56162500D03*
D13*
G36*
X153956207Y-58226542D02*
X153987287Y-58231152D01*
X154017766Y-58238787D01*
X154047350Y-58249372D01*
X154075754Y-58262806D01*
X154102704Y-58278959D01*
X154127942Y-58297677D01*
X154151223Y-58318777D01*
X154172323Y-58342058D01*
X154191041Y-58367296D01*
X154207194Y-58394246D01*
X154220628Y-58422650D01*
X154231213Y-58452234D01*
X154238848Y-58482713D01*
X154243458Y-58513793D01*
X154245000Y-58545176D01*
X154245000Y-59729824D01*
X154243458Y-59761207D01*
X154238848Y-59792287D01*
X154231213Y-59822766D01*
X154220628Y-59852350D01*
X154207194Y-59880754D01*
X154191041Y-59907704D01*
X154172323Y-59932942D01*
X154151223Y-59956223D01*
X154127942Y-59977323D01*
X154102704Y-59996041D01*
X154075754Y-60012194D01*
X154047350Y-60025628D01*
X154017766Y-60036213D01*
X153987287Y-60043848D01*
X153956207Y-60048458D01*
X153924824Y-60050000D01*
X152415176Y-60050000D01*
X152383793Y-60048458D01*
X152352713Y-60043848D01*
X152322234Y-60036213D01*
X152292650Y-60025628D01*
X152264246Y-60012194D01*
X152237296Y-59996041D01*
X152212058Y-59977323D01*
X152188777Y-59956223D01*
X152167677Y-59932942D01*
X152148959Y-59907704D01*
X152132806Y-59880754D01*
X152119372Y-59852350D01*
X152108787Y-59822766D01*
X152101152Y-59792287D01*
X152096542Y-59761207D01*
X152095000Y-59729824D01*
X152095000Y-58545176D01*
X152096542Y-58513793D01*
X152101152Y-58482713D01*
X152108787Y-58452234D01*
X152119372Y-58422650D01*
X152132806Y-58394246D01*
X152148959Y-58367296D01*
X152167677Y-58342058D01*
X152188777Y-58318777D01*
X152212058Y-58297677D01*
X152237296Y-58278959D01*
X152264246Y-58262806D01*
X152292650Y-58249372D01*
X152322234Y-58238787D01*
X152352713Y-58231152D01*
X152383793Y-58226542D01*
X152415176Y-58225000D01*
X153924824Y-58225000D01*
X153956207Y-58226542D01*
X153956207Y-58226542D01*
G37*
D14*
X153170000Y-59137500D03*
G04 #@! TD*
D13*
G04 #@! TO.C,D14*
G36*
X48936207Y-74311542D02*
X48967287Y-74316152D01*
X48997766Y-74323787D01*
X49027350Y-74334372D01*
X49055754Y-74347806D01*
X49082704Y-74363959D01*
X49107942Y-74382677D01*
X49131223Y-74403777D01*
X49152323Y-74427058D01*
X49171041Y-74452296D01*
X49187194Y-74479246D01*
X49200628Y-74507650D01*
X49211213Y-74537234D01*
X49218848Y-74567713D01*
X49223458Y-74598793D01*
X49225000Y-74630176D01*
X49225000Y-75814824D01*
X49223458Y-75846207D01*
X49218848Y-75877287D01*
X49211213Y-75907766D01*
X49200628Y-75937350D01*
X49187194Y-75965754D01*
X49171041Y-75992704D01*
X49152323Y-76017942D01*
X49131223Y-76041223D01*
X49107942Y-76062323D01*
X49082704Y-76081041D01*
X49055754Y-76097194D01*
X49027350Y-76110628D01*
X48997766Y-76121213D01*
X48967287Y-76128848D01*
X48936207Y-76133458D01*
X48904824Y-76135000D01*
X47395176Y-76135000D01*
X47363793Y-76133458D01*
X47332713Y-76128848D01*
X47302234Y-76121213D01*
X47272650Y-76110628D01*
X47244246Y-76097194D01*
X47217296Y-76081041D01*
X47192058Y-76062323D01*
X47168777Y-76041223D01*
X47147677Y-76017942D01*
X47128959Y-75992704D01*
X47112806Y-75965754D01*
X47099372Y-75937350D01*
X47088787Y-75907766D01*
X47081152Y-75877287D01*
X47076542Y-75846207D01*
X47075000Y-75814824D01*
X47075000Y-74630176D01*
X47076542Y-74598793D01*
X47081152Y-74567713D01*
X47088787Y-74537234D01*
X47099372Y-74507650D01*
X47112806Y-74479246D01*
X47128959Y-74452296D01*
X47147677Y-74427058D01*
X47168777Y-74403777D01*
X47192058Y-74382677D01*
X47217296Y-74363959D01*
X47244246Y-74347806D01*
X47272650Y-74334372D01*
X47302234Y-74323787D01*
X47332713Y-74316152D01*
X47363793Y-74311542D01*
X47395176Y-74310000D01*
X48904824Y-74310000D01*
X48936207Y-74311542D01*
X48936207Y-74311542D01*
G37*
D14*
X48150000Y-75222500D03*
D13*
G36*
X48936207Y-77286542D02*
X48967287Y-77291152D01*
X48997766Y-77298787D01*
X49027350Y-77309372D01*
X49055754Y-77322806D01*
X49082704Y-77338959D01*
X49107942Y-77357677D01*
X49131223Y-77378777D01*
X49152323Y-77402058D01*
X49171041Y-77427296D01*
X49187194Y-77454246D01*
X49200628Y-77482650D01*
X49211213Y-77512234D01*
X49218848Y-77542713D01*
X49223458Y-77573793D01*
X49225000Y-77605176D01*
X49225000Y-78789824D01*
X49223458Y-78821207D01*
X49218848Y-78852287D01*
X49211213Y-78882766D01*
X49200628Y-78912350D01*
X49187194Y-78940754D01*
X49171041Y-78967704D01*
X49152323Y-78992942D01*
X49131223Y-79016223D01*
X49107942Y-79037323D01*
X49082704Y-79056041D01*
X49055754Y-79072194D01*
X49027350Y-79085628D01*
X48997766Y-79096213D01*
X48967287Y-79103848D01*
X48936207Y-79108458D01*
X48904824Y-79110000D01*
X47395176Y-79110000D01*
X47363793Y-79108458D01*
X47332713Y-79103848D01*
X47302234Y-79096213D01*
X47272650Y-79085628D01*
X47244246Y-79072194D01*
X47217296Y-79056041D01*
X47192058Y-79037323D01*
X47168777Y-79016223D01*
X47147677Y-78992942D01*
X47128959Y-78967704D01*
X47112806Y-78940754D01*
X47099372Y-78912350D01*
X47088787Y-78882766D01*
X47081152Y-78852287D01*
X47076542Y-78821207D01*
X47075000Y-78789824D01*
X47075000Y-77605176D01*
X47076542Y-77573793D01*
X47081152Y-77542713D01*
X47088787Y-77512234D01*
X47099372Y-77482650D01*
X47112806Y-77454246D01*
X47128959Y-77427296D01*
X47147677Y-77402058D01*
X47168777Y-77378777D01*
X47192058Y-77357677D01*
X47217296Y-77338959D01*
X47244246Y-77322806D01*
X47272650Y-77309372D01*
X47302234Y-77298787D01*
X47332713Y-77291152D01*
X47363793Y-77286542D01*
X47395176Y-77285000D01*
X48904824Y-77285000D01*
X48936207Y-77286542D01*
X48936207Y-77286542D01*
G37*
D14*
X48150000Y-78197500D03*
G04 #@! TD*
D13*
G04 #@! TO.C,D15*
G36*
X75156207Y-74311542D02*
X75187287Y-74316152D01*
X75217766Y-74323787D01*
X75247350Y-74334372D01*
X75275754Y-74347806D01*
X75302704Y-74363959D01*
X75327942Y-74382677D01*
X75351223Y-74403777D01*
X75372323Y-74427058D01*
X75391041Y-74452296D01*
X75407194Y-74479246D01*
X75420628Y-74507650D01*
X75431213Y-74537234D01*
X75438848Y-74567713D01*
X75443458Y-74598793D01*
X75445000Y-74630176D01*
X75445000Y-75814824D01*
X75443458Y-75846207D01*
X75438848Y-75877287D01*
X75431213Y-75907766D01*
X75420628Y-75937350D01*
X75407194Y-75965754D01*
X75391041Y-75992704D01*
X75372323Y-76017942D01*
X75351223Y-76041223D01*
X75327942Y-76062323D01*
X75302704Y-76081041D01*
X75275754Y-76097194D01*
X75247350Y-76110628D01*
X75217766Y-76121213D01*
X75187287Y-76128848D01*
X75156207Y-76133458D01*
X75124824Y-76135000D01*
X73615176Y-76135000D01*
X73583793Y-76133458D01*
X73552713Y-76128848D01*
X73522234Y-76121213D01*
X73492650Y-76110628D01*
X73464246Y-76097194D01*
X73437296Y-76081041D01*
X73412058Y-76062323D01*
X73388777Y-76041223D01*
X73367677Y-76017942D01*
X73348959Y-75992704D01*
X73332806Y-75965754D01*
X73319372Y-75937350D01*
X73308787Y-75907766D01*
X73301152Y-75877287D01*
X73296542Y-75846207D01*
X73295000Y-75814824D01*
X73295000Y-74630176D01*
X73296542Y-74598793D01*
X73301152Y-74567713D01*
X73308787Y-74537234D01*
X73319372Y-74507650D01*
X73332806Y-74479246D01*
X73348959Y-74452296D01*
X73367677Y-74427058D01*
X73388777Y-74403777D01*
X73412058Y-74382677D01*
X73437296Y-74363959D01*
X73464246Y-74347806D01*
X73492650Y-74334372D01*
X73522234Y-74323787D01*
X73552713Y-74316152D01*
X73583793Y-74311542D01*
X73615176Y-74310000D01*
X75124824Y-74310000D01*
X75156207Y-74311542D01*
X75156207Y-74311542D01*
G37*
D14*
X74370000Y-75222500D03*
D13*
G36*
X75156207Y-77286542D02*
X75187287Y-77291152D01*
X75217766Y-77298787D01*
X75247350Y-77309372D01*
X75275754Y-77322806D01*
X75302704Y-77338959D01*
X75327942Y-77357677D01*
X75351223Y-77378777D01*
X75372323Y-77402058D01*
X75391041Y-77427296D01*
X75407194Y-77454246D01*
X75420628Y-77482650D01*
X75431213Y-77512234D01*
X75438848Y-77542713D01*
X75443458Y-77573793D01*
X75445000Y-77605176D01*
X75445000Y-78789824D01*
X75443458Y-78821207D01*
X75438848Y-78852287D01*
X75431213Y-78882766D01*
X75420628Y-78912350D01*
X75407194Y-78940754D01*
X75391041Y-78967704D01*
X75372323Y-78992942D01*
X75351223Y-79016223D01*
X75327942Y-79037323D01*
X75302704Y-79056041D01*
X75275754Y-79072194D01*
X75247350Y-79085628D01*
X75217766Y-79096213D01*
X75187287Y-79103848D01*
X75156207Y-79108458D01*
X75124824Y-79110000D01*
X73615176Y-79110000D01*
X73583793Y-79108458D01*
X73552713Y-79103848D01*
X73522234Y-79096213D01*
X73492650Y-79085628D01*
X73464246Y-79072194D01*
X73437296Y-79056041D01*
X73412058Y-79037323D01*
X73388777Y-79016223D01*
X73367677Y-78992942D01*
X73348959Y-78967704D01*
X73332806Y-78940754D01*
X73319372Y-78912350D01*
X73308787Y-78882766D01*
X73301152Y-78852287D01*
X73296542Y-78821207D01*
X73295000Y-78789824D01*
X73295000Y-77605176D01*
X73296542Y-77573793D01*
X73301152Y-77542713D01*
X73308787Y-77512234D01*
X73319372Y-77482650D01*
X73332806Y-77454246D01*
X73348959Y-77427296D01*
X73367677Y-77402058D01*
X73388777Y-77378777D01*
X73412058Y-77357677D01*
X73437296Y-77338959D01*
X73464246Y-77322806D01*
X73492650Y-77309372D01*
X73522234Y-77298787D01*
X73552713Y-77291152D01*
X73583793Y-77286542D01*
X73615176Y-77285000D01*
X75124824Y-77285000D01*
X75156207Y-77286542D01*
X75156207Y-77286542D01*
G37*
D14*
X74370000Y-78197500D03*
G04 #@! TD*
D13*
G04 #@! TO.C,D16*
G36*
X94206207Y-74311542D02*
X94237287Y-74316152D01*
X94267766Y-74323787D01*
X94297350Y-74334372D01*
X94325754Y-74347806D01*
X94352704Y-74363959D01*
X94377942Y-74382677D01*
X94401223Y-74403777D01*
X94422323Y-74427058D01*
X94441041Y-74452296D01*
X94457194Y-74479246D01*
X94470628Y-74507650D01*
X94481213Y-74537234D01*
X94488848Y-74567713D01*
X94493458Y-74598793D01*
X94495000Y-74630176D01*
X94495000Y-75814824D01*
X94493458Y-75846207D01*
X94488848Y-75877287D01*
X94481213Y-75907766D01*
X94470628Y-75937350D01*
X94457194Y-75965754D01*
X94441041Y-75992704D01*
X94422323Y-76017942D01*
X94401223Y-76041223D01*
X94377942Y-76062323D01*
X94352704Y-76081041D01*
X94325754Y-76097194D01*
X94297350Y-76110628D01*
X94267766Y-76121213D01*
X94237287Y-76128848D01*
X94206207Y-76133458D01*
X94174824Y-76135000D01*
X92665176Y-76135000D01*
X92633793Y-76133458D01*
X92602713Y-76128848D01*
X92572234Y-76121213D01*
X92542650Y-76110628D01*
X92514246Y-76097194D01*
X92487296Y-76081041D01*
X92462058Y-76062323D01*
X92438777Y-76041223D01*
X92417677Y-76017942D01*
X92398959Y-75992704D01*
X92382806Y-75965754D01*
X92369372Y-75937350D01*
X92358787Y-75907766D01*
X92351152Y-75877287D01*
X92346542Y-75846207D01*
X92345000Y-75814824D01*
X92345000Y-74630176D01*
X92346542Y-74598793D01*
X92351152Y-74567713D01*
X92358787Y-74537234D01*
X92369372Y-74507650D01*
X92382806Y-74479246D01*
X92398959Y-74452296D01*
X92417677Y-74427058D01*
X92438777Y-74403777D01*
X92462058Y-74382677D01*
X92487296Y-74363959D01*
X92514246Y-74347806D01*
X92542650Y-74334372D01*
X92572234Y-74323787D01*
X92602713Y-74316152D01*
X92633793Y-74311542D01*
X92665176Y-74310000D01*
X94174824Y-74310000D01*
X94206207Y-74311542D01*
X94206207Y-74311542D01*
G37*
D14*
X93420000Y-75222500D03*
D13*
G36*
X94206207Y-77286542D02*
X94237287Y-77291152D01*
X94267766Y-77298787D01*
X94297350Y-77309372D01*
X94325754Y-77322806D01*
X94352704Y-77338959D01*
X94377942Y-77357677D01*
X94401223Y-77378777D01*
X94422323Y-77402058D01*
X94441041Y-77427296D01*
X94457194Y-77454246D01*
X94470628Y-77482650D01*
X94481213Y-77512234D01*
X94488848Y-77542713D01*
X94493458Y-77573793D01*
X94495000Y-77605176D01*
X94495000Y-78789824D01*
X94493458Y-78821207D01*
X94488848Y-78852287D01*
X94481213Y-78882766D01*
X94470628Y-78912350D01*
X94457194Y-78940754D01*
X94441041Y-78967704D01*
X94422323Y-78992942D01*
X94401223Y-79016223D01*
X94377942Y-79037323D01*
X94352704Y-79056041D01*
X94325754Y-79072194D01*
X94297350Y-79085628D01*
X94267766Y-79096213D01*
X94237287Y-79103848D01*
X94206207Y-79108458D01*
X94174824Y-79110000D01*
X92665176Y-79110000D01*
X92633793Y-79108458D01*
X92602713Y-79103848D01*
X92572234Y-79096213D01*
X92542650Y-79085628D01*
X92514246Y-79072194D01*
X92487296Y-79056041D01*
X92462058Y-79037323D01*
X92438777Y-79016223D01*
X92417677Y-78992942D01*
X92398959Y-78967704D01*
X92382806Y-78940754D01*
X92369372Y-78912350D01*
X92358787Y-78882766D01*
X92351152Y-78852287D01*
X92346542Y-78821207D01*
X92345000Y-78789824D01*
X92345000Y-77605176D01*
X92346542Y-77573793D01*
X92351152Y-77542713D01*
X92358787Y-77512234D01*
X92369372Y-77482650D01*
X92382806Y-77454246D01*
X92398959Y-77427296D01*
X92417677Y-77402058D01*
X92438777Y-77378777D01*
X92462058Y-77357677D01*
X92487296Y-77338959D01*
X92514246Y-77322806D01*
X92542650Y-77309372D01*
X92572234Y-77298787D01*
X92602713Y-77291152D01*
X92633793Y-77286542D01*
X92665176Y-77285000D01*
X94174824Y-77285000D01*
X94206207Y-77286542D01*
X94206207Y-77286542D01*
G37*
D14*
X93420000Y-78197500D03*
G04 #@! TD*
D13*
G04 #@! TO.C,D18*
G36*
X132306207Y-74311542D02*
X132337287Y-74316152D01*
X132367766Y-74323787D01*
X132397350Y-74334372D01*
X132425754Y-74347806D01*
X132452704Y-74363959D01*
X132477942Y-74382677D01*
X132501223Y-74403777D01*
X132522323Y-74427058D01*
X132541041Y-74452296D01*
X132557194Y-74479246D01*
X132570628Y-74507650D01*
X132581213Y-74537234D01*
X132588848Y-74567713D01*
X132593458Y-74598793D01*
X132595000Y-74630176D01*
X132595000Y-75814824D01*
X132593458Y-75846207D01*
X132588848Y-75877287D01*
X132581213Y-75907766D01*
X132570628Y-75937350D01*
X132557194Y-75965754D01*
X132541041Y-75992704D01*
X132522323Y-76017942D01*
X132501223Y-76041223D01*
X132477942Y-76062323D01*
X132452704Y-76081041D01*
X132425754Y-76097194D01*
X132397350Y-76110628D01*
X132367766Y-76121213D01*
X132337287Y-76128848D01*
X132306207Y-76133458D01*
X132274824Y-76135000D01*
X130765176Y-76135000D01*
X130733793Y-76133458D01*
X130702713Y-76128848D01*
X130672234Y-76121213D01*
X130642650Y-76110628D01*
X130614246Y-76097194D01*
X130587296Y-76081041D01*
X130562058Y-76062323D01*
X130538777Y-76041223D01*
X130517677Y-76017942D01*
X130498959Y-75992704D01*
X130482806Y-75965754D01*
X130469372Y-75937350D01*
X130458787Y-75907766D01*
X130451152Y-75877287D01*
X130446542Y-75846207D01*
X130445000Y-75814824D01*
X130445000Y-74630176D01*
X130446542Y-74598793D01*
X130451152Y-74567713D01*
X130458787Y-74537234D01*
X130469372Y-74507650D01*
X130482806Y-74479246D01*
X130498959Y-74452296D01*
X130517677Y-74427058D01*
X130538777Y-74403777D01*
X130562058Y-74382677D01*
X130587296Y-74363959D01*
X130614246Y-74347806D01*
X130642650Y-74334372D01*
X130672234Y-74323787D01*
X130702713Y-74316152D01*
X130733793Y-74311542D01*
X130765176Y-74310000D01*
X132274824Y-74310000D01*
X132306207Y-74311542D01*
X132306207Y-74311542D01*
G37*
D14*
X131520000Y-75222500D03*
D13*
G36*
X132306207Y-77286542D02*
X132337287Y-77291152D01*
X132367766Y-77298787D01*
X132397350Y-77309372D01*
X132425754Y-77322806D01*
X132452704Y-77338959D01*
X132477942Y-77357677D01*
X132501223Y-77378777D01*
X132522323Y-77402058D01*
X132541041Y-77427296D01*
X132557194Y-77454246D01*
X132570628Y-77482650D01*
X132581213Y-77512234D01*
X132588848Y-77542713D01*
X132593458Y-77573793D01*
X132595000Y-77605176D01*
X132595000Y-78789824D01*
X132593458Y-78821207D01*
X132588848Y-78852287D01*
X132581213Y-78882766D01*
X132570628Y-78912350D01*
X132557194Y-78940754D01*
X132541041Y-78967704D01*
X132522323Y-78992942D01*
X132501223Y-79016223D01*
X132477942Y-79037323D01*
X132452704Y-79056041D01*
X132425754Y-79072194D01*
X132397350Y-79085628D01*
X132367766Y-79096213D01*
X132337287Y-79103848D01*
X132306207Y-79108458D01*
X132274824Y-79110000D01*
X130765176Y-79110000D01*
X130733793Y-79108458D01*
X130702713Y-79103848D01*
X130672234Y-79096213D01*
X130642650Y-79085628D01*
X130614246Y-79072194D01*
X130587296Y-79056041D01*
X130562058Y-79037323D01*
X130538777Y-79016223D01*
X130517677Y-78992942D01*
X130498959Y-78967704D01*
X130482806Y-78940754D01*
X130469372Y-78912350D01*
X130458787Y-78882766D01*
X130451152Y-78852287D01*
X130446542Y-78821207D01*
X130445000Y-78789824D01*
X130445000Y-77605176D01*
X130446542Y-77573793D01*
X130451152Y-77542713D01*
X130458787Y-77512234D01*
X130469372Y-77482650D01*
X130482806Y-77454246D01*
X130498959Y-77427296D01*
X130517677Y-77402058D01*
X130538777Y-77378777D01*
X130562058Y-77357677D01*
X130587296Y-77338959D01*
X130614246Y-77322806D01*
X130642650Y-77309372D01*
X130672234Y-77298787D01*
X130702713Y-77291152D01*
X130733793Y-77286542D01*
X130765176Y-77285000D01*
X132274824Y-77285000D01*
X132306207Y-77286542D01*
X132306207Y-77286542D01*
G37*
D14*
X131520000Y-78197500D03*
G04 #@! TD*
D13*
G04 #@! TO.C,D19*
G36*
X151356207Y-74311542D02*
X151387287Y-74316152D01*
X151417766Y-74323787D01*
X151447350Y-74334372D01*
X151475754Y-74347806D01*
X151502704Y-74363959D01*
X151527942Y-74382677D01*
X151551223Y-74403777D01*
X151572323Y-74427058D01*
X151591041Y-74452296D01*
X151607194Y-74479246D01*
X151620628Y-74507650D01*
X151631213Y-74537234D01*
X151638848Y-74567713D01*
X151643458Y-74598793D01*
X151645000Y-74630176D01*
X151645000Y-75814824D01*
X151643458Y-75846207D01*
X151638848Y-75877287D01*
X151631213Y-75907766D01*
X151620628Y-75937350D01*
X151607194Y-75965754D01*
X151591041Y-75992704D01*
X151572323Y-76017942D01*
X151551223Y-76041223D01*
X151527942Y-76062323D01*
X151502704Y-76081041D01*
X151475754Y-76097194D01*
X151447350Y-76110628D01*
X151417766Y-76121213D01*
X151387287Y-76128848D01*
X151356207Y-76133458D01*
X151324824Y-76135000D01*
X149815176Y-76135000D01*
X149783793Y-76133458D01*
X149752713Y-76128848D01*
X149722234Y-76121213D01*
X149692650Y-76110628D01*
X149664246Y-76097194D01*
X149637296Y-76081041D01*
X149612058Y-76062323D01*
X149588777Y-76041223D01*
X149567677Y-76017942D01*
X149548959Y-75992704D01*
X149532806Y-75965754D01*
X149519372Y-75937350D01*
X149508787Y-75907766D01*
X149501152Y-75877287D01*
X149496542Y-75846207D01*
X149495000Y-75814824D01*
X149495000Y-74630176D01*
X149496542Y-74598793D01*
X149501152Y-74567713D01*
X149508787Y-74537234D01*
X149519372Y-74507650D01*
X149532806Y-74479246D01*
X149548959Y-74452296D01*
X149567677Y-74427058D01*
X149588777Y-74403777D01*
X149612058Y-74382677D01*
X149637296Y-74363959D01*
X149664246Y-74347806D01*
X149692650Y-74334372D01*
X149722234Y-74323787D01*
X149752713Y-74316152D01*
X149783793Y-74311542D01*
X149815176Y-74310000D01*
X151324824Y-74310000D01*
X151356207Y-74311542D01*
X151356207Y-74311542D01*
G37*
D14*
X150570000Y-75222500D03*
D13*
G36*
X151356207Y-77286542D02*
X151387287Y-77291152D01*
X151417766Y-77298787D01*
X151447350Y-77309372D01*
X151475754Y-77322806D01*
X151502704Y-77338959D01*
X151527942Y-77357677D01*
X151551223Y-77378777D01*
X151572323Y-77402058D01*
X151591041Y-77427296D01*
X151607194Y-77454246D01*
X151620628Y-77482650D01*
X151631213Y-77512234D01*
X151638848Y-77542713D01*
X151643458Y-77573793D01*
X151645000Y-77605176D01*
X151645000Y-78789824D01*
X151643458Y-78821207D01*
X151638848Y-78852287D01*
X151631213Y-78882766D01*
X151620628Y-78912350D01*
X151607194Y-78940754D01*
X151591041Y-78967704D01*
X151572323Y-78992942D01*
X151551223Y-79016223D01*
X151527942Y-79037323D01*
X151502704Y-79056041D01*
X151475754Y-79072194D01*
X151447350Y-79085628D01*
X151417766Y-79096213D01*
X151387287Y-79103848D01*
X151356207Y-79108458D01*
X151324824Y-79110000D01*
X149815176Y-79110000D01*
X149783793Y-79108458D01*
X149752713Y-79103848D01*
X149722234Y-79096213D01*
X149692650Y-79085628D01*
X149664246Y-79072194D01*
X149637296Y-79056041D01*
X149612058Y-79037323D01*
X149588777Y-79016223D01*
X149567677Y-78992942D01*
X149548959Y-78967704D01*
X149532806Y-78940754D01*
X149519372Y-78912350D01*
X149508787Y-78882766D01*
X149501152Y-78852287D01*
X149496542Y-78821207D01*
X149495000Y-78789824D01*
X149495000Y-77605176D01*
X149496542Y-77573793D01*
X149501152Y-77542713D01*
X149508787Y-77512234D01*
X149519372Y-77482650D01*
X149532806Y-77454246D01*
X149548959Y-77427296D01*
X149567677Y-77402058D01*
X149588777Y-77378777D01*
X149612058Y-77357677D01*
X149637296Y-77338959D01*
X149664246Y-77322806D01*
X149692650Y-77309372D01*
X149722234Y-77298787D01*
X149752713Y-77291152D01*
X149783793Y-77286542D01*
X149815176Y-77285000D01*
X151324824Y-77285000D01*
X151356207Y-77286542D01*
X151356207Y-77286542D01*
G37*
D14*
X150570000Y-78197500D03*
G04 #@! TD*
D13*
G04 #@! TO.C,D4*
G36*
X118066207Y-36289042D02*
X118097287Y-36293652D01*
X118127766Y-36301287D01*
X118157350Y-36311872D01*
X118185754Y-36325306D01*
X118212704Y-36341459D01*
X118237942Y-36360177D01*
X118261223Y-36381277D01*
X118282323Y-36404558D01*
X118301041Y-36429796D01*
X118317194Y-36456746D01*
X118330628Y-36485150D01*
X118341213Y-36514734D01*
X118348848Y-36545213D01*
X118353458Y-36576293D01*
X118355000Y-36607676D01*
X118355000Y-37792324D01*
X118353458Y-37823707D01*
X118348848Y-37854787D01*
X118341213Y-37885266D01*
X118330628Y-37914850D01*
X118317194Y-37943254D01*
X118301041Y-37970204D01*
X118282323Y-37995442D01*
X118261223Y-38018723D01*
X118237942Y-38039823D01*
X118212704Y-38058541D01*
X118185754Y-38074694D01*
X118157350Y-38088128D01*
X118127766Y-38098713D01*
X118097287Y-38106348D01*
X118066207Y-38110958D01*
X118034824Y-38112500D01*
X116525176Y-38112500D01*
X116493793Y-38110958D01*
X116462713Y-38106348D01*
X116432234Y-38098713D01*
X116402650Y-38088128D01*
X116374246Y-38074694D01*
X116347296Y-38058541D01*
X116322058Y-38039823D01*
X116298777Y-38018723D01*
X116277677Y-37995442D01*
X116258959Y-37970204D01*
X116242806Y-37943254D01*
X116229372Y-37914850D01*
X116218787Y-37885266D01*
X116211152Y-37854787D01*
X116206542Y-37823707D01*
X116205000Y-37792324D01*
X116205000Y-36607676D01*
X116206542Y-36576293D01*
X116211152Y-36545213D01*
X116218787Y-36514734D01*
X116229372Y-36485150D01*
X116242806Y-36456746D01*
X116258959Y-36429796D01*
X116277677Y-36404558D01*
X116298777Y-36381277D01*
X116322058Y-36360177D01*
X116347296Y-36341459D01*
X116374246Y-36325306D01*
X116402650Y-36311872D01*
X116432234Y-36301287D01*
X116462713Y-36293652D01*
X116493793Y-36289042D01*
X116525176Y-36287500D01*
X118034824Y-36287500D01*
X118066207Y-36289042D01*
X118066207Y-36289042D01*
G37*
D14*
X117280000Y-37200000D03*
D13*
G36*
X118066207Y-39264042D02*
X118097287Y-39268652D01*
X118127766Y-39276287D01*
X118157350Y-39286872D01*
X118185754Y-39300306D01*
X118212704Y-39316459D01*
X118237942Y-39335177D01*
X118261223Y-39356277D01*
X118282323Y-39379558D01*
X118301041Y-39404796D01*
X118317194Y-39431746D01*
X118330628Y-39460150D01*
X118341213Y-39489734D01*
X118348848Y-39520213D01*
X118353458Y-39551293D01*
X118355000Y-39582676D01*
X118355000Y-40767324D01*
X118353458Y-40798707D01*
X118348848Y-40829787D01*
X118341213Y-40860266D01*
X118330628Y-40889850D01*
X118317194Y-40918254D01*
X118301041Y-40945204D01*
X118282323Y-40970442D01*
X118261223Y-40993723D01*
X118237942Y-41014823D01*
X118212704Y-41033541D01*
X118185754Y-41049694D01*
X118157350Y-41063128D01*
X118127766Y-41073713D01*
X118097287Y-41081348D01*
X118066207Y-41085958D01*
X118034824Y-41087500D01*
X116525176Y-41087500D01*
X116493793Y-41085958D01*
X116462713Y-41081348D01*
X116432234Y-41073713D01*
X116402650Y-41063128D01*
X116374246Y-41049694D01*
X116347296Y-41033541D01*
X116322058Y-41014823D01*
X116298777Y-40993723D01*
X116277677Y-40970442D01*
X116258959Y-40945204D01*
X116242806Y-40918254D01*
X116229372Y-40889850D01*
X116218787Y-40860266D01*
X116211152Y-40829787D01*
X116206542Y-40798707D01*
X116205000Y-40767324D01*
X116205000Y-39582676D01*
X116206542Y-39551293D01*
X116211152Y-39520213D01*
X116218787Y-39489734D01*
X116229372Y-39460150D01*
X116242806Y-39431746D01*
X116258959Y-39404796D01*
X116277677Y-39379558D01*
X116298777Y-39356277D01*
X116322058Y-39335177D01*
X116347296Y-39316459D01*
X116374246Y-39300306D01*
X116402650Y-39286872D01*
X116432234Y-39276287D01*
X116462713Y-39268652D01*
X116493793Y-39264042D01*
X116525176Y-39262500D01*
X118034824Y-39262500D01*
X118066207Y-39264042D01*
X118066207Y-39264042D01*
G37*
D14*
X117280000Y-40175000D03*
G04 #@! TD*
D13*
G04 #@! TO.C,D5*
G36*
X137116207Y-36289042D02*
X137147287Y-36293652D01*
X137177766Y-36301287D01*
X137207350Y-36311872D01*
X137235754Y-36325306D01*
X137262704Y-36341459D01*
X137287942Y-36360177D01*
X137311223Y-36381277D01*
X137332323Y-36404558D01*
X137351041Y-36429796D01*
X137367194Y-36456746D01*
X137380628Y-36485150D01*
X137391213Y-36514734D01*
X137398848Y-36545213D01*
X137403458Y-36576293D01*
X137405000Y-36607676D01*
X137405000Y-37792324D01*
X137403458Y-37823707D01*
X137398848Y-37854787D01*
X137391213Y-37885266D01*
X137380628Y-37914850D01*
X137367194Y-37943254D01*
X137351041Y-37970204D01*
X137332323Y-37995442D01*
X137311223Y-38018723D01*
X137287942Y-38039823D01*
X137262704Y-38058541D01*
X137235754Y-38074694D01*
X137207350Y-38088128D01*
X137177766Y-38098713D01*
X137147287Y-38106348D01*
X137116207Y-38110958D01*
X137084824Y-38112500D01*
X135575176Y-38112500D01*
X135543793Y-38110958D01*
X135512713Y-38106348D01*
X135482234Y-38098713D01*
X135452650Y-38088128D01*
X135424246Y-38074694D01*
X135397296Y-38058541D01*
X135372058Y-38039823D01*
X135348777Y-38018723D01*
X135327677Y-37995442D01*
X135308959Y-37970204D01*
X135292806Y-37943254D01*
X135279372Y-37914850D01*
X135268787Y-37885266D01*
X135261152Y-37854787D01*
X135256542Y-37823707D01*
X135255000Y-37792324D01*
X135255000Y-36607676D01*
X135256542Y-36576293D01*
X135261152Y-36545213D01*
X135268787Y-36514734D01*
X135279372Y-36485150D01*
X135292806Y-36456746D01*
X135308959Y-36429796D01*
X135327677Y-36404558D01*
X135348777Y-36381277D01*
X135372058Y-36360177D01*
X135397296Y-36341459D01*
X135424246Y-36325306D01*
X135452650Y-36311872D01*
X135482234Y-36301287D01*
X135512713Y-36293652D01*
X135543793Y-36289042D01*
X135575176Y-36287500D01*
X137084824Y-36287500D01*
X137116207Y-36289042D01*
X137116207Y-36289042D01*
G37*
D14*
X136330000Y-37200000D03*
D13*
G36*
X137116207Y-39264042D02*
X137147287Y-39268652D01*
X137177766Y-39276287D01*
X137207350Y-39286872D01*
X137235754Y-39300306D01*
X137262704Y-39316459D01*
X137287942Y-39335177D01*
X137311223Y-39356277D01*
X137332323Y-39379558D01*
X137351041Y-39404796D01*
X137367194Y-39431746D01*
X137380628Y-39460150D01*
X137391213Y-39489734D01*
X137398848Y-39520213D01*
X137403458Y-39551293D01*
X137405000Y-39582676D01*
X137405000Y-40767324D01*
X137403458Y-40798707D01*
X137398848Y-40829787D01*
X137391213Y-40860266D01*
X137380628Y-40889850D01*
X137367194Y-40918254D01*
X137351041Y-40945204D01*
X137332323Y-40970442D01*
X137311223Y-40993723D01*
X137287942Y-41014823D01*
X137262704Y-41033541D01*
X137235754Y-41049694D01*
X137207350Y-41063128D01*
X137177766Y-41073713D01*
X137147287Y-41081348D01*
X137116207Y-41085958D01*
X137084824Y-41087500D01*
X135575176Y-41087500D01*
X135543793Y-41085958D01*
X135512713Y-41081348D01*
X135482234Y-41073713D01*
X135452650Y-41063128D01*
X135424246Y-41049694D01*
X135397296Y-41033541D01*
X135372058Y-41014823D01*
X135348777Y-40993723D01*
X135327677Y-40970442D01*
X135308959Y-40945204D01*
X135292806Y-40918254D01*
X135279372Y-40889850D01*
X135268787Y-40860266D01*
X135261152Y-40829787D01*
X135256542Y-40798707D01*
X135255000Y-40767324D01*
X135255000Y-39582676D01*
X135256542Y-39551293D01*
X135261152Y-39520213D01*
X135268787Y-39489734D01*
X135279372Y-39460150D01*
X135292806Y-39431746D01*
X135308959Y-39404796D01*
X135327677Y-39379558D01*
X135348777Y-39356277D01*
X135372058Y-39335177D01*
X135397296Y-39316459D01*
X135424246Y-39300306D01*
X135452650Y-39286872D01*
X135482234Y-39276287D01*
X135512713Y-39268652D01*
X135543793Y-39264042D01*
X135575176Y-39262500D01*
X137084824Y-39262500D01*
X137116207Y-39264042D01*
X137116207Y-39264042D01*
G37*
D14*
X136330000Y-40175000D03*
G04 #@! TD*
D13*
G04 #@! TO.C,D7*
G36*
X46598273Y-55302056D02*
X46629353Y-55306666D01*
X46659832Y-55314301D01*
X46689416Y-55324886D01*
X46717820Y-55338320D01*
X46744770Y-55354473D01*
X46770008Y-55373191D01*
X46793289Y-55394291D01*
X46814389Y-55417572D01*
X46833107Y-55442810D01*
X46849260Y-55469760D01*
X46862694Y-55498164D01*
X46873279Y-55527748D01*
X46880914Y-55558227D01*
X46885524Y-55589307D01*
X46887066Y-55620690D01*
X46887066Y-56805338D01*
X46885524Y-56836721D01*
X46880914Y-56867801D01*
X46873279Y-56898280D01*
X46862694Y-56927864D01*
X46849260Y-56956268D01*
X46833107Y-56983218D01*
X46814389Y-57008456D01*
X46793289Y-57031737D01*
X46770008Y-57052837D01*
X46744770Y-57071555D01*
X46717820Y-57087708D01*
X46689416Y-57101142D01*
X46659832Y-57111727D01*
X46629353Y-57119362D01*
X46598273Y-57123972D01*
X46566890Y-57125514D01*
X45057242Y-57125514D01*
X45025859Y-57123972D01*
X44994779Y-57119362D01*
X44964300Y-57111727D01*
X44934716Y-57101142D01*
X44906312Y-57087708D01*
X44879362Y-57071555D01*
X44854124Y-57052837D01*
X44830843Y-57031737D01*
X44809743Y-57008456D01*
X44791025Y-56983218D01*
X44774872Y-56956268D01*
X44761438Y-56927864D01*
X44750853Y-56898280D01*
X44743218Y-56867801D01*
X44738608Y-56836721D01*
X44737066Y-56805338D01*
X44737066Y-55620690D01*
X44738608Y-55589307D01*
X44743218Y-55558227D01*
X44750853Y-55527748D01*
X44761438Y-55498164D01*
X44774872Y-55469760D01*
X44791025Y-55442810D01*
X44809743Y-55417572D01*
X44830843Y-55394291D01*
X44854124Y-55373191D01*
X44879362Y-55354473D01*
X44906312Y-55338320D01*
X44934716Y-55324886D01*
X44964300Y-55314301D01*
X44994779Y-55306666D01*
X45025859Y-55302056D01*
X45057242Y-55300514D01*
X46566890Y-55300514D01*
X46598273Y-55302056D01*
X46598273Y-55302056D01*
G37*
D14*
X45812066Y-56213014D03*
D13*
G36*
X46598273Y-58277056D02*
X46629353Y-58281666D01*
X46659832Y-58289301D01*
X46689416Y-58299886D01*
X46717820Y-58313320D01*
X46744770Y-58329473D01*
X46770008Y-58348191D01*
X46793289Y-58369291D01*
X46814389Y-58392572D01*
X46833107Y-58417810D01*
X46849260Y-58444760D01*
X46862694Y-58473164D01*
X46873279Y-58502748D01*
X46880914Y-58533227D01*
X46885524Y-58564307D01*
X46887066Y-58595690D01*
X46887066Y-59780338D01*
X46885524Y-59811721D01*
X46880914Y-59842801D01*
X46873279Y-59873280D01*
X46862694Y-59902864D01*
X46849260Y-59931268D01*
X46833107Y-59958218D01*
X46814389Y-59983456D01*
X46793289Y-60006737D01*
X46770008Y-60027837D01*
X46744770Y-60046555D01*
X46717820Y-60062708D01*
X46689416Y-60076142D01*
X46659832Y-60086727D01*
X46629353Y-60094362D01*
X46598273Y-60098972D01*
X46566890Y-60100514D01*
X45057242Y-60100514D01*
X45025859Y-60098972D01*
X44994779Y-60094362D01*
X44964300Y-60086727D01*
X44934716Y-60076142D01*
X44906312Y-60062708D01*
X44879362Y-60046555D01*
X44854124Y-60027837D01*
X44830843Y-60006737D01*
X44809743Y-59983456D01*
X44791025Y-59958218D01*
X44774872Y-59931268D01*
X44761438Y-59902864D01*
X44750853Y-59873280D01*
X44743218Y-59842801D01*
X44738608Y-59811721D01*
X44737066Y-59780338D01*
X44737066Y-58595690D01*
X44738608Y-58564307D01*
X44743218Y-58533227D01*
X44750853Y-58502748D01*
X44761438Y-58473164D01*
X44774872Y-58444760D01*
X44791025Y-58417810D01*
X44809743Y-58392572D01*
X44830843Y-58369291D01*
X44854124Y-58348191D01*
X44879362Y-58329473D01*
X44906312Y-58313320D01*
X44934716Y-58299886D01*
X44964300Y-58289301D01*
X44994779Y-58281666D01*
X45025859Y-58277056D01*
X45057242Y-58275514D01*
X46566890Y-58275514D01*
X46598273Y-58277056D01*
X46598273Y-58277056D01*
G37*
D14*
X45812066Y-59188014D03*
G04 #@! TD*
D13*
G04 #@! TO.C,D6*
G36*
X144436207Y-36251542D02*
X144467287Y-36256152D01*
X144497766Y-36263787D01*
X144527350Y-36274372D01*
X144555754Y-36287806D01*
X144582704Y-36303959D01*
X144607942Y-36322677D01*
X144631223Y-36343777D01*
X144652323Y-36367058D01*
X144671041Y-36392296D01*
X144687194Y-36419246D01*
X144700628Y-36447650D01*
X144711213Y-36477234D01*
X144718848Y-36507713D01*
X144723458Y-36538793D01*
X144725000Y-36570176D01*
X144725000Y-37754824D01*
X144723458Y-37786207D01*
X144718848Y-37817287D01*
X144711213Y-37847766D01*
X144700628Y-37877350D01*
X144687194Y-37905754D01*
X144671041Y-37932704D01*
X144652323Y-37957942D01*
X144631223Y-37981223D01*
X144607942Y-38002323D01*
X144582704Y-38021041D01*
X144555754Y-38037194D01*
X144527350Y-38050628D01*
X144497766Y-38061213D01*
X144467287Y-38068848D01*
X144436207Y-38073458D01*
X144404824Y-38075000D01*
X142895176Y-38075000D01*
X142863793Y-38073458D01*
X142832713Y-38068848D01*
X142802234Y-38061213D01*
X142772650Y-38050628D01*
X142744246Y-38037194D01*
X142717296Y-38021041D01*
X142692058Y-38002323D01*
X142668777Y-37981223D01*
X142647677Y-37957942D01*
X142628959Y-37932704D01*
X142612806Y-37905754D01*
X142599372Y-37877350D01*
X142588787Y-37847766D01*
X142581152Y-37817287D01*
X142576542Y-37786207D01*
X142575000Y-37754824D01*
X142575000Y-36570176D01*
X142576542Y-36538793D01*
X142581152Y-36507713D01*
X142588787Y-36477234D01*
X142599372Y-36447650D01*
X142612806Y-36419246D01*
X142628959Y-36392296D01*
X142647677Y-36367058D01*
X142668777Y-36343777D01*
X142692058Y-36322677D01*
X142717296Y-36303959D01*
X142744246Y-36287806D01*
X142772650Y-36274372D01*
X142802234Y-36263787D01*
X142832713Y-36256152D01*
X142863793Y-36251542D01*
X142895176Y-36250000D01*
X144404824Y-36250000D01*
X144436207Y-36251542D01*
X144436207Y-36251542D01*
G37*
D14*
X143650000Y-37162500D03*
D13*
G36*
X144436207Y-39226542D02*
X144467287Y-39231152D01*
X144497766Y-39238787D01*
X144527350Y-39249372D01*
X144555754Y-39262806D01*
X144582704Y-39278959D01*
X144607942Y-39297677D01*
X144631223Y-39318777D01*
X144652323Y-39342058D01*
X144671041Y-39367296D01*
X144687194Y-39394246D01*
X144700628Y-39422650D01*
X144711213Y-39452234D01*
X144718848Y-39482713D01*
X144723458Y-39513793D01*
X144725000Y-39545176D01*
X144725000Y-40729824D01*
X144723458Y-40761207D01*
X144718848Y-40792287D01*
X144711213Y-40822766D01*
X144700628Y-40852350D01*
X144687194Y-40880754D01*
X144671041Y-40907704D01*
X144652323Y-40932942D01*
X144631223Y-40956223D01*
X144607942Y-40977323D01*
X144582704Y-40996041D01*
X144555754Y-41012194D01*
X144527350Y-41025628D01*
X144497766Y-41036213D01*
X144467287Y-41043848D01*
X144436207Y-41048458D01*
X144404824Y-41050000D01*
X142895176Y-41050000D01*
X142863793Y-41048458D01*
X142832713Y-41043848D01*
X142802234Y-41036213D01*
X142772650Y-41025628D01*
X142744246Y-41012194D01*
X142717296Y-40996041D01*
X142692058Y-40977323D01*
X142668777Y-40956223D01*
X142647677Y-40932942D01*
X142628959Y-40907704D01*
X142612806Y-40880754D01*
X142599372Y-40852350D01*
X142588787Y-40822766D01*
X142581152Y-40792287D01*
X142576542Y-40761207D01*
X142575000Y-40729824D01*
X142575000Y-39545176D01*
X142576542Y-39513793D01*
X142581152Y-39482713D01*
X142588787Y-39452234D01*
X142599372Y-39422650D01*
X142612806Y-39394246D01*
X142628959Y-39367296D01*
X142647677Y-39342058D01*
X142668777Y-39318777D01*
X142692058Y-39297677D01*
X142717296Y-39278959D01*
X142744246Y-39262806D01*
X142772650Y-39249372D01*
X142802234Y-39238787D01*
X142832713Y-39231152D01*
X142863793Y-39226542D01*
X142895176Y-39225000D01*
X144404824Y-39225000D01*
X144436207Y-39226542D01*
X144436207Y-39226542D01*
G37*
D14*
X143650000Y-40137500D03*
G04 #@! TD*
D13*
G04 #@! TO.C,D21*
G36*
X65646207Y-93361542D02*
X65677287Y-93366152D01*
X65707766Y-93373787D01*
X65737350Y-93384372D01*
X65765754Y-93397806D01*
X65792704Y-93413959D01*
X65817942Y-93432677D01*
X65841223Y-93453777D01*
X65862323Y-93477058D01*
X65881041Y-93502296D01*
X65897194Y-93529246D01*
X65910628Y-93557650D01*
X65921213Y-93587234D01*
X65928848Y-93617713D01*
X65933458Y-93648793D01*
X65935000Y-93680176D01*
X65935000Y-94864824D01*
X65933458Y-94896207D01*
X65928848Y-94927287D01*
X65921213Y-94957766D01*
X65910628Y-94987350D01*
X65897194Y-95015754D01*
X65881041Y-95042704D01*
X65862323Y-95067942D01*
X65841223Y-95091223D01*
X65817942Y-95112323D01*
X65792704Y-95131041D01*
X65765754Y-95147194D01*
X65737350Y-95160628D01*
X65707766Y-95171213D01*
X65677287Y-95178848D01*
X65646207Y-95183458D01*
X65614824Y-95185000D01*
X64105176Y-95185000D01*
X64073793Y-95183458D01*
X64042713Y-95178848D01*
X64012234Y-95171213D01*
X63982650Y-95160628D01*
X63954246Y-95147194D01*
X63927296Y-95131041D01*
X63902058Y-95112323D01*
X63878777Y-95091223D01*
X63857677Y-95067942D01*
X63838959Y-95042704D01*
X63822806Y-95015754D01*
X63809372Y-94987350D01*
X63798787Y-94957766D01*
X63791152Y-94927287D01*
X63786542Y-94896207D01*
X63785000Y-94864824D01*
X63785000Y-93680176D01*
X63786542Y-93648793D01*
X63791152Y-93617713D01*
X63798787Y-93587234D01*
X63809372Y-93557650D01*
X63822806Y-93529246D01*
X63838959Y-93502296D01*
X63857677Y-93477058D01*
X63878777Y-93453777D01*
X63902058Y-93432677D01*
X63927296Y-93413959D01*
X63954246Y-93397806D01*
X63982650Y-93384372D01*
X64012234Y-93373787D01*
X64042713Y-93366152D01*
X64073793Y-93361542D01*
X64105176Y-93360000D01*
X65614824Y-93360000D01*
X65646207Y-93361542D01*
X65646207Y-93361542D01*
G37*
D14*
X64860000Y-94272500D03*
D13*
G36*
X65646207Y-96336542D02*
X65677287Y-96341152D01*
X65707766Y-96348787D01*
X65737350Y-96359372D01*
X65765754Y-96372806D01*
X65792704Y-96388959D01*
X65817942Y-96407677D01*
X65841223Y-96428777D01*
X65862323Y-96452058D01*
X65881041Y-96477296D01*
X65897194Y-96504246D01*
X65910628Y-96532650D01*
X65921213Y-96562234D01*
X65928848Y-96592713D01*
X65933458Y-96623793D01*
X65935000Y-96655176D01*
X65935000Y-97839824D01*
X65933458Y-97871207D01*
X65928848Y-97902287D01*
X65921213Y-97932766D01*
X65910628Y-97962350D01*
X65897194Y-97990754D01*
X65881041Y-98017704D01*
X65862323Y-98042942D01*
X65841223Y-98066223D01*
X65817942Y-98087323D01*
X65792704Y-98106041D01*
X65765754Y-98122194D01*
X65737350Y-98135628D01*
X65707766Y-98146213D01*
X65677287Y-98153848D01*
X65646207Y-98158458D01*
X65614824Y-98160000D01*
X64105176Y-98160000D01*
X64073793Y-98158458D01*
X64042713Y-98153848D01*
X64012234Y-98146213D01*
X63982650Y-98135628D01*
X63954246Y-98122194D01*
X63927296Y-98106041D01*
X63902058Y-98087323D01*
X63878777Y-98066223D01*
X63857677Y-98042942D01*
X63838959Y-98017704D01*
X63822806Y-97990754D01*
X63809372Y-97962350D01*
X63798787Y-97932766D01*
X63791152Y-97902287D01*
X63786542Y-97871207D01*
X63785000Y-97839824D01*
X63785000Y-96655176D01*
X63786542Y-96623793D01*
X63791152Y-96592713D01*
X63798787Y-96562234D01*
X63809372Y-96532650D01*
X63822806Y-96504246D01*
X63838959Y-96477296D01*
X63857677Y-96452058D01*
X63878777Y-96428777D01*
X63902058Y-96407677D01*
X63927296Y-96388959D01*
X63954246Y-96372806D01*
X63982650Y-96359372D01*
X64012234Y-96348787D01*
X64042713Y-96341152D01*
X64073793Y-96336542D01*
X64105176Y-96335000D01*
X65614824Y-96335000D01*
X65646207Y-96336542D01*
X65646207Y-96336542D01*
G37*
D14*
X64860000Y-97247500D03*
G04 #@! TD*
D13*
G04 #@! TO.C,D22*
G36*
X84696207Y-93361542D02*
X84727287Y-93366152D01*
X84757766Y-93373787D01*
X84787350Y-93384372D01*
X84815754Y-93397806D01*
X84842704Y-93413959D01*
X84867942Y-93432677D01*
X84891223Y-93453777D01*
X84912323Y-93477058D01*
X84931041Y-93502296D01*
X84947194Y-93529246D01*
X84960628Y-93557650D01*
X84971213Y-93587234D01*
X84978848Y-93617713D01*
X84983458Y-93648793D01*
X84985000Y-93680176D01*
X84985000Y-94864824D01*
X84983458Y-94896207D01*
X84978848Y-94927287D01*
X84971213Y-94957766D01*
X84960628Y-94987350D01*
X84947194Y-95015754D01*
X84931041Y-95042704D01*
X84912323Y-95067942D01*
X84891223Y-95091223D01*
X84867942Y-95112323D01*
X84842704Y-95131041D01*
X84815754Y-95147194D01*
X84787350Y-95160628D01*
X84757766Y-95171213D01*
X84727287Y-95178848D01*
X84696207Y-95183458D01*
X84664824Y-95185000D01*
X83155176Y-95185000D01*
X83123793Y-95183458D01*
X83092713Y-95178848D01*
X83062234Y-95171213D01*
X83032650Y-95160628D01*
X83004246Y-95147194D01*
X82977296Y-95131041D01*
X82952058Y-95112323D01*
X82928777Y-95091223D01*
X82907677Y-95067942D01*
X82888959Y-95042704D01*
X82872806Y-95015754D01*
X82859372Y-94987350D01*
X82848787Y-94957766D01*
X82841152Y-94927287D01*
X82836542Y-94896207D01*
X82835000Y-94864824D01*
X82835000Y-93680176D01*
X82836542Y-93648793D01*
X82841152Y-93617713D01*
X82848787Y-93587234D01*
X82859372Y-93557650D01*
X82872806Y-93529246D01*
X82888959Y-93502296D01*
X82907677Y-93477058D01*
X82928777Y-93453777D01*
X82952058Y-93432677D01*
X82977296Y-93413959D01*
X83004246Y-93397806D01*
X83032650Y-93384372D01*
X83062234Y-93373787D01*
X83092713Y-93366152D01*
X83123793Y-93361542D01*
X83155176Y-93360000D01*
X84664824Y-93360000D01*
X84696207Y-93361542D01*
X84696207Y-93361542D01*
G37*
D14*
X83910000Y-94272500D03*
D13*
G36*
X84696207Y-96336542D02*
X84727287Y-96341152D01*
X84757766Y-96348787D01*
X84787350Y-96359372D01*
X84815754Y-96372806D01*
X84842704Y-96388959D01*
X84867942Y-96407677D01*
X84891223Y-96428777D01*
X84912323Y-96452058D01*
X84931041Y-96477296D01*
X84947194Y-96504246D01*
X84960628Y-96532650D01*
X84971213Y-96562234D01*
X84978848Y-96592713D01*
X84983458Y-96623793D01*
X84985000Y-96655176D01*
X84985000Y-97839824D01*
X84983458Y-97871207D01*
X84978848Y-97902287D01*
X84971213Y-97932766D01*
X84960628Y-97962350D01*
X84947194Y-97990754D01*
X84931041Y-98017704D01*
X84912323Y-98042942D01*
X84891223Y-98066223D01*
X84867942Y-98087323D01*
X84842704Y-98106041D01*
X84815754Y-98122194D01*
X84787350Y-98135628D01*
X84757766Y-98146213D01*
X84727287Y-98153848D01*
X84696207Y-98158458D01*
X84664824Y-98160000D01*
X83155176Y-98160000D01*
X83123793Y-98158458D01*
X83092713Y-98153848D01*
X83062234Y-98146213D01*
X83032650Y-98135628D01*
X83004246Y-98122194D01*
X82977296Y-98106041D01*
X82952058Y-98087323D01*
X82928777Y-98066223D01*
X82907677Y-98042942D01*
X82888959Y-98017704D01*
X82872806Y-97990754D01*
X82859372Y-97962350D01*
X82848787Y-97932766D01*
X82841152Y-97902287D01*
X82836542Y-97871207D01*
X82835000Y-97839824D01*
X82835000Y-96655176D01*
X82836542Y-96623793D01*
X82841152Y-96592713D01*
X82848787Y-96562234D01*
X82859372Y-96532650D01*
X82872806Y-96504246D01*
X82888959Y-96477296D01*
X82907677Y-96452058D01*
X82928777Y-96428777D01*
X82952058Y-96407677D01*
X82977296Y-96388959D01*
X83004246Y-96372806D01*
X83032650Y-96359372D01*
X83062234Y-96348787D01*
X83092713Y-96341152D01*
X83123793Y-96336542D01*
X83155176Y-96335000D01*
X84664824Y-96335000D01*
X84696207Y-96336542D01*
X84696207Y-96336542D01*
G37*
D14*
X83910000Y-97247500D03*
G04 #@! TD*
D13*
G04 #@! TO.C,D23*
G36*
X103746207Y-93361542D02*
X103777287Y-93366152D01*
X103807766Y-93373787D01*
X103837350Y-93384372D01*
X103865754Y-93397806D01*
X103892704Y-93413959D01*
X103917942Y-93432677D01*
X103941223Y-93453777D01*
X103962323Y-93477058D01*
X103981041Y-93502296D01*
X103997194Y-93529246D01*
X104010628Y-93557650D01*
X104021213Y-93587234D01*
X104028848Y-93617713D01*
X104033458Y-93648793D01*
X104035000Y-93680176D01*
X104035000Y-94864824D01*
X104033458Y-94896207D01*
X104028848Y-94927287D01*
X104021213Y-94957766D01*
X104010628Y-94987350D01*
X103997194Y-95015754D01*
X103981041Y-95042704D01*
X103962323Y-95067942D01*
X103941223Y-95091223D01*
X103917942Y-95112323D01*
X103892704Y-95131041D01*
X103865754Y-95147194D01*
X103837350Y-95160628D01*
X103807766Y-95171213D01*
X103777287Y-95178848D01*
X103746207Y-95183458D01*
X103714824Y-95185000D01*
X102205176Y-95185000D01*
X102173793Y-95183458D01*
X102142713Y-95178848D01*
X102112234Y-95171213D01*
X102082650Y-95160628D01*
X102054246Y-95147194D01*
X102027296Y-95131041D01*
X102002058Y-95112323D01*
X101978777Y-95091223D01*
X101957677Y-95067942D01*
X101938959Y-95042704D01*
X101922806Y-95015754D01*
X101909372Y-94987350D01*
X101898787Y-94957766D01*
X101891152Y-94927287D01*
X101886542Y-94896207D01*
X101885000Y-94864824D01*
X101885000Y-93680176D01*
X101886542Y-93648793D01*
X101891152Y-93617713D01*
X101898787Y-93587234D01*
X101909372Y-93557650D01*
X101922806Y-93529246D01*
X101938959Y-93502296D01*
X101957677Y-93477058D01*
X101978777Y-93453777D01*
X102002058Y-93432677D01*
X102027296Y-93413959D01*
X102054246Y-93397806D01*
X102082650Y-93384372D01*
X102112234Y-93373787D01*
X102142713Y-93366152D01*
X102173793Y-93361542D01*
X102205176Y-93360000D01*
X103714824Y-93360000D01*
X103746207Y-93361542D01*
X103746207Y-93361542D01*
G37*
D14*
X102960000Y-94272500D03*
D13*
G36*
X103746207Y-96336542D02*
X103777287Y-96341152D01*
X103807766Y-96348787D01*
X103837350Y-96359372D01*
X103865754Y-96372806D01*
X103892704Y-96388959D01*
X103917942Y-96407677D01*
X103941223Y-96428777D01*
X103962323Y-96452058D01*
X103981041Y-96477296D01*
X103997194Y-96504246D01*
X104010628Y-96532650D01*
X104021213Y-96562234D01*
X104028848Y-96592713D01*
X104033458Y-96623793D01*
X104035000Y-96655176D01*
X104035000Y-97839824D01*
X104033458Y-97871207D01*
X104028848Y-97902287D01*
X104021213Y-97932766D01*
X104010628Y-97962350D01*
X103997194Y-97990754D01*
X103981041Y-98017704D01*
X103962323Y-98042942D01*
X103941223Y-98066223D01*
X103917942Y-98087323D01*
X103892704Y-98106041D01*
X103865754Y-98122194D01*
X103837350Y-98135628D01*
X103807766Y-98146213D01*
X103777287Y-98153848D01*
X103746207Y-98158458D01*
X103714824Y-98160000D01*
X102205176Y-98160000D01*
X102173793Y-98158458D01*
X102142713Y-98153848D01*
X102112234Y-98146213D01*
X102082650Y-98135628D01*
X102054246Y-98122194D01*
X102027296Y-98106041D01*
X102002058Y-98087323D01*
X101978777Y-98066223D01*
X101957677Y-98042942D01*
X101938959Y-98017704D01*
X101922806Y-97990754D01*
X101909372Y-97962350D01*
X101898787Y-97932766D01*
X101891152Y-97902287D01*
X101886542Y-97871207D01*
X101885000Y-97839824D01*
X101885000Y-96655176D01*
X101886542Y-96623793D01*
X101891152Y-96592713D01*
X101898787Y-96562234D01*
X101909372Y-96532650D01*
X101922806Y-96504246D01*
X101938959Y-96477296D01*
X101957677Y-96452058D01*
X101978777Y-96428777D01*
X102002058Y-96407677D01*
X102027296Y-96388959D01*
X102054246Y-96372806D01*
X102082650Y-96359372D01*
X102112234Y-96348787D01*
X102142713Y-96341152D01*
X102173793Y-96336542D01*
X102205176Y-96335000D01*
X103714824Y-96335000D01*
X103746207Y-96336542D01*
X103746207Y-96336542D01*
G37*
D14*
X102960000Y-97247500D03*
G04 #@! TD*
D13*
G04 #@! TO.C,D24*
G36*
X122796207Y-93361542D02*
X122827287Y-93366152D01*
X122857766Y-93373787D01*
X122887350Y-93384372D01*
X122915754Y-93397806D01*
X122942704Y-93413959D01*
X122967942Y-93432677D01*
X122991223Y-93453777D01*
X123012323Y-93477058D01*
X123031041Y-93502296D01*
X123047194Y-93529246D01*
X123060628Y-93557650D01*
X123071213Y-93587234D01*
X123078848Y-93617713D01*
X123083458Y-93648793D01*
X123085000Y-93680176D01*
X123085000Y-94864824D01*
X123083458Y-94896207D01*
X123078848Y-94927287D01*
X123071213Y-94957766D01*
X123060628Y-94987350D01*
X123047194Y-95015754D01*
X123031041Y-95042704D01*
X123012323Y-95067942D01*
X122991223Y-95091223D01*
X122967942Y-95112323D01*
X122942704Y-95131041D01*
X122915754Y-95147194D01*
X122887350Y-95160628D01*
X122857766Y-95171213D01*
X122827287Y-95178848D01*
X122796207Y-95183458D01*
X122764824Y-95185000D01*
X121255176Y-95185000D01*
X121223793Y-95183458D01*
X121192713Y-95178848D01*
X121162234Y-95171213D01*
X121132650Y-95160628D01*
X121104246Y-95147194D01*
X121077296Y-95131041D01*
X121052058Y-95112323D01*
X121028777Y-95091223D01*
X121007677Y-95067942D01*
X120988959Y-95042704D01*
X120972806Y-95015754D01*
X120959372Y-94987350D01*
X120948787Y-94957766D01*
X120941152Y-94927287D01*
X120936542Y-94896207D01*
X120935000Y-94864824D01*
X120935000Y-93680176D01*
X120936542Y-93648793D01*
X120941152Y-93617713D01*
X120948787Y-93587234D01*
X120959372Y-93557650D01*
X120972806Y-93529246D01*
X120988959Y-93502296D01*
X121007677Y-93477058D01*
X121028777Y-93453777D01*
X121052058Y-93432677D01*
X121077296Y-93413959D01*
X121104246Y-93397806D01*
X121132650Y-93384372D01*
X121162234Y-93373787D01*
X121192713Y-93366152D01*
X121223793Y-93361542D01*
X121255176Y-93360000D01*
X122764824Y-93360000D01*
X122796207Y-93361542D01*
X122796207Y-93361542D01*
G37*
D14*
X122010000Y-94272500D03*
D13*
G36*
X122796207Y-96336542D02*
X122827287Y-96341152D01*
X122857766Y-96348787D01*
X122887350Y-96359372D01*
X122915754Y-96372806D01*
X122942704Y-96388959D01*
X122967942Y-96407677D01*
X122991223Y-96428777D01*
X123012323Y-96452058D01*
X123031041Y-96477296D01*
X123047194Y-96504246D01*
X123060628Y-96532650D01*
X123071213Y-96562234D01*
X123078848Y-96592713D01*
X123083458Y-96623793D01*
X123085000Y-96655176D01*
X123085000Y-97839824D01*
X123083458Y-97871207D01*
X123078848Y-97902287D01*
X123071213Y-97932766D01*
X123060628Y-97962350D01*
X123047194Y-97990754D01*
X123031041Y-98017704D01*
X123012323Y-98042942D01*
X122991223Y-98066223D01*
X122967942Y-98087323D01*
X122942704Y-98106041D01*
X122915754Y-98122194D01*
X122887350Y-98135628D01*
X122857766Y-98146213D01*
X122827287Y-98153848D01*
X122796207Y-98158458D01*
X122764824Y-98160000D01*
X121255176Y-98160000D01*
X121223793Y-98158458D01*
X121192713Y-98153848D01*
X121162234Y-98146213D01*
X121132650Y-98135628D01*
X121104246Y-98122194D01*
X121077296Y-98106041D01*
X121052058Y-98087323D01*
X121028777Y-98066223D01*
X121007677Y-98042942D01*
X120988959Y-98017704D01*
X120972806Y-97990754D01*
X120959372Y-97962350D01*
X120948787Y-97932766D01*
X120941152Y-97902287D01*
X120936542Y-97871207D01*
X120935000Y-97839824D01*
X120935000Y-96655176D01*
X120936542Y-96623793D01*
X120941152Y-96592713D01*
X120948787Y-96562234D01*
X120959372Y-96532650D01*
X120972806Y-96504246D01*
X120988959Y-96477296D01*
X121007677Y-96452058D01*
X121028777Y-96428777D01*
X121052058Y-96407677D01*
X121077296Y-96388959D01*
X121104246Y-96372806D01*
X121132650Y-96359372D01*
X121162234Y-96348787D01*
X121192713Y-96341152D01*
X121223793Y-96336542D01*
X121255176Y-96335000D01*
X122764824Y-96335000D01*
X122796207Y-96336542D01*
X122796207Y-96336542D01*
G37*
D14*
X122010000Y-97247500D03*
G04 #@! TD*
D13*
G04 #@! TO.C,D25*
G36*
X141846207Y-93361542D02*
X141877287Y-93366152D01*
X141907766Y-93373787D01*
X141937350Y-93384372D01*
X141965754Y-93397806D01*
X141992704Y-93413959D01*
X142017942Y-93432677D01*
X142041223Y-93453777D01*
X142062323Y-93477058D01*
X142081041Y-93502296D01*
X142097194Y-93529246D01*
X142110628Y-93557650D01*
X142121213Y-93587234D01*
X142128848Y-93617713D01*
X142133458Y-93648793D01*
X142135000Y-93680176D01*
X142135000Y-94864824D01*
X142133458Y-94896207D01*
X142128848Y-94927287D01*
X142121213Y-94957766D01*
X142110628Y-94987350D01*
X142097194Y-95015754D01*
X142081041Y-95042704D01*
X142062323Y-95067942D01*
X142041223Y-95091223D01*
X142017942Y-95112323D01*
X141992704Y-95131041D01*
X141965754Y-95147194D01*
X141937350Y-95160628D01*
X141907766Y-95171213D01*
X141877287Y-95178848D01*
X141846207Y-95183458D01*
X141814824Y-95185000D01*
X140305176Y-95185000D01*
X140273793Y-95183458D01*
X140242713Y-95178848D01*
X140212234Y-95171213D01*
X140182650Y-95160628D01*
X140154246Y-95147194D01*
X140127296Y-95131041D01*
X140102058Y-95112323D01*
X140078777Y-95091223D01*
X140057677Y-95067942D01*
X140038959Y-95042704D01*
X140022806Y-95015754D01*
X140009372Y-94987350D01*
X139998787Y-94957766D01*
X139991152Y-94927287D01*
X139986542Y-94896207D01*
X139985000Y-94864824D01*
X139985000Y-93680176D01*
X139986542Y-93648793D01*
X139991152Y-93617713D01*
X139998787Y-93587234D01*
X140009372Y-93557650D01*
X140022806Y-93529246D01*
X140038959Y-93502296D01*
X140057677Y-93477058D01*
X140078777Y-93453777D01*
X140102058Y-93432677D01*
X140127296Y-93413959D01*
X140154246Y-93397806D01*
X140182650Y-93384372D01*
X140212234Y-93373787D01*
X140242713Y-93366152D01*
X140273793Y-93361542D01*
X140305176Y-93360000D01*
X141814824Y-93360000D01*
X141846207Y-93361542D01*
X141846207Y-93361542D01*
G37*
D14*
X141060000Y-94272500D03*
D13*
G36*
X141846207Y-96336542D02*
X141877287Y-96341152D01*
X141907766Y-96348787D01*
X141937350Y-96359372D01*
X141965754Y-96372806D01*
X141992704Y-96388959D01*
X142017942Y-96407677D01*
X142041223Y-96428777D01*
X142062323Y-96452058D01*
X142081041Y-96477296D01*
X142097194Y-96504246D01*
X142110628Y-96532650D01*
X142121213Y-96562234D01*
X142128848Y-96592713D01*
X142133458Y-96623793D01*
X142135000Y-96655176D01*
X142135000Y-97839824D01*
X142133458Y-97871207D01*
X142128848Y-97902287D01*
X142121213Y-97932766D01*
X142110628Y-97962350D01*
X142097194Y-97990754D01*
X142081041Y-98017704D01*
X142062323Y-98042942D01*
X142041223Y-98066223D01*
X142017942Y-98087323D01*
X141992704Y-98106041D01*
X141965754Y-98122194D01*
X141937350Y-98135628D01*
X141907766Y-98146213D01*
X141877287Y-98153848D01*
X141846207Y-98158458D01*
X141814824Y-98160000D01*
X140305176Y-98160000D01*
X140273793Y-98158458D01*
X140242713Y-98153848D01*
X140212234Y-98146213D01*
X140182650Y-98135628D01*
X140154246Y-98122194D01*
X140127296Y-98106041D01*
X140102058Y-98087323D01*
X140078777Y-98066223D01*
X140057677Y-98042942D01*
X140038959Y-98017704D01*
X140022806Y-97990754D01*
X140009372Y-97962350D01*
X139998787Y-97932766D01*
X139991152Y-97902287D01*
X139986542Y-97871207D01*
X139985000Y-97839824D01*
X139985000Y-96655176D01*
X139986542Y-96623793D01*
X139991152Y-96592713D01*
X139998787Y-96562234D01*
X140009372Y-96532650D01*
X140022806Y-96504246D01*
X140038959Y-96477296D01*
X140057677Y-96452058D01*
X140078777Y-96428777D01*
X140102058Y-96407677D01*
X140127296Y-96388959D01*
X140154246Y-96372806D01*
X140182650Y-96359372D01*
X140212234Y-96348787D01*
X140242713Y-96341152D01*
X140273793Y-96336542D01*
X140305176Y-96335000D01*
X141814824Y-96335000D01*
X141846207Y-96336542D01*
X141846207Y-96336542D01*
G37*
D14*
X141060000Y-97247500D03*
G04 #@! TD*
D13*
G04 #@! TO.C,D27*
G36*
X91826207Y-112401542D02*
X91857287Y-112406152D01*
X91887766Y-112413787D01*
X91917350Y-112424372D01*
X91945754Y-112437806D01*
X91972704Y-112453959D01*
X91997942Y-112472677D01*
X92021223Y-112493777D01*
X92042323Y-112517058D01*
X92061041Y-112542296D01*
X92077194Y-112569246D01*
X92090628Y-112597650D01*
X92101213Y-112627234D01*
X92108848Y-112657713D01*
X92113458Y-112688793D01*
X92115000Y-112720176D01*
X92115000Y-113904824D01*
X92113458Y-113936207D01*
X92108848Y-113967287D01*
X92101213Y-113997766D01*
X92090628Y-114027350D01*
X92077194Y-114055754D01*
X92061041Y-114082704D01*
X92042323Y-114107942D01*
X92021223Y-114131223D01*
X91997942Y-114152323D01*
X91972704Y-114171041D01*
X91945754Y-114187194D01*
X91917350Y-114200628D01*
X91887766Y-114211213D01*
X91857287Y-114218848D01*
X91826207Y-114223458D01*
X91794824Y-114225000D01*
X90285176Y-114225000D01*
X90253793Y-114223458D01*
X90222713Y-114218848D01*
X90192234Y-114211213D01*
X90162650Y-114200628D01*
X90134246Y-114187194D01*
X90107296Y-114171041D01*
X90082058Y-114152323D01*
X90058777Y-114131223D01*
X90037677Y-114107942D01*
X90018959Y-114082704D01*
X90002806Y-114055754D01*
X89989372Y-114027350D01*
X89978787Y-113997766D01*
X89971152Y-113967287D01*
X89966542Y-113936207D01*
X89965000Y-113904824D01*
X89965000Y-112720176D01*
X89966542Y-112688793D01*
X89971152Y-112657713D01*
X89978787Y-112627234D01*
X89989372Y-112597650D01*
X90002806Y-112569246D01*
X90018959Y-112542296D01*
X90037677Y-112517058D01*
X90058777Y-112493777D01*
X90082058Y-112472677D01*
X90107296Y-112453959D01*
X90134246Y-112437806D01*
X90162650Y-112424372D01*
X90192234Y-112413787D01*
X90222713Y-112406152D01*
X90253793Y-112401542D01*
X90285176Y-112400000D01*
X91794824Y-112400000D01*
X91826207Y-112401542D01*
X91826207Y-112401542D01*
G37*
D14*
X91040000Y-113312500D03*
D13*
G36*
X91826207Y-115376542D02*
X91857287Y-115381152D01*
X91887766Y-115388787D01*
X91917350Y-115399372D01*
X91945754Y-115412806D01*
X91972704Y-115428959D01*
X91997942Y-115447677D01*
X92021223Y-115468777D01*
X92042323Y-115492058D01*
X92061041Y-115517296D01*
X92077194Y-115544246D01*
X92090628Y-115572650D01*
X92101213Y-115602234D01*
X92108848Y-115632713D01*
X92113458Y-115663793D01*
X92115000Y-115695176D01*
X92115000Y-116879824D01*
X92113458Y-116911207D01*
X92108848Y-116942287D01*
X92101213Y-116972766D01*
X92090628Y-117002350D01*
X92077194Y-117030754D01*
X92061041Y-117057704D01*
X92042323Y-117082942D01*
X92021223Y-117106223D01*
X91997942Y-117127323D01*
X91972704Y-117146041D01*
X91945754Y-117162194D01*
X91917350Y-117175628D01*
X91887766Y-117186213D01*
X91857287Y-117193848D01*
X91826207Y-117198458D01*
X91794824Y-117200000D01*
X90285176Y-117200000D01*
X90253793Y-117198458D01*
X90222713Y-117193848D01*
X90192234Y-117186213D01*
X90162650Y-117175628D01*
X90134246Y-117162194D01*
X90107296Y-117146041D01*
X90082058Y-117127323D01*
X90058777Y-117106223D01*
X90037677Y-117082942D01*
X90018959Y-117057704D01*
X90002806Y-117030754D01*
X89989372Y-117002350D01*
X89978787Y-116972766D01*
X89971152Y-116942287D01*
X89966542Y-116911207D01*
X89965000Y-116879824D01*
X89965000Y-115695176D01*
X89966542Y-115663793D01*
X89971152Y-115632713D01*
X89978787Y-115602234D01*
X89989372Y-115572650D01*
X90002806Y-115544246D01*
X90018959Y-115517296D01*
X90037677Y-115492058D01*
X90058777Y-115468777D01*
X90082058Y-115447677D01*
X90107296Y-115428959D01*
X90134246Y-115412806D01*
X90162650Y-115399372D01*
X90192234Y-115388787D01*
X90222713Y-115381152D01*
X90253793Y-115376542D01*
X90285176Y-115375000D01*
X91794824Y-115375000D01*
X91826207Y-115376542D01*
X91826207Y-115376542D01*
G37*
D14*
X91040000Y-116287500D03*
G04 #@! TD*
D13*
G04 #@! TO.C,D28*
G36*
X115656207Y-112401542D02*
X115687287Y-112406152D01*
X115717766Y-112413787D01*
X115747350Y-112424372D01*
X115775754Y-112437806D01*
X115802704Y-112453959D01*
X115827942Y-112472677D01*
X115851223Y-112493777D01*
X115872323Y-112517058D01*
X115891041Y-112542296D01*
X115907194Y-112569246D01*
X115920628Y-112597650D01*
X115931213Y-112627234D01*
X115938848Y-112657713D01*
X115943458Y-112688793D01*
X115945000Y-112720176D01*
X115945000Y-113904824D01*
X115943458Y-113936207D01*
X115938848Y-113967287D01*
X115931213Y-113997766D01*
X115920628Y-114027350D01*
X115907194Y-114055754D01*
X115891041Y-114082704D01*
X115872323Y-114107942D01*
X115851223Y-114131223D01*
X115827942Y-114152323D01*
X115802704Y-114171041D01*
X115775754Y-114187194D01*
X115747350Y-114200628D01*
X115717766Y-114211213D01*
X115687287Y-114218848D01*
X115656207Y-114223458D01*
X115624824Y-114225000D01*
X114115176Y-114225000D01*
X114083793Y-114223458D01*
X114052713Y-114218848D01*
X114022234Y-114211213D01*
X113992650Y-114200628D01*
X113964246Y-114187194D01*
X113937296Y-114171041D01*
X113912058Y-114152323D01*
X113888777Y-114131223D01*
X113867677Y-114107942D01*
X113848959Y-114082704D01*
X113832806Y-114055754D01*
X113819372Y-114027350D01*
X113808787Y-113997766D01*
X113801152Y-113967287D01*
X113796542Y-113936207D01*
X113795000Y-113904824D01*
X113795000Y-112720176D01*
X113796542Y-112688793D01*
X113801152Y-112657713D01*
X113808787Y-112627234D01*
X113819372Y-112597650D01*
X113832806Y-112569246D01*
X113848959Y-112542296D01*
X113867677Y-112517058D01*
X113888777Y-112493777D01*
X113912058Y-112472677D01*
X113937296Y-112453959D01*
X113964246Y-112437806D01*
X113992650Y-112424372D01*
X114022234Y-112413787D01*
X114052713Y-112406152D01*
X114083793Y-112401542D01*
X114115176Y-112400000D01*
X115624824Y-112400000D01*
X115656207Y-112401542D01*
X115656207Y-112401542D01*
G37*
D14*
X114870000Y-113312500D03*
D13*
G36*
X115656207Y-115376542D02*
X115687287Y-115381152D01*
X115717766Y-115388787D01*
X115747350Y-115399372D01*
X115775754Y-115412806D01*
X115802704Y-115428959D01*
X115827942Y-115447677D01*
X115851223Y-115468777D01*
X115872323Y-115492058D01*
X115891041Y-115517296D01*
X115907194Y-115544246D01*
X115920628Y-115572650D01*
X115931213Y-115602234D01*
X115938848Y-115632713D01*
X115943458Y-115663793D01*
X115945000Y-115695176D01*
X115945000Y-116879824D01*
X115943458Y-116911207D01*
X115938848Y-116942287D01*
X115931213Y-116972766D01*
X115920628Y-117002350D01*
X115907194Y-117030754D01*
X115891041Y-117057704D01*
X115872323Y-117082942D01*
X115851223Y-117106223D01*
X115827942Y-117127323D01*
X115802704Y-117146041D01*
X115775754Y-117162194D01*
X115747350Y-117175628D01*
X115717766Y-117186213D01*
X115687287Y-117193848D01*
X115656207Y-117198458D01*
X115624824Y-117200000D01*
X114115176Y-117200000D01*
X114083793Y-117198458D01*
X114052713Y-117193848D01*
X114022234Y-117186213D01*
X113992650Y-117175628D01*
X113964246Y-117162194D01*
X113937296Y-117146041D01*
X113912058Y-117127323D01*
X113888777Y-117106223D01*
X113867677Y-117082942D01*
X113848959Y-117057704D01*
X113832806Y-117030754D01*
X113819372Y-117002350D01*
X113808787Y-116972766D01*
X113801152Y-116942287D01*
X113796542Y-116911207D01*
X113795000Y-116879824D01*
X113795000Y-115695176D01*
X113796542Y-115663793D01*
X113801152Y-115632713D01*
X113808787Y-115602234D01*
X113819372Y-115572650D01*
X113832806Y-115544246D01*
X113848959Y-115517296D01*
X113867677Y-115492058D01*
X113888777Y-115468777D01*
X113912058Y-115447677D01*
X113937296Y-115428959D01*
X113964246Y-115412806D01*
X113992650Y-115399372D01*
X114022234Y-115388787D01*
X114052713Y-115381152D01*
X114083793Y-115376542D01*
X114115176Y-115375000D01*
X115624824Y-115375000D01*
X115656207Y-115376542D01*
X115656207Y-115376542D01*
G37*
D14*
X114870000Y-116287500D03*
G04 #@! TD*
D13*
G04 #@! TO.C,D29*
G36*
X151386207Y-112411542D02*
X151417287Y-112416152D01*
X151447766Y-112423787D01*
X151477350Y-112434372D01*
X151505754Y-112447806D01*
X151532704Y-112463959D01*
X151557942Y-112482677D01*
X151581223Y-112503777D01*
X151602323Y-112527058D01*
X151621041Y-112552296D01*
X151637194Y-112579246D01*
X151650628Y-112607650D01*
X151661213Y-112637234D01*
X151668848Y-112667713D01*
X151673458Y-112698793D01*
X151675000Y-112730176D01*
X151675000Y-113914824D01*
X151673458Y-113946207D01*
X151668848Y-113977287D01*
X151661213Y-114007766D01*
X151650628Y-114037350D01*
X151637194Y-114065754D01*
X151621041Y-114092704D01*
X151602323Y-114117942D01*
X151581223Y-114141223D01*
X151557942Y-114162323D01*
X151532704Y-114181041D01*
X151505754Y-114197194D01*
X151477350Y-114210628D01*
X151447766Y-114221213D01*
X151417287Y-114228848D01*
X151386207Y-114233458D01*
X151354824Y-114235000D01*
X149845176Y-114235000D01*
X149813793Y-114233458D01*
X149782713Y-114228848D01*
X149752234Y-114221213D01*
X149722650Y-114210628D01*
X149694246Y-114197194D01*
X149667296Y-114181041D01*
X149642058Y-114162323D01*
X149618777Y-114141223D01*
X149597677Y-114117942D01*
X149578959Y-114092704D01*
X149562806Y-114065754D01*
X149549372Y-114037350D01*
X149538787Y-114007766D01*
X149531152Y-113977287D01*
X149526542Y-113946207D01*
X149525000Y-113914824D01*
X149525000Y-112730176D01*
X149526542Y-112698793D01*
X149531152Y-112667713D01*
X149538787Y-112637234D01*
X149549372Y-112607650D01*
X149562806Y-112579246D01*
X149578959Y-112552296D01*
X149597677Y-112527058D01*
X149618777Y-112503777D01*
X149642058Y-112482677D01*
X149667296Y-112463959D01*
X149694246Y-112447806D01*
X149722650Y-112434372D01*
X149752234Y-112423787D01*
X149782713Y-112416152D01*
X149813793Y-112411542D01*
X149845176Y-112410000D01*
X151354824Y-112410000D01*
X151386207Y-112411542D01*
X151386207Y-112411542D01*
G37*
D14*
X150600000Y-113322500D03*
D13*
G36*
X151386207Y-115386542D02*
X151417287Y-115391152D01*
X151447766Y-115398787D01*
X151477350Y-115409372D01*
X151505754Y-115422806D01*
X151532704Y-115438959D01*
X151557942Y-115457677D01*
X151581223Y-115478777D01*
X151602323Y-115502058D01*
X151621041Y-115527296D01*
X151637194Y-115554246D01*
X151650628Y-115582650D01*
X151661213Y-115612234D01*
X151668848Y-115642713D01*
X151673458Y-115673793D01*
X151675000Y-115705176D01*
X151675000Y-116889824D01*
X151673458Y-116921207D01*
X151668848Y-116952287D01*
X151661213Y-116982766D01*
X151650628Y-117012350D01*
X151637194Y-117040754D01*
X151621041Y-117067704D01*
X151602323Y-117092942D01*
X151581223Y-117116223D01*
X151557942Y-117137323D01*
X151532704Y-117156041D01*
X151505754Y-117172194D01*
X151477350Y-117185628D01*
X151447766Y-117196213D01*
X151417287Y-117203848D01*
X151386207Y-117208458D01*
X151354824Y-117210000D01*
X149845176Y-117210000D01*
X149813793Y-117208458D01*
X149782713Y-117203848D01*
X149752234Y-117196213D01*
X149722650Y-117185628D01*
X149694246Y-117172194D01*
X149667296Y-117156041D01*
X149642058Y-117137323D01*
X149618777Y-117116223D01*
X149597677Y-117092942D01*
X149578959Y-117067704D01*
X149562806Y-117040754D01*
X149549372Y-117012350D01*
X149538787Y-116982766D01*
X149531152Y-116952287D01*
X149526542Y-116921207D01*
X149525000Y-116889824D01*
X149525000Y-115705176D01*
X149526542Y-115673793D01*
X149531152Y-115642713D01*
X149538787Y-115612234D01*
X149549372Y-115582650D01*
X149562806Y-115554246D01*
X149578959Y-115527296D01*
X149597677Y-115502058D01*
X149618777Y-115478777D01*
X149642058Y-115457677D01*
X149667296Y-115438959D01*
X149694246Y-115422806D01*
X149722650Y-115409372D01*
X149752234Y-115398787D01*
X149782713Y-115391152D01*
X149813793Y-115386542D01*
X149845176Y-115385000D01*
X151354824Y-115385000D01*
X151386207Y-115386542D01*
X151386207Y-115386542D01*
G37*
D14*
X150600000Y-116297500D03*
G04 #@! TD*
D13*
G04 #@! TO.C,D3*
G36*
X99016207Y-36289042D02*
X99047287Y-36293652D01*
X99077766Y-36301287D01*
X99107350Y-36311872D01*
X99135754Y-36325306D01*
X99162704Y-36341459D01*
X99187942Y-36360177D01*
X99211223Y-36381277D01*
X99232323Y-36404558D01*
X99251041Y-36429796D01*
X99267194Y-36456746D01*
X99280628Y-36485150D01*
X99291213Y-36514734D01*
X99298848Y-36545213D01*
X99303458Y-36576293D01*
X99305000Y-36607676D01*
X99305000Y-37792324D01*
X99303458Y-37823707D01*
X99298848Y-37854787D01*
X99291213Y-37885266D01*
X99280628Y-37914850D01*
X99267194Y-37943254D01*
X99251041Y-37970204D01*
X99232323Y-37995442D01*
X99211223Y-38018723D01*
X99187942Y-38039823D01*
X99162704Y-38058541D01*
X99135754Y-38074694D01*
X99107350Y-38088128D01*
X99077766Y-38098713D01*
X99047287Y-38106348D01*
X99016207Y-38110958D01*
X98984824Y-38112500D01*
X97475176Y-38112500D01*
X97443793Y-38110958D01*
X97412713Y-38106348D01*
X97382234Y-38098713D01*
X97352650Y-38088128D01*
X97324246Y-38074694D01*
X97297296Y-38058541D01*
X97272058Y-38039823D01*
X97248777Y-38018723D01*
X97227677Y-37995442D01*
X97208959Y-37970204D01*
X97192806Y-37943254D01*
X97179372Y-37914850D01*
X97168787Y-37885266D01*
X97161152Y-37854787D01*
X97156542Y-37823707D01*
X97155000Y-37792324D01*
X97155000Y-36607676D01*
X97156542Y-36576293D01*
X97161152Y-36545213D01*
X97168787Y-36514734D01*
X97179372Y-36485150D01*
X97192806Y-36456746D01*
X97208959Y-36429796D01*
X97227677Y-36404558D01*
X97248777Y-36381277D01*
X97272058Y-36360177D01*
X97297296Y-36341459D01*
X97324246Y-36325306D01*
X97352650Y-36311872D01*
X97382234Y-36301287D01*
X97412713Y-36293652D01*
X97443793Y-36289042D01*
X97475176Y-36287500D01*
X98984824Y-36287500D01*
X99016207Y-36289042D01*
X99016207Y-36289042D01*
G37*
D14*
X98230000Y-37200000D03*
D13*
G36*
X99016207Y-39264042D02*
X99047287Y-39268652D01*
X99077766Y-39276287D01*
X99107350Y-39286872D01*
X99135754Y-39300306D01*
X99162704Y-39316459D01*
X99187942Y-39335177D01*
X99211223Y-39356277D01*
X99232323Y-39379558D01*
X99251041Y-39404796D01*
X99267194Y-39431746D01*
X99280628Y-39460150D01*
X99291213Y-39489734D01*
X99298848Y-39520213D01*
X99303458Y-39551293D01*
X99305000Y-39582676D01*
X99305000Y-40767324D01*
X99303458Y-40798707D01*
X99298848Y-40829787D01*
X99291213Y-40860266D01*
X99280628Y-40889850D01*
X99267194Y-40918254D01*
X99251041Y-40945204D01*
X99232323Y-40970442D01*
X99211223Y-40993723D01*
X99187942Y-41014823D01*
X99162704Y-41033541D01*
X99135754Y-41049694D01*
X99107350Y-41063128D01*
X99077766Y-41073713D01*
X99047287Y-41081348D01*
X99016207Y-41085958D01*
X98984824Y-41087500D01*
X97475176Y-41087500D01*
X97443793Y-41085958D01*
X97412713Y-41081348D01*
X97382234Y-41073713D01*
X97352650Y-41063128D01*
X97324246Y-41049694D01*
X97297296Y-41033541D01*
X97272058Y-41014823D01*
X97248777Y-40993723D01*
X97227677Y-40970442D01*
X97208959Y-40945204D01*
X97192806Y-40918254D01*
X97179372Y-40889850D01*
X97168787Y-40860266D01*
X97161152Y-40829787D01*
X97156542Y-40798707D01*
X97155000Y-40767324D01*
X97155000Y-39582676D01*
X97156542Y-39551293D01*
X97161152Y-39520213D01*
X97168787Y-39489734D01*
X97179372Y-39460150D01*
X97192806Y-39431746D01*
X97208959Y-39404796D01*
X97227677Y-39379558D01*
X97248777Y-39356277D01*
X97272058Y-39335177D01*
X97297296Y-39316459D01*
X97324246Y-39300306D01*
X97352650Y-39286872D01*
X97382234Y-39276287D01*
X97412713Y-39268652D01*
X97443793Y-39264042D01*
X97475176Y-39262500D01*
X98984824Y-39262500D01*
X99016207Y-39264042D01*
X99016207Y-39264042D01*
G37*
D14*
X98230000Y-40175000D03*
G04 #@! TD*
D20*
G04 #@! TO.C,cr00*
X32824999Y-52240001D03*
G04 #@! TD*
D19*
G04 #@! TO.C,cr01*
X52879999Y-52240001D03*
G04 #@! TD*
G04 #@! TO.C,cr03*
X90979999Y-52240001D03*
G04 #@! TD*
G04 #@! TO.C,cr05*
X129079999Y-52240001D03*
G04 #@! TD*
G04 #@! TO.C,cr06*
X148129999Y-52240001D03*
G04 #@! TD*
D21*
G04 #@! TO.C,h01*
X156740000Y-32890000D03*
G04 #@! TD*
G04 #@! TO.C,h00*
X25920000Y-32880000D03*
G04 #@! TD*
G04 #@! TO.C,h07*
X171050000Y-129610000D03*
G04 #@! TD*
G04 #@! TO.C,h06*
X25920000Y-129590000D03*
G04 #@! TD*
G04 #@! TO.C,h04*
X68510000Y-90770000D03*
G04 #@! TD*
D22*
G04 #@! TO.C,JP_db0*
X41170000Y-113090000D03*
X41170000Y-114390000D03*
G04 #@! TD*
D21*
G04 #@! TO.C,h05*
X144710000Y-90780000D03*
G04 #@! TD*
G04 #@! TO.C,h03*
X149480000Y-54930000D03*
G04 #@! TD*
G04 #@! TO.C,h02*
X25900000Y-54930000D03*
G04 #@! TD*
D13*
G04 #@! TO.C,D26*
G36*
X149186207Y-93371542D02*
X149217287Y-93376152D01*
X149247766Y-93383787D01*
X149277350Y-93394372D01*
X149305754Y-93407806D01*
X149332704Y-93423959D01*
X149357942Y-93442677D01*
X149381223Y-93463777D01*
X149402323Y-93487058D01*
X149421041Y-93512296D01*
X149437194Y-93539246D01*
X149450628Y-93567650D01*
X149461213Y-93597234D01*
X149468848Y-93627713D01*
X149473458Y-93658793D01*
X149475000Y-93690176D01*
X149475000Y-94874824D01*
X149473458Y-94906207D01*
X149468848Y-94937287D01*
X149461213Y-94967766D01*
X149450628Y-94997350D01*
X149437194Y-95025754D01*
X149421041Y-95052704D01*
X149402323Y-95077942D01*
X149381223Y-95101223D01*
X149357942Y-95122323D01*
X149332704Y-95141041D01*
X149305754Y-95157194D01*
X149277350Y-95170628D01*
X149247766Y-95181213D01*
X149217287Y-95188848D01*
X149186207Y-95193458D01*
X149154824Y-95195000D01*
X147645176Y-95195000D01*
X147613793Y-95193458D01*
X147582713Y-95188848D01*
X147552234Y-95181213D01*
X147522650Y-95170628D01*
X147494246Y-95157194D01*
X147467296Y-95141041D01*
X147442058Y-95122323D01*
X147418777Y-95101223D01*
X147397677Y-95077942D01*
X147378959Y-95052704D01*
X147362806Y-95025754D01*
X147349372Y-94997350D01*
X147338787Y-94967766D01*
X147331152Y-94937287D01*
X147326542Y-94906207D01*
X147325000Y-94874824D01*
X147325000Y-93690176D01*
X147326542Y-93658793D01*
X147331152Y-93627713D01*
X147338787Y-93597234D01*
X147349372Y-93567650D01*
X147362806Y-93539246D01*
X147378959Y-93512296D01*
X147397677Y-93487058D01*
X147418777Y-93463777D01*
X147442058Y-93442677D01*
X147467296Y-93423959D01*
X147494246Y-93407806D01*
X147522650Y-93394372D01*
X147552234Y-93383787D01*
X147582713Y-93376152D01*
X147613793Y-93371542D01*
X147645176Y-93370000D01*
X149154824Y-93370000D01*
X149186207Y-93371542D01*
X149186207Y-93371542D01*
G37*
D14*
X148400000Y-94282500D03*
D13*
G36*
X149186207Y-96346542D02*
X149217287Y-96351152D01*
X149247766Y-96358787D01*
X149277350Y-96369372D01*
X149305754Y-96382806D01*
X149332704Y-96398959D01*
X149357942Y-96417677D01*
X149381223Y-96438777D01*
X149402323Y-96462058D01*
X149421041Y-96487296D01*
X149437194Y-96514246D01*
X149450628Y-96542650D01*
X149461213Y-96572234D01*
X149468848Y-96602713D01*
X149473458Y-96633793D01*
X149475000Y-96665176D01*
X149475000Y-97849824D01*
X149473458Y-97881207D01*
X149468848Y-97912287D01*
X149461213Y-97942766D01*
X149450628Y-97972350D01*
X149437194Y-98000754D01*
X149421041Y-98027704D01*
X149402323Y-98052942D01*
X149381223Y-98076223D01*
X149357942Y-98097323D01*
X149332704Y-98116041D01*
X149305754Y-98132194D01*
X149277350Y-98145628D01*
X149247766Y-98156213D01*
X149217287Y-98163848D01*
X149186207Y-98168458D01*
X149154824Y-98170000D01*
X147645176Y-98170000D01*
X147613793Y-98168458D01*
X147582713Y-98163848D01*
X147552234Y-98156213D01*
X147522650Y-98145628D01*
X147494246Y-98132194D01*
X147467296Y-98116041D01*
X147442058Y-98097323D01*
X147418777Y-98076223D01*
X147397677Y-98052942D01*
X147378959Y-98027704D01*
X147362806Y-98000754D01*
X147349372Y-97972350D01*
X147338787Y-97942766D01*
X147331152Y-97912287D01*
X147326542Y-97881207D01*
X147325000Y-97849824D01*
X147325000Y-96665176D01*
X147326542Y-96633793D01*
X147331152Y-96602713D01*
X147338787Y-96572234D01*
X147349372Y-96542650D01*
X147362806Y-96514246D01*
X147378959Y-96487296D01*
X147397677Y-96462058D01*
X147418777Y-96438777D01*
X147442058Y-96417677D01*
X147467296Y-96398959D01*
X147494246Y-96382806D01*
X147522650Y-96369372D01*
X147552234Y-96358787D01*
X147582713Y-96351152D01*
X147613793Y-96346542D01*
X147645176Y-96345000D01*
X149154824Y-96345000D01*
X149186207Y-96346542D01*
X149186207Y-96346542D01*
G37*
D14*
X148400000Y-97257500D03*
G04 #@! TD*
D13*
G04 #@! TO.C,D0*
G36*
X41866207Y-36289042D02*
X41897287Y-36293652D01*
X41927766Y-36301287D01*
X41957350Y-36311872D01*
X41985754Y-36325306D01*
X42012704Y-36341459D01*
X42037942Y-36360177D01*
X42061223Y-36381277D01*
X42082323Y-36404558D01*
X42101041Y-36429796D01*
X42117194Y-36456746D01*
X42130628Y-36485150D01*
X42141213Y-36514734D01*
X42148848Y-36545213D01*
X42153458Y-36576293D01*
X42155000Y-36607676D01*
X42155000Y-37792324D01*
X42153458Y-37823707D01*
X42148848Y-37854787D01*
X42141213Y-37885266D01*
X42130628Y-37914850D01*
X42117194Y-37943254D01*
X42101041Y-37970204D01*
X42082323Y-37995442D01*
X42061223Y-38018723D01*
X42037942Y-38039823D01*
X42012704Y-38058541D01*
X41985754Y-38074694D01*
X41957350Y-38088128D01*
X41927766Y-38098713D01*
X41897287Y-38106348D01*
X41866207Y-38110958D01*
X41834824Y-38112500D01*
X40325176Y-38112500D01*
X40293793Y-38110958D01*
X40262713Y-38106348D01*
X40232234Y-38098713D01*
X40202650Y-38088128D01*
X40174246Y-38074694D01*
X40147296Y-38058541D01*
X40122058Y-38039823D01*
X40098777Y-38018723D01*
X40077677Y-37995442D01*
X40058959Y-37970204D01*
X40042806Y-37943254D01*
X40029372Y-37914850D01*
X40018787Y-37885266D01*
X40011152Y-37854787D01*
X40006542Y-37823707D01*
X40005000Y-37792324D01*
X40005000Y-36607676D01*
X40006542Y-36576293D01*
X40011152Y-36545213D01*
X40018787Y-36514734D01*
X40029372Y-36485150D01*
X40042806Y-36456746D01*
X40058959Y-36429796D01*
X40077677Y-36404558D01*
X40098777Y-36381277D01*
X40122058Y-36360177D01*
X40147296Y-36341459D01*
X40174246Y-36325306D01*
X40202650Y-36311872D01*
X40232234Y-36301287D01*
X40262713Y-36293652D01*
X40293793Y-36289042D01*
X40325176Y-36287500D01*
X41834824Y-36287500D01*
X41866207Y-36289042D01*
X41866207Y-36289042D01*
G37*
D14*
X41080000Y-37200000D03*
D13*
G36*
X41866207Y-39264042D02*
X41897287Y-39268652D01*
X41927766Y-39276287D01*
X41957350Y-39286872D01*
X41985754Y-39300306D01*
X42012704Y-39316459D01*
X42037942Y-39335177D01*
X42061223Y-39356277D01*
X42082323Y-39379558D01*
X42101041Y-39404796D01*
X42117194Y-39431746D01*
X42130628Y-39460150D01*
X42141213Y-39489734D01*
X42148848Y-39520213D01*
X42153458Y-39551293D01*
X42155000Y-39582676D01*
X42155000Y-40767324D01*
X42153458Y-40798707D01*
X42148848Y-40829787D01*
X42141213Y-40860266D01*
X42130628Y-40889850D01*
X42117194Y-40918254D01*
X42101041Y-40945204D01*
X42082323Y-40970442D01*
X42061223Y-40993723D01*
X42037942Y-41014823D01*
X42012704Y-41033541D01*
X41985754Y-41049694D01*
X41957350Y-41063128D01*
X41927766Y-41073713D01*
X41897287Y-41081348D01*
X41866207Y-41085958D01*
X41834824Y-41087500D01*
X40325176Y-41087500D01*
X40293793Y-41085958D01*
X40262713Y-41081348D01*
X40232234Y-41073713D01*
X40202650Y-41063128D01*
X40174246Y-41049694D01*
X40147296Y-41033541D01*
X40122058Y-41014823D01*
X40098777Y-40993723D01*
X40077677Y-40970442D01*
X40058959Y-40945204D01*
X40042806Y-40918254D01*
X40029372Y-40889850D01*
X40018787Y-40860266D01*
X40011152Y-40829787D01*
X40006542Y-40798707D01*
X40005000Y-40767324D01*
X40005000Y-39582676D01*
X40006542Y-39551293D01*
X40011152Y-39520213D01*
X40018787Y-39489734D01*
X40029372Y-39460150D01*
X40042806Y-39431746D01*
X40058959Y-39404796D01*
X40077677Y-39379558D01*
X40098777Y-39356277D01*
X40122058Y-39335177D01*
X40147296Y-39316459D01*
X40174246Y-39300306D01*
X40202650Y-39286872D01*
X40232234Y-39276287D01*
X40262713Y-39268652D01*
X40293793Y-39264042D01*
X40325176Y-39262500D01*
X41834824Y-39262500D01*
X41866207Y-39264042D01*
X41866207Y-39264042D01*
G37*
D14*
X41080000Y-40175000D03*
G04 #@! TD*
D13*
G04 #@! TO.C,D1*
G36*
X60916207Y-36289042D02*
X60947287Y-36293652D01*
X60977766Y-36301287D01*
X61007350Y-36311872D01*
X61035754Y-36325306D01*
X61062704Y-36341459D01*
X61087942Y-36360177D01*
X61111223Y-36381277D01*
X61132323Y-36404558D01*
X61151041Y-36429796D01*
X61167194Y-36456746D01*
X61180628Y-36485150D01*
X61191213Y-36514734D01*
X61198848Y-36545213D01*
X61203458Y-36576293D01*
X61205000Y-36607676D01*
X61205000Y-37792324D01*
X61203458Y-37823707D01*
X61198848Y-37854787D01*
X61191213Y-37885266D01*
X61180628Y-37914850D01*
X61167194Y-37943254D01*
X61151041Y-37970204D01*
X61132323Y-37995442D01*
X61111223Y-38018723D01*
X61087942Y-38039823D01*
X61062704Y-38058541D01*
X61035754Y-38074694D01*
X61007350Y-38088128D01*
X60977766Y-38098713D01*
X60947287Y-38106348D01*
X60916207Y-38110958D01*
X60884824Y-38112500D01*
X59375176Y-38112500D01*
X59343793Y-38110958D01*
X59312713Y-38106348D01*
X59282234Y-38098713D01*
X59252650Y-38088128D01*
X59224246Y-38074694D01*
X59197296Y-38058541D01*
X59172058Y-38039823D01*
X59148777Y-38018723D01*
X59127677Y-37995442D01*
X59108959Y-37970204D01*
X59092806Y-37943254D01*
X59079372Y-37914850D01*
X59068787Y-37885266D01*
X59061152Y-37854787D01*
X59056542Y-37823707D01*
X59055000Y-37792324D01*
X59055000Y-36607676D01*
X59056542Y-36576293D01*
X59061152Y-36545213D01*
X59068787Y-36514734D01*
X59079372Y-36485150D01*
X59092806Y-36456746D01*
X59108959Y-36429796D01*
X59127677Y-36404558D01*
X59148777Y-36381277D01*
X59172058Y-36360177D01*
X59197296Y-36341459D01*
X59224246Y-36325306D01*
X59252650Y-36311872D01*
X59282234Y-36301287D01*
X59312713Y-36293652D01*
X59343793Y-36289042D01*
X59375176Y-36287500D01*
X60884824Y-36287500D01*
X60916207Y-36289042D01*
X60916207Y-36289042D01*
G37*
D14*
X60130000Y-37200000D03*
D13*
G36*
X60916207Y-39264042D02*
X60947287Y-39268652D01*
X60977766Y-39276287D01*
X61007350Y-39286872D01*
X61035754Y-39300306D01*
X61062704Y-39316459D01*
X61087942Y-39335177D01*
X61111223Y-39356277D01*
X61132323Y-39379558D01*
X61151041Y-39404796D01*
X61167194Y-39431746D01*
X61180628Y-39460150D01*
X61191213Y-39489734D01*
X61198848Y-39520213D01*
X61203458Y-39551293D01*
X61205000Y-39582676D01*
X61205000Y-40767324D01*
X61203458Y-40798707D01*
X61198848Y-40829787D01*
X61191213Y-40860266D01*
X61180628Y-40889850D01*
X61167194Y-40918254D01*
X61151041Y-40945204D01*
X61132323Y-40970442D01*
X61111223Y-40993723D01*
X61087942Y-41014823D01*
X61062704Y-41033541D01*
X61035754Y-41049694D01*
X61007350Y-41063128D01*
X60977766Y-41073713D01*
X60947287Y-41081348D01*
X60916207Y-41085958D01*
X60884824Y-41087500D01*
X59375176Y-41087500D01*
X59343793Y-41085958D01*
X59312713Y-41081348D01*
X59282234Y-41073713D01*
X59252650Y-41063128D01*
X59224246Y-41049694D01*
X59197296Y-41033541D01*
X59172058Y-41014823D01*
X59148777Y-40993723D01*
X59127677Y-40970442D01*
X59108959Y-40945204D01*
X59092806Y-40918254D01*
X59079372Y-40889850D01*
X59068787Y-40860266D01*
X59061152Y-40829787D01*
X59056542Y-40798707D01*
X59055000Y-40767324D01*
X59055000Y-39582676D01*
X59056542Y-39551293D01*
X59061152Y-39520213D01*
X59068787Y-39489734D01*
X59079372Y-39460150D01*
X59092806Y-39431746D01*
X59108959Y-39404796D01*
X59127677Y-39379558D01*
X59148777Y-39356277D01*
X59172058Y-39335177D01*
X59197296Y-39316459D01*
X59224246Y-39300306D01*
X59252650Y-39286872D01*
X59282234Y-39276287D01*
X59312713Y-39268652D01*
X59343793Y-39264042D01*
X59375176Y-39262500D01*
X60884824Y-39262500D01*
X60916207Y-39264042D01*
X60916207Y-39264042D01*
G37*
D14*
X60130000Y-40175000D03*
G04 #@! TD*
D13*
G04 #@! TO.C,D30*
G36*
X158766207Y-112371542D02*
X158797287Y-112376152D01*
X158827766Y-112383787D01*
X158857350Y-112394372D01*
X158885754Y-112407806D01*
X158912704Y-112423959D01*
X158937942Y-112442677D01*
X158961223Y-112463777D01*
X158982323Y-112487058D01*
X159001041Y-112512296D01*
X159017194Y-112539246D01*
X159030628Y-112567650D01*
X159041213Y-112597234D01*
X159048848Y-112627713D01*
X159053458Y-112658793D01*
X159055000Y-112690176D01*
X159055000Y-113874824D01*
X159053458Y-113906207D01*
X159048848Y-113937287D01*
X159041213Y-113967766D01*
X159030628Y-113997350D01*
X159017194Y-114025754D01*
X159001041Y-114052704D01*
X158982323Y-114077942D01*
X158961223Y-114101223D01*
X158937942Y-114122323D01*
X158912704Y-114141041D01*
X158885754Y-114157194D01*
X158857350Y-114170628D01*
X158827766Y-114181213D01*
X158797287Y-114188848D01*
X158766207Y-114193458D01*
X158734824Y-114195000D01*
X157225176Y-114195000D01*
X157193793Y-114193458D01*
X157162713Y-114188848D01*
X157132234Y-114181213D01*
X157102650Y-114170628D01*
X157074246Y-114157194D01*
X157047296Y-114141041D01*
X157022058Y-114122323D01*
X156998777Y-114101223D01*
X156977677Y-114077942D01*
X156958959Y-114052704D01*
X156942806Y-114025754D01*
X156929372Y-113997350D01*
X156918787Y-113967766D01*
X156911152Y-113937287D01*
X156906542Y-113906207D01*
X156905000Y-113874824D01*
X156905000Y-112690176D01*
X156906542Y-112658793D01*
X156911152Y-112627713D01*
X156918787Y-112597234D01*
X156929372Y-112567650D01*
X156942806Y-112539246D01*
X156958959Y-112512296D01*
X156977677Y-112487058D01*
X156998777Y-112463777D01*
X157022058Y-112442677D01*
X157047296Y-112423959D01*
X157074246Y-112407806D01*
X157102650Y-112394372D01*
X157132234Y-112383787D01*
X157162713Y-112376152D01*
X157193793Y-112371542D01*
X157225176Y-112370000D01*
X158734824Y-112370000D01*
X158766207Y-112371542D01*
X158766207Y-112371542D01*
G37*
D14*
X157980000Y-113282500D03*
D13*
G36*
X158766207Y-115346542D02*
X158797287Y-115351152D01*
X158827766Y-115358787D01*
X158857350Y-115369372D01*
X158885754Y-115382806D01*
X158912704Y-115398959D01*
X158937942Y-115417677D01*
X158961223Y-115438777D01*
X158982323Y-115462058D01*
X159001041Y-115487296D01*
X159017194Y-115514246D01*
X159030628Y-115542650D01*
X159041213Y-115572234D01*
X159048848Y-115602713D01*
X159053458Y-115633793D01*
X159055000Y-115665176D01*
X159055000Y-116849824D01*
X159053458Y-116881207D01*
X159048848Y-116912287D01*
X159041213Y-116942766D01*
X159030628Y-116972350D01*
X159017194Y-117000754D01*
X159001041Y-117027704D01*
X158982323Y-117052942D01*
X158961223Y-117076223D01*
X158937942Y-117097323D01*
X158912704Y-117116041D01*
X158885754Y-117132194D01*
X158857350Y-117145628D01*
X158827766Y-117156213D01*
X158797287Y-117163848D01*
X158766207Y-117168458D01*
X158734824Y-117170000D01*
X157225176Y-117170000D01*
X157193793Y-117168458D01*
X157162713Y-117163848D01*
X157132234Y-117156213D01*
X157102650Y-117145628D01*
X157074246Y-117132194D01*
X157047296Y-117116041D01*
X157022058Y-117097323D01*
X156998777Y-117076223D01*
X156977677Y-117052942D01*
X156958959Y-117027704D01*
X156942806Y-117000754D01*
X156929372Y-116972350D01*
X156918787Y-116942766D01*
X156911152Y-116912287D01*
X156906542Y-116881207D01*
X156905000Y-116849824D01*
X156905000Y-115665176D01*
X156906542Y-115633793D01*
X156911152Y-115602713D01*
X156918787Y-115572234D01*
X156929372Y-115542650D01*
X156942806Y-115514246D01*
X156958959Y-115487296D01*
X156977677Y-115462058D01*
X156998777Y-115438777D01*
X157022058Y-115417677D01*
X157047296Y-115398959D01*
X157074246Y-115382806D01*
X157102650Y-115369372D01*
X157132234Y-115358787D01*
X157162713Y-115351152D01*
X157193793Y-115346542D01*
X157225176Y-115345000D01*
X158734824Y-115345000D01*
X158766207Y-115346542D01*
X158766207Y-115346542D01*
G37*
D14*
X157980000Y-116257500D03*
G04 #@! TD*
D22*
G04 #@! TO.C,JP_da0*
X30950000Y-113090000D03*
X30950000Y-114390000D03*
G04 #@! TD*
G04 #@! TO.C,JP_xa0*
X28400000Y-113090000D03*
X28400000Y-114390000D03*
G04 #@! TD*
G04 #@! TO.C,JP_xb0*
X38550000Y-113090000D03*
X38550000Y-114390000D03*
G04 #@! TD*
D13*
G04 #@! TO.C,R_data0*
G36*
X36503707Y-121376542D02*
X36534787Y-121381152D01*
X36565266Y-121388787D01*
X36594850Y-121399372D01*
X36623254Y-121412806D01*
X36650204Y-121428959D01*
X36675442Y-121447677D01*
X36698723Y-121468777D01*
X36719823Y-121492058D01*
X36738541Y-121517296D01*
X36754694Y-121544246D01*
X36768128Y-121572650D01*
X36778713Y-121602234D01*
X36786348Y-121632713D01*
X36790958Y-121663793D01*
X36792500Y-121695176D01*
X36792500Y-123204824D01*
X36790958Y-123236207D01*
X36786348Y-123267287D01*
X36778713Y-123297766D01*
X36768128Y-123327350D01*
X36754694Y-123355754D01*
X36738541Y-123382704D01*
X36719823Y-123407942D01*
X36698723Y-123431223D01*
X36675442Y-123452323D01*
X36650204Y-123471041D01*
X36623254Y-123487194D01*
X36594850Y-123500628D01*
X36565266Y-123511213D01*
X36534787Y-123518848D01*
X36503707Y-123523458D01*
X36472324Y-123525000D01*
X35287676Y-123525000D01*
X35256293Y-123523458D01*
X35225213Y-123518848D01*
X35194734Y-123511213D01*
X35165150Y-123500628D01*
X35136746Y-123487194D01*
X35109796Y-123471041D01*
X35084558Y-123452323D01*
X35061277Y-123431223D01*
X35040177Y-123407942D01*
X35021459Y-123382704D01*
X35005306Y-123355754D01*
X34991872Y-123327350D01*
X34981287Y-123297766D01*
X34973652Y-123267287D01*
X34969042Y-123236207D01*
X34967500Y-123204824D01*
X34967500Y-121695176D01*
X34969042Y-121663793D01*
X34973652Y-121632713D01*
X34981287Y-121602234D01*
X34991872Y-121572650D01*
X35005306Y-121544246D01*
X35021459Y-121517296D01*
X35040177Y-121492058D01*
X35061277Y-121468777D01*
X35084558Y-121447677D01*
X35109796Y-121428959D01*
X35136746Y-121412806D01*
X35165150Y-121399372D01*
X35194734Y-121388787D01*
X35225213Y-121381152D01*
X35256293Y-121376542D01*
X35287676Y-121375000D01*
X36472324Y-121375000D01*
X36503707Y-121376542D01*
X36503707Y-121376542D01*
G37*
D14*
X35880000Y-122450000D03*
D13*
G36*
X33528707Y-121376542D02*
X33559787Y-121381152D01*
X33590266Y-121388787D01*
X33619850Y-121399372D01*
X33648254Y-121412806D01*
X33675204Y-121428959D01*
X33700442Y-121447677D01*
X33723723Y-121468777D01*
X33744823Y-121492058D01*
X33763541Y-121517296D01*
X33779694Y-121544246D01*
X33793128Y-121572650D01*
X33803713Y-121602234D01*
X33811348Y-121632713D01*
X33815958Y-121663793D01*
X33817500Y-121695176D01*
X33817500Y-123204824D01*
X33815958Y-123236207D01*
X33811348Y-123267287D01*
X33803713Y-123297766D01*
X33793128Y-123327350D01*
X33779694Y-123355754D01*
X33763541Y-123382704D01*
X33744823Y-123407942D01*
X33723723Y-123431223D01*
X33700442Y-123452323D01*
X33675204Y-123471041D01*
X33648254Y-123487194D01*
X33619850Y-123500628D01*
X33590266Y-123511213D01*
X33559787Y-123518848D01*
X33528707Y-123523458D01*
X33497324Y-123525000D01*
X32312676Y-123525000D01*
X32281293Y-123523458D01*
X32250213Y-123518848D01*
X32219734Y-123511213D01*
X32190150Y-123500628D01*
X32161746Y-123487194D01*
X32134796Y-123471041D01*
X32109558Y-123452323D01*
X32086277Y-123431223D01*
X32065177Y-123407942D01*
X32046459Y-123382704D01*
X32030306Y-123355754D01*
X32016872Y-123327350D01*
X32006287Y-123297766D01*
X31998652Y-123267287D01*
X31994042Y-123236207D01*
X31992500Y-123204824D01*
X31992500Y-121695176D01*
X31994042Y-121663793D01*
X31998652Y-121632713D01*
X32006287Y-121602234D01*
X32016872Y-121572650D01*
X32030306Y-121544246D01*
X32046459Y-121517296D01*
X32065177Y-121492058D01*
X32086277Y-121468777D01*
X32109558Y-121447677D01*
X32134796Y-121428959D01*
X32161746Y-121412806D01*
X32190150Y-121399372D01*
X32219734Y-121388787D01*
X32250213Y-121381152D01*
X32281293Y-121376542D01*
X32312676Y-121375000D01*
X33497324Y-121375000D01*
X33528707Y-121376542D01*
X33528707Y-121376542D01*
G37*
D14*
X32905000Y-122450000D03*
G04 #@! TD*
D13*
G04 #@! TO.C,R_xdata0*
G36*
X36503707Y-117486542D02*
X36534787Y-117491152D01*
X36565266Y-117498787D01*
X36594850Y-117509372D01*
X36623254Y-117522806D01*
X36650204Y-117538959D01*
X36675442Y-117557677D01*
X36698723Y-117578777D01*
X36719823Y-117602058D01*
X36738541Y-117627296D01*
X36754694Y-117654246D01*
X36768128Y-117682650D01*
X36778713Y-117712234D01*
X36786348Y-117742713D01*
X36790958Y-117773793D01*
X36792500Y-117805176D01*
X36792500Y-119314824D01*
X36790958Y-119346207D01*
X36786348Y-119377287D01*
X36778713Y-119407766D01*
X36768128Y-119437350D01*
X36754694Y-119465754D01*
X36738541Y-119492704D01*
X36719823Y-119517942D01*
X36698723Y-119541223D01*
X36675442Y-119562323D01*
X36650204Y-119581041D01*
X36623254Y-119597194D01*
X36594850Y-119610628D01*
X36565266Y-119621213D01*
X36534787Y-119628848D01*
X36503707Y-119633458D01*
X36472324Y-119635000D01*
X35287676Y-119635000D01*
X35256293Y-119633458D01*
X35225213Y-119628848D01*
X35194734Y-119621213D01*
X35165150Y-119610628D01*
X35136746Y-119597194D01*
X35109796Y-119581041D01*
X35084558Y-119562323D01*
X35061277Y-119541223D01*
X35040177Y-119517942D01*
X35021459Y-119492704D01*
X35005306Y-119465754D01*
X34991872Y-119437350D01*
X34981287Y-119407766D01*
X34973652Y-119377287D01*
X34969042Y-119346207D01*
X34967500Y-119314824D01*
X34967500Y-117805176D01*
X34969042Y-117773793D01*
X34973652Y-117742713D01*
X34981287Y-117712234D01*
X34991872Y-117682650D01*
X35005306Y-117654246D01*
X35021459Y-117627296D01*
X35040177Y-117602058D01*
X35061277Y-117578777D01*
X35084558Y-117557677D01*
X35109796Y-117538959D01*
X35136746Y-117522806D01*
X35165150Y-117509372D01*
X35194734Y-117498787D01*
X35225213Y-117491152D01*
X35256293Y-117486542D01*
X35287676Y-117485000D01*
X36472324Y-117485000D01*
X36503707Y-117486542D01*
X36503707Y-117486542D01*
G37*
D14*
X35880000Y-118560000D03*
D13*
G36*
X33528707Y-117486542D02*
X33559787Y-117491152D01*
X33590266Y-117498787D01*
X33619850Y-117509372D01*
X33648254Y-117522806D01*
X33675204Y-117538959D01*
X33700442Y-117557677D01*
X33723723Y-117578777D01*
X33744823Y-117602058D01*
X33763541Y-117627296D01*
X33779694Y-117654246D01*
X33793128Y-117682650D01*
X33803713Y-117712234D01*
X33811348Y-117742713D01*
X33815958Y-117773793D01*
X33817500Y-117805176D01*
X33817500Y-119314824D01*
X33815958Y-119346207D01*
X33811348Y-119377287D01*
X33803713Y-119407766D01*
X33793128Y-119437350D01*
X33779694Y-119465754D01*
X33763541Y-119492704D01*
X33744823Y-119517942D01*
X33723723Y-119541223D01*
X33700442Y-119562323D01*
X33675204Y-119581041D01*
X33648254Y-119597194D01*
X33619850Y-119610628D01*
X33590266Y-119621213D01*
X33559787Y-119628848D01*
X33528707Y-119633458D01*
X33497324Y-119635000D01*
X32312676Y-119635000D01*
X32281293Y-119633458D01*
X32250213Y-119628848D01*
X32219734Y-119621213D01*
X32190150Y-119610628D01*
X32161746Y-119597194D01*
X32134796Y-119581041D01*
X32109558Y-119562323D01*
X32086277Y-119541223D01*
X32065177Y-119517942D01*
X32046459Y-119492704D01*
X32030306Y-119465754D01*
X32016872Y-119437350D01*
X32006287Y-119407766D01*
X31998652Y-119377287D01*
X31994042Y-119346207D01*
X31992500Y-119314824D01*
X31992500Y-117805176D01*
X31994042Y-117773793D01*
X31998652Y-117742713D01*
X32006287Y-117712234D01*
X32016872Y-117682650D01*
X32030306Y-117654246D01*
X32046459Y-117627296D01*
X32065177Y-117602058D01*
X32086277Y-117578777D01*
X32109558Y-117557677D01*
X32134796Y-117538959D01*
X32161746Y-117522806D01*
X32190150Y-117509372D01*
X32219734Y-117498787D01*
X32250213Y-117491152D01*
X32281293Y-117486542D01*
X32312676Y-117485000D01*
X33497324Y-117485000D01*
X33528707Y-117486542D01*
X33528707Y-117486542D01*
G37*
D14*
X32905000Y-118560000D03*
G04 #@! TD*
D15*
G04 #@! TO.C,SW0*
X42800000Y-45680000D03*
X28830000Y-48220000D03*
D16*
X30100000Y-43140000D03*
X40260000Y-43140000D03*
D17*
X35180000Y-43140000D03*
D18*
X38990000Y-45680000D03*
X32640000Y-48220000D03*
G04 #@! TD*
D15*
G04 #@! TO.C,SW1*
X61850000Y-45680000D03*
X47880000Y-48220000D03*
D16*
X49150000Y-43140000D03*
X59310000Y-43140000D03*
D17*
X54230000Y-43140000D03*
D18*
X58040000Y-45680000D03*
X51690000Y-48220000D03*
G04 #@! TD*
D15*
G04 #@! TO.C,SW2*
X80900000Y-45680000D03*
X66930000Y-48220000D03*
D16*
X68200000Y-43140000D03*
X78360000Y-43140000D03*
D17*
X73280000Y-43140000D03*
D18*
X77090000Y-45680000D03*
X70740000Y-48220000D03*
G04 #@! TD*
D15*
G04 #@! TO.C,SW3*
X99950000Y-45680000D03*
X85980000Y-48220000D03*
D16*
X87250000Y-43140000D03*
X97410000Y-43140000D03*
D17*
X92330000Y-43140000D03*
D18*
X96140000Y-45680000D03*
X89790000Y-48220000D03*
G04 #@! TD*
D15*
G04 #@! TO.C,SW4*
X119000000Y-45680000D03*
X105030000Y-48220000D03*
D16*
X106300000Y-43140000D03*
X116460000Y-43140000D03*
D17*
X111380000Y-43140000D03*
D18*
X115190000Y-45680000D03*
X108840000Y-48220000D03*
G04 #@! TD*
D15*
G04 #@! TO.C,SW5*
X138050000Y-45680000D03*
X124080000Y-48220000D03*
D16*
X125350000Y-43140000D03*
X135510000Y-43140000D03*
D17*
X130430000Y-43140000D03*
D18*
X134240000Y-45680000D03*
X127890000Y-48220000D03*
G04 #@! TD*
D15*
G04 #@! TO.C,SW6*
X157100000Y-45680000D03*
X143130000Y-48220000D03*
D16*
X144400000Y-43140000D03*
X154560000Y-43140000D03*
D17*
X149480000Y-43140000D03*
D18*
X153290000Y-45680000D03*
X146940000Y-48220000D03*
G04 #@! TD*
D15*
G04 #@! TO.C,SW7*
X47562500Y-64730000D03*
X33592500Y-67270000D03*
D16*
X34862500Y-62190000D03*
X45022500Y-62190000D03*
D17*
X39942500Y-62190000D03*
D18*
X43752500Y-64730000D03*
X37402500Y-67270000D03*
G04 #@! TD*
D15*
G04 #@! TO.C,SW8*
X71375000Y-64730000D03*
X57405000Y-67270000D03*
D16*
X58675000Y-62190000D03*
X68835000Y-62190000D03*
D17*
X63755000Y-62190000D03*
D18*
X67565000Y-64730000D03*
X61215000Y-67270000D03*
G04 #@! TD*
D15*
G04 #@! TO.C,SW9*
X90425000Y-64730000D03*
X76455000Y-67270000D03*
D16*
X77725000Y-62190000D03*
X87885000Y-62190000D03*
D17*
X82805000Y-62190000D03*
D18*
X86615000Y-64730000D03*
X80265000Y-67270000D03*
G04 #@! TD*
D15*
G04 #@! TO.C,SW10*
X109475000Y-64730000D03*
X95505000Y-67270000D03*
D16*
X96775000Y-62190000D03*
X106935000Y-62190000D03*
D17*
X101855000Y-62190000D03*
D18*
X105665000Y-64730000D03*
X99315000Y-67270000D03*
G04 #@! TD*
D15*
G04 #@! TO.C,SW11*
X128525000Y-64730000D03*
X114555000Y-67270000D03*
D16*
X115825000Y-62190000D03*
X125985000Y-62190000D03*
D17*
X120905000Y-62190000D03*
D18*
X124715000Y-64730000D03*
X118365000Y-67270000D03*
G04 #@! TD*
D15*
G04 #@! TO.C,SW12*
X147575000Y-64730000D03*
X133605000Y-67270000D03*
D16*
X134875000Y-62190000D03*
X145035000Y-62190000D03*
D17*
X139955000Y-62190000D03*
D18*
X143765000Y-64730000D03*
X137415000Y-67270000D03*
G04 #@! TD*
D15*
G04 #@! TO.C,SW13*
X166625000Y-64730000D03*
X152655000Y-67270000D03*
D16*
X153925000Y-62190000D03*
X164085000Y-62190000D03*
D17*
X159005000Y-62190000D03*
D18*
X162815000Y-64730000D03*
X156465000Y-67270000D03*
G04 #@! TD*
D15*
G04 #@! TO.C,SW14*
X49943750Y-83780000D03*
X35973750Y-86320000D03*
D16*
X37243750Y-81240000D03*
X47403750Y-81240000D03*
D17*
X42323750Y-81240000D03*
D18*
X46133750Y-83780000D03*
X39783750Y-86320000D03*
G04 #@! TD*
D15*
G04 #@! TO.C,SW15*
X76137000Y-83780000D03*
X62167000Y-86320000D03*
D16*
X63437000Y-81240000D03*
X73597000Y-81240000D03*
D17*
X68517000Y-81240000D03*
D18*
X72327000Y-83780000D03*
X65977000Y-86320000D03*
G04 #@! TD*
D15*
G04 #@! TO.C,SW16*
X95187000Y-83780000D03*
X81217000Y-86320000D03*
D16*
X82487000Y-81240000D03*
X92647000Y-81240000D03*
D17*
X87567000Y-81240000D03*
D18*
X91377000Y-83780000D03*
X85027000Y-86320000D03*
G04 #@! TD*
D15*
G04 #@! TO.C,SW17*
X114237000Y-83780000D03*
X100267000Y-86320000D03*
D16*
X101537000Y-81240000D03*
X111697000Y-81240000D03*
D17*
X106617000Y-81240000D03*
D18*
X110427000Y-83780000D03*
X104077000Y-86320000D03*
G04 #@! TD*
D15*
G04 #@! TO.C,SW18*
X133287000Y-83780000D03*
X119317000Y-86320000D03*
D16*
X120587000Y-81240000D03*
X130747000Y-81240000D03*
D17*
X125667000Y-81240000D03*
D18*
X129477000Y-83780000D03*
X123127000Y-86320000D03*
G04 #@! TD*
D15*
G04 #@! TO.C,SW19*
X152337000Y-83780000D03*
X138367000Y-86320000D03*
D16*
X139637000Y-81240000D03*
X149797000Y-81240000D03*
D17*
X144717000Y-81240000D03*
D18*
X148527000Y-83780000D03*
X142177000Y-86320000D03*
G04 #@! TD*
D15*
G04 #@! TO.C,SW21*
X59463000Y-102830000D03*
X45493000Y-105370000D03*
D16*
X46763000Y-100290000D03*
X56923000Y-100290000D03*
D17*
X51843000Y-100290000D03*
D18*
X55653000Y-102830000D03*
X49303000Y-105370000D03*
G04 #@! TD*
D15*
G04 #@! TO.C,SW22*
X85662000Y-102830000D03*
X71692000Y-105370000D03*
D16*
X72962000Y-100290000D03*
X83122000Y-100290000D03*
D17*
X78042000Y-100290000D03*
D18*
X81852000Y-102830000D03*
X75502000Y-105370000D03*
G04 #@! TD*
D15*
G04 #@! TO.C,SW23*
X104712000Y-102830000D03*
X90742000Y-105370000D03*
D16*
X92012000Y-100290000D03*
X102172000Y-100290000D03*
D17*
X97092000Y-100290000D03*
D18*
X100902000Y-102830000D03*
X94552000Y-105370000D03*
G04 #@! TD*
D15*
G04 #@! TO.C,SW24*
X123762000Y-102830000D03*
X109792000Y-105370000D03*
D16*
X111062000Y-100290000D03*
X121222000Y-100290000D03*
D17*
X116142000Y-100290000D03*
D18*
X119952000Y-102830000D03*
X113602000Y-105370000D03*
G04 #@! TD*
D15*
G04 #@! TO.C,SW25*
X142812000Y-102830000D03*
X128842000Y-105370000D03*
D16*
X130112000Y-100290000D03*
X140272000Y-100290000D03*
D17*
X135192000Y-100290000D03*
D18*
X139002000Y-102830000D03*
X132652000Y-105370000D03*
G04 #@! TD*
D15*
G04 #@! TO.C,SW26*
X161862000Y-102830000D03*
X147892000Y-105370000D03*
D16*
X149162000Y-100290000D03*
X159322000Y-100290000D03*
D17*
X154242000Y-100290000D03*
D18*
X158052000Y-102830000D03*
X151702000Y-105370000D03*
G04 #@! TD*
D15*
G04 #@! TO.C,SW27*
X92805750Y-121880000D03*
X78835750Y-124420000D03*
D16*
X80105750Y-119340000D03*
X90265750Y-119340000D03*
D17*
X85185750Y-119340000D03*
D18*
X88995750Y-121880000D03*
X82645750Y-124420000D03*
G04 #@! TD*
D15*
G04 #@! TO.C,SW28*
X116618250Y-121880000D03*
X102648250Y-124420000D03*
D16*
X103918250Y-119340000D03*
X114078250Y-119340000D03*
D17*
X108998250Y-119340000D03*
D18*
X112808250Y-121880000D03*
X106458250Y-124420000D03*
G04 #@! TD*
D15*
G04 #@! TO.C,SW29*
X152337000Y-121880000D03*
X138367000Y-124420000D03*
D16*
X139637000Y-119340000D03*
X149797000Y-119340000D03*
D17*
X144717000Y-119340000D03*
D18*
X148527000Y-121880000D03*
X142177000Y-124420000D03*
G04 #@! TD*
D15*
G04 #@! TO.C,SW30*
X171387000Y-121880000D03*
X157417000Y-124420000D03*
D16*
X158687000Y-119340000D03*
X168847000Y-119340000D03*
D17*
X163767000Y-119340000D03*
D18*
X167577000Y-121880000D03*
X161227000Y-124420000D03*
G04 #@! TD*
D23*
G04 #@! TO.C,SW_r0*
X51370000Y-73040000D03*
X51370000Y-78120000D03*
X58990000Y-73040000D03*
X58990000Y-78120000D03*
G04 #@! TD*
D24*
G04 #@! TO.C,U0*
X28400000Y-93330000D03*
X30940000Y-93330000D03*
X33480000Y-93330000D03*
X36020000Y-93330000D03*
X38560000Y-93330000D03*
X41100000Y-93330000D03*
X43640000Y-93330000D03*
X46180000Y-93330000D03*
X48720000Y-93330000D03*
X51260000Y-93330000D03*
X53800000Y-93330000D03*
X56340000Y-93330000D03*
X56340000Y-108570000D03*
X53800000Y-108570000D03*
X51260000Y-108570000D03*
X48720000Y-108570000D03*
X46180000Y-108570000D03*
X43640000Y-108570000D03*
X41100000Y-108570000D03*
X38560000Y-108570000D03*
X36020000Y-108570000D03*
X33480000Y-108570000D03*
X30940000Y-108570000D03*
D25*
X28400000Y-108570000D03*
G04 #@! TD*
D26*
G04 #@! TO.C,J0*
X27155000Y-74615000D03*
X34155000Y-74615000D03*
D27*
X28955000Y-76765000D03*
X31955000Y-76765000D03*
X35955000Y-76765000D03*
X37455000Y-72465000D03*
G04 #@! TD*
D13*
G04 #@! TO.C,D2*
G36*
X79966207Y-36289042D02*
X79997287Y-36293652D01*
X80027766Y-36301287D01*
X80057350Y-36311872D01*
X80085754Y-36325306D01*
X80112704Y-36341459D01*
X80137942Y-36360177D01*
X80161223Y-36381277D01*
X80182323Y-36404558D01*
X80201041Y-36429796D01*
X80217194Y-36456746D01*
X80230628Y-36485150D01*
X80241213Y-36514734D01*
X80248848Y-36545213D01*
X80253458Y-36576293D01*
X80255000Y-36607676D01*
X80255000Y-37792324D01*
X80253458Y-37823707D01*
X80248848Y-37854787D01*
X80241213Y-37885266D01*
X80230628Y-37914850D01*
X80217194Y-37943254D01*
X80201041Y-37970204D01*
X80182323Y-37995442D01*
X80161223Y-38018723D01*
X80137942Y-38039823D01*
X80112704Y-38058541D01*
X80085754Y-38074694D01*
X80057350Y-38088128D01*
X80027766Y-38098713D01*
X79997287Y-38106348D01*
X79966207Y-38110958D01*
X79934824Y-38112500D01*
X78425176Y-38112500D01*
X78393793Y-38110958D01*
X78362713Y-38106348D01*
X78332234Y-38098713D01*
X78302650Y-38088128D01*
X78274246Y-38074694D01*
X78247296Y-38058541D01*
X78222058Y-38039823D01*
X78198777Y-38018723D01*
X78177677Y-37995442D01*
X78158959Y-37970204D01*
X78142806Y-37943254D01*
X78129372Y-37914850D01*
X78118787Y-37885266D01*
X78111152Y-37854787D01*
X78106542Y-37823707D01*
X78105000Y-37792324D01*
X78105000Y-36607676D01*
X78106542Y-36576293D01*
X78111152Y-36545213D01*
X78118787Y-36514734D01*
X78129372Y-36485150D01*
X78142806Y-36456746D01*
X78158959Y-36429796D01*
X78177677Y-36404558D01*
X78198777Y-36381277D01*
X78222058Y-36360177D01*
X78247296Y-36341459D01*
X78274246Y-36325306D01*
X78302650Y-36311872D01*
X78332234Y-36301287D01*
X78362713Y-36293652D01*
X78393793Y-36289042D01*
X78425176Y-36287500D01*
X79934824Y-36287500D01*
X79966207Y-36289042D01*
X79966207Y-36289042D01*
G37*
D14*
X79180000Y-37200000D03*
D13*
G36*
X79966207Y-39264042D02*
X79997287Y-39268652D01*
X80027766Y-39276287D01*
X80057350Y-39286872D01*
X80085754Y-39300306D01*
X80112704Y-39316459D01*
X80137942Y-39335177D01*
X80161223Y-39356277D01*
X80182323Y-39379558D01*
X80201041Y-39404796D01*
X80217194Y-39431746D01*
X80230628Y-39460150D01*
X80241213Y-39489734D01*
X80248848Y-39520213D01*
X80253458Y-39551293D01*
X80255000Y-39582676D01*
X80255000Y-40767324D01*
X80253458Y-40798707D01*
X80248848Y-40829787D01*
X80241213Y-40860266D01*
X80230628Y-40889850D01*
X80217194Y-40918254D01*
X80201041Y-40945204D01*
X80182323Y-40970442D01*
X80161223Y-40993723D01*
X80137942Y-41014823D01*
X80112704Y-41033541D01*
X80085754Y-41049694D01*
X80057350Y-41063128D01*
X80027766Y-41073713D01*
X79997287Y-41081348D01*
X79966207Y-41085958D01*
X79934824Y-41087500D01*
X78425176Y-41087500D01*
X78393793Y-41085958D01*
X78362713Y-41081348D01*
X78332234Y-41073713D01*
X78302650Y-41063128D01*
X78274246Y-41049694D01*
X78247296Y-41033541D01*
X78222058Y-41014823D01*
X78198777Y-40993723D01*
X78177677Y-40970442D01*
X78158959Y-40945204D01*
X78142806Y-40918254D01*
X78129372Y-40889850D01*
X78118787Y-40860266D01*
X78111152Y-40829787D01*
X78106542Y-40798707D01*
X78105000Y-40767324D01*
X78105000Y-39582676D01*
X78106542Y-39551293D01*
X78111152Y-39520213D01*
X78118787Y-39489734D01*
X78129372Y-39460150D01*
X78142806Y-39431746D01*
X78158959Y-39404796D01*
X78177677Y-39379558D01*
X78198777Y-39356277D01*
X78222058Y-39335177D01*
X78247296Y-39316459D01*
X78274246Y-39300306D01*
X78302650Y-39286872D01*
X78332234Y-39276287D01*
X78362713Y-39268652D01*
X78393793Y-39264042D01*
X78425176Y-39262500D01*
X79934824Y-39262500D01*
X79966207Y-39264042D01*
X79966207Y-39264042D01*
G37*
D14*
X79180000Y-40175000D03*
G04 #@! TD*
M02*
