M48
;DRILL file {KiCad (5.0.0-3-g5ebb6b6)} date 
;FORMAT={3:3/ absolute / metric / suppress leading zeros}
FMAT,2
METRIC,TZ
T1C0.400
T2C0.813
T3C1.000
T4C1.100
T5C1.000
T6C1.200
T7C1.760
T8C3.000
T9C3.200
T10C4.000
%
G90
G05
M71
T1
X25250Y-106570
X27790Y-106620
X28500Y-84120
X28840Y-62870
X29860Y-101020
X33120Y-114370
X33530Y-69990
X33930Y-128300
X34370Y-120540
X35060Y-78400
X35130Y-39510
X35400Y-80060
X37590Y-48940
X37930Y-103320
X42100Y-68400
X43650Y-56230
X43680Y-39800
X46270Y-75330
X52000Y-121770
X54020Y-34160
X54080Y-39510
X55050Y-97740
X56540Y-48860
X59880Y-57420
X61850Y-76720
X61890Y-71330
X62250Y-54430
X62650Y-94280
X63350Y-89170
X65330Y-106450
X66310Y-68310
X67520Y-118610
X67520Y-127340
X68110Y-96930
X73020Y-88110
X73310Y-33880
X73450Y-39760
X74260Y-97540
X75740Y-48770
X78620Y-57360
X80230Y-106040
X80370Y-71330
X80370Y-76720
X81450Y-54610
X82360Y-116140
X85000Y-68230
X88010Y-107790
X88890Y-125830
X89300Y-89610
X89300Y-97330
X90780Y-87510
X92310Y-39590
X92740Y-33880
X93280Y-97740
X94340Y-114180
X94950Y-49200
X97750Y-57080
X98170Y-105420
X99160Y-71330
X99210Y-76680
X100420Y-54490
X101500Y-107840
X104290Y-68230
X105100Y-115930
X108800Y-89560
X108840Y-102850
X109810Y-87510
X111490Y-125140
X111680Y-39680
X111750Y-33880
X112180Y-97870
X114150Y-49030
X116750Y-57190
X117410Y-71000
X117410Y-76650
X119510Y-54510
X120090Y-114320
X120290Y-107350
X123660Y-68140
X125230Y-122190
X128290Y-89750
X128290Y-102430
X130210Y-39590
X130290Y-87680
X130760Y-34020
X131280Y-97590
X133430Y-48860
X135680Y-57120
X137320Y-76560
X137360Y-71130
X137870Y-106730
X138550Y-54220
X140090Y-89260
X140350Y-116000
X142020Y-68230
X146190Y-96250
X147080Y-125140
X148980Y-87850
X149900Y-35930
X151830Y-109140
X152470Y-48940
X154710Y-114260
X155560Y-71050
X155600Y-76630
X155670Y-60390
X156770Y-106870
X157660Y-95390
X158030Y-57770
X161050Y-67890
X164940Y-114220
X165700Y-125140
X166660Y-87260
T2
X51370Y-73040
X51370Y-78120
X58990Y-73040
X58990Y-78120
T4
X28400Y-93330
X28400Y-108570
X30940Y-93330
X30940Y-108570
X33480Y-93330
X33480Y-108570
X36020Y-93330
X36020Y-108570
X38560Y-93330
X38560Y-108570
X41100Y-93330
X41100Y-108570
X43640Y-93330
X43640Y-108570
X46180Y-93330
X46180Y-108570
X48720Y-93330
X48720Y-108570
X51260Y-93330
X51260Y-108570
X53800Y-93330
X53800Y-108570
X56340Y-93330
X56340Y-108570
T6
X27155Y-74615
X34155Y-74615
T7
X34863Y-62190
X45023Y-62190
X120587Y-81240
X130747Y-81240
X158687Y-119340
X168847Y-119340
X77725Y-62190
X87885Y-62190
X46763Y-100290
X56923Y-100290
X30100Y-43140
X40260Y-43140
X115825Y-62190
X125985Y-62190
X92012Y-100290
X102172Y-100290
X68200Y-43140
X78360Y-43140
X153925Y-62190
X164085Y-62190
X130112Y-100290
X140272Y-100290
X106300Y-43140
X116460Y-43140
X63437Y-81240
X73597Y-81240
X80106Y-119340
X90266Y-119340
X144400Y-43140
X154560Y-43140
X101537Y-81240
X111697Y-81240
X139637Y-119340
X149797Y-119340
X58675Y-62190
X68835Y-62190
X139637Y-81240
X149797Y-81240
X158687Y-81240
X168847Y-81240
X96775Y-62190
X106935Y-62190
X72962Y-100290
X83122Y-100290
X49150Y-43140
X59310Y-43140
X134875Y-62190
X145035Y-62190
X111062Y-100290
X121222Y-100290
X87250Y-43140
X97410Y-43140
X37244Y-81240
X47404Y-81240
X149162Y-100290
X159322Y-100290
X125350Y-43140
X135510Y-43140
X82487Y-81240
X92647Y-81240
X103918Y-119340
X114078Y-119340
T8
X32640Y-48220
X38990Y-45680
X118365Y-67270
X124715Y-64730
X94552Y-105370
X100902Y-102830
X70740Y-48220
X77090Y-45680
X156465Y-67270
X162815Y-64730
X132652Y-105370
X139002Y-102830
X108840Y-48220
X115190Y-45680
X65977Y-86320
X72327Y-83780
X82646Y-124420
X88996Y-121880
X146940Y-48220
X153290Y-45680
X104077Y-86320
X110427Y-83780
X142177Y-124420
X148527Y-121880
X61215Y-67270
X67565Y-64730
X142177Y-86320
X148527Y-83780
X161227Y-86320
X167577Y-83780
X99315Y-67270
X105665Y-64730
X75502Y-105370
X81852Y-102830
X51690Y-48220
X58040Y-45680
X137415Y-67270
X143765Y-64730
X113602Y-105370
X119952Y-102830
X89790Y-48220
X96140Y-45680
X39784Y-86320
X46134Y-83780
X151702Y-105370
X158052Y-102830
X127890Y-48220
X134240Y-45680
X85027Y-86320
X91377Y-83780
X106458Y-124420
X112808Y-121880
X37403Y-67270
X43753Y-64730
X123127Y-86320
X129477Y-83780
X161227Y-124420
X167577Y-121880
X80265Y-67270
X86615Y-64730
X49303Y-105370
X55653Y-102830
T9
X171050Y-129610
X25920Y-32880
X156740Y-32890
X68510Y-90770
X25900Y-54930
X25920Y-129590
X149480Y-54930
X144710Y-90780
T10
X63755Y-62190
X144717Y-81240
X163767Y-81240
X101855Y-62190
X78042Y-100290
X54230Y-43140
X139955Y-62190
X116142Y-100290
X92330Y-43140
X42324Y-81240
X154242Y-100290
X130430Y-43140
X87567Y-81240
X108998Y-119340
X39942Y-62190
X125667Y-81240
X163767Y-119340
X82805Y-62190
X51843Y-100290
X35180Y-43140
X120905Y-62190
X97092Y-100290
X73280Y-43140
X159005Y-62190
X135192Y-100290
X111380Y-43140
X68517Y-81240
X85186Y-119340
X149480Y-43140
X106617Y-81240
X144717Y-119340
T3
X28705Y-76765G85X29205Y-76765
G05
X31705Y-76765G85X32205Y-76765
G05
X35705Y-76765G85X36205Y-76765
G05
X37205Y-72465G85X37705Y-72465
G05
T5
X102280Y-52240G85X117780Y-52240
G05
X64180Y-52240G85X79680Y-52240
G05
X24075Y-52240G85X41575Y-52240
G05
X140380Y-52240G85X155880Y-52240
G05
X121330Y-52240G85X136830Y-52240
G05
X83230Y-52240G85X98730Y-52240
G05
X45130Y-52240G85X60630Y-52240
G05
T0
M30
