G04 #@! TF.GenerationSoftware,KiCad,Pcbnew,(5.0.0-3-g5ebb6b6)*
G04 #@! TF.CreationDate,2018-10-13T13:09:02+09:00*
G04 #@! TF.ProjectId,pakbd,70616B62642E6B696361645F70636200,1*
G04 #@! TF.SameCoordinates,Original*
G04 #@! TF.FileFunction,Soldermask,Top*
G04 #@! TF.FilePolarity,Negative*
%FSLAX46Y46*%
G04 Gerber Fmt 4.6, Leading zero omitted, Abs format (unit mm)*
G04 Created by KiCad (PCBNEW (5.0.0-3-g5ebb6b6)) date *
%MOMM*%
%LPD*%
G01*
G04 APERTURE LIST*
%ADD10C,2.160000*%
%ADD11C,4.400000*%
%ADD12C,3.400000*%
%ADD13R,16.900000X1.400000*%
%ADD14R,18.900000X1.400000*%
%ADD15C,3.600000*%
%ADD16C,1.797000*%
%ADD17C,2.000000*%
%ADD18R,2.000000X2.000000*%
%ADD19C,1.600000*%
%ADD20O,2.700000X1.900000*%
G04 APERTURE END LIST*
D10*
G04 #@! TO.C,SW20*
X158687000Y-81240000D03*
X168847000Y-81240000D03*
D11*
X163767000Y-81240000D03*
D12*
X167577000Y-83780000D03*
X161227000Y-86320000D03*
G04 #@! TD*
D13*
G04 #@! TO.C,cr04*
X110029999Y-52240001D03*
G04 #@! TD*
G04 #@! TO.C,cr02*
X71929999Y-52240001D03*
G04 #@! TD*
D14*
G04 #@! TO.C,cr00*
X32824999Y-52240001D03*
G04 #@! TD*
D13*
G04 #@! TO.C,cr01*
X52879999Y-52240001D03*
G04 #@! TD*
G04 #@! TO.C,cr03*
X90979999Y-52240001D03*
G04 #@! TD*
G04 #@! TO.C,cr05*
X129079999Y-52240001D03*
G04 #@! TD*
G04 #@! TO.C,cr06*
X148129999Y-52240001D03*
G04 #@! TD*
D15*
G04 #@! TO.C,h01*
X156740000Y-32890000D03*
G04 #@! TD*
G04 #@! TO.C,h00*
X25920000Y-32880000D03*
G04 #@! TD*
G04 #@! TO.C,h07*
X171050000Y-129610000D03*
G04 #@! TD*
G04 #@! TO.C,h06*
X25920000Y-129590000D03*
G04 #@! TD*
G04 #@! TO.C,h04*
X68510000Y-90770000D03*
G04 #@! TD*
G04 #@! TO.C,h05*
X144710000Y-90780000D03*
G04 #@! TD*
G04 #@! TO.C,h03*
X149480000Y-54930000D03*
G04 #@! TD*
G04 #@! TO.C,h02*
X25900000Y-54930000D03*
G04 #@! TD*
D10*
G04 #@! TO.C,SW0*
X30100000Y-43140000D03*
X40260000Y-43140000D03*
D11*
X35180000Y-43140000D03*
D12*
X38990000Y-45680000D03*
X32640000Y-48220000D03*
G04 #@! TD*
D10*
G04 #@! TO.C,SW1*
X49150000Y-43140000D03*
X59310000Y-43140000D03*
D11*
X54230000Y-43140000D03*
D12*
X58040000Y-45680000D03*
X51690000Y-48220000D03*
G04 #@! TD*
D10*
G04 #@! TO.C,SW2*
X68200000Y-43140000D03*
X78360000Y-43140000D03*
D11*
X73280000Y-43140000D03*
D12*
X77090000Y-45680000D03*
X70740000Y-48220000D03*
G04 #@! TD*
D10*
G04 #@! TO.C,SW3*
X87250000Y-43140000D03*
X97410000Y-43140000D03*
D11*
X92330000Y-43140000D03*
D12*
X96140000Y-45680000D03*
X89790000Y-48220000D03*
G04 #@! TD*
D10*
G04 #@! TO.C,SW4*
X106300000Y-43140000D03*
X116460000Y-43140000D03*
D11*
X111380000Y-43140000D03*
D12*
X115190000Y-45680000D03*
X108840000Y-48220000D03*
G04 #@! TD*
D10*
G04 #@! TO.C,SW5*
X125350000Y-43140000D03*
X135510000Y-43140000D03*
D11*
X130430000Y-43140000D03*
D12*
X134240000Y-45680000D03*
X127890000Y-48220000D03*
G04 #@! TD*
D10*
G04 #@! TO.C,SW6*
X144400000Y-43140000D03*
X154560000Y-43140000D03*
D11*
X149480000Y-43140000D03*
D12*
X153290000Y-45680000D03*
X146940000Y-48220000D03*
G04 #@! TD*
D10*
G04 #@! TO.C,SW7*
X34862500Y-62190000D03*
X45022500Y-62190000D03*
D11*
X39942500Y-62190000D03*
D12*
X43752500Y-64730000D03*
X37402500Y-67270000D03*
G04 #@! TD*
D10*
G04 #@! TO.C,SW8*
X58675000Y-62190000D03*
X68835000Y-62190000D03*
D11*
X63755000Y-62190000D03*
D12*
X67565000Y-64730000D03*
X61215000Y-67270000D03*
G04 #@! TD*
D10*
G04 #@! TO.C,SW9*
X77725000Y-62190000D03*
X87885000Y-62190000D03*
D11*
X82805000Y-62190000D03*
D12*
X86615000Y-64730000D03*
X80265000Y-67270000D03*
G04 #@! TD*
D10*
G04 #@! TO.C,SW10*
X96775000Y-62190000D03*
X106935000Y-62190000D03*
D11*
X101855000Y-62190000D03*
D12*
X105665000Y-64730000D03*
X99315000Y-67270000D03*
G04 #@! TD*
D10*
G04 #@! TO.C,SW11*
X115825000Y-62190000D03*
X125985000Y-62190000D03*
D11*
X120905000Y-62190000D03*
D12*
X124715000Y-64730000D03*
X118365000Y-67270000D03*
G04 #@! TD*
D10*
G04 #@! TO.C,SW12*
X134875000Y-62190000D03*
X145035000Y-62190000D03*
D11*
X139955000Y-62190000D03*
D12*
X143765000Y-64730000D03*
X137415000Y-67270000D03*
G04 #@! TD*
D10*
G04 #@! TO.C,SW13*
X153925000Y-62190000D03*
X164085000Y-62190000D03*
D11*
X159005000Y-62190000D03*
D12*
X162815000Y-64730000D03*
X156465000Y-67270000D03*
G04 #@! TD*
D10*
G04 #@! TO.C,SW14*
X37243750Y-81240000D03*
X47403750Y-81240000D03*
D11*
X42323750Y-81240000D03*
D12*
X46133750Y-83780000D03*
X39783750Y-86320000D03*
G04 #@! TD*
D10*
G04 #@! TO.C,SW15*
X63437000Y-81240000D03*
X73597000Y-81240000D03*
D11*
X68517000Y-81240000D03*
D12*
X72327000Y-83780000D03*
X65977000Y-86320000D03*
G04 #@! TD*
D10*
G04 #@! TO.C,SW16*
X82487000Y-81240000D03*
X92647000Y-81240000D03*
D11*
X87567000Y-81240000D03*
D12*
X91377000Y-83780000D03*
X85027000Y-86320000D03*
G04 #@! TD*
D10*
G04 #@! TO.C,SW17*
X101537000Y-81240000D03*
X111697000Y-81240000D03*
D11*
X106617000Y-81240000D03*
D12*
X110427000Y-83780000D03*
X104077000Y-86320000D03*
G04 #@! TD*
D10*
G04 #@! TO.C,SW18*
X120587000Y-81240000D03*
X130747000Y-81240000D03*
D11*
X125667000Y-81240000D03*
D12*
X129477000Y-83780000D03*
X123127000Y-86320000D03*
G04 #@! TD*
D10*
G04 #@! TO.C,SW19*
X139637000Y-81240000D03*
X149797000Y-81240000D03*
D11*
X144717000Y-81240000D03*
D12*
X148527000Y-83780000D03*
X142177000Y-86320000D03*
G04 #@! TD*
D10*
G04 #@! TO.C,SW21*
X46763000Y-100290000D03*
X56923000Y-100290000D03*
D11*
X51843000Y-100290000D03*
D12*
X55653000Y-102830000D03*
X49303000Y-105370000D03*
G04 #@! TD*
D10*
G04 #@! TO.C,SW22*
X72962000Y-100290000D03*
X83122000Y-100290000D03*
D11*
X78042000Y-100290000D03*
D12*
X81852000Y-102830000D03*
X75502000Y-105370000D03*
G04 #@! TD*
D10*
G04 #@! TO.C,SW23*
X92012000Y-100290000D03*
X102172000Y-100290000D03*
D11*
X97092000Y-100290000D03*
D12*
X100902000Y-102830000D03*
X94552000Y-105370000D03*
G04 #@! TD*
D10*
G04 #@! TO.C,SW24*
X111062000Y-100290000D03*
X121222000Y-100290000D03*
D11*
X116142000Y-100290000D03*
D12*
X119952000Y-102830000D03*
X113602000Y-105370000D03*
G04 #@! TD*
D10*
G04 #@! TO.C,SW25*
X130112000Y-100290000D03*
X140272000Y-100290000D03*
D11*
X135192000Y-100290000D03*
D12*
X139002000Y-102830000D03*
X132652000Y-105370000D03*
G04 #@! TD*
D10*
G04 #@! TO.C,SW26*
X149162000Y-100290000D03*
X159322000Y-100290000D03*
D11*
X154242000Y-100290000D03*
D12*
X158052000Y-102830000D03*
X151702000Y-105370000D03*
G04 #@! TD*
D10*
G04 #@! TO.C,SW27*
X80105750Y-119340000D03*
X90265750Y-119340000D03*
D11*
X85185750Y-119340000D03*
D12*
X88995750Y-121880000D03*
X82645750Y-124420000D03*
G04 #@! TD*
D10*
G04 #@! TO.C,SW28*
X103918250Y-119340000D03*
X114078250Y-119340000D03*
D11*
X108998250Y-119340000D03*
D12*
X112808250Y-121880000D03*
X106458250Y-124420000D03*
G04 #@! TD*
D10*
G04 #@! TO.C,SW29*
X139637000Y-119340000D03*
X149797000Y-119340000D03*
D11*
X144717000Y-119340000D03*
D12*
X148527000Y-121880000D03*
X142177000Y-124420000D03*
G04 #@! TD*
D10*
G04 #@! TO.C,SW30*
X158687000Y-119340000D03*
X168847000Y-119340000D03*
D11*
X163767000Y-119340000D03*
D12*
X167577000Y-121880000D03*
X161227000Y-124420000D03*
G04 #@! TD*
D16*
G04 #@! TO.C,SW_r0*
X51370000Y-73040000D03*
X51370000Y-78120000D03*
X58990000Y-73040000D03*
X58990000Y-78120000D03*
G04 #@! TD*
D17*
G04 #@! TO.C,U0*
X28400000Y-93330000D03*
X30940000Y-93330000D03*
X33480000Y-93330000D03*
X36020000Y-93330000D03*
X38560000Y-93330000D03*
X41100000Y-93330000D03*
X43640000Y-93330000D03*
X46180000Y-93330000D03*
X48720000Y-93330000D03*
X51260000Y-93330000D03*
X53800000Y-93330000D03*
X56340000Y-93330000D03*
X56340000Y-108570000D03*
X53800000Y-108570000D03*
X51260000Y-108570000D03*
X48720000Y-108570000D03*
X46180000Y-108570000D03*
X43640000Y-108570000D03*
X41100000Y-108570000D03*
X38560000Y-108570000D03*
X36020000Y-108570000D03*
X33480000Y-108570000D03*
X30940000Y-108570000D03*
D18*
X28400000Y-108570000D03*
G04 #@! TD*
D19*
G04 #@! TO.C,J0*
X27155000Y-74615000D03*
X34155000Y-74615000D03*
D20*
X28955000Y-76765000D03*
X31955000Y-76765000D03*
X35955000Y-76765000D03*
X37455000Y-72465000D03*
G04 #@! TD*
M02*
