<?xml version="1.0" encoding="UTF-8" standalone="no"?>
<!-- Created with Inkscape (http://www.inkscape.org/) -->

<svg
   xmlns:dc="http://purl.org/dc/elements/1.1/"
   xmlns:cc="http://creativecommons.org/ns#"
   xmlns:rdf="http://www.w3.org/1999/02/22-rdf-syntax-ns#"
   xmlns:svg="http://www.w3.org/2000/svg"
   xmlns="http://www.w3.org/2000/svg"
   xmlns:sodipodi="http://sodipodi.sourceforge.net/DTD/sodipodi-0.dtd"
   xmlns:inkscape="http://www.inkscape.org/namespaces/inkscape"
   width="320mm"
   height="180mm"
   viewBox="0 0 320 180"
   version="1.1"
   id="svg913"
   inkscape:version="0.92.3 (2405546, 2018-03-11)"
   sodipodi:docname="acrylic-3mm-bottom-middle.svg">
  <defs
     id="defs907" />
  <sodipodi:namedview
     id="base"
     pagecolor="#ffffff"
     bordercolor="#666666"
     borderopacity="1.0"
     inkscape:pageopacity="0.0"
     inkscape:pageshadow="2"
     inkscape:zoom="0.98994949"
     inkscape:cx="625.89629"
     inkscape:cy="129.68905"
     inkscape:document-units="mm"
     inkscape:current-layer="layer1"
     showgrid="false"
     inkscape:showpageshadow="false"
     inkscape:window-width="2018"
     inkscape:window-height="1298"
     inkscape:window-x="1373"
     inkscape:window-y="597"
     inkscape:window-maximized="0" />
  <metadata
     id="metadata910">
    <rdf:RDF>
      <cc:Work
         rdf:about="">
        <dc:format>image/svg+xml</dc:format>
        <dc:type
           rdf:resource="http://purl.org/dc/dcmitype/StillImage" />
        <dc:title />
      </cc:Work>
    </rdf:RDF>
  </metadata>
  <g
     inkscape:label="レイヤー 1"
     inkscape:groupmode="layer"
     id="layer1"
     transform="translate(0,-117)">
    <polyline
       id="polyline25710-5"
       points="150653,47476 150746,47514 150830,47570 150901,47642 150957,47726 150996,47819 151015,47918 151015,48018 150996,48117 150957,48210 150901,48294 150830,48366 150746,48422 150653,48460 150554,48480 150453,48480 150354,48460 150261,48422 150177,48366 150106,48294 150050,48210 150011,48117 149992,48018 149992,47918 150011,47819 150050,47726 150106,47642 150177,47570 150261,47514 150354,47476 150453,47456 150554,47456 150653,47476 "
       style="fill:none;fill-opacity:1;fill-rule:evenodd;stroke:#ff0000;stroke-width:39.37007904;stroke-linecap:round;stroke-linejoin:round;stroke-miterlimit:4;stroke-dasharray:none;stroke-opacity:1"
       transform="matrix(0.00254,0,0,0.00254,-73.202123,104.46745)" />
    <polyline
       id="polyline25716-9"
       points="79995,47476 80088,47514 80172,47570 80244,47642 80300,47726 80338,47819 80358,47918 80358,48018 80338,48117 80300,48210 80244,48294 80172,48366 80088,48422 79995,48460 79896,48480 79796,48480 79697,48460 79604,48422 79520,48366 79448,48294 79392,48210 79354,48117 79334,48018 79334,47918 79354,47819 79392,47726 79448,47642 79520,47570 79604,47514 79697,47476 79796,47456 79896,47456 79995,47476 "
       style="fill:none;fill-opacity:1;fill-rule:evenodd;stroke:#ff0000;stroke-width:39.37007904;stroke-linecap:round;stroke-linejoin:round;stroke-miterlimit:4;stroke-dasharray:none;stroke-opacity:1"
       transform="matrix(0.00254,0,0,0.00254,-73.202123,104.46745)" />
    <polyline
       id="polyline26960-3"
       points="141204,9188 141297,9227 141381,9283 141452,9354 141508,9438 141547,9531 141566,9630 141566,9731 141547,9830 141508,9923 141452,10007 141381,10078 141297,10134 141204,10173 141105,10192 141004,10192 140905,10173 140812,10134 140728,10078 140657,10007 140601,9923 140562,9830 140543,9731 140543,9630 140562,9531 140601,9438 140657,9354 140728,9283 140812,9227 140905,9188 141004,9169 141105,9169 141204,9188 "
       style="fill:none;fill-opacity:1;fill-rule:evenodd;stroke:#ff0000;stroke-width:39.37007904;stroke-linecap:round;stroke-linejoin:round;stroke-miterlimit:4;stroke-dasharray:none;stroke-opacity:1"
       transform="matrix(0.00254,0,0,0.00254,-73.202123,104.46745)" />
    <polyline
       id="polyline26962-7"
       points="78117,9188 78210,9227 78294,9283 78366,9354 78422,9438 78460,9531 78480,9630 78480,9731 78460,9830 78422,9923 78366,10007 78294,10078 78210,10134 78117,10173 78018,10192 77918,10192 77819,10173 77726,10134 77642,10078 77570,10007 77514,9923 77476,9830 77456,9731 77456,9630 77476,9531 77514,9438 77570,9354 77642,9283 77726,9227 77819,9188 77918,9169 78018,9169 78117,9188 "
       style="fill:none;fill-opacity:1;fill-rule:evenodd;stroke:#ff0000;stroke-width:39.37007904;stroke-linecap:round;stroke-linejoin:round;stroke-miterlimit:4;stroke-dasharray:none;stroke-opacity:1"
       transform="matrix(0.00254,0,0,0.00254,-73.202123,104.46745)" />
    <path
       inkscape:connector-curvature="0"
       d="m 293.29671,130.41447 h 2.63845 m 0.004,30.65171 v -30.65129 m -2.64255,30.65138 v -30.65279 m 0,30.64876 h 2.63842"
       style="fill:none;fill-opacity:0;stroke:#ff0000;stroke-width:0.10000001;stroke-linecap:round;stroke-linejoin:round;stroke-miterlimit:4;stroke-dasharray:none;stroke-opacity:1"
       id="path24534-3-7-0" />
    <path
       inkscape:connector-curvature="0"
       d="m 308.53571,130.4155 h 2.5392 m -2.53881,30.65589 h 2.53921 m -2.5387,-0.005 v -30.64717 m 2.54045,30.656 v -30.66006"
       style="fill:none;fill-opacity:0;stroke:#ff0000;stroke-width:0.10000001;stroke-linecap:round;stroke-linejoin:round;stroke-miterlimit:4;stroke-dasharray:none;stroke-opacity:1"
       id="path24534-3-3-2-0" />
    <path
       inkscape:connector-curvature="0"
       d="m 282.04808,207.16462 h -31.79712 m 4.75525,-19.267 h -4.75525 m 36.55592,0.217 h -4.75718 m 4.75739,-19.267 h -31.79712 m -4.75983,38.27829 v -19.19927 m 31.799,0.18762 v 19.01157 m -27.03999,-19.2311 v -19.04435 m 31.8,0.0758 v 19.17904"
       style="fill:none;fill-opacity:0;stroke:#ff0000;stroke-width:0.10000001;stroke-linecap:round;stroke-linejoin:round;stroke-miterlimit:4;stroke-dasharray:none;stroke-opacity:1"
       id="path30742-2-8-7-2-5-4-5" />
    <path
       inkscape:connector-curvature="0"
       d="m 130.36702,164.25591 h 155.9889 M 130.35968,151.63005 h 155.99614 m 0.004,0.005 v 12.61861 m -155.99333,-7.9e-4 v -12.61293"
       style="fill:none;fill-opacity:0;stroke:#ff0000;stroke-width:0.10000001;stroke-linecap:round;stroke-linejoin:round;stroke-miterlimit:4;stroke-dasharray:none;stroke-opacity:1"
       id="path30990-3-5-5-1" />
    <path
       inkscape:connector-curvature="0"
       d="m 135.12767,183.30593 h 113.13098 m 0,-12.62051 V 183.303 m -113.131,0.003 v -12.61572 m 6e-5,0 H 248.2587"
       style="fill:none;fill-opacity:0;stroke:#ff0000;stroke-width:0.10000001;stroke-linecap:round;stroke-linejoin:round;stroke-miterlimit:4;stroke-dasharray:none;stroke-opacity:1"
       id="path31204-9-2" />
    <path
       inkscape:connector-curvature="0"
       d="m 130.36967,221.40594 h 17.87687 m -17.88057,-0.004 v -12.61201 m 17.881,-0.005 v 12.62014 m -17.87686,-12.61523 h 17.87687"
       style="fill:none;fill-opacity:0;stroke:#ff0000;stroke-width:0.10000001;stroke-linecap:round;stroke-linejoin:round;stroke-miterlimit:4;stroke-dasharray:none;stroke-opacity:1"
       id="path30828-5-3" />
    <path
       inkscape:connector-curvature="0"
       d="m 170.85467,221.40594 h 17.87687 m -17.87687,-12.616 h 17.87687 m 0.003,-0.005 v 12.61868 m -17.881,-0.002 v -12.61214"
       style="fill:none;fill-opacity:0;stroke:#ff0000;stroke-width:0.10000001;stroke-linecap:round;stroke-linejoin:round;stroke-miterlimit:4;stroke-dasharray:none;stroke-opacity:1"
       id="path30828-5-1-7" />
    <path
       inkscape:connector-curvature="0"
       d="m 206.58167,221.40593 h 75.03075 m -75.03145,-0.003 v -12.61304 m 2.4e-4,9e-5 h 75.03076 m 0,-0.005 v 12.61903"
       style="fill:none;fill-opacity:0;stroke:#ff0000;stroke-width:0.10000001;stroke-linecap:round;stroke-linejoin:round;stroke-miterlimit:4;stroke-dasharray:none;stroke-opacity:1"
       id="path30884-0-0" />
    <polyline
       id="polyline26118-1-3-4-9"
       points="10034,32078 10127,32117 10211,32173 10282,32244 10338,32328 10376,32421 10396,32520 10396,32621 10376,32720 10338,32813 10282,32897 10211,32968 10127,33024 10034,33063 9935,33082 9834,33082 9735,33063 9642,33024 9558,32968 9487,32897 9431,32813 9392,32720 9373,32621 9373,32520 9392,32421 9431,32328 9487,32244 9558,32173 9642,32117 9735,32078 9834,32059 9935,32059 10034,32078 "
       style="fill:none;fill-opacity:1;fill-rule:evenodd;stroke:#ff0000;stroke-width:26.2084465;stroke-linecap:round;stroke-linejoin:round;stroke-miterlimit:4;stroke-dasharray:none;stroke-opacity:1"
       transform="matrix(0.00381254,0,0,0.00381859,260.20702,62.799232)" />
    <polyline
       id="polyline26118-1-3-4-9-6"
       points="10034,32078 10127,32117 10211,32173 10282,32244 10338,32328 10376,32421 10396,32520 10396,32621 10376,32720 10338,32813 10282,32897 10211,32968 10127,33024 10034,33063 9935,33082 9834,33082 9735,33063 9642,33024 9558,32968 9487,32897 9431,32813 9392,32720 9373,32621 9373,32520 9392,32421 9431,32328 9487,32244 9558,32173 9642,32117 9735,32078 9834,32059 9935,32059 10034,32078 "
       style="fill:none;fill-opacity:1;fill-rule:evenodd;stroke:#ff0000;stroke-width:26.2084465;stroke-linecap:round;stroke-linejoin:round;stroke-miterlimit:4;stroke-dasharray:none;stroke-opacity:1"
       transform="matrix(0.00381254,0,0,0.00381859,270.20195,62.797702)" />
    <path
       inkscape:connector-curvature="0"
       d="m 291.82655,208.2169 h 18.36595 m -18.36534,-16.93798 h 18.37106 m -18.37309,16.93928 v -16.94018 m 18.37197,16.93708 v -16.9362"
       style="fill:none;fill-opacity:0;stroke:#ff0000;stroke-width:0.10000001;stroke-linecap:round;stroke-linejoin:round;stroke-miterlimit:4;stroke-dasharray:none;stroke-opacity:1"
       id="path30746-8-0-7-5-3-1" />
    <path
       inkscape:connector-curvature="0"
       d="m 120.83612,125.05971 v 23.99744 m 0,0 h 4.77012 m 187.4698,-24.00046 v 105.24999 m -187.4698,-81.27462 v 81.27462 m 0,0 h 187.4698 M 120.83612,125.05669 h 192.23992"
       style="fill:none;fill-opacity:0;stroke:#ff0000;stroke-width:0.10000002;stroke-linecap:round;stroke-linejoin:round;stroke-miterlimit:4;stroke-dasharray:none;stroke-opacity:1"
       id="path26612-0" />
    <path
       inkscape:connector-curvature="0"
       id="path20561"
       d="M 296.65668,183.2166 H 311.076"
       style="fill:none;fill-opacity:0;stroke:#ff0000;stroke-width:0.09999999;stroke-linecap:round;stroke-linejoin:round;stroke-miterlimit:4;stroke-dasharray:none;stroke-opacity:1" />
    <path
       inkscape:connector-curvature="0"
       d="m 296.65673,162.3956 h 14.41522"
       style="fill:none;fill-opacity:0;stroke:#ff0000;stroke-width:0.10000001;stroke-linecap:round;stroke-linejoin:round;stroke-miterlimit:4;stroke-dasharray:none;stroke-opacity:1"
       id="path20559" />
    <path
       inkscape:connector-curvature="0"
       id="path20557"
       d="M 296.66689,183.20435 V 162.39603"
       style="fill:none;fill-opacity:0;stroke:#ff0000;stroke-width:0.09999999;stroke-linecap:round;stroke-linejoin:round;stroke-miterlimit:4;stroke-dasharray:none;stroke-opacity:1" />
    <path
       inkscape:connector-curvature="0"
       id="path30746-8-0-7-5-3-1-2"
       d="M 311.0769,183.20438 V 162.39717"
       style="fill:none;fill-opacity:0;stroke:#ff0000;stroke-width:0.10000002;stroke-linecap:round;stroke-linejoin:round;stroke-miterlimit:4;stroke-dasharray:none;stroke-opacity:1" />
    <polyline
       id="polyline25712-1"
       points="9562,47476 9655,47514 9739,47570 9810,47642 9866,47726 9905,47819 9925,47918 9925,48018 9905,48117 9866,48210 9810,48294 9739,48366 9655,48422 9562,48460 9463,48480 9362,48480 9264,48460 9170,48422 9087,48366 9015,48294 8959,48210 8921,48117 8901,48018 8901,47918 8921,47819 8959,47726 9015,47642 9087,47570 9170,47514 9264,47476 9362,47456 9463,47456 9562,47476 "
       style="fill:none;fill-opacity:1;fill-rule:evenodd;stroke:#ff0000;stroke-width:39.37007904;stroke-linecap:round;stroke-linejoin:round;stroke-miterlimit:4;stroke-dasharray:none;stroke-opacity:1"
       transform="matrix(0,0.00254,-0.00254,0,133.15731,105.05019)" />
    <polyline
       id="polyline25714-48"
       points="68779,47476 68872,47514 68956,47570 69027,47642 69083,47726 69122,47819 69141,47918 69141,48018 69122,48117 69083,48210 69027,48294 68956,48366 68872,48422 68779,48460 68680,48480 68579,48480 68480,48460 68387,48422 68303,48366 68232,48294 68176,48210 68137,48117 68118,48018 68118,47918 68137,47819 68176,47726 68232,47642 68303,47570 68387,47514 68480,47476 68579,47456 68680,47456 68779,47476 "
       style="fill:none;fill-opacity:1;fill-rule:evenodd;stroke:#ff0000;stroke-width:39.37007904;stroke-linecap:round;stroke-linejoin:round;stroke-miterlimit:4;stroke-dasharray:none;stroke-opacity:1"
       transform="matrix(0,0.00254,-0.00254,0,133.15731,105.05019)" />
    <polyline
       id="polyline26958-9"
       points="67098,9192 67191,9231 67275,9287 67346,9358 67402,9442 67440,9535 67460,9634 67460,9735 67440,9834 67402,9927 67346,10011 67275,10082 67191,10138 67098,10177 66999,10196 66898,10196 66799,10177 66706,10138 66622,10082 66551,10011 66495,9927 66456,9834 66437,9735 66437,9634 66456,9535 66495,9442 66551,9358 66622,9287 66706,9231 66799,9192 66898,9173 66999,9173 67098,9192 "
       style="fill:none;fill-opacity:1;fill-rule:evenodd;stroke:#ff0000;stroke-width:39.37007904;stroke-linecap:round;stroke-linejoin:round;stroke-miterlimit:4;stroke-dasharray:none;stroke-opacity:1"
       transform="matrix(0,0.00254,-0.00254,0,133.15731,105.05019)" />
    <polyline
       id="polyline26964-2"
       points="19011,9188 19104,9227 19188,9283 19259,9354 19315,9438 19354,9531 19374,9630 19374,9731 19354,9830 19315,9923 19259,10007 19188,10078 19104,10134 19011,10173 18912,10192 18811,10192 18712,10173 18619,10134 18535,10078 18464,10007 18408,9923 18370,9830 18350,9731 18350,9630 18370,9531 18408,9438 18464,9354 18535,9283 18619,9227 18712,9188 18811,9169 18912,9169 19011,9188 "
       style="fill:none;fill-opacity:1;fill-rule:evenodd;stroke:#ff0000;stroke-width:39.37007904;stroke-linecap:round;stroke-linejoin:round;stroke-miterlimit:4;stroke-dasharray:none;stroke-opacity:1"
       transform="matrix(0,0.00254,-0.00254,0,133.15731,105.05019)" />
    <path
       inkscape:connector-curvature="0"
       d="m 16.211656,260.04326 h 12.62276 m -12.61558,17.87103 v -17.86511 m 12.62046,17.87502 h -12.62892 m 12.62404,-17.86411 v 17.85365"
       style="fill:none;fill-opacity:0;stroke:#ff0000;stroke-width:0.10000001;stroke-linecap:round;stroke-linejoin:round;stroke-miterlimit:4;stroke-dasharray:none;stroke-opacity:1"
       id="path30322-6" />
    <path
       inkscape:connector-curvature="0"
       d="m 47.889426,282.6867 h -12.62071 m 12.6157,-94.07264 v 94.07264 m -12.61557,-0.005 v -94.07474 m -0.001,-0.001 h 12.6207"
       style="fill:none;fill-opacity:0;stroke:#ff0000;stroke-width:0.10000001;stroke-linecap:round;stroke-linejoin:round;stroke-miterlimit:4;stroke-dasharray:none;stroke-opacity:1"
       id="path30738-9" />
    <path
       inkscape:connector-curvature="0"
       d="M 88.468546,283.85858 H 7.318076 M 112.56807,124.95871 v 154.13991 m -24.099524,0 v 4.75996 m 24.099524,-158.89987 -105.249994,0 m 0,0 V 283.85858 M 112.56807,279.09862 H 88.468546"
       style="fill:none;fill-opacity:0;stroke:#ff0000;stroke-width:0.10000001;stroke-linecap:round;stroke-linejoin:round;stroke-miterlimit:4;stroke-dasharray:none;stroke-opacity:1"
       id="path20597" />
    <path
       inkscape:connector-curvature="0"
       id="path20595"
       d="M 28.839306,237.4366 H 16.216546"
       style="fill:none;fill-opacity:0;stroke:#ff0000;stroke-width:0.10000001;stroke-linecap:round;stroke-linejoin:round;stroke-miterlimit:4;stroke-dasharray:none;stroke-opacity:1" />
    <path
       inkscape:connector-curvature="0"
       id="path20593"
       d="m 16.215546,195.7433 h 12.6191"
       style="fill:none;fill-opacity:0;stroke:#ff0000;stroke-width:0.10000001;stroke-linecap:round;stroke-linejoin:round;stroke-miterlimit:4;stroke-dasharray:none;stroke-opacity:1" />
    <path
       inkscape:connector-curvature="0"
       id="path20591"
       d="M 16.218836,237.43123 V 195.74706"
       style="fill:none;fill-opacity:0;stroke:#ff0000;stroke-width:0.10000001;stroke-linecap:round;stroke-linejoin:round;stroke-miterlimit:4;stroke-dasharray:none;stroke-opacity:1" />
    <path
       inkscape:connector-curvature="0"
       id="path31532-8"
       d="m 28.834416,195.74386 v 41.69273"
       style="fill:none;fill-opacity:0;stroke:#ff0000;stroke-width:0.10000001;stroke-linecap:round;stroke-linejoin:round;stroke-miterlimit:4;stroke-dasharray:none;stroke-opacity:1" />
    <path
       inkscape:connector-curvature="0"
       d="m 107.20626,126.95736 v 2.63844 m -30.651714,0.005 h 30.651294 m -30.651384,-2.64257 h 30.652794 m -30.648764,-5.8e-4 v 2.63845"
       style="fill:none;fill-opacity:0;stroke:#ff0000;stroke-width:0.10000001;stroke-linecap:round;stroke-linejoin:round;stroke-miterlimit:4;stroke-dasharray:none;stroke-opacity:1"
       id="path24534-3-7" />
    <path
       inkscape:connector-curvature="0"
       d="m 107.20523,142.19633 v 2.53921 m -30.655894,-2.5388 v 2.53921 m 0.005,-2.5387 h 30.647174 m -30.656004,2.54044 h 30.660244"
       style="fill:none;fill-opacity:0;stroke:#ff0000;stroke-width:0.10000001;stroke-linecap:round;stroke-linejoin:round;stroke-miterlimit:4;stroke-dasharray:none;stroke-opacity:1"
       id="path24534-3-3-2" />
    <path
       inkscape:connector-curvature="0"
       d="M 92.418686,145.7483 V 277.92245 M 105.03485,145.74563 v 132.17413 m 0.004,0.004 H 92.418136 m -0.003,-132.18067 H 105.0362"
       style="fill:none;fill-opacity:0;stroke:#ff0000;stroke-width:0.10000001;stroke-linecap:round;stroke-linejoin:round;stroke-miterlimit:4;stroke-dasharray:none;stroke-opacity:1"
       id="path30382-9-5-7" />
    <path
       inkscape:connector-curvature="0"
       d="M 73.365956,150.50981 V 268.3953 m 12.61854,-117.8916 v 117.88646 m 0.005,0.009 h -12.62141 m -0.006,-117.89331 h 12.62202"
       style="fill:none;fill-opacity:0;stroke:#ff0000;stroke-width:0.10000001;stroke-linecap:round;stroke-linejoin:round;stroke-miterlimit:4;stroke-dasharray:none;stroke-opacity:1"
       id="path30382-9-5-7-7-9" />
    <path
       inkscape:connector-curvature="0"
       d="m 49.711036,183.12556 h -19.21977 m -0.0188,-31.801 h 19.25763 m -2.6e-4,0.002 v 31.79727 m -19.267,7e-5 v -31.7971"
       style="fill:none;fill-opacity:0;stroke:#ff0000;stroke-width:0.10000001;stroke-linecap:round;stroke-linejoin:round;stroke-miterlimit:4;stroke-dasharray:none;stroke-opacity:1"
       id="path30744-7-2-6-2" />
    <path
       inkscape:connector-curvature="0"
       d="m 54.316896,152.88877 v 17.87191 m 12.61753,-17.87486 v 17.88346 m -12.61955,-17.88346 h 12.61955 m 0.005,17.88346 h -12.62378"
       style="fill:none;fill-opacity:0;stroke:#ff0000;stroke-width:0.10000001;stroke-linecap:round;stroke-linejoin:round;stroke-miterlimit:4;stroke-dasharray:none;stroke-opacity:1"
       id="path30382-9-5-7-7-9-1-0" />
    <path
       inkscape:connector-curvature="0"
       d="m 66.932896,179.08368 v 94.08061 m -12.616,-94.0786 v 94.06503 m 12.62242,0.011 h -12.62339 m 2e-5,-94.08081 h 12.61848"
       style="fill:none;fill-opacity:0;stroke:#ff0000;stroke-width:0.10000001;stroke-linecap:round;stroke-linejoin:round;stroke-miterlimit:4;stroke-dasharray:none;stroke-opacity:1"
       id="path30382-9-5-7-7-9-1-0-8-8" />
    <polyline
       id="polyline26118-1-3"
       points="10034,32078 10127,32117 10211,32173 10282,32244 10338,32328 10376,32421 10396,32520 10396,32621 10376,32720 10338,32813 10282,32897 10211,32968 10127,33024 10034,33063 9935,33082 9834,33082 9735,33063 9642,33024 9558,32968 9487,32897 9431,32813 9392,32720 9373,32621 9373,32520 9392,32421 9431,32328 9487,32244 9558,32173 9642,32117 9735,32078 9834,32059 9935,32059 10034,32078 "
       style="fill:none;fill-opacity:1;fill-rule:evenodd;stroke:#ff0000;stroke-width:26.2084465;stroke-linecap:round;stroke-linejoin:round;stroke-miterlimit:4;stroke-dasharray:none;stroke-opacity:1"
       transform="matrix(0,0.00381254,-0.00381859,0,174.81923,92.479214)" />
    <polyline
       id="polyline26118-1-3-4"
       points="10034,32078 10127,32117 10211,32173 10282,32244 10338,32328 10376,32421 10396,32520 10396,32621 10376,32720 10338,32813 10282,32897 10211,32968 10127,33024 10034,33063 9935,33082 9834,33082 9735,33063 9642,33024 9558,32968 9487,32897 9431,32813 9392,32720 9373,32621 9373,32520 9392,32421 9431,32328 9487,32244 9558,32173 9642,32117 9735,32078 9834,32059 9935,32059 10034,32078 "
       style="fill:none;fill-opacity:1;fill-rule:evenodd;stroke:#ff0000;stroke-width:26.2084465;stroke-linecap:round;stroke-linejoin:round;stroke-miterlimit:4;stroke-dasharray:none;stroke-opacity:1"
       transform="matrix(0,0.00381254,-0.00381859,0,174.82704,102.47521)" />
    <path
       inkscape:connector-curvature="0"
       d="m 29.407856,127.70969 v 18.36595 m 16.93798,-18.36533 v 18.37106 m -16.93928,-18.37312 h 16.94018 m -16.93708,18.372 h 16.9362"
       style="fill:none;fill-opacity:0;stroke:#ff0000;stroke-width:0.10000001;stroke-linecap:round;stroke-linejoin:round;stroke-miterlimit:4;stroke-dasharray:none;stroke-opacity:1"
       id="path30746-8-0-7-5-3" />
    <path
       inkscape:connector-curvature="0"
       id="path20561-4"
       d="m 54.408106,126.94607 v 14.41932"
       style="fill:none;fill-opacity:0;stroke:#ff0000;stroke-width:0.09999999;stroke-linecap:round;stroke-linejoin:round;stroke-miterlimit:4;stroke-dasharray:none;stroke-opacity:1" />
    <path
       inkscape:connector-curvature="0"
       d="m 75.229226,126.94613 v 14.41521"
       style="fill:none;fill-opacity:0;stroke:#ff0000;stroke-width:0.10000001;stroke-linecap:round;stroke-linejoin:round;stroke-miterlimit:4;stroke-dasharray:none;stroke-opacity:1"
       id="path20559-7" />
    <path
       inkscape:connector-curvature="0"
       id="path20557-6"
       d="m 54.420456,126.95629 h 20.80832"
       style="fill:none;fill-opacity:0;stroke:#ff0000;stroke-width:0.09999999;stroke-linecap:round;stroke-linejoin:round;stroke-miterlimit:4;stroke-dasharray:none;stroke-opacity:1" />
    <path
       inkscape:connector-curvature="0"
       id="path30746-8-0-7-5-3-1-2-3"
       d="m 54.420456,141.36629 h 20.80721"
       style="fill:none;fill-opacity:0;stroke:#ff0000;stroke-width:0.10000002;stroke-linecap:round;stroke-linejoin:round;stroke-miterlimit:4;stroke-dasharray:none;stroke-opacity:1" />
    <path
       inkscape:connector-curvature="0"
       d="m 121.84131,132.59033 v 11.97418 m 0.001,0.002 H 291.05447 M 121.84131,132.59033 h 169.28116 m 0,-0.007 v 11.96169"
       style="fill:none;fill-opacity:0;stroke:#ff0000;stroke-width:0.10000003;stroke-linecap:round;stroke-linejoin:round;stroke-miterlimit:4;stroke-dasharray:none;stroke-opacity:1"
       id="path26612-0-8" />
    <path
       inkscape:connector-curvature="0"
       d="m 126.60816,189.74302 v 12.61165 m 0,-12.61433 h 112.12647 m 0,-0.005 v 12.62049 m -112.12781,0 h 112.12847"
       style="fill:none;fill-opacity:0;stroke:#ff0000;stroke-width:0.10000002;stroke-linecap:round;stroke-linejoin:round;stroke-miterlimit:4;stroke-dasharray:none;stroke-opacity:1"
       id="path26612-0-8-2" />
    <polyline
       id="polyline11153"
       points="10034,32078 10127,32117 10211,32173 10282,32244 10338,32328 10376,32421 10396,32520 10396,32621 10376,32720 10338,32813 10282,32897 10211,32968 10127,33024 10034,33063 9935,33082 9834,33082 9735,33063 9642,33024 9558,32968 9487,32897 9431,32813 9392,32720 9373,32621 9373,32520 9392,32421 9431,32328 9487,32244 9558,32173 9642,32117 9735,32078 9834,32059 9935,32059 10034,32078 "
       style="fill:none;fill-opacity:1;fill-rule:evenodd;stroke:#ff0000;stroke-width:39.37007904;stroke-linecap:round;stroke-linejoin:round;stroke-miterlimit:4;stroke-dasharray:none;stroke-opacity:1"
       transform="matrix(0,0.00254,-0.00254,0,212.98409,219.35005)" />
    <polyline
       id="polyline11155"
       points="13971,32078 14064,32117 14148,32173 14219,32244 14275,32328 14313,32421 14333,32520 14333,32621 14313,32720 14275,32813 14219,32897 14148,32968 14064,33024 13971,33063 13872,33082 13771,33082 13672,33063 13579,33024 13495,32968 13424,32897 13368,32813 13329,32720 13310,32621 13310,32520 13329,32421 13368,32328 13424,32244 13495,32173 13579,32117 13672,32078 13771,32059 13872,32059 13971,32078 "
       style="fill:none;fill-opacity:1;fill-rule:evenodd;stroke:#ff0000;stroke-width:39.37007904;stroke-linecap:round;stroke-linejoin:round;stroke-miterlimit:4;stroke-dasharray:none;stroke-opacity:1"
       transform="matrix(0,0.00254,-0.00254,0,212.98409,219.35005)" />
    <path
       inkscape:connector-curvature="0"
       d="m 192.41664,239.26033 h -66.7967 m 66.79577,20.27639 h -66.7957 m 66.79978,-20.27795 v 20.27785 m -66.80063,-20.27439 v 20.26826"
       style="fill:none;fill-opacity:0;stroke:#ff0000;stroke-width:0.10000001;stroke-linecap:round;stroke-linejoin:round;stroke-miterlimit:4;stroke-dasharray:none;stroke-opacity:1"
       id="path31530-70-7-2" />
    <polyline
       id="polyline11153-8"
       points="10034,32078 10127,32117 10211,32173 10282,32244 10338,32328 10376,32421 10396,32520 10396,32621 10376,32720 10338,32813 10282,32897 10211,32968 10127,33024 10034,33063 9935,33082 9834,33082 9735,33063 9642,33024 9558,32968 9487,32897 9431,32813 9392,32720 9373,32621 9373,32520 9392,32421 9431,32328 9487,32244 9558,32173 9642,32117 9735,32078 9834,32059 9935,32059 10034,32078 "
       style="fill:none;fill-opacity:1;fill-rule:evenodd;stroke:#ff0000;stroke-width:39.37007904;stroke-linecap:round;stroke-linejoin:round;stroke-miterlimit:4;stroke-dasharray:none;stroke-opacity:1"
       transform="matrix(0,-0.00254,-0.00254,0,213.02742,305.69125)" />
    <polyline
       id="polyline11155-9"
       points="13971,32078 14064,32117 14148,32173 14219,32244 14275,32328 14313,32421 14333,32520 14333,32621 14313,32720 14275,32813 14219,32897 14148,32968 14064,33024 13971,33063 13872,33082 13771,33082 13672,33063 13579,33024 13495,32968 13424,32897 13368,32813 13329,32720 13310,32621 13310,32520 13329,32421 13368,32328 13424,32244 13495,32173 13579,32117 13672,32078 13771,32059 13872,32059 13971,32078 "
       style="fill:none;fill-opacity:1;fill-rule:evenodd;stroke:#ff0000;stroke-width:39.37007904;stroke-linecap:round;stroke-linejoin:round;stroke-miterlimit:4;stroke-dasharray:none;stroke-opacity:1"
       transform="matrix(0,-0.00254,-0.00254,0,213.02742,305.69125)" />
    <path
       inkscape:connector-curvature="0"
       d="m 192.42877,285.7857 h -66.7977 m 66.79806,-20.27639 h -66.7977 m 66.80085,20.27466 v -20.27455 m -66.80034,20.27439 v -20.26827"
       style="fill:none;fill-opacity:0;stroke:#ff0000;stroke-width:0.10000001;stroke-linecap:round;stroke-linejoin:round;stroke-miterlimit:4;stroke-dasharray:none;stroke-opacity:1"
       id="path31530-70-7-2-1" />
    <polyline
       id="polyline11153-9"
       points="10034,32078 10127,32117 10211,32173 10282,32244 10338,32328 10376,32421 10396,32520 10396,32621 10376,32720 10338,32813 10282,32897 10211,32968 10127,33024 10034,33063 9935,33082 9834,33082 9735,33063 9642,33024 9558,32968 9487,32897 9431,32813 9392,32720 9373,32621 9373,32520 9392,32421 9431,32328 9487,32244 9558,32173 9642,32117 9735,32078 9834,32059 9935,32059 10034,32078 "
       style="fill:none;fill-opacity:1;fill-rule:evenodd;stroke:#ff0000;stroke-width:39.37007904;stroke-linecap:round;stroke-linejoin:round;stroke-miterlimit:4;stroke-dasharray:none;stroke-opacity:1"
       transform="matrix(0,0.00254,-0.00254,0,288.35375,219.61767)" />
    <polyline
       id="polyline11155-2"
       points="13971,32078 14064,32117 14148,32173 14219,32244 14275,32328 14313,32421 14333,32520 14333,32621 14313,32720 14275,32813 14219,32897 14148,32968 14064,33024 13971,33063 13872,33082 13771,33082 13672,33063 13579,33024 13495,32968 13424,32897 13368,32813 13329,32720 13310,32621 13310,32520 13329,32421 13368,32328 13424,32244 13495,32173 13579,32117 13672,32078 13771,32059 13872,32059 13971,32078 "
       style="fill:none;fill-opacity:1;fill-rule:evenodd;stroke:#ff0000;stroke-width:39.37007904;stroke-linecap:round;stroke-linejoin:round;stroke-miterlimit:4;stroke-dasharray:none;stroke-opacity:1"
       transform="matrix(0,0.00254,-0.00254,0,288.35375,219.61767)" />
    <path
       inkscape:connector-curvature="0"
       d="m 267.7863,239.52795 h -66.7967 m 66.79577,20.27639 h -66.7957 m 66.79978,-20.27795 v 20.27785 m -66.80063,-20.27439 v 20.26826"
       style="fill:none;fill-opacity:0;stroke:#ff0000;stroke-width:0.10000001;stroke-linecap:round;stroke-linejoin:round;stroke-miterlimit:4;stroke-dasharray:none;stroke-opacity:1"
       id="path31530-70-7-2-5" />
    <polyline
       id="polyline11153-8-4"
       points="10034,32078 10127,32117 10211,32173 10282,32244 10338,32328 10376,32421 10396,32520 10396,32621 10376,32720 10338,32813 10282,32897 10211,32968 10127,33024 10034,33063 9935,33082 9834,33082 9735,33063 9642,33024 9558,32968 9487,32897 9431,32813 9392,32720 9373,32621 9373,32520 9392,32421 9431,32328 9487,32244 9558,32173 9642,32117 9735,32078 9834,32059 9935,32059 10034,32078 "
       style="fill:none;fill-opacity:1;fill-rule:evenodd;stroke:#ff0000;stroke-width:39.37007904;stroke-linecap:round;stroke-linejoin:round;stroke-miterlimit:4;stroke-dasharray:none;stroke-opacity:1"
       transform="matrix(0,-0.00254,-0.00254,0,288.39708,305.95887)" />
    <polyline
       id="polyline11155-9-2"
       points="13971,32078 14064,32117 14148,32173 14219,32244 14275,32328 14313,32421 14333,32520 14333,32621 14313,32720 14275,32813 14219,32897 14148,32968 14064,33024 13971,33063 13872,33082 13771,33082 13672,33063 13579,33024 13495,32968 13424,32897 13368,32813 13329,32720 13310,32621 13310,32520 13329,32421 13368,32328 13424,32244 13495,32173 13579,32117 13672,32078 13771,32059 13872,32059 13971,32078 "
       style="fill:none;fill-opacity:1;fill-rule:evenodd;stroke:#ff0000;stroke-width:39.37007904;stroke-linecap:round;stroke-linejoin:round;stroke-miterlimit:4;stroke-dasharray:none;stroke-opacity:1"
       transform="matrix(0,-0.00254,-0.00254,0,288.39708,305.95887)" />
    <path
       inkscape:connector-curvature="0"
       d="m 267.79843,286.05332 h -66.7977 m 66.79806,-20.27639 h -66.7977 m 66.80085,20.27466 v -20.27455 m -66.80034,20.27439 v -20.26827"
       style="fill:none;fill-opacity:0;stroke:#ff0000;stroke-width:0.10000001;stroke-linecap:round;stroke-linejoin:round;stroke-miterlimit:4;stroke-dasharray:none;stroke-opacity:1"
       id="path31530-70-7-2-1-9" />
  </g>
</svg>
